<?xml version="1.0" encoding="utf-8" standalone="no"?>
<!DOCTYPE svg PUBLIC "-//W3C//DTD SVG 1.1//EN"
  "http://www.w3.org/Graphics/SVG/1.1/DTD/svg11.dtd">
<!-- Created with matplotlib (https://matplotlib.org/) -->
<svg height="576pt" version="1.1" viewBox="0 0 864 576" width="864pt" xmlns="http://www.w3.org/2000/svg" xmlns:xlink="http://www.w3.org/1999/xlink">
 <metadata>
  <rdf:RDF xmlns:cc="http://creativecommons.org/ns#" xmlns:dc="http://purl.org/dc/elements/1.1/" xmlns:rdf="http://www.w3.org/1999/02/22-rdf-syntax-ns#">
   <cc:Work>
    <dc:type rdf:resource="http://purl.org/dc/dcmitype/StillImage"/>
    <dc:date>2024-03-08T18:38:53.973040</dc:date>
    <dc:format>image/svg+xml</dc:format>
    <dc:creator>
     <cc:Agent>
      <dc:title>Matplotlib v3.3.4, https://matplotlib.org/</dc:title>
     </cc:Agent>
    </dc:creator>
   </cc:Work>
  </rdf:RDF>
 </metadata>
 <defs>
  <style type="text/css">*{stroke-linecap:butt;stroke-linejoin:round;}</style>
 </defs>
 <g id="figure_1">
  <g id="patch_1">
   <path d="M 0 576 
L 864 576 
L 864 0 
L 0 0 
z
" style="fill:#ffffff;"/>
  </g>
  <g id="axes_1">
   <g id="patch_2">
    <path d="M 108 460.8 
L 777.6 460.8 
L 777.6 69.12 
L 108 69.12 
z
" style="fill:#ffffff;"/>
   </g>
   <g id="matplotlib.axis_1">
    <g id="xtick_1">
     <g id="line2d_1">
      <defs>
       <path d="M 0 0 
L 0 3.5 
" id="mc6652df2b8" style="stroke:#000000;stroke-width:0.8;"/>
      </defs>
      <g>
       <use style="stroke:#000000;stroke-width:0.8;" x="136.761736" xlink:href="#mc6652df2b8" y="460.8"/>
      </g>
     </g>
     <g id="text_1">
      <!-- 2020-01 -->
      <g transform="translate(92.091951 500.766215)rotate(-30)scale(0.12 -0.12)">
       <defs>
        <path d="M 19.1875 8.296875 
L 53.609375 8.296875 
L 53.609375 0 
L 7.328125 0 
L 7.328125 8.296875 
Q 12.9375 14.109375 22.625 23.890625 
Q 32.328125 33.6875 34.8125 36.53125 
Q 39.546875 41.84375 41.421875 45.53125 
Q 43.3125 49.21875 43.3125 52.78125 
Q 43.3125 58.59375 39.234375 62.25 
Q 35.15625 65.921875 28.609375 65.921875 
Q 23.96875 65.921875 18.8125 64.3125 
Q 13.671875 62.703125 7.8125 59.421875 
L 7.8125 69.390625 
Q 13.765625 71.78125 18.9375 73 
Q 24.125 74.21875 28.421875 74.21875 
Q 39.75 74.21875 46.484375 68.546875 
Q 53.21875 62.890625 53.21875 53.421875 
Q 53.21875 48.921875 51.53125 44.890625 
Q 49.859375 40.875 45.40625 35.40625 
Q 44.1875 33.984375 37.640625 27.21875 
Q 31.109375 20.453125 19.1875 8.296875 
z
" id="DejaVuSans-50"/>
        <path d="M 31.78125 66.40625 
Q 24.171875 66.40625 20.328125 58.90625 
Q 16.5 51.421875 16.5 36.375 
Q 16.5 21.390625 20.328125 13.890625 
Q 24.171875 6.390625 31.78125 6.390625 
Q 39.453125 6.390625 43.28125 13.890625 
Q 47.125 21.390625 47.125 36.375 
Q 47.125 51.421875 43.28125 58.90625 
Q 39.453125 66.40625 31.78125 66.40625 
z
M 31.78125 74.21875 
Q 44.046875 74.21875 50.515625 64.515625 
Q 56.984375 54.828125 56.984375 36.375 
Q 56.984375 17.96875 50.515625 8.265625 
Q 44.046875 -1.421875 31.78125 -1.421875 
Q 19.53125 -1.421875 13.0625 8.265625 
Q 6.59375 17.96875 6.59375 36.375 
Q 6.59375 54.828125 13.0625 64.515625 
Q 19.53125 74.21875 31.78125 74.21875 
z
" id="DejaVuSans-48"/>
        <path d="M 4.890625 31.390625 
L 31.203125 31.390625 
L 31.203125 23.390625 
L 4.890625 23.390625 
z
" id="DejaVuSans-45"/>
        <path d="M 12.40625 8.296875 
L 28.515625 8.296875 
L 28.515625 63.921875 
L 10.984375 60.40625 
L 10.984375 69.390625 
L 28.421875 72.90625 
L 38.28125 72.90625 
L 38.28125 8.296875 
L 54.390625 8.296875 
L 54.390625 0 
L 12.40625 0 
z
" id="DejaVuSans-49"/>
       </defs>
       <use xlink:href="#DejaVuSans-50"/>
       <use x="63.623047" xlink:href="#DejaVuSans-48"/>
       <use x="127.246094" xlink:href="#DejaVuSans-50"/>
       <use x="190.869141" xlink:href="#DejaVuSans-48"/>
       <use x="254.492188" xlink:href="#DejaVuSans-45"/>
       <use x="290.576172" xlink:href="#DejaVuSans-48"/>
       <use x="354.199219" xlink:href="#DejaVuSans-49"/>
      </g>
     </g>
    </g>
    <g id="xtick_2">
     <g id="line2d_2">
      <g>
       <use style="stroke:#000000;stroke-width:0.8;" x="212.957309" xlink:href="#mc6652df2b8" y="460.8"/>
      </g>
     </g>
     <g id="text_2">
      <!-- 2020-04 -->
      <g transform="translate(168.287524 500.766215)rotate(-30)scale(0.12 -0.12)">
       <defs>
        <path d="M 37.796875 64.3125 
L 12.890625 25.390625 
L 37.796875 25.390625 
z
M 35.203125 72.90625 
L 47.609375 72.90625 
L 47.609375 25.390625 
L 58.015625 25.390625 
L 58.015625 17.1875 
L 47.609375 17.1875 
L 47.609375 0 
L 37.796875 0 
L 37.796875 17.1875 
L 4.890625 17.1875 
L 4.890625 26.703125 
z
" id="DejaVuSans-52"/>
       </defs>
       <use xlink:href="#DejaVuSans-50"/>
       <use x="63.623047" xlink:href="#DejaVuSans-48"/>
       <use x="127.246094" xlink:href="#DejaVuSans-50"/>
       <use x="190.869141" xlink:href="#DejaVuSans-48"/>
       <use x="254.492188" xlink:href="#DejaVuSans-45"/>
       <use x="290.576172" xlink:href="#DejaVuSans-48"/>
       <use x="354.199219" xlink:href="#DejaVuSans-52"/>
      </g>
     </g>
    </g>
    <g id="xtick_3">
     <g id="line2d_3">
      <g>
       <use style="stroke:#000000;stroke-width:0.8;" x="289.152882" xlink:href="#mc6652df2b8" y="460.8"/>
      </g>
     </g>
     <g id="text_3">
      <!-- 2020-07 -->
      <g transform="translate(244.483097 500.766215)rotate(-30)scale(0.12 -0.12)">
       <defs>
        <path d="M 8.203125 72.90625 
L 55.078125 72.90625 
L 55.078125 68.703125 
L 28.609375 0 
L 18.3125 0 
L 43.21875 64.59375 
L 8.203125 64.59375 
z
" id="DejaVuSans-55"/>
       </defs>
       <use xlink:href="#DejaVuSans-50"/>
       <use x="63.623047" xlink:href="#DejaVuSans-48"/>
       <use x="127.246094" xlink:href="#DejaVuSans-50"/>
       <use x="190.869141" xlink:href="#DejaVuSans-48"/>
       <use x="254.492188" xlink:href="#DejaVuSans-45"/>
       <use x="290.576172" xlink:href="#DejaVuSans-48"/>
       <use x="354.199219" xlink:href="#DejaVuSans-55"/>
      </g>
     </g>
    </g>
    <g id="xtick_4">
     <g id="line2d_4">
      <g>
       <use style="stroke:#000000;stroke-width:0.8;" x="366.18577" xlink:href="#mc6652df2b8" y="460.8"/>
      </g>
     </g>
     <g id="text_4">
      <!-- 2020-10 -->
      <g transform="translate(321.515985 500.766215)rotate(-30)scale(0.12 -0.12)">
       <use xlink:href="#DejaVuSans-50"/>
       <use x="63.623047" xlink:href="#DejaVuSans-48"/>
       <use x="127.246094" xlink:href="#DejaVuSans-50"/>
       <use x="190.869141" xlink:href="#DejaVuSans-48"/>
       <use x="254.492188" xlink:href="#DejaVuSans-45"/>
       <use x="290.576172" xlink:href="#DejaVuSans-49"/>
       <use x="354.199219" xlink:href="#DejaVuSans-48"/>
      </g>
     </g>
    </g>
    <g id="xtick_5">
     <g id="line2d_5">
      <g>
       <use style="stroke:#000000;stroke-width:0.8;" x="443.218657" xlink:href="#mc6652df2b8" y="460.8"/>
      </g>
     </g>
     <g id="text_5">
      <!-- 2021-01 -->
      <g transform="translate(398.548872 500.766215)rotate(-30)scale(0.12 -0.12)">
       <use xlink:href="#DejaVuSans-50"/>
       <use x="63.623047" xlink:href="#DejaVuSans-48"/>
       <use x="127.246094" xlink:href="#DejaVuSans-50"/>
       <use x="190.869141" xlink:href="#DejaVuSans-49"/>
       <use x="254.492188" xlink:href="#DejaVuSans-45"/>
       <use x="290.576172" xlink:href="#DejaVuSans-48"/>
       <use x="354.199219" xlink:href="#DejaVuSans-49"/>
      </g>
     </g>
    </g>
    <g id="xtick_6">
     <g id="line2d_6">
      <g>
       <use style="stroke:#000000;stroke-width:0.8;" x="518.576916" xlink:href="#mc6652df2b8" y="460.8"/>
      </g>
     </g>
     <g id="text_6">
      <!-- 2021-04 -->
      <g transform="translate(473.907131 500.766215)rotate(-30)scale(0.12 -0.12)">
       <use xlink:href="#DejaVuSans-50"/>
       <use x="63.623047" xlink:href="#DejaVuSans-48"/>
       <use x="127.246094" xlink:href="#DejaVuSans-50"/>
       <use x="190.869141" xlink:href="#DejaVuSans-49"/>
       <use x="254.492188" xlink:href="#DejaVuSans-45"/>
       <use x="290.576172" xlink:href="#DejaVuSans-48"/>
       <use x="354.199219" xlink:href="#DejaVuSans-52"/>
      </g>
     </g>
    </g>
    <g id="xtick_7">
     <g id="line2d_7">
      <g>
       <use style="stroke:#000000;stroke-width:0.8;" x="594.77249" xlink:href="#mc6652df2b8" y="460.8"/>
      </g>
     </g>
     <g id="text_7">
      <!-- 2021-07 -->
      <g transform="translate(550.102705 500.766215)rotate(-30)scale(0.12 -0.12)">
       <use xlink:href="#DejaVuSans-50"/>
       <use x="63.623047" xlink:href="#DejaVuSans-48"/>
       <use x="127.246094" xlink:href="#DejaVuSans-50"/>
       <use x="190.869141" xlink:href="#DejaVuSans-49"/>
       <use x="254.492188" xlink:href="#DejaVuSans-45"/>
       <use x="290.576172" xlink:href="#DejaVuSans-48"/>
       <use x="354.199219" xlink:href="#DejaVuSans-55"/>
      </g>
     </g>
    </g>
    <g id="xtick_8">
     <g id="line2d_8">
      <g>
       <use style="stroke:#000000;stroke-width:0.8;" x="671.805377" xlink:href="#mc6652df2b8" y="460.8"/>
      </g>
     </g>
     <g id="text_8">
      <!-- 2021-10 -->
      <g transform="translate(627.135592 500.766215)rotate(-30)scale(0.12 -0.12)">
       <use xlink:href="#DejaVuSans-50"/>
       <use x="63.623047" xlink:href="#DejaVuSans-48"/>
       <use x="127.246094" xlink:href="#DejaVuSans-50"/>
       <use x="190.869141" xlink:href="#DejaVuSans-49"/>
       <use x="254.492188" xlink:href="#DejaVuSans-45"/>
       <use x="290.576172" xlink:href="#DejaVuSans-49"/>
       <use x="354.199219" xlink:href="#DejaVuSans-48"/>
      </g>
     </g>
    </g>
    <g id="xtick_9">
     <g id="line2d_9">
      <g>
       <use style="stroke:#000000;stroke-width:0.8;" x="748.838264" xlink:href="#mc6652df2b8" y="460.8"/>
      </g>
     </g>
     <g id="text_9">
      <!-- 2022-01 -->
      <g transform="translate(704.168479 500.766215)rotate(-30)scale(0.12 -0.12)">
       <use xlink:href="#DejaVuSans-50"/>
       <use x="63.623047" xlink:href="#DejaVuSans-48"/>
       <use x="127.246094" xlink:href="#DejaVuSans-50"/>
       <use x="190.869141" xlink:href="#DejaVuSans-50"/>
       <use x="254.492188" xlink:href="#DejaVuSans-45"/>
       <use x="290.576172" xlink:href="#DejaVuSans-48"/>
       <use x="354.199219" xlink:href="#DejaVuSans-49"/>
      </g>
     </g>
    </g>
    <g id="text_10">
     <!-- Date -->
     <g transform="translate(424.873828 518.325146)scale(0.15 -0.15)">
      <defs>
       <path d="M 19.671875 64.796875 
L 19.671875 8.109375 
L 31.59375 8.109375 
Q 46.6875 8.109375 53.6875 14.9375 
Q 60.6875 21.78125 60.6875 36.53125 
Q 60.6875 51.171875 53.6875 57.984375 
Q 46.6875 64.796875 31.59375 64.796875 
z
M 9.8125 72.90625 
L 30.078125 72.90625 
Q 51.265625 72.90625 61.171875 64.09375 
Q 71.09375 55.28125 71.09375 36.53125 
Q 71.09375 17.671875 61.125 8.828125 
Q 51.171875 0 30.078125 0 
L 9.8125 0 
z
" id="DejaVuSans-68"/>
       <path d="M 34.28125 27.484375 
Q 23.390625 27.484375 19.1875 25 
Q 14.984375 22.515625 14.984375 16.5 
Q 14.984375 11.71875 18.140625 8.90625 
Q 21.296875 6.109375 26.703125 6.109375 
Q 34.1875 6.109375 38.703125 11.40625 
Q 43.21875 16.703125 43.21875 25.484375 
L 43.21875 27.484375 
z
M 52.203125 31.203125 
L 52.203125 0 
L 43.21875 0 
L 43.21875 8.296875 
Q 40.140625 3.328125 35.546875 0.953125 
Q 30.953125 -1.421875 24.3125 -1.421875 
Q 15.921875 -1.421875 10.953125 3.296875 
Q 6 8.015625 6 15.921875 
Q 6 25.140625 12.171875 29.828125 
Q 18.359375 34.515625 30.609375 34.515625 
L 43.21875 34.515625 
L 43.21875 35.40625 
Q 43.21875 41.609375 39.140625 45 
Q 35.0625 48.390625 27.6875 48.390625 
Q 23 48.390625 18.546875 47.265625 
Q 14.109375 46.140625 10.015625 43.890625 
L 10.015625 52.203125 
Q 14.9375 54.109375 19.578125 55.046875 
Q 24.21875 56 28.609375 56 
Q 40.484375 56 46.34375 49.84375 
Q 52.203125 43.703125 52.203125 31.203125 
z
" id="DejaVuSans-97"/>
       <path d="M 18.3125 70.21875 
L 18.3125 54.6875 
L 36.8125 54.6875 
L 36.8125 47.703125 
L 18.3125 47.703125 
L 18.3125 18.015625 
Q 18.3125 11.328125 20.140625 9.421875 
Q 21.96875 7.515625 27.59375 7.515625 
L 36.8125 7.515625 
L 36.8125 0 
L 27.59375 0 
Q 17.1875 0 13.234375 3.875 
Q 9.28125 7.765625 9.28125 18.015625 
L 9.28125 47.703125 
L 2.6875 47.703125 
L 2.6875 54.6875 
L 9.28125 54.6875 
L 9.28125 70.21875 
z
" id="DejaVuSans-116"/>
       <path d="M 56.203125 29.59375 
L 56.203125 25.203125 
L 14.890625 25.203125 
Q 15.484375 15.921875 20.484375 11.0625 
Q 25.484375 6.203125 34.421875 6.203125 
Q 39.59375 6.203125 44.453125 7.46875 
Q 49.3125 8.734375 54.109375 11.28125 
L 54.109375 2.78125 
Q 49.265625 0.734375 44.1875 -0.34375 
Q 39.109375 -1.421875 33.890625 -1.421875 
Q 20.796875 -1.421875 13.15625 6.1875 
Q 5.515625 13.8125 5.515625 26.8125 
Q 5.515625 40.234375 12.765625 48.109375 
Q 20.015625 56 32.328125 56 
Q 43.359375 56 49.78125 48.890625 
Q 56.203125 41.796875 56.203125 29.59375 
z
M 47.21875 32.234375 
Q 47.125 39.59375 43.09375 43.984375 
Q 39.0625 48.390625 32.421875 48.390625 
Q 24.90625 48.390625 20.390625 44.140625 
Q 15.875 39.890625 15.1875 32.171875 
z
" id="DejaVuSans-101"/>
      </defs>
      <use xlink:href="#DejaVuSans-68"/>
      <use x="77.001953" xlink:href="#DejaVuSans-97"/>
      <use x="138.28125" xlink:href="#DejaVuSans-116"/>
      <use x="177.490234" xlink:href="#DejaVuSans-101"/>
     </g>
    </g>
   </g>
   <g id="matplotlib.axis_2">
    <g id="ytick_1">
     <g id="line2d_10">
      <defs>
       <path d="M 0 0 
L -3.5 0 
" id="mb6814d4e15" style="stroke:#000000;stroke-width:0.8;"/>
      </defs>
      <g>
       <use style="stroke:#000000;stroke-width:0.8;" x="108" xlink:href="#mb6814d4e15" y="391.565322"/>
      </g>
     </g>
     <g id="text_11">
      <!-- 0.5 -->
      <g transform="translate(81.91625 396.124385)scale(0.12 -0.12)">
       <defs>
        <path d="M 10.6875 12.40625 
L 21 12.40625 
L 21 0 
L 10.6875 0 
z
" id="DejaVuSans-46"/>
        <path d="M 10.796875 72.90625 
L 49.515625 72.90625 
L 49.515625 64.59375 
L 19.828125 64.59375 
L 19.828125 46.734375 
Q 21.96875 47.46875 24.109375 47.828125 
Q 26.265625 48.1875 28.421875 48.1875 
Q 40.625 48.1875 47.75 41.5 
Q 54.890625 34.8125 54.890625 23.390625 
Q 54.890625 11.625 47.5625 5.09375 
Q 40.234375 -1.421875 26.90625 -1.421875 
Q 22.3125 -1.421875 17.546875 -0.640625 
Q 12.796875 0.140625 7.71875 1.703125 
L 7.71875 11.625 
Q 12.109375 9.234375 16.796875 8.0625 
Q 21.484375 6.890625 26.703125 6.890625 
Q 35.15625 6.890625 40.078125 11.328125 
Q 45.015625 15.765625 45.015625 23.390625 
Q 45.015625 31 40.078125 35.4375 
Q 35.15625 39.890625 26.703125 39.890625 
Q 22.75 39.890625 18.8125 39.015625 
Q 14.890625 38.140625 10.796875 36.28125 
z
" id="DejaVuSans-53"/>
       </defs>
       <use xlink:href="#DejaVuSans-48"/>
       <use x="63.623047" xlink:href="#DejaVuSans-46"/>
       <use x="95.410156" xlink:href="#DejaVuSans-53"/>
      </g>
     </g>
    </g>
    <g id="ytick_2">
     <g id="line2d_11">
      <g>
       <use style="stroke:#000000;stroke-width:0.8;" x="108" xlink:href="#mb6814d4e15" y="318.742608"/>
      </g>
     </g>
     <g id="text_12">
      <!-- 1.0 -->
      <g transform="translate(81.91625 323.301671)scale(0.12 -0.12)">
       <use xlink:href="#DejaVuSans-49"/>
       <use x="63.623047" xlink:href="#DejaVuSans-46"/>
       <use x="95.410156" xlink:href="#DejaVuSans-48"/>
      </g>
     </g>
    </g>
    <g id="ytick_3">
     <g id="line2d_12">
      <g>
       <use style="stroke:#000000;stroke-width:0.8;" x="108" xlink:href="#mb6814d4e15" y="245.919895"/>
      </g>
     </g>
     <g id="text_13">
      <!-- 1.5 -->
      <g transform="translate(81.91625 250.478957)scale(0.12 -0.12)">
       <use xlink:href="#DejaVuSans-49"/>
       <use x="63.623047" xlink:href="#DejaVuSans-46"/>
       <use x="95.410156" xlink:href="#DejaVuSans-53"/>
      </g>
     </g>
    </g>
    <g id="ytick_4">
     <g id="line2d_13">
      <g>
       <use style="stroke:#000000;stroke-width:0.8;" x="108" xlink:href="#mb6814d4e15" y="173.097181"/>
      </g>
     </g>
     <g id="text_14">
      <!-- 2.0 -->
      <g transform="translate(81.91625 177.656243)scale(0.12 -0.12)">
       <use xlink:href="#DejaVuSans-50"/>
       <use x="63.623047" xlink:href="#DejaVuSans-46"/>
       <use x="95.410156" xlink:href="#DejaVuSans-48"/>
      </g>
     </g>
    </g>
    <g id="ytick_5">
     <g id="line2d_14">
      <g>
       <use style="stroke:#000000;stroke-width:0.8;" x="108" xlink:href="#mb6814d4e15" y="100.274467"/>
      </g>
     </g>
     <g id="text_15">
      <!-- 2.5 -->
      <g transform="translate(81.91625 104.83353)scale(0.12 -0.12)">
       <use xlink:href="#DejaVuSans-50"/>
       <use x="63.623047" xlink:href="#DejaVuSans-46"/>
       <use x="95.410156" xlink:href="#DejaVuSans-53"/>
      </g>
     </g>
    </g>
    <g id="text_16">
     <!-- CO(ppm) -->
     <g transform="translate(74.796719 298.781484)rotate(-90)scale(0.15 -0.15)">
      <defs>
       <path d="M 64.40625 67.28125 
L 64.40625 56.890625 
Q 59.421875 61.53125 53.78125 63.8125 
Q 48.140625 66.109375 41.796875 66.109375 
Q 29.296875 66.109375 22.65625 58.46875 
Q 16.015625 50.828125 16.015625 36.375 
Q 16.015625 21.96875 22.65625 14.328125 
Q 29.296875 6.6875 41.796875 6.6875 
Q 48.140625 6.6875 53.78125 8.984375 
Q 59.421875 11.28125 64.40625 15.921875 
L 64.40625 5.609375 
Q 59.234375 2.09375 53.4375 0.328125 
Q 47.65625 -1.421875 41.21875 -1.421875 
Q 24.65625 -1.421875 15.125 8.703125 
Q 5.609375 18.84375 5.609375 36.375 
Q 5.609375 53.953125 15.125 64.078125 
Q 24.65625 74.21875 41.21875 74.21875 
Q 47.75 74.21875 53.53125 72.484375 
Q 59.328125 70.75 64.40625 67.28125 
z
" id="DejaVuSans-67"/>
       <path d="M 39.40625 66.21875 
Q 28.65625 66.21875 22.328125 58.203125 
Q 16.015625 50.203125 16.015625 36.375 
Q 16.015625 22.609375 22.328125 14.59375 
Q 28.65625 6.59375 39.40625 6.59375 
Q 50.140625 6.59375 56.421875 14.59375 
Q 62.703125 22.609375 62.703125 36.375 
Q 62.703125 50.203125 56.421875 58.203125 
Q 50.140625 66.21875 39.40625 66.21875 
z
M 39.40625 74.21875 
Q 54.734375 74.21875 63.90625 63.9375 
Q 73.09375 53.65625 73.09375 36.375 
Q 73.09375 19.140625 63.90625 8.859375 
Q 54.734375 -1.421875 39.40625 -1.421875 
Q 24.03125 -1.421875 14.8125 8.828125 
Q 5.609375 19.09375 5.609375 36.375 
Q 5.609375 53.65625 14.8125 63.9375 
Q 24.03125 74.21875 39.40625 74.21875 
z
" id="DejaVuSans-79"/>
       <path d="M 31 75.875 
Q 24.46875 64.65625 21.28125 53.65625 
Q 18.109375 42.671875 18.109375 31.390625 
Q 18.109375 20.125 21.3125 9.0625 
Q 24.515625 -2 31 -13.1875 
L 23.1875 -13.1875 
Q 15.875 -1.703125 12.234375 9.375 
Q 8.59375 20.453125 8.59375 31.390625 
Q 8.59375 42.28125 12.203125 53.3125 
Q 15.828125 64.359375 23.1875 75.875 
z
" id="DejaVuSans-40"/>
       <path d="M 18.109375 8.203125 
L 18.109375 -20.796875 
L 9.078125 -20.796875 
L 9.078125 54.6875 
L 18.109375 54.6875 
L 18.109375 46.390625 
Q 20.953125 51.265625 25.265625 53.625 
Q 29.59375 56 35.59375 56 
Q 45.5625 56 51.78125 48.09375 
Q 58.015625 40.1875 58.015625 27.296875 
Q 58.015625 14.40625 51.78125 6.484375 
Q 45.5625 -1.421875 35.59375 -1.421875 
Q 29.59375 -1.421875 25.265625 0.953125 
Q 20.953125 3.328125 18.109375 8.203125 
z
M 48.6875 27.296875 
Q 48.6875 37.203125 44.609375 42.84375 
Q 40.53125 48.484375 33.40625 48.484375 
Q 26.265625 48.484375 22.1875 42.84375 
Q 18.109375 37.203125 18.109375 27.296875 
Q 18.109375 17.390625 22.1875 11.75 
Q 26.265625 6.109375 33.40625 6.109375 
Q 40.53125 6.109375 44.609375 11.75 
Q 48.6875 17.390625 48.6875 27.296875 
z
" id="DejaVuSans-112"/>
       <path d="M 52 44.1875 
Q 55.375 50.25 60.0625 53.125 
Q 64.75 56 71.09375 56 
Q 79.640625 56 84.28125 50.015625 
Q 88.921875 44.046875 88.921875 33.015625 
L 88.921875 0 
L 79.890625 0 
L 79.890625 32.71875 
Q 79.890625 40.578125 77.09375 44.375 
Q 74.3125 48.1875 68.609375 48.1875 
Q 61.625 48.1875 57.5625 43.546875 
Q 53.515625 38.921875 53.515625 30.90625 
L 53.515625 0 
L 44.484375 0 
L 44.484375 32.71875 
Q 44.484375 40.625 41.703125 44.40625 
Q 38.921875 48.1875 33.109375 48.1875 
Q 26.21875 48.1875 22.15625 43.53125 
Q 18.109375 38.875 18.109375 30.90625 
L 18.109375 0 
L 9.078125 0 
L 9.078125 54.6875 
L 18.109375 54.6875 
L 18.109375 46.1875 
Q 21.1875 51.21875 25.484375 53.609375 
Q 29.78125 56 35.6875 56 
Q 41.65625 56 45.828125 52.96875 
Q 50 49.953125 52 44.1875 
z
" id="DejaVuSans-109"/>
       <path d="M 8.015625 75.875 
L 15.828125 75.875 
Q 23.140625 64.359375 26.78125 53.3125 
Q 30.421875 42.28125 30.421875 31.390625 
Q 30.421875 20.453125 26.78125 9.375 
Q 23.140625 -1.703125 15.828125 -13.1875 
L 8.015625 -13.1875 
Q 14.5 -2 17.703125 9.0625 
Q 20.90625 20.125 20.90625 31.390625 
Q 20.90625 42.671875 17.703125 53.65625 
Q 14.5 64.65625 8.015625 75.875 
z
" id="DejaVuSans-41"/>
      </defs>
      <use xlink:href="#DejaVuSans-67"/>
      <use x="69.824219" xlink:href="#DejaVuSans-79"/>
      <use x="148.535156" xlink:href="#DejaVuSans-40"/>
      <use x="187.548828" xlink:href="#DejaVuSans-112"/>
      <use x="251.025391" xlink:href="#DejaVuSans-112"/>
      <use x="314.501953" xlink:href="#DejaVuSans-109"/>
      <use x="411.914062" xlink:href="#DejaVuSans-41"/>
     </g>
    </g>
   </g>
   <g id="line2d_15">
    <path clip-path="url(#p62259310f8)" d="M 138.436364 359.705385 
L 139.273678 379.731631 
L 140.110992 365.206666 
L 140.948306 337.631 
L 141.78562 344.837414 
L 142.622934 313.584333 
L 143.460248 309.032913 
L 144.297562 315.480758 
L 145.134876 285.593102 
L 145.97219 275.124837 
L 146.809504 306.226204 
L 147.646818 315.480758 
L 148.484132 293.558087 
L 149.321446 257.601872 
L 150.15876 290.144522 
L 150.996074 291.889233 
L 151.833388 298.185363 
L 152.670702 296.440652 
L 153.508016 308.577771 
L 154.345329 344.761557 
L 155.182643 358.56753 
L 156.019957 351.209402 
L 156.857271 324.50774 
L 157.694585 359.705385 
L 158.531899 334.672577 
L 159.369213 276.552927 
L 160.206527 86.923636 
L 161.043841 256.160589 
L 161.881155 339.462404 
L 162.718469 372.070075 
L 163.555783 373.435501 
L 164.393097 371.235648 
L 165.230411 367.13937 
L 166.067725 376.924922 
L 166.905039 363.194807 
L 167.742353 365.773944 
L 168.579667 364.332661 
L 169.416981 354.01611 
L 170.254295 338.465427 
L 171.091609 327.314449 
L 171.928923 339.754996 
L 172.766237 336.569002 
L 173.603551 332.852009 
L 174.440865 359.3261 
L 175.278179 402.564586 
L 176.115493 403.626584 
L 176.952807 368.732367 
L 178.627435 354.547109 
L 179.464749 333.534722 
L 180.302063 348.250979 
L 181.139377 359.857099 
L 181.976691 366.911799 
L 182.814005 366.573891 
L 183.651319 373.814786 
L 184.488633 358.870958 
L 185.325947 357.505532 
L 186.163261 359.932956 
L 187.000575 339.90671 
L 187.837889 340.665279 
L 188.675203 340.513565 
L 189.512517 325.418024 
L 190.349831 346.657982 
L 191.187145 333.914007 
L 192.024459 337.555143 
L 192.861773 323.294028 
L 193.699087 313.280905 
L 194.536401 315.784186 
L 195.373715 321.852745 
L 197.048343 345.671841 
L 197.885657 350.75426 
L 198.722971 366.608371 
L 199.560285 364.484375 
L 200.397599 344.989128 
L 202.072227 321.170032 
L 202.909541 329.059159 
L 203.746855 349.99569 
L 204.584169 337.782714 
L 205.421483 362.967236 
L 206.258797 373.738929 
L 207.096111 356.595248 
L 207.933425 363.953376 
L 208.770739 354.167824 
L 209.608053 359.932956 
L 211.282681 308.198486 
L 212.119995 325.038739 
L 212.957309 333.465461 
L 213.794623 344.230558 
L 214.631937 340.89285 
L 215.469251 352.347256 
L 216.306565 360.84324 
L 217.143879 335.431147 
L 217.981193 336.644859 
L 218.818507 373.132073 
L 219.655821 372.752788 
L 220.493135 345.671841 
L 221.330449 364.180947 
L 222.167763 395.434029 
L 223.005077 367.215227 
L 223.842391 343.851273 
L 226.354333 374.118214 
L 227.191647 373.132073 
L 228.028961 364.408518 
L 228.866275 373.283787 
L 229.703589 367.746226 
L 230.540903 333.307151 
L 231.378217 348.616472 
L 232.215531 351.588687 
L 233.052845 317.073755 
L 233.890159 322.838886 
L 234.727473 366.760085 
L 235.564787 378.290348 
L 236.402101 371.69079 
L 237.239415 370.704649 
L 238.076729 358.870958 
L 238.914043 369.187509 
L 239.751357 370.780506 
L 240.588671 368.049654 
L 241.425985 360.919097 
L 242.263299 357.733103 
L 243.100613 355.457393 
L 243.937927 351.664544 
L 244.775241 356.443534 
L 245.612555 357.733103 
L 246.449869 337.858571 
L 247.287183 329.514301 
L 248.124497 348.857835 
L 249.799125 394.372031 
L 250.636439 392.020464 
L 251.473753 371.994218 
L 252.311067 361.753524 
L 253.148381 370.628792 
L 253.985695 352.423113 
L 254.823009 356.443534 
L 255.660323 356.140106 
L 256.497637 362.36038 
L 257.334951 354.547109 
L 258.172265 360.702362 
L 259.009579 332.927866 
L 259.846893 336.644859 
L 260.684207 365.394659 
L 261.521521 372.525217 
L 262.358835 386.33119 
L 263.196149 377.911063 
L 264.033463 377.531778 
L 264.870777 373.587215 
L 265.708091 373.359644 
L 266.545405 370.704649 
L 267.382719 363.270664 
L 268.220033 362.891379 
L 269.057347 358.339959 
L 269.89466 356.064249 
L 270.731974 362.815522 
L 271.569288 347.340695 
L 272.406602 364.690273 
L 273.243916 391.413608 
L 274.08123 382.234912 
L 274.918544 363.422378 
L 275.755858 371.539076 
L 276.593172 361.753524 
L 277.430486 365.015374 
L 278.2678 362.891379 
L 279.105114 364.408518 
L 279.942428 366.987656 
L 280.779742 353.029969 
L 281.617056 352.271399 
L 282.45437 365.773944 
L 283.291684 385.876048 
L 284.128998 378.669633 
L 284.966312 380.26263 
L 285.803626 384.965764 
L 286.64094 380.186773 
L 287.478254 379.655774 
L 288.315568 381.0212 
L 289.152882 367.291084 
L 289.990196 374.345785 
L 290.82751 405.598866 
L 291.664824 412.122567 
L 292.502138 406.433293 
L 293.339452 403.095585 
L 294.176766 402.7163 
L 295.01408 396.116742 
L 295.851394 399.151021 
L 296.688708 398.316594 
L 297.526022 408.936574 
L 298.363336 397.482168 
L 299.20065 397.93731 
L 300.037964 392.475606 
L 300.875278 393.310033 
L 301.712592 392.930748 
L 302.549906 395.813314 
L 303.38722 396.496027 
L 304.224534 388.874048 
L 305.061848 396.571884 
L 305.899162 398.620022 
L 306.736476 389.744754 
L 307.57379 377.911063 
L 308.411104 384.889907 
L 309.248418 388.0759 
L 310.085732 383.524481 
L 310.923046 381.172914 
L 312.597674 389.289612 
L 313.434988 391.792893 
L 314.272302 390.15852 
L 315.109616 383.903766 
L 315.94693 370.249507 
L 316.784244 368.732367 
L 317.621558 366.456657 
L 318.458872 372.752788 
L 319.296186 375.635353 
L 320.1335 379.959202 
L 320.970814 376.46978 
L 321.808128 356.671105 
L 322.645442 355.684964 
L 323.482756 363.11895 
L 324.32007 355.078108 
L 325.157384 349.030237 
L 325.994698 359.022672 
L 326.832012 371.083934 
L 327.669326 361.525953 
L 328.50664 354.698823 
L 329.343954 360.691526 
L 330.181268 374.497499 
L 331.018582 364.636089 
L 331.855896 370.17365 
L 332.69321 379.883345 
L 333.530524 367.89794 
L 334.367838 358.89092 
L 335.205152 355.912535 
L 336.042466 339.223997 
L 336.87978 331.638297 
L 337.717094 332.245153 
L 338.554408 335.962146 
L 339.391722 346.582125 
L 340.229036 293.709801 
L 343.578292 347.188981 
L 344.415606 350.374975 
L 345.25292 357.657246 
L 346.090234 354.698823 
L 346.927548 346.506268 
L 347.764862 348.326836 
L 348.602176 362.663808 
L 349.43949 373.511358 
L 350.276804 361.525953 
L 351.114118 363.649948 
L 351.951432 367.13937 
L 352.788746 375.331925 
L 353.62606 369.111652 
L 354.463374 359.857099 
L 355.300688 355.078108 
L 356.138002 359.477814 
L 356.975316 352.650684 
L 357.81263 341.727277 
L 358.649944 341.954848 
L 360.324572 308.729485 
L 361.161886 337.706857 
L 361.9992 351.588687 
L 362.836514 338.996426 
L 363.673828 360.539812 
L 364.511142 365.773944 
L 365.348456 374.042357 
L 366.18577 374.573356 
L 367.023084 365.318802 
L 367.860398 357.960674 
L 368.697712 355.609107 
L 369.535026 334.293292 
L 370.37234 351.361116 
L 371.209654 355.153965 
L 372.046968 349.540548 
L 373.721596 356.974533 
L 374.55891 358.946815 
L 375.396224 382.765911 
L 376.233538 367.973797 
L 377.070852 371.008077 
L 377.908166 356.671105 
L 378.74548 351.816258 
L 379.582794 349.616405 
L 380.420108 357.960674 
L 381.257422 356.974533 
L 382.094736 358.719244 
L 382.93205 381.335465 
L 383.769364 418.557219 
L 384.606678 390.35161 
L 385.443991 392.096321 
L 386.281305 419.328982 
L 387.118619 433.665953 
L 387.955933 442.996364 
L 389.630561 395.358172 
L 390.467875 421.604691 
L 391.305189 419.404839 
L 392.142503 401.881873 
L 392.979817 400.592304 
L 393.817131 382.993482 
L 394.654445 390.124039 
L 395.491759 347.416552 
L 396.329073 349.085406 
L 397.166387 345.899412 
L 398.003701 364.560232 
L 398.841015 354.850537 
L 399.678329 367.973797 
L 400.515643 364.899358 
L 401.352957 363.11895 
L 402.190271 360.463955 
L 403.027585 348.47855 
L 403.864899 338.293924 
L 404.702213 356.657913 
L 405.539527 355.760821 
L 406.376841 333.307151 
L 407.214155 339.451568 
L 408.051469 306.07449 
L 408.888783 304.557351 
L 409.726097 322.557131 
L 410.563411 326.555879 
L 411.400725 341.044564 
L 412.238039 337.479286 
L 413.075353 316.770327 
L 413.912667 326.707593 
L 414.749981 315.556615 
L 415.587295 310.701767 
L 417.261923 333.914007 
L 418.099237 343.092703 
L 418.936551 341.120421 
L 419.773865 316.163471 
L 420.611179 287.868812 
L 421.448493 275.959264 
L 422.285807 316.315185 
L 423.960435 273.607697 
L 425.635063 252.964701 
L 426.472377 281.181419 
L 427.309691 242.202902 
L 428.147005 278.917687 
L 428.984319 300.764501 
L 429.821633 302.191992 
L 431.496261 362.512094 
L 432.333575 362.132809 
L 433.170889 353.864396 
L 434.008203 337.403429 
L 434.845517 312.522335 
L 435.682831 338.920569 
L 436.520145 326.328308 
L 437.357459 348.47855 
L 438.194773 305.846919 
L 439.032087 333.762293 
L 439.869401 334.293292 
L 440.706715 312.674049 
L 441.544029 392.475606 
L 442.381343 385.951905 
L 444.055971 341.803134 
L 444.893285 327.921305 
L 445.730599 299.474932 
L 446.567913 313.66019 
L 447.405227 297.426793 
L 448.242541 352.726541 
L 449.079855 380.186773 
L 449.917169 361.450096 
L 450.754483 363.877519 
L 451.591797 338.313713 
L 452.429111 299.930074 
L 453.266425 284.986246 
L 454.103739 266.097855 
L 454.941053 277.021262 
L 455.778367 284.303533 
L 456.615681 295.606225 
L 457.452995 284.427663 
L 458.290309 282.179538 
L 459.127623 296.819937 
L 459.964937 328.073019 
L 460.802251 305.08835 
L 461.639565 318.970179 
L 462.476879 300.688644 
L 463.314193 298.033649 
L 464.151507 288.551525 
L 464.988821 309.715626 
L 465.826135 335.734575 
L 467.500763 361.753524 
L 468.338077 344.989128 
L 469.175391 331.107298 
L 470.012705 331.714154 
L 470.850019 353.864396 
L 471.687333 368.884081 
L 472.524647 350.602546 
L 473.361961 351.285259 
L 474.199275 345.595984 
L 475.036589 351.51283 
L 475.873903 359.250243 
L 476.711217 344.306415 
L 477.548531 359.022672 
L 478.385845 350.905974 
L 479.223159 352.49897 
L 480.060473 328.30059 
L 480.897787 341.347992 
L 481.735101 324.50774 
L 482.572415 336.11386 
L 483.409729 332.245153 
L 484.247043 321.625174 
L 485.084357 316.997898 
L 485.921671 337.100001 
L 487.596299 362.056952 
L 488.433613 355.002251 
L 490.108241 325.797309 
L 490.945555 331.638297 
L 491.782869 312.14305 
L 492.620183 296.061367 
L 493.457497 349.312977 
L 494.294811 346.582125 
L 495.132125 331.56244 
L 495.969439 340.134281 
L 496.806753 318.742608 
L 497.644067 351.285259 
L 498.481381 355.836678 
L 499.318695 352.802398 
L 500.156009 348.933692 
L 500.993322 334.824291 
L 501.830636 327.238592 
L 502.66795 327.693734 
L 503.505264 337.251715 
L 504.342578 354.926394 
L 505.179892 366.456657 
L 506.017206 365.62223 
L 506.85452 369.263366 
L 507.691834 368.125511 
L 508.529148 329.438444 
L 510.203776 344.533986 
L 511.04109 310.246625 
L 511.878404 322.383744 
L 512.715718 381.476342 
L 513.553032 356.519391 
L 514.390346 354.77468 
L 515.22766 361.450096 
L 516.064974 364.029233 
L 516.902288 358.643387 
L 517.739602 376.46978 
L 518.576916 380.035059 
L 519.41423 382.53834 
L 520.251544 330.500442 
L 521.088858 314.41876 
L 521.926172 332.093439 
L 522.763486 359.401957 
L 523.6008 362.663808 
L 524.438114 336.569002 
L 525.275428 363.801662 
L 526.112742 372.44936 
L 526.950056 360.919097 
L 527.78737 358.795101 
L 528.624684 354.622966 
L 529.461998 353.864396 
L 530.299312 349.692262 
L 531.136626 325.493881 
L 531.97394 342.865132 
L 532.811254 355.002251 
L 533.648568 356.367677 
L 534.485882 354.01611 
L 535.323196 345.975269 
L 536.16051 323.142314 
L 536.997824 349.009549 
L 537.835138 343.775416 
L 538.672452 348.630264 
L 539.509766 344.458129 
L 540.34708 323.142314 
L 541.184394 292.040947 
L 542.021708 284.606961 
L 542.859022 293.937371 
L 543.696336 290.296236 
L 544.53365 334.445006 
L 545.370964 327.769591 
L 546.208278 315.404901 
L 547.045592 325.418024 
L 547.882906 354.395395 
L 548.72022 359.932956 
L 549.557534 385.041621 
L 550.394848 387.31733 
L 551.232162 384.81405 
L 552.069476 381.0212 
L 552.90679 381.476342 
L 553.744104 373.9665 
L 554.581418 383.29691 
L 555.418732 388.151757 
L 556.256046 378.897204 
L 557.09336 377.304207 
L 557.930674 379.276489 
L 558.767988 375.938781 
L 559.605302 377.683492 
L 560.442616 378.062777 
L 561.27993 386.103619 
L 562.117244 374.72507 
L 562.954558 380.186773 
L 563.791872 371.842504 
L 564.629186 371.842504 
L 565.4665 366.001515 
L 566.303814 370.704649 
L 567.141128 368.428939 
L 567.978442 373.27295 
L 568.815756 388.151757 
L 569.65307 374.042357 
L 570.490384 378.821347 
L 571.327698 374.800927 
L 572.165012 344.306415 
L 573.002326 347.947551 
L 573.83964 369.111652 
L 575.514268 378.897204 
L 576.351582 388.682756 
L 577.188896 391.034323 
L 578.02621 387.089759 
L 578.863524 377.683492 
L 579.700838 371.842504 
L 580.538152 368.201368 
L 581.375466 369.187509 
L 582.21278 368.201368 
L 583.050094 365.925658 
L 583.887408 363.11895 
L 584.724722 365.394659 
L 585.562036 353.712682 
L 586.39935 359.857099 
L 587.236664 338.768855 
L 588.073978 344.761557 
L 588.911292 347.871694 
L 589.748606 361.222525 
L 590.58592 378.74549 
L 591.423234 361.374239 
L 592.260548 367.442798 
L 593.097862 367.973797 
L 593.935176 369.642651 
L 594.77249 362.36038 
L 595.609804 366.491138 
L 596.447118 373.359644 
L 597.284432 384.358908 
L 598.121746 382.53834 
L 598.95906 372.070075 
L 599.796374 370.401221 
L 600.633688 376.242209 
L 601.471002 377.835206 
L 602.308316 378.593776 
L 603.14563 365.925658 
L 603.982944 361.981095 
L 604.820258 359.857099 
L 605.657572 367.746226 
L 606.494886 358.946815 
L 607.3322 358.188245 
L 608.169514 372.980359 
L 609.006828 374.194071 
L 610.681456 351.51283 
L 611.51877 343.471988 
L 612.356084 325.569738 
L 613.193398 311.38448 
L 614.030712 333.307151 
L 614.868026 337.934428 
L 615.70534 315.025616 
L 616.542653 315.860043 
L 617.379967 319.804606 
L 618.217281 324.659454 
L 619.054595 334.065721 
L 619.891909 331.107298 
L 620.729223 307.136488 
L 621.566537 344.989128 
L 622.403851 318.287466 
L 623.241165 306.07449 
L 624.078479 319.880463 
L 624.915793 352.726541 
L 625.753107 365.242945 
L 626.590421 383.903766 
L 627.427735 377.759349 
L 629.102363 381.400485 
L 630.776991 371.311505 
L 631.614305 380.26263 
L 633.288933 362.587951 
L 634.963561 376.393923 
L 635.800875 373.056216 
L 636.638189 384.358908 
L 638.312817 379.807488 
L 639.150131 374.269928 
L 639.987445 377.152493 
L 640.824759 385.193335 
L 642.499387 374.042357 
L 643.336701 376.924922 
L 644.174015 373.663072 
L 645.011329 376.242209 
L 645.848643 374.952641 
L 646.685957 378.669633 
L 647.523271 375.331925 
L 648.360585 374.345785 
L 649.197899 378.290348 
L 650.035213 370.097793 
L 650.872527 369.870222 
L 651.709841 370.628792 
L 652.547155 361.905238 
L 653.384469 361.753524 
L 654.221783 344.230558 
L 655.059097 338.768855 
L 655.896411 350.299118 
L 656.733725 371.918361 
L 657.571039 354.77468 
L 658.408353 366.835942 
L 659.245667 349.085406 
L 660.082981 353.409254 
L 660.920295 375.180211 
L 661.757609 365.015374 
L 662.594923 369.263366 
L 663.432237 376.697351 
L 664.269551 371.766647 
L 665.106865 365.015374 
L 665.944179 362.815522 
L 667.618807 341.878991 
L 668.456121 344.6857 
L 669.293435 337.782714 
L 670.130749 320.108034 
L 670.968063 321.625174 
L 671.805377 350.374975 
L 672.642691 355.760821 
L 673.480005 351.361116 
L 674.317319 355.229822 
L 675.154633 354.319538 
L 675.991947 361.829381 
L 676.829261 366.456657 
L 677.666575 368.65651 
L 678.503889 346.20284 
L 679.341203 311.720418 
L 680.178517 330.272871 
L 681.015831 354.091967 
L 681.853145 345.671841 
L 682.690459 301.371357 
L 683.527773 300.157645 
L 684.365087 322.383744 
L 685.202401 328.831588 
L 686.039715 311.915479 
L 686.877029 324.735311 
L 687.714343 329.362587 
L 688.551657 340.968707 
L 689.388971 337.782714 
L 690.226285 322.004459 
L 691.063599 329.741872 
L 691.900913 323.445742 
L 692.738227 323.597456 
L 693.575541 356.312508 
L 694.412855 326.753107 
L 695.250169 362.284523 
L 696.087483 383.221053 
L 696.924797 377.98692 
L 697.762111 379.731631 
L 698.599425 368.201368 
L 699.436739 373.814786 
L 700.274053 375.440293 
L 701.111367 376.014638 
L 701.948681 386.710474 
L 702.785995 381.248771 
L 703.623309 402.109444 
L 704.460623 341.499706 
L 705.297937 323.142314 
L 706.135251 330.652156 
L 706.972565 334.141578 
L 707.809879 327.086878 
L 708.647193 328.831588 
L 709.484507 325.721452 
L 710.321821 325.721452 
L 711.159135 347.954447 
L 711.996449 334.051929 
L 712.833763 366.573891 
L 713.671077 361.525953 
L 714.508391 336.948287 
L 715.345705 357.471052 
L 716.183019 344.230558 
L 717.020333 316.09451 
L 717.857647 330.907312 
L 718.694961 334.134682 
L 719.532275 318.080584 
L 720.369589 315.266979 
L 721.206903 297.806078 
L 722.044217 356.89178 
L 722.881531 350.354286 
L 723.718845 352.836879 
L 724.556159 333.80367 
L 725.393473 317.418559 
L 726.230787 314.108436 
L 727.068101 320.728682 
L 727.905415 334.548447 
L 728.742729 326.273139 
L 729.580043 332.231361 
L 730.417357 335.541484 
L 731.254671 320.645929 
L 732.091984 277.035054 
L 732.929298 274.469709 
L 733.766612 319.073621 
L 734.603926 335.127719 
L 735.44124 330.079781 
L 736.278554 327.514435 
L 737.115868 349.030237 
L 737.953182 340.407366 
L 738.790496 327.928201 
L 739.62781 329.914275 
L 740.465124 304.757337 
L 741.302438 288.289474 
L 742.139752 323.707793 
L 742.977066 309.308757 
L 743.81438 324.783583 
L 745.489008 283.241535 
L 746.326322 305.750374 
L 747.163636 294.744214 
L 747.163636 294.744214 
" style="fill:none;stroke:#1f77b4;stroke-linecap:square;stroke-width:1.5;"/>
   </g>
   <g id="line2d_16">
    <path clip-path="url(#p62259310f8)" d="M 138.436364 349.123756 
L 139.273678 356.911584 
L 140.110992 368.372517 
L 140.948306 354.146128 
L 141.78562 332.15172 
L 142.622934 333.081636 
L 143.460248 330.282549 
L 144.297562 323.481211 
L 145.134876 314.280917 
L 145.97219 310.403293 
L 146.809504 321.126668 
L 147.646818 304.164311 
L 148.484132 316.772249 
L 149.321446 293.063871 
L 150.15876 308.810737 
L 150.996074 311.0703 
L 151.833388 320.900793 
L 152.670702 328.256465 
L 153.508016 319.727206 
L 154.345329 319.714931 
L 155.182643 334.949749 
L 156.019957 345.452058 
L 156.857271 336.431342 
L 157.694585 342.674864 
L 158.531899 352.329156 
L 159.369213 328.954238 
L 160.206527 215.15774 
L 161.043841 278.178887 
L 161.881155 272.07257 
L 162.718469 320.878734 
L 163.555783 347.873923 
L 164.393097 342.540749 
L 165.230411 340.17887 
L 166.067725 345.238007 
L 166.905039 338.973658 
L 167.742353 335.432967 
L 169.416981 362.244602 
L 171.091609 329.275093 
L 171.928923 322.194865 
L 172.766237 326.197055 
L 173.603551 324.429799 
L 174.440865 327.228557 
L 175.278179 350.551266 
L 176.115493 359.488252 
L 176.952807 360.045581 
L 177.790121 326.724938 
L 178.627435 349.052206 
L 179.464749 346.245931 
L 180.302063 348.967443 
L 181.139377 347.569154 
L 181.976691 354.285868 
L 182.814005 352.158684 
L 183.651319 358.208374 
L 184.488633 357.867005 
L 185.325947 350.318065 
L 186.163261 349.726827 
L 187.000575 350.638928 
L 187.837889 343.313241 
L 188.675203 332.625728 
L 189.512517 320.167349 
L 190.349831 323.859414 
L 191.187145 324.522358 
L 192.024459 328.853728 
L 192.861773 328.250293 
L 193.699087 328.321278 
L 194.536401 334.124901 
L 195.373715 326.229843 
L 196.211029 319.591867 
L 197.048343 320.358699 
L 197.885657 339.322432 
L 198.722971 355.377383 
L 199.560285 349.031641 
L 200.397599 339.844638 
L 201.234913 327.957243 
L 202.072227 318.884805 
L 202.909541 323.319846 
L 203.746855 328.691277 
L 204.584169 330.690198 
L 205.421483 339.913253 
L 206.258797 354.747054 
L 207.096111 350.37826 
L 207.933425 339.933758 
L 208.770739 336.898874 
L 209.608053 337.461594 
L 210.445367 333.702893 
L 211.282681 323.037952 
L 212.119995 318.14321 
L 212.957309 322.550141 
L 213.794623 322.882898 
L 214.631937 327.42561 
L 215.469251 325.66273 
L 216.306565 335.311952 
L 217.143879 336.340867 
L 217.981193 324.798218 
L 218.818507 333.603407 
L 219.655821 354.42218 
L 220.493135 354.102601 
L 221.330449 341.7978 
L 222.167763 344.602286 
L 223.005077 363.816184 
L 223.842391 366.878588 
L 224.679705 356.140655 
L 225.517019 340.751678 
L 226.354333 363.690742 
L 227.191647 361.488492 
L 228.028961 361.819825 
L 228.866275 353.570195 
L 229.703589 354.127889 
L 230.540903 346.192481 
L 231.378217 332.795375 
L 232.215531 329.487399 
L 233.052845 330.626322 
L 233.890159 329.927507 
L 234.727473 343.073251 
L 235.564787 371.972024 
L 236.402101 360.642089 
L 237.239415 369.092801 
L 238.076729 365.023914 
L 238.914043 356.623119 
L 239.751357 362.454694 
L 240.588671 370.766968 
L 241.425985 355.52162 
L 242.263299 346.880679 
L 243.100613 346.117207 
L 243.937927 340.9049 
L 244.775241 338.832868 
L 245.612555 341.135558 
L 246.449869 348.136806 
L 247.287183 336.940283 
L 248.124497 329.237339 
L 248.961811 335.590417 
L 249.799125 352.430091 
L 250.636439 359.144158 
L 251.473753 357.316838 
L 252.311067 349.152239 
L 253.985695 330.588646 
L 254.823009 338.425427 
L 255.660323 342.599685 
L 256.497637 338.871082 
L 257.334951 328.828353 
L 258.172265 337.740893 
L 259.009579 339.435 
L 259.846893 336.695848 
L 260.684207 331.670334 
L 261.521521 332.375199 
L 262.358835 338.125736 
L 263.196149 351.064747 
L 264.033463 353.751344 
L 264.870777 350.003173 
L 265.708091 345.316649 
L 266.545405 347.363732 
L 267.382719 348.596654 
L 269.057347 358.450187 
L 269.89466 359.683899 
L 270.731974 351.408164 
L 271.569288 337.286851 
L 272.406602 337.645617 
L 273.243916 376.380395 
L 274.08123 381.955782 
L 274.918544 364.120424 
L 275.755858 349.043134 
L 276.593172 352.395888 
L 277.430486 358.53942 
L 278.2678 358.553597 
L 279.105114 356.555345 
L 279.942428 359.493686 
L 281.617056 336.618551 
L 282.45437 339.868337 
L 283.291684 347.045065 
L 284.128998 355.777679 
L 284.966312 358.872368 
L 285.803626 359.349241 
L 286.64094 366.646576 
L 287.478254 368.476526 
L 288.315568 364.35221 
L 289.990196 351.054269 
L 290.82751 358.486248 
L 291.664824 374.974779 
L 292.502138 386.525441 
L 293.339452 390.102923 
L 294.176766 387.220314 
L 295.01408 378.624028 
L 295.851394 377.256687 
L 296.688708 372.111703 
L 297.526022 380.257611 
L 298.363336 386.679166 
L 299.20065 388.948087 
L 300.037964 385.342748 
L 300.875278 385.371907 
L 301.712592 382.407635 
L 302.549906 383.46716 
L 303.38722 386.204889 
L 304.224534 383.475781 
L 305.061848 382.670301 
L 305.899162 389.984703 
L 306.736476 388.039311 
L 307.57379 387.372772 
L 308.411104 379.7598 
L 309.248418 375.728511 
L 310.085732 375.452285 
L 310.923046 373.885139 
L 311.76036 376.019433 
L 312.597674 372.945805 
L 313.434988 370.757219 
L 314.272302 361.667245 
L 315.109616 361.753414 
L 315.94693 360.381116 
L 316.784244 356.419633 
L 317.621558 350.066797 
L 318.458872 352.579919 
L 319.296186 356.620922 
L 320.1335 359.853693 
L 320.970814 361.950372 
L 321.808128 357.592394 
L 322.645442 349.973944 
L 323.482756 345.123034 
L 324.32007 342.870311 
L 325.157384 338.54198 
L 326.832012 353.053285 
L 327.669326 345.851607 
L 328.50664 344.791171 
L 329.343954 337.036296 
L 330.181268 334.066512 
L 331.018582 350.087511 
L 331.855896 358.008239 
L 332.69321 361.99692 
L 333.530524 358.731699 
L 334.367838 342.045577 
L 335.205152 338.4412 
L 336.042466 339.018557 
L 336.87978 336.229471 
L 337.717094 323.785928 
L 338.554408 328.162622 
L 339.391722 331.727942 
L 340.229036 331.084816 
L 342.740978 324.001203 
L 343.578292 327.084676 
L 344.415606 331.421957 
L 345.25292 338.095378 
L 346.090234 340.301396 
L 346.927548 339.661622 
L 347.764862 330.951943 
L 348.602176 334.650536 
L 349.43949 343.758115 
L 350.276804 340.341364 
L 351.114118 350.10634 
L 351.951432 352.079373 
L 352.788746 348.094051 
L 353.62606 350.145041 
L 354.463374 345.075843 
L 355.300688 338.256214 
L 356.138002 335.388268 
L 356.975316 343.654036 
L 357.81263 339.073318 
L 358.649944 331.869583 
L 359.487258 328.586192 
L 360.324572 320.160482 
L 361.161886 321.14811 
L 361.9992 327.640876 
L 362.836514 325.813504 
L 363.673828 331.315943 
L 364.511142 332.716168 
L 365.348456 339.503608 
L 366.18577 341.130246 
L 367.023084 351.232675 
L 367.860398 355.432387 
L 368.697712 342.95767 
L 369.535026 338.429307 
L 370.37234 330.667401 
L 371.209654 330.493387 
L 372.046968 332.316749 
L 373.721596 352.906504 
L 374.55891 349.572441 
L 375.396224 357.972186 
L 377.070852 343.237064 
L 377.908166 343.47372 
L 378.74548 340.643824 
L 379.582794 342.58504 
L 380.420108 346.450789 
L 382.094736 362.518162 
L 382.93205 358.50006 
L 383.769364 377.442889 
L 385.443991 366.075183 
L 387.118619 396.395997 
L 387.955933 399.511638 
L 388.793247 393.390854 
L 389.630561 378.051177 
L 390.467875 369.961783 
L 391.305189 385.156242 
L 392.142503 389.90132 
L 392.979817 385.656927 
L 393.817131 384.332288 
L 394.654445 380.45608 
L 395.491759 381.350541 
L 396.329073 324.756905 
L 397.166387 354.298465 
L 398.003701 361.871426 
L 398.841015 360.101471 
L 399.678329 349.130762 
L 400.515643 368.60729 
L 401.352957 367.167262 
L 402.190271 355.111792 
L 403.027585 346.526262 
L 403.864899 333.130719 
L 404.702213 345.59139 
L 407.214155 328.40592 
L 408.051469 323.334404 
L 408.888783 322.067382 
L 409.726097 316.770009 
L 410.563411 316.840396 
L 411.400725 325.969426 
L 412.238039 333.59733 
L 413.075353 327.772205 
L 413.912667 318.764242 
L 414.749981 331.643231 
L 415.587295 335.828037 
L 416.424609 327.152918 
L 417.261923 322.596055 
L 418.936551 348.988704 
L 419.773865 336.863689 
L 420.611179 319.250907 
L 421.448493 286.320202 
L 422.285807 335.898962 
L 423.123121 334.59094 
L 423.960435 316.801834 
L 424.797749 309.09685 
L 425.635063 308.809157 
L 426.472377 311.959128 
L 427.309691 307.640727 
L 428.147005 307.578379 
L 428.984319 319.202145 
L 429.821633 324.988101 
L 430.658947 335.9411 
L 431.496261 340.650534 
L 432.333575 352.945691 
L 433.170889 359.972478 
L 434.008203 353.575751 
L 435.682831 323.318023 
L 437.357459 339.453595 
L 438.194773 331.447107 
L 439.032087 328.996046 
L 439.869401 348.418743 
L 440.706715 309.247954 
L 441.544029 347.318851 
L 442.381343 349.434585 
L 443.218657 353.412337 
L 444.055971 345.13708 
L 444.893285 350.248737 
L 445.730599 341.109272 
L 446.567913 329.272037 
L 447.405227 325.08408 
L 449.079855 348.633428 
L 449.917169 356.779067 
L 450.754483 356.486955 
L 451.591797 356.650673 
L 453.266425 313.446381 
L 454.941053 291.543074 
L 455.778367 302.949646 
L 456.615681 320.312159 
L 457.452995 309.534467 
L 458.290309 309.121192 
L 459.127623 317.798794 
L 459.964937 316.977523 
L 460.802251 324.429166 
L 461.639565 336.270472 
L 462.476879 333.385632 
L 463.314193 321.918588 
L 464.151507 296.955993 
L 464.988821 318.023341 
L 465.826135 329.838543 
L 467.500763 358.616023 
L 468.338077 355.405432 
L 469.175391 346.816751 
L 470.012705 350.196207 
L 470.850019 345.789624 
L 471.687333 359.958154 
L 472.524647 360.268782 
L 473.361961 352.509984 
L 474.199275 359.266692 
L 475.036589 354.618304 
L 475.873903 343.662553 
L 476.711217 338.882211 
L 477.548531 349.435296 
L 478.385845 356.611121 
L 479.223159 361.682498 
L 480.060473 355.736088 
L 480.897787 346.883952 
L 481.735101 342.038146 
L 482.572415 340.709618 
L 483.409729 346.588654 
L 484.247043 347.186802 
L 485.084357 329.270917 
L 485.921671 321.221353 
L 486.758985 347.861353 
L 487.596299 362.029544 
L 488.433613 365.274321 
L 489.270927 344.130275 
L 490.108241 326.00646 
L 490.945555 331.206995 
L 491.782869 334.840661 
L 492.620183 321.904168 
L 493.457497 328.175374 
L 494.294811 332.096812 
L 495.132125 326.961481 
L 495.969439 323.068188 
L 496.806753 322.61531 
L 497.644067 328.42876 
L 499.318695 347.137649 
L 500.156009 343.345717 
L 500.993322 335.642686 
L 501.830636 330.444165 
L 502.66795 330.325112 
L 503.505264 334.925268 
L 504.342578 337.383368 
L 505.179892 353.974102 
L 506.017206 366.038644 
L 506.85452 367.55188 
L 507.691834 359.779392 
L 508.529148 341.826803 
L 509.366462 343.149254 
L 510.203776 346.526644 
L 511.04109 339.504007 
L 511.878404 325.023182 
L 512.715718 336.905714 
L 513.553032 356.512747 
L 515.22766 350.233302 
L 516.064974 351.132547 
L 516.902288 360.424314 
L 517.739602 360.747079 
L 518.576916 373.712463 
L 519.41423 374.414906 
L 520.251544 357.202038 
L 521.088858 342.818468 
L 521.926172 332.010426 
L 522.763486 332.87571 
L 523.6008 346.778944 
L 524.438114 344.273297 
L 525.275428 334.895552 
L 526.112742 353.490988 
L 526.950056 363.835196 
L 527.78737 356.425284 
L 528.624684 356.296178 
L 529.461998 346.111269 
L 530.299312 338.225326 
L 531.136626 331.505704 
L 531.97394 326.278527 
L 532.811254 335.171925 
L 533.648568 336.555734 
L 534.485882 338.315116 
L 535.323196 346.282131 
L 536.16051 339.335732 
L 536.997824 344.408046 
L 538.672452 332.610875 
L 539.509766 329.727502 
L 540.34708 325.531975 
L 541.184394 326.309623 
L 542.021708 331.413068 
L 542.859022 295.650297 
L 543.696336 283.795031 
L 544.53365 309.259361 
L 545.370964 320.912834 
L 546.208278 321.946393 
L 547.045592 325.018207 
L 547.882906 331.154378 
L 548.72022 345.411968 
L 549.557534 366.640291 
L 550.394848 378.574988 
L 551.232162 383.731354 
L 552.069476 381.93124 
L 552.90679 374.46932 
L 553.744104 376.718474 
L 554.581418 374.914983 
L 555.418732 378.712194 
L 556.256046 378.985919 
L 557.09336 377.047723 
L 557.930674 375.892576 
L 558.767988 373.26054 
L 559.605302 369.580507 
L 560.442616 369.947338 
L 561.27993 374.118488 
L 562.117244 379.885572 
L 562.954558 376.11128 
L 563.791872 374.146251 
L 564.629186 373.963409 
L 565.4665 374.401798 
L 566.303814 363.845596 
L 567.141128 361.506549 
L 567.978442 355.022949 
L 568.815756 351.79346 
L 569.65307 344.00617 
L 570.490384 340.833811 
L 571.327698 349.712937 
L 572.165012 354.517316 
L 573.002326 344.671579 
L 573.83964 343.48847 
L 575.514268 364.135407 
L 576.351582 367.921871 
L 577.188896 368.445144 
L 578.02621 375.895354 
L 578.863524 376.817309 
L 580.538152 349.513444 
L 582.21278 359.902421 
L 583.050094 360.345715 
L 583.887408 353.846238 
L 585.562036 344.887792 
L 586.39935 343.898879 
L 587.236664 339.028697 
L 588.073978 336.680569 
L 588.911292 338.04455 
L 589.748606 343.554021 
L 590.58592 344.696078 
L 591.423234 346.097718 
L 592.260548 351.540726 
L 593.097862 345.365472 
L 593.935176 341.789344 
L 594.77249 346.376009 
L 595.609804 353.631258 
L 596.447118 354.284792 
L 597.284432 359.180054 
L 598.95906 380.52374 
L 599.796374 374.648715 
L 600.633688 375.437545 
L 601.471002 375.991567 
L 602.308316 376.387384 
L 603.14563 374.520469 
L 603.982944 364.307225 
L 604.820258 365.438143 
L 605.657572 365.820695 
L 606.494886 361.322795 
L 607.3322 351.694625 
L 608.169514 351.32203 
L 609.006828 347.957514 
L 609.844142 349.229953 
L 610.681456 346.501009 
L 611.51877 345.4373 
L 612.356084 330.541099 
L 613.193398 320.46664 
L 614.030712 319.652271 
L 614.868026 320.133414 
L 615.70534 323.3343 
L 616.542653 317.478634 
L 617.379967 312.747011 
L 619.054595 326.809353 
L 619.891909 330.984758 
L 620.729223 332.395096 
L 621.566537 326.336048 
L 622.403851 327.908829 
L 623.241165 323.444151 
L 624.078479 320.246139 
L 625.753107 330.991347 
L 626.590421 340.8427 
L 627.427735 353.422902 
L 628.265049 353.698302 
L 629.939677 356.334583 
L 630.776991 361.050893 
L 631.614305 360.368477 
L 632.451619 352.018544 
L 633.288933 348.555289 
L 635.800875 366.654753 
L 636.638189 371.417854 
L 637.475503 372.552844 
L 638.312817 376.662324 
L 639.150131 376.752139 
L 639.987445 377.573089 
L 640.824759 374.804316 
L 641.662073 382.051656 
L 642.499387 373.216865 
L 643.336701 377.37548 
L 644.174015 356.32322 
L 645.011329 363.260678 
L 645.848643 359.712521 
L 646.685957 357.149413 
L 647.523271 360.94395 
L 648.360585 370.577111 
L 650.035213 377.222223 
L 650.872527 369.722357 
L 651.709841 369.115962 
L 652.547155 370.812179 
L 653.384469 357.34756 
L 654.221783 360.82053 
L 655.059097 344.686928 
L 655.896411 334.893304 
L 656.733725 340.067248 
L 657.571039 344.239719 
L 658.408353 354.29125 
L 659.245667 359.138037 
L 660.082981 361.162558 
L 660.920295 361.816639 
L 661.757609 362.327342 
L 662.594923 360.758607 
L 663.432237 355.752044 
L 664.269551 370.154444 
L 665.106865 374.679039 
L 665.944179 372.855182 
L 667.618807 348.600847 
L 669.293435 338.22998 
L 670.130749 335.40734 
L 670.968063 327.412519 
L 671.805377 328.669861 
L 672.642691 343.425427 
L 673.480005 344.103763 
L 674.317319 354.338754 
L 675.154633 354.74833 
L 675.991947 346.261036 
L 676.829261 341.274873 
L 677.666575 337.321472 
L 678.503889 352.122692 
L 679.341203 337.929256 
L 680.178517 327.094112 
L 681.015831 326.273188 
L 681.853145 331.279665 
L 682.690459 328.741368 
L 683.527773 323.653071 
L 684.365087 325.452091 
L 685.202401 328.345369 
L 686.039715 323.787438 
L 686.877029 321.748177 
L 687.714343 332.595014 
L 688.551657 337.777857 
L 689.388971 334.157594 
L 690.226285 328.150911 
L 691.063599 324.766897 
L 691.900913 330.886782 
L 692.738227 330.525178 
L 693.575541 330.767807 
L 694.412855 326.5859 
L 696.087483 341.752501 
L 696.924797 353.162164 
L 697.762111 361.569938 
L 698.599425 360.378356 
L 699.436739 360.391655 
L 700.274053 365.500101 
L 701.111367 364.084727 
L 701.948681 374.440976 
L 702.785995 369.847418 
L 703.623309 378.068895 
L 704.460623 382.230853 
L 705.297937 361.992068 
L 706.135251 354.82166 
L 706.972565 355.412056 
L 707.809879 352.957853 
L 708.647193 327.63769 
L 709.484507 332.045654 
L 710.321821 337.780652 
L 711.159135 337.168883 
L 711.996449 345.926812 
L 712.833763 350.566198 
L 713.671077 358.769011 
L 714.508391 351.478673 
L 715.345705 351.032835 
L 716.183019 352.224748 
L 717.020333 352.683642 
L 717.857647 345.637209 
L 718.694961 350.23674 
L 719.532275 332.070291 
L 720.369589 338.779713 
L 721.206903 332.252769 
L 722.044217 329.786169 
L 722.881531 337.419369 
L 723.718845 348.391415 
L 724.556159 340.468386 
L 725.393473 323.580289 
L 726.230787 326.965761 
L 727.068101 331.128031 
L 727.905415 341.344427 
L 728.742729 340.413131 
L 729.580043 331.620052 
L 730.417357 347.148119 
L 731.254671 342.765565 
L 732.091984 313.174401 
L 732.929298 304.352588 
L 733.766612 311.683363 
L 735.44124 336.843523 
L 736.278554 342.736865 
L 737.115868 341.513631 
L 737.953182 334.760456 
L 738.790496 340.561882 
L 739.62781 325.692142 
L 740.465124 328.802205 
L 741.302438 327.294039 
L 742.139752 325.507763 
L 742.977066 331.413997 
L 744.651694 335.899197 
L 745.489008 331.033563 
L 746.326322 320.893015 
L 747.163636 313.205948 
L 747.163636 313.205948 
" style="fill:none;stroke:#ff0000;stroke-dasharray:5.55,2.4;stroke-dashoffset:0;stroke-width:1.5;"/>
   </g>
   <g id="patch_3">
    <path d="M 108 460.8 
L 108 69.12 
" style="fill:none;stroke:#000000;stroke-linecap:square;stroke-linejoin:miter;stroke-width:0.8;"/>
   </g>
   <g id="patch_4">
    <path d="M 777.6 460.8 
L 777.6 69.12 
" style="fill:none;stroke:#000000;stroke-linecap:square;stroke-linejoin:miter;stroke-width:0.8;"/>
   </g>
   <g id="patch_5">
    <path d="M 108 460.8 
L 777.6 460.8 
" style="fill:none;stroke:#000000;stroke-linecap:square;stroke-linejoin:miter;stroke-width:0.8;"/>
   </g>
   <g id="patch_6">
    <path d="M 108 69.12 
L 777.6 69.12 
" style="fill:none;stroke:#000000;stroke-linecap:square;stroke-linejoin:miter;stroke-width:0.8;"/>
   </g>
   <g id="text_17">
    <!-- Macau residential 2020-2021 | Forecast vs Monitored | LSTM -->
    <g transform="translate(216.121875 63.12)scale(0.15 -0.15)">
     <defs>
      <path d="M 9.8125 72.90625 
L 24.515625 72.90625 
L 43.109375 23.296875 
L 61.8125 72.90625 
L 76.515625 72.90625 
L 76.515625 0 
L 66.890625 0 
L 66.890625 64.015625 
L 48.09375 14.015625 
L 38.1875 14.015625 
L 19.390625 64.015625 
L 19.390625 0 
L 9.8125 0 
z
" id="DejaVuSans-77"/>
      <path d="M 48.78125 52.59375 
L 48.78125 44.1875 
Q 44.96875 46.296875 41.140625 47.34375 
Q 37.3125 48.390625 33.40625 48.390625 
Q 24.65625 48.390625 19.8125 42.84375 
Q 14.984375 37.3125 14.984375 27.296875 
Q 14.984375 17.28125 19.8125 11.734375 
Q 24.65625 6.203125 33.40625 6.203125 
Q 37.3125 6.203125 41.140625 7.25 
Q 44.96875 8.296875 48.78125 10.40625 
L 48.78125 2.09375 
Q 45.015625 0.34375 40.984375 -0.53125 
Q 36.96875 -1.421875 32.421875 -1.421875 
Q 20.0625 -1.421875 12.78125 6.34375 
Q 5.515625 14.109375 5.515625 27.296875 
Q 5.515625 40.671875 12.859375 48.328125 
Q 20.21875 56 33.015625 56 
Q 37.15625 56 41.109375 55.140625 
Q 45.0625 54.296875 48.78125 52.59375 
z
" id="DejaVuSans-99"/>
      <path d="M 8.5 21.578125 
L 8.5 54.6875 
L 17.484375 54.6875 
L 17.484375 21.921875 
Q 17.484375 14.15625 20.5 10.265625 
Q 23.53125 6.390625 29.59375 6.390625 
Q 36.859375 6.390625 41.078125 11.03125 
Q 45.3125 15.671875 45.3125 23.6875 
L 45.3125 54.6875 
L 54.296875 54.6875 
L 54.296875 0 
L 45.3125 0 
L 45.3125 8.40625 
Q 42.046875 3.421875 37.71875 1 
Q 33.40625 -1.421875 27.6875 -1.421875 
Q 18.265625 -1.421875 13.375 4.4375 
Q 8.5 10.296875 8.5 21.578125 
z
M 31.109375 56 
z
" id="DejaVuSans-117"/>
      <path id="DejaVuSans-32"/>
      <path d="M 41.109375 46.296875 
Q 39.59375 47.171875 37.8125 47.578125 
Q 36.03125 48 33.890625 48 
Q 26.265625 48 22.1875 43.046875 
Q 18.109375 38.09375 18.109375 28.8125 
L 18.109375 0 
L 9.078125 0 
L 9.078125 54.6875 
L 18.109375 54.6875 
L 18.109375 46.1875 
Q 20.953125 51.171875 25.484375 53.578125 
Q 30.03125 56 36.53125 56 
Q 37.453125 56 38.578125 55.875 
Q 39.703125 55.765625 41.0625 55.515625 
z
" id="DejaVuSans-114"/>
      <path d="M 44.28125 53.078125 
L 44.28125 44.578125 
Q 40.484375 46.53125 36.375 47.5 
Q 32.28125 48.484375 27.875 48.484375 
Q 21.1875 48.484375 17.84375 46.4375 
Q 14.5 44.390625 14.5 40.28125 
Q 14.5 37.15625 16.890625 35.375 
Q 19.28125 33.59375 26.515625 31.984375 
L 29.59375 31.296875 
Q 39.15625 29.25 43.1875 25.515625 
Q 47.21875 21.78125 47.21875 15.09375 
Q 47.21875 7.46875 41.1875 3.015625 
Q 35.15625 -1.421875 24.609375 -1.421875 
Q 20.21875 -1.421875 15.453125 -0.5625 
Q 10.6875 0.296875 5.421875 2 
L 5.421875 11.28125 
Q 10.40625 8.6875 15.234375 7.390625 
Q 20.0625 6.109375 24.8125 6.109375 
Q 31.15625 6.109375 34.5625 8.28125 
Q 37.984375 10.453125 37.984375 14.40625 
Q 37.984375 18.0625 35.515625 20.015625 
Q 33.0625 21.96875 24.703125 23.78125 
L 21.578125 24.515625 
Q 13.234375 26.265625 9.515625 29.90625 
Q 5.8125 33.546875 5.8125 39.890625 
Q 5.8125 47.609375 11.28125 51.796875 
Q 16.75 56 26.8125 56 
Q 31.78125 56 36.171875 55.265625 
Q 40.578125 54.546875 44.28125 53.078125 
z
" id="DejaVuSans-115"/>
      <path d="M 9.421875 54.6875 
L 18.40625 54.6875 
L 18.40625 0 
L 9.421875 0 
z
M 9.421875 75.984375 
L 18.40625 75.984375 
L 18.40625 64.59375 
L 9.421875 64.59375 
z
" id="DejaVuSans-105"/>
      <path d="M 45.40625 46.390625 
L 45.40625 75.984375 
L 54.390625 75.984375 
L 54.390625 0 
L 45.40625 0 
L 45.40625 8.203125 
Q 42.578125 3.328125 38.25 0.953125 
Q 33.9375 -1.421875 27.875 -1.421875 
Q 17.96875 -1.421875 11.734375 6.484375 
Q 5.515625 14.40625 5.515625 27.296875 
Q 5.515625 40.1875 11.734375 48.09375 
Q 17.96875 56 27.875 56 
Q 33.9375 56 38.25 53.625 
Q 42.578125 51.265625 45.40625 46.390625 
z
M 14.796875 27.296875 
Q 14.796875 17.390625 18.875 11.75 
Q 22.953125 6.109375 30.078125 6.109375 
Q 37.203125 6.109375 41.296875 11.75 
Q 45.40625 17.390625 45.40625 27.296875 
Q 45.40625 37.203125 41.296875 42.84375 
Q 37.203125 48.484375 30.078125 48.484375 
Q 22.953125 48.484375 18.875 42.84375 
Q 14.796875 37.203125 14.796875 27.296875 
z
" id="DejaVuSans-100"/>
      <path d="M 54.890625 33.015625 
L 54.890625 0 
L 45.90625 0 
L 45.90625 32.71875 
Q 45.90625 40.484375 42.875 44.328125 
Q 39.84375 48.1875 33.796875 48.1875 
Q 26.515625 48.1875 22.3125 43.546875 
Q 18.109375 38.921875 18.109375 30.90625 
L 18.109375 0 
L 9.078125 0 
L 9.078125 54.6875 
L 18.109375 54.6875 
L 18.109375 46.1875 
Q 21.34375 51.125 25.703125 53.5625 
Q 30.078125 56 35.796875 56 
Q 45.21875 56 50.046875 50.171875 
Q 54.890625 44.34375 54.890625 33.015625 
z
" id="DejaVuSans-110"/>
      <path d="M 9.421875 75.984375 
L 18.40625 75.984375 
L 18.40625 0 
L 9.421875 0 
z
" id="DejaVuSans-108"/>
      <path d="M 21 76.421875 
L 21 -23.578125 
L 12.703125 -23.578125 
L 12.703125 76.421875 
z
" id="DejaVuSans-124"/>
      <path d="M 9.8125 72.90625 
L 51.703125 72.90625 
L 51.703125 64.59375 
L 19.671875 64.59375 
L 19.671875 43.109375 
L 48.578125 43.109375 
L 48.578125 34.8125 
L 19.671875 34.8125 
L 19.671875 0 
L 9.8125 0 
z
" id="DejaVuSans-70"/>
      <path d="M 30.609375 48.390625 
Q 23.390625 48.390625 19.1875 42.75 
Q 14.984375 37.109375 14.984375 27.296875 
Q 14.984375 17.484375 19.15625 11.84375 
Q 23.34375 6.203125 30.609375 6.203125 
Q 37.796875 6.203125 41.984375 11.859375 
Q 46.1875 17.53125 46.1875 27.296875 
Q 46.1875 37.015625 41.984375 42.703125 
Q 37.796875 48.390625 30.609375 48.390625 
z
M 30.609375 56 
Q 42.328125 56 49.015625 48.375 
Q 55.71875 40.765625 55.71875 27.296875 
Q 55.71875 13.875 49.015625 6.21875 
Q 42.328125 -1.421875 30.609375 -1.421875 
Q 18.84375 -1.421875 12.171875 6.21875 
Q 5.515625 13.875 5.515625 27.296875 
Q 5.515625 40.765625 12.171875 48.375 
Q 18.84375 56 30.609375 56 
z
" id="DejaVuSans-111"/>
      <path d="M 2.984375 54.6875 
L 12.5 54.6875 
L 29.59375 8.796875 
L 46.6875 54.6875 
L 56.203125 54.6875 
L 35.6875 0 
L 23.484375 0 
z
" id="DejaVuSans-118"/>
      <path d="M 9.8125 72.90625 
L 19.671875 72.90625 
L 19.671875 8.296875 
L 55.171875 8.296875 
L 55.171875 0 
L 9.8125 0 
z
" id="DejaVuSans-76"/>
      <path d="M 53.515625 70.515625 
L 53.515625 60.890625 
Q 47.90625 63.578125 42.921875 64.890625 
Q 37.9375 66.21875 33.296875 66.21875 
Q 25.25 66.21875 20.875 63.09375 
Q 16.5 59.96875 16.5 54.203125 
Q 16.5 49.359375 19.40625 46.890625 
Q 22.3125 44.4375 30.421875 42.921875 
L 36.375 41.703125 
Q 47.40625 39.59375 52.65625 34.296875 
Q 57.90625 29 57.90625 20.125 
Q 57.90625 9.515625 50.796875 4.046875 
Q 43.703125 -1.421875 29.984375 -1.421875 
Q 24.8125 -1.421875 18.96875 -0.25 
Q 13.140625 0.921875 6.890625 3.21875 
L 6.890625 13.375 
Q 12.890625 10.015625 18.65625 8.296875 
Q 24.421875 6.59375 29.984375 6.59375 
Q 38.421875 6.59375 43.015625 9.90625 
Q 47.609375 13.234375 47.609375 19.390625 
Q 47.609375 24.75 44.3125 27.78125 
Q 41.015625 30.8125 33.5 32.328125 
L 27.484375 33.5 
Q 16.453125 35.6875 11.515625 40.375 
Q 6.59375 45.0625 6.59375 53.421875 
Q 6.59375 63.09375 13.40625 68.65625 
Q 20.21875 74.21875 32.171875 74.21875 
Q 37.3125 74.21875 42.625 73.28125 
Q 47.953125 72.359375 53.515625 70.515625 
z
" id="DejaVuSans-83"/>
      <path d="M -0.296875 72.90625 
L 61.375 72.90625 
L 61.375 64.59375 
L 35.5 64.59375 
L 35.5 0 
L 25.59375 0 
L 25.59375 64.59375 
L -0.296875 64.59375 
z
" id="DejaVuSans-84"/>
     </defs>
     <use xlink:href="#DejaVuSans-77"/>
     <use x="86.279297" xlink:href="#DejaVuSans-97"/>
     <use x="147.558594" xlink:href="#DejaVuSans-99"/>
     <use x="202.539062" xlink:href="#DejaVuSans-97"/>
     <use x="263.818359" xlink:href="#DejaVuSans-117"/>
     <use x="327.197266" xlink:href="#DejaVuSans-32"/>
     <use x="358.984375" xlink:href="#DejaVuSans-114"/>
     <use x="397.847656" xlink:href="#DejaVuSans-101"/>
     <use x="459.371094" xlink:href="#DejaVuSans-115"/>
     <use x="511.470703" xlink:href="#DejaVuSans-105"/>
     <use x="539.253906" xlink:href="#DejaVuSans-100"/>
     <use x="602.730469" xlink:href="#DejaVuSans-101"/>
     <use x="664.253906" xlink:href="#DejaVuSans-110"/>
     <use x="727.632812" xlink:href="#DejaVuSans-116"/>
     <use x="766.841797" xlink:href="#DejaVuSans-105"/>
     <use x="794.625" xlink:href="#DejaVuSans-97"/>
     <use x="855.904297" xlink:href="#DejaVuSans-108"/>
     <use x="883.6875" xlink:href="#DejaVuSans-32"/>
     <use x="915.474609" xlink:href="#DejaVuSans-50"/>
     <use x="979.097656" xlink:href="#DejaVuSans-48"/>
     <use x="1042.720703" xlink:href="#DejaVuSans-50"/>
     <use x="1106.34375" xlink:href="#DejaVuSans-48"/>
     <use x="1169.966797" xlink:href="#DejaVuSans-45"/>
     <use x="1206.050781" xlink:href="#DejaVuSans-50"/>
     <use x="1269.673828" xlink:href="#DejaVuSans-48"/>
     <use x="1333.296875" xlink:href="#DejaVuSans-50"/>
     <use x="1396.919922" xlink:href="#DejaVuSans-49"/>
     <use x="1460.542969" xlink:href="#DejaVuSans-32"/>
     <use x="1492.330078" xlink:href="#DejaVuSans-124"/>
     <use x="1526.021484" xlink:href="#DejaVuSans-32"/>
     <use x="1557.808594" xlink:href="#DejaVuSans-70"/>
     <use x="1611.703125" xlink:href="#DejaVuSans-111"/>
     <use x="1672.884766" xlink:href="#DejaVuSans-114"/>
     <use x="1711.748047" xlink:href="#DejaVuSans-101"/>
     <use x="1773.271484" xlink:href="#DejaVuSans-99"/>
     <use x="1828.251953" xlink:href="#DejaVuSans-97"/>
     <use x="1889.53125" xlink:href="#DejaVuSans-115"/>
     <use x="1941.630859" xlink:href="#DejaVuSans-116"/>
     <use x="1980.839844" xlink:href="#DejaVuSans-32"/>
     <use x="2012.626953" xlink:href="#DejaVuSans-118"/>
     <use x="2071.806641" xlink:href="#DejaVuSans-115"/>
     <use x="2123.90625" xlink:href="#DejaVuSans-32"/>
     <use x="2155.693359" xlink:href="#DejaVuSans-77"/>
     <use x="2241.972656" xlink:href="#DejaVuSans-111"/>
     <use x="2303.154297" xlink:href="#DejaVuSans-110"/>
     <use x="2366.533203" xlink:href="#DejaVuSans-105"/>
     <use x="2394.316406" xlink:href="#DejaVuSans-116"/>
     <use x="2433.525391" xlink:href="#DejaVuSans-111"/>
     <use x="2494.707031" xlink:href="#DejaVuSans-114"/>
     <use x="2533.570312" xlink:href="#DejaVuSans-101"/>
     <use x="2595.09375" xlink:href="#DejaVuSans-100"/>
     <use x="2658.570312" xlink:href="#DejaVuSans-32"/>
     <use x="2690.357422" xlink:href="#DejaVuSans-124"/>
     <use x="2724.048828" xlink:href="#DejaVuSans-32"/>
     <use x="2755.835938" xlink:href="#DejaVuSans-76"/>
     <use x="2811.548828" xlink:href="#DejaVuSans-83"/>
     <use x="2875.025391" xlink:href="#DejaVuSans-84"/>
     <use x="2936.109375" xlink:href="#DejaVuSans-77"/>
    </g>
   </g>
   <g id="legend_1">
    <g id="patch_7">
     <path d="M 613.996875 114.615 
L 769.2 114.615 
Q 771.6 114.615 771.6 112.215 
L 771.6 77.52 
Q 771.6 75.12 769.2 75.12 
L 613.996875 75.12 
Q 611.596875 75.12 611.596875 77.52 
L 611.596875 112.215 
Q 611.596875 114.615 613.996875 114.615 
z
" style="fill:#ffffff;opacity:0.8;stroke:#cccccc;stroke-linejoin:miter;"/>
    </g>
    <g id="line2d_17">
     <path d="M 616.396875 84.838125 
L 640.396875 84.838125 
" style="fill:none;stroke:#1f77b4;stroke-linecap:square;stroke-width:1.5;"/>
    </g>
    <g id="line2d_18"/>
    <g id="text_18">
     <!-- measured_data_CO -->
     <g transform="translate(649.996875 89.038125)scale(0.12 -0.12)">
      <defs>
       <path d="M 50.984375 -16.609375 
L 50.984375 -23.578125 
L -0.984375 -23.578125 
L -0.984375 -16.609375 
z
" id="DejaVuSans-95"/>
      </defs>
      <use xlink:href="#DejaVuSans-109"/>
      <use x="97.412109" xlink:href="#DejaVuSans-101"/>
      <use x="158.935547" xlink:href="#DejaVuSans-97"/>
      <use x="220.214844" xlink:href="#DejaVuSans-115"/>
      <use x="272.314453" xlink:href="#DejaVuSans-117"/>
      <use x="335.693359" xlink:href="#DejaVuSans-114"/>
      <use x="374.556641" xlink:href="#DejaVuSans-101"/>
      <use x="436.080078" xlink:href="#DejaVuSans-100"/>
      <use x="499.556641" xlink:href="#DejaVuSans-95"/>
      <use x="549.556641" xlink:href="#DejaVuSans-100"/>
      <use x="613.033203" xlink:href="#DejaVuSans-97"/>
      <use x="674.3125" xlink:href="#DejaVuSans-116"/>
      <use x="713.521484" xlink:href="#DejaVuSans-97"/>
      <use x="774.800781" xlink:href="#DejaVuSans-95"/>
      <use x="824.800781" xlink:href="#DejaVuSans-67"/>
      <use x="894.625" xlink:href="#DejaVuSans-79"/>
     </g>
    </g>
    <g id="line2d_19">
     <path d="M 616.396875 102.785625 
L 640.396875 102.785625 
" style="fill:none;stroke:#ff0000;stroke-dasharray:5.55,2.4;stroke-dashoffset:0;stroke-width:1.5;"/>
    </g>
    <g id="line2d_20"/>
    <g id="text_19">
     <!-- predicted_data_CO -->
     <g transform="translate(649.996875 106.985625)scale(0.12 -0.12)">
      <use xlink:href="#DejaVuSans-112"/>
      <use x="63.476562" xlink:href="#DejaVuSans-114"/>
      <use x="102.339844" xlink:href="#DejaVuSans-101"/>
      <use x="163.863281" xlink:href="#DejaVuSans-100"/>
      <use x="227.339844" xlink:href="#DejaVuSans-105"/>
      <use x="255.123047" xlink:href="#DejaVuSans-99"/>
      <use x="310.103516" xlink:href="#DejaVuSans-116"/>
      <use x="349.3125" xlink:href="#DejaVuSans-101"/>
      <use x="410.835938" xlink:href="#DejaVuSans-100"/>
      <use x="474.3125" xlink:href="#DejaVuSans-95"/>
      <use x="524.3125" xlink:href="#DejaVuSans-100"/>
      <use x="587.789062" xlink:href="#DejaVuSans-97"/>
      <use x="649.068359" xlink:href="#DejaVuSans-116"/>
      <use x="688.277344" xlink:href="#DejaVuSans-97"/>
      <use x="749.556641" xlink:href="#DejaVuSans-95"/>
      <use x="799.556641" xlink:href="#DejaVuSans-67"/>
      <use x="869.380859" xlink:href="#DejaVuSans-79"/>
     </g>
    </g>
   </g>
  </g>
 </g>
 <defs>
  <clipPath id="p62259310f8">
   <rect height="391.68" width="669.6" x="108" y="69.12"/>
  </clipPath>
 </defs>
</svg>
