<?xml version="1.0" encoding="utf-8" standalone="no"?>
<!DOCTYPE svg PUBLIC "-//W3C//DTD SVG 1.1//EN"
  "http://www.w3.org/Graphics/SVG/1.1/DTD/svg11.dtd">
<!-- Created with matplotlib (https://matplotlib.org/) -->
<svg height="576pt" version="1.1" viewBox="0 0 864 576" width="864pt" xmlns="http://www.w3.org/2000/svg" xmlns:xlink="http://www.w3.org/1999/xlink">
 <metadata>
  <rdf:RDF xmlns:cc="http://creativecommons.org/ns#" xmlns:dc="http://purl.org/dc/elements/1.1/" xmlns:rdf="http://www.w3.org/1999/02/22-rdf-syntax-ns#">
   <cc:Work>
    <dc:type rdf:resource="http://purl.org/dc/dcmitype/StillImage"/>
    <dc:date>2024-03-08T18:23:42.956575</dc:date>
    <dc:format>image/svg+xml</dc:format>
    <dc:creator>
     <cc:Agent>
      <dc:title>Matplotlib v3.3.4, https://matplotlib.org/</dc:title>
     </cc:Agent>
    </dc:creator>
   </cc:Work>
  </rdf:RDF>
 </metadata>
 <defs>
  <style type="text/css">*{stroke-linecap:butt;stroke-linejoin:round;}</style>
 </defs>
 <g id="figure_1">
  <g id="patch_1">
   <path d="M 0 576 
L 864 576 
L 864 0 
L 0 0 
z
" style="fill:#ffffff;"/>
  </g>
  <g id="axes_1">
   <g id="patch_2">
    <path d="M 108 460.8 
L 777.6 460.8 
L 777.6 69.12 
L 108 69.12 
z
" style="fill:#ffffff;"/>
   </g>
   <g id="matplotlib.axis_1">
    <g id="xtick_1">
     <g id="line2d_1">
      <defs>
       <path d="M 0 0 
L 0 3.5 
" id="m113beedd4c" style="stroke:#000000;stroke-width:0.8;"/>
      </defs>
      <g>
       <use style="stroke:#000000;stroke-width:0.8;" x="138.436364" xlink:href="#m113beedd4c" y="460.8"/>
      </g>
     </g>
     <g id="text_1">
      <!-- 2020-01 -->
      <g transform="translate(93.766579 500.766215)rotate(-30)scale(0.12 -0.12)">
       <defs>
        <path d="M 19.1875 8.296875 
L 53.609375 8.296875 
L 53.609375 0 
L 7.328125 0 
L 7.328125 8.296875 
Q 12.9375 14.109375 22.625 23.890625 
Q 32.328125 33.6875 34.8125 36.53125 
Q 39.546875 41.84375 41.421875 45.53125 
Q 43.3125 49.21875 43.3125 52.78125 
Q 43.3125 58.59375 39.234375 62.25 
Q 35.15625 65.921875 28.609375 65.921875 
Q 23.96875 65.921875 18.8125 64.3125 
Q 13.671875 62.703125 7.8125 59.421875 
L 7.8125 69.390625 
Q 13.765625 71.78125 18.9375 73 
Q 24.125 74.21875 28.421875 74.21875 
Q 39.75 74.21875 46.484375 68.546875 
Q 53.21875 62.890625 53.21875 53.421875 
Q 53.21875 48.921875 51.53125 44.890625 
Q 49.859375 40.875 45.40625 35.40625 
Q 44.1875 33.984375 37.640625 27.21875 
Q 31.109375 20.453125 19.1875 8.296875 
z
" id="DejaVuSans-50"/>
        <path d="M 31.78125 66.40625 
Q 24.171875 66.40625 20.328125 58.90625 
Q 16.5 51.421875 16.5 36.375 
Q 16.5 21.390625 20.328125 13.890625 
Q 24.171875 6.390625 31.78125 6.390625 
Q 39.453125 6.390625 43.28125 13.890625 
Q 47.125 21.390625 47.125 36.375 
Q 47.125 51.421875 43.28125 58.90625 
Q 39.453125 66.40625 31.78125 66.40625 
z
M 31.78125 74.21875 
Q 44.046875 74.21875 50.515625 64.515625 
Q 56.984375 54.828125 56.984375 36.375 
Q 56.984375 17.96875 50.515625 8.265625 
Q 44.046875 -1.421875 31.78125 -1.421875 
Q 19.53125 -1.421875 13.0625 8.265625 
Q 6.59375 17.96875 6.59375 36.375 
Q 6.59375 54.828125 13.0625 64.515625 
Q 19.53125 74.21875 31.78125 74.21875 
z
" id="DejaVuSans-48"/>
        <path d="M 4.890625 31.390625 
L 31.203125 31.390625 
L 31.203125 23.390625 
L 4.890625 23.390625 
z
" id="DejaVuSans-45"/>
        <path d="M 12.40625 8.296875 
L 28.515625 8.296875 
L 28.515625 63.921875 
L 10.984375 60.40625 
L 10.984375 69.390625 
L 28.421875 72.90625 
L 38.28125 72.90625 
L 38.28125 8.296875 
L 54.390625 8.296875 
L 54.390625 0 
L 12.40625 0 
z
" id="DejaVuSans-49"/>
       </defs>
       <use xlink:href="#DejaVuSans-50"/>
       <use x="63.623047" xlink:href="#DejaVuSans-48"/>
       <use x="127.246094" xlink:href="#DejaVuSans-50"/>
       <use x="190.869141" xlink:href="#DejaVuSans-48"/>
       <use x="254.492188" xlink:href="#DejaVuSans-45"/>
       <use x="290.576172" xlink:href="#DejaVuSans-48"/>
       <use x="354.199219" xlink:href="#DejaVuSans-49"/>
      </g>
     </g>
    </g>
    <g id="xtick_2">
     <g id="line2d_2">
      <g>
       <use style="stroke:#000000;stroke-width:0.8;" x="214.318804" xlink:href="#m113beedd4c" y="460.8"/>
      </g>
     </g>
     <g id="text_2">
      <!-- 2020-04 -->
      <g transform="translate(169.64902 500.766215)rotate(-30)scale(0.12 -0.12)">
       <defs>
        <path d="M 37.796875 64.3125 
L 12.890625 25.390625 
L 37.796875 25.390625 
z
M 35.203125 72.90625 
L 47.609375 72.90625 
L 47.609375 25.390625 
L 58.015625 25.390625 
L 58.015625 17.1875 
L 47.609375 17.1875 
L 47.609375 0 
L 37.796875 0 
L 37.796875 17.1875 
L 4.890625 17.1875 
L 4.890625 26.703125 
z
" id="DejaVuSans-52"/>
       </defs>
       <use xlink:href="#DejaVuSans-50"/>
       <use x="63.623047" xlink:href="#DejaVuSans-48"/>
       <use x="127.246094" xlink:href="#DejaVuSans-50"/>
       <use x="190.869141" xlink:href="#DejaVuSans-48"/>
       <use x="254.492188" xlink:href="#DejaVuSans-45"/>
       <use x="290.576172" xlink:href="#DejaVuSans-48"/>
       <use x="354.199219" xlink:href="#DejaVuSans-52"/>
      </g>
     </g>
    </g>
    <g id="xtick_3">
     <g id="line2d_3">
      <g>
       <use style="stroke:#000000;stroke-width:0.8;" x="290.201245" xlink:href="#m113beedd4c" y="460.8"/>
      </g>
     </g>
     <g id="text_3">
      <!-- 2020-07 -->
      <g transform="translate(245.53146 500.766215)rotate(-30)scale(0.12 -0.12)">
       <defs>
        <path d="M 8.203125 72.90625 
L 55.078125 72.90625 
L 55.078125 68.703125 
L 28.609375 0 
L 18.3125 0 
L 43.21875 64.59375 
L 8.203125 64.59375 
z
" id="DejaVuSans-55"/>
       </defs>
       <use xlink:href="#DejaVuSans-50"/>
       <use x="63.623047" xlink:href="#DejaVuSans-48"/>
       <use x="127.246094" xlink:href="#DejaVuSans-50"/>
       <use x="190.869141" xlink:href="#DejaVuSans-48"/>
       <use x="254.492188" xlink:href="#DejaVuSans-45"/>
       <use x="290.576172" xlink:href="#DejaVuSans-48"/>
       <use x="354.199219" xlink:href="#DejaVuSans-55"/>
      </g>
     </g>
    </g>
    <g id="xtick_4">
     <g id="line2d_4">
      <g>
       <use style="stroke:#000000;stroke-width:0.8;" x="366.917559" xlink:href="#m113beedd4c" y="460.8"/>
      </g>
     </g>
     <g id="text_4">
      <!-- 2020-10 -->
      <g transform="translate(322.247774 500.766215)rotate(-30)scale(0.12 -0.12)">
       <use xlink:href="#DejaVuSans-50"/>
       <use x="63.623047" xlink:href="#DejaVuSans-48"/>
       <use x="127.246094" xlink:href="#DejaVuSans-50"/>
       <use x="190.869141" xlink:href="#DejaVuSans-48"/>
       <use x="254.492188" xlink:href="#DejaVuSans-45"/>
       <use x="290.576172" xlink:href="#DejaVuSans-49"/>
       <use x="354.199219" xlink:href="#DejaVuSans-48"/>
      </g>
     </g>
    </g>
    <g id="xtick_5">
     <g id="line2d_5">
      <g>
       <use style="stroke:#000000;stroke-width:0.8;" x="443.633873" xlink:href="#m113beedd4c" y="460.8"/>
      </g>
     </g>
     <g id="text_5">
      <!-- 2021-01 -->
      <g transform="translate(398.964088 500.766215)rotate(-30)scale(0.12 -0.12)">
       <use xlink:href="#DejaVuSans-50"/>
       <use x="63.623047" xlink:href="#DejaVuSans-48"/>
       <use x="127.246094" xlink:href="#DejaVuSans-50"/>
       <use x="190.869141" xlink:href="#DejaVuSans-49"/>
       <use x="254.492188" xlink:href="#DejaVuSans-45"/>
       <use x="290.576172" xlink:href="#DejaVuSans-48"/>
       <use x="354.199219" xlink:href="#DejaVuSans-49"/>
      </g>
     </g>
    </g>
    <g id="xtick_6">
     <g id="line2d_6">
      <g>
       <use style="stroke:#000000;stroke-width:0.8;" x="518.682441" xlink:href="#m113beedd4c" y="460.8"/>
      </g>
     </g>
     <g id="text_6">
      <!-- 2021-04 -->
      <g transform="translate(474.012656 500.766215)rotate(-30)scale(0.12 -0.12)">
       <use xlink:href="#DejaVuSans-50"/>
       <use x="63.623047" xlink:href="#DejaVuSans-48"/>
       <use x="127.246094" xlink:href="#DejaVuSans-50"/>
       <use x="190.869141" xlink:href="#DejaVuSans-49"/>
       <use x="254.492188" xlink:href="#DejaVuSans-45"/>
       <use x="290.576172" xlink:href="#DejaVuSans-48"/>
       <use x="354.199219" xlink:href="#DejaVuSans-52"/>
      </g>
     </g>
    </g>
    <g id="xtick_7">
     <g id="line2d_7">
      <g>
       <use style="stroke:#000000;stroke-width:0.8;" x="594.564882" xlink:href="#m113beedd4c" y="460.8"/>
      </g>
     </g>
     <g id="text_7">
      <!-- 2021-07 -->
      <g transform="translate(549.895097 500.766215)rotate(-30)scale(0.12 -0.12)">
       <use xlink:href="#DejaVuSans-50"/>
       <use x="63.623047" xlink:href="#DejaVuSans-48"/>
       <use x="127.246094" xlink:href="#DejaVuSans-50"/>
       <use x="190.869141" xlink:href="#DejaVuSans-49"/>
       <use x="254.492188" xlink:href="#DejaVuSans-45"/>
       <use x="290.576172" xlink:href="#DejaVuSans-48"/>
       <use x="354.199219" xlink:href="#DejaVuSans-55"/>
      </g>
     </g>
    </g>
    <g id="xtick_8">
     <g id="line2d_8">
      <g>
       <use style="stroke:#000000;stroke-width:0.8;" x="671.281196" xlink:href="#m113beedd4c" y="460.8"/>
      </g>
     </g>
     <g id="text_8">
      <!-- 2021-10 -->
      <g transform="translate(626.611411 500.766215)rotate(-30)scale(0.12 -0.12)">
       <use xlink:href="#DejaVuSans-50"/>
       <use x="63.623047" xlink:href="#DejaVuSans-48"/>
       <use x="127.246094" xlink:href="#DejaVuSans-50"/>
       <use x="190.869141" xlink:href="#DejaVuSans-49"/>
       <use x="254.492188" xlink:href="#DejaVuSans-45"/>
       <use x="290.576172" xlink:href="#DejaVuSans-49"/>
       <use x="354.199219" xlink:href="#DejaVuSans-48"/>
      </g>
     </g>
    </g>
    <g id="xtick_9">
     <g id="line2d_9">
      <g>
       <use style="stroke:#000000;stroke-width:0.8;" x="747.997509" xlink:href="#m113beedd4c" y="460.8"/>
      </g>
     </g>
     <g id="text_9">
      <!-- 2022-01 -->
      <g transform="translate(703.327724 500.766215)rotate(-30)scale(0.12 -0.12)">
       <use xlink:href="#DejaVuSans-50"/>
       <use x="63.623047" xlink:href="#DejaVuSans-48"/>
       <use x="127.246094" xlink:href="#DejaVuSans-50"/>
       <use x="190.869141" xlink:href="#DejaVuSans-50"/>
       <use x="254.492188" xlink:href="#DejaVuSans-45"/>
       <use x="290.576172" xlink:href="#DejaVuSans-48"/>
       <use x="354.199219" xlink:href="#DejaVuSans-49"/>
      </g>
     </g>
    </g>
    <g id="text_10">
     <!-- Date -->
     <g transform="translate(424.873828 518.325146)scale(0.15 -0.15)">
      <defs>
       <path d="M 19.671875 64.796875 
L 19.671875 8.109375 
L 31.59375 8.109375 
Q 46.6875 8.109375 53.6875 14.9375 
Q 60.6875 21.78125 60.6875 36.53125 
Q 60.6875 51.171875 53.6875 57.984375 
Q 46.6875 64.796875 31.59375 64.796875 
z
M 9.8125 72.90625 
L 30.078125 72.90625 
Q 51.265625 72.90625 61.171875 64.09375 
Q 71.09375 55.28125 71.09375 36.53125 
Q 71.09375 17.671875 61.125 8.828125 
Q 51.171875 0 30.078125 0 
L 9.8125 0 
z
" id="DejaVuSans-68"/>
       <path d="M 34.28125 27.484375 
Q 23.390625 27.484375 19.1875 25 
Q 14.984375 22.515625 14.984375 16.5 
Q 14.984375 11.71875 18.140625 8.90625 
Q 21.296875 6.109375 26.703125 6.109375 
Q 34.1875 6.109375 38.703125 11.40625 
Q 43.21875 16.703125 43.21875 25.484375 
L 43.21875 27.484375 
z
M 52.203125 31.203125 
L 52.203125 0 
L 43.21875 0 
L 43.21875 8.296875 
Q 40.140625 3.328125 35.546875 0.953125 
Q 30.953125 -1.421875 24.3125 -1.421875 
Q 15.921875 -1.421875 10.953125 3.296875 
Q 6 8.015625 6 15.921875 
Q 6 25.140625 12.171875 29.828125 
Q 18.359375 34.515625 30.609375 34.515625 
L 43.21875 34.515625 
L 43.21875 35.40625 
Q 43.21875 41.609375 39.140625 45 
Q 35.0625 48.390625 27.6875 48.390625 
Q 23 48.390625 18.546875 47.265625 
Q 14.109375 46.140625 10.015625 43.890625 
L 10.015625 52.203125 
Q 14.9375 54.109375 19.578125 55.046875 
Q 24.21875 56 28.609375 56 
Q 40.484375 56 46.34375 49.84375 
Q 52.203125 43.703125 52.203125 31.203125 
z
" id="DejaVuSans-97"/>
       <path d="M 18.3125 70.21875 
L 18.3125 54.6875 
L 36.8125 54.6875 
L 36.8125 47.703125 
L 18.3125 47.703125 
L 18.3125 18.015625 
Q 18.3125 11.328125 20.140625 9.421875 
Q 21.96875 7.515625 27.59375 7.515625 
L 36.8125 7.515625 
L 36.8125 0 
L 27.59375 0 
Q 17.1875 0 13.234375 3.875 
Q 9.28125 7.765625 9.28125 18.015625 
L 9.28125 47.703125 
L 2.6875 47.703125 
L 2.6875 54.6875 
L 9.28125 54.6875 
L 9.28125 70.21875 
z
" id="DejaVuSans-116"/>
       <path d="M 56.203125 29.59375 
L 56.203125 25.203125 
L 14.890625 25.203125 
Q 15.484375 15.921875 20.484375 11.0625 
Q 25.484375 6.203125 34.421875 6.203125 
Q 39.59375 6.203125 44.453125 7.46875 
Q 49.3125 8.734375 54.109375 11.28125 
L 54.109375 2.78125 
Q 49.265625 0.734375 44.1875 -0.34375 
Q 39.109375 -1.421875 33.890625 -1.421875 
Q 20.796875 -1.421875 13.15625 6.1875 
Q 5.515625 13.8125 5.515625 26.8125 
Q 5.515625 40.234375 12.765625 48.109375 
Q 20.015625 56 32.328125 56 
Q 43.359375 56 49.78125 48.890625 
Q 56.203125 41.796875 56.203125 29.59375 
z
M 47.21875 32.234375 
Q 47.125 39.59375 43.09375 43.984375 
Q 39.0625 48.390625 32.421875 48.390625 
Q 24.90625 48.390625 20.390625 44.140625 
Q 15.875 39.890625 15.1875 32.171875 
z
" id="DejaVuSans-101"/>
      </defs>
      <use xlink:href="#DejaVuSans-68"/>
      <use x="77.001953" xlink:href="#DejaVuSans-97"/>
      <use x="138.28125" xlink:href="#DejaVuSans-116"/>
      <use x="177.490234" xlink:href="#DejaVuSans-101"/>
     </g>
    </g>
   </g>
   <g id="matplotlib.axis_2">
    <g id="ytick_1">
     <g id="line2d_10">
      <defs>
       <path d="M 0 0 
L -3.5 0 
" id="m69a5e6c366" style="stroke:#000000;stroke-width:0.8;"/>
      </defs>
      <g>
       <use style="stroke:#000000;stroke-width:0.8;" x="108" xlink:href="#m69a5e6c366" y="391.565322"/>
      </g>
     </g>
     <g id="text_11">
      <!-- 0.5 -->
      <g transform="translate(81.91625 396.124385)scale(0.12 -0.12)">
       <defs>
        <path d="M 10.6875 12.40625 
L 21 12.40625 
L 21 0 
L 10.6875 0 
z
" id="DejaVuSans-46"/>
        <path d="M 10.796875 72.90625 
L 49.515625 72.90625 
L 49.515625 64.59375 
L 19.828125 64.59375 
L 19.828125 46.734375 
Q 21.96875 47.46875 24.109375 47.828125 
Q 26.265625 48.1875 28.421875 48.1875 
Q 40.625 48.1875 47.75 41.5 
Q 54.890625 34.8125 54.890625 23.390625 
Q 54.890625 11.625 47.5625 5.09375 
Q 40.234375 -1.421875 26.90625 -1.421875 
Q 22.3125 -1.421875 17.546875 -0.640625 
Q 12.796875 0.140625 7.71875 1.703125 
L 7.71875 11.625 
Q 12.109375 9.234375 16.796875 8.0625 
Q 21.484375 6.890625 26.703125 6.890625 
Q 35.15625 6.890625 40.078125 11.328125 
Q 45.015625 15.765625 45.015625 23.390625 
Q 45.015625 31 40.078125 35.4375 
Q 35.15625 39.890625 26.703125 39.890625 
Q 22.75 39.890625 18.8125 39.015625 
Q 14.890625 38.140625 10.796875 36.28125 
z
" id="DejaVuSans-53"/>
       </defs>
       <use xlink:href="#DejaVuSans-48"/>
       <use x="63.623047" xlink:href="#DejaVuSans-46"/>
       <use x="95.410156" xlink:href="#DejaVuSans-53"/>
      </g>
     </g>
    </g>
    <g id="ytick_2">
     <g id="line2d_11">
      <g>
       <use style="stroke:#000000;stroke-width:0.8;" x="108" xlink:href="#m69a5e6c366" y="318.742608"/>
      </g>
     </g>
     <g id="text_12">
      <!-- 1.0 -->
      <g transform="translate(81.91625 323.301671)scale(0.12 -0.12)">
       <use xlink:href="#DejaVuSans-49"/>
       <use x="63.623047" xlink:href="#DejaVuSans-46"/>
       <use x="95.410156" xlink:href="#DejaVuSans-48"/>
      </g>
     </g>
    </g>
    <g id="ytick_3">
     <g id="line2d_12">
      <g>
       <use style="stroke:#000000;stroke-width:0.8;" x="108" xlink:href="#m69a5e6c366" y="245.919895"/>
      </g>
     </g>
     <g id="text_13">
      <!-- 1.5 -->
      <g transform="translate(81.91625 250.478957)scale(0.12 -0.12)">
       <use xlink:href="#DejaVuSans-49"/>
       <use x="63.623047" xlink:href="#DejaVuSans-46"/>
       <use x="95.410156" xlink:href="#DejaVuSans-53"/>
      </g>
     </g>
    </g>
    <g id="ytick_4">
     <g id="line2d_13">
      <g>
       <use style="stroke:#000000;stroke-width:0.8;" x="108" xlink:href="#m69a5e6c366" y="173.097181"/>
      </g>
     </g>
     <g id="text_14">
      <!-- 2.0 -->
      <g transform="translate(81.91625 177.656243)scale(0.12 -0.12)">
       <use xlink:href="#DejaVuSans-50"/>
       <use x="63.623047" xlink:href="#DejaVuSans-46"/>
       <use x="95.410156" xlink:href="#DejaVuSans-48"/>
      </g>
     </g>
    </g>
    <g id="ytick_5">
     <g id="line2d_14">
      <g>
       <use style="stroke:#000000;stroke-width:0.8;" x="108" xlink:href="#m69a5e6c366" y="100.274467"/>
      </g>
     </g>
     <g id="text_15">
      <!-- 2.5 -->
      <g transform="translate(81.91625 104.83353)scale(0.12 -0.12)">
       <use xlink:href="#DejaVuSans-50"/>
       <use x="63.623047" xlink:href="#DejaVuSans-46"/>
       <use x="95.410156" xlink:href="#DejaVuSans-53"/>
      </g>
     </g>
    </g>
    <g id="text_16">
     <!-- CO(ppm) -->
     <g transform="translate(74.796719 298.781484)rotate(-90)scale(0.15 -0.15)">
      <defs>
       <path d="M 64.40625 67.28125 
L 64.40625 56.890625 
Q 59.421875 61.53125 53.78125 63.8125 
Q 48.140625 66.109375 41.796875 66.109375 
Q 29.296875 66.109375 22.65625 58.46875 
Q 16.015625 50.828125 16.015625 36.375 
Q 16.015625 21.96875 22.65625 14.328125 
Q 29.296875 6.6875 41.796875 6.6875 
Q 48.140625 6.6875 53.78125 8.984375 
Q 59.421875 11.28125 64.40625 15.921875 
L 64.40625 5.609375 
Q 59.234375 2.09375 53.4375 0.328125 
Q 47.65625 -1.421875 41.21875 -1.421875 
Q 24.65625 -1.421875 15.125 8.703125 
Q 5.609375 18.84375 5.609375 36.375 
Q 5.609375 53.953125 15.125 64.078125 
Q 24.65625 74.21875 41.21875 74.21875 
Q 47.75 74.21875 53.53125 72.484375 
Q 59.328125 70.75 64.40625 67.28125 
z
" id="DejaVuSans-67"/>
       <path d="M 39.40625 66.21875 
Q 28.65625 66.21875 22.328125 58.203125 
Q 16.015625 50.203125 16.015625 36.375 
Q 16.015625 22.609375 22.328125 14.59375 
Q 28.65625 6.59375 39.40625 6.59375 
Q 50.140625 6.59375 56.421875 14.59375 
Q 62.703125 22.609375 62.703125 36.375 
Q 62.703125 50.203125 56.421875 58.203125 
Q 50.140625 66.21875 39.40625 66.21875 
z
M 39.40625 74.21875 
Q 54.734375 74.21875 63.90625 63.9375 
Q 73.09375 53.65625 73.09375 36.375 
Q 73.09375 19.140625 63.90625 8.859375 
Q 54.734375 -1.421875 39.40625 -1.421875 
Q 24.03125 -1.421875 14.8125 8.828125 
Q 5.609375 19.09375 5.609375 36.375 
Q 5.609375 53.65625 14.8125 63.9375 
Q 24.03125 74.21875 39.40625 74.21875 
z
" id="DejaVuSans-79"/>
       <path d="M 31 75.875 
Q 24.46875 64.65625 21.28125 53.65625 
Q 18.109375 42.671875 18.109375 31.390625 
Q 18.109375 20.125 21.3125 9.0625 
Q 24.515625 -2 31 -13.1875 
L 23.1875 -13.1875 
Q 15.875 -1.703125 12.234375 9.375 
Q 8.59375 20.453125 8.59375 31.390625 
Q 8.59375 42.28125 12.203125 53.3125 
Q 15.828125 64.359375 23.1875 75.875 
z
" id="DejaVuSans-40"/>
       <path d="M 18.109375 8.203125 
L 18.109375 -20.796875 
L 9.078125 -20.796875 
L 9.078125 54.6875 
L 18.109375 54.6875 
L 18.109375 46.390625 
Q 20.953125 51.265625 25.265625 53.625 
Q 29.59375 56 35.59375 56 
Q 45.5625 56 51.78125 48.09375 
Q 58.015625 40.1875 58.015625 27.296875 
Q 58.015625 14.40625 51.78125 6.484375 
Q 45.5625 -1.421875 35.59375 -1.421875 
Q 29.59375 -1.421875 25.265625 0.953125 
Q 20.953125 3.328125 18.109375 8.203125 
z
M 48.6875 27.296875 
Q 48.6875 37.203125 44.609375 42.84375 
Q 40.53125 48.484375 33.40625 48.484375 
Q 26.265625 48.484375 22.1875 42.84375 
Q 18.109375 37.203125 18.109375 27.296875 
Q 18.109375 17.390625 22.1875 11.75 
Q 26.265625 6.109375 33.40625 6.109375 
Q 40.53125 6.109375 44.609375 11.75 
Q 48.6875 17.390625 48.6875 27.296875 
z
" id="DejaVuSans-112"/>
       <path d="M 52 44.1875 
Q 55.375 50.25 60.0625 53.125 
Q 64.75 56 71.09375 56 
Q 79.640625 56 84.28125 50.015625 
Q 88.921875 44.046875 88.921875 33.015625 
L 88.921875 0 
L 79.890625 0 
L 79.890625 32.71875 
Q 79.890625 40.578125 77.09375 44.375 
Q 74.3125 48.1875 68.609375 48.1875 
Q 61.625 48.1875 57.5625 43.546875 
Q 53.515625 38.921875 53.515625 30.90625 
L 53.515625 0 
L 44.484375 0 
L 44.484375 32.71875 
Q 44.484375 40.625 41.703125 44.40625 
Q 38.921875 48.1875 33.109375 48.1875 
Q 26.21875 48.1875 22.15625 43.53125 
Q 18.109375 38.875 18.109375 30.90625 
L 18.109375 0 
L 9.078125 0 
L 9.078125 54.6875 
L 18.109375 54.6875 
L 18.109375 46.1875 
Q 21.1875 51.21875 25.484375 53.609375 
Q 29.78125 56 35.6875 56 
Q 41.65625 56 45.828125 52.96875 
Q 50 49.953125 52 44.1875 
z
" id="DejaVuSans-109"/>
       <path d="M 8.015625 75.875 
L 15.828125 75.875 
Q 23.140625 64.359375 26.78125 53.3125 
Q 30.421875 42.28125 30.421875 31.390625 
Q 30.421875 20.453125 26.78125 9.375 
Q 23.140625 -1.703125 15.828125 -13.1875 
L 8.015625 -13.1875 
Q 14.5 -2 17.703125 9.0625 
Q 20.90625 20.125 20.90625 31.390625 
Q 20.90625 42.671875 17.703125 53.65625 
Q 14.5 64.65625 8.015625 75.875 
z
" id="DejaVuSans-41"/>
      </defs>
      <use xlink:href="#DejaVuSans-67"/>
      <use x="69.824219" xlink:href="#DejaVuSans-79"/>
      <use x="148.535156" xlink:href="#DejaVuSans-40"/>
      <use x="187.548828" xlink:href="#DejaVuSans-112"/>
      <use x="251.025391" xlink:href="#DejaVuSans-112"/>
      <use x="314.501953" xlink:href="#DejaVuSans-109"/>
      <use x="411.914062" xlink:href="#DejaVuSans-41"/>
     </g>
    </g>
   </g>
   <g id="line2d_15">
    <path clip-path="url(#pd87f07bb32)" d="M 138.436364 361.374239 
L 139.270237 370.552935 
L 140.10411 350.830117 
L 140.937983 359.705385 
L 141.771856 379.731631 
L 142.605729 365.206666 
L 143.439601 337.631 
L 144.273474 344.837414 
L 145.107347 313.584333 
L 145.94122 309.032913 
L 146.775093 315.480758 
L 147.608966 285.593102 
L 148.442839 275.124837 
L 149.276712 306.226204 
L 150.110585 315.480758 
L 150.944458 293.558087 
L 151.778331 257.601872 
L 152.612204 290.144522 
L 153.446077 291.889233 
L 154.27995 298.185363 
L 155.113823 296.440652 
L 155.947696 308.577771 
L 156.781569 344.761557 
L 157.615442 358.56753 
L 158.449315 351.209402 
L 159.283188 324.50774 
L 160.117061 359.705385 
L 160.950934 334.672577 
L 161.784807 276.552927 
L 162.61868 86.923636 
L 163.452553 256.160589 
L 164.286426 339.462404 
L 165.120299 372.070075 
L 165.954172 373.435501 
L 166.788045 371.235648 
L 167.621918 367.13937 
L 168.455791 376.924922 
L 169.289664 363.194807 
L 170.123537 365.773944 
L 170.95741 364.332661 
L 171.791283 354.01611 
L 172.625156 338.465427 
L 173.459029 327.314449 
L 174.292902 339.754996 
L 175.126775 336.569002 
L 175.960648 332.852009 
L 176.794521 359.3261 
L 177.628394 402.564586 
L 178.462267 403.626584 
L 179.296139 368.732367 
L 180.963885 354.547109 
L 181.797758 333.534722 
L 182.631631 348.250979 
L 183.465504 359.857099 
L 184.299377 366.911799 
L 185.13325 366.573891 
L 185.967123 373.814786 
L 186.800996 358.870958 
L 187.634869 357.505532 
L 188.468742 359.932956 
L 189.302615 339.90671 
L 190.136488 340.665279 
L 190.970361 340.513565 
L 191.804234 325.418024 
L 192.638107 346.657982 
L 193.47198 333.914007 
L 194.305853 337.555143 
L 195.139726 323.294028 
L 195.973599 313.280905 
L 196.807472 315.784186 
L 197.641345 321.852745 
L 199.309091 345.671841 
L 200.142964 350.75426 
L 200.976837 366.608371 
L 201.81071 364.484375 
L 202.644583 344.989128 
L 204.312329 321.170032 
L 205.146202 329.059159 
L 205.980075 349.99569 
L 206.813948 337.782714 
L 207.647821 362.967236 
L 208.481694 373.738929 
L 209.315567 356.595248 
L 210.14944 363.953376 
L 210.983313 354.167824 
L 211.817186 359.932956 
L 213.484932 308.198486 
L 214.318804 325.038739 
L 215.152677 333.465461 
L 215.98655 344.230558 
L 216.820423 340.89285 
L 217.654296 352.347256 
L 218.488169 360.84324 
L 219.322042 335.431147 
L 220.155915 336.644859 
L 220.989788 373.132073 
L 221.823661 372.752788 
L 222.657534 345.671841 
L 223.491407 364.180947 
L 224.32528 395.434029 
L 225.159153 367.215227 
L 225.993026 343.851273 
L 228.494645 374.118214 
L 229.328518 373.132073 
L 230.162391 364.408518 
L 230.996264 373.283787 
L 231.830137 367.746226 
L 232.66401 333.307151 
L 233.497883 348.616472 
L 234.331756 351.588687 
L 235.165629 317.073755 
L 235.999502 322.838886 
L 236.833375 366.760085 
L 237.667248 378.290348 
L 238.501121 371.69079 
L 239.334994 370.704649 
L 240.168867 358.870958 
L 241.00274 369.187509 
L 241.836613 370.780506 
L 242.670486 368.049654 
L 243.504359 360.919097 
L 244.338232 357.733103 
L 245.172105 355.457393 
L 246.005978 351.664544 
L 246.839851 356.443534 
L 247.673724 357.733103 
L 248.507597 337.858571 
L 249.341469 329.514301 
L 250.175342 348.857835 
L 251.843088 394.372031 
L 252.676961 392.020464 
L 253.510834 371.994218 
L 254.344707 361.753524 
L 255.17858 370.628792 
L 256.012453 352.423113 
L 256.846326 356.443534 
L 257.680199 356.140106 
L 258.514072 362.36038 
L 259.347945 354.547109 
L 260.181818 360.702362 
L 261.015691 332.927866 
L 261.849564 336.644859 
L 262.683437 365.394659 
L 263.51731 372.525217 
L 264.351183 386.33119 
L 265.185056 377.911063 
L 266.018929 377.531778 
L 266.852802 373.587215 
L 267.686675 373.359644 
L 268.520548 370.704649 
L 269.354421 363.270664 
L 270.188294 362.891379 
L 271.022167 358.339959 
L 271.85604 356.064249 
L 272.689913 362.815522 
L 273.523786 347.340695 
L 274.357659 364.690273 
L 275.191532 391.413608 
L 276.025405 382.234912 
L 276.859278 363.422378 
L 277.693151 371.539076 
L 278.527024 361.753524 
L 279.360897 365.015374 
L 280.19477 362.891379 
L 281.028643 364.408518 
L 281.862516 366.987656 
L 282.696389 353.029969 
L 283.530262 352.271399 
L 284.364134 365.773944 
L 285.198007 385.876048 
L 286.03188 378.669633 
L 286.865753 380.26263 
L 287.699626 384.965764 
L 288.533499 380.186773 
L 289.367372 379.655774 
L 290.201245 381.0212 
L 291.035118 367.291084 
L 291.868991 374.345785 
L 292.702864 405.598866 
L 293.536737 412.122567 
L 294.37061 406.433293 
L 295.204483 403.095585 
L 296.038356 402.7163 
L 296.872229 396.116742 
L 297.706102 399.151021 
L 298.539975 398.316594 
L 299.373848 408.936574 
L 300.207721 397.482168 
L 301.041594 397.93731 
L 301.875467 392.475606 
L 302.70934 393.310033 
L 303.543213 392.930748 
L 304.377086 395.813314 
L 305.210959 396.496027 
L 306.044832 388.874048 
L 306.878705 396.571884 
L 307.712578 398.620022 
L 308.546451 389.744754 
L 309.380324 377.911063 
L 310.214197 384.889907 
L 311.04807 388.0759 
L 311.881943 383.524481 
L 312.715816 381.172914 
L 314.383562 389.289612 
L 315.217435 391.792893 
L 316.051308 390.15852 
L 316.885181 383.903766 
L 317.719054 370.249507 
L 318.552927 368.732367 
L 319.3868 366.456657 
L 320.220672 372.752788 
L 321.054545 375.635353 
L 321.888418 379.959202 
L 322.722291 376.46978 
L 323.556164 356.671105 
L 324.390037 355.684964 
L 325.22391 363.11895 
L 326.057783 355.078108 
L 326.891656 349.030237 
L 327.725529 359.022672 
L 328.559402 371.083934 
L 329.393275 361.525953 
L 330.227148 354.698823 
L 331.061021 360.691526 
L 331.894894 374.497499 
L 332.728767 364.636089 
L 333.56264 370.17365 
L 334.396513 379.883345 
L 335.230386 367.89794 
L 336.064259 358.89092 
L 336.898132 355.912535 
L 337.732005 339.223997 
L 338.565878 331.638297 
L 339.399751 332.245153 
L 340.233624 335.962146 
L 341.067497 346.582125 
L 343.569116 293.709801 
L 344.402989 333.307151 
L 345.236862 347.188981 
L 346.070735 350.374975 
L 346.904608 357.657246 
L 347.738481 354.698823 
L 348.572354 346.506268 
L 349.406227 348.326836 
L 350.2401 362.663808 
L 351.073973 373.511358 
L 351.907846 361.525953 
L 352.741719 363.649948 
L 353.575592 367.13937 
L 354.409465 375.331925 
L 355.243337 369.111652 
L 356.07721 359.857099 
L 356.911083 355.078108 
L 357.744956 359.477814 
L 358.578829 352.650684 
L 359.412702 341.727277 
L 360.246575 341.954848 
L 361.914321 308.729485 
L 362.748194 337.706857 
L 363.582067 351.588687 
L 364.41594 338.996426 
L 365.249813 360.539812 
L 366.083686 365.773944 
L 366.917559 374.042357 
L 367.751432 374.573356 
L 368.585305 365.318802 
L 369.419178 357.960674 
L 370.253051 355.609107 
L 371.086924 334.293292 
L 371.920797 351.361116 
L 372.75467 355.153965 
L 373.588543 349.540548 
L 375.256289 356.974533 
L 376.090162 358.946815 
L 376.924035 382.765911 
L 377.757908 367.973797 
L 378.591781 371.008077 
L 379.425654 356.671105 
L 380.259527 351.816258 
L 381.0934 349.616405 
L 381.927273 357.960674 
L 382.761146 356.974533 
L 383.595019 358.719244 
L 384.428892 381.335465 
L 385.262765 418.557219 
L 386.096638 390.35161 
L 386.930511 392.096321 
L 387.764384 419.328982 
L 388.598257 433.665953 
L 389.43213 442.996364 
L 391.099875 395.358172 
L 391.933748 421.604691 
L 392.767621 419.404839 
L 393.601494 401.881873 
L 394.435367 400.592304 
L 395.26924 382.993482 
L 396.103113 390.124039 
L 396.936986 347.416552 
L 397.770859 349.085406 
L 398.604732 345.899412 
L 399.438605 364.560232 
L 400.272478 354.850537 
L 401.106351 367.973797 
L 401.940224 364.899358 
L 402.774097 363.11895 
L 403.60797 360.463955 
L 404.441843 348.47855 
L 405.275716 338.293924 
L 406.109589 356.657913 
L 406.943462 355.760821 
L 407.777335 333.307151 
L 408.611208 339.451568 
L 409.445081 306.07449 
L 410.278954 304.557351 
L 411.112827 322.557131 
L 411.9467 326.555879 
L 412.780573 341.044564 
L 413.614446 337.479286 
L 414.448319 316.770327 
L 415.282192 326.707593 
L 416.116065 315.556615 
L 416.949938 310.701767 
L 418.617684 333.914007 
L 419.451557 343.092703 
L 420.28543 341.120421 
L 421.119303 316.163471 
L 421.953176 287.868812 
L 422.787049 275.959264 
L 423.620922 316.315185 
L 425.288667 273.607697 
L 426.956413 252.964701 
L 427.790286 281.181419 
L 428.624159 242.202902 
L 429.458032 278.917687 
L 430.291905 300.764501 
L 431.125778 302.191992 
L 432.793524 362.512094 
L 433.627397 362.132809 
L 434.46127 353.864396 
L 435.295143 337.403429 
L 436.129016 312.522335 
L 436.962889 338.920569 
L 437.796762 326.328308 
L 438.630635 348.47855 
L 439.464508 305.846919 
L 440.298381 333.762293 
L 441.132254 334.293292 
L 441.966127 312.674049 
L 442.8 392.475606 
L 443.633873 385.951905 
L 445.301619 341.803134 
L 446.135492 327.921305 
L 446.969365 299.474932 
L 447.803238 313.66019 
L 448.637111 297.426793 
L 449.470984 352.726541 
L 450.304857 380.186773 
L 451.13873 361.450096 
L 451.972603 363.877519 
L 452.806476 338.313713 
L 453.640349 299.930074 
L 454.474222 284.986246 
L 455.308095 266.097855 
L 456.141968 277.021262 
L 456.975841 284.303533 
L 457.809714 295.606225 
L 458.643587 284.427663 
L 459.47746 282.179538 
L 460.311333 296.819937 
L 461.145205 328.073019 
L 461.979078 305.08835 
L 462.812951 318.970179 
L 463.646824 300.688644 
L 464.480697 298.033649 
L 465.31457 288.551525 
L 466.148443 309.715626 
L 466.982316 335.734575 
L 468.650062 361.753524 
L 469.483935 344.989128 
L 470.317808 331.107298 
L 471.151681 331.714154 
L 471.985554 353.864396 
L 472.819427 368.884081 
L 473.6533 350.602546 
L 474.487173 351.285259 
L 475.321046 345.595984 
L 476.154919 351.51283 
L 476.988792 359.250243 
L 477.822665 344.306415 
L 478.656538 359.022672 
L 479.490411 350.905974 
L 480.324284 352.49897 
L 481.158157 328.30059 
L 481.99203 341.347992 
L 482.825903 324.50774 
L 483.659776 336.11386 
L 484.493649 332.245153 
L 485.327522 321.625174 
L 486.161395 316.997898 
L 486.995268 337.100001 
L 488.663014 362.056952 
L 489.496887 355.002251 
L 491.164633 325.797309 
L 491.998506 331.638297 
L 492.832379 312.14305 
L 493.666252 296.061367 
L 494.500125 349.312977 
L 495.333998 346.582125 
L 496.16787 331.56244 
L 497.001743 340.134281 
L 497.835616 318.742608 
L 498.669489 351.285259 
L 499.503362 355.836678 
L 500.337235 352.802398 
L 501.171108 348.933692 
L 502.004981 334.824291 
L 502.838854 327.238592 
L 503.672727 327.693734 
L 504.5066 337.251715 
L 505.340473 354.926394 
L 506.174346 366.456657 
L 507.008219 365.62223 
L 507.842092 369.263366 
L 508.675965 368.125511 
L 509.509838 329.438444 
L 511.177584 344.533986 
L 512.011457 310.246625 
L 512.84533 322.383744 
L 513.679203 381.476342 
L 514.513076 356.519391 
L 515.346949 354.77468 
L 516.180822 361.450096 
L 517.014695 364.029233 
L 517.848568 358.643387 
L 518.682441 376.46978 
L 519.516314 380.035059 
L 520.350187 382.53834 
L 521.18406 330.500442 
L 522.017933 314.41876 
L 522.851806 332.093439 
L 523.685679 359.401957 
L 524.519552 362.663808 
L 525.353425 336.569002 
L 526.187298 363.801662 
L 527.021171 372.44936 
L 527.855044 360.919097 
L 528.688917 358.795101 
L 529.52279 354.622966 
L 530.356663 353.864396 
L 531.190535 349.692262 
L 532.024408 325.493881 
L 532.858281 342.865132 
L 533.692154 355.002251 
L 534.526027 356.367677 
L 535.3599 354.01611 
L 536.193773 345.975269 
L 537.027646 323.142314 
L 537.861519 349.009549 
L 538.695392 343.775416 
L 539.529265 348.630264 
L 540.363138 344.458129 
L 541.197011 323.142314 
L 542.030884 292.040947 
L 542.864757 284.606961 
L 543.69863 293.937371 
L 544.532503 290.296236 
L 545.366376 334.445006 
L 546.200249 327.769591 
L 547.034122 315.404901 
L 547.867995 325.418024 
L 548.701868 354.395395 
L 549.535741 359.932956 
L 550.369614 385.041621 
L 551.203487 387.31733 
L 552.03736 384.81405 
L 552.871233 381.0212 
L 553.705106 381.476342 
L 554.538979 373.9665 
L 555.372852 383.29691 
L 556.206725 388.151757 
L 557.040598 378.897204 
L 557.874471 377.304207 
L 558.708344 379.276489 
L 559.542217 375.938781 
L 560.37609 377.683492 
L 561.209963 378.062777 
L 562.043836 386.103619 
L 562.877709 374.72507 
L 563.711582 380.186773 
L 564.545455 371.842504 
L 565.379328 371.842504 
L 566.2132 366.001515 
L 567.047073 370.704649 
L 567.880946 368.428939 
L 568.714819 373.27295 
L 569.548692 388.151757 
L 570.382565 374.042357 
L 571.216438 378.821347 
L 572.050311 374.800927 
L 572.884184 344.306415 
L 573.718057 347.947551 
L 574.55193 369.111652 
L 576.219676 378.897204 
L 577.053549 388.682756 
L 577.887422 391.034323 
L 578.721295 387.089759 
L 579.555168 377.683492 
L 580.389041 371.842504 
L 581.222914 368.201368 
L 582.056787 369.187509 
L 582.89066 368.201368 
L 583.724533 365.925658 
L 584.558406 363.11895 
L 585.392279 365.394659 
L 586.226152 353.712682 
L 587.060025 359.857099 
L 587.893898 338.768855 
L 588.727771 344.761557 
L 589.561644 347.871694 
L 590.395517 361.222525 
L 591.22939 378.74549 
L 592.063263 361.374239 
L 592.897136 367.442798 
L 593.731009 367.973797 
L 594.564882 369.642651 
L 595.398755 362.36038 
L 596.232628 366.491138 
L 597.066501 373.359644 
L 597.900374 384.358908 
L 598.734247 382.53834 
L 599.56812 372.070075 
L 600.401993 370.401221 
L 601.235866 376.242209 
L 602.069738 377.835206 
L 602.903611 378.593776 
L 603.737484 365.925658 
L 604.571357 361.981095 
L 605.40523 359.857099 
L 606.239103 367.746226 
L 607.072976 358.946815 
L 607.906849 358.188245 
L 608.740722 372.980359 
L 609.574595 374.194071 
L 611.242341 351.51283 
L 612.076214 343.471988 
L 612.910087 325.569738 
L 613.74396 311.38448 
L 614.577833 333.307151 
L 615.411706 337.934428 
L 616.245579 315.025616 
L 617.079452 315.860043 
L 617.913325 319.804606 
L 618.747198 324.659454 
L 619.581071 334.065721 
L 620.414944 331.107298 
L 621.248817 307.136488 
L 622.08269 344.989128 
L 622.916563 318.287466 
L 623.750436 306.07449 
L 624.584309 319.880463 
L 625.418182 352.726541 
L 626.252055 365.242945 
L 627.085928 383.903766 
L 627.919801 377.759349 
L 629.587547 381.400485 
L 631.255293 371.311505 
L 632.089166 380.26263 
L 633.756912 362.587951 
L 635.424658 376.393923 
L 636.258531 373.056216 
L 637.092403 384.358908 
L 638.760149 379.807488 
L 639.594022 374.269928 
L 640.427895 377.152493 
L 641.261768 385.193335 
L 642.929514 374.042357 
L 643.763387 376.924922 
L 644.59726 373.663072 
L 645.431133 376.242209 
L 646.265006 374.952641 
L 647.098879 378.669633 
L 647.932752 375.331925 
L 648.766625 374.345785 
L 649.600498 378.290348 
L 650.434371 370.097793 
L 651.268244 369.870222 
L 652.102117 370.628792 
L 652.93599 361.905238 
L 653.769863 361.753524 
L 654.603736 344.230558 
L 655.437609 338.768855 
L 656.271482 350.299118 
L 657.105355 371.918361 
L 657.939228 354.77468 
L 658.773101 366.835942 
L 659.606974 349.085406 
L 660.440847 353.409254 
L 661.27472 375.180211 
L 662.108593 365.015374 
L 662.942466 369.263366 
L 663.776339 376.697351 
L 664.610212 371.766647 
L 665.444085 365.015374 
L 666.277958 362.815522 
L 667.945704 341.878991 
L 668.779577 344.6857 
L 669.61345 337.782714 
L 670.447323 320.108034 
L 671.281196 321.625174 
L 672.115068 350.374975 
L 672.948941 355.760821 
L 673.782814 351.361116 
L 674.616687 355.229822 
L 675.45056 354.319538 
L 676.284433 361.829381 
L 677.118306 366.456657 
L 677.952179 368.65651 
L 678.786052 346.20284 
L 679.619925 311.720418 
L 680.453798 330.272871 
L 681.287671 354.091967 
L 682.121544 345.671841 
L 682.955417 301.371357 
L 683.78929 300.157645 
L 684.623163 322.383744 
L 685.457036 328.831588 
L 686.290909 311.915479 
L 687.124782 324.735311 
L 687.958655 329.362587 
L 688.792528 340.968707 
L 689.626401 337.782714 
L 690.460274 322.004459 
L 691.294147 329.741872 
L 692.12802 323.445742 
L 692.961893 323.597456 
L 693.795766 356.312508 
L 694.629639 326.753107 
L 695.463512 362.284523 
L 696.297385 383.221053 
L 697.131258 377.98692 
L 697.965131 379.731631 
L 698.799004 368.201368 
L 699.632877 373.814786 
L 700.46675 375.440293 
L 701.300623 376.014638 
L 702.134496 386.710474 
L 702.968369 381.248771 
L 703.802242 402.109444 
L 704.636115 341.499706 
L 705.469988 323.142314 
L 706.303861 330.652156 
L 707.137733 334.141578 
L 707.971606 327.086878 
L 708.805479 328.831588 
L 709.639352 325.721452 
L 710.473225 325.721452 
L 711.307098 347.954447 
L 712.140971 334.051929 
L 712.974844 366.573891 
L 713.808717 361.525953 
L 714.64259 336.948287 
L 715.476463 357.471052 
L 716.310336 344.230558 
L 717.144209 316.09451 
L 717.978082 330.907312 
L 718.811955 334.134682 
L 719.645828 318.080584 
L 720.479701 315.266979 
L 721.313574 297.806078 
L 722.147447 356.89178 
L 722.98132 350.354286 
L 723.815193 352.836879 
L 724.649066 333.80367 
L 725.482939 317.418559 
L 726.316812 314.108436 
L 727.150685 320.728682 
L 727.984558 334.548447 
L 728.818431 326.273139 
L 729.652304 332.231361 
L 730.486177 335.541484 
L 731.32005 320.645929 
L 732.153923 277.035054 
L 732.987796 274.469709 
L 733.821669 319.073621 
L 734.655542 335.127719 
L 735.489415 330.079781 
L 736.323288 327.514435 
L 737.157161 349.030237 
L 737.991034 340.407366 
L 738.824907 327.928201 
L 739.65878 329.914275 
L 740.492653 304.757337 
L 741.326526 288.289474 
L 742.160399 323.707793 
L 742.994271 309.308757 
L 743.828144 324.783583 
L 745.49589 283.241535 
L 746.329763 305.750374 
L 747.163636 294.744214 
L 747.163636 294.744214 
" style="fill:none;stroke:#1f77b4;stroke-linecap:square;stroke-width:1.5;"/>
   </g>
   <g id="line2d_16">
    <path clip-path="url(#pd87f07bb32)" d="M 138.436364 343.359453 
L 139.270237 340.028754 
L 140.10411 346.417923 
L 141.771856 364.78169 
L 142.605729 365.035046 
L 143.439601 347.721856 
L 144.273474 325.157678 
L 145.107347 338.633116 
L 145.94122 299.343694 
L 146.775093 316.601145 
L 147.608966 304.149258 
L 148.442839 281.920877 
L 149.276712 290.951916 
L 150.110585 317.824345 
L 150.944458 292.420481 
L 151.778331 273.545106 
L 152.612204 298.308236 
L 153.446077 292.887398 
L 154.27995 297.479775 
L 155.113823 289.198518 
L 155.947696 303.352904 
L 156.781569 332.318059 
L 157.615442 350.333655 
L 158.449315 353.495165 
L 159.283188 324.519004 
L 160.117061 346.502842 
L 160.950934 349.361089 
L 162.61868 185.720012 
L 163.452553 320.467933 
L 164.286426 292.389513 
L 165.120299 344.066825 
L 165.954172 338.630704 
L 166.788045 349.17144 
L 167.621918 348.528934 
L 168.455791 364.935691 
L 169.289664 346.704442 
L 170.123537 347.920977 
L 170.95741 353.020891 
L 171.791283 346.173078 
L 172.625156 336.576482 
L 173.459029 331.279082 
L 174.292902 331.612163 
L 175.126775 334.829289 
L 175.960648 333.647391 
L 177.628394 364.077381 
L 178.462267 394.577394 
L 179.296139 361.025713 
L 180.130012 346.556795 
L 180.963885 348.108585 
L 181.797758 339.792301 
L 182.631631 345.054816 
L 183.465504 346.515877 
L 184.299377 367.2601 
L 185.13325 367.098678 
L 185.967123 358.891881 
L 186.800996 361.059605 
L 187.634869 354.333829 
L 188.468742 353.14818 
L 189.302615 348.176093 
L 190.136488 333.693364 
L 190.970361 338.214565 
L 191.804234 333.893677 
L 192.638107 336.213755 
L 193.47198 337.018624 
L 194.305853 333.401524 
L 195.139726 336.951343 
L 195.973599 312.394247 
L 196.807472 312.646052 
L 197.641345 304.501625 
L 198.475218 335.476319 
L 199.309091 342.352743 
L 200.142964 345.916523 
L 200.976837 357.727699 
L 201.81071 364.017229 
L 202.644583 344.718666 
L 203.478456 336.877133 
L 204.312329 311.036707 
L 205.146202 315.389919 
L 205.980075 338.766302 
L 206.813948 335.80719 
L 207.647821 349.409998 
L 208.481694 367.551514 
L 209.315567 351.705259 
L 210.14944 363.190686 
L 210.983313 355.687166 
L 211.817186 349.528336 
L 212.651059 335.038013 
L 213.484932 306.484701 
L 214.318804 309.058779 
L 215.152677 312.450384 
L 215.98655 353.656982 
L 216.820423 333.564724 
L 217.654296 338.419371 
L 218.488169 349.206176 
L 219.322042 337.041839 
L 220.155915 313.690447 
L 220.989788 362.657745 
L 221.823661 364.015814 
L 222.657534 360.149843 
L 223.491407 347.327399 
L 224.32528 374.118414 
L 225.159153 367.216581 
L 225.993026 351.038585 
L 226.826899 349.205 
L 227.660772 350.665266 
L 228.494645 371.847692 
L 229.328518 371.592924 
L 230.162391 363.481653 
L 230.996264 368.45024 
L 231.830137 356.97244 
L 232.66401 351.634549 
L 233.497883 338.628687 
L 234.331756 353.148604 
L 235.165629 316.326039 
L 235.999502 313.327092 
L 236.833375 347.416885 
L 237.667248 374.603784 
L 238.501121 369.221722 
L 239.334994 368.43478 
L 240.168867 356.580154 
L 241.00274 363.530585 
L 241.836613 362.002774 
L 242.670486 363.917276 
L 243.504359 360.018259 
L 244.338232 356.891926 
L 245.172105 358.784369 
L 246.839851 356.443365 
L 247.673724 348.666958 
L 248.507597 358.644699 
L 249.341469 311.498293 
L 250.175342 341.073601 
L 251.009215 358.585002 
L 251.843088 385.119446 
L 252.676961 393.968303 
L 253.510834 362.926018 
L 254.344707 353.384658 
L 255.17858 366.369928 
L 256.012453 361.160384 
L 256.846326 365.18665 
L 257.680199 341.813663 
L 258.514072 353.374408 
L 259.347945 346.513949 
L 260.181818 360.226668 
L 261.015691 339.991366 
L 261.849564 316.776704 
L 262.683437 363.683243 
L 263.51731 363.446115 
L 264.351183 371.625223 
L 265.185056 374.512932 
L 266.018929 371.752168 
L 266.852802 372.602401 
L 267.686675 365.07078 
L 268.520548 362.708011 
L 269.354421 358.016851 
L 270.188294 366.99545 
L 271.022167 364.889214 
L 271.85604 353.475411 
L 272.689913 355.701215 
L 273.523786 352.052682 
L 274.357659 345.229651 
L 275.191532 399.314852 
L 276.859278 360.576074 
L 277.693151 357.858203 
L 278.527024 363.987447 
L 279.360897 358.181487 
L 280.19477 356.799995 
L 281.028643 362.898064 
L 281.862516 354.080058 
L 282.696389 360.582853 
L 283.530262 354.142116 
L 284.364134 359.365661 
L 285.198007 379.165685 
L 286.03188 371.489113 
L 286.865753 372.344445 
L 287.699626 375.856553 
L 288.533499 376.174565 
L 289.367372 371.965346 
L 290.201245 371.890074 
L 291.035118 358.737456 
L 291.868991 365.35339 
L 292.702864 393.827295 
L 293.536737 406.521424 
L 294.37061 404.313185 
L 295.204483 404.467441 
L 296.872229 394.601103 
L 297.706102 391.629268 
L 298.539975 391.966452 
L 299.373848 399.898686 
L 300.207721 393.831728 
L 301.041594 375.739337 
L 301.875467 383.085762 
L 302.70934 393.245784 
L 304.377086 393.628616 
L 305.210959 396.200695 
L 306.044832 389.864156 
L 306.878705 395.613737 
L 308.546451 391.754448 
L 309.380324 379.873378 
L 310.214197 370.893977 
L 311.04807 382.889935 
L 311.881943 390.420935 
L 312.715816 373.891153 
L 314.383562 380.63321 
L 315.217435 370.176403 
L 316.051308 386.525107 
L 316.885181 380.809796 
L 317.719054 366.94176 
L 318.552927 369.291166 
L 319.3868 353.354283 
L 320.220672 364.965117 
L 321.054545 361.351108 
L 321.888418 372.29569 
L 322.722291 373.261717 
L 323.556164 352.926349 
L 324.390037 362.00005 
L 325.22391 356.889619 
L 326.057783 352.602261 
L 326.891656 349.660101 
L 327.725529 358.694405 
L 328.559402 362.278281 
L 329.393275 360.780367 
L 330.227148 340.579106 
L 331.061021 349.531461 
L 331.894894 362.747125 
L 332.728767 364.529346 
L 333.56264 367.449725 
L 334.396513 372.024693 
L 335.230386 368.362018 
L 336.064259 344.873489 
L 336.898132 347.514309 
L 337.732005 339.864186 
L 338.565878 333.949236 
L 339.399751 334.837378 
L 340.233624 332.787862 
L 341.067497 331.993669 
L 343.569116 288.202696 
L 344.402989 308.851837 
L 345.236862 335.981222 
L 346.904608 359.186036 
L 347.738481 348.539424 
L 348.572354 346.294821 
L 349.406227 339.87104 
L 350.2401 352.561502 
L 351.073973 367.853646 
L 351.907846 356.971814 
L 352.741719 363.223411 
L 353.575592 354.854637 
L 354.409465 361.841129 
L 355.243337 350.010688 
L 356.07721 356.572698 
L 357.744956 359.655624 
L 358.578829 358.747392 
L 359.412702 341.257345 
L 360.246575 339.514582 
L 361.080448 339.325951 
L 361.914321 299.530627 
L 362.748194 333.095128 
L 363.582067 345.806244 
L 364.41594 335.615472 
L 365.249813 361.656344 
L 366.083686 362.24909 
L 366.917559 357.024808 
L 367.751432 365.10756 
L 368.585305 362.304676 
L 369.419178 363.839784 
L 371.086924 339.27678 
L 371.920797 350.015567 
L 372.75467 355.739649 
L 373.588543 350.389825 
L 374.422416 355.035177 
L 375.256289 354.114369 
L 376.090162 349.204769 
L 376.924035 357.145186 
L 377.757908 373.135025 
L 378.591781 354.216264 
L 379.425654 351.063636 
L 380.259527 346.970102 
L 381.0934 348.264691 
L 381.927273 352.044037 
L 382.761146 351.660601 
L 383.595019 354.435659 
L 384.428892 356.234446 
L 385.262765 432.462357 
L 386.096638 376.257154 
L 386.930511 364.098137 
L 387.764384 426.202311 
L 388.598257 431.782549 
L 389.43213 421.903626 
L 390.266002 418.598835 
L 391.099875 369.572206 
L 391.933748 413.389069 
L 392.767621 417.285805 
L 393.601494 379.760862 
L 394.435367 382.645571 
L 395.26924 387.074427 
L 396.103113 376.327768 
L 396.936986 370.753037 
L 397.770859 344.534423 
L 398.604732 342.39107 
L 399.438605 358.006071 
L 400.272478 356.461237 
L 401.106351 355.700232 
L 401.940224 359.178992 
L 403.60797 354.033695 
L 404.441843 342.946217 
L 405.275716 336.953566 
L 406.109589 345.973845 
L 406.943462 358.96829 
L 407.777335 337.983931 
L 408.611208 335.557001 
L 409.445081 307.656447 
L 410.278954 303.928094 
L 411.112827 311.745428 
L 411.9467 306.291883 
L 412.780573 331.386801 
L 413.614446 336.604013 
L 414.448319 306.949388 
L 415.282192 321.289753 
L 416.116065 320.111042 
L 416.949938 310.26407 
L 417.783811 318.77445 
L 418.617684 343.284162 
L 419.451557 344.665113 
L 420.28543 344.599232 
L 421.119303 317.966936 
L 421.953176 303.480116 
L 422.787049 273.868591 
L 423.620922 309.68532 
L 424.454795 301.278713 
L 425.288667 268.427441 
L 426.12254 273.207363 
L 426.956413 279.283196 
L 427.790286 289.90418 
L 428.624159 273.386098 
L 429.458032 289.966009 
L 430.291905 314.506843 
L 431.125778 299.757099 
L 431.959651 315.288124 
L 432.793524 351.737516 
L 433.627397 354.327789 
L 434.46127 353.051581 
L 435.295143 346.179221 
L 436.129016 306.089191 
L 436.962889 341.18562 
L 437.796762 337.112999 
L 438.630635 341.120782 
L 439.464508 311.087712 
L 440.298381 297.346652 
L 441.132254 350.608672 
L 441.966127 303.23472 
L 442.8 359.742408 
L 443.633873 368.357173 
L 444.467746 357.781279 
L 445.301619 349.841429 
L 446.135492 345.321856 
L 446.969365 308.758135 
L 447.803238 306.78163 
L 448.637111 307.054469 
L 449.470984 310.093141 
L 450.304857 363.4038 
L 451.13873 348.292309 
L 451.972603 347.890567 
L 452.806476 349.792928 
L 453.640349 312.234179 
L 454.474222 305.792566 
L 455.308095 285.081407 
L 456.141968 282.638809 
L 456.975841 312.605131 
L 457.809714 313.892324 
L 458.643587 285.472629 
L 459.47746 300.660352 
L 460.311333 299.829828 
L 461.145205 312.224429 
L 461.979078 317.295849 
L 462.812951 298.101001 
L 463.646824 320.019243 
L 464.480697 294.029217 
L 465.31457 281.561494 
L 466.148443 321.998149 
L 466.982316 318.069599 
L 467.816189 337.998318 
L 468.650062 349.001818 
L 470.317808 341.169956 
L 471.151681 339.345312 
L 471.985554 344.873552 
L 472.819427 368.935016 
L 473.6533 355.521679 
L 474.487173 347.532447 
L 475.321046 342.288464 
L 476.154919 349.45627 
L 476.988792 353.701028 
L 477.822665 343.969474 
L 478.656538 362.263817 
L 479.490411 350.965983 
L 480.324284 359.225319 
L 481.158157 342.504576 
L 481.99203 342.356898 
L 482.825903 324.604321 
L 483.659776 339.653677 
L 484.493649 336.455618 
L 485.327522 320.767507 
L 486.161395 313.034449 
L 486.995268 309.357092 
L 487.829141 342.633356 
L 488.663014 359.723349 
L 489.496887 355.631687 
L 491.164633 317.07476 
L 491.998506 330.374349 
L 492.832379 335.058101 
L 493.666252 303.938513 
L 494.500125 320.293498 
L 495.333998 352.328334 
L 496.16787 316.371712 
L 497.001743 334.047 
L 497.835616 314.600596 
L 498.669489 335.193046 
L 499.503362 352.2142 
L 500.337235 348.054073 
L 501.171108 350.315205 
L 502.004981 336.29572 
L 502.838854 330.90613 
L 503.672727 321.293538 
L 504.5066 342.244913 
L 505.340473 343.442244 
L 506.174346 363.082208 
L 507.008219 366.169926 
L 507.842092 366.269866 
L 508.675965 363.70378 
L 509.509838 340.254188 
L 510.343711 341.790674 
L 511.177584 348.967013 
L 512.011457 319.45478 
L 512.84533 298.747507 
L 513.679203 373.237904 
L 515.346949 344.818645 
L 516.180822 361.120942 
L 517.014695 368.43302 
L 517.848568 363.258757 
L 518.682441 367.393311 
L 519.516314 382.577427 
L 520.350187 377.747961 
L 521.18406 335.300115 
L 522.017933 314.821708 
L 522.851806 323.781066 
L 523.685679 345.54932 
L 524.519552 354.49933 
L 525.353425 334.017892 
L 526.187298 357.321862 
L 527.021171 369.617127 
L 527.855044 363.263495 
L 528.688917 373.359557 
L 529.52279 364.476756 
L 530.356663 349.644048 
L 531.190535 352.063846 
L 532.024408 341.75542 
L 532.858281 344.389592 
L 533.692154 347.81512 
L 534.526027 357.04967 
L 535.3599 344.542171 
L 536.193773 353.608123 
L 537.027646 332.887564 
L 537.861519 341.179799 
L 538.695392 338.520369 
L 539.529265 351.420509 
L 540.363138 339.652273 
L 541.197011 340.800631 
L 542.030884 293.161406 
L 542.864757 280.566566 
L 543.69863 300.135189 
L 544.532503 286.475738 
L 545.366376 318.623337 
L 546.200249 333.600029 
L 547.034122 309.168316 
L 547.867995 311.126597 
L 549.535741 361.568022 
L 550.369614 375.364436 
L 551.203487 383.732237 
L 552.03736 381.826594 
L 552.871233 379.468948 
L 553.705106 375.939248 
L 554.538979 373.241927 
L 555.372852 369.949799 
L 556.206725 386.659907 
L 557.040598 377.080705 
L 557.874471 374.416514 
L 558.708344 374.224467 
L 559.542217 369.271188 
L 560.37609 374.897566 
L 561.209963 369.533413 
L 562.043836 382.399535 
L 562.877709 374.676511 
L 563.711582 371.69362 
L 564.545455 360.392613 
L 565.379328 359.301106 
L 566.2132 359.489869 
L 567.047073 351.8978 
L 567.880946 361.096057 
L 568.714819 355.847097 
L 569.548692 382.538748 
L 570.382565 368.533353 
L 571.216438 366.987267 
L 572.050311 375.491185 
L 573.718057 343.040872 
L 574.55193 354.4963 
L 576.219676 371.030699 
L 577.053549 383.148432 
L 577.887422 384.885744 
L 578.721295 385.99993 
L 579.555168 378.809224 
L 580.389041 367.030219 
L 581.222914 361.589997 
L 582.056787 362.365562 
L 582.89066 362.268125 
L 583.724533 354.29554 
L 584.558406 356.917004 
L 585.392279 368.944143 
L 586.226152 362.162224 
L 587.060025 360.677665 
L 587.893898 334.534494 
L 588.727771 336.650425 
L 589.561644 346.909509 
L 590.395517 347.228911 
L 591.22939 366.17483 
L 592.063263 368.385262 
L 592.897136 368.293559 
L 593.731009 353.759137 
L 594.564882 350.818642 
L 595.398755 355.555145 
L 596.232628 370.401174 
L 597.066501 363.488776 
L 597.900374 374.170622 
L 598.734247 376.470462 
L 599.56812 371.006652 
L 600.401993 352.387585 
L 601.235866 369.106016 
L 602.069738 368.620716 
L 602.903611 367.066471 
L 603.737484 357.398285 
L 604.571357 370.544222 
L 605.40523 374.879801 
L 606.239103 367.52818 
L 607.072976 367.321825 
L 607.906849 344.614813 
L 608.740722 354.096761 
L 609.574595 370.365628 
L 610.408468 362.105307 
L 611.242341 351.956727 
L 612.076214 347.542734 
L 612.910087 332.432989 
L 613.74396 302.507282 
L 614.577833 313.112365 
L 615.411706 336.177895 
L 616.245579 318.116868 
L 617.079452 313.708499 
L 617.913325 315.233789 
L 618.747198 317.739274 
L 619.581071 337.558838 
L 620.414944 343.99433 
L 621.248817 313.678331 
L 622.08269 344.423693 
L 622.916563 323.749413 
L 623.750436 316.471371 
L 624.584309 301.886666 
L 625.418182 344.260683 
L 626.252055 339.455357 
L 627.085928 386.422469 
L 627.919801 371.639052 
L 628.753674 367.564509 
L 629.587547 376.009091 
L 630.42142 365.342293 
L 631.255293 371.58367 
L 632.089166 372.683194 
L 632.923039 366.338393 
L 633.756912 368.456703 
L 634.590785 367.542612 
L 636.258531 370.570616 
L 637.092403 376.552329 
L 637.926276 374.028036 
L 638.760149 379.057968 
L 639.594022 367.237215 
L 640.427895 369.457108 
L 642.095641 383.145584 
L 642.929514 365.071179 
L 643.763387 372.675316 
L 644.59726 368.433309 
L 645.431133 367.56707 
L 646.265006 369.835843 
L 647.098879 374.787433 
L 648.766625 364.558863 
L 649.600498 366.467484 
L 650.434371 365.364277 
L 651.268244 366.278915 
L 652.102117 359.108743 
L 652.93599 363.817453 
L 653.769863 355.306946 
L 654.603736 367.878646 
L 655.437609 340.252719 
L 656.271482 336.747487 
L 657.105355 365.39861 
L 657.939228 359.040006 
L 658.773101 372.346547 
L 659.606974 363.56707 
L 660.440847 338.287789 
L 661.27472 364.247049 
L 662.108593 365.930458 
L 662.942466 365.772015 
L 663.776339 364.345644 
L 664.610212 366.706705 
L 665.444085 354.825484 
L 666.277958 368.365531 
L 667.111831 361.129403 
L 667.945704 344.970692 
L 668.779577 340.380518 
L 669.61345 341.609956 
L 670.447323 340.29033 
L 671.281196 313.751495 
L 672.115068 342.560717 
L 672.948941 360.941009 
L 673.782814 348.708365 
L 674.616687 346.902853 
L 675.45056 363.610834 
L 676.284433 355.856239 
L 677.118306 364.820659 
L 677.952179 362.958664 
L 678.786052 358.081181 
L 679.619925 308.6182 
L 680.453798 311.116459 
L 681.287671 340.970445 
L 682.121544 346.063686 
L 682.955417 306.062866 
L 683.78929 305.44012 
L 684.623163 312.951624 
L 685.457036 329.125847 
L 686.290909 304.346078 
L 687.124782 304.790799 
L 687.958655 311.579424 
L 688.792528 331.132977 
L 689.626401 333.350592 
L 690.460274 309.70008 
L 691.294147 321.120297 
L 692.12802 336.086194 
L 692.961893 309.642384 
L 693.795766 338.276973 
L 694.629639 301.020075 
L 695.463512 352.232512 
L 696.297385 370.322275 
L 697.131258 380.885558 
L 698.799004 363.897143 
L 699.632877 374.795174 
L 700.46675 373.604351 
L 701.300623 371.346751 
L 702.134496 376.046069 
L 702.968369 365.420991 
L 703.802242 387.471862 
L 704.636115 339.339118 
L 705.469988 345.294498 
L 706.303861 317.414371 
L 707.137733 338.314191 
L 707.971606 336.707464 
L 708.805479 318.820189 
L 709.639352 323.89966 
L 710.473225 314.820909 
L 711.307098 339.7938 
L 712.140971 337.392507 
L 712.974844 356.645495 
L 713.808717 368.922901 
L 714.64259 337.213357 
L 715.476463 354.52887 
L 716.310336 351.979818 
L 717.144209 314.433687 
L 717.978082 317.034769 
L 718.811955 340.279573 
L 719.645828 320.170821 
L 720.479701 328.847484 
L 721.313574 304.597616 
L 722.147447 340.398307 
L 722.98132 348.372309 
L 723.815193 344.285598 
L 724.649066 340.767283 
L 725.482939 307.63769 
L 726.316812 310.196927 
L 727.150685 313.796657 
L 727.984558 336.414502 
L 728.818431 333.436491 
L 729.652304 319.887952 
L 730.486177 341.101269 
L 732.153923 285.508692 
L 732.987796 278.559854 
L 734.655542 329.12828 
L 735.489415 338.965452 
L 736.323288 311.206903 
L 737.157161 337.693175 
L 737.991034 344.235757 
L 738.824907 334.111013 
L 739.65878 335.904633 
L 740.492653 309.79099 
L 741.326526 302.590758 
L 742.160399 318.475938 
L 742.994271 312.751071 
L 743.828144 312.677143 
L 744.662017 314.484432 
L 745.49589 299.603228 
L 746.329763 306.972299 
L 747.163636 301.64452 
L 747.163636 301.64452 
" style="fill:none;stroke:#ff0000;stroke-dasharray:5.55,2.4;stroke-dashoffset:0;stroke-width:1.5;"/>
   </g>
   <g id="patch_3">
    <path d="M 108 460.8 
L 108 69.12 
" style="fill:none;stroke:#000000;stroke-linecap:square;stroke-linejoin:miter;stroke-width:0.8;"/>
   </g>
   <g id="patch_4">
    <path d="M 777.6 460.8 
L 777.6 69.12 
" style="fill:none;stroke:#000000;stroke-linecap:square;stroke-linejoin:miter;stroke-width:0.8;"/>
   </g>
   <g id="patch_5">
    <path d="M 108 460.8 
L 777.6 460.8 
" style="fill:none;stroke:#000000;stroke-linecap:square;stroke-linejoin:miter;stroke-width:0.8;"/>
   </g>
   <g id="patch_6">
    <path d="M 108 69.12 
L 777.6 69.12 
" style="fill:none;stroke:#000000;stroke-linecap:square;stroke-linejoin:miter;stroke-width:0.8;"/>
   </g>
   <g id="text_17">
    <!-- Macau residential 2020-2021 | Forecast vs Monitored | Random forest -->
    <g transform="translate(181.076953 63.12)scale(0.15 -0.15)">
     <defs>
      <path d="M 9.8125 72.90625 
L 24.515625 72.90625 
L 43.109375 23.296875 
L 61.8125 72.90625 
L 76.515625 72.90625 
L 76.515625 0 
L 66.890625 0 
L 66.890625 64.015625 
L 48.09375 14.015625 
L 38.1875 14.015625 
L 19.390625 64.015625 
L 19.390625 0 
L 9.8125 0 
z
" id="DejaVuSans-77"/>
      <path d="M 48.78125 52.59375 
L 48.78125 44.1875 
Q 44.96875 46.296875 41.140625 47.34375 
Q 37.3125 48.390625 33.40625 48.390625 
Q 24.65625 48.390625 19.8125 42.84375 
Q 14.984375 37.3125 14.984375 27.296875 
Q 14.984375 17.28125 19.8125 11.734375 
Q 24.65625 6.203125 33.40625 6.203125 
Q 37.3125 6.203125 41.140625 7.25 
Q 44.96875 8.296875 48.78125 10.40625 
L 48.78125 2.09375 
Q 45.015625 0.34375 40.984375 -0.53125 
Q 36.96875 -1.421875 32.421875 -1.421875 
Q 20.0625 -1.421875 12.78125 6.34375 
Q 5.515625 14.109375 5.515625 27.296875 
Q 5.515625 40.671875 12.859375 48.328125 
Q 20.21875 56 33.015625 56 
Q 37.15625 56 41.109375 55.140625 
Q 45.0625 54.296875 48.78125 52.59375 
z
" id="DejaVuSans-99"/>
      <path d="M 8.5 21.578125 
L 8.5 54.6875 
L 17.484375 54.6875 
L 17.484375 21.921875 
Q 17.484375 14.15625 20.5 10.265625 
Q 23.53125 6.390625 29.59375 6.390625 
Q 36.859375 6.390625 41.078125 11.03125 
Q 45.3125 15.671875 45.3125 23.6875 
L 45.3125 54.6875 
L 54.296875 54.6875 
L 54.296875 0 
L 45.3125 0 
L 45.3125 8.40625 
Q 42.046875 3.421875 37.71875 1 
Q 33.40625 -1.421875 27.6875 -1.421875 
Q 18.265625 -1.421875 13.375 4.4375 
Q 8.5 10.296875 8.5 21.578125 
z
M 31.109375 56 
z
" id="DejaVuSans-117"/>
      <path id="DejaVuSans-32"/>
      <path d="M 41.109375 46.296875 
Q 39.59375 47.171875 37.8125 47.578125 
Q 36.03125 48 33.890625 48 
Q 26.265625 48 22.1875 43.046875 
Q 18.109375 38.09375 18.109375 28.8125 
L 18.109375 0 
L 9.078125 0 
L 9.078125 54.6875 
L 18.109375 54.6875 
L 18.109375 46.1875 
Q 20.953125 51.171875 25.484375 53.578125 
Q 30.03125 56 36.53125 56 
Q 37.453125 56 38.578125 55.875 
Q 39.703125 55.765625 41.0625 55.515625 
z
" id="DejaVuSans-114"/>
      <path d="M 44.28125 53.078125 
L 44.28125 44.578125 
Q 40.484375 46.53125 36.375 47.5 
Q 32.28125 48.484375 27.875 48.484375 
Q 21.1875 48.484375 17.84375 46.4375 
Q 14.5 44.390625 14.5 40.28125 
Q 14.5 37.15625 16.890625 35.375 
Q 19.28125 33.59375 26.515625 31.984375 
L 29.59375 31.296875 
Q 39.15625 29.25 43.1875 25.515625 
Q 47.21875 21.78125 47.21875 15.09375 
Q 47.21875 7.46875 41.1875 3.015625 
Q 35.15625 -1.421875 24.609375 -1.421875 
Q 20.21875 -1.421875 15.453125 -0.5625 
Q 10.6875 0.296875 5.421875 2 
L 5.421875 11.28125 
Q 10.40625 8.6875 15.234375 7.390625 
Q 20.0625 6.109375 24.8125 6.109375 
Q 31.15625 6.109375 34.5625 8.28125 
Q 37.984375 10.453125 37.984375 14.40625 
Q 37.984375 18.0625 35.515625 20.015625 
Q 33.0625 21.96875 24.703125 23.78125 
L 21.578125 24.515625 
Q 13.234375 26.265625 9.515625 29.90625 
Q 5.8125 33.546875 5.8125 39.890625 
Q 5.8125 47.609375 11.28125 51.796875 
Q 16.75 56 26.8125 56 
Q 31.78125 56 36.171875 55.265625 
Q 40.578125 54.546875 44.28125 53.078125 
z
" id="DejaVuSans-115"/>
      <path d="M 9.421875 54.6875 
L 18.40625 54.6875 
L 18.40625 0 
L 9.421875 0 
z
M 9.421875 75.984375 
L 18.40625 75.984375 
L 18.40625 64.59375 
L 9.421875 64.59375 
z
" id="DejaVuSans-105"/>
      <path d="M 45.40625 46.390625 
L 45.40625 75.984375 
L 54.390625 75.984375 
L 54.390625 0 
L 45.40625 0 
L 45.40625 8.203125 
Q 42.578125 3.328125 38.25 0.953125 
Q 33.9375 -1.421875 27.875 -1.421875 
Q 17.96875 -1.421875 11.734375 6.484375 
Q 5.515625 14.40625 5.515625 27.296875 
Q 5.515625 40.1875 11.734375 48.09375 
Q 17.96875 56 27.875 56 
Q 33.9375 56 38.25 53.625 
Q 42.578125 51.265625 45.40625 46.390625 
z
M 14.796875 27.296875 
Q 14.796875 17.390625 18.875 11.75 
Q 22.953125 6.109375 30.078125 6.109375 
Q 37.203125 6.109375 41.296875 11.75 
Q 45.40625 17.390625 45.40625 27.296875 
Q 45.40625 37.203125 41.296875 42.84375 
Q 37.203125 48.484375 30.078125 48.484375 
Q 22.953125 48.484375 18.875 42.84375 
Q 14.796875 37.203125 14.796875 27.296875 
z
" id="DejaVuSans-100"/>
      <path d="M 54.890625 33.015625 
L 54.890625 0 
L 45.90625 0 
L 45.90625 32.71875 
Q 45.90625 40.484375 42.875 44.328125 
Q 39.84375 48.1875 33.796875 48.1875 
Q 26.515625 48.1875 22.3125 43.546875 
Q 18.109375 38.921875 18.109375 30.90625 
L 18.109375 0 
L 9.078125 0 
L 9.078125 54.6875 
L 18.109375 54.6875 
L 18.109375 46.1875 
Q 21.34375 51.125 25.703125 53.5625 
Q 30.078125 56 35.796875 56 
Q 45.21875 56 50.046875 50.171875 
Q 54.890625 44.34375 54.890625 33.015625 
z
" id="DejaVuSans-110"/>
      <path d="M 9.421875 75.984375 
L 18.40625 75.984375 
L 18.40625 0 
L 9.421875 0 
z
" id="DejaVuSans-108"/>
      <path d="M 21 76.421875 
L 21 -23.578125 
L 12.703125 -23.578125 
L 12.703125 76.421875 
z
" id="DejaVuSans-124"/>
      <path d="M 9.8125 72.90625 
L 51.703125 72.90625 
L 51.703125 64.59375 
L 19.671875 64.59375 
L 19.671875 43.109375 
L 48.578125 43.109375 
L 48.578125 34.8125 
L 19.671875 34.8125 
L 19.671875 0 
L 9.8125 0 
z
" id="DejaVuSans-70"/>
      <path d="M 30.609375 48.390625 
Q 23.390625 48.390625 19.1875 42.75 
Q 14.984375 37.109375 14.984375 27.296875 
Q 14.984375 17.484375 19.15625 11.84375 
Q 23.34375 6.203125 30.609375 6.203125 
Q 37.796875 6.203125 41.984375 11.859375 
Q 46.1875 17.53125 46.1875 27.296875 
Q 46.1875 37.015625 41.984375 42.703125 
Q 37.796875 48.390625 30.609375 48.390625 
z
M 30.609375 56 
Q 42.328125 56 49.015625 48.375 
Q 55.71875 40.765625 55.71875 27.296875 
Q 55.71875 13.875 49.015625 6.21875 
Q 42.328125 -1.421875 30.609375 -1.421875 
Q 18.84375 -1.421875 12.171875 6.21875 
Q 5.515625 13.875 5.515625 27.296875 
Q 5.515625 40.765625 12.171875 48.375 
Q 18.84375 56 30.609375 56 
z
" id="DejaVuSans-111"/>
      <path d="M 2.984375 54.6875 
L 12.5 54.6875 
L 29.59375 8.796875 
L 46.6875 54.6875 
L 56.203125 54.6875 
L 35.6875 0 
L 23.484375 0 
z
" id="DejaVuSans-118"/>
      <path d="M 44.390625 34.1875 
Q 47.5625 33.109375 50.5625 29.59375 
Q 53.5625 26.078125 56.59375 19.921875 
L 66.609375 0 
L 56 0 
L 46.6875 18.703125 
Q 43.0625 26.03125 39.671875 28.421875 
Q 36.28125 30.8125 30.421875 30.8125 
L 19.671875 30.8125 
L 19.671875 0 
L 9.8125 0 
L 9.8125 72.90625 
L 32.078125 72.90625 
Q 44.578125 72.90625 50.734375 67.671875 
Q 56.890625 62.453125 56.890625 51.90625 
Q 56.890625 45.015625 53.6875 40.46875 
Q 50.484375 35.9375 44.390625 34.1875 
z
M 19.671875 64.796875 
L 19.671875 38.921875 
L 32.078125 38.921875 
Q 39.203125 38.921875 42.84375 42.21875 
Q 46.484375 45.515625 46.484375 51.90625 
Q 46.484375 58.296875 42.84375 61.546875 
Q 39.203125 64.796875 32.078125 64.796875 
z
" id="DejaVuSans-82"/>
      <path d="M 37.109375 75.984375 
L 37.109375 68.5 
L 28.515625 68.5 
Q 23.6875 68.5 21.796875 66.546875 
Q 19.921875 64.59375 19.921875 59.515625 
L 19.921875 54.6875 
L 34.71875 54.6875 
L 34.71875 47.703125 
L 19.921875 47.703125 
L 19.921875 0 
L 10.890625 0 
L 10.890625 47.703125 
L 2.296875 47.703125 
L 2.296875 54.6875 
L 10.890625 54.6875 
L 10.890625 58.5 
Q 10.890625 67.625 15.140625 71.796875 
Q 19.390625 75.984375 28.609375 75.984375 
z
" id="DejaVuSans-102"/>
     </defs>
     <use xlink:href="#DejaVuSans-77"/>
     <use x="86.279297" xlink:href="#DejaVuSans-97"/>
     <use x="147.558594" xlink:href="#DejaVuSans-99"/>
     <use x="202.539062" xlink:href="#DejaVuSans-97"/>
     <use x="263.818359" xlink:href="#DejaVuSans-117"/>
     <use x="327.197266" xlink:href="#DejaVuSans-32"/>
     <use x="358.984375" xlink:href="#DejaVuSans-114"/>
     <use x="397.847656" xlink:href="#DejaVuSans-101"/>
     <use x="459.371094" xlink:href="#DejaVuSans-115"/>
     <use x="511.470703" xlink:href="#DejaVuSans-105"/>
     <use x="539.253906" xlink:href="#DejaVuSans-100"/>
     <use x="602.730469" xlink:href="#DejaVuSans-101"/>
     <use x="664.253906" xlink:href="#DejaVuSans-110"/>
     <use x="727.632812" xlink:href="#DejaVuSans-116"/>
     <use x="766.841797" xlink:href="#DejaVuSans-105"/>
     <use x="794.625" xlink:href="#DejaVuSans-97"/>
     <use x="855.904297" xlink:href="#DejaVuSans-108"/>
     <use x="883.6875" xlink:href="#DejaVuSans-32"/>
     <use x="915.474609" xlink:href="#DejaVuSans-50"/>
     <use x="979.097656" xlink:href="#DejaVuSans-48"/>
     <use x="1042.720703" xlink:href="#DejaVuSans-50"/>
     <use x="1106.34375" xlink:href="#DejaVuSans-48"/>
     <use x="1169.966797" xlink:href="#DejaVuSans-45"/>
     <use x="1206.050781" xlink:href="#DejaVuSans-50"/>
     <use x="1269.673828" xlink:href="#DejaVuSans-48"/>
     <use x="1333.296875" xlink:href="#DejaVuSans-50"/>
     <use x="1396.919922" xlink:href="#DejaVuSans-49"/>
     <use x="1460.542969" xlink:href="#DejaVuSans-32"/>
     <use x="1492.330078" xlink:href="#DejaVuSans-124"/>
     <use x="1526.021484" xlink:href="#DejaVuSans-32"/>
     <use x="1557.808594" xlink:href="#DejaVuSans-70"/>
     <use x="1611.703125" xlink:href="#DejaVuSans-111"/>
     <use x="1672.884766" xlink:href="#DejaVuSans-114"/>
     <use x="1711.748047" xlink:href="#DejaVuSans-101"/>
     <use x="1773.271484" xlink:href="#DejaVuSans-99"/>
     <use x="1828.251953" xlink:href="#DejaVuSans-97"/>
     <use x="1889.53125" xlink:href="#DejaVuSans-115"/>
     <use x="1941.630859" xlink:href="#DejaVuSans-116"/>
     <use x="1980.839844" xlink:href="#DejaVuSans-32"/>
     <use x="2012.626953" xlink:href="#DejaVuSans-118"/>
     <use x="2071.806641" xlink:href="#DejaVuSans-115"/>
     <use x="2123.90625" xlink:href="#DejaVuSans-32"/>
     <use x="2155.693359" xlink:href="#DejaVuSans-77"/>
     <use x="2241.972656" xlink:href="#DejaVuSans-111"/>
     <use x="2303.154297" xlink:href="#DejaVuSans-110"/>
     <use x="2366.533203" xlink:href="#DejaVuSans-105"/>
     <use x="2394.316406" xlink:href="#DejaVuSans-116"/>
     <use x="2433.525391" xlink:href="#DejaVuSans-111"/>
     <use x="2494.707031" xlink:href="#DejaVuSans-114"/>
     <use x="2533.570312" xlink:href="#DejaVuSans-101"/>
     <use x="2595.09375" xlink:href="#DejaVuSans-100"/>
     <use x="2658.570312" xlink:href="#DejaVuSans-32"/>
     <use x="2690.357422" xlink:href="#DejaVuSans-124"/>
     <use x="2724.048828" xlink:href="#DejaVuSans-32"/>
     <use x="2755.835938" xlink:href="#DejaVuSans-82"/>
     <use x="2823.068359" xlink:href="#DejaVuSans-97"/>
     <use x="2884.347656" xlink:href="#DejaVuSans-110"/>
     <use x="2947.726562" xlink:href="#DejaVuSans-100"/>
     <use x="3011.203125" xlink:href="#DejaVuSans-111"/>
     <use x="3072.384766" xlink:href="#DejaVuSans-109"/>
     <use x="3169.796875" xlink:href="#DejaVuSans-32"/>
     <use x="3201.583984" xlink:href="#DejaVuSans-102"/>
     <use x="3236.789062" xlink:href="#DejaVuSans-111"/>
     <use x="3297.970703" xlink:href="#DejaVuSans-114"/>
     <use x="3336.833984" xlink:href="#DejaVuSans-101"/>
     <use x="3398.357422" xlink:href="#DejaVuSans-115"/>
     <use x="3450.457031" xlink:href="#DejaVuSans-116"/>
    </g>
   </g>
   <g id="legend_1">
    <g id="patch_7">
     <path d="M 613.996875 114.615 
L 769.2 114.615 
Q 771.6 114.615 771.6 112.215 
L 771.6 77.52 
Q 771.6 75.12 769.2 75.12 
L 613.996875 75.12 
Q 611.596875 75.12 611.596875 77.52 
L 611.596875 112.215 
Q 611.596875 114.615 613.996875 114.615 
z
" style="fill:#ffffff;opacity:0.8;stroke:#cccccc;stroke-linejoin:miter;"/>
    </g>
    <g id="line2d_17">
     <path d="M 616.396875 84.838125 
L 640.396875 84.838125 
" style="fill:none;stroke:#1f77b4;stroke-linecap:square;stroke-width:1.5;"/>
    </g>
    <g id="line2d_18"/>
    <g id="text_18">
     <!-- measured_data_CO -->
     <g transform="translate(649.996875 89.038125)scale(0.12 -0.12)">
      <defs>
       <path d="M 50.984375 -16.609375 
L 50.984375 -23.578125 
L -0.984375 -23.578125 
L -0.984375 -16.609375 
z
" id="DejaVuSans-95"/>
      </defs>
      <use xlink:href="#DejaVuSans-109"/>
      <use x="97.412109" xlink:href="#DejaVuSans-101"/>
      <use x="158.935547" xlink:href="#DejaVuSans-97"/>
      <use x="220.214844" xlink:href="#DejaVuSans-115"/>
      <use x="272.314453" xlink:href="#DejaVuSans-117"/>
      <use x="335.693359" xlink:href="#DejaVuSans-114"/>
      <use x="374.556641" xlink:href="#DejaVuSans-101"/>
      <use x="436.080078" xlink:href="#DejaVuSans-100"/>
      <use x="499.556641" xlink:href="#DejaVuSans-95"/>
      <use x="549.556641" xlink:href="#DejaVuSans-100"/>
      <use x="613.033203" xlink:href="#DejaVuSans-97"/>
      <use x="674.3125" xlink:href="#DejaVuSans-116"/>
      <use x="713.521484" xlink:href="#DejaVuSans-97"/>
      <use x="774.800781" xlink:href="#DejaVuSans-95"/>
      <use x="824.800781" xlink:href="#DejaVuSans-67"/>
      <use x="894.625" xlink:href="#DejaVuSans-79"/>
     </g>
    </g>
    <g id="line2d_19">
     <path d="M 616.396875 102.785625 
L 640.396875 102.785625 
" style="fill:none;stroke:#ff0000;stroke-dasharray:5.55,2.4;stroke-dashoffset:0;stroke-width:1.5;"/>
    </g>
    <g id="line2d_20"/>
    <g id="text_19">
     <!-- predicted_data_CO -->
     <g transform="translate(649.996875 106.985625)scale(0.12 -0.12)">
      <use xlink:href="#DejaVuSans-112"/>
      <use x="63.476562" xlink:href="#DejaVuSans-114"/>
      <use x="102.339844" xlink:href="#DejaVuSans-101"/>
      <use x="163.863281" xlink:href="#DejaVuSans-100"/>
      <use x="227.339844" xlink:href="#DejaVuSans-105"/>
      <use x="255.123047" xlink:href="#DejaVuSans-99"/>
      <use x="310.103516" xlink:href="#DejaVuSans-116"/>
      <use x="349.3125" xlink:href="#DejaVuSans-101"/>
      <use x="410.835938" xlink:href="#DejaVuSans-100"/>
      <use x="474.3125" xlink:href="#DejaVuSans-95"/>
      <use x="524.3125" xlink:href="#DejaVuSans-100"/>
      <use x="587.789062" xlink:href="#DejaVuSans-97"/>
      <use x="649.068359" xlink:href="#DejaVuSans-116"/>
      <use x="688.277344" xlink:href="#DejaVuSans-97"/>
      <use x="749.556641" xlink:href="#DejaVuSans-95"/>
      <use x="799.556641" xlink:href="#DejaVuSans-67"/>
      <use x="869.380859" xlink:href="#DejaVuSans-79"/>
     </g>
    </g>
   </g>
  </g>
 </g>
 <defs>
  <clipPath id="pd87f07bb32">
   <rect height="391.68" width="669.6" x="108" y="69.12"/>
  </clipPath>
 </defs>
</svg>
