<?xml version="1.0" encoding="utf-8" standalone="no"?>
<!DOCTYPE svg PUBLIC "-//W3C//DTD SVG 1.1//EN"
  "http://www.w3.org/Graphics/SVG/1.1/DTD/svg11.dtd">
<!-- Created with matplotlib (https://matplotlib.org/) -->
<svg height="576pt" version="1.1" viewBox="0 0 864 576" width="864pt" xmlns="http://www.w3.org/2000/svg" xmlns:xlink="http://www.w3.org/1999/xlink">
 <metadata>
  <rdf:RDF xmlns:cc="http://creativecommons.org/ns#" xmlns:dc="http://purl.org/dc/elements/1.1/" xmlns:rdf="http://www.w3.org/1999/02/22-rdf-syntax-ns#">
   <cc:Work>
    <dc:type rdf:resource="http://purl.org/dc/dcmitype/StillImage"/>
    <dc:date>2024-03-08T18:21:16.006345</dc:date>
    <dc:format>image/svg+xml</dc:format>
    <dc:creator>
     <cc:Agent>
      <dc:title>Matplotlib v3.3.4, https://matplotlib.org/</dc:title>
     </cc:Agent>
    </dc:creator>
   </cc:Work>
  </rdf:RDF>
 </metadata>
 <defs>
  <style type="text/css">*{stroke-linecap:butt;stroke-linejoin:round;}</style>
 </defs>
 <g id="figure_1">
  <g id="patch_1">
   <path d="M 0 576 
L 864 576 
L 864 0 
L 0 0 
z
" style="fill:#ffffff;"/>
  </g>
  <g id="axes_1">
   <g id="patch_2">
    <path d="M 108 460.8 
L 777.6 460.8 
L 777.6 69.12 
L 108 69.12 
z
" style="fill:#ffffff;"/>
   </g>
   <g id="matplotlib.axis_1">
    <g id="xtick_1">
     <g id="line2d_1">
      <defs>
       <path d="M 0 0 
L 0 3.5 
" id="m3024d44072" style="stroke:#000000;stroke-width:0.8;"/>
      </defs>
      <g>
       <use style="stroke:#000000;stroke-width:0.8;" x="138.436364" xlink:href="#m3024d44072" y="460.8"/>
      </g>
     </g>
     <g id="text_1">
      <!-- 2020-01 -->
      <g transform="translate(93.766579 500.766215)rotate(-30)scale(0.12 -0.12)">
       <defs>
        <path d="M 19.1875 8.296875 
L 53.609375 8.296875 
L 53.609375 0 
L 7.328125 0 
L 7.328125 8.296875 
Q 12.9375 14.109375 22.625 23.890625 
Q 32.328125 33.6875 34.8125 36.53125 
Q 39.546875 41.84375 41.421875 45.53125 
Q 43.3125 49.21875 43.3125 52.78125 
Q 43.3125 58.59375 39.234375 62.25 
Q 35.15625 65.921875 28.609375 65.921875 
Q 23.96875 65.921875 18.8125 64.3125 
Q 13.671875 62.703125 7.8125 59.421875 
L 7.8125 69.390625 
Q 13.765625 71.78125 18.9375 73 
Q 24.125 74.21875 28.421875 74.21875 
Q 39.75 74.21875 46.484375 68.546875 
Q 53.21875 62.890625 53.21875 53.421875 
Q 53.21875 48.921875 51.53125 44.890625 
Q 49.859375 40.875 45.40625 35.40625 
Q 44.1875 33.984375 37.640625 27.21875 
Q 31.109375 20.453125 19.1875 8.296875 
z
" id="DejaVuSans-50"/>
        <path d="M 31.78125 66.40625 
Q 24.171875 66.40625 20.328125 58.90625 
Q 16.5 51.421875 16.5 36.375 
Q 16.5 21.390625 20.328125 13.890625 
Q 24.171875 6.390625 31.78125 6.390625 
Q 39.453125 6.390625 43.28125 13.890625 
Q 47.125 21.390625 47.125 36.375 
Q 47.125 51.421875 43.28125 58.90625 
Q 39.453125 66.40625 31.78125 66.40625 
z
M 31.78125 74.21875 
Q 44.046875 74.21875 50.515625 64.515625 
Q 56.984375 54.828125 56.984375 36.375 
Q 56.984375 17.96875 50.515625 8.265625 
Q 44.046875 -1.421875 31.78125 -1.421875 
Q 19.53125 -1.421875 13.0625 8.265625 
Q 6.59375 17.96875 6.59375 36.375 
Q 6.59375 54.828125 13.0625 64.515625 
Q 19.53125 74.21875 31.78125 74.21875 
z
" id="DejaVuSans-48"/>
        <path d="M 4.890625 31.390625 
L 31.203125 31.390625 
L 31.203125 23.390625 
L 4.890625 23.390625 
z
" id="DejaVuSans-45"/>
        <path d="M 12.40625 8.296875 
L 28.515625 8.296875 
L 28.515625 63.921875 
L 10.984375 60.40625 
L 10.984375 69.390625 
L 28.421875 72.90625 
L 38.28125 72.90625 
L 38.28125 8.296875 
L 54.390625 8.296875 
L 54.390625 0 
L 12.40625 0 
z
" id="DejaVuSans-49"/>
       </defs>
       <use xlink:href="#DejaVuSans-50"/>
       <use x="63.623047" xlink:href="#DejaVuSans-48"/>
       <use x="127.246094" xlink:href="#DejaVuSans-50"/>
       <use x="190.869141" xlink:href="#DejaVuSans-48"/>
       <use x="254.492188" xlink:href="#DejaVuSans-45"/>
       <use x="290.576172" xlink:href="#DejaVuSans-48"/>
       <use x="354.199219" xlink:href="#DejaVuSans-49"/>
      </g>
     </g>
    </g>
    <g id="xtick_2">
     <g id="line2d_2">
      <g>
       <use style="stroke:#000000;stroke-width:0.8;" x="214.318804" xlink:href="#m3024d44072" y="460.8"/>
      </g>
     </g>
     <g id="text_2">
      <!-- 2020-04 -->
      <g transform="translate(169.64902 500.766215)rotate(-30)scale(0.12 -0.12)">
       <defs>
        <path d="M 37.796875 64.3125 
L 12.890625 25.390625 
L 37.796875 25.390625 
z
M 35.203125 72.90625 
L 47.609375 72.90625 
L 47.609375 25.390625 
L 58.015625 25.390625 
L 58.015625 17.1875 
L 47.609375 17.1875 
L 47.609375 0 
L 37.796875 0 
L 37.796875 17.1875 
L 4.890625 17.1875 
L 4.890625 26.703125 
z
" id="DejaVuSans-52"/>
       </defs>
       <use xlink:href="#DejaVuSans-50"/>
       <use x="63.623047" xlink:href="#DejaVuSans-48"/>
       <use x="127.246094" xlink:href="#DejaVuSans-50"/>
       <use x="190.869141" xlink:href="#DejaVuSans-48"/>
       <use x="254.492188" xlink:href="#DejaVuSans-45"/>
       <use x="290.576172" xlink:href="#DejaVuSans-48"/>
       <use x="354.199219" xlink:href="#DejaVuSans-52"/>
      </g>
     </g>
    </g>
    <g id="xtick_3">
     <g id="line2d_3">
      <g>
       <use style="stroke:#000000;stroke-width:0.8;" x="290.201245" xlink:href="#m3024d44072" y="460.8"/>
      </g>
     </g>
     <g id="text_3">
      <!-- 2020-07 -->
      <g transform="translate(245.53146 500.766215)rotate(-30)scale(0.12 -0.12)">
       <defs>
        <path d="M 8.203125 72.90625 
L 55.078125 72.90625 
L 55.078125 68.703125 
L 28.609375 0 
L 18.3125 0 
L 43.21875 64.59375 
L 8.203125 64.59375 
z
" id="DejaVuSans-55"/>
       </defs>
       <use xlink:href="#DejaVuSans-50"/>
       <use x="63.623047" xlink:href="#DejaVuSans-48"/>
       <use x="127.246094" xlink:href="#DejaVuSans-50"/>
       <use x="190.869141" xlink:href="#DejaVuSans-48"/>
       <use x="254.492188" xlink:href="#DejaVuSans-45"/>
       <use x="290.576172" xlink:href="#DejaVuSans-48"/>
       <use x="354.199219" xlink:href="#DejaVuSans-55"/>
      </g>
     </g>
    </g>
    <g id="xtick_4">
     <g id="line2d_4">
      <g>
       <use style="stroke:#000000;stroke-width:0.8;" x="366.917559" xlink:href="#m3024d44072" y="460.8"/>
      </g>
     </g>
     <g id="text_4">
      <!-- 2020-10 -->
      <g transform="translate(322.247774 500.766215)rotate(-30)scale(0.12 -0.12)">
       <use xlink:href="#DejaVuSans-50"/>
       <use x="63.623047" xlink:href="#DejaVuSans-48"/>
       <use x="127.246094" xlink:href="#DejaVuSans-50"/>
       <use x="190.869141" xlink:href="#DejaVuSans-48"/>
       <use x="254.492188" xlink:href="#DejaVuSans-45"/>
       <use x="290.576172" xlink:href="#DejaVuSans-49"/>
       <use x="354.199219" xlink:href="#DejaVuSans-48"/>
      </g>
     </g>
    </g>
    <g id="xtick_5">
     <g id="line2d_5">
      <g>
       <use style="stroke:#000000;stroke-width:0.8;" x="443.633873" xlink:href="#m3024d44072" y="460.8"/>
      </g>
     </g>
     <g id="text_5">
      <!-- 2021-01 -->
      <g transform="translate(398.964088 500.766215)rotate(-30)scale(0.12 -0.12)">
       <use xlink:href="#DejaVuSans-50"/>
       <use x="63.623047" xlink:href="#DejaVuSans-48"/>
       <use x="127.246094" xlink:href="#DejaVuSans-50"/>
       <use x="190.869141" xlink:href="#DejaVuSans-49"/>
       <use x="254.492188" xlink:href="#DejaVuSans-45"/>
       <use x="290.576172" xlink:href="#DejaVuSans-48"/>
       <use x="354.199219" xlink:href="#DejaVuSans-49"/>
      </g>
     </g>
    </g>
    <g id="xtick_6">
     <g id="line2d_6">
      <g>
       <use style="stroke:#000000;stroke-width:0.8;" x="518.682441" xlink:href="#m3024d44072" y="460.8"/>
      </g>
     </g>
     <g id="text_6">
      <!-- 2021-04 -->
      <g transform="translate(474.012656 500.766215)rotate(-30)scale(0.12 -0.12)">
       <use xlink:href="#DejaVuSans-50"/>
       <use x="63.623047" xlink:href="#DejaVuSans-48"/>
       <use x="127.246094" xlink:href="#DejaVuSans-50"/>
       <use x="190.869141" xlink:href="#DejaVuSans-49"/>
       <use x="254.492188" xlink:href="#DejaVuSans-45"/>
       <use x="290.576172" xlink:href="#DejaVuSans-48"/>
       <use x="354.199219" xlink:href="#DejaVuSans-52"/>
      </g>
     </g>
    </g>
    <g id="xtick_7">
     <g id="line2d_7">
      <g>
       <use style="stroke:#000000;stroke-width:0.8;" x="594.564882" xlink:href="#m3024d44072" y="460.8"/>
      </g>
     </g>
     <g id="text_7">
      <!-- 2021-07 -->
      <g transform="translate(549.895097 500.766215)rotate(-30)scale(0.12 -0.12)">
       <use xlink:href="#DejaVuSans-50"/>
       <use x="63.623047" xlink:href="#DejaVuSans-48"/>
       <use x="127.246094" xlink:href="#DejaVuSans-50"/>
       <use x="190.869141" xlink:href="#DejaVuSans-49"/>
       <use x="254.492188" xlink:href="#DejaVuSans-45"/>
       <use x="290.576172" xlink:href="#DejaVuSans-48"/>
       <use x="354.199219" xlink:href="#DejaVuSans-55"/>
      </g>
     </g>
    </g>
    <g id="xtick_8">
     <g id="line2d_8">
      <g>
       <use style="stroke:#000000;stroke-width:0.8;" x="671.281196" xlink:href="#m3024d44072" y="460.8"/>
      </g>
     </g>
     <g id="text_8">
      <!-- 2021-10 -->
      <g transform="translate(626.611411 500.766215)rotate(-30)scale(0.12 -0.12)">
       <use xlink:href="#DejaVuSans-50"/>
       <use x="63.623047" xlink:href="#DejaVuSans-48"/>
       <use x="127.246094" xlink:href="#DejaVuSans-50"/>
       <use x="190.869141" xlink:href="#DejaVuSans-49"/>
       <use x="254.492188" xlink:href="#DejaVuSans-45"/>
       <use x="290.576172" xlink:href="#DejaVuSans-49"/>
       <use x="354.199219" xlink:href="#DejaVuSans-48"/>
      </g>
     </g>
    </g>
    <g id="xtick_9">
     <g id="line2d_9">
      <g>
       <use style="stroke:#000000;stroke-width:0.8;" x="747.997509" xlink:href="#m3024d44072" y="460.8"/>
      </g>
     </g>
     <g id="text_9">
      <!-- 2022-01 -->
      <g transform="translate(703.327724 500.766215)rotate(-30)scale(0.12 -0.12)">
       <use xlink:href="#DejaVuSans-50"/>
       <use x="63.623047" xlink:href="#DejaVuSans-48"/>
       <use x="127.246094" xlink:href="#DejaVuSans-50"/>
       <use x="190.869141" xlink:href="#DejaVuSans-50"/>
       <use x="254.492188" xlink:href="#DejaVuSans-45"/>
       <use x="290.576172" xlink:href="#DejaVuSans-48"/>
       <use x="354.199219" xlink:href="#DejaVuSans-49"/>
      </g>
     </g>
    </g>
    <g id="text_10">
     <!-- Date -->
     <g transform="translate(424.873828 518.325146)scale(0.15 -0.15)">
      <defs>
       <path d="M 19.671875 64.796875 
L 19.671875 8.109375 
L 31.59375 8.109375 
Q 46.6875 8.109375 53.6875 14.9375 
Q 60.6875 21.78125 60.6875 36.53125 
Q 60.6875 51.171875 53.6875 57.984375 
Q 46.6875 64.796875 31.59375 64.796875 
z
M 9.8125 72.90625 
L 30.078125 72.90625 
Q 51.265625 72.90625 61.171875 64.09375 
Q 71.09375 55.28125 71.09375 36.53125 
Q 71.09375 17.671875 61.125 8.828125 
Q 51.171875 0 30.078125 0 
L 9.8125 0 
z
" id="DejaVuSans-68"/>
       <path d="M 34.28125 27.484375 
Q 23.390625 27.484375 19.1875 25 
Q 14.984375 22.515625 14.984375 16.5 
Q 14.984375 11.71875 18.140625 8.90625 
Q 21.296875 6.109375 26.703125 6.109375 
Q 34.1875 6.109375 38.703125 11.40625 
Q 43.21875 16.703125 43.21875 25.484375 
L 43.21875 27.484375 
z
M 52.203125 31.203125 
L 52.203125 0 
L 43.21875 0 
L 43.21875 8.296875 
Q 40.140625 3.328125 35.546875 0.953125 
Q 30.953125 -1.421875 24.3125 -1.421875 
Q 15.921875 -1.421875 10.953125 3.296875 
Q 6 8.015625 6 15.921875 
Q 6 25.140625 12.171875 29.828125 
Q 18.359375 34.515625 30.609375 34.515625 
L 43.21875 34.515625 
L 43.21875 35.40625 
Q 43.21875 41.609375 39.140625 45 
Q 35.0625 48.390625 27.6875 48.390625 
Q 23 48.390625 18.546875 47.265625 
Q 14.109375 46.140625 10.015625 43.890625 
L 10.015625 52.203125 
Q 14.9375 54.109375 19.578125 55.046875 
Q 24.21875 56 28.609375 56 
Q 40.484375 56 46.34375 49.84375 
Q 52.203125 43.703125 52.203125 31.203125 
z
" id="DejaVuSans-97"/>
       <path d="M 18.3125 70.21875 
L 18.3125 54.6875 
L 36.8125 54.6875 
L 36.8125 47.703125 
L 18.3125 47.703125 
L 18.3125 18.015625 
Q 18.3125 11.328125 20.140625 9.421875 
Q 21.96875 7.515625 27.59375 7.515625 
L 36.8125 7.515625 
L 36.8125 0 
L 27.59375 0 
Q 17.1875 0 13.234375 3.875 
Q 9.28125 7.765625 9.28125 18.015625 
L 9.28125 47.703125 
L 2.6875 47.703125 
L 2.6875 54.6875 
L 9.28125 54.6875 
L 9.28125 70.21875 
z
" id="DejaVuSans-116"/>
       <path d="M 56.203125 29.59375 
L 56.203125 25.203125 
L 14.890625 25.203125 
Q 15.484375 15.921875 20.484375 11.0625 
Q 25.484375 6.203125 34.421875 6.203125 
Q 39.59375 6.203125 44.453125 7.46875 
Q 49.3125 8.734375 54.109375 11.28125 
L 54.109375 2.78125 
Q 49.265625 0.734375 44.1875 -0.34375 
Q 39.109375 -1.421875 33.890625 -1.421875 
Q 20.796875 -1.421875 13.15625 6.1875 
Q 5.515625 13.8125 5.515625 26.8125 
Q 5.515625 40.234375 12.765625 48.109375 
Q 20.015625 56 32.328125 56 
Q 43.359375 56 49.78125 48.890625 
Q 56.203125 41.796875 56.203125 29.59375 
z
M 47.21875 32.234375 
Q 47.125 39.59375 43.09375 43.984375 
Q 39.0625 48.390625 32.421875 48.390625 
Q 24.90625 48.390625 20.390625 44.140625 
Q 15.875 39.890625 15.1875 32.171875 
z
" id="DejaVuSans-101"/>
      </defs>
      <use xlink:href="#DejaVuSans-68"/>
      <use x="77.001953" xlink:href="#DejaVuSans-97"/>
      <use x="138.28125" xlink:href="#DejaVuSans-116"/>
      <use x="177.490234" xlink:href="#DejaVuSans-101"/>
     </g>
    </g>
   </g>
   <g id="matplotlib.axis_2">
    <g id="ytick_1">
     <g id="line2d_10">
      <defs>
       <path d="M 0 0 
L -3.5 0 
" id="m66d00a45f6" style="stroke:#000000;stroke-width:0.8;"/>
      </defs>
      <g>
       <use style="stroke:#000000;stroke-width:0.8;" x="108" xlink:href="#m66d00a45f6" y="391.565322"/>
      </g>
     </g>
     <g id="text_11">
      <!-- 0.5 -->
      <g transform="translate(81.91625 396.124385)scale(0.12 -0.12)">
       <defs>
        <path d="M 10.6875 12.40625 
L 21 12.40625 
L 21 0 
L 10.6875 0 
z
" id="DejaVuSans-46"/>
        <path d="M 10.796875 72.90625 
L 49.515625 72.90625 
L 49.515625 64.59375 
L 19.828125 64.59375 
L 19.828125 46.734375 
Q 21.96875 47.46875 24.109375 47.828125 
Q 26.265625 48.1875 28.421875 48.1875 
Q 40.625 48.1875 47.75 41.5 
Q 54.890625 34.8125 54.890625 23.390625 
Q 54.890625 11.625 47.5625 5.09375 
Q 40.234375 -1.421875 26.90625 -1.421875 
Q 22.3125 -1.421875 17.546875 -0.640625 
Q 12.796875 0.140625 7.71875 1.703125 
L 7.71875 11.625 
Q 12.109375 9.234375 16.796875 8.0625 
Q 21.484375 6.890625 26.703125 6.890625 
Q 35.15625 6.890625 40.078125 11.328125 
Q 45.015625 15.765625 45.015625 23.390625 
Q 45.015625 31 40.078125 35.4375 
Q 35.15625 39.890625 26.703125 39.890625 
Q 22.75 39.890625 18.8125 39.015625 
Q 14.890625 38.140625 10.796875 36.28125 
z
" id="DejaVuSans-53"/>
       </defs>
       <use xlink:href="#DejaVuSans-48"/>
       <use x="63.623047" xlink:href="#DejaVuSans-46"/>
       <use x="95.410156" xlink:href="#DejaVuSans-53"/>
      </g>
     </g>
    </g>
    <g id="ytick_2">
     <g id="line2d_11">
      <g>
       <use style="stroke:#000000;stroke-width:0.8;" x="108" xlink:href="#m66d00a45f6" y="318.742608"/>
      </g>
     </g>
     <g id="text_12">
      <!-- 1.0 -->
      <g transform="translate(81.91625 323.301671)scale(0.12 -0.12)">
       <use xlink:href="#DejaVuSans-49"/>
       <use x="63.623047" xlink:href="#DejaVuSans-46"/>
       <use x="95.410156" xlink:href="#DejaVuSans-48"/>
      </g>
     </g>
    </g>
    <g id="ytick_3">
     <g id="line2d_12">
      <g>
       <use style="stroke:#000000;stroke-width:0.8;" x="108" xlink:href="#m66d00a45f6" y="245.919895"/>
      </g>
     </g>
     <g id="text_13">
      <!-- 1.5 -->
      <g transform="translate(81.91625 250.478957)scale(0.12 -0.12)">
       <use xlink:href="#DejaVuSans-49"/>
       <use x="63.623047" xlink:href="#DejaVuSans-46"/>
       <use x="95.410156" xlink:href="#DejaVuSans-53"/>
      </g>
     </g>
    </g>
    <g id="ytick_4">
     <g id="line2d_13">
      <g>
       <use style="stroke:#000000;stroke-width:0.8;" x="108" xlink:href="#m66d00a45f6" y="173.097181"/>
      </g>
     </g>
     <g id="text_14">
      <!-- 2.0 -->
      <g transform="translate(81.91625 177.656243)scale(0.12 -0.12)">
       <use xlink:href="#DejaVuSans-50"/>
       <use x="63.623047" xlink:href="#DejaVuSans-46"/>
       <use x="95.410156" xlink:href="#DejaVuSans-48"/>
      </g>
     </g>
    </g>
    <g id="ytick_5">
     <g id="line2d_14">
      <g>
       <use style="stroke:#000000;stroke-width:0.8;" x="108" xlink:href="#m66d00a45f6" y="100.274467"/>
      </g>
     </g>
     <g id="text_15">
      <!-- 2.5 -->
      <g transform="translate(81.91625 104.83353)scale(0.12 -0.12)">
       <use xlink:href="#DejaVuSans-50"/>
       <use x="63.623047" xlink:href="#DejaVuSans-46"/>
       <use x="95.410156" xlink:href="#DejaVuSans-53"/>
      </g>
     </g>
    </g>
    <g id="text_16">
     <!-- CO(ppm) -->
     <g transform="translate(74.796719 298.781484)rotate(-90)scale(0.15 -0.15)">
      <defs>
       <path d="M 64.40625 67.28125 
L 64.40625 56.890625 
Q 59.421875 61.53125 53.78125 63.8125 
Q 48.140625 66.109375 41.796875 66.109375 
Q 29.296875 66.109375 22.65625 58.46875 
Q 16.015625 50.828125 16.015625 36.375 
Q 16.015625 21.96875 22.65625 14.328125 
Q 29.296875 6.6875 41.796875 6.6875 
Q 48.140625 6.6875 53.78125 8.984375 
Q 59.421875 11.28125 64.40625 15.921875 
L 64.40625 5.609375 
Q 59.234375 2.09375 53.4375 0.328125 
Q 47.65625 -1.421875 41.21875 -1.421875 
Q 24.65625 -1.421875 15.125 8.703125 
Q 5.609375 18.84375 5.609375 36.375 
Q 5.609375 53.953125 15.125 64.078125 
Q 24.65625 74.21875 41.21875 74.21875 
Q 47.75 74.21875 53.53125 72.484375 
Q 59.328125 70.75 64.40625 67.28125 
z
" id="DejaVuSans-67"/>
       <path d="M 39.40625 66.21875 
Q 28.65625 66.21875 22.328125 58.203125 
Q 16.015625 50.203125 16.015625 36.375 
Q 16.015625 22.609375 22.328125 14.59375 
Q 28.65625 6.59375 39.40625 6.59375 
Q 50.140625 6.59375 56.421875 14.59375 
Q 62.703125 22.609375 62.703125 36.375 
Q 62.703125 50.203125 56.421875 58.203125 
Q 50.140625 66.21875 39.40625 66.21875 
z
M 39.40625 74.21875 
Q 54.734375 74.21875 63.90625 63.9375 
Q 73.09375 53.65625 73.09375 36.375 
Q 73.09375 19.140625 63.90625 8.859375 
Q 54.734375 -1.421875 39.40625 -1.421875 
Q 24.03125 -1.421875 14.8125 8.828125 
Q 5.609375 19.09375 5.609375 36.375 
Q 5.609375 53.65625 14.8125 63.9375 
Q 24.03125 74.21875 39.40625 74.21875 
z
" id="DejaVuSans-79"/>
       <path d="M 31 75.875 
Q 24.46875 64.65625 21.28125 53.65625 
Q 18.109375 42.671875 18.109375 31.390625 
Q 18.109375 20.125 21.3125 9.0625 
Q 24.515625 -2 31 -13.1875 
L 23.1875 -13.1875 
Q 15.875 -1.703125 12.234375 9.375 
Q 8.59375 20.453125 8.59375 31.390625 
Q 8.59375 42.28125 12.203125 53.3125 
Q 15.828125 64.359375 23.1875 75.875 
z
" id="DejaVuSans-40"/>
       <path d="M 18.109375 8.203125 
L 18.109375 -20.796875 
L 9.078125 -20.796875 
L 9.078125 54.6875 
L 18.109375 54.6875 
L 18.109375 46.390625 
Q 20.953125 51.265625 25.265625 53.625 
Q 29.59375 56 35.59375 56 
Q 45.5625 56 51.78125 48.09375 
Q 58.015625 40.1875 58.015625 27.296875 
Q 58.015625 14.40625 51.78125 6.484375 
Q 45.5625 -1.421875 35.59375 -1.421875 
Q 29.59375 -1.421875 25.265625 0.953125 
Q 20.953125 3.328125 18.109375 8.203125 
z
M 48.6875 27.296875 
Q 48.6875 37.203125 44.609375 42.84375 
Q 40.53125 48.484375 33.40625 48.484375 
Q 26.265625 48.484375 22.1875 42.84375 
Q 18.109375 37.203125 18.109375 27.296875 
Q 18.109375 17.390625 22.1875 11.75 
Q 26.265625 6.109375 33.40625 6.109375 
Q 40.53125 6.109375 44.609375 11.75 
Q 48.6875 17.390625 48.6875 27.296875 
z
" id="DejaVuSans-112"/>
       <path d="M 52 44.1875 
Q 55.375 50.25 60.0625 53.125 
Q 64.75 56 71.09375 56 
Q 79.640625 56 84.28125 50.015625 
Q 88.921875 44.046875 88.921875 33.015625 
L 88.921875 0 
L 79.890625 0 
L 79.890625 32.71875 
Q 79.890625 40.578125 77.09375 44.375 
Q 74.3125 48.1875 68.609375 48.1875 
Q 61.625 48.1875 57.5625 43.546875 
Q 53.515625 38.921875 53.515625 30.90625 
L 53.515625 0 
L 44.484375 0 
L 44.484375 32.71875 
Q 44.484375 40.625 41.703125 44.40625 
Q 38.921875 48.1875 33.109375 48.1875 
Q 26.21875 48.1875 22.15625 43.53125 
Q 18.109375 38.875 18.109375 30.90625 
L 18.109375 0 
L 9.078125 0 
L 9.078125 54.6875 
L 18.109375 54.6875 
L 18.109375 46.1875 
Q 21.1875 51.21875 25.484375 53.609375 
Q 29.78125 56 35.6875 56 
Q 41.65625 56 45.828125 52.96875 
Q 50 49.953125 52 44.1875 
z
" id="DejaVuSans-109"/>
       <path d="M 8.015625 75.875 
L 15.828125 75.875 
Q 23.140625 64.359375 26.78125 53.3125 
Q 30.421875 42.28125 30.421875 31.390625 
Q 30.421875 20.453125 26.78125 9.375 
Q 23.140625 -1.703125 15.828125 -13.1875 
L 8.015625 -13.1875 
Q 14.5 -2 17.703125 9.0625 
Q 20.90625 20.125 20.90625 31.390625 
Q 20.90625 42.671875 17.703125 53.65625 
Q 14.5 64.65625 8.015625 75.875 
z
" id="DejaVuSans-41"/>
      </defs>
      <use xlink:href="#DejaVuSans-67"/>
      <use x="69.824219" xlink:href="#DejaVuSans-79"/>
      <use x="148.535156" xlink:href="#DejaVuSans-40"/>
      <use x="187.548828" xlink:href="#DejaVuSans-112"/>
      <use x="251.025391" xlink:href="#DejaVuSans-112"/>
      <use x="314.501953" xlink:href="#DejaVuSans-109"/>
      <use x="411.914062" xlink:href="#DejaVuSans-41"/>
     </g>
    </g>
   </g>
   <g id="line2d_15">
    <path clip-path="url(#p41e02ae048)" d="M 138.436364 361.374239 
L 139.270237 370.552935 
L 140.10411 350.830117 
L 140.937983 359.705385 
L 141.771856 379.731631 
L 142.605729 365.206666 
L 143.439601 337.631 
L 144.273474 344.837414 
L 145.107347 313.584333 
L 145.94122 309.032913 
L 146.775093 315.480758 
L 147.608966 285.593102 
L 148.442839 275.124837 
L 149.276712 306.226204 
L 150.110585 315.480758 
L 150.944458 293.558087 
L 151.778331 257.601872 
L 152.612204 290.144522 
L 153.446077 291.889233 
L 154.27995 298.185363 
L 155.113823 296.440652 
L 155.947696 308.577771 
L 156.781569 344.761557 
L 157.615442 358.56753 
L 158.449315 351.209402 
L 159.283188 324.50774 
L 160.117061 359.705385 
L 160.950934 334.672577 
L 161.784807 276.552927 
L 162.61868 86.923636 
L 163.452553 256.160589 
L 164.286426 339.462404 
L 165.120299 372.070075 
L 165.954172 373.435501 
L 166.788045 371.235648 
L 167.621918 367.13937 
L 168.455791 376.924922 
L 169.289664 363.194807 
L 170.123537 365.773944 
L 170.95741 364.332661 
L 171.791283 354.01611 
L 172.625156 338.465427 
L 173.459029 327.314449 
L 174.292902 339.754996 
L 175.126775 336.569002 
L 175.960648 332.852009 
L 176.794521 359.3261 
L 177.628394 402.564586 
L 178.462267 403.626584 
L 179.296139 368.732367 
L 180.963885 354.547109 
L 181.797758 333.534722 
L 182.631631 348.250979 
L 183.465504 359.857099 
L 184.299377 366.911799 
L 185.13325 366.573891 
L 185.967123 373.814786 
L 186.800996 358.870958 
L 187.634869 357.505532 
L 188.468742 359.932956 
L 189.302615 339.90671 
L 190.136488 340.665279 
L 190.970361 340.513565 
L 191.804234 325.418024 
L 192.638107 346.657982 
L 193.47198 333.914007 
L 194.305853 337.555143 
L 195.139726 323.294028 
L 195.973599 313.280905 
L 196.807472 315.784186 
L 197.641345 321.852745 
L 199.309091 345.671841 
L 200.142964 350.75426 
L 200.976837 366.608371 
L 201.81071 364.484375 
L 202.644583 344.989128 
L 204.312329 321.170032 
L 205.146202 329.059159 
L 205.980075 349.99569 
L 206.813948 337.782714 
L 207.647821 362.967236 
L 208.481694 373.738929 
L 209.315567 356.595248 
L 210.14944 363.953376 
L 210.983313 354.167824 
L 211.817186 359.932956 
L 213.484932 308.198486 
L 214.318804 325.038739 
L 215.152677 333.465461 
L 215.98655 344.230558 
L 216.820423 340.89285 
L 217.654296 352.347256 
L 218.488169 360.84324 
L 219.322042 335.431147 
L 220.155915 336.644859 
L 220.989788 373.132073 
L 221.823661 372.752788 
L 222.657534 345.671841 
L 223.491407 364.180947 
L 224.32528 395.434029 
L 225.159153 367.215227 
L 225.993026 343.851273 
L 228.494645 374.118214 
L 229.328518 373.132073 
L 230.162391 364.408518 
L 230.996264 373.283787 
L 231.830137 367.746226 
L 232.66401 333.307151 
L 233.497883 348.616472 
L 234.331756 351.588687 
L 235.165629 317.073755 
L 235.999502 322.838886 
L 236.833375 366.760085 
L 237.667248 378.290348 
L 238.501121 371.69079 
L 239.334994 370.704649 
L 240.168867 358.870958 
L 241.00274 369.187509 
L 241.836613 370.780506 
L 242.670486 368.049654 
L 243.504359 360.919097 
L 244.338232 357.733103 
L 245.172105 355.457393 
L 246.005978 351.664544 
L 246.839851 356.443534 
L 247.673724 357.733103 
L 248.507597 337.858571 
L 249.341469 329.514301 
L 250.175342 348.857835 
L 251.843088 394.372031 
L 252.676961 392.020464 
L 253.510834 371.994218 
L 254.344707 361.753524 
L 255.17858 370.628792 
L 256.012453 352.423113 
L 256.846326 356.443534 
L 257.680199 356.140106 
L 258.514072 362.36038 
L 259.347945 354.547109 
L 260.181818 360.702362 
L 261.015691 332.927866 
L 261.849564 336.644859 
L 262.683437 365.394659 
L 263.51731 372.525217 
L 264.351183 386.33119 
L 265.185056 377.911063 
L 266.018929 377.531778 
L 266.852802 373.587215 
L 267.686675 373.359644 
L 268.520548 370.704649 
L 269.354421 363.270664 
L 270.188294 362.891379 
L 271.022167 358.339959 
L 271.85604 356.064249 
L 272.689913 362.815522 
L 273.523786 347.340695 
L 274.357659 364.690273 
L 275.191532 391.413608 
L 276.025405 382.234912 
L 276.859278 363.422378 
L 277.693151 371.539076 
L 278.527024 361.753524 
L 279.360897 365.015374 
L 280.19477 362.891379 
L 281.028643 364.408518 
L 281.862516 366.987656 
L 282.696389 353.029969 
L 283.530262 352.271399 
L 284.364134 365.773944 
L 285.198007 385.876048 
L 286.03188 378.669633 
L 286.865753 380.26263 
L 287.699626 384.965764 
L 288.533499 380.186773 
L 289.367372 379.655774 
L 290.201245 381.0212 
L 291.035118 367.291084 
L 291.868991 374.345785 
L 292.702864 405.598866 
L 293.536737 412.122567 
L 294.37061 406.433293 
L 295.204483 403.095585 
L 296.038356 402.7163 
L 296.872229 396.116742 
L 297.706102 399.151021 
L 298.539975 398.316594 
L 299.373848 408.936574 
L 300.207721 397.482168 
L 301.041594 397.93731 
L 301.875467 392.475606 
L 302.70934 393.310033 
L 303.543213 392.930748 
L 304.377086 395.813314 
L 305.210959 396.496027 
L 306.044832 388.874048 
L 306.878705 396.571884 
L 307.712578 398.620022 
L 308.546451 389.744754 
L 309.380324 377.911063 
L 310.214197 384.889907 
L 311.04807 388.0759 
L 311.881943 383.524481 
L 312.715816 381.172914 
L 314.383562 389.289612 
L 315.217435 391.792893 
L 316.051308 390.15852 
L 316.885181 383.903766 
L 317.719054 370.249507 
L 318.552927 368.732367 
L 319.3868 366.456657 
L 320.220672 372.752788 
L 321.054545 375.635353 
L 321.888418 379.959202 
L 322.722291 376.46978 
L 323.556164 356.671105 
L 324.390037 355.684964 
L 325.22391 363.11895 
L 326.057783 355.078108 
L 326.891656 349.030237 
L 327.725529 359.022672 
L 328.559402 371.083934 
L 329.393275 361.525953 
L 330.227148 354.698823 
L 331.061021 360.691526 
L 331.894894 374.497499 
L 332.728767 364.636089 
L 333.56264 370.17365 
L 334.396513 379.883345 
L 335.230386 367.89794 
L 336.064259 358.89092 
L 336.898132 355.912535 
L 337.732005 339.223997 
L 338.565878 331.638297 
L 339.399751 332.245153 
L 340.233624 335.962146 
L 341.067497 346.582125 
L 343.569116 293.709801 
L 344.402989 333.307151 
L 345.236862 347.188981 
L 346.070735 350.374975 
L 346.904608 357.657246 
L 347.738481 354.698823 
L 348.572354 346.506268 
L 349.406227 348.326836 
L 350.2401 362.663808 
L 351.073973 373.511358 
L 351.907846 361.525953 
L 352.741719 363.649948 
L 353.575592 367.13937 
L 354.409465 375.331925 
L 355.243337 369.111652 
L 356.07721 359.857099 
L 356.911083 355.078108 
L 357.744956 359.477814 
L 358.578829 352.650684 
L 359.412702 341.727277 
L 360.246575 341.954848 
L 361.914321 308.729485 
L 362.748194 337.706857 
L 363.582067 351.588687 
L 364.41594 338.996426 
L 365.249813 360.539812 
L 366.083686 365.773944 
L 366.917559 374.042357 
L 367.751432 374.573356 
L 368.585305 365.318802 
L 369.419178 357.960674 
L 370.253051 355.609107 
L 371.086924 334.293292 
L 371.920797 351.361116 
L 372.75467 355.153965 
L 373.588543 349.540548 
L 375.256289 356.974533 
L 376.090162 358.946815 
L 376.924035 382.765911 
L 377.757908 367.973797 
L 378.591781 371.008077 
L 379.425654 356.671105 
L 380.259527 351.816258 
L 381.0934 349.616405 
L 381.927273 357.960674 
L 382.761146 356.974533 
L 383.595019 358.719244 
L 384.428892 381.335465 
L 385.262765 418.557219 
L 386.096638 390.35161 
L 386.930511 392.096321 
L 387.764384 419.328982 
L 388.598257 433.665953 
L 389.43213 442.996364 
L 391.099875 395.358172 
L 391.933748 421.604691 
L 392.767621 419.404839 
L 393.601494 401.881873 
L 394.435367 400.592304 
L 395.26924 382.993482 
L 396.103113 390.124039 
L 396.936986 347.416552 
L 397.770859 349.085406 
L 398.604732 345.899412 
L 399.438605 364.560232 
L 400.272478 354.850537 
L 401.106351 367.973797 
L 401.940224 364.899358 
L 402.774097 363.11895 
L 403.60797 360.463955 
L 404.441843 348.47855 
L 405.275716 338.293924 
L 406.109589 356.657913 
L 406.943462 355.760821 
L 407.777335 333.307151 
L 408.611208 339.451568 
L 409.445081 306.07449 
L 410.278954 304.557351 
L 411.112827 322.557131 
L 411.9467 326.555879 
L 412.780573 341.044564 
L 413.614446 337.479286 
L 414.448319 316.770327 
L 415.282192 326.707593 
L 416.116065 315.556615 
L 416.949938 310.701767 
L 418.617684 333.914007 
L 419.451557 343.092703 
L 420.28543 341.120421 
L 421.119303 316.163471 
L 421.953176 287.868812 
L 422.787049 275.959264 
L 423.620922 316.315185 
L 425.288667 273.607697 
L 426.956413 252.964701 
L 427.790286 281.181419 
L 428.624159 242.202902 
L 429.458032 278.917687 
L 430.291905 300.764501 
L 431.125778 302.191992 
L 432.793524 362.512094 
L 433.627397 362.132809 
L 434.46127 353.864396 
L 435.295143 337.403429 
L 436.129016 312.522335 
L 436.962889 338.920569 
L 437.796762 326.328308 
L 438.630635 348.47855 
L 439.464508 305.846919 
L 440.298381 333.762293 
L 441.132254 334.293292 
L 441.966127 312.674049 
L 442.8 392.475606 
L 443.633873 385.951905 
L 445.301619 341.803134 
L 446.135492 327.921305 
L 446.969365 299.474932 
L 447.803238 313.66019 
L 448.637111 297.426793 
L 449.470984 352.726541 
L 450.304857 380.186773 
L 451.13873 361.450096 
L 451.972603 363.877519 
L 452.806476 338.313713 
L 453.640349 299.930074 
L 454.474222 284.986246 
L 455.308095 266.097855 
L 456.141968 277.021262 
L 456.975841 284.303533 
L 457.809714 295.606225 
L 458.643587 284.427663 
L 459.47746 282.179538 
L 460.311333 296.819937 
L 461.145205 328.073019 
L 461.979078 305.08835 
L 462.812951 318.970179 
L 463.646824 300.688644 
L 464.480697 298.033649 
L 465.31457 288.551525 
L 466.148443 309.715626 
L 466.982316 335.734575 
L 468.650062 361.753524 
L 469.483935 344.989128 
L 470.317808 331.107298 
L 471.151681 331.714154 
L 471.985554 353.864396 
L 472.819427 368.884081 
L 473.6533 350.602546 
L 474.487173 351.285259 
L 475.321046 345.595984 
L 476.154919 351.51283 
L 476.988792 359.250243 
L 477.822665 344.306415 
L 478.656538 359.022672 
L 479.490411 350.905974 
L 480.324284 352.49897 
L 481.158157 328.30059 
L 481.99203 341.347992 
L 482.825903 324.50774 
L 483.659776 336.11386 
L 484.493649 332.245153 
L 485.327522 321.625174 
L 486.161395 316.997898 
L 486.995268 337.100001 
L 488.663014 362.056952 
L 489.496887 355.002251 
L 491.164633 325.797309 
L 491.998506 331.638297 
L 492.832379 312.14305 
L 493.666252 296.061367 
L 494.500125 349.312977 
L 495.333998 346.582125 
L 496.16787 331.56244 
L 497.001743 340.134281 
L 497.835616 318.742608 
L 498.669489 351.285259 
L 499.503362 355.836678 
L 500.337235 352.802398 
L 501.171108 348.933692 
L 502.004981 334.824291 
L 502.838854 327.238592 
L 503.672727 327.693734 
L 504.5066 337.251715 
L 505.340473 354.926394 
L 506.174346 366.456657 
L 507.008219 365.62223 
L 507.842092 369.263366 
L 508.675965 368.125511 
L 509.509838 329.438444 
L 511.177584 344.533986 
L 512.011457 310.246625 
L 512.84533 322.383744 
L 513.679203 381.476342 
L 514.513076 356.519391 
L 515.346949 354.77468 
L 516.180822 361.450096 
L 517.014695 364.029233 
L 517.848568 358.643387 
L 518.682441 376.46978 
L 519.516314 380.035059 
L 520.350187 382.53834 
L 521.18406 330.500442 
L 522.017933 314.41876 
L 522.851806 332.093439 
L 523.685679 359.401957 
L 524.519552 362.663808 
L 525.353425 336.569002 
L 526.187298 363.801662 
L 527.021171 372.44936 
L 527.855044 360.919097 
L 528.688917 358.795101 
L 529.52279 354.622966 
L 530.356663 353.864396 
L 531.190535 349.692262 
L 532.024408 325.493881 
L 532.858281 342.865132 
L 533.692154 355.002251 
L 534.526027 356.367677 
L 535.3599 354.01611 
L 536.193773 345.975269 
L 537.027646 323.142314 
L 537.861519 349.009549 
L 538.695392 343.775416 
L 539.529265 348.630264 
L 540.363138 344.458129 
L 541.197011 323.142314 
L 542.030884 292.040947 
L 542.864757 284.606961 
L 543.69863 293.937371 
L 544.532503 290.296236 
L 545.366376 334.445006 
L 546.200249 327.769591 
L 547.034122 315.404901 
L 547.867995 325.418024 
L 548.701868 354.395395 
L 549.535741 359.932956 
L 550.369614 385.041621 
L 551.203487 387.31733 
L 552.03736 384.81405 
L 552.871233 381.0212 
L 553.705106 381.476342 
L 554.538979 373.9665 
L 555.372852 383.29691 
L 556.206725 388.151757 
L 557.040598 378.897204 
L 557.874471 377.304207 
L 558.708344 379.276489 
L 559.542217 375.938781 
L 560.37609 377.683492 
L 561.209963 378.062777 
L 562.043836 386.103619 
L 562.877709 374.72507 
L 563.711582 380.186773 
L 564.545455 371.842504 
L 565.379328 371.842504 
L 566.2132 366.001515 
L 567.047073 370.704649 
L 567.880946 368.428939 
L 568.714819 373.27295 
L 569.548692 388.151757 
L 570.382565 374.042357 
L 571.216438 378.821347 
L 572.050311 374.800927 
L 572.884184 344.306415 
L 573.718057 347.947551 
L 574.55193 369.111652 
L 576.219676 378.897204 
L 577.053549 388.682756 
L 577.887422 391.034323 
L 578.721295 387.089759 
L 579.555168 377.683492 
L 580.389041 371.842504 
L 581.222914 368.201368 
L 582.056787 369.187509 
L 582.89066 368.201368 
L 583.724533 365.925658 
L 584.558406 363.11895 
L 585.392279 365.394659 
L 586.226152 353.712682 
L 587.060025 359.857099 
L 587.893898 338.768855 
L 588.727771 344.761557 
L 589.561644 347.871694 
L 590.395517 361.222525 
L 591.22939 378.74549 
L 592.063263 361.374239 
L 592.897136 367.442798 
L 593.731009 367.973797 
L 594.564882 369.642651 
L 595.398755 362.36038 
L 596.232628 366.491138 
L 597.066501 373.359644 
L 597.900374 384.358908 
L 598.734247 382.53834 
L 599.56812 372.070075 
L 600.401993 370.401221 
L 601.235866 376.242209 
L 602.069738 377.835206 
L 602.903611 378.593776 
L 603.737484 365.925658 
L 604.571357 361.981095 
L 605.40523 359.857099 
L 606.239103 367.746226 
L 607.072976 358.946815 
L 607.906849 358.188245 
L 608.740722 372.980359 
L 609.574595 374.194071 
L 611.242341 351.51283 
L 612.076214 343.471988 
L 612.910087 325.569738 
L 613.74396 311.38448 
L 614.577833 333.307151 
L 615.411706 337.934428 
L 616.245579 315.025616 
L 617.079452 315.860043 
L 617.913325 319.804606 
L 618.747198 324.659454 
L 619.581071 334.065721 
L 620.414944 331.107298 
L 621.248817 307.136488 
L 622.08269 344.989128 
L 622.916563 318.287466 
L 623.750436 306.07449 
L 624.584309 319.880463 
L 625.418182 352.726541 
L 626.252055 365.242945 
L 627.085928 383.903766 
L 627.919801 377.759349 
L 629.587547 381.400485 
L 631.255293 371.311505 
L 632.089166 380.26263 
L 633.756912 362.587951 
L 635.424658 376.393923 
L 636.258531 373.056216 
L 637.092403 384.358908 
L 638.760149 379.807488 
L 639.594022 374.269928 
L 640.427895 377.152493 
L 641.261768 385.193335 
L 642.929514 374.042357 
L 643.763387 376.924922 
L 644.59726 373.663072 
L 645.431133 376.242209 
L 646.265006 374.952641 
L 647.098879 378.669633 
L 647.932752 375.331925 
L 648.766625 374.345785 
L 649.600498 378.290348 
L 650.434371 370.097793 
L 651.268244 369.870222 
L 652.102117 370.628792 
L 652.93599 361.905238 
L 653.769863 361.753524 
L 654.603736 344.230558 
L 655.437609 338.768855 
L 656.271482 350.299118 
L 657.105355 371.918361 
L 657.939228 354.77468 
L 658.773101 366.835942 
L 659.606974 349.085406 
L 660.440847 353.409254 
L 661.27472 375.180211 
L 662.108593 365.015374 
L 662.942466 369.263366 
L 663.776339 376.697351 
L 664.610212 371.766647 
L 665.444085 365.015374 
L 666.277958 362.815522 
L 667.945704 341.878991 
L 668.779577 344.6857 
L 669.61345 337.782714 
L 670.447323 320.108034 
L 671.281196 321.625174 
L 672.115068 350.374975 
L 672.948941 355.760821 
L 673.782814 351.361116 
L 674.616687 355.229822 
L 675.45056 354.319538 
L 676.284433 361.829381 
L 677.118306 366.456657 
L 677.952179 368.65651 
L 678.786052 346.20284 
L 679.619925 311.720418 
L 680.453798 330.272871 
L 681.287671 354.091967 
L 682.121544 345.671841 
L 682.955417 301.371357 
L 683.78929 300.157645 
L 684.623163 322.383744 
L 685.457036 328.831588 
L 686.290909 311.915479 
L 687.124782 324.735311 
L 687.958655 329.362587 
L 688.792528 340.968707 
L 689.626401 337.782714 
L 690.460274 322.004459 
L 691.294147 329.741872 
L 692.12802 323.445742 
L 692.961893 323.597456 
L 693.795766 356.312508 
L 694.629639 326.753107 
L 695.463512 362.284523 
L 696.297385 383.221053 
L 697.131258 377.98692 
L 697.965131 379.731631 
L 698.799004 368.201368 
L 699.632877 373.814786 
L 700.46675 375.440293 
L 701.300623 376.014638 
L 702.134496 386.710474 
L 702.968369 381.248771 
L 703.802242 402.109444 
L 704.636115 341.499706 
L 705.469988 323.142314 
L 706.303861 330.652156 
L 707.137733 334.141578 
L 707.971606 327.086878 
L 708.805479 328.831588 
L 709.639352 325.721452 
L 710.473225 325.721452 
L 711.307098 347.954447 
L 712.140971 334.051929 
L 712.974844 366.573891 
L 713.808717 361.525953 
L 714.64259 336.948287 
L 715.476463 357.471052 
L 716.310336 344.230558 
L 717.144209 316.09451 
L 717.978082 330.907312 
L 718.811955 334.134682 
L 719.645828 318.080584 
L 720.479701 315.266979 
L 721.313574 297.806078 
L 722.147447 356.89178 
L 722.98132 350.354286 
L 723.815193 352.836879 
L 724.649066 333.80367 
L 725.482939 317.418559 
L 726.316812 314.108436 
L 727.150685 320.728682 
L 727.984558 334.548447 
L 728.818431 326.273139 
L 729.652304 332.231361 
L 730.486177 335.541484 
L 731.32005 320.645929 
L 732.153923 277.035054 
L 732.987796 274.469709 
L 733.821669 319.073621 
L 734.655542 335.127719 
L 735.489415 330.079781 
L 736.323288 327.514435 
L 737.157161 349.030237 
L 737.991034 340.407366 
L 738.824907 327.928201 
L 739.65878 329.914275 
L 740.492653 304.757337 
L 741.326526 288.289474 
L 742.160399 323.707793 
L 742.994271 309.308757 
L 743.828144 324.783583 
L 745.49589 283.241535 
L 746.329763 305.750374 
L 747.163636 294.744214 
L 747.163636 294.744214 
" style="fill:none;stroke:#1f77b4;stroke-linecap:square;stroke-width:1.5;"/>
   </g>
   <g id="line2d_16">
    <path clip-path="url(#p41e02ae048)" d="M 138.436364 327.072908 
L 139.270237 345.598104 
L 140.10411 338.787422 
L 140.937983 350.589912 
L 141.771856 359.605467 
L 142.605729 342.699088 
L 143.439601 341.670627 
L 144.273474 326.93513 
L 145.107347 308.786989 
L 145.94122 285.205445 
L 146.775093 295.464652 
L 147.608966 280.858604 
L 148.442839 263.486032 
L 149.276712 296.126348 
L 150.110585 306.64413 
L 151.778331 254.100327 
L 152.612204 284.375904 
L 153.446077 267.811626 
L 155.113823 273.795805 
L 155.947696 278.222361 
L 156.781569 328.961345 
L 157.615442 344.898442 
L 158.449315 324.743327 
L 159.283188 292.409175 
L 160.950934 342.907111 
L 161.784807 233.708757 
L 162.61868 98.476198 
L 163.452553 337.948483 
L 164.286426 278.82323 
L 165.120299 332.042546 
L 165.954172 336.791196 
L 166.788045 326.858719 
L 167.621918 337.189294 
L 168.455791 340.687385 
L 169.289664 333.480264 
L 170.123537 344.635906 
L 170.95741 351.544046 
L 171.791283 323.399506 
L 172.625156 307.346759 
L 173.459029 303.737478 
L 174.292902 298.097739 
L 175.126775 301.570245 
L 175.960648 297.080687 
L 176.794521 327.141659 
L 177.628394 383.957789 
L 178.462267 396.624006 
L 179.296139 351.35241 
L 180.130012 342.970697 
L 180.963885 359.482288 
L 181.797758 330.794226 
L 182.631631 348.062138 
L 183.465504 322.788091 
L 184.299377 350.689137 
L 185.13325 354.56533 
L 185.967123 347.64989 
L 186.800996 338.49801 
L 187.634869 342.081943 
L 188.468742 343.047626 
L 190.136488 302.234532 
L 190.970361 312.031929 
L 191.804234 302.479111 
L 192.638107 302.460377 
L 193.47198 307.549587 
L 194.305853 299.472464 
L 195.139726 309.635432 
L 195.973599 301.760657 
L 196.807472 285.477123 
L 197.641345 279.395241 
L 198.475218 303.286852 
L 199.309091 344.559491 
L 200.142964 345.352448 
L 200.976837 337.480163 
L 201.81071 334.949469 
L 202.644583 318.022265 
L 203.478456 310.601436 
L 204.312329 290.12793 
L 205.146202 300.33748 
L 205.980075 331.687978 
L 206.813948 332.102272 
L 207.647821 336.21626 
L 208.481694 342.726598 
L 209.315567 319.945719 
L 210.14944 336.480028 
L 210.983313 329.01184 
L 211.817186 319.102396 
L 212.651059 305.057265 
L 213.484932 283.155626 
L 214.318804 286.033792 
L 215.152677 288.363798 
L 215.98655 327.342375 
L 216.820423 313.503885 
L 217.654296 317.443339 
L 218.488169 327.685538 
L 219.322042 308.594153 
L 220.155915 299.222139 
L 220.989788 363.050969 
L 221.823661 373.099252 
L 222.657534 348.274031 
L 223.491407 348.085228 
L 224.32528 386.361427 
L 225.159153 355.561881 
L 225.993026 344.308135 
L 226.826899 345.1818 
L 227.660772 347.746465 
L 228.494645 348.858132 
L 229.328518 363.491798 
L 230.162391 359.730215 
L 230.996264 373.665145 
L 231.830137 340.151561 
L 232.66401 320.586646 
L 233.497883 305.061009 
L 234.331756 327.596634 
L 235.165629 302.713723 
L 235.999502 311.242705 
L 236.833375 364.533326 
L 237.667248 367.111978 
L 238.501121 363.053804 
L 239.334994 352.915994 
L 240.168867 357.896059 
L 241.00274 368.946777 
L 241.836613 354.916342 
L 242.670486 367.182817 
L 243.504359 345.457647 
L 244.338232 348.419832 
L 245.172105 328.35795 
L 246.005978 335.77628 
L 246.839851 335.809877 
L 247.673724 346.755582 
L 248.507597 329.084015 
L 249.341469 293.825716 
L 250.175342 343.958132 
L 251.009215 322.966675 
L 251.843088 356.649549 
L 252.676961 359.673496 
L 253.510834 332.861572 
L 254.344707 324.477907 
L 255.17858 337.066141 
L 256.012453 327.685584 
L 256.846326 334.798531 
L 257.680199 314.35056 
L 258.514072 327.318038 
L 259.347945 318.57913 
L 260.181818 342.799395 
L 261.015691 311.199148 
L 261.849564 295.900198 
L 262.683437 343.002131 
L 263.51731 324.858074 
L 264.351183 357.302155 
L 265.185056 355.905694 
L 266.018929 339.593028 
L 266.852802 353.041165 
L 267.686675 357.233761 
L 268.520548 348.159422 
L 269.354421 327.05605 
L 270.188294 332.495652 
L 271.022167 321.214984 
L 271.85604 321.004711 
L 272.689913 355.278874 
L 273.523786 348.651865 
L 274.357659 351.895097 
L 275.191532 392.954222 
L 276.025405 357.104685 
L 276.859278 358.280121 
L 277.693151 349.744881 
L 278.527024 362.255147 
L 279.360897 356.799002 
L 280.19477 360.623735 
L 281.028643 368.72968 
L 281.862516 365.098409 
L 282.696389 351.222696 
L 283.530262 346.922595 
L 284.364134 324.954488 
L 285.198007 370.139158 
L 286.03188 359.651872 
L 286.865753 376.370648 
L 287.699626 371.688622 
L 288.533499 371.127899 
L 290.201245 356.752964 
L 291.035118 355.451831 
L 291.868991 342.930082 
L 292.702864 391.588903 
L 293.536737 394.58625 
L 294.37061 394.928963 
L 295.204483 392.599799 
L 296.038356 381.993066 
L 296.872229 377.115247 
L 297.706102 377.6943 
L 298.539975 391.9635 
L 299.373848 396.479896 
L 300.207721 394.105031 
L 301.041594 395.690256 
L 301.875467 372.305182 
L 302.70934 388.456387 
L 303.543213 386.72264 
L 305.210959 393.791491 
L 306.044832 368.192614 
L 306.878705 386.680258 
L 307.712578 380.892134 
L 308.546451 380.005157 
L 309.380324 375.602792 
L 310.214197 378.017558 
L 311.04807 379.710839 
L 311.881943 379.668163 
L 312.715816 377.95156 
L 313.549689 381.50394 
L 314.383562 381.382944 
L 315.217435 349.23772 
L 316.051308 357.899486 
L 316.885181 350.725846 
L 317.719054 340.427444 
L 318.552927 346.352159 
L 319.3868 324.769434 
L 320.220672 356.224542 
L 321.054545 356.351493 
L 321.888418 378.705155 
L 322.722291 372.483661 
L 323.556164 355.137668 
L 324.390037 332.634532 
L 325.22391 324.294497 
L 326.891656 345.672161 
L 327.725529 352.411477 
L 328.559402 363.338212 
L 329.393275 337.261688 
L 330.227148 315.672233 
L 331.061021 320.353017 
L 331.894894 356.90288 
L 332.728767 351.743526 
L 334.396513 375.577876 
L 335.230386 367.624459 
L 336.064259 345.023696 
L 336.898132 344.24256 
L 337.732005 312.283659 
L 338.565878 317.298496 
L 339.399751 328.853947 
L 340.233624 322.505998 
L 341.067497 323.658514 
L 343.569116 280.632478 
L 344.402989 309.479452 
L 345.236862 318.782153 
L 346.070735 341.525669 
L 346.904608 334.055122 
L 347.738481 321.029647 
L 348.572354 315.680981 
L 350.2401 334.026932 
L 351.073973 350.350242 
L 351.907846 349.508747 
L 352.741719 351.019021 
L 353.575592 327.171165 
L 354.409465 367.044823 
L 355.243337 341.138369 
L 356.07721 330.105374 
L 357.744956 348.967506 
L 358.578829 337.074145 
L 359.412702 330.943014 
L 360.246575 333.934178 
L 361.080448 310.972169 
L 361.914321 296.735685 
L 362.748194 321.655672 
L 363.582067 338.84871 
L 364.41594 290.293396 
L 365.249813 334.545558 
L 366.083686 343.541775 
L 366.917559 337.028148 
L 367.751432 358.272287 
L 368.585305 361.596444 
L 369.419178 358.390729 
L 370.253051 327.177876 
L 371.086924 314.407072 
L 371.920797 315.089658 
L 372.75467 341.046706 
L 373.588543 336.391279 
L 374.422416 351.254832 
L 375.256289 350.213026 
L 376.090162 347.482135 
L 376.924035 334.679833 
L 377.757908 342.869062 
L 378.591781 358.532564 
L 379.425654 341.001431 
L 380.259527 330.303207 
L 381.0934 340.517755 
L 381.927273 333.453105 
L 382.761146 347.563475 
L 383.595019 346.754338 
L 384.428892 350.503565 
L 385.262765 402.483913 
L 386.096638 350.14885 
L 386.930511 373.35438 
L 387.764384 413.410576 
L 388.598257 413.418061 
L 389.43213 403.60576 
L 390.266002 402.278765 
L 391.099875 373.991693 
L 391.933748 405.289231 
L 392.767621 413.448732 
L 393.601494 391.31833 
L 394.435367 387.361568 
L 395.26924 386.589958 
L 396.103113 382.909385 
L 396.936986 366.239022 
L 397.770859 333.373773 
L 398.604732 340.414959 
L 399.438605 365.000488 
L 400.272478 334.856087 
L 401.106351 363.141619 
L 401.940224 370.963249 
L 402.774097 334.924034 
L 403.60797 337.591189 
L 404.441843 335.799944 
L 405.275716 340.146753 
L 406.109589 329.714122 
L 406.943462 329.505781 
L 407.777335 318.989087 
L 408.611208 328.611458 
L 409.445081 289.103257 
L 410.278954 302.905735 
L 411.112827 285.908463 
L 411.9467 305.480804 
L 412.780573 334.79774 
L 413.614446 331.591715 
L 414.448319 316.89805 
L 415.282192 314.931688 
L 416.116065 308.810854 
L 416.949938 299.247922 
L 417.783811 317.909581 
L 418.617684 320.658756 
L 419.451557 327.217455 
L 420.28543 340.717953 
L 421.119303 323.320843 
L 421.953176 299.765202 
L 422.787049 241.483452 
L 423.620922 301.851644 
L 425.288667 234.560628 
L 426.12254 246.450197 
L 426.956413 230.100446 
L 427.790286 259.213378 
L 428.624159 234.216221 
L 429.458032 246.971209 
L 430.291905 298.703461 
L 431.125778 276.148411 
L 431.959651 312.126778 
L 432.793524 340.195246 
L 433.627397 355.652025 
L 434.46127 346.473649 
L 435.295143 330.036077 
L 436.129016 282.203162 
L 436.962889 327.698435 
L 437.796762 310.755843 
L 438.630635 326.649612 
L 439.464508 306.300875 
L 440.298381 300.576016 
L 441.132254 345.324379 
L 441.966127 288.697927 
L 442.8 393.179476 
L 443.633873 370.684951 
L 444.467746 360.323346 
L 445.301619 362.021826 
L 446.135492 305.82137 
L 447.803238 284.460782 
L 448.637111 278.968957 
L 449.470984 309.579773 
L 450.304857 353.144137 
L 451.13873 339.483385 
L 451.972603 346.461226 
L 452.806476 328.223558 
L 453.640349 305.812615 
L 454.474222 295.326834 
L 455.308095 259.595541 
L 456.141968 270.125777 
L 456.975841 314.17538 
L 457.809714 281.942808 
L 459.47746 258.042805 
L 460.311333 256.761434 
L 461.145205 295.157322 
L 461.979078 309.426773 
L 462.812951 303.137095 
L 463.646824 309.880663 
L 464.480697 280.602153 
L 465.31457 266.143448 
L 466.148443 325.528637 
L 466.982316 308.795249 
L 467.816189 340.367203 
L 468.650062 352.198374 
L 469.483935 335.323505 
L 470.317808 327.520931 
L 471.151681 324.761224 
L 471.985554 336.578885 
L 472.819427 364.979552 
L 473.6533 349.234622 
L 474.487173 347.704128 
L 475.321046 326.923605 
L 476.154919 320.217335 
L 476.988792 327.76402 
L 477.822665 324.593956 
L 478.656538 348.979706 
L 479.490411 337.837391 
L 480.324284 348.474002 
L 481.158157 324.838165 
L 481.99203 341.129765 
L 482.825903 326.756621 
L 483.659776 335.929252 
L 485.327522 324.120827 
L 486.161395 320.749258 
L 486.995268 316.495447 
L 487.829141 342.787147 
L 488.663014 340.734516 
L 489.496887 329.246363 
L 490.33076 306.878869 
L 491.164633 295.606144 
L 491.998506 306.13815 
L 492.832379 297.58587 
L 493.666252 291.519617 
L 494.500125 298.5742 
L 495.333998 325.974068 
L 496.16787 285.108623 
L 497.001743 308.624541 
L 497.835616 297.723927 
L 498.669489 319.148023 
L 499.503362 344.593302 
L 500.337235 317.18394 
L 501.171108 328.057132 
L 502.004981 321.286385 
L 502.838854 318.907549 
L 503.672727 324.732105 
L 504.5066 323.013964 
L 505.340473 338.206804 
L 506.174346 355.672308 
L 507.008219 340.510271 
L 507.842092 351.138595 
L 508.675965 359.581071 
L 509.509838 314.96578 
L 510.343711 312.192743 
L 511.177584 322.291825 
L 512.011457 286.439047 
L 512.84533 282.455677 
L 513.679203 369.067057 
L 514.513076 324.541127 
L 515.346949 333.023875 
L 516.180822 335.641063 
L 517.014695 349.676342 
L 517.848568 340.373897 
L 518.682441 357.536256 
L 519.516314 367.079598 
L 520.350187 367.972021 
L 521.18406 320.088552 
L 522.017933 280.083829 
L 522.851806 324.833038 
L 523.685679 337.962471 
L 524.519552 338.879175 
L 525.353425 308.785848 
L 526.187298 346.373258 
L 527.021171 360.431516 
L 527.855044 346.026841 
L 528.688917 357.45007 
L 529.52279 339.399048 
L 530.356663 318.653748 
L 531.190535 331.128482 
L 532.024408 318.693154 
L 532.858281 316.407346 
L 534.526027 328.985521 
L 535.3599 341.761612 
L 536.193773 340.193497 
L 537.027646 330.94108 
L 537.861519 331.139778 
L 538.695392 316.190943 
L 539.529265 316.317491 
L 540.363138 314.613283 
L 541.197011 304.489168 
L 542.030884 269.357445 
L 543.69863 286.742721 
L 544.532503 252.609918 
L 545.366376 303.77019 
L 546.200249 306.11213 
L 547.034122 307.372459 
L 547.867995 304.339943 
L 549.535741 352.611831 
L 550.369614 360.027709 
L 551.203487 372.06382 
L 552.03736 375.719548 
L 552.871233 360.475699 
L 553.705106 367.235625 
L 554.538979 367.709193 
L 555.372852 378.548695 
L 556.206725 380.021829 
L 557.040598 368.127904 
L 557.874471 368.571279 
L 558.708344 370.377957 
L 559.542217 359.558682 
L 560.37609 374.133477 
L 561.209963 375.878104 
L 562.043836 379.56035 
L 562.877709 356.286786 
L 563.711582 356.087453 
L 565.379328 370.611131 
L 566.2132 361.663551 
L 567.047073 354.231741 
L 567.880946 361.205788 
L 568.714819 330.52557 
L 569.548692 337.701802 
L 570.382565 331.734801 
L 571.216438 378.355723 
L 572.050311 348.029882 
L 572.884184 326.851636 
L 573.718057 335.840621 
L 574.55193 355.414095 
L 575.385803 356.130346 
L 576.219676 349.129059 
L 577.053549 374.702133 
L 577.887422 377.315607 
L 578.721295 359.761542 
L 579.555168 345.437705 
L 580.389041 355.271808 
L 581.222914 354.53636 
L 582.056787 363.656693 
L 582.89066 362.556694 
L 583.724533 363.930732 
L 584.558406 363.609796 
L 585.392279 349.514432 
L 586.226152 345.66812 
L 587.893898 300.325343 
L 588.727771 310.566686 
L 589.561644 316.724441 
L 590.395517 324.960099 
L 591.22939 350.743305 
L 592.063263 324.516502 
L 592.897136 335.574948 
L 593.731009 343.882677 
L 594.564882 355.250016 
L 595.398755 357.682445 
L 596.232628 349.058276 
L 597.066501 364.07228 
L 597.900374 372.738859 
L 598.734247 369.537592 
L 599.56812 363.629888 
L 600.401993 361.004378 
L 601.235866 377.802695 
L 602.069738 371.454977 
L 602.903611 369.063995 
L 603.737484 364.157102 
L 604.571357 354.015452 
L 605.40523 359.782713 
L 606.239103 366.837236 
L 607.072976 338.297377 
L 607.906849 331.511231 
L 608.740722 335.897425 
L 609.574595 334.785042 
L 610.408468 326.26724 
L 611.242341 314.68655 
L 612.076214 332.747986 
L 612.910087 335.406603 
L 613.74396 303.841758 
L 614.577833 300.470969 
L 615.411706 326.972677 
L 616.245579 317.483317 
L 617.079452 290.604971 
L 617.913325 282.837299 
L 618.747198 292.349569 
L 619.581071 312.832088 
L 620.414944 292.200547 
L 621.248817 291.396202 
L 622.08269 307.978346 
L 622.916563 295.698864 
L 623.750436 286.652494 
L 624.584309 281.878829 
L 625.418182 327.514262 
L 626.252055 317.225955 
L 627.085928 351.118785 
L 627.919801 345.02761 
L 628.753674 351.438715 
L 629.587547 368.894482 
L 630.42142 350.17227 
L 631.255293 344.394903 
L 632.089166 340.826283 
L 632.923039 343.311855 
L 633.756912 354.115048 
L 634.590785 356.602828 
L 635.424658 341.041374 
L 636.258531 364.710438 
L 637.092403 380.761041 
L 637.926276 372.996516 
L 638.760149 377.089747 
L 639.594022 364.452681 
L 640.427895 366.898856 
L 641.261768 379.06833 
L 642.095641 348.151486 
L 642.929514 351.984576 
L 643.763387 342.291787 
L 644.59726 361.9655 
L 645.431133 344.492384 
L 646.265006 344.170474 
L 647.098879 370.181565 
L 647.932752 371.910414 
L 648.766625 370.674314 
L 649.600498 363.292861 
L 650.434371 359.139594 
L 651.268244 357.09228 
L 652.102117 369.696921 
L 652.93599 355.87779 
L 654.603736 348.481754 
L 655.437609 325.858923 
L 656.271482 316.781346 
L 657.105355 338.079976 
L 657.939228 341.453478 
L 658.773101 335.880905 
L 659.606974 336.012063 
L 660.440847 335.350296 
L 661.27472 351.172821 
L 662.108593 343.263047 
L 662.942466 343.321221 
L 663.776339 367.19231 
L 664.610212 342.003462 
L 665.444085 345.542989 
L 666.277958 360.830461 
L 667.111831 326.42509 
L 667.945704 335.926735 
L 668.779577 333.855781 
L 669.61345 322.822681 
L 670.447323 320.653993 
L 671.281196 303.045933 
L 672.115068 349.615122 
L 672.948941 325.612784 
L 673.782814 346.74016 
L 674.616687 342.834553 
L 675.45056 346.994318 
L 676.284433 327.101852 
L 677.118306 328.759424 
L 677.952179 333.349936 
L 678.786052 330.812844 
L 679.619925 298.509943 
L 680.453798 288.473102 
L 681.287671 313.6052 
L 682.121544 326.447922 
L 682.955417 300.689245 
L 683.78929 303.350083 
L 684.623163 290.058886 
L 685.457036 318.425225 
L 686.290909 303.42523 
L 687.124782 333.122057 
L 687.958655 296.145127 
L 688.792528 306.392441 
L 689.626401 308.686644 
L 690.460274 300.49084 
L 691.294147 312.022 
L 692.12802 315.315677 
L 692.961893 300.545016 
L 693.795766 316.941527 
L 694.629639 305.08768 
L 695.463512 325.096757 
L 696.297385 339.342016 
L 697.131258 364.170354 
L 697.965131 354.267204 
L 698.799004 341.803383 
L 699.632877 357.66176 
L 700.46675 358.580158 
L 701.300623 382.123084 
L 702.134496 391.050359 
L 702.968369 363.92839 
L 703.802242 379.549155 
L 704.636115 346.794481 
L 705.469988 325.132776 
L 706.303861 326.012723 
L 707.137733 332.015791 
L 707.971606 320.747632 
L 708.805479 311.632232 
L 709.639352 311.345045 
L 710.473225 302.749912 
L 711.307098 331.501363 
L 712.140971 310.304299 
L 712.974844 365.020167 
L 713.808717 358.786103 
L 714.64259 301.163744 
L 715.476463 321.154835 
L 716.310336 331.636512 
L 717.144209 307.440586 
L 717.978082 322.935785 
L 718.811955 330.141754 
L 719.645828 321.897576 
L 720.479701 336.705079 
L 721.313574 306.227187 
L 722.147447 337.208344 
L 722.98132 344.590899 
L 723.815193 344.805054 
L 724.649066 341.092588 
L 725.482939 312.926324 
L 726.316812 309.566733 
L 727.150685 301.050902 
L 727.984558 326.345849 
L 728.818431 323.223911 
L 729.652304 315.944789 
L 730.486177 340.801568 
L 731.32005 311.630231 
L 732.153923 263.342459 
L 732.987796 255.855915 
L 734.655542 325.701665 
L 735.489415 328.321462 
L 736.323288 304.339428 
L 737.157161 303.425262 
L 737.991034 312.418953 
L 738.824907 295.578908 
L 739.65878 313.230985 
L 740.492653 297.104103 
L 741.326526 287.102839 
L 742.160399 310.82564 
L 742.994271 270.817766 
L 743.828144 279.27504 
L 744.662017 282.175141 
L 745.49589 269.799609 
L 746.329763 273.152625 
L 747.163636 262.952747 
L 747.163636 262.952747 
" style="fill:none;stroke:#ff0000;stroke-dasharray:5.55,2.4;stroke-dashoffset:0;stroke-width:1.5;"/>
   </g>
   <g id="patch_3">
    <path d="M 108 460.8 
L 108 69.12 
" style="fill:none;stroke:#000000;stroke-linecap:square;stroke-linejoin:miter;stroke-width:0.8;"/>
   </g>
   <g id="patch_4">
    <path d="M 777.6 460.8 
L 777.6 69.12 
" style="fill:none;stroke:#000000;stroke-linecap:square;stroke-linejoin:miter;stroke-width:0.8;"/>
   </g>
   <g id="patch_5">
    <path d="M 108 460.8 
L 777.6 460.8 
" style="fill:none;stroke:#000000;stroke-linecap:square;stroke-linejoin:miter;stroke-width:0.8;"/>
   </g>
   <g id="patch_6">
    <path d="M 108 69.12 
L 777.6 69.12 
" style="fill:none;stroke:#000000;stroke-linecap:square;stroke-linejoin:miter;stroke-width:0.8;"/>
   </g>
   <g id="text_17">
    <!-- Macau residential 2020-2021 | Forecast vs Monitored | Support vector machine -->
    <g transform="translate(86.252344 63.12)scale(0.18 -0.18)">
     <defs>
      <path d="M 9.8125 72.90625 
L 24.515625 72.90625 
L 43.109375 23.296875 
L 61.8125 72.90625 
L 76.515625 72.90625 
L 76.515625 0 
L 66.890625 0 
L 66.890625 64.015625 
L 48.09375 14.015625 
L 38.1875 14.015625 
L 19.390625 64.015625 
L 19.390625 0 
L 9.8125 0 
z
" id="DejaVuSans-77"/>
      <path d="M 48.78125 52.59375 
L 48.78125 44.1875 
Q 44.96875 46.296875 41.140625 47.34375 
Q 37.3125 48.390625 33.40625 48.390625 
Q 24.65625 48.390625 19.8125 42.84375 
Q 14.984375 37.3125 14.984375 27.296875 
Q 14.984375 17.28125 19.8125 11.734375 
Q 24.65625 6.203125 33.40625 6.203125 
Q 37.3125 6.203125 41.140625 7.25 
Q 44.96875 8.296875 48.78125 10.40625 
L 48.78125 2.09375 
Q 45.015625 0.34375 40.984375 -0.53125 
Q 36.96875 -1.421875 32.421875 -1.421875 
Q 20.0625 -1.421875 12.78125 6.34375 
Q 5.515625 14.109375 5.515625 27.296875 
Q 5.515625 40.671875 12.859375 48.328125 
Q 20.21875 56 33.015625 56 
Q 37.15625 56 41.109375 55.140625 
Q 45.0625 54.296875 48.78125 52.59375 
z
" id="DejaVuSans-99"/>
      <path d="M 8.5 21.578125 
L 8.5 54.6875 
L 17.484375 54.6875 
L 17.484375 21.921875 
Q 17.484375 14.15625 20.5 10.265625 
Q 23.53125 6.390625 29.59375 6.390625 
Q 36.859375 6.390625 41.078125 11.03125 
Q 45.3125 15.671875 45.3125 23.6875 
L 45.3125 54.6875 
L 54.296875 54.6875 
L 54.296875 0 
L 45.3125 0 
L 45.3125 8.40625 
Q 42.046875 3.421875 37.71875 1 
Q 33.40625 -1.421875 27.6875 -1.421875 
Q 18.265625 -1.421875 13.375 4.4375 
Q 8.5 10.296875 8.5 21.578125 
z
M 31.109375 56 
z
" id="DejaVuSans-117"/>
      <path id="DejaVuSans-32"/>
      <path d="M 41.109375 46.296875 
Q 39.59375 47.171875 37.8125 47.578125 
Q 36.03125 48 33.890625 48 
Q 26.265625 48 22.1875 43.046875 
Q 18.109375 38.09375 18.109375 28.8125 
L 18.109375 0 
L 9.078125 0 
L 9.078125 54.6875 
L 18.109375 54.6875 
L 18.109375 46.1875 
Q 20.953125 51.171875 25.484375 53.578125 
Q 30.03125 56 36.53125 56 
Q 37.453125 56 38.578125 55.875 
Q 39.703125 55.765625 41.0625 55.515625 
z
" id="DejaVuSans-114"/>
      <path d="M 44.28125 53.078125 
L 44.28125 44.578125 
Q 40.484375 46.53125 36.375 47.5 
Q 32.28125 48.484375 27.875 48.484375 
Q 21.1875 48.484375 17.84375 46.4375 
Q 14.5 44.390625 14.5 40.28125 
Q 14.5 37.15625 16.890625 35.375 
Q 19.28125 33.59375 26.515625 31.984375 
L 29.59375 31.296875 
Q 39.15625 29.25 43.1875 25.515625 
Q 47.21875 21.78125 47.21875 15.09375 
Q 47.21875 7.46875 41.1875 3.015625 
Q 35.15625 -1.421875 24.609375 -1.421875 
Q 20.21875 -1.421875 15.453125 -0.5625 
Q 10.6875 0.296875 5.421875 2 
L 5.421875 11.28125 
Q 10.40625 8.6875 15.234375 7.390625 
Q 20.0625 6.109375 24.8125 6.109375 
Q 31.15625 6.109375 34.5625 8.28125 
Q 37.984375 10.453125 37.984375 14.40625 
Q 37.984375 18.0625 35.515625 20.015625 
Q 33.0625 21.96875 24.703125 23.78125 
L 21.578125 24.515625 
Q 13.234375 26.265625 9.515625 29.90625 
Q 5.8125 33.546875 5.8125 39.890625 
Q 5.8125 47.609375 11.28125 51.796875 
Q 16.75 56 26.8125 56 
Q 31.78125 56 36.171875 55.265625 
Q 40.578125 54.546875 44.28125 53.078125 
z
" id="DejaVuSans-115"/>
      <path d="M 9.421875 54.6875 
L 18.40625 54.6875 
L 18.40625 0 
L 9.421875 0 
z
M 9.421875 75.984375 
L 18.40625 75.984375 
L 18.40625 64.59375 
L 9.421875 64.59375 
z
" id="DejaVuSans-105"/>
      <path d="M 45.40625 46.390625 
L 45.40625 75.984375 
L 54.390625 75.984375 
L 54.390625 0 
L 45.40625 0 
L 45.40625 8.203125 
Q 42.578125 3.328125 38.25 0.953125 
Q 33.9375 -1.421875 27.875 -1.421875 
Q 17.96875 -1.421875 11.734375 6.484375 
Q 5.515625 14.40625 5.515625 27.296875 
Q 5.515625 40.1875 11.734375 48.09375 
Q 17.96875 56 27.875 56 
Q 33.9375 56 38.25 53.625 
Q 42.578125 51.265625 45.40625 46.390625 
z
M 14.796875 27.296875 
Q 14.796875 17.390625 18.875 11.75 
Q 22.953125 6.109375 30.078125 6.109375 
Q 37.203125 6.109375 41.296875 11.75 
Q 45.40625 17.390625 45.40625 27.296875 
Q 45.40625 37.203125 41.296875 42.84375 
Q 37.203125 48.484375 30.078125 48.484375 
Q 22.953125 48.484375 18.875 42.84375 
Q 14.796875 37.203125 14.796875 27.296875 
z
" id="DejaVuSans-100"/>
      <path d="M 54.890625 33.015625 
L 54.890625 0 
L 45.90625 0 
L 45.90625 32.71875 
Q 45.90625 40.484375 42.875 44.328125 
Q 39.84375 48.1875 33.796875 48.1875 
Q 26.515625 48.1875 22.3125 43.546875 
Q 18.109375 38.921875 18.109375 30.90625 
L 18.109375 0 
L 9.078125 0 
L 9.078125 54.6875 
L 18.109375 54.6875 
L 18.109375 46.1875 
Q 21.34375 51.125 25.703125 53.5625 
Q 30.078125 56 35.796875 56 
Q 45.21875 56 50.046875 50.171875 
Q 54.890625 44.34375 54.890625 33.015625 
z
" id="DejaVuSans-110"/>
      <path d="M 9.421875 75.984375 
L 18.40625 75.984375 
L 18.40625 0 
L 9.421875 0 
z
" id="DejaVuSans-108"/>
      <path d="M 21 76.421875 
L 21 -23.578125 
L 12.703125 -23.578125 
L 12.703125 76.421875 
z
" id="DejaVuSans-124"/>
      <path d="M 9.8125 72.90625 
L 51.703125 72.90625 
L 51.703125 64.59375 
L 19.671875 64.59375 
L 19.671875 43.109375 
L 48.578125 43.109375 
L 48.578125 34.8125 
L 19.671875 34.8125 
L 19.671875 0 
L 9.8125 0 
z
" id="DejaVuSans-70"/>
      <path d="M 30.609375 48.390625 
Q 23.390625 48.390625 19.1875 42.75 
Q 14.984375 37.109375 14.984375 27.296875 
Q 14.984375 17.484375 19.15625 11.84375 
Q 23.34375 6.203125 30.609375 6.203125 
Q 37.796875 6.203125 41.984375 11.859375 
Q 46.1875 17.53125 46.1875 27.296875 
Q 46.1875 37.015625 41.984375 42.703125 
Q 37.796875 48.390625 30.609375 48.390625 
z
M 30.609375 56 
Q 42.328125 56 49.015625 48.375 
Q 55.71875 40.765625 55.71875 27.296875 
Q 55.71875 13.875 49.015625 6.21875 
Q 42.328125 -1.421875 30.609375 -1.421875 
Q 18.84375 -1.421875 12.171875 6.21875 
Q 5.515625 13.875 5.515625 27.296875 
Q 5.515625 40.765625 12.171875 48.375 
Q 18.84375 56 30.609375 56 
z
" id="DejaVuSans-111"/>
      <path d="M 2.984375 54.6875 
L 12.5 54.6875 
L 29.59375 8.796875 
L 46.6875 54.6875 
L 56.203125 54.6875 
L 35.6875 0 
L 23.484375 0 
z
" id="DejaVuSans-118"/>
      <path d="M 53.515625 70.515625 
L 53.515625 60.890625 
Q 47.90625 63.578125 42.921875 64.890625 
Q 37.9375 66.21875 33.296875 66.21875 
Q 25.25 66.21875 20.875 63.09375 
Q 16.5 59.96875 16.5 54.203125 
Q 16.5 49.359375 19.40625 46.890625 
Q 22.3125 44.4375 30.421875 42.921875 
L 36.375 41.703125 
Q 47.40625 39.59375 52.65625 34.296875 
Q 57.90625 29 57.90625 20.125 
Q 57.90625 9.515625 50.796875 4.046875 
Q 43.703125 -1.421875 29.984375 -1.421875 
Q 24.8125 -1.421875 18.96875 -0.25 
Q 13.140625 0.921875 6.890625 3.21875 
L 6.890625 13.375 
Q 12.890625 10.015625 18.65625 8.296875 
Q 24.421875 6.59375 29.984375 6.59375 
Q 38.421875 6.59375 43.015625 9.90625 
Q 47.609375 13.234375 47.609375 19.390625 
Q 47.609375 24.75 44.3125 27.78125 
Q 41.015625 30.8125 33.5 32.328125 
L 27.484375 33.5 
Q 16.453125 35.6875 11.515625 40.375 
Q 6.59375 45.0625 6.59375 53.421875 
Q 6.59375 63.09375 13.40625 68.65625 
Q 20.21875 74.21875 32.171875 74.21875 
Q 37.3125 74.21875 42.625 73.28125 
Q 47.953125 72.359375 53.515625 70.515625 
z
" id="DejaVuSans-83"/>
      <path d="M 54.890625 33.015625 
L 54.890625 0 
L 45.90625 0 
L 45.90625 32.71875 
Q 45.90625 40.484375 42.875 44.328125 
Q 39.84375 48.1875 33.796875 48.1875 
Q 26.515625 48.1875 22.3125 43.546875 
Q 18.109375 38.921875 18.109375 30.90625 
L 18.109375 0 
L 9.078125 0 
L 9.078125 75.984375 
L 18.109375 75.984375 
L 18.109375 46.1875 
Q 21.34375 51.125 25.703125 53.5625 
Q 30.078125 56 35.796875 56 
Q 45.21875 56 50.046875 50.171875 
Q 54.890625 44.34375 54.890625 33.015625 
z
" id="DejaVuSans-104"/>
     </defs>
     <use xlink:href="#DejaVuSans-77"/>
     <use x="86.279297" xlink:href="#DejaVuSans-97"/>
     <use x="147.558594" xlink:href="#DejaVuSans-99"/>
     <use x="202.539062" xlink:href="#DejaVuSans-97"/>
     <use x="263.818359" xlink:href="#DejaVuSans-117"/>
     <use x="327.197266" xlink:href="#DejaVuSans-32"/>
     <use x="358.984375" xlink:href="#DejaVuSans-114"/>
     <use x="397.847656" xlink:href="#DejaVuSans-101"/>
     <use x="459.371094" xlink:href="#DejaVuSans-115"/>
     <use x="511.470703" xlink:href="#DejaVuSans-105"/>
     <use x="539.253906" xlink:href="#DejaVuSans-100"/>
     <use x="602.730469" xlink:href="#DejaVuSans-101"/>
     <use x="664.253906" xlink:href="#DejaVuSans-110"/>
     <use x="727.632812" xlink:href="#DejaVuSans-116"/>
     <use x="766.841797" xlink:href="#DejaVuSans-105"/>
     <use x="794.625" xlink:href="#DejaVuSans-97"/>
     <use x="855.904297" xlink:href="#DejaVuSans-108"/>
     <use x="883.6875" xlink:href="#DejaVuSans-32"/>
     <use x="915.474609" xlink:href="#DejaVuSans-50"/>
     <use x="979.097656" xlink:href="#DejaVuSans-48"/>
     <use x="1042.720703" xlink:href="#DejaVuSans-50"/>
     <use x="1106.34375" xlink:href="#DejaVuSans-48"/>
     <use x="1169.966797" xlink:href="#DejaVuSans-45"/>
     <use x="1206.050781" xlink:href="#DejaVuSans-50"/>
     <use x="1269.673828" xlink:href="#DejaVuSans-48"/>
     <use x="1333.296875" xlink:href="#DejaVuSans-50"/>
     <use x="1396.919922" xlink:href="#DejaVuSans-49"/>
     <use x="1460.542969" xlink:href="#DejaVuSans-32"/>
     <use x="1492.330078" xlink:href="#DejaVuSans-124"/>
     <use x="1526.021484" xlink:href="#DejaVuSans-32"/>
     <use x="1557.808594" xlink:href="#DejaVuSans-70"/>
     <use x="1611.703125" xlink:href="#DejaVuSans-111"/>
     <use x="1672.884766" xlink:href="#DejaVuSans-114"/>
     <use x="1711.748047" xlink:href="#DejaVuSans-101"/>
     <use x="1773.271484" xlink:href="#DejaVuSans-99"/>
     <use x="1828.251953" xlink:href="#DejaVuSans-97"/>
     <use x="1889.53125" xlink:href="#DejaVuSans-115"/>
     <use x="1941.630859" xlink:href="#DejaVuSans-116"/>
     <use x="1980.839844" xlink:href="#DejaVuSans-32"/>
     <use x="2012.626953" xlink:href="#DejaVuSans-118"/>
     <use x="2071.806641" xlink:href="#DejaVuSans-115"/>
     <use x="2123.90625" xlink:href="#DejaVuSans-32"/>
     <use x="2155.693359" xlink:href="#DejaVuSans-77"/>
     <use x="2241.972656" xlink:href="#DejaVuSans-111"/>
     <use x="2303.154297" xlink:href="#DejaVuSans-110"/>
     <use x="2366.533203" xlink:href="#DejaVuSans-105"/>
     <use x="2394.316406" xlink:href="#DejaVuSans-116"/>
     <use x="2433.525391" xlink:href="#DejaVuSans-111"/>
     <use x="2494.707031" xlink:href="#DejaVuSans-114"/>
     <use x="2533.570312" xlink:href="#DejaVuSans-101"/>
     <use x="2595.09375" xlink:href="#DejaVuSans-100"/>
     <use x="2658.570312" xlink:href="#DejaVuSans-32"/>
     <use x="2690.357422" xlink:href="#DejaVuSans-124"/>
     <use x="2724.048828" xlink:href="#DejaVuSans-32"/>
     <use x="2755.835938" xlink:href="#DejaVuSans-83"/>
     <use x="2819.3125" xlink:href="#DejaVuSans-117"/>
     <use x="2882.691406" xlink:href="#DejaVuSans-112"/>
     <use x="2946.167969" xlink:href="#DejaVuSans-112"/>
     <use x="3009.644531" xlink:href="#DejaVuSans-111"/>
     <use x="3070.826172" xlink:href="#DejaVuSans-114"/>
     <use x="3111.939453" xlink:href="#DejaVuSans-116"/>
     <use x="3151.148438" xlink:href="#DejaVuSans-32"/>
     <use x="3182.935547" xlink:href="#DejaVuSans-118"/>
     <use x="3242.115234" xlink:href="#DejaVuSans-101"/>
     <use x="3303.638672" xlink:href="#DejaVuSans-99"/>
     <use x="3358.619141" xlink:href="#DejaVuSans-116"/>
     <use x="3397.828125" xlink:href="#DejaVuSans-111"/>
     <use x="3459.009766" xlink:href="#DejaVuSans-114"/>
     <use x="3500.123047" xlink:href="#DejaVuSans-32"/>
     <use x="3531.910156" xlink:href="#DejaVuSans-109"/>
     <use x="3629.322266" xlink:href="#DejaVuSans-97"/>
     <use x="3690.601562" xlink:href="#DejaVuSans-99"/>
     <use x="3745.582031" xlink:href="#DejaVuSans-104"/>
     <use x="3808.960938" xlink:href="#DejaVuSans-105"/>
     <use x="3836.744141" xlink:href="#DejaVuSans-110"/>
     <use x="3900.123047" xlink:href="#DejaVuSans-101"/>
    </g>
   </g>
   <g id="legend_1">
    <g id="patch_7">
     <path d="M 613.996875 114.615 
L 769.2 114.615 
Q 771.6 114.615 771.6 112.215 
L 771.6 77.52 
Q 771.6 75.12 769.2 75.12 
L 613.996875 75.12 
Q 611.596875 75.12 611.596875 77.52 
L 611.596875 112.215 
Q 611.596875 114.615 613.996875 114.615 
z
" style="fill:#ffffff;opacity:0.8;stroke:#cccccc;stroke-linejoin:miter;"/>
    </g>
    <g id="line2d_17">
     <path d="M 616.396875 84.838125 
L 640.396875 84.838125 
" style="fill:none;stroke:#1f77b4;stroke-linecap:square;stroke-width:1.5;"/>
    </g>
    <g id="line2d_18"/>
    <g id="text_18">
     <!-- measured_data_CO -->
     <g transform="translate(649.996875 89.038125)scale(0.12 -0.12)">
      <defs>
       <path d="M 50.984375 -16.609375 
L 50.984375 -23.578125 
L -0.984375 -23.578125 
L -0.984375 -16.609375 
z
" id="DejaVuSans-95"/>
      </defs>
      <use xlink:href="#DejaVuSans-109"/>
      <use x="97.412109" xlink:href="#DejaVuSans-101"/>
      <use x="158.935547" xlink:href="#DejaVuSans-97"/>
      <use x="220.214844" xlink:href="#DejaVuSans-115"/>
      <use x="272.314453" xlink:href="#DejaVuSans-117"/>
      <use x="335.693359" xlink:href="#DejaVuSans-114"/>
      <use x="374.556641" xlink:href="#DejaVuSans-101"/>
      <use x="436.080078" xlink:href="#DejaVuSans-100"/>
      <use x="499.556641" xlink:href="#DejaVuSans-95"/>
      <use x="549.556641" xlink:href="#DejaVuSans-100"/>
      <use x="613.033203" xlink:href="#DejaVuSans-97"/>
      <use x="674.3125" xlink:href="#DejaVuSans-116"/>
      <use x="713.521484" xlink:href="#DejaVuSans-97"/>
      <use x="774.800781" xlink:href="#DejaVuSans-95"/>
      <use x="824.800781" xlink:href="#DejaVuSans-67"/>
      <use x="894.625" xlink:href="#DejaVuSans-79"/>
     </g>
    </g>
    <g id="line2d_19">
     <path d="M 616.396875 102.785625 
L 640.396875 102.785625 
" style="fill:none;stroke:#ff0000;stroke-dasharray:5.55,2.4;stroke-dashoffset:0;stroke-width:1.5;"/>
    </g>
    <g id="line2d_20"/>
    <g id="text_19">
     <!-- predicted_data_CO -->
     <g transform="translate(649.996875 106.985625)scale(0.12 -0.12)">
      <use xlink:href="#DejaVuSans-112"/>
      <use x="63.476562" xlink:href="#DejaVuSans-114"/>
      <use x="102.339844" xlink:href="#DejaVuSans-101"/>
      <use x="163.863281" xlink:href="#DejaVuSans-100"/>
      <use x="227.339844" xlink:href="#DejaVuSans-105"/>
      <use x="255.123047" xlink:href="#DejaVuSans-99"/>
      <use x="310.103516" xlink:href="#DejaVuSans-116"/>
      <use x="349.3125" xlink:href="#DejaVuSans-101"/>
      <use x="410.835938" xlink:href="#DejaVuSans-100"/>
      <use x="474.3125" xlink:href="#DejaVuSans-95"/>
      <use x="524.3125" xlink:href="#DejaVuSans-100"/>
      <use x="587.789062" xlink:href="#DejaVuSans-97"/>
      <use x="649.068359" xlink:href="#DejaVuSans-116"/>
      <use x="688.277344" xlink:href="#DejaVuSans-97"/>
      <use x="749.556641" xlink:href="#DejaVuSans-95"/>
      <use x="799.556641" xlink:href="#DejaVuSans-67"/>
      <use x="869.380859" xlink:href="#DejaVuSans-79"/>
     </g>
    </g>
   </g>
  </g>
 </g>
 <defs>
  <clipPath id="p41e02ae048">
   <rect height="391.68" width="669.6" x="108" y="69.12"/>
  </clipPath>
 </defs>
</svg>
