<?xml version="1.0" encoding="utf-8" standalone="no"?>
<!DOCTYPE svg PUBLIC "-//W3C//DTD SVG 1.1//EN"
  "http://www.w3.org/Graphics/SVG/1.1/DTD/svg11.dtd">
<!-- Created with matplotlib (https://matplotlib.org/) -->
<svg height="576pt" version="1.1" viewBox="0 0 864 576" width="864pt" xmlns="http://www.w3.org/2000/svg" xmlns:xlink="http://www.w3.org/1999/xlink">
 <metadata>
  <rdf:RDF xmlns:cc="http://creativecommons.org/ns#" xmlns:dc="http://purl.org/dc/elements/1.1/" xmlns:rdf="http://www.w3.org/1999/02/22-rdf-syntax-ns#">
   <cc:Work>
    <dc:type rdf:resource="http://purl.org/dc/dcmitype/StillImage"/>
    <dc:date>2024-03-08T19:54:34.334641</dc:date>
    <dc:format>image/svg+xml</dc:format>
    <dc:creator>
     <cc:Agent>
      <dc:title>Matplotlib v3.3.4, https://matplotlib.org/</dc:title>
     </cc:Agent>
    </dc:creator>
   </cc:Work>
  </rdf:RDF>
 </metadata>
 <defs>
  <style type="text/css">*{stroke-linecap:butt;stroke-linejoin:round;}</style>
 </defs>
 <g id="figure_1">
  <g id="patch_1">
   <path d="M 0 576 
L 864 576 
L 864 0 
L 0 0 
z
" style="fill:#ffffff;"/>
  </g>
  <g id="axes_1">
   <g id="patch_2">
    <path d="M 108 460.8 
L 777.6 460.8 
L 777.6 69.12 
L 108 69.12 
z
" style="fill:#ffffff;"/>
   </g>
   <g id="matplotlib.axis_1">
    <g id="xtick_1">
     <g id="line2d_1">
      <defs>
       <path d="M 0 0 
L 0 3.5 
" id="mf8156cb718" style="stroke:#000000;stroke-width:0.8;"/>
      </defs>
      <g>
       <use style="stroke:#000000;stroke-width:0.8;" x="138.436364" xlink:href="#mf8156cb718" y="460.8"/>
      </g>
     </g>
     <g id="text_1">
      <!-- 2020-01 -->
      <g transform="translate(93.766579 500.766215)rotate(-30)scale(0.12 -0.12)">
       <defs>
        <path d="M 19.1875 8.296875 
L 53.609375 8.296875 
L 53.609375 0 
L 7.328125 0 
L 7.328125 8.296875 
Q 12.9375 14.109375 22.625 23.890625 
Q 32.328125 33.6875 34.8125 36.53125 
Q 39.546875 41.84375 41.421875 45.53125 
Q 43.3125 49.21875 43.3125 52.78125 
Q 43.3125 58.59375 39.234375 62.25 
Q 35.15625 65.921875 28.609375 65.921875 
Q 23.96875 65.921875 18.8125 64.3125 
Q 13.671875 62.703125 7.8125 59.421875 
L 7.8125 69.390625 
Q 13.765625 71.78125 18.9375 73 
Q 24.125 74.21875 28.421875 74.21875 
Q 39.75 74.21875 46.484375 68.546875 
Q 53.21875 62.890625 53.21875 53.421875 
Q 53.21875 48.921875 51.53125 44.890625 
Q 49.859375 40.875 45.40625 35.40625 
Q 44.1875 33.984375 37.640625 27.21875 
Q 31.109375 20.453125 19.1875 8.296875 
z
" id="DejaVuSans-50"/>
        <path d="M 31.78125 66.40625 
Q 24.171875 66.40625 20.328125 58.90625 
Q 16.5 51.421875 16.5 36.375 
Q 16.5 21.390625 20.328125 13.890625 
Q 24.171875 6.390625 31.78125 6.390625 
Q 39.453125 6.390625 43.28125 13.890625 
Q 47.125 21.390625 47.125 36.375 
Q 47.125 51.421875 43.28125 58.90625 
Q 39.453125 66.40625 31.78125 66.40625 
z
M 31.78125 74.21875 
Q 44.046875 74.21875 50.515625 64.515625 
Q 56.984375 54.828125 56.984375 36.375 
Q 56.984375 17.96875 50.515625 8.265625 
Q 44.046875 -1.421875 31.78125 -1.421875 
Q 19.53125 -1.421875 13.0625 8.265625 
Q 6.59375 17.96875 6.59375 36.375 
Q 6.59375 54.828125 13.0625 64.515625 
Q 19.53125 74.21875 31.78125 74.21875 
z
" id="DejaVuSans-48"/>
        <path d="M 4.890625 31.390625 
L 31.203125 31.390625 
L 31.203125 23.390625 
L 4.890625 23.390625 
z
" id="DejaVuSans-45"/>
        <path d="M 12.40625 8.296875 
L 28.515625 8.296875 
L 28.515625 63.921875 
L 10.984375 60.40625 
L 10.984375 69.390625 
L 28.421875 72.90625 
L 38.28125 72.90625 
L 38.28125 8.296875 
L 54.390625 8.296875 
L 54.390625 0 
L 12.40625 0 
z
" id="DejaVuSans-49"/>
       </defs>
       <use xlink:href="#DejaVuSans-50"/>
       <use x="63.623047" xlink:href="#DejaVuSans-48"/>
       <use x="127.246094" xlink:href="#DejaVuSans-50"/>
       <use x="190.869141" xlink:href="#DejaVuSans-48"/>
       <use x="254.492188" xlink:href="#DejaVuSans-45"/>
       <use x="290.576172" xlink:href="#DejaVuSans-48"/>
       <use x="354.199219" xlink:href="#DejaVuSans-49"/>
      </g>
     </g>
    </g>
    <g id="xtick_2">
     <g id="line2d_2">
      <g>
       <use style="stroke:#000000;stroke-width:0.8;" x="214.318804" xlink:href="#mf8156cb718" y="460.8"/>
      </g>
     </g>
     <g id="text_2">
      <!-- 2020-04 -->
      <g transform="translate(169.64902 500.766215)rotate(-30)scale(0.12 -0.12)">
       <defs>
        <path d="M 37.796875 64.3125 
L 12.890625 25.390625 
L 37.796875 25.390625 
z
M 35.203125 72.90625 
L 47.609375 72.90625 
L 47.609375 25.390625 
L 58.015625 25.390625 
L 58.015625 17.1875 
L 47.609375 17.1875 
L 47.609375 0 
L 37.796875 0 
L 37.796875 17.1875 
L 4.890625 17.1875 
L 4.890625 26.703125 
z
" id="DejaVuSans-52"/>
       </defs>
       <use xlink:href="#DejaVuSans-50"/>
       <use x="63.623047" xlink:href="#DejaVuSans-48"/>
       <use x="127.246094" xlink:href="#DejaVuSans-50"/>
       <use x="190.869141" xlink:href="#DejaVuSans-48"/>
       <use x="254.492188" xlink:href="#DejaVuSans-45"/>
       <use x="290.576172" xlink:href="#DejaVuSans-48"/>
       <use x="354.199219" xlink:href="#DejaVuSans-52"/>
      </g>
     </g>
    </g>
    <g id="xtick_3">
     <g id="line2d_3">
      <g>
       <use style="stroke:#000000;stroke-width:0.8;" x="290.201245" xlink:href="#mf8156cb718" y="460.8"/>
      </g>
     </g>
     <g id="text_3">
      <!-- 2020-07 -->
      <g transform="translate(245.53146 500.766215)rotate(-30)scale(0.12 -0.12)">
       <defs>
        <path d="M 8.203125 72.90625 
L 55.078125 72.90625 
L 55.078125 68.703125 
L 28.609375 0 
L 18.3125 0 
L 43.21875 64.59375 
L 8.203125 64.59375 
z
" id="DejaVuSans-55"/>
       </defs>
       <use xlink:href="#DejaVuSans-50"/>
       <use x="63.623047" xlink:href="#DejaVuSans-48"/>
       <use x="127.246094" xlink:href="#DejaVuSans-50"/>
       <use x="190.869141" xlink:href="#DejaVuSans-48"/>
       <use x="254.492188" xlink:href="#DejaVuSans-45"/>
       <use x="290.576172" xlink:href="#DejaVuSans-48"/>
       <use x="354.199219" xlink:href="#DejaVuSans-55"/>
      </g>
     </g>
    </g>
    <g id="xtick_4">
     <g id="line2d_4">
      <g>
       <use style="stroke:#000000;stroke-width:0.8;" x="366.917559" xlink:href="#mf8156cb718" y="460.8"/>
      </g>
     </g>
     <g id="text_4">
      <!-- 2020-10 -->
      <g transform="translate(322.247774 500.766215)rotate(-30)scale(0.12 -0.12)">
       <use xlink:href="#DejaVuSans-50"/>
       <use x="63.623047" xlink:href="#DejaVuSans-48"/>
       <use x="127.246094" xlink:href="#DejaVuSans-50"/>
       <use x="190.869141" xlink:href="#DejaVuSans-48"/>
       <use x="254.492188" xlink:href="#DejaVuSans-45"/>
       <use x="290.576172" xlink:href="#DejaVuSans-49"/>
       <use x="354.199219" xlink:href="#DejaVuSans-48"/>
      </g>
     </g>
    </g>
    <g id="xtick_5">
     <g id="line2d_5">
      <g>
       <use style="stroke:#000000;stroke-width:0.8;" x="443.633873" xlink:href="#mf8156cb718" y="460.8"/>
      </g>
     </g>
     <g id="text_5">
      <!-- 2021-01 -->
      <g transform="translate(398.964088 500.766215)rotate(-30)scale(0.12 -0.12)">
       <use xlink:href="#DejaVuSans-50"/>
       <use x="63.623047" xlink:href="#DejaVuSans-48"/>
       <use x="127.246094" xlink:href="#DejaVuSans-50"/>
       <use x="190.869141" xlink:href="#DejaVuSans-49"/>
       <use x="254.492188" xlink:href="#DejaVuSans-45"/>
       <use x="290.576172" xlink:href="#DejaVuSans-48"/>
       <use x="354.199219" xlink:href="#DejaVuSans-49"/>
      </g>
     </g>
    </g>
    <g id="xtick_6">
     <g id="line2d_6">
      <g>
       <use style="stroke:#000000;stroke-width:0.8;" x="518.682441" xlink:href="#mf8156cb718" y="460.8"/>
      </g>
     </g>
     <g id="text_6">
      <!-- 2021-04 -->
      <g transform="translate(474.012656 500.766215)rotate(-30)scale(0.12 -0.12)">
       <use xlink:href="#DejaVuSans-50"/>
       <use x="63.623047" xlink:href="#DejaVuSans-48"/>
       <use x="127.246094" xlink:href="#DejaVuSans-50"/>
       <use x="190.869141" xlink:href="#DejaVuSans-49"/>
       <use x="254.492188" xlink:href="#DejaVuSans-45"/>
       <use x="290.576172" xlink:href="#DejaVuSans-48"/>
       <use x="354.199219" xlink:href="#DejaVuSans-52"/>
      </g>
     </g>
    </g>
    <g id="xtick_7">
     <g id="line2d_7">
      <g>
       <use style="stroke:#000000;stroke-width:0.8;" x="594.564882" xlink:href="#mf8156cb718" y="460.8"/>
      </g>
     </g>
     <g id="text_7">
      <!-- 2021-07 -->
      <g transform="translate(549.895097 500.766215)rotate(-30)scale(0.12 -0.12)">
       <use xlink:href="#DejaVuSans-50"/>
       <use x="63.623047" xlink:href="#DejaVuSans-48"/>
       <use x="127.246094" xlink:href="#DejaVuSans-50"/>
       <use x="190.869141" xlink:href="#DejaVuSans-49"/>
       <use x="254.492188" xlink:href="#DejaVuSans-45"/>
       <use x="290.576172" xlink:href="#DejaVuSans-48"/>
       <use x="354.199219" xlink:href="#DejaVuSans-55"/>
      </g>
     </g>
    </g>
    <g id="xtick_8">
     <g id="line2d_8">
      <g>
       <use style="stroke:#000000;stroke-width:0.8;" x="671.281196" xlink:href="#mf8156cb718" y="460.8"/>
      </g>
     </g>
     <g id="text_8">
      <!-- 2021-10 -->
      <g transform="translate(626.611411 500.766215)rotate(-30)scale(0.12 -0.12)">
       <use xlink:href="#DejaVuSans-50"/>
       <use x="63.623047" xlink:href="#DejaVuSans-48"/>
       <use x="127.246094" xlink:href="#DejaVuSans-50"/>
       <use x="190.869141" xlink:href="#DejaVuSans-49"/>
       <use x="254.492188" xlink:href="#DejaVuSans-45"/>
       <use x="290.576172" xlink:href="#DejaVuSans-49"/>
       <use x="354.199219" xlink:href="#DejaVuSans-48"/>
      </g>
     </g>
    </g>
    <g id="xtick_9">
     <g id="line2d_9">
      <g>
       <use style="stroke:#000000;stroke-width:0.8;" x="747.997509" xlink:href="#mf8156cb718" y="460.8"/>
      </g>
     </g>
     <g id="text_9">
      <!-- 2022-01 -->
      <g transform="translate(703.327724 500.766215)rotate(-30)scale(0.12 -0.12)">
       <use xlink:href="#DejaVuSans-50"/>
       <use x="63.623047" xlink:href="#DejaVuSans-48"/>
       <use x="127.246094" xlink:href="#DejaVuSans-50"/>
       <use x="190.869141" xlink:href="#DejaVuSans-50"/>
       <use x="254.492188" xlink:href="#DejaVuSans-45"/>
       <use x="290.576172" xlink:href="#DejaVuSans-48"/>
       <use x="354.199219" xlink:href="#DejaVuSans-49"/>
      </g>
     </g>
    </g>
    <g id="text_10">
     <!-- Date -->
     <g transform="translate(424.873828 518.325146)scale(0.15 -0.15)">
      <defs>
       <path d="M 19.671875 64.796875 
L 19.671875 8.109375 
L 31.59375 8.109375 
Q 46.6875 8.109375 53.6875 14.9375 
Q 60.6875 21.78125 60.6875 36.53125 
Q 60.6875 51.171875 53.6875 57.984375 
Q 46.6875 64.796875 31.59375 64.796875 
z
M 9.8125 72.90625 
L 30.078125 72.90625 
Q 51.265625 72.90625 61.171875 64.09375 
Q 71.09375 55.28125 71.09375 36.53125 
Q 71.09375 17.671875 61.125 8.828125 
Q 51.171875 0 30.078125 0 
L 9.8125 0 
z
" id="DejaVuSans-68"/>
       <path d="M 34.28125 27.484375 
Q 23.390625 27.484375 19.1875 25 
Q 14.984375 22.515625 14.984375 16.5 
Q 14.984375 11.71875 18.140625 8.90625 
Q 21.296875 6.109375 26.703125 6.109375 
Q 34.1875 6.109375 38.703125 11.40625 
Q 43.21875 16.703125 43.21875 25.484375 
L 43.21875 27.484375 
z
M 52.203125 31.203125 
L 52.203125 0 
L 43.21875 0 
L 43.21875 8.296875 
Q 40.140625 3.328125 35.546875 0.953125 
Q 30.953125 -1.421875 24.3125 -1.421875 
Q 15.921875 -1.421875 10.953125 3.296875 
Q 6 8.015625 6 15.921875 
Q 6 25.140625 12.171875 29.828125 
Q 18.359375 34.515625 30.609375 34.515625 
L 43.21875 34.515625 
L 43.21875 35.40625 
Q 43.21875 41.609375 39.140625 45 
Q 35.0625 48.390625 27.6875 48.390625 
Q 23 48.390625 18.546875 47.265625 
Q 14.109375 46.140625 10.015625 43.890625 
L 10.015625 52.203125 
Q 14.9375 54.109375 19.578125 55.046875 
Q 24.21875 56 28.609375 56 
Q 40.484375 56 46.34375 49.84375 
Q 52.203125 43.703125 52.203125 31.203125 
z
" id="DejaVuSans-97"/>
       <path d="M 18.3125 70.21875 
L 18.3125 54.6875 
L 36.8125 54.6875 
L 36.8125 47.703125 
L 18.3125 47.703125 
L 18.3125 18.015625 
Q 18.3125 11.328125 20.140625 9.421875 
Q 21.96875 7.515625 27.59375 7.515625 
L 36.8125 7.515625 
L 36.8125 0 
L 27.59375 0 
Q 17.1875 0 13.234375 3.875 
Q 9.28125 7.765625 9.28125 18.015625 
L 9.28125 47.703125 
L 2.6875 47.703125 
L 2.6875 54.6875 
L 9.28125 54.6875 
L 9.28125 70.21875 
z
" id="DejaVuSans-116"/>
       <path d="M 56.203125 29.59375 
L 56.203125 25.203125 
L 14.890625 25.203125 
Q 15.484375 15.921875 20.484375 11.0625 
Q 25.484375 6.203125 34.421875 6.203125 
Q 39.59375 6.203125 44.453125 7.46875 
Q 49.3125 8.734375 54.109375 11.28125 
L 54.109375 2.78125 
Q 49.265625 0.734375 44.1875 -0.34375 
Q 39.109375 -1.421875 33.890625 -1.421875 
Q 20.796875 -1.421875 13.15625 6.1875 
Q 5.515625 13.8125 5.515625 26.8125 
Q 5.515625 40.234375 12.765625 48.109375 
Q 20.015625 56 32.328125 56 
Q 43.359375 56 49.78125 48.890625 
Q 56.203125 41.796875 56.203125 29.59375 
z
M 47.21875 32.234375 
Q 47.125 39.59375 43.09375 43.984375 
Q 39.0625 48.390625 32.421875 48.390625 
Q 24.90625 48.390625 20.390625 44.140625 
Q 15.875 39.890625 15.1875 32.171875 
z
" id="DejaVuSans-101"/>
      </defs>
      <use xlink:href="#DejaVuSans-68"/>
      <use x="77.001953" xlink:href="#DejaVuSans-97"/>
      <use x="138.28125" xlink:href="#DejaVuSans-116"/>
      <use x="177.490234" xlink:href="#DejaVuSans-101"/>
     </g>
    </g>
   </g>
   <g id="matplotlib.axis_2">
    <g id="ytick_1">
     <g id="line2d_10">
      <defs>
       <path d="M 0 0 
L -3.5 0 
" id="me50cfd5278" style="stroke:#000000;stroke-width:0.8;"/>
      </defs>
      <g>
       <use style="stroke:#000000;stroke-width:0.8;" x="108" xlink:href="#me50cfd5278" y="428.051788"/>
      </g>
     </g>
     <g id="text_11">
      <!-- 0 -->
      <g transform="translate(93.365 432.610851)scale(0.12 -0.12)">
       <use xlink:href="#DejaVuSans-48"/>
      </g>
     </g>
    </g>
    <g id="ytick_2">
     <g id="line2d_11">
      <g>
       <use style="stroke:#000000;stroke-width:0.8;" x="108" xlink:href="#me50cfd5278" y="379.820228"/>
      </g>
     </g>
     <g id="text_12">
      <!-- 20 -->
      <g transform="translate(85.73 384.379291)scale(0.12 -0.12)">
       <use xlink:href="#DejaVuSans-50"/>
       <use x="63.623047" xlink:href="#DejaVuSans-48"/>
      </g>
     </g>
    </g>
    <g id="ytick_3">
     <g id="line2d_12">
      <g>
       <use style="stroke:#000000;stroke-width:0.8;" x="108" xlink:href="#me50cfd5278" y="331.588668"/>
      </g>
     </g>
     <g id="text_13">
      <!-- 40 -->
      <g transform="translate(85.73 336.147731)scale(0.12 -0.12)">
       <use xlink:href="#DejaVuSans-52"/>
       <use x="63.623047" xlink:href="#DejaVuSans-48"/>
      </g>
     </g>
    </g>
    <g id="ytick_4">
     <g id="line2d_13">
      <g>
       <use style="stroke:#000000;stroke-width:0.8;" x="108" xlink:href="#me50cfd5278" y="283.357108"/>
      </g>
     </g>
     <g id="text_14">
      <!-- 60 -->
      <g transform="translate(85.73 287.91617)scale(0.12 -0.12)">
       <defs>
        <path d="M 33.015625 40.375 
Q 26.375 40.375 22.484375 35.828125 
Q 18.609375 31.296875 18.609375 23.390625 
Q 18.609375 15.53125 22.484375 10.953125 
Q 26.375 6.390625 33.015625 6.390625 
Q 39.65625 6.390625 43.53125 10.953125 
Q 47.40625 15.53125 47.40625 23.390625 
Q 47.40625 31.296875 43.53125 35.828125 
Q 39.65625 40.375 33.015625 40.375 
z
M 52.59375 71.296875 
L 52.59375 62.3125 
Q 48.875 64.0625 45.09375 64.984375 
Q 41.3125 65.921875 37.59375 65.921875 
Q 27.828125 65.921875 22.671875 59.328125 
Q 17.53125 52.734375 16.796875 39.40625 
Q 19.671875 43.65625 24.015625 45.921875 
Q 28.375 48.1875 33.59375 48.1875 
Q 44.578125 48.1875 50.953125 41.515625 
Q 57.328125 34.859375 57.328125 23.390625 
Q 57.328125 12.15625 50.6875 5.359375 
Q 44.046875 -1.421875 33.015625 -1.421875 
Q 20.359375 -1.421875 13.671875 8.265625 
Q 6.984375 17.96875 6.984375 36.375 
Q 6.984375 53.65625 15.1875 63.9375 
Q 23.390625 74.21875 37.203125 74.21875 
Q 40.921875 74.21875 44.703125 73.484375 
Q 48.484375 72.75 52.59375 71.296875 
z
" id="DejaVuSans-54"/>
       </defs>
       <use xlink:href="#DejaVuSans-54"/>
       <use x="63.623047" xlink:href="#DejaVuSans-48"/>
      </g>
     </g>
    </g>
    <g id="ytick_5">
     <g id="line2d_14">
      <g>
       <use style="stroke:#000000;stroke-width:0.8;" x="108" xlink:href="#me50cfd5278" y="235.125548"/>
      </g>
     </g>
     <g id="text_15">
      <!-- 80 -->
      <g transform="translate(85.73 239.68461)scale(0.12 -0.12)">
       <defs>
        <path d="M 31.78125 34.625 
Q 24.75 34.625 20.71875 30.859375 
Q 16.703125 27.09375 16.703125 20.515625 
Q 16.703125 13.921875 20.71875 10.15625 
Q 24.75 6.390625 31.78125 6.390625 
Q 38.8125 6.390625 42.859375 10.171875 
Q 46.921875 13.96875 46.921875 20.515625 
Q 46.921875 27.09375 42.890625 30.859375 
Q 38.875 34.625 31.78125 34.625 
z
M 21.921875 38.8125 
Q 15.578125 40.375 12.03125 44.71875 
Q 8.5 49.078125 8.5 55.328125 
Q 8.5 64.0625 14.71875 69.140625 
Q 20.953125 74.21875 31.78125 74.21875 
Q 42.671875 74.21875 48.875 69.140625 
Q 55.078125 64.0625 55.078125 55.328125 
Q 55.078125 49.078125 51.53125 44.71875 
Q 48 40.375 41.703125 38.8125 
Q 48.828125 37.15625 52.796875 32.3125 
Q 56.78125 27.484375 56.78125 20.515625 
Q 56.78125 9.90625 50.3125 4.234375 
Q 43.84375 -1.421875 31.78125 -1.421875 
Q 19.734375 -1.421875 13.25 4.234375 
Q 6.78125 9.90625 6.78125 20.515625 
Q 6.78125 27.484375 10.78125 32.3125 
Q 14.796875 37.15625 21.921875 38.8125 
z
M 18.3125 54.390625 
Q 18.3125 48.734375 21.84375 45.5625 
Q 25.390625 42.390625 31.78125 42.390625 
Q 38.140625 42.390625 41.71875 45.5625 
Q 45.3125 48.734375 45.3125 54.390625 
Q 45.3125 60.0625 41.71875 63.234375 
Q 38.140625 66.40625 31.78125 66.40625 
Q 25.390625 66.40625 21.84375 63.234375 
Q 18.3125 60.0625 18.3125 54.390625 
z
" id="DejaVuSans-56"/>
       </defs>
       <use xlink:href="#DejaVuSans-56"/>
       <use x="63.623047" xlink:href="#DejaVuSans-48"/>
      </g>
     </g>
    </g>
    <g id="ytick_6">
     <g id="line2d_15">
      <g>
       <use style="stroke:#000000;stroke-width:0.8;" x="108" xlink:href="#me50cfd5278" y="186.893988"/>
      </g>
     </g>
     <g id="text_16">
      <!-- 100 -->
      <g transform="translate(78.095 191.45305)scale(0.12 -0.12)">
       <use xlink:href="#DejaVuSans-49"/>
       <use x="63.623047" xlink:href="#DejaVuSans-48"/>
       <use x="127.246094" xlink:href="#DejaVuSans-48"/>
      </g>
     </g>
    </g>
    <g id="ytick_7">
     <g id="line2d_16">
      <g>
       <use style="stroke:#000000;stroke-width:0.8;" x="108" xlink:href="#me50cfd5278" y="138.662428"/>
      </g>
     </g>
     <g id="text_17">
      <!-- 120 -->
      <g transform="translate(78.095 143.22149)scale(0.12 -0.12)">
       <use xlink:href="#DejaVuSans-49"/>
       <use x="63.623047" xlink:href="#DejaVuSans-50"/>
       <use x="127.246094" xlink:href="#DejaVuSans-48"/>
      </g>
     </g>
    </g>
    <g id="ytick_8">
     <g id="line2d_17">
      <g>
       <use style="stroke:#000000;stroke-width:0.8;" x="108" xlink:href="#me50cfd5278" y="90.430868"/>
      </g>
     </g>
     <g id="text_18">
      <!-- 140 -->
      <g transform="translate(78.095 94.98993)scale(0.12 -0.12)">
       <use xlink:href="#DejaVuSans-49"/>
       <use x="63.623047" xlink:href="#DejaVuSans-52"/>
       <use x="127.246094" xlink:href="#DejaVuSans-48"/>
      </g>
     </g>
    </g>
    <g id="text_19">
     <!-- O3(ppm) -->
     <g transform="translate(70.975469 298.31625)rotate(-90)scale(0.15 -0.15)">
      <defs>
       <path d="M 39.40625 66.21875 
Q 28.65625 66.21875 22.328125 58.203125 
Q 16.015625 50.203125 16.015625 36.375 
Q 16.015625 22.609375 22.328125 14.59375 
Q 28.65625 6.59375 39.40625 6.59375 
Q 50.140625 6.59375 56.421875 14.59375 
Q 62.703125 22.609375 62.703125 36.375 
Q 62.703125 50.203125 56.421875 58.203125 
Q 50.140625 66.21875 39.40625 66.21875 
z
M 39.40625 74.21875 
Q 54.734375 74.21875 63.90625 63.9375 
Q 73.09375 53.65625 73.09375 36.375 
Q 73.09375 19.140625 63.90625 8.859375 
Q 54.734375 -1.421875 39.40625 -1.421875 
Q 24.03125 -1.421875 14.8125 8.828125 
Q 5.609375 19.09375 5.609375 36.375 
Q 5.609375 53.65625 14.8125 63.9375 
Q 24.03125 74.21875 39.40625 74.21875 
z
" id="DejaVuSans-79"/>
       <path d="M 40.578125 39.3125 
Q 47.65625 37.796875 51.625 33 
Q 55.609375 28.21875 55.609375 21.1875 
Q 55.609375 10.40625 48.1875 4.484375 
Q 40.765625 -1.421875 27.09375 -1.421875 
Q 22.515625 -1.421875 17.65625 -0.515625 
Q 12.796875 0.390625 7.625 2.203125 
L 7.625 11.71875 
Q 11.71875 9.328125 16.59375 8.109375 
Q 21.484375 6.890625 26.8125 6.890625 
Q 36.078125 6.890625 40.9375 10.546875 
Q 45.796875 14.203125 45.796875 21.1875 
Q 45.796875 27.640625 41.28125 31.265625 
Q 36.765625 34.90625 28.71875 34.90625 
L 20.21875 34.90625 
L 20.21875 43.015625 
L 29.109375 43.015625 
Q 36.375 43.015625 40.234375 45.921875 
Q 44.09375 48.828125 44.09375 54.296875 
Q 44.09375 59.90625 40.109375 62.90625 
Q 36.140625 65.921875 28.71875 65.921875 
Q 24.65625 65.921875 20.015625 65.03125 
Q 15.375 64.15625 9.8125 62.3125 
L 9.8125 71.09375 
Q 15.4375 72.65625 20.34375 73.4375 
Q 25.25 74.21875 29.59375 74.21875 
Q 40.828125 74.21875 47.359375 69.109375 
Q 53.90625 64.015625 53.90625 55.328125 
Q 53.90625 49.265625 50.4375 45.09375 
Q 46.96875 40.921875 40.578125 39.3125 
z
" id="DejaVuSans-51"/>
       <path d="M 31 75.875 
Q 24.46875 64.65625 21.28125 53.65625 
Q 18.109375 42.671875 18.109375 31.390625 
Q 18.109375 20.125 21.3125 9.0625 
Q 24.515625 -2 31 -13.1875 
L 23.1875 -13.1875 
Q 15.875 -1.703125 12.234375 9.375 
Q 8.59375 20.453125 8.59375 31.390625 
Q 8.59375 42.28125 12.203125 53.3125 
Q 15.828125 64.359375 23.1875 75.875 
z
" id="DejaVuSans-40"/>
       <path d="M 18.109375 8.203125 
L 18.109375 -20.796875 
L 9.078125 -20.796875 
L 9.078125 54.6875 
L 18.109375 54.6875 
L 18.109375 46.390625 
Q 20.953125 51.265625 25.265625 53.625 
Q 29.59375 56 35.59375 56 
Q 45.5625 56 51.78125 48.09375 
Q 58.015625 40.1875 58.015625 27.296875 
Q 58.015625 14.40625 51.78125 6.484375 
Q 45.5625 -1.421875 35.59375 -1.421875 
Q 29.59375 -1.421875 25.265625 0.953125 
Q 20.953125 3.328125 18.109375 8.203125 
z
M 48.6875 27.296875 
Q 48.6875 37.203125 44.609375 42.84375 
Q 40.53125 48.484375 33.40625 48.484375 
Q 26.265625 48.484375 22.1875 42.84375 
Q 18.109375 37.203125 18.109375 27.296875 
Q 18.109375 17.390625 22.1875 11.75 
Q 26.265625 6.109375 33.40625 6.109375 
Q 40.53125 6.109375 44.609375 11.75 
Q 48.6875 17.390625 48.6875 27.296875 
z
" id="DejaVuSans-112"/>
       <path d="M 52 44.1875 
Q 55.375 50.25 60.0625 53.125 
Q 64.75 56 71.09375 56 
Q 79.640625 56 84.28125 50.015625 
Q 88.921875 44.046875 88.921875 33.015625 
L 88.921875 0 
L 79.890625 0 
L 79.890625 32.71875 
Q 79.890625 40.578125 77.09375 44.375 
Q 74.3125 48.1875 68.609375 48.1875 
Q 61.625 48.1875 57.5625 43.546875 
Q 53.515625 38.921875 53.515625 30.90625 
L 53.515625 0 
L 44.484375 0 
L 44.484375 32.71875 
Q 44.484375 40.625 41.703125 44.40625 
Q 38.921875 48.1875 33.109375 48.1875 
Q 26.21875 48.1875 22.15625 43.53125 
Q 18.109375 38.875 18.109375 30.90625 
L 18.109375 0 
L 9.078125 0 
L 9.078125 54.6875 
L 18.109375 54.6875 
L 18.109375 46.1875 
Q 21.1875 51.21875 25.484375 53.609375 
Q 29.78125 56 35.6875 56 
Q 41.65625 56 45.828125 52.96875 
Q 50 49.953125 52 44.1875 
z
" id="DejaVuSans-109"/>
       <path d="M 8.015625 75.875 
L 15.828125 75.875 
Q 23.140625 64.359375 26.78125 53.3125 
Q 30.421875 42.28125 30.421875 31.390625 
Q 30.421875 20.453125 26.78125 9.375 
Q 23.140625 -1.703125 15.828125 -13.1875 
L 8.015625 -13.1875 
Q 14.5 -2 17.703125 9.0625 
Q 20.90625 20.125 20.90625 31.390625 
Q 20.90625 42.671875 17.703125 53.65625 
Q 14.5 64.65625 8.015625 75.875 
z
" id="DejaVuSans-41"/>
      </defs>
      <use xlink:href="#DejaVuSans-79"/>
      <use x="78.710938" xlink:href="#DejaVuSans-51"/>
      <use x="142.333984" xlink:href="#DejaVuSans-40"/>
      <use x="181.347656" xlink:href="#DejaVuSans-112"/>
      <use x="244.824219" xlink:href="#DejaVuSans-112"/>
      <use x="308.300781" xlink:href="#DejaVuSans-109"/>
      <use x="405.712891" xlink:href="#DejaVuSans-41"/>
     </g>
    </g>
   </g>
   <g id="line2d_18">
    <path clip-path="url(#pf6bf999e68)" d="M 138.436364 344.989409 
L 139.270237 360.971796 
L 140.10411 380.749923 
L 140.937983 361.723957 
L 141.771856 351.538961 
L 142.605729 353.367892 
L 143.439601 392.757778 
L 144.273474 348.834471 
L 145.107347 318.394568 
L 146.775093 371.921283 
L 147.608966 349.013263 
L 148.442839 382.106278 
L 149.276712 313.671986 
L 150.110585 311.547029 
L 150.944458 356.775315 
L 151.778331 368.024844 
L 152.612204 371.467109 
L 153.446077 392.720786 
L 154.27995 386.631573 
L 155.113823 360.326499 
L 155.947696 356.719827 
L 156.781569 368.873593 
L 157.615442 371.824694 
L 158.449315 365.178552 
L 159.283188 381.810346 
L 160.117061 344.025574 
L 160.950934 329.995517 
L 161.784807 304.150782 
L 162.61868 285.410472 
L 163.452553 318.848742 
L 164.286426 340.172292 
L 165.120299 310.546203 
L 165.954172 353.35771 
L 167.621918 378.881852 
L 168.455791 311.343576 
L 169.289664 351.175211 
L 170.123537 346.226569 
L 170.95741 336.025133 
L 171.791283 363.978384 
L 172.625156 375.848548 
L 173.459029 380.322465 
L 174.292902 398.742182 
L 175.126775 395.412946 
L 175.960648 401.49805 
L 176.794521 364.833298 
L 177.628394 296.207883 
L 179.296139 344.307121 
L 180.130012 352.260295 
L 180.963885 353.60843 
L 181.797758 309.193958 
L 182.631631 291.146211 
L 183.465504 303.330804 
L 184.299377 365.139506 
L 185.13325 394.724102 
L 185.967123 348.70089 
L 186.800996 336.838946 
L 187.634869 377.765941 
L 188.468742 358.474869 
L 189.302615 360.59366 
L 190.136488 311.828575 
L 190.970361 362.167855 
L 191.804234 378.242721 
L 192.638107 309.448788 
L 194.305853 399.701906 
L 195.139726 411.771414 
L 195.973599 315.86065 
L 196.807472 330.429139 
L 197.641345 351.010804 
L 198.475218 402.918113 
L 199.309091 315.024231 
L 200.142964 286.263332 
L 200.976837 267.839505 
L 201.81071 304.47343 
L 202.644583 362.377473 
L 203.478456 411.109677 
L 204.312329 401.128135 
L 205.146202 386.67473 
L 205.980075 403.711375 
L 206.813948 402.057032 
L 207.647821 318.563085 
L 208.481694 327.25609 
L 209.315567 376.276005 
L 210.14944 404.660567 
L 210.983313 410.100631 
L 211.817186 356.908895 
L 212.651059 406.300781 
L 213.484932 425.256874 
L 214.318804 422.642808 
L 215.152677 363.081246 
L 215.98655 364.905226 
L 216.820423 396.397331 
L 217.654296 396.158942 
L 218.488169 368.008403 
L 219.322042 406.072666 
L 221.823661 279.806259 
L 222.657534 359.496246 
L 223.491407 304.565909 
L 224.32528 267.675099 
L 225.159153 297.305298 
L 225.993026 298.417098 
L 226.826899 333.875515 
L 227.660772 351.929427 
L 228.494645 366.841115 
L 229.328518 396.440488 
L 230.162391 411.454931 
L 230.996264 416.695395 
L 231.830137 389.405936 
L 232.66401 401.604914 
L 233.497883 391.265787 
L 234.331756 385.209455 
L 235.165629 279.680898 
L 235.999502 310.96544 
L 236.833375 312.475927 
L 237.667248 294.829949 
L 238.501121 307.6547 
L 239.334994 381.076681 
L 240.168867 392.519388 
L 241.00274 394.909451 
L 241.836613 401.754935 
L 242.670486 407.673577 
L 243.504359 415.166412 
L 244.338232 415.090374 
L 245.172105 416.167238 
L 246.005978 415.651412 
L 246.839851 407.013895 
L 247.673724 403.779193 
L 248.507597 338.813975 
L 249.341469 304.999532 
L 250.175342 343.739918 
L 251.009215 373.707151 
L 251.843088 391.039728 
L 252.676961 384.481955 
L 253.510834 381.876109 
L 254.344707 370.749885 
L 255.17858 357.243874 
L 256.012453 385.799264 
L 256.846326 372.250096 
L 258.514072 356.109467 
L 259.347945 384.512781 
L 260.181818 385.847147 
L 261.015691 368.865373 
L 261.849564 369.083212 
L 262.683437 374.946366 
L 263.51731 390.815724 
L 264.351183 391.911083 
L 265.185056 399.599152 
L 266.018929 401.422012 
L 267.686675 396.321293 
L 268.520548 392.486507 
L 269.354421 394.14496 
L 270.188294 388.583903 
L 271.022167 389.584728 
L 271.85604 394.235383 
L 272.689913 395.930827 
L 273.523786 397.922204 
L 275.191532 379.716216 
L 276.025405 379.841576 
L 276.859278 394.198392 
L 277.693151 397.380278 
L 278.527024 397.116611 
L 279.360897 395.425277 
L 280.19477 396.793963 
L 281.028643 397.646822 
L 282.696389 393.524324 
L 283.530262 394.218943 
L 284.364134 393.411295 
L 285.198007 397.381717 
L 286.03188 400.4068 
L 286.865753 398.614767 
L 287.699626 393.760659 
L 288.533499 394.099748 
L 289.367372 394.833413 
L 290.201245 391.713795 
L 291.035118 393.7771 
L 291.868991 393.18318 
L 292.702864 395.217713 
L 293.536737 392.92424 
L 294.37061 394.997819 
L 295.204483 394.627904 
L 296.038356 395.110849 
L 296.872229 393.908625 
L 297.706102 400.836313 
L 298.539975 397.309789 
L 299.373848 396.641886 
L 300.207721 395.443773 
L 301.041594 388.051636 
L 301.875467 395.3739 
L 302.70934 396.169217 
L 303.543213 400.877414 
L 304.377086 400.27733 
L 305.210959 397.001526 
L 306.044832 399.165249 
L 306.878705 391.652314 
L 307.712578 393.828477 
L 308.546451 394.858587 
L 309.380324 393.487333 
L 310.214197 392.714621 
L 311.04807 393.842862 
L 311.881943 396.682988 
L 312.715816 398.051075 
L 313.549689 384.430578 
L 314.383562 385.369751 
L 315.217435 389.305237 
L 316.051308 384.298368 
L 316.885181 385.131362 
L 317.719054 389.151106 
L 318.552927 391.130152 
L 319.3868 400.967838 
L 320.220672 400.708897 
L 321.054545 399.136758 
L 321.888418 396.191823 
L 322.722291 395.517756 
L 323.556164 397.079619 
L 324.390037 400.186906 
L 325.22391 392.55227 
L 326.057783 398.676419 
L 326.891656 401.50353 
L 327.725529 396.200043 
L 328.559402 388.390725 
L 329.393275 399.360762 
L 330.227148 386.602802 
L 331.061021 392.839981 
L 331.894894 395.324578 
L 332.728767 382.278905 
L 333.56264 365.404612 
L 334.396513 381.228757 
L 335.230386 375.41698 
L 336.064259 377.901577 
L 336.898132 385.182739 
L 337.732005 361.393088 
L 338.565878 321.555287 
L 339.399751 311.44222 
L 340.233624 304.479595 
L 341.067497 349.259873 
L 343.569116 343.887884 
L 344.402989 364.997705 
L 345.236862 360.708231 
L 346.070735 359.769572 
L 346.904608 393.033159 
L 347.738481 394.329917 
L 348.572354 389.463479 
L 349.406227 395.807522 
L 350.2401 400.542436 
L 351.907846 342.778138 
L 352.741719 357.823407 
L 353.575592 394.249769 
L 354.409465 400.314321 
L 355.243337 404.551904 
L 356.07721 403.322964 
L 356.911083 400.509554 
L 357.744956 395.521866 
L 358.578829 385.493056 
L 359.412702 355.390188 
L 360.246575 362.001393 
L 361.080448 346.256368 
L 361.914321 342.788414 
L 362.748194 287.208671 
L 363.582067 309.668682 
L 364.41594 365.040862 
L 365.249813 351.27591 
L 366.083686 347.22945 
L 366.917559 291.820279 
L 367.751432 275.089841 
L 368.585305 299.732352 
L 369.419178 282.373058 
L 370.253051 316.664188 
L 371.086924 305.157773 
L 371.920797 315.706519 
L 372.75467 301.240783 
L 373.588543 275.363167 
L 374.422416 214.551181 
L 375.256289 202.469343 
L 376.090162 220.262259 
L 376.924035 324.648189 
L 377.757908 325.681896 
L 378.591781 278.462234 
L 379.425654 266.955819 
L 380.259527 296.655891 
L 381.0934 289.717928 
L 381.927273 299.604937 
L 382.761146 278.186853 
L 383.595019 280.274818 
L 384.428892 280.099211 
L 385.262765 251.294025 
L 386.096638 238.414814 
L 386.930511 241.579815 
L 387.764384 255.681629 
L 388.598257 266.975942 
L 389.43213 325.77643 
L 390.266002 313.998744 
L 391.099875 315.00779 
L 391.933748 289.241149 
L 392.767621 230.798674 
L 393.601494 257.837412 
L 394.435367 260.572729 
L 395.26924 259.74042 
L 396.103113 269.438361 
L 396.936986 225.457511 
L 397.770859 201.49549 
L 398.604732 189.590132 
L 399.438605 180.847805 
L 400.272478 218.70245 
L 401.106351 247.105764 
L 401.940224 226.39039 
L 402.774097 279.528822 
L 403.60797 307.155315 
L 404.441843 354.468997 
L 405.275716 340.12241 
L 406.109589 355.963276 
L 406.943462 385.316319 
L 407.777335 406.722073 
L 408.611208 406.446692 
L 409.445081 383.433862 
L 410.278954 372.872786 
L 411.112827 398.606547 
L 411.9467 354.32533 
L 412.780573 334.73865 
L 413.614446 291.103055 
L 414.448319 337.572611 
L 415.282192 310.679783 
L 416.116065 320.437322 
L 416.949938 327.162498 
L 417.783811 331.830707 
L 418.617684 329.255687 
L 419.451557 339.214623 
L 420.28543 340.236 
L 421.119303 341.46494 
L 421.953176 327.716429 
L 422.787049 322.674897 
L 423.620922 314.927642 
L 424.454795 361.728067 
L 425.288667 362.108257 
L 426.12254 381.433092 
L 426.956413 386.40103 
L 427.790286 338.896409 
L 428.624159 403.362011 
L 429.458032 407.840449 
L 430.291905 405.781187 
L 431.125778 416.49615 
L 431.959651 403.884002 
L 432.793524 381.080791 
L 433.627397 319.966707 
L 434.46127 285.521447 
L 435.295143 352.695973 
L 436.129016 393.442121 
L 436.962889 384.71829 
L 437.796762 380.293694 
L 438.630635 319.576242 
L 439.464508 316.840925 
L 440.298381 338.454242 
L 441.132254 363.943447 
L 441.966127 316.150417 
L 443.633873 335.517527 
L 444.467746 369.701792 
L 445.301619 306.41754 
L 446.135492 363.088532 
L 446.969365 342.161613 
L 447.803238 332.383524 
L 448.637111 348.59805 
L 449.470984 357.975484 
L 450.304857 363.084422 
L 451.13873 363.111138 
L 452.806476 350.182606 
L 453.640349 392.096041 
L 454.474222 375.612213 
L 455.308095 391.078774 
L 456.141968 371.068423 
L 456.975841 266.37012 
L 457.809714 320.556517 
L 458.643587 365.846985 
L 459.47746 364.611349 
L 460.311333 372.765237 
L 461.145205 369.693572 
L 461.979078 343.689774 
L 462.812951 339.551657 
L 463.646824 339.438627 
L 464.480697 313.957642 
L 465.31457 344.870214 
L 466.148443 292.307334 
L 466.982316 294.629579 
L 467.816189 296.096908 
L 468.650062 327.159501 
L 469.483935 369.101708 
L 470.317808 297.954704 
L 471.151681 281.777084 
L 471.985554 322.527342 
L 472.819427 341.635512 
L 473.6533 368.676305 
L 474.487173 337.636319 
L 475.321046 327.751365 
L 476.154919 311.610736 
L 476.988792 348.263157 
L 477.822665 353.807773 
L 478.656538 334.547527 
L 479.490411 354.056439 
L 480.324284 332.833588 
L 481.158157 335.480536 
L 481.99203 328.657657 
L 482.825903 304.876227 
L 483.659776 298.234196 
L 484.493649 298.645212 
L 485.327522 305.724976 
L 486.161395 280.607741 
L 486.995268 332.120473 
L 487.829141 334.364625 
L 488.663014 310.301648 
L 489.496887 358.682432 
L 490.33076 395.986315 
L 491.164633 414.36082 
L 491.998506 375.055286 
L 492.832379 387.067251 
L 493.666252 354.763387 
L 494.500125 361.153328 
L 495.333998 394.436781 
L 496.16787 407.837983 
L 497.001743 398.220191 
L 497.835616 416.029548 
L 498.669489 352.463749 
L 499.503362 325.768209 
L 500.337235 334.701659 
L 501.171108 327.679437 
L 502.004981 349.039979 
L 503.672727 265.511095 
L 504.5066 318.098636 
L 505.340473 351.214258 
L 506.174346 375.811556 
L 507.008219 383.039286 
L 507.842092 378.016661 
L 508.675965 389.328357 
L 509.509838 389.553902 
L 510.343711 316.760777 
L 511.177584 362.595312 
L 512.011457 348.330975 
L 512.84533 316.249061 
L 513.679203 296.828518 
L 514.513076 374.395604 
L 515.346949 397.95303 
L 516.180822 405.955527 
L 517.014695 405.312285 
L 517.848568 419.430711 
L 519.516314 414.334103 
L 520.350187 417.400289 
L 521.18406 407.328323 
L 522.017933 394.76765 
L 522.851806 313.006138 
L 523.685679 314.504295 
L 524.519552 348.546759 
L 525.353425 388.419496 
L 526.187298 282.41005 
L 527.021171 272.299037 
L 527.855044 352.12055 
L 528.688917 374.348337 
L 529.52279 353.205634 
L 530.356663 352.093834 
L 531.190535 347.858306 
L 532.024408 387.369348 
L 532.858281 248.244281 
L 533.692154 242.862016 
L 534.526027 286.787378 
L 537.027646 371.444503 
L 537.861519 342.352736 
L 538.695392 335.780578 
L 539.529265 353.47896 
L 540.363138 384.853925 
L 541.197011 400.491059 
L 542.030884 333.341193 
L 542.864757 342.782249 
L 543.69863 294.498053 
L 544.532503 353.499511 
L 545.366376 355.100421 
L 546.200249 408.586034 
L 547.034122 326.03126 
L 547.867995 341.725935 
L 548.701868 383.267401 
L 549.535741 408.573703 
L 550.369614 403.261312 
L 551.203487 414.578658 
L 552.03736 414.163531 
L 552.871233 414.097769 
L 553.705106 415.922683 
L 554.538979 415.380141 
L 555.372852 410.817855 
L 556.206725 408.85525 
L 557.040598 415.908298 
L 557.874471 414.0094 
L 558.708344 409.506711 
L 559.542217 410.059529 
L 560.37609 416.294653 
L 561.209963 413.583998 
L 562.043836 406.913196 
L 562.877709 408.129805 
L 563.711582 412.106393 
L 564.545455 414.751285 
L 565.379328 415.281497 
L 566.2132 414.677302 
L 567.047073 411.378893 
L 567.880946 405.867158 
L 569.548692 407.211183 
L 570.382565 417.066166 
L 571.216438 416.966666 
L 572.050311 395.00193 
L 572.884184 354.977116 
L 573.718057 298.517797 
L 574.55193 335.494921 
L 575.385803 363.624909 
L 576.219676 395.897946 
L 577.053549 411.319295 
L 577.887422 407.821543 
L 578.721295 402.155676 
L 579.555168 413.937472 
L 580.389041 412.786625 
L 581.222914 408.318873 
L 582.056787 408.440123 
L 582.89066 405.593832 
L 583.724533 401.243219 
L 585.392279 386.853522 
L 586.226152 394.058646 
L 587.060025 393.92301 
L 587.893898 407.552327 
L 588.727771 405.943196 
L 589.561644 413.600438 
L 590.395517 410.637008 
L 591.22939 399.510784 
L 592.063263 407.25434 
L 592.897136 403.843243 
L 593.731009 405.197201 
L 594.564882 402.131015 
L 595.398755 402.377626 
L 596.232628 401.994819 
L 597.066501 396.843285 
L 597.900374 412.451647 
L 598.734247 414.299167 
L 599.56812 406.300781 
L 600.401993 410.316843 
L 601.235866 404.044299 
L 602.069738 409.216945 
L 602.903611 408.507941 
L 603.737484 414.751285 
L 605.40523 411.148723 
L 606.239103 401.929617 
L 607.906849 366.660268 
L 608.740722 388.865449 
L 609.574595 391.013012 
L 610.408468 368.036575 
L 611.242341 386.623353 
L 612.076214 402.694108 
L 612.910087 312.720482 
L 613.74396 288.990428 
L 614.577833 282.923821 
L 615.411706 344.413985 
L 616.245579 275.589227 
L 617.079452 337.837717 
L 617.913325 382.340558 
L 618.747198 384.087379 
L 619.581071 370.811537 
L 620.414944 374.68126 
L 621.248817 370.320372 
L 622.08269 366.557514 
L 622.916563 307.794446 
L 623.750436 352.531566 
L 624.584309 369.601093 
L 625.418182 364.391455 
L 626.252055 371.146516 
L 627.085928 384.056553 
L 627.919801 398.984682 
L 628.753674 394.890955 
L 629.587547 398.824386 
L 630.42142 394.405955 
L 631.255293 400.098538 
L 632.089166 403.34968 
L 632.923039 408.588089 
L 633.756912 398.166759 
L 634.590785 393.890129 
L 635.424658 396.286357 
L 636.258531 400.562986 
L 637.092403 400.877414 
L 637.926276 399.29089 
L 638.760149 405.036904 
L 639.594022 408.197709 
L 640.427895 409.288873 
L 641.261768 396.689153 
L 642.095641 415.172578 
L 644.59726 399.997838 
L 645.431133 384.11204 
L 646.265006 416.496052 
L 647.098879 411.128173 
L 647.932752 408.475059 
L 648.766625 409.457389 
L 649.600498 403.158557 
L 650.434371 389.486084 
L 651.268244 391.130152 
L 652.102117 413.805947 
L 652.93599 335.194879 
L 653.769863 364.88262 
L 654.603736 380.460156 
L 655.437609 343.698816 
L 656.271482 384.336044 
L 657.105355 413.172981 
L 658.773101 360.283343 
L 659.606974 348.269322 
L 660.440847 311.228491 
L 661.27472 413.26135 
L 662.108593 403.662053 
L 662.942466 391.358266 
L 663.776339 387.78242 
L 664.610212 409.519042 
L 665.444085 381.029414 
L 666.277958 341.859516 
L 667.111831 326.26554 
L 667.945704 290.747525 
L 668.779577 260.883046 
L 669.61345 263.731393 
L 671.281196 314.888595 
L 672.115068 328.532297 
L 672.948941 327.880835 
L 673.782814 310.634572 
L 674.616687 315.829824 
L 675.45056 308.332878 
L 676.284433 352.174581 
L 677.118306 384.375091 
L 677.952179 366.245141 
L 678.786052 394.315532 
L 679.619925 356.83707 
L 680.453798 366.247196 
L 681.287671 368.863318 
L 682.121544 366.401327 
L 682.955417 399.019618 
L 683.78929 356.086861 
L 684.623163 347.944619 
L 685.457036 308.008174 
L 686.290909 341.632916 
L 687.124782 322.159482 
L 687.958655 385.361531 
L 688.792528 376.785666 
L 689.626401 382.893375 
L 690.460274 331.869753 
L 691.294147 299.024889 
L 692.12802 281.657889 
L 692.961893 327.934268 
L 693.795766 293.750688 
L 694.629639 269.436305 
L 695.463512 335.449709 
L 696.297385 317.533488 
L 697.131258 270.476178 
L 697.965131 287.724497 
L 698.799004 293.254727 
L 699.632877 294.28638 
L 700.46675 324.905896 
L 701.300623 373.495477 
L 702.134496 356.824637 
L 702.968369 367.104166 
L 703.802242 312.132728 
L 704.636115 305.437436 
L 705.469988 365.127689 
L 706.303861 326.112778 
L 707.137733 304.564967 
L 707.971606 351.885071 
L 709.639352 306.973611 
L 710.473225 313.080892 
L 711.307098 320.891215 
L 712.140971 325.130199 
L 712.974844 314.46721 
L 713.808717 340.320071 
L 714.64259 359.014142 
L 715.476463 347.629257 
L 716.310336 314.033213 
L 717.144209 304.6185 
L 717.978082 287.677603 
L 718.811955 284.287276 
L 719.645828 262.623983 
L 720.479701 237.318988 
L 721.313574 271.207227 
L 722.147447 263.610143 
L 722.98132 290.754251 
L 723.815193 286.283229 
L 724.649066 322.388717 
L 725.482939 260.668851 
L 726.316812 277.987883 
L 727.150685 320.641989 
L 727.984558 272.296515 
L 728.818431 290.365373 
L 729.652304 312.069487 
L 730.486177 315.822911 
L 731.32005 259.345377 
L 732.153923 258.279722 
L 732.987796 316.297729 
L 734.655542 373.015895 
L 735.489415 328.481854 
L 736.323288 245.274871 
L 737.157161 279.371515 
L 737.991034 336.150698 
L 738.824907 366.050469 
L 739.65878 295.169412 
L 740.492653 398.819341 
L 742.160399 316.46746 
L 742.994271 384.422264 
L 743.828144 398.671095 
L 744.662017 399.072864 
L 745.49589 390.021247 
L 746.329763 355.237084 
L 747.163636 364.488511 
L 747.163636 364.488511 
" style="fill:none;stroke:#1f77b4;stroke-linecap:square;stroke-width:1.5;"/>
   </g>
   <g id="line2d_19">
    <path clip-path="url(#pf6bf999e68)" d="M 138.436364 252.171319 
L 140.10411 348.296084 
L 140.937983 361.552311 
L 141.771856 311.274805 
L 142.605729 316.205502 
L 143.439601 385.565527 
L 144.273474 381.190577 
L 145.107347 287.182226 
L 145.94122 292.319892 
L 146.775093 307.694742 
L 147.608966 368.889444 
L 148.442839 327.413889 
L 149.276712 329.294852 
L 150.110585 306.821798 
L 150.944458 301.37514 
L 151.778331 318.603291 
L 152.612204 354.504137 
L 153.446077 277.472843 
L 154.27995 274.152958 
L 155.113823 372.717644 
L 155.947696 294.445828 
L 156.781569 364.101554 
L 157.615442 334.632505 
L 158.449315 299.82808 
L 159.283188 303.845024 
L 160.117061 273.802459 
L 160.950934 281.291153 
L 161.784807 273.346425 
L 162.61868 313.86717 
L 163.452553 311.063558 
L 164.286426 342.832132 
L 165.120299 266.85541 
L 165.954172 311.569886 
L 166.788045 278.633527 
L 167.621918 286.403834 
L 168.455791 251.188267 
L 169.289664 230.199285 
L 170.123537 225.949235 
L 170.95741 231.70849 
L 171.791283 254.627054 
L 172.625156 274.405694 
L 173.459029 288.546347 
L 174.292902 305.173617 
L 175.126775 312.292649 
L 175.960648 303.552077 
L 176.794521 252.519923 
L 177.628394 311.411683 
L 178.462267 337.408418 
L 180.130012 301.997115 
L 180.963885 325.702443 
L 181.797758 324.842802 
L 183.465504 257.277799 
L 185.13325 375.567244 
L 185.967123 338.177657 
L 186.800996 279.649586 
L 187.634869 335.45982 
L 188.468742 323.711758 
L 189.302615 274.09283 
L 190.136488 238.847586 
L 190.970361 280.703557 
L 191.804234 292.262424 
L 192.638107 255.593989 
L 193.47198 256.139258 
L 195.139726 340.738164 
L 195.973599 298.764956 
L 196.807472 210.541535 
L 197.641345 183.392883 
L 198.475218 282.929224 
L 199.309091 347.457766 
L 200.142964 268.247966 
L 200.976837 166.24866 
L 201.81071 199.635415 
L 202.644583 263.161283 
L 203.478456 282.35252 
L 204.312329 314.232913 
L 205.146202 310.977939 
L 205.980075 363.105283 
L 206.813948 401.457921 
L 207.647821 370.061168 
L 208.481694 270.456641 
L 209.315567 255.062611 
L 210.14944 321.287632 
L 210.983313 322.495104 
L 211.817186 291.994149 
L 212.651059 279.798351 
L 213.484932 292.549363 
L 214.318804 284.13206 
L 215.152677 285.226655 
L 215.98655 272.387273 
L 216.820423 301.727783 
L 217.654296 296.747289 
L 218.488169 288.324907 
L 219.322042 291.807741 
L 220.155915 314.803204 
L 220.989788 313.456885 
L 221.823661 296.681375 
L 222.657534 253.001035 
L 223.491407 325.060166 
L 224.32528 220.981887 
L 225.159153 267.33632 
L 225.993026 298.919736 
L 226.826899 274.483448 
L 227.660772 314.509521 
L 228.494645 251.8114 
L 229.328518 345.658706 
L 230.162391 391.542709 
L 230.996264 391.079007 
L 231.830137 343.526275 
L 232.66401 331.20461 
L 233.497883 248.989178 
L 234.331756 273.999741 
L 235.165629 306.509017 
L 235.999502 318.710096 
L 236.833375 350.992748 
L 237.667248 262.977736 
L 238.501121 280.738083 
L 239.334994 289.207703 
L 240.168867 382.303796 
L 241.00274 386.667427 
L 241.836613 384.937486 
L 242.670486 393.224445 
L 243.504359 381.851648 
L 244.338232 399.939958 
L 245.172105 328.18045 
L 246.839851 377.610578 
L 247.673724 395.804506 
L 248.507597 294.31951 
L 249.341469 226.38091 
L 250.175342 328.938282 
L 251.009215 266.621008 
L 251.843088 303.819698 
L 252.676961 306.993836 
L 253.510834 303.529033 
L 254.344707 287.378726 
L 255.17858 293.558431 
L 256.012453 337.984064 
L 256.846326 277.938481 
L 257.680199 272.847557 
L 258.514072 255.206527 
L 259.347945 317.250136 
L 260.181818 351.406617 
L 261.015691 302.457059 
L 261.849564 276.123377 
L 262.683437 283.256291 
L 263.51731 402.72512 
L 264.351183 341.313589 
L 265.185056 369.021378 
L 266.018929 328.071005 
L 266.852802 376.196532 
L 267.686675 380.938075 
L 268.520548 376.072896 
L 270.188294 305.085965 
L 271.022167 336.159051 
L 271.85604 327.679596 
L 272.689913 395.36808 
L 273.523786 398.78644 
L 274.357659 392.591316 
L 275.191532 376.935707 
L 276.025405 309.764091 
L 276.859278 377.726822 
L 277.693151 386.753782 
L 278.527024 382.999748 
L 279.360897 402.349438 
L 280.19477 401.59875 
L 281.862516 392.634696 
L 282.696389 396.869286 
L 283.530262 393.901933 
L 284.364134 350.79916 
L 285.198007 387.820024 
L 286.03188 382.05451 
L 286.865753 389.308434 
L 287.699626 401.646665 
L 288.533499 386.050889 
L 289.367372 376.264796 
L 290.201245 328.276529 
L 291.035118 373.562406 
L 291.868991 357.936674 
L 292.702864 393.359828 
L 293.536737 394.09749 
L 294.37061 391.962203 
L 295.204483 394.568644 
L 296.038356 368.560403 
L 296.872229 379.79027 
L 297.706102 370.01793 
L 298.539975 389.477448 
L 299.373848 396.905936 
L 300.207721 395.356047 
L 301.041594 397.154813 
L 301.875467 377.635044 
L 302.70934 397.416418 
L 303.543213 390.923987 
L 304.377086 388.972461 
L 305.210959 395.930276 
L 306.044832 362.718506 
L 306.878705 391.191125 
L 307.712578 384.127539 
L 308.546451 384.995976 
L 309.380324 389.847036 
L 310.214197 395.920295 
L 311.04807 396.337236 
L 311.881943 400.41079 
L 312.715816 401.047833 
L 313.549689 387.235805 
L 314.383562 389.445004 
L 315.217435 316.813733 
L 316.051308 325.410159 
L 316.885181 320.702686 
L 317.719054 333.793783 
L 318.552927 331.127095 
L 319.3868 345.583611 
L 320.220672 386.250163 
L 321.054545 386.251106 
L 321.888418 391.292116 
L 322.722291 393.427564 
L 323.556164 384.115097 
L 324.390037 329.751503 
L 325.22391 315.973833 
L 326.057783 359.599059 
L 326.891656 394.326427 
L 327.725529 391.728837 
L 328.559402 396.190735 
L 329.393275 327.994152 
L 330.227148 297.851102 
L 331.061021 396.08347 
L 331.894894 385.531728 
L 332.728767 393.296173 
L 333.56264 369.460274 
L 334.396513 395.256104 
L 335.230386 374.996419 
L 336.064259 372.024498 
L 336.898132 371.471612 
L 337.732005 281.735109 
L 338.565878 292.04298 
L 339.399751 328.619724 
L 340.233624 310.259242 
L 341.067497 265.79477 
L 343.569116 301.002581 
L 344.402989 288.316646 
L 345.236862 279.461605 
L 346.070735 370.966434 
L 346.904608 302.065494 
L 347.738481 296.039953 
L 348.572354 312.717489 
L 349.406227 324.651564 
L 350.2401 349.265364 
L 351.073973 327.201676 
L 351.907846 344.894784 
L 352.741719 295.817004 
L 353.575592 280.739453 
L 354.409465 397.625001 
L 355.243337 348.501544 
L 356.07721 311.737794 
L 356.911083 331.645668 
L 357.744956 393.22875 
L 358.578829 352.372347 
L 359.412702 329.771319 
L 360.246575 349.61325 
L 361.080448 312.589598 
L 361.914321 327.209827 
L 362.748194 252.68704 
L 363.582067 282.681694 
L 364.41594 343.423803 
L 365.249813 260.353706 
L 366.083686 350.627765 
L 366.917559 227.385967 
L 367.751432 229.01425 
L 368.585305 293.92399 
L 369.419178 280.173863 
L 370.253051 232.019375 
L 371.086924 193.51063 
L 371.920797 250.317724 
L 372.75467 279.839058 
L 373.588543 255.540559 
L 374.422416 262.076798 
L 375.256289 203.179205 
L 376.090162 198.51702 
L 376.924035 218.801418 
L 377.757908 206.178608 
L 378.591781 277.173999 
L 379.425654 241.348859 
L 380.259527 271.890816 
L 381.0934 264.080749 
L 381.927273 212.632531 
L 382.761146 289.995194 
L 383.595019 254.832423 
L 384.428892 254.248497 
L 385.262765 162.375236 
L 386.096638 124.635342 
L 386.930511 181.839006 
L 387.764384 266.908215 
L 388.598257 249.603553 
L 389.43213 178.438635 
L 390.266002 190.775857 
L 391.099875 259.666066 
L 391.933748 243.196437 
L 392.767621 260.239062 
L 393.601494 237.479979 
L 394.435367 201.368368 
L 395.26924 239.488254 
L 396.103113 245.081053 
L 396.936986 259.547099 
L 397.770859 224.165004 
L 398.604732 196.988294 
L 399.438605 165.423709 
L 400.272478 86.923636 
L 401.106351 260.324194 
L 401.940224 220.289501 
L 402.774097 144.503741 
L 403.60797 155.00619 
L 404.441843 267.194097 
L 405.275716 286.420724 
L 406.109589 288.547644 
L 406.943462 279.086406 
L 407.777335 346.262575 
L 408.611208 392.325646 
L 409.445081 314.505814 
L 410.278954 357.250414 
L 411.112827 323.793109 
L 411.9467 377.316463 
L 412.780573 336.211203 
L 413.614446 305.25574 
L 414.448319 340.813526 
L 415.282192 253.132017 
L 416.116065 229.348042 
L 416.949938 264.876059 
L 417.783811 330.562195 
L 418.617684 326.845593 
L 419.451557 307.921057 
L 420.28543 327.68151 
L 421.119303 322.879245 
L 421.953176 327.701941 
L 422.787049 262.285901 
L 423.620922 254.50932 
L 424.454795 207.298364 
L 425.288667 219.610674 
L 426.12254 292.382881 
L 427.790286 270.296755 
L 428.624159 264.945717 
L 429.458032 252.707058 
L 430.291905 319.796136 
L 431.125778 291.239253 
L 431.959651 323.663029 
L 432.793524 248.552039 
L 433.627397 240.835144 
L 434.46127 254.038235 
L 435.295143 189.598292 
L 436.962889 352.326602 
L 437.796762 365.823915 
L 438.630635 291.708249 
L 439.464508 341.555921 
L 440.298381 347.316656 
L 441.132254 333.267179 
L 441.966127 371.137764 
L 442.8 370.58302 
L 443.633873 356.272284 
L 444.467746 318.852485 
L 445.301619 344.961241 
L 446.135492 301.750882 
L 447.803238 312.658861 
L 449.470984 243.580238 
L 450.304857 254.639602 
L 451.13873 289.547255 
L 451.972603 260.625053 
L 453.640349 385.182683 
L 454.474222 407.843721 
L 455.308095 386.684225 
L 456.141968 394.216287 
L 456.975841 265.951988 
L 457.809714 281.383653 
L 458.643587 313.557048 
L 459.47746 319.822998 
L 460.311333 349.502048 
L 461.145205 319.369687 
L 461.979078 353.998752 
L 462.812951 347.499514 
L 463.646824 316.665612 
L 464.480697 361.459346 
L 465.31457 340.261937 
L 466.982316 287.889736 
L 467.816189 283.019489 
L 468.650062 331.214113 
L 469.483935 361.469185 
L 470.317808 367.7687 
L 471.151681 256.403908 
L 471.985554 335.930013 
L 472.819427 359.754515 
L 473.6533 389.626861 
L 474.487173 375.143265 
L 475.321046 291.25813 
L 476.154919 241.444294 
L 476.988792 297.933308 
L 477.822665 321.04416 
L 478.656538 313.804007 
L 479.490411 329.894646 
L 480.324284 350.315876 
L 481.158157 321.436874 
L 481.99203 319.214915 
L 482.825903 330.093649 
L 483.659776 324.476461 
L 484.493649 310.856368 
L 485.327522 303.404886 
L 486.161395 277.372596 
L 486.995268 323.095892 
L 487.829141 323.361066 
L 489.496887 338.343688 
L 490.33076 346.670846 
L 491.164633 291.761256 
L 491.998506 323.286035 
L 492.832379 289.454681 
L 493.666252 350.948761 
L 494.500125 266.522133 
L 495.333998 265.945365 
L 496.16787 306.621572 
L 497.001743 289.520944 
L 497.835616 323.755382 
L 498.669489 304.512784 
L 499.503362 288.531186 
L 500.337235 259.563824 
L 501.171108 275.198456 
L 502.004981 362.755226 
L 502.838854 314.453626 
L 504.5066 291.839792 
L 505.340473 335.022405 
L 506.174346 371.961455 
L 507.008219 336.195591 
L 507.842092 329.943661 
L 508.675965 378.915615 
L 509.509838 288.779295 
L 510.343711 218.159186 
L 511.177584 252.561909 
L 512.011457 295.901538 
L 512.84533 288.625057 
L 514.513076 254.521794 
L 515.346949 357.925818 
L 516.180822 330.049252 
L 517.014695 383.519185 
L 517.848568 383.224762 
L 518.682441 424.276708 
L 519.516314 405.091189 
L 520.350187 365.478255 
L 521.18406 361.153336 
L 522.017933 326.806413 
L 522.851806 368.925543 
L 523.685679 306.149245 
L 524.519552 267.772447 
L 525.353425 265.992153 
L 526.187298 274.705761 
L 527.021171 277.59364 
L 528.688917 356.942518 
L 529.52279 347.207376 
L 530.356663 265.633504 
L 531.190535 280.61401 
L 532.024408 285.15915 
L 532.858281 231.965025 
L 533.692154 140.901498 
L 534.526027 177.005068 
L 535.3599 293.421599 
L 536.193773 311.964239 
L 537.027646 355.079535 
L 537.861519 322.597209 
L 538.695392 269.481795 
L 539.529265 257.696613 
L 540.363138 323.174805 
L 541.197011 327.310331 
L 542.030884 389.869478 
L 542.864757 311.815042 
L 543.69863 258.752267 
L 544.532503 271.154437 
L 545.366376 222.753699 
L 546.200249 357.699682 
L 547.034122 331.296963 
L 547.867995 290.835655 
L 548.701868 353.228212 
L 549.535741 388.11867 
L 550.369614 388.228687 
L 551.203487 418.61736 
L 552.03736 418.653831 
L 552.871233 389.047234 
L 553.705106 402.566623 
L 554.538979 397.360177 
L 555.372852 410.360039 
L 556.206725 412.727842 
L 557.040598 423.282111 
L 557.874471 420.280651 
L 558.708344 419.731596 
L 559.542217 383.393838 
L 560.37609 417.633636 
L 561.209963 408.044715 
L 562.043836 419.862168 
L 562.877709 377.936358 
L 563.711582 400.14425 
L 564.545455 425.703045 
L 565.379328 421.621607 
L 566.2132 411.743658 
L 567.047073 398.16781 
L 567.880946 410.951471 
L 568.714819 332.105621 
L 569.548692 442.996364 
L 570.382565 329.491978 
L 571.216438 411.539757 
L 572.050311 349.442288 
L 572.884184 320.869747 
L 573.718057 278.291344 
L 574.55193 312.286605 
L 575.385803 330.062196 
L 576.219676 353.949779 
L 577.053549 386.709413 
L 577.887422 398.011994 
L 578.721295 331.970877 
L 579.555168 352.157977 
L 580.389041 403.784183 
L 581.222914 417.508055 
L 582.056787 410.821092 
L 583.724533 404.862394 
L 584.558406 403.924295 
L 585.392279 389.888548 
L 586.226152 384.493654 
L 587.060025 334.789034 
L 587.893898 362.873291 
L 588.727771 380.390658 
L 589.561644 302.50945 
L 590.395517 330.786596 
L 591.22939 375.631944 
L 592.063263 398.401264 
L 592.897136 321.649299 
L 593.731009 382.405924 
L 594.564882 391.508795 
L 595.398755 397.243045 
L 596.232628 370.742888 
L 597.066501 398.918135 
L 598.734247 419.376866 
L 599.56812 407.121689 
L 600.401993 427.196629 
L 601.235866 415.818016 
L 602.069738 407.357337 
L 602.903611 426.473507 
L 603.737484 422.05405 
L 604.571357 419.626976 
L 605.40523 428.506657 
L 606.239103 416.01631 
L 607.072976 344.39198 
L 607.906849 327.266339 
L 608.740722 339.934363 
L 609.574595 337.779799 
L 610.408468 326.827535 
L 611.242341 313.462837 
L 612.076214 379.327952 
L 612.910087 330.419732 
L 613.74396 291.735139 
L 614.577833 234.488174 
L 615.411706 343.83947 
L 616.245579 245.736752 
L 617.079452 297.788178 
L 617.913325 315.409953 
L 618.747198 324.951622 
L 619.581071 349.910236 
L 620.414944 361.806782 
L 621.248817 377.10074 
L 622.916563 325.568398 
L 623.750436 260.790403 
L 624.584309 264.671518 
L 625.418182 308.40159 
L 626.252055 335.070831 
L 627.085928 330.782006 
L 627.919801 298.790861 
L 628.753674 361.866472 
L 629.587547 389.439531 
L 630.42142 326.010183 
L 631.255293 300.21522 
L 632.089166 304.797056 
L 632.923039 369.391881 
L 633.756912 406.159202 
L 634.590785 383.300822 
L 635.424658 322.74038 
L 636.258531 390.734487 
L 637.092403 401.118309 
L 637.926276 413.927136 
L 638.760149 413.505397 
L 639.594022 408.04351 
L 640.427895 406.680838 
L 641.261768 405.78893 
L 642.095641 310.591719 
L 642.929514 391.796885 
L 643.763387 309.376289 
L 644.59726 416.153276 
L 645.431133 336.048317 
L 646.265006 353.687512 
L 647.098879 412.797353 
L 647.932752 401.548411 
L 648.766625 411.065471 
L 649.600498 401.791534 
L 650.434371 395.523215 
L 651.268244 401.124027 
L 652.102117 424.69462 
L 652.93599 368.200388 
L 653.769863 369.373307 
L 654.603736 349.745198 
L 655.437609 350.341119 
L 656.271482 292.257125 
L 657.105355 354.465472 
L 657.939228 391.874809 
L 658.773101 355.632559 
L 659.606974 268.521447 
L 660.440847 315.056281 
L 662.108593 384.049077 
L 662.942466 356.751984 
L 663.776339 401.171896 
L 664.610212 357.673547 
L 665.444085 340.426331 
L 666.277958 343.677238 
L 667.111831 268.322886 
L 667.945704 326.701098 
L 668.779577 264.217471 
L 669.61345 232.096338 
L 670.447323 273.740151 
L 671.281196 274.992812 
L 672.115068 310.929228 
L 672.948941 300.689313 
L 673.782814 331.621105 
L 674.616687 329.46954 
L 675.45056 281.127412 
L 676.284433 285.88217 
L 677.118306 406.439045 
L 677.952179 292.313425 
L 678.786052 418.87166 
L 679.619925 406.926992 
L 680.453798 248.440192 
L 681.287671 360.598693 
L 682.121544 360.683654 
L 682.955417 310.765064 
L 683.78929 338.678539 
L 684.623163 266.835135 
L 685.457036 337.26406 
L 686.290909 313.129072 
L 687.124782 310.625306 
L 687.958655 321.988381 
L 688.792528 264.428837 
L 689.626401 292.611763 
L 690.460274 358.750075 
L 691.294147 287.817364 
L 692.12802 262.989566 
L 692.961893 218.224392 
L 693.795766 233.539307 
L 694.629639 260.429877 
L 695.463512 203.455188 
L 696.297385 289.541349 
L 697.131258 245.556223 
L 697.965131 241.399492 
L 698.799004 248.607953 
L 699.632877 263.375262 
L 700.46675 292.597863 
L 701.300623 310.673456 
L 702.134496 341.81701 
L 702.968369 364.789856 
L 703.802242 277.927966 
L 704.636115 287.305682 
L 705.469988 280.084646 
L 706.303861 317.839608 
L 707.137733 301.427954 
L 707.971606 287.95887 
L 708.805479 297.876474 
L 709.639352 315.532508 
L 710.473225 304.668089 
L 711.307098 283.568484 
L 712.140971 289.822953 
L 712.974844 314.653079 
L 713.808717 307.780793 
L 714.64259 262.0685 
L 715.476463 182.397982 
L 716.310336 290.533058 
L 717.144209 266.415861 
L 717.978082 292.052906 
L 718.811955 274.561376 
L 719.645828 294.363419 
L 720.479701 304.585285 
L 721.313574 321.303299 
L 722.147447 331.911458 
L 722.98132 322.16317 
L 723.815193 309.710523 
L 724.649066 287.409618 
L 725.482939 276.619916 
L 726.316812 228.71168 
L 727.150685 235.819075 
L 727.984558 280.285838 
L 728.818431 302.723512 
L 729.652304 303.77061 
L 730.486177 310.527645 
L 731.32005 286.064071 
L 732.153923 204.152413 
L 732.987796 282.095258 
L 733.821669 296.03654 
L 734.655542 372.852168 
L 735.489415 269.635849 
L 736.323288 237.369751 
L 737.157161 139.152648 
L 737.991034 202.685507 
L 739.65878 361.693192 
L 740.492653 260.729871 
L 741.326526 320.203395 
L 742.160399 288.807528 
L 742.994271 183.401052 
L 743.828144 262.077718 
L 744.662017 299.353821 
L 745.49589 324.822728 
L 746.329763 382.002335 
L 747.163636 286.476491 
L 747.163636 286.476491 
" style="fill:none;stroke:#ff0000;stroke-dasharray:5.55,2.4;stroke-dashoffset:0;stroke-width:1.5;"/>
   </g>
   <g id="patch_3">
    <path d="M 108 460.8 
L 108 69.12 
" style="fill:none;stroke:#000000;stroke-linecap:square;stroke-linejoin:miter;stroke-width:0.8;"/>
   </g>
   <g id="patch_4">
    <path d="M 777.6 460.8 
L 777.6 69.12 
" style="fill:none;stroke:#000000;stroke-linecap:square;stroke-linejoin:miter;stroke-width:0.8;"/>
   </g>
   <g id="patch_5">
    <path d="M 108 460.8 
L 777.6 460.8 
" style="fill:none;stroke:#000000;stroke-linecap:square;stroke-linejoin:miter;stroke-width:0.8;"/>
   </g>
   <g id="patch_6">
    <path d="M 108 69.12 
L 777.6 69.12 
" style="fill:none;stroke:#000000;stroke-linecap:square;stroke-linejoin:miter;stroke-width:0.8;"/>
   </g>
   <g id="text_20">
    <!-- Macau residential 2020-2021 | Forecast vs Monitored | ANN -->
    <g transform="translate(219.761719 63.12)scale(0.15 -0.15)">
     <defs>
      <path d="M 9.8125 72.90625 
L 24.515625 72.90625 
L 43.109375 23.296875 
L 61.8125 72.90625 
L 76.515625 72.90625 
L 76.515625 0 
L 66.890625 0 
L 66.890625 64.015625 
L 48.09375 14.015625 
L 38.1875 14.015625 
L 19.390625 64.015625 
L 19.390625 0 
L 9.8125 0 
z
" id="DejaVuSans-77"/>
      <path d="M 48.78125 52.59375 
L 48.78125 44.1875 
Q 44.96875 46.296875 41.140625 47.34375 
Q 37.3125 48.390625 33.40625 48.390625 
Q 24.65625 48.390625 19.8125 42.84375 
Q 14.984375 37.3125 14.984375 27.296875 
Q 14.984375 17.28125 19.8125 11.734375 
Q 24.65625 6.203125 33.40625 6.203125 
Q 37.3125 6.203125 41.140625 7.25 
Q 44.96875 8.296875 48.78125 10.40625 
L 48.78125 2.09375 
Q 45.015625 0.34375 40.984375 -0.53125 
Q 36.96875 -1.421875 32.421875 -1.421875 
Q 20.0625 -1.421875 12.78125 6.34375 
Q 5.515625 14.109375 5.515625 27.296875 
Q 5.515625 40.671875 12.859375 48.328125 
Q 20.21875 56 33.015625 56 
Q 37.15625 56 41.109375 55.140625 
Q 45.0625 54.296875 48.78125 52.59375 
z
" id="DejaVuSans-99"/>
      <path d="M 8.5 21.578125 
L 8.5 54.6875 
L 17.484375 54.6875 
L 17.484375 21.921875 
Q 17.484375 14.15625 20.5 10.265625 
Q 23.53125 6.390625 29.59375 6.390625 
Q 36.859375 6.390625 41.078125 11.03125 
Q 45.3125 15.671875 45.3125 23.6875 
L 45.3125 54.6875 
L 54.296875 54.6875 
L 54.296875 0 
L 45.3125 0 
L 45.3125 8.40625 
Q 42.046875 3.421875 37.71875 1 
Q 33.40625 -1.421875 27.6875 -1.421875 
Q 18.265625 -1.421875 13.375 4.4375 
Q 8.5 10.296875 8.5 21.578125 
z
M 31.109375 56 
z
" id="DejaVuSans-117"/>
      <path id="DejaVuSans-32"/>
      <path d="M 41.109375 46.296875 
Q 39.59375 47.171875 37.8125 47.578125 
Q 36.03125 48 33.890625 48 
Q 26.265625 48 22.1875 43.046875 
Q 18.109375 38.09375 18.109375 28.8125 
L 18.109375 0 
L 9.078125 0 
L 9.078125 54.6875 
L 18.109375 54.6875 
L 18.109375 46.1875 
Q 20.953125 51.171875 25.484375 53.578125 
Q 30.03125 56 36.53125 56 
Q 37.453125 56 38.578125 55.875 
Q 39.703125 55.765625 41.0625 55.515625 
z
" id="DejaVuSans-114"/>
      <path d="M 44.28125 53.078125 
L 44.28125 44.578125 
Q 40.484375 46.53125 36.375 47.5 
Q 32.28125 48.484375 27.875 48.484375 
Q 21.1875 48.484375 17.84375 46.4375 
Q 14.5 44.390625 14.5 40.28125 
Q 14.5 37.15625 16.890625 35.375 
Q 19.28125 33.59375 26.515625 31.984375 
L 29.59375 31.296875 
Q 39.15625 29.25 43.1875 25.515625 
Q 47.21875 21.78125 47.21875 15.09375 
Q 47.21875 7.46875 41.1875 3.015625 
Q 35.15625 -1.421875 24.609375 -1.421875 
Q 20.21875 -1.421875 15.453125 -0.5625 
Q 10.6875 0.296875 5.421875 2 
L 5.421875 11.28125 
Q 10.40625 8.6875 15.234375 7.390625 
Q 20.0625 6.109375 24.8125 6.109375 
Q 31.15625 6.109375 34.5625 8.28125 
Q 37.984375 10.453125 37.984375 14.40625 
Q 37.984375 18.0625 35.515625 20.015625 
Q 33.0625 21.96875 24.703125 23.78125 
L 21.578125 24.515625 
Q 13.234375 26.265625 9.515625 29.90625 
Q 5.8125 33.546875 5.8125 39.890625 
Q 5.8125 47.609375 11.28125 51.796875 
Q 16.75 56 26.8125 56 
Q 31.78125 56 36.171875 55.265625 
Q 40.578125 54.546875 44.28125 53.078125 
z
" id="DejaVuSans-115"/>
      <path d="M 9.421875 54.6875 
L 18.40625 54.6875 
L 18.40625 0 
L 9.421875 0 
z
M 9.421875 75.984375 
L 18.40625 75.984375 
L 18.40625 64.59375 
L 9.421875 64.59375 
z
" id="DejaVuSans-105"/>
      <path d="M 45.40625 46.390625 
L 45.40625 75.984375 
L 54.390625 75.984375 
L 54.390625 0 
L 45.40625 0 
L 45.40625 8.203125 
Q 42.578125 3.328125 38.25 0.953125 
Q 33.9375 -1.421875 27.875 -1.421875 
Q 17.96875 -1.421875 11.734375 6.484375 
Q 5.515625 14.40625 5.515625 27.296875 
Q 5.515625 40.1875 11.734375 48.09375 
Q 17.96875 56 27.875 56 
Q 33.9375 56 38.25 53.625 
Q 42.578125 51.265625 45.40625 46.390625 
z
M 14.796875 27.296875 
Q 14.796875 17.390625 18.875 11.75 
Q 22.953125 6.109375 30.078125 6.109375 
Q 37.203125 6.109375 41.296875 11.75 
Q 45.40625 17.390625 45.40625 27.296875 
Q 45.40625 37.203125 41.296875 42.84375 
Q 37.203125 48.484375 30.078125 48.484375 
Q 22.953125 48.484375 18.875 42.84375 
Q 14.796875 37.203125 14.796875 27.296875 
z
" id="DejaVuSans-100"/>
      <path d="M 54.890625 33.015625 
L 54.890625 0 
L 45.90625 0 
L 45.90625 32.71875 
Q 45.90625 40.484375 42.875 44.328125 
Q 39.84375 48.1875 33.796875 48.1875 
Q 26.515625 48.1875 22.3125 43.546875 
Q 18.109375 38.921875 18.109375 30.90625 
L 18.109375 0 
L 9.078125 0 
L 9.078125 54.6875 
L 18.109375 54.6875 
L 18.109375 46.1875 
Q 21.34375 51.125 25.703125 53.5625 
Q 30.078125 56 35.796875 56 
Q 45.21875 56 50.046875 50.171875 
Q 54.890625 44.34375 54.890625 33.015625 
z
" id="DejaVuSans-110"/>
      <path d="M 9.421875 75.984375 
L 18.40625 75.984375 
L 18.40625 0 
L 9.421875 0 
z
" id="DejaVuSans-108"/>
      <path d="M 21 76.421875 
L 21 -23.578125 
L 12.703125 -23.578125 
L 12.703125 76.421875 
z
" id="DejaVuSans-124"/>
      <path d="M 9.8125 72.90625 
L 51.703125 72.90625 
L 51.703125 64.59375 
L 19.671875 64.59375 
L 19.671875 43.109375 
L 48.578125 43.109375 
L 48.578125 34.8125 
L 19.671875 34.8125 
L 19.671875 0 
L 9.8125 0 
z
" id="DejaVuSans-70"/>
      <path d="M 30.609375 48.390625 
Q 23.390625 48.390625 19.1875 42.75 
Q 14.984375 37.109375 14.984375 27.296875 
Q 14.984375 17.484375 19.15625 11.84375 
Q 23.34375 6.203125 30.609375 6.203125 
Q 37.796875 6.203125 41.984375 11.859375 
Q 46.1875 17.53125 46.1875 27.296875 
Q 46.1875 37.015625 41.984375 42.703125 
Q 37.796875 48.390625 30.609375 48.390625 
z
M 30.609375 56 
Q 42.328125 56 49.015625 48.375 
Q 55.71875 40.765625 55.71875 27.296875 
Q 55.71875 13.875 49.015625 6.21875 
Q 42.328125 -1.421875 30.609375 -1.421875 
Q 18.84375 -1.421875 12.171875 6.21875 
Q 5.515625 13.875 5.515625 27.296875 
Q 5.515625 40.765625 12.171875 48.375 
Q 18.84375 56 30.609375 56 
z
" id="DejaVuSans-111"/>
      <path d="M 2.984375 54.6875 
L 12.5 54.6875 
L 29.59375 8.796875 
L 46.6875 54.6875 
L 56.203125 54.6875 
L 35.6875 0 
L 23.484375 0 
z
" id="DejaVuSans-118"/>
      <path d="M 34.1875 63.1875 
L 20.796875 26.90625 
L 47.609375 26.90625 
z
M 28.609375 72.90625 
L 39.796875 72.90625 
L 67.578125 0 
L 57.328125 0 
L 50.6875 18.703125 
L 17.828125 18.703125 
L 11.1875 0 
L 0.78125 0 
z
" id="DejaVuSans-65"/>
      <path d="M 9.8125 72.90625 
L 23.09375 72.90625 
L 55.421875 11.921875 
L 55.421875 72.90625 
L 64.984375 72.90625 
L 64.984375 0 
L 51.703125 0 
L 19.390625 60.984375 
L 19.390625 0 
L 9.8125 0 
z
" id="DejaVuSans-78"/>
     </defs>
     <use xlink:href="#DejaVuSans-77"/>
     <use x="86.279297" xlink:href="#DejaVuSans-97"/>
     <use x="147.558594" xlink:href="#DejaVuSans-99"/>
     <use x="202.539062" xlink:href="#DejaVuSans-97"/>
     <use x="263.818359" xlink:href="#DejaVuSans-117"/>
     <use x="327.197266" xlink:href="#DejaVuSans-32"/>
     <use x="358.984375" xlink:href="#DejaVuSans-114"/>
     <use x="397.847656" xlink:href="#DejaVuSans-101"/>
     <use x="459.371094" xlink:href="#DejaVuSans-115"/>
     <use x="511.470703" xlink:href="#DejaVuSans-105"/>
     <use x="539.253906" xlink:href="#DejaVuSans-100"/>
     <use x="602.730469" xlink:href="#DejaVuSans-101"/>
     <use x="664.253906" xlink:href="#DejaVuSans-110"/>
     <use x="727.632812" xlink:href="#DejaVuSans-116"/>
     <use x="766.841797" xlink:href="#DejaVuSans-105"/>
     <use x="794.625" xlink:href="#DejaVuSans-97"/>
     <use x="855.904297" xlink:href="#DejaVuSans-108"/>
     <use x="883.6875" xlink:href="#DejaVuSans-32"/>
     <use x="915.474609" xlink:href="#DejaVuSans-50"/>
     <use x="979.097656" xlink:href="#DejaVuSans-48"/>
     <use x="1042.720703" xlink:href="#DejaVuSans-50"/>
     <use x="1106.34375" xlink:href="#DejaVuSans-48"/>
     <use x="1169.966797" xlink:href="#DejaVuSans-45"/>
     <use x="1206.050781" xlink:href="#DejaVuSans-50"/>
     <use x="1269.673828" xlink:href="#DejaVuSans-48"/>
     <use x="1333.296875" xlink:href="#DejaVuSans-50"/>
     <use x="1396.919922" xlink:href="#DejaVuSans-49"/>
     <use x="1460.542969" xlink:href="#DejaVuSans-32"/>
     <use x="1492.330078" xlink:href="#DejaVuSans-124"/>
     <use x="1526.021484" xlink:href="#DejaVuSans-32"/>
     <use x="1557.808594" xlink:href="#DejaVuSans-70"/>
     <use x="1611.703125" xlink:href="#DejaVuSans-111"/>
     <use x="1672.884766" xlink:href="#DejaVuSans-114"/>
     <use x="1711.748047" xlink:href="#DejaVuSans-101"/>
     <use x="1773.271484" xlink:href="#DejaVuSans-99"/>
     <use x="1828.251953" xlink:href="#DejaVuSans-97"/>
     <use x="1889.53125" xlink:href="#DejaVuSans-115"/>
     <use x="1941.630859" xlink:href="#DejaVuSans-116"/>
     <use x="1980.839844" xlink:href="#DejaVuSans-32"/>
     <use x="2012.626953" xlink:href="#DejaVuSans-118"/>
     <use x="2071.806641" xlink:href="#DejaVuSans-115"/>
     <use x="2123.90625" xlink:href="#DejaVuSans-32"/>
     <use x="2155.693359" xlink:href="#DejaVuSans-77"/>
     <use x="2241.972656" xlink:href="#DejaVuSans-111"/>
     <use x="2303.154297" xlink:href="#DejaVuSans-110"/>
     <use x="2366.533203" xlink:href="#DejaVuSans-105"/>
     <use x="2394.316406" xlink:href="#DejaVuSans-116"/>
     <use x="2433.525391" xlink:href="#DejaVuSans-111"/>
     <use x="2494.707031" xlink:href="#DejaVuSans-114"/>
     <use x="2533.570312" xlink:href="#DejaVuSans-101"/>
     <use x="2595.09375" xlink:href="#DejaVuSans-100"/>
     <use x="2658.570312" xlink:href="#DejaVuSans-32"/>
     <use x="2690.357422" xlink:href="#DejaVuSans-124"/>
     <use x="2724.048828" xlink:href="#DejaVuSans-32"/>
     <use x="2755.835938" xlink:href="#DejaVuSans-65"/>
     <use x="2824.244141" xlink:href="#DejaVuSans-78"/>
     <use x="2899.048828" xlink:href="#DejaVuSans-78"/>
    </g>
   </g>
   <g id="legend_1">
    <g id="patch_7">
     <path d="M 614.74125 114.615 
L 769.2 114.615 
Q 771.6 114.615 771.6 112.215 
L 771.6 77.52 
Q 771.6 75.12 769.2 75.12 
L 614.74125 75.12 
Q 612.34125 75.12 612.34125 77.52 
L 612.34125 112.215 
Q 612.34125 114.615 614.74125 114.615 
z
" style="fill:#ffffff;opacity:0.8;stroke:#cccccc;stroke-linejoin:miter;"/>
    </g>
    <g id="line2d_20">
     <path d="M 617.14125 84.838125 
L 641.14125 84.838125 
" style="fill:none;stroke:#1f77b4;stroke-linecap:square;stroke-width:1.5;"/>
    </g>
    <g id="line2d_21"/>
    <g id="text_21">
     <!-- measured_data_O3 -->
     <g transform="translate(650.74125 89.038125)scale(0.12 -0.12)">
      <defs>
       <path d="M 50.984375 -16.609375 
L 50.984375 -23.578125 
L -0.984375 -23.578125 
L -0.984375 -16.609375 
z
" id="DejaVuSans-95"/>
      </defs>
      <use xlink:href="#DejaVuSans-109"/>
      <use x="97.412109" xlink:href="#DejaVuSans-101"/>
      <use x="158.935547" xlink:href="#DejaVuSans-97"/>
      <use x="220.214844" xlink:href="#DejaVuSans-115"/>
      <use x="272.314453" xlink:href="#DejaVuSans-117"/>
      <use x="335.693359" xlink:href="#DejaVuSans-114"/>
      <use x="374.556641" xlink:href="#DejaVuSans-101"/>
      <use x="436.080078" xlink:href="#DejaVuSans-100"/>
      <use x="499.556641" xlink:href="#DejaVuSans-95"/>
      <use x="549.556641" xlink:href="#DejaVuSans-100"/>
      <use x="613.033203" xlink:href="#DejaVuSans-97"/>
      <use x="674.3125" xlink:href="#DejaVuSans-116"/>
      <use x="713.521484" xlink:href="#DejaVuSans-97"/>
      <use x="774.800781" xlink:href="#DejaVuSans-95"/>
      <use x="824.800781" xlink:href="#DejaVuSans-79"/>
      <use x="903.511719" xlink:href="#DejaVuSans-51"/>
     </g>
    </g>
    <g id="line2d_22">
     <path d="M 617.14125 102.785625 
L 641.14125 102.785625 
" style="fill:none;stroke:#ff0000;stroke-dasharray:5.55,2.4;stroke-dashoffset:0;stroke-width:1.5;"/>
    </g>
    <g id="line2d_23"/>
    <g id="text_22">
     <!-- predicted_data_O3 -->
     <g transform="translate(650.74125 106.985625)scale(0.12 -0.12)">
      <use xlink:href="#DejaVuSans-112"/>
      <use x="63.476562" xlink:href="#DejaVuSans-114"/>
      <use x="102.339844" xlink:href="#DejaVuSans-101"/>
      <use x="163.863281" xlink:href="#DejaVuSans-100"/>
      <use x="227.339844" xlink:href="#DejaVuSans-105"/>
      <use x="255.123047" xlink:href="#DejaVuSans-99"/>
      <use x="310.103516" xlink:href="#DejaVuSans-116"/>
      <use x="349.3125" xlink:href="#DejaVuSans-101"/>
      <use x="410.835938" xlink:href="#DejaVuSans-100"/>
      <use x="474.3125" xlink:href="#DejaVuSans-95"/>
      <use x="524.3125" xlink:href="#DejaVuSans-100"/>
      <use x="587.789062" xlink:href="#DejaVuSans-97"/>
      <use x="649.068359" xlink:href="#DejaVuSans-116"/>
      <use x="688.277344" xlink:href="#DejaVuSans-97"/>
      <use x="749.556641" xlink:href="#DejaVuSans-95"/>
      <use x="799.556641" xlink:href="#DejaVuSans-79"/>
      <use x="878.267578" xlink:href="#DejaVuSans-51"/>
     </g>
    </g>
   </g>
  </g>
 </g>
 <defs>
  <clipPath id="pf6bf999e68">
   <rect height="391.68" width="669.6" x="108" y="69.12"/>
  </clipPath>
 </defs>
</svg>
