<?xml version="1.0" encoding="utf-8" standalone="no"?>
<!DOCTYPE svg PUBLIC "-//W3C//DTD SVG 1.1//EN"
  "http://www.w3.org/Graphics/SVG/1.1/DTD/svg11.dtd">
<!-- Created with matplotlib (https://matplotlib.org/) -->
<svg height="576pt" version="1.1" viewBox="0 0 864 576" width="864pt" xmlns="http://www.w3.org/2000/svg" xmlns:xlink="http://www.w3.org/1999/xlink">
 <metadata>
  <rdf:RDF xmlns:cc="http://creativecommons.org/ns#" xmlns:dc="http://purl.org/dc/elements/1.1/" xmlns:rdf="http://www.w3.org/1999/02/22-rdf-syntax-ns#">
   <cc:Work>
    <dc:type rdf:resource="http://purl.org/dc/dcmitype/StillImage"/>
    <dc:date>2024-03-08T19:33:45.988185</dc:date>
    <dc:format>image/svg+xml</dc:format>
    <dc:creator>
     <cc:Agent>
      <dc:title>Matplotlib v3.3.4, https://matplotlib.org/</dc:title>
     </cc:Agent>
    </dc:creator>
   </cc:Work>
  </rdf:RDF>
 </metadata>
 <defs>
  <style type="text/css">*{stroke-linecap:butt;stroke-linejoin:round;}</style>
 </defs>
 <g id="figure_1">
  <g id="patch_1">
   <path d="M 0 576 
L 864 576 
L 864 0 
L 0 0 
z
" style="fill:#ffffff;"/>
  </g>
  <g id="axes_1">
   <g id="patch_2">
    <path d="M 108 460.8 
L 777.6 460.8 
L 777.6 69.12 
L 108 69.12 
z
" style="fill:#ffffff;"/>
   </g>
   <g id="matplotlib.axis_1">
    <g id="xtick_1">
     <g id="line2d_1">
      <defs>
       <path d="M 0 0 
L 0 3.5 
" id="m3bbb4c0f95" style="stroke:#000000;stroke-width:0.8;"/>
      </defs>
      <g>
       <use style="stroke:#000000;stroke-width:0.8;" x="136.761736" xlink:href="#m3bbb4c0f95" y="460.8"/>
      </g>
     </g>
     <g id="text_1">
      <!-- 2020-01 -->
      <g transform="translate(92.091951 500.766215)rotate(-30)scale(0.12 -0.12)">
       <defs>
        <path d="M 19.1875 8.296875 
L 53.609375 8.296875 
L 53.609375 0 
L 7.328125 0 
L 7.328125 8.296875 
Q 12.9375 14.109375 22.625 23.890625 
Q 32.328125 33.6875 34.8125 36.53125 
Q 39.546875 41.84375 41.421875 45.53125 
Q 43.3125 49.21875 43.3125 52.78125 
Q 43.3125 58.59375 39.234375 62.25 
Q 35.15625 65.921875 28.609375 65.921875 
Q 23.96875 65.921875 18.8125 64.3125 
Q 13.671875 62.703125 7.8125 59.421875 
L 7.8125 69.390625 
Q 13.765625 71.78125 18.9375 73 
Q 24.125 74.21875 28.421875 74.21875 
Q 39.75 74.21875 46.484375 68.546875 
Q 53.21875 62.890625 53.21875 53.421875 
Q 53.21875 48.921875 51.53125 44.890625 
Q 49.859375 40.875 45.40625 35.40625 
Q 44.1875 33.984375 37.640625 27.21875 
Q 31.109375 20.453125 19.1875 8.296875 
z
" id="DejaVuSans-50"/>
        <path d="M 31.78125 66.40625 
Q 24.171875 66.40625 20.328125 58.90625 
Q 16.5 51.421875 16.5 36.375 
Q 16.5 21.390625 20.328125 13.890625 
Q 24.171875 6.390625 31.78125 6.390625 
Q 39.453125 6.390625 43.28125 13.890625 
Q 47.125 21.390625 47.125 36.375 
Q 47.125 51.421875 43.28125 58.90625 
Q 39.453125 66.40625 31.78125 66.40625 
z
M 31.78125 74.21875 
Q 44.046875 74.21875 50.515625 64.515625 
Q 56.984375 54.828125 56.984375 36.375 
Q 56.984375 17.96875 50.515625 8.265625 
Q 44.046875 -1.421875 31.78125 -1.421875 
Q 19.53125 -1.421875 13.0625 8.265625 
Q 6.59375 17.96875 6.59375 36.375 
Q 6.59375 54.828125 13.0625 64.515625 
Q 19.53125 74.21875 31.78125 74.21875 
z
" id="DejaVuSans-48"/>
        <path d="M 4.890625 31.390625 
L 31.203125 31.390625 
L 31.203125 23.390625 
L 4.890625 23.390625 
z
" id="DejaVuSans-45"/>
        <path d="M 12.40625 8.296875 
L 28.515625 8.296875 
L 28.515625 63.921875 
L 10.984375 60.40625 
L 10.984375 69.390625 
L 28.421875 72.90625 
L 38.28125 72.90625 
L 38.28125 8.296875 
L 54.390625 8.296875 
L 54.390625 0 
L 12.40625 0 
z
" id="DejaVuSans-49"/>
       </defs>
       <use xlink:href="#DejaVuSans-50"/>
       <use x="63.623047" xlink:href="#DejaVuSans-48"/>
       <use x="127.246094" xlink:href="#DejaVuSans-50"/>
       <use x="190.869141" xlink:href="#DejaVuSans-48"/>
       <use x="254.492188" xlink:href="#DejaVuSans-45"/>
       <use x="290.576172" xlink:href="#DejaVuSans-48"/>
       <use x="354.199219" xlink:href="#DejaVuSans-49"/>
      </g>
     </g>
    </g>
    <g id="xtick_2">
     <g id="line2d_2">
      <g>
       <use style="stroke:#000000;stroke-width:0.8;" x="212.957309" xlink:href="#m3bbb4c0f95" y="460.8"/>
      </g>
     </g>
     <g id="text_2">
      <!-- 2020-04 -->
      <g transform="translate(168.287524 500.766215)rotate(-30)scale(0.12 -0.12)">
       <defs>
        <path d="M 37.796875 64.3125 
L 12.890625 25.390625 
L 37.796875 25.390625 
z
M 35.203125 72.90625 
L 47.609375 72.90625 
L 47.609375 25.390625 
L 58.015625 25.390625 
L 58.015625 17.1875 
L 47.609375 17.1875 
L 47.609375 0 
L 37.796875 0 
L 37.796875 17.1875 
L 4.890625 17.1875 
L 4.890625 26.703125 
z
" id="DejaVuSans-52"/>
       </defs>
       <use xlink:href="#DejaVuSans-50"/>
       <use x="63.623047" xlink:href="#DejaVuSans-48"/>
       <use x="127.246094" xlink:href="#DejaVuSans-50"/>
       <use x="190.869141" xlink:href="#DejaVuSans-48"/>
       <use x="254.492188" xlink:href="#DejaVuSans-45"/>
       <use x="290.576172" xlink:href="#DejaVuSans-48"/>
       <use x="354.199219" xlink:href="#DejaVuSans-52"/>
      </g>
     </g>
    </g>
    <g id="xtick_3">
     <g id="line2d_3">
      <g>
       <use style="stroke:#000000;stroke-width:0.8;" x="289.152882" xlink:href="#m3bbb4c0f95" y="460.8"/>
      </g>
     </g>
     <g id="text_3">
      <!-- 2020-07 -->
      <g transform="translate(244.483097 500.766215)rotate(-30)scale(0.12 -0.12)">
       <defs>
        <path d="M 8.203125 72.90625 
L 55.078125 72.90625 
L 55.078125 68.703125 
L 28.609375 0 
L 18.3125 0 
L 43.21875 64.59375 
L 8.203125 64.59375 
z
" id="DejaVuSans-55"/>
       </defs>
       <use xlink:href="#DejaVuSans-50"/>
       <use x="63.623047" xlink:href="#DejaVuSans-48"/>
       <use x="127.246094" xlink:href="#DejaVuSans-50"/>
       <use x="190.869141" xlink:href="#DejaVuSans-48"/>
       <use x="254.492188" xlink:href="#DejaVuSans-45"/>
       <use x="290.576172" xlink:href="#DejaVuSans-48"/>
       <use x="354.199219" xlink:href="#DejaVuSans-55"/>
      </g>
     </g>
    </g>
    <g id="xtick_4">
     <g id="line2d_4">
      <g>
       <use style="stroke:#000000;stroke-width:0.8;" x="366.18577" xlink:href="#m3bbb4c0f95" y="460.8"/>
      </g>
     </g>
     <g id="text_4">
      <!-- 2020-10 -->
      <g transform="translate(321.515985 500.766215)rotate(-30)scale(0.12 -0.12)">
       <use xlink:href="#DejaVuSans-50"/>
       <use x="63.623047" xlink:href="#DejaVuSans-48"/>
       <use x="127.246094" xlink:href="#DejaVuSans-50"/>
       <use x="190.869141" xlink:href="#DejaVuSans-48"/>
       <use x="254.492188" xlink:href="#DejaVuSans-45"/>
       <use x="290.576172" xlink:href="#DejaVuSans-49"/>
       <use x="354.199219" xlink:href="#DejaVuSans-48"/>
      </g>
     </g>
    </g>
    <g id="xtick_5">
     <g id="line2d_5">
      <g>
       <use style="stroke:#000000;stroke-width:0.8;" x="443.218657" xlink:href="#m3bbb4c0f95" y="460.8"/>
      </g>
     </g>
     <g id="text_5">
      <!-- 2021-01 -->
      <g transform="translate(398.548872 500.766215)rotate(-30)scale(0.12 -0.12)">
       <use xlink:href="#DejaVuSans-50"/>
       <use x="63.623047" xlink:href="#DejaVuSans-48"/>
       <use x="127.246094" xlink:href="#DejaVuSans-50"/>
       <use x="190.869141" xlink:href="#DejaVuSans-49"/>
       <use x="254.492188" xlink:href="#DejaVuSans-45"/>
       <use x="290.576172" xlink:href="#DejaVuSans-48"/>
       <use x="354.199219" xlink:href="#DejaVuSans-49"/>
      </g>
     </g>
    </g>
    <g id="xtick_6">
     <g id="line2d_6">
      <g>
       <use style="stroke:#000000;stroke-width:0.8;" x="518.576916" xlink:href="#m3bbb4c0f95" y="460.8"/>
      </g>
     </g>
     <g id="text_6">
      <!-- 2021-04 -->
      <g transform="translate(473.907131 500.766215)rotate(-30)scale(0.12 -0.12)">
       <use xlink:href="#DejaVuSans-50"/>
       <use x="63.623047" xlink:href="#DejaVuSans-48"/>
       <use x="127.246094" xlink:href="#DejaVuSans-50"/>
       <use x="190.869141" xlink:href="#DejaVuSans-49"/>
       <use x="254.492188" xlink:href="#DejaVuSans-45"/>
       <use x="290.576172" xlink:href="#DejaVuSans-48"/>
       <use x="354.199219" xlink:href="#DejaVuSans-52"/>
      </g>
     </g>
    </g>
    <g id="xtick_7">
     <g id="line2d_7">
      <g>
       <use style="stroke:#000000;stroke-width:0.8;" x="594.77249" xlink:href="#m3bbb4c0f95" y="460.8"/>
      </g>
     </g>
     <g id="text_7">
      <!-- 2021-07 -->
      <g transform="translate(550.102705 500.766215)rotate(-30)scale(0.12 -0.12)">
       <use xlink:href="#DejaVuSans-50"/>
       <use x="63.623047" xlink:href="#DejaVuSans-48"/>
       <use x="127.246094" xlink:href="#DejaVuSans-50"/>
       <use x="190.869141" xlink:href="#DejaVuSans-49"/>
       <use x="254.492188" xlink:href="#DejaVuSans-45"/>
       <use x="290.576172" xlink:href="#DejaVuSans-48"/>
       <use x="354.199219" xlink:href="#DejaVuSans-55"/>
      </g>
     </g>
    </g>
    <g id="xtick_8">
     <g id="line2d_8">
      <g>
       <use style="stroke:#000000;stroke-width:0.8;" x="671.805377" xlink:href="#m3bbb4c0f95" y="460.8"/>
      </g>
     </g>
     <g id="text_8">
      <!-- 2021-10 -->
      <g transform="translate(627.135592 500.766215)rotate(-30)scale(0.12 -0.12)">
       <use xlink:href="#DejaVuSans-50"/>
       <use x="63.623047" xlink:href="#DejaVuSans-48"/>
       <use x="127.246094" xlink:href="#DejaVuSans-50"/>
       <use x="190.869141" xlink:href="#DejaVuSans-49"/>
       <use x="254.492188" xlink:href="#DejaVuSans-45"/>
       <use x="290.576172" xlink:href="#DejaVuSans-49"/>
       <use x="354.199219" xlink:href="#DejaVuSans-48"/>
      </g>
     </g>
    </g>
    <g id="xtick_9">
     <g id="line2d_9">
      <g>
       <use style="stroke:#000000;stroke-width:0.8;" x="748.838264" xlink:href="#m3bbb4c0f95" y="460.8"/>
      </g>
     </g>
     <g id="text_9">
      <!-- 2022-01 -->
      <g transform="translate(704.168479 500.766215)rotate(-30)scale(0.12 -0.12)">
       <use xlink:href="#DejaVuSans-50"/>
       <use x="63.623047" xlink:href="#DejaVuSans-48"/>
       <use x="127.246094" xlink:href="#DejaVuSans-50"/>
       <use x="190.869141" xlink:href="#DejaVuSans-50"/>
       <use x="254.492188" xlink:href="#DejaVuSans-45"/>
       <use x="290.576172" xlink:href="#DejaVuSans-48"/>
       <use x="354.199219" xlink:href="#DejaVuSans-49"/>
      </g>
     </g>
    </g>
    <g id="text_10">
     <!-- Date -->
     <g transform="translate(424.873828 518.325146)scale(0.15 -0.15)">
      <defs>
       <path d="M 19.671875 64.796875 
L 19.671875 8.109375 
L 31.59375 8.109375 
Q 46.6875 8.109375 53.6875 14.9375 
Q 60.6875 21.78125 60.6875 36.53125 
Q 60.6875 51.171875 53.6875 57.984375 
Q 46.6875 64.796875 31.59375 64.796875 
z
M 9.8125 72.90625 
L 30.078125 72.90625 
Q 51.265625 72.90625 61.171875 64.09375 
Q 71.09375 55.28125 71.09375 36.53125 
Q 71.09375 17.671875 61.125 8.828125 
Q 51.171875 0 30.078125 0 
L 9.8125 0 
z
" id="DejaVuSans-68"/>
       <path d="M 34.28125 27.484375 
Q 23.390625 27.484375 19.1875 25 
Q 14.984375 22.515625 14.984375 16.5 
Q 14.984375 11.71875 18.140625 8.90625 
Q 21.296875 6.109375 26.703125 6.109375 
Q 34.1875 6.109375 38.703125 11.40625 
Q 43.21875 16.703125 43.21875 25.484375 
L 43.21875 27.484375 
z
M 52.203125 31.203125 
L 52.203125 0 
L 43.21875 0 
L 43.21875 8.296875 
Q 40.140625 3.328125 35.546875 0.953125 
Q 30.953125 -1.421875 24.3125 -1.421875 
Q 15.921875 -1.421875 10.953125 3.296875 
Q 6 8.015625 6 15.921875 
Q 6 25.140625 12.171875 29.828125 
Q 18.359375 34.515625 30.609375 34.515625 
L 43.21875 34.515625 
L 43.21875 35.40625 
Q 43.21875 41.609375 39.140625 45 
Q 35.0625 48.390625 27.6875 48.390625 
Q 23 48.390625 18.546875 47.265625 
Q 14.109375 46.140625 10.015625 43.890625 
L 10.015625 52.203125 
Q 14.9375 54.109375 19.578125 55.046875 
Q 24.21875 56 28.609375 56 
Q 40.484375 56 46.34375 49.84375 
Q 52.203125 43.703125 52.203125 31.203125 
z
" id="DejaVuSans-97"/>
       <path d="M 18.3125 70.21875 
L 18.3125 54.6875 
L 36.8125 54.6875 
L 36.8125 47.703125 
L 18.3125 47.703125 
L 18.3125 18.015625 
Q 18.3125 11.328125 20.140625 9.421875 
Q 21.96875 7.515625 27.59375 7.515625 
L 36.8125 7.515625 
L 36.8125 0 
L 27.59375 0 
Q 17.1875 0 13.234375 3.875 
Q 9.28125 7.765625 9.28125 18.015625 
L 9.28125 47.703125 
L 2.6875 47.703125 
L 2.6875 54.6875 
L 9.28125 54.6875 
L 9.28125 70.21875 
z
" id="DejaVuSans-116"/>
       <path d="M 56.203125 29.59375 
L 56.203125 25.203125 
L 14.890625 25.203125 
Q 15.484375 15.921875 20.484375 11.0625 
Q 25.484375 6.203125 34.421875 6.203125 
Q 39.59375 6.203125 44.453125 7.46875 
Q 49.3125 8.734375 54.109375 11.28125 
L 54.109375 2.78125 
Q 49.265625 0.734375 44.1875 -0.34375 
Q 39.109375 -1.421875 33.890625 -1.421875 
Q 20.796875 -1.421875 13.15625 6.1875 
Q 5.515625 13.8125 5.515625 26.8125 
Q 5.515625 40.234375 12.765625 48.109375 
Q 20.015625 56 32.328125 56 
Q 43.359375 56 49.78125 48.890625 
Q 56.203125 41.796875 56.203125 29.59375 
z
M 47.21875 32.234375 
Q 47.125 39.59375 43.09375 43.984375 
Q 39.0625 48.390625 32.421875 48.390625 
Q 24.90625 48.390625 20.390625 44.140625 
Q 15.875 39.890625 15.1875 32.171875 
z
" id="DejaVuSans-101"/>
      </defs>
      <use xlink:href="#DejaVuSans-68"/>
      <use x="77.001953" xlink:href="#DejaVuSans-97"/>
      <use x="138.28125" xlink:href="#DejaVuSans-116"/>
      <use x="177.490234" xlink:href="#DejaVuSans-101"/>
     </g>
    </g>
   </g>
   <g id="matplotlib.axis_2">
    <g id="ytick_1">
     <g id="line2d_10">
      <defs>
       <path d="M 0 0 
L -3.5 0 
" id="m674b7bf969" style="stroke:#000000;stroke-width:0.8;"/>
      </defs>
      <g>
       <use style="stroke:#000000;stroke-width:0.8;" x="108" xlink:href="#m674b7bf969" y="444.060787"/>
      </g>
     </g>
     <g id="text_11">
      <!-- 0 -->
      <g transform="translate(93.365 448.619849)scale(0.12 -0.12)">
       <use xlink:href="#DejaVuSans-48"/>
      </g>
     </g>
    </g>
    <g id="ytick_2">
     <g id="line2d_11">
      <g>
       <use style="stroke:#000000;stroke-width:0.8;" x="108" xlink:href="#m674b7bf969" y="374.380348"/>
      </g>
     </g>
     <g id="text_12">
      <!-- 20 -->
      <g transform="translate(85.73 378.939411)scale(0.12 -0.12)">
       <use xlink:href="#DejaVuSans-50"/>
       <use x="63.623047" xlink:href="#DejaVuSans-48"/>
      </g>
     </g>
    </g>
    <g id="ytick_3">
     <g id="line2d_12">
      <g>
       <use style="stroke:#000000;stroke-width:0.8;" x="108" xlink:href="#m674b7bf969" y="304.69991"/>
      </g>
     </g>
     <g id="text_13">
      <!-- 40 -->
      <g transform="translate(85.73 309.258972)scale(0.12 -0.12)">
       <use xlink:href="#DejaVuSans-52"/>
       <use x="63.623047" xlink:href="#DejaVuSans-48"/>
      </g>
     </g>
    </g>
    <g id="ytick_4">
     <g id="line2d_13">
      <g>
       <use style="stroke:#000000;stroke-width:0.8;" x="108" xlink:href="#m674b7bf969" y="235.019471"/>
      </g>
     </g>
     <g id="text_14">
      <!-- 60 -->
      <g transform="translate(85.73 239.578534)scale(0.12 -0.12)">
       <defs>
        <path d="M 33.015625 40.375 
Q 26.375 40.375 22.484375 35.828125 
Q 18.609375 31.296875 18.609375 23.390625 
Q 18.609375 15.53125 22.484375 10.953125 
Q 26.375 6.390625 33.015625 6.390625 
Q 39.65625 6.390625 43.53125 10.953125 
Q 47.40625 15.53125 47.40625 23.390625 
Q 47.40625 31.296875 43.53125 35.828125 
Q 39.65625 40.375 33.015625 40.375 
z
M 52.59375 71.296875 
L 52.59375 62.3125 
Q 48.875 64.0625 45.09375 64.984375 
Q 41.3125 65.921875 37.59375 65.921875 
Q 27.828125 65.921875 22.671875 59.328125 
Q 17.53125 52.734375 16.796875 39.40625 
Q 19.671875 43.65625 24.015625 45.921875 
Q 28.375 48.1875 33.59375 48.1875 
Q 44.578125 48.1875 50.953125 41.515625 
Q 57.328125 34.859375 57.328125 23.390625 
Q 57.328125 12.15625 50.6875 5.359375 
Q 44.046875 -1.421875 33.015625 -1.421875 
Q 20.359375 -1.421875 13.671875 8.265625 
Q 6.984375 17.96875 6.984375 36.375 
Q 6.984375 53.65625 15.1875 63.9375 
Q 23.390625 74.21875 37.203125 74.21875 
Q 40.921875 74.21875 44.703125 73.484375 
Q 48.484375 72.75 52.59375 71.296875 
z
" id="DejaVuSans-54"/>
       </defs>
       <use xlink:href="#DejaVuSans-54"/>
       <use x="63.623047" xlink:href="#DejaVuSans-48"/>
      </g>
     </g>
    </g>
    <g id="ytick_5">
     <g id="line2d_14">
      <g>
       <use style="stroke:#000000;stroke-width:0.8;" x="108" xlink:href="#m674b7bf969" y="165.339033"/>
      </g>
     </g>
     <g id="text_15">
      <!-- 80 -->
      <g transform="translate(85.73 169.898095)scale(0.12 -0.12)">
       <defs>
        <path d="M 31.78125 34.625 
Q 24.75 34.625 20.71875 30.859375 
Q 16.703125 27.09375 16.703125 20.515625 
Q 16.703125 13.921875 20.71875 10.15625 
Q 24.75 6.390625 31.78125 6.390625 
Q 38.8125 6.390625 42.859375 10.171875 
Q 46.921875 13.96875 46.921875 20.515625 
Q 46.921875 27.09375 42.890625 30.859375 
Q 38.875 34.625 31.78125 34.625 
z
M 21.921875 38.8125 
Q 15.578125 40.375 12.03125 44.71875 
Q 8.5 49.078125 8.5 55.328125 
Q 8.5 64.0625 14.71875 69.140625 
Q 20.953125 74.21875 31.78125 74.21875 
Q 42.671875 74.21875 48.875 69.140625 
Q 55.078125 64.0625 55.078125 55.328125 
Q 55.078125 49.078125 51.53125 44.71875 
Q 48 40.375 41.703125 38.8125 
Q 48.828125 37.15625 52.796875 32.3125 
Q 56.78125 27.484375 56.78125 20.515625 
Q 56.78125 9.90625 50.3125 4.234375 
Q 43.84375 -1.421875 31.78125 -1.421875 
Q 19.734375 -1.421875 13.25 4.234375 
Q 6.78125 9.90625 6.78125 20.515625 
Q 6.78125 27.484375 10.78125 32.3125 
Q 14.796875 37.15625 21.921875 38.8125 
z
M 18.3125 54.390625 
Q 18.3125 48.734375 21.84375 45.5625 
Q 25.390625 42.390625 31.78125 42.390625 
Q 38.140625 42.390625 41.71875 45.5625 
Q 45.3125 48.734375 45.3125 54.390625 
Q 45.3125 60.0625 41.71875 63.234375 
Q 38.140625 66.40625 31.78125 66.40625 
Q 25.390625 66.40625 21.84375 63.234375 
Q 18.3125 60.0625 18.3125 54.390625 
z
" id="DejaVuSans-56"/>
       </defs>
       <use xlink:href="#DejaVuSans-56"/>
       <use x="63.623047" xlink:href="#DejaVuSans-48"/>
      </g>
     </g>
    </g>
    <g id="ytick_6">
     <g id="line2d_15">
      <g>
       <use style="stroke:#000000;stroke-width:0.8;" x="108" xlink:href="#m674b7bf969" y="95.658594"/>
      </g>
     </g>
     <g id="text_16">
      <!-- 100 -->
      <g transform="translate(78.095 100.217657)scale(0.12 -0.12)">
       <use xlink:href="#DejaVuSans-49"/>
       <use x="63.623047" xlink:href="#DejaVuSans-48"/>
       <use x="127.246094" xlink:href="#DejaVuSans-48"/>
      </g>
     </g>
    </g>
    <g id="text_17">
     <!-- O3(ppm) -->
     <g transform="translate(70.975469 298.31625)rotate(-90)scale(0.15 -0.15)">
      <defs>
       <path d="M 39.40625 66.21875 
Q 28.65625 66.21875 22.328125 58.203125 
Q 16.015625 50.203125 16.015625 36.375 
Q 16.015625 22.609375 22.328125 14.59375 
Q 28.65625 6.59375 39.40625 6.59375 
Q 50.140625 6.59375 56.421875 14.59375 
Q 62.703125 22.609375 62.703125 36.375 
Q 62.703125 50.203125 56.421875 58.203125 
Q 50.140625 66.21875 39.40625 66.21875 
z
M 39.40625 74.21875 
Q 54.734375 74.21875 63.90625 63.9375 
Q 73.09375 53.65625 73.09375 36.375 
Q 73.09375 19.140625 63.90625 8.859375 
Q 54.734375 -1.421875 39.40625 -1.421875 
Q 24.03125 -1.421875 14.8125 8.828125 
Q 5.609375 19.09375 5.609375 36.375 
Q 5.609375 53.65625 14.8125 63.9375 
Q 24.03125 74.21875 39.40625 74.21875 
z
" id="DejaVuSans-79"/>
       <path d="M 40.578125 39.3125 
Q 47.65625 37.796875 51.625 33 
Q 55.609375 28.21875 55.609375 21.1875 
Q 55.609375 10.40625 48.1875 4.484375 
Q 40.765625 -1.421875 27.09375 -1.421875 
Q 22.515625 -1.421875 17.65625 -0.515625 
Q 12.796875 0.390625 7.625 2.203125 
L 7.625 11.71875 
Q 11.71875 9.328125 16.59375 8.109375 
Q 21.484375 6.890625 26.8125 6.890625 
Q 36.078125 6.890625 40.9375 10.546875 
Q 45.796875 14.203125 45.796875 21.1875 
Q 45.796875 27.640625 41.28125 31.265625 
Q 36.765625 34.90625 28.71875 34.90625 
L 20.21875 34.90625 
L 20.21875 43.015625 
L 29.109375 43.015625 
Q 36.375 43.015625 40.234375 45.921875 
Q 44.09375 48.828125 44.09375 54.296875 
Q 44.09375 59.90625 40.109375 62.90625 
Q 36.140625 65.921875 28.71875 65.921875 
Q 24.65625 65.921875 20.015625 65.03125 
Q 15.375 64.15625 9.8125 62.3125 
L 9.8125 71.09375 
Q 15.4375 72.65625 20.34375 73.4375 
Q 25.25 74.21875 29.59375 74.21875 
Q 40.828125 74.21875 47.359375 69.109375 
Q 53.90625 64.015625 53.90625 55.328125 
Q 53.90625 49.265625 50.4375 45.09375 
Q 46.96875 40.921875 40.578125 39.3125 
z
" id="DejaVuSans-51"/>
       <path d="M 31 75.875 
Q 24.46875 64.65625 21.28125 53.65625 
Q 18.109375 42.671875 18.109375 31.390625 
Q 18.109375 20.125 21.3125 9.0625 
Q 24.515625 -2 31 -13.1875 
L 23.1875 -13.1875 
Q 15.875 -1.703125 12.234375 9.375 
Q 8.59375 20.453125 8.59375 31.390625 
Q 8.59375 42.28125 12.203125 53.3125 
Q 15.828125 64.359375 23.1875 75.875 
z
" id="DejaVuSans-40"/>
       <path d="M 18.109375 8.203125 
L 18.109375 -20.796875 
L 9.078125 -20.796875 
L 9.078125 54.6875 
L 18.109375 54.6875 
L 18.109375 46.390625 
Q 20.953125 51.265625 25.265625 53.625 
Q 29.59375 56 35.59375 56 
Q 45.5625 56 51.78125 48.09375 
Q 58.015625 40.1875 58.015625 27.296875 
Q 58.015625 14.40625 51.78125 6.484375 
Q 45.5625 -1.421875 35.59375 -1.421875 
Q 29.59375 -1.421875 25.265625 0.953125 
Q 20.953125 3.328125 18.109375 8.203125 
z
M 48.6875 27.296875 
Q 48.6875 37.203125 44.609375 42.84375 
Q 40.53125 48.484375 33.40625 48.484375 
Q 26.265625 48.484375 22.1875 42.84375 
Q 18.109375 37.203125 18.109375 27.296875 
Q 18.109375 17.390625 22.1875 11.75 
Q 26.265625 6.109375 33.40625 6.109375 
Q 40.53125 6.109375 44.609375 11.75 
Q 48.6875 17.390625 48.6875 27.296875 
z
" id="DejaVuSans-112"/>
       <path d="M 52 44.1875 
Q 55.375 50.25 60.0625 53.125 
Q 64.75 56 71.09375 56 
Q 79.640625 56 84.28125 50.015625 
Q 88.921875 44.046875 88.921875 33.015625 
L 88.921875 0 
L 79.890625 0 
L 79.890625 32.71875 
Q 79.890625 40.578125 77.09375 44.375 
Q 74.3125 48.1875 68.609375 48.1875 
Q 61.625 48.1875 57.5625 43.546875 
Q 53.515625 38.921875 53.515625 30.90625 
L 53.515625 0 
L 44.484375 0 
L 44.484375 32.71875 
Q 44.484375 40.625 41.703125 44.40625 
Q 38.921875 48.1875 33.109375 48.1875 
Q 26.21875 48.1875 22.15625 43.53125 
Q 18.109375 38.875 18.109375 30.90625 
L 18.109375 0 
L 9.078125 0 
L 9.078125 54.6875 
L 18.109375 54.6875 
L 18.109375 46.1875 
Q 21.1875 51.21875 25.484375 53.609375 
Q 29.78125 56 35.6875 56 
Q 41.65625 56 45.828125 52.96875 
Q 50 49.953125 52 44.1875 
z
" id="DejaVuSans-109"/>
       <path d="M 8.015625 75.875 
L 15.828125 75.875 
Q 23.140625 64.359375 26.78125 53.3125 
Q 30.421875 42.28125 30.421875 31.390625 
Q 30.421875 20.453125 26.78125 9.375 
Q 23.140625 -1.703125 15.828125 -13.1875 
L 8.015625 -13.1875 
Q 14.5 -2 17.703125 9.0625 
Q 20.90625 20.125 20.90625 31.390625 
Q 20.90625 42.671875 17.703125 53.65625 
Q 14.5 64.65625 8.015625 75.875 
z
" id="DejaVuSans-41"/>
      </defs>
      <use xlink:href="#DejaVuSans-79"/>
      <use x="78.710938" xlink:href="#DejaVuSans-51"/>
      <use x="142.333984" xlink:href="#DejaVuSans-40"/>
      <use x="181.347656" xlink:href="#DejaVuSans-112"/>
      <use x="244.824219" xlink:href="#DejaVuSans-112"/>
      <use x="308.300781" xlink:href="#DejaVuSans-109"/>
      <use x="405.712891" xlink:href="#DejaVuSans-41"/>
     </g>
    </g>
   </g>
   <g id="line2d_16">
    <path clip-path="url(#p22cf5d886d)" d="M 138.436364 348.236551 
L 139.273678 333.522224 
L 140.110992 336.164492 
L 140.948306 393.071308 
L 141.78562 329.615029 
L 142.622934 285.638311 
L 144.297562 362.968692 
L 145.134876 329.873332 
L 145.97219 377.683019 
L 146.809504 278.815566 
L 147.646818 275.745628 
L 148.484132 341.087217 
L 149.321446 357.339482 
L 150.15876 362.312545 
L 150.996074 393.017866 
L 151.833388 384.220741 
L 152.670702 346.217636 
L 153.508016 341.007054 
L 154.345329 358.565676 
L 155.182643 362.829149 
L 156.019957 353.227427 
L 156.857271 377.255485 
L 157.694585 322.667587 
L 158.531899 302.398274 
L 159.369213 265.060223 
L 160.206527 237.98598 
L 161.043841 286.294458 
L 161.881155 317.100725 
L 162.718469 274.299728 
L 163.555783 336.149782 
L 165.230411 373.02467 
L 166.067725 275.451697 
L 166.905039 332.996712 
L 167.742353 325.847378 
L 168.579667 311.109298 
L 169.416981 351.493536 
L 170.254295 368.642437 
L 171.091609 375.105934 
L 171.928923 401.717015 
L 172.766237 396.907247 
L 173.603551 405.698434 
L 174.440865 352.728637 
L 175.278179 253.585067 
L 176.952807 323.074339 
L 177.790121 334.56434 
L 178.627435 336.511999 
L 179.464749 272.346131 
L 180.302063 246.272438 
L 181.139377 263.875595 
L 181.976691 353.171017 
L 182.814005 395.912068 
L 183.651319 329.422045 
L 184.488633 312.285019 
L 185.325947 371.412507 
L 186.163261 343.542574 
L 187.000575 346.603605 
L 187.837889 276.15238 
L 188.675203 348.877853 
L 189.512517 372.101313 
L 190.349831 272.714286 
L 192.024459 403.103534 
L 192.861773 420.540428 
L 193.699087 281.977543 
L 194.536401 303.024732 
L 195.373715 332.759192 
L 196.211029 407.750007 
L 197.048343 280.769163 
L 197.885657 239.218112 
L 198.722971 212.601093 
L 199.560285 265.526355 
L 200.397599 349.180691 
L 201.234913 419.584412 
L 202.072227 405.164015 
L 202.909541 384.28309 
L 203.746855 408.896039 
L 204.584169 406.506 
L 205.421483 285.881768 
L 206.258797 298.440607 
L 207.096111 369.259987 
L 207.933425 410.267342 
L 208.770739 418.126637 
L 209.608053 341.280201 
L 210.445367 412.636969 
L 211.282681 440.022957 
L 212.119995 436.246398 
L 212.957309 350.197436 
L 213.794623 352.832551 
L 214.631937 398.329394 
L 215.469251 397.984991 
L 216.306565 357.31573 
L 217.143879 412.307411 
L 219.655821 229.889537 
L 220.493135 345.018163 
L 221.330449 265.65996 
L 222.167763 212.363574 
L 223.005077 255.170509 
L 223.842391 256.776734 
L 224.679705 308.003732 
L 225.517019 334.086332 
L 226.354333 355.629342 
L 227.191647 398.391743 
L 228.028961 420.083203 
L 228.866275 427.654134 
L 229.703589 388.228881 
L 230.540903 405.852821 
L 231.378217 390.915819 
L 232.215531 382.166198 
L 233.052845 229.708428 
L 233.890159 274.905403 
L 234.727473 277.087612 
L 235.564787 251.594357 
L 236.402101 270.122356 
L 237.239415 376.195554 
L 238.076729 392.726905 
L 238.914043 396.179843 
L 239.751357 406.069558 
L 240.588671 414.620256 
L 241.425985 425.445203 
L 242.263299 425.335351 
L 243.100613 426.891103 
L 243.937927 426.145886 
L 244.775241 413.66721 
L 245.612555 408.994015 
L 246.449869 315.138356 
L 247.287183 266.286417 
L 248.124497 322.254897 
L 248.961811 365.548747 
L 249.799125 390.58923 
L 250.636439 381.115175 
L 251.473753 377.350492 
L 252.311067 361.276366 
L 253.148381 341.764147 
L 253.985695 383.018299 
L 254.823009 363.443731 
L 256.497637 340.125263 
L 257.334951 381.15971 
L 258.172265 383.087477 
L 259.009579 358.5538 
L 259.846893 358.868513 
L 260.684207 367.339049 
L 261.521521 390.26561 
L 262.358835 391.848083 
L 263.196149 402.955084 
L 264.033463 405.588581 
L 265.708091 398.219541 
L 266.545405 392.679401 
L 267.382719 395.075378 
L 268.220033 387.041284 
L 269.057347 388.487184 
L 269.89466 395.206014 
L 270.731974 397.655433 
L 271.569288 400.532386 
L 273.243916 374.230081 
L 274.08123 374.41119 
L 274.918544 395.152572 
L 275.755858 399.749463 
L 276.593172 399.368541 
L 277.430486 396.92506 
L 278.2678 398.90241 
L 279.105114 400.134541 
L 280.779742 394.178742 
L 281.617056 395.182262 
L 282.45437 394.015448 
L 283.291684 399.751541 
L 284.128998 404.121899 
L 284.966312 401.532937 
L 285.803626 394.520176 
L 286.64094 395.01006 
L 287.478254 396.069991 
L 288.315568 391.56306 
L 289.152882 394.543928 
L 289.990196 393.68589 
L 290.82751 396.625192 
L 291.664824 393.311796 
L 292.502138 396.30751 
L 293.339452 395.773091 
L 294.176766 396.470805 
L 295.01408 394.733944 
L 295.851394 404.742418 
L 296.688708 399.647627 
L 297.526022 398.682704 
L 298.363336 396.951781 
L 299.20065 386.272315 
L 300.037964 396.850836 
L 300.875278 397.999836 
L 301.712592 404.801798 
L 302.549906 403.934852 
L 303.38722 399.202278 
L 304.224534 402.328222 
L 305.061848 391.474237 
L 305.899162 394.618153 
L 306.736476 396.106361 
L 307.57379 394.1253 
L 308.411104 393.008959 
L 309.248418 394.638936 
L 310.085732 398.742084 
L 310.923046 400.718567 
L 311.76036 381.04095 
L 312.597674 382.39778 
L 313.434988 388.083401 
L 314.272302 380.849945 
L 315.109616 382.053377 
L 315.94693 387.860726 
L 316.784244 390.719866 
L 317.621558 404.932434 
L 318.458872 404.55834 
L 319.296186 402.287061 
L 320.1335 398.032495 
L 320.970814 397.058665 
L 321.808128 399.3151 
L 322.645442 403.804216 
L 323.482756 392.774409 
L 324.32007 401.622007 
L 325.157384 405.706351 
L 325.994698 398.044371 
L 326.832012 386.762199 
L 327.669326 402.610681 
L 328.50664 384.179175 
L 329.343954 393.190068 
L 330.181268 396.77958 
L 331.018582 377.932415 
L 331.855896 353.554017 
L 332.69321 376.41526 
L 333.530524 368.018949 
L 334.367838 371.608461 
L 335.205152 382.127601 
L 336.042466 347.758543 
L 336.87978 290.204622 
L 337.717094 275.594209 
L 338.554408 265.535262 
L 339.391722 330.229611 
L 340.229036 322.468664 
L 342.740978 352.966156 
L 343.578292 346.769126 
L 344.415606 345.413039 
L 345.25292 393.469153 
L 346.090234 395.342587 
L 346.927548 388.312013 
L 347.764862 397.477293 
L 348.602176 404.317852 
L 350.276804 320.865408 
L 351.114118 342.601403 
L 351.951432 395.226797 
L 352.788746 403.988294 
L 353.62606 410.110357 
L 354.463374 408.334899 
L 355.300688 404.270348 
L 356.138002 397.064603 
L 356.975316 382.575919 
L 357.81263 339.086116 
L 358.649944 348.637365 
L 359.487258 325.890428 
L 360.324572 320.880253 
L 361.161886 240.583848 
L 361.9992 273.031968 
L 362.836514 353.028505 
L 363.673828 333.142192 
L 364.511142 327.296246 
L 365.348456 247.246268 
L 366.18577 223.075699 
L 367.023084 258.676889 
L 367.860398 233.597809 
L 368.697712 283.138419 
L 369.535026 266.51503 
L 370.37234 281.754869 
L 371.209654 260.85613 
L 372.046968 223.470575 
L 372.884282 135.615115 
L 373.721596 118.160407 
L 374.55891 143.865945 
L 375.396224 294.672955 
L 376.233538 296.166359 
L 377.070852 227.947816 
L 377.908166 211.324426 
L 378.74548 254.232307 
L 379.582794 244.208988 
L 380.420108 258.492812 
L 381.257422 227.549971 
L 382.094736 230.566467 
L 382.93205 230.312767 
L 383.769364 188.697734 
L 384.606678 170.091057 
L 385.443991 174.663553 
L 386.281305 195.036533 
L 387.118619 211.353498 
L 387.955933 296.302932 
L 388.793247 279.287636 
L 389.630561 280.745411 
L 390.467875 243.520182 
L 391.305189 159.08797 
L 392.142503 198.151006 
L 392.979817 202.102735 
L 393.817131 200.900293 
L 394.654445 214.910969 
L 395.491759 151.371559 
L 396.329073 116.753476 
L 397.166387 99.553731 
L 398.003701 86.923636 
L 398.841015 141.61248 
L 399.678329 182.646927 
L 400.515643 152.719296 
L 401.352957 229.488723 
L 402.190271 269.40089 
L 403.027585 337.755265 
L 403.864899 317.02866 
L 404.702213 339.91406 
L 405.539527 382.320586 
L 406.376841 413.245613 
L 407.214155 412.847768 
L 408.051469 379.600989 
L 408.888783 364.343336 
L 409.726097 401.521061 
L 410.563411 337.547709 
L 411.400725 309.250709 
L 412.238039 246.210089 
L 413.075353 313.34495 
L 413.912667 274.492713 
L 414.749981 288.58949 
L 415.587295 298.305394 
L 416.424609 305.049585 
L 417.261923 301.329437 
L 418.099237 315.717175 
L 418.936551 317.192764 
L 419.773865 318.968222 
L 420.611179 299.105661 
L 421.448493 291.822129 
L 422.285807 280.62962 
L 423.123121 348.242489 
L 423.960435 348.791752 
L 424.797749 376.710462 
L 425.635063 383.887674 
L 426.472377 315.25745 
L 427.309691 408.39131 
L 428.147005 414.861339 
L 428.984319 411.886309 
L 429.821633 427.366283 
L 430.658947 409.145434 
L 431.496261 376.201492 
L 432.333575 287.90959 
L 433.170889 238.146305 
L 434.008203 335.193766 
L 434.845517 394.059983 
L 435.682831 381.456609 
L 436.520145 375.064368 
L 437.357459 287.345482 
L 438.194773 283.393753 
L 439.032087 314.618648 
L 439.869401 351.443063 
L 440.706715 282.396171 
L 442.381343 310.375957 
L 443.218657 359.76218 
L 444.055971 268.335022 
L 444.893285 350.207962 
L 445.730599 319.97471 
L 446.567913 305.848244 
L 447.405227 329.273471 
L 448.242541 342.821108 
L 449.079855 350.202024 
L 449.917169 350.240621 
L 451.591797 331.562688 
L 452.429111 392.115292 
L 453.266425 368.301003 
L 454.103739 390.645641 
L 454.941053 361.73656 
L 455.778367 210.478263 
L 456.615681 288.761691 
L 457.452995 354.193116 
L 458.290309 352.407985 
L 459.127623 364.187958 
L 459.964937 359.750304 
L 460.802251 322.182453 
L 461.639565 316.20409 
L 462.476879 316.040795 
L 463.314193 279.228256 
L 464.151507 323.887843 
L 464.988821 247.949919 
L 465.826135 251.304881 
L 466.663449 253.424741 
L 467.500763 298.301064 
L 468.338077 358.895234 
L 469.175391 256.108711 
L 470.012705 232.736801 
L 470.850019 291.608955 
L 471.687333 319.214648 
L 472.524647 358.280653 
L 473.361961 313.436989 
L 474.199275 299.156134 
L 475.036589 275.837666 
L 475.873903 328.789649 
L 476.711217 336.799991 
L 477.548531 308.974593 
L 478.385845 337.159239 
L 479.223159 306.498453 
L 480.060473 310.322515 
L 480.897787 300.46546 
L 481.735101 266.108278 
L 482.572415 256.512494 
L 483.409729 257.106292 
L 484.247043 267.334472 
L 485.084357 231.047444 
L 485.921671 305.468212 
L 486.758985 308.710352 
L 487.596299 273.946418 
L 488.433613 343.842442 
L 489.270927 397.735595 
L 490.108241 424.281358 
L 490.945555 367.496406 
L 491.782869 384.850168 
L 492.620183 338.180573 
L 493.457497 347.412161 
L 494.294811 395.496975 
L 495.132125 414.857776 
L 495.969439 400.96289 
L 496.806753 426.69218 
L 497.644067 334.85827 
L 498.481381 296.291056 
L 499.318695 309.197267 
L 500.156009 299.052219 
L 500.993322 329.911929 
L 502.66795 209.237224 
L 503.505264 285.210776 
L 504.342578 333.053123 
L 505.179892 368.588995 
L 506.017206 379.030942 
L 506.85452 371.774724 
L 507.691834 388.116802 
L 508.529148 388.442649 
L 509.366462 283.277962 
L 510.203776 349.495404 
L 511.04109 328.887626 
L 511.878404 282.538683 
L 512.715718 254.481703 
L 513.553032 366.543359 
L 514.390346 400.576921 
L 515.22766 412.138179 
L 516.064974 411.208884 
L 516.902288 431.605863 
L 518.576916 424.242761 
L 519.41423 428.672498 
L 520.251544 414.121466 
L 521.088858 395.974983 
L 521.926172 277.853612 
L 522.763486 280.018008 
L 523.6008 329.19937 
L 524.438114 386.803765 
L 525.275428 233.651251 
L 526.112742 219.043807 
L 526.950056 334.362448 
L 527.78737 366.475072 
L 528.624684 335.930077 
L 529.461998 334.323852 
L 530.299312 328.204758 
L 531.136626 385.286609 
L 531.97394 184.291749 
L 532.811254 176.515957 
L 533.648568 239.975205 
L 536.16051 362.279886 
L 536.997824 320.250827 
L 537.835138 310.755988 
L 538.672452 336.324953 
L 539.509766 381.652563 
L 540.34708 404.243627 
L 541.184394 307.231794 
L 542.021708 320.871346 
L 542.859022 251.114865 
L 543.696336 336.354642 
L 544.53365 338.667488 
L 545.370964 415.938489 
L 546.208278 296.671087 
L 547.045592 319.345284 
L 547.882906 379.3605 
L 548.72022 415.920675 
L 549.557534 408.245829 
L 550.394848 424.596071 
L 551.232162 423.996335 
L 552.069476 423.901327 
L 552.90679 426.537793 
L 553.744104 425.753979 
L 554.581418 419.162815 
L 555.418732 416.327427 
L 556.256046 426.51701 
L 557.09336 423.773661 
L 557.930674 417.268598 
L 558.767988 418.067257 
L 559.605302 427.07518 
L 560.442616 423.159079 
L 561.27993 413.521729 
L 562.117244 415.279373 
L 562.954558 421.024373 
L 563.791872 424.845467 
L 564.629186 425.611467 
L 565.4665 424.738583 
L 566.303814 419.97335 
L 567.141128 412.010512 
L 568.815756 413.952233 
L 569.65307 428.18979 
L 570.490384 428.046041 
L 571.327698 396.313448 
L 572.165012 338.489348 
L 573.002326 256.922215 
L 573.83964 310.343298 
L 574.676954 350.982869 
L 575.514268 397.607929 
L 576.351582 419.887249 
L 577.188896 414.834024 
L 578.02621 406.648511 
L 578.863524 423.669746 
L 579.700838 422.00711 
L 580.538152 415.55252 
L 581.375466 415.727691 
L 582.21278 411.615636 
L 583.050094 405.330279 
L 584.724722 384.541392 
L 585.562036 394.95068 
L 586.39935 394.754727 
L 587.236664 414.445086 
L 588.073978 412.120365 
L 588.911292 423.182831 
L 589.748606 418.901544 
L 590.58592 402.827418 
L 591.423234 414.014582 
L 592.260548 409.086549 
L 593.097862 411.04262 
L 593.935176 406.612883 
L 594.77249 406.969162 
L 595.609804 406.41612 
L 596.447118 398.973665 
L 597.284432 421.523164 
L 598.121746 424.192288 
L 598.95906 412.636969 
L 599.796374 418.438999 
L 600.633688 409.377015 
L 601.471002 416.84997 
L 602.308316 415.825667 
L 603.14563 424.845467 
L 604.820258 419.640823 
L 605.657572 406.321922 
L 607.3322 355.368071 
L 608.169514 387.448036 
L 609.006828 390.550633 
L 609.844142 357.35643 
L 610.681456 384.208865 
L 611.51877 407.426387 
L 612.356084 277.440922 
L 613.193398 243.157965 
L 614.030712 234.393499 
L 614.868026 323.228726 
L 615.70534 223.797164 
L 616.542653 313.72795 
L 617.379967 378.021485 
L 618.217281 380.545128 
L 619.054595 361.365436 
L 619.891909 366.956049 
L 620.729223 360.655847 
L 621.566537 355.219621 
L 622.403851 270.324247 
L 623.241165 334.956247 
L 624.078479 359.616699 
L 624.915793 352.090303 
L 625.753107 361.849382 
L 626.590421 380.500593 
L 627.427735 402.067356 
L 628.265049 396.153122 
L 629.102363 401.835774 
L 629.939677 395.45244 
L 630.776991 403.67655 
L 631.614305 408.373496 
L 632.451619 415.941458 
L 633.288933 400.885697 
L 634.126247 394.707223 
L 634.963561 398.169068 
L 635.800875 404.347542 
L 636.638189 404.801798 
L 637.475503 402.509736 
L 638.312817 410.811039 
L 639.150131 415.377473 
L 639.987445 416.953885 
L 640.824759 398.750991 
L 641.662073 425.45411 
L 644.174015 403.531069 
L 645.011329 380.580756 
L 645.848643 427.366142 
L 646.685957 419.611133 
L 647.523271 415.778163 
L 648.360585 417.197342 
L 649.197899 408.09738 
L 650.035213 388.344672 
L 650.872527 390.719866 
L 651.709841 423.47973 
L 652.547155 309.909825 
L 653.384469 352.799892 
L 654.221783 375.304856 
L 655.059097 322.195517 
L 655.896411 380.904376 
L 656.733725 422.565281 
L 658.408353 346.155287 
L 659.245667 328.798556 
L 660.082981 275.285434 
L 660.920295 422.692947 
L 661.757609 408.824783 
L 662.594923 391.049424 
L 663.432237 385.883377 
L 664.269551 417.286412 
L 665.106865 376.127267 
L 665.944179 319.538268 
L 666.781493 297.009553 
L 667.618807 245.696454 
L 668.456121 202.551053 
L 669.293435 206.666077 
L 670.968063 280.57321 
L 671.805377 300.284351 
L 672.642691 299.343181 
L 673.480005 274.427395 
L 674.317319 281.933008 
L 675.154633 271.102123 
L 675.991947 334.440508 
L 676.829261 380.960787 
L 677.666575 354.768335 
L 678.503889 395.321804 
L 679.341203 341.176435 
L 680.178517 354.771304 
L 681.015831 358.550831 
L 681.853145 354.993978 
L 682.690459 402.117829 
L 683.527773 340.092604 
L 684.365087 328.329455 
L 685.202401 270.633022 
L 686.039715 319.210898 
L 686.877029 291.077505 
L 687.714343 382.385904 
L 688.551657 369.996298 
L 689.388971 378.820144 
L 690.226285 305.105995 
L 691.063599 257.654813 
L 691.900913 232.564599 
L 692.738227 299.420375 
L 693.575541 250.035141 
L 694.412855 214.908 
L 695.250169 310.27798 
L 696.087483 284.394303 
L 696.924797 216.410311 
L 697.762111 241.329065 
L 698.599425 249.318624 
L 699.436739 250.809059 
L 700.274053 295.045267 
L 701.111367 365.24294 
L 701.948681 341.158473 
L 702.785995 356.009373 
L 703.623309 276.59179 
L 704.460623 266.91906 
L 705.297937 353.153945 
L 706.135251 296.788857 
L 706.972565 265.658599 
L 707.809879 334.022251 
L 709.484507 269.138382 
L 710.321821 277.961609 
L 711.159135 289.245232 
L 711.996449 295.369319 
L 712.833763 279.964431 
L 713.671077 317.314223 
L 714.508391 344.321664 
L 715.345705 327.87385 
L 716.183019 279.337434 
L 717.020333 265.735939 
L 717.857647 241.261318 
L 718.694961 236.36329 
L 719.532275 205.066195 
L 720.369589 168.507909 
L 721.206903 217.466462 
L 722.044217 206.490906 
L 722.881531 245.70617 
L 723.718845 239.246857 
L 724.556159 291.408683 
L 725.393473 202.241603 
L 726.230787 227.262518 
L 727.068101 288.885174 
L 727.905415 219.040163 
L 728.742729 245.144356 
L 729.580043 276.500426 
L 730.417357 281.923022 
L 731.254671 200.329572 
L 732.091984 198.790014 
L 732.929298 282.608994 
L 734.603926 364.550086 
L 735.44124 300.211476 
L 736.278554 180.001824 
L 737.115868 229.26146 
L 737.953182 311.290704 
L 738.790496 354.48709 
L 739.62781 252.084781 
L 740.465124 401.828487 
L 742.139752 282.854206 
L 742.977066 381.028939 
L 743.81438 401.614314 
L 744.651694 402.194752 
L 745.489008 389.117825 
L 746.326322 338.864926 
L 747.163636 352.230521 
L 747.163636 352.230521 
" style="fill:none;stroke:#1f77b4;stroke-linecap:square;stroke-width:1.5;"/>
   </g>
   <g id="line2d_17">
    <path clip-path="url(#p22cf5d886d)" d="M 138.436364 274.908907 
L 139.273678 287.594227 
L 140.110992 362.684459 
L 140.948306 386.650892 
L 142.622934 219.447803 
L 143.460248 332.72147 
L 145.134876 294.186681 
L 145.97219 294.142451 
L 146.809504 318.419549 
L 147.646818 194.290582 
L 148.484132 317.071388 
L 149.321446 350.599324 
L 150.15876 317.002198 
L 150.996074 384.724442 
L 151.833388 382.162767 
L 152.670702 381.78145 
L 153.508016 298.084117 
L 154.345329 374.330164 
L 155.182643 284.845209 
L 156.019957 310.251174 
L 156.857271 399.109935 
L 157.694585 350.675133 
L 159.369213 243.616331 
L 160.206527 271.957488 
L 161.043841 283.475278 
L 161.881155 382.070465 
L 162.718469 328.571914 
L 163.555783 362.716781 
L 164.393097 367.910386 
L 165.230411 378.260713 
L 166.067725 295.130107 
L 166.905039 312.272006 
L 167.742353 360.626699 
L 168.579667 325.967457 
L 169.416981 322.086501 
L 170.254295 366.022133 
L 171.091609 369.868812 
L 171.928923 364.608703 
L 172.766237 362.615807 
L 173.603551 354.968845 
L 174.440865 360.097432 
L 175.278179 332.284519 
L 176.115493 285.740615 
L 176.952807 410.426347 
L 177.790121 400.46064 
L 178.627435 353.878713 
L 179.464749 347.914958 
L 180.302063 230.674757 
L 181.139377 287.534154 
L 181.976691 354.737298 
L 182.814005 281.622106 
L 183.651319 334.779111 
L 184.488633 362.401691 
L 185.325947 402.131255 
L 186.163261 260.507692 
L 187.000575 329.933804 
L 187.837889 368.582286 
L 188.675203 346.401783 
L 189.512517 381.698716 
L 190.349831 270.652734 
L 191.187145 352.16624 
L 192.024459 386.721783 
L 192.861773 387.451372 
L 194.536401 268.255914 
L 196.211029 412.303071 
L 197.048343 315.255416 
L 197.885657 264.10883 
L 198.722971 193.186515 
L 199.560285 300.709361 
L 200.397599 333.1237 
L 201.234913 360.803768 
L 202.072227 377.834819 
L 202.909541 374.133876 
L 203.746855 387.337472 
L 204.584169 328.973539 
L 205.421483 284.179741 
L 206.258797 339.831729 
L 207.096111 382.292941 
L 207.933425 383.481782 
L 208.770739 372.135817 
L 209.608053 371.113167 
L 210.445367 401.956179 
L 211.282681 415.338618 
L 212.119995 407.595354 
L 212.957309 369.058857 
L 213.794623 346.426643 
L 214.631937 398.184192 
L 215.469251 312.849053 
L 216.306565 377.072749 
L 217.143879 408.125345 
L 217.981193 301.133806 
L 218.818507 213.793949 
L 219.655821 186.297496 
L 220.493135 310.752159 
L 221.330449 314.555618 
L 222.167763 206.956205 
L 223.005077 313.204706 
L 223.842391 362.715266 
L 224.679705 277.709465 
L 225.517019 303.877787 
L 226.354333 361.720427 
L 227.191647 381.556315 
L 228.028961 382.391224 
L 228.866275 382.604011 
L 229.703589 421.625623 
L 230.540903 434.093297 
L 231.378217 406.964959 
L 232.215531 363.308567 
L 233.052845 265.326026 
L 233.890159 285.217927 
L 234.727473 289.592505 
L 235.564787 238.222041 
L 236.402101 283.955344 
L 237.239415 357.870112 
L 238.076729 389.156156 
L 238.914043 331.4404 
L 239.751357 368.294255 
L 240.588671 382.58884 
L 241.425985 316.226804 
L 242.263299 425.552896 
L 243.100613 420.942199 
L 243.937927 418.336027 
L 244.775241 409.2231 
L 245.612555 417.994435 
L 246.449869 352.134814 
L 247.287183 365.133597 
L 248.124497 322.267983 
L 248.961811 245.129506 
L 249.799125 366.818692 
L 250.636439 334.721357 
L 252.311067 384.190643 
L 253.148381 353.475267 
L 253.985695 364.568034 
L 254.823009 397.615811 
L 255.660323 378.118544 
L 256.497637 314.945574 
L 257.334951 388.106141 
L 258.172265 409.599161 
L 259.009579 310.170076 
L 259.846893 367.2648 
L 260.684207 403.840584 
L 261.521521 396.187017 
L 262.358835 425.135043 
L 263.196149 339.179 
L 264.033463 409.662842 
L 264.870777 381.204742 
L 265.708091 383.555278 
L 266.545405 399.829907 
L 267.382719 394.647799 
L 268.220033 425.101212 
L 269.057347 386.640213 
L 269.89466 422.859631 
L 270.731974 327.150456 
L 271.569288 290.352668 
L 272.406602 385.107594 
L 273.243916 371.204387 
L 274.918544 415.467297 
L 275.755858 317.18752 
L 276.593172 398.781799 
L 277.430486 290.391715 
L 278.2678 389.90461 
L 279.105114 348.266172 
L 279.942428 400.383243 
L 280.779742 394.440308 
L 281.617056 386.652932 
L 282.45437 405.763997 
L 283.291684 433.256767 
L 284.128998 361.251512 
L 284.966312 412.34047 
L 285.803626 276.885229 
L 286.64094 392.063032 
L 287.478254 318.715993 
L 288.315568 372.429059 
L 289.152882 367.194899 
L 289.990196 321.697316 
L 290.82751 410.159594 
L 291.664824 351.492239 
L 292.502138 405.890583 
L 293.339452 321.865772 
L 294.176766 373.019662 
L 295.01408 376.525035 
L 295.851394 366.306742 
L 296.688708 354.057782 
L 297.526022 378.939511 
L 298.363336 387.068492 
L 299.20065 370.457282 
L 300.875278 412.859969 
L 301.712592 315.937377 
L 302.549906 396.562912 
L 303.38722 395.511109 
L 304.224534 395.650374 
L 305.061848 403.368938 
L 305.899162 246.682234 
L 306.736476 385.154456 
L 307.57379 277.359806 
L 308.411104 377.108381 
L 309.248418 356.424958 
L 310.085732 389.445231 
L 310.923046 331.288995 
L 311.76036 398.286177 
L 312.597674 417.91753 
L 313.434988 373.50004 
L 314.272302 429.490642 
L 315.109616 368.678868 
L 315.94693 402.810518 
L 316.784244 414.059196 
L 317.621558 325.741877 
L 318.458872 425.382458 
L 319.296186 242.93841 
L 320.1335 373.194252 
L 320.970814 315.110496 
L 321.808128 413.803919 
L 322.645442 410.53606 
L 323.482756 415.758704 
L 324.32007 407.312951 
L 325.157384 348.193327 
L 325.994698 353.305009 
L 326.832012 400.505981 
L 327.669326 383.587554 
L 328.50664 420.806756 
L 329.343954 357.027668 
L 330.181268 423.603965 
L 331.018582 192.569038 
L 331.855896 324.347851 
L 332.69321 391.612085 
L 333.530524 311.477049 
L 334.367838 400.461285 
L 335.205152 400.88894 
L 336.042466 337.483213 
L 336.87978 364.191069 
L 337.717094 257.97406 
L 338.554408 286.396926 
L 339.391722 310.902674 
L 340.229036 280.613451 
L 342.740978 261.036972 
L 343.578292 355.759191 
L 344.415606 386.845378 
L 345.25292 268.310392 
L 346.090234 389.738013 
L 346.927548 416.015357 
L 347.764862 304.538032 
L 348.602176 371.405957 
L 349.43949 375.821297 
L 351.114118 356.801251 
L 351.951432 390.215521 
L 352.788746 391.444233 
L 353.62606 302.812966 
L 354.463374 417.616228 
L 355.300688 403.835853 
L 356.138002 403.898225 
L 356.975316 375.031622 
L 357.81263 398.7816 
L 358.649944 301.578479 
L 359.487258 370.96646 
L 360.324572 402.80495 
L 361.161886 196.478303 
L 361.9992 346.767597 
L 362.836514 357.281722 
L 363.673828 402.137382 
L 364.511142 279.936606 
L 365.348456 323.132529 
L 366.18577 331.30182 
L 367.023084 193.885275 
L 367.860398 207.543485 
L 368.697712 319.163098 
L 369.535026 356.408012 
L 370.37234 263.659558 
L 371.209654 317.421712 
L 372.046968 239.483228 
L 373.721596 145.171407 
L 374.55891 180.40032 
L 375.396224 190.891832 
L 376.233538 352.772379 
L 377.070852 198.405078 
L 377.908166 198.16577 
L 378.74548 340.756687 
L 379.582794 211.348313 
L 380.420108 263.621069 
L 381.257422 285.544873 
L 382.094736 154.996321 
L 382.93205 194.32737 
L 383.769364 154.933909 
L 384.606678 265.312921 
L 385.443991 273.942622 
L 386.281305 240.830352 
L 387.118619 167.525611 
L 387.955933 228.508248 
L 388.793247 352.043482 
L 389.630561 330.272086 
L 390.467875 248.901281 
L 391.305189 273.321278 
L 392.142503 180.82434 
L 392.979817 172.232278 
L 393.817131 276.941209 
L 394.654445 226.48505 
L 395.491759 150.038278 
L 396.329073 138.455351 
L 397.166387 102.124284 
L 398.003701 177.709953 
L 398.841015 181.012719 
L 399.678329 237.701 
L 400.515643 223.018718 
L 401.352957 266.738459 
L 402.190271 252.612663 
L 403.027585 360.257556 
L 403.864899 348.149641 
L 404.702213 281.46347 
L 405.539527 358.674665 
L 406.376841 355.089131 
L 407.214155 377.386591 
L 408.051469 309.597455 
L 408.888783 364.696114 
L 409.726097 381.725729 
L 410.563411 381.906792 
L 411.400725 310.383667 
L 412.238039 301.636014 
L 413.075353 305.78779 
L 413.912667 247.723252 
L 414.749981 314.219236 
L 415.587295 343.811393 
L 416.424609 301.445229 
L 417.261923 299.366344 
L 418.099237 294.887223 
L 418.936551 346.937775 
L 419.773865 368.34218 
L 421.448493 293.243455 
L 422.285807 319.347624 
L 423.123121 326.330114 
L 423.960435 376.085306 
L 424.797749 299.961851 
L 425.635063 363.756629 
L 426.472377 300.005603 
L 427.309691 365.723236 
L 428.147005 375.029376 
L 428.984319 363.005477 
L 429.821633 356.92464 
L 430.658947 361.385686 
L 431.496261 322.365016 
L 432.333575 325.94788 
L 433.170889 269.450503 
L 434.008203 314.662407 
L 434.845517 373.086878 
L 435.682831 381.350167 
L 436.520145 355.967818 
L 437.357459 290.831484 
L 438.194773 309.391865 
L 439.032087 220.220778 
L 439.869401 334.337002 
L 440.706715 335.446007 
L 441.544029 247.163363 
L 442.381343 352.531828 
L 443.218657 398.088228 
L 444.055971 288.178609 
L 444.893285 331.605003 
L 445.730599 357.355657 
L 446.567913 266.55521 
L 447.405227 306.373422 
L 448.242541 321.663172 
L 449.917169 359.56651 
L 450.754483 331.68234 
L 451.591797 311.209392 
L 452.429111 347.812123 
L 453.266425 356.742441 
L 454.941053 351.502014 
L 455.778367 220.372688 
L 456.615681 270.803568 
L 457.452995 282.146176 
L 458.290309 275.525426 
L 459.127623 333.377549 
L 459.964937 309.626707 
L 460.802251 235.589168 
L 461.639565 269.989751 
L 462.476879 344.597871 
L 463.314193 359.787817 
L 464.151507 276.165802 
L 464.988821 278.811087 
L 465.826135 295.331684 
L 466.663449 197.254335 
L 467.500763 246.177422 
L 468.338077 284.02472 
L 469.175391 341.578584 
L 470.012705 163.489396 
L 470.850019 231.011578 
L 471.687333 235.475415 
L 472.524647 300.273366 
L 473.361961 301.660548 
L 474.199275 269.368421 
L 475.036589 317.838143 
L 475.873903 335.139356 
L 476.711217 367.207232 
L 477.548531 234.500757 
L 478.385845 260.096365 
L 479.223159 293.100676 
L 480.060473 321.660634 
L 480.897787 254.554709 
L 481.735101 217.338496 
L 482.572415 243.49774 
L 483.409729 232.129601 
L 484.247043 253.789669 
L 485.084357 173.662919 
L 486.758985 310.197002 
L 487.596299 223.816347 
L 488.433613 301.599212 
L 489.270927 305.297105 
L 490.108241 385.097593 
L 490.945555 388.65222 
L 491.782869 362.056045 
L 492.620183 355.061254 
L 493.457497 251.054752 
L 494.294811 366.483891 
L 495.132125 416.337124 
L 495.969439 364.050661 
L 496.806753 411.075036 
L 497.644067 386.619194 
L 498.481381 304.884621 
L 499.318695 283.219968 
L 500.156009 310.871388 
L 500.993322 356.829261 
L 501.830636 255.161287 
L 502.66795 233.965044 
L 503.505264 275.086455 
L 504.342578 337.278101 
L 505.179892 288.358044 
L 506.017206 365.876994 
L 506.85452 405.73214 
L 508.529148 308.884779 
L 509.366462 349.772138 
L 510.203776 397.161755 
L 511.04109 370.082982 
L 512.715718 209.649975 
L 514.390346 383.98278 
L 515.22766 309.004394 
L 516.064974 388.621818 
L 516.902288 359.220253 
L 517.739602 361.553658 
L 518.576916 354.259665 
L 519.41423 389.055454 
L 520.251544 418.700379 
L 521.088858 436.205588 
L 521.926172 302.449365 
L 522.763486 229.951555 
L 523.6008 316.386449 
L 524.438114 382.82684 
L 525.275428 266.159552 
L 526.112742 238.280957 
L 526.950056 293.846711 
L 527.78737 363.490334 
L 528.624684 345.892139 
L 529.461998 376.39417 
L 530.299312 425.655126 
L 531.136626 376.807278 
L 531.97394 253.113754 
L 532.811254 230.580435 
L 534.485882 297.525212 
L 535.323196 222.787889 
L 536.16051 346.420808 
L 536.997824 348.913486 
L 537.835138 379.51798 
L 538.672452 402.348169 
L 539.509766 350.839424 
L 540.34708 420.104353 
L 541.184394 323.619466 
L 542.021708 251.630788 
L 542.859022 162.285543 
L 543.696336 340.072652 
L 544.53365 386.673346 
L 545.370964 387.877279 
L 546.208278 284.584582 
L 547.045592 326.469345 
L 547.882906 383.453001 
L 548.72022 362.43378 
L 549.557534 408.919066 
L 550.394848 365.451452 
L 551.232162 358.18089 
L 552.069476 406.155987 
L 552.90679 442.370873 
L 553.744104 395.00843 
L 554.581418 400.680432 
L 555.418732 382.933841 
L 556.256046 417.704357 
L 557.09336 410.423683 
L 557.930674 389.568334 
L 558.767988 358.508315 
L 559.605302 441.133396 
L 560.442616 333.893027 
L 561.27993 422.388277 
L 562.117244 372.826757 
L 562.954558 422.990097 
L 563.791872 413.774979 
L 564.629186 364.185912 
L 565.4665 403.08704 
L 566.303814 400.352908 
L 567.141128 417.837886 
L 567.978442 336.818868 
L 568.815756 416.071356 
L 569.65307 440.992902 
L 571.327698 349.267744 
L 572.165012 396.551788 
L 573.002326 342.798352 
L 573.83964 300.16679 
L 575.514268 405.846478 
L 576.351582 413.500617 
L 577.188896 302.482737 
L 578.02621 428.162277 
L 578.863524 442.996364 
L 579.700838 404.246343 
L 580.538152 299.811854 
L 581.375466 411.436963 
L 582.21278 363.988322 
L 583.050094 390.977212 
L 583.887408 384.57093 
L 584.724722 387.558373 
L 585.562036 415.509487 
L 586.39935 335.084931 
L 587.236664 433.330862 
L 588.073978 414.961607 
L 588.911292 430.239115 
L 589.748606 371.856996 
L 590.58592 401.111808 
L 591.423234 350.916575 
L 592.260548 423.074565 
L 593.097862 325.398876 
L 593.935176 398.489129 
L 594.77249 417.346976 
L 595.609804 385.308506 
L 596.447118 422.149819 
L 597.284432 323.810875 
L 598.121746 428.214834 
L 598.95906 418.882492 
L 599.796374 371.11338 
L 600.633688 384.687754 
L 601.471002 367.805663 
L 602.308316 416.440571 
L 603.14563 392.534771 
L 603.982944 349.466716 
L 604.820258 404.673074 
L 605.657572 390.14847 
L 606.494886 386.949928 
L 607.3322 416.342387 
L 608.169514 408.114221 
L 609.006828 356.301157 
L 609.844142 391.773319 
L 610.681456 395.880984 
L 611.51877 343.91684 
L 612.356084 187.636087 
L 613.193398 210.62874 
L 614.030712 250.465066 
L 614.868026 278.15047 
L 615.70534 163.434905 
L 616.542653 313.019251 
L 618.217281 404.874352 
L 619.054595 218.323029 
L 619.891909 376.071875 
L 620.729223 389.265204 
L 621.566537 175.699952 
L 622.403851 356.283055 
L 623.241165 282.065529 
L 624.078479 370.963357 
L 624.915793 329.376228 
L 625.753107 387.88005 
L 626.590421 367.218762 
L 627.427735 409.406708 
L 628.265049 362.411599 
L 629.102363 373.971586 
L 629.939677 389.794252 
L 630.776991 426.081744 
L 631.614305 431.762558 
L 632.451619 402.329263 
L 633.288933 342.395086 
L 634.126247 356.677676 
L 634.963561 410.572177 
L 635.800875 433.315093 
L 636.638189 321.433008 
L 637.475503 406.901278 
L 638.312817 376.191756 
L 639.987445 426.329585 
L 640.824759 310.913081 
L 641.662073 400.300849 
L 642.499387 425.884241 
L 643.336701 368.271136 
L 644.174015 423.002112 
L 645.011329 332.435991 
L 645.848643 421.263051 
L 646.685957 370.53129 
L 647.523271 372.462205 
L 648.360585 418.589377 
L 649.197899 392.804893 
L 650.035213 370.608501 
L 650.872527 251.091234 
L 651.709841 426.308294 
L 652.547155 309.009311 
L 653.384469 338.418292 
L 654.221783 418.789313 
L 655.059097 352.212923 
L 655.896411 350.304123 
L 656.733725 416.294216 
L 657.571039 357.652175 
L 658.408353 329.565631 
L 659.245667 348.509216 
L 660.082981 347.756934 
L 660.920295 421.298896 
L 661.757609 402.16785 
L 662.594923 315.990566 
L 663.432237 417.747332 
L 664.269551 385.924201 
L 665.106865 412.624488 
L 665.944179 264.388262 
L 666.781493 354.954086 
L 667.618807 380.334441 
L 668.456121 234.34878 
L 669.293435 226.995232 
L 670.130749 278.492435 
L 670.968063 264.455897 
L 672.642691 366.696785 
L 673.480005 288.160096 
L 674.317319 292.327156 
L 675.154633 208.646224 
L 675.991947 372.780825 
L 676.829261 417.644683 
L 677.666575 426.314188 
L 678.503889 365.517533 
L 679.341203 421.1199 
L 680.178517 281.942287 
L 681.015831 416.858703 
L 681.853145 415.818172 
L 682.690459 305.329773 
L 683.527773 401.892185 
L 684.365087 315.84768 
L 685.202401 380.749642 
L 686.039715 267.407649 
L 686.877029 249.928582 
L 687.714343 367.654165 
L 688.551657 399.769196 
L 689.388971 395.357425 
L 690.226285 382.660695 
L 691.063599 276.242714 
L 691.900913 289.104917 
L 692.738227 298.273201 
L 693.575541 327.667603 
L 694.412855 249.985825 
L 696.087483 396.083278 
L 696.924797 235.662837 
L 697.762111 319.681839 
L 698.599425 282.100949 
L 699.436739 227.277137 
L 701.111367 317.413392 
L 701.948681 366.80897 
L 702.785995 321.35381 
L 703.623309 252.579769 
L 704.460623 290.630585 
L 705.297937 285.979552 
L 706.135251 356.003184 
L 706.972565 274.134776 
L 707.809879 321.999754 
L 708.647193 270.519843 
L 709.484507 336.91143 
L 710.321821 297.957871 
L 711.159135 272.804664 
L 711.996449 271.095374 
L 712.833763 316.328875 
L 713.671077 301.359346 
L 714.508391 344.491474 
L 715.345705 291.11408 
L 716.183019 359.461788 
L 717.020333 281.792915 
L 717.857647 256.278446 
L 718.694961 246.883093 
L 720.369589 186.9621 
L 721.206903 208.744999 
L 722.044217 133.288461 
L 722.881531 206.878881 
L 723.718845 245.3528 
L 724.556159 308.828986 
L 725.393473 255.329771 
L 726.230787 292.535006 
L 727.068101 268.0659 
L 727.905415 292.421306 
L 728.742729 246.220602 
L 729.580043 249.003671 
L 730.417357 209.556729 
L 731.254671 285.795332 
L 732.091984 180.892068 
L 732.929298 297.380014 
L 733.766612 236.056608 
L 734.603926 322.662816 
L 735.44124 268.358437 
L 736.278554 243.143907 
L 737.115868 306.50537 
L 737.953182 348.807733 
L 738.790496 331.699339 
L 739.62781 260.437252 
L 740.465124 283.883376 
L 741.302438 316.276524 
L 742.139752 304.176371 
L 743.81438 387.925709 
L 744.651694 406.725179 
L 745.489008 384.238422 
L 746.326322 343.232592 
L 747.163636 330.883569 
L 747.163636 330.883569 
" style="fill:none;stroke:#ff0000;stroke-dasharray:5.55,2.4;stroke-dashoffset:0;stroke-width:1.5;"/>
   </g>
   <g id="patch_3">
    <path d="M 108 460.8 
L 108 69.12 
" style="fill:none;stroke:#000000;stroke-linecap:square;stroke-linejoin:miter;stroke-width:0.8;"/>
   </g>
   <g id="patch_4">
    <path d="M 777.6 460.8 
L 777.6 69.12 
" style="fill:none;stroke:#000000;stroke-linecap:square;stroke-linejoin:miter;stroke-width:0.8;"/>
   </g>
   <g id="patch_5">
    <path d="M 108 460.8 
L 777.6 460.8 
" style="fill:none;stroke:#000000;stroke-linecap:square;stroke-linejoin:miter;stroke-width:0.8;"/>
   </g>
   <g id="patch_6">
    <path d="M 108 69.12 
L 777.6 69.12 
" style="fill:none;stroke:#000000;stroke-linecap:square;stroke-linejoin:miter;stroke-width:0.8;"/>
   </g>
   <g id="text_18">
    <!-- Macau residential 2020-2021 | Forecast vs Monitored | GRU -->
    <g transform="translate(219.602344 63.12)scale(0.15 -0.15)">
     <defs>
      <path d="M 9.8125 72.90625 
L 24.515625 72.90625 
L 43.109375 23.296875 
L 61.8125 72.90625 
L 76.515625 72.90625 
L 76.515625 0 
L 66.890625 0 
L 66.890625 64.015625 
L 48.09375 14.015625 
L 38.1875 14.015625 
L 19.390625 64.015625 
L 19.390625 0 
L 9.8125 0 
z
" id="DejaVuSans-77"/>
      <path d="M 48.78125 52.59375 
L 48.78125 44.1875 
Q 44.96875 46.296875 41.140625 47.34375 
Q 37.3125 48.390625 33.40625 48.390625 
Q 24.65625 48.390625 19.8125 42.84375 
Q 14.984375 37.3125 14.984375 27.296875 
Q 14.984375 17.28125 19.8125 11.734375 
Q 24.65625 6.203125 33.40625 6.203125 
Q 37.3125 6.203125 41.140625 7.25 
Q 44.96875 8.296875 48.78125 10.40625 
L 48.78125 2.09375 
Q 45.015625 0.34375 40.984375 -0.53125 
Q 36.96875 -1.421875 32.421875 -1.421875 
Q 20.0625 -1.421875 12.78125 6.34375 
Q 5.515625 14.109375 5.515625 27.296875 
Q 5.515625 40.671875 12.859375 48.328125 
Q 20.21875 56 33.015625 56 
Q 37.15625 56 41.109375 55.140625 
Q 45.0625 54.296875 48.78125 52.59375 
z
" id="DejaVuSans-99"/>
      <path d="M 8.5 21.578125 
L 8.5 54.6875 
L 17.484375 54.6875 
L 17.484375 21.921875 
Q 17.484375 14.15625 20.5 10.265625 
Q 23.53125 6.390625 29.59375 6.390625 
Q 36.859375 6.390625 41.078125 11.03125 
Q 45.3125 15.671875 45.3125 23.6875 
L 45.3125 54.6875 
L 54.296875 54.6875 
L 54.296875 0 
L 45.3125 0 
L 45.3125 8.40625 
Q 42.046875 3.421875 37.71875 1 
Q 33.40625 -1.421875 27.6875 -1.421875 
Q 18.265625 -1.421875 13.375 4.4375 
Q 8.5 10.296875 8.5 21.578125 
z
M 31.109375 56 
z
" id="DejaVuSans-117"/>
      <path id="DejaVuSans-32"/>
      <path d="M 41.109375 46.296875 
Q 39.59375 47.171875 37.8125 47.578125 
Q 36.03125 48 33.890625 48 
Q 26.265625 48 22.1875 43.046875 
Q 18.109375 38.09375 18.109375 28.8125 
L 18.109375 0 
L 9.078125 0 
L 9.078125 54.6875 
L 18.109375 54.6875 
L 18.109375 46.1875 
Q 20.953125 51.171875 25.484375 53.578125 
Q 30.03125 56 36.53125 56 
Q 37.453125 56 38.578125 55.875 
Q 39.703125 55.765625 41.0625 55.515625 
z
" id="DejaVuSans-114"/>
      <path d="M 44.28125 53.078125 
L 44.28125 44.578125 
Q 40.484375 46.53125 36.375 47.5 
Q 32.28125 48.484375 27.875 48.484375 
Q 21.1875 48.484375 17.84375 46.4375 
Q 14.5 44.390625 14.5 40.28125 
Q 14.5 37.15625 16.890625 35.375 
Q 19.28125 33.59375 26.515625 31.984375 
L 29.59375 31.296875 
Q 39.15625 29.25 43.1875 25.515625 
Q 47.21875 21.78125 47.21875 15.09375 
Q 47.21875 7.46875 41.1875 3.015625 
Q 35.15625 -1.421875 24.609375 -1.421875 
Q 20.21875 -1.421875 15.453125 -0.5625 
Q 10.6875 0.296875 5.421875 2 
L 5.421875 11.28125 
Q 10.40625 8.6875 15.234375 7.390625 
Q 20.0625 6.109375 24.8125 6.109375 
Q 31.15625 6.109375 34.5625 8.28125 
Q 37.984375 10.453125 37.984375 14.40625 
Q 37.984375 18.0625 35.515625 20.015625 
Q 33.0625 21.96875 24.703125 23.78125 
L 21.578125 24.515625 
Q 13.234375 26.265625 9.515625 29.90625 
Q 5.8125 33.546875 5.8125 39.890625 
Q 5.8125 47.609375 11.28125 51.796875 
Q 16.75 56 26.8125 56 
Q 31.78125 56 36.171875 55.265625 
Q 40.578125 54.546875 44.28125 53.078125 
z
" id="DejaVuSans-115"/>
      <path d="M 9.421875 54.6875 
L 18.40625 54.6875 
L 18.40625 0 
L 9.421875 0 
z
M 9.421875 75.984375 
L 18.40625 75.984375 
L 18.40625 64.59375 
L 9.421875 64.59375 
z
" id="DejaVuSans-105"/>
      <path d="M 45.40625 46.390625 
L 45.40625 75.984375 
L 54.390625 75.984375 
L 54.390625 0 
L 45.40625 0 
L 45.40625 8.203125 
Q 42.578125 3.328125 38.25 0.953125 
Q 33.9375 -1.421875 27.875 -1.421875 
Q 17.96875 -1.421875 11.734375 6.484375 
Q 5.515625 14.40625 5.515625 27.296875 
Q 5.515625 40.1875 11.734375 48.09375 
Q 17.96875 56 27.875 56 
Q 33.9375 56 38.25 53.625 
Q 42.578125 51.265625 45.40625 46.390625 
z
M 14.796875 27.296875 
Q 14.796875 17.390625 18.875 11.75 
Q 22.953125 6.109375 30.078125 6.109375 
Q 37.203125 6.109375 41.296875 11.75 
Q 45.40625 17.390625 45.40625 27.296875 
Q 45.40625 37.203125 41.296875 42.84375 
Q 37.203125 48.484375 30.078125 48.484375 
Q 22.953125 48.484375 18.875 42.84375 
Q 14.796875 37.203125 14.796875 27.296875 
z
" id="DejaVuSans-100"/>
      <path d="M 54.890625 33.015625 
L 54.890625 0 
L 45.90625 0 
L 45.90625 32.71875 
Q 45.90625 40.484375 42.875 44.328125 
Q 39.84375 48.1875 33.796875 48.1875 
Q 26.515625 48.1875 22.3125 43.546875 
Q 18.109375 38.921875 18.109375 30.90625 
L 18.109375 0 
L 9.078125 0 
L 9.078125 54.6875 
L 18.109375 54.6875 
L 18.109375 46.1875 
Q 21.34375 51.125 25.703125 53.5625 
Q 30.078125 56 35.796875 56 
Q 45.21875 56 50.046875 50.171875 
Q 54.890625 44.34375 54.890625 33.015625 
z
" id="DejaVuSans-110"/>
      <path d="M 9.421875 75.984375 
L 18.40625 75.984375 
L 18.40625 0 
L 9.421875 0 
z
" id="DejaVuSans-108"/>
      <path d="M 21 76.421875 
L 21 -23.578125 
L 12.703125 -23.578125 
L 12.703125 76.421875 
z
" id="DejaVuSans-124"/>
      <path d="M 9.8125 72.90625 
L 51.703125 72.90625 
L 51.703125 64.59375 
L 19.671875 64.59375 
L 19.671875 43.109375 
L 48.578125 43.109375 
L 48.578125 34.8125 
L 19.671875 34.8125 
L 19.671875 0 
L 9.8125 0 
z
" id="DejaVuSans-70"/>
      <path d="M 30.609375 48.390625 
Q 23.390625 48.390625 19.1875 42.75 
Q 14.984375 37.109375 14.984375 27.296875 
Q 14.984375 17.484375 19.15625 11.84375 
Q 23.34375 6.203125 30.609375 6.203125 
Q 37.796875 6.203125 41.984375 11.859375 
Q 46.1875 17.53125 46.1875 27.296875 
Q 46.1875 37.015625 41.984375 42.703125 
Q 37.796875 48.390625 30.609375 48.390625 
z
M 30.609375 56 
Q 42.328125 56 49.015625 48.375 
Q 55.71875 40.765625 55.71875 27.296875 
Q 55.71875 13.875 49.015625 6.21875 
Q 42.328125 -1.421875 30.609375 -1.421875 
Q 18.84375 -1.421875 12.171875 6.21875 
Q 5.515625 13.875 5.515625 27.296875 
Q 5.515625 40.765625 12.171875 48.375 
Q 18.84375 56 30.609375 56 
z
" id="DejaVuSans-111"/>
      <path d="M 2.984375 54.6875 
L 12.5 54.6875 
L 29.59375 8.796875 
L 46.6875 54.6875 
L 56.203125 54.6875 
L 35.6875 0 
L 23.484375 0 
z
" id="DejaVuSans-118"/>
      <path d="M 59.515625 10.40625 
L 59.515625 29.984375 
L 43.40625 29.984375 
L 43.40625 38.09375 
L 69.28125 38.09375 
L 69.28125 6.78125 
Q 63.578125 2.734375 56.6875 0.65625 
Q 49.8125 -1.421875 42 -1.421875 
Q 24.90625 -1.421875 15.25 8.5625 
Q 5.609375 18.5625 5.609375 36.375 
Q 5.609375 54.25 15.25 64.234375 
Q 24.90625 74.21875 42 74.21875 
Q 49.125 74.21875 55.546875 72.453125 
Q 61.96875 70.703125 67.390625 67.28125 
L 67.390625 56.78125 
Q 61.921875 61.421875 55.765625 63.765625 
Q 49.609375 66.109375 42.828125 66.109375 
Q 29.4375 66.109375 22.71875 58.640625 
Q 16.015625 51.171875 16.015625 36.375 
Q 16.015625 21.625 22.71875 14.15625 
Q 29.4375 6.6875 42.828125 6.6875 
Q 48.046875 6.6875 52.140625 7.59375 
Q 56.25 8.5 59.515625 10.40625 
z
" id="DejaVuSans-71"/>
      <path d="M 44.390625 34.1875 
Q 47.5625 33.109375 50.5625 29.59375 
Q 53.5625 26.078125 56.59375 19.921875 
L 66.609375 0 
L 56 0 
L 46.6875 18.703125 
Q 43.0625 26.03125 39.671875 28.421875 
Q 36.28125 30.8125 30.421875 30.8125 
L 19.671875 30.8125 
L 19.671875 0 
L 9.8125 0 
L 9.8125 72.90625 
L 32.078125 72.90625 
Q 44.578125 72.90625 50.734375 67.671875 
Q 56.890625 62.453125 56.890625 51.90625 
Q 56.890625 45.015625 53.6875 40.46875 
Q 50.484375 35.9375 44.390625 34.1875 
z
M 19.671875 64.796875 
L 19.671875 38.921875 
L 32.078125 38.921875 
Q 39.203125 38.921875 42.84375 42.21875 
Q 46.484375 45.515625 46.484375 51.90625 
Q 46.484375 58.296875 42.84375 61.546875 
Q 39.203125 64.796875 32.078125 64.796875 
z
" id="DejaVuSans-82"/>
      <path d="M 8.6875 72.90625 
L 18.609375 72.90625 
L 18.609375 28.609375 
Q 18.609375 16.890625 22.84375 11.734375 
Q 27.09375 6.59375 36.625 6.59375 
Q 46.09375 6.59375 50.34375 11.734375 
Q 54.59375 16.890625 54.59375 28.609375 
L 54.59375 72.90625 
L 64.5 72.90625 
L 64.5 27.390625 
Q 64.5 13.140625 57.4375 5.859375 
Q 50.390625 -1.421875 36.625 -1.421875 
Q 22.796875 -1.421875 15.734375 5.859375 
Q 8.6875 13.140625 8.6875 27.390625 
z
" id="DejaVuSans-85"/>
     </defs>
     <use xlink:href="#DejaVuSans-77"/>
     <use x="86.279297" xlink:href="#DejaVuSans-97"/>
     <use x="147.558594" xlink:href="#DejaVuSans-99"/>
     <use x="202.539062" xlink:href="#DejaVuSans-97"/>
     <use x="263.818359" xlink:href="#DejaVuSans-117"/>
     <use x="327.197266" xlink:href="#DejaVuSans-32"/>
     <use x="358.984375" xlink:href="#DejaVuSans-114"/>
     <use x="397.847656" xlink:href="#DejaVuSans-101"/>
     <use x="459.371094" xlink:href="#DejaVuSans-115"/>
     <use x="511.470703" xlink:href="#DejaVuSans-105"/>
     <use x="539.253906" xlink:href="#DejaVuSans-100"/>
     <use x="602.730469" xlink:href="#DejaVuSans-101"/>
     <use x="664.253906" xlink:href="#DejaVuSans-110"/>
     <use x="727.632812" xlink:href="#DejaVuSans-116"/>
     <use x="766.841797" xlink:href="#DejaVuSans-105"/>
     <use x="794.625" xlink:href="#DejaVuSans-97"/>
     <use x="855.904297" xlink:href="#DejaVuSans-108"/>
     <use x="883.6875" xlink:href="#DejaVuSans-32"/>
     <use x="915.474609" xlink:href="#DejaVuSans-50"/>
     <use x="979.097656" xlink:href="#DejaVuSans-48"/>
     <use x="1042.720703" xlink:href="#DejaVuSans-50"/>
     <use x="1106.34375" xlink:href="#DejaVuSans-48"/>
     <use x="1169.966797" xlink:href="#DejaVuSans-45"/>
     <use x="1206.050781" xlink:href="#DejaVuSans-50"/>
     <use x="1269.673828" xlink:href="#DejaVuSans-48"/>
     <use x="1333.296875" xlink:href="#DejaVuSans-50"/>
     <use x="1396.919922" xlink:href="#DejaVuSans-49"/>
     <use x="1460.542969" xlink:href="#DejaVuSans-32"/>
     <use x="1492.330078" xlink:href="#DejaVuSans-124"/>
     <use x="1526.021484" xlink:href="#DejaVuSans-32"/>
     <use x="1557.808594" xlink:href="#DejaVuSans-70"/>
     <use x="1611.703125" xlink:href="#DejaVuSans-111"/>
     <use x="1672.884766" xlink:href="#DejaVuSans-114"/>
     <use x="1711.748047" xlink:href="#DejaVuSans-101"/>
     <use x="1773.271484" xlink:href="#DejaVuSans-99"/>
     <use x="1828.251953" xlink:href="#DejaVuSans-97"/>
     <use x="1889.53125" xlink:href="#DejaVuSans-115"/>
     <use x="1941.630859" xlink:href="#DejaVuSans-116"/>
     <use x="1980.839844" xlink:href="#DejaVuSans-32"/>
     <use x="2012.626953" xlink:href="#DejaVuSans-118"/>
     <use x="2071.806641" xlink:href="#DejaVuSans-115"/>
     <use x="2123.90625" xlink:href="#DejaVuSans-32"/>
     <use x="2155.693359" xlink:href="#DejaVuSans-77"/>
     <use x="2241.972656" xlink:href="#DejaVuSans-111"/>
     <use x="2303.154297" xlink:href="#DejaVuSans-110"/>
     <use x="2366.533203" xlink:href="#DejaVuSans-105"/>
     <use x="2394.316406" xlink:href="#DejaVuSans-116"/>
     <use x="2433.525391" xlink:href="#DejaVuSans-111"/>
     <use x="2494.707031" xlink:href="#DejaVuSans-114"/>
     <use x="2533.570312" xlink:href="#DejaVuSans-101"/>
     <use x="2595.09375" xlink:href="#DejaVuSans-100"/>
     <use x="2658.570312" xlink:href="#DejaVuSans-32"/>
     <use x="2690.357422" xlink:href="#DejaVuSans-124"/>
     <use x="2724.048828" xlink:href="#DejaVuSans-32"/>
     <use x="2755.835938" xlink:href="#DejaVuSans-71"/>
     <use x="2833.326172" xlink:href="#DejaVuSans-82"/>
     <use x="2902.808594" xlink:href="#DejaVuSans-85"/>
    </g>
   </g>
   <g id="legend_1">
    <g id="patch_7">
     <path d="M 614.74125 114.615 
L 769.2 114.615 
Q 771.6 114.615 771.6 112.215 
L 771.6 77.52 
Q 771.6 75.12 769.2 75.12 
L 614.74125 75.12 
Q 612.34125 75.12 612.34125 77.52 
L 612.34125 112.215 
Q 612.34125 114.615 614.74125 114.615 
z
" style="fill:#ffffff;opacity:0.8;stroke:#cccccc;stroke-linejoin:miter;"/>
    </g>
    <g id="line2d_18">
     <path d="M 617.14125 84.838125 
L 641.14125 84.838125 
" style="fill:none;stroke:#1f77b4;stroke-linecap:square;stroke-width:1.5;"/>
    </g>
    <g id="line2d_19"/>
    <g id="text_19">
     <!-- measured_data_O3 -->
     <g transform="translate(650.74125 89.038125)scale(0.12 -0.12)">
      <defs>
       <path d="M 50.984375 -16.609375 
L 50.984375 -23.578125 
L -0.984375 -23.578125 
L -0.984375 -16.609375 
z
" id="DejaVuSans-95"/>
      </defs>
      <use xlink:href="#DejaVuSans-109"/>
      <use x="97.412109" xlink:href="#DejaVuSans-101"/>
      <use x="158.935547" xlink:href="#DejaVuSans-97"/>
      <use x="220.214844" xlink:href="#DejaVuSans-115"/>
      <use x="272.314453" xlink:href="#DejaVuSans-117"/>
      <use x="335.693359" xlink:href="#DejaVuSans-114"/>
      <use x="374.556641" xlink:href="#DejaVuSans-101"/>
      <use x="436.080078" xlink:href="#DejaVuSans-100"/>
      <use x="499.556641" xlink:href="#DejaVuSans-95"/>
      <use x="549.556641" xlink:href="#DejaVuSans-100"/>
      <use x="613.033203" xlink:href="#DejaVuSans-97"/>
      <use x="674.3125" xlink:href="#DejaVuSans-116"/>
      <use x="713.521484" xlink:href="#DejaVuSans-97"/>
      <use x="774.800781" xlink:href="#DejaVuSans-95"/>
      <use x="824.800781" xlink:href="#DejaVuSans-79"/>
      <use x="903.511719" xlink:href="#DejaVuSans-51"/>
     </g>
    </g>
    <g id="line2d_20">
     <path d="M 617.14125 102.785625 
L 641.14125 102.785625 
" style="fill:none;stroke:#ff0000;stroke-dasharray:5.55,2.4;stroke-dashoffset:0;stroke-width:1.5;"/>
    </g>
    <g id="line2d_21"/>
    <g id="text_20">
     <!-- predicted_data_O3 -->
     <g transform="translate(650.74125 106.985625)scale(0.12 -0.12)">
      <use xlink:href="#DejaVuSans-112"/>
      <use x="63.476562" xlink:href="#DejaVuSans-114"/>
      <use x="102.339844" xlink:href="#DejaVuSans-101"/>
      <use x="163.863281" xlink:href="#DejaVuSans-100"/>
      <use x="227.339844" xlink:href="#DejaVuSans-105"/>
      <use x="255.123047" xlink:href="#DejaVuSans-99"/>
      <use x="310.103516" xlink:href="#DejaVuSans-116"/>
      <use x="349.3125" xlink:href="#DejaVuSans-101"/>
      <use x="410.835938" xlink:href="#DejaVuSans-100"/>
      <use x="474.3125" xlink:href="#DejaVuSans-95"/>
      <use x="524.3125" xlink:href="#DejaVuSans-100"/>
      <use x="587.789062" xlink:href="#DejaVuSans-97"/>
      <use x="649.068359" xlink:href="#DejaVuSans-116"/>
      <use x="688.277344" xlink:href="#DejaVuSans-97"/>
      <use x="749.556641" xlink:href="#DejaVuSans-95"/>
      <use x="799.556641" xlink:href="#DejaVuSans-79"/>
      <use x="878.267578" xlink:href="#DejaVuSans-51"/>
     </g>
    </g>
   </g>
  </g>
 </g>
 <defs>
  <clipPath id="p22cf5d886d">
   <rect height="391.68" width="669.6" x="108" y="69.12"/>
  </clipPath>
 </defs>
</svg>
