<?xml version="1.0" encoding="utf-8" standalone="no"?>
<!DOCTYPE svg PUBLIC "-//W3C//DTD SVG 1.1//EN"
  "http://www.w3.org/Graphics/SVG/1.1/DTD/svg11.dtd">
<!-- Created with matplotlib (https://matplotlib.org/) -->
<svg height="576pt" version="1.1" viewBox="0 0 864 576" width="864pt" xmlns="http://www.w3.org/2000/svg" xmlns:xlink="http://www.w3.org/1999/xlink">
 <metadata>
  <rdf:RDF xmlns:cc="http://creativecommons.org/ns#" xmlns:dc="http://purl.org/dc/elements/1.1/" xmlns:rdf="http://www.w3.org/1999/02/22-rdf-syntax-ns#">
   <cc:Work>
    <dc:type rdf:resource="http://purl.org/dc/dcmitype/StillImage"/>
    <dc:date>2024-03-08T19:32:14.309855</dc:date>
    <dc:format>image/svg+xml</dc:format>
    <dc:creator>
     <cc:Agent>
      <dc:title>Matplotlib v3.3.4, https://matplotlib.org/</dc:title>
     </cc:Agent>
    </dc:creator>
   </cc:Work>
  </rdf:RDF>
 </metadata>
 <defs>
  <style type="text/css">*{stroke-linecap:butt;stroke-linejoin:round;}</style>
 </defs>
 <g id="figure_1">
  <g id="patch_1">
   <path d="M 0 576 
L 864 576 
L 864 0 
L 0 0 
z
" style="fill:#ffffff;"/>
  </g>
  <g id="axes_1">
   <g id="patch_2">
    <path d="M 108 460.8 
L 777.6 460.8 
L 777.6 69.12 
L 108 69.12 
z
" style="fill:#ffffff;"/>
   </g>
   <g id="matplotlib.axis_1">
    <g id="xtick_1">
     <g id="line2d_1">
      <defs>
       <path d="M 0 0 
L 0 3.5 
" id="m2653990c68" style="stroke:#000000;stroke-width:0.8;"/>
      </defs>
      <g>
       <use style="stroke:#000000;stroke-width:0.8;" x="136.761736" xlink:href="#m2653990c68" y="460.8"/>
      </g>
     </g>
     <g id="text_1">
      <!-- 2020-01 -->
      <g transform="translate(92.091951 500.766215)rotate(-30)scale(0.12 -0.12)">
       <defs>
        <path d="M 19.1875 8.296875 
L 53.609375 8.296875 
L 53.609375 0 
L 7.328125 0 
L 7.328125 8.296875 
Q 12.9375 14.109375 22.625 23.890625 
Q 32.328125 33.6875 34.8125 36.53125 
Q 39.546875 41.84375 41.421875 45.53125 
Q 43.3125 49.21875 43.3125 52.78125 
Q 43.3125 58.59375 39.234375 62.25 
Q 35.15625 65.921875 28.609375 65.921875 
Q 23.96875 65.921875 18.8125 64.3125 
Q 13.671875 62.703125 7.8125 59.421875 
L 7.8125 69.390625 
Q 13.765625 71.78125 18.9375 73 
Q 24.125 74.21875 28.421875 74.21875 
Q 39.75 74.21875 46.484375 68.546875 
Q 53.21875 62.890625 53.21875 53.421875 
Q 53.21875 48.921875 51.53125 44.890625 
Q 49.859375 40.875 45.40625 35.40625 
Q 44.1875 33.984375 37.640625 27.21875 
Q 31.109375 20.453125 19.1875 8.296875 
z
" id="DejaVuSans-50"/>
        <path d="M 31.78125 66.40625 
Q 24.171875 66.40625 20.328125 58.90625 
Q 16.5 51.421875 16.5 36.375 
Q 16.5 21.390625 20.328125 13.890625 
Q 24.171875 6.390625 31.78125 6.390625 
Q 39.453125 6.390625 43.28125 13.890625 
Q 47.125 21.390625 47.125 36.375 
Q 47.125 51.421875 43.28125 58.90625 
Q 39.453125 66.40625 31.78125 66.40625 
z
M 31.78125 74.21875 
Q 44.046875 74.21875 50.515625 64.515625 
Q 56.984375 54.828125 56.984375 36.375 
Q 56.984375 17.96875 50.515625 8.265625 
Q 44.046875 -1.421875 31.78125 -1.421875 
Q 19.53125 -1.421875 13.0625 8.265625 
Q 6.59375 17.96875 6.59375 36.375 
Q 6.59375 54.828125 13.0625 64.515625 
Q 19.53125 74.21875 31.78125 74.21875 
z
" id="DejaVuSans-48"/>
        <path d="M 4.890625 31.390625 
L 31.203125 31.390625 
L 31.203125 23.390625 
L 4.890625 23.390625 
z
" id="DejaVuSans-45"/>
        <path d="M 12.40625 8.296875 
L 28.515625 8.296875 
L 28.515625 63.921875 
L 10.984375 60.40625 
L 10.984375 69.390625 
L 28.421875 72.90625 
L 38.28125 72.90625 
L 38.28125 8.296875 
L 54.390625 8.296875 
L 54.390625 0 
L 12.40625 0 
z
" id="DejaVuSans-49"/>
       </defs>
       <use xlink:href="#DejaVuSans-50"/>
       <use x="63.623047" xlink:href="#DejaVuSans-48"/>
       <use x="127.246094" xlink:href="#DejaVuSans-50"/>
       <use x="190.869141" xlink:href="#DejaVuSans-48"/>
       <use x="254.492188" xlink:href="#DejaVuSans-45"/>
       <use x="290.576172" xlink:href="#DejaVuSans-48"/>
       <use x="354.199219" xlink:href="#DejaVuSans-49"/>
      </g>
     </g>
    </g>
    <g id="xtick_2">
     <g id="line2d_2">
      <g>
       <use style="stroke:#000000;stroke-width:0.8;" x="212.957309" xlink:href="#m2653990c68" y="460.8"/>
      </g>
     </g>
     <g id="text_2">
      <!-- 2020-04 -->
      <g transform="translate(168.287524 500.766215)rotate(-30)scale(0.12 -0.12)">
       <defs>
        <path d="M 37.796875 64.3125 
L 12.890625 25.390625 
L 37.796875 25.390625 
z
M 35.203125 72.90625 
L 47.609375 72.90625 
L 47.609375 25.390625 
L 58.015625 25.390625 
L 58.015625 17.1875 
L 47.609375 17.1875 
L 47.609375 0 
L 37.796875 0 
L 37.796875 17.1875 
L 4.890625 17.1875 
L 4.890625 26.703125 
z
" id="DejaVuSans-52"/>
       </defs>
       <use xlink:href="#DejaVuSans-50"/>
       <use x="63.623047" xlink:href="#DejaVuSans-48"/>
       <use x="127.246094" xlink:href="#DejaVuSans-50"/>
       <use x="190.869141" xlink:href="#DejaVuSans-48"/>
       <use x="254.492188" xlink:href="#DejaVuSans-45"/>
       <use x="290.576172" xlink:href="#DejaVuSans-48"/>
       <use x="354.199219" xlink:href="#DejaVuSans-52"/>
      </g>
     </g>
    </g>
    <g id="xtick_3">
     <g id="line2d_3">
      <g>
       <use style="stroke:#000000;stroke-width:0.8;" x="289.152882" xlink:href="#m2653990c68" y="460.8"/>
      </g>
     </g>
     <g id="text_3">
      <!-- 2020-07 -->
      <g transform="translate(244.483097 500.766215)rotate(-30)scale(0.12 -0.12)">
       <defs>
        <path d="M 8.203125 72.90625 
L 55.078125 72.90625 
L 55.078125 68.703125 
L 28.609375 0 
L 18.3125 0 
L 43.21875 64.59375 
L 8.203125 64.59375 
z
" id="DejaVuSans-55"/>
       </defs>
       <use xlink:href="#DejaVuSans-50"/>
       <use x="63.623047" xlink:href="#DejaVuSans-48"/>
       <use x="127.246094" xlink:href="#DejaVuSans-50"/>
       <use x="190.869141" xlink:href="#DejaVuSans-48"/>
       <use x="254.492188" xlink:href="#DejaVuSans-45"/>
       <use x="290.576172" xlink:href="#DejaVuSans-48"/>
       <use x="354.199219" xlink:href="#DejaVuSans-55"/>
      </g>
     </g>
    </g>
    <g id="xtick_4">
     <g id="line2d_4">
      <g>
       <use style="stroke:#000000;stroke-width:0.8;" x="366.18577" xlink:href="#m2653990c68" y="460.8"/>
      </g>
     </g>
     <g id="text_4">
      <!-- 2020-10 -->
      <g transform="translate(321.515985 500.766215)rotate(-30)scale(0.12 -0.12)">
       <use xlink:href="#DejaVuSans-50"/>
       <use x="63.623047" xlink:href="#DejaVuSans-48"/>
       <use x="127.246094" xlink:href="#DejaVuSans-50"/>
       <use x="190.869141" xlink:href="#DejaVuSans-48"/>
       <use x="254.492188" xlink:href="#DejaVuSans-45"/>
       <use x="290.576172" xlink:href="#DejaVuSans-49"/>
       <use x="354.199219" xlink:href="#DejaVuSans-48"/>
      </g>
     </g>
    </g>
    <g id="xtick_5">
     <g id="line2d_5">
      <g>
       <use style="stroke:#000000;stroke-width:0.8;" x="443.218657" xlink:href="#m2653990c68" y="460.8"/>
      </g>
     </g>
     <g id="text_5">
      <!-- 2021-01 -->
      <g transform="translate(398.548872 500.766215)rotate(-30)scale(0.12 -0.12)">
       <use xlink:href="#DejaVuSans-50"/>
       <use x="63.623047" xlink:href="#DejaVuSans-48"/>
       <use x="127.246094" xlink:href="#DejaVuSans-50"/>
       <use x="190.869141" xlink:href="#DejaVuSans-49"/>
       <use x="254.492188" xlink:href="#DejaVuSans-45"/>
       <use x="290.576172" xlink:href="#DejaVuSans-48"/>
       <use x="354.199219" xlink:href="#DejaVuSans-49"/>
      </g>
     </g>
    </g>
    <g id="xtick_6">
     <g id="line2d_6">
      <g>
       <use style="stroke:#000000;stroke-width:0.8;" x="518.576916" xlink:href="#m2653990c68" y="460.8"/>
      </g>
     </g>
     <g id="text_6">
      <!-- 2021-04 -->
      <g transform="translate(473.907131 500.766215)rotate(-30)scale(0.12 -0.12)">
       <use xlink:href="#DejaVuSans-50"/>
       <use x="63.623047" xlink:href="#DejaVuSans-48"/>
       <use x="127.246094" xlink:href="#DejaVuSans-50"/>
       <use x="190.869141" xlink:href="#DejaVuSans-49"/>
       <use x="254.492188" xlink:href="#DejaVuSans-45"/>
       <use x="290.576172" xlink:href="#DejaVuSans-48"/>
       <use x="354.199219" xlink:href="#DejaVuSans-52"/>
      </g>
     </g>
    </g>
    <g id="xtick_7">
     <g id="line2d_7">
      <g>
       <use style="stroke:#000000;stroke-width:0.8;" x="594.77249" xlink:href="#m2653990c68" y="460.8"/>
      </g>
     </g>
     <g id="text_7">
      <!-- 2021-07 -->
      <g transform="translate(550.102705 500.766215)rotate(-30)scale(0.12 -0.12)">
       <use xlink:href="#DejaVuSans-50"/>
       <use x="63.623047" xlink:href="#DejaVuSans-48"/>
       <use x="127.246094" xlink:href="#DejaVuSans-50"/>
       <use x="190.869141" xlink:href="#DejaVuSans-49"/>
       <use x="254.492188" xlink:href="#DejaVuSans-45"/>
       <use x="290.576172" xlink:href="#DejaVuSans-48"/>
       <use x="354.199219" xlink:href="#DejaVuSans-55"/>
      </g>
     </g>
    </g>
    <g id="xtick_8">
     <g id="line2d_8">
      <g>
       <use style="stroke:#000000;stroke-width:0.8;" x="671.805377" xlink:href="#m2653990c68" y="460.8"/>
      </g>
     </g>
     <g id="text_8">
      <!-- 2021-10 -->
      <g transform="translate(627.135592 500.766215)rotate(-30)scale(0.12 -0.12)">
       <use xlink:href="#DejaVuSans-50"/>
       <use x="63.623047" xlink:href="#DejaVuSans-48"/>
       <use x="127.246094" xlink:href="#DejaVuSans-50"/>
       <use x="190.869141" xlink:href="#DejaVuSans-49"/>
       <use x="254.492188" xlink:href="#DejaVuSans-45"/>
       <use x="290.576172" xlink:href="#DejaVuSans-49"/>
       <use x="354.199219" xlink:href="#DejaVuSans-48"/>
      </g>
     </g>
    </g>
    <g id="xtick_9">
     <g id="line2d_9">
      <g>
       <use style="stroke:#000000;stroke-width:0.8;" x="748.838264" xlink:href="#m2653990c68" y="460.8"/>
      </g>
     </g>
     <g id="text_9">
      <!-- 2022-01 -->
      <g transform="translate(704.168479 500.766215)rotate(-30)scale(0.12 -0.12)">
       <use xlink:href="#DejaVuSans-50"/>
       <use x="63.623047" xlink:href="#DejaVuSans-48"/>
       <use x="127.246094" xlink:href="#DejaVuSans-50"/>
       <use x="190.869141" xlink:href="#DejaVuSans-50"/>
       <use x="254.492188" xlink:href="#DejaVuSans-45"/>
       <use x="290.576172" xlink:href="#DejaVuSans-48"/>
       <use x="354.199219" xlink:href="#DejaVuSans-49"/>
      </g>
     </g>
    </g>
    <g id="text_10">
     <!-- Date -->
     <g transform="translate(424.873828 518.325146)scale(0.15 -0.15)">
      <defs>
       <path d="M 19.671875 64.796875 
L 19.671875 8.109375 
L 31.59375 8.109375 
Q 46.6875 8.109375 53.6875 14.9375 
Q 60.6875 21.78125 60.6875 36.53125 
Q 60.6875 51.171875 53.6875 57.984375 
Q 46.6875 64.796875 31.59375 64.796875 
z
M 9.8125 72.90625 
L 30.078125 72.90625 
Q 51.265625 72.90625 61.171875 64.09375 
Q 71.09375 55.28125 71.09375 36.53125 
Q 71.09375 17.671875 61.125 8.828125 
Q 51.171875 0 30.078125 0 
L 9.8125 0 
z
" id="DejaVuSans-68"/>
       <path d="M 34.28125 27.484375 
Q 23.390625 27.484375 19.1875 25 
Q 14.984375 22.515625 14.984375 16.5 
Q 14.984375 11.71875 18.140625 8.90625 
Q 21.296875 6.109375 26.703125 6.109375 
Q 34.1875 6.109375 38.703125 11.40625 
Q 43.21875 16.703125 43.21875 25.484375 
L 43.21875 27.484375 
z
M 52.203125 31.203125 
L 52.203125 0 
L 43.21875 0 
L 43.21875 8.296875 
Q 40.140625 3.328125 35.546875 0.953125 
Q 30.953125 -1.421875 24.3125 -1.421875 
Q 15.921875 -1.421875 10.953125 3.296875 
Q 6 8.015625 6 15.921875 
Q 6 25.140625 12.171875 29.828125 
Q 18.359375 34.515625 30.609375 34.515625 
L 43.21875 34.515625 
L 43.21875 35.40625 
Q 43.21875 41.609375 39.140625 45 
Q 35.0625 48.390625 27.6875 48.390625 
Q 23 48.390625 18.546875 47.265625 
Q 14.109375 46.140625 10.015625 43.890625 
L 10.015625 52.203125 
Q 14.9375 54.109375 19.578125 55.046875 
Q 24.21875 56 28.609375 56 
Q 40.484375 56 46.34375 49.84375 
Q 52.203125 43.703125 52.203125 31.203125 
z
" id="DejaVuSans-97"/>
       <path d="M 18.3125 70.21875 
L 18.3125 54.6875 
L 36.8125 54.6875 
L 36.8125 47.703125 
L 18.3125 47.703125 
L 18.3125 18.015625 
Q 18.3125 11.328125 20.140625 9.421875 
Q 21.96875 7.515625 27.59375 7.515625 
L 36.8125 7.515625 
L 36.8125 0 
L 27.59375 0 
Q 17.1875 0 13.234375 3.875 
Q 9.28125 7.765625 9.28125 18.015625 
L 9.28125 47.703125 
L 2.6875 47.703125 
L 2.6875 54.6875 
L 9.28125 54.6875 
L 9.28125 70.21875 
z
" id="DejaVuSans-116"/>
       <path d="M 56.203125 29.59375 
L 56.203125 25.203125 
L 14.890625 25.203125 
Q 15.484375 15.921875 20.484375 11.0625 
Q 25.484375 6.203125 34.421875 6.203125 
Q 39.59375 6.203125 44.453125 7.46875 
Q 49.3125 8.734375 54.109375 11.28125 
L 54.109375 2.78125 
Q 49.265625 0.734375 44.1875 -0.34375 
Q 39.109375 -1.421875 33.890625 -1.421875 
Q 20.796875 -1.421875 13.15625 6.1875 
Q 5.515625 13.8125 5.515625 26.8125 
Q 5.515625 40.234375 12.765625 48.109375 
Q 20.015625 56 32.328125 56 
Q 43.359375 56 49.78125 48.890625 
Q 56.203125 41.796875 56.203125 29.59375 
z
M 47.21875 32.234375 
Q 47.125 39.59375 43.09375 43.984375 
Q 39.0625 48.390625 32.421875 48.390625 
Q 24.90625 48.390625 20.390625 44.140625 
Q 15.875 39.890625 15.1875 32.171875 
z
" id="DejaVuSans-101"/>
      </defs>
      <use xlink:href="#DejaVuSans-68"/>
      <use x="77.001953" xlink:href="#DejaVuSans-97"/>
      <use x="138.28125" xlink:href="#DejaVuSans-116"/>
      <use x="177.490234" xlink:href="#DejaVuSans-101"/>
     </g>
    </g>
   </g>
   <g id="matplotlib.axis_2">
    <g id="ytick_1">
     <g id="line2d_10">
      <defs>
       <path d="M 0 0 
L -3.5 0 
" id="md0d7288186" style="stroke:#000000;stroke-width:0.8;"/>
      </defs>
      <g>
       <use style="stroke:#000000;stroke-width:0.8;" x="108" xlink:href="#md0d7288186" y="447.068196"/>
      </g>
     </g>
     <g id="text_11">
      <!-- 0 -->
      <g transform="translate(93.365 451.627258)scale(0.12 -0.12)">
       <use xlink:href="#DejaVuSans-48"/>
      </g>
     </g>
    </g>
    <g id="ytick_2">
     <g id="line2d_11">
      <g>
       <use style="stroke:#000000;stroke-width:0.8;" x="108" xlink:href="#md0d7288186" y="376.800987"/>
      </g>
     </g>
     <g id="text_12">
      <!-- 20 -->
      <g transform="translate(85.73 381.360049)scale(0.12 -0.12)">
       <use xlink:href="#DejaVuSans-50"/>
       <use x="63.623047" xlink:href="#DejaVuSans-48"/>
      </g>
     </g>
    </g>
    <g id="ytick_3">
     <g id="line2d_12">
      <g>
       <use style="stroke:#000000;stroke-width:0.8;" x="108" xlink:href="#md0d7288186" y="306.533778"/>
      </g>
     </g>
     <g id="text_13">
      <!-- 40 -->
      <g transform="translate(85.73 311.09284)scale(0.12 -0.12)">
       <use xlink:href="#DejaVuSans-52"/>
       <use x="63.623047" xlink:href="#DejaVuSans-48"/>
      </g>
     </g>
    </g>
    <g id="ytick_4">
     <g id="line2d_13">
      <g>
       <use style="stroke:#000000;stroke-width:0.8;" x="108" xlink:href="#md0d7288186" y="236.266568"/>
      </g>
     </g>
     <g id="text_14">
      <!-- 60 -->
      <g transform="translate(85.73 240.825631)scale(0.12 -0.12)">
       <defs>
        <path d="M 33.015625 40.375 
Q 26.375 40.375 22.484375 35.828125 
Q 18.609375 31.296875 18.609375 23.390625 
Q 18.609375 15.53125 22.484375 10.953125 
Q 26.375 6.390625 33.015625 6.390625 
Q 39.65625 6.390625 43.53125 10.953125 
Q 47.40625 15.53125 47.40625 23.390625 
Q 47.40625 31.296875 43.53125 35.828125 
Q 39.65625 40.375 33.015625 40.375 
z
M 52.59375 71.296875 
L 52.59375 62.3125 
Q 48.875 64.0625 45.09375 64.984375 
Q 41.3125 65.921875 37.59375 65.921875 
Q 27.828125 65.921875 22.671875 59.328125 
Q 17.53125 52.734375 16.796875 39.40625 
Q 19.671875 43.65625 24.015625 45.921875 
Q 28.375 48.1875 33.59375 48.1875 
Q 44.578125 48.1875 50.953125 41.515625 
Q 57.328125 34.859375 57.328125 23.390625 
Q 57.328125 12.15625 50.6875 5.359375 
Q 44.046875 -1.421875 33.015625 -1.421875 
Q 20.359375 -1.421875 13.671875 8.265625 
Q 6.984375 17.96875 6.984375 36.375 
Q 6.984375 53.65625 15.1875 63.9375 
Q 23.390625 74.21875 37.203125 74.21875 
Q 40.921875 74.21875 44.703125 73.484375 
Q 48.484375 72.75 52.59375 71.296875 
z
" id="DejaVuSans-54"/>
       </defs>
       <use xlink:href="#DejaVuSans-54"/>
       <use x="63.623047" xlink:href="#DejaVuSans-48"/>
      </g>
     </g>
    </g>
    <g id="ytick_5">
     <g id="line2d_14">
      <g>
       <use style="stroke:#000000;stroke-width:0.8;" x="108" xlink:href="#md0d7288186" y="165.999359"/>
      </g>
     </g>
     <g id="text_15">
      <!-- 80 -->
      <g transform="translate(85.73 170.558422)scale(0.12 -0.12)">
       <defs>
        <path d="M 31.78125 34.625 
Q 24.75 34.625 20.71875 30.859375 
Q 16.703125 27.09375 16.703125 20.515625 
Q 16.703125 13.921875 20.71875 10.15625 
Q 24.75 6.390625 31.78125 6.390625 
Q 38.8125 6.390625 42.859375 10.171875 
Q 46.921875 13.96875 46.921875 20.515625 
Q 46.921875 27.09375 42.890625 30.859375 
Q 38.875 34.625 31.78125 34.625 
z
M 21.921875 38.8125 
Q 15.578125 40.375 12.03125 44.71875 
Q 8.5 49.078125 8.5 55.328125 
Q 8.5 64.0625 14.71875 69.140625 
Q 20.953125 74.21875 31.78125 74.21875 
Q 42.671875 74.21875 48.875 69.140625 
Q 55.078125 64.0625 55.078125 55.328125 
Q 55.078125 49.078125 51.53125 44.71875 
Q 48 40.375 41.703125 38.8125 
Q 48.828125 37.15625 52.796875 32.3125 
Q 56.78125 27.484375 56.78125 20.515625 
Q 56.78125 9.90625 50.3125 4.234375 
Q 43.84375 -1.421875 31.78125 -1.421875 
Q 19.734375 -1.421875 13.25 4.234375 
Q 6.78125 9.90625 6.78125 20.515625 
Q 6.78125 27.484375 10.78125 32.3125 
Q 14.796875 37.15625 21.921875 38.8125 
z
M 18.3125 54.390625 
Q 18.3125 48.734375 21.84375 45.5625 
Q 25.390625 42.390625 31.78125 42.390625 
Q 38.140625 42.390625 41.71875 45.5625 
Q 45.3125 48.734375 45.3125 54.390625 
Q 45.3125 60.0625 41.71875 63.234375 
Q 38.140625 66.40625 31.78125 66.40625 
Q 25.390625 66.40625 21.84375 63.234375 
Q 18.3125 60.0625 18.3125 54.390625 
z
" id="DejaVuSans-56"/>
       </defs>
       <use xlink:href="#DejaVuSans-56"/>
       <use x="63.623047" xlink:href="#DejaVuSans-48"/>
      </g>
     </g>
    </g>
    <g id="ytick_6">
     <g id="line2d_15">
      <g>
       <use style="stroke:#000000;stroke-width:0.8;" x="108" xlink:href="#md0d7288186" y="95.73215"/>
      </g>
     </g>
     <g id="text_16">
      <!-- 100 -->
      <g transform="translate(78.095 100.291213)scale(0.12 -0.12)">
       <use xlink:href="#DejaVuSans-49"/>
       <use x="63.623047" xlink:href="#DejaVuSans-48"/>
       <use x="127.246094" xlink:href="#DejaVuSans-48"/>
      </g>
     </g>
    </g>
    <g id="text_17">
     <!-- O3(ppm) -->
     <g transform="translate(70.975469 298.31625)rotate(-90)scale(0.15 -0.15)">
      <defs>
       <path d="M 39.40625 66.21875 
Q 28.65625 66.21875 22.328125 58.203125 
Q 16.015625 50.203125 16.015625 36.375 
Q 16.015625 22.609375 22.328125 14.59375 
Q 28.65625 6.59375 39.40625 6.59375 
Q 50.140625 6.59375 56.421875 14.59375 
Q 62.703125 22.609375 62.703125 36.375 
Q 62.703125 50.203125 56.421875 58.203125 
Q 50.140625 66.21875 39.40625 66.21875 
z
M 39.40625 74.21875 
Q 54.734375 74.21875 63.90625 63.9375 
Q 73.09375 53.65625 73.09375 36.375 
Q 73.09375 19.140625 63.90625 8.859375 
Q 54.734375 -1.421875 39.40625 -1.421875 
Q 24.03125 -1.421875 14.8125 8.828125 
Q 5.609375 19.09375 5.609375 36.375 
Q 5.609375 53.65625 14.8125 63.9375 
Q 24.03125 74.21875 39.40625 74.21875 
z
" id="DejaVuSans-79"/>
       <path d="M 40.578125 39.3125 
Q 47.65625 37.796875 51.625 33 
Q 55.609375 28.21875 55.609375 21.1875 
Q 55.609375 10.40625 48.1875 4.484375 
Q 40.765625 -1.421875 27.09375 -1.421875 
Q 22.515625 -1.421875 17.65625 -0.515625 
Q 12.796875 0.390625 7.625 2.203125 
L 7.625 11.71875 
Q 11.71875 9.328125 16.59375 8.109375 
Q 21.484375 6.890625 26.8125 6.890625 
Q 36.078125 6.890625 40.9375 10.546875 
Q 45.796875 14.203125 45.796875 21.1875 
Q 45.796875 27.640625 41.28125 31.265625 
Q 36.765625 34.90625 28.71875 34.90625 
L 20.21875 34.90625 
L 20.21875 43.015625 
L 29.109375 43.015625 
Q 36.375 43.015625 40.234375 45.921875 
Q 44.09375 48.828125 44.09375 54.296875 
Q 44.09375 59.90625 40.109375 62.90625 
Q 36.140625 65.921875 28.71875 65.921875 
Q 24.65625 65.921875 20.015625 65.03125 
Q 15.375 64.15625 9.8125 62.3125 
L 9.8125 71.09375 
Q 15.4375 72.65625 20.34375 73.4375 
Q 25.25 74.21875 29.59375 74.21875 
Q 40.828125 74.21875 47.359375 69.109375 
Q 53.90625 64.015625 53.90625 55.328125 
Q 53.90625 49.265625 50.4375 45.09375 
Q 46.96875 40.921875 40.578125 39.3125 
z
" id="DejaVuSans-51"/>
       <path d="M 31 75.875 
Q 24.46875 64.65625 21.28125 53.65625 
Q 18.109375 42.671875 18.109375 31.390625 
Q 18.109375 20.125 21.3125 9.0625 
Q 24.515625 -2 31 -13.1875 
L 23.1875 -13.1875 
Q 15.875 -1.703125 12.234375 9.375 
Q 8.59375 20.453125 8.59375 31.390625 
Q 8.59375 42.28125 12.203125 53.3125 
Q 15.828125 64.359375 23.1875 75.875 
z
" id="DejaVuSans-40"/>
       <path d="M 18.109375 8.203125 
L 18.109375 -20.796875 
L 9.078125 -20.796875 
L 9.078125 54.6875 
L 18.109375 54.6875 
L 18.109375 46.390625 
Q 20.953125 51.265625 25.265625 53.625 
Q 29.59375 56 35.59375 56 
Q 45.5625 56 51.78125 48.09375 
Q 58.015625 40.1875 58.015625 27.296875 
Q 58.015625 14.40625 51.78125 6.484375 
Q 45.5625 -1.421875 35.59375 -1.421875 
Q 29.59375 -1.421875 25.265625 0.953125 
Q 20.953125 3.328125 18.109375 8.203125 
z
M 48.6875 27.296875 
Q 48.6875 37.203125 44.609375 42.84375 
Q 40.53125 48.484375 33.40625 48.484375 
Q 26.265625 48.484375 22.1875 42.84375 
Q 18.109375 37.203125 18.109375 27.296875 
Q 18.109375 17.390625 22.1875 11.75 
Q 26.265625 6.109375 33.40625 6.109375 
Q 40.53125 6.109375 44.609375 11.75 
Q 48.6875 17.390625 48.6875 27.296875 
z
" id="DejaVuSans-112"/>
       <path d="M 52 44.1875 
Q 55.375 50.25 60.0625 53.125 
Q 64.75 56 71.09375 56 
Q 79.640625 56 84.28125 50.015625 
Q 88.921875 44.046875 88.921875 33.015625 
L 88.921875 0 
L 79.890625 0 
L 79.890625 32.71875 
Q 79.890625 40.578125 77.09375 44.375 
Q 74.3125 48.1875 68.609375 48.1875 
Q 61.625 48.1875 57.5625 43.546875 
Q 53.515625 38.921875 53.515625 30.90625 
L 53.515625 0 
L 44.484375 0 
L 44.484375 32.71875 
Q 44.484375 40.625 41.703125 44.40625 
Q 38.921875 48.1875 33.109375 48.1875 
Q 26.21875 48.1875 22.15625 43.53125 
Q 18.109375 38.875 18.109375 30.90625 
L 18.109375 0 
L 9.078125 0 
L 9.078125 54.6875 
L 18.109375 54.6875 
L 18.109375 46.1875 
Q 21.1875 51.21875 25.484375 53.609375 
Q 29.78125 56 35.6875 56 
Q 41.65625 56 45.828125 52.96875 
Q 50 49.953125 52 44.1875 
z
" id="DejaVuSans-109"/>
       <path d="M 8.015625 75.875 
L 15.828125 75.875 
Q 23.140625 64.359375 26.78125 53.3125 
Q 30.421875 42.28125 30.421875 31.390625 
Q 30.421875 20.453125 26.78125 9.375 
Q 23.140625 -1.703125 15.828125 -13.1875 
L 8.015625 -13.1875 
Q 14.5 -2 17.703125 9.0625 
Q 20.90625 20.125 20.90625 31.390625 
Q 20.90625 42.671875 17.703125 53.65625 
Q 14.5 64.65625 8.015625 75.875 
z
" id="DejaVuSans-41"/>
      </defs>
      <use xlink:href="#DejaVuSans-79"/>
      <use x="78.710938" xlink:href="#DejaVuSans-51"/>
      <use x="142.333984" xlink:href="#DejaVuSans-40"/>
      <use x="181.347656" xlink:href="#DejaVuSans-112"/>
      <use x="244.824219" xlink:href="#DejaVuSans-112"/>
      <use x="308.300781" xlink:href="#DejaVuSans-109"/>
      <use x="405.712891" xlink:href="#DejaVuSans-41"/>
     </g>
    </g>
   </g>
   <g id="line2d_16">
    <path clip-path="url(#p47556a8ec4)" d="M 138.436364 350.437035 
L 139.273678 335.5988 
L 140.110992 338.263319 
L 140.948306 395.649341 
L 141.78562 331.658704 
L 142.622934 287.311663 
L 144.297562 365.293234 
L 145.134876 331.919182 
L 145.97219 380.131469 
L 146.809504 280.431465 
L 147.646818 277.335675 
L 148.484132 343.227497 
L 149.321446 359.616621 
L 150.15876 364.631561 
L 150.996074 395.595449 
L 151.833388 386.724244 
L 152.670702 348.401119 
L 153.508016 343.14666 
L 154.345329 360.853141 
L 155.182643 365.152516 
L 156.019957 355.469939 
L 156.857271 379.700334 
L 157.694585 324.652758 
L 158.531899 304.21276 
L 159.369213 266.56029 
L 160.206527 239.258057 
L 161.043841 287.973336 
L 161.881155 319.039019 
L 162.718469 275.8776 
L 163.555783 338.248485 
L 165.230411 375.433892 
L 166.067725 277.039269 
L 166.905039 335.068863 
L 167.742353 327.859326 
L 168.579667 312.997139 
L 169.416981 353.721447 
L 170.254295 371.014757 
L 171.091609 377.532682 
L 171.928923 404.367851 
L 172.766237 399.517581 
L 173.603551 408.382798 
L 174.440865 354.966948 
L 175.278179 254.988503 
L 176.952807 325.062935 
L 177.790121 336.649692 
L 178.627435 338.613752 
L 179.464749 273.907551 
L 180.302063 247.614295 
L 181.139377 265.365686 
L 181.976691 355.413054 
L 182.814005 398.514023 
L 183.651319 331.464094 
L 184.488633 314.18276 
L 185.325947 373.808153 
L 186.163261 345.703531 
L 187.000575 348.790338 
L 187.837889 277.745852 
L 188.675203 351.083738 
L 189.512517 374.50276 
L 190.349831 274.278807 
L 192.024459 405.766047 
L 192.861773 423.349774 
L 193.699087 283.620068 
L 194.536401 304.844493 
L 195.373715 334.829344 
L 196.211029 410.451647 
L 197.048343 282.401513 
L 197.885657 240.500565 
L 198.722971 213.659408 
L 199.560285 267.030347 
L 200.397599 351.389125 
L 201.234913 422.385708 
L 202.072227 407.843879 
L 202.909541 386.787118 
L 203.746855 411.607329 
L 204.584169 409.197164 
L 205.421483 287.557171 
L 206.258797 300.221766 
L 207.096111 371.637508 
L 207.933425 412.99018 
L 208.770739 420.915657 
L 209.608053 343.422107 
L 210.445367 415.379762 
L 211.282681 442.996364 
L 212.119995 439.188003 
L 212.957309 352.414432 
L 213.794623 355.071738 
L 214.631937 400.951704 
L 215.469251 400.604401 
L 216.306565 359.592669 
L 217.143879 415.047428 
L 219.655821 231.093435 
L 220.493135 347.191546 
L 221.330449 267.165077 
L 222.167763 213.419888 
L 223.005077 256.587295 
L 223.842391 258.207046 
L 224.679705 309.865421 
L 225.517019 336.167659 
L 226.354333 357.892081 
L 227.191647 401.014578 
L 228.028961 422.888699 
L 228.866275 430.523384 
L 229.703589 390.766136 
L 230.540903 408.538485 
L 231.378217 393.475701 
L 232.215531 384.6524 
L 233.052845 230.910802 
L 233.890159 276.488374 
L 234.727473 278.68896 
L 235.564787 252.98103 
L 236.402101 271.66505 
L 237.239415 378.631478 
L 238.076729 395.302037 
L 238.914043 398.784052 
L 239.751357 408.757047 
L 240.588671 417.37975 
L 241.425985 428.295852 
L 242.263299 428.185075 
L 243.100613 429.753928 
L 243.937927 429.002435 
L 244.775241 416.418678 
L 245.612555 411.706131 
L 246.449869 317.060125 
L 247.287183 267.796809 
L 248.124497 324.236593 
L 248.961811 367.895015 
L 249.799125 393.146361 
L 250.636439 383.592526 
L 251.473753 379.796142 
L 252.311067 363.586657 
L 253.148381 343.910128 
L 253.985695 385.511676 
L 254.823009 365.772273 
L 256.497637 342.257443 
L 257.334951 383.637436 
L 258.172265 385.581437 
L 259.009579 360.841165 
L 259.846893 361.158528 
L 260.684207 369.700393 
L 261.521521 392.820016 
L 262.358835 394.415815 
L 263.196149 405.616347 
L 264.033463 408.27202 
L 265.708091 400.840926 
L 266.545405 395.254133 
L 267.382719 397.670287 
L 268.220033 389.568538 
L 269.057347 391.026614 
L 269.89466 397.802022 
L 270.731974 400.272067 
L 271.569288 403.173248 
L 273.243916 376.649454 
L 274.08123 376.832087 
L 274.918544 397.74813 
L 275.755858 402.383732 
L 276.593172 401.999602 
L 277.430486 399.535545 
L 278.2678 401.529545 
L 279.105114 402.772053 
L 280.779742 396.7661 
L 281.617056 397.77807 
L 282.45437 396.601431 
L 283.291684 402.385827 
L 284.128998 406.792987 
L 284.966312 404.182224 
L 285.803626 397.11041 
L 286.64094 397.604419 
L 287.478254 398.673275 
L 288.315568 394.128392 
L 289.152882 397.134362 
L 289.990196 396.269097 
L 290.82751 399.233152 
L 291.664824 395.891854 
L 292.502138 398.912794 
L 293.339452 398.373875 
L 294.176766 399.077464 
L 295.01408 397.325977 
L 295.851394 407.418731 
L 296.688708 402.281038 
L 297.526022 401.307989 
L 298.363336 399.562491 
L 299.20065 388.793094 
L 300.037964 399.460695 
L 300.875278 400.619371 
L 301.712592 407.478611 
L 302.549906 406.604365 
L 303.38722 401.831938 
L 304.224534 404.984206 
L 305.061848 394.038821 
L 305.899162 397.209211 
L 306.736476 398.709951 
L 307.57379 396.712208 
L 308.411104 395.586467 
L 309.248418 397.230169 
L 310.085732 401.367869 
L 310.923046 403.360996 
L 311.76036 383.517676 
L 312.597674 384.885932 
L 313.434988 390.61943 
L 314.272302 383.325063 
L 315.109616 384.538628 
L 315.94693 390.394881 
L 316.784244 393.278097 
L 317.621558 407.610347 
L 318.458872 407.233104 
L 319.296186 404.942698 
L 320.1335 400.652305 
L 320.970814 399.670275 
L 321.808128 401.94571 
L 322.645442 406.472629 
L 323.482756 395.349941 
L 324.32007 404.272044 
L 325.157384 408.390782 
L 325.994698 400.664281 
L 326.832012 389.287103 
L 327.669326 405.269044 
L 328.50664 386.682328 
L 329.343954 395.7691 
L 330.181268 399.388839 
L 331.018582 380.382965 
L 331.855896 355.799279 
L 332.69321 378.853034 
L 333.530524 370.386018 
L 334.367838 374.005757 
L 335.205152 384.613478 
L 336.042466 349.955002 
L 336.87978 291.916426 
L 337.717094 277.182981 
L 338.554408 267.039329 
L 339.391722 332.278461 
L 340.229036 324.45216 
L 342.740978 355.206468 
L 343.578292 348.957254 
L 344.415606 347.589747 
L 345.25292 396.050536 
L 346.090234 397.939746 
L 346.927548 390.849968 
L 347.764862 400.092428 
L 348.602176 406.99059 
L 350.276804 322.835403 
L 351.114118 344.754434 
L 351.951432 397.82298 
L 352.788746 406.658257 
L 353.62606 412.831873 
L 354.463374 411.041464 
L 355.300688 406.942686 
L 356.138002 399.676263 
L 356.975316 385.065571 
L 357.81263 341.209545 
L 358.649944 350.841224 
L 359.487258 327.902738 
L 360.324572 322.850373 
L 361.161886 241.877802 
L 361.9992 274.599164 
L 362.836514 355.269342 
L 363.673828 335.215569 
L 364.511142 329.320395 
L 365.348456 248.596325 
L 366.18577 224.222219 
L 367.023084 260.123202 
L 367.860398 234.832934 
L 368.697712 284.79072 
L 369.535026 268.027347 
L 370.37234 283.395519 
L 371.209654 262.320794 
L 372.046968 224.62042 
L 372.884282 136.02514 
L 373.721596 118.423449 
L 374.55891 144.34545 
L 375.396224 296.422387 
L 376.233538 297.928366 
L 377.070852 229.135363 
L 377.908166 212.37199 
L 378.74548 255.641193 
L 379.582794 245.533469 
L 380.420108 259.937575 
L 381.257422 228.734168 
L 382.094736 231.776066 
L 382.93205 231.520229 
L 383.769364 189.554761 
L 384.606678 170.7914 
L 385.443991 175.4024 
L 386.281305 195.946938 
L 387.118619 212.401306 
L 387.955933 298.06609 
L 388.793247 280.90751 
L 389.630561 282.377561 
L 390.467875 244.838862 
L 391.305189 159.695658 
L 392.142503 199.087638 
L 392.979817 203.072644 
L 393.817131 201.860077 
L 394.654445 215.988735 
L 395.491759 151.914267 
L 396.329073 117.00467 
L 397.166387 99.660087 
L 398.003701 86.923636 
L 398.841015 142.073008 
L 399.678329 183.453001 
L 400.515643 153.273353 
L 401.352957 230.689246 
L 402.190271 270.937509 
L 403.027585 339.867488 
L 403.864899 318.966346 
L 404.702213 342.044461 
L 405.539527 384.808088 
L 406.376841 415.993531 
L 407.214155 415.592335 
L 408.051469 382.065589 
L 408.888783 366.679453 
L 409.726097 404.170248 
L 410.563411 339.658184 
L 411.400725 311.122898 
L 412.238039 247.551421 
L 413.075353 315.251616 
L 413.912667 276.072209 
L 414.749981 290.287693 
L 415.587295 300.085414 
L 416.424609 306.886397 
L 417.261923 303.134922 
L 418.099237 317.643818 
L 418.936551 319.131833 
L 419.773865 320.922241 
L 420.611179 300.89242 
L 421.448493 293.547554 
L 422.285807 282.260795 
L 423.123121 350.443023 
L 423.960435 350.996912 
L 424.797749 379.150722 
L 425.635063 386.388372 
L 426.472377 317.180221 
L 427.309691 411.09835 
L 428.147005 417.622862 
L 428.984319 414.62278 
L 429.821633 430.233109 
L 430.658947 411.858825 
L 431.496261 378.637466 
L 432.333575 289.602069 
L 433.170889 239.419733 
L 434.008203 337.284419 
L 434.845517 396.646341 
L 435.682831 383.936836 
L 436.520145 377.490766 
L 437.357459 289.03321 
L 438.194773 285.048204 
L 439.032087 316.53604 
L 439.869401 353.670549 
L 440.706715 284.042222 
L 442.381343 312.257622 
L 443.218657 362.05972 
L 444.055971 269.862665 
L 444.893285 352.425047 
L 445.730599 321.937205 
L 446.567913 307.691781 
L 447.405227 331.31427 
L 448.242541 344.97599 
L 449.079855 352.419059 
L 449.917169 352.457981 
L 451.591797 333.622764 
L 452.429111 394.685274 
L 453.266425 370.670448 
L 454.103739 393.203247 
L 454.941053 364.050727 
L 455.778367 211.518702 
L 456.615681 290.461345 
L 457.452995 356.44376 
L 458.290309 354.643597 
L 459.127623 366.522768 
L 459.964937 362.047744 
L 460.802251 324.163539 
L 461.639565 318.134833 
L 462.476879 317.970163 
L 463.314193 280.84763 
L 464.151507 325.883289 
L 464.988821 249.305902 
L 465.826135 252.689115 
L 466.663449 254.826827 
L 467.500763 300.081048 
L 468.338077 361.185474 
L 469.175391 257.533398 
L 470.012705 233.964676 
L 470.850019 293.332585 
L 471.687333 321.170743 
L 472.524647 360.565717 
L 473.361961 315.34443 
L 474.199275 300.943318 
L 475.036589 277.428489 
L 475.873903 330.826374 
L 476.711217 338.90417 
L 477.548531 310.844457 
L 478.385845 339.266443 
L 479.223159 308.347466 
L 480.060473 312.20373 
L 480.897787 302.26367 
L 481.735101 267.61717 
L 482.572415 257.940581 
L 483.409729 258.53938 
L 484.247043 268.853689 
L 485.084357 232.261093 
L 485.921671 307.30855 
L 486.758985 310.577991 
L 487.596299 275.521314 
L 488.433613 346.005924 
L 489.270927 400.352905 
L 490.108241 427.122207 
L 490.945555 369.859075 
L 491.782869 387.358971 
L 492.620183 340.296377 
L 493.457497 349.605703 
L 494.294811 398.095434 
L 495.132125 417.619269 
L 495.969439 403.607377 
L 496.806753 429.55333 
L 497.644067 336.946098 
L 498.481381 298.054114 
L 499.318695 311.069007 
L 500.156009 300.838529 
L 500.993322 331.958104 
L 502.66795 210.267212 
L 503.505264 286.880528 
L 504.342578 335.125749 
L 505.179892 370.960865 
L 506.017206 381.490742 
L 506.85452 374.173421 
L 507.691834 390.653113 
L 508.529148 390.981704 
L 509.366462 284.931438 
L 510.203776 351.706489 
L 511.04109 330.925176 
L 511.878404 284.185933 
L 512.715718 255.892689 
L 513.553032 368.898003 
L 514.390346 403.218158 
L 515.22766 414.876771 
L 516.064974 413.939651 
L 516.902288 434.50839 
L 518.576916 427.083285 
L 519.41423 431.550324 
L 520.251544 416.876759 
L 521.088858 398.577467 
L 521.926172 279.461411 
L 522.763486 281.644032 
L 523.6008 331.239545 
L 524.438114 389.329019 
L 525.275428 234.886826 
L 526.112742 220.156375 
L 526.950056 336.446101 
L 527.78737 368.829141 
L 528.624684 338.02693 
L 529.461998 336.407179 
L 530.299312 330.236557 
L 531.136626 387.799088 
L 531.97394 185.111674 
L 532.811254 177.270403 
L 533.648568 241.264033 
L 536.16051 364.598627 
L 536.997824 322.215647 
L 537.835138 312.640853 
L 538.672452 338.425131 
L 539.509766 384.134439 
L 540.34708 406.91574 
L 541.184394 309.086982 
L 542.021708 322.841391 
L 542.859022 252.497499 
L 543.696336 338.455071 
L 544.53365 340.787392 
L 545.370964 418.709083 
L 546.208278 298.437345 
L 547.045592 321.302478 
L 547.882906 381.823076 
L 548.72022 418.691119 
L 549.557534 410.951645 
L 550.394848 427.43957 
L 551.232162 426.834783 
L 552.069476 426.738976 
L 552.90679 429.397642 
L 553.744104 428.607228 
L 554.581418 421.960561 
L 555.418732 419.101297 
L 556.256046 429.376684 
L 557.09336 426.610234 
L 557.930674 420.050393 
L 558.767988 420.855777 
L 559.605302 429.939555 
L 560.442616 425.990477 
L 561.27993 416.271972 
L 562.117244 418.044417 
L 562.954558 423.837795 
L 563.791872 427.691066 
L 564.629186 428.463516 
L 565.4665 427.583282 
L 566.303814 422.777921 
L 567.141128 414.748029 
L 568.815756 416.706101 
L 569.65307 431.063551 
L 570.490384 430.918591 
L 571.327698 398.918782 
L 572.165012 340.607753 
L 573.002326 258.353752 
L 573.83964 312.224688 
L 574.676954 353.20648 
L 575.514268 400.224164 
L 576.351582 422.691095 
L 577.188896 417.595317 
L 578.02621 409.340876 
L 578.863524 426.505444 
L 579.700838 424.828807 
L 580.538152 418.319864 
L 581.375466 418.49651 
L 582.21278 414.349828 
L 583.050094 408.011542 
L 584.724722 387.047595 
L 585.562036 397.544539 
L 586.39935 397.346935 
L 587.236664 417.203104 
L 588.073978 414.858807 
L 588.911292 426.014429 
L 589.748606 421.697089 
L 590.58592 405.487605 
L 591.423234 416.768975 
L 592.260548 411.799444 
L 593.097862 413.771987 
L 593.935176 409.304948 
L 594.77249 409.664227 
L 595.609804 409.106528 
L 596.447118 401.601401 
L 597.284432 424.340786 
L 598.121746 427.032387 
L 598.95906 415.379762 
L 599.796374 421.23065 
L 600.633688 412.092356 
L 601.471002 419.628239 
L 602.308316 418.595312 
L 603.14563 427.691066 
L 604.820258 422.442594 
L 605.657572 409.011536 
L 607.3322 357.628609 
L 608.169514 389.978716 
L 609.006828 393.10744 
L 609.844142 359.633712 
L 610.681456 386.712268 
L 611.51877 410.125302 
L 612.356084 279.045245 
L 613.193398 244.473595 
L 614.030712 235.635325 
L 614.868026 325.218623 
L 615.70534 224.94976 
L 616.542653 315.637842 
L 617.379967 380.472784 
L 618.217281 383.017679 
L 619.054595 363.676477 
L 619.891909 369.314168 
L 620.729223 362.960913 
L 621.566537 357.478909 
L 622.403851 271.868641 
L 623.241165 337.0449 
L 624.078479 361.913015 
L 624.915793 354.32324 
L 625.753107 364.164498 
L 626.590421 382.972769 
L 627.427735 404.721143 
L 628.265049 398.757106 
L 629.102363 404.487611 
L 629.939677 398.050524 
L 630.776991 406.343888 
L 631.614305 411.080386 
L 632.451619 418.712077 
L 633.288933 403.529533 
L 634.126247 397.299031 
L 634.963561 400.790028 
L 635.800875 407.02053 
L 636.638189 407.478611 
L 637.475503 405.167248 
L 638.312817 413.538455 
L 639.150131 418.143343 
L 639.987445 419.733029 
L 640.824759 401.376851 
L 641.662073 428.304834 
L 644.174015 406.197182 
L 645.011329 383.053607 
L 645.848643 430.232967 
L 646.685957 422.412654 
L 647.523271 418.547408 
L 648.360585 419.978537 
L 649.197899 410.801945 
L 650.035213 390.882902 
L 650.872527 393.278097 
L 651.709841 426.313828 
L 652.547155 311.787565 
L 653.384469 355.038804 
L 654.221783 377.73328 
L 655.059097 324.176713 
L 655.896411 383.379953 
L 656.733725 425.391678 
L 658.408353 348.338245 
L 659.245667 330.835356 
L 660.082981 276.871606 
L 660.920295 425.52042 
L 661.757609 411.535473 
L 662.594923 393.610431 
L 663.432237 388.400881 
L 664.269551 420.068357 
L 665.106865 378.562616 
L 665.944179 321.497088 
L 666.781493 298.778661 
L 667.618807 247.03346 
L 668.456121 203.524738 
L 669.293435 207.674413 
L 670.968063 282.203909 
L 671.805377 302.081036 
L 672.642691 301.13194 
L 673.480005 276.006341 
L 674.317319 283.575158 
L 675.154633 272.653068 
L 675.991947 336.524818 
L 676.829261 383.436839 
L 677.666575 357.023822 
L 678.503889 397.918788 
L 679.341203 343.317467 
L 680.178517 357.026816 
L 681.015831 360.838171 
L 681.853145 357.251366 
L 682.690459 404.772041 
L 683.527773 342.224509 
L 684.365087 330.362305 
L 685.202401 272.180017 
L 686.039715 321.166961 
L 686.877029 292.79666 
L 687.714343 384.873956 
L 688.551657 372.380018 
L 689.388971 381.278169 
L 690.226285 306.943283 
L 691.063599 259.09252 
L 691.900913 233.791024 
L 692.738227 301.209784 
L 693.575541 251.408684 
L 694.412855 215.985741 
L 695.250169 312.15882 
L 696.087483 286.05718 
L 696.924797 217.500702 
L 697.762111 242.629295 
L 698.599425 250.686133 
L 699.436739 252.189118 
L 700.274053 296.797834 
L 701.111367 367.586634 
L 701.948681 343.299353 
L 702.785995 358.275312 
L 703.623309 278.188963 
L 704.460623 268.43478 
L 705.297937 355.395838 
L 706.135251 298.556107 
L 706.972565 267.163704 
L 707.809879 336.103039 
L 709.484507 270.67279 
L 710.321821 279.570317 
L 711.159135 290.948958 
L 711.996449 297.124615 
L 712.833763 281.590004 
L 713.671077 319.254314 
L 714.508391 346.489182 
L 715.345705 329.902863 
L 716.183019 280.957727 
L 717.020333 267.241696 
L 717.857647 242.560977 
L 718.694961 237.621704 
L 719.532275 206.061059 
L 720.369589 169.19492 
L 721.206903 218.565747 
L 722.044217 207.497768 
L 722.881531 247.043259 
L 723.718845 240.529552 
L 724.556159 293.130627 
L 725.393473 203.212682 
L 726.230787 228.444295 
L 727.068101 290.585868 
L 727.905415 220.1527 
L 728.742729 246.476713 
L 729.580043 278.09683 
L 730.417357 283.565088 
L 731.254671 201.284549 
L 732.091984 199.732027 
L 732.929298 284.256836 
L 734.603926 366.887944 
L 735.44124 302.007547 
L 736.278554 180.785624 
L 737.115868 230.46007 
L 737.953182 313.180072 
L 738.790496 356.740209 
L 739.62781 253.475583 
L 740.465124 404.480262 
L 742.139752 284.504113 
L 742.977066 383.505564 
L 743.81438 404.264286 
L 744.651694 404.849612 
L 745.489008 391.662565 
L 746.326322 340.986493 
L 747.163636 354.464638 
L 747.163636 354.464638 
" style="fill:none;stroke:#1f77b4;stroke-linecap:square;stroke-width:1.5;"/>
   </g>
   <g id="line2d_17">
    <path clip-path="url(#p47556a8ec4)" d="M 138.436364 367.744009 
L 139.273678 332.899353 
L 140.110992 370.706577 
L 140.948306 374.98033 
L 141.78562 380.282791 
L 142.622934 312.306127 
L 143.460248 347.529454 
L 144.297562 349.12044 
L 145.134876 370.111872 
L 145.97219 358.534244 
L 146.809504 350.71268 
L 147.646818 294.074914 
L 148.484132 350.756686 
L 149.321446 375.050163 
L 150.15876 347.397206 
L 150.996074 374.795189 
L 151.833388 370.747207 
L 152.670702 364.077787 
L 153.508016 354.591785 
L 154.345329 377.971841 
L 155.182643 358.608145 
L 156.019957 364.371534 
L 156.857271 391.701038 
L 157.694585 375.26889 
L 159.369213 297.778803 
L 160.206527 270.263743 
L 161.043841 295.302467 
L 161.881155 371.841265 
L 162.718469 326.9879 
L 163.555783 346.560567 
L 164.393097 369.304156 
L 165.230411 386.992733 
L 166.067725 352.052002 
L 166.905039 364.486252 
L 167.742353 362.604005 
L 168.579667 364.217206 
L 169.416981 355.116985 
L 170.254295 375.490667 
L 171.091609 388.028008 
L 171.928923 381.051989 
L 172.766237 393.942765 
L 173.603551 391.716116 
L 174.440865 385.268821 
L 175.278179 367.606829 
L 176.115493 313.523334 
L 176.952807 362.919759 
L 177.790121 324.030391 
L 178.627435 336.958842 
L 179.464749 338.694929 
L 180.302063 270.780727 
L 181.139377 290.597659 
L 181.976691 345.775166 
L 182.814005 368.359233 
L 183.651319 370.52153 
L 184.488633 327.735983 
L 185.325947 366.843166 
L 186.163261 339.716682 
L 187.000575 367.519425 
L 187.837889 356.710417 
L 188.675203 361.408912 
L 189.512517 378.193054 
L 190.349831 363.64505 
L 192.024459 371.00521 
L 192.861773 381.629003 
L 193.699087 381.824664 
L 194.536401 356.223327 
L 195.373715 354.966483 
L 196.211029 371.810956 
L 197.048343 370.911366 
L 197.885657 332.266814 
L 198.722971 249.531332 
L 200.397599 348.359666 
L 201.234913 372.416443 
L 202.072227 390.953948 
L 202.909541 384.665974 
L 203.746855 379.897418 
L 204.584169 376.318212 
L 205.421483 349.108338 
L 206.258797 342.381616 
L 207.096111 360.533146 
L 207.933425 373.348788 
L 208.770739 392.137923 
L 209.608053 391.907744 
L 210.445367 387.298147 
L 211.282681 392.175396 
L 212.119995 397.96529 
L 212.957309 391.455426 
L 213.794623 370.949657 
L 214.631937 388.571395 
L 215.469251 392.698144 
L 216.306565 394.258385 
L 217.143879 399.296048 
L 217.981193 388.783824 
L 218.818507 361.449555 
L 219.655821 293.237813 
L 220.493135 298.293093 
L 221.330449 322.414999 
L 222.167763 249.630296 
L 223.005077 306.659385 
L 223.842391 246.807843 
L 224.679705 290.65281 
L 225.517019 327.331176 
L 226.354333 345.026273 
L 227.191647 372.686093 
L 228.866275 397.780236 
L 229.703589 389.829265 
L 230.540903 393.889886 
L 231.378217 393.895394 
L 232.215531 391.118121 
L 233.052845 366.250224 
L 233.890159 322.495588 
L 234.727473 308.826098 
L 235.564787 240.554079 
L 236.402101 266.426124 
L 237.239415 345.559159 
L 238.076729 362.728138 
L 238.914043 373.954986 
L 239.751357 380.663728 
L 240.588671 363.196626 
L 241.425985 401.64155 
L 242.263299 371.789733 
L 243.100613 396.881484 
L 243.937927 379.821882 
L 244.775241 387.07052 
L 245.612555 395.308752 
L 246.449869 347.755104 
L 247.287183 311.856986 
L 248.124497 324.449753 
L 248.961811 327.71482 
L 249.799125 351.094313 
L 250.636439 352.357028 
L 251.473753 368.405129 
L 252.311067 370.278116 
L 253.148381 352.50245 
L 253.985695 351.750562 
L 254.823009 376.191639 
L 255.660323 350.652215 
L 256.497637 349.630328 
L 257.334951 352.497552 
L 258.172265 376.050928 
L 259.009579 359.11824 
L 259.846893 349.440523 
L 261.521521 365.266413 
L 262.358835 387.545053 
L 263.196149 357.799624 
L 264.033463 365.003002 
L 264.870777 379.484483 
L 265.708091 363.285859 
L 266.545405 367.890303 
L 267.382719 364.790427 
L 268.220033 389.169773 
L 269.057347 354.675825 
L 269.89466 368.102376 
L 270.731974 345.327955 
L 271.569288 363.435061 
L 272.406602 375.758769 
L 273.243916 368.276165 
L 274.08123 368.902479 
L 274.918544 370.477564 
L 275.755858 375.716665 
L 276.593172 364.31706 
L 277.430486 391.208024 
L 278.2678 378.18376 
L 279.105114 384.469127 
L 279.942428 395.225127 
L 280.779742 385.768476 
L 281.617056 381.859229 
L 282.45437 379.216509 
L 283.291684 364.660604 
L 284.128998 388.523207 
L 284.966312 355.637186 
L 285.803626 376.864514 
L 286.64094 380.894946 
L 287.478254 337.599564 
L 288.315568 374.029121 
L 289.152882 368.229886 
L 289.990196 369.083787 
L 290.82751 371.897703 
L 291.664824 386.279416 
L 292.502138 360.673462 
L 293.339452 359.509423 
L 294.176766 376.575491 
L 295.01408 371.23882 
L 295.851394 373.670788 
L 296.688708 363.756679 
L 297.526022 392.641458 
L 298.363336 353.96738 
L 299.20065 383.243684 
L 300.037964 382.339973 
L 300.875278 371.17804 
L 301.712592 400.352841 
L 302.549906 376.237717 
L 303.38722 397.012131 
L 304.224534 383.025299 
L 305.061848 362.236478 
L 305.899162 374.819896 
L 306.736476 354.877524 
L 307.57379 376.019921 
L 308.411104 361.193429 
L 309.248418 381.417988 
L 310.085732 382.473079 
L 310.923046 381.815577 
L 311.76036 382.30949 
L 312.597674 364.562324 
L 313.434988 376.285068 
L 314.272302 367.912169 
L 315.109616 381.57483 
L 315.94693 374.328109 
L 316.784244 368.998782 
L 317.621558 354.11746 
L 318.458872 386.966404 
L 319.296186 323.080496 
L 320.1335 362.465337 
L 320.970814 387.254006 
L 321.808128 376.87931 
L 322.645442 382.735706 
L 323.482756 380.083243 
L 324.32007 372.162105 
L 325.157384 373.829921 
L 325.994698 365.833121 
L 326.832012 367.940099 
L 327.669326 386.229178 
L 328.50664 363.474418 
L 329.343954 375.978501 
L 330.181268 397.997784 
L 331.018582 314.803344 
L 331.855896 333.649459 
L 332.69321 377.689412 
L 333.530524 336.047545 
L 334.367838 351.206545 
L 335.205152 356.529478 
L 336.042466 349.971346 
L 336.87978 331.178605 
L 337.717094 291.998948 
L 338.554408 282.605965 
L 339.391722 288.36313 
L 340.229036 288.305044 
L 342.740978 310.89543 
L 343.578292 339.485417 
L 344.415606 352.709692 
L 345.25292 344.360381 
L 346.090234 360.721242 
L 346.927548 380.110195 
L 347.764862 360.717563 
L 348.602176 356.150967 
L 349.43949 363.26207 
L 350.276804 359.032652 
L 351.114118 337.7618 
L 352.788746 367.203068 
L 353.62606 374.807928 
L 354.463374 377.669268 
L 355.300688 376.867925 
L 356.138002 385.169865 
L 356.975316 365.164247 
L 357.81263 361.512493 
L 358.649944 342.760007 
L 359.487258 350.793644 
L 360.324572 351.494951 
L 361.161886 260.852318 
L 361.9992 309.080731 
L 362.836514 347.529782 
L 363.673828 358.905249 
L 364.511142 340.55381 
L 365.348456 313.256652 
L 366.18577 301.527684 
L 367.023084 253.53837 
L 367.860398 228.420411 
L 369.535026 313.985462 
L 370.37234 312.945315 
L 371.209654 334.186963 
L 372.046968 291.111575 
L 372.884282 210.509127 
L 373.721596 115.443445 
L 374.55891 142.025858 
L 376.233538 328.382193 
L 377.908166 257.026052 
L 378.74548 292.220168 
L 379.582794 300.697499 
L 380.420108 275.843607 
L 381.257422 272.990355 
L 382.094736 215.831303 
L 382.93205 231.490822 
L 383.769364 174.621181 
L 384.606678 234.928338 
L 385.443991 258.053092 
L 386.281305 232.62949 
L 387.118619 190.023736 
L 387.955933 237.898687 
L 388.793247 317.523939 
L 389.630561 345.882466 
L 390.467875 314.709232 
L 391.305189 270.539417 
L 392.142503 202.883988 
L 392.979817 191.106731 
L 393.817131 249.525261 
L 394.654445 193.235864 
L 395.491759 182.6125 
L 396.329073 135.245715 
L 397.166387 99.662862 
L 398.841015 124.818375 
L 399.678329 229.311269 
L 400.515643 159.084602 
L 401.352957 213.254556 
L 402.190271 259.272335 
L 403.027585 359.521016 
L 403.864899 359.704924 
L 404.702213 329.532964 
L 405.539527 362.342028 
L 406.376841 379.791164 
L 407.214155 383.465494 
L 408.051469 385.653095 
L 408.888783 381.849532 
L 409.726097 378.585611 
L 410.563411 390.016932 
L 412.238039 310.991847 
L 413.075353 319.915209 
L 413.912667 290.990792 
L 414.749981 279.108996 
L 415.587295 313.258408 
L 416.424609 327.32993 
L 417.261923 309.961175 
L 418.099237 311.129543 
L 418.936551 330.474362 
L 419.773865 321.296676 
L 420.611179 304.837288 
L 421.448493 320.578334 
L 422.285807 268.475259 
L 423.123121 283.423217 
L 423.960435 341.548416 
L 424.797749 351.476644 
L 425.635063 368.555464 
L 426.472377 358.762353 
L 427.309691 374.499827 
L 428.147005 381.874836 
L 428.984319 391.408812 
L 429.821633 391.7 
L 431.496261 377.08101 
L 432.333575 356.517657 
L 433.170889 303.821519 
L 434.008203 324.784947 
L 434.845517 365.881979 
L 435.682831 388.063618 
L 436.520145 379.108834 
L 437.357459 333.633055 
L 438.194773 341.216746 
L 439.032087 307.058039 
L 439.869401 306.401817 
L 440.706715 326.956485 
L 441.544029 295.78419 
L 442.381343 329.232576 
L 443.218657 342.137572 
L 444.055971 296.931369 
L 444.893285 302.039227 
L 445.730599 316.429324 
L 446.567913 287.925622 
L 447.405227 292.922615 
L 448.242541 349.842676 
L 449.079855 361.902664 
L 449.917169 333.226104 
L 450.754483 311.142275 
L 451.591797 312.838055 
L 452.429111 297.464302 
L 453.266425 342.304854 
L 454.103739 359.64277 
L 454.941053 368.785034 
L 455.778367 271.826182 
L 456.615681 285.709681 
L 457.452995 313.606723 
L 458.290309 300.97588 
L 459.127623 340.585942 
L 459.964937 355.142584 
L 460.802251 334.249994 
L 461.639565 329.36022 
L 462.476879 304.521942 
L 463.314193 346.199265 
L 464.151507 295.737188 
L 464.988821 270.989228 
L 465.826135 279.674926 
L 466.663449 250.00949 
L 467.500763 271.350745 
L 468.338077 320.738238 
L 469.175391 323.756446 
L 470.012705 222.720756 
L 470.850019 268.280763 
L 471.687333 294.419892 
L 472.524647 334.537288 
L 473.361961 329.0692 
L 474.199275 295.47253 
L 475.036589 283.200509 
L 475.873903 351.506752 
L 476.711217 369.646018 
L 477.548531 305.825031 
L 478.385845 303.598476 
L 479.223159 299.452723 
L 480.060473 300.903145 
L 480.897787 298.894205 
L 481.735101 274.475168 
L 482.572415 240.745854 
L 483.409729 257.929562 
L 484.247043 282.3282 
L 485.084357 205.958983 
L 485.921671 253.519393 
L 486.758985 323.500192 
L 487.596299 248.666073 
L 488.433613 324.05335 
L 489.270927 372.310651 
L 490.108241 393.336226 
L 490.945555 399.425978 
L 491.782869 388.746585 
L 492.620183 383.289943 
L 493.457497 338.603451 
L 494.294811 377.934636 
L 495.132125 405.147907 
L 495.969439 396.757177 
L 496.806753 401.7833 
L 497.644067 397.786441 
L 498.481381 365.764634 
L 499.318695 341.076014 
L 500.156009 346.447545 
L 500.993322 360.469906 
L 501.830636 323.626899 
L 502.66795 274.258772 
L 503.505264 266.18212 
L 504.342578 323.904878 
L 505.179892 336.700256 
L 506.017206 373.462025 
L 506.85452 355.147925 
L 507.691834 368.257328 
L 508.529148 377.397186 
L 509.366462 355.022418 
L 510.203776 354.669526 
L 511.04109 379.28793 
L 511.878404 360.22221 
L 512.715718 287.851868 
L 513.553032 333.240941 
L 514.390346 367.540399 
L 515.22766 360.104952 
L 516.064974 363.526586 
L 516.902288 375.042598 
L 517.739602 373.487764 
L 518.576916 394.374973 
L 519.41423 379.401147 
L 520.251544 398.11084 
L 521.088858 390.866792 
L 521.926172 367.710476 
L 522.763486 314.251339 
L 523.6008 328.832353 
L 524.438114 377.926078 
L 525.275428 355.14899 
L 526.112742 309.935643 
L 526.950056 299.098122 
L 527.78737 351.337895 
L 528.624684 347.130451 
L 529.461998 326.455557 
L 530.299312 365.883688 
L 531.136626 380.841598 
L 531.97394 355.560303 
L 532.811254 296.116288 
L 533.648568 277.427637 
L 534.485882 304.766134 
L 535.323196 292.288172 
L 536.16051 329.388472 
L 536.997824 321.90036 
L 537.835138 326.634492 
L 538.672452 353.450202 
L 539.509766 374.005285 
L 540.34708 391.198569 
L 541.184394 365.973839 
L 542.859022 268.085155 
L 543.696336 338.747802 
L 544.53365 348.858765 
L 545.370964 365.93128 
L 546.208278 366.734245 
L 547.045592 313.409922 
L 548.72022 378.895622 
L 549.557534 376.185689 
L 550.394848 369.47637 
L 551.232162 391.76015 
L 552.069476 387.771701 
L 552.90679 388.186733 
L 553.744104 375.51459 
L 554.581418 403.236449 
L 555.418732 381.312639 
L 556.256046 388.084955 
L 557.09336 379.047116 
L 557.930674 395.153639 
L 558.767988 375.131958 
L 559.605302 378.95222 
L 560.442616 404.117055 
L 561.27993 386.098591 
L 562.117244 374.199667 
L 562.954558 377.345379 
L 563.791872 402.342093 
L 564.629186 366.728019 
L 565.4665 377.56225 
L 566.303814 379.833583 
L 567.141128 376.143632 
L 567.978442 381.150912 
L 568.815756 377.608823 
L 569.65307 382.662777 
L 570.490384 363.527572 
L 571.327698 362.060678 
L 572.165012 373.553671 
L 573.002326 333.097723 
L 573.83964 300.57626 
L 574.676954 332.014205 
L 575.514268 356.173517 
L 576.351582 369.959842 
L 577.188896 386.128304 
L 578.02621 379.308764 
L 578.863524 382.352645 
L 579.700838 374.62857 
L 580.538152 365.294625 
L 581.375466 380.11063 
L 582.21278 383.947451 
L 583.050094 371.432994 
L 583.887408 381.54318 
L 584.724722 369.121274 
L 585.562036 367.977961 
L 586.39935 372.918122 
L 587.236664 390.493743 
L 588.073978 380.199328 
L 588.911292 375.154347 
L 589.748606 356.993503 
L 590.58592 369.30496 
L 591.423234 369.915246 
L 592.260548 398.423933 
L 593.097862 353.739285 
L 593.935176 369.373634 
L 594.77249 371.929145 
L 595.609804 387.188033 
L 596.447118 379.128958 
L 597.284432 375.570505 
L 598.121746 391.208419 
L 598.95906 386.237701 
L 599.796374 373.077275 
L 600.633688 390.838077 
L 601.471002 374.599306 
L 602.308316 381.481529 
L 603.14563 366.7515 
L 603.982944 383.974035 
L 604.820258 382.600697 
L 605.657572 379.812889 
L 607.3322 350.631696 
L 608.169514 378.743183 
L 609.006828 367.93691 
L 609.844142 379.252052 
L 610.681456 363.925395 
L 611.51877 357.966136 
L 612.356084 318.577756 
L 614.030712 220.687209 
L 614.868026 304.025772 
L 615.70534 231.873903 
L 616.542653 296.334064 
L 617.379967 328.121329 
L 618.217281 373.276187 
L 619.054595 338.180632 
L 619.891909 348.770952 
L 620.729223 376.587252 
L 621.566537 314.106445 
L 622.403851 343.056555 
L 623.241165 311.758947 
L 624.078479 330.747731 
L 624.915793 338.374438 
L 625.753107 361.36705 
L 626.590421 356.123774 
L 627.427735 382.20812 
L 628.265049 359.627585 
L 629.102363 368.960659 
L 629.939677 364.779993 
L 630.776991 384.138878 
L 631.614305 393.116708 
L 632.451619 378.666447 
L 633.288933 376.949639 
L 634.126247 366.464749 
L 634.963561 371.437424 
L 635.800875 377.221702 
L 636.638189 376.308415 
L 637.475503 367.983356 
L 638.312817 373.350095 
L 639.150131 382.531628 
L 639.987445 385.736827 
L 640.824759 371.95219 
L 641.662073 378.946504 
L 642.499387 391.643951 
L 643.336701 381.862057 
L 644.174015 378.632861 
L 645.011329 364.317228 
L 645.848643 379.312383 
L 646.685957 379.039731 
L 647.523271 383.329821 
L 648.360585 388.925467 
L 649.197899 384.040189 
L 650.035213 345.877922 
L 650.872527 354.651151 
L 651.709841 395.278094 
L 652.547155 307.467429 
L 653.384469 313.037108 
L 654.221783 353.58893 
L 655.059097 321.605065 
L 655.896411 341.640644 
L 656.733725 375.872796 
L 657.571039 364.80915 
L 658.408353 333.488939 
L 660.082981 310.906929 
L 660.920295 373.965982 
L 661.757609 374.825559 
L 662.594923 362.905036 
L 663.432237 372.725422 
L 664.269551 374.467648 
L 665.106865 373.26966 
L 665.944179 318.221721 
L 666.781493 317.047135 
L 667.618807 331.280892 
L 668.456121 227.645899 
L 669.293435 193.37088 
L 670.130749 247.276444 
L 670.968063 262.388998 
L 671.805377 307.922508 
L 672.642691 320.606599 
L 673.480005 296.193164 
L 674.317319 295.298111 
L 675.154633 252.522843 
L 675.991947 322.56835 
L 676.829261 363.994565 
L 677.666575 370.181344 
L 678.503889 371.059811 
L 679.341203 354.88838 
L 680.178517 319.731811 
L 681.015831 348.112747 
L 681.853145 371.636262 
L 682.690459 362.378536 
L 683.527773 366.996181 
L 684.365087 347.952481 
L 685.202401 358.40538 
L 686.877029 257.876944 
L 687.714343 343.722011 
L 689.388971 393.478425 
L 690.226285 388.115888 
L 691.063599 353.91495 
L 691.900913 294.25527 
L 692.738227 249.018087 
L 693.575541 301.687548 
L 694.412855 299.685268 
L 695.250169 297.220901 
L 696.087483 354.440097 
L 696.924797 281.723149 
L 697.762111 290.300381 
L 698.599425 290.401998 
L 699.436739 264.108527 
L 700.274053 293.792257 
L 701.111367 345.446459 
L 701.948681 345.530619 
L 702.785995 326.506312 
L 703.623309 312.341402 
L 704.460623 275.170283 
L 706.135251 306.912878 
L 706.972565 252.06822 
L 707.809879 298.281594 
L 708.647193 298.022633 
L 709.484507 310.893714 
L 710.321821 310.845265 
L 711.159135 304.23946 
L 711.996449 286.805341 
L 713.671077 307.295182 
L 714.508391 349.211798 
L 715.345705 343.06924 
L 716.183019 348.661247 
L 717.020333 315.705621 
L 718.694961 216.744033 
L 719.532275 205.244474 
L 720.369589 186.916978 
L 721.206903 207.527011 
L 722.044217 223.712601 
L 722.881531 279.381802 
L 723.718845 259.92703 
L 724.556159 270.540342 
L 725.393473 245.050814 
L 726.230787 245.163515 
L 727.068101 257.982448 
L 727.905415 236.036704 
L 728.742729 266.171171 
L 730.417357 235.276801 
L 731.254671 251.449351 
L 732.091984 194.880018 
L 732.929298 297.044874 
L 733.766612 287.630876 
L 734.603926 338.999499 
L 735.44124 295.164744 
L 736.278554 276.578179 
L 737.115868 272.434209 
L 737.953182 319.907717 
L 738.790496 342.220265 
L 739.62781 356.592027 
L 740.465124 335.047598 
L 741.302438 353.111704 
L 742.139752 347.984285 
L 742.977066 344.310611 
L 743.81438 380.977565 
L 744.651694 391.268824 
L 745.489008 381.936447 
L 746.326322 354.716803 
L 747.163636 335.138996 
L 747.163636 335.138996 
" style="fill:none;stroke:#ff0000;stroke-dasharray:5.55,2.4;stroke-dashoffset:0;stroke-width:1.5;"/>
   </g>
   <g id="patch_3">
    <path d="M 108 460.8 
L 108 69.12 
" style="fill:none;stroke:#000000;stroke-linecap:square;stroke-linejoin:miter;stroke-width:0.8;"/>
   </g>
   <g id="patch_4">
    <path d="M 777.6 460.8 
L 777.6 69.12 
" style="fill:none;stroke:#000000;stroke-linecap:square;stroke-linejoin:miter;stroke-width:0.8;"/>
   </g>
   <g id="patch_5">
    <path d="M 108 460.8 
L 777.6 460.8 
" style="fill:none;stroke:#000000;stroke-linecap:square;stroke-linejoin:miter;stroke-width:0.8;"/>
   </g>
   <g id="patch_6">
    <path d="M 108 69.12 
L 777.6 69.12 
" style="fill:none;stroke:#000000;stroke-linecap:square;stroke-linejoin:miter;stroke-width:0.8;"/>
   </g>
   <g id="text_18">
    <!-- Macau residential 2020-2021 | Forecast vs Monitored | LSTM -->
    <g transform="translate(216.121875 63.12)scale(0.15 -0.15)">
     <defs>
      <path d="M 9.8125 72.90625 
L 24.515625 72.90625 
L 43.109375 23.296875 
L 61.8125 72.90625 
L 76.515625 72.90625 
L 76.515625 0 
L 66.890625 0 
L 66.890625 64.015625 
L 48.09375 14.015625 
L 38.1875 14.015625 
L 19.390625 64.015625 
L 19.390625 0 
L 9.8125 0 
z
" id="DejaVuSans-77"/>
      <path d="M 48.78125 52.59375 
L 48.78125 44.1875 
Q 44.96875 46.296875 41.140625 47.34375 
Q 37.3125 48.390625 33.40625 48.390625 
Q 24.65625 48.390625 19.8125 42.84375 
Q 14.984375 37.3125 14.984375 27.296875 
Q 14.984375 17.28125 19.8125 11.734375 
Q 24.65625 6.203125 33.40625 6.203125 
Q 37.3125 6.203125 41.140625 7.25 
Q 44.96875 8.296875 48.78125 10.40625 
L 48.78125 2.09375 
Q 45.015625 0.34375 40.984375 -0.53125 
Q 36.96875 -1.421875 32.421875 -1.421875 
Q 20.0625 -1.421875 12.78125 6.34375 
Q 5.515625 14.109375 5.515625 27.296875 
Q 5.515625 40.671875 12.859375 48.328125 
Q 20.21875 56 33.015625 56 
Q 37.15625 56 41.109375 55.140625 
Q 45.0625 54.296875 48.78125 52.59375 
z
" id="DejaVuSans-99"/>
      <path d="M 8.5 21.578125 
L 8.5 54.6875 
L 17.484375 54.6875 
L 17.484375 21.921875 
Q 17.484375 14.15625 20.5 10.265625 
Q 23.53125 6.390625 29.59375 6.390625 
Q 36.859375 6.390625 41.078125 11.03125 
Q 45.3125 15.671875 45.3125 23.6875 
L 45.3125 54.6875 
L 54.296875 54.6875 
L 54.296875 0 
L 45.3125 0 
L 45.3125 8.40625 
Q 42.046875 3.421875 37.71875 1 
Q 33.40625 -1.421875 27.6875 -1.421875 
Q 18.265625 -1.421875 13.375 4.4375 
Q 8.5 10.296875 8.5 21.578125 
z
M 31.109375 56 
z
" id="DejaVuSans-117"/>
      <path id="DejaVuSans-32"/>
      <path d="M 41.109375 46.296875 
Q 39.59375 47.171875 37.8125 47.578125 
Q 36.03125 48 33.890625 48 
Q 26.265625 48 22.1875 43.046875 
Q 18.109375 38.09375 18.109375 28.8125 
L 18.109375 0 
L 9.078125 0 
L 9.078125 54.6875 
L 18.109375 54.6875 
L 18.109375 46.1875 
Q 20.953125 51.171875 25.484375 53.578125 
Q 30.03125 56 36.53125 56 
Q 37.453125 56 38.578125 55.875 
Q 39.703125 55.765625 41.0625 55.515625 
z
" id="DejaVuSans-114"/>
      <path d="M 44.28125 53.078125 
L 44.28125 44.578125 
Q 40.484375 46.53125 36.375 47.5 
Q 32.28125 48.484375 27.875 48.484375 
Q 21.1875 48.484375 17.84375 46.4375 
Q 14.5 44.390625 14.5 40.28125 
Q 14.5 37.15625 16.890625 35.375 
Q 19.28125 33.59375 26.515625 31.984375 
L 29.59375 31.296875 
Q 39.15625 29.25 43.1875 25.515625 
Q 47.21875 21.78125 47.21875 15.09375 
Q 47.21875 7.46875 41.1875 3.015625 
Q 35.15625 -1.421875 24.609375 -1.421875 
Q 20.21875 -1.421875 15.453125 -0.5625 
Q 10.6875 0.296875 5.421875 2 
L 5.421875 11.28125 
Q 10.40625 8.6875 15.234375 7.390625 
Q 20.0625 6.109375 24.8125 6.109375 
Q 31.15625 6.109375 34.5625 8.28125 
Q 37.984375 10.453125 37.984375 14.40625 
Q 37.984375 18.0625 35.515625 20.015625 
Q 33.0625 21.96875 24.703125 23.78125 
L 21.578125 24.515625 
Q 13.234375 26.265625 9.515625 29.90625 
Q 5.8125 33.546875 5.8125 39.890625 
Q 5.8125 47.609375 11.28125 51.796875 
Q 16.75 56 26.8125 56 
Q 31.78125 56 36.171875 55.265625 
Q 40.578125 54.546875 44.28125 53.078125 
z
" id="DejaVuSans-115"/>
      <path d="M 9.421875 54.6875 
L 18.40625 54.6875 
L 18.40625 0 
L 9.421875 0 
z
M 9.421875 75.984375 
L 18.40625 75.984375 
L 18.40625 64.59375 
L 9.421875 64.59375 
z
" id="DejaVuSans-105"/>
      <path d="M 45.40625 46.390625 
L 45.40625 75.984375 
L 54.390625 75.984375 
L 54.390625 0 
L 45.40625 0 
L 45.40625 8.203125 
Q 42.578125 3.328125 38.25 0.953125 
Q 33.9375 -1.421875 27.875 -1.421875 
Q 17.96875 -1.421875 11.734375 6.484375 
Q 5.515625 14.40625 5.515625 27.296875 
Q 5.515625 40.1875 11.734375 48.09375 
Q 17.96875 56 27.875 56 
Q 33.9375 56 38.25 53.625 
Q 42.578125 51.265625 45.40625 46.390625 
z
M 14.796875 27.296875 
Q 14.796875 17.390625 18.875 11.75 
Q 22.953125 6.109375 30.078125 6.109375 
Q 37.203125 6.109375 41.296875 11.75 
Q 45.40625 17.390625 45.40625 27.296875 
Q 45.40625 37.203125 41.296875 42.84375 
Q 37.203125 48.484375 30.078125 48.484375 
Q 22.953125 48.484375 18.875 42.84375 
Q 14.796875 37.203125 14.796875 27.296875 
z
" id="DejaVuSans-100"/>
      <path d="M 54.890625 33.015625 
L 54.890625 0 
L 45.90625 0 
L 45.90625 32.71875 
Q 45.90625 40.484375 42.875 44.328125 
Q 39.84375 48.1875 33.796875 48.1875 
Q 26.515625 48.1875 22.3125 43.546875 
Q 18.109375 38.921875 18.109375 30.90625 
L 18.109375 0 
L 9.078125 0 
L 9.078125 54.6875 
L 18.109375 54.6875 
L 18.109375 46.1875 
Q 21.34375 51.125 25.703125 53.5625 
Q 30.078125 56 35.796875 56 
Q 45.21875 56 50.046875 50.171875 
Q 54.890625 44.34375 54.890625 33.015625 
z
" id="DejaVuSans-110"/>
      <path d="M 9.421875 75.984375 
L 18.40625 75.984375 
L 18.40625 0 
L 9.421875 0 
z
" id="DejaVuSans-108"/>
      <path d="M 21 76.421875 
L 21 -23.578125 
L 12.703125 -23.578125 
L 12.703125 76.421875 
z
" id="DejaVuSans-124"/>
      <path d="M 9.8125 72.90625 
L 51.703125 72.90625 
L 51.703125 64.59375 
L 19.671875 64.59375 
L 19.671875 43.109375 
L 48.578125 43.109375 
L 48.578125 34.8125 
L 19.671875 34.8125 
L 19.671875 0 
L 9.8125 0 
z
" id="DejaVuSans-70"/>
      <path d="M 30.609375 48.390625 
Q 23.390625 48.390625 19.1875 42.75 
Q 14.984375 37.109375 14.984375 27.296875 
Q 14.984375 17.484375 19.15625 11.84375 
Q 23.34375 6.203125 30.609375 6.203125 
Q 37.796875 6.203125 41.984375 11.859375 
Q 46.1875 17.53125 46.1875 27.296875 
Q 46.1875 37.015625 41.984375 42.703125 
Q 37.796875 48.390625 30.609375 48.390625 
z
M 30.609375 56 
Q 42.328125 56 49.015625 48.375 
Q 55.71875 40.765625 55.71875 27.296875 
Q 55.71875 13.875 49.015625 6.21875 
Q 42.328125 -1.421875 30.609375 -1.421875 
Q 18.84375 -1.421875 12.171875 6.21875 
Q 5.515625 13.875 5.515625 27.296875 
Q 5.515625 40.765625 12.171875 48.375 
Q 18.84375 56 30.609375 56 
z
" id="DejaVuSans-111"/>
      <path d="M 2.984375 54.6875 
L 12.5 54.6875 
L 29.59375 8.796875 
L 46.6875 54.6875 
L 56.203125 54.6875 
L 35.6875 0 
L 23.484375 0 
z
" id="DejaVuSans-118"/>
      <path d="M 9.8125 72.90625 
L 19.671875 72.90625 
L 19.671875 8.296875 
L 55.171875 8.296875 
L 55.171875 0 
L 9.8125 0 
z
" id="DejaVuSans-76"/>
      <path d="M 53.515625 70.515625 
L 53.515625 60.890625 
Q 47.90625 63.578125 42.921875 64.890625 
Q 37.9375 66.21875 33.296875 66.21875 
Q 25.25 66.21875 20.875 63.09375 
Q 16.5 59.96875 16.5 54.203125 
Q 16.5 49.359375 19.40625 46.890625 
Q 22.3125 44.4375 30.421875 42.921875 
L 36.375 41.703125 
Q 47.40625 39.59375 52.65625 34.296875 
Q 57.90625 29 57.90625 20.125 
Q 57.90625 9.515625 50.796875 4.046875 
Q 43.703125 -1.421875 29.984375 -1.421875 
Q 24.8125 -1.421875 18.96875 -0.25 
Q 13.140625 0.921875 6.890625 3.21875 
L 6.890625 13.375 
Q 12.890625 10.015625 18.65625 8.296875 
Q 24.421875 6.59375 29.984375 6.59375 
Q 38.421875 6.59375 43.015625 9.90625 
Q 47.609375 13.234375 47.609375 19.390625 
Q 47.609375 24.75 44.3125 27.78125 
Q 41.015625 30.8125 33.5 32.328125 
L 27.484375 33.5 
Q 16.453125 35.6875 11.515625 40.375 
Q 6.59375 45.0625 6.59375 53.421875 
Q 6.59375 63.09375 13.40625 68.65625 
Q 20.21875 74.21875 32.171875 74.21875 
Q 37.3125 74.21875 42.625 73.28125 
Q 47.953125 72.359375 53.515625 70.515625 
z
" id="DejaVuSans-83"/>
      <path d="M -0.296875 72.90625 
L 61.375 72.90625 
L 61.375 64.59375 
L 35.5 64.59375 
L 35.5 0 
L 25.59375 0 
L 25.59375 64.59375 
L -0.296875 64.59375 
z
" id="DejaVuSans-84"/>
     </defs>
     <use xlink:href="#DejaVuSans-77"/>
     <use x="86.279297" xlink:href="#DejaVuSans-97"/>
     <use x="147.558594" xlink:href="#DejaVuSans-99"/>
     <use x="202.539062" xlink:href="#DejaVuSans-97"/>
     <use x="263.818359" xlink:href="#DejaVuSans-117"/>
     <use x="327.197266" xlink:href="#DejaVuSans-32"/>
     <use x="358.984375" xlink:href="#DejaVuSans-114"/>
     <use x="397.847656" xlink:href="#DejaVuSans-101"/>
     <use x="459.371094" xlink:href="#DejaVuSans-115"/>
     <use x="511.470703" xlink:href="#DejaVuSans-105"/>
     <use x="539.253906" xlink:href="#DejaVuSans-100"/>
     <use x="602.730469" xlink:href="#DejaVuSans-101"/>
     <use x="664.253906" xlink:href="#DejaVuSans-110"/>
     <use x="727.632812" xlink:href="#DejaVuSans-116"/>
     <use x="766.841797" xlink:href="#DejaVuSans-105"/>
     <use x="794.625" xlink:href="#DejaVuSans-97"/>
     <use x="855.904297" xlink:href="#DejaVuSans-108"/>
     <use x="883.6875" xlink:href="#DejaVuSans-32"/>
     <use x="915.474609" xlink:href="#DejaVuSans-50"/>
     <use x="979.097656" xlink:href="#DejaVuSans-48"/>
     <use x="1042.720703" xlink:href="#DejaVuSans-50"/>
     <use x="1106.34375" xlink:href="#DejaVuSans-48"/>
     <use x="1169.966797" xlink:href="#DejaVuSans-45"/>
     <use x="1206.050781" xlink:href="#DejaVuSans-50"/>
     <use x="1269.673828" xlink:href="#DejaVuSans-48"/>
     <use x="1333.296875" xlink:href="#DejaVuSans-50"/>
     <use x="1396.919922" xlink:href="#DejaVuSans-49"/>
     <use x="1460.542969" xlink:href="#DejaVuSans-32"/>
     <use x="1492.330078" xlink:href="#DejaVuSans-124"/>
     <use x="1526.021484" xlink:href="#DejaVuSans-32"/>
     <use x="1557.808594" xlink:href="#DejaVuSans-70"/>
     <use x="1611.703125" xlink:href="#DejaVuSans-111"/>
     <use x="1672.884766" xlink:href="#DejaVuSans-114"/>
     <use x="1711.748047" xlink:href="#DejaVuSans-101"/>
     <use x="1773.271484" xlink:href="#DejaVuSans-99"/>
     <use x="1828.251953" xlink:href="#DejaVuSans-97"/>
     <use x="1889.53125" xlink:href="#DejaVuSans-115"/>
     <use x="1941.630859" xlink:href="#DejaVuSans-116"/>
     <use x="1980.839844" xlink:href="#DejaVuSans-32"/>
     <use x="2012.626953" xlink:href="#DejaVuSans-118"/>
     <use x="2071.806641" xlink:href="#DejaVuSans-115"/>
     <use x="2123.90625" xlink:href="#DejaVuSans-32"/>
     <use x="2155.693359" xlink:href="#DejaVuSans-77"/>
     <use x="2241.972656" xlink:href="#DejaVuSans-111"/>
     <use x="2303.154297" xlink:href="#DejaVuSans-110"/>
     <use x="2366.533203" xlink:href="#DejaVuSans-105"/>
     <use x="2394.316406" xlink:href="#DejaVuSans-116"/>
     <use x="2433.525391" xlink:href="#DejaVuSans-111"/>
     <use x="2494.707031" xlink:href="#DejaVuSans-114"/>
     <use x="2533.570312" xlink:href="#DejaVuSans-101"/>
     <use x="2595.09375" xlink:href="#DejaVuSans-100"/>
     <use x="2658.570312" xlink:href="#DejaVuSans-32"/>
     <use x="2690.357422" xlink:href="#DejaVuSans-124"/>
     <use x="2724.048828" xlink:href="#DejaVuSans-32"/>
     <use x="2755.835938" xlink:href="#DejaVuSans-76"/>
     <use x="2811.548828" xlink:href="#DejaVuSans-83"/>
     <use x="2875.025391" xlink:href="#DejaVuSans-84"/>
     <use x="2936.109375" xlink:href="#DejaVuSans-77"/>
    </g>
   </g>
   <g id="legend_1">
    <g id="patch_7">
     <path d="M 614.74125 114.615 
L 769.2 114.615 
Q 771.6 114.615 771.6 112.215 
L 771.6 77.52 
Q 771.6 75.12 769.2 75.12 
L 614.74125 75.12 
Q 612.34125 75.12 612.34125 77.52 
L 612.34125 112.215 
Q 612.34125 114.615 614.74125 114.615 
z
" style="fill:#ffffff;opacity:0.8;stroke:#cccccc;stroke-linejoin:miter;"/>
    </g>
    <g id="line2d_18">
     <path d="M 617.14125 84.838125 
L 641.14125 84.838125 
" style="fill:none;stroke:#1f77b4;stroke-linecap:square;stroke-width:1.5;"/>
    </g>
    <g id="line2d_19"/>
    <g id="text_19">
     <!-- measured_data_O3 -->
     <g transform="translate(650.74125 89.038125)scale(0.12 -0.12)">
      <defs>
       <path d="M 50.984375 -16.609375 
L 50.984375 -23.578125 
L -0.984375 -23.578125 
L -0.984375 -16.609375 
z
" id="DejaVuSans-95"/>
      </defs>
      <use xlink:href="#DejaVuSans-109"/>
      <use x="97.412109" xlink:href="#DejaVuSans-101"/>
      <use x="158.935547" xlink:href="#DejaVuSans-97"/>
      <use x="220.214844" xlink:href="#DejaVuSans-115"/>
      <use x="272.314453" xlink:href="#DejaVuSans-117"/>
      <use x="335.693359" xlink:href="#DejaVuSans-114"/>
      <use x="374.556641" xlink:href="#DejaVuSans-101"/>
      <use x="436.080078" xlink:href="#DejaVuSans-100"/>
      <use x="499.556641" xlink:href="#DejaVuSans-95"/>
      <use x="549.556641" xlink:href="#DejaVuSans-100"/>
      <use x="613.033203" xlink:href="#DejaVuSans-97"/>
      <use x="674.3125" xlink:href="#DejaVuSans-116"/>
      <use x="713.521484" xlink:href="#DejaVuSans-97"/>
      <use x="774.800781" xlink:href="#DejaVuSans-95"/>
      <use x="824.800781" xlink:href="#DejaVuSans-79"/>
      <use x="903.511719" xlink:href="#DejaVuSans-51"/>
     </g>
    </g>
    <g id="line2d_20">
     <path d="M 617.14125 102.785625 
L 641.14125 102.785625 
" style="fill:none;stroke:#ff0000;stroke-dasharray:5.55,2.4;stroke-dashoffset:0;stroke-width:1.5;"/>
    </g>
    <g id="line2d_21"/>
    <g id="text_20">
     <!-- predicted_data_O3 -->
     <g transform="translate(650.74125 106.985625)scale(0.12 -0.12)">
      <use xlink:href="#DejaVuSans-112"/>
      <use x="63.476562" xlink:href="#DejaVuSans-114"/>
      <use x="102.339844" xlink:href="#DejaVuSans-101"/>
      <use x="163.863281" xlink:href="#DejaVuSans-100"/>
      <use x="227.339844" xlink:href="#DejaVuSans-105"/>
      <use x="255.123047" xlink:href="#DejaVuSans-99"/>
      <use x="310.103516" xlink:href="#DejaVuSans-116"/>
      <use x="349.3125" xlink:href="#DejaVuSans-101"/>
      <use x="410.835938" xlink:href="#DejaVuSans-100"/>
      <use x="474.3125" xlink:href="#DejaVuSans-95"/>
      <use x="524.3125" xlink:href="#DejaVuSans-100"/>
      <use x="587.789062" xlink:href="#DejaVuSans-97"/>
      <use x="649.068359" xlink:href="#DejaVuSans-116"/>
      <use x="688.277344" xlink:href="#DejaVuSans-97"/>
      <use x="749.556641" xlink:href="#DejaVuSans-95"/>
      <use x="799.556641" xlink:href="#DejaVuSans-79"/>
      <use x="878.267578" xlink:href="#DejaVuSans-51"/>
     </g>
    </g>
   </g>
  </g>
 </g>
 <defs>
  <clipPath id="p47556a8ec4">
   <rect height="391.68" width="669.6" x="108" y="69.12"/>
  </clipPath>
 </defs>
</svg>
