<?xml version="1.0" encoding="utf-8" standalone="no"?>
<!DOCTYPE svg PUBLIC "-//W3C//DTD SVG 1.1//EN"
  "http://www.w3.org/Graphics/SVG/1.1/DTD/svg11.dtd">
<!-- Created with matplotlib (https://matplotlib.org/) -->
<svg height="576pt" version="1.1" viewBox="0 0 864 576" width="864pt" xmlns="http://www.w3.org/2000/svg" xmlns:xlink="http://www.w3.org/1999/xlink">
 <metadata>
  <rdf:RDF xmlns:cc="http://creativecommons.org/ns#" xmlns:dc="http://purl.org/dc/elements/1.1/" xmlns:rdf="http://www.w3.org/1999/02/22-rdf-syntax-ns#">
   <cc:Work>
    <dc:type rdf:resource="http://purl.org/dc/dcmitype/StillImage"/>
    <dc:date>2024-03-08T19:54:04.109112</dc:date>
    <dc:format>image/svg+xml</dc:format>
    <dc:creator>
     <cc:Agent>
      <dc:title>Matplotlib v3.3.4, https://matplotlib.org/</dc:title>
     </cc:Agent>
    </dc:creator>
   </cc:Work>
  </rdf:RDF>
 </metadata>
 <defs>
  <style type="text/css">*{stroke-linecap:butt;stroke-linejoin:round;}</style>
 </defs>
 <g id="figure_1">
  <g id="patch_1">
   <path d="M 0 576 
L 864 576 
L 864 0 
L 0 0 
z
" style="fill:#ffffff;"/>
  </g>
  <g id="axes_1">
   <g id="patch_2">
    <path d="M 108 460.8 
L 777.6 460.8 
L 777.6 69.12 
L 108 69.12 
z
" style="fill:#ffffff;"/>
   </g>
   <g id="matplotlib.axis_1">
    <g id="xtick_1">
     <g id="line2d_1">
      <defs>
       <path d="M 0 0 
L 0 3.5 
" id="me240c3b766" style="stroke:#000000;stroke-width:0.8;"/>
      </defs>
      <g>
       <use style="stroke:#000000;stroke-width:0.8;" x="138.436364" xlink:href="#me240c3b766" y="460.8"/>
      </g>
     </g>
     <g id="text_1">
      <!-- 2020-01 -->
      <g transform="translate(93.766579 500.766215)rotate(-30)scale(0.12 -0.12)">
       <defs>
        <path d="M 19.1875 8.296875 
L 53.609375 8.296875 
L 53.609375 0 
L 7.328125 0 
L 7.328125 8.296875 
Q 12.9375 14.109375 22.625 23.890625 
Q 32.328125 33.6875 34.8125 36.53125 
Q 39.546875 41.84375 41.421875 45.53125 
Q 43.3125 49.21875 43.3125 52.78125 
Q 43.3125 58.59375 39.234375 62.25 
Q 35.15625 65.921875 28.609375 65.921875 
Q 23.96875 65.921875 18.8125 64.3125 
Q 13.671875 62.703125 7.8125 59.421875 
L 7.8125 69.390625 
Q 13.765625 71.78125 18.9375 73 
Q 24.125 74.21875 28.421875 74.21875 
Q 39.75 74.21875 46.484375 68.546875 
Q 53.21875 62.890625 53.21875 53.421875 
Q 53.21875 48.921875 51.53125 44.890625 
Q 49.859375 40.875 45.40625 35.40625 
Q 44.1875 33.984375 37.640625 27.21875 
Q 31.109375 20.453125 19.1875 8.296875 
z
" id="DejaVuSans-50"/>
        <path d="M 31.78125 66.40625 
Q 24.171875 66.40625 20.328125 58.90625 
Q 16.5 51.421875 16.5 36.375 
Q 16.5 21.390625 20.328125 13.890625 
Q 24.171875 6.390625 31.78125 6.390625 
Q 39.453125 6.390625 43.28125 13.890625 
Q 47.125 21.390625 47.125 36.375 
Q 47.125 51.421875 43.28125 58.90625 
Q 39.453125 66.40625 31.78125 66.40625 
z
M 31.78125 74.21875 
Q 44.046875 74.21875 50.515625 64.515625 
Q 56.984375 54.828125 56.984375 36.375 
Q 56.984375 17.96875 50.515625 8.265625 
Q 44.046875 -1.421875 31.78125 -1.421875 
Q 19.53125 -1.421875 13.0625 8.265625 
Q 6.59375 17.96875 6.59375 36.375 
Q 6.59375 54.828125 13.0625 64.515625 
Q 19.53125 74.21875 31.78125 74.21875 
z
" id="DejaVuSans-48"/>
        <path d="M 4.890625 31.390625 
L 31.203125 31.390625 
L 31.203125 23.390625 
L 4.890625 23.390625 
z
" id="DejaVuSans-45"/>
        <path d="M 12.40625 8.296875 
L 28.515625 8.296875 
L 28.515625 63.921875 
L 10.984375 60.40625 
L 10.984375 69.390625 
L 28.421875 72.90625 
L 38.28125 72.90625 
L 38.28125 8.296875 
L 54.390625 8.296875 
L 54.390625 0 
L 12.40625 0 
z
" id="DejaVuSans-49"/>
       </defs>
       <use xlink:href="#DejaVuSans-50"/>
       <use x="63.623047" xlink:href="#DejaVuSans-48"/>
       <use x="127.246094" xlink:href="#DejaVuSans-50"/>
       <use x="190.869141" xlink:href="#DejaVuSans-48"/>
       <use x="254.492188" xlink:href="#DejaVuSans-45"/>
       <use x="290.576172" xlink:href="#DejaVuSans-48"/>
       <use x="354.199219" xlink:href="#DejaVuSans-49"/>
      </g>
     </g>
    </g>
    <g id="xtick_2">
     <g id="line2d_2">
      <g>
       <use style="stroke:#000000;stroke-width:0.8;" x="214.318804" xlink:href="#me240c3b766" y="460.8"/>
      </g>
     </g>
     <g id="text_2">
      <!-- 2020-04 -->
      <g transform="translate(169.64902 500.766215)rotate(-30)scale(0.12 -0.12)">
       <defs>
        <path d="M 37.796875 64.3125 
L 12.890625 25.390625 
L 37.796875 25.390625 
z
M 35.203125 72.90625 
L 47.609375 72.90625 
L 47.609375 25.390625 
L 58.015625 25.390625 
L 58.015625 17.1875 
L 47.609375 17.1875 
L 47.609375 0 
L 37.796875 0 
L 37.796875 17.1875 
L 4.890625 17.1875 
L 4.890625 26.703125 
z
" id="DejaVuSans-52"/>
       </defs>
       <use xlink:href="#DejaVuSans-50"/>
       <use x="63.623047" xlink:href="#DejaVuSans-48"/>
       <use x="127.246094" xlink:href="#DejaVuSans-50"/>
       <use x="190.869141" xlink:href="#DejaVuSans-48"/>
       <use x="254.492188" xlink:href="#DejaVuSans-45"/>
       <use x="290.576172" xlink:href="#DejaVuSans-48"/>
       <use x="354.199219" xlink:href="#DejaVuSans-52"/>
      </g>
     </g>
    </g>
    <g id="xtick_3">
     <g id="line2d_3">
      <g>
       <use style="stroke:#000000;stroke-width:0.8;" x="290.201245" xlink:href="#me240c3b766" y="460.8"/>
      </g>
     </g>
     <g id="text_3">
      <!-- 2020-07 -->
      <g transform="translate(245.53146 500.766215)rotate(-30)scale(0.12 -0.12)">
       <defs>
        <path d="M 8.203125 72.90625 
L 55.078125 72.90625 
L 55.078125 68.703125 
L 28.609375 0 
L 18.3125 0 
L 43.21875 64.59375 
L 8.203125 64.59375 
z
" id="DejaVuSans-55"/>
       </defs>
       <use xlink:href="#DejaVuSans-50"/>
       <use x="63.623047" xlink:href="#DejaVuSans-48"/>
       <use x="127.246094" xlink:href="#DejaVuSans-50"/>
       <use x="190.869141" xlink:href="#DejaVuSans-48"/>
       <use x="254.492188" xlink:href="#DejaVuSans-45"/>
       <use x="290.576172" xlink:href="#DejaVuSans-48"/>
       <use x="354.199219" xlink:href="#DejaVuSans-55"/>
      </g>
     </g>
    </g>
    <g id="xtick_4">
     <g id="line2d_4">
      <g>
       <use style="stroke:#000000;stroke-width:0.8;" x="366.917559" xlink:href="#me240c3b766" y="460.8"/>
      </g>
     </g>
     <g id="text_4">
      <!-- 2020-10 -->
      <g transform="translate(322.247774 500.766215)rotate(-30)scale(0.12 -0.12)">
       <use xlink:href="#DejaVuSans-50"/>
       <use x="63.623047" xlink:href="#DejaVuSans-48"/>
       <use x="127.246094" xlink:href="#DejaVuSans-50"/>
       <use x="190.869141" xlink:href="#DejaVuSans-48"/>
       <use x="254.492188" xlink:href="#DejaVuSans-45"/>
       <use x="290.576172" xlink:href="#DejaVuSans-49"/>
       <use x="354.199219" xlink:href="#DejaVuSans-48"/>
      </g>
     </g>
    </g>
    <g id="xtick_5">
     <g id="line2d_5">
      <g>
       <use style="stroke:#000000;stroke-width:0.8;" x="443.633873" xlink:href="#me240c3b766" y="460.8"/>
      </g>
     </g>
     <g id="text_5">
      <!-- 2021-01 -->
      <g transform="translate(398.964088 500.766215)rotate(-30)scale(0.12 -0.12)">
       <use xlink:href="#DejaVuSans-50"/>
       <use x="63.623047" xlink:href="#DejaVuSans-48"/>
       <use x="127.246094" xlink:href="#DejaVuSans-50"/>
       <use x="190.869141" xlink:href="#DejaVuSans-49"/>
       <use x="254.492188" xlink:href="#DejaVuSans-45"/>
       <use x="290.576172" xlink:href="#DejaVuSans-48"/>
       <use x="354.199219" xlink:href="#DejaVuSans-49"/>
      </g>
     </g>
    </g>
    <g id="xtick_6">
     <g id="line2d_6">
      <g>
       <use style="stroke:#000000;stroke-width:0.8;" x="518.682441" xlink:href="#me240c3b766" y="460.8"/>
      </g>
     </g>
     <g id="text_6">
      <!-- 2021-04 -->
      <g transform="translate(474.012656 500.766215)rotate(-30)scale(0.12 -0.12)">
       <use xlink:href="#DejaVuSans-50"/>
       <use x="63.623047" xlink:href="#DejaVuSans-48"/>
       <use x="127.246094" xlink:href="#DejaVuSans-50"/>
       <use x="190.869141" xlink:href="#DejaVuSans-49"/>
       <use x="254.492188" xlink:href="#DejaVuSans-45"/>
       <use x="290.576172" xlink:href="#DejaVuSans-48"/>
       <use x="354.199219" xlink:href="#DejaVuSans-52"/>
      </g>
     </g>
    </g>
    <g id="xtick_7">
     <g id="line2d_7">
      <g>
       <use style="stroke:#000000;stroke-width:0.8;" x="594.564882" xlink:href="#me240c3b766" y="460.8"/>
      </g>
     </g>
     <g id="text_7">
      <!-- 2021-07 -->
      <g transform="translate(549.895097 500.766215)rotate(-30)scale(0.12 -0.12)">
       <use xlink:href="#DejaVuSans-50"/>
       <use x="63.623047" xlink:href="#DejaVuSans-48"/>
       <use x="127.246094" xlink:href="#DejaVuSans-50"/>
       <use x="190.869141" xlink:href="#DejaVuSans-49"/>
       <use x="254.492188" xlink:href="#DejaVuSans-45"/>
       <use x="290.576172" xlink:href="#DejaVuSans-48"/>
       <use x="354.199219" xlink:href="#DejaVuSans-55"/>
      </g>
     </g>
    </g>
    <g id="xtick_8">
     <g id="line2d_8">
      <g>
       <use style="stroke:#000000;stroke-width:0.8;" x="671.281196" xlink:href="#me240c3b766" y="460.8"/>
      </g>
     </g>
     <g id="text_8">
      <!-- 2021-10 -->
      <g transform="translate(626.611411 500.766215)rotate(-30)scale(0.12 -0.12)">
       <use xlink:href="#DejaVuSans-50"/>
       <use x="63.623047" xlink:href="#DejaVuSans-48"/>
       <use x="127.246094" xlink:href="#DejaVuSans-50"/>
       <use x="190.869141" xlink:href="#DejaVuSans-49"/>
       <use x="254.492188" xlink:href="#DejaVuSans-45"/>
       <use x="290.576172" xlink:href="#DejaVuSans-49"/>
       <use x="354.199219" xlink:href="#DejaVuSans-48"/>
      </g>
     </g>
    </g>
    <g id="xtick_9">
     <g id="line2d_9">
      <g>
       <use style="stroke:#000000;stroke-width:0.8;" x="747.997509" xlink:href="#me240c3b766" y="460.8"/>
      </g>
     </g>
     <g id="text_9">
      <!-- 2022-01 -->
      <g transform="translate(703.327724 500.766215)rotate(-30)scale(0.12 -0.12)">
       <use xlink:href="#DejaVuSans-50"/>
       <use x="63.623047" xlink:href="#DejaVuSans-48"/>
       <use x="127.246094" xlink:href="#DejaVuSans-50"/>
       <use x="190.869141" xlink:href="#DejaVuSans-50"/>
       <use x="254.492188" xlink:href="#DejaVuSans-45"/>
       <use x="290.576172" xlink:href="#DejaVuSans-48"/>
       <use x="354.199219" xlink:href="#DejaVuSans-49"/>
      </g>
     </g>
    </g>
    <g id="text_10">
     <!-- Date -->
     <g transform="translate(424.873828 518.325146)scale(0.15 -0.15)">
      <defs>
       <path d="M 19.671875 64.796875 
L 19.671875 8.109375 
L 31.59375 8.109375 
Q 46.6875 8.109375 53.6875 14.9375 
Q 60.6875 21.78125 60.6875 36.53125 
Q 60.6875 51.171875 53.6875 57.984375 
Q 46.6875 64.796875 31.59375 64.796875 
z
M 9.8125 72.90625 
L 30.078125 72.90625 
Q 51.265625 72.90625 61.171875 64.09375 
Q 71.09375 55.28125 71.09375 36.53125 
Q 71.09375 17.671875 61.125 8.828125 
Q 51.171875 0 30.078125 0 
L 9.8125 0 
z
" id="DejaVuSans-68"/>
       <path d="M 34.28125 27.484375 
Q 23.390625 27.484375 19.1875 25 
Q 14.984375 22.515625 14.984375 16.5 
Q 14.984375 11.71875 18.140625 8.90625 
Q 21.296875 6.109375 26.703125 6.109375 
Q 34.1875 6.109375 38.703125 11.40625 
Q 43.21875 16.703125 43.21875 25.484375 
L 43.21875 27.484375 
z
M 52.203125 31.203125 
L 52.203125 0 
L 43.21875 0 
L 43.21875 8.296875 
Q 40.140625 3.328125 35.546875 0.953125 
Q 30.953125 -1.421875 24.3125 -1.421875 
Q 15.921875 -1.421875 10.953125 3.296875 
Q 6 8.015625 6 15.921875 
Q 6 25.140625 12.171875 29.828125 
Q 18.359375 34.515625 30.609375 34.515625 
L 43.21875 34.515625 
L 43.21875 35.40625 
Q 43.21875 41.609375 39.140625 45 
Q 35.0625 48.390625 27.6875 48.390625 
Q 23 48.390625 18.546875 47.265625 
Q 14.109375 46.140625 10.015625 43.890625 
L 10.015625 52.203125 
Q 14.9375 54.109375 19.578125 55.046875 
Q 24.21875 56 28.609375 56 
Q 40.484375 56 46.34375 49.84375 
Q 52.203125 43.703125 52.203125 31.203125 
z
" id="DejaVuSans-97"/>
       <path d="M 18.3125 70.21875 
L 18.3125 54.6875 
L 36.8125 54.6875 
L 36.8125 47.703125 
L 18.3125 47.703125 
L 18.3125 18.015625 
Q 18.3125 11.328125 20.140625 9.421875 
Q 21.96875 7.515625 27.59375 7.515625 
L 36.8125 7.515625 
L 36.8125 0 
L 27.59375 0 
Q 17.1875 0 13.234375 3.875 
Q 9.28125 7.765625 9.28125 18.015625 
L 9.28125 47.703125 
L 2.6875 47.703125 
L 2.6875 54.6875 
L 9.28125 54.6875 
L 9.28125 70.21875 
z
" id="DejaVuSans-116"/>
       <path d="M 56.203125 29.59375 
L 56.203125 25.203125 
L 14.890625 25.203125 
Q 15.484375 15.921875 20.484375 11.0625 
Q 25.484375 6.203125 34.421875 6.203125 
Q 39.59375 6.203125 44.453125 7.46875 
Q 49.3125 8.734375 54.109375 11.28125 
L 54.109375 2.78125 
Q 49.265625 0.734375 44.1875 -0.34375 
Q 39.109375 -1.421875 33.890625 -1.421875 
Q 20.796875 -1.421875 13.15625 6.1875 
Q 5.515625 13.8125 5.515625 26.8125 
Q 5.515625 40.234375 12.765625 48.109375 
Q 20.015625 56 32.328125 56 
Q 43.359375 56 49.78125 48.890625 
Q 56.203125 41.796875 56.203125 29.59375 
z
M 47.21875 32.234375 
Q 47.125 39.59375 43.09375 43.984375 
Q 39.0625 48.390625 32.421875 48.390625 
Q 24.90625 48.390625 20.390625 44.140625 
Q 15.875 39.890625 15.1875 32.171875 
z
" id="DejaVuSans-101"/>
      </defs>
      <use xlink:href="#DejaVuSans-68"/>
      <use x="77.001953" xlink:href="#DejaVuSans-97"/>
      <use x="138.28125" xlink:href="#DejaVuSans-116"/>
      <use x="177.490234" xlink:href="#DejaVuSans-101"/>
     </g>
    </g>
   </g>
   <g id="matplotlib.axis_2">
    <g id="ytick_1">
     <g id="line2d_10">
      <defs>
       <path d="M 0 0 
L -3.5 0 
" id="m7f840558e2" style="stroke:#000000;stroke-width:0.8;"/>
      </defs>
      <g>
       <use style="stroke:#000000;stroke-width:0.8;" x="108" xlink:href="#m7f840558e2" y="447.068196"/>
      </g>
     </g>
     <g id="text_11">
      <!-- 0 -->
      <g transform="translate(93.365 451.627258)scale(0.12 -0.12)">
       <use xlink:href="#DejaVuSans-48"/>
      </g>
     </g>
    </g>
    <g id="ytick_2">
     <g id="line2d_11">
      <g>
       <use style="stroke:#000000;stroke-width:0.8;" x="108" xlink:href="#m7f840558e2" y="376.800987"/>
      </g>
     </g>
     <g id="text_12">
      <!-- 20 -->
      <g transform="translate(85.73 381.360049)scale(0.12 -0.12)">
       <use xlink:href="#DejaVuSans-50"/>
       <use x="63.623047" xlink:href="#DejaVuSans-48"/>
      </g>
     </g>
    </g>
    <g id="ytick_3">
     <g id="line2d_12">
      <g>
       <use style="stroke:#000000;stroke-width:0.8;" x="108" xlink:href="#m7f840558e2" y="306.533778"/>
      </g>
     </g>
     <g id="text_13">
      <!-- 40 -->
      <g transform="translate(85.73 311.09284)scale(0.12 -0.12)">
       <use xlink:href="#DejaVuSans-52"/>
       <use x="63.623047" xlink:href="#DejaVuSans-48"/>
      </g>
     </g>
    </g>
    <g id="ytick_4">
     <g id="line2d_13">
      <g>
       <use style="stroke:#000000;stroke-width:0.8;" x="108" xlink:href="#m7f840558e2" y="236.266568"/>
      </g>
     </g>
     <g id="text_14">
      <!-- 60 -->
      <g transform="translate(85.73 240.825631)scale(0.12 -0.12)">
       <defs>
        <path d="M 33.015625 40.375 
Q 26.375 40.375 22.484375 35.828125 
Q 18.609375 31.296875 18.609375 23.390625 
Q 18.609375 15.53125 22.484375 10.953125 
Q 26.375 6.390625 33.015625 6.390625 
Q 39.65625 6.390625 43.53125 10.953125 
Q 47.40625 15.53125 47.40625 23.390625 
Q 47.40625 31.296875 43.53125 35.828125 
Q 39.65625 40.375 33.015625 40.375 
z
M 52.59375 71.296875 
L 52.59375 62.3125 
Q 48.875 64.0625 45.09375 64.984375 
Q 41.3125 65.921875 37.59375 65.921875 
Q 27.828125 65.921875 22.671875 59.328125 
Q 17.53125 52.734375 16.796875 39.40625 
Q 19.671875 43.65625 24.015625 45.921875 
Q 28.375 48.1875 33.59375 48.1875 
Q 44.578125 48.1875 50.953125 41.515625 
Q 57.328125 34.859375 57.328125 23.390625 
Q 57.328125 12.15625 50.6875 5.359375 
Q 44.046875 -1.421875 33.015625 -1.421875 
Q 20.359375 -1.421875 13.671875 8.265625 
Q 6.984375 17.96875 6.984375 36.375 
Q 6.984375 53.65625 15.1875 63.9375 
Q 23.390625 74.21875 37.203125 74.21875 
Q 40.921875 74.21875 44.703125 73.484375 
Q 48.484375 72.75 52.59375 71.296875 
z
" id="DejaVuSans-54"/>
       </defs>
       <use xlink:href="#DejaVuSans-54"/>
       <use x="63.623047" xlink:href="#DejaVuSans-48"/>
      </g>
     </g>
    </g>
    <g id="ytick_5">
     <g id="line2d_14">
      <g>
       <use style="stroke:#000000;stroke-width:0.8;" x="108" xlink:href="#m7f840558e2" y="165.999359"/>
      </g>
     </g>
     <g id="text_15">
      <!-- 80 -->
      <g transform="translate(85.73 170.558422)scale(0.12 -0.12)">
       <defs>
        <path d="M 31.78125 34.625 
Q 24.75 34.625 20.71875 30.859375 
Q 16.703125 27.09375 16.703125 20.515625 
Q 16.703125 13.921875 20.71875 10.15625 
Q 24.75 6.390625 31.78125 6.390625 
Q 38.8125 6.390625 42.859375 10.171875 
Q 46.921875 13.96875 46.921875 20.515625 
Q 46.921875 27.09375 42.890625 30.859375 
Q 38.875 34.625 31.78125 34.625 
z
M 21.921875 38.8125 
Q 15.578125 40.375 12.03125 44.71875 
Q 8.5 49.078125 8.5 55.328125 
Q 8.5 64.0625 14.71875 69.140625 
Q 20.953125 74.21875 31.78125 74.21875 
Q 42.671875 74.21875 48.875 69.140625 
Q 55.078125 64.0625 55.078125 55.328125 
Q 55.078125 49.078125 51.53125 44.71875 
Q 48 40.375 41.703125 38.8125 
Q 48.828125 37.15625 52.796875 32.3125 
Q 56.78125 27.484375 56.78125 20.515625 
Q 56.78125 9.90625 50.3125 4.234375 
Q 43.84375 -1.421875 31.78125 -1.421875 
Q 19.734375 -1.421875 13.25 4.234375 
Q 6.78125 9.90625 6.78125 20.515625 
Q 6.78125 27.484375 10.78125 32.3125 
Q 14.796875 37.15625 21.921875 38.8125 
z
M 18.3125 54.390625 
Q 18.3125 48.734375 21.84375 45.5625 
Q 25.390625 42.390625 31.78125 42.390625 
Q 38.140625 42.390625 41.71875 45.5625 
Q 45.3125 48.734375 45.3125 54.390625 
Q 45.3125 60.0625 41.71875 63.234375 
Q 38.140625 66.40625 31.78125 66.40625 
Q 25.390625 66.40625 21.84375 63.234375 
Q 18.3125 60.0625 18.3125 54.390625 
z
" id="DejaVuSans-56"/>
       </defs>
       <use xlink:href="#DejaVuSans-56"/>
       <use x="63.623047" xlink:href="#DejaVuSans-48"/>
      </g>
     </g>
    </g>
    <g id="ytick_6">
     <g id="line2d_15">
      <g>
       <use style="stroke:#000000;stroke-width:0.8;" x="108" xlink:href="#m7f840558e2" y="95.73215"/>
      </g>
     </g>
     <g id="text_16">
      <!-- 100 -->
      <g transform="translate(78.095 100.291213)scale(0.12 -0.12)">
       <use xlink:href="#DejaVuSans-49"/>
       <use x="63.623047" xlink:href="#DejaVuSans-48"/>
       <use x="127.246094" xlink:href="#DejaVuSans-48"/>
      </g>
     </g>
    </g>
    <g id="text_17">
     <!-- O3(ppm) -->
     <g transform="translate(70.975469 298.31625)rotate(-90)scale(0.15 -0.15)">
      <defs>
       <path d="M 39.40625 66.21875 
Q 28.65625 66.21875 22.328125 58.203125 
Q 16.015625 50.203125 16.015625 36.375 
Q 16.015625 22.609375 22.328125 14.59375 
Q 28.65625 6.59375 39.40625 6.59375 
Q 50.140625 6.59375 56.421875 14.59375 
Q 62.703125 22.609375 62.703125 36.375 
Q 62.703125 50.203125 56.421875 58.203125 
Q 50.140625 66.21875 39.40625 66.21875 
z
M 39.40625 74.21875 
Q 54.734375 74.21875 63.90625 63.9375 
Q 73.09375 53.65625 73.09375 36.375 
Q 73.09375 19.140625 63.90625 8.859375 
Q 54.734375 -1.421875 39.40625 -1.421875 
Q 24.03125 -1.421875 14.8125 8.828125 
Q 5.609375 19.09375 5.609375 36.375 
Q 5.609375 53.65625 14.8125 63.9375 
Q 24.03125 74.21875 39.40625 74.21875 
z
" id="DejaVuSans-79"/>
       <path d="M 40.578125 39.3125 
Q 47.65625 37.796875 51.625 33 
Q 55.609375 28.21875 55.609375 21.1875 
Q 55.609375 10.40625 48.1875 4.484375 
Q 40.765625 -1.421875 27.09375 -1.421875 
Q 22.515625 -1.421875 17.65625 -0.515625 
Q 12.796875 0.390625 7.625 2.203125 
L 7.625 11.71875 
Q 11.71875 9.328125 16.59375 8.109375 
Q 21.484375 6.890625 26.8125 6.890625 
Q 36.078125 6.890625 40.9375 10.546875 
Q 45.796875 14.203125 45.796875 21.1875 
Q 45.796875 27.640625 41.28125 31.265625 
Q 36.765625 34.90625 28.71875 34.90625 
L 20.21875 34.90625 
L 20.21875 43.015625 
L 29.109375 43.015625 
Q 36.375 43.015625 40.234375 45.921875 
Q 44.09375 48.828125 44.09375 54.296875 
Q 44.09375 59.90625 40.109375 62.90625 
Q 36.140625 65.921875 28.71875 65.921875 
Q 24.65625 65.921875 20.015625 65.03125 
Q 15.375 64.15625 9.8125 62.3125 
L 9.8125 71.09375 
Q 15.4375 72.65625 20.34375 73.4375 
Q 25.25 74.21875 29.59375 74.21875 
Q 40.828125 74.21875 47.359375 69.109375 
Q 53.90625 64.015625 53.90625 55.328125 
Q 53.90625 49.265625 50.4375 45.09375 
Q 46.96875 40.921875 40.578125 39.3125 
z
" id="DejaVuSans-51"/>
       <path d="M 31 75.875 
Q 24.46875 64.65625 21.28125 53.65625 
Q 18.109375 42.671875 18.109375 31.390625 
Q 18.109375 20.125 21.3125 9.0625 
Q 24.515625 -2 31 -13.1875 
L 23.1875 -13.1875 
Q 15.875 -1.703125 12.234375 9.375 
Q 8.59375 20.453125 8.59375 31.390625 
Q 8.59375 42.28125 12.203125 53.3125 
Q 15.828125 64.359375 23.1875 75.875 
z
" id="DejaVuSans-40"/>
       <path d="M 18.109375 8.203125 
L 18.109375 -20.796875 
L 9.078125 -20.796875 
L 9.078125 54.6875 
L 18.109375 54.6875 
L 18.109375 46.390625 
Q 20.953125 51.265625 25.265625 53.625 
Q 29.59375 56 35.59375 56 
Q 45.5625 56 51.78125 48.09375 
Q 58.015625 40.1875 58.015625 27.296875 
Q 58.015625 14.40625 51.78125 6.484375 
Q 45.5625 -1.421875 35.59375 -1.421875 
Q 29.59375 -1.421875 25.265625 0.953125 
Q 20.953125 3.328125 18.109375 8.203125 
z
M 48.6875 27.296875 
Q 48.6875 37.203125 44.609375 42.84375 
Q 40.53125 48.484375 33.40625 48.484375 
Q 26.265625 48.484375 22.1875 42.84375 
Q 18.109375 37.203125 18.109375 27.296875 
Q 18.109375 17.390625 22.1875 11.75 
Q 26.265625 6.109375 33.40625 6.109375 
Q 40.53125 6.109375 44.609375 11.75 
Q 48.6875 17.390625 48.6875 27.296875 
z
" id="DejaVuSans-112"/>
       <path d="M 52 44.1875 
Q 55.375 50.25 60.0625 53.125 
Q 64.75 56 71.09375 56 
Q 79.640625 56 84.28125 50.015625 
Q 88.921875 44.046875 88.921875 33.015625 
L 88.921875 0 
L 79.890625 0 
L 79.890625 32.71875 
Q 79.890625 40.578125 77.09375 44.375 
Q 74.3125 48.1875 68.609375 48.1875 
Q 61.625 48.1875 57.5625 43.546875 
Q 53.515625 38.921875 53.515625 30.90625 
L 53.515625 0 
L 44.484375 0 
L 44.484375 32.71875 
Q 44.484375 40.625 41.703125 44.40625 
Q 38.921875 48.1875 33.109375 48.1875 
Q 26.21875 48.1875 22.15625 43.53125 
Q 18.109375 38.875 18.109375 30.90625 
L 18.109375 0 
L 9.078125 0 
L 9.078125 54.6875 
L 18.109375 54.6875 
L 18.109375 46.1875 
Q 21.1875 51.21875 25.484375 53.609375 
Q 29.78125 56 35.6875 56 
Q 41.65625 56 45.828125 52.96875 
Q 50 49.953125 52 44.1875 
z
" id="DejaVuSans-109"/>
       <path d="M 8.015625 75.875 
L 15.828125 75.875 
Q 23.140625 64.359375 26.78125 53.3125 
Q 30.421875 42.28125 30.421875 31.390625 
Q 30.421875 20.453125 26.78125 9.375 
Q 23.140625 -1.703125 15.828125 -13.1875 
L 8.015625 -13.1875 
Q 14.5 -2 17.703125 9.0625 
Q 20.90625 20.125 20.90625 31.390625 
Q 20.90625 42.671875 17.703125 53.65625 
Q 14.5 64.65625 8.015625 75.875 
z
" id="DejaVuSans-41"/>
      </defs>
      <use xlink:href="#DejaVuSans-79"/>
      <use x="78.710938" xlink:href="#DejaVuSans-51"/>
      <use x="142.333984" xlink:href="#DejaVuSans-40"/>
      <use x="181.347656" xlink:href="#DejaVuSans-112"/>
      <use x="244.824219" xlink:href="#DejaVuSans-112"/>
      <use x="308.300781" xlink:href="#DejaVuSans-109"/>
      <use x="405.712891" xlink:href="#DejaVuSans-41"/>
     </g>
    </g>
   </g>
   <g id="line2d_16">
    <path clip-path="url(#pf82afcfeb2)" d="M 138.436364 326.056941 
L 139.270237 349.341233 
L 140.10411 378.155433 
L 140.937983 350.437035 
L 141.771856 335.5988 
L 142.605729 338.263319 
L 143.439601 395.649341 
L 144.273474 331.658704 
L 145.107347 287.311663 
L 146.775093 365.293234 
L 147.608966 331.919182 
L 148.442839 380.131469 
L 149.276712 280.431465 
L 150.110585 277.335675 
L 150.944458 343.227497 
L 151.778331 359.616621 
L 152.612204 364.631561 
L 153.446077 395.595449 
L 154.27995 386.724244 
L 155.113823 348.401119 
L 155.947696 343.14666 
L 156.781569 360.853141 
L 157.615442 365.152516 
L 158.449315 355.469939 
L 159.283188 379.700334 
L 160.117061 324.652758 
L 160.950934 304.21276 
L 161.784807 266.56029 
L 162.61868 239.258057 
L 163.452553 287.973336 
L 164.286426 319.039019 
L 165.120299 275.8776 
L 165.954172 338.248485 
L 167.621918 375.433892 
L 168.455791 277.039269 
L 169.289664 335.068863 
L 170.123537 327.859326 
L 170.95741 312.997139 
L 171.791283 353.721447 
L 172.625156 371.014757 
L 173.459029 377.532682 
L 174.292902 404.367851 
L 175.126775 399.517581 
L 175.960648 408.382798 
L 176.794521 354.966948 
L 177.628394 254.988503 
L 179.296139 325.062935 
L 180.130012 336.649692 
L 180.963885 338.613752 
L 181.797758 273.907551 
L 182.631631 247.614295 
L 183.465504 265.365686 
L 184.299377 355.413054 
L 185.13325 398.514023 
L 185.967123 331.464094 
L 186.800996 314.18276 
L 187.634869 373.808153 
L 188.468742 345.703531 
L 189.302615 348.790338 
L 190.136488 277.745852 
L 190.970361 351.083738 
L 191.804234 374.50276 
L 192.638107 274.278807 
L 194.305853 405.766047 
L 195.139726 423.349774 
L 195.973599 283.620068 
L 196.807472 304.844493 
L 197.641345 334.829344 
L 198.475218 410.451647 
L 199.309091 282.401513 
L 200.142964 240.500565 
L 200.976837 213.659408 
L 201.81071 267.030347 
L 202.644583 351.389125 
L 203.478456 422.385708 
L 204.312329 407.843879 
L 205.146202 386.787118 
L 205.980075 411.607329 
L 206.813948 409.197164 
L 207.647821 287.557171 
L 208.481694 300.221766 
L 209.315567 371.637508 
L 210.14944 412.99018 
L 210.983313 420.915657 
L 211.817186 343.422107 
L 212.651059 415.379762 
L 213.484932 442.996364 
L 214.318804 439.188003 
L 215.152677 352.414432 
L 215.98655 355.071738 
L 216.820423 400.951704 
L 217.654296 400.604401 
L 218.488169 359.592669 
L 219.322042 415.047428 
L 221.823661 231.093435 
L 222.657534 347.191546 
L 223.491407 267.165077 
L 224.32528 213.419888 
L 225.159153 256.587295 
L 225.993026 258.207046 
L 226.826899 309.865421 
L 227.660772 336.167659 
L 228.494645 357.892081 
L 229.328518 401.014578 
L 230.162391 422.888699 
L 230.996264 430.523384 
L 231.830137 390.766136 
L 232.66401 408.538485 
L 233.497883 393.475701 
L 234.331756 384.6524 
L 235.165629 230.910802 
L 235.999502 276.488374 
L 236.833375 278.68896 
L 237.667248 252.98103 
L 238.501121 271.66505 
L 239.334994 378.631478 
L 240.168867 395.302037 
L 241.00274 398.784052 
L 241.836613 408.757047 
L 242.670486 417.37975 
L 243.504359 428.295852 
L 244.338232 428.185075 
L 245.172105 429.753928 
L 246.005978 429.002435 
L 246.839851 416.418678 
L 247.673724 411.706131 
L 248.507597 317.060125 
L 249.341469 267.796809 
L 250.175342 324.236593 
L 251.009215 367.895015 
L 251.843088 393.146361 
L 252.676961 383.592526 
L 253.510834 379.796142 
L 254.344707 363.586657 
L 255.17858 343.910128 
L 256.012453 385.511676 
L 256.846326 365.772273 
L 258.514072 342.257443 
L 259.347945 383.637436 
L 260.181818 385.581437 
L 261.015691 360.841165 
L 261.849564 361.158528 
L 262.683437 369.700393 
L 263.51731 392.820016 
L 264.351183 394.415815 
L 265.185056 405.616347 
L 266.018929 408.27202 
L 267.686675 400.840926 
L 268.520548 395.254133 
L 269.354421 397.670287 
L 270.188294 389.568538 
L 271.022167 391.026614 
L 271.85604 397.802022 
L 272.689913 400.272067 
L 273.523786 403.173248 
L 275.191532 376.649454 
L 276.025405 376.832087 
L 276.859278 397.74813 
L 277.693151 402.383732 
L 278.527024 401.999602 
L 279.360897 399.535545 
L 280.19477 401.529545 
L 281.028643 402.772053 
L 282.696389 396.7661 
L 283.530262 397.77807 
L 284.364134 396.601431 
L 285.198007 402.385827 
L 286.03188 406.792987 
L 286.865753 404.182224 
L 287.699626 397.11041 
L 288.533499 397.604419 
L 289.367372 398.673275 
L 290.201245 394.128392 
L 291.035118 397.134362 
L 291.868991 396.269097 
L 292.702864 399.233152 
L 293.536737 395.891854 
L 294.37061 398.912794 
L 295.204483 398.373875 
L 296.038356 399.077464 
L 296.872229 397.325977 
L 297.706102 407.418731 
L 298.539975 402.281038 
L 299.373848 401.307989 
L 300.207721 399.562491 
L 301.041594 388.793094 
L 301.875467 399.460695 
L 302.70934 400.619371 
L 303.543213 407.478611 
L 304.377086 406.604365 
L 305.210959 401.831938 
L 306.044832 404.984206 
L 306.878705 394.038821 
L 307.712578 397.209211 
L 308.546451 398.709951 
L 309.380324 396.712208 
L 310.214197 395.586467 
L 311.04807 397.230169 
L 311.881943 401.367869 
L 312.715816 403.360996 
L 313.549689 383.517676 
L 314.383562 384.885932 
L 315.217435 390.61943 
L 316.051308 383.325063 
L 316.885181 384.538628 
L 317.719054 390.394881 
L 318.552927 393.278097 
L 319.3868 407.610347 
L 320.220672 407.233104 
L 321.054545 404.942698 
L 321.888418 400.652305 
L 322.722291 399.670275 
L 323.556164 401.94571 
L 324.390037 406.472629 
L 325.22391 395.349941 
L 326.057783 404.272044 
L 326.891656 408.390782 
L 327.725529 400.664281 
L 328.559402 389.287103 
L 329.393275 405.269044 
L 330.227148 386.682328 
L 331.061021 395.7691 
L 331.894894 399.388839 
L 332.728767 380.382965 
L 333.56264 355.799279 
L 334.396513 378.853034 
L 335.230386 370.386018 
L 336.064259 374.005757 
L 336.898132 384.613478 
L 337.732005 349.955002 
L 338.565878 291.916426 
L 339.399751 277.182981 
L 340.233624 267.039329 
L 341.067497 332.278461 
L 343.569116 324.45216 
L 344.402989 355.206468 
L 345.236862 348.957254 
L 346.070735 347.589747 
L 346.904608 396.050536 
L 347.738481 397.939746 
L 348.572354 390.849968 
L 349.406227 400.092428 
L 350.2401 406.99059 
L 351.907846 322.835403 
L 352.741719 344.754434 
L 353.575592 397.82298 
L 354.409465 406.658257 
L 355.243337 412.831873 
L 356.07721 411.041464 
L 356.911083 406.942686 
L 357.744956 399.676263 
L 358.578829 385.065571 
L 359.412702 341.209545 
L 360.246575 350.841224 
L 361.080448 327.902738 
L 361.914321 322.850373 
L 362.748194 241.877802 
L 363.582067 274.599164 
L 364.41594 355.269342 
L 365.249813 335.215569 
L 366.083686 329.320395 
L 366.917559 248.596325 
L 367.751432 224.222219 
L 368.585305 260.123202 
L 369.419178 234.832934 
L 370.253051 284.79072 
L 371.086924 268.027347 
L 371.920797 283.395519 
L 372.75467 262.320794 
L 373.588543 224.62042 
L 374.422416 136.02514 
L 375.256289 118.423449 
L 376.090162 144.34545 
L 376.924035 296.422387 
L 377.757908 297.928366 
L 378.591781 229.135363 
L 379.425654 212.37199 
L 380.259527 255.641193 
L 381.0934 245.533469 
L 381.927273 259.937575 
L 382.761146 228.734168 
L 383.595019 231.776066 
L 384.428892 231.520229 
L 385.262765 189.554761 
L 386.096638 170.7914 
L 386.930511 175.4024 
L 387.764384 195.946938 
L 388.598257 212.401306 
L 389.43213 298.06609 
L 390.266002 280.90751 
L 391.099875 282.377561 
L 391.933748 244.838862 
L 392.767621 159.695658 
L 393.601494 199.087638 
L 394.435367 203.072644 
L 395.26924 201.860077 
L 396.103113 215.988735 
L 396.936986 151.914267 
L 397.770859 117.00467 
L 398.604732 99.660087 
L 399.438605 86.923636 
L 400.272478 142.073008 
L 401.106351 183.453001 
L 401.940224 153.273353 
L 402.774097 230.689246 
L 403.60797 270.937509 
L 404.441843 339.867488 
L 405.275716 318.966346 
L 406.109589 342.044461 
L 406.943462 384.808088 
L 407.777335 415.993531 
L 408.611208 415.592335 
L 409.445081 382.065589 
L 410.278954 366.679453 
L 411.112827 404.170248 
L 411.9467 339.658184 
L 412.780573 311.122898 
L 413.614446 247.551421 
L 414.448319 315.251616 
L 415.282192 276.072209 
L 416.116065 290.287693 
L 416.949938 300.085414 
L 417.783811 306.886397 
L 418.617684 303.134922 
L 419.451557 317.643818 
L 420.28543 319.131833 
L 421.119303 320.922241 
L 421.953176 300.89242 
L 422.787049 293.547554 
L 423.620922 282.260795 
L 424.454795 350.443023 
L 425.288667 350.996912 
L 426.12254 379.150722 
L 426.956413 386.388372 
L 427.790286 317.180221 
L 428.624159 411.09835 
L 429.458032 417.622862 
L 430.291905 414.62278 
L 431.125778 430.233109 
L 431.959651 411.858825 
L 432.793524 378.637466 
L 433.627397 289.602069 
L 434.46127 239.419733 
L 435.295143 337.284419 
L 436.129016 396.646341 
L 436.962889 383.936836 
L 437.796762 377.490766 
L 438.630635 289.03321 
L 439.464508 285.048204 
L 440.298381 316.53604 
L 441.132254 353.670549 
L 441.966127 284.042222 
L 443.633873 312.257622 
L 444.467746 362.05972 
L 445.301619 269.862665 
L 446.135492 352.425047 
L 446.969365 321.937205 
L 447.803238 307.691781 
L 448.637111 331.31427 
L 449.470984 344.97599 
L 450.304857 352.419059 
L 451.13873 352.457981 
L 452.806476 333.622764 
L 453.640349 394.685274 
L 454.474222 370.670448 
L 455.308095 393.203247 
L 456.141968 364.050727 
L 456.975841 211.518702 
L 457.809714 290.461345 
L 458.643587 356.44376 
L 459.47746 354.643597 
L 460.311333 366.522768 
L 461.145205 362.047744 
L 461.979078 324.163539 
L 462.812951 318.134833 
L 463.646824 317.970163 
L 464.480697 280.84763 
L 465.31457 325.883289 
L 466.148443 249.305902 
L 466.982316 252.689115 
L 467.816189 254.826827 
L 468.650062 300.081048 
L 469.483935 361.185474 
L 470.317808 257.533398 
L 471.151681 233.964676 
L 471.985554 293.332585 
L 472.819427 321.170743 
L 473.6533 360.565717 
L 474.487173 315.34443 
L 475.321046 300.943318 
L 476.154919 277.428489 
L 476.988792 330.826374 
L 477.822665 338.90417 
L 478.656538 310.844457 
L 479.490411 339.266443 
L 480.324284 308.347466 
L 481.158157 312.20373 
L 481.99203 302.26367 
L 482.825903 267.61717 
L 483.659776 257.940581 
L 484.493649 258.53938 
L 485.327522 268.853689 
L 486.161395 232.261093 
L 486.995268 307.30855 
L 487.829141 310.577991 
L 488.663014 275.521314 
L 489.496887 346.005924 
L 490.33076 400.352905 
L 491.164633 427.122207 
L 491.998506 369.859075 
L 492.832379 387.358971 
L 493.666252 340.296377 
L 494.500125 349.605703 
L 495.333998 398.095434 
L 496.16787 417.619269 
L 497.001743 403.607377 
L 497.835616 429.55333 
L 498.669489 336.946098 
L 499.503362 298.054114 
L 500.337235 311.069007 
L 501.171108 300.838529 
L 502.004981 331.958104 
L 503.672727 210.267212 
L 504.5066 286.880528 
L 505.340473 335.125749 
L 506.174346 370.960865 
L 507.008219 381.490742 
L 507.842092 374.173421 
L 508.675965 390.653113 
L 509.509838 390.981704 
L 510.343711 284.931438 
L 511.177584 351.706489 
L 512.011457 330.925176 
L 512.84533 284.185933 
L 513.679203 255.892689 
L 514.513076 368.898003 
L 515.346949 403.218158 
L 516.180822 414.876771 
L 517.014695 413.939651 
L 517.848568 434.50839 
L 519.516314 427.083285 
L 520.350187 431.550324 
L 521.18406 416.876759 
L 522.017933 398.577467 
L 522.851806 279.461411 
L 523.685679 281.644032 
L 524.519552 331.239545 
L 525.353425 389.329019 
L 526.187298 234.886826 
L 527.021171 220.156375 
L 527.855044 336.446101 
L 528.688917 368.829141 
L 529.52279 338.02693 
L 530.356663 336.407179 
L 531.190535 330.236557 
L 532.024408 387.799088 
L 532.858281 185.111674 
L 533.692154 177.270403 
L 534.526027 241.264033 
L 537.027646 364.598627 
L 537.861519 322.215647 
L 538.695392 312.640853 
L 539.529265 338.425131 
L 540.363138 384.134439 
L 541.197011 406.91574 
L 542.030884 309.086982 
L 542.864757 322.841391 
L 543.69863 252.497499 
L 544.532503 338.455071 
L 545.366376 340.787392 
L 546.200249 418.709083 
L 547.034122 298.437345 
L 547.867995 321.302478 
L 548.701868 381.823076 
L 549.535741 418.691119 
L 550.369614 410.951645 
L 551.203487 427.43957 
L 552.03736 426.834783 
L 552.871233 426.738976 
L 553.705106 429.397642 
L 554.538979 428.607228 
L 555.372852 421.960561 
L 556.206725 419.101297 
L 557.040598 429.376684 
L 557.874471 426.610234 
L 558.708344 420.050393 
L 559.542217 420.855777 
L 560.37609 429.939555 
L 561.209963 425.990477 
L 562.043836 416.271972 
L 562.877709 418.044417 
L 563.711582 423.837795 
L 564.545455 427.691066 
L 565.379328 428.463516 
L 566.2132 427.583282 
L 567.047073 422.777921 
L 567.880946 414.748029 
L 569.548692 416.706101 
L 570.382565 431.063551 
L 571.216438 430.918591 
L 572.050311 398.918782 
L 572.884184 340.607753 
L 573.718057 258.353752 
L 574.55193 312.224688 
L 575.385803 353.20648 
L 576.219676 400.224164 
L 577.053549 422.691095 
L 577.887422 417.595317 
L 578.721295 409.340876 
L 579.555168 426.505444 
L 580.389041 424.828807 
L 581.222914 418.319864 
L 582.056787 418.49651 
L 582.89066 414.349828 
L 583.724533 408.011542 
L 585.392279 387.047595 
L 586.226152 397.544539 
L 587.060025 397.346935 
L 587.893898 417.203104 
L 588.727771 414.858807 
L 589.561644 426.014429 
L 590.395517 421.697089 
L 591.22939 405.487605 
L 592.063263 416.768975 
L 592.897136 411.799444 
L 593.731009 413.771987 
L 594.564882 409.304948 
L 595.398755 409.664227 
L 596.232628 409.106528 
L 597.066501 401.601401 
L 597.900374 424.340786 
L 598.734247 427.032387 
L 599.56812 415.379762 
L 600.401993 421.23065 
L 601.235866 412.092356 
L 602.069738 419.628239 
L 602.903611 418.595312 
L 603.737484 427.691066 
L 605.40523 422.442594 
L 606.239103 409.011536 
L 607.906849 357.628609 
L 608.740722 389.978716 
L 609.574595 393.10744 
L 610.408468 359.633712 
L 611.242341 386.712268 
L 612.076214 410.125302 
L 612.910087 279.045245 
L 613.74396 244.473595 
L 614.577833 235.635325 
L 615.411706 325.218623 
L 616.245579 224.94976 
L 617.079452 315.637842 
L 617.913325 380.472784 
L 618.747198 383.017679 
L 619.581071 363.676477 
L 620.414944 369.314168 
L 621.248817 362.960913 
L 622.08269 357.478909 
L 622.916563 271.868641 
L 623.750436 337.0449 
L 624.584309 361.913015 
L 625.418182 354.32324 
L 626.252055 364.164498 
L 627.085928 382.972769 
L 627.919801 404.721143 
L 628.753674 398.757106 
L 629.587547 404.487611 
L 630.42142 398.050524 
L 631.255293 406.343888 
L 632.089166 411.080386 
L 632.923039 418.712077 
L 633.756912 403.529533 
L 634.590785 397.299031 
L 635.424658 400.790028 
L 636.258531 407.02053 
L 637.092403 407.478611 
L 637.926276 405.167248 
L 638.760149 413.538455 
L 639.594022 418.143343 
L 640.427895 419.733029 
L 641.261768 401.376851 
L 642.095641 428.304834 
L 644.59726 406.197182 
L 645.431133 383.053607 
L 646.265006 430.232967 
L 647.098879 422.412654 
L 647.932752 418.547408 
L 648.766625 419.978537 
L 649.600498 410.801945 
L 650.434371 390.882902 
L 651.268244 393.278097 
L 652.102117 426.313828 
L 652.93599 311.787565 
L 653.769863 355.038804 
L 654.603736 377.73328 
L 655.437609 324.176713 
L 656.271482 383.379953 
L 657.105355 425.391678 
L 658.773101 348.338245 
L 659.606974 330.835356 
L 660.440847 276.871606 
L 661.27472 425.52042 
L 662.108593 411.535473 
L 662.942466 393.610431 
L 663.776339 388.400881 
L 664.610212 420.068357 
L 665.444085 378.562616 
L 666.277958 321.497088 
L 667.111831 298.778661 
L 667.945704 247.03346 
L 668.779577 203.524738 
L 669.61345 207.674413 
L 671.281196 282.203909 
L 672.115068 302.081036 
L 672.948941 301.13194 
L 673.782814 276.006341 
L 674.616687 283.575158 
L 675.45056 272.653068 
L 676.284433 336.524818 
L 677.118306 383.436839 
L 677.952179 357.023822 
L 678.786052 397.918788 
L 679.619925 343.317467 
L 680.453798 357.026816 
L 681.287671 360.838171 
L 682.121544 357.251366 
L 682.955417 404.772041 
L 683.78929 342.224509 
L 684.623163 330.362305 
L 685.457036 272.180017 
L 686.290909 321.166961 
L 687.124782 292.79666 
L 687.958655 384.873956 
L 688.792528 372.380018 
L 689.626401 381.278169 
L 690.460274 306.943283 
L 691.294147 259.09252 
L 692.12802 233.791024 
L 692.961893 301.209784 
L 693.795766 251.408684 
L 694.629639 215.985741 
L 695.463512 312.15882 
L 696.297385 286.05718 
L 697.131258 217.500702 
L 697.965131 242.629295 
L 698.799004 250.686133 
L 699.632877 252.189118 
L 700.46675 296.797834 
L 701.300623 367.586634 
L 702.134496 343.299353 
L 702.968369 358.275312 
L 703.802242 278.188963 
L 704.636115 268.43478 
L 705.469988 355.395838 
L 706.303861 298.556107 
L 707.137733 267.163704 
L 707.971606 336.103039 
L 709.639352 270.67279 
L 710.473225 279.570317 
L 711.307098 290.948958 
L 712.140971 297.124615 
L 712.974844 281.590004 
L 713.808717 319.254314 
L 714.64259 346.489182 
L 715.476463 329.902863 
L 716.310336 280.957727 
L 717.144209 267.241696 
L 717.978082 242.560977 
L 718.811955 237.621704 
L 719.645828 206.061059 
L 720.479701 169.19492 
L 721.313574 218.565747 
L 722.147447 207.497768 
L 722.98132 247.043259 
L 723.815193 240.529552 
L 724.649066 293.130627 
L 725.482939 203.212682 
L 726.316812 228.444295 
L 727.150685 290.585868 
L 727.984558 220.1527 
L 728.818431 246.476713 
L 729.652304 278.09683 
L 730.486177 283.565088 
L 731.32005 201.284549 
L 732.153923 199.732027 
L 732.987796 284.256836 
L 734.655542 366.887944 
L 735.489415 302.007547 
L 736.323288 180.785624 
L 737.157161 230.46007 
L 737.991034 313.180072 
L 738.824907 356.740209 
L 739.65878 253.475583 
L 740.492653 404.480262 
L 742.160399 284.504113 
L 742.994271 383.505564 
L 743.828144 404.264286 
L 744.662017 404.849612 
L 745.49589 391.662565 
L 746.329763 340.986493 
L 747.163636 354.464638 
L 747.163636 354.464638 
" style="fill:none;stroke:#1f77b4;stroke-linecap:square;stroke-width:1.5;"/>
   </g>
   <g id="line2d_17">
    <path clip-path="url(#pf82afcfeb2)" d="M 138.436364 324.976855 
L 139.270237 321.918237 
L 140.10411 385.793161 
L 140.937983 369.425116 
L 141.771856 308.064729 
L 142.605729 356.244207 
L 143.439601 354.603778 
L 144.273474 371.377424 
L 145.107347 281.443471 
L 145.94122 343.865319 
L 146.775093 340.822213 
L 147.608966 385.235885 
L 148.442839 337.472291 
L 149.276712 298.864653 
L 150.110585 282.729303 
L 150.944458 322.538529 
L 151.778331 373.368768 
L 152.612204 351.883774 
L 153.446077 364.520402 
L 154.27995 372.210238 
L 155.113823 370.366183 
L 155.947696 319.21811 
L 156.781569 364.038658 
L 157.615442 363.478418 
L 158.449315 354.341283 
L 159.283188 387.829022 
L 160.117061 331.737169 
L 160.950934 320.293329 
L 161.784807 271.686459 
L 162.61868 238.173751 
L 163.452553 247.078376 
L 164.286426 335.926117 
L 165.120299 267.883994 
L 166.788045 376.699164 
L 167.621918 390.407843 
L 168.455791 261.796356 
L 169.289664 332.066426 
L 170.123537 351.167278 
L 170.95741 316.244508 
L 171.791283 333.451671 
L 172.625156 369.340102 
L 173.459029 385.394295 
L 174.292902 382.983907 
L 175.126775 395.968582 
L 176.794521 374.303191 
L 177.628394 300.307451 
L 178.462267 245.949203 
L 179.296139 312.747237 
L 180.130012 351.900079 
L 180.963885 309.17551 
L 181.797758 322.364481 
L 182.631631 230.260455 
L 183.465504 257.807619 
L 184.299377 332.46331 
L 185.13325 382.350943 
L 185.967123 374.403281 
L 186.800996 281.283515 
L 187.634869 372.855399 
L 188.468742 341.741044 
L 189.302615 365.983834 
L 190.136488 297.279926 
L 190.970361 328.863859 
L 191.804234 396.221224 
L 192.638107 268.853555 
L 193.47198 313.759864 
L 194.305853 382.963187 
L 195.139726 410.24216 
L 195.973599 323.818187 
L 196.807472 284.381426 
L 197.641345 309.970692 
L 198.475218 402.631536 
L 200.142964 241.89119 
L 200.976837 219.608015 
L 201.81071 288.61544 
L 202.644583 336.284662 
L 203.478456 400.381752 
L 204.312329 425.255404 
L 205.146202 362.550633 
L 205.980075 397.855381 
L 206.813948 414.260304 
L 207.647821 291.883845 
L 208.481694 306.657858 
L 209.315567 361.271313 
L 210.14944 400.109471 
L 210.983313 422.508463 
L 211.817186 334.617448 
L 212.651059 380.396661 
L 213.484932 442.576845 
L 214.318804 437.325776 
L 215.152677 375.220699 
L 215.98655 322.637099 
L 216.820423 420.668074 
L 217.654296 379.249586 
L 218.488169 372.613409 
L 219.322042 424.830466 
L 220.155915 377.761253 
L 220.989788 305.06571 
L 221.823661 257.031755 
L 223.491407 332.645375 
L 224.32528 191.523585 
L 225.159153 280.66864 
L 225.993026 260.611492 
L 226.826899 296.370003 
L 227.660772 341.918428 
L 228.494645 358.237284 
L 229.328518 389.459417 
L 230.996264 421.98874 
L 231.830137 377.082958 
L 232.66401 381.037692 
L 233.497883 394.223237 
L 234.331756 382.62538 
L 235.165629 292.01538 
L 235.999502 253.952144 
L 236.833375 295.739033 
L 237.667248 251.652685 
L 238.501121 277.416575 
L 240.168867 399.245499 
L 241.00274 394.188741 
L 241.836613 397.641934 
L 242.670486 409.360322 
L 244.338232 422.066968 
L 246.005978 424.981426 
L 246.839851 420.607174 
L 247.673724 390.907419 
L 248.507597 371.763578 
L 249.341469 265.90849 
L 250.175342 288.940004 
L 251.009215 362.944887 
L 251.843088 391.334225 
L 252.676961 383.907409 
L 253.510834 384.290715 
L 254.344707 370.319148 
L 255.17858 363.304149 
L 256.012453 360.01845 
L 256.846326 365.280189 
L 257.680199 367.425943 
L 258.514072 359.178539 
L 259.347945 367.946378 
L 260.181818 392.134105 
L 261.015691 384.070269 
L 261.849564 365.654138 
L 262.683437 350.711045 
L 263.51731 385.932062 
L 264.351183 398.899709 
L 265.185056 396.415585 
L 266.018929 401.542008 
L 266.852802 403.078178 
L 268.520548 397.286805 
L 269.354421 378.075234 
L 270.188294 391.785227 
L 271.022167 378.610226 
L 271.85604 394.829403 
L 272.689913 399.709842 
L 273.523786 400.292091 
L 274.357659 393.216402 
L 275.191532 370.962105 
L 276.025405 380.106823 
L 276.859278 387.644581 
L 277.693151 400.983961 
L 278.527024 402.377995 
L 279.360897 398.402339 
L 280.19477 402.26861 
L 281.028643 401.487471 
L 281.862516 398.234591 
L 282.696389 398.921167 
L 283.530262 388.504778 
L 284.364134 398.295873 
L 285.198007 398.462127 
L 286.03188 399.45563 
L 286.865753 401.176434 
L 287.699626 399.152087 
L 288.533499 386.589247 
L 289.367372 395.656128 
L 290.201245 395.385828 
L 291.035118 390.843745 
L 291.868991 388.870245 
L 292.702864 398.822609 
L 293.536737 397.299052 
L 294.37061 396.45828 
L 295.204483 396.155952 
L 296.038356 398.264603 
L 296.872229 396.448178 
L 297.706102 401.528262 
L 298.539975 397.90283 
L 299.373848 399.516296 
L 300.207721 397.027501 
L 301.041594 384.430049 
L 301.875467 397.646973 
L 302.70934 400.46089 
L 303.543213 407.196163 
L 304.377086 408.984234 
L 305.210959 401.123469 
L 306.044832 402.298073 
L 306.878705 397.128136 
L 307.712578 385.20988 
L 308.546451 387.47995 
L 309.380324 394.192822 
L 310.214197 388.050225 
L 311.04807 397.511724 
L 311.881943 401.965325 
L 312.715816 402.003467 
L 313.549689 382.359285 
L 314.383562 383.767772 
L 315.217435 382.663609 
L 316.885181 369.878336 
L 317.719054 380.503218 
L 319.3868 398.788954 
L 320.220672 400.020825 
L 321.054545 397.921117 
L 321.888418 393.539341 
L 322.722291 395.688041 
L 323.556164 392.931048 
L 324.390037 401.564221 
L 325.22391 395.505517 
L 326.057783 400.446724 
L 326.891656 402.120748 
L 327.725529 400.463452 
L 328.559402 382.501937 
L 329.393275 388.526184 
L 330.227148 384.055253 
L 331.061021 381.078893 
L 331.894894 399.178466 
L 332.728767 384.477244 
L 333.56264 348.052832 
L 334.396513 387.757884 
L 335.230386 345.284016 
L 336.064259 351.372826 
L 336.898132 371.917146 
L 337.732005 365.302165 
L 338.565878 316.928563 
L 339.399751 246.502551 
L 340.233624 263.963948 
L 341.067497 276.548982 
L 343.569116 338.499758 
L 344.402989 321.70063 
L 345.236862 359.212714 
L 346.070735 359.281392 
L 346.904608 362.75111 
L 347.738481 389.386714 
L 348.572354 399.59597 
L 349.406227 389.493066 
L 350.2401 401.833808 
L 351.073973 381.844991 
L 351.907846 322.921268 
L 352.741719 324.109981 
L 354.409465 407.296092 
L 355.243337 398.751847 
L 356.07721 407.082502 
L 356.911083 398.379287 
L 357.744956 397.969124 
L 358.578829 381.774928 
L 359.412702 348.981537 
L 360.246575 355.515356 
L 361.080448 353.444791 
L 361.914321 326.109348 
L 362.748194 230.006918 
L 363.582067 261.081368 
L 364.41594 343.270315 
L 365.249813 329.653628 
L 366.083686 346.015134 
L 366.917559 278.315319 
L 367.751432 222.087803 
L 368.585305 246.152298 
L 369.419178 240.500675 
L 370.253051 283.54064 
L 371.086924 275.528633 
L 371.920797 265.056773 
L 372.75467 274.932905 
L 375.256289 123.384173 
L 376.090162 129.461239 
L 376.924035 258.772698 
L 377.757908 305.197858 
L 379.425654 207.454745 
L 380.259527 278.18772 
L 381.0934 285.128062 
L 383.595019 225.555423 
L 384.428892 228.762481 
L 385.262765 191.108592 
L 386.096638 191.442053 
L 386.930511 173.741111 
L 387.764384 189.652921 
L 388.598257 215.850183 
L 390.266002 296.802264 
L 391.099875 310.775896 
L 391.933748 245.891796 
L 392.767621 197.433839 
L 393.601494 187.187092 
L 394.435367 185.391802 
L 395.26924 191.526849 
L 396.103113 187.754086 
L 396.936986 201.440216 
L 397.770859 123.761106 
L 398.604732 118.156637 
L 399.438605 129.178081 
L 400.272478 125.010822 
L 401.106351 170.080506 
L 401.940224 157.734275 
L 402.774097 192.065415 
L 403.60797 267.089117 
L 404.441843 329.580973 
L 405.275716 316.353981 
L 406.109589 319.716978 
L 407.777335 402.574023 
L 408.611208 414.114548 
L 409.445081 394.165297 
L 410.278954 345.281894 
L 411.112827 377.89504 
L 411.9467 404.559383 
L 412.780573 294.342503 
L 413.614446 273.802291 
L 414.448319 311.223243 
L 415.282192 296.716298 
L 416.116065 248.863034 
L 416.949938 306.67206 
L 417.783811 310.646071 
L 418.617684 297.930369 
L 419.451557 307.734459 
L 420.28543 322.748556 
L 421.119303 318.545721 
L 421.953176 320.948692 
L 422.787049 308.38694 
L 423.620922 288.585988 
L 425.288667 363.35412 
L 426.12254 337.984263 
L 426.956413 379.882925 
L 427.790286 317.197377 
L 428.624159 350.260187 
L 429.458032 396.052874 
L 430.291905 407.587539 
L 431.125778 401.053094 
L 431.959651 402.024998 
L 432.793524 371.512435 
L 434.46127 236.898029 
L 435.295143 297.629853 
L 436.129016 384.913467 
L 436.962889 374.350502 
L 437.796762 377.288943 
L 438.630635 242.327897 
L 439.464508 324.057891 
L 440.298381 327.623414 
L 441.132254 290.813933 
L 441.966127 297.441402 
L 442.8 276.023266 
L 444.467746 334.214671 
L 445.301619 310.909545 
L 446.135492 319.287887 
L 446.969365 333.808431 
L 447.803238 281.732895 
L 448.637111 305.801751 
L 449.470984 364.245806 
L 450.304857 324.886251 
L 451.13873 339.153306 
L 451.972603 333.207355 
L 452.806476 305.653407 
L 453.640349 369.246394 
L 454.474222 376.869308 
L 455.308095 366.753417 
L 456.141968 376.60135 
L 456.975841 233.480732 
L 457.809714 272.908365 
L 458.643587 323.614395 
L 459.47746 319.513131 
L 460.311333 333.637967 
L 461.145205 337.552965 
L 461.979078 323.993867 
L 462.812951 343.469578 
L 463.646824 279.408747 
L 464.480697 338.474025 
L 465.31457 305.263097 
L 466.148443 253.092713 
L 466.982316 246.409669 
L 467.816189 226.478828 
L 468.650062 294.31543 
L 469.483935 332.680017 
L 470.317808 323.310426 
L 471.151681 182.892552 
L 471.985554 297.979234 
L 472.819427 283.729188 
L 473.6533 327.683522 
L 474.487173 332.760349 
L 475.321046 298.609016 
L 476.154919 270.347363 
L 476.988792 321.918867 
L 477.822665 342.000932 
L 478.656538 316.679459 
L 479.490411 326.356088 
L 480.324284 327.679653 
L 481.158157 287.406397 
L 481.99203 287.984914 
L 482.825903 277.019617 
L 483.659776 246.932348 
L 484.493649 241.343975 
L 485.327522 293.680105 
L 486.161395 153.603186 
L 486.995268 274.674588 
L 487.829141 332.045415 
L 488.663014 264.571677 
L 490.33076 392.241761 
L 491.164633 416.068845 
L 491.998506 404.183287 
L 492.832379 354.632617 
L 493.666252 376.326013 
L 494.500125 326.88947 
L 496.16787 433.805761 
L 497.001743 375.332613 
L 497.835616 429.663104 
L 498.669489 372.931399 
L 499.503362 293.198946 
L 500.337235 328.765357 
L 501.171108 286.650129 
L 502.004981 333.016174 
L 502.838854 321.168077 
L 503.672727 237.044007 
L 504.5066 284.892352 
L 505.340473 322.179722 
L 506.174346 342.66517 
L 507.008219 383.50931 
L 507.842092 371.183518 
L 508.675965 386.888221 
L 509.509838 387.74595 
L 510.343711 289.836822 
L 511.177584 308.297228 
L 512.011457 355.316395 
L 513.679203 251.312944 
L 514.513076 337.701935 
L 515.346949 398.521759 
L 516.180822 396.514606 
L 517.014695 394.874966 
L 517.848568 413.856093 
L 518.682441 428.298508 
L 519.516314 417.480632 
L 520.350187 416.162392 
L 521.18406 412.164894 
L 522.017933 416.645548 
L 522.851806 296.431418 
L 523.685679 253.499491 
L 525.353425 378.980551 
L 526.187298 236.748005 
L 527.021171 194.428053 
L 527.855044 300.45362 
L 528.688917 336.241412 
L 529.52279 350.606715 
L 530.356663 330.173708 
L 531.190535 341.626429 
L 532.024408 351.03558 
L 532.858281 227.236645 
L 533.692154 171.611854 
L 534.526027 219.300838 
L 535.3599 281.879444 
L 536.193773 282.130092 
L 537.027646 334.648142 
L 537.861519 334.875357 
L 538.695392 319.815262 
L 539.529265 335.132941 
L 540.363138 367.485304 
L 541.197011 388.975189 
L 542.030884 378.803763 
L 542.864757 279.192609 
L 543.69863 224.800759 
L 544.532503 326.886884 
L 545.366376 323.187969 
L 546.200249 394.618997 
L 547.034122 321.641704 
L 547.867995 285.454277 
L 548.701868 354.862901 
L 549.535741 398.04884 
L 551.203487 416.080564 
L 552.03736 417.210549 
L 552.871233 416.070728 
L 553.705106 419.280953 
L 554.538979 418.799944 
L 555.372852 418.842838 
L 556.206725 413.018876 
L 557.040598 415.848011 
L 557.874471 415.811037 
L 558.708344 416.999543 
L 559.542217 410.005027 
L 560.37609 427.171965 
L 561.209963 414.565485 
L 562.043836 414.477113 
L 562.877709 408.56099 
L 563.711582 415.893439 
L 564.545455 416.381003 
L 565.379328 420.094246 
L 566.2132 423.164852 
L 567.047073 410.084806 
L 567.880946 403.157315 
L 568.714819 410.065673 
L 569.548692 402.720435 
L 570.382565 412.073191 
L 571.216438 430.605386 
L 572.050311 407.003513 
L 572.884184 374.920346 
L 573.718057 233.39371 
L 575.385803 329.232942 
L 576.219676 389.634558 
L 577.053549 400.64775 
L 577.887422 415.670946 
L 578.721295 399.253631 
L 579.555168 403.815061 
L 580.389041 417.612241 
L 581.222914 416.427724 
L 582.056787 412.420752 
L 582.89066 411.949064 
L 584.558406 400.019717 
L 585.392279 381.116887 
L 586.226152 384.802642 
L 587.060025 380.3061 
L 587.893898 405.943463 
L 588.727771 407.946644 
L 589.561644 414.097606 
L 590.395517 416.603816 
L 591.22939 397.179224 
L 592.063263 397.860688 
L 592.897136 405.993 
L 593.731009 408.511745 
L 594.564882 401.710067 
L 595.398755 401.558804 
L 596.232628 404.102812 
L 597.066501 392.46475 
L 597.900374 407.935406 
L 598.734247 412.908588 
L 599.56812 415.005358 
L 600.401993 407.767639 
L 601.235866 415.636618 
L 602.069738 395.707728 
L 602.903611 415.183344 
L 603.737484 418.451385 
L 604.571357 413.888176 
L 605.40523 419.173014 
L 606.239103 408.035005 
L 607.072976 384.216216 
L 607.906849 323.518801 
L 608.740722 395.987699 
L 609.574595 377.873011 
L 610.408468 363.11817 
L 611.242341 368.589242 
L 612.076214 400.319638 
L 612.910087 295.669529 
L 613.74396 210.845516 
L 614.577833 195.054004 
L 615.411706 318.327477 
L 616.245579 183.557708 
L 617.079452 284.408321 
L 618.747198 396.080344 
L 619.581071 342.054799 
L 621.248817 357.914384 
L 622.08269 348.260501 
L 622.916563 304.856234 
L 623.750436 306.089747 
L 624.584309 352.145722 
L 625.418182 343.626042 
L 626.252055 356.703581 
L 627.085928 358.011035 
L 627.919801 398.966399 
L 628.753674 391.670059 
L 629.587547 397.299688 
L 630.42142 397.247812 
L 631.255293 389.453138 
L 632.089166 394.895737 
L 632.923039 416.595919 
L 633.756912 394.549794 
L 634.590785 390.031484 
L 635.424658 399.37712 
L 636.258531 391.809562 
L 637.092403 405.405024 
L 638.760149 409.016102 
L 639.594022 409.290566 
L 640.427895 410.137626 
L 641.261768 400.946079 
L 642.095641 410.076564 
L 642.929514 415.936536 
L 643.763387 413.040176 
L 644.59726 392.251205 
L 645.431133 381.69488 
L 646.265006 411.620648 
L 647.098879 423.696748 
L 647.932752 410.590156 
L 648.766625 410.927691 
L 649.600498 405.695486 
L 650.434371 382.909554 
L 651.268244 372.052483 
L 652.102117 421.021525 
L 652.93599 286.561438 
L 653.769863 306.282275 
L 654.603736 351.443713 
L 655.437609 329.793535 
L 656.271482 345.947643 
L 657.105355 411.497928 
L 657.939228 392.65053 
L 658.773101 356.203994 
L 659.606974 306.196073 
L 660.440847 295.840236 
L 661.27472 377.358712 
L 662.108593 414.529242 
L 662.942466 381.311055 
L 663.776339 379.480158 
L 665.444085 385.488706 
L 666.277958 315.615266 
L 667.111831 306.134657 
L 667.945704 262.387043 
L 668.779577 201.965783 
L 669.61345 169.183442 
L 670.447323 206.476173 
L 671.281196 260.960453 
L 672.115068 279.126135 
L 672.948941 321.31504 
L 673.782814 229.67156 
L 674.616687 287.655591 
L 675.45056 209.017426 
L 676.284433 307.249929 
L 677.118306 387.527863 
L 677.952179 351.997735 
L 679.619925 380.184589 
L 680.453798 325.494965 
L 681.287671 364.663233 
L 682.121544 350.418238 
L 682.955417 371.06019 
L 683.78929 359.757664 
L 684.623163 312.732396 
L 685.457036 327.215346 
L 686.290909 280.443668 
L 687.124782 250.884872 
L 687.958655 353.067935 
L 688.792528 382.648301 
L 689.626401 354.420255 
L 690.460274 340.279033 
L 691.294147 290.41795 
L 692.12802 272.264263 
L 692.961893 244.786634 
L 693.795766 253.068265 
L 694.629639 239.44318 
L 695.463512 280.481762 
L 696.297385 347.151464 
L 697.131258 186.34341 
L 697.965131 275.494323 
L 698.799004 283.838547 
L 699.632877 224.584332 
L 700.46675 300.686241 
L 701.300623 332.427128 
L 702.134496 369.899046 
L 702.968369 333.926694 
L 703.802242 288.890874 
L 704.636115 290.183904 
L 705.469988 297.151999 
L 706.303861 326.7416 
L 707.137733 284.707219 
L 707.971606 299.297794 
L 708.805479 305.858451 
L 709.639352 291.643318 
L 710.473225 280.316529 
L 711.307098 258.386002 
L 712.140971 273.997771 
L 712.974844 274.414915 
L 713.808717 296.202929 
L 714.64259 347.600999 
L 715.476463 317.642839 
L 716.310336 311.833571 
L 717.144209 298.524306 
L 717.978082 239.745303 
L 718.811955 221.386111 
L 719.645828 212.825691 
L 720.479701 164.915724 
L 721.313574 149.156921 
L 722.147447 185.501269 
L 722.98132 227.283263 
L 723.815193 236.628949 
L 724.649066 263.030446 
L 725.482939 260.659531 
L 726.316812 195.191944 
L 727.150685 258.747804 
L 727.984558 234.892306 
L 728.818431 235.885872 
L 730.486177 252.561983 
L 731.32005 272.69219 
L 732.153923 172.217601 
L 732.987796 278.279204 
L 733.821669 242.891464 
L 734.655542 336.728789 
L 735.489415 323.399778 
L 736.323288 248.742995 
L 737.157161 185.971623 
L 737.991034 306.056639 
L 738.824907 359.996954 
L 739.65878 338.072407 
L 740.492653 309.583383 
L 741.326526 379.04587 
L 742.160399 311.61113 
L 742.994271 318.933801 
L 743.828144 394.26626 
L 744.662017 378.915034 
L 745.49589 382.232886 
L 746.329763 364.730291 
L 747.163636 341.322636 
L 747.163636 341.322636 
" style="fill:none;stroke:#ff0000;stroke-dasharray:5.55,2.4;stroke-dashoffset:0;stroke-width:1.5;"/>
   </g>
   <g id="patch_3">
    <path d="M 108 460.8 
L 108 69.12 
" style="fill:none;stroke:#000000;stroke-linecap:square;stroke-linejoin:miter;stroke-width:0.8;"/>
   </g>
   <g id="patch_4">
    <path d="M 777.6 460.8 
L 777.6 69.12 
" style="fill:none;stroke:#000000;stroke-linecap:square;stroke-linejoin:miter;stroke-width:0.8;"/>
   </g>
   <g id="patch_5">
    <path d="M 108 460.8 
L 777.6 460.8 
" style="fill:none;stroke:#000000;stroke-linecap:square;stroke-linejoin:miter;stroke-width:0.8;"/>
   </g>
   <g id="patch_6">
    <path d="M 108 69.12 
L 777.6 69.12 
" style="fill:none;stroke:#000000;stroke-linecap:square;stroke-linejoin:miter;stroke-width:0.8;"/>
   </g>
   <g id="text_18">
    <!-- Macau residential 2020-2021 | Forecast vs Monitored | Random forest -->
    <g transform="translate(181.076953 63.12)scale(0.15 -0.15)">
     <defs>
      <path d="M 9.8125 72.90625 
L 24.515625 72.90625 
L 43.109375 23.296875 
L 61.8125 72.90625 
L 76.515625 72.90625 
L 76.515625 0 
L 66.890625 0 
L 66.890625 64.015625 
L 48.09375 14.015625 
L 38.1875 14.015625 
L 19.390625 64.015625 
L 19.390625 0 
L 9.8125 0 
z
" id="DejaVuSans-77"/>
      <path d="M 48.78125 52.59375 
L 48.78125 44.1875 
Q 44.96875 46.296875 41.140625 47.34375 
Q 37.3125 48.390625 33.40625 48.390625 
Q 24.65625 48.390625 19.8125 42.84375 
Q 14.984375 37.3125 14.984375 27.296875 
Q 14.984375 17.28125 19.8125 11.734375 
Q 24.65625 6.203125 33.40625 6.203125 
Q 37.3125 6.203125 41.140625 7.25 
Q 44.96875 8.296875 48.78125 10.40625 
L 48.78125 2.09375 
Q 45.015625 0.34375 40.984375 -0.53125 
Q 36.96875 -1.421875 32.421875 -1.421875 
Q 20.0625 -1.421875 12.78125 6.34375 
Q 5.515625 14.109375 5.515625 27.296875 
Q 5.515625 40.671875 12.859375 48.328125 
Q 20.21875 56 33.015625 56 
Q 37.15625 56 41.109375 55.140625 
Q 45.0625 54.296875 48.78125 52.59375 
z
" id="DejaVuSans-99"/>
      <path d="M 8.5 21.578125 
L 8.5 54.6875 
L 17.484375 54.6875 
L 17.484375 21.921875 
Q 17.484375 14.15625 20.5 10.265625 
Q 23.53125 6.390625 29.59375 6.390625 
Q 36.859375 6.390625 41.078125 11.03125 
Q 45.3125 15.671875 45.3125 23.6875 
L 45.3125 54.6875 
L 54.296875 54.6875 
L 54.296875 0 
L 45.3125 0 
L 45.3125 8.40625 
Q 42.046875 3.421875 37.71875 1 
Q 33.40625 -1.421875 27.6875 -1.421875 
Q 18.265625 -1.421875 13.375 4.4375 
Q 8.5 10.296875 8.5 21.578125 
z
M 31.109375 56 
z
" id="DejaVuSans-117"/>
      <path id="DejaVuSans-32"/>
      <path d="M 41.109375 46.296875 
Q 39.59375 47.171875 37.8125 47.578125 
Q 36.03125 48 33.890625 48 
Q 26.265625 48 22.1875 43.046875 
Q 18.109375 38.09375 18.109375 28.8125 
L 18.109375 0 
L 9.078125 0 
L 9.078125 54.6875 
L 18.109375 54.6875 
L 18.109375 46.1875 
Q 20.953125 51.171875 25.484375 53.578125 
Q 30.03125 56 36.53125 56 
Q 37.453125 56 38.578125 55.875 
Q 39.703125 55.765625 41.0625 55.515625 
z
" id="DejaVuSans-114"/>
      <path d="M 44.28125 53.078125 
L 44.28125 44.578125 
Q 40.484375 46.53125 36.375 47.5 
Q 32.28125 48.484375 27.875 48.484375 
Q 21.1875 48.484375 17.84375 46.4375 
Q 14.5 44.390625 14.5 40.28125 
Q 14.5 37.15625 16.890625 35.375 
Q 19.28125 33.59375 26.515625 31.984375 
L 29.59375 31.296875 
Q 39.15625 29.25 43.1875 25.515625 
Q 47.21875 21.78125 47.21875 15.09375 
Q 47.21875 7.46875 41.1875 3.015625 
Q 35.15625 -1.421875 24.609375 -1.421875 
Q 20.21875 -1.421875 15.453125 -0.5625 
Q 10.6875 0.296875 5.421875 2 
L 5.421875 11.28125 
Q 10.40625 8.6875 15.234375 7.390625 
Q 20.0625 6.109375 24.8125 6.109375 
Q 31.15625 6.109375 34.5625 8.28125 
Q 37.984375 10.453125 37.984375 14.40625 
Q 37.984375 18.0625 35.515625 20.015625 
Q 33.0625 21.96875 24.703125 23.78125 
L 21.578125 24.515625 
Q 13.234375 26.265625 9.515625 29.90625 
Q 5.8125 33.546875 5.8125 39.890625 
Q 5.8125 47.609375 11.28125 51.796875 
Q 16.75 56 26.8125 56 
Q 31.78125 56 36.171875 55.265625 
Q 40.578125 54.546875 44.28125 53.078125 
z
" id="DejaVuSans-115"/>
      <path d="M 9.421875 54.6875 
L 18.40625 54.6875 
L 18.40625 0 
L 9.421875 0 
z
M 9.421875 75.984375 
L 18.40625 75.984375 
L 18.40625 64.59375 
L 9.421875 64.59375 
z
" id="DejaVuSans-105"/>
      <path d="M 45.40625 46.390625 
L 45.40625 75.984375 
L 54.390625 75.984375 
L 54.390625 0 
L 45.40625 0 
L 45.40625 8.203125 
Q 42.578125 3.328125 38.25 0.953125 
Q 33.9375 -1.421875 27.875 -1.421875 
Q 17.96875 -1.421875 11.734375 6.484375 
Q 5.515625 14.40625 5.515625 27.296875 
Q 5.515625 40.1875 11.734375 48.09375 
Q 17.96875 56 27.875 56 
Q 33.9375 56 38.25 53.625 
Q 42.578125 51.265625 45.40625 46.390625 
z
M 14.796875 27.296875 
Q 14.796875 17.390625 18.875 11.75 
Q 22.953125 6.109375 30.078125 6.109375 
Q 37.203125 6.109375 41.296875 11.75 
Q 45.40625 17.390625 45.40625 27.296875 
Q 45.40625 37.203125 41.296875 42.84375 
Q 37.203125 48.484375 30.078125 48.484375 
Q 22.953125 48.484375 18.875 42.84375 
Q 14.796875 37.203125 14.796875 27.296875 
z
" id="DejaVuSans-100"/>
      <path d="M 54.890625 33.015625 
L 54.890625 0 
L 45.90625 0 
L 45.90625 32.71875 
Q 45.90625 40.484375 42.875 44.328125 
Q 39.84375 48.1875 33.796875 48.1875 
Q 26.515625 48.1875 22.3125 43.546875 
Q 18.109375 38.921875 18.109375 30.90625 
L 18.109375 0 
L 9.078125 0 
L 9.078125 54.6875 
L 18.109375 54.6875 
L 18.109375 46.1875 
Q 21.34375 51.125 25.703125 53.5625 
Q 30.078125 56 35.796875 56 
Q 45.21875 56 50.046875 50.171875 
Q 54.890625 44.34375 54.890625 33.015625 
z
" id="DejaVuSans-110"/>
      <path d="M 9.421875 75.984375 
L 18.40625 75.984375 
L 18.40625 0 
L 9.421875 0 
z
" id="DejaVuSans-108"/>
      <path d="M 21 76.421875 
L 21 -23.578125 
L 12.703125 -23.578125 
L 12.703125 76.421875 
z
" id="DejaVuSans-124"/>
      <path d="M 9.8125 72.90625 
L 51.703125 72.90625 
L 51.703125 64.59375 
L 19.671875 64.59375 
L 19.671875 43.109375 
L 48.578125 43.109375 
L 48.578125 34.8125 
L 19.671875 34.8125 
L 19.671875 0 
L 9.8125 0 
z
" id="DejaVuSans-70"/>
      <path d="M 30.609375 48.390625 
Q 23.390625 48.390625 19.1875 42.75 
Q 14.984375 37.109375 14.984375 27.296875 
Q 14.984375 17.484375 19.15625 11.84375 
Q 23.34375 6.203125 30.609375 6.203125 
Q 37.796875 6.203125 41.984375 11.859375 
Q 46.1875 17.53125 46.1875 27.296875 
Q 46.1875 37.015625 41.984375 42.703125 
Q 37.796875 48.390625 30.609375 48.390625 
z
M 30.609375 56 
Q 42.328125 56 49.015625 48.375 
Q 55.71875 40.765625 55.71875 27.296875 
Q 55.71875 13.875 49.015625 6.21875 
Q 42.328125 -1.421875 30.609375 -1.421875 
Q 18.84375 -1.421875 12.171875 6.21875 
Q 5.515625 13.875 5.515625 27.296875 
Q 5.515625 40.765625 12.171875 48.375 
Q 18.84375 56 30.609375 56 
z
" id="DejaVuSans-111"/>
      <path d="M 2.984375 54.6875 
L 12.5 54.6875 
L 29.59375 8.796875 
L 46.6875 54.6875 
L 56.203125 54.6875 
L 35.6875 0 
L 23.484375 0 
z
" id="DejaVuSans-118"/>
      <path d="M 44.390625 34.1875 
Q 47.5625 33.109375 50.5625 29.59375 
Q 53.5625 26.078125 56.59375 19.921875 
L 66.609375 0 
L 56 0 
L 46.6875 18.703125 
Q 43.0625 26.03125 39.671875 28.421875 
Q 36.28125 30.8125 30.421875 30.8125 
L 19.671875 30.8125 
L 19.671875 0 
L 9.8125 0 
L 9.8125 72.90625 
L 32.078125 72.90625 
Q 44.578125 72.90625 50.734375 67.671875 
Q 56.890625 62.453125 56.890625 51.90625 
Q 56.890625 45.015625 53.6875 40.46875 
Q 50.484375 35.9375 44.390625 34.1875 
z
M 19.671875 64.796875 
L 19.671875 38.921875 
L 32.078125 38.921875 
Q 39.203125 38.921875 42.84375 42.21875 
Q 46.484375 45.515625 46.484375 51.90625 
Q 46.484375 58.296875 42.84375 61.546875 
Q 39.203125 64.796875 32.078125 64.796875 
z
" id="DejaVuSans-82"/>
      <path d="M 37.109375 75.984375 
L 37.109375 68.5 
L 28.515625 68.5 
Q 23.6875 68.5 21.796875 66.546875 
Q 19.921875 64.59375 19.921875 59.515625 
L 19.921875 54.6875 
L 34.71875 54.6875 
L 34.71875 47.703125 
L 19.921875 47.703125 
L 19.921875 0 
L 10.890625 0 
L 10.890625 47.703125 
L 2.296875 47.703125 
L 2.296875 54.6875 
L 10.890625 54.6875 
L 10.890625 58.5 
Q 10.890625 67.625 15.140625 71.796875 
Q 19.390625 75.984375 28.609375 75.984375 
z
" id="DejaVuSans-102"/>
     </defs>
     <use xlink:href="#DejaVuSans-77"/>
     <use x="86.279297" xlink:href="#DejaVuSans-97"/>
     <use x="147.558594" xlink:href="#DejaVuSans-99"/>
     <use x="202.539062" xlink:href="#DejaVuSans-97"/>
     <use x="263.818359" xlink:href="#DejaVuSans-117"/>
     <use x="327.197266" xlink:href="#DejaVuSans-32"/>
     <use x="358.984375" xlink:href="#DejaVuSans-114"/>
     <use x="397.847656" xlink:href="#DejaVuSans-101"/>
     <use x="459.371094" xlink:href="#DejaVuSans-115"/>
     <use x="511.470703" xlink:href="#DejaVuSans-105"/>
     <use x="539.253906" xlink:href="#DejaVuSans-100"/>
     <use x="602.730469" xlink:href="#DejaVuSans-101"/>
     <use x="664.253906" xlink:href="#DejaVuSans-110"/>
     <use x="727.632812" xlink:href="#DejaVuSans-116"/>
     <use x="766.841797" xlink:href="#DejaVuSans-105"/>
     <use x="794.625" xlink:href="#DejaVuSans-97"/>
     <use x="855.904297" xlink:href="#DejaVuSans-108"/>
     <use x="883.6875" xlink:href="#DejaVuSans-32"/>
     <use x="915.474609" xlink:href="#DejaVuSans-50"/>
     <use x="979.097656" xlink:href="#DejaVuSans-48"/>
     <use x="1042.720703" xlink:href="#DejaVuSans-50"/>
     <use x="1106.34375" xlink:href="#DejaVuSans-48"/>
     <use x="1169.966797" xlink:href="#DejaVuSans-45"/>
     <use x="1206.050781" xlink:href="#DejaVuSans-50"/>
     <use x="1269.673828" xlink:href="#DejaVuSans-48"/>
     <use x="1333.296875" xlink:href="#DejaVuSans-50"/>
     <use x="1396.919922" xlink:href="#DejaVuSans-49"/>
     <use x="1460.542969" xlink:href="#DejaVuSans-32"/>
     <use x="1492.330078" xlink:href="#DejaVuSans-124"/>
     <use x="1526.021484" xlink:href="#DejaVuSans-32"/>
     <use x="1557.808594" xlink:href="#DejaVuSans-70"/>
     <use x="1611.703125" xlink:href="#DejaVuSans-111"/>
     <use x="1672.884766" xlink:href="#DejaVuSans-114"/>
     <use x="1711.748047" xlink:href="#DejaVuSans-101"/>
     <use x="1773.271484" xlink:href="#DejaVuSans-99"/>
     <use x="1828.251953" xlink:href="#DejaVuSans-97"/>
     <use x="1889.53125" xlink:href="#DejaVuSans-115"/>
     <use x="1941.630859" xlink:href="#DejaVuSans-116"/>
     <use x="1980.839844" xlink:href="#DejaVuSans-32"/>
     <use x="2012.626953" xlink:href="#DejaVuSans-118"/>
     <use x="2071.806641" xlink:href="#DejaVuSans-115"/>
     <use x="2123.90625" xlink:href="#DejaVuSans-32"/>
     <use x="2155.693359" xlink:href="#DejaVuSans-77"/>
     <use x="2241.972656" xlink:href="#DejaVuSans-111"/>
     <use x="2303.154297" xlink:href="#DejaVuSans-110"/>
     <use x="2366.533203" xlink:href="#DejaVuSans-105"/>
     <use x="2394.316406" xlink:href="#DejaVuSans-116"/>
     <use x="2433.525391" xlink:href="#DejaVuSans-111"/>
     <use x="2494.707031" xlink:href="#DejaVuSans-114"/>
     <use x="2533.570312" xlink:href="#DejaVuSans-101"/>
     <use x="2595.09375" xlink:href="#DejaVuSans-100"/>
     <use x="2658.570312" xlink:href="#DejaVuSans-32"/>
     <use x="2690.357422" xlink:href="#DejaVuSans-124"/>
     <use x="2724.048828" xlink:href="#DejaVuSans-32"/>
     <use x="2755.835938" xlink:href="#DejaVuSans-82"/>
     <use x="2823.068359" xlink:href="#DejaVuSans-97"/>
     <use x="2884.347656" xlink:href="#DejaVuSans-110"/>
     <use x="2947.726562" xlink:href="#DejaVuSans-100"/>
     <use x="3011.203125" xlink:href="#DejaVuSans-111"/>
     <use x="3072.384766" xlink:href="#DejaVuSans-109"/>
     <use x="3169.796875" xlink:href="#DejaVuSans-32"/>
     <use x="3201.583984" xlink:href="#DejaVuSans-102"/>
     <use x="3236.789062" xlink:href="#DejaVuSans-111"/>
     <use x="3297.970703" xlink:href="#DejaVuSans-114"/>
     <use x="3336.833984" xlink:href="#DejaVuSans-101"/>
     <use x="3398.357422" xlink:href="#DejaVuSans-115"/>
     <use x="3450.457031" xlink:href="#DejaVuSans-116"/>
    </g>
   </g>
   <g id="legend_1">
    <g id="patch_7">
     <path d="M 614.74125 114.615 
L 769.2 114.615 
Q 771.6 114.615 771.6 112.215 
L 771.6 77.52 
Q 771.6 75.12 769.2 75.12 
L 614.74125 75.12 
Q 612.34125 75.12 612.34125 77.52 
L 612.34125 112.215 
Q 612.34125 114.615 614.74125 114.615 
z
" style="fill:#ffffff;opacity:0.8;stroke:#cccccc;stroke-linejoin:miter;"/>
    </g>
    <g id="line2d_18">
     <path d="M 617.14125 84.838125 
L 641.14125 84.838125 
" style="fill:none;stroke:#1f77b4;stroke-linecap:square;stroke-width:1.5;"/>
    </g>
    <g id="line2d_19"/>
    <g id="text_19">
     <!-- measured_data_O3 -->
     <g transform="translate(650.74125 89.038125)scale(0.12 -0.12)">
      <defs>
       <path d="M 50.984375 -16.609375 
L 50.984375 -23.578125 
L -0.984375 -23.578125 
L -0.984375 -16.609375 
z
" id="DejaVuSans-95"/>
      </defs>
      <use xlink:href="#DejaVuSans-109"/>
      <use x="97.412109" xlink:href="#DejaVuSans-101"/>
      <use x="158.935547" xlink:href="#DejaVuSans-97"/>
      <use x="220.214844" xlink:href="#DejaVuSans-115"/>
      <use x="272.314453" xlink:href="#DejaVuSans-117"/>
      <use x="335.693359" xlink:href="#DejaVuSans-114"/>
      <use x="374.556641" xlink:href="#DejaVuSans-101"/>
      <use x="436.080078" xlink:href="#DejaVuSans-100"/>
      <use x="499.556641" xlink:href="#DejaVuSans-95"/>
      <use x="549.556641" xlink:href="#DejaVuSans-100"/>
      <use x="613.033203" xlink:href="#DejaVuSans-97"/>
      <use x="674.3125" xlink:href="#DejaVuSans-116"/>
      <use x="713.521484" xlink:href="#DejaVuSans-97"/>
      <use x="774.800781" xlink:href="#DejaVuSans-95"/>
      <use x="824.800781" xlink:href="#DejaVuSans-79"/>
      <use x="903.511719" xlink:href="#DejaVuSans-51"/>
     </g>
    </g>
    <g id="line2d_20">
     <path d="M 617.14125 102.785625 
L 641.14125 102.785625 
" style="fill:none;stroke:#ff0000;stroke-dasharray:5.55,2.4;stroke-dashoffset:0;stroke-width:1.5;"/>
    </g>
    <g id="line2d_21"/>
    <g id="text_20">
     <!-- predicted_data_O3 -->
     <g transform="translate(650.74125 106.985625)scale(0.12 -0.12)">
      <use xlink:href="#DejaVuSans-112"/>
      <use x="63.476562" xlink:href="#DejaVuSans-114"/>
      <use x="102.339844" xlink:href="#DejaVuSans-101"/>
      <use x="163.863281" xlink:href="#DejaVuSans-100"/>
      <use x="227.339844" xlink:href="#DejaVuSans-105"/>
      <use x="255.123047" xlink:href="#DejaVuSans-99"/>
      <use x="310.103516" xlink:href="#DejaVuSans-116"/>
      <use x="349.3125" xlink:href="#DejaVuSans-101"/>
      <use x="410.835938" xlink:href="#DejaVuSans-100"/>
      <use x="474.3125" xlink:href="#DejaVuSans-95"/>
      <use x="524.3125" xlink:href="#DejaVuSans-100"/>
      <use x="587.789062" xlink:href="#DejaVuSans-97"/>
      <use x="649.068359" xlink:href="#DejaVuSans-116"/>
      <use x="688.277344" xlink:href="#DejaVuSans-97"/>
      <use x="749.556641" xlink:href="#DejaVuSans-95"/>
      <use x="799.556641" xlink:href="#DejaVuSans-79"/>
      <use x="878.267578" xlink:href="#DejaVuSans-51"/>
     </g>
    </g>
   </g>
  </g>
 </g>
 <defs>
  <clipPath id="pf82afcfeb2">
   <rect height="391.68" width="669.6" x="108" y="69.12"/>
  </clipPath>
 </defs>
</svg>
