<?xml version="1.0" encoding="utf-8" standalone="no"?>
<!DOCTYPE svg PUBLIC "-//W3C//DTD SVG 1.1//EN"
  "http://www.w3.org/Graphics/SVG/1.1/DTD/svg11.dtd">
<!-- Created with matplotlib (https://matplotlib.org/) -->
<svg height="576pt" version="1.1" viewBox="0 0 864 576" width="864pt" xmlns="http://www.w3.org/2000/svg" xmlns:xlink="http://www.w3.org/1999/xlink">
 <metadata>
  <rdf:RDF xmlns:cc="http://creativecommons.org/ns#" xmlns:dc="http://purl.org/dc/elements/1.1/" xmlns:rdf="http://www.w3.org/1999/02/22-rdf-syntax-ns#">
   <cc:Work>
    <dc:type rdf:resource="http://purl.org/dc/dcmitype/StillImage"/>
    <dc:date>2024-03-08T19:31:47.375089</dc:date>
    <dc:format>image/svg+xml</dc:format>
    <dc:creator>
     <cc:Agent>
      <dc:title>Matplotlib v3.3.4, https://matplotlib.org/</dc:title>
     </cc:Agent>
    </dc:creator>
   </cc:Work>
  </rdf:RDF>
 </metadata>
 <defs>
  <style type="text/css">*{stroke-linecap:butt;stroke-linejoin:round;}</style>
 </defs>
 <g id="figure_1">
  <g id="patch_1">
   <path d="M 0 576 
L 864 576 
L 864 0 
L 0 0 
z
" style="fill:#ffffff;"/>
  </g>
  <g id="axes_1">
   <g id="patch_2">
    <path d="M 108 460.8 
L 777.6 460.8 
L 777.6 69.12 
L 108 69.12 
z
" style="fill:#ffffff;"/>
   </g>
   <g id="matplotlib.axis_1">
    <g id="xtick_1">
     <g id="line2d_1">
      <defs>
       <path d="M 0 0 
L 0 3.5 
" id="mbac509452f" style="stroke:#000000;stroke-width:0.8;"/>
      </defs>
      <g>
       <use style="stroke:#000000;stroke-width:0.8;" x="136.761736" xlink:href="#mbac509452f" y="460.8"/>
      </g>
     </g>
     <g id="text_1">
      <!-- 2020-01 -->
      <g transform="translate(92.091951 500.766215)rotate(-30)scale(0.12 -0.12)">
       <defs>
        <path d="M 19.1875 8.296875 
L 53.609375 8.296875 
L 53.609375 0 
L 7.328125 0 
L 7.328125 8.296875 
Q 12.9375 14.109375 22.625 23.890625 
Q 32.328125 33.6875 34.8125 36.53125 
Q 39.546875 41.84375 41.421875 45.53125 
Q 43.3125 49.21875 43.3125 52.78125 
Q 43.3125 58.59375 39.234375 62.25 
Q 35.15625 65.921875 28.609375 65.921875 
Q 23.96875 65.921875 18.8125 64.3125 
Q 13.671875 62.703125 7.8125 59.421875 
L 7.8125 69.390625 
Q 13.765625 71.78125 18.9375 73 
Q 24.125 74.21875 28.421875 74.21875 
Q 39.75 74.21875 46.484375 68.546875 
Q 53.21875 62.890625 53.21875 53.421875 
Q 53.21875 48.921875 51.53125 44.890625 
Q 49.859375 40.875 45.40625 35.40625 
Q 44.1875 33.984375 37.640625 27.21875 
Q 31.109375 20.453125 19.1875 8.296875 
z
" id="DejaVuSans-50"/>
        <path d="M 31.78125 66.40625 
Q 24.171875 66.40625 20.328125 58.90625 
Q 16.5 51.421875 16.5 36.375 
Q 16.5 21.390625 20.328125 13.890625 
Q 24.171875 6.390625 31.78125 6.390625 
Q 39.453125 6.390625 43.28125 13.890625 
Q 47.125 21.390625 47.125 36.375 
Q 47.125 51.421875 43.28125 58.90625 
Q 39.453125 66.40625 31.78125 66.40625 
z
M 31.78125 74.21875 
Q 44.046875 74.21875 50.515625 64.515625 
Q 56.984375 54.828125 56.984375 36.375 
Q 56.984375 17.96875 50.515625 8.265625 
Q 44.046875 -1.421875 31.78125 -1.421875 
Q 19.53125 -1.421875 13.0625 8.265625 
Q 6.59375 17.96875 6.59375 36.375 
Q 6.59375 54.828125 13.0625 64.515625 
Q 19.53125 74.21875 31.78125 74.21875 
z
" id="DejaVuSans-48"/>
        <path d="M 4.890625 31.390625 
L 31.203125 31.390625 
L 31.203125 23.390625 
L 4.890625 23.390625 
z
" id="DejaVuSans-45"/>
        <path d="M 12.40625 8.296875 
L 28.515625 8.296875 
L 28.515625 63.921875 
L 10.984375 60.40625 
L 10.984375 69.390625 
L 28.421875 72.90625 
L 38.28125 72.90625 
L 38.28125 8.296875 
L 54.390625 8.296875 
L 54.390625 0 
L 12.40625 0 
z
" id="DejaVuSans-49"/>
       </defs>
       <use xlink:href="#DejaVuSans-50"/>
       <use x="63.623047" xlink:href="#DejaVuSans-48"/>
       <use x="127.246094" xlink:href="#DejaVuSans-50"/>
       <use x="190.869141" xlink:href="#DejaVuSans-48"/>
       <use x="254.492188" xlink:href="#DejaVuSans-45"/>
       <use x="290.576172" xlink:href="#DejaVuSans-48"/>
       <use x="354.199219" xlink:href="#DejaVuSans-49"/>
      </g>
     </g>
    </g>
    <g id="xtick_2">
     <g id="line2d_2">
      <g>
       <use style="stroke:#000000;stroke-width:0.8;" x="212.957309" xlink:href="#mbac509452f" y="460.8"/>
      </g>
     </g>
     <g id="text_2">
      <!-- 2020-04 -->
      <g transform="translate(168.287524 500.766215)rotate(-30)scale(0.12 -0.12)">
       <defs>
        <path d="M 37.796875 64.3125 
L 12.890625 25.390625 
L 37.796875 25.390625 
z
M 35.203125 72.90625 
L 47.609375 72.90625 
L 47.609375 25.390625 
L 58.015625 25.390625 
L 58.015625 17.1875 
L 47.609375 17.1875 
L 47.609375 0 
L 37.796875 0 
L 37.796875 17.1875 
L 4.890625 17.1875 
L 4.890625 26.703125 
z
" id="DejaVuSans-52"/>
       </defs>
       <use xlink:href="#DejaVuSans-50"/>
       <use x="63.623047" xlink:href="#DejaVuSans-48"/>
       <use x="127.246094" xlink:href="#DejaVuSans-50"/>
       <use x="190.869141" xlink:href="#DejaVuSans-48"/>
       <use x="254.492188" xlink:href="#DejaVuSans-45"/>
       <use x="290.576172" xlink:href="#DejaVuSans-48"/>
       <use x="354.199219" xlink:href="#DejaVuSans-52"/>
      </g>
     </g>
    </g>
    <g id="xtick_3">
     <g id="line2d_3">
      <g>
       <use style="stroke:#000000;stroke-width:0.8;" x="289.152882" xlink:href="#mbac509452f" y="460.8"/>
      </g>
     </g>
     <g id="text_3">
      <!-- 2020-07 -->
      <g transform="translate(244.483097 500.766215)rotate(-30)scale(0.12 -0.12)">
       <defs>
        <path d="M 8.203125 72.90625 
L 55.078125 72.90625 
L 55.078125 68.703125 
L 28.609375 0 
L 18.3125 0 
L 43.21875 64.59375 
L 8.203125 64.59375 
z
" id="DejaVuSans-55"/>
       </defs>
       <use xlink:href="#DejaVuSans-50"/>
       <use x="63.623047" xlink:href="#DejaVuSans-48"/>
       <use x="127.246094" xlink:href="#DejaVuSans-50"/>
       <use x="190.869141" xlink:href="#DejaVuSans-48"/>
       <use x="254.492188" xlink:href="#DejaVuSans-45"/>
       <use x="290.576172" xlink:href="#DejaVuSans-48"/>
       <use x="354.199219" xlink:href="#DejaVuSans-55"/>
      </g>
     </g>
    </g>
    <g id="xtick_4">
     <g id="line2d_4">
      <g>
       <use style="stroke:#000000;stroke-width:0.8;" x="366.18577" xlink:href="#mbac509452f" y="460.8"/>
      </g>
     </g>
     <g id="text_4">
      <!-- 2020-10 -->
      <g transform="translate(321.515985 500.766215)rotate(-30)scale(0.12 -0.12)">
       <use xlink:href="#DejaVuSans-50"/>
       <use x="63.623047" xlink:href="#DejaVuSans-48"/>
       <use x="127.246094" xlink:href="#DejaVuSans-50"/>
       <use x="190.869141" xlink:href="#DejaVuSans-48"/>
       <use x="254.492188" xlink:href="#DejaVuSans-45"/>
       <use x="290.576172" xlink:href="#DejaVuSans-49"/>
       <use x="354.199219" xlink:href="#DejaVuSans-48"/>
      </g>
     </g>
    </g>
    <g id="xtick_5">
     <g id="line2d_5">
      <g>
       <use style="stroke:#000000;stroke-width:0.8;" x="443.218657" xlink:href="#mbac509452f" y="460.8"/>
      </g>
     </g>
     <g id="text_5">
      <!-- 2021-01 -->
      <g transform="translate(398.548872 500.766215)rotate(-30)scale(0.12 -0.12)">
       <use xlink:href="#DejaVuSans-50"/>
       <use x="63.623047" xlink:href="#DejaVuSans-48"/>
       <use x="127.246094" xlink:href="#DejaVuSans-50"/>
       <use x="190.869141" xlink:href="#DejaVuSans-49"/>
       <use x="254.492188" xlink:href="#DejaVuSans-45"/>
       <use x="290.576172" xlink:href="#DejaVuSans-48"/>
       <use x="354.199219" xlink:href="#DejaVuSans-49"/>
      </g>
     </g>
    </g>
    <g id="xtick_6">
     <g id="line2d_6">
      <g>
       <use style="stroke:#000000;stroke-width:0.8;" x="518.576916" xlink:href="#mbac509452f" y="460.8"/>
      </g>
     </g>
     <g id="text_6">
      <!-- 2021-04 -->
      <g transform="translate(473.907131 500.766215)rotate(-30)scale(0.12 -0.12)">
       <use xlink:href="#DejaVuSans-50"/>
       <use x="63.623047" xlink:href="#DejaVuSans-48"/>
       <use x="127.246094" xlink:href="#DejaVuSans-50"/>
       <use x="190.869141" xlink:href="#DejaVuSans-49"/>
       <use x="254.492188" xlink:href="#DejaVuSans-45"/>
       <use x="290.576172" xlink:href="#DejaVuSans-48"/>
       <use x="354.199219" xlink:href="#DejaVuSans-52"/>
      </g>
     </g>
    </g>
    <g id="xtick_7">
     <g id="line2d_7">
      <g>
       <use style="stroke:#000000;stroke-width:0.8;" x="594.77249" xlink:href="#mbac509452f" y="460.8"/>
      </g>
     </g>
     <g id="text_7">
      <!-- 2021-07 -->
      <g transform="translate(550.102705 500.766215)rotate(-30)scale(0.12 -0.12)">
       <use xlink:href="#DejaVuSans-50"/>
       <use x="63.623047" xlink:href="#DejaVuSans-48"/>
       <use x="127.246094" xlink:href="#DejaVuSans-50"/>
       <use x="190.869141" xlink:href="#DejaVuSans-49"/>
       <use x="254.492188" xlink:href="#DejaVuSans-45"/>
       <use x="290.576172" xlink:href="#DejaVuSans-48"/>
       <use x="354.199219" xlink:href="#DejaVuSans-55"/>
      </g>
     </g>
    </g>
    <g id="xtick_8">
     <g id="line2d_8">
      <g>
       <use style="stroke:#000000;stroke-width:0.8;" x="671.805377" xlink:href="#mbac509452f" y="460.8"/>
      </g>
     </g>
     <g id="text_8">
      <!-- 2021-10 -->
      <g transform="translate(627.135592 500.766215)rotate(-30)scale(0.12 -0.12)">
       <use xlink:href="#DejaVuSans-50"/>
       <use x="63.623047" xlink:href="#DejaVuSans-48"/>
       <use x="127.246094" xlink:href="#DejaVuSans-50"/>
       <use x="190.869141" xlink:href="#DejaVuSans-49"/>
       <use x="254.492188" xlink:href="#DejaVuSans-45"/>
       <use x="290.576172" xlink:href="#DejaVuSans-49"/>
       <use x="354.199219" xlink:href="#DejaVuSans-48"/>
      </g>
     </g>
    </g>
    <g id="xtick_9">
     <g id="line2d_9">
      <g>
       <use style="stroke:#000000;stroke-width:0.8;" x="748.838264" xlink:href="#mbac509452f" y="460.8"/>
      </g>
     </g>
     <g id="text_9">
      <!-- 2022-01 -->
      <g transform="translate(704.168479 500.766215)rotate(-30)scale(0.12 -0.12)">
       <use xlink:href="#DejaVuSans-50"/>
       <use x="63.623047" xlink:href="#DejaVuSans-48"/>
       <use x="127.246094" xlink:href="#DejaVuSans-50"/>
       <use x="190.869141" xlink:href="#DejaVuSans-50"/>
       <use x="254.492188" xlink:href="#DejaVuSans-45"/>
       <use x="290.576172" xlink:href="#DejaVuSans-48"/>
       <use x="354.199219" xlink:href="#DejaVuSans-49"/>
      </g>
     </g>
    </g>
    <g id="text_10">
     <!-- Date -->
     <g transform="translate(424.873828 518.325146)scale(0.15 -0.15)">
      <defs>
       <path d="M 19.671875 64.796875 
L 19.671875 8.109375 
L 31.59375 8.109375 
Q 46.6875 8.109375 53.6875 14.9375 
Q 60.6875 21.78125 60.6875 36.53125 
Q 60.6875 51.171875 53.6875 57.984375 
Q 46.6875 64.796875 31.59375 64.796875 
z
M 9.8125 72.90625 
L 30.078125 72.90625 
Q 51.265625 72.90625 61.171875 64.09375 
Q 71.09375 55.28125 71.09375 36.53125 
Q 71.09375 17.671875 61.125 8.828125 
Q 51.171875 0 30.078125 0 
L 9.8125 0 
z
" id="DejaVuSans-68"/>
       <path d="M 34.28125 27.484375 
Q 23.390625 27.484375 19.1875 25 
Q 14.984375 22.515625 14.984375 16.5 
Q 14.984375 11.71875 18.140625 8.90625 
Q 21.296875 6.109375 26.703125 6.109375 
Q 34.1875 6.109375 38.703125 11.40625 
Q 43.21875 16.703125 43.21875 25.484375 
L 43.21875 27.484375 
z
M 52.203125 31.203125 
L 52.203125 0 
L 43.21875 0 
L 43.21875 8.296875 
Q 40.140625 3.328125 35.546875 0.953125 
Q 30.953125 -1.421875 24.3125 -1.421875 
Q 15.921875 -1.421875 10.953125 3.296875 
Q 6 8.015625 6 15.921875 
Q 6 25.140625 12.171875 29.828125 
Q 18.359375 34.515625 30.609375 34.515625 
L 43.21875 34.515625 
L 43.21875 35.40625 
Q 43.21875 41.609375 39.140625 45 
Q 35.0625 48.390625 27.6875 48.390625 
Q 23 48.390625 18.546875 47.265625 
Q 14.109375 46.140625 10.015625 43.890625 
L 10.015625 52.203125 
Q 14.9375 54.109375 19.578125 55.046875 
Q 24.21875 56 28.609375 56 
Q 40.484375 56 46.34375 49.84375 
Q 52.203125 43.703125 52.203125 31.203125 
z
" id="DejaVuSans-97"/>
       <path d="M 18.3125 70.21875 
L 18.3125 54.6875 
L 36.8125 54.6875 
L 36.8125 47.703125 
L 18.3125 47.703125 
L 18.3125 18.015625 
Q 18.3125 11.328125 20.140625 9.421875 
Q 21.96875 7.515625 27.59375 7.515625 
L 36.8125 7.515625 
L 36.8125 0 
L 27.59375 0 
Q 17.1875 0 13.234375 3.875 
Q 9.28125 7.765625 9.28125 18.015625 
L 9.28125 47.703125 
L 2.6875 47.703125 
L 2.6875 54.6875 
L 9.28125 54.6875 
L 9.28125 70.21875 
z
" id="DejaVuSans-116"/>
       <path d="M 56.203125 29.59375 
L 56.203125 25.203125 
L 14.890625 25.203125 
Q 15.484375 15.921875 20.484375 11.0625 
Q 25.484375 6.203125 34.421875 6.203125 
Q 39.59375 6.203125 44.453125 7.46875 
Q 49.3125 8.734375 54.109375 11.28125 
L 54.109375 2.78125 
Q 49.265625 0.734375 44.1875 -0.34375 
Q 39.109375 -1.421875 33.890625 -1.421875 
Q 20.796875 -1.421875 13.15625 6.1875 
Q 5.515625 13.8125 5.515625 26.8125 
Q 5.515625 40.234375 12.765625 48.109375 
Q 20.015625 56 32.328125 56 
Q 43.359375 56 49.78125 48.890625 
Q 56.203125 41.796875 56.203125 29.59375 
z
M 47.21875 32.234375 
Q 47.125 39.59375 43.09375 43.984375 
Q 39.0625 48.390625 32.421875 48.390625 
Q 24.90625 48.390625 20.390625 44.140625 
Q 15.875 39.890625 15.1875 32.171875 
z
" id="DejaVuSans-101"/>
      </defs>
      <use xlink:href="#DejaVuSans-68"/>
      <use x="77.001953" xlink:href="#DejaVuSans-97"/>
      <use x="138.28125" xlink:href="#DejaVuSans-116"/>
      <use x="177.490234" xlink:href="#DejaVuSans-101"/>
     </g>
    </g>
   </g>
   <g id="matplotlib.axis_2">
    <g id="ytick_1">
     <g id="line2d_10">
      <defs>
       <path d="M 0 0 
L -3.5 0 
" id="m5e8cfabd44" style="stroke:#000000;stroke-width:0.8;"/>
      </defs>
      <g>
       <use style="stroke:#000000;stroke-width:0.8;" x="108" xlink:href="#m5e8cfabd44" y="447.068196"/>
      </g>
     </g>
     <g id="text_11">
      <!-- 0 -->
      <g transform="translate(93.365 451.627258)scale(0.12 -0.12)">
       <use xlink:href="#DejaVuSans-48"/>
      </g>
     </g>
    </g>
    <g id="ytick_2">
     <g id="line2d_11">
      <g>
       <use style="stroke:#000000;stroke-width:0.8;" x="108" xlink:href="#m5e8cfabd44" y="376.800987"/>
      </g>
     </g>
     <g id="text_12">
      <!-- 20 -->
      <g transform="translate(85.73 381.360049)scale(0.12 -0.12)">
       <use xlink:href="#DejaVuSans-50"/>
       <use x="63.623047" xlink:href="#DejaVuSans-48"/>
      </g>
     </g>
    </g>
    <g id="ytick_3">
     <g id="line2d_12">
      <g>
       <use style="stroke:#000000;stroke-width:0.8;" x="108" xlink:href="#m5e8cfabd44" y="306.533778"/>
      </g>
     </g>
     <g id="text_13">
      <!-- 40 -->
      <g transform="translate(85.73 311.09284)scale(0.12 -0.12)">
       <use xlink:href="#DejaVuSans-52"/>
       <use x="63.623047" xlink:href="#DejaVuSans-48"/>
      </g>
     </g>
    </g>
    <g id="ytick_4">
     <g id="line2d_13">
      <g>
       <use style="stroke:#000000;stroke-width:0.8;" x="108" xlink:href="#m5e8cfabd44" y="236.266568"/>
      </g>
     </g>
     <g id="text_14">
      <!-- 60 -->
      <g transform="translate(85.73 240.825631)scale(0.12 -0.12)">
       <defs>
        <path d="M 33.015625 40.375 
Q 26.375 40.375 22.484375 35.828125 
Q 18.609375 31.296875 18.609375 23.390625 
Q 18.609375 15.53125 22.484375 10.953125 
Q 26.375 6.390625 33.015625 6.390625 
Q 39.65625 6.390625 43.53125 10.953125 
Q 47.40625 15.53125 47.40625 23.390625 
Q 47.40625 31.296875 43.53125 35.828125 
Q 39.65625 40.375 33.015625 40.375 
z
M 52.59375 71.296875 
L 52.59375 62.3125 
Q 48.875 64.0625 45.09375 64.984375 
Q 41.3125 65.921875 37.59375 65.921875 
Q 27.828125 65.921875 22.671875 59.328125 
Q 17.53125 52.734375 16.796875 39.40625 
Q 19.671875 43.65625 24.015625 45.921875 
Q 28.375 48.1875 33.59375 48.1875 
Q 44.578125 48.1875 50.953125 41.515625 
Q 57.328125 34.859375 57.328125 23.390625 
Q 57.328125 12.15625 50.6875 5.359375 
Q 44.046875 -1.421875 33.015625 -1.421875 
Q 20.359375 -1.421875 13.671875 8.265625 
Q 6.984375 17.96875 6.984375 36.375 
Q 6.984375 53.65625 15.1875 63.9375 
Q 23.390625 74.21875 37.203125 74.21875 
Q 40.921875 74.21875 44.703125 73.484375 
Q 48.484375 72.75 52.59375 71.296875 
z
" id="DejaVuSans-54"/>
       </defs>
       <use xlink:href="#DejaVuSans-54"/>
       <use x="63.623047" xlink:href="#DejaVuSans-48"/>
      </g>
     </g>
    </g>
    <g id="ytick_5">
     <g id="line2d_14">
      <g>
       <use style="stroke:#000000;stroke-width:0.8;" x="108" xlink:href="#m5e8cfabd44" y="165.999359"/>
      </g>
     </g>
     <g id="text_15">
      <!-- 80 -->
      <g transform="translate(85.73 170.558422)scale(0.12 -0.12)">
       <defs>
        <path d="M 31.78125 34.625 
Q 24.75 34.625 20.71875 30.859375 
Q 16.703125 27.09375 16.703125 20.515625 
Q 16.703125 13.921875 20.71875 10.15625 
Q 24.75 6.390625 31.78125 6.390625 
Q 38.8125 6.390625 42.859375 10.171875 
Q 46.921875 13.96875 46.921875 20.515625 
Q 46.921875 27.09375 42.890625 30.859375 
Q 38.875 34.625 31.78125 34.625 
z
M 21.921875 38.8125 
Q 15.578125 40.375 12.03125 44.71875 
Q 8.5 49.078125 8.5 55.328125 
Q 8.5 64.0625 14.71875 69.140625 
Q 20.953125 74.21875 31.78125 74.21875 
Q 42.671875 74.21875 48.875 69.140625 
Q 55.078125 64.0625 55.078125 55.328125 
Q 55.078125 49.078125 51.53125 44.71875 
Q 48 40.375 41.703125 38.8125 
Q 48.828125 37.15625 52.796875 32.3125 
Q 56.78125 27.484375 56.78125 20.515625 
Q 56.78125 9.90625 50.3125 4.234375 
Q 43.84375 -1.421875 31.78125 -1.421875 
Q 19.734375 -1.421875 13.25 4.234375 
Q 6.78125 9.90625 6.78125 20.515625 
Q 6.78125 27.484375 10.78125 32.3125 
Q 14.796875 37.15625 21.921875 38.8125 
z
M 18.3125 54.390625 
Q 18.3125 48.734375 21.84375 45.5625 
Q 25.390625 42.390625 31.78125 42.390625 
Q 38.140625 42.390625 41.71875 45.5625 
Q 45.3125 48.734375 45.3125 54.390625 
Q 45.3125 60.0625 41.71875 63.234375 
Q 38.140625 66.40625 31.78125 66.40625 
Q 25.390625 66.40625 21.84375 63.234375 
Q 18.3125 60.0625 18.3125 54.390625 
z
" id="DejaVuSans-56"/>
       </defs>
       <use xlink:href="#DejaVuSans-56"/>
       <use x="63.623047" xlink:href="#DejaVuSans-48"/>
      </g>
     </g>
    </g>
    <g id="ytick_6">
     <g id="line2d_15">
      <g>
       <use style="stroke:#000000;stroke-width:0.8;" x="108" xlink:href="#m5e8cfabd44" y="95.73215"/>
      </g>
     </g>
     <g id="text_16">
      <!-- 100 -->
      <g transform="translate(78.095 100.291213)scale(0.12 -0.12)">
       <use xlink:href="#DejaVuSans-49"/>
       <use x="63.623047" xlink:href="#DejaVuSans-48"/>
       <use x="127.246094" xlink:href="#DejaVuSans-48"/>
      </g>
     </g>
    </g>
    <g id="text_17">
     <!-- O3(ppm) -->
     <g transform="translate(70.975469 298.31625)rotate(-90)scale(0.15 -0.15)">
      <defs>
       <path d="M 39.40625 66.21875 
Q 28.65625 66.21875 22.328125 58.203125 
Q 16.015625 50.203125 16.015625 36.375 
Q 16.015625 22.609375 22.328125 14.59375 
Q 28.65625 6.59375 39.40625 6.59375 
Q 50.140625 6.59375 56.421875 14.59375 
Q 62.703125 22.609375 62.703125 36.375 
Q 62.703125 50.203125 56.421875 58.203125 
Q 50.140625 66.21875 39.40625 66.21875 
z
M 39.40625 74.21875 
Q 54.734375 74.21875 63.90625 63.9375 
Q 73.09375 53.65625 73.09375 36.375 
Q 73.09375 19.140625 63.90625 8.859375 
Q 54.734375 -1.421875 39.40625 -1.421875 
Q 24.03125 -1.421875 14.8125 8.828125 
Q 5.609375 19.09375 5.609375 36.375 
Q 5.609375 53.65625 14.8125 63.9375 
Q 24.03125 74.21875 39.40625 74.21875 
z
" id="DejaVuSans-79"/>
       <path d="M 40.578125 39.3125 
Q 47.65625 37.796875 51.625 33 
Q 55.609375 28.21875 55.609375 21.1875 
Q 55.609375 10.40625 48.1875 4.484375 
Q 40.765625 -1.421875 27.09375 -1.421875 
Q 22.515625 -1.421875 17.65625 -0.515625 
Q 12.796875 0.390625 7.625 2.203125 
L 7.625 11.71875 
Q 11.71875 9.328125 16.59375 8.109375 
Q 21.484375 6.890625 26.8125 6.890625 
Q 36.078125 6.890625 40.9375 10.546875 
Q 45.796875 14.203125 45.796875 21.1875 
Q 45.796875 27.640625 41.28125 31.265625 
Q 36.765625 34.90625 28.71875 34.90625 
L 20.21875 34.90625 
L 20.21875 43.015625 
L 29.109375 43.015625 
Q 36.375 43.015625 40.234375 45.921875 
Q 44.09375 48.828125 44.09375 54.296875 
Q 44.09375 59.90625 40.109375 62.90625 
Q 36.140625 65.921875 28.71875 65.921875 
Q 24.65625 65.921875 20.015625 65.03125 
Q 15.375 64.15625 9.8125 62.3125 
L 9.8125 71.09375 
Q 15.4375 72.65625 20.34375 73.4375 
Q 25.25 74.21875 29.59375 74.21875 
Q 40.828125 74.21875 47.359375 69.109375 
Q 53.90625 64.015625 53.90625 55.328125 
Q 53.90625 49.265625 50.4375 45.09375 
Q 46.96875 40.921875 40.578125 39.3125 
z
" id="DejaVuSans-51"/>
       <path d="M 31 75.875 
Q 24.46875 64.65625 21.28125 53.65625 
Q 18.109375 42.671875 18.109375 31.390625 
Q 18.109375 20.125 21.3125 9.0625 
Q 24.515625 -2 31 -13.1875 
L 23.1875 -13.1875 
Q 15.875 -1.703125 12.234375 9.375 
Q 8.59375 20.453125 8.59375 31.390625 
Q 8.59375 42.28125 12.203125 53.3125 
Q 15.828125 64.359375 23.1875 75.875 
z
" id="DejaVuSans-40"/>
       <path d="M 18.109375 8.203125 
L 18.109375 -20.796875 
L 9.078125 -20.796875 
L 9.078125 54.6875 
L 18.109375 54.6875 
L 18.109375 46.390625 
Q 20.953125 51.265625 25.265625 53.625 
Q 29.59375 56 35.59375 56 
Q 45.5625 56 51.78125 48.09375 
Q 58.015625 40.1875 58.015625 27.296875 
Q 58.015625 14.40625 51.78125 6.484375 
Q 45.5625 -1.421875 35.59375 -1.421875 
Q 29.59375 -1.421875 25.265625 0.953125 
Q 20.953125 3.328125 18.109375 8.203125 
z
M 48.6875 27.296875 
Q 48.6875 37.203125 44.609375 42.84375 
Q 40.53125 48.484375 33.40625 48.484375 
Q 26.265625 48.484375 22.1875 42.84375 
Q 18.109375 37.203125 18.109375 27.296875 
Q 18.109375 17.390625 22.1875 11.75 
Q 26.265625 6.109375 33.40625 6.109375 
Q 40.53125 6.109375 44.609375 11.75 
Q 48.6875 17.390625 48.6875 27.296875 
z
" id="DejaVuSans-112"/>
       <path d="M 52 44.1875 
Q 55.375 50.25 60.0625 53.125 
Q 64.75 56 71.09375 56 
Q 79.640625 56 84.28125 50.015625 
Q 88.921875 44.046875 88.921875 33.015625 
L 88.921875 0 
L 79.890625 0 
L 79.890625 32.71875 
Q 79.890625 40.578125 77.09375 44.375 
Q 74.3125 48.1875 68.609375 48.1875 
Q 61.625 48.1875 57.5625 43.546875 
Q 53.515625 38.921875 53.515625 30.90625 
L 53.515625 0 
L 44.484375 0 
L 44.484375 32.71875 
Q 44.484375 40.625 41.703125 44.40625 
Q 38.921875 48.1875 33.109375 48.1875 
Q 26.21875 48.1875 22.15625 43.53125 
Q 18.109375 38.875 18.109375 30.90625 
L 18.109375 0 
L 9.078125 0 
L 9.078125 54.6875 
L 18.109375 54.6875 
L 18.109375 46.1875 
Q 21.1875 51.21875 25.484375 53.609375 
Q 29.78125 56 35.6875 56 
Q 41.65625 56 45.828125 52.96875 
Q 50 49.953125 52 44.1875 
z
" id="DejaVuSans-109"/>
       <path d="M 8.015625 75.875 
L 15.828125 75.875 
Q 23.140625 64.359375 26.78125 53.3125 
Q 30.421875 42.28125 30.421875 31.390625 
Q 30.421875 20.453125 26.78125 9.375 
Q 23.140625 -1.703125 15.828125 -13.1875 
L 8.015625 -13.1875 
Q 14.5 -2 17.703125 9.0625 
Q 20.90625 20.125 20.90625 31.390625 
Q 20.90625 42.671875 17.703125 53.65625 
Q 14.5 64.65625 8.015625 75.875 
z
" id="DejaVuSans-41"/>
      </defs>
      <use xlink:href="#DejaVuSans-79"/>
      <use x="78.710938" xlink:href="#DejaVuSans-51"/>
      <use x="142.333984" xlink:href="#DejaVuSans-40"/>
      <use x="181.347656" xlink:href="#DejaVuSans-112"/>
      <use x="244.824219" xlink:href="#DejaVuSans-112"/>
      <use x="308.300781" xlink:href="#DejaVuSans-109"/>
      <use x="405.712891" xlink:href="#DejaVuSans-41"/>
     </g>
    </g>
   </g>
   <g id="line2d_16">
    <path clip-path="url(#p91300ee8f9)" d="M 138.436364 350.437035 
L 139.273678 335.5988 
L 140.110992 338.263319 
L 140.948306 395.649341 
L 141.78562 331.658704 
L 142.622934 287.311663 
L 144.297562 365.293234 
L 145.134876 331.919182 
L 145.97219 380.131469 
L 146.809504 280.431465 
L 147.646818 277.335675 
L 148.484132 343.227497 
L 149.321446 359.616621 
L 150.15876 364.631561 
L 150.996074 395.595449 
L 151.833388 386.724244 
L 152.670702 348.401119 
L 153.508016 343.14666 
L 154.345329 360.853141 
L 155.182643 365.152516 
L 156.019957 355.469939 
L 156.857271 379.700334 
L 157.694585 324.652758 
L 158.531899 304.21276 
L 159.369213 266.56029 
L 160.206527 239.258057 
L 161.043841 287.973336 
L 161.881155 319.039019 
L 162.718469 275.8776 
L 163.555783 338.248485 
L 165.230411 375.433892 
L 166.067725 277.039269 
L 166.905039 335.068863 
L 167.742353 327.859326 
L 168.579667 312.997139 
L 169.416981 353.721447 
L 170.254295 371.014757 
L 171.091609 377.532682 
L 171.928923 404.367851 
L 172.766237 399.517581 
L 173.603551 408.382798 
L 174.440865 354.966948 
L 175.278179 254.988503 
L 176.952807 325.062935 
L 177.790121 336.649692 
L 178.627435 338.613752 
L 179.464749 273.907551 
L 180.302063 247.614295 
L 181.139377 265.365686 
L 181.976691 355.413054 
L 182.814005 398.514023 
L 183.651319 331.464094 
L 184.488633 314.18276 
L 185.325947 373.808153 
L 186.163261 345.703531 
L 187.000575 348.790338 
L 187.837889 277.745852 
L 188.675203 351.083738 
L 189.512517 374.50276 
L 190.349831 274.278807 
L 192.024459 405.766047 
L 192.861773 423.349774 
L 193.699087 283.620068 
L 194.536401 304.844493 
L 195.373715 334.829344 
L 196.211029 410.451647 
L 197.048343 282.401513 
L 197.885657 240.500565 
L 198.722971 213.659408 
L 199.560285 267.030347 
L 200.397599 351.389125 
L 201.234913 422.385708 
L 202.072227 407.843879 
L 202.909541 386.787118 
L 203.746855 411.607329 
L 204.584169 409.197164 
L 205.421483 287.557171 
L 206.258797 300.221766 
L 207.096111 371.637508 
L 207.933425 412.99018 
L 208.770739 420.915657 
L 209.608053 343.422107 
L 210.445367 415.379762 
L 211.282681 442.996364 
L 212.119995 439.188003 
L 212.957309 352.414432 
L 213.794623 355.071738 
L 214.631937 400.951704 
L 215.469251 400.604401 
L 216.306565 359.592669 
L 217.143879 415.047428 
L 219.655821 231.093435 
L 220.493135 347.191546 
L 221.330449 267.165077 
L 222.167763 213.419888 
L 223.005077 256.587295 
L 223.842391 258.207046 
L 224.679705 309.865421 
L 225.517019 336.167659 
L 226.354333 357.892081 
L 227.191647 401.014578 
L 228.028961 422.888699 
L 228.866275 430.523384 
L 229.703589 390.766136 
L 230.540903 408.538485 
L 231.378217 393.475701 
L 232.215531 384.6524 
L 233.052845 230.910802 
L 233.890159 276.488374 
L 234.727473 278.68896 
L 235.564787 252.98103 
L 236.402101 271.66505 
L 237.239415 378.631478 
L 238.076729 395.302037 
L 238.914043 398.784052 
L 239.751357 408.757047 
L 240.588671 417.37975 
L 241.425985 428.295852 
L 242.263299 428.185075 
L 243.100613 429.753928 
L 243.937927 429.002435 
L 244.775241 416.418678 
L 245.612555 411.706131 
L 246.449869 317.060125 
L 247.287183 267.796809 
L 248.124497 324.236593 
L 248.961811 367.895015 
L 249.799125 393.146361 
L 250.636439 383.592526 
L 251.473753 379.796142 
L 252.311067 363.586657 
L 253.148381 343.910128 
L 253.985695 385.511676 
L 254.823009 365.772273 
L 256.497637 342.257443 
L 257.334951 383.637436 
L 258.172265 385.581437 
L 259.009579 360.841165 
L 259.846893 361.158528 
L 260.684207 369.700393 
L 261.521521 392.820016 
L 262.358835 394.415815 
L 263.196149 405.616347 
L 264.033463 408.27202 
L 265.708091 400.840926 
L 266.545405 395.254133 
L 267.382719 397.670287 
L 268.220033 389.568538 
L 269.057347 391.026614 
L 269.89466 397.802022 
L 270.731974 400.272067 
L 271.569288 403.173248 
L 273.243916 376.649454 
L 274.08123 376.832087 
L 274.918544 397.74813 
L 275.755858 402.383732 
L 276.593172 401.999602 
L 277.430486 399.535545 
L 278.2678 401.529545 
L 279.105114 402.772053 
L 280.779742 396.7661 
L 281.617056 397.77807 
L 282.45437 396.601431 
L 283.291684 402.385827 
L 284.128998 406.792987 
L 284.966312 404.182224 
L 285.803626 397.11041 
L 286.64094 397.604419 
L 287.478254 398.673275 
L 288.315568 394.128392 
L 289.152882 397.134362 
L 289.990196 396.269097 
L 290.82751 399.233152 
L 291.664824 395.891854 
L 292.502138 398.912794 
L 293.339452 398.373875 
L 294.176766 399.077464 
L 295.01408 397.325977 
L 295.851394 407.418731 
L 296.688708 402.281038 
L 297.526022 401.307989 
L 298.363336 399.562491 
L 299.20065 388.793094 
L 300.037964 399.460695 
L 300.875278 400.619371 
L 301.712592 407.478611 
L 302.549906 406.604365 
L 303.38722 401.831938 
L 304.224534 404.984206 
L 305.061848 394.038821 
L 305.899162 397.209211 
L 306.736476 398.709951 
L 307.57379 396.712208 
L 308.411104 395.586467 
L 309.248418 397.230169 
L 310.085732 401.367869 
L 310.923046 403.360996 
L 311.76036 383.517676 
L 312.597674 384.885932 
L 313.434988 390.61943 
L 314.272302 383.325063 
L 315.109616 384.538628 
L 315.94693 390.394881 
L 316.784244 393.278097 
L 317.621558 407.610347 
L 318.458872 407.233104 
L 319.296186 404.942698 
L 320.1335 400.652305 
L 320.970814 399.670275 
L 321.808128 401.94571 
L 322.645442 406.472629 
L 323.482756 395.349941 
L 324.32007 404.272044 
L 325.157384 408.390782 
L 325.994698 400.664281 
L 326.832012 389.287103 
L 327.669326 405.269044 
L 328.50664 386.682328 
L 329.343954 395.7691 
L 330.181268 399.388839 
L 331.018582 380.382965 
L 331.855896 355.799279 
L 332.69321 378.853034 
L 333.530524 370.386018 
L 334.367838 374.005757 
L 335.205152 384.613478 
L 336.042466 349.955002 
L 336.87978 291.916426 
L 337.717094 277.182981 
L 338.554408 267.039329 
L 339.391722 332.278461 
L 340.229036 324.45216 
L 342.740978 355.206468 
L 343.578292 348.957254 
L 344.415606 347.589747 
L 345.25292 396.050536 
L 346.090234 397.939746 
L 346.927548 390.849968 
L 347.764862 400.092428 
L 348.602176 406.99059 
L 350.276804 322.835403 
L 351.114118 344.754434 
L 351.951432 397.82298 
L 352.788746 406.658257 
L 353.62606 412.831873 
L 354.463374 411.041464 
L 355.300688 406.942686 
L 356.138002 399.676263 
L 356.975316 385.065571 
L 357.81263 341.209545 
L 358.649944 350.841224 
L 359.487258 327.902738 
L 360.324572 322.850373 
L 361.161886 241.877802 
L 361.9992 274.599164 
L 362.836514 355.269342 
L 363.673828 335.215569 
L 364.511142 329.320395 
L 365.348456 248.596325 
L 366.18577 224.222219 
L 367.023084 260.123202 
L 367.860398 234.832934 
L 368.697712 284.79072 
L 369.535026 268.027347 
L 370.37234 283.395519 
L 371.209654 262.320794 
L 372.046968 224.62042 
L 372.884282 136.02514 
L 373.721596 118.423449 
L 374.55891 144.34545 
L 375.396224 296.422387 
L 376.233538 297.928366 
L 377.070852 229.135363 
L 377.908166 212.37199 
L 378.74548 255.641193 
L 379.582794 245.533469 
L 380.420108 259.937575 
L 381.257422 228.734168 
L 382.094736 231.776066 
L 382.93205 231.520229 
L 383.769364 189.554761 
L 384.606678 170.7914 
L 385.443991 175.4024 
L 386.281305 195.946938 
L 387.118619 212.401306 
L 387.955933 298.06609 
L 388.793247 280.90751 
L 389.630561 282.377561 
L 390.467875 244.838862 
L 391.305189 159.695658 
L 392.142503 199.087638 
L 392.979817 203.072644 
L 393.817131 201.860077 
L 394.654445 215.988735 
L 395.491759 151.914267 
L 396.329073 117.00467 
L 397.166387 99.660087 
L 398.003701 86.923636 
L 398.841015 142.073008 
L 399.678329 183.453001 
L 400.515643 153.273353 
L 401.352957 230.689246 
L 402.190271 270.937509 
L 403.027585 339.867488 
L 403.864899 318.966346 
L 404.702213 342.044461 
L 405.539527 384.808088 
L 406.376841 415.993531 
L 407.214155 415.592335 
L 408.051469 382.065589 
L 408.888783 366.679453 
L 409.726097 404.170248 
L 410.563411 339.658184 
L 411.400725 311.122898 
L 412.238039 247.551421 
L 413.075353 315.251616 
L 413.912667 276.072209 
L 414.749981 290.287693 
L 415.587295 300.085414 
L 416.424609 306.886397 
L 417.261923 303.134922 
L 418.099237 317.643818 
L 418.936551 319.131833 
L 419.773865 320.922241 
L 420.611179 300.89242 
L 421.448493 293.547554 
L 422.285807 282.260795 
L 423.123121 350.443023 
L 423.960435 350.996912 
L 424.797749 379.150722 
L 425.635063 386.388372 
L 426.472377 317.180221 
L 427.309691 411.09835 
L 428.147005 417.622862 
L 428.984319 414.62278 
L 429.821633 430.233109 
L 430.658947 411.858825 
L 431.496261 378.637466 
L 432.333575 289.602069 
L 433.170889 239.419733 
L 434.008203 337.284419 
L 434.845517 396.646341 
L 435.682831 383.936836 
L 436.520145 377.490766 
L 437.357459 289.03321 
L 438.194773 285.048204 
L 439.032087 316.53604 
L 439.869401 353.670549 
L 440.706715 284.042222 
L 442.381343 312.257622 
L 443.218657 362.05972 
L 444.055971 269.862665 
L 444.893285 352.425047 
L 445.730599 321.937205 
L 446.567913 307.691781 
L 447.405227 331.31427 
L 448.242541 344.97599 
L 449.079855 352.419059 
L 449.917169 352.457981 
L 451.591797 333.622764 
L 452.429111 394.685274 
L 453.266425 370.670448 
L 454.103739 393.203247 
L 454.941053 364.050727 
L 455.778367 211.518702 
L 456.615681 290.461345 
L 457.452995 356.44376 
L 458.290309 354.643597 
L 459.127623 366.522768 
L 459.964937 362.047744 
L 460.802251 324.163539 
L 461.639565 318.134833 
L 462.476879 317.970163 
L 463.314193 280.84763 
L 464.151507 325.883289 
L 464.988821 249.305902 
L 465.826135 252.689115 
L 466.663449 254.826827 
L 467.500763 300.081048 
L 468.338077 361.185474 
L 469.175391 257.533398 
L 470.012705 233.964676 
L 470.850019 293.332585 
L 471.687333 321.170743 
L 472.524647 360.565717 
L 473.361961 315.34443 
L 474.199275 300.943318 
L 475.036589 277.428489 
L 475.873903 330.826374 
L 476.711217 338.90417 
L 477.548531 310.844457 
L 478.385845 339.266443 
L 479.223159 308.347466 
L 480.060473 312.20373 
L 480.897787 302.26367 
L 481.735101 267.61717 
L 482.572415 257.940581 
L 483.409729 258.53938 
L 484.247043 268.853689 
L 485.084357 232.261093 
L 485.921671 307.30855 
L 486.758985 310.577991 
L 487.596299 275.521314 
L 488.433613 346.005924 
L 489.270927 400.352905 
L 490.108241 427.122207 
L 490.945555 369.859075 
L 491.782869 387.358971 
L 492.620183 340.296377 
L 493.457497 349.605703 
L 494.294811 398.095434 
L 495.132125 417.619269 
L 495.969439 403.607377 
L 496.806753 429.55333 
L 497.644067 336.946098 
L 498.481381 298.054114 
L 499.318695 311.069007 
L 500.156009 300.838529 
L 500.993322 331.958104 
L 502.66795 210.267212 
L 503.505264 286.880528 
L 504.342578 335.125749 
L 505.179892 370.960865 
L 506.017206 381.490742 
L 506.85452 374.173421 
L 507.691834 390.653113 
L 508.529148 390.981704 
L 509.366462 284.931438 
L 510.203776 351.706489 
L 511.04109 330.925176 
L 511.878404 284.185933 
L 512.715718 255.892689 
L 513.553032 368.898003 
L 514.390346 403.218158 
L 515.22766 414.876771 
L 516.064974 413.939651 
L 516.902288 434.50839 
L 518.576916 427.083285 
L 519.41423 431.550324 
L 520.251544 416.876759 
L 521.088858 398.577467 
L 521.926172 279.461411 
L 522.763486 281.644032 
L 523.6008 331.239545 
L 524.438114 389.329019 
L 525.275428 234.886826 
L 526.112742 220.156375 
L 526.950056 336.446101 
L 527.78737 368.829141 
L 528.624684 338.02693 
L 529.461998 336.407179 
L 530.299312 330.236557 
L 531.136626 387.799088 
L 531.97394 185.111674 
L 532.811254 177.270403 
L 533.648568 241.264033 
L 536.16051 364.598627 
L 536.997824 322.215647 
L 537.835138 312.640853 
L 538.672452 338.425131 
L 539.509766 384.134439 
L 540.34708 406.91574 
L 541.184394 309.086982 
L 542.021708 322.841391 
L 542.859022 252.497499 
L 543.696336 338.455071 
L 544.53365 340.787392 
L 545.370964 418.709083 
L 546.208278 298.437345 
L 547.045592 321.302478 
L 547.882906 381.823076 
L 548.72022 418.691119 
L 549.557534 410.951645 
L 550.394848 427.43957 
L 551.232162 426.834783 
L 552.069476 426.738976 
L 552.90679 429.397642 
L 553.744104 428.607228 
L 554.581418 421.960561 
L 555.418732 419.101297 
L 556.256046 429.376684 
L 557.09336 426.610234 
L 557.930674 420.050393 
L 558.767988 420.855777 
L 559.605302 429.939555 
L 560.442616 425.990477 
L 561.27993 416.271972 
L 562.117244 418.044417 
L 562.954558 423.837795 
L 563.791872 427.691066 
L 564.629186 428.463516 
L 565.4665 427.583282 
L 566.303814 422.777921 
L 567.141128 414.748029 
L 568.815756 416.706101 
L 569.65307 431.063551 
L 570.490384 430.918591 
L 571.327698 398.918782 
L 572.165012 340.607753 
L 573.002326 258.353752 
L 573.83964 312.224688 
L 574.676954 353.20648 
L 575.514268 400.224164 
L 576.351582 422.691095 
L 577.188896 417.595317 
L 578.02621 409.340876 
L 578.863524 426.505444 
L 579.700838 424.828807 
L 580.538152 418.319864 
L 581.375466 418.49651 
L 582.21278 414.349828 
L 583.050094 408.011542 
L 584.724722 387.047595 
L 585.562036 397.544539 
L 586.39935 397.346935 
L 587.236664 417.203104 
L 588.073978 414.858807 
L 588.911292 426.014429 
L 589.748606 421.697089 
L 590.58592 405.487605 
L 591.423234 416.768975 
L 592.260548 411.799444 
L 593.097862 413.771987 
L 593.935176 409.304948 
L 594.77249 409.664227 
L 595.609804 409.106528 
L 596.447118 401.601401 
L 597.284432 424.340786 
L 598.121746 427.032387 
L 598.95906 415.379762 
L 599.796374 421.23065 
L 600.633688 412.092356 
L 601.471002 419.628239 
L 602.308316 418.595312 
L 603.14563 427.691066 
L 604.820258 422.442594 
L 605.657572 409.011536 
L 607.3322 357.628609 
L 608.169514 389.978716 
L 609.006828 393.10744 
L 609.844142 359.633712 
L 610.681456 386.712268 
L 611.51877 410.125302 
L 612.356084 279.045245 
L 613.193398 244.473595 
L 614.030712 235.635325 
L 614.868026 325.218623 
L 615.70534 224.94976 
L 616.542653 315.637842 
L 617.379967 380.472784 
L 618.217281 383.017679 
L 619.054595 363.676477 
L 619.891909 369.314168 
L 620.729223 362.960913 
L 621.566537 357.478909 
L 622.403851 271.868641 
L 623.241165 337.0449 
L 624.078479 361.913015 
L 624.915793 354.32324 
L 625.753107 364.164498 
L 626.590421 382.972769 
L 627.427735 404.721143 
L 628.265049 398.757106 
L 629.102363 404.487611 
L 629.939677 398.050524 
L 630.776991 406.343888 
L 631.614305 411.080386 
L 632.451619 418.712077 
L 633.288933 403.529533 
L 634.126247 397.299031 
L 634.963561 400.790028 
L 635.800875 407.02053 
L 636.638189 407.478611 
L 637.475503 405.167248 
L 638.312817 413.538455 
L 639.150131 418.143343 
L 639.987445 419.733029 
L 640.824759 401.376851 
L 641.662073 428.304834 
L 644.174015 406.197182 
L 645.011329 383.053607 
L 645.848643 430.232967 
L 646.685957 422.412654 
L 647.523271 418.547408 
L 648.360585 419.978537 
L 649.197899 410.801945 
L 650.035213 390.882902 
L 650.872527 393.278097 
L 651.709841 426.313828 
L 652.547155 311.787565 
L 653.384469 355.038804 
L 654.221783 377.73328 
L 655.059097 324.176713 
L 655.896411 383.379953 
L 656.733725 425.391678 
L 658.408353 348.338245 
L 659.245667 330.835356 
L 660.082981 276.871606 
L 660.920295 425.52042 
L 661.757609 411.535473 
L 662.594923 393.610431 
L 663.432237 388.400881 
L 664.269551 420.068357 
L 665.106865 378.562616 
L 665.944179 321.497088 
L 666.781493 298.778661 
L 667.618807 247.03346 
L 668.456121 203.524738 
L 669.293435 207.674413 
L 670.968063 282.203909 
L 671.805377 302.081036 
L 672.642691 301.13194 
L 673.480005 276.006341 
L 674.317319 283.575158 
L 675.154633 272.653068 
L 675.991947 336.524818 
L 676.829261 383.436839 
L 677.666575 357.023822 
L 678.503889 397.918788 
L 679.341203 343.317467 
L 680.178517 357.026816 
L 681.015831 360.838171 
L 681.853145 357.251366 
L 682.690459 404.772041 
L 683.527773 342.224509 
L 684.365087 330.362305 
L 685.202401 272.180017 
L 686.039715 321.166961 
L 686.877029 292.79666 
L 687.714343 384.873956 
L 688.551657 372.380018 
L 689.388971 381.278169 
L 690.226285 306.943283 
L 691.063599 259.09252 
L 691.900913 233.791024 
L 692.738227 301.209784 
L 693.575541 251.408684 
L 694.412855 215.985741 
L 695.250169 312.15882 
L 696.087483 286.05718 
L 696.924797 217.500702 
L 697.762111 242.629295 
L 698.599425 250.686133 
L 699.436739 252.189118 
L 700.274053 296.797834 
L 701.111367 367.586634 
L 701.948681 343.299353 
L 702.785995 358.275312 
L 703.623309 278.188963 
L 704.460623 268.43478 
L 705.297937 355.395838 
L 706.135251 298.556107 
L 706.972565 267.163704 
L 707.809879 336.103039 
L 709.484507 270.67279 
L 710.321821 279.570317 
L 711.159135 290.948958 
L 711.996449 297.124615 
L 712.833763 281.590004 
L 713.671077 319.254314 
L 714.508391 346.489182 
L 715.345705 329.902863 
L 716.183019 280.957727 
L 717.020333 267.241696 
L 717.857647 242.560977 
L 718.694961 237.621704 
L 719.532275 206.061059 
L 720.369589 169.19492 
L 721.206903 218.565747 
L 722.044217 207.497768 
L 722.881531 247.043259 
L 723.718845 240.529552 
L 724.556159 293.130627 
L 725.393473 203.212682 
L 726.230787 228.444295 
L 727.068101 290.585868 
L 727.905415 220.1527 
L 728.742729 246.476713 
L 729.580043 278.09683 
L 730.417357 283.565088 
L 731.254671 201.284549 
L 732.091984 199.732027 
L 732.929298 284.256836 
L 734.603926 366.887944 
L 735.44124 302.007547 
L 736.278554 180.785624 
L 737.115868 230.46007 
L 737.953182 313.180072 
L 738.790496 356.740209 
L 739.62781 253.475583 
L 740.465124 404.480262 
L 742.139752 284.504113 
L 742.977066 383.505564 
L 743.81438 404.264286 
L 744.651694 404.849612 
L 745.489008 391.662565 
L 746.326322 340.986493 
L 747.163636 354.464638 
L 747.163636 354.464638 
" style="fill:none;stroke:#1f77b4;stroke-linecap:square;stroke-width:1.5;"/>
   </g>
   <g id="line2d_17">
    <path clip-path="url(#p91300ee8f9)" d="M 138.436364 341.177792 
L 139.273678 250.472275 
L 140.110992 330.732305 
L 140.948306 297.874885 
L 141.78562 325.557515 
L 142.622934 202.283668 
L 143.460248 314.669869 
L 144.297562 344.187443 
L 145.134876 289.085814 
L 145.97219 294.391264 
L 146.809504 279.362677 
L 147.646818 270.531603 
L 149.321446 361.022923 
L 150.15876 327.964333 
L 150.996074 335.023414 
L 151.833388 301.406405 
L 152.670702 347.580303 
L 153.508016 314.808705 
L 154.345329 313.697887 
L 155.182643 333.016946 
L 156.019957 324.288334 
L 156.857271 347.135383 
L 157.694585 353.519036 
L 158.531899 275.854704 
L 159.369213 293.833952 
L 160.206527 254.403482 
L 161.043841 271.128278 
L 161.881155 326.955199 
L 162.718469 315.337497 
L 163.555783 319.318735 
L 164.393097 300.430295 
L 165.230411 338.50361 
L 166.067725 241.536167 
L 166.905039 300.965064 
L 167.742353 300.54711 
L 168.579667 279.510653 
L 169.416981 324.918757 
L 170.254295 273.30176 
L 171.091609 279.785643 
L 171.928923 311.27646 
L 172.766237 333.616168 
L 173.603551 274.682329 
L 174.440865 325.971958 
L 175.278179 315.314954 
L 176.115493 249.850149 
L 176.952807 317.971177 
L 177.790121 401.034206 
L 178.627435 343.06532 
L 179.464749 358.106499 
L 180.302063 193.585265 
L 181.976691 329.096622 
L 182.814005 322.768394 
L 183.651319 310.803369 
L 184.488633 272.782497 
L 185.325947 374.563575 
L 186.163261 297.146732 
L 187.000575 345.864828 
L 187.837889 284.8363 
L 188.675203 318.248446 
L 189.512517 339.456266 
L 190.349831 252.112864 
L 191.187145 289.96839 
L 192.024459 289.606525 
L 192.861773 276.667801 
L 193.699087 295.21184 
L 194.536401 228.571751 
L 195.373715 298.958496 
L 196.211029 359.947615 
L 197.048343 279.379805 
L 197.885657 246.931426 
L 198.722971 203.238402 
L 199.560285 243.558 
L 200.397599 249.035738 
L 201.234913 314.097439 
L 202.072227 304.160278 
L 202.909541 310.455308 
L 203.746855 357.046081 
L 204.584169 347.124252 
L 205.421483 287.178451 
L 206.258797 307.319065 
L 207.096111 311.524552 
L 207.933425 340.713044 
L 208.770739 300.609498 
L 209.608053 280.073889 
L 210.445367 316.020912 
L 211.282681 335.664491 
L 212.119995 295.429575 
L 212.957309 315.496074 
L 213.794623 282.637836 
L 214.631937 369.812905 
L 215.469251 273.8114 
L 216.306565 284.579751 
L 217.143879 327.36881 
L 217.981193 285.812692 
L 218.818507 254.859419 
L 219.655821 245.400979 
L 220.493135 308.911726 
L 221.330449 363.454468 
L 222.167763 196.257195 
L 223.005077 292.152942 
L 223.842391 251.673828 
L 224.679705 257.496382 
L 225.517019 328.115364 
L 226.354333 350.916021 
L 227.191647 314.708482 
L 228.028961 420.217176 
L 228.866275 407.813385 
L 229.703589 354.033762 
L 230.540903 344.026541 
L 231.378217 294.61298 
L 232.215531 339.355554 
L 233.052845 276.942859 
L 233.890159 255.773061 
L 234.727473 309.384443 
L 235.564787 159.790078 
L 236.402101 288.86895 
L 237.239415 371.209777 
L 238.076729 324.892662 
L 238.914043 358.03546 
L 239.751357 346.359987 
L 240.588671 383.21306 
L 241.425985 408.355814 
L 242.263299 386.057674 
L 243.100613 404.107465 
L 243.937927 279.466545 
L 244.775241 349.461491 
L 245.612555 379.210243 
L 246.449869 343.66745 
L 247.287183 223.824458 
L 248.124497 290.756076 
L 248.961811 348.057609 
L 249.799125 271.648747 
L 250.636439 324.950962 
L 251.473753 258.530298 
L 252.311067 308.855986 
L 253.148381 265.445698 
L 253.985695 291.608536 
L 254.823009 309.811577 
L 255.660323 269.479997 
L 256.497637 271.059015 
L 257.334951 334.208822 
L 258.172265 307.707265 
L 259.846893 265.921604 
L 260.684207 289.148404 
L 261.521521 333.609132 
L 262.358835 384.503531 
L 263.196149 241.298167 
L 264.033463 390.213036 
L 264.870777 280.127954 
L 265.708091 355.807718 
L 266.545405 373.007422 
L 267.382719 325.792915 
L 268.220033 308.310669 
L 269.057347 257.911013 
L 269.89466 322.381614 
L 270.731974 241.220996 
L 271.569288 369.97169 
L 272.406602 400.135903 
L 273.243916 381.712587 
L 274.08123 403.16673 
L 274.918544 300.012689 
L 275.755858 388.837346 
L 276.593172 364.052517 
L 277.430486 370.487408 
L 278.2678 371.476123 
L 279.105114 381.923065 
L 279.942428 409.403232 
L 280.779742 407.80147 
L 281.617056 370.772872 
L 282.45437 369.589976 
L 283.291684 311.636342 
L 284.128998 402.62219 
L 284.966312 342.630526 
L 285.803626 351.802972 
L 286.64094 397.098945 
L 287.478254 322.578857 
L 288.315568 385.156054 
L 289.152882 292.464843 
L 289.990196 342.999105 
L 290.82751 302.225333 
L 291.664824 380.87369 
L 292.502138 386.052574 
L 295.01408 315.274103 
L 295.851394 340.123787 
L 296.688708 320.792142 
L 297.526022 390.999107 
L 298.363336 378.565715 
L 299.20065 390.863743 
L 300.037964 397.963333 
L 300.875278 398.025554 
L 301.712592 394.014649 
L 302.549906 358.533641 
L 303.38722 426.930113 
L 304.224534 412.176545 
L 305.061848 335.010916 
L 305.899162 361.733814 
L 306.736476 328.967758 
L 307.57379 349.447814 
L 308.411104 341.650535 
L 309.248418 388.340036 
L 310.085732 406.220408 
L 310.923046 376.982562 
L 311.76036 384.909945 
L 312.597674 389.520427 
L 313.434988 392.674475 
L 314.272302 271.906449 
L 315.109616 308.148553 
L 315.94693 291.122377 
L 316.784244 316.071278 
L 317.621558 299.656239 
L 318.458872 313.738871 
L 319.296186 291.289813 
L 320.1335 340.496715 
L 320.970814 358.247379 
L 321.808128 401.593274 
L 322.645442 399.682413 
L 323.482756 276.194897 
L 324.32007 276.592252 
L 325.157384 323.421332 
L 325.994698 363.098648 
L 326.832012 363.821882 
L 327.669326 387.32914 
L 328.50664 248.511972 
L 329.343954 290.975983 
L 330.181268 349.680694 
L 331.018582 285.543599 
L 331.855896 346.003871 
L 332.69321 376.789192 
L 333.530524 346.644875 
L 334.367838 362.853967 
L 335.205152 362.64241 
L 336.042466 325.17304 
L 336.87978 271.728318 
L 337.717094 245.741239 
L 338.554408 347.143766 
L 340.229036 279.640911 
L 342.740978 279.827861 
L 343.578292 275.84681 
L 344.415606 282.268908 
L 345.25292 335.599174 
L 346.090234 339.570535 
L 346.927548 291.24899 
L 347.764862 266.096425 
L 348.602176 321.345018 
L 349.43949 317.387676 
L 350.276804 295.504589 
L 351.114118 334.744248 
L 351.951432 347.021174 
L 352.788746 237.430514 
L 353.62606 388.354223 
L 355.300688 250.812857 
L 356.138002 383.846679 
L 356.975316 379.910264 
L 357.81263 290.876791 
L 358.649944 265.108105 
L 359.487258 382.552214 
L 360.324572 268.381522 
L 361.161886 209.851203 
L 361.9992 299.3033 
L 362.836514 330.077584 
L 363.673828 313.606683 
L 364.511142 207.616673 
L 365.348456 339.7914 
L 366.18577 215.306947 
L 367.023084 294.200468 
L 367.860398 295.168215 
L 368.697712 304.884049 
L 369.535026 246.096108 
L 370.37234 216.187753 
L 371.209654 236.869905 
L 372.046968 238.842431 
L 372.884282 249.082794 
L 373.721596 136.240576 
L 374.55891 179.311327 
L 375.396224 293.532465 
L 376.233538 288.195104 
L 377.070852 208.334023 
L 377.908166 259.077652 
L 378.74548 270.756321 
L 379.582794 242.055229 
L 380.420108 277.598478 
L 381.257422 240.951071 
L 382.094736 227.446096 
L 382.93205 225.275014 
L 383.769364 178.996156 
L 384.606678 233.579466 
L 385.443991 203.56609 
L 386.281305 257.165611 
L 387.118619 244.110059 
L 387.955933 262.576297 
L 388.793247 258.757455 
L 389.630561 259.257539 
L 390.467875 221.159992 
L 391.305189 277.548889 
L 392.142503 230.304588 
L 392.979817 204.199997 
L 393.817131 216.631078 
L 394.654445 208.149392 
L 395.491759 191.613315 
L 396.329073 155.284484 
L 397.166387 133.100901 
L 398.003701 214.556064 
L 398.841015 209.243537 
L 399.678329 217.095632 
L 400.515643 211.917505 
L 401.352957 251.45447 
L 402.190271 236.716594 
L 403.027585 315.286769 
L 403.864899 276.885229 
L 404.702213 311.557201 
L 405.539527 286.104811 
L 406.376841 274.651302 
L 407.214155 335.002808 
L 408.051469 325.000672 
L 408.888783 311.752326 
L 409.726097 371.768765 
L 410.563411 299.532749 
L 411.400725 268.288402 
L 412.238039 250.938692 
L 413.075353 332.042015 
L 414.749981 265.397503 
L 415.587295 346.024122 
L 416.424609 335.214887 
L 417.261923 280.411067 
L 418.099237 273.112491 
L 418.936551 327.747133 
L 419.773865 331.162 
L 420.611179 325.501011 
L 421.448493 327.538833 
L 422.285807 288.979131 
L 423.123121 347.816741 
L 424.797749 275.174224 
L 425.635063 300.982675 
L 426.472377 232.372848 
L 427.309691 297.480532 
L 428.147005 336.160548 
L 428.984319 353.462719 
L 429.821633 357.961445 
L 430.658947 338.992188 
L 431.496261 329.619919 
L 432.333575 298.239162 
L 433.170889 294.059179 
L 434.008203 346.609566 
L 434.845517 320.871779 
L 435.682831 319.877294 
L 436.520145 367.812482 
L 437.357459 223.872197 
L 438.194773 344.547579 
L 439.032087 302.682462 
L 439.869401 242.69715 
L 440.706715 305.494917 
L 441.544029 292.219056 
L 442.381343 345.824433 
L 443.218657 388.104489 
L 444.055971 341.502231 
L 444.893285 354.039881 
L 445.730599 338.461439 
L 446.567913 249.535715 
L 448.242541 326.262013 
L 449.079855 340.422781 
L 449.917169 294.765888 
L 450.754483 262.049837 
L 451.591797 267.945622 
L 452.429111 339.112039 
L 453.266425 354.973955 
L 454.103739 367.800145 
L 454.941053 354.751307 
L 455.778367 245.459239 
L 456.615681 249.620096 
L 457.452995 277.09121 
L 458.290309 320.599282 
L 459.127623 307.94875 
L 459.964937 320.89577 
L 460.802251 243.633134 
L 461.639565 284.049217 
L 462.476879 259.577119 
L 463.314193 307.763609 
L 464.151507 264.779317 
L 464.988821 296.731378 
L 465.826135 272.54561 
L 466.663449 256.219495 
L 467.500763 303.148611 
L 468.338077 284.157964 
L 469.175391 307.567344 
L 470.012705 223.996853 
L 470.850019 293.705329 
L 471.687333 260.588036 
L 472.524647 326.119572 
L 473.361961 300.58197 
L 474.199275 285.82529 
L 475.036589 333.67743 
L 475.873903 268.96324 
L 476.711217 299.626713 
L 477.548531 225.273245 
L 478.385845 339.743098 
L 479.223159 275.244372 
L 480.897787 318.753717 
L 481.735101 262.690592 
L 482.572415 252.947003 
L 483.409729 311.211566 
L 484.247043 334.802683 
L 485.084357 244.375695 
L 485.921671 298.041973 
L 486.758985 312.215795 
L 487.596299 276.930515 
L 488.433613 353.568344 
L 489.270927 339.056935 
L 490.108241 284.452214 
L 490.945555 309.307553 
L 491.782869 294.310059 
L 492.620183 314.020348 
L 493.457497 229.130739 
L 494.294811 331.477666 
L 495.132125 386.906421 
L 495.969439 277.00065 
L 496.806753 335.527049 
L 498.481381 267.971435 
L 499.318695 310.597159 
L 500.156009 247.268148 
L 500.993322 344.514924 
L 501.830636 253.856034 
L 502.66795 264.376066 
L 503.505264 236.460153 
L 504.342578 330.287198 
L 505.179892 325.151677 
L 506.017206 338.8665 
L 506.85452 320.027401 
L 507.691834 347.208118 
L 508.529148 349.282743 
L 509.366462 266.327992 
L 510.203776 340.754491 
L 511.04109 308.415931 
L 511.878404 218.496586 
L 512.715718 183.883692 
L 513.553032 325.83859 
L 514.390346 289.99695 
L 515.22766 336.0956 
L 516.064974 302.005533 
L 516.902288 407.37794 
L 517.739602 379.044817 
L 518.576916 401.380826 
L 519.41423 366.100914 
L 520.251544 360.381625 
L 521.088858 297.453017 
L 522.763486 213.257826 
L 523.6008 313.373883 
L 524.438114 264.706877 
L 525.275428 225.902715 
L 526.112742 224.085724 
L 527.78737 338.537578 
L 528.624684 340.999379 
L 529.461998 284.897589 
L 530.299312 315.063887 
L 531.136626 282.269297 
L 531.97394 236.665907 
L 532.811254 170.499914 
L 533.648568 236.616532 
L 534.485882 229.838533 
L 535.323196 285.492254 
L 536.16051 312.263762 
L 536.997824 356.625413 
L 537.835138 290.351229 
L 538.672452 282.02016 
L 539.509766 269.882485 
L 540.34708 342.458667 
L 541.184394 244.006646 
L 542.021708 288.331661 
L 542.859022 261.884438 
L 543.696336 315.384271 
L 544.53365 266.102456 
L 545.370964 292.963761 
L 546.208278 350.299684 
L 547.045592 262.218694 
L 547.882906 336.453404 
L 548.72022 373.625869 
L 549.557534 367.269718 
L 550.394848 342.083728 
L 551.232162 399.655112 
L 552.069476 384.313424 
L 552.90679 350.201552 
L 553.744104 386.954723 
L 554.581418 353.525885 
L 555.418732 371.150539 
L 556.256046 393.348911 
L 557.09336 369.76987 
L 557.930674 365.469949 
L 558.767988 371.831763 
L 559.605302 357.900256 
L 560.442616 385.794504 
L 561.27993 377.130833 
L 562.117244 391.199842 
L 562.954558 357.078427 
L 563.791872 361.445199 
L 564.629186 345.640331 
L 565.4665 401.249409 
L 566.303814 376.369221 
L 567.141128 358.007395 
L 567.978442 366.899081 
L 568.815756 239.987144 
L 569.65307 367.080925 
L 570.490384 245.587956 
L 571.327698 398.566073 
L 572.165012 284.281762 
L 573.002326 229.403933 
L 573.83964 265.674115 
L 574.676954 316.869941 
L 575.514268 337.100425 
L 576.351582 303.360423 
L 577.188896 382.036576 
L 578.02621 372.712221 
L 578.863524 287.168721 
L 579.700838 265.245051 
L 580.538152 364.404176 
L 581.375466 374.346678 
L 582.21278 363.383992 
L 583.050094 349.992327 
L 583.887408 374.304132 
L 584.724722 404.016282 
L 585.562036 355.637039 
L 586.39935 321.255048 
L 587.236664 265.506853 
L 588.073978 304.703518 
L 588.911292 310.307507 
L 589.748606 268.707563 
L 590.58592 322.784892 
L 591.423234 362.916703 
L 592.260548 312.906139 
L 593.097862 217.210732 
L 593.935176 379.73533 
L 594.77249 379.392349 
L 595.609804 351.916176 
L 596.447118 285.499049 
L 597.284432 364.980171 
L 598.121746 382.254258 
L 598.95906 384.065707 
L 599.796374 351.945507 
L 600.633688 388.928214 
L 601.471002 367.676199 
L 603.14563 383.989924 
L 603.982944 369.694079 
L 604.820258 388.171642 
L 605.657572 388.056984 
L 606.494886 378.720506 
L 607.3322 259.262994 
L 608.169514 334.165908 
L 609.006828 234.157566 
L 609.844142 281.054838 
L 610.681456 251.420964 
L 611.51877 303.594375 
L 612.356084 272.256533 
L 613.193398 290.715413 
L 614.030712 271.780909 
L 614.868026 337.973109 
L 615.70534 248.360243 
L 616.542653 315.5193 
L 617.379967 304.910036 
L 618.217281 301.238554 
L 619.054595 281.508268 
L 619.891909 310.225377 
L 620.729223 311.122225 
L 621.566537 217.115495 
L 622.403851 310.521637 
L 623.241165 269.092145 
L 624.078479 310.132216 
L 624.915793 272.585964 
L 625.753107 305.82987 
L 626.590421 329.19663 
L 627.427735 281.905207 
L 628.265049 247.229308 
L 629.102363 350.667433 
L 629.939677 334.814323 
L 630.776991 262.277932 
L 631.614305 317.667974 
L 632.451619 287.876167 
L 633.288933 324.906909 
L 634.126247 333.653681 
L 634.963561 386.916212 
L 635.800875 303.199286 
L 636.638189 349.968504 
L 637.475503 362.298377 
L 639.150131 408.570815 
L 639.987445 384.264458 
L 640.824759 350.042874 
L 641.662073 354.721782 
L 642.499387 325.949737 
L 643.336701 383.922911 
L 644.174015 279.336006 
L 645.011329 333.389895 
L 645.848643 339.058047 
L 646.685957 295.4654 
L 647.523271 368.242907 
L 648.360585 394.434077 
L 649.197899 393.825896 
L 650.035213 313.481733 
L 650.872527 308.526809 
L 651.709841 381.545841 
L 652.547155 318.11016 
L 653.384469 340.115424 
L 654.221783 338.19632 
L 655.059097 347.178713 
L 655.896411 311.381267 
L 656.733725 364.658962 
L 658.408353 267.10056 
L 659.245667 354.780967 
L 660.082981 259.724211 
L 660.920295 378.314199 
L 661.757609 341.043031 
L 662.594923 284.89783 
L 663.432237 328.758894 
L 664.269551 332.87023 
L 665.106865 385.796581 
L 665.944179 253.21044 
L 666.781493 312.470052 
L 667.618807 257.158454 
L 668.456121 189.883466 
L 669.293435 243.615939 
L 670.130749 278.839286 
L 670.968063 288.857853 
L 671.805377 293.741288 
L 672.642691 288.938696 
L 673.480005 278.114792 
L 674.317319 277.196352 
L 675.154633 297.961303 
L 675.991947 328.058847 
L 676.829261 276.341024 
L 677.666575 346.901444 
L 678.503889 236.809969 
L 679.341203 361.155627 
L 680.178517 218.093629 
L 681.015831 339.507785 
L 681.853145 329.067485 
L 682.690459 269.370218 
L 683.527773 311.019429 
L 684.365087 236.120509 
L 685.202401 311.254172 
L 686.039715 247.085648 
L 686.877029 229.836804 
L 687.714343 366.660217 
L 688.551657 305.262747 
L 689.388971 290.683167 
L 690.226285 315.725791 
L 691.063599 281.782937 
L 691.900913 252.590887 
L 692.738227 237.474996 
L 693.575541 254.417139 
L 694.412855 215.197959 
L 695.250169 239.899813 
L 696.087483 302.767634 
L 696.924797 189.477534 
L 697.762111 247.80844 
L 698.599425 249.118471 
L 699.436739 206.536117 
L 700.274053 292.024815 
L 701.111367 293.105518 
L 701.948681 297.415678 
L 702.785995 358.779327 
L 703.623309 342.885473 
L 704.460623 293.795608 
L 705.297937 258.030736 
L 706.135251 286.360073 
L 706.972565 248.047203 
L 707.809879 289.727562 
L 708.647193 271.606074 
L 709.484507 267.186604 
L 710.321821 201.668444 
L 711.159135 219.210746 
L 711.996449 234.151521 
L 712.833763 272.687702 
L 713.671077 247.230394 
L 714.508391 326.93153 
L 715.345705 262.545324 
L 716.183019 327.339727 
L 717.020333 259.496625 
L 717.857647 256.197729 
L 718.694961 217.121874 
L 719.532275 224.320588 
L 720.369589 234.947691 
L 721.206903 311.855565 
L 722.044217 304.443833 
L 722.881531 307.895703 
L 723.718845 259.922071 
L 724.556159 283.071538 
L 725.393473 270.745439 
L 726.230787 278.438286 
L 727.068101 293.262755 
L 727.905415 281.758169 
L 728.742729 226.151196 
L 729.580043 256.872661 
L 730.417357 240.576769 
L 731.254671 275.635079 
L 732.091984 159.690445 
L 732.929298 299.094651 
L 733.766612 254.89326 
L 734.603926 297.052379 
L 735.44124 303.450795 
L 736.278554 259.289946 
L 737.115868 279.894149 
L 737.953182 257.425175 
L 738.790496 271.728773 
L 739.62781 301.336284 
L 740.465124 346.269983 
L 741.302438 313.322686 
L 742.139752 295.316178 
L 742.977066 274.744181 
L 743.81438 351.732522 
L 744.651694 335.301319 
L 745.489008 284.079225 
L 746.326322 344.941181 
L 747.163636 343.020375 
L 747.163636 343.020375 
" style="fill:none;stroke:#ff0000;stroke-dasharray:5.55,2.4;stroke-dashoffset:0;stroke-width:1.5;"/>
   </g>
   <g id="patch_3">
    <path d="M 108 460.8 
L 108 69.12 
" style="fill:none;stroke:#000000;stroke-linecap:square;stroke-linejoin:miter;stroke-width:0.8;"/>
   </g>
   <g id="patch_4">
    <path d="M 777.6 460.8 
L 777.6 69.12 
" style="fill:none;stroke:#000000;stroke-linecap:square;stroke-linejoin:miter;stroke-width:0.8;"/>
   </g>
   <g id="patch_5">
    <path d="M 108 460.8 
L 777.6 460.8 
" style="fill:none;stroke:#000000;stroke-linecap:square;stroke-linejoin:miter;stroke-width:0.8;"/>
   </g>
   <g id="patch_6">
    <path d="M 108 69.12 
L 777.6 69.12 
" style="fill:none;stroke:#000000;stroke-linecap:square;stroke-linejoin:miter;stroke-width:0.8;"/>
   </g>
   <g id="text_18">
    <!-- Macau residential 2020-2021 | Forecast vs Monitored | RNN -->
    <g transform="translate(219.680859 63.12)scale(0.15 -0.15)">
     <defs>
      <path d="M 9.8125 72.90625 
L 24.515625 72.90625 
L 43.109375 23.296875 
L 61.8125 72.90625 
L 76.515625 72.90625 
L 76.515625 0 
L 66.890625 0 
L 66.890625 64.015625 
L 48.09375 14.015625 
L 38.1875 14.015625 
L 19.390625 64.015625 
L 19.390625 0 
L 9.8125 0 
z
" id="DejaVuSans-77"/>
      <path d="M 48.78125 52.59375 
L 48.78125 44.1875 
Q 44.96875 46.296875 41.140625 47.34375 
Q 37.3125 48.390625 33.40625 48.390625 
Q 24.65625 48.390625 19.8125 42.84375 
Q 14.984375 37.3125 14.984375 27.296875 
Q 14.984375 17.28125 19.8125 11.734375 
Q 24.65625 6.203125 33.40625 6.203125 
Q 37.3125 6.203125 41.140625 7.25 
Q 44.96875 8.296875 48.78125 10.40625 
L 48.78125 2.09375 
Q 45.015625 0.34375 40.984375 -0.53125 
Q 36.96875 -1.421875 32.421875 -1.421875 
Q 20.0625 -1.421875 12.78125 6.34375 
Q 5.515625 14.109375 5.515625 27.296875 
Q 5.515625 40.671875 12.859375 48.328125 
Q 20.21875 56 33.015625 56 
Q 37.15625 56 41.109375 55.140625 
Q 45.0625 54.296875 48.78125 52.59375 
z
" id="DejaVuSans-99"/>
      <path d="M 8.5 21.578125 
L 8.5 54.6875 
L 17.484375 54.6875 
L 17.484375 21.921875 
Q 17.484375 14.15625 20.5 10.265625 
Q 23.53125 6.390625 29.59375 6.390625 
Q 36.859375 6.390625 41.078125 11.03125 
Q 45.3125 15.671875 45.3125 23.6875 
L 45.3125 54.6875 
L 54.296875 54.6875 
L 54.296875 0 
L 45.3125 0 
L 45.3125 8.40625 
Q 42.046875 3.421875 37.71875 1 
Q 33.40625 -1.421875 27.6875 -1.421875 
Q 18.265625 -1.421875 13.375 4.4375 
Q 8.5 10.296875 8.5 21.578125 
z
M 31.109375 56 
z
" id="DejaVuSans-117"/>
      <path id="DejaVuSans-32"/>
      <path d="M 41.109375 46.296875 
Q 39.59375 47.171875 37.8125 47.578125 
Q 36.03125 48 33.890625 48 
Q 26.265625 48 22.1875 43.046875 
Q 18.109375 38.09375 18.109375 28.8125 
L 18.109375 0 
L 9.078125 0 
L 9.078125 54.6875 
L 18.109375 54.6875 
L 18.109375 46.1875 
Q 20.953125 51.171875 25.484375 53.578125 
Q 30.03125 56 36.53125 56 
Q 37.453125 56 38.578125 55.875 
Q 39.703125 55.765625 41.0625 55.515625 
z
" id="DejaVuSans-114"/>
      <path d="M 44.28125 53.078125 
L 44.28125 44.578125 
Q 40.484375 46.53125 36.375 47.5 
Q 32.28125 48.484375 27.875 48.484375 
Q 21.1875 48.484375 17.84375 46.4375 
Q 14.5 44.390625 14.5 40.28125 
Q 14.5 37.15625 16.890625 35.375 
Q 19.28125 33.59375 26.515625 31.984375 
L 29.59375 31.296875 
Q 39.15625 29.25 43.1875 25.515625 
Q 47.21875 21.78125 47.21875 15.09375 
Q 47.21875 7.46875 41.1875 3.015625 
Q 35.15625 -1.421875 24.609375 -1.421875 
Q 20.21875 -1.421875 15.453125 -0.5625 
Q 10.6875 0.296875 5.421875 2 
L 5.421875 11.28125 
Q 10.40625 8.6875 15.234375 7.390625 
Q 20.0625 6.109375 24.8125 6.109375 
Q 31.15625 6.109375 34.5625 8.28125 
Q 37.984375 10.453125 37.984375 14.40625 
Q 37.984375 18.0625 35.515625 20.015625 
Q 33.0625 21.96875 24.703125 23.78125 
L 21.578125 24.515625 
Q 13.234375 26.265625 9.515625 29.90625 
Q 5.8125 33.546875 5.8125 39.890625 
Q 5.8125 47.609375 11.28125 51.796875 
Q 16.75 56 26.8125 56 
Q 31.78125 56 36.171875 55.265625 
Q 40.578125 54.546875 44.28125 53.078125 
z
" id="DejaVuSans-115"/>
      <path d="M 9.421875 54.6875 
L 18.40625 54.6875 
L 18.40625 0 
L 9.421875 0 
z
M 9.421875 75.984375 
L 18.40625 75.984375 
L 18.40625 64.59375 
L 9.421875 64.59375 
z
" id="DejaVuSans-105"/>
      <path d="M 45.40625 46.390625 
L 45.40625 75.984375 
L 54.390625 75.984375 
L 54.390625 0 
L 45.40625 0 
L 45.40625 8.203125 
Q 42.578125 3.328125 38.25 0.953125 
Q 33.9375 -1.421875 27.875 -1.421875 
Q 17.96875 -1.421875 11.734375 6.484375 
Q 5.515625 14.40625 5.515625 27.296875 
Q 5.515625 40.1875 11.734375 48.09375 
Q 17.96875 56 27.875 56 
Q 33.9375 56 38.25 53.625 
Q 42.578125 51.265625 45.40625 46.390625 
z
M 14.796875 27.296875 
Q 14.796875 17.390625 18.875 11.75 
Q 22.953125 6.109375 30.078125 6.109375 
Q 37.203125 6.109375 41.296875 11.75 
Q 45.40625 17.390625 45.40625 27.296875 
Q 45.40625 37.203125 41.296875 42.84375 
Q 37.203125 48.484375 30.078125 48.484375 
Q 22.953125 48.484375 18.875 42.84375 
Q 14.796875 37.203125 14.796875 27.296875 
z
" id="DejaVuSans-100"/>
      <path d="M 54.890625 33.015625 
L 54.890625 0 
L 45.90625 0 
L 45.90625 32.71875 
Q 45.90625 40.484375 42.875 44.328125 
Q 39.84375 48.1875 33.796875 48.1875 
Q 26.515625 48.1875 22.3125 43.546875 
Q 18.109375 38.921875 18.109375 30.90625 
L 18.109375 0 
L 9.078125 0 
L 9.078125 54.6875 
L 18.109375 54.6875 
L 18.109375 46.1875 
Q 21.34375 51.125 25.703125 53.5625 
Q 30.078125 56 35.796875 56 
Q 45.21875 56 50.046875 50.171875 
Q 54.890625 44.34375 54.890625 33.015625 
z
" id="DejaVuSans-110"/>
      <path d="M 9.421875 75.984375 
L 18.40625 75.984375 
L 18.40625 0 
L 9.421875 0 
z
" id="DejaVuSans-108"/>
      <path d="M 21 76.421875 
L 21 -23.578125 
L 12.703125 -23.578125 
L 12.703125 76.421875 
z
" id="DejaVuSans-124"/>
      <path d="M 9.8125 72.90625 
L 51.703125 72.90625 
L 51.703125 64.59375 
L 19.671875 64.59375 
L 19.671875 43.109375 
L 48.578125 43.109375 
L 48.578125 34.8125 
L 19.671875 34.8125 
L 19.671875 0 
L 9.8125 0 
z
" id="DejaVuSans-70"/>
      <path d="M 30.609375 48.390625 
Q 23.390625 48.390625 19.1875 42.75 
Q 14.984375 37.109375 14.984375 27.296875 
Q 14.984375 17.484375 19.15625 11.84375 
Q 23.34375 6.203125 30.609375 6.203125 
Q 37.796875 6.203125 41.984375 11.859375 
Q 46.1875 17.53125 46.1875 27.296875 
Q 46.1875 37.015625 41.984375 42.703125 
Q 37.796875 48.390625 30.609375 48.390625 
z
M 30.609375 56 
Q 42.328125 56 49.015625 48.375 
Q 55.71875 40.765625 55.71875 27.296875 
Q 55.71875 13.875 49.015625 6.21875 
Q 42.328125 -1.421875 30.609375 -1.421875 
Q 18.84375 -1.421875 12.171875 6.21875 
Q 5.515625 13.875 5.515625 27.296875 
Q 5.515625 40.765625 12.171875 48.375 
Q 18.84375 56 30.609375 56 
z
" id="DejaVuSans-111"/>
      <path d="M 2.984375 54.6875 
L 12.5 54.6875 
L 29.59375 8.796875 
L 46.6875 54.6875 
L 56.203125 54.6875 
L 35.6875 0 
L 23.484375 0 
z
" id="DejaVuSans-118"/>
      <path d="M 44.390625 34.1875 
Q 47.5625 33.109375 50.5625 29.59375 
Q 53.5625 26.078125 56.59375 19.921875 
L 66.609375 0 
L 56 0 
L 46.6875 18.703125 
Q 43.0625 26.03125 39.671875 28.421875 
Q 36.28125 30.8125 30.421875 30.8125 
L 19.671875 30.8125 
L 19.671875 0 
L 9.8125 0 
L 9.8125 72.90625 
L 32.078125 72.90625 
Q 44.578125 72.90625 50.734375 67.671875 
Q 56.890625 62.453125 56.890625 51.90625 
Q 56.890625 45.015625 53.6875 40.46875 
Q 50.484375 35.9375 44.390625 34.1875 
z
M 19.671875 64.796875 
L 19.671875 38.921875 
L 32.078125 38.921875 
Q 39.203125 38.921875 42.84375 42.21875 
Q 46.484375 45.515625 46.484375 51.90625 
Q 46.484375 58.296875 42.84375 61.546875 
Q 39.203125 64.796875 32.078125 64.796875 
z
" id="DejaVuSans-82"/>
      <path d="M 9.8125 72.90625 
L 23.09375 72.90625 
L 55.421875 11.921875 
L 55.421875 72.90625 
L 64.984375 72.90625 
L 64.984375 0 
L 51.703125 0 
L 19.390625 60.984375 
L 19.390625 0 
L 9.8125 0 
z
" id="DejaVuSans-78"/>
     </defs>
     <use xlink:href="#DejaVuSans-77"/>
     <use x="86.279297" xlink:href="#DejaVuSans-97"/>
     <use x="147.558594" xlink:href="#DejaVuSans-99"/>
     <use x="202.539062" xlink:href="#DejaVuSans-97"/>
     <use x="263.818359" xlink:href="#DejaVuSans-117"/>
     <use x="327.197266" xlink:href="#DejaVuSans-32"/>
     <use x="358.984375" xlink:href="#DejaVuSans-114"/>
     <use x="397.847656" xlink:href="#DejaVuSans-101"/>
     <use x="459.371094" xlink:href="#DejaVuSans-115"/>
     <use x="511.470703" xlink:href="#DejaVuSans-105"/>
     <use x="539.253906" xlink:href="#DejaVuSans-100"/>
     <use x="602.730469" xlink:href="#DejaVuSans-101"/>
     <use x="664.253906" xlink:href="#DejaVuSans-110"/>
     <use x="727.632812" xlink:href="#DejaVuSans-116"/>
     <use x="766.841797" xlink:href="#DejaVuSans-105"/>
     <use x="794.625" xlink:href="#DejaVuSans-97"/>
     <use x="855.904297" xlink:href="#DejaVuSans-108"/>
     <use x="883.6875" xlink:href="#DejaVuSans-32"/>
     <use x="915.474609" xlink:href="#DejaVuSans-50"/>
     <use x="979.097656" xlink:href="#DejaVuSans-48"/>
     <use x="1042.720703" xlink:href="#DejaVuSans-50"/>
     <use x="1106.34375" xlink:href="#DejaVuSans-48"/>
     <use x="1169.966797" xlink:href="#DejaVuSans-45"/>
     <use x="1206.050781" xlink:href="#DejaVuSans-50"/>
     <use x="1269.673828" xlink:href="#DejaVuSans-48"/>
     <use x="1333.296875" xlink:href="#DejaVuSans-50"/>
     <use x="1396.919922" xlink:href="#DejaVuSans-49"/>
     <use x="1460.542969" xlink:href="#DejaVuSans-32"/>
     <use x="1492.330078" xlink:href="#DejaVuSans-124"/>
     <use x="1526.021484" xlink:href="#DejaVuSans-32"/>
     <use x="1557.808594" xlink:href="#DejaVuSans-70"/>
     <use x="1611.703125" xlink:href="#DejaVuSans-111"/>
     <use x="1672.884766" xlink:href="#DejaVuSans-114"/>
     <use x="1711.748047" xlink:href="#DejaVuSans-101"/>
     <use x="1773.271484" xlink:href="#DejaVuSans-99"/>
     <use x="1828.251953" xlink:href="#DejaVuSans-97"/>
     <use x="1889.53125" xlink:href="#DejaVuSans-115"/>
     <use x="1941.630859" xlink:href="#DejaVuSans-116"/>
     <use x="1980.839844" xlink:href="#DejaVuSans-32"/>
     <use x="2012.626953" xlink:href="#DejaVuSans-118"/>
     <use x="2071.806641" xlink:href="#DejaVuSans-115"/>
     <use x="2123.90625" xlink:href="#DejaVuSans-32"/>
     <use x="2155.693359" xlink:href="#DejaVuSans-77"/>
     <use x="2241.972656" xlink:href="#DejaVuSans-111"/>
     <use x="2303.154297" xlink:href="#DejaVuSans-110"/>
     <use x="2366.533203" xlink:href="#DejaVuSans-105"/>
     <use x="2394.316406" xlink:href="#DejaVuSans-116"/>
     <use x="2433.525391" xlink:href="#DejaVuSans-111"/>
     <use x="2494.707031" xlink:href="#DejaVuSans-114"/>
     <use x="2533.570312" xlink:href="#DejaVuSans-101"/>
     <use x="2595.09375" xlink:href="#DejaVuSans-100"/>
     <use x="2658.570312" xlink:href="#DejaVuSans-32"/>
     <use x="2690.357422" xlink:href="#DejaVuSans-124"/>
     <use x="2724.048828" xlink:href="#DejaVuSans-32"/>
     <use x="2755.835938" xlink:href="#DejaVuSans-82"/>
     <use x="2825.318359" xlink:href="#DejaVuSans-78"/>
     <use x="2900.123047" xlink:href="#DejaVuSans-78"/>
    </g>
   </g>
   <g id="legend_1">
    <g id="patch_7">
     <path d="M 614.74125 114.615 
L 769.2 114.615 
Q 771.6 114.615 771.6 112.215 
L 771.6 77.52 
Q 771.6 75.12 769.2 75.12 
L 614.74125 75.12 
Q 612.34125 75.12 612.34125 77.52 
L 612.34125 112.215 
Q 612.34125 114.615 614.74125 114.615 
z
" style="fill:#ffffff;opacity:0.8;stroke:#cccccc;stroke-linejoin:miter;"/>
    </g>
    <g id="line2d_18">
     <path d="M 617.14125 84.838125 
L 641.14125 84.838125 
" style="fill:none;stroke:#1f77b4;stroke-linecap:square;stroke-width:1.5;"/>
    </g>
    <g id="line2d_19"/>
    <g id="text_19">
     <!-- measured_data_O3 -->
     <g transform="translate(650.74125 89.038125)scale(0.12 -0.12)">
      <defs>
       <path d="M 50.984375 -16.609375 
L 50.984375 -23.578125 
L -0.984375 -23.578125 
L -0.984375 -16.609375 
z
" id="DejaVuSans-95"/>
      </defs>
      <use xlink:href="#DejaVuSans-109"/>
      <use x="97.412109" xlink:href="#DejaVuSans-101"/>
      <use x="158.935547" xlink:href="#DejaVuSans-97"/>
      <use x="220.214844" xlink:href="#DejaVuSans-115"/>
      <use x="272.314453" xlink:href="#DejaVuSans-117"/>
      <use x="335.693359" xlink:href="#DejaVuSans-114"/>
      <use x="374.556641" xlink:href="#DejaVuSans-101"/>
      <use x="436.080078" xlink:href="#DejaVuSans-100"/>
      <use x="499.556641" xlink:href="#DejaVuSans-95"/>
      <use x="549.556641" xlink:href="#DejaVuSans-100"/>
      <use x="613.033203" xlink:href="#DejaVuSans-97"/>
      <use x="674.3125" xlink:href="#DejaVuSans-116"/>
      <use x="713.521484" xlink:href="#DejaVuSans-97"/>
      <use x="774.800781" xlink:href="#DejaVuSans-95"/>
      <use x="824.800781" xlink:href="#DejaVuSans-79"/>
      <use x="903.511719" xlink:href="#DejaVuSans-51"/>
     </g>
    </g>
    <g id="line2d_20">
     <path d="M 617.14125 102.785625 
L 641.14125 102.785625 
" style="fill:none;stroke:#ff0000;stroke-dasharray:5.55,2.4;stroke-dashoffset:0;stroke-width:1.5;"/>
    </g>
    <g id="line2d_21"/>
    <g id="text_20">
     <!-- predicted_data_O3 -->
     <g transform="translate(650.74125 106.985625)scale(0.12 -0.12)">
      <use xlink:href="#DejaVuSans-112"/>
      <use x="63.476562" xlink:href="#DejaVuSans-114"/>
      <use x="102.339844" xlink:href="#DejaVuSans-101"/>
      <use x="163.863281" xlink:href="#DejaVuSans-100"/>
      <use x="227.339844" xlink:href="#DejaVuSans-105"/>
      <use x="255.123047" xlink:href="#DejaVuSans-99"/>
      <use x="310.103516" xlink:href="#DejaVuSans-116"/>
      <use x="349.3125" xlink:href="#DejaVuSans-101"/>
      <use x="410.835938" xlink:href="#DejaVuSans-100"/>
      <use x="474.3125" xlink:href="#DejaVuSans-95"/>
      <use x="524.3125" xlink:href="#DejaVuSans-100"/>
      <use x="587.789062" xlink:href="#DejaVuSans-97"/>
      <use x="649.068359" xlink:href="#DejaVuSans-116"/>
      <use x="688.277344" xlink:href="#DejaVuSans-97"/>
      <use x="749.556641" xlink:href="#DejaVuSans-95"/>
      <use x="799.556641" xlink:href="#DejaVuSans-79"/>
      <use x="878.267578" xlink:href="#DejaVuSans-51"/>
     </g>
    </g>
   </g>
  </g>
 </g>
 <defs>
  <clipPath id="p91300ee8f9">
   <rect height="391.68" width="669.6" x="108" y="69.12"/>
  </clipPath>
 </defs>
</svg>
