<?xml version="1.0" encoding="utf-8" standalone="no"?>
<!DOCTYPE svg PUBLIC "-//W3C//DTD SVG 1.1//EN"
  "http://www.w3.org/Graphics/SVG/1.1/DTD/svg11.dtd">
<!-- Created with matplotlib (https://matplotlib.org/) -->
<svg height="576pt" version="1.1" viewBox="0 0 864 576" width="864pt" xmlns="http://www.w3.org/2000/svg" xmlns:xlink="http://www.w3.org/1999/xlink">
 <metadata>
  <rdf:RDF xmlns:cc="http://creativecommons.org/ns#" xmlns:dc="http://purl.org/dc/elements/1.1/" xmlns:rdf="http://www.w3.org/1999/02/22-rdf-syntax-ns#">
   <cc:Work>
    <dc:type rdf:resource="http://purl.org/dc/dcmitype/StillImage"/>
    <dc:date>2024-03-08T19:54:06.059135</dc:date>
    <dc:format>image/svg+xml</dc:format>
    <dc:creator>
     <cc:Agent>
      <dc:title>Matplotlib v3.3.4, https://matplotlib.org/</dc:title>
     </cc:Agent>
    </dc:creator>
   </cc:Work>
  </rdf:RDF>
 </metadata>
 <defs>
  <style type="text/css">*{stroke-linecap:butt;stroke-linejoin:round;}</style>
 </defs>
 <g id="figure_1">
  <g id="patch_1">
   <path d="M 0 576 
L 864 576 
L 864 0 
L 0 0 
z
" style="fill:#ffffff;"/>
  </g>
  <g id="axes_1">
   <g id="patch_2">
    <path d="M 108 460.8 
L 777.6 460.8 
L 777.6 69.12 
L 108 69.12 
z
" style="fill:#ffffff;"/>
   </g>
   <g id="matplotlib.axis_1">
    <g id="xtick_1">
     <g id="line2d_1">
      <defs>
       <path d="M 0 0 
L 0 3.5 
" id="mcf54e122cc" style="stroke:#000000;stroke-width:0.8;"/>
      </defs>
      <g>
       <use style="stroke:#000000;stroke-width:0.8;" x="138.436364" xlink:href="#mcf54e122cc" y="460.8"/>
      </g>
     </g>
     <g id="text_1">
      <!-- 2020-01 -->
      <g transform="translate(93.766579 500.766215)rotate(-30)scale(0.12 -0.12)">
       <defs>
        <path d="M 19.1875 8.296875 
L 53.609375 8.296875 
L 53.609375 0 
L 7.328125 0 
L 7.328125 8.296875 
Q 12.9375 14.109375 22.625 23.890625 
Q 32.328125 33.6875 34.8125 36.53125 
Q 39.546875 41.84375 41.421875 45.53125 
Q 43.3125 49.21875 43.3125 52.78125 
Q 43.3125 58.59375 39.234375 62.25 
Q 35.15625 65.921875 28.609375 65.921875 
Q 23.96875 65.921875 18.8125 64.3125 
Q 13.671875 62.703125 7.8125 59.421875 
L 7.8125 69.390625 
Q 13.765625 71.78125 18.9375 73 
Q 24.125 74.21875 28.421875 74.21875 
Q 39.75 74.21875 46.484375 68.546875 
Q 53.21875 62.890625 53.21875 53.421875 
Q 53.21875 48.921875 51.53125 44.890625 
Q 49.859375 40.875 45.40625 35.40625 
Q 44.1875 33.984375 37.640625 27.21875 
Q 31.109375 20.453125 19.1875 8.296875 
z
" id="DejaVuSans-50"/>
        <path d="M 31.78125 66.40625 
Q 24.171875 66.40625 20.328125 58.90625 
Q 16.5 51.421875 16.5 36.375 
Q 16.5 21.390625 20.328125 13.890625 
Q 24.171875 6.390625 31.78125 6.390625 
Q 39.453125 6.390625 43.28125 13.890625 
Q 47.125 21.390625 47.125 36.375 
Q 47.125 51.421875 43.28125 58.90625 
Q 39.453125 66.40625 31.78125 66.40625 
z
M 31.78125 74.21875 
Q 44.046875 74.21875 50.515625 64.515625 
Q 56.984375 54.828125 56.984375 36.375 
Q 56.984375 17.96875 50.515625 8.265625 
Q 44.046875 -1.421875 31.78125 -1.421875 
Q 19.53125 -1.421875 13.0625 8.265625 
Q 6.59375 17.96875 6.59375 36.375 
Q 6.59375 54.828125 13.0625 64.515625 
Q 19.53125 74.21875 31.78125 74.21875 
z
" id="DejaVuSans-48"/>
        <path d="M 4.890625 31.390625 
L 31.203125 31.390625 
L 31.203125 23.390625 
L 4.890625 23.390625 
z
" id="DejaVuSans-45"/>
        <path d="M 12.40625 8.296875 
L 28.515625 8.296875 
L 28.515625 63.921875 
L 10.984375 60.40625 
L 10.984375 69.390625 
L 28.421875 72.90625 
L 38.28125 72.90625 
L 38.28125 8.296875 
L 54.390625 8.296875 
L 54.390625 0 
L 12.40625 0 
z
" id="DejaVuSans-49"/>
       </defs>
       <use xlink:href="#DejaVuSans-50"/>
       <use x="63.623047" xlink:href="#DejaVuSans-48"/>
       <use x="127.246094" xlink:href="#DejaVuSans-50"/>
       <use x="190.869141" xlink:href="#DejaVuSans-48"/>
       <use x="254.492188" xlink:href="#DejaVuSans-45"/>
       <use x="290.576172" xlink:href="#DejaVuSans-48"/>
       <use x="354.199219" xlink:href="#DejaVuSans-49"/>
      </g>
     </g>
    </g>
    <g id="xtick_2">
     <g id="line2d_2">
      <g>
       <use style="stroke:#000000;stroke-width:0.8;" x="214.318804" xlink:href="#mcf54e122cc" y="460.8"/>
      </g>
     </g>
     <g id="text_2">
      <!-- 2020-04 -->
      <g transform="translate(169.64902 500.766215)rotate(-30)scale(0.12 -0.12)">
       <defs>
        <path d="M 37.796875 64.3125 
L 12.890625 25.390625 
L 37.796875 25.390625 
z
M 35.203125 72.90625 
L 47.609375 72.90625 
L 47.609375 25.390625 
L 58.015625 25.390625 
L 58.015625 17.1875 
L 47.609375 17.1875 
L 47.609375 0 
L 37.796875 0 
L 37.796875 17.1875 
L 4.890625 17.1875 
L 4.890625 26.703125 
z
" id="DejaVuSans-52"/>
       </defs>
       <use xlink:href="#DejaVuSans-50"/>
       <use x="63.623047" xlink:href="#DejaVuSans-48"/>
       <use x="127.246094" xlink:href="#DejaVuSans-50"/>
       <use x="190.869141" xlink:href="#DejaVuSans-48"/>
       <use x="254.492188" xlink:href="#DejaVuSans-45"/>
       <use x="290.576172" xlink:href="#DejaVuSans-48"/>
       <use x="354.199219" xlink:href="#DejaVuSans-52"/>
      </g>
     </g>
    </g>
    <g id="xtick_3">
     <g id="line2d_3">
      <g>
       <use style="stroke:#000000;stroke-width:0.8;" x="290.201245" xlink:href="#mcf54e122cc" y="460.8"/>
      </g>
     </g>
     <g id="text_3">
      <!-- 2020-07 -->
      <g transform="translate(245.53146 500.766215)rotate(-30)scale(0.12 -0.12)">
       <defs>
        <path d="M 8.203125 72.90625 
L 55.078125 72.90625 
L 55.078125 68.703125 
L 28.609375 0 
L 18.3125 0 
L 43.21875 64.59375 
L 8.203125 64.59375 
z
" id="DejaVuSans-55"/>
       </defs>
       <use xlink:href="#DejaVuSans-50"/>
       <use x="63.623047" xlink:href="#DejaVuSans-48"/>
       <use x="127.246094" xlink:href="#DejaVuSans-50"/>
       <use x="190.869141" xlink:href="#DejaVuSans-48"/>
       <use x="254.492188" xlink:href="#DejaVuSans-45"/>
       <use x="290.576172" xlink:href="#DejaVuSans-48"/>
       <use x="354.199219" xlink:href="#DejaVuSans-55"/>
      </g>
     </g>
    </g>
    <g id="xtick_4">
     <g id="line2d_4">
      <g>
       <use style="stroke:#000000;stroke-width:0.8;" x="366.917559" xlink:href="#mcf54e122cc" y="460.8"/>
      </g>
     </g>
     <g id="text_4">
      <!-- 2020-10 -->
      <g transform="translate(322.247774 500.766215)rotate(-30)scale(0.12 -0.12)">
       <use xlink:href="#DejaVuSans-50"/>
       <use x="63.623047" xlink:href="#DejaVuSans-48"/>
       <use x="127.246094" xlink:href="#DejaVuSans-50"/>
       <use x="190.869141" xlink:href="#DejaVuSans-48"/>
       <use x="254.492188" xlink:href="#DejaVuSans-45"/>
       <use x="290.576172" xlink:href="#DejaVuSans-49"/>
       <use x="354.199219" xlink:href="#DejaVuSans-48"/>
      </g>
     </g>
    </g>
    <g id="xtick_5">
     <g id="line2d_5">
      <g>
       <use style="stroke:#000000;stroke-width:0.8;" x="443.633873" xlink:href="#mcf54e122cc" y="460.8"/>
      </g>
     </g>
     <g id="text_5">
      <!-- 2021-01 -->
      <g transform="translate(398.964088 500.766215)rotate(-30)scale(0.12 -0.12)">
       <use xlink:href="#DejaVuSans-50"/>
       <use x="63.623047" xlink:href="#DejaVuSans-48"/>
       <use x="127.246094" xlink:href="#DejaVuSans-50"/>
       <use x="190.869141" xlink:href="#DejaVuSans-49"/>
       <use x="254.492188" xlink:href="#DejaVuSans-45"/>
       <use x="290.576172" xlink:href="#DejaVuSans-48"/>
       <use x="354.199219" xlink:href="#DejaVuSans-49"/>
      </g>
     </g>
    </g>
    <g id="xtick_6">
     <g id="line2d_6">
      <g>
       <use style="stroke:#000000;stroke-width:0.8;" x="518.682441" xlink:href="#mcf54e122cc" y="460.8"/>
      </g>
     </g>
     <g id="text_6">
      <!-- 2021-04 -->
      <g transform="translate(474.012656 500.766215)rotate(-30)scale(0.12 -0.12)">
       <use xlink:href="#DejaVuSans-50"/>
       <use x="63.623047" xlink:href="#DejaVuSans-48"/>
       <use x="127.246094" xlink:href="#DejaVuSans-50"/>
       <use x="190.869141" xlink:href="#DejaVuSans-49"/>
       <use x="254.492188" xlink:href="#DejaVuSans-45"/>
       <use x="290.576172" xlink:href="#DejaVuSans-48"/>
       <use x="354.199219" xlink:href="#DejaVuSans-52"/>
      </g>
     </g>
    </g>
    <g id="xtick_7">
     <g id="line2d_7">
      <g>
       <use style="stroke:#000000;stroke-width:0.8;" x="594.564882" xlink:href="#mcf54e122cc" y="460.8"/>
      </g>
     </g>
     <g id="text_7">
      <!-- 2021-07 -->
      <g transform="translate(549.895097 500.766215)rotate(-30)scale(0.12 -0.12)">
       <use xlink:href="#DejaVuSans-50"/>
       <use x="63.623047" xlink:href="#DejaVuSans-48"/>
       <use x="127.246094" xlink:href="#DejaVuSans-50"/>
       <use x="190.869141" xlink:href="#DejaVuSans-49"/>
       <use x="254.492188" xlink:href="#DejaVuSans-45"/>
       <use x="290.576172" xlink:href="#DejaVuSans-48"/>
       <use x="354.199219" xlink:href="#DejaVuSans-55"/>
      </g>
     </g>
    </g>
    <g id="xtick_8">
     <g id="line2d_8">
      <g>
       <use style="stroke:#000000;stroke-width:0.8;" x="671.281196" xlink:href="#mcf54e122cc" y="460.8"/>
      </g>
     </g>
     <g id="text_8">
      <!-- 2021-10 -->
      <g transform="translate(626.611411 500.766215)rotate(-30)scale(0.12 -0.12)">
       <use xlink:href="#DejaVuSans-50"/>
       <use x="63.623047" xlink:href="#DejaVuSans-48"/>
       <use x="127.246094" xlink:href="#DejaVuSans-50"/>
       <use x="190.869141" xlink:href="#DejaVuSans-49"/>
       <use x="254.492188" xlink:href="#DejaVuSans-45"/>
       <use x="290.576172" xlink:href="#DejaVuSans-49"/>
       <use x="354.199219" xlink:href="#DejaVuSans-48"/>
      </g>
     </g>
    </g>
    <g id="xtick_9">
     <g id="line2d_9">
      <g>
       <use style="stroke:#000000;stroke-width:0.8;" x="747.997509" xlink:href="#mcf54e122cc" y="460.8"/>
      </g>
     </g>
     <g id="text_9">
      <!-- 2022-01 -->
      <g transform="translate(703.327724 500.766215)rotate(-30)scale(0.12 -0.12)">
       <use xlink:href="#DejaVuSans-50"/>
       <use x="63.623047" xlink:href="#DejaVuSans-48"/>
       <use x="127.246094" xlink:href="#DejaVuSans-50"/>
       <use x="190.869141" xlink:href="#DejaVuSans-50"/>
       <use x="254.492188" xlink:href="#DejaVuSans-45"/>
       <use x="290.576172" xlink:href="#DejaVuSans-48"/>
       <use x="354.199219" xlink:href="#DejaVuSans-49"/>
      </g>
     </g>
    </g>
    <g id="text_10">
     <!-- Date -->
     <g transform="translate(424.873828 518.325146)scale(0.15 -0.15)">
      <defs>
       <path d="M 19.671875 64.796875 
L 19.671875 8.109375 
L 31.59375 8.109375 
Q 46.6875 8.109375 53.6875 14.9375 
Q 60.6875 21.78125 60.6875 36.53125 
Q 60.6875 51.171875 53.6875 57.984375 
Q 46.6875 64.796875 31.59375 64.796875 
z
M 9.8125 72.90625 
L 30.078125 72.90625 
Q 51.265625 72.90625 61.171875 64.09375 
Q 71.09375 55.28125 71.09375 36.53125 
Q 71.09375 17.671875 61.125 8.828125 
Q 51.171875 0 30.078125 0 
L 9.8125 0 
z
" id="DejaVuSans-68"/>
       <path d="M 34.28125 27.484375 
Q 23.390625 27.484375 19.1875 25 
Q 14.984375 22.515625 14.984375 16.5 
Q 14.984375 11.71875 18.140625 8.90625 
Q 21.296875 6.109375 26.703125 6.109375 
Q 34.1875 6.109375 38.703125 11.40625 
Q 43.21875 16.703125 43.21875 25.484375 
L 43.21875 27.484375 
z
M 52.203125 31.203125 
L 52.203125 0 
L 43.21875 0 
L 43.21875 8.296875 
Q 40.140625 3.328125 35.546875 0.953125 
Q 30.953125 -1.421875 24.3125 -1.421875 
Q 15.921875 -1.421875 10.953125 3.296875 
Q 6 8.015625 6 15.921875 
Q 6 25.140625 12.171875 29.828125 
Q 18.359375 34.515625 30.609375 34.515625 
L 43.21875 34.515625 
L 43.21875 35.40625 
Q 43.21875 41.609375 39.140625 45 
Q 35.0625 48.390625 27.6875 48.390625 
Q 23 48.390625 18.546875 47.265625 
Q 14.109375 46.140625 10.015625 43.890625 
L 10.015625 52.203125 
Q 14.9375 54.109375 19.578125 55.046875 
Q 24.21875 56 28.609375 56 
Q 40.484375 56 46.34375 49.84375 
Q 52.203125 43.703125 52.203125 31.203125 
z
" id="DejaVuSans-97"/>
       <path d="M 18.3125 70.21875 
L 18.3125 54.6875 
L 36.8125 54.6875 
L 36.8125 47.703125 
L 18.3125 47.703125 
L 18.3125 18.015625 
Q 18.3125 11.328125 20.140625 9.421875 
Q 21.96875 7.515625 27.59375 7.515625 
L 36.8125 7.515625 
L 36.8125 0 
L 27.59375 0 
Q 17.1875 0 13.234375 3.875 
Q 9.28125 7.765625 9.28125 18.015625 
L 9.28125 47.703125 
L 2.6875 47.703125 
L 2.6875 54.6875 
L 9.28125 54.6875 
L 9.28125 70.21875 
z
" id="DejaVuSans-116"/>
       <path d="M 56.203125 29.59375 
L 56.203125 25.203125 
L 14.890625 25.203125 
Q 15.484375 15.921875 20.484375 11.0625 
Q 25.484375 6.203125 34.421875 6.203125 
Q 39.59375 6.203125 44.453125 7.46875 
Q 49.3125 8.734375 54.109375 11.28125 
L 54.109375 2.78125 
Q 49.265625 0.734375 44.1875 -0.34375 
Q 39.109375 -1.421875 33.890625 -1.421875 
Q 20.796875 -1.421875 13.15625 6.1875 
Q 5.515625 13.8125 5.515625 26.8125 
Q 5.515625 40.234375 12.765625 48.109375 
Q 20.015625 56 32.328125 56 
Q 43.359375 56 49.78125 48.890625 
Q 56.203125 41.796875 56.203125 29.59375 
z
M 47.21875 32.234375 
Q 47.125 39.59375 43.09375 43.984375 
Q 39.0625 48.390625 32.421875 48.390625 
Q 24.90625 48.390625 20.390625 44.140625 
Q 15.875 39.890625 15.1875 32.171875 
z
" id="DejaVuSans-101"/>
      </defs>
      <use xlink:href="#DejaVuSans-68"/>
      <use x="77.001953" xlink:href="#DejaVuSans-97"/>
      <use x="138.28125" xlink:href="#DejaVuSans-116"/>
      <use x="177.490234" xlink:href="#DejaVuSans-101"/>
     </g>
    </g>
   </g>
   <g id="matplotlib.axis_2">
    <g id="ytick_1">
     <g id="line2d_10">
      <defs>
       <path d="M 0 0 
L -3.5 0 
" id="m81e47985cd" style="stroke:#000000;stroke-width:0.8;"/>
      </defs>
      <g>
       <use style="stroke:#000000;stroke-width:0.8;" x="108" xlink:href="#m81e47985cd" y="430.912827"/>
      </g>
     </g>
     <g id="text_11">
      <!-- 0 -->
      <g transform="translate(93.365 435.47189)scale(0.12 -0.12)">
       <use xlink:href="#DejaVuSans-48"/>
      </g>
     </g>
    </g>
    <g id="ytick_2">
     <g id="line2d_11">
      <g>
       <use style="stroke:#000000;stroke-width:0.8;" x="108" xlink:href="#m81e47985cd" y="363.797665"/>
      </g>
     </g>
     <g id="text_12">
      <!-- 20 -->
      <g transform="translate(85.73 368.356728)scale(0.12 -0.12)">
       <use xlink:href="#DejaVuSans-50"/>
       <use x="63.623047" xlink:href="#DejaVuSans-48"/>
      </g>
     </g>
    </g>
    <g id="ytick_3">
     <g id="line2d_12">
      <g>
       <use style="stroke:#000000;stroke-width:0.8;" x="108" xlink:href="#m81e47985cd" y="296.682503"/>
      </g>
     </g>
     <g id="text_13">
      <!-- 40 -->
      <g transform="translate(85.73 301.241566)scale(0.12 -0.12)">
       <use xlink:href="#DejaVuSans-52"/>
       <use x="63.623047" xlink:href="#DejaVuSans-48"/>
      </g>
     </g>
    </g>
    <g id="ytick_4">
     <g id="line2d_13">
      <g>
       <use style="stroke:#000000;stroke-width:0.8;" x="108" xlink:href="#m81e47985cd" y="229.567342"/>
      </g>
     </g>
     <g id="text_14">
      <!-- 60 -->
      <g transform="translate(85.73 234.126404)scale(0.12 -0.12)">
       <defs>
        <path d="M 33.015625 40.375 
Q 26.375 40.375 22.484375 35.828125 
Q 18.609375 31.296875 18.609375 23.390625 
Q 18.609375 15.53125 22.484375 10.953125 
Q 26.375 6.390625 33.015625 6.390625 
Q 39.65625 6.390625 43.53125 10.953125 
Q 47.40625 15.53125 47.40625 23.390625 
Q 47.40625 31.296875 43.53125 35.828125 
Q 39.65625 40.375 33.015625 40.375 
z
M 52.59375 71.296875 
L 52.59375 62.3125 
Q 48.875 64.0625 45.09375 64.984375 
Q 41.3125 65.921875 37.59375 65.921875 
Q 27.828125 65.921875 22.671875 59.328125 
Q 17.53125 52.734375 16.796875 39.40625 
Q 19.671875 43.65625 24.015625 45.921875 
Q 28.375 48.1875 33.59375 48.1875 
Q 44.578125 48.1875 50.953125 41.515625 
Q 57.328125 34.859375 57.328125 23.390625 
Q 57.328125 12.15625 50.6875 5.359375 
Q 44.046875 -1.421875 33.015625 -1.421875 
Q 20.359375 -1.421875 13.671875 8.265625 
Q 6.984375 17.96875 6.984375 36.375 
Q 6.984375 53.65625 15.1875 63.9375 
Q 23.390625 74.21875 37.203125 74.21875 
Q 40.921875 74.21875 44.703125 73.484375 
Q 48.484375 72.75 52.59375 71.296875 
z
" id="DejaVuSans-54"/>
       </defs>
       <use xlink:href="#DejaVuSans-54"/>
       <use x="63.623047" xlink:href="#DejaVuSans-48"/>
      </g>
     </g>
    </g>
    <g id="ytick_5">
     <g id="line2d_14">
      <g>
       <use style="stroke:#000000;stroke-width:0.8;" x="108" xlink:href="#m81e47985cd" y="162.45218"/>
      </g>
     </g>
     <g id="text_15">
      <!-- 80 -->
      <g transform="translate(85.73 167.011242)scale(0.12 -0.12)">
       <defs>
        <path d="M 31.78125 34.625 
Q 24.75 34.625 20.71875 30.859375 
Q 16.703125 27.09375 16.703125 20.515625 
Q 16.703125 13.921875 20.71875 10.15625 
Q 24.75 6.390625 31.78125 6.390625 
Q 38.8125 6.390625 42.859375 10.171875 
Q 46.921875 13.96875 46.921875 20.515625 
Q 46.921875 27.09375 42.890625 30.859375 
Q 38.875 34.625 31.78125 34.625 
z
M 21.921875 38.8125 
Q 15.578125 40.375 12.03125 44.71875 
Q 8.5 49.078125 8.5 55.328125 
Q 8.5 64.0625 14.71875 69.140625 
Q 20.953125 74.21875 31.78125 74.21875 
Q 42.671875 74.21875 48.875 69.140625 
Q 55.078125 64.0625 55.078125 55.328125 
Q 55.078125 49.078125 51.53125 44.71875 
Q 48 40.375 41.703125 38.8125 
Q 48.828125 37.15625 52.796875 32.3125 
Q 56.78125 27.484375 56.78125 20.515625 
Q 56.78125 9.90625 50.3125 4.234375 
Q 43.84375 -1.421875 31.78125 -1.421875 
Q 19.734375 -1.421875 13.25 4.234375 
Q 6.78125 9.90625 6.78125 20.515625 
Q 6.78125 27.484375 10.78125 32.3125 
Q 14.796875 37.15625 21.921875 38.8125 
z
M 18.3125 54.390625 
Q 18.3125 48.734375 21.84375 45.5625 
Q 25.390625 42.390625 31.78125 42.390625 
Q 38.140625 42.390625 41.71875 45.5625 
Q 45.3125 48.734375 45.3125 54.390625 
Q 45.3125 60.0625 41.71875 63.234375 
Q 38.140625 66.40625 31.78125 66.40625 
Q 25.390625 66.40625 21.84375 63.234375 
Q 18.3125 60.0625 18.3125 54.390625 
z
" id="DejaVuSans-56"/>
       </defs>
       <use xlink:href="#DejaVuSans-56"/>
       <use x="63.623047" xlink:href="#DejaVuSans-48"/>
      </g>
     </g>
    </g>
    <g id="ytick_6">
     <g id="line2d_15">
      <g>
       <use style="stroke:#000000;stroke-width:0.8;" x="108" xlink:href="#m81e47985cd" y="95.337018"/>
      </g>
     </g>
     <g id="text_16">
      <!-- 100 -->
      <g transform="translate(78.095 99.89608)scale(0.12 -0.12)">
       <use xlink:href="#DejaVuSans-49"/>
       <use x="63.623047" xlink:href="#DejaVuSans-48"/>
       <use x="127.246094" xlink:href="#DejaVuSans-48"/>
      </g>
     </g>
    </g>
    <g id="text_17">
     <!-- O3(ppm) -->
     <g transform="translate(70.975469 298.31625)rotate(-90)scale(0.15 -0.15)">
      <defs>
       <path d="M 39.40625 66.21875 
Q 28.65625 66.21875 22.328125 58.203125 
Q 16.015625 50.203125 16.015625 36.375 
Q 16.015625 22.609375 22.328125 14.59375 
Q 28.65625 6.59375 39.40625 6.59375 
Q 50.140625 6.59375 56.421875 14.59375 
Q 62.703125 22.609375 62.703125 36.375 
Q 62.703125 50.203125 56.421875 58.203125 
Q 50.140625 66.21875 39.40625 66.21875 
z
M 39.40625 74.21875 
Q 54.734375 74.21875 63.90625 63.9375 
Q 73.09375 53.65625 73.09375 36.375 
Q 73.09375 19.140625 63.90625 8.859375 
Q 54.734375 -1.421875 39.40625 -1.421875 
Q 24.03125 -1.421875 14.8125 8.828125 
Q 5.609375 19.09375 5.609375 36.375 
Q 5.609375 53.65625 14.8125 63.9375 
Q 24.03125 74.21875 39.40625 74.21875 
z
" id="DejaVuSans-79"/>
       <path d="M 40.578125 39.3125 
Q 47.65625 37.796875 51.625 33 
Q 55.609375 28.21875 55.609375 21.1875 
Q 55.609375 10.40625 48.1875 4.484375 
Q 40.765625 -1.421875 27.09375 -1.421875 
Q 22.515625 -1.421875 17.65625 -0.515625 
Q 12.796875 0.390625 7.625 2.203125 
L 7.625 11.71875 
Q 11.71875 9.328125 16.59375 8.109375 
Q 21.484375 6.890625 26.8125 6.890625 
Q 36.078125 6.890625 40.9375 10.546875 
Q 45.796875 14.203125 45.796875 21.1875 
Q 45.796875 27.640625 41.28125 31.265625 
Q 36.765625 34.90625 28.71875 34.90625 
L 20.21875 34.90625 
L 20.21875 43.015625 
L 29.109375 43.015625 
Q 36.375 43.015625 40.234375 45.921875 
Q 44.09375 48.828125 44.09375 54.296875 
Q 44.09375 59.90625 40.109375 62.90625 
Q 36.140625 65.921875 28.71875 65.921875 
Q 24.65625 65.921875 20.015625 65.03125 
Q 15.375 64.15625 9.8125 62.3125 
L 9.8125 71.09375 
Q 15.4375 72.65625 20.34375 73.4375 
Q 25.25 74.21875 29.59375 74.21875 
Q 40.828125 74.21875 47.359375 69.109375 
Q 53.90625 64.015625 53.90625 55.328125 
Q 53.90625 49.265625 50.4375 45.09375 
Q 46.96875 40.921875 40.578125 39.3125 
z
" id="DejaVuSans-51"/>
       <path d="M 31 75.875 
Q 24.46875 64.65625 21.28125 53.65625 
Q 18.109375 42.671875 18.109375 31.390625 
Q 18.109375 20.125 21.3125 9.0625 
Q 24.515625 -2 31 -13.1875 
L 23.1875 -13.1875 
Q 15.875 -1.703125 12.234375 9.375 
Q 8.59375 20.453125 8.59375 31.390625 
Q 8.59375 42.28125 12.203125 53.3125 
Q 15.828125 64.359375 23.1875 75.875 
z
" id="DejaVuSans-40"/>
       <path d="M 18.109375 8.203125 
L 18.109375 -20.796875 
L 9.078125 -20.796875 
L 9.078125 54.6875 
L 18.109375 54.6875 
L 18.109375 46.390625 
Q 20.953125 51.265625 25.265625 53.625 
Q 29.59375 56 35.59375 56 
Q 45.5625 56 51.78125 48.09375 
Q 58.015625 40.1875 58.015625 27.296875 
Q 58.015625 14.40625 51.78125 6.484375 
Q 45.5625 -1.421875 35.59375 -1.421875 
Q 29.59375 -1.421875 25.265625 0.953125 
Q 20.953125 3.328125 18.109375 8.203125 
z
M 48.6875 27.296875 
Q 48.6875 37.203125 44.609375 42.84375 
Q 40.53125 48.484375 33.40625 48.484375 
Q 26.265625 48.484375 22.1875 42.84375 
Q 18.109375 37.203125 18.109375 27.296875 
Q 18.109375 17.390625 22.1875 11.75 
Q 26.265625 6.109375 33.40625 6.109375 
Q 40.53125 6.109375 44.609375 11.75 
Q 48.6875 17.390625 48.6875 27.296875 
z
" id="DejaVuSans-112"/>
       <path d="M 52 44.1875 
Q 55.375 50.25 60.0625 53.125 
Q 64.75 56 71.09375 56 
Q 79.640625 56 84.28125 50.015625 
Q 88.921875 44.046875 88.921875 33.015625 
L 88.921875 0 
L 79.890625 0 
L 79.890625 32.71875 
Q 79.890625 40.578125 77.09375 44.375 
Q 74.3125 48.1875 68.609375 48.1875 
Q 61.625 48.1875 57.5625 43.546875 
Q 53.515625 38.921875 53.515625 30.90625 
L 53.515625 0 
L 44.484375 0 
L 44.484375 32.71875 
Q 44.484375 40.625 41.703125 44.40625 
Q 38.921875 48.1875 33.109375 48.1875 
Q 26.21875 48.1875 22.15625 43.53125 
Q 18.109375 38.875 18.109375 30.90625 
L 18.109375 0 
L 9.078125 0 
L 9.078125 54.6875 
L 18.109375 54.6875 
L 18.109375 46.1875 
Q 21.1875 51.21875 25.484375 53.609375 
Q 29.78125 56 35.6875 56 
Q 41.65625 56 45.828125 52.96875 
Q 50 49.953125 52 44.1875 
z
" id="DejaVuSans-109"/>
       <path d="M 8.015625 75.875 
L 15.828125 75.875 
Q 23.140625 64.359375 26.78125 53.3125 
Q 30.421875 42.28125 30.421875 31.390625 
Q 30.421875 20.453125 26.78125 9.375 
Q 23.140625 -1.703125 15.828125 -13.1875 
L 8.015625 -13.1875 
Q 14.5 -2 17.703125 9.0625 
Q 20.90625 20.125 20.90625 31.390625 
Q 20.90625 42.671875 17.703125 53.65625 
Q 14.5 64.65625 8.015625 75.875 
z
" id="DejaVuSans-41"/>
      </defs>
      <use xlink:href="#DejaVuSans-79"/>
      <use x="78.710938" xlink:href="#DejaVuSans-51"/>
      <use x="142.333984" xlink:href="#DejaVuSans-40"/>
      <use x="181.347656" xlink:href="#DejaVuSans-112"/>
      <use x="244.824219" xlink:href="#DejaVuSans-112"/>
      <use x="308.300781" xlink:href="#DejaVuSans-109"/>
      <use x="405.712891" xlink:href="#DejaVuSans-41"/>
     </g>
    </g>
   </g>
   <g id="line2d_16">
    <path clip-path="url(#p12cb6ee66a)" d="M 138.436364 315.329897 
L 139.270237 337.569702 
L 140.10411 365.091354 
L 140.937983 338.616348 
L 141.771856 324.443727 
L 142.605729 326.988721 
L 143.439601 381.800519 
L 144.273474 320.680376 
L 145.107347 278.322655 
L 146.775093 352.806128 
L 147.608966 320.929169 
L 148.442839 366.978749 
L 149.276712 271.751088 
L 150.110585 268.794169 
L 150.944458 331.730216 
L 151.778331 347.384156 
L 152.612204 352.174136 
L 153.446077 381.749045 
L 154.27995 373.275785 
L 155.113823 336.671759 
L 155.947696 331.653004 
L 156.781569 348.565208 
L 157.615442 352.671722 
L 158.449315 343.423486 
L 159.283188 366.566954 
L 160.117061 313.988702 
L 160.950934 294.465602 
L 161.784807 258.502147 
L 162.61868 232.424638 
L 163.452553 278.954646 
L 164.286426 308.626784 
L 165.120299 267.401501 
L 165.954172 326.974552 
L 167.621918 362.491896 
L 168.455791 268.51106 
L 169.289664 323.937562 
L 170.123537 317.05143 
L 170.95741 302.855931 
L 171.791283 341.753428 
L 172.625156 358.270994 
L 173.459029 364.496538 
L 174.292902 390.127935 
L 175.126775 385.495238 
L 175.960648 393.962779 
L 176.794521 342.943059 
L 177.628394 247.449447 
L 179.296139 314.38048 
L 180.130012 325.447478 
L 180.963885 327.323434 
L 181.797758 265.519825 
L 182.631631 240.406032 
L 183.465504 257.361131 
L 184.299377 343.369152 
L 185.13325 384.536698 
L 185.967123 320.494496 
L 186.800996 303.988368 
L 187.634869 360.939085 
L 188.468742 334.095179 
L 189.302615 337.043519 
L 190.136488 269.185947 
L 190.970361 339.234041 
L 191.804234 361.602533 
L 192.638107 265.874426 
L 194.305853 391.46341 
L 195.139726 408.258367 
L 195.973599 274.796658 
L 196.807472 295.068997 
L 197.641345 323.708787 
L 198.475218 395.938824 
L 199.309091 273.632764 
L 200.142964 233.611409 
L 200.976837 207.974293 
L 201.81071 258.951118 
L 202.644583 339.52573 
L 203.478456 407.337547 
L 204.312329 393.448035 
L 205.146202 373.335839 
L 205.980075 397.042665 
L 206.813948 394.740614 
L 207.647821 278.557149 
L 208.481694 290.653636 
L 209.315567 358.86581 
L 210.14944 398.363484 
L 210.983313 405.933439 
L 211.817186 331.916096 
L 212.651059 400.645873 
L 213.484932 427.023649 
L 214.318804 423.386124 
L 215.152677 340.505043 
L 215.98655 343.043148 
L 216.820423 386.86503 
L 217.654296 386.533306 
L 218.488169 347.361279 
L 219.322042 400.328448 
L 221.823661 224.626265 
L 222.657534 335.516445 
L 223.491407 259.079804 
L 224.32528 207.745518 
L 225.159153 248.976521 
L 225.993026 250.523613 
L 226.826899 299.864696 
L 227.660772 324.987068 
L 228.494645 345.736975 
L 229.328518 386.925083 
L 230.162391 407.817975 
L 230.996264 415.110183 
L 231.830137 377.136366 
L 232.66401 394.111483 
L 233.497883 379.724385 
L 234.331756 371.29688 
L 235.165629 224.451824 
L 235.999502 267.984877 
L 236.833375 270.086749 
L 237.667248 245.532025 
L 238.501121 263.377917 
L 239.334994 365.546044 
L 240.168867 381.468796 
L 241.00274 384.794614 
L 241.836613 394.32024 
L 242.670486 402.556146 
L 243.504359 412.982574 
L 244.338232 412.876765 
L 245.172105 414.375243 
L 246.005978 413.657461 
L 246.839851 401.638186 
L 247.673724 397.137034 
L 248.507597 306.73666 
L 249.341469 259.683199 
L 250.175342 313.591205 
L 251.009215 355.291198 
L 251.843088 379.409819 
L 252.676961 370.28455 
L 253.510834 366.658464 
L 254.344707 351.176105 
L 255.17858 332.382225 
L 256.012453 372.117611 
L 256.846326 353.263678 
L 258.514072 330.803677 
L 259.347945 370.327445 
L 260.181818 372.184242 
L 261.015691 348.553769 
L 261.849564 348.856896 
L 262.683437 357.015591 
L 263.51731 379.098113 
L 264.351183 380.622327 
L 265.185056 391.320426 
L 266.018929 393.85697 
L 267.686675 386.759221 
L 268.520548 381.42304 
L 269.354421 383.73081 
L 270.188294 375.99249 
L 271.022167 377.385159 
L 271.85604 383.856636 
L 272.689913 386.21588 
L 273.523786 388.986919 
L 275.191532 363.65293 
L 276.025405 363.827371 
L 276.859278 383.805162 
L 277.693151 388.232819 
L 278.527024 387.865921 
L 279.360897 385.512396 
L 280.19477 387.41695 
L 281.028643 388.603721 
L 282.696389 382.867184 
L 283.530262 383.833759 
L 284.364134 382.709901 
L 285.198007 388.234821 
L 286.03188 392.444284 
L 286.865753 389.950635 
L 287.699626 383.196048 
L 288.533499 383.667897 
L 289.367372 384.688806 
L 290.201245 380.347797 
L 291.035118 383.218925 
L 291.868991 382.392475 
L 292.702864 385.223568 
L 293.536737 382.032154 
L 294.37061 384.917581 
L 295.204483 384.402837 
L 296.038356 385.074864 
L 296.872229 383.401946 
L 297.706102 393.041959 
L 298.539975 388.134732 
L 299.373848 387.205333 
L 300.207721 385.538134 
L 301.041594 375.251831 
L 301.875467 385.440904 
L 302.70934 386.547604 
L 303.543213 393.099153 
L 304.377086 392.264123 
L 305.210959 387.705778 
L 306.044832 390.716641 
L 306.878705 380.262245 
L 307.712578 383.290418 
L 308.546451 384.723837 
L 309.380324 382.815709 
L 310.214197 381.740466 
L 311.04807 383.310436 
L 311.881943 387.262526 
L 312.715816 389.166246 
L 313.549689 370.213058 
L 314.383562 371.519936 
L 315.217435 376.996241 
L 316.051308 370.029084 
L 316.885181 371.188212 
L 317.719054 376.781764 
L 318.552927 379.535645 
L 319.3868 393.224979 
L 320.220672 392.864658 
L 321.054545 390.676996 
L 321.888418 386.579061 
L 322.722291 385.641082 
L 323.556164 387.814447 
L 324.390037 392.138297 
L 325.22391 381.514551 
L 326.057783 390.036425 
L 326.891656 393.970405 
L 327.725529 386.590499 
L 328.559402 375.723679 
L 329.393275 390.988702 
L 330.227148 373.235749 
L 331.061021 381.914907 
L 331.894894 385.372272 
L 332.728767 367.218963 
L 333.56264 343.738052 
L 334.396513 365.757661 
L 335.230386 357.670459 
L 336.064259 361.127824 
L 336.898132 371.259704 
L 337.732005 338.155938 
L 338.565878 282.720857 
L 339.399751 268.648325 
L 340.233624 258.959697 
L 341.067497 321.272331 
L 343.569116 313.797103 
L 344.402989 343.171834 
L 345.236862 337.202947 
L 346.070735 335.896784 
L 346.904608 382.183718 
L 347.738481 383.988182 
L 348.572354 377.216437 
L 349.406227 386.044299 
L 350.2401 392.633023 
L 351.907846 312.252871 
L 352.741719 333.188658 
L 353.575592 383.876654 
L 354.409465 392.315598 
L 355.243337 398.212278 
L 356.07721 396.502183 
L 356.911083 392.587268 
L 357.744956 385.646802 
L 358.578829 371.691517 
L 359.412702 329.802785 
L 360.246575 339.002406 
L 361.080448 317.092895 
L 361.914321 312.267169 
L 362.748194 234.926867 
L 363.582067 266.180413 
L 364.41594 343.231887 
L 365.249813 324.077687 
L 366.083686 318.446958 
L 366.917559 241.34401 
L 367.751432 218.063278 
L 368.585305 252.353814 
L 369.419178 228.198017 
L 370.253051 275.914796 
L 371.086924 259.903395 
L 371.920797 274.582181 
L 372.75467 254.452827 
L 373.588543 218.443616 
L 374.422416 133.822544 
L 375.256289 117.01043 
L 376.090162 141.769621 
L 376.924035 287.02469 
L 377.757908 288.463114 
L 378.591781 222.756028 
L 379.425654 206.744627 
L 380.259527 248.072859 
L 381.0934 238.418547 
L 381.927273 252.176514 
L 382.761146 222.37283 
L 383.595019 225.278274 
L 384.428892 225.033914 
L 385.262765 184.950933 
L 386.096638 167.029259 
L 386.930511 171.433419 
L 387.764384 191.05637 
L 388.598257 206.772628 
L 389.43213 288.59466 
L 390.266002 272.205779 
L 391.099875 273.609887 
L 391.933748 237.7551 
L 392.767621 156.431249 
L 393.601494 194.056184 
L 394.435367 197.862431 
L 395.26924 196.704257 
L 396.103113 210.199131 
L 396.936986 148.998916 
L 397.770859 115.655294 
L 398.604732 99.088756 
L 399.438605 86.923636 
L 400.272478 139.599117 
L 401.106351 179.122886 
L 401.940224 150.297037 
L 402.774097 224.240207 
L 403.60797 262.683013 
L 404.441843 328.520929 
L 405.275716 308.557372 
L 406.109589 330.600249 
L 406.943462 371.445584 
L 407.777335 401.23211 
L 408.611208 400.848911 
L 409.445081 368.826108 
L 410.278954 354.130164 
L 411.112827 389.939196 
L 411.9467 328.321015 
L 412.780573 301.065765 
L 413.614446 240.345978 
L 414.448319 305.009277 
L 415.282192 267.58738 
L 416.116065 281.165186 
L 416.949938 290.523401 
L 417.783811 297.019305 
L 418.617684 293.436114 
L 419.451557 307.294169 
L 420.28543 308.715435 
L 421.119303 310.425529 
L 421.953176 291.294206 
L 422.787049 284.278816 
L 423.620922 273.498359 
L 424.454795 338.622068 
L 425.288667 339.15111 
L 426.12254 366.041996 
L 426.956413 372.95498 
L 427.790286 306.851369 
L 428.624159 396.556517 
L 429.458032 402.788353 
L 430.291905 399.922848 
L 431.125778 414.832929 
L 431.959651 397.282878 
L 432.793524 365.551764 
L 433.627397 280.510317 
L 434.46127 232.579062 
L 435.295143 326.053732 
L 436.129016 382.752796 
L 436.962889 370.613414 
L 437.796762 364.456503 
L 438.630635 279.966976 
L 439.464508 276.16073 
L 440.298381 306.236084 
L 441.132254 341.704813 
L 441.966127 275.199874 
L 443.633873 302.149588 
L 444.467746 349.717663 
L 445.301619 261.656384 
L 446.135492 340.515182 
L 446.969365 311.394964 
L 447.803238 297.788561 
L 448.637111 320.351392 
L 449.470984 333.400275 
L 450.304857 340.509463 
L 451.13873 340.546639 
L 452.806476 322.556332 
L 453.640349 380.879699 
L 454.474222 357.94213 
L 455.308095 379.464153 
L 456.141968 351.619356 
L 456.975841 205.929615 
L 457.809714 281.331048 
L 458.643587 344.353623 
L 459.47746 342.634212 
L 460.311333 353.980507 
L 461.145205 349.706224 
L 461.979078 313.521429 
L 462.812951 307.763158 
L 463.646824 307.605875 
L 464.480697 272.148585 
L 465.31457 315.164035 
L 466.148443 242.021756 
L 466.982316 245.253205 
L 467.816189 247.295024 
L 468.650062 290.519231 
L 469.483935 348.882634 
L 470.317808 249.880183 
L 471.151681 227.368707 
L 471.985554 284.07349 
L 472.819427 310.662883 
L 473.6533 348.290678 
L 474.487173 305.097928 
L 475.321046 291.342821 
L 476.154919 268.88282 
L 476.988792 319.885382 
L 477.822665 327.600824 
L 478.656538 300.799814 
L 479.490411 327.946847 
L 480.324284 298.414833 
L 481.158157 302.098113 
L 481.99203 292.603944 
L 482.825903 259.511617 
L 483.659776 250.269101 
L 484.493649 250.841039 
L 485.327522 260.692669 
L 486.161395 225.741544 
L 486.995268 297.422521 
L 487.829141 300.545302 
L 488.663014 267.061198 
L 489.496887 334.384008 
L 490.33076 386.293092 
L 491.164633 411.861576 
L 491.998506 357.167154 
L 492.832379 373.882039 
L 493.666252 328.93058 
L 494.500125 337.822308 
L 495.333998 384.136886 
L 496.16787 402.784921 
L 497.001743 389.401574 
L 497.835616 414.183643 
L 498.669489 325.730587 
L 499.503362 288.583221 
L 500.337235 301.014291 
L 501.171108 291.242732 
L 502.004981 320.966345 
L 503.672727 204.734265 
L 504.5066 277.91086 
L 505.340473 323.991896 
L 506.174346 358.21952 
L 507.008219 368.277048 
L 507.842092 361.287967 
L 508.675965 377.028413 
L 509.509838 377.342264 
L 510.343711 276.049202 
L 511.177584 339.828857 
L 512.011457 319.979752 
L 512.84533 275.337139 
L 513.679203 248.313073 
L 514.513076 356.249194 
L 515.346949 389.029815 
L 516.180822 400.165445 
L 517.014695 399.270363 
L 517.848568 418.91643 
L 519.516314 411.8244 
L 520.350187 416.091056 
L 521.18406 402.075718 
L 522.017933 384.597296 
L 522.851806 270.824549 
L 523.685679 272.909263 
L 524.519552 320.280019 
L 525.353425 375.763715 
L 526.187298 228.249492 
L 527.021171 214.179819 
L 527.855044 325.253019 
L 528.688917 356.183421 
L 529.52279 326.762935 
L 530.356663 325.215843 
L 531.190535 319.322023 
L 532.024408 374.302414 
L 532.858281 180.707154 
L 533.692154 173.217627 
L 534.526027 234.34063 
L 537.027646 352.14268 
L 537.861519 311.660915 
L 538.695392 302.515628 
L 539.529265 327.143274 
L 540.363138 370.802154 
L 541.197011 392.561531 
L 542.030884 299.121177 
L 542.864757 312.25859 
L 543.69863 245.070185 
L 544.532503 327.171871 
L 545.366376 329.399569 
L 546.200249 403.825848 
L 547.034122 288.949261 
L 547.867995 310.78871 
L 548.701868 368.594473 
L 549.535741 403.80869 
L 550.369614 396.416393 
L 551.203487 412.164703 
L 552.03736 411.587045 
L 552.871233 411.495535 
L 553.705106 414.03494 
L 554.538979 413.279982 
L 555.372852 406.931471 
L 556.206725 404.200467 
L 557.040598 414.014922 
L 557.874471 411.372569 
L 558.708344 405.106989 
L 559.542217 405.876245 
L 560.37609 414.552543 
L 561.209963 410.780613 
L 562.043836 401.498061 
L 562.877709 403.190997 
L 563.711582 408.724496 
L 564.545455 412.404917 
L 565.379328 413.142716 
L 566.2132 412.301968 
L 567.047073 407.712166 
L 567.880946 400.042479 
L 569.548692 401.912716 
L 570.382565 415.626118 
L 571.216438 415.487662 
L 572.050311 384.9233 
L 572.884184 329.227988 
L 573.718057 250.663738 
L 574.55193 302.118131 
L 575.385803 341.261561 
L 576.219676 386.170125 
L 577.053549 407.629235 
L 577.887422 402.762044 
L 578.721295 394.87788 
L 579.555168 411.27248 
L 580.389041 409.671053 
L 581.222914 403.454088 
L 582.056787 403.62281 
L 582.89066 399.66214 
L 583.724533 393.608177 
L 585.392279 373.584632 
L 586.226152 383.610703 
L 587.060025 383.421963 
L 587.893898 402.387424 
L 588.727771 400.148287 
L 589.561644 410.80349 
L 590.395517 406.679818 
L 591.22939 391.197459 
L 592.063263 401.972769 
L 592.897136 397.226161 
L 593.731009 399.11022 
L 594.564882 394.843563 
L 595.398755 395.186726 
L 596.232628 394.654044 
L 597.066501 387.485582 
L 597.900374 409.204924 
L 598.734247 411.775785 
L 599.56812 400.645873 
L 600.401993 406.234302 
L 601.235866 397.505934 
L 602.069738 404.703773 
L 602.903611 403.71718 
L 603.737484 412.404917 
L 605.40523 407.391881 
L 606.239103 394.563314 
L 607.906849 345.485322 
L 608.740722 376.384268 
L 609.574595 379.372643 
L 610.408468 347.40048 
L 611.242341 373.264346 
L 612.076214 395.627118 
L 612.910087 270.427052 
L 613.74396 237.406217 
L 614.577833 228.964414 
L 615.411706 314.529184 
L 616.245579 218.758182 
L 617.079452 305.378177 
L 617.913325 367.304753 
L 618.747198 369.735489 
L 619.581071 351.261895 
L 620.414944 356.646691 
L 621.248817 350.578429 
L 622.08269 345.342338 
L 622.916563 263.572376 
L 623.750436 325.824957 
L 624.584309 349.577538 
L 625.418182 342.328225 
L 626.252055 351.728025 
L 627.085928 369.692594 
L 627.919801 390.465379 
L 628.753674 384.768877 
L 629.587547 390.242323 
L 630.42142 384.09399 
L 631.255293 392.01533 
L 632.089166 396.539359 
L 632.923039 403.828708 
L 633.756912 389.327222 
L 634.590785 383.376208 
L 635.424658 386.710606 
L 636.258531 392.66162 
L 637.092403 393.099153 
L 637.926276 390.891472 
L 638.760149 398.887164 
L 639.594022 403.285486 
L 640.427895 404.803862 
L 641.261768 387.271106 
L 642.095641 412.991153 
L 644.59726 391.875206 
L 645.431133 369.769806 
L 646.265006 414.832793 
L 647.098879 407.363284 
L 647.932752 403.671425 
L 648.766625 405.038356 
L 649.600498 396.273408 
L 650.434371 377.247894 
L 651.268244 379.535645 
L 652.102117 411.089459 
L 652.93599 301.700617 
L 653.769863 343.011691 
L 654.603736 364.688138 
L 655.437609 313.534012 
L 656.271482 370.081512 
L 657.105355 410.208675 
L 658.773101 336.611706 
L 659.606974 319.893961 
L 660.440847 268.350918 
L 661.27472 410.331642 
L 662.108593 396.974032 
L 662.942466 379.853071 
L 663.776339 374.877211 
L 664.610212 405.124147 
L 665.444085 365.480271 
L 666.277958 310.97459 
L 667.111831 289.275266 
L 667.945704 239.851252 
L 668.779577 198.294244 
L 669.61345 202.257774 
L 671.281196 273.444025 
L 672.115068 292.429503 
L 672.948941 291.522982 
L 673.782814 267.524467 
L 674.616687 274.753762 
L 675.45056 264.321615 
L 676.284433 325.328205 
L 677.118306 370.135846 
L 677.952179 344.907665 
L 678.786052 383.968164 
L 679.619925 331.81615 
L 680.453798 344.910525 
L 681.287671 348.55091 
L 682.121544 345.125002 
L 682.955417 390.513993 
L 683.78929 330.77222 
L 684.623163 319.44213 
L 685.457036 263.869784 
L 686.290909 310.659271 
L 687.124782 283.561606 
L 687.958655 371.508497 
L 688.792528 359.575013 
L 689.626401 368.07401 
L 690.460274 297.073639 
L 691.294147 251.369366 
L 692.12802 227.202845 
L 692.961893 291.597333 
L 693.795766 244.030212 
L 694.629639 210.196272 
L 695.463512 302.055218 
L 696.297385 277.124445 
L 697.131258 211.643275 
L 697.965131 235.644649 
L 698.799004 243.340073 
L 699.632877 244.775637 
L 700.46675 287.383295 
L 701.300623 354.99665 
L 702.134496 331.798849 
L 702.968369 346.103015 
L 703.802242 269.609181 
L 704.636115 260.292551 
L 705.469988 343.352709 
L 706.303861 289.062695 
L 707.137733 259.078493 
L 707.971606 324.925346 
L 709.639352 262.430169 
L 710.473225 270.92857 
L 711.307098 281.796788 
L 712.140971 287.695417 
L 712.974844 272.857658 
L 713.808717 308.832422 
L 714.64259 334.845588 
L 715.476463 319.003298 
L 716.310336 272.253744 
L 717.144209 259.152986 
L 717.978082 235.579396 
L 718.811955 230.861688 
L 719.645828 200.716791 
L 720.479701 165.504394 
L 721.313574 212.660544 
L 722.147447 202.089052 
L 722.98132 239.860611 
L 723.815193 233.639096 
L 724.649066 283.880591 
L 725.482939 197.996186 
L 726.316812 222.09596 
L 727.150685 281.449985 
L 727.984558 214.17631 
L 728.818431 239.31948 
L 729.652304 269.52118 
L 730.486177 274.744143 
L 731.32005 196.154546 
L 732.153923 194.671667 
L 732.987796 275.404862 
L 734.655542 354.329302 
L 735.489415 292.359311 
L 736.323288 176.575162 
L 737.157161 224.021311 
L 737.991034 303.030658 
L 738.824907 344.636775 
L 739.65878 246.004394 
L 740.492653 390.235304 
L 742.160399 275.641046 
L 742.994271 370.201489 
L 743.828144 390.029016 
L 744.662017 390.588085 
L 745.49589 377.992583 
L 746.329763 329.589738 
L 747.163636 342.463281 
L 747.163636 342.463281 
" style="fill:none;stroke:#1f77b4;stroke-linecap:square;stroke-width:1.5;"/>
   </g>
   <g id="line2d_17">
    <path clip-path="url(#p12cb6ee66a)" d="M 138.436364 325.660193 
L 139.270237 329.772654 
L 140.10411 374.807673 
L 140.937983 356.752942 
L 141.771856 290.077201 
L 142.605729 347.032305 
L 143.439601 353.614453 
L 144.273474 355.877231 
L 145.107347 284.001472 
L 145.94122 332.385156 
L 146.775093 331.049875 
L 147.608966 361.389891 
L 148.442839 332.186541 
L 149.276712 282.209311 
L 150.110585 281.285662 
L 150.944458 330.118154 
L 151.778331 358.00248 
L 152.612204 334.607755 
L 153.446077 365.884487 
L 154.27995 378.216438 
L 155.113823 357.269445 
L 155.947696 308.920551 
L 156.781569 362.965646 
L 157.615442 353.306219 
L 158.449315 331.651212 
L 159.283188 393.734696 
L 160.117061 326.307647 
L 160.950934 312.358919 
L 161.784807 271.008153 
L 162.61868 242.750347 
L 163.452553 253.426231 
L 164.286426 342.616075 
L 165.120299 266.817538 
L 165.954172 330.693286 
L 167.621918 389.060742 
L 168.455791 279.440838 
L 169.289664 342.162567 
L 170.123537 341.836677 
L 170.95741 314.039737 
L 171.791283 350.72294 
L 172.625156 349.06591 
L 173.459029 385.226121 
L 174.292902 399.525373 
L 175.126775 398.878162 
L 175.960648 398.391091 
L 176.794521 350.52949 
L 177.628394 279.616573 
L 178.462267 254.188766 
L 179.296139 353.659596 
L 180.130012 340.486379 
L 180.963885 282.039939 
L 181.797758 312.201255 
L 182.631631 211.139029 
L 183.465504 251.140004 
L 184.299377 327.515167 
L 185.13325 364.284546 
L 185.967123 373.08504 
L 186.800996 273.970009 
L 187.634869 371.467976 
L 188.468742 327.239887 
L 189.302615 368.939277 
L 190.136488 286.462668 
L 190.970361 322.945762 
L 191.804234 397.248067 
L 192.638107 296.847069 
L 193.47198 338.715969 
L 194.305853 396.978582 
L 195.139726 402.651029 
L 195.973599 329.995444 
L 196.807472 294.517103 
L 197.641345 313.248765 
L 198.475218 406.904207 
L 199.309091 314.958504 
L 200.142964 246.892081 
L 200.976837 213.446639 
L 201.81071 270.312933 
L 203.478456 405.216112 
L 204.312329 423.920622 
L 205.146202 370.815386 
L 205.980075 400.791118 
L 206.813948 386.492767 
L 207.647821 307.959096 
L 208.481694 317.49974 
L 210.14944 394.467869 
L 210.983313 414.928401 
L 211.817186 365.122122 
L 212.651059 396.45143 
L 213.484932 442.996364 
L 214.318804 436.832201 
L 215.152677 390.926052 
L 215.98655 305.125694 
L 216.820423 428.189966 
L 217.654296 378.424143 
L 218.488169 356.196972 
L 219.322042 431.593332 
L 220.155915 373.205426 
L 220.989788 292.296159 
L 221.823661 230.905179 
L 222.657534 307.95177 
L 223.491407 300.570736 
L 224.32528 184.882449 
L 225.159153 274.683861 
L 225.993026 234.971408 
L 226.826899 276.707784 
L 227.660772 328.484947 
L 228.494645 346.914481 
L 229.328518 378.047187 
L 230.162391 393.049542 
L 230.996264 401.050212 
L 231.830137 376.969042 
L 232.66401 393.326478 
L 233.497883 400.944634 
L 234.331756 386.311141 
L 235.165629 283.401638 
L 235.999502 253.779568 
L 236.833375 304.503552 
L 237.667248 219.072736 
L 238.501121 267.155554 
L 239.334994 339.680968 
L 240.168867 377.406959 
L 241.00274 373.557982 
L 241.836613 390.371346 
L 242.670486 396.652385 
L 243.504359 416.099757 
L 244.338232 414.722795 
L 245.172105 419.045529 
L 246.005978 419.633171 
L 246.839851 401.532272 
L 247.673724 370.728597 
L 248.507597 358.047742 
L 249.341469 274.169717 
L 250.175342 299.200123 
L 251.009215 365.691369 
L 251.843088 389.780614 
L 252.676961 373.32748 
L 253.510834 385.182481 
L 254.344707 375.916833 
L 255.17858 354.74439 
L 256.012453 360.9422 
L 256.846326 365.879265 
L 257.680199 376.290281 
L 258.514072 354.650527 
L 259.347945 368.651274 
L 260.181818 378.685524 
L 261.015691 379.857491 
L 262.683437 342.264439 
L 263.51731 391.2771 
L 264.351183 394.069962 
L 265.185056 399.136076 
L 266.018929 402.275015 
L 266.852802 400.187836 
L 267.686675 393.532432 
L 268.520548 394.817268 
L 269.354421 391.999401 
L 270.188294 400.363072 
L 271.022167 392.551425 
L 271.85604 405.043819 
L 272.689913 383.693831 
L 273.523786 385.032812 
L 274.357659 373.023817 
L 275.191532 357.271737 
L 276.025405 373.096052 
L 276.859278 372.435475 
L 277.693151 396.672787 
L 278.527024 386.422641 
L 279.360897 388.116186 
L 280.19477 386.388622 
L 281.028643 383.165057 
L 281.862516 381.464547 
L 282.696389 387.301795 
L 283.530262 378.024017 
L 284.364134 399.619295 
L 285.198007 393.011883 
L 286.03188 399.500302 
L 286.865753 388.680236 
L 287.699626 381.7004 
L 288.533499 379.120779 
L 289.367372 382.785094 
L 290.201245 388.314876 
L 291.035118 384.175906 
L 291.868991 388.13156 
L 292.702864 385.001795 
L 293.536737 378.869212 
L 294.37061 386.731141 
L 295.204483 391.941555 
L 296.038356 391.448731 
L 296.872229 391.606893 
L 297.706102 400.47771 
L 298.539975 388.445623 
L 299.373848 389.639839 
L 301.041594 363.736584 
L 301.875467 384.30134 
L 302.70934 382.807002 
L 303.543213 382.808078 
L 304.377086 386.380964 
L 305.210959 383.232659 
L 306.044832 390.366147 
L 306.878705 378.013778 
L 307.712578 384.047598 
L 308.546451 376.117979 
L 309.380324 380.046248 
L 310.214197 377.414889 
L 311.04807 377.147985 
L 311.881943 383.085958 
L 313.549689 372.79069 
L 314.383562 361.59009 
L 315.217435 387.13258 
L 316.051308 389.48225 
L 316.885181 387.932054 
L 317.719054 393.746136 
L 318.552927 379.390932 
L 319.3868 402.747966 
L 320.220672 392.926301 
L 321.054545 400.4284 
L 321.888418 382.839635 
L 322.722291 380.328308 
L 323.556164 380.863578 
L 324.390037 390.427765 
L 325.22391 388.450877 
L 326.057783 391.270271 
L 326.891656 387.809067 
L 327.725529 386.840322 
L 328.559402 380.35689 
L 329.393275 394.580022 
L 330.227148 375.228005 
L 331.061021 401.049467 
L 331.894894 392.762768 
L 332.728767 378.1095 
L 333.56264 330.562968 
L 334.396513 372.692304 
L 335.230386 352.33821 
L 336.064259 356.12639 
L 336.898132 369.479202 
L 337.732005 366.001933 
L 338.565878 309.11517 
L 339.399751 267.253249 
L 340.233624 281.203812 
L 341.067497 299.987666 
L 343.569116 339.374604 
L 344.402989 324.375107 
L 345.236862 348.902408 
L 346.904608 363.92122 
L 347.738481 389.535989 
L 348.572354 389.038937 
L 349.406227 381.037236 
L 350.2401 395.829919 
L 351.073973 366.807958 
L 351.907846 318.954748 
L 352.741719 322.251892 
L 353.575592 381.502004 
L 354.409465 396.430793 
L 355.243337 398.107421 
L 356.07721 408.044463 
L 356.911083 388.334253 
L 357.744956 392.053737 
L 358.578829 376.942356 
L 359.412702 336.775984 
L 360.246575 341.735382 
L 361.080448 349.425982 
L 361.914321 323.615484 
L 362.748194 248.606137 
L 363.582067 280.972145 
L 364.41594 360.542741 
L 365.249813 337.368816 
L 366.083686 337.626381 
L 366.917559 276.287322 
L 367.751432 234.755916 
L 368.585305 262.935859 
L 369.419178 237.239405 
L 370.253051 281.954416 
L 371.086924 286.91697 
L 371.920797 282.321977 
L 372.75467 279.24908 
L 374.422416 198.515622 
L 375.256289 116.645535 
L 376.090162 140.224723 
L 376.924035 273.993549 
L 377.757908 302.914987 
L 378.591781 250.722967 
L 379.425654 216.795427 
L 380.259527 262.032611 
L 381.0934 264.046121 
L 381.927273 244.62057 
L 382.761146 239.884424 
L 383.595019 224.597424 
L 384.428892 230.925865 
L 385.262765 187.673713 
L 386.096638 211.298576 
L 386.930511 175.335558 
L 387.764384 204.997635 
L 388.598257 210.717147 
L 389.43213 260.417124 
L 390.266002 299.344247 
L 391.099875 316.437087 
L 391.933748 234.429239 
L 392.767621 198.777869 
L 394.435367 193.018786 
L 395.26924 195.641652 
L 396.103113 182.578323 
L 396.936986 195.539051 
L 397.770859 136.177115 
L 398.604732 107.213272 
L 399.438605 92.459926 
L 400.272478 130.498624 
L 401.106351 197.425414 
L 401.940224 146.69915 
L 402.774097 221.543964 
L 403.60797 255.044694 
L 404.441843 338.257445 
L 405.275716 296.755201 
L 406.109589 315.795112 
L 406.943462 354.854294 
L 407.777335 403.737639 
L 408.611208 389.759722 
L 409.445081 408.228737 
L 410.278954 330.330183 
L 411.112827 380.575566 
L 411.9467 384.358018 
L 412.780573 283.43807 
L 413.614446 267.470988 
L 414.448319 325.380928 
L 415.282192 278.428431 
L 416.116065 259.785527 
L 416.949938 306.712865 
L 417.783811 289.88713 
L 418.617684 279.489128 
L 419.451557 284.069913 
L 420.28543 296.929935 
L 421.119303 315.891337 
L 421.953176 307.520007 
L 422.787049 295.967536 
L 423.620922 277.574996 
L 424.454795 316.149214 
L 425.288667 348.299715 
L 426.12254 313.085632 
L 426.956413 387.135065 
L 427.790286 324.178711 
L 428.624159 371.24272 
L 429.458032 393.96188 
L 430.291905 402.20924 
L 431.125778 385.616643 
L 431.959651 381.409167 
L 432.793524 357.802231 
L 433.627397 300.360321 
L 434.46127 228.121804 
L 436.129016 381.237881 
L 436.962889 362.930053 
L 437.796762 388.205287 
L 438.630635 244.018641 
L 439.464508 331.074554 
L 440.298381 324.166937 
L 441.132254 283.008341 
L 441.966127 293.500175 
L 442.8 269.046093 
L 444.467746 282.894702 
L 445.301619 233.683726 
L 446.135492 289.119205 
L 446.969365 304.157758 
L 447.803238 253.122612 
L 448.637111 278.011172 
L 449.470984 331.12569 
L 450.304857 313.698558 
L 451.13873 351.681314 
L 451.972603 315.46586 
L 452.806476 272.537424 
L 453.640349 358.743308 
L 454.474222 326.993174 
L 455.308095 341.738598 
L 456.141968 332.05296 
L 456.975841 199.201231 
L 457.809714 252.444738 
L 458.643587 281.401555 
L 459.47746 280.629569 
L 460.311333 324.381311 
L 461.145205 330.335105 
L 461.979078 301.745611 
L 462.812951 323.464261 
L 463.646824 240.654891 
L 464.480697 301.758932 
L 465.31457 269.602714 
L 466.148443 203.989073 
L 466.982316 217.106414 
L 467.816189 215.560512 
L 468.650062 243.474177 
L 469.483935 279.66166 
L 470.317808 270.985012 
L 471.151681 167.869407 
L 471.985554 259.06059 
L 472.819427 240.980511 
L 473.6533 305.323384 
L 474.487173 304.631783 
L 475.321046 272.397991 
L 476.154919 276.630366 
L 476.988792 315.504602 
L 477.822665 316.009093 
L 478.656538 261.725342 
L 479.490411 284.713092 
L 480.324284 271.99877 
L 481.158157 255.673869 
L 481.99203 267.422431 
L 482.825903 244.344456 
L 483.659776 213.967323 
L 484.493649 211.549012 
L 485.327522 267.054615 
L 486.161395 190.098189 
L 486.995268 255.464826 
L 487.829141 289.220375 
L 488.663014 237.730259 
L 489.496887 328.153605 
L 490.33076 374.945098 
L 491.164633 402.261117 
L 491.998506 377.934429 
L 492.832379 341.560811 
L 493.666252 336.689875 
L 494.500125 310.900695 
L 496.16787 436.095995 
L 497.001743 375.613506 
L 497.835616 429.127562 
L 499.503362 253.257965 
L 500.337235 321.847449 
L 501.171108 264.858887 
L 502.004981 295.704429 
L 502.838854 293.639793 
L 503.672727 206.535332 
L 504.5066 246.294432 
L 505.340473 293.708129 
L 506.174346 321.276646 
L 507.008219 370.965878 
L 507.842092 353.359999 
L 508.675965 345.571628 
L 509.509838 355.132206 
L 510.343711 282.2944 
L 511.177584 310.486883 
L 512.011457 352.483756 
L 513.679203 211.556577 
L 514.513076 336.132933 
L 515.346949 360.598988 
L 517.014695 386.519675 
L 517.848568 411.500948 
L 518.682441 400.809917 
L 519.516314 393.207772 
L 520.350187 365.742313 
L 521.18406 367.030983 
L 522.017933 418.148022 
L 522.851806 276.53217 
L 523.685679 239.960169 
L 525.353425 381.949265 
L 526.187298 245.826233 
L 527.021171 184.514093 
L 527.855044 290.367823 
L 528.688917 298.858144 
L 529.52279 337.414281 
L 530.356663 316.700479 
L 531.190535 325.224041 
L 532.024408 376.225927 
L 532.858281 241.376903 
L 533.692154 207.401789 
L 534.526027 221.440118 
L 535.3599 259.090454 
L 536.193773 272.336274 
L 537.027646 299.636393 
L 537.861519 323.171551 
L 538.695392 301.854382 
L 539.529265 333.678259 
L 540.363138 374.048451 
L 541.197011 371.630234 
L 542.030884 333.285271 
L 542.864757 259.961579 
L 543.69863 234.281565 
L 544.532503 309.067665 
L 545.366376 336.371227 
L 546.200249 369.093999 
L 547.034122 306.441411 
L 547.867995 277.123267 
L 548.701868 328.209036 
L 549.535741 371.035048 
L 550.369614 374.747609 
L 551.203487 380.332642 
L 552.03736 384.125325 
L 552.871233 407.142863 
L 553.705106 400.291133 
L 554.538979 398.095091 
L 555.372852 387.421818 
L 556.206725 380.592731 
L 557.040598 394.325617 
L 557.874471 393.865538 
L 558.708344 388.436814 
L 559.542217 381.169437 
L 560.37609 399.099724 
L 562.043836 372.893804 
L 562.877709 387.362874 
L 563.711582 388.852461 
L 564.545455 388.757791 
L 565.379328 386.484862 
L 566.2132 396.375317 
L 567.047073 397.183006 
L 567.880946 380.846237 
L 568.714819 391.730751 
L 569.548692 387.810665 
L 570.382565 401.355555 
L 571.216438 387.508837 
L 572.050311 396.52425 
L 572.884184 342.440171 
L 573.718057 234.688852 
L 574.55193 275.054599 
L 575.385803 302.975655 
L 576.219676 370.437319 
L 577.053549 374.370752 
L 577.887422 373.004691 
L 578.721295 389.348174 
L 579.555168 401.058923 
L 580.389041 403.577249 
L 581.222914 388.559851 
L 582.056787 397.487975 
L 583.724533 379.44911 
L 584.558406 373.650412 
L 586.226152 366.48358 
L 587.060025 369.018143 
L 587.893898 415.972228 
L 588.727771 407.031877 
L 589.561644 410.866856 
L 590.395517 409.039749 
L 591.22939 383.903696 
L 592.897136 407.147394 
L 594.564882 389.658696 
L 595.398755 383.189256 
L 596.232628 395.710116 
L 597.066501 364.609456 
L 597.900374 382.634629 
L 598.734247 384.7397 
L 599.56812 384.296893 
L 600.401993 376.165578 
L 601.235866 374.443479 
L 602.069738 370.901011 
L 602.903611 379.087779 
L 603.737484 382.008112 
L 604.571357 378.840875 
L 605.40523 374.518602 
L 606.239103 375.977939 
L 607.072976 362.485778 
L 607.906849 286.938165 
L 608.740722 387.57084 
L 609.574595 384.574018 
L 610.408468 360.453268 
L 611.242341 382.235389 
L 612.076214 395.622716 
L 612.910087 270.169304 
L 613.74396 235.591652 
L 614.577833 190.32494 
L 615.411706 328.236888 
L 616.245579 185.763118 
L 617.079452 276.834426 
L 617.913325 325.953784 
L 618.747198 391.903485 
L 619.581071 339.908235 
L 620.414944 328.2716 
L 621.248817 355.393389 
L 622.08269 348.834025 
L 622.916563 286.452642 
L 623.750436 302.564396 
L 624.584309 353.511198 
L 625.418182 314.468962 
L 626.252055 349.648586 
L 627.085928 352.128556 
L 627.919801 393.998995 
L 628.753674 356.864966 
L 629.587547 369.542803 
L 630.42142 379.680713 
L 631.255293 385.402798 
L 632.089166 388.562111 
L 632.923039 389.148962 
L 633.756912 360.02923 
L 634.590785 356.743784 
L 635.424658 379.791588 
L 636.258531 357.05861 
L 637.926276 367.145365 
L 638.760149 370.845222 
L 639.594022 385.835784 
L 640.427895 378.911953 
L 641.261768 365.464702 
L 642.095641 388.942702 
L 642.929514 367.33304 
L 643.763387 403.78757 
L 644.59726 351.207324 
L 645.431133 342.043001 
L 646.265006 401.49353 
L 647.932752 374.153035 
L 648.766625 372.398842 
L 649.600498 372.748703 
L 650.434371 347.154756 
L 651.268244 334.083121 
L 652.102117 384.284847 
L 652.93599 294.694608 
L 653.769863 293.083969 
L 654.603736 334.178482 
L 655.437609 293.660105 
L 656.271482 324.791935 
L 657.105355 372.058075 
L 657.939228 330.27929 
L 658.773101 310.709686 
L 659.606974 270.077101 
L 660.440847 264.054654 
L 661.27472 380.341944 
L 662.108593 374.211533 
L 662.942466 354.630302 
L 663.776339 348.213536 
L 664.610212 363.142181 
L 665.444085 366.231783 
L 666.277958 284.446458 
L 667.111831 309.486264 
L 668.779577 194.017528 
L 669.61345 180.428109 
L 670.447323 225.647926 
L 671.281196 255.883065 
L 672.115068 264.339699 
L 672.948941 305.756934 
L 673.782814 243.90727 
L 674.616687 273.695002 
L 675.45056 235.312686 
L 676.284433 300.238558 
L 677.118306 382.412295 
L 677.952179 349.806848 
L 678.786052 376.707271 
L 679.619925 256.755867 
L 680.453798 318.494523 
L 681.287671 341.129565 
L 682.121544 327.331249 
L 682.955417 370.637545 
L 683.78929 309.213046 
L 684.623163 298.819335 
L 685.457036 307.316421 
L 686.290909 253.628573 
L 687.124782 217.204754 
L 687.958655 308.512955 
L 688.792528 364.070432 
L 689.626401 357.050181 
L 690.460274 316.158889 
L 691.294147 254.199201 
L 692.12802 230.945622 
L 692.961893 226.837072 
L 693.795766 240.763507 
L 694.629639 189.435941 
L 695.463512 259.938255 
L 696.297385 340.859336 
L 697.131258 160.882851 
L 697.965131 250.374363 
L 698.799004 257.487119 
L 699.632877 201.261027 
L 700.46675 293.78189 
L 701.300623 289.043542 
L 702.134496 327.044819 
L 702.968369 276.011383 
L 703.802242 252.29973 
L 704.636115 265.23944 
L 705.469988 266.062343 
L 706.303861 283.426915 
L 707.137733 251.10953 
L 707.971606 263.753323 
L 708.805479 257.304811 
L 709.639352 265.117468 
L 710.473225 258.953662 
L 711.307098 239.209454 
L 712.140971 250.077908 
L 712.974844 247.021694 
L 713.808717 273.016631 
L 714.64259 319.492327 
L 715.476463 314.116297 
L 716.310336 281.619465 
L 717.144209 263.796332 
L 717.978082 216.986833 
L 718.811955 192.671784 
L 719.645828 181.907071 
L 720.479701 149.754671 
L 722.147447 185.520243 
L 722.98132 214.349637 
L 723.815193 227.466056 
L 724.649066 211.301275 
L 725.482939 217.806241 
L 726.316812 171.038746 
L 727.150685 243.767789 
L 727.984558 199.306242 
L 728.818431 224.380065 
L 729.652304 221.653842 
L 730.486177 228.224799 
L 731.32005 242.687741 
L 732.153923 174.643091 
L 732.987796 249.769975 
L 733.821669 213.779991 
L 734.655542 316.404033 
L 735.489415 303.459903 
L 736.323288 212.966186 
L 737.157161 196.326596 
L 737.991034 289.213433 
L 738.824907 325.054279 
L 739.65878 304.936372 
L 740.492653 300.604284 
L 741.326526 324.889269 
L 742.160399 272.189164 
L 742.994271 284.887656 
L 743.828144 409.010993 
L 744.662017 365.502006 
L 745.49589 343.796086 
L 746.329763 282.311091 
L 747.163636 287.556978 
L 747.163636 287.556978 
" style="fill:none;stroke:#ff0000;stroke-dasharray:5.55,2.4;stroke-dashoffset:0;stroke-width:1.5;"/>
   </g>
   <g id="patch_3">
    <path d="M 108 460.8 
L 108 69.12 
" style="fill:none;stroke:#000000;stroke-linecap:square;stroke-linejoin:miter;stroke-width:0.8;"/>
   </g>
   <g id="patch_4">
    <path d="M 777.6 460.8 
L 777.6 69.12 
" style="fill:none;stroke:#000000;stroke-linecap:square;stroke-linejoin:miter;stroke-width:0.8;"/>
   </g>
   <g id="patch_5">
    <path d="M 108 460.8 
L 777.6 460.8 
" style="fill:none;stroke:#000000;stroke-linecap:square;stroke-linejoin:miter;stroke-width:0.8;"/>
   </g>
   <g id="patch_6">
    <path d="M 108 69.12 
L 777.6 69.12 
" style="fill:none;stroke:#000000;stroke-linecap:square;stroke-linejoin:miter;stroke-width:0.8;"/>
   </g>
   <g id="text_18">
    <!-- Macau residential 2020-2021 | Forecast vs Monitored | Support vector machine -->
    <g transform="translate(86.252344 63.12)scale(0.18 -0.18)">
     <defs>
      <path d="M 9.8125 72.90625 
L 24.515625 72.90625 
L 43.109375 23.296875 
L 61.8125 72.90625 
L 76.515625 72.90625 
L 76.515625 0 
L 66.890625 0 
L 66.890625 64.015625 
L 48.09375 14.015625 
L 38.1875 14.015625 
L 19.390625 64.015625 
L 19.390625 0 
L 9.8125 0 
z
" id="DejaVuSans-77"/>
      <path d="M 48.78125 52.59375 
L 48.78125 44.1875 
Q 44.96875 46.296875 41.140625 47.34375 
Q 37.3125 48.390625 33.40625 48.390625 
Q 24.65625 48.390625 19.8125 42.84375 
Q 14.984375 37.3125 14.984375 27.296875 
Q 14.984375 17.28125 19.8125 11.734375 
Q 24.65625 6.203125 33.40625 6.203125 
Q 37.3125 6.203125 41.140625 7.25 
Q 44.96875 8.296875 48.78125 10.40625 
L 48.78125 2.09375 
Q 45.015625 0.34375 40.984375 -0.53125 
Q 36.96875 -1.421875 32.421875 -1.421875 
Q 20.0625 -1.421875 12.78125 6.34375 
Q 5.515625 14.109375 5.515625 27.296875 
Q 5.515625 40.671875 12.859375 48.328125 
Q 20.21875 56 33.015625 56 
Q 37.15625 56 41.109375 55.140625 
Q 45.0625 54.296875 48.78125 52.59375 
z
" id="DejaVuSans-99"/>
      <path d="M 8.5 21.578125 
L 8.5 54.6875 
L 17.484375 54.6875 
L 17.484375 21.921875 
Q 17.484375 14.15625 20.5 10.265625 
Q 23.53125 6.390625 29.59375 6.390625 
Q 36.859375 6.390625 41.078125 11.03125 
Q 45.3125 15.671875 45.3125 23.6875 
L 45.3125 54.6875 
L 54.296875 54.6875 
L 54.296875 0 
L 45.3125 0 
L 45.3125 8.40625 
Q 42.046875 3.421875 37.71875 1 
Q 33.40625 -1.421875 27.6875 -1.421875 
Q 18.265625 -1.421875 13.375 4.4375 
Q 8.5 10.296875 8.5 21.578125 
z
M 31.109375 56 
z
" id="DejaVuSans-117"/>
      <path id="DejaVuSans-32"/>
      <path d="M 41.109375 46.296875 
Q 39.59375 47.171875 37.8125 47.578125 
Q 36.03125 48 33.890625 48 
Q 26.265625 48 22.1875 43.046875 
Q 18.109375 38.09375 18.109375 28.8125 
L 18.109375 0 
L 9.078125 0 
L 9.078125 54.6875 
L 18.109375 54.6875 
L 18.109375 46.1875 
Q 20.953125 51.171875 25.484375 53.578125 
Q 30.03125 56 36.53125 56 
Q 37.453125 56 38.578125 55.875 
Q 39.703125 55.765625 41.0625 55.515625 
z
" id="DejaVuSans-114"/>
      <path d="M 44.28125 53.078125 
L 44.28125 44.578125 
Q 40.484375 46.53125 36.375 47.5 
Q 32.28125 48.484375 27.875 48.484375 
Q 21.1875 48.484375 17.84375 46.4375 
Q 14.5 44.390625 14.5 40.28125 
Q 14.5 37.15625 16.890625 35.375 
Q 19.28125 33.59375 26.515625 31.984375 
L 29.59375 31.296875 
Q 39.15625 29.25 43.1875 25.515625 
Q 47.21875 21.78125 47.21875 15.09375 
Q 47.21875 7.46875 41.1875 3.015625 
Q 35.15625 -1.421875 24.609375 -1.421875 
Q 20.21875 -1.421875 15.453125 -0.5625 
Q 10.6875 0.296875 5.421875 2 
L 5.421875 11.28125 
Q 10.40625 8.6875 15.234375 7.390625 
Q 20.0625 6.109375 24.8125 6.109375 
Q 31.15625 6.109375 34.5625 8.28125 
Q 37.984375 10.453125 37.984375 14.40625 
Q 37.984375 18.0625 35.515625 20.015625 
Q 33.0625 21.96875 24.703125 23.78125 
L 21.578125 24.515625 
Q 13.234375 26.265625 9.515625 29.90625 
Q 5.8125 33.546875 5.8125 39.890625 
Q 5.8125 47.609375 11.28125 51.796875 
Q 16.75 56 26.8125 56 
Q 31.78125 56 36.171875 55.265625 
Q 40.578125 54.546875 44.28125 53.078125 
z
" id="DejaVuSans-115"/>
      <path d="M 9.421875 54.6875 
L 18.40625 54.6875 
L 18.40625 0 
L 9.421875 0 
z
M 9.421875 75.984375 
L 18.40625 75.984375 
L 18.40625 64.59375 
L 9.421875 64.59375 
z
" id="DejaVuSans-105"/>
      <path d="M 45.40625 46.390625 
L 45.40625 75.984375 
L 54.390625 75.984375 
L 54.390625 0 
L 45.40625 0 
L 45.40625 8.203125 
Q 42.578125 3.328125 38.25 0.953125 
Q 33.9375 -1.421875 27.875 -1.421875 
Q 17.96875 -1.421875 11.734375 6.484375 
Q 5.515625 14.40625 5.515625 27.296875 
Q 5.515625 40.1875 11.734375 48.09375 
Q 17.96875 56 27.875 56 
Q 33.9375 56 38.25 53.625 
Q 42.578125 51.265625 45.40625 46.390625 
z
M 14.796875 27.296875 
Q 14.796875 17.390625 18.875 11.75 
Q 22.953125 6.109375 30.078125 6.109375 
Q 37.203125 6.109375 41.296875 11.75 
Q 45.40625 17.390625 45.40625 27.296875 
Q 45.40625 37.203125 41.296875 42.84375 
Q 37.203125 48.484375 30.078125 48.484375 
Q 22.953125 48.484375 18.875 42.84375 
Q 14.796875 37.203125 14.796875 27.296875 
z
" id="DejaVuSans-100"/>
      <path d="M 54.890625 33.015625 
L 54.890625 0 
L 45.90625 0 
L 45.90625 32.71875 
Q 45.90625 40.484375 42.875 44.328125 
Q 39.84375 48.1875 33.796875 48.1875 
Q 26.515625 48.1875 22.3125 43.546875 
Q 18.109375 38.921875 18.109375 30.90625 
L 18.109375 0 
L 9.078125 0 
L 9.078125 54.6875 
L 18.109375 54.6875 
L 18.109375 46.1875 
Q 21.34375 51.125 25.703125 53.5625 
Q 30.078125 56 35.796875 56 
Q 45.21875 56 50.046875 50.171875 
Q 54.890625 44.34375 54.890625 33.015625 
z
" id="DejaVuSans-110"/>
      <path d="M 9.421875 75.984375 
L 18.40625 75.984375 
L 18.40625 0 
L 9.421875 0 
z
" id="DejaVuSans-108"/>
      <path d="M 21 76.421875 
L 21 -23.578125 
L 12.703125 -23.578125 
L 12.703125 76.421875 
z
" id="DejaVuSans-124"/>
      <path d="M 9.8125 72.90625 
L 51.703125 72.90625 
L 51.703125 64.59375 
L 19.671875 64.59375 
L 19.671875 43.109375 
L 48.578125 43.109375 
L 48.578125 34.8125 
L 19.671875 34.8125 
L 19.671875 0 
L 9.8125 0 
z
" id="DejaVuSans-70"/>
      <path d="M 30.609375 48.390625 
Q 23.390625 48.390625 19.1875 42.75 
Q 14.984375 37.109375 14.984375 27.296875 
Q 14.984375 17.484375 19.15625 11.84375 
Q 23.34375 6.203125 30.609375 6.203125 
Q 37.796875 6.203125 41.984375 11.859375 
Q 46.1875 17.53125 46.1875 27.296875 
Q 46.1875 37.015625 41.984375 42.703125 
Q 37.796875 48.390625 30.609375 48.390625 
z
M 30.609375 56 
Q 42.328125 56 49.015625 48.375 
Q 55.71875 40.765625 55.71875 27.296875 
Q 55.71875 13.875 49.015625 6.21875 
Q 42.328125 -1.421875 30.609375 -1.421875 
Q 18.84375 -1.421875 12.171875 6.21875 
Q 5.515625 13.875 5.515625 27.296875 
Q 5.515625 40.765625 12.171875 48.375 
Q 18.84375 56 30.609375 56 
z
" id="DejaVuSans-111"/>
      <path d="M 2.984375 54.6875 
L 12.5 54.6875 
L 29.59375 8.796875 
L 46.6875 54.6875 
L 56.203125 54.6875 
L 35.6875 0 
L 23.484375 0 
z
" id="DejaVuSans-118"/>
      <path d="M 53.515625 70.515625 
L 53.515625 60.890625 
Q 47.90625 63.578125 42.921875 64.890625 
Q 37.9375 66.21875 33.296875 66.21875 
Q 25.25 66.21875 20.875 63.09375 
Q 16.5 59.96875 16.5 54.203125 
Q 16.5 49.359375 19.40625 46.890625 
Q 22.3125 44.4375 30.421875 42.921875 
L 36.375 41.703125 
Q 47.40625 39.59375 52.65625 34.296875 
Q 57.90625 29 57.90625 20.125 
Q 57.90625 9.515625 50.796875 4.046875 
Q 43.703125 -1.421875 29.984375 -1.421875 
Q 24.8125 -1.421875 18.96875 -0.25 
Q 13.140625 0.921875 6.890625 3.21875 
L 6.890625 13.375 
Q 12.890625 10.015625 18.65625 8.296875 
Q 24.421875 6.59375 29.984375 6.59375 
Q 38.421875 6.59375 43.015625 9.90625 
Q 47.609375 13.234375 47.609375 19.390625 
Q 47.609375 24.75 44.3125 27.78125 
Q 41.015625 30.8125 33.5 32.328125 
L 27.484375 33.5 
Q 16.453125 35.6875 11.515625 40.375 
Q 6.59375 45.0625 6.59375 53.421875 
Q 6.59375 63.09375 13.40625 68.65625 
Q 20.21875 74.21875 32.171875 74.21875 
Q 37.3125 74.21875 42.625 73.28125 
Q 47.953125 72.359375 53.515625 70.515625 
z
" id="DejaVuSans-83"/>
      <path d="M 54.890625 33.015625 
L 54.890625 0 
L 45.90625 0 
L 45.90625 32.71875 
Q 45.90625 40.484375 42.875 44.328125 
Q 39.84375 48.1875 33.796875 48.1875 
Q 26.515625 48.1875 22.3125 43.546875 
Q 18.109375 38.921875 18.109375 30.90625 
L 18.109375 0 
L 9.078125 0 
L 9.078125 75.984375 
L 18.109375 75.984375 
L 18.109375 46.1875 
Q 21.34375 51.125 25.703125 53.5625 
Q 30.078125 56 35.796875 56 
Q 45.21875 56 50.046875 50.171875 
Q 54.890625 44.34375 54.890625 33.015625 
z
" id="DejaVuSans-104"/>
     </defs>
     <use xlink:href="#DejaVuSans-77"/>
     <use x="86.279297" xlink:href="#DejaVuSans-97"/>
     <use x="147.558594" xlink:href="#DejaVuSans-99"/>
     <use x="202.539062" xlink:href="#DejaVuSans-97"/>
     <use x="263.818359" xlink:href="#DejaVuSans-117"/>
     <use x="327.197266" xlink:href="#DejaVuSans-32"/>
     <use x="358.984375" xlink:href="#DejaVuSans-114"/>
     <use x="397.847656" xlink:href="#DejaVuSans-101"/>
     <use x="459.371094" xlink:href="#DejaVuSans-115"/>
     <use x="511.470703" xlink:href="#DejaVuSans-105"/>
     <use x="539.253906" xlink:href="#DejaVuSans-100"/>
     <use x="602.730469" xlink:href="#DejaVuSans-101"/>
     <use x="664.253906" xlink:href="#DejaVuSans-110"/>
     <use x="727.632812" xlink:href="#DejaVuSans-116"/>
     <use x="766.841797" xlink:href="#DejaVuSans-105"/>
     <use x="794.625" xlink:href="#DejaVuSans-97"/>
     <use x="855.904297" xlink:href="#DejaVuSans-108"/>
     <use x="883.6875" xlink:href="#DejaVuSans-32"/>
     <use x="915.474609" xlink:href="#DejaVuSans-50"/>
     <use x="979.097656" xlink:href="#DejaVuSans-48"/>
     <use x="1042.720703" xlink:href="#DejaVuSans-50"/>
     <use x="1106.34375" xlink:href="#DejaVuSans-48"/>
     <use x="1169.966797" xlink:href="#DejaVuSans-45"/>
     <use x="1206.050781" xlink:href="#DejaVuSans-50"/>
     <use x="1269.673828" xlink:href="#DejaVuSans-48"/>
     <use x="1333.296875" xlink:href="#DejaVuSans-50"/>
     <use x="1396.919922" xlink:href="#DejaVuSans-49"/>
     <use x="1460.542969" xlink:href="#DejaVuSans-32"/>
     <use x="1492.330078" xlink:href="#DejaVuSans-124"/>
     <use x="1526.021484" xlink:href="#DejaVuSans-32"/>
     <use x="1557.808594" xlink:href="#DejaVuSans-70"/>
     <use x="1611.703125" xlink:href="#DejaVuSans-111"/>
     <use x="1672.884766" xlink:href="#DejaVuSans-114"/>
     <use x="1711.748047" xlink:href="#DejaVuSans-101"/>
     <use x="1773.271484" xlink:href="#DejaVuSans-99"/>
     <use x="1828.251953" xlink:href="#DejaVuSans-97"/>
     <use x="1889.53125" xlink:href="#DejaVuSans-115"/>
     <use x="1941.630859" xlink:href="#DejaVuSans-116"/>
     <use x="1980.839844" xlink:href="#DejaVuSans-32"/>
     <use x="2012.626953" xlink:href="#DejaVuSans-118"/>
     <use x="2071.806641" xlink:href="#DejaVuSans-115"/>
     <use x="2123.90625" xlink:href="#DejaVuSans-32"/>
     <use x="2155.693359" xlink:href="#DejaVuSans-77"/>
     <use x="2241.972656" xlink:href="#DejaVuSans-111"/>
     <use x="2303.154297" xlink:href="#DejaVuSans-110"/>
     <use x="2366.533203" xlink:href="#DejaVuSans-105"/>
     <use x="2394.316406" xlink:href="#DejaVuSans-116"/>
     <use x="2433.525391" xlink:href="#DejaVuSans-111"/>
     <use x="2494.707031" xlink:href="#DejaVuSans-114"/>
     <use x="2533.570312" xlink:href="#DejaVuSans-101"/>
     <use x="2595.09375" xlink:href="#DejaVuSans-100"/>
     <use x="2658.570312" xlink:href="#DejaVuSans-32"/>
     <use x="2690.357422" xlink:href="#DejaVuSans-124"/>
     <use x="2724.048828" xlink:href="#DejaVuSans-32"/>
     <use x="2755.835938" xlink:href="#DejaVuSans-83"/>
     <use x="2819.3125" xlink:href="#DejaVuSans-117"/>
     <use x="2882.691406" xlink:href="#DejaVuSans-112"/>
     <use x="2946.167969" xlink:href="#DejaVuSans-112"/>
     <use x="3009.644531" xlink:href="#DejaVuSans-111"/>
     <use x="3070.826172" xlink:href="#DejaVuSans-114"/>
     <use x="3111.939453" xlink:href="#DejaVuSans-116"/>
     <use x="3151.148438" xlink:href="#DejaVuSans-32"/>
     <use x="3182.935547" xlink:href="#DejaVuSans-118"/>
     <use x="3242.115234" xlink:href="#DejaVuSans-101"/>
     <use x="3303.638672" xlink:href="#DejaVuSans-99"/>
     <use x="3358.619141" xlink:href="#DejaVuSans-116"/>
     <use x="3397.828125" xlink:href="#DejaVuSans-111"/>
     <use x="3459.009766" xlink:href="#DejaVuSans-114"/>
     <use x="3500.123047" xlink:href="#DejaVuSans-32"/>
     <use x="3531.910156" xlink:href="#DejaVuSans-109"/>
     <use x="3629.322266" xlink:href="#DejaVuSans-97"/>
     <use x="3690.601562" xlink:href="#DejaVuSans-99"/>
     <use x="3745.582031" xlink:href="#DejaVuSans-104"/>
     <use x="3808.960938" xlink:href="#DejaVuSans-105"/>
     <use x="3836.744141" xlink:href="#DejaVuSans-110"/>
     <use x="3900.123047" xlink:href="#DejaVuSans-101"/>
    </g>
   </g>
   <g id="legend_1">
    <g id="patch_7">
     <path d="M 614.74125 114.615 
L 769.2 114.615 
Q 771.6 114.615 771.6 112.215 
L 771.6 77.52 
Q 771.6 75.12 769.2 75.12 
L 614.74125 75.12 
Q 612.34125 75.12 612.34125 77.52 
L 612.34125 112.215 
Q 612.34125 114.615 614.74125 114.615 
z
" style="fill:#ffffff;opacity:0.8;stroke:#cccccc;stroke-linejoin:miter;"/>
    </g>
    <g id="line2d_18">
     <path d="M 617.14125 84.838125 
L 641.14125 84.838125 
" style="fill:none;stroke:#1f77b4;stroke-linecap:square;stroke-width:1.5;"/>
    </g>
    <g id="line2d_19"/>
    <g id="text_19">
     <!-- measured_data_O3 -->
     <g transform="translate(650.74125 89.038125)scale(0.12 -0.12)">
      <defs>
       <path d="M 50.984375 -16.609375 
L 50.984375 -23.578125 
L -0.984375 -23.578125 
L -0.984375 -16.609375 
z
" id="DejaVuSans-95"/>
      </defs>
      <use xlink:href="#DejaVuSans-109"/>
      <use x="97.412109" xlink:href="#DejaVuSans-101"/>
      <use x="158.935547" xlink:href="#DejaVuSans-97"/>
      <use x="220.214844" xlink:href="#DejaVuSans-115"/>
      <use x="272.314453" xlink:href="#DejaVuSans-117"/>
      <use x="335.693359" xlink:href="#DejaVuSans-114"/>
      <use x="374.556641" xlink:href="#DejaVuSans-101"/>
      <use x="436.080078" xlink:href="#DejaVuSans-100"/>
      <use x="499.556641" xlink:href="#DejaVuSans-95"/>
      <use x="549.556641" xlink:href="#DejaVuSans-100"/>
      <use x="613.033203" xlink:href="#DejaVuSans-97"/>
      <use x="674.3125" xlink:href="#DejaVuSans-116"/>
      <use x="713.521484" xlink:href="#DejaVuSans-97"/>
      <use x="774.800781" xlink:href="#DejaVuSans-95"/>
      <use x="824.800781" xlink:href="#DejaVuSans-79"/>
      <use x="903.511719" xlink:href="#DejaVuSans-51"/>
     </g>
    </g>
    <g id="line2d_20">
     <path d="M 617.14125 102.785625 
L 641.14125 102.785625 
" style="fill:none;stroke:#ff0000;stroke-dasharray:5.55,2.4;stroke-dashoffset:0;stroke-width:1.5;"/>
    </g>
    <g id="line2d_21"/>
    <g id="text_20">
     <!-- predicted_data_O3 -->
     <g transform="translate(650.74125 106.985625)scale(0.12 -0.12)">
      <use xlink:href="#DejaVuSans-112"/>
      <use x="63.476562" xlink:href="#DejaVuSans-114"/>
      <use x="102.339844" xlink:href="#DejaVuSans-101"/>
      <use x="163.863281" xlink:href="#DejaVuSans-100"/>
      <use x="227.339844" xlink:href="#DejaVuSans-105"/>
      <use x="255.123047" xlink:href="#DejaVuSans-99"/>
      <use x="310.103516" xlink:href="#DejaVuSans-116"/>
      <use x="349.3125" xlink:href="#DejaVuSans-101"/>
      <use x="410.835938" xlink:href="#DejaVuSans-100"/>
      <use x="474.3125" xlink:href="#DejaVuSans-95"/>
      <use x="524.3125" xlink:href="#DejaVuSans-100"/>
      <use x="587.789062" xlink:href="#DejaVuSans-97"/>
      <use x="649.068359" xlink:href="#DejaVuSans-116"/>
      <use x="688.277344" xlink:href="#DejaVuSans-97"/>
      <use x="749.556641" xlink:href="#DejaVuSans-95"/>
      <use x="799.556641" xlink:href="#DejaVuSans-79"/>
      <use x="878.267578" xlink:href="#DejaVuSans-51"/>
     </g>
    </g>
   </g>
  </g>
 </g>
 <defs>
  <clipPath id="p12cb6ee66a">
   <rect height="391.68" width="669.6" x="108" y="69.12"/>
  </clipPath>
 </defs>
</svg>
