<?xml version="1.0" encoding="utf-8" standalone="no"?>
<!DOCTYPE svg PUBLIC "-//W3C//DTD SVG 1.1//EN"
  "http://www.w3.org/Graphics/SVG/1.1/DTD/svg11.dtd">
<!-- Created with matplotlib (https://matplotlib.org/) -->
<svg height="576pt" version="1.1" viewBox="0 0 864 576" width="864pt" xmlns="http://www.w3.org/2000/svg" xmlns:xlink="http://www.w3.org/1999/xlink">
 <metadata>
  <rdf:RDF xmlns:cc="http://creativecommons.org/ns#" xmlns:dc="http://purl.org/dc/elements/1.1/" xmlns:rdf="http://www.w3.org/1999/02/22-rdf-syntax-ns#">
   <cc:Work>
    <dc:type rdf:resource="http://purl.org/dc/dcmitype/StillImage"/>
    <dc:date>2024-03-08T17:52:22.291233</dc:date>
    <dc:format>image/svg+xml</dc:format>
    <dc:creator>
     <cc:Agent>
      <dc:title>Matplotlib v3.3.4, https://matplotlib.org/</dc:title>
     </cc:Agent>
    </dc:creator>
   </cc:Work>
  </rdf:RDF>
 </metadata>
 <defs>
  <style type="text/css">*{stroke-linecap:butt;stroke-linejoin:round;}</style>
 </defs>
 <g id="figure_1">
  <g id="patch_1">
   <path d="M 0 576 
L 864 576 
L 864 0 
L 0 0 
z
" style="fill:#ffffff;"/>
  </g>
  <g id="axes_1">
   <g id="patch_2">
    <path d="M 108 460.8 
L 777.6 460.8 
L 777.6 69.12 
L 108 69.12 
z
" style="fill:#ffffff;"/>
   </g>
   <g id="matplotlib.axis_1">
    <g id="xtick_1">
     <g id="line2d_1">
      <defs>
       <path d="M 0 0 
L 0 3.5 
" id="m42b04c99e5" style="stroke:#000000;stroke-width:0.8;"/>
      </defs>
      <g>
       <use style="stroke:#000000;stroke-width:0.8;" x="138.436364" xlink:href="#m42b04c99e5" y="460.8"/>
      </g>
     </g>
     <g id="text_1">
      <!-- 2020-01 -->
      <g transform="translate(93.766579 500.766215)rotate(-30)scale(0.12 -0.12)">
       <defs>
        <path d="M 19.1875 8.296875 
L 53.609375 8.296875 
L 53.609375 0 
L 7.328125 0 
L 7.328125 8.296875 
Q 12.9375 14.109375 22.625 23.890625 
Q 32.328125 33.6875 34.8125 36.53125 
Q 39.546875 41.84375 41.421875 45.53125 
Q 43.3125 49.21875 43.3125 52.78125 
Q 43.3125 58.59375 39.234375 62.25 
Q 35.15625 65.921875 28.609375 65.921875 
Q 23.96875 65.921875 18.8125 64.3125 
Q 13.671875 62.703125 7.8125 59.421875 
L 7.8125 69.390625 
Q 13.765625 71.78125 18.9375 73 
Q 24.125 74.21875 28.421875 74.21875 
Q 39.75 74.21875 46.484375 68.546875 
Q 53.21875 62.890625 53.21875 53.421875 
Q 53.21875 48.921875 51.53125 44.890625 
Q 49.859375 40.875 45.40625 35.40625 
Q 44.1875 33.984375 37.640625 27.21875 
Q 31.109375 20.453125 19.1875 8.296875 
z
" id="DejaVuSans-50"/>
        <path d="M 31.78125 66.40625 
Q 24.171875 66.40625 20.328125 58.90625 
Q 16.5 51.421875 16.5 36.375 
Q 16.5 21.390625 20.328125 13.890625 
Q 24.171875 6.390625 31.78125 6.390625 
Q 39.453125 6.390625 43.28125 13.890625 
Q 47.125 21.390625 47.125 36.375 
Q 47.125 51.421875 43.28125 58.90625 
Q 39.453125 66.40625 31.78125 66.40625 
z
M 31.78125 74.21875 
Q 44.046875 74.21875 50.515625 64.515625 
Q 56.984375 54.828125 56.984375 36.375 
Q 56.984375 17.96875 50.515625 8.265625 
Q 44.046875 -1.421875 31.78125 -1.421875 
Q 19.53125 -1.421875 13.0625 8.265625 
Q 6.59375 17.96875 6.59375 36.375 
Q 6.59375 54.828125 13.0625 64.515625 
Q 19.53125 74.21875 31.78125 74.21875 
z
" id="DejaVuSans-48"/>
        <path d="M 4.890625 31.390625 
L 31.203125 31.390625 
L 31.203125 23.390625 
L 4.890625 23.390625 
z
" id="DejaVuSans-45"/>
        <path d="M 12.40625 8.296875 
L 28.515625 8.296875 
L 28.515625 63.921875 
L 10.984375 60.40625 
L 10.984375 69.390625 
L 28.421875 72.90625 
L 38.28125 72.90625 
L 38.28125 8.296875 
L 54.390625 8.296875 
L 54.390625 0 
L 12.40625 0 
z
" id="DejaVuSans-49"/>
       </defs>
       <use xlink:href="#DejaVuSans-50"/>
       <use x="63.623047" xlink:href="#DejaVuSans-48"/>
       <use x="127.246094" xlink:href="#DejaVuSans-50"/>
       <use x="190.869141" xlink:href="#DejaVuSans-48"/>
       <use x="254.492188" xlink:href="#DejaVuSans-45"/>
       <use x="290.576172" xlink:href="#DejaVuSans-48"/>
       <use x="354.199219" xlink:href="#DejaVuSans-49"/>
      </g>
     </g>
    </g>
    <g id="xtick_2">
     <g id="line2d_2">
      <g>
       <use style="stroke:#000000;stroke-width:0.8;" x="214.318804" xlink:href="#m42b04c99e5" y="460.8"/>
      </g>
     </g>
     <g id="text_2">
      <!-- 2020-04 -->
      <g transform="translate(169.64902 500.766215)rotate(-30)scale(0.12 -0.12)">
       <defs>
        <path d="M 37.796875 64.3125 
L 12.890625 25.390625 
L 37.796875 25.390625 
z
M 35.203125 72.90625 
L 47.609375 72.90625 
L 47.609375 25.390625 
L 58.015625 25.390625 
L 58.015625 17.1875 
L 47.609375 17.1875 
L 47.609375 0 
L 37.796875 0 
L 37.796875 17.1875 
L 4.890625 17.1875 
L 4.890625 26.703125 
z
" id="DejaVuSans-52"/>
       </defs>
       <use xlink:href="#DejaVuSans-50"/>
       <use x="63.623047" xlink:href="#DejaVuSans-48"/>
       <use x="127.246094" xlink:href="#DejaVuSans-50"/>
       <use x="190.869141" xlink:href="#DejaVuSans-48"/>
       <use x="254.492188" xlink:href="#DejaVuSans-45"/>
       <use x="290.576172" xlink:href="#DejaVuSans-48"/>
       <use x="354.199219" xlink:href="#DejaVuSans-52"/>
      </g>
     </g>
    </g>
    <g id="xtick_3">
     <g id="line2d_3">
      <g>
       <use style="stroke:#000000;stroke-width:0.8;" x="290.201245" xlink:href="#m42b04c99e5" y="460.8"/>
      </g>
     </g>
     <g id="text_3">
      <!-- 2020-07 -->
      <g transform="translate(245.53146 500.766215)rotate(-30)scale(0.12 -0.12)">
       <defs>
        <path d="M 8.203125 72.90625 
L 55.078125 72.90625 
L 55.078125 68.703125 
L 28.609375 0 
L 18.3125 0 
L 43.21875 64.59375 
L 8.203125 64.59375 
z
" id="DejaVuSans-55"/>
       </defs>
       <use xlink:href="#DejaVuSans-50"/>
       <use x="63.623047" xlink:href="#DejaVuSans-48"/>
       <use x="127.246094" xlink:href="#DejaVuSans-50"/>
       <use x="190.869141" xlink:href="#DejaVuSans-48"/>
       <use x="254.492188" xlink:href="#DejaVuSans-45"/>
       <use x="290.576172" xlink:href="#DejaVuSans-48"/>
       <use x="354.199219" xlink:href="#DejaVuSans-55"/>
      </g>
     </g>
    </g>
    <g id="xtick_4">
     <g id="line2d_4">
      <g>
       <use style="stroke:#000000;stroke-width:0.8;" x="366.917559" xlink:href="#m42b04c99e5" y="460.8"/>
      </g>
     </g>
     <g id="text_4">
      <!-- 2020-10 -->
      <g transform="translate(322.247774 500.766215)rotate(-30)scale(0.12 -0.12)">
       <use xlink:href="#DejaVuSans-50"/>
       <use x="63.623047" xlink:href="#DejaVuSans-48"/>
       <use x="127.246094" xlink:href="#DejaVuSans-50"/>
       <use x="190.869141" xlink:href="#DejaVuSans-48"/>
       <use x="254.492188" xlink:href="#DejaVuSans-45"/>
       <use x="290.576172" xlink:href="#DejaVuSans-49"/>
       <use x="354.199219" xlink:href="#DejaVuSans-48"/>
      </g>
     </g>
    </g>
    <g id="xtick_5">
     <g id="line2d_5">
      <g>
       <use style="stroke:#000000;stroke-width:0.8;" x="443.633873" xlink:href="#m42b04c99e5" y="460.8"/>
      </g>
     </g>
     <g id="text_5">
      <!-- 2021-01 -->
      <g transform="translate(398.964088 500.766215)rotate(-30)scale(0.12 -0.12)">
       <use xlink:href="#DejaVuSans-50"/>
       <use x="63.623047" xlink:href="#DejaVuSans-48"/>
       <use x="127.246094" xlink:href="#DejaVuSans-50"/>
       <use x="190.869141" xlink:href="#DejaVuSans-49"/>
       <use x="254.492188" xlink:href="#DejaVuSans-45"/>
       <use x="290.576172" xlink:href="#DejaVuSans-48"/>
       <use x="354.199219" xlink:href="#DejaVuSans-49"/>
      </g>
     </g>
    </g>
    <g id="xtick_6">
     <g id="line2d_6">
      <g>
       <use style="stroke:#000000;stroke-width:0.8;" x="518.682441" xlink:href="#m42b04c99e5" y="460.8"/>
      </g>
     </g>
     <g id="text_6">
      <!-- 2021-04 -->
      <g transform="translate(474.012656 500.766215)rotate(-30)scale(0.12 -0.12)">
       <use xlink:href="#DejaVuSans-50"/>
       <use x="63.623047" xlink:href="#DejaVuSans-48"/>
       <use x="127.246094" xlink:href="#DejaVuSans-50"/>
       <use x="190.869141" xlink:href="#DejaVuSans-49"/>
       <use x="254.492188" xlink:href="#DejaVuSans-45"/>
       <use x="290.576172" xlink:href="#DejaVuSans-48"/>
       <use x="354.199219" xlink:href="#DejaVuSans-52"/>
      </g>
     </g>
    </g>
    <g id="xtick_7">
     <g id="line2d_7">
      <g>
       <use style="stroke:#000000;stroke-width:0.8;" x="594.564882" xlink:href="#m42b04c99e5" y="460.8"/>
      </g>
     </g>
     <g id="text_7">
      <!-- 2021-07 -->
      <g transform="translate(549.895097 500.766215)rotate(-30)scale(0.12 -0.12)">
       <use xlink:href="#DejaVuSans-50"/>
       <use x="63.623047" xlink:href="#DejaVuSans-48"/>
       <use x="127.246094" xlink:href="#DejaVuSans-50"/>
       <use x="190.869141" xlink:href="#DejaVuSans-49"/>
       <use x="254.492188" xlink:href="#DejaVuSans-45"/>
       <use x="290.576172" xlink:href="#DejaVuSans-48"/>
       <use x="354.199219" xlink:href="#DejaVuSans-55"/>
      </g>
     </g>
    </g>
    <g id="xtick_8">
     <g id="line2d_8">
      <g>
       <use style="stroke:#000000;stroke-width:0.8;" x="671.281196" xlink:href="#m42b04c99e5" y="460.8"/>
      </g>
     </g>
     <g id="text_8">
      <!-- 2021-10 -->
      <g transform="translate(626.611411 500.766215)rotate(-30)scale(0.12 -0.12)">
       <use xlink:href="#DejaVuSans-50"/>
       <use x="63.623047" xlink:href="#DejaVuSans-48"/>
       <use x="127.246094" xlink:href="#DejaVuSans-50"/>
       <use x="190.869141" xlink:href="#DejaVuSans-49"/>
       <use x="254.492188" xlink:href="#DejaVuSans-45"/>
       <use x="290.576172" xlink:href="#DejaVuSans-49"/>
       <use x="354.199219" xlink:href="#DejaVuSans-48"/>
      </g>
     </g>
    </g>
    <g id="xtick_9">
     <g id="line2d_9">
      <g>
       <use style="stroke:#000000;stroke-width:0.8;" x="747.997509" xlink:href="#m42b04c99e5" y="460.8"/>
      </g>
     </g>
     <g id="text_9">
      <!-- 2022-01 -->
      <g transform="translate(703.327724 500.766215)rotate(-30)scale(0.12 -0.12)">
       <use xlink:href="#DejaVuSans-50"/>
       <use x="63.623047" xlink:href="#DejaVuSans-48"/>
       <use x="127.246094" xlink:href="#DejaVuSans-50"/>
       <use x="190.869141" xlink:href="#DejaVuSans-50"/>
       <use x="254.492188" xlink:href="#DejaVuSans-45"/>
       <use x="290.576172" xlink:href="#DejaVuSans-48"/>
       <use x="354.199219" xlink:href="#DejaVuSans-49"/>
      </g>
     </g>
    </g>
    <g id="text_10">
     <!-- Date -->
     <g transform="translate(424.873828 518.325146)scale(0.15 -0.15)">
      <defs>
       <path d="M 19.671875 64.796875 
L 19.671875 8.109375 
L 31.59375 8.109375 
Q 46.6875 8.109375 53.6875 14.9375 
Q 60.6875 21.78125 60.6875 36.53125 
Q 60.6875 51.171875 53.6875 57.984375 
Q 46.6875 64.796875 31.59375 64.796875 
z
M 9.8125 72.90625 
L 30.078125 72.90625 
Q 51.265625 72.90625 61.171875 64.09375 
Q 71.09375 55.28125 71.09375 36.53125 
Q 71.09375 17.671875 61.125 8.828125 
Q 51.171875 0 30.078125 0 
L 9.8125 0 
z
" id="DejaVuSans-68"/>
       <path d="M 34.28125 27.484375 
Q 23.390625 27.484375 19.1875 25 
Q 14.984375 22.515625 14.984375 16.5 
Q 14.984375 11.71875 18.140625 8.90625 
Q 21.296875 6.109375 26.703125 6.109375 
Q 34.1875 6.109375 38.703125 11.40625 
Q 43.21875 16.703125 43.21875 25.484375 
L 43.21875 27.484375 
z
M 52.203125 31.203125 
L 52.203125 0 
L 43.21875 0 
L 43.21875 8.296875 
Q 40.140625 3.328125 35.546875 0.953125 
Q 30.953125 -1.421875 24.3125 -1.421875 
Q 15.921875 -1.421875 10.953125 3.296875 
Q 6 8.015625 6 15.921875 
Q 6 25.140625 12.171875 29.828125 
Q 18.359375 34.515625 30.609375 34.515625 
L 43.21875 34.515625 
L 43.21875 35.40625 
Q 43.21875 41.609375 39.140625 45 
Q 35.0625 48.390625 27.6875 48.390625 
Q 23 48.390625 18.546875 47.265625 
Q 14.109375 46.140625 10.015625 43.890625 
L 10.015625 52.203125 
Q 14.9375 54.109375 19.578125 55.046875 
Q 24.21875 56 28.609375 56 
Q 40.484375 56 46.34375 49.84375 
Q 52.203125 43.703125 52.203125 31.203125 
z
" id="DejaVuSans-97"/>
       <path d="M 18.3125 70.21875 
L 18.3125 54.6875 
L 36.8125 54.6875 
L 36.8125 47.703125 
L 18.3125 47.703125 
L 18.3125 18.015625 
Q 18.3125 11.328125 20.140625 9.421875 
Q 21.96875 7.515625 27.59375 7.515625 
L 36.8125 7.515625 
L 36.8125 0 
L 27.59375 0 
Q 17.1875 0 13.234375 3.875 
Q 9.28125 7.765625 9.28125 18.015625 
L 9.28125 47.703125 
L 2.6875 47.703125 
L 2.6875 54.6875 
L 9.28125 54.6875 
L 9.28125 70.21875 
z
" id="DejaVuSans-116"/>
       <path d="M 56.203125 29.59375 
L 56.203125 25.203125 
L 14.890625 25.203125 
Q 15.484375 15.921875 20.484375 11.0625 
Q 25.484375 6.203125 34.421875 6.203125 
Q 39.59375 6.203125 44.453125 7.46875 
Q 49.3125 8.734375 54.109375 11.28125 
L 54.109375 2.78125 
Q 49.265625 0.734375 44.1875 -0.34375 
Q 39.109375 -1.421875 33.890625 -1.421875 
Q 20.796875 -1.421875 13.15625 6.1875 
Q 5.515625 13.8125 5.515625 26.8125 
Q 5.515625 40.234375 12.765625 48.109375 
Q 20.015625 56 32.328125 56 
Q 43.359375 56 49.78125 48.890625 
Q 56.203125 41.796875 56.203125 29.59375 
z
M 47.21875 32.234375 
Q 47.125 39.59375 43.09375 43.984375 
Q 39.0625 48.390625 32.421875 48.390625 
Q 24.90625 48.390625 20.390625 44.140625 
Q 15.875 39.890625 15.1875 32.171875 
z
" id="DejaVuSans-101"/>
      </defs>
      <use xlink:href="#DejaVuSans-68"/>
      <use x="77.001953" xlink:href="#DejaVuSans-97"/>
      <use x="138.28125" xlink:href="#DejaVuSans-116"/>
      <use x="177.490234" xlink:href="#DejaVuSans-101"/>
     </g>
    </g>
   </g>
   <g id="matplotlib.axis_2">
    <g id="ytick_1">
     <g id="line2d_10">
      <defs>
       <path d="M 0 0 
L -3.5 0 
" id="ma16ee6a0b5" style="stroke:#000000;stroke-width:0.8;"/>
      </defs>
      <g>
       <use style="stroke:#000000;stroke-width:0.8;" x="108" xlink:href="#ma16ee6a0b5" y="451.246829"/>
      </g>
     </g>
     <g id="text_11">
      <!-- 0 -->
      <g transform="translate(93.365 455.805892)scale(0.12 -0.12)">
       <use xlink:href="#DejaVuSans-48"/>
      </g>
     </g>
    </g>
    <g id="ytick_2">
     <g id="line2d_11">
      <g>
       <use style="stroke:#000000;stroke-width:0.8;" x="108" xlink:href="#ma16ee6a0b5" y="399.138625"/>
      </g>
     </g>
     <g id="text_12">
      <!-- 10 -->
      <g transform="translate(85.73 403.697688)scale(0.12 -0.12)">
       <use xlink:href="#DejaVuSans-49"/>
       <use x="63.623047" xlink:href="#DejaVuSans-48"/>
      </g>
     </g>
    </g>
    <g id="ytick_3">
     <g id="line2d_12">
      <g>
       <use style="stroke:#000000;stroke-width:0.8;" x="108" xlink:href="#ma16ee6a0b5" y="347.030421"/>
      </g>
     </g>
     <g id="text_13">
      <!-- 20 -->
      <g transform="translate(85.73 351.589484)scale(0.12 -0.12)">
       <use xlink:href="#DejaVuSans-50"/>
       <use x="63.623047" xlink:href="#DejaVuSans-48"/>
      </g>
     </g>
    </g>
    <g id="ytick_4">
     <g id="line2d_13">
      <g>
       <use style="stroke:#000000;stroke-width:0.8;" x="108" xlink:href="#ma16ee6a0b5" y="294.922217"/>
      </g>
     </g>
     <g id="text_14">
      <!-- 30 -->
      <g transform="translate(85.73 299.48128)scale(0.12 -0.12)">
       <defs>
        <path d="M 40.578125 39.3125 
Q 47.65625 37.796875 51.625 33 
Q 55.609375 28.21875 55.609375 21.1875 
Q 55.609375 10.40625 48.1875 4.484375 
Q 40.765625 -1.421875 27.09375 -1.421875 
Q 22.515625 -1.421875 17.65625 -0.515625 
Q 12.796875 0.390625 7.625 2.203125 
L 7.625 11.71875 
Q 11.71875 9.328125 16.59375 8.109375 
Q 21.484375 6.890625 26.8125 6.890625 
Q 36.078125 6.890625 40.9375 10.546875 
Q 45.796875 14.203125 45.796875 21.1875 
Q 45.796875 27.640625 41.28125 31.265625 
Q 36.765625 34.90625 28.71875 34.90625 
L 20.21875 34.90625 
L 20.21875 43.015625 
L 29.109375 43.015625 
Q 36.375 43.015625 40.234375 45.921875 
Q 44.09375 48.828125 44.09375 54.296875 
Q 44.09375 59.90625 40.109375 62.90625 
Q 36.140625 65.921875 28.71875 65.921875 
Q 24.65625 65.921875 20.015625 65.03125 
Q 15.375 64.15625 9.8125 62.3125 
L 9.8125 71.09375 
Q 15.4375 72.65625 20.34375 73.4375 
Q 25.25 74.21875 29.59375 74.21875 
Q 40.828125 74.21875 47.359375 69.109375 
Q 53.90625 64.015625 53.90625 55.328125 
Q 53.90625 49.265625 50.4375 45.09375 
Q 46.96875 40.921875 40.578125 39.3125 
z
" id="DejaVuSans-51"/>
       </defs>
       <use xlink:href="#DejaVuSans-51"/>
       <use x="63.623047" xlink:href="#DejaVuSans-48"/>
      </g>
     </g>
    </g>
    <g id="ytick_5">
     <g id="line2d_14">
      <g>
       <use style="stroke:#000000;stroke-width:0.8;" x="108" xlink:href="#ma16ee6a0b5" y="242.814013"/>
      </g>
     </g>
     <g id="text_15">
      <!-- 40 -->
      <g transform="translate(85.73 247.373076)scale(0.12 -0.12)">
       <use xlink:href="#DejaVuSans-52"/>
       <use x="63.623047" xlink:href="#DejaVuSans-48"/>
      </g>
     </g>
    </g>
    <g id="ytick_6">
     <g id="line2d_15">
      <g>
       <use style="stroke:#000000;stroke-width:0.8;" x="108" xlink:href="#ma16ee6a0b5" y="190.705809"/>
      </g>
     </g>
     <g id="text_16">
      <!-- 50 -->
      <g transform="translate(85.73 195.264872)scale(0.12 -0.12)">
       <defs>
        <path d="M 10.796875 72.90625 
L 49.515625 72.90625 
L 49.515625 64.59375 
L 19.828125 64.59375 
L 19.828125 46.734375 
Q 21.96875 47.46875 24.109375 47.828125 
Q 26.265625 48.1875 28.421875 48.1875 
Q 40.625 48.1875 47.75 41.5 
Q 54.890625 34.8125 54.890625 23.390625 
Q 54.890625 11.625 47.5625 5.09375 
Q 40.234375 -1.421875 26.90625 -1.421875 
Q 22.3125 -1.421875 17.546875 -0.640625 
Q 12.796875 0.140625 7.71875 1.703125 
L 7.71875 11.625 
Q 12.109375 9.234375 16.796875 8.0625 
Q 21.484375 6.890625 26.703125 6.890625 
Q 35.15625 6.890625 40.078125 11.328125 
Q 45.015625 15.765625 45.015625 23.390625 
Q 45.015625 31 40.078125 35.4375 
Q 35.15625 39.890625 26.703125 39.890625 
Q 22.75 39.890625 18.8125 39.015625 
Q 14.890625 38.140625 10.796875 36.28125 
z
" id="DejaVuSans-53"/>
       </defs>
       <use xlink:href="#DejaVuSans-53"/>
       <use x="63.623047" xlink:href="#DejaVuSans-48"/>
      </g>
     </g>
    </g>
    <g id="ytick_7">
     <g id="line2d_16">
      <g>
       <use style="stroke:#000000;stroke-width:0.8;" x="108" xlink:href="#ma16ee6a0b5" y="138.597605"/>
      </g>
     </g>
     <g id="text_17">
      <!-- 60 -->
      <g transform="translate(85.73 143.156668)scale(0.12 -0.12)">
       <defs>
        <path d="M 33.015625 40.375 
Q 26.375 40.375 22.484375 35.828125 
Q 18.609375 31.296875 18.609375 23.390625 
Q 18.609375 15.53125 22.484375 10.953125 
Q 26.375 6.390625 33.015625 6.390625 
Q 39.65625 6.390625 43.53125 10.953125 
Q 47.40625 15.53125 47.40625 23.390625 
Q 47.40625 31.296875 43.53125 35.828125 
Q 39.65625 40.375 33.015625 40.375 
z
M 52.59375 71.296875 
L 52.59375 62.3125 
Q 48.875 64.0625 45.09375 64.984375 
Q 41.3125 65.921875 37.59375 65.921875 
Q 27.828125 65.921875 22.671875 59.328125 
Q 17.53125 52.734375 16.796875 39.40625 
Q 19.671875 43.65625 24.015625 45.921875 
Q 28.375 48.1875 33.59375 48.1875 
Q 44.578125 48.1875 50.953125 41.515625 
Q 57.328125 34.859375 57.328125 23.390625 
Q 57.328125 12.15625 50.6875 5.359375 
Q 44.046875 -1.421875 33.015625 -1.421875 
Q 20.359375 -1.421875 13.671875 8.265625 
Q 6.984375 17.96875 6.984375 36.375 
Q 6.984375 53.65625 15.1875 63.9375 
Q 23.390625 74.21875 37.203125 74.21875 
Q 40.921875 74.21875 44.703125 73.484375 
Q 48.484375 72.75 52.59375 71.296875 
z
" id="DejaVuSans-54"/>
       </defs>
       <use xlink:href="#DejaVuSans-54"/>
       <use x="63.623047" xlink:href="#DejaVuSans-48"/>
      </g>
     </g>
    </g>
    <g id="ytick_8">
     <g id="line2d_17">
      <g>
       <use style="stroke:#000000;stroke-width:0.8;" x="108" xlink:href="#ma16ee6a0b5" y="86.489401"/>
      </g>
     </g>
     <g id="text_18">
      <!-- 70 -->
      <g transform="translate(85.73 91.048464)scale(0.12 -0.12)">
       <use xlink:href="#DejaVuSans-55"/>
       <use x="63.623047" xlink:href="#DejaVuSans-48"/>
      </g>
     </g>
    </g>
    <g id="text_19">
     <!-- PM25(micro-gram/m3) -->
     <g transform="translate(78.610469 349.562344)rotate(-90)scale(0.15 -0.15)">
      <defs>
       <path d="M 19.671875 64.796875 
L 19.671875 37.40625 
L 32.078125 37.40625 
Q 38.96875 37.40625 42.71875 40.96875 
Q 46.484375 44.53125 46.484375 51.125 
Q 46.484375 57.671875 42.71875 61.234375 
Q 38.96875 64.796875 32.078125 64.796875 
z
M 9.8125 72.90625 
L 32.078125 72.90625 
Q 44.34375 72.90625 50.609375 67.359375 
Q 56.890625 61.8125 56.890625 51.125 
Q 56.890625 40.328125 50.609375 34.8125 
Q 44.34375 29.296875 32.078125 29.296875 
L 19.671875 29.296875 
L 19.671875 0 
L 9.8125 0 
z
" id="DejaVuSans-80"/>
       <path d="M 9.8125 72.90625 
L 24.515625 72.90625 
L 43.109375 23.296875 
L 61.8125 72.90625 
L 76.515625 72.90625 
L 76.515625 0 
L 66.890625 0 
L 66.890625 64.015625 
L 48.09375 14.015625 
L 38.1875 14.015625 
L 19.390625 64.015625 
L 19.390625 0 
L 9.8125 0 
z
" id="DejaVuSans-77"/>
       <path d="M 31 75.875 
Q 24.46875 64.65625 21.28125 53.65625 
Q 18.109375 42.671875 18.109375 31.390625 
Q 18.109375 20.125 21.3125 9.0625 
Q 24.515625 -2 31 -13.1875 
L 23.1875 -13.1875 
Q 15.875 -1.703125 12.234375 9.375 
Q 8.59375 20.453125 8.59375 31.390625 
Q 8.59375 42.28125 12.203125 53.3125 
Q 15.828125 64.359375 23.1875 75.875 
z
" id="DejaVuSans-40"/>
       <path d="M 52 44.1875 
Q 55.375 50.25 60.0625 53.125 
Q 64.75 56 71.09375 56 
Q 79.640625 56 84.28125 50.015625 
Q 88.921875 44.046875 88.921875 33.015625 
L 88.921875 0 
L 79.890625 0 
L 79.890625 32.71875 
Q 79.890625 40.578125 77.09375 44.375 
Q 74.3125 48.1875 68.609375 48.1875 
Q 61.625 48.1875 57.5625 43.546875 
Q 53.515625 38.921875 53.515625 30.90625 
L 53.515625 0 
L 44.484375 0 
L 44.484375 32.71875 
Q 44.484375 40.625 41.703125 44.40625 
Q 38.921875 48.1875 33.109375 48.1875 
Q 26.21875 48.1875 22.15625 43.53125 
Q 18.109375 38.875 18.109375 30.90625 
L 18.109375 0 
L 9.078125 0 
L 9.078125 54.6875 
L 18.109375 54.6875 
L 18.109375 46.1875 
Q 21.1875 51.21875 25.484375 53.609375 
Q 29.78125 56 35.6875 56 
Q 41.65625 56 45.828125 52.96875 
Q 50 49.953125 52 44.1875 
z
" id="DejaVuSans-109"/>
       <path d="M 9.421875 54.6875 
L 18.40625 54.6875 
L 18.40625 0 
L 9.421875 0 
z
M 9.421875 75.984375 
L 18.40625 75.984375 
L 18.40625 64.59375 
L 9.421875 64.59375 
z
" id="DejaVuSans-105"/>
       <path d="M 48.78125 52.59375 
L 48.78125 44.1875 
Q 44.96875 46.296875 41.140625 47.34375 
Q 37.3125 48.390625 33.40625 48.390625 
Q 24.65625 48.390625 19.8125 42.84375 
Q 14.984375 37.3125 14.984375 27.296875 
Q 14.984375 17.28125 19.8125 11.734375 
Q 24.65625 6.203125 33.40625 6.203125 
Q 37.3125 6.203125 41.140625 7.25 
Q 44.96875 8.296875 48.78125 10.40625 
L 48.78125 2.09375 
Q 45.015625 0.34375 40.984375 -0.53125 
Q 36.96875 -1.421875 32.421875 -1.421875 
Q 20.0625 -1.421875 12.78125 6.34375 
Q 5.515625 14.109375 5.515625 27.296875 
Q 5.515625 40.671875 12.859375 48.328125 
Q 20.21875 56 33.015625 56 
Q 37.15625 56 41.109375 55.140625 
Q 45.0625 54.296875 48.78125 52.59375 
z
" id="DejaVuSans-99"/>
       <path d="M 41.109375 46.296875 
Q 39.59375 47.171875 37.8125 47.578125 
Q 36.03125 48 33.890625 48 
Q 26.265625 48 22.1875 43.046875 
Q 18.109375 38.09375 18.109375 28.8125 
L 18.109375 0 
L 9.078125 0 
L 9.078125 54.6875 
L 18.109375 54.6875 
L 18.109375 46.1875 
Q 20.953125 51.171875 25.484375 53.578125 
Q 30.03125 56 36.53125 56 
Q 37.453125 56 38.578125 55.875 
Q 39.703125 55.765625 41.0625 55.515625 
z
" id="DejaVuSans-114"/>
       <path d="M 30.609375 48.390625 
Q 23.390625 48.390625 19.1875 42.75 
Q 14.984375 37.109375 14.984375 27.296875 
Q 14.984375 17.484375 19.15625 11.84375 
Q 23.34375 6.203125 30.609375 6.203125 
Q 37.796875 6.203125 41.984375 11.859375 
Q 46.1875 17.53125 46.1875 27.296875 
Q 46.1875 37.015625 41.984375 42.703125 
Q 37.796875 48.390625 30.609375 48.390625 
z
M 30.609375 56 
Q 42.328125 56 49.015625 48.375 
Q 55.71875 40.765625 55.71875 27.296875 
Q 55.71875 13.875 49.015625 6.21875 
Q 42.328125 -1.421875 30.609375 -1.421875 
Q 18.84375 -1.421875 12.171875 6.21875 
Q 5.515625 13.875 5.515625 27.296875 
Q 5.515625 40.765625 12.171875 48.375 
Q 18.84375 56 30.609375 56 
z
" id="DejaVuSans-111"/>
       <path d="M 45.40625 27.984375 
Q 45.40625 37.75 41.375 43.109375 
Q 37.359375 48.484375 30.078125 48.484375 
Q 22.859375 48.484375 18.828125 43.109375 
Q 14.796875 37.75 14.796875 27.984375 
Q 14.796875 18.265625 18.828125 12.890625 
Q 22.859375 7.515625 30.078125 7.515625 
Q 37.359375 7.515625 41.375 12.890625 
Q 45.40625 18.265625 45.40625 27.984375 
z
M 54.390625 6.78125 
Q 54.390625 -7.171875 48.1875 -13.984375 
Q 42 -20.796875 29.203125 -20.796875 
Q 24.46875 -20.796875 20.265625 -20.09375 
Q 16.0625 -19.390625 12.109375 -17.921875 
L 12.109375 -9.1875 
Q 16.0625 -11.328125 19.921875 -12.34375 
Q 23.78125 -13.375 27.78125 -13.375 
Q 36.625 -13.375 41.015625 -8.765625 
Q 45.40625 -4.15625 45.40625 5.171875 
L 45.40625 9.625 
Q 42.625 4.78125 38.28125 2.390625 
Q 33.9375 0 27.875 0 
Q 17.828125 0 11.671875 7.65625 
Q 5.515625 15.328125 5.515625 27.984375 
Q 5.515625 40.671875 11.671875 48.328125 
Q 17.828125 56 27.875 56 
Q 33.9375 56 38.28125 53.609375 
Q 42.625 51.21875 45.40625 46.390625 
L 45.40625 54.6875 
L 54.390625 54.6875 
z
" id="DejaVuSans-103"/>
       <path d="M 25.390625 72.90625 
L 33.6875 72.90625 
L 8.296875 -9.28125 
L 0 -9.28125 
z
" id="DejaVuSans-47"/>
       <path d="M 8.015625 75.875 
L 15.828125 75.875 
Q 23.140625 64.359375 26.78125 53.3125 
Q 30.421875 42.28125 30.421875 31.390625 
Q 30.421875 20.453125 26.78125 9.375 
Q 23.140625 -1.703125 15.828125 -13.1875 
L 8.015625 -13.1875 
Q 14.5 -2 17.703125 9.0625 
Q 20.90625 20.125 20.90625 31.390625 
Q 20.90625 42.671875 17.703125 53.65625 
Q 14.5 64.65625 8.015625 75.875 
z
" id="DejaVuSans-41"/>
      </defs>
      <use xlink:href="#DejaVuSans-80"/>
      <use x="60.302734" xlink:href="#DejaVuSans-77"/>
      <use x="146.582031" xlink:href="#DejaVuSans-50"/>
      <use x="210.205078" xlink:href="#DejaVuSans-53"/>
      <use x="273.828125" xlink:href="#DejaVuSans-40"/>
      <use x="312.841797" xlink:href="#DejaVuSans-109"/>
      <use x="410.253906" xlink:href="#DejaVuSans-105"/>
      <use x="438.037109" xlink:href="#DejaVuSans-99"/>
      <use x="493.017578" xlink:href="#DejaVuSans-114"/>
      <use x="531.880859" xlink:href="#DejaVuSans-111"/>
      <use x="594.9375" xlink:href="#DejaVuSans-45"/>
      <use x="631.021484" xlink:href="#DejaVuSans-103"/>
      <use x="694.498047" xlink:href="#DejaVuSans-114"/>
      <use x="735.611328" xlink:href="#DejaVuSans-97"/>
      <use x="796.890625" xlink:href="#DejaVuSans-109"/>
      <use x="894.302734" xlink:href="#DejaVuSans-47"/>
      <use x="927.994141" xlink:href="#DejaVuSans-109"/>
      <use x="1025.40625" xlink:href="#DejaVuSans-51"/>
      <use x="1089.029297" xlink:href="#DejaVuSans-41"/>
     </g>
    </g>
   </g>
   <g id="line2d_18">
    <path clip-path="url(#pce7fa954f1)" d="M 138.436364 309.903326 
L 139.270237 299.896182 
L 140.10411 268.43388 
L 140.937983 242.596896 
L 141.771856 337.043016 
L 142.605729 358.754767 
L 143.439601 326.18714 
L 144.273474 331.832195 
L 145.107347 334.220488 
L 145.94122 302.955565 
L 146.775093 266.914058 
L 147.608966 330.095255 
L 148.442839 308.600621 
L 149.276712 305.560976 
L 150.110585 294.448506 
L 150.944458 277.987051 
L 151.778331 332.049313 
L 152.612204 329.009667 
L 153.446077 265.177118 
L 154.27995 308.600621 
L 155.113823 273.427583 
L 155.947696 277.552816 
L 157.615442 340.082661 
L 158.449315 355.498004 
L 159.283188 391.539512 
L 160.117061 406.086386 
L 160.950934 390.671042 
L 161.784807 337.477251 
L 162.61868 318.588027 
L 163.452553 296.106495 
L 164.286426 317.936674 
L 165.120299 315.331264 
L 165.954172 305.343858 
L 166.788045 357.017827 
L 167.621918 383.269309 
L 168.455791 362.445765 
L 169.289664 324.4502 
L 170.123537 403.046741 
L 170.95741 372.650288 
L 171.791283 338.128603 
L 172.625156 295.790687 
L 173.459029 280.158226 
L 174.292902 367.439468 
L 175.126775 379.815166 
L 175.960648 363.965588 
L 176.794521 429.752195 
L 177.628394 388.499867 
L 178.462267 391.888788 
L 179.296139 364.182705 
L 180.130012 357.886297 
L 180.963885 364.61694 
L 181.797758 284.283459 
L 182.631631 340.299778 
L 183.465504 332.700665 
L 184.299377 332.700665 
L 185.13325 340.398468 
L 185.967123 370.479113 
L 186.800996 356.955793 
L 187.634869 354.412417 
L 188.468742 330.312373 
L 189.302615 352.241242 
L 190.136488 361.794412 
L 190.970361 384.412394 
L 191.804234 399.355743 
L 192.638107 344.642129 
L 193.47198 299.264568 
L 194.305853 343.339424 
L 195.139726 372.650288 
L 195.973599 371.998936 
L 196.807472 345.944834 
L 197.641345 297.31051 
L 198.475218 207.858093 
L 199.309091 358.53765 
L 200.142964 270.17082 
L 200.976837 319.890732 
L 201.81071 315.538941 
L 202.644583 298.613215 
L 203.478456 326.404257 
L 204.312329 236.734723 
L 205.146202 280.375344 
L 205.980075 300.350155 
L 206.813948 335.306075 
L 207.647821 326.640255 
L 208.481694 360.057472 
L 209.315567 332.049313 
L 210.14944 348.333126 
L 210.983313 349.852949 
L 211.817186 398.053038 
L 212.651059 370.696231 
L 213.484932 350.938537 
L 214.318804 354.846652 
L 215.152677 356.366475 
L 216.820423 362.01153 
L 217.654296 388.282749 
L 218.488169 376.124169 
L 219.322042 342.530167 
L 220.155915 327.272727 
L 220.989788 357.886297 
L 221.823661 351.589889 
L 222.657534 312.508736 
L 223.491407 390.236807 
L 224.32528 353.109712 
L 225.159153 324.667317 
L 225.993026 259.532062 
L 226.826899 325.752905 
L 227.660772 361.577295 
L 228.494645 330.963725 
L 230.162391 387.584197 
L 230.996264 389.802572 
L 231.830137 404.132328 
L 232.66401 369.176408 
L 233.497883 325.970022 
L 234.331756 270.387938 
L 235.165629 86.923636 
L 235.999502 177.244523 
L 236.833375 332.917783 
L 237.667248 343.773659 
L 238.501121 335.088958 
L 239.334994 373.735876 
L 240.168867 380.249401 
L 241.00274 393.276452 
L 241.836613 401.3098 
L 242.670486 413.185185 
L 243.504359 407.823326 
L 244.338232 413.468381 
L 245.172105 420.850377 
L 246.005978 419.113437 
L 246.839851 415.639557 
L 247.673724 385.460222 
L 248.507597 303.606918 
L 249.341469 261.703237 
L 250.175342 356.149357 
L 251.009215 383.940399 
L 251.843088 403.480976 
L 252.676961 408.040443 
L 253.510834 398.270155 
L 254.344707 395.881863 
L 255.17858 399.138625 
L 256.012453 387.197162 
L 256.846326 359.189002 
L 257.680199 414.771086 
L 258.514072 413.902616 
L 259.347945 406.520621 
L 260.181818 377.643991 
L 261.015691 301.218625 
L 261.849564 319.890732 
L 262.683437 385.243104 
L 263.51731 409.777384 
L 264.351183 417.94289 
L 265.185056 415.422439 
L 266.018929 419.075677 
L 266.852802 420.199024 
L 267.686675 416.356988 
L 268.520548 417.376497 
L 269.354421 386.545809 
L 270.188294 394.144922 
L 271.022167 398.921508 
L 271.85604 400.224213 
L 272.689913 412.599911 
L 273.523786 427.458301 
L 274.357659 422.587317 
L 275.191532 413.468381 
L 276.025405 429.31796 
L 276.859278 416.942262 
L 277.693151 427.324427 
L 278.527024 418.462084 
L 279.360897 421.067494 
L 280.19477 420.199024 
L 281.862516 433.008958 
L 282.696389 423.23867 
L 283.530262 420.888137 
L 284.364134 414.553969 
L 285.198007 418.896319 
L 286.03188 421.935965 
L 286.865753 422.3702 
L 287.699626 425.409845 
L 288.533499 425.626962 
L 289.367372 424.541375 
L 290.201245 433.877428 
L 291.035118 428.591088 
L 291.868991 415.422439 
L 292.702864 414.553969 
L 293.536737 419.981907 
L 294.37061 419.981907 
L 295.204483 420.416142 
L 296.038356 411.731441 
L 296.872229 408.908914 
L 297.706102 413.685499 
L 298.539975 408.040443 
L 299.373848 423.672905 
L 300.207721 412.382794 
L 301.041594 414.553969 
L 301.875467 411.948559 
L 302.70934 428.591088 
L 303.543213 429.31796 
L 304.377086 432.574723 
L 305.210959 431.706253 
L 306.044832 426.778629 
L 306.878705 419.113437 
L 307.712578 426.71255 
L 308.546451 426.495432 
L 309.380324 420.850377 
L 310.214197 422.3702 
L 311.04807 428.44949 
L 311.881943 426.71255 
L 312.715816 428.883725 
L 313.549689 421.935965 
L 315.217435 434.311663 
L 316.051308 436.85504 
L 316.885181 439.832651 
L 317.719054 435.831486 
L 318.552927 432.79184 
L 319.3868 427.363902 
L 320.220672 426.495432 
L 321.888418 426.929667 
L 322.722291 429.969313 
L 323.556164 424.758492 
L 325.22391 422.474038 
L 326.057783 413.251264 
L 326.891656 410.693053 
L 327.725529 424.97561 
L 328.559402 413.685499 
L 329.393275 409.777384 
L 330.227148 392.842217 
L 331.061021 426.929667 
L 331.894894 415.422439 
L 332.728767 327.272727 
L 333.56264 314.245676 
L 334.396513 381.986341 
L 335.230386 380.900754 
L 336.064259 394.144922 
L 336.898132 399.355743 
L 337.732005 364.475342 
L 338.565878 312.725854 
L 339.399751 312.725854 
L 340.233624 306.212328 
L 341.067497 353.326829 
L 343.569116 245.636541 
L 344.402989 340.516896 
L 345.236862 378.532199 
L 346.070735 381.769224 
L 346.904608 419.330554 
L 347.738481 424.758492 
L 348.572354 417.593614 
L 349.406227 414.553969 
L 350.2401 421.067494 
L 351.073973 400.875565 
L 351.907846 383.940399 
L 352.741719 401.526918 
L 353.575592 429.100843 
L 354.409465 438.002661 
L 355.243337 423.380268 
L 356.07721 431.92337 
L 356.911083 429.752195 
L 357.744956 437.134191 
L 358.578829 433.443193 
L 359.412702 403.046741 
L 360.246575 402.990101 
L 361.080448 352.024124 
L 361.914321 345.444519 
L 363.582067 391.105277 
L 364.41594 368.742173 
L 365.249813 408.691796 
L 366.083686 410.862971 
L 366.917559 379.815166 
L 367.751432 365.702528 
L 368.585305 371.998936 
L 369.419178 344.642129 
L 370.253051 356.366475 
L 371.086924 337.911486 
L 371.920797 357.905177 
L 372.75467 352.241242 
L 373.588543 306.429446 
L 374.422416 277.769933 
L 375.256289 305.778093 
L 376.090162 304.258271 
L 376.924035 405.869268 
L 377.757908 380.776687 
L 378.591781 380.683636 
L 379.425654 338.779956 
L 380.259527 324.015965 
L 381.0934 335.957428 
L 381.927273 341.819601 
L 382.761146 327.093369 
L 383.595019 316.633969 
L 384.428892 324.884435 
L 385.262765 317.068204 
L 386.096638 298.17898 
L 386.930511 295.57357 
L 387.764384 341.819601 
L 388.598257 347.898891 
L 389.43213 342.036718 
L 390.266002 290.796984 
L 391.099875 260.36625 
L 391.933748 323.581729 
L 392.767621 303.3898 
L 393.601494 219.582439 
L 394.435367 293.185277 
L 395.26924 265.177118 
L 396.103113 348.163208 
L 396.936986 216.759911 
L 397.770859 242.379778 
L 398.604732 240.859956 
L 399.438605 276.032993 
L 400.272478 263.657295 
L 401.106351 311.640266 
L 401.940224 326.404257 
L 402.774097 319.673614 
L 403.60797 311.206031 
L 404.441843 308.383503 
L 405.275716 320.542084 
L 406.109589 387.197162 
L 406.943462 383.732721 
L 407.777335 381.334989 
L 408.611208 370.696231 
L 409.445081 370.696231 
L 410.278954 363.965588 
L 411.112827 327.05561 
L 411.9467 267.782528 
L 412.780573 306.863681 
L 413.614446 276.467228 
L 414.448319 310.988914 
L 416.116065 343.339424 
L 416.949938 337.601318 
L 417.783811 298.396098 
L 418.617684 295.57357 
L 419.451557 300.359595 
L 420.28543 300.567273 
L 421.119303 253.887007 
L 421.953176 186.363459 
L 422.787049 159.440887 
L 423.620922 226.5302 
L 424.454795 189.185987 
L 425.288667 195.482395 
L 426.12254 209.160798 
L 426.956413 172.128102 
L 427.790286 321.79908 
L 428.624159 296.44204 
L 429.458032 369.176408 
L 430.291905 325.054353 
L 431.125778 313.811441 
L 431.959651 315.765499 
L 432.793524 291.23122 
L 433.627397 239.557251 
L 434.46127 178.764346 
L 435.295143 174.856231 
L 436.129016 175.507583 
L 436.962889 263.657295 
L 437.796762 240.208603 
L 438.630635 332.700665 
L 439.464508 216.542794 
L 440.298381 299.04745 
L 441.132254 279.742871 
L 441.966127 364.834058 
L 442.8 343.556541 
L 443.633873 342.398581 
L 444.467746 325.101552 
L 445.301619 262.788825 
L 446.135492 253.887007 
L 446.969365 182.238226 
L 447.803238 251.064479 
L 448.637111 179.415698 
L 449.470984 279.941109 
L 450.304857 350.070067 
L 451.13873 320.542084 
L 451.972603 312.942971 
L 452.806476 264.96 
L 453.640349 250.413126 
L 454.474222 201.12745 
L 455.308095 244.333836 
L 456.141968 273.210466 
L 456.975841 163.783237 
L 458.643587 261.762451 
L 459.47746 328.575432 
L 460.311333 216.977029 
L 461.145205 217.628381 
L 461.979078 187.626688 
L 462.812951 217.411264 
L 463.646824 299.264568 
L 464.480697 192.442749 
L 465.31457 241.294191 
L 466.148443 226.728437 
L 466.982316 345.944834 
L 467.816189 310.988914 
L 468.650062 368.95929 
L 469.483935 367.005233 
L 470.317808 300.350155 
L 471.151681 321.627672 
L 471.985554 339.648426 
L 472.819427 348.116009 
L 473.6533 306.863681 
L 474.487173 298.830333 
L 476.154919 323.921566 
L 476.988792 411.297206 
L 478.656538 342.253836 
L 480.324284 328.575432 
L 481.158157 299.481685 
L 481.99203 329.878137 
L 482.825903 343.122306 
L 483.659776 309.469091 
L 484.493649 328.575432 
L 486.161395 285.151929 
L 486.995268 293.402395 
L 487.829141 315.331264 
L 488.663014 351.155654 
L 489.496887 376.256327 
L 490.33076 369.393525 
L 491.164633 318.370909 
L 491.998506 353.326829 
L 492.832379 350.938537 
L 493.666252 365.702528 
L 494.500125 360.057472 
L 495.333998 292.533925 
L 496.16787 253.669889 
L 497.001743 319.456497 
L 497.835616 331.180843 
L 498.669489 377.643991 
L 499.503362 320.976319 
L 500.337235 338.345721 
L 501.171108 375.038581 
L 502.004981 312.508736 
L 502.838854 334.00337 
L 503.672727 307.949268 
L 504.5066 350.504302 
L 505.340473 327.05561 
L 506.174346 336.391663 
L 507.842092 380.683636 
L 508.675965 367.439468 
L 509.509838 332.26643 
L 510.343711 315.548381 
L 511.177584 272.776231 
L 512.011457 175.299906 
L 512.84533 221.536497 
L 513.679203 376.124169 
L 514.513076 344.207894 
L 515.346949 347.464656 
L 516.180822 397.401685 
L 517.014695 401.961153 
L 519.516314 386.111574 
L 520.350187 388.934102 
L 521.18406 294.922217 
L 522.017933 318.370909 
L 522.851806 286.454634 
L 523.685679 361.756653 
L 525.353425 351.372772 
L 526.187298 357.886297 
L 527.021171 378.729579 
L 527.855044 386.980044 
L 528.688917 391.322395 
L 529.52279 381.117871 
L 530.356663 390.236807 
L 531.190535 374.170111 
L 532.024408 330.312373 
L 532.858281 273.210466 
L 533.692154 323.468451 
L 534.526027 361.577295 
L 535.3599 353.543947 
L 536.193773 347.247539 
L 537.027646 333.569135 
L 537.861519 376.558404 
L 538.695392 370.044878 
L 539.529265 394.144922 
L 540.363138 406.954856 
L 541.197011 371.347583 
L 542.030884 353.543947 
L 542.864757 343.990776 
L 543.69863 339.865543 
L 544.532503 358.103415 
L 545.366376 380.249401 
L 546.200249 385.545181 
L 547.034122 314.462794 
L 547.867995 351.788127 
L 548.701868 366.570998 
L 549.535741 377.209756 
L 550.369614 396.316098 
L 551.203487 419.981907 
L 552.03736 413.468381 
L 552.871233 393.927805 
L 553.705106 386.111574 
L 555.372852 395.447627 
L 556.206725 408.908914 
L 557.040598 408.257561 
L 557.874471 402.178271 
L 558.708344 403.915211 
L 559.542217 409.086555 
L 560.37609 426.552072 
L 561.209963 418.679202 
L 562.043836 435.614368 
L 562.877709 421.718847 
L 563.711582 425.626962 
L 564.545455 421.284612 
L 565.379328 431.92337 
L 566.2132 426.495432 
L 567.047073 425.626962 
L 568.714819 396.533215 
L 569.548692 413.034146 
L 570.382565 405.652151 
L 571.216438 406.841577 
L 572.050311 382.420576 
L 573.718057 288.625809 
L 574.55193 382.420576 
L 575.385803 387.631397 
L 576.219676 425.626962 
L 577.053549 430.837783 
L 577.887422 428.232373 
L 578.721295 431.489135 
L 579.555168 428.666608 
L 580.389041 413.902616 
L 581.222914 410.211619 
L 582.056787 395.013392 
L 582.89066 397.401685 
L 583.724533 403.896331 
L 584.558406 393.276452 
L 585.392279 381.117871 
L 586.226152 379.598049 
L 587.060025 401.961153 
L 587.893898 408.040443 
L 588.727771 414.988204 
L 589.561644 403.165168 
L 590.395517 386.328692 
L 591.22939 387.414279 
L 592.063263 386.980044 
L 592.897136 378.512461 
L 593.731009 383.723282 
L 594.564882 390.756001 
L 595.398755 377.643991 
L 596.232628 385.894457 
L 597.066501 401.092683 
L 597.900374 426.71255 
L 598.734247 436.048603 
L 599.56812 425.626962 
L 600.401993 424.541375 
L 601.235866 402.395388 
L 602.069738 429.969313 
L 602.903611 433.226075 
L 603.737484 427.58102 
L 604.571357 418.896319 
L 605.40523 422.153082 
L 606.239103 429.044203 
L 607.072976 415.205322 
L 607.906849 393.927805 
L 608.740722 426.929667 
L 609.574595 442.996364 
L 611.242341 426.061197 
L 612.076214 399.789978 
L 612.910087 361.360177 
L 613.74396 310.554678 
L 615.411706 389.15122 
L 616.245579 298.613215 
L 617.079452 353.109712 
L 617.913325 391.435673 
L 618.747198 411.948559 
L 619.581071 394.36204 
L 620.414944 398.70439 
L 621.248817 372.216053 
L 622.08269 420.199024 
L 622.916563 344.859246 
L 623.750436 348.550244 
L 625.418182 352.241242 
L 626.252055 375.689933 
L 627.085928 384.374634 
L 627.919801 386.328692 
L 628.753674 403.915211 
L 629.587547 413.638299 
L 630.42142 404.132328 
L 631.255293 407.389091 
L 632.089166 420.850377 
L 632.923039 419.981907 
L 633.756912 404.349446 
L 634.590785 408.474678 
L 635.424658 405.000798 
L 636.258531 417.810732 
L 637.092403 410.428736 
L 637.926276 423.23867 
L 638.760149 423.672905 
L 639.594022 426.061197 
L 640.427895 428.883725 
L 641.261768 425.419285 
L 642.095641 423.890022 
L 642.929514 416.797517 
L 643.763387 411.080089 
L 644.59726 416.073792 
L 645.431133 385.243104 
L 646.265006 426.278315 
L 647.098879 434.963016 
L 648.766625 435.397251 
L 649.600498 436.482838 
L 650.434371 419.113437 
L 651.268244 409.086555 
L 652.102117 421.067494 
L 652.93599 367.005233 
L 653.769863 390.236807 
L 654.603736 391.75663 
L 655.437609 338.562838 
L 656.271482 367.873703 
L 657.105355 410.645854 
L 657.939228 392.190865 
L 658.773101 388.282749 
L 659.606974 345.944834 
L 660.440847 349.635831 
L 661.27472 429.100843 
L 662.108593 423.672905 
L 662.942466 410.862971 
L 663.776339 432.79184 
L 664.610212 432.669122 
L 665.444085 419.330554 
L 667.111831 361.577295 
L 668.779577 313.811441 
L 669.61345 304.041153 
L 670.447323 282.546519 
L 671.281196 290.796984 
L 672.115068 365.48541 
L 672.948941 396.770071 
L 673.782814 377.426874 
L 674.616687 383.506164 
L 675.45056 369.176408 
L 676.284433 400.224213 
L 677.118306 442.184533 
L 677.952179 433.008958 
L 678.786052 418.244967 
L 679.619925 337.043016 
L 680.453798 392.190865 
L 681.287671 423.021552 
L 682.121544 397.184568 
L 682.955417 355.715122 
L 684.623163 403.046741 
L 685.457036 345.510599 
L 686.290909 332.142363 
L 687.124782 381.334989 
L 687.958655 405.255675 
L 688.792528 398.487273 
L 689.626401 337.477251 
L 690.460274 379.598049 
L 691.294147 358.53765 
L 692.12802 291.665455 
L 692.961893 325.31867 
L 693.795766 324.233082 
L 694.629639 318.153792 
L 695.463512 285.151929 
L 696.297385 304.692506 
L 697.131258 299.698803 
L 697.965131 360.491707 
L 698.799004 320.107849 
L 699.632877 348.519227 
L 700.46675 362.445765 
L 701.300623 381.769224 
L 702.134496 395.013392 
L 702.968369 405.869268 
L 703.802242 377.572342 
L 704.636115 376.013439 
L 705.469988 356.149357 
L 706.303861 326.18714 
L 707.137733 323.581729 
L 707.971606 334.87184 
L 708.805479 326.18714 
L 709.639352 260.258934 
L 710.473225 236.08337 
L 711.307098 319.022262 
L 712.140971 259.966297 
L 712.974844 352.241242 
L 713.808717 359.189002 
L 714.64259 379.380931 
L 715.476463 317.502439 
L 716.310336 294.053747 
L 717.144209 254.755477 
L 717.978082 290.145632 
L 718.811955 302.955565 
L 719.645828 273.427583 
L 720.479701 276.684346 
L 721.313574 269.519468 
L 722.147447 342.905188 
L 722.98132 344.425011 
L 723.815193 355.715122 
L 724.649066 355.063769 
L 725.482939 297.527627 
L 726.316812 300.350155 
L 727.150685 297.961863 
L 727.984558 342.470953 
L 728.818431 307.080798 
L 730.486177 336.60878 
L 732.153923 127.090377 
L 733.821669 301.869978 
L 734.655542 341.168248 
L 735.489415 336.60878 
L 736.323288 235.432018 
L 737.157161 269.085233 
L 737.991034 319.239379 
L 738.824907 396.09898 
L 739.65878 324.4502 
L 740.492653 296.876275 
L 741.326526 113.194856 
L 742.160399 244.550953 
L 742.994271 272.993348 
L 743.828144 329.226785 
L 745.49589 202.86439 
L 746.329763 286.992708 
L 747.163636 276.032993 
L 747.163636 276.032993 
" style="fill:none;stroke:#1f77b4;stroke-linecap:square;stroke-width:1.5;"/>
   </g>
   <g id="line2d_19">
    <path clip-path="url(#pce7fa954f1)" d="M 138.436364 303.99124 
L 139.270237 305.830572 
L 140.10411 254.381646 
L 140.937983 249.943428 
L 141.771856 325.000608 
L 142.605729 356.249563 
L 143.439601 325.295051 
L 144.273474 315.8529 
L 145.107347 343.054972 
L 145.94122 299.266722 
L 146.775093 275.483933 
L 147.608966 305.827835 
L 148.442839 302.830845 
L 149.276712 305.365619 
L 150.110585 297.494129 
L 150.944458 277.834403 
L 151.778331 324.256723 
L 152.612204 328.561624 
L 153.446077 255.360498 
L 154.27995 312.313764 
L 155.113823 268.277948 
L 155.947696 284.32547 
L 156.781569 304.299769 
L 157.615442 335.564043 
L 158.449315 361.286128 
L 159.283188 347.685297 
L 160.117061 403.053645 
L 160.950934 382.890349 
L 162.61868 316.58048 
L 163.452553 269.035944 
L 164.286426 323.920204 
L 165.120299 315.764109 
L 165.954172 315.63072 
L 167.621918 377.612726 
L 168.455791 366.197867 
L 169.289664 322.185602 
L 170.123537 389.019108 
L 170.95741 372.880945 
L 171.791283 339.63828 
L 172.625156 287.022266 
L 173.459029 277.341075 
L 174.292902 349.410985 
L 175.126775 383.001149 
L 175.960648 358.945427 
L 176.794521 411.871306 
L 178.462267 376.271037 
L 179.296139 349.462047 
L 180.130012 359.317847 
L 180.963885 360.420347 
L 181.797758 275.463309 
L 182.631631 330.519589 
L 183.465504 325.468991 
L 184.299377 334.367962 
L 185.13325 332.461063 
L 185.967123 371.06445 
L 186.800996 357.046234 
L 187.634869 356.168711 
L 188.468742 332.815831 
L 189.302615 342.386588 
L 190.136488 358.040364 
L 190.970361 379.002318 
L 191.804234 392.55899 
L 192.638107 354.597562 
L 193.47198 305.489751 
L 194.305853 328.031226 
L 195.139726 378.798442 
L 195.973599 371.881948 
L 196.807472 335.445899 
L 197.641345 310.812006 
L 198.475218 212.446341 
L 199.309091 344.141709 
L 200.142964 263.05264 
L 200.976837 317.918689 
L 201.81071 317.350539 
L 202.644583 300.299697 
L 203.478456 322.14528 
L 204.312329 256.990484 
L 205.146202 281.275672 
L 205.980075 292.401132 
L 206.813948 336.524652 
L 207.647821 322.04839 
L 208.481694 360.664368 
L 209.315567 335.262131 
L 210.14944 344.949024 
L 210.983313 349.28358 
L 211.817186 393.084936 
L 212.651059 371.335857 
L 213.484932 340.397829 
L 214.318804 362.323903 
L 215.152677 343.368288 
L 216.820423 368.93935 
L 217.654296 378.345222 
L 218.488169 366.961003 
L 219.322042 358.255623 
L 220.155915 301.205145 
L 220.989788 355.28507 
L 221.823661 352.034618 
L 222.657534 327.332645 
L 223.491407 378.051738 
L 224.32528 341.969221 
L 225.159153 328.343235 
L 225.993026 261.172075 
L 226.826899 324.234853 
L 227.660772 359.58595 
L 228.494645 332.029788 
L 229.328518 352.878558 
L 230.162391 384.499845 
L 231.830137 392.114022 
L 232.66401 380.86668 
L 234.331756 268.849417 
L 235.165629 118.076485 
L 235.999502 156.115254 
L 236.833375 321.524443 
L 237.667248 339.36626 
L 238.501121 333.183621 
L 239.334994 366.589849 
L 240.168867 379.576469 
L 241.00274 390.229354 
L 241.836613 398.577499 
L 242.670486 415.120008 
L 243.504359 406.27888 
L 244.338232 414.258636 
L 245.172105 419.867671 
L 246.005978 419.626182 
L 246.839851 415.904559 
L 248.507597 338.641092 
L 249.341469 245.826483 
L 250.175342 352.361959 
L 251.843088 404.156362 
L 252.676961 407.658299 
L 253.510834 396.101672 
L 254.344707 394.924858 
L 255.17858 398.236326 
L 256.012453 389.693753 
L 256.846326 370.192465 
L 257.680199 402.825393 
L 258.514072 413.245873 
L 259.347945 404.573083 
L 260.181818 382.424107 
L 261.015691 310.978231 
L 261.849564 312.986281 
L 262.683437 381.687588 
L 263.51731 405.689635 
L 264.351183 415.447141 
L 265.185056 417.181959 
L 266.018929 422.081138 
L 267.686675 415.786653 
L 268.520548 418.237352 
L 270.188294 388.613994 
L 271.022167 397.75229 
L 271.85604 397.7073 
L 272.689913 409.768491 
L 273.523786 426.897334 
L 274.357659 424.036257 
L 275.191532 412.32572 
L 276.025405 429.335315 
L 276.859278 416.943734 
L 277.693151 425.692392 
L 278.527024 420.348322 
L 279.360897 422.577759 
L 280.19477 420.189821 
L 281.028643 425.161613 
L 281.862516 431.850337 
L 282.696389 424.660382 
L 283.530262 420.997009 
L 284.364134 416.678785 
L 285.198007 417.352062 
L 286.03188 420.814638 
L 286.865753 423.156395 
L 288.533499 425.273099 
L 289.367372 424.065098 
L 290.201245 433.081339 
L 291.035118 430.51513 
L 291.868991 418.367849 
L 292.702864 414.921438 
L 293.536737 419.243103 
L 294.37061 421.341242 
L 295.204483 419.651956 
L 296.038356 412.91319 
L 296.872229 411.080644 
L 297.706102 412.874344 
L 298.539975 409.117641 
L 299.373848 421.848485 
L 300.207721 413.175994 
L 301.041594 414.02475 
L 301.875467 413.699827 
L 302.70934 427.068653 
L 303.543213 427.796073 
L 304.377086 434.509066 
L 305.210959 429.969747 
L 306.044832 427.215204 
L 306.878705 421.461372 
L 307.712578 424.799661 
L 308.546451 426.176609 
L 309.380324 420.925039 
L 310.214197 420.069252 
L 311.04807 427.077517 
L 311.881943 427.232577 
L 312.715816 428.236205 
L 313.549689 422.338108 
L 314.383562 428.540283 
L 315.217435 430.254303 
L 316.051308 437.191807 
L 316.885181 439.68882 
L 317.719054 438.28365 
L 318.552927 433.503713 
L 319.3868 427.874681 
L 320.220672 425.155407 
L 321.888418 426.271495 
L 322.722291 428.505038 
L 323.556164 425.022775 
L 324.390037 422.400996 
L 325.22391 421.371103 
L 326.057783 414.337911 
L 326.891656 409.688751 
L 327.725529 425.127756 
L 328.559402 416.942842 
L 329.393275 404.709506 
L 330.227148 386.945219 
L 331.061021 425.951462 
L 331.894894 419.406491 
L 332.728767 325.351932 
L 333.56264 316.985684 
L 334.396513 376.315307 
L 335.230386 380.684418 
L 336.064259 397.376463 
L 336.898132 396.633055 
L 337.732005 371.625815 
L 338.565878 321.69741 
L 339.399751 310.762764 
L 340.233624 315.960123 
L 341.067497 342.939241 
L 343.569116 248.933254 
L 344.402989 331.185011 
L 345.236862 379.396212 
L 346.070735 383.94432 
L 346.904608 416.294051 
L 347.738481 423.883138 
L 348.572354 421.276533 
L 349.406227 411.450159 
L 350.2401 422.167796 
L 351.073973 404.861298 
L 351.907846 379.47862 
L 352.741719 405.204832 
L 353.575592 425.501865 
L 354.409465 439.412375 
L 355.243337 424.494111 
L 356.07721 431.727115 
L 356.911083 430.079042 
L 357.744956 435.671068 
L 358.578829 432.868603 
L 359.412702 408.859387 
L 360.246575 404.873604 
L 361.080448 365.752204 
L 361.914321 336.693979 
L 362.748194 369.113505 
L 363.582067 388.441223 
L 364.41594 374.495066 
L 365.249813 402.793147 
L 366.083686 409.692116 
L 366.917559 386.549737 
L 367.751432 358.360106 
L 368.585305 369.337181 
L 369.419178 347.753336 
L 370.253051 350.246664 
L 371.086924 343.371644 
L 371.920797 353.537973 
L 372.75467 352.657616 
L 373.588543 319.1284 
L 374.422416 279.530096 
L 375.256289 300.539384 
L 376.090162 305.932186 
L 376.924035 374.686026 
L 377.757908 399.55764 
L 378.591781 378.090268 
L 379.425654 340.107152 
L 380.259527 324.324185 
L 381.0934 331.999519 
L 381.927273 334.284244 
L 382.761146 329.371612 
L 383.595019 318.741765 
L 384.428892 320.732611 
L 385.262765 331.521999 
L 386.096638 299.059341 
L 386.930511 274.409389 
L 387.764384 344.547828 
L 388.598257 345.563323 
L 389.43213 344.529324 
L 391.099875 263.070473 
L 391.933748 320.795991 
L 392.767621 317.303741 
L 393.601494 226.028539 
L 394.435367 298.145499 
L 395.26924 256.042102 
L 396.103113 335.931298 
L 396.936986 246.796917 
L 397.770859 234.117746 
L 398.604732 243.481962 
L 399.438605 271.91156 
L 400.272478 261.317504 
L 401.106351 300.78601 
L 401.940224 316.554065 
L 402.774097 321.114013 
L 404.441843 306.14079 
L 405.275716 313.120834 
L 406.109589 381.896213 
L 406.943462 381.087003 
L 407.777335 385.873579 
L 408.611208 359.676825 
L 409.445081 369.813028 
L 410.278954 364.883526 
L 411.112827 339.90393 
L 411.9467 264.174303 
L 412.780573 307.591198 
L 413.614446 287.850107 
L 414.448319 304.990429 
L 415.282192 326.872567 
L 416.116065 338.467069 
L 416.949938 333.64916 
L 417.783811 303.226868 
L 418.617684 296.412649 
L 419.451557 256.655143 
L 420.28543 318.754798 
L 421.119303 239.834326 
L 421.953176 238.699727 
L 422.787049 137.59703 
L 423.620922 217.292631 
L 424.454795 191.27596 
L 425.288667 178.666719 
L 426.12254 215.07076 
L 426.956413 170.19585 
L 427.790286 318.03148 
L 428.624159 297.32856 
L 429.458032 363.619344 
L 430.291905 322.333837 
L 431.125778 327.531256 
L 431.959651 314.683489 
L 432.793524 297.70943 
L 433.627397 245.163225 
L 434.46127 180.364664 
L 435.295143 191.919153 
L 436.129016 161.394771 
L 436.962889 267.418016 
L 437.796762 241.504995 
L 438.630635 321.753573 
L 439.464508 228.477744 
L 440.298381 275.702809 
L 441.132254 295.977766 
L 441.966127 327.419734 
L 442.8 341.605034 
L 444.467746 309.52923 
L 445.301619 297.499789 
L 446.135492 256.278272 
L 446.969365 195.960803 
L 447.803238 236.536011 
L 448.637111 187.02442 
L 449.470984 278.290014 
L 450.304857 333.926591 
L 451.13873 322.840563 
L 451.972603 305.366681 
L 452.806476 262.992601 
L 453.640349 228.335329 
L 454.474222 232.096004 
L 455.308095 217.519271 
L 456.141968 229.813001 
L 456.975841 225.812344 
L 457.809714 238.369258 
L 458.643587 241.540781 
L 459.47746 325.160166 
L 460.311333 242.090399 
L 461.145205 207.050223 
L 461.979078 198.077317 
L 462.812951 149.648192 
L 463.646824 304.743009 
L 464.480697 211.022885 
L 465.31457 219.557861 
L 466.148443 238.86178 
L 466.982316 335.005909 
L 467.816189 299.26561 
L 468.650062 365.27273 
L 469.483935 366.16038 
L 470.317808 302.705099 
L 471.985554 327.511676 
L 472.819427 350.273289 
L 473.6533 301.629448 
L 474.487173 299.62644 
L 475.321046 305.767924 
L 476.154919 327.649783 
L 476.988792 402.772603 
L 477.822665 392.587775 
L 478.656538 322.619653 
L 479.490411 332.574912 
L 480.324284 329.788874 
L 481.158157 299.824134 
L 481.99203 334.473383 
L 482.825903 335.574152 
L 483.659776 315.198611 
L 484.493649 326.708915 
L 486.161395 282.861326 
L 486.995268 287.86859 
L 487.829141 313.795967 
L 488.663014 348.806363 
L 489.496887 373.8562 
L 490.33076 370.149838 
L 491.164633 322.256965 
L 491.998506 335.775405 
L 492.832379 359.219138 
L 493.666252 356.701761 
L 494.500125 360.010156 
L 495.333998 309.105969 
L 496.16787 247.412827 
L 497.001743 317.141242 
L 497.835616 328.822544 
L 498.669489 373.61344 
L 499.503362 323.07586 
L 500.337235 328.800204 
L 501.171108 370.793273 
L 502.004981 311.511242 
L 502.838854 326.794819 
L 503.672727 314.173669 
L 504.5066 346.19301 
L 505.340473 331.11533 
L 506.174346 337.117296 
L 507.008219 351.744743 
L 507.842092 379.997292 
L 508.675965 363.376599 
L 509.509838 328.861341 
L 510.343711 328.449157 
L 511.177584 280.892718 
L 512.011457 182.963993 
L 512.84533 204.662157 
L 513.679203 368.584602 
L 514.513076 344.816597 
L 515.346949 339.975334 
L 516.180822 395.707739 
L 517.014695 400.792974 
L 517.848568 394.485551 
L 518.682441 393.103517 
L 519.516314 384.883962 
L 520.350187 383.813379 
L 521.18406 302.632383 
L 522.017933 312.864274 
L 522.851806 292.642273 
L 523.685679 347.901034 
L 524.519552 365.056964 
L 525.353425 346.857739 
L 526.187298 344.80026 
L 527.021171 376.342567 
L 527.855044 385.936683 
L 528.688917 388.499165 
L 529.52279 386.425984 
L 530.356663 385.963334 
L 531.190535 377.739553 
L 532.024408 329.20655 
L 532.858281 287.430127 
L 533.692154 306.581836 
L 534.526027 358.93903 
L 536.193773 348.729402 
L 537.027646 334.890686 
L 537.861519 373.037815 
L 538.695392 370.03878 
L 539.529265 392.601184 
L 540.363138 391.957286 
L 541.197011 369.149375 
L 542.030884 391.785348 
L 542.864757 321.276611 
L 543.69863 348.208399 
L 544.532503 353.074497 
L 545.366376 381.467705 
L 546.200249 380.561469 
L 547.034122 331.68609 
L 547.867995 336.186719 
L 548.701868 362.79944 
L 549.535741 371.48563 
L 551.203487 417.241121 
L 552.03736 412.509817 
L 552.871233 394.88073 
L 553.705106 387.875361 
L 554.538979 389.506597 
L 555.372852 396.912412 
L 556.206725 405.781983 
L 557.040598 407.083921 
L 557.874471 405.135222 
L 558.708344 402.903779 
L 559.542217 408.157414 
L 560.37609 424.498491 
L 561.209963 418.831377 
L 562.043836 435.311122 
L 562.877709 424.013987 
L 563.711582 424.493449 
L 564.545455 421.459174 
L 565.379328 429.575833 
L 566.2132 426.842191 
L 567.047073 426.415567 
L 567.880946 413.297172 
L 568.714819 395.692449 
L 569.548692 404.101926 
L 570.382565 409.454436 
L 571.216438 403.452535 
L 572.050311 388.555796 
L 572.884184 340.93489 
L 573.718057 276.640635 
L 574.55193 379.5297 
L 575.385803 386.485885 
L 576.219676 421.141122 
L 577.053549 428.829385 
L 577.887422 428.025556 
L 578.721295 430.159544 
L 579.555168 429.687921 
L 580.389041 415.660806 
L 581.222914 411.960262 
L 582.056787 395.663491 
L 582.89066 397.04761 
L 583.724533 405.586779 
L 584.558406 394.959664 
L 585.392279 381.84372 
L 586.226152 381.819463 
L 587.060025 398.880042 
L 587.893898 402.727627 
L 588.727771 412.61075 
L 589.561644 406.385514 
L 590.395517 387.539343 
L 591.22939 386.166677 
L 592.063263 385.432706 
L 592.897136 378.595642 
L 594.564882 388.168738 
L 595.398755 379.828533 
L 596.232628 384.167164 
L 597.066501 398.398689 
L 597.900374 424.574346 
L 598.734247 432.382659 
L 599.56812 428.356832 
L 600.401993 424.891322 
L 601.235866 404.252312 
L 602.069738 426.149906 
L 602.903611 433.907848 
L 603.737484 426.437733 
L 604.571357 421.250731 
L 605.40523 418.423757 
L 606.239103 427.763618 
L 607.072976 415.902678 
L 607.906849 387.441621 
L 608.740722 427.884392 
L 609.574595 437.265627 
L 610.408468 438.110638 
L 611.242341 420.0767 
L 612.076214 410.842754 
L 612.910087 383.086995 
L 613.74396 325.406542 
L 614.577833 321.729687 
L 615.411706 393.234028 
L 616.245579 307.124699 
L 617.079452 344.500021 
L 617.913325 392.2827 
L 618.747198 406.931475 
L 619.581071 407.461859 
L 620.414944 394.508604 
L 621.248817 385.958236 
L 622.08269 413.631327 
L 622.916563 352.599205 
L 623.750436 369.388453 
L 624.584309 346.57048 
L 625.418182 348.117485 
L 626.252055 372.173644 
L 627.085928 384.91597 
L 627.919801 389.076393 
L 629.587547 412.491838 
L 630.42142 406.439724 
L 631.255293 405.04658 
L 632.089166 419.523786 
L 632.923039 420.404252 
L 633.756912 405.180925 
L 634.590785 408.549553 
L 635.424658 403.061355 
L 636.258531 417.858414 
L 637.092403 413.263294 
L 637.926276 418.673915 
L 638.760149 425.017255 
L 639.594022 424.717352 
L 640.427895 428.180136 
L 641.261768 425.522417 
L 642.095641 419.180548 
L 642.929514 418.2621 
L 643.763387 409.868629 
L 644.59726 416.141504 
L 645.431133 391.249842 
L 646.265006 418.319727 
L 647.098879 434.913246 
L 647.932752 435.704417 
L 648.766625 434.113716 
L 649.600498 435.777705 
L 650.434371 420.467812 
L 651.268244 408.491878 
L 652.102117 423.376814 
L 652.93599 373.408289 
L 653.769863 386.74156 
L 654.603736 393.164533 
L 655.437609 333.609969 
L 656.271482 351.577774 
L 657.105355 406.835276 
L 657.939228 391.916916 
L 658.773101 388.07066 
L 659.606974 343.625983 
L 660.440847 345.073454 
L 661.27472 427.291748 
L 662.942466 413.52905 
L 663.776339 430.417589 
L 664.610212 431.339324 
L 665.444085 422.608111 
L 666.277958 391.494909 
L 667.111831 365.393787 
L 667.945704 335.407094 
L 670.447323 286.142453 
L 671.281196 274.053682 
L 672.115068 358.283275 
L 672.948941 392.74784 
L 673.782814 378.218726 
L 674.616687 383.154645 
L 675.45056 372.48125 
L 676.284433 391.550013 
L 677.118306 432.242893 
L 677.952179 431.511543 
L 678.786052 419.233025 
L 679.619925 304.279461 
L 680.453798 390.392015 
L 681.287671 396.607163 
L 682.121544 401.133319 
L 682.955417 354.947221 
L 683.78929 370.14866 
L 684.623163 399.193592 
L 685.457036 352.765809 
L 686.290909 321.436274 
L 687.124782 363.627073 
L 687.958655 395.471029 
L 688.792528 397.918014 
L 689.626401 337.562882 
L 690.460274 369.653198 
L 691.294147 359.022592 
L 692.12802 296.686049 
L 692.961893 317.057476 
L 693.795766 327.293975 
L 694.629639 316.38047 
L 695.463512 292.675533 
L 696.297385 302.621692 
L 697.131258 297.359813 
L 697.965131 360.759442 
L 698.799004 323.782423 
L 699.632877 346.738396 
L 700.46675 363.642074 
L 701.300623 368.394136 
L 702.134496 388.173586 
L 702.968369 403.393732 
L 703.802242 385.602918 
L 704.636115 370.437191 
L 705.469988 352.085433 
L 706.303861 323.548467 
L 707.137733 328.197851 
L 707.971606 330.314457 
L 708.805479 327.510087 
L 709.639352 267.371317 
L 710.473225 237.18915 
L 711.307098 316.839207 
L 712.140971 255.708714 
L 712.974844 337.10418 
L 713.808717 371.773281 
L 714.64259 373.591497 
L 715.476463 322.623056 
L 716.310336 300.292428 
L 717.144209 252.976764 
L 717.978082 293.695955 
L 718.811955 303.873144 
L 719.645828 262.939422 
L 720.479701 284.232913 
L 721.313574 247.291 
L 722.147447 317.144554 
L 722.98132 329.713103 
L 723.815193 323.099432 
L 724.649066 359.534715 
L 725.482939 291.998486 
L 727.150685 302.005572 
L 727.984558 333.317918 
L 728.818431 315.880373 
L 729.652304 314.512483 
L 730.486177 351.840443 
L 731.32005 247.121338 
L 732.153923 127.578291 
L 733.821669 280.293168 
L 734.655542 328.474508 
L 735.489415 332.005356 
L 736.323288 244.15256 
L 737.157161 274.842587 
L 737.991034 311.172631 
L 738.824907 390.558422 
L 739.65878 327.39262 
L 740.492653 305.460677 
L 741.326526 211.271078 
L 742.160399 184.792483 
L 742.994271 255.993 
L 743.828144 342.930429 
L 744.662017 267.673395 
L 745.49589 205.29403 
L 746.329763 287.09405 
L 747.163636 274.248654 
L 747.163636 274.248654 
" style="fill:none;stroke:#ff0000;stroke-dasharray:5.55,2.4;stroke-dashoffset:0;stroke-width:1.5;"/>
   </g>
   <g id="patch_3">
    <path d="M 108 460.8 
L 108 69.12 
" style="fill:none;stroke:#000000;stroke-linecap:square;stroke-linejoin:miter;stroke-width:0.8;"/>
   </g>
   <g id="patch_4">
    <path d="M 777.6 460.8 
L 777.6 69.12 
" style="fill:none;stroke:#000000;stroke-linecap:square;stroke-linejoin:miter;stroke-width:0.8;"/>
   </g>
   <g id="patch_5">
    <path d="M 108 460.8 
L 777.6 460.8 
" style="fill:none;stroke:#000000;stroke-linecap:square;stroke-linejoin:miter;stroke-width:0.8;"/>
   </g>
   <g id="patch_6">
    <path d="M 108 69.12 
L 777.6 69.12 
" style="fill:none;stroke:#000000;stroke-linecap:square;stroke-linejoin:miter;stroke-width:0.8;"/>
   </g>
   <g id="text_20">
    <!-- Macau roadside 2020-2021 | Forecast vs Monitored | Random forest -->
    <g transform="translate(188.201953 63.12)scale(0.15 -0.15)">
     <defs>
      <path d="M 8.5 21.578125 
L 8.5 54.6875 
L 17.484375 54.6875 
L 17.484375 21.921875 
Q 17.484375 14.15625 20.5 10.265625 
Q 23.53125 6.390625 29.59375 6.390625 
Q 36.859375 6.390625 41.078125 11.03125 
Q 45.3125 15.671875 45.3125 23.6875 
L 45.3125 54.6875 
L 54.296875 54.6875 
L 54.296875 0 
L 45.3125 0 
L 45.3125 8.40625 
Q 42.046875 3.421875 37.71875 1 
Q 33.40625 -1.421875 27.6875 -1.421875 
Q 18.265625 -1.421875 13.375 4.4375 
Q 8.5 10.296875 8.5 21.578125 
z
M 31.109375 56 
z
" id="DejaVuSans-117"/>
      <path id="DejaVuSans-32"/>
      <path d="M 45.40625 46.390625 
L 45.40625 75.984375 
L 54.390625 75.984375 
L 54.390625 0 
L 45.40625 0 
L 45.40625 8.203125 
Q 42.578125 3.328125 38.25 0.953125 
Q 33.9375 -1.421875 27.875 -1.421875 
Q 17.96875 -1.421875 11.734375 6.484375 
Q 5.515625 14.40625 5.515625 27.296875 
Q 5.515625 40.1875 11.734375 48.09375 
Q 17.96875 56 27.875 56 
Q 33.9375 56 38.25 53.625 
Q 42.578125 51.265625 45.40625 46.390625 
z
M 14.796875 27.296875 
Q 14.796875 17.390625 18.875 11.75 
Q 22.953125 6.109375 30.078125 6.109375 
Q 37.203125 6.109375 41.296875 11.75 
Q 45.40625 17.390625 45.40625 27.296875 
Q 45.40625 37.203125 41.296875 42.84375 
Q 37.203125 48.484375 30.078125 48.484375 
Q 22.953125 48.484375 18.875 42.84375 
Q 14.796875 37.203125 14.796875 27.296875 
z
" id="DejaVuSans-100"/>
      <path d="M 44.28125 53.078125 
L 44.28125 44.578125 
Q 40.484375 46.53125 36.375 47.5 
Q 32.28125 48.484375 27.875 48.484375 
Q 21.1875 48.484375 17.84375 46.4375 
Q 14.5 44.390625 14.5 40.28125 
Q 14.5 37.15625 16.890625 35.375 
Q 19.28125 33.59375 26.515625 31.984375 
L 29.59375 31.296875 
Q 39.15625 29.25 43.1875 25.515625 
Q 47.21875 21.78125 47.21875 15.09375 
Q 47.21875 7.46875 41.1875 3.015625 
Q 35.15625 -1.421875 24.609375 -1.421875 
Q 20.21875 -1.421875 15.453125 -0.5625 
Q 10.6875 0.296875 5.421875 2 
L 5.421875 11.28125 
Q 10.40625 8.6875 15.234375 7.390625 
Q 20.0625 6.109375 24.8125 6.109375 
Q 31.15625 6.109375 34.5625 8.28125 
Q 37.984375 10.453125 37.984375 14.40625 
Q 37.984375 18.0625 35.515625 20.015625 
Q 33.0625 21.96875 24.703125 23.78125 
L 21.578125 24.515625 
Q 13.234375 26.265625 9.515625 29.90625 
Q 5.8125 33.546875 5.8125 39.890625 
Q 5.8125 47.609375 11.28125 51.796875 
Q 16.75 56 26.8125 56 
Q 31.78125 56 36.171875 55.265625 
Q 40.578125 54.546875 44.28125 53.078125 
z
" id="DejaVuSans-115"/>
      <path d="M 21 76.421875 
L 21 -23.578125 
L 12.703125 -23.578125 
L 12.703125 76.421875 
z
" id="DejaVuSans-124"/>
      <path d="M 9.8125 72.90625 
L 51.703125 72.90625 
L 51.703125 64.59375 
L 19.671875 64.59375 
L 19.671875 43.109375 
L 48.578125 43.109375 
L 48.578125 34.8125 
L 19.671875 34.8125 
L 19.671875 0 
L 9.8125 0 
z
" id="DejaVuSans-70"/>
      <path d="M 2.984375 54.6875 
L 12.5 54.6875 
L 29.59375 8.796875 
L 46.6875 54.6875 
L 56.203125 54.6875 
L 35.6875 0 
L 23.484375 0 
z
" id="DejaVuSans-118"/>
      <path d="M 54.890625 33.015625 
L 54.890625 0 
L 45.90625 0 
L 45.90625 32.71875 
Q 45.90625 40.484375 42.875 44.328125 
Q 39.84375 48.1875 33.796875 48.1875 
Q 26.515625 48.1875 22.3125 43.546875 
Q 18.109375 38.921875 18.109375 30.90625 
L 18.109375 0 
L 9.078125 0 
L 9.078125 54.6875 
L 18.109375 54.6875 
L 18.109375 46.1875 
Q 21.34375 51.125 25.703125 53.5625 
Q 30.078125 56 35.796875 56 
Q 45.21875 56 50.046875 50.171875 
Q 54.890625 44.34375 54.890625 33.015625 
z
" id="DejaVuSans-110"/>
      <path d="M 44.390625 34.1875 
Q 47.5625 33.109375 50.5625 29.59375 
Q 53.5625 26.078125 56.59375 19.921875 
L 66.609375 0 
L 56 0 
L 46.6875 18.703125 
Q 43.0625 26.03125 39.671875 28.421875 
Q 36.28125 30.8125 30.421875 30.8125 
L 19.671875 30.8125 
L 19.671875 0 
L 9.8125 0 
L 9.8125 72.90625 
L 32.078125 72.90625 
Q 44.578125 72.90625 50.734375 67.671875 
Q 56.890625 62.453125 56.890625 51.90625 
Q 56.890625 45.015625 53.6875 40.46875 
Q 50.484375 35.9375 44.390625 34.1875 
z
M 19.671875 64.796875 
L 19.671875 38.921875 
L 32.078125 38.921875 
Q 39.203125 38.921875 42.84375 42.21875 
Q 46.484375 45.515625 46.484375 51.90625 
Q 46.484375 58.296875 42.84375 61.546875 
Q 39.203125 64.796875 32.078125 64.796875 
z
" id="DejaVuSans-82"/>
      <path d="M 37.109375 75.984375 
L 37.109375 68.5 
L 28.515625 68.5 
Q 23.6875 68.5 21.796875 66.546875 
Q 19.921875 64.59375 19.921875 59.515625 
L 19.921875 54.6875 
L 34.71875 54.6875 
L 34.71875 47.703125 
L 19.921875 47.703125 
L 19.921875 0 
L 10.890625 0 
L 10.890625 47.703125 
L 2.296875 47.703125 
L 2.296875 54.6875 
L 10.890625 54.6875 
L 10.890625 58.5 
Q 10.890625 67.625 15.140625 71.796875 
Q 19.390625 75.984375 28.609375 75.984375 
z
" id="DejaVuSans-102"/>
     </defs>
     <use xlink:href="#DejaVuSans-77"/>
     <use x="86.279297" xlink:href="#DejaVuSans-97"/>
     <use x="147.558594" xlink:href="#DejaVuSans-99"/>
     <use x="202.539062" xlink:href="#DejaVuSans-97"/>
     <use x="263.818359" xlink:href="#DejaVuSans-117"/>
     <use x="327.197266" xlink:href="#DejaVuSans-32"/>
     <use x="358.984375" xlink:href="#DejaVuSans-114"/>
     <use x="397.847656" xlink:href="#DejaVuSans-111"/>
     <use x="459.029297" xlink:href="#DejaVuSans-97"/>
     <use x="520.308594" xlink:href="#DejaVuSans-100"/>
     <use x="583.785156" xlink:href="#DejaVuSans-115"/>
     <use x="635.884766" xlink:href="#DejaVuSans-105"/>
     <use x="663.667969" xlink:href="#DejaVuSans-100"/>
     <use x="727.144531" xlink:href="#DejaVuSans-101"/>
     <use x="788.667969" xlink:href="#DejaVuSans-32"/>
     <use x="820.455078" xlink:href="#DejaVuSans-50"/>
     <use x="884.078125" xlink:href="#DejaVuSans-48"/>
     <use x="947.701172" xlink:href="#DejaVuSans-50"/>
     <use x="1011.324219" xlink:href="#DejaVuSans-48"/>
     <use x="1074.947266" xlink:href="#DejaVuSans-45"/>
     <use x="1111.03125" xlink:href="#DejaVuSans-50"/>
     <use x="1174.654297" xlink:href="#DejaVuSans-48"/>
     <use x="1238.277344" xlink:href="#DejaVuSans-50"/>
     <use x="1301.900391" xlink:href="#DejaVuSans-49"/>
     <use x="1365.523438" xlink:href="#DejaVuSans-32"/>
     <use x="1397.310547" xlink:href="#DejaVuSans-124"/>
     <use x="1431.001953" xlink:href="#DejaVuSans-32"/>
     <use x="1462.789062" xlink:href="#DejaVuSans-70"/>
     <use x="1516.683594" xlink:href="#DejaVuSans-111"/>
     <use x="1577.865234" xlink:href="#DejaVuSans-114"/>
     <use x="1616.728516" xlink:href="#DejaVuSans-101"/>
     <use x="1678.251953" xlink:href="#DejaVuSans-99"/>
     <use x="1733.232422" xlink:href="#DejaVuSans-97"/>
     <use x="1794.511719" xlink:href="#DejaVuSans-115"/>
     <use x="1846.611328" xlink:href="#DejaVuSans-116"/>
     <use x="1885.820312" xlink:href="#DejaVuSans-32"/>
     <use x="1917.607422" xlink:href="#DejaVuSans-118"/>
     <use x="1976.787109" xlink:href="#DejaVuSans-115"/>
     <use x="2028.886719" xlink:href="#DejaVuSans-32"/>
     <use x="2060.673828" xlink:href="#DejaVuSans-77"/>
     <use x="2146.953125" xlink:href="#DejaVuSans-111"/>
     <use x="2208.134766" xlink:href="#DejaVuSans-110"/>
     <use x="2271.513672" xlink:href="#DejaVuSans-105"/>
     <use x="2299.296875" xlink:href="#DejaVuSans-116"/>
     <use x="2338.505859" xlink:href="#DejaVuSans-111"/>
     <use x="2399.6875" xlink:href="#DejaVuSans-114"/>
     <use x="2438.550781" xlink:href="#DejaVuSans-101"/>
     <use x="2500.074219" xlink:href="#DejaVuSans-100"/>
     <use x="2563.550781" xlink:href="#DejaVuSans-32"/>
     <use x="2595.337891" xlink:href="#DejaVuSans-124"/>
     <use x="2629.029297" xlink:href="#DejaVuSans-32"/>
     <use x="2660.816406" xlink:href="#DejaVuSans-82"/>
     <use x="2728.048828" xlink:href="#DejaVuSans-97"/>
     <use x="2789.328125" xlink:href="#DejaVuSans-110"/>
     <use x="2852.707031" xlink:href="#DejaVuSans-100"/>
     <use x="2916.183594" xlink:href="#DejaVuSans-111"/>
     <use x="2977.365234" xlink:href="#DejaVuSans-109"/>
     <use x="3074.777344" xlink:href="#DejaVuSans-32"/>
     <use x="3106.564453" xlink:href="#DejaVuSans-102"/>
     <use x="3141.769531" xlink:href="#DejaVuSans-111"/>
     <use x="3202.951172" xlink:href="#DejaVuSans-114"/>
     <use x="3241.814453" xlink:href="#DejaVuSans-101"/>
     <use x="3303.337891" xlink:href="#DejaVuSans-115"/>
     <use x="3355.4375" xlink:href="#DejaVuSans-116"/>
    </g>
   </g>
   <g id="legend_1">
    <g id="patch_7">
     <path d="M 357.681562 114.615 
L 527.918437 114.615 
Q 530.318437 114.615 530.318437 112.215 
L 530.318437 77.52 
Q 530.318437 75.12 527.918437 75.12 
L 357.681562 75.12 
Q 355.281563 75.12 355.281563 77.52 
L 355.281563 112.215 
Q 355.281563 114.615 357.681562 114.615 
z
" style="fill:#ffffff;opacity:0.8;stroke:#cccccc;stroke-linejoin:miter;"/>
    </g>
    <g id="line2d_20">
     <path d="M 360.081563 84.838125 
L 384.081563 84.838125 
" style="fill:none;stroke:#1f77b4;stroke-linecap:square;stroke-width:1.5;"/>
    </g>
    <g id="line2d_21"/>
    <g id="text_21">
     <!-- measured_data_PM25 -->
     <g transform="translate(393.681563 89.038125)scale(0.12 -0.12)">
      <defs>
       <path d="M 50.984375 -16.609375 
L 50.984375 -23.578125 
L -0.984375 -23.578125 
L -0.984375 -16.609375 
z
" id="DejaVuSans-95"/>
      </defs>
      <use xlink:href="#DejaVuSans-109"/>
      <use x="97.412109" xlink:href="#DejaVuSans-101"/>
      <use x="158.935547" xlink:href="#DejaVuSans-97"/>
      <use x="220.214844" xlink:href="#DejaVuSans-115"/>
      <use x="272.314453" xlink:href="#DejaVuSans-117"/>
      <use x="335.693359" xlink:href="#DejaVuSans-114"/>
      <use x="374.556641" xlink:href="#DejaVuSans-101"/>
      <use x="436.080078" xlink:href="#DejaVuSans-100"/>
      <use x="499.556641" xlink:href="#DejaVuSans-95"/>
      <use x="549.556641" xlink:href="#DejaVuSans-100"/>
      <use x="613.033203" xlink:href="#DejaVuSans-97"/>
      <use x="674.3125" xlink:href="#DejaVuSans-116"/>
      <use x="713.521484" xlink:href="#DejaVuSans-97"/>
      <use x="774.800781" xlink:href="#DejaVuSans-95"/>
      <use x="824.800781" xlink:href="#DejaVuSans-80"/>
      <use x="885.103516" xlink:href="#DejaVuSans-77"/>
      <use x="971.382812" xlink:href="#DejaVuSans-50"/>
      <use x="1035.005859" xlink:href="#DejaVuSans-53"/>
     </g>
    </g>
    <g id="line2d_22">
     <path d="M 360.081563 102.785625 
L 384.081563 102.785625 
" style="fill:none;stroke:#ff0000;stroke-dasharray:5.55,2.4;stroke-dashoffset:0;stroke-width:1.5;"/>
    </g>
    <g id="line2d_23"/>
    <g id="text_22">
     <!-- predicted_data_PM25 -->
     <g transform="translate(393.681563 106.985625)scale(0.12 -0.12)">
      <defs>
       <path d="M 18.109375 8.203125 
L 18.109375 -20.796875 
L 9.078125 -20.796875 
L 9.078125 54.6875 
L 18.109375 54.6875 
L 18.109375 46.390625 
Q 20.953125 51.265625 25.265625 53.625 
Q 29.59375 56 35.59375 56 
Q 45.5625 56 51.78125 48.09375 
Q 58.015625 40.1875 58.015625 27.296875 
Q 58.015625 14.40625 51.78125 6.484375 
Q 45.5625 -1.421875 35.59375 -1.421875 
Q 29.59375 -1.421875 25.265625 0.953125 
Q 20.953125 3.328125 18.109375 8.203125 
z
M 48.6875 27.296875 
Q 48.6875 37.203125 44.609375 42.84375 
Q 40.53125 48.484375 33.40625 48.484375 
Q 26.265625 48.484375 22.1875 42.84375 
Q 18.109375 37.203125 18.109375 27.296875 
Q 18.109375 17.390625 22.1875 11.75 
Q 26.265625 6.109375 33.40625 6.109375 
Q 40.53125 6.109375 44.609375 11.75 
Q 48.6875 17.390625 48.6875 27.296875 
z
" id="DejaVuSans-112"/>
      </defs>
      <use xlink:href="#DejaVuSans-112"/>
      <use x="63.476562" xlink:href="#DejaVuSans-114"/>
      <use x="102.339844" xlink:href="#DejaVuSans-101"/>
      <use x="163.863281" xlink:href="#DejaVuSans-100"/>
      <use x="227.339844" xlink:href="#DejaVuSans-105"/>
      <use x="255.123047" xlink:href="#DejaVuSans-99"/>
      <use x="310.103516" xlink:href="#DejaVuSans-116"/>
      <use x="349.3125" xlink:href="#DejaVuSans-101"/>
      <use x="410.835938" xlink:href="#DejaVuSans-100"/>
      <use x="474.3125" xlink:href="#DejaVuSans-95"/>
      <use x="524.3125" xlink:href="#DejaVuSans-100"/>
      <use x="587.789062" xlink:href="#DejaVuSans-97"/>
      <use x="649.068359" xlink:href="#DejaVuSans-116"/>
      <use x="688.277344" xlink:href="#DejaVuSans-97"/>
      <use x="749.556641" xlink:href="#DejaVuSans-95"/>
      <use x="799.556641" xlink:href="#DejaVuSans-80"/>
      <use x="859.859375" xlink:href="#DejaVuSans-77"/>
      <use x="946.138672" xlink:href="#DejaVuSans-50"/>
      <use x="1009.761719" xlink:href="#DejaVuSans-53"/>
     </g>
    </g>
   </g>
  </g>
 </g>
 <defs>
  <clipPath id="pce7fa954f1">
   <rect height="391.68" width="669.6" x="108" y="69.12"/>
  </clipPath>
 </defs>
</svg>
