<?xml version="1.0" encoding="utf-8" standalone="no"?>
<!DOCTYPE svg PUBLIC "-//W3C//DTD SVG 1.1//EN"
  "http://www.w3.org/Graphics/SVG/1.1/DTD/svg11.dtd">
<!-- Created with matplotlib (https://matplotlib.org/) -->
<svg height="576pt" version="1.1" viewBox="0 0 864 576" width="864pt" xmlns="http://www.w3.org/2000/svg" xmlns:xlink="http://www.w3.org/1999/xlink">
 <metadata>
  <rdf:RDF xmlns:cc="http://creativecommons.org/ns#" xmlns:dc="http://purl.org/dc/elements/1.1/" xmlns:rdf="http://www.w3.org/1999/02/22-rdf-syntax-ns#">
   <cc:Work>
    <dc:type rdf:resource="http://purl.org/dc/dcmitype/StillImage"/>
    <dc:date>2024-03-08T17:46:26.293537</dc:date>
    <dc:format>image/svg+xml</dc:format>
    <dc:creator>
     <cc:Agent>
      <dc:title>Matplotlib v3.3.4, https://matplotlib.org/</dc:title>
     </cc:Agent>
    </dc:creator>
   </cc:Work>
  </rdf:RDF>
 </metadata>
 <defs>
  <style type="text/css">*{stroke-linecap:butt;stroke-linejoin:round;}</style>
 </defs>
 <g id="figure_1">
  <g id="patch_1">
   <path d="M 0 576 
L 864 576 
L 864 0 
L 0 0 
z
" style="fill:#ffffff;"/>
  </g>
  <g id="axes_1">
   <g id="patch_2">
    <path d="M 108 460.8 
L 777.6 460.8 
L 777.6 69.12 
L 108 69.12 
z
" style="fill:#ffffff;"/>
   </g>
   <g id="matplotlib.axis_1">
    <g id="xtick_1">
     <g id="line2d_1">
      <defs>
       <path d="M 0 0 
L 0 3.5 
" id="m9862082b85" style="stroke:#000000;stroke-width:0.8;"/>
      </defs>
      <g>
       <use style="stroke:#000000;stroke-width:0.8;" x="136.761736" xlink:href="#m9862082b85" y="460.8"/>
      </g>
     </g>
     <g id="text_1">
      <!-- 2020-01 -->
      <g transform="translate(92.091951 500.766215)rotate(-30)scale(0.12 -0.12)">
       <defs>
        <path d="M 19.1875 8.296875 
L 53.609375 8.296875 
L 53.609375 0 
L 7.328125 0 
L 7.328125 8.296875 
Q 12.9375 14.109375 22.625 23.890625 
Q 32.328125 33.6875 34.8125 36.53125 
Q 39.546875 41.84375 41.421875 45.53125 
Q 43.3125 49.21875 43.3125 52.78125 
Q 43.3125 58.59375 39.234375 62.25 
Q 35.15625 65.921875 28.609375 65.921875 
Q 23.96875 65.921875 18.8125 64.3125 
Q 13.671875 62.703125 7.8125 59.421875 
L 7.8125 69.390625 
Q 13.765625 71.78125 18.9375 73 
Q 24.125 74.21875 28.421875 74.21875 
Q 39.75 74.21875 46.484375 68.546875 
Q 53.21875 62.890625 53.21875 53.421875 
Q 53.21875 48.921875 51.53125 44.890625 
Q 49.859375 40.875 45.40625 35.40625 
Q 44.1875 33.984375 37.640625 27.21875 
Q 31.109375 20.453125 19.1875 8.296875 
z
" id="DejaVuSans-50"/>
        <path d="M 31.78125 66.40625 
Q 24.171875 66.40625 20.328125 58.90625 
Q 16.5 51.421875 16.5 36.375 
Q 16.5 21.390625 20.328125 13.890625 
Q 24.171875 6.390625 31.78125 6.390625 
Q 39.453125 6.390625 43.28125 13.890625 
Q 47.125 21.390625 47.125 36.375 
Q 47.125 51.421875 43.28125 58.90625 
Q 39.453125 66.40625 31.78125 66.40625 
z
M 31.78125 74.21875 
Q 44.046875 74.21875 50.515625 64.515625 
Q 56.984375 54.828125 56.984375 36.375 
Q 56.984375 17.96875 50.515625 8.265625 
Q 44.046875 -1.421875 31.78125 -1.421875 
Q 19.53125 -1.421875 13.0625 8.265625 
Q 6.59375 17.96875 6.59375 36.375 
Q 6.59375 54.828125 13.0625 64.515625 
Q 19.53125 74.21875 31.78125 74.21875 
z
" id="DejaVuSans-48"/>
        <path d="M 4.890625 31.390625 
L 31.203125 31.390625 
L 31.203125 23.390625 
L 4.890625 23.390625 
z
" id="DejaVuSans-45"/>
        <path d="M 12.40625 8.296875 
L 28.515625 8.296875 
L 28.515625 63.921875 
L 10.984375 60.40625 
L 10.984375 69.390625 
L 28.421875 72.90625 
L 38.28125 72.90625 
L 38.28125 8.296875 
L 54.390625 8.296875 
L 54.390625 0 
L 12.40625 0 
z
" id="DejaVuSans-49"/>
       </defs>
       <use xlink:href="#DejaVuSans-50"/>
       <use x="63.623047" xlink:href="#DejaVuSans-48"/>
       <use x="127.246094" xlink:href="#DejaVuSans-50"/>
       <use x="190.869141" xlink:href="#DejaVuSans-48"/>
       <use x="254.492188" xlink:href="#DejaVuSans-45"/>
       <use x="290.576172" xlink:href="#DejaVuSans-48"/>
       <use x="354.199219" xlink:href="#DejaVuSans-49"/>
      </g>
     </g>
    </g>
    <g id="xtick_2">
     <g id="line2d_2">
      <g>
       <use style="stroke:#000000;stroke-width:0.8;" x="212.957309" xlink:href="#m9862082b85" y="460.8"/>
      </g>
     </g>
     <g id="text_2">
      <!-- 2020-04 -->
      <g transform="translate(168.287524 500.766215)rotate(-30)scale(0.12 -0.12)">
       <defs>
        <path d="M 37.796875 64.3125 
L 12.890625 25.390625 
L 37.796875 25.390625 
z
M 35.203125 72.90625 
L 47.609375 72.90625 
L 47.609375 25.390625 
L 58.015625 25.390625 
L 58.015625 17.1875 
L 47.609375 17.1875 
L 47.609375 0 
L 37.796875 0 
L 37.796875 17.1875 
L 4.890625 17.1875 
L 4.890625 26.703125 
z
" id="DejaVuSans-52"/>
       </defs>
       <use xlink:href="#DejaVuSans-50"/>
       <use x="63.623047" xlink:href="#DejaVuSans-48"/>
       <use x="127.246094" xlink:href="#DejaVuSans-50"/>
       <use x="190.869141" xlink:href="#DejaVuSans-48"/>
       <use x="254.492188" xlink:href="#DejaVuSans-45"/>
       <use x="290.576172" xlink:href="#DejaVuSans-48"/>
       <use x="354.199219" xlink:href="#DejaVuSans-52"/>
      </g>
     </g>
    </g>
    <g id="xtick_3">
     <g id="line2d_3">
      <g>
       <use style="stroke:#000000;stroke-width:0.8;" x="289.152882" xlink:href="#m9862082b85" y="460.8"/>
      </g>
     </g>
     <g id="text_3">
      <!-- 2020-07 -->
      <g transform="translate(244.483097 500.766215)rotate(-30)scale(0.12 -0.12)">
       <defs>
        <path d="M 8.203125 72.90625 
L 55.078125 72.90625 
L 55.078125 68.703125 
L 28.609375 0 
L 18.3125 0 
L 43.21875 64.59375 
L 8.203125 64.59375 
z
" id="DejaVuSans-55"/>
       </defs>
       <use xlink:href="#DejaVuSans-50"/>
       <use x="63.623047" xlink:href="#DejaVuSans-48"/>
       <use x="127.246094" xlink:href="#DejaVuSans-50"/>
       <use x="190.869141" xlink:href="#DejaVuSans-48"/>
       <use x="254.492188" xlink:href="#DejaVuSans-45"/>
       <use x="290.576172" xlink:href="#DejaVuSans-48"/>
       <use x="354.199219" xlink:href="#DejaVuSans-55"/>
      </g>
     </g>
    </g>
    <g id="xtick_4">
     <g id="line2d_4">
      <g>
       <use style="stroke:#000000;stroke-width:0.8;" x="366.18577" xlink:href="#m9862082b85" y="460.8"/>
      </g>
     </g>
     <g id="text_4">
      <!-- 2020-10 -->
      <g transform="translate(321.515985 500.766215)rotate(-30)scale(0.12 -0.12)">
       <use xlink:href="#DejaVuSans-50"/>
       <use x="63.623047" xlink:href="#DejaVuSans-48"/>
       <use x="127.246094" xlink:href="#DejaVuSans-50"/>
       <use x="190.869141" xlink:href="#DejaVuSans-48"/>
       <use x="254.492188" xlink:href="#DejaVuSans-45"/>
       <use x="290.576172" xlink:href="#DejaVuSans-49"/>
       <use x="354.199219" xlink:href="#DejaVuSans-48"/>
      </g>
     </g>
    </g>
    <g id="xtick_5">
     <g id="line2d_5">
      <g>
       <use style="stroke:#000000;stroke-width:0.8;" x="443.218657" xlink:href="#m9862082b85" y="460.8"/>
      </g>
     </g>
     <g id="text_5">
      <!-- 2021-01 -->
      <g transform="translate(398.548872 500.766215)rotate(-30)scale(0.12 -0.12)">
       <use xlink:href="#DejaVuSans-50"/>
       <use x="63.623047" xlink:href="#DejaVuSans-48"/>
       <use x="127.246094" xlink:href="#DejaVuSans-50"/>
       <use x="190.869141" xlink:href="#DejaVuSans-49"/>
       <use x="254.492188" xlink:href="#DejaVuSans-45"/>
       <use x="290.576172" xlink:href="#DejaVuSans-48"/>
       <use x="354.199219" xlink:href="#DejaVuSans-49"/>
      </g>
     </g>
    </g>
    <g id="xtick_6">
     <g id="line2d_6">
      <g>
       <use style="stroke:#000000;stroke-width:0.8;" x="518.576916" xlink:href="#m9862082b85" y="460.8"/>
      </g>
     </g>
     <g id="text_6">
      <!-- 2021-04 -->
      <g transform="translate(473.907131 500.766215)rotate(-30)scale(0.12 -0.12)">
       <use xlink:href="#DejaVuSans-50"/>
       <use x="63.623047" xlink:href="#DejaVuSans-48"/>
       <use x="127.246094" xlink:href="#DejaVuSans-50"/>
       <use x="190.869141" xlink:href="#DejaVuSans-49"/>
       <use x="254.492188" xlink:href="#DejaVuSans-45"/>
       <use x="290.576172" xlink:href="#DejaVuSans-48"/>
       <use x="354.199219" xlink:href="#DejaVuSans-52"/>
      </g>
     </g>
    </g>
    <g id="xtick_7">
     <g id="line2d_7">
      <g>
       <use style="stroke:#000000;stroke-width:0.8;" x="594.77249" xlink:href="#m9862082b85" y="460.8"/>
      </g>
     </g>
     <g id="text_7">
      <!-- 2021-07 -->
      <g transform="translate(550.102705 500.766215)rotate(-30)scale(0.12 -0.12)">
       <use xlink:href="#DejaVuSans-50"/>
       <use x="63.623047" xlink:href="#DejaVuSans-48"/>
       <use x="127.246094" xlink:href="#DejaVuSans-50"/>
       <use x="190.869141" xlink:href="#DejaVuSans-49"/>
       <use x="254.492188" xlink:href="#DejaVuSans-45"/>
       <use x="290.576172" xlink:href="#DejaVuSans-48"/>
       <use x="354.199219" xlink:href="#DejaVuSans-55"/>
      </g>
     </g>
    </g>
    <g id="xtick_8">
     <g id="line2d_8">
      <g>
       <use style="stroke:#000000;stroke-width:0.8;" x="671.805377" xlink:href="#m9862082b85" y="460.8"/>
      </g>
     </g>
     <g id="text_8">
      <!-- 2021-10 -->
      <g transform="translate(627.135592 500.766215)rotate(-30)scale(0.12 -0.12)">
       <use xlink:href="#DejaVuSans-50"/>
       <use x="63.623047" xlink:href="#DejaVuSans-48"/>
       <use x="127.246094" xlink:href="#DejaVuSans-50"/>
       <use x="190.869141" xlink:href="#DejaVuSans-49"/>
       <use x="254.492188" xlink:href="#DejaVuSans-45"/>
       <use x="290.576172" xlink:href="#DejaVuSans-49"/>
       <use x="354.199219" xlink:href="#DejaVuSans-48"/>
      </g>
     </g>
    </g>
    <g id="xtick_9">
     <g id="line2d_9">
      <g>
       <use style="stroke:#000000;stroke-width:0.8;" x="748.838264" xlink:href="#m9862082b85" y="460.8"/>
      </g>
     </g>
     <g id="text_9">
      <!-- 2022-01 -->
      <g transform="translate(704.168479 500.766215)rotate(-30)scale(0.12 -0.12)">
       <use xlink:href="#DejaVuSans-50"/>
       <use x="63.623047" xlink:href="#DejaVuSans-48"/>
       <use x="127.246094" xlink:href="#DejaVuSans-50"/>
       <use x="190.869141" xlink:href="#DejaVuSans-50"/>
       <use x="254.492188" xlink:href="#DejaVuSans-45"/>
       <use x="290.576172" xlink:href="#DejaVuSans-48"/>
       <use x="354.199219" xlink:href="#DejaVuSans-49"/>
      </g>
     </g>
    </g>
    <g id="text_10">
     <!-- Date -->
     <g transform="translate(424.873828 518.325146)scale(0.15 -0.15)">
      <defs>
       <path d="M 19.671875 64.796875 
L 19.671875 8.109375 
L 31.59375 8.109375 
Q 46.6875 8.109375 53.6875 14.9375 
Q 60.6875 21.78125 60.6875 36.53125 
Q 60.6875 51.171875 53.6875 57.984375 
Q 46.6875 64.796875 31.59375 64.796875 
z
M 9.8125 72.90625 
L 30.078125 72.90625 
Q 51.265625 72.90625 61.171875 64.09375 
Q 71.09375 55.28125 71.09375 36.53125 
Q 71.09375 17.671875 61.125 8.828125 
Q 51.171875 0 30.078125 0 
L 9.8125 0 
z
" id="DejaVuSans-68"/>
       <path d="M 34.28125 27.484375 
Q 23.390625 27.484375 19.1875 25 
Q 14.984375 22.515625 14.984375 16.5 
Q 14.984375 11.71875 18.140625 8.90625 
Q 21.296875 6.109375 26.703125 6.109375 
Q 34.1875 6.109375 38.703125 11.40625 
Q 43.21875 16.703125 43.21875 25.484375 
L 43.21875 27.484375 
z
M 52.203125 31.203125 
L 52.203125 0 
L 43.21875 0 
L 43.21875 8.296875 
Q 40.140625 3.328125 35.546875 0.953125 
Q 30.953125 -1.421875 24.3125 -1.421875 
Q 15.921875 -1.421875 10.953125 3.296875 
Q 6 8.015625 6 15.921875 
Q 6 25.140625 12.171875 29.828125 
Q 18.359375 34.515625 30.609375 34.515625 
L 43.21875 34.515625 
L 43.21875 35.40625 
Q 43.21875 41.609375 39.140625 45 
Q 35.0625 48.390625 27.6875 48.390625 
Q 23 48.390625 18.546875 47.265625 
Q 14.109375 46.140625 10.015625 43.890625 
L 10.015625 52.203125 
Q 14.9375 54.109375 19.578125 55.046875 
Q 24.21875 56 28.609375 56 
Q 40.484375 56 46.34375 49.84375 
Q 52.203125 43.703125 52.203125 31.203125 
z
" id="DejaVuSans-97"/>
       <path d="M 18.3125 70.21875 
L 18.3125 54.6875 
L 36.8125 54.6875 
L 36.8125 47.703125 
L 18.3125 47.703125 
L 18.3125 18.015625 
Q 18.3125 11.328125 20.140625 9.421875 
Q 21.96875 7.515625 27.59375 7.515625 
L 36.8125 7.515625 
L 36.8125 0 
L 27.59375 0 
Q 17.1875 0 13.234375 3.875 
Q 9.28125 7.765625 9.28125 18.015625 
L 9.28125 47.703125 
L 2.6875 47.703125 
L 2.6875 54.6875 
L 9.28125 54.6875 
L 9.28125 70.21875 
z
" id="DejaVuSans-116"/>
       <path d="M 56.203125 29.59375 
L 56.203125 25.203125 
L 14.890625 25.203125 
Q 15.484375 15.921875 20.484375 11.0625 
Q 25.484375 6.203125 34.421875 6.203125 
Q 39.59375 6.203125 44.453125 7.46875 
Q 49.3125 8.734375 54.109375 11.28125 
L 54.109375 2.78125 
Q 49.265625 0.734375 44.1875 -0.34375 
Q 39.109375 -1.421875 33.890625 -1.421875 
Q 20.796875 -1.421875 13.15625 6.1875 
Q 5.515625 13.8125 5.515625 26.8125 
Q 5.515625 40.234375 12.765625 48.109375 
Q 20.015625 56 32.328125 56 
Q 43.359375 56 49.78125 48.890625 
Q 56.203125 41.796875 56.203125 29.59375 
z
M 47.21875 32.234375 
Q 47.125 39.59375 43.09375 43.984375 
Q 39.0625 48.390625 32.421875 48.390625 
Q 24.90625 48.390625 20.390625 44.140625 
Q 15.875 39.890625 15.1875 32.171875 
z
" id="DejaVuSans-101"/>
      </defs>
      <use xlink:href="#DejaVuSans-68"/>
      <use x="77.001953" xlink:href="#DejaVuSans-97"/>
      <use x="138.28125" xlink:href="#DejaVuSans-116"/>
      <use x="177.490234" xlink:href="#DejaVuSans-101"/>
     </g>
    </g>
   </g>
   <g id="matplotlib.axis_2">
    <g id="ytick_1">
     <g id="line2d_10">
      <defs>
       <path d="M 0 0 
L -3.5 0 
" id="mdf9a970a57" style="stroke:#000000;stroke-width:0.8;"/>
      </defs>
      <g>
       <use style="stroke:#000000;stroke-width:0.8;" x="108" xlink:href="#mdf9a970a57" y="451.246829"/>
      </g>
     </g>
     <g id="text_11">
      <!-- 0 -->
      <g transform="translate(93.365 455.805892)scale(0.12 -0.12)">
       <use xlink:href="#DejaVuSans-48"/>
      </g>
     </g>
    </g>
    <g id="ytick_2">
     <g id="line2d_11">
      <g>
       <use style="stroke:#000000;stroke-width:0.8;" x="108" xlink:href="#mdf9a970a57" y="399.138625"/>
      </g>
     </g>
     <g id="text_12">
      <!-- 10 -->
      <g transform="translate(85.73 403.697688)scale(0.12 -0.12)">
       <use xlink:href="#DejaVuSans-49"/>
       <use x="63.623047" xlink:href="#DejaVuSans-48"/>
      </g>
     </g>
    </g>
    <g id="ytick_3">
     <g id="line2d_12">
      <g>
       <use style="stroke:#000000;stroke-width:0.8;" x="108" xlink:href="#mdf9a970a57" y="347.030421"/>
      </g>
     </g>
     <g id="text_13">
      <!-- 20 -->
      <g transform="translate(85.73 351.589484)scale(0.12 -0.12)">
       <use xlink:href="#DejaVuSans-50"/>
       <use x="63.623047" xlink:href="#DejaVuSans-48"/>
      </g>
     </g>
    </g>
    <g id="ytick_4">
     <g id="line2d_13">
      <g>
       <use style="stroke:#000000;stroke-width:0.8;" x="108" xlink:href="#mdf9a970a57" y="294.922217"/>
      </g>
     </g>
     <g id="text_14">
      <!-- 30 -->
      <g transform="translate(85.73 299.48128)scale(0.12 -0.12)">
       <defs>
        <path d="M 40.578125 39.3125 
Q 47.65625 37.796875 51.625 33 
Q 55.609375 28.21875 55.609375 21.1875 
Q 55.609375 10.40625 48.1875 4.484375 
Q 40.765625 -1.421875 27.09375 -1.421875 
Q 22.515625 -1.421875 17.65625 -0.515625 
Q 12.796875 0.390625 7.625 2.203125 
L 7.625 11.71875 
Q 11.71875 9.328125 16.59375 8.109375 
Q 21.484375 6.890625 26.8125 6.890625 
Q 36.078125 6.890625 40.9375 10.546875 
Q 45.796875 14.203125 45.796875 21.1875 
Q 45.796875 27.640625 41.28125 31.265625 
Q 36.765625 34.90625 28.71875 34.90625 
L 20.21875 34.90625 
L 20.21875 43.015625 
L 29.109375 43.015625 
Q 36.375 43.015625 40.234375 45.921875 
Q 44.09375 48.828125 44.09375 54.296875 
Q 44.09375 59.90625 40.109375 62.90625 
Q 36.140625 65.921875 28.71875 65.921875 
Q 24.65625 65.921875 20.015625 65.03125 
Q 15.375 64.15625 9.8125 62.3125 
L 9.8125 71.09375 
Q 15.4375 72.65625 20.34375 73.4375 
Q 25.25 74.21875 29.59375 74.21875 
Q 40.828125 74.21875 47.359375 69.109375 
Q 53.90625 64.015625 53.90625 55.328125 
Q 53.90625 49.265625 50.4375 45.09375 
Q 46.96875 40.921875 40.578125 39.3125 
z
" id="DejaVuSans-51"/>
       </defs>
       <use xlink:href="#DejaVuSans-51"/>
       <use x="63.623047" xlink:href="#DejaVuSans-48"/>
      </g>
     </g>
    </g>
    <g id="ytick_5">
     <g id="line2d_14">
      <g>
       <use style="stroke:#000000;stroke-width:0.8;" x="108" xlink:href="#mdf9a970a57" y="242.814013"/>
      </g>
     </g>
     <g id="text_15">
      <!-- 40 -->
      <g transform="translate(85.73 247.373076)scale(0.12 -0.12)">
       <use xlink:href="#DejaVuSans-52"/>
       <use x="63.623047" xlink:href="#DejaVuSans-48"/>
      </g>
     </g>
    </g>
    <g id="ytick_6">
     <g id="line2d_15">
      <g>
       <use style="stroke:#000000;stroke-width:0.8;" x="108" xlink:href="#mdf9a970a57" y="190.705809"/>
      </g>
     </g>
     <g id="text_16">
      <!-- 50 -->
      <g transform="translate(85.73 195.264872)scale(0.12 -0.12)">
       <defs>
        <path d="M 10.796875 72.90625 
L 49.515625 72.90625 
L 49.515625 64.59375 
L 19.828125 64.59375 
L 19.828125 46.734375 
Q 21.96875 47.46875 24.109375 47.828125 
Q 26.265625 48.1875 28.421875 48.1875 
Q 40.625 48.1875 47.75 41.5 
Q 54.890625 34.8125 54.890625 23.390625 
Q 54.890625 11.625 47.5625 5.09375 
Q 40.234375 -1.421875 26.90625 -1.421875 
Q 22.3125 -1.421875 17.546875 -0.640625 
Q 12.796875 0.140625 7.71875 1.703125 
L 7.71875 11.625 
Q 12.109375 9.234375 16.796875 8.0625 
Q 21.484375 6.890625 26.703125 6.890625 
Q 35.15625 6.890625 40.078125 11.328125 
Q 45.015625 15.765625 45.015625 23.390625 
Q 45.015625 31 40.078125 35.4375 
Q 35.15625 39.890625 26.703125 39.890625 
Q 22.75 39.890625 18.8125 39.015625 
Q 14.890625 38.140625 10.796875 36.28125 
z
" id="DejaVuSans-53"/>
       </defs>
       <use xlink:href="#DejaVuSans-53"/>
       <use x="63.623047" xlink:href="#DejaVuSans-48"/>
      </g>
     </g>
    </g>
    <g id="ytick_7">
     <g id="line2d_16">
      <g>
       <use style="stroke:#000000;stroke-width:0.8;" x="108" xlink:href="#mdf9a970a57" y="138.597605"/>
      </g>
     </g>
     <g id="text_17">
      <!-- 60 -->
      <g transform="translate(85.73 143.156668)scale(0.12 -0.12)">
       <defs>
        <path d="M 33.015625 40.375 
Q 26.375 40.375 22.484375 35.828125 
Q 18.609375 31.296875 18.609375 23.390625 
Q 18.609375 15.53125 22.484375 10.953125 
Q 26.375 6.390625 33.015625 6.390625 
Q 39.65625 6.390625 43.53125 10.953125 
Q 47.40625 15.53125 47.40625 23.390625 
Q 47.40625 31.296875 43.53125 35.828125 
Q 39.65625 40.375 33.015625 40.375 
z
M 52.59375 71.296875 
L 52.59375 62.3125 
Q 48.875 64.0625 45.09375 64.984375 
Q 41.3125 65.921875 37.59375 65.921875 
Q 27.828125 65.921875 22.671875 59.328125 
Q 17.53125 52.734375 16.796875 39.40625 
Q 19.671875 43.65625 24.015625 45.921875 
Q 28.375 48.1875 33.59375 48.1875 
Q 44.578125 48.1875 50.953125 41.515625 
Q 57.328125 34.859375 57.328125 23.390625 
Q 57.328125 12.15625 50.6875 5.359375 
Q 44.046875 -1.421875 33.015625 -1.421875 
Q 20.359375 -1.421875 13.671875 8.265625 
Q 6.984375 17.96875 6.984375 36.375 
Q 6.984375 53.65625 15.1875 63.9375 
Q 23.390625 74.21875 37.203125 74.21875 
Q 40.921875 74.21875 44.703125 73.484375 
Q 48.484375 72.75 52.59375 71.296875 
z
" id="DejaVuSans-54"/>
       </defs>
       <use xlink:href="#DejaVuSans-54"/>
       <use x="63.623047" xlink:href="#DejaVuSans-48"/>
      </g>
     </g>
    </g>
    <g id="ytick_8">
     <g id="line2d_17">
      <g>
       <use style="stroke:#000000;stroke-width:0.8;" x="108" xlink:href="#mdf9a970a57" y="86.489401"/>
      </g>
     </g>
     <g id="text_18">
      <!-- 70 -->
      <g transform="translate(85.73 91.048464)scale(0.12 -0.12)">
       <use xlink:href="#DejaVuSans-55"/>
       <use x="63.623047" xlink:href="#DejaVuSans-48"/>
      </g>
     </g>
    </g>
    <g id="text_19">
     <!-- PM25(micro-gram/m3) -->
     <g transform="translate(78.610469 349.562344)rotate(-90)scale(0.15 -0.15)">
      <defs>
       <path d="M 19.671875 64.796875 
L 19.671875 37.40625 
L 32.078125 37.40625 
Q 38.96875 37.40625 42.71875 40.96875 
Q 46.484375 44.53125 46.484375 51.125 
Q 46.484375 57.671875 42.71875 61.234375 
Q 38.96875 64.796875 32.078125 64.796875 
z
M 9.8125 72.90625 
L 32.078125 72.90625 
Q 44.34375 72.90625 50.609375 67.359375 
Q 56.890625 61.8125 56.890625 51.125 
Q 56.890625 40.328125 50.609375 34.8125 
Q 44.34375 29.296875 32.078125 29.296875 
L 19.671875 29.296875 
L 19.671875 0 
L 9.8125 0 
z
" id="DejaVuSans-80"/>
       <path d="M 9.8125 72.90625 
L 24.515625 72.90625 
L 43.109375 23.296875 
L 61.8125 72.90625 
L 76.515625 72.90625 
L 76.515625 0 
L 66.890625 0 
L 66.890625 64.015625 
L 48.09375 14.015625 
L 38.1875 14.015625 
L 19.390625 64.015625 
L 19.390625 0 
L 9.8125 0 
z
" id="DejaVuSans-77"/>
       <path d="M 31 75.875 
Q 24.46875 64.65625 21.28125 53.65625 
Q 18.109375 42.671875 18.109375 31.390625 
Q 18.109375 20.125 21.3125 9.0625 
Q 24.515625 -2 31 -13.1875 
L 23.1875 -13.1875 
Q 15.875 -1.703125 12.234375 9.375 
Q 8.59375 20.453125 8.59375 31.390625 
Q 8.59375 42.28125 12.203125 53.3125 
Q 15.828125 64.359375 23.1875 75.875 
z
" id="DejaVuSans-40"/>
       <path d="M 52 44.1875 
Q 55.375 50.25 60.0625 53.125 
Q 64.75 56 71.09375 56 
Q 79.640625 56 84.28125 50.015625 
Q 88.921875 44.046875 88.921875 33.015625 
L 88.921875 0 
L 79.890625 0 
L 79.890625 32.71875 
Q 79.890625 40.578125 77.09375 44.375 
Q 74.3125 48.1875 68.609375 48.1875 
Q 61.625 48.1875 57.5625 43.546875 
Q 53.515625 38.921875 53.515625 30.90625 
L 53.515625 0 
L 44.484375 0 
L 44.484375 32.71875 
Q 44.484375 40.625 41.703125 44.40625 
Q 38.921875 48.1875 33.109375 48.1875 
Q 26.21875 48.1875 22.15625 43.53125 
Q 18.109375 38.875 18.109375 30.90625 
L 18.109375 0 
L 9.078125 0 
L 9.078125 54.6875 
L 18.109375 54.6875 
L 18.109375 46.1875 
Q 21.1875 51.21875 25.484375 53.609375 
Q 29.78125 56 35.6875 56 
Q 41.65625 56 45.828125 52.96875 
Q 50 49.953125 52 44.1875 
z
" id="DejaVuSans-109"/>
       <path d="M 9.421875 54.6875 
L 18.40625 54.6875 
L 18.40625 0 
L 9.421875 0 
z
M 9.421875 75.984375 
L 18.40625 75.984375 
L 18.40625 64.59375 
L 9.421875 64.59375 
z
" id="DejaVuSans-105"/>
       <path d="M 48.78125 52.59375 
L 48.78125 44.1875 
Q 44.96875 46.296875 41.140625 47.34375 
Q 37.3125 48.390625 33.40625 48.390625 
Q 24.65625 48.390625 19.8125 42.84375 
Q 14.984375 37.3125 14.984375 27.296875 
Q 14.984375 17.28125 19.8125 11.734375 
Q 24.65625 6.203125 33.40625 6.203125 
Q 37.3125 6.203125 41.140625 7.25 
Q 44.96875 8.296875 48.78125 10.40625 
L 48.78125 2.09375 
Q 45.015625 0.34375 40.984375 -0.53125 
Q 36.96875 -1.421875 32.421875 -1.421875 
Q 20.0625 -1.421875 12.78125 6.34375 
Q 5.515625 14.109375 5.515625 27.296875 
Q 5.515625 40.671875 12.859375 48.328125 
Q 20.21875 56 33.015625 56 
Q 37.15625 56 41.109375 55.140625 
Q 45.0625 54.296875 48.78125 52.59375 
z
" id="DejaVuSans-99"/>
       <path d="M 41.109375 46.296875 
Q 39.59375 47.171875 37.8125 47.578125 
Q 36.03125 48 33.890625 48 
Q 26.265625 48 22.1875 43.046875 
Q 18.109375 38.09375 18.109375 28.8125 
L 18.109375 0 
L 9.078125 0 
L 9.078125 54.6875 
L 18.109375 54.6875 
L 18.109375 46.1875 
Q 20.953125 51.171875 25.484375 53.578125 
Q 30.03125 56 36.53125 56 
Q 37.453125 56 38.578125 55.875 
Q 39.703125 55.765625 41.0625 55.515625 
z
" id="DejaVuSans-114"/>
       <path d="M 30.609375 48.390625 
Q 23.390625 48.390625 19.1875 42.75 
Q 14.984375 37.109375 14.984375 27.296875 
Q 14.984375 17.484375 19.15625 11.84375 
Q 23.34375 6.203125 30.609375 6.203125 
Q 37.796875 6.203125 41.984375 11.859375 
Q 46.1875 17.53125 46.1875 27.296875 
Q 46.1875 37.015625 41.984375 42.703125 
Q 37.796875 48.390625 30.609375 48.390625 
z
M 30.609375 56 
Q 42.328125 56 49.015625 48.375 
Q 55.71875 40.765625 55.71875 27.296875 
Q 55.71875 13.875 49.015625 6.21875 
Q 42.328125 -1.421875 30.609375 -1.421875 
Q 18.84375 -1.421875 12.171875 6.21875 
Q 5.515625 13.875 5.515625 27.296875 
Q 5.515625 40.765625 12.171875 48.375 
Q 18.84375 56 30.609375 56 
z
" id="DejaVuSans-111"/>
       <path d="M 45.40625 27.984375 
Q 45.40625 37.75 41.375 43.109375 
Q 37.359375 48.484375 30.078125 48.484375 
Q 22.859375 48.484375 18.828125 43.109375 
Q 14.796875 37.75 14.796875 27.984375 
Q 14.796875 18.265625 18.828125 12.890625 
Q 22.859375 7.515625 30.078125 7.515625 
Q 37.359375 7.515625 41.375 12.890625 
Q 45.40625 18.265625 45.40625 27.984375 
z
M 54.390625 6.78125 
Q 54.390625 -7.171875 48.1875 -13.984375 
Q 42 -20.796875 29.203125 -20.796875 
Q 24.46875 -20.796875 20.265625 -20.09375 
Q 16.0625 -19.390625 12.109375 -17.921875 
L 12.109375 -9.1875 
Q 16.0625 -11.328125 19.921875 -12.34375 
Q 23.78125 -13.375 27.78125 -13.375 
Q 36.625 -13.375 41.015625 -8.765625 
Q 45.40625 -4.15625 45.40625 5.171875 
L 45.40625 9.625 
Q 42.625 4.78125 38.28125 2.390625 
Q 33.9375 0 27.875 0 
Q 17.828125 0 11.671875 7.65625 
Q 5.515625 15.328125 5.515625 27.984375 
Q 5.515625 40.671875 11.671875 48.328125 
Q 17.828125 56 27.875 56 
Q 33.9375 56 38.28125 53.609375 
Q 42.625 51.21875 45.40625 46.390625 
L 45.40625 54.6875 
L 54.390625 54.6875 
z
" id="DejaVuSans-103"/>
       <path d="M 25.390625 72.90625 
L 33.6875 72.90625 
L 8.296875 -9.28125 
L 0 -9.28125 
z
" id="DejaVuSans-47"/>
       <path d="M 8.015625 75.875 
L 15.828125 75.875 
Q 23.140625 64.359375 26.78125 53.3125 
Q 30.421875 42.28125 30.421875 31.390625 
Q 30.421875 20.453125 26.78125 9.375 
Q 23.140625 -1.703125 15.828125 -13.1875 
L 8.015625 -13.1875 
Q 14.5 -2 17.703125 9.0625 
Q 20.90625 20.125 20.90625 31.390625 
Q 20.90625 42.671875 17.703125 53.65625 
Q 14.5 64.65625 8.015625 75.875 
z
" id="DejaVuSans-41"/>
      </defs>
      <use xlink:href="#DejaVuSans-80"/>
      <use x="60.302734" xlink:href="#DejaVuSans-77"/>
      <use x="146.582031" xlink:href="#DejaVuSans-50"/>
      <use x="210.205078" xlink:href="#DejaVuSans-53"/>
      <use x="273.828125" xlink:href="#DejaVuSans-40"/>
      <use x="312.841797" xlink:href="#DejaVuSans-109"/>
      <use x="410.253906" xlink:href="#DejaVuSans-105"/>
      <use x="438.037109" xlink:href="#DejaVuSans-99"/>
      <use x="493.017578" xlink:href="#DejaVuSans-114"/>
      <use x="531.880859" xlink:href="#DejaVuSans-111"/>
      <use x="594.9375" xlink:href="#DejaVuSans-45"/>
      <use x="631.021484" xlink:href="#DejaVuSans-103"/>
      <use x="694.498047" xlink:href="#DejaVuSans-114"/>
      <use x="735.611328" xlink:href="#DejaVuSans-97"/>
      <use x="796.890625" xlink:href="#DejaVuSans-109"/>
      <use x="894.302734" xlink:href="#DejaVuSans-47"/>
      <use x="927.994141" xlink:href="#DejaVuSans-109"/>
      <use x="1025.40625" xlink:href="#DejaVuSans-51"/>
      <use x="1089.029297" xlink:href="#DejaVuSans-41"/>
     </g>
    </g>
   </g>
   <g id="line2d_18">
    <path clip-path="url(#p656f759a92)" d="M 138.436364 242.596896 
L 139.273678 337.043016 
L 140.110992 358.754767 
L 140.948306 326.18714 
L 141.78562 331.832195 
L 142.622934 334.220488 
L 143.460248 302.955565 
L 144.297562 266.914058 
L 145.134876 330.095255 
L 145.97219 308.600621 
L 146.809504 305.560976 
L 147.646818 294.448506 
L 148.484132 277.987051 
L 149.321446 332.049313 
L 150.15876 329.009667 
L 150.996074 265.177118 
L 151.833388 308.600621 
L 152.670702 273.427583 
L 153.508016 277.552816 
L 155.182643 340.082661 
L 156.019957 355.498004 
L 156.857271 391.539512 
L 157.694585 406.086386 
L 158.531899 390.671042 
L 159.369213 337.477251 
L 160.206527 318.588027 
L 161.043841 296.106495 
L 161.881155 317.936674 
L 162.718469 315.331264 
L 163.555783 305.343858 
L 164.393097 357.017827 
L 165.230411 383.269309 
L 166.067725 362.445765 
L 166.905039 324.4502 
L 167.742353 403.046741 
L 168.579667 372.650288 
L 169.416981 338.128603 
L 170.254295 295.790687 
L 171.091609 280.158226 
L 171.928923 367.439468 
L 172.766237 379.815166 
L 173.603551 363.965588 
L 174.440865 429.752195 
L 175.278179 388.499867 
L 176.115493 391.888788 
L 176.952807 364.182705 
L 177.790121 357.886297 
L 178.627435 364.61694 
L 179.464749 284.283459 
L 180.302063 340.299778 
L 181.139377 332.700665 
L 181.976691 332.700665 
L 182.814005 340.398468 
L 183.651319 370.479113 
L 184.488633 356.955793 
L 185.325947 354.412417 
L 186.163261 330.312373 
L 187.000575 352.241242 
L 187.837889 361.794412 
L 188.675203 384.412394 
L 189.512517 399.355743 
L 190.349831 344.642129 
L 191.187145 299.264568 
L 192.024459 343.339424 
L 192.861773 372.650288 
L 193.699087 371.998936 
L 194.536401 345.944834 
L 195.373715 297.31051 
L 196.211029 207.858093 
L 197.048343 358.53765 
L 197.885657 270.17082 
L 198.722971 319.890732 
L 199.560285 315.538941 
L 200.397599 298.613215 
L 201.234913 326.404257 
L 202.072227 236.734723 
L 202.909541 280.375344 
L 203.746855 300.350155 
L 204.584169 335.306075 
L 205.421483 326.640255 
L 206.258797 360.057472 
L 207.096111 332.049313 
L 207.933425 348.333126 
L 208.770739 349.852949 
L 209.608053 398.053038 
L 210.445367 370.696231 
L 211.282681 350.938537 
L 212.119995 354.846652 
L 212.957309 356.366475 
L 214.631937 362.01153 
L 215.469251 388.282749 
L 216.306565 376.124169 
L 217.143879 342.530167 
L 217.981193 327.272727 
L 218.818507 357.886297 
L 219.655821 351.589889 
L 220.493135 312.508736 
L 221.330449 390.236807 
L 222.167763 353.109712 
L 223.005077 324.667317 
L 223.842391 259.532062 
L 224.679705 325.752905 
L 225.517019 361.577295 
L 226.354333 330.963725 
L 228.028961 387.584197 
L 228.866275 389.802572 
L 229.703589 404.132328 
L 230.540903 369.176408 
L 231.378217 325.970022 
L 232.215531 270.387938 
L 233.052845 86.923636 
L 233.890159 177.244523 
L 234.727473 332.917783 
L 235.564787 343.773659 
L 236.402101 335.088958 
L 237.239415 373.735876 
L 238.076729 380.249401 
L 238.914043 393.276452 
L 239.751357 401.3098 
L 240.588671 413.185185 
L 241.425985 407.823326 
L 242.263299 413.468381 
L 243.100613 420.850377 
L 243.937927 419.113437 
L 244.775241 415.639557 
L 245.612555 385.460222 
L 246.449869 303.606918 
L 247.287183 261.703237 
L 248.124497 356.149357 
L 248.961811 383.940399 
L 249.799125 403.480976 
L 250.636439 408.040443 
L 251.473753 398.270155 
L 252.311067 395.881863 
L 253.148381 399.138625 
L 253.985695 387.197162 
L 254.823009 359.189002 
L 255.660323 414.771086 
L 256.497637 413.902616 
L 257.334951 406.520621 
L 258.172265 377.643991 
L 259.009579 301.218625 
L 259.846893 319.890732 
L 260.684207 385.243104 
L 261.521521 409.777384 
L 262.358835 417.94289 
L 263.196149 415.422439 
L 264.033463 419.075677 
L 264.870777 420.199024 
L 265.708091 416.356988 
L 266.545405 417.376497 
L 267.382719 386.545809 
L 268.220033 394.144922 
L 269.057347 398.921508 
L 269.89466 400.224213 
L 270.731974 412.599911 
L 271.569288 427.458301 
L 272.406602 422.587317 
L 273.243916 413.468381 
L 274.08123 429.31796 
L 274.918544 416.942262 
L 275.755858 427.324427 
L 276.593172 418.462084 
L 277.430486 421.067494 
L 278.2678 420.199024 
L 279.942428 433.008958 
L 280.779742 423.23867 
L 281.617056 420.888137 
L 282.45437 414.553969 
L 283.291684 418.896319 
L 284.128998 421.935965 
L 284.966312 422.3702 
L 285.803626 425.409845 
L 286.64094 425.626962 
L 287.478254 424.541375 
L 288.315568 433.877428 
L 289.152882 428.591088 
L 289.990196 415.422439 
L 290.82751 414.553969 
L 291.664824 419.981907 
L 292.502138 419.981907 
L 293.339452 420.416142 
L 294.176766 411.731441 
L 295.01408 408.908914 
L 295.851394 413.685499 
L 296.688708 408.040443 
L 297.526022 423.672905 
L 298.363336 412.382794 
L 299.20065 414.553969 
L 300.037964 411.948559 
L 300.875278 428.591088 
L 301.712592 429.31796 
L 302.549906 432.574723 
L 303.38722 431.706253 
L 304.224534 426.778629 
L 305.061848 419.113437 
L 305.899162 426.71255 
L 306.736476 426.495432 
L 307.57379 420.850377 
L 308.411104 422.3702 
L 309.248418 428.44949 
L 310.085732 426.71255 
L 310.923046 428.883725 
L 311.76036 421.935965 
L 313.434988 434.311663 
L 314.272302 436.85504 
L 315.109616 439.832651 
L 315.94693 435.831486 
L 316.784244 432.79184 
L 317.621558 427.363902 
L 318.458872 426.495432 
L 320.1335 426.929667 
L 320.970814 429.969313 
L 321.808128 424.758492 
L 323.482756 422.474038 
L 324.32007 413.251264 
L 325.157384 410.693053 
L 325.994698 424.97561 
L 326.832012 413.685499 
L 327.669326 409.777384 
L 328.50664 392.842217 
L 329.343954 426.929667 
L 330.181268 415.422439 
L 331.018582 327.272727 
L 331.855896 314.245676 
L 332.69321 381.986341 
L 333.530524 380.900754 
L 334.367838 394.144922 
L 335.205152 399.355743 
L 336.042466 364.475342 
L 336.87978 312.725854 
L 337.717094 312.725854 
L 338.554408 306.212328 
L 339.391722 353.326829 
L 340.229036 245.636541 
L 342.740978 340.516896 
L 343.578292 378.532199 
L 344.415606 381.769224 
L 345.25292 419.330554 
L 346.090234 424.758492 
L 346.927548 417.593614 
L 347.764862 414.553969 
L 348.602176 421.067494 
L 349.43949 400.875565 
L 350.276804 383.940399 
L 351.114118 401.526918 
L 351.951432 429.100843 
L 352.788746 438.002661 
L 353.62606 423.380268 
L 354.463374 431.92337 
L 355.300688 429.752195 
L 356.138002 437.134191 
L 356.975316 433.443193 
L 357.81263 403.046741 
L 358.649944 402.990101 
L 359.487258 352.024124 
L 360.324572 345.444519 
L 361.9992 391.105277 
L 362.836514 368.742173 
L 363.673828 408.691796 
L 364.511142 410.862971 
L 365.348456 379.815166 
L 366.18577 365.702528 
L 367.023084 371.998936 
L 367.860398 344.642129 
L 368.697712 356.366475 
L 369.535026 337.911486 
L 370.37234 357.905177 
L 371.209654 352.241242 
L 372.046968 306.429446 
L 372.884282 277.769933 
L 373.721596 305.778093 
L 374.55891 304.258271 
L 375.396224 405.869268 
L 376.233538 380.776687 
L 377.070852 380.683636 
L 377.908166 338.779956 
L 378.74548 324.015965 
L 379.582794 335.957428 
L 380.420108 341.819601 
L 381.257422 327.093369 
L 382.094736 316.633969 
L 382.93205 324.884435 
L 383.769364 317.068204 
L 384.606678 298.17898 
L 385.443991 295.57357 
L 386.281305 341.819601 
L 387.118619 347.898891 
L 387.955933 342.036718 
L 388.793247 290.796984 
L 389.630561 260.36625 
L 390.467875 323.581729 
L 391.305189 303.3898 
L 392.142503 219.582439 
L 392.979817 293.185277 
L 393.817131 265.177118 
L 394.654445 348.163208 
L 395.491759 216.759911 
L 396.329073 242.379778 
L 397.166387 240.859956 
L 398.003701 276.032993 
L 398.841015 263.657295 
L 399.678329 311.640266 
L 400.515643 326.404257 
L 401.352957 319.673614 
L 402.190271 311.206031 
L 403.027585 308.383503 
L 403.864899 320.542084 
L 404.702213 387.197162 
L 405.539527 383.732721 
L 406.376841 381.334989 
L 407.214155 370.696231 
L 408.051469 370.696231 
L 408.888783 363.965588 
L 409.726097 327.05561 
L 410.563411 267.782528 
L 411.400725 306.863681 
L 412.238039 276.467228 
L 413.075353 310.988914 
L 414.749981 343.339424 
L 415.587295 337.601318 
L 416.424609 298.396098 
L 417.261923 295.57357 
L 418.099237 300.359595 
L 418.936551 300.567273 
L 419.773865 253.887007 
L 420.611179 186.363459 
L 421.448493 159.440887 
L 422.285807 226.5302 
L 423.123121 189.185987 
L 423.960435 195.482395 
L 424.797749 209.160798 
L 425.635063 172.128102 
L 426.472377 321.79908 
L 427.309691 296.44204 
L 428.147005 369.176408 
L 428.984319 325.054353 
L 429.821633 313.811441 
L 430.658947 315.765499 
L 431.496261 291.23122 
L 432.333575 239.557251 
L 433.170889 178.764346 
L 434.008203 174.856231 
L 434.845517 175.507583 
L 435.682831 263.657295 
L 436.520145 240.208603 
L 437.357459 332.700665 
L 438.194773 216.542794 
L 439.032087 299.04745 
L 439.869401 279.742871 
L 440.706715 364.834058 
L 441.544029 343.556541 
L 442.381343 342.398581 
L 443.218657 325.101552 
L 444.055971 262.788825 
L 444.893285 253.887007 
L 445.730599 182.238226 
L 446.567913 251.064479 
L 447.405227 179.415698 
L 448.242541 279.941109 
L 449.079855 350.070067 
L 449.917169 320.542084 
L 450.754483 312.942971 
L 451.591797 264.96 
L 452.429111 250.413126 
L 453.266425 201.12745 
L 454.103739 244.333836 
L 454.941053 273.210466 
L 455.778367 163.783237 
L 457.452995 261.762451 
L 458.290309 328.575432 
L 459.127623 216.977029 
L 459.964937 217.628381 
L 460.802251 187.626688 
L 461.639565 217.411264 
L 462.476879 299.264568 
L 463.314193 192.442749 
L 464.151507 241.294191 
L 464.988821 226.728437 
L 465.826135 345.944834 
L 466.663449 310.988914 
L 467.500763 368.95929 
L 468.338077 367.005233 
L 469.175391 300.350155 
L 470.012705 321.627672 
L 470.850019 339.648426 
L 471.687333 348.116009 
L 472.524647 306.863681 
L 473.361961 298.830333 
L 475.036589 323.921566 
L 475.873903 411.297206 
L 477.548531 342.253836 
L 479.223159 328.575432 
L 480.060473 299.481685 
L 480.897787 329.878137 
L 481.735101 343.122306 
L 482.572415 309.469091 
L 483.409729 328.575432 
L 485.084357 285.151929 
L 485.921671 293.402395 
L 486.758985 315.331264 
L 487.596299 351.155654 
L 488.433613 376.256327 
L 489.270927 369.393525 
L 490.108241 318.370909 
L 490.945555 353.326829 
L 491.782869 350.938537 
L 492.620183 365.702528 
L 493.457497 360.057472 
L 494.294811 292.533925 
L 495.132125 253.669889 
L 495.969439 319.456497 
L 496.806753 331.180843 
L 497.644067 377.643991 
L 498.481381 320.976319 
L 499.318695 338.345721 
L 500.156009 375.038581 
L 500.993322 312.508736 
L 501.830636 334.00337 
L 502.66795 307.949268 
L 503.505264 350.504302 
L 504.342578 327.05561 
L 505.179892 336.391663 
L 506.85452 380.683636 
L 507.691834 367.439468 
L 508.529148 332.26643 
L 509.366462 315.548381 
L 510.203776 272.776231 
L 511.04109 175.299906 
L 511.878404 221.536497 
L 512.715718 376.124169 
L 513.553032 344.207894 
L 514.390346 347.464656 
L 515.22766 397.401685 
L 516.064974 401.961153 
L 518.576916 386.111574 
L 519.41423 388.934102 
L 520.251544 294.922217 
L 521.088858 318.370909 
L 521.926172 286.454634 
L 522.763486 361.756653 
L 524.438114 351.372772 
L 525.275428 357.886297 
L 526.112742 378.729579 
L 526.950056 386.980044 
L 527.78737 391.322395 
L 528.624684 381.117871 
L 529.461998 390.236807 
L 530.299312 374.170111 
L 531.136626 330.312373 
L 531.97394 273.210466 
L 532.811254 323.468451 
L 533.648568 361.577295 
L 534.485882 353.543947 
L 535.323196 347.247539 
L 536.16051 333.569135 
L 536.997824 376.558404 
L 537.835138 370.044878 
L 538.672452 394.144922 
L 539.509766 406.954856 
L 540.34708 371.347583 
L 541.184394 353.543947 
L 542.021708 343.990776 
L 542.859022 339.865543 
L 543.696336 358.103415 
L 544.53365 380.249401 
L 545.370964 385.545181 
L 546.208278 314.462794 
L 547.045592 351.788127 
L 547.882906 366.570998 
L 548.72022 377.209756 
L 549.557534 396.316098 
L 550.394848 419.981907 
L 551.232162 413.468381 
L 552.069476 393.927805 
L 552.90679 386.111574 
L 554.581418 395.447627 
L 555.418732 408.908914 
L 556.256046 408.257561 
L 557.09336 402.178271 
L 557.930674 403.915211 
L 558.767988 409.086555 
L 559.605302 426.552072 
L 560.442616 418.679202 
L 561.27993 435.614368 
L 562.117244 421.718847 
L 562.954558 425.626962 
L 563.791872 421.284612 
L 564.629186 431.92337 
L 565.4665 426.495432 
L 566.303814 425.626962 
L 567.978442 396.533215 
L 568.815756 413.034146 
L 569.65307 405.652151 
L 570.490384 406.841577 
L 571.327698 382.420576 
L 573.002326 288.625809 
L 573.83964 382.420576 
L 574.676954 387.631397 
L 575.514268 425.626962 
L 576.351582 430.837783 
L 577.188896 428.232373 
L 578.02621 431.489135 
L 578.863524 428.666608 
L 579.700838 413.902616 
L 580.538152 410.211619 
L 581.375466 395.013392 
L 582.21278 397.401685 
L 583.050094 403.896331 
L 583.887408 393.276452 
L 584.724722 381.117871 
L 585.562036 379.598049 
L 586.39935 401.961153 
L 587.236664 408.040443 
L 588.073978 414.988204 
L 588.911292 403.165168 
L 589.748606 386.328692 
L 590.58592 387.414279 
L 591.423234 386.980044 
L 592.260548 378.512461 
L 593.097862 383.723282 
L 593.935176 390.756001 
L 594.77249 377.643991 
L 595.609804 385.894457 
L 596.447118 401.092683 
L 597.284432 426.71255 
L 598.121746 436.048603 
L 598.95906 425.626962 
L 599.796374 424.541375 
L 600.633688 402.395388 
L 601.471002 429.969313 
L 602.308316 433.226075 
L 603.14563 427.58102 
L 603.982944 418.896319 
L 604.820258 422.153082 
L 605.657572 429.044203 
L 606.494886 415.205322 
L 607.3322 393.927805 
L 608.169514 426.929667 
L 609.006828 442.996364 
L 610.681456 426.061197 
L 611.51877 399.789978 
L 612.356084 361.360177 
L 613.193398 310.554678 
L 614.868026 389.15122 
L 615.70534 298.613215 
L 616.542653 353.109712 
L 617.379967 391.435673 
L 618.217281 411.948559 
L 619.054595 394.36204 
L 619.891909 398.70439 
L 620.729223 372.216053 
L 621.566537 420.199024 
L 622.403851 344.859246 
L 623.241165 348.550244 
L 624.915793 352.241242 
L 625.753107 375.689933 
L 626.590421 384.374634 
L 627.427735 386.328692 
L 628.265049 403.915211 
L 629.102363 413.638299 
L 629.939677 404.132328 
L 630.776991 407.389091 
L 631.614305 420.850377 
L 632.451619 419.981907 
L 633.288933 404.349446 
L 634.126247 408.474678 
L 634.963561 405.000798 
L 635.800875 417.810732 
L 636.638189 410.428736 
L 637.475503 423.23867 
L 638.312817 423.672905 
L 639.150131 426.061197 
L 639.987445 428.883725 
L 640.824759 425.419285 
L 641.662073 423.890022 
L 642.499387 416.797517 
L 643.336701 411.080089 
L 644.174015 416.073792 
L 645.011329 385.243104 
L 645.848643 426.278315 
L 646.685957 434.963016 
L 648.360585 435.397251 
L 649.197899 436.482838 
L 650.035213 419.113437 
L 650.872527 409.086555 
L 651.709841 421.067494 
L 652.547155 367.005233 
L 653.384469 390.236807 
L 654.221783 391.75663 
L 655.059097 338.562838 
L 655.896411 367.873703 
L 656.733725 410.645854 
L 657.571039 392.190865 
L 658.408353 388.282749 
L 659.245667 345.944834 
L 660.082981 349.635831 
L 660.920295 429.100843 
L 661.757609 423.672905 
L 662.594923 410.862971 
L 663.432237 432.79184 
L 664.269551 432.669122 
L 665.106865 419.330554 
L 666.781493 361.577295 
L 668.456121 313.811441 
L 669.293435 304.041153 
L 670.130749 282.546519 
L 670.968063 290.796984 
L 671.805377 365.48541 
L 672.642691 396.770071 
L 673.480005 377.426874 
L 674.317319 383.506164 
L 675.154633 369.176408 
L 675.991947 400.224213 
L 676.829261 442.184533 
L 677.666575 433.008958 
L 678.503889 418.244967 
L 679.341203 337.043016 
L 680.178517 392.190865 
L 681.015831 423.021552 
L 681.853145 397.184568 
L 682.690459 355.715122 
L 684.365087 403.046741 
L 685.202401 345.510599 
L 686.039715 332.142363 
L 686.877029 381.334989 
L 687.714343 405.255675 
L 688.551657 398.487273 
L 689.388971 337.477251 
L 690.226285 379.598049 
L 691.063599 358.53765 
L 691.900913 291.665455 
L 692.738227 325.31867 
L 693.575541 324.233082 
L 694.412855 318.153792 
L 695.250169 285.151929 
L 696.087483 304.692506 
L 696.924797 299.698803 
L 697.762111 360.491707 
L 698.599425 320.107849 
L 699.436739 348.519227 
L 700.274053 362.445765 
L 701.111367 381.769224 
L 701.948681 395.013392 
L 702.785995 405.869268 
L 703.623309 377.572342 
L 704.460623 376.013439 
L 705.297937 356.149357 
L 706.135251 326.18714 
L 706.972565 323.581729 
L 707.809879 334.87184 
L 708.647193 326.18714 
L 709.484507 260.258934 
L 710.321821 236.08337 
L 711.159135 319.022262 
L 711.996449 259.966297 
L 712.833763 352.241242 
L 713.671077 359.189002 
L 714.508391 379.380931 
L 715.345705 317.502439 
L 716.183019 294.053747 
L 717.020333 254.755477 
L 717.857647 290.145632 
L 718.694961 302.955565 
L 719.532275 273.427583 
L 720.369589 276.684346 
L 721.206903 269.519468 
L 722.044217 342.905188 
L 722.881531 344.425011 
L 723.718845 355.715122 
L 724.556159 355.063769 
L 725.393473 297.527627 
L 726.230787 300.350155 
L 727.068101 297.961863 
L 727.905415 342.470953 
L 728.742729 307.080798 
L 730.417357 336.60878 
L 732.091984 127.090377 
L 733.766612 301.869978 
L 734.603926 341.168248 
L 735.44124 336.60878 
L 736.278554 235.432018 
L 737.115868 269.085233 
L 737.953182 319.239379 
L 738.790496 396.09898 
L 739.62781 324.4502 
L 740.465124 296.876275 
L 741.302438 113.194856 
L 742.139752 244.550953 
L 742.977066 272.993348 
L 743.81438 329.226785 
L 745.489008 202.86439 
L 746.326322 286.992708 
L 747.163636 276.032993 
L 747.163636 276.032993 
" style="fill:none;stroke:#1f77b4;stroke-linecap:square;stroke-width:1.5;"/>
   </g>
   <g id="line2d_19">
    <path clip-path="url(#p656f759a92)" d="M 138.436364 255.922861 
L 139.273678 268.226125 
L 140.110992 277.82634 
L 140.948306 181.352973 
L 141.78562 272.40738 
L 142.622934 253.71089 
L 143.460248 197.870369 
L 144.297562 206.297621 
L 145.134876 199.819398 
L 145.97219 165.573913 
L 146.809504 275.35572 
L 147.646818 286.9446 
L 148.484132 227.939648 
L 149.321446 232.729637 
L 150.15876 286.60158 
L 150.996074 227.819169 
L 151.833388 242.374875 
L 152.670702 252.041223 
L 153.508016 268.21728 
L 154.345329 176.796089 
L 155.182643 331.941754 
L 156.019957 251.488543 
L 156.857271 235.699823 
L 157.694585 135.288505 
L 158.531899 247.111394 
L 159.369213 209.929058 
L 160.206527 132.616743 
L 161.043841 196.145561 
L 161.881155 237.044431 
L 162.718469 246.722407 
L 163.555783 268.290251 
L 164.393097 274.871042 
L 165.230411 260.123516 
L 166.067725 304.723753 
L 166.905039 282.776882 
L 167.742353 291.862125 
L 168.579667 330.887481 
L 169.416981 294.148607 
L 170.254295 233.417366 
L 171.091609 181.692265 
L 171.928923 215.233781 
L 173.603551 155.553703 
L 174.440865 286.130588 
L 175.278179 276.333027 
L 176.115493 284.612597 
L 176.952807 165.130203 
L 177.790121 278.722864 
L 178.627435 289.691966 
L 179.464749 256.445724 
L 180.302063 308.323466 
L 181.139377 249.177721 
L 181.976691 255.00306 
L 182.814005 271.705856 
L 183.651319 310.358973 
L 184.488633 207.614717 
L 185.325947 303.053758 
L 186.163261 206.445431 
L 187.000575 170.465339 
L 187.837889 242.233902 
L 188.675203 276.619743 
L 189.512517 294.534026 
L 190.349831 256.695448 
L 191.187145 242.464643 
L 192.024459 188.466189 
L 192.861773 241.050324 
L 193.699087 203.388877 
L 194.536401 321.537348 
L 195.373715 266.343786 
L 196.211029 125.991266 
L 197.048343 243.569803 
L 197.885657 314.314029 
L 198.722971 259.351467 
L 199.560285 283.191133 
L 200.397599 206.367968 
L 201.234913 212.024228 
L 202.072227 175.254692 
L 202.909541 201.027783 
L 203.746855 199.749269 
L 204.584169 231.786997 
L 205.421483 293.691261 
L 206.258797 244.291105 
L 207.096111 207.247119 
L 207.933425 176.81378 
L 208.770739 261.270599 
L 209.608053 232.272073 
L 210.445367 217.881928 
L 211.282681 192.112952 
L 212.119995 251.191809 
L 212.957309 238.41794 
L 213.794623 246.00993 
L 214.631937 304.019854 
L 215.469251 261.484781 
L 216.306565 225.084594 
L 217.143879 231.032499 
L 217.981193 209.834063 
L 218.818507 268.377951 
L 219.655821 335.414478 
L 220.493135 296.918445 
L 221.330449 216.328843 
L 222.167763 238.606838 
L 223.005077 233.948021 
L 223.842391 272.505596 
L 224.679705 353.407437 
L 225.517019 275.227092 
L 226.354333 347.777087 
L 227.191647 265.635921 
L 228.028961 355.074997 
L 228.866275 326.531869 
L 229.703589 287.220761 
L 230.540903 288.524907 
L 231.378217 264.189997 
L 232.215531 184.036045 
L 233.052845 148.690409 
L 233.890159 183.129244 
L 234.727473 335.801666 
L 235.564787 311.422986 
L 236.402101 332.288253 
L 237.239415 414.131626 
L 238.076729 247.018803 
L 238.914043 348.111609 
L 239.751357 392.756993 
L 240.588671 377.766045 
L 241.425985 417.804638 
L 242.263299 317.280498 
L 243.100613 419.286967 
L 243.937927 230.012415 
L 244.775241 326.339472 
L 245.612555 234.364916 
L 246.449869 384.496099 
L 247.287183 118.520251 
L 248.124497 308.259112 
L 248.961811 329.898416 
L 249.799125 151.91666 
L 250.636439 290.475754 
L 251.473753 251.111086 
L 252.311067 248.445665 
L 253.148381 237.995141 
L 253.985695 209.347973 
L 254.823009 229.011772 
L 255.660323 197.939166 
L 256.497637 284.9893 
L 257.334951 225.583524 
L 258.172265 241.432473 
L 259.009579 276.547985 
L 259.846893 159.2275 
L 260.684207 253.654438 
L 261.521521 290.098167 
L 262.358835 217.360536 
L 263.196149 261.447371 
L 264.033463 322.102033 
L 264.870777 200.351126 
L 265.708091 324.69347 
L 268.220033 230.29768 
L 269.89466 198.159073 
L 270.731974 255.897636 
L 271.569288 398.416563 
L 272.406602 344.798732 
L 273.243916 415.769886 
L 274.08123 404.758931 
L 274.918544 318.67798 
L 275.755858 380.615176 
L 276.593172 309.534664 
L 277.430486 398.775991 
L 278.2678 397.029626 
L 279.105114 408.35444 
L 279.942428 422.337082 
L 280.779742 409.700836 
L 281.617056 412.697191 
L 282.45437 401.597154 
L 283.291684 304.278711 
L 284.128998 382.703766 
L 284.966312 264.175626 
L 285.803626 360.457541 
L 286.64094 401.095411 
L 287.478254 363.501294 
L 288.315568 409.974542 
L 289.152882 326.742443 
L 289.990196 344.871236 
L 290.82751 230.413269 
L 291.664824 311.633451 
L 292.502138 332.260295 
L 293.339452 385.61903 
L 294.176766 384.051564 
L 295.01408 344.401148 
L 295.851394 353.125193 
L 296.688708 244.385902 
L 297.526022 387.133482 
L 298.363336 354.458609 
L 299.20065 400.205139 
L 300.037964 394.291959 
L 300.875278 377.367159 
L 301.712592 406.006993 
L 302.549906 375.798133 
L 303.38722 420.509675 
L 304.224534 405.289716 
L 305.061848 323.363741 
L 305.899162 419.41992 
L 306.736476 325.709479 
L 307.57379 434.466964 
L 308.411104 403.964767 
L 309.248418 395.36459 
L 310.085732 416.067465 
L 310.923046 421.849154 
L 311.76036 420.605108 
L 312.597674 391.719129 
L 313.434988 409.018773 
L 314.272302 258.189297 
L 315.109616 297.73203 
L 315.94693 193.400928 
L 316.784244 261.182779 
L 317.621558 308.054898 
L 318.458872 222.4765 
L 319.296186 346.028287 
L 320.1335 376.330756 
L 320.970814 425.686186 
L 321.808128 361.405846 
L 322.645442 416.498822 
L 323.482756 314.300264 
L 324.32007 293.68493 
L 325.157384 216.697396 
L 325.994698 394.5211 
L 326.832012 297.564183 
L 327.669326 408.015843 
L 328.50664 236.298798 
L 329.343954 317.395838 
L 330.181268 222.823783 
L 331.018582 254.106417 
L 331.855896 355.477461 
L 332.69321 366.553207 
L 333.530524 350.786581 
L 334.367838 388.711692 
L 335.205152 343.603893 
L 336.042466 366.312309 
L 336.87978 221.13398 
L 337.717094 289.017933 
L 338.554408 307.440081 
L 339.391722 226.847706 
L 340.229036 274.092612 
L 342.740978 175.656918 
L 343.578292 295.08432 
L 344.415606 200.807956 
L 345.25292 344.775485 
L 346.090234 174.440164 
L 346.927548 320.137232 
L 347.764862 234.528092 
L 348.602176 296.975077 
L 349.43949 245.904817 
L 350.276804 229.202896 
L 351.114118 403.068621 
L 351.951432 281.961399 
L 352.788746 213.075261 
L 353.62606 409.015354 
L 354.463374 208.288313 
L 355.300688 326.115113 
L 356.138002 307.485551 
L 356.975316 350.153526 
L 357.81263 264.313358 
L 358.649944 365.437392 
L 359.487258 307.668993 
L 360.324572 152.565229 
L 361.161886 362.348 
L 361.9992 185.242204 
L 362.836514 335.028384 
L 363.673828 193.186189 
L 364.511142 231.129363 
L 365.348456 375.226679 
L 366.18577 142.65051 
L 367.023084 346.504467 
L 367.860398 280.81527 
L 368.697712 290.755662 
L 369.535026 229.566658 
L 370.37234 269.07377 
L 371.209654 221.531971 
L 372.046968 262.935198 
L 372.884282 206.8731 
L 373.721596 293.483996 
L 374.55891 323.362588 
L 375.396224 384.9884 
L 376.233538 242.140219 
L 377.070852 268.520534 
L 377.908166 349.268273 
L 378.74548 185.052193 
L 379.582794 207.40135 
L 380.420108 328.231561 
L 381.257422 247.479191 
L 382.094736 317.239421 
L 382.93205 254.779356 
L 383.769364 271.423155 
L 384.606678 275.905617 
L 385.443991 255.266619 
L 386.281305 334.368573 
L 387.118619 339.443341 
L 387.955933 328.876474 
L 388.793247 225.003592 
L 389.630561 231.901572 
L 390.467875 273.456724 
L 391.305189 286.993757 
L 392.142503 190.640213 
L 392.979817 292.194669 
L 393.817131 263.779901 
L 394.654445 309.789049 
L 395.491759 295.887469 
L 396.329073 195.362042 
L 397.166387 251.256193 
L 398.003701 192.102914 
L 398.841015 270.710162 
L 399.678329 277.165525 
L 400.515643 290.376535 
L 401.352957 229.410558 
L 402.190271 238.566466 
L 403.027585 303.31517 
L 403.864899 272.662451 
L 404.702213 390.073166 
L 405.539527 270.950225 
L 406.376841 280.260782 
L 407.214155 213.290497 
L 408.051469 292.209179 
L 408.888783 212.611892 
L 409.726097 313.815089 
L 410.563411 177.678758 
L 411.400725 298.532088 
L 412.238039 247.01938 
L 413.075353 213.136763 
L 413.912667 336.281564 
L 414.749981 252.010552 
L 415.587295 242.226548 
L 416.424609 209.693965 
L 417.261923 209.848096 
L 418.099237 240.449203 
L 418.936551 278.501804 
L 419.773865 233.492087 
L 420.611179 220.505546 
L 421.448493 196.371292 
L 422.285807 161.192729 
L 423.123121 147.302131 
L 423.960435 174.979207 
L 425.635063 247.475414 
L 426.472377 258.098654 
L 427.309691 271.671448 
L 428.147005 323.466757 
L 428.984319 263.819914 
L 429.821633 291.976272 
L 430.658947 226.439239 
L 431.496261 242.542921 
L 432.333575 172.000176 
L 433.170889 124.51795 
L 434.008203 159.03892 
L 434.845517 117.215598 
L 435.682831 173.168448 
L 436.520145 268.382702 
L 437.357459 215.986311 
L 438.194773 138.539821 
L 439.032087 276.133714 
L 439.869401 319.141727 
L 440.706715 301.264715 
L 441.544029 313.619979 
L 442.381343 265.390273 
L 443.218657 285.035873 
L 444.055971 281.351471 
L 444.893285 256.801535 
L 445.730599 245.508118 
L 446.567913 286.016112 
L 447.405227 210.03447 
L 448.242541 283.634386 
L 449.079855 262.745703 
L 449.917169 276.311699 
L 450.754483 221.059995 
L 451.591797 174.893077 
L 452.429111 259.380667 
L 453.266425 169.324379 
L 454.103739 172.721577 
L 454.941053 210.553675 
L 455.778367 172.662799 
L 456.615681 216.431214 
L 457.452995 220.925602 
L 458.290309 281.962591 
L 459.127623 173.8264 
L 459.964937 240.181609 
L 460.802251 223.083764 
L 461.639565 109.03008 
L 462.476879 283.616953 
L 463.314193 242.887183 
L 464.151507 162.794057 
L 464.988821 279.591877 
L 465.826135 260.975296 
L 466.663449 310.824329 
L 467.500763 311.122237 
L 468.338077 305.068065 
L 469.175391 307.248887 
L 470.850019 283.847654 
L 471.687333 290.253571 
L 472.524647 262.579108 
L 473.361961 267.819328 
L 474.199275 229.578227 
L 475.036589 293.748737 
L 475.873903 329.276463 
L 476.711217 244.590166 
L 477.548531 227.595088 
L 478.385845 271.28594 
L 479.223159 255.055338 
L 480.060473 311.252207 
L 480.897787 307.443977 
L 481.735101 243.598328 
L 483.409729 293.73358 
L 484.247043 284.753659 
L 485.084357 264.74713 
L 485.921671 247.457961 
L 486.758985 295.012631 
L 487.596299 326.629061 
L 488.433613 275.727095 
L 489.270927 332.960825 
L 490.108241 213.439619 
L 490.945555 205.698825 
L 491.782869 282.276103 
L 492.620183 207.834624 
L 493.457497 322.427223 
L 494.294811 222.214552 
L 495.132125 166.50089 
L 496.806753 220.793336 
L 497.644067 280.756094 
L 498.481381 248.227785 
L 499.318695 227.272016 
L 500.156009 256.426979 
L 500.993322 280.14241 
L 501.830636 265.728134 
L 502.66795 192.943323 
L 503.505264 291.011319 
L 504.342578 251.744389 
L 506.017206 320.113369 
L 506.85452 266.62438 
L 507.691834 239.322356 
L 508.529148 226.265091 
L 509.366462 229.228041 
L 510.203776 272.7877 
L 511.04109 235.059006 
L 511.878404 188.879327 
L 512.715718 346.5122 
L 513.553032 304.651249 
L 514.390346 198.754549 
L 515.22766 382.40892 
L 516.064974 201.796057 
L 516.902288 365.723303 
L 517.739602 294.885046 
L 518.576916 370.949345 
L 519.41423 256.720275 
L 520.251544 324.259827 
L 521.088858 226.315878 
L 521.926172 251.548793 
L 522.763486 352.649003 
L 523.6008 258.551409 
L 524.438114 283.137543 
L 525.275428 239.373203 
L 526.112742 297.054946 
L 526.950056 379.902034 
L 527.78737 340.659638 
L 528.624684 401.696523 
L 529.461998 277.061903 
L 530.299312 324.648516 
L 531.136626 295.387286 
L 531.97394 172.470721 
L 532.811254 232.0205 
L 533.648568 267.046384 
L 534.485882 317.973375 
L 535.323196 360.055365 
L 536.16051 267.278615 
L 536.997824 362.571107 
L 537.835138 293.39725 
L 538.672452 308.131139 
L 539.509766 318.897877 
L 540.34708 196.845415 
L 542.021708 281.018858 
L 542.859022 281.468611 
L 543.696336 226.91853 
L 544.53365 321.23457 
L 545.370964 251.279231 
L 546.208278 280.034097 
L 547.045592 227.796767 
L 547.882906 300.089436 
L 548.72022 298.6666 
L 549.557534 348.95986 
L 550.394848 301.566101 
L 551.232162 392.743347 
L 552.069476 375.707968 
L 552.90679 248.652611 
L 553.744104 369.98793 
L 554.581418 240.25788 
L 555.418732 354.860477 
L 556.256046 399.688308 
L 557.09336 367.23863 
L 557.930674 399.267497 
L 558.767988 361.300097 
L 559.605302 335.114285 
L 560.442616 430.701093 
L 561.27993 388.581066 
L 562.117244 429.746605 
L 562.954558 331.204113 
L 563.791872 397.14918 
L 564.629186 367.660445 
L 565.4665 393.190218 
L 566.303814 396.368861 
L 567.141128 367.424954 
L 567.978442 399.062618 
L 568.815756 245.7223 
L 569.65307 346.855408 
L 570.490384 181.39726 
L 571.327698 392.523033 
L 572.165012 157.114739 
L 573.83964 380.851492 
L 574.676954 287.847236 
L 575.514268 385.214141 
L 576.351582 341.750287 
L 577.188896 382.494951 
L 578.02621 400.521582 
L 578.863524 272.23349 
L 579.700838 301.3061 
L 580.538152 351.79936 
L 581.375466 319.969146 
L 582.21278 374.539964 
L 583.050094 399.727497 
L 583.887408 400.532594 
L 584.724722 395.598173 
L 585.562036 360.861287 
L 586.39935 365.3208 
L 587.236664 266.910321 
L 588.073978 294.624241 
L 588.911292 218.030653 
L 589.748606 258.158129 
L 590.58592 309.159065 
L 591.423234 265.639082 
L 592.260548 199.215414 
L 593.097862 236.058974 
L 593.935176 339.009391 
L 594.77249 288.036213 
L 595.609804 300.702365 
L 596.447118 271.161287 
L 597.284432 403.789277 
L 598.121746 328.813451 
L 598.95906 418.217159 
L 599.796374 391.165803 
L 600.633688 378.262501 
L 601.471002 404.9997 
L 602.308316 400.203071 
L 603.14563 419.85874 
L 603.982944 403.662547 
L 604.820258 400.097083 
L 605.657572 418.509918 
L 606.494886 403.434848 
L 607.3322 294.85183 
L 608.169514 374.897613 
L 609.006828 228.08883 
L 609.844142 237.023658 
L 610.681456 195.033444 
L 611.51877 204.421503 
L 612.356084 275.711809 
L 613.193398 405.789759 
L 614.030712 331.399839 
L 614.868026 338.56418 
L 615.70534 303.695887 
L 616.542653 365.313753 
L 617.379967 332.08542 
L 618.217281 321.125134 
L 619.054595 248.244482 
L 619.891909 277.221581 
L 620.729223 282.622173 
L 621.566537 305.671959 
L 622.403851 265.983483 
L 623.241165 279.598954 
L 624.078479 217.063424 
L 624.915793 255.073785 
L 625.753107 281.86044 
L 626.590421 268.310208 
L 627.427735 226.293814 
L 628.265049 273.075728 
L 629.102363 262.871331 
L 629.939677 327.933565 
L 630.776991 216.784917 
L 631.614305 316.806444 
L 632.451619 229.893149 
L 633.288933 236.011923 
L 634.126247 396.151837 
L 634.963561 278.663151 
L 635.800875 315.9555 
L 636.638189 360.393445 
L 637.475503 339.885242 
L 638.312817 400.905688 
L 639.150131 408.891327 
L 639.987445 397.809985 
L 640.824759 421.885301 
L 641.662073 396.984961 
L 642.499387 271.471975 
L 643.336701 400.171605 
L 644.174015 177.083501 
L 645.011329 394.155121 
L 645.848643 178.543756 
L 646.685957 338.401401 
L 647.523271 375.035604 
L 648.360585 331.516014 
L 649.197899 418.280231 
L 650.872527 377.842833 
L 651.709841 373.871407 
L 652.547155 376.493892 
L 653.384469 357.349811 
L 654.221783 406.654399 
L 655.059097 338.158883 
L 655.896411 362.708651 
L 656.733725 286.008519 
L 657.571039 254.670089 
L 658.408353 381.559725 
L 659.245667 229.774956 
L 660.082981 329.944135 
L 660.920295 356.952754 
L 661.757609 187.43054 
L 662.594923 355.940343 
L 663.432237 296.361502 
L 664.269551 400.062019 
L 665.106865 214.447657 
L 665.944179 361.594714 
L 666.781493 348.258207 
L 667.618807 120.197075 
L 668.456121 325.866065 
L 669.293435 197.78899 
L 670.130749 311.411726 
L 670.968063 292.314988 
L 671.805377 276.122562 
L 672.642691 364.934139 
L 673.480005 142.940267 
L 674.317319 396.72494 
L 675.154633 242.646623 
L 675.991947 383.051954 
L 676.829261 339.127912 
L 677.666575 360.315236 
L 678.503889 204.288243 
L 679.341203 352.592272 
L 680.178517 274.616667 
L 681.015831 306.937642 
L 681.853145 315.539052 
L 682.690459 321.007398 
L 683.527773 268.052334 
L 684.365087 351.280413 
L 685.202401 217.485269 
L 686.039715 333.939523 
L 686.877029 340.619564 
L 687.714343 367.283415 
L 688.551657 304.660453 
L 689.388971 330.548347 
L 690.226285 239.926002 
L 691.063599 354.925507 
L 691.900913 289.066316 
L 692.738227 274.058581 
L 693.575541 254.516693 
L 694.412855 253.848881 
L 695.250169 257.181279 
L 696.087483 161.312909 
L 696.924797 256.047176 
L 697.762111 330.526363 
L 698.599425 192.29207 
L 699.436739 257.243814 
L 700.274053 263.550651 
L 701.111367 172.933692 
L 701.948681 328.62511 
L 702.785995 275.289806 
L 703.623309 274.272286 
L 704.460623 240.776847 
L 705.297937 273.082864 
L 706.135251 250.505332 
L 706.972565 312.796207 
L 707.809879 277.761519 
L 708.647193 303.618593 
L 709.484507 254.38715 
L 710.321821 317.801314 
L 711.159135 300.070075 
L 711.996449 270.433385 
L 712.833763 252.377096 
L 713.671077 337.443346 
L 714.508391 233.086065 
L 715.345705 291.793179 
L 716.183019 206.809471 
L 717.020333 232.486533 
L 717.857647 222.345645 
L 718.694961 278.293406 
L 719.532275 239.089469 
L 720.369589 308.226662 
L 721.206903 251.51675 
L 722.044217 258.93803 
L 722.881531 282.516782 
L 723.718845 310.268589 
L 724.556159 254.371307 
L 725.393473 283.4273 
L 726.230787 300.882795 
L 727.068101 304.238111 
L 727.905415 252.699075 
L 728.742729 353.762234 
L 729.580043 282.286678 
L 730.417357 309.043516 
L 731.254671 235.637368 
L 732.091984 129.045515 
L 732.929298 228.294286 
L 733.766612 296.6333 
L 734.603926 243.059523 
L 735.44124 281.027485 
L 736.278554 209.498547 
L 737.115868 281.458374 
L 737.953182 265.336444 
L 738.790496 285.588642 
L 739.62781 255.986331 
L 740.465124 283.655078 
L 741.302438 166.227254 
L 742.139752 194.5626 
L 742.977066 180.308161 
L 743.81438 262.748367 
L 744.651694 249.002638 
L 745.489008 217.817982 
L 746.326322 309.392807 
L 747.163636 257.427762 
L 747.163636 257.427762 
" style="fill:none;stroke:#ff0000;stroke-dasharray:5.55,2.4;stroke-dashoffset:0;stroke-width:1.5;"/>
   </g>
   <g id="patch_3">
    <path d="M 108 460.8 
L 108 69.12 
" style="fill:none;stroke:#000000;stroke-linecap:square;stroke-linejoin:miter;stroke-width:0.8;"/>
   </g>
   <g id="patch_4">
    <path d="M 777.6 460.8 
L 777.6 69.12 
" style="fill:none;stroke:#000000;stroke-linecap:square;stroke-linejoin:miter;stroke-width:0.8;"/>
   </g>
   <g id="patch_5">
    <path d="M 108 460.8 
L 777.6 460.8 
" style="fill:none;stroke:#000000;stroke-linecap:square;stroke-linejoin:miter;stroke-width:0.8;"/>
   </g>
   <g id="patch_6">
    <path d="M 108 69.12 
L 777.6 69.12 
" style="fill:none;stroke:#000000;stroke-linecap:square;stroke-linejoin:miter;stroke-width:0.8;"/>
   </g>
   <g id="text_20">
    <!-- Macau roadside 2020-2021 | Forecast vs Monitored | RNN -->
    <g transform="translate(226.805859 63.12)scale(0.15 -0.15)">
     <defs>
      <path d="M 8.5 21.578125 
L 8.5 54.6875 
L 17.484375 54.6875 
L 17.484375 21.921875 
Q 17.484375 14.15625 20.5 10.265625 
Q 23.53125 6.390625 29.59375 6.390625 
Q 36.859375 6.390625 41.078125 11.03125 
Q 45.3125 15.671875 45.3125 23.6875 
L 45.3125 54.6875 
L 54.296875 54.6875 
L 54.296875 0 
L 45.3125 0 
L 45.3125 8.40625 
Q 42.046875 3.421875 37.71875 1 
Q 33.40625 -1.421875 27.6875 -1.421875 
Q 18.265625 -1.421875 13.375 4.4375 
Q 8.5 10.296875 8.5 21.578125 
z
M 31.109375 56 
z
" id="DejaVuSans-117"/>
      <path id="DejaVuSans-32"/>
      <path d="M 45.40625 46.390625 
L 45.40625 75.984375 
L 54.390625 75.984375 
L 54.390625 0 
L 45.40625 0 
L 45.40625 8.203125 
Q 42.578125 3.328125 38.25 0.953125 
Q 33.9375 -1.421875 27.875 -1.421875 
Q 17.96875 -1.421875 11.734375 6.484375 
Q 5.515625 14.40625 5.515625 27.296875 
Q 5.515625 40.1875 11.734375 48.09375 
Q 17.96875 56 27.875 56 
Q 33.9375 56 38.25 53.625 
Q 42.578125 51.265625 45.40625 46.390625 
z
M 14.796875 27.296875 
Q 14.796875 17.390625 18.875 11.75 
Q 22.953125 6.109375 30.078125 6.109375 
Q 37.203125 6.109375 41.296875 11.75 
Q 45.40625 17.390625 45.40625 27.296875 
Q 45.40625 37.203125 41.296875 42.84375 
Q 37.203125 48.484375 30.078125 48.484375 
Q 22.953125 48.484375 18.875 42.84375 
Q 14.796875 37.203125 14.796875 27.296875 
z
" id="DejaVuSans-100"/>
      <path d="M 44.28125 53.078125 
L 44.28125 44.578125 
Q 40.484375 46.53125 36.375 47.5 
Q 32.28125 48.484375 27.875 48.484375 
Q 21.1875 48.484375 17.84375 46.4375 
Q 14.5 44.390625 14.5 40.28125 
Q 14.5 37.15625 16.890625 35.375 
Q 19.28125 33.59375 26.515625 31.984375 
L 29.59375 31.296875 
Q 39.15625 29.25 43.1875 25.515625 
Q 47.21875 21.78125 47.21875 15.09375 
Q 47.21875 7.46875 41.1875 3.015625 
Q 35.15625 -1.421875 24.609375 -1.421875 
Q 20.21875 -1.421875 15.453125 -0.5625 
Q 10.6875 0.296875 5.421875 2 
L 5.421875 11.28125 
Q 10.40625 8.6875 15.234375 7.390625 
Q 20.0625 6.109375 24.8125 6.109375 
Q 31.15625 6.109375 34.5625 8.28125 
Q 37.984375 10.453125 37.984375 14.40625 
Q 37.984375 18.0625 35.515625 20.015625 
Q 33.0625 21.96875 24.703125 23.78125 
L 21.578125 24.515625 
Q 13.234375 26.265625 9.515625 29.90625 
Q 5.8125 33.546875 5.8125 39.890625 
Q 5.8125 47.609375 11.28125 51.796875 
Q 16.75 56 26.8125 56 
Q 31.78125 56 36.171875 55.265625 
Q 40.578125 54.546875 44.28125 53.078125 
z
" id="DejaVuSans-115"/>
      <path d="M 21 76.421875 
L 21 -23.578125 
L 12.703125 -23.578125 
L 12.703125 76.421875 
z
" id="DejaVuSans-124"/>
      <path d="M 9.8125 72.90625 
L 51.703125 72.90625 
L 51.703125 64.59375 
L 19.671875 64.59375 
L 19.671875 43.109375 
L 48.578125 43.109375 
L 48.578125 34.8125 
L 19.671875 34.8125 
L 19.671875 0 
L 9.8125 0 
z
" id="DejaVuSans-70"/>
      <path d="M 2.984375 54.6875 
L 12.5 54.6875 
L 29.59375 8.796875 
L 46.6875 54.6875 
L 56.203125 54.6875 
L 35.6875 0 
L 23.484375 0 
z
" id="DejaVuSans-118"/>
      <path d="M 54.890625 33.015625 
L 54.890625 0 
L 45.90625 0 
L 45.90625 32.71875 
Q 45.90625 40.484375 42.875 44.328125 
Q 39.84375 48.1875 33.796875 48.1875 
Q 26.515625 48.1875 22.3125 43.546875 
Q 18.109375 38.921875 18.109375 30.90625 
L 18.109375 0 
L 9.078125 0 
L 9.078125 54.6875 
L 18.109375 54.6875 
L 18.109375 46.1875 
Q 21.34375 51.125 25.703125 53.5625 
Q 30.078125 56 35.796875 56 
Q 45.21875 56 50.046875 50.171875 
Q 54.890625 44.34375 54.890625 33.015625 
z
" id="DejaVuSans-110"/>
      <path d="M 44.390625 34.1875 
Q 47.5625 33.109375 50.5625 29.59375 
Q 53.5625 26.078125 56.59375 19.921875 
L 66.609375 0 
L 56 0 
L 46.6875 18.703125 
Q 43.0625 26.03125 39.671875 28.421875 
Q 36.28125 30.8125 30.421875 30.8125 
L 19.671875 30.8125 
L 19.671875 0 
L 9.8125 0 
L 9.8125 72.90625 
L 32.078125 72.90625 
Q 44.578125 72.90625 50.734375 67.671875 
Q 56.890625 62.453125 56.890625 51.90625 
Q 56.890625 45.015625 53.6875 40.46875 
Q 50.484375 35.9375 44.390625 34.1875 
z
M 19.671875 64.796875 
L 19.671875 38.921875 
L 32.078125 38.921875 
Q 39.203125 38.921875 42.84375 42.21875 
Q 46.484375 45.515625 46.484375 51.90625 
Q 46.484375 58.296875 42.84375 61.546875 
Q 39.203125 64.796875 32.078125 64.796875 
z
" id="DejaVuSans-82"/>
      <path d="M 9.8125 72.90625 
L 23.09375 72.90625 
L 55.421875 11.921875 
L 55.421875 72.90625 
L 64.984375 72.90625 
L 64.984375 0 
L 51.703125 0 
L 19.390625 60.984375 
L 19.390625 0 
L 9.8125 0 
z
" id="DejaVuSans-78"/>
     </defs>
     <use xlink:href="#DejaVuSans-77"/>
     <use x="86.279297" xlink:href="#DejaVuSans-97"/>
     <use x="147.558594" xlink:href="#DejaVuSans-99"/>
     <use x="202.539062" xlink:href="#DejaVuSans-97"/>
     <use x="263.818359" xlink:href="#DejaVuSans-117"/>
     <use x="327.197266" xlink:href="#DejaVuSans-32"/>
     <use x="358.984375" xlink:href="#DejaVuSans-114"/>
     <use x="397.847656" xlink:href="#DejaVuSans-111"/>
     <use x="459.029297" xlink:href="#DejaVuSans-97"/>
     <use x="520.308594" xlink:href="#DejaVuSans-100"/>
     <use x="583.785156" xlink:href="#DejaVuSans-115"/>
     <use x="635.884766" xlink:href="#DejaVuSans-105"/>
     <use x="663.667969" xlink:href="#DejaVuSans-100"/>
     <use x="727.144531" xlink:href="#DejaVuSans-101"/>
     <use x="788.667969" xlink:href="#DejaVuSans-32"/>
     <use x="820.455078" xlink:href="#DejaVuSans-50"/>
     <use x="884.078125" xlink:href="#DejaVuSans-48"/>
     <use x="947.701172" xlink:href="#DejaVuSans-50"/>
     <use x="1011.324219" xlink:href="#DejaVuSans-48"/>
     <use x="1074.947266" xlink:href="#DejaVuSans-45"/>
     <use x="1111.03125" xlink:href="#DejaVuSans-50"/>
     <use x="1174.654297" xlink:href="#DejaVuSans-48"/>
     <use x="1238.277344" xlink:href="#DejaVuSans-50"/>
     <use x="1301.900391" xlink:href="#DejaVuSans-49"/>
     <use x="1365.523438" xlink:href="#DejaVuSans-32"/>
     <use x="1397.310547" xlink:href="#DejaVuSans-124"/>
     <use x="1431.001953" xlink:href="#DejaVuSans-32"/>
     <use x="1462.789062" xlink:href="#DejaVuSans-70"/>
     <use x="1516.683594" xlink:href="#DejaVuSans-111"/>
     <use x="1577.865234" xlink:href="#DejaVuSans-114"/>
     <use x="1616.728516" xlink:href="#DejaVuSans-101"/>
     <use x="1678.251953" xlink:href="#DejaVuSans-99"/>
     <use x="1733.232422" xlink:href="#DejaVuSans-97"/>
     <use x="1794.511719" xlink:href="#DejaVuSans-115"/>
     <use x="1846.611328" xlink:href="#DejaVuSans-116"/>
     <use x="1885.820312" xlink:href="#DejaVuSans-32"/>
     <use x="1917.607422" xlink:href="#DejaVuSans-118"/>
     <use x="1976.787109" xlink:href="#DejaVuSans-115"/>
     <use x="2028.886719" xlink:href="#DejaVuSans-32"/>
     <use x="2060.673828" xlink:href="#DejaVuSans-77"/>
     <use x="2146.953125" xlink:href="#DejaVuSans-111"/>
     <use x="2208.134766" xlink:href="#DejaVuSans-110"/>
     <use x="2271.513672" xlink:href="#DejaVuSans-105"/>
     <use x="2299.296875" xlink:href="#DejaVuSans-116"/>
     <use x="2338.505859" xlink:href="#DejaVuSans-111"/>
     <use x="2399.6875" xlink:href="#DejaVuSans-114"/>
     <use x="2438.550781" xlink:href="#DejaVuSans-101"/>
     <use x="2500.074219" xlink:href="#DejaVuSans-100"/>
     <use x="2563.550781" xlink:href="#DejaVuSans-32"/>
     <use x="2595.337891" xlink:href="#DejaVuSans-124"/>
     <use x="2629.029297" xlink:href="#DejaVuSans-32"/>
     <use x="2660.816406" xlink:href="#DejaVuSans-82"/>
     <use x="2730.298828" xlink:href="#DejaVuSans-78"/>
     <use x="2805.103516" xlink:href="#DejaVuSans-78"/>
    </g>
   </g>
   <g id="legend_1">
    <g id="patch_7">
     <path d="M 598.963125 114.615 
L 769.2 114.615 
Q 771.6 114.615 771.6 112.215 
L 771.6 77.52 
Q 771.6 75.12 769.2 75.12 
L 598.963125 75.12 
Q 596.563125 75.12 596.563125 77.52 
L 596.563125 112.215 
Q 596.563125 114.615 598.963125 114.615 
z
" style="fill:#ffffff;opacity:0.8;stroke:#cccccc;stroke-linejoin:miter;"/>
    </g>
    <g id="line2d_20">
     <path d="M 601.363125 84.838125 
L 625.363125 84.838125 
" style="fill:none;stroke:#1f77b4;stroke-linecap:square;stroke-width:1.5;"/>
    </g>
    <g id="line2d_21"/>
    <g id="text_21">
     <!-- measured_data_PM25 -->
     <g transform="translate(634.963125 89.038125)scale(0.12 -0.12)">
      <defs>
       <path d="M 50.984375 -16.609375 
L 50.984375 -23.578125 
L -0.984375 -23.578125 
L -0.984375 -16.609375 
z
" id="DejaVuSans-95"/>
      </defs>
      <use xlink:href="#DejaVuSans-109"/>
      <use x="97.412109" xlink:href="#DejaVuSans-101"/>
      <use x="158.935547" xlink:href="#DejaVuSans-97"/>
      <use x="220.214844" xlink:href="#DejaVuSans-115"/>
      <use x="272.314453" xlink:href="#DejaVuSans-117"/>
      <use x="335.693359" xlink:href="#DejaVuSans-114"/>
      <use x="374.556641" xlink:href="#DejaVuSans-101"/>
      <use x="436.080078" xlink:href="#DejaVuSans-100"/>
      <use x="499.556641" xlink:href="#DejaVuSans-95"/>
      <use x="549.556641" xlink:href="#DejaVuSans-100"/>
      <use x="613.033203" xlink:href="#DejaVuSans-97"/>
      <use x="674.3125" xlink:href="#DejaVuSans-116"/>
      <use x="713.521484" xlink:href="#DejaVuSans-97"/>
      <use x="774.800781" xlink:href="#DejaVuSans-95"/>
      <use x="824.800781" xlink:href="#DejaVuSans-80"/>
      <use x="885.103516" xlink:href="#DejaVuSans-77"/>
      <use x="971.382812" xlink:href="#DejaVuSans-50"/>
      <use x="1035.005859" xlink:href="#DejaVuSans-53"/>
     </g>
    </g>
    <g id="line2d_22">
     <path d="M 601.363125 102.785625 
L 625.363125 102.785625 
" style="fill:none;stroke:#ff0000;stroke-dasharray:5.55,2.4;stroke-dashoffset:0;stroke-width:1.5;"/>
    </g>
    <g id="line2d_23"/>
    <g id="text_22">
     <!-- predicted_data_PM25 -->
     <g transform="translate(634.963125 106.985625)scale(0.12 -0.12)">
      <defs>
       <path d="M 18.109375 8.203125 
L 18.109375 -20.796875 
L 9.078125 -20.796875 
L 9.078125 54.6875 
L 18.109375 54.6875 
L 18.109375 46.390625 
Q 20.953125 51.265625 25.265625 53.625 
Q 29.59375 56 35.59375 56 
Q 45.5625 56 51.78125 48.09375 
Q 58.015625 40.1875 58.015625 27.296875 
Q 58.015625 14.40625 51.78125 6.484375 
Q 45.5625 -1.421875 35.59375 -1.421875 
Q 29.59375 -1.421875 25.265625 0.953125 
Q 20.953125 3.328125 18.109375 8.203125 
z
M 48.6875 27.296875 
Q 48.6875 37.203125 44.609375 42.84375 
Q 40.53125 48.484375 33.40625 48.484375 
Q 26.265625 48.484375 22.1875 42.84375 
Q 18.109375 37.203125 18.109375 27.296875 
Q 18.109375 17.390625 22.1875 11.75 
Q 26.265625 6.109375 33.40625 6.109375 
Q 40.53125 6.109375 44.609375 11.75 
Q 48.6875 17.390625 48.6875 27.296875 
z
" id="DejaVuSans-112"/>
      </defs>
      <use xlink:href="#DejaVuSans-112"/>
      <use x="63.476562" xlink:href="#DejaVuSans-114"/>
      <use x="102.339844" xlink:href="#DejaVuSans-101"/>
      <use x="163.863281" xlink:href="#DejaVuSans-100"/>
      <use x="227.339844" xlink:href="#DejaVuSans-105"/>
      <use x="255.123047" xlink:href="#DejaVuSans-99"/>
      <use x="310.103516" xlink:href="#DejaVuSans-116"/>
      <use x="349.3125" xlink:href="#DejaVuSans-101"/>
      <use x="410.835938" xlink:href="#DejaVuSans-100"/>
      <use x="474.3125" xlink:href="#DejaVuSans-95"/>
      <use x="524.3125" xlink:href="#DejaVuSans-100"/>
      <use x="587.789062" xlink:href="#DejaVuSans-97"/>
      <use x="649.068359" xlink:href="#DejaVuSans-116"/>
      <use x="688.277344" xlink:href="#DejaVuSans-97"/>
      <use x="749.556641" xlink:href="#DejaVuSans-95"/>
      <use x="799.556641" xlink:href="#DejaVuSans-80"/>
      <use x="859.859375" xlink:href="#DejaVuSans-77"/>
      <use x="946.138672" xlink:href="#DejaVuSans-50"/>
      <use x="1009.761719" xlink:href="#DejaVuSans-53"/>
     </g>
    </g>
   </g>
  </g>
 </g>
 <defs>
  <clipPath id="p656f759a92">
   <rect height="391.68" width="669.6" x="108" y="69.12"/>
  </clipPath>
 </defs>
</svg>
