<?xml version="1.0" encoding="utf-8" standalone="no"?>
<!DOCTYPE svg PUBLIC "-//W3C//DTD SVG 1.1//EN"
  "http://www.w3.org/Graphics/SVG/1.1/DTD/svg11.dtd">
<!-- Created with matplotlib (https://matplotlib.org/) -->
<svg height="576pt" version="1.1" viewBox="0 0 864 576" width="864pt" xmlns="http://www.w3.org/2000/svg" xmlns:xlink="http://www.w3.org/1999/xlink">
 <metadata>
  <rdf:RDF xmlns:cc="http://creativecommons.org/ns#" xmlns:dc="http://purl.org/dc/elements/1.1/" xmlns:rdf="http://www.w3.org/1999/02/22-rdf-syntax-ns#">
   <cc:Work>
    <dc:type rdf:resource="http://purl.org/dc/dcmitype/StillImage"/>
    <dc:date>2024-03-08T17:53:00.762291</dc:date>
    <dc:format>image/svg+xml</dc:format>
    <dc:creator>
     <cc:Agent>
      <dc:title>Matplotlib v3.3.4, https://matplotlib.org/</dc:title>
     </cc:Agent>
    </dc:creator>
   </cc:Work>
  </rdf:RDF>
 </metadata>
 <defs>
  <style type="text/css">*{stroke-linecap:butt;stroke-linejoin:round;}</style>
 </defs>
 <g id="figure_1">
  <g id="patch_1">
   <path d="M 0 576 
L 864 576 
L 864 0 
L 0 0 
z
" style="fill:#ffffff;"/>
  </g>
  <g id="axes_1">
   <g id="patch_2">
    <path d="M 108 460.8 
L 777.6 460.8 
L 777.6 69.12 
L 108 69.12 
z
" style="fill:#ffffff;"/>
   </g>
   <g id="matplotlib.axis_1">
    <g id="xtick_1">
     <g id="line2d_1">
      <defs>
       <path d="M 0 0 
L 0 3.5 
" id="m790ff9f64f" style="stroke:#000000;stroke-width:0.8;"/>
      </defs>
      <g>
       <use style="stroke:#000000;stroke-width:0.8;" x="138.436364" xlink:href="#m790ff9f64f" y="460.8"/>
      </g>
     </g>
     <g id="text_1">
      <!-- 2020-01 -->
      <g transform="translate(93.766579 500.766215)rotate(-30)scale(0.12 -0.12)">
       <defs>
        <path d="M 19.1875 8.296875 
L 53.609375 8.296875 
L 53.609375 0 
L 7.328125 0 
L 7.328125 8.296875 
Q 12.9375 14.109375 22.625 23.890625 
Q 32.328125 33.6875 34.8125 36.53125 
Q 39.546875 41.84375 41.421875 45.53125 
Q 43.3125 49.21875 43.3125 52.78125 
Q 43.3125 58.59375 39.234375 62.25 
Q 35.15625 65.921875 28.609375 65.921875 
Q 23.96875 65.921875 18.8125 64.3125 
Q 13.671875 62.703125 7.8125 59.421875 
L 7.8125 69.390625 
Q 13.765625 71.78125 18.9375 73 
Q 24.125 74.21875 28.421875 74.21875 
Q 39.75 74.21875 46.484375 68.546875 
Q 53.21875 62.890625 53.21875 53.421875 
Q 53.21875 48.921875 51.53125 44.890625 
Q 49.859375 40.875 45.40625 35.40625 
Q 44.1875 33.984375 37.640625 27.21875 
Q 31.109375 20.453125 19.1875 8.296875 
z
" id="DejaVuSans-50"/>
        <path d="M 31.78125 66.40625 
Q 24.171875 66.40625 20.328125 58.90625 
Q 16.5 51.421875 16.5 36.375 
Q 16.5 21.390625 20.328125 13.890625 
Q 24.171875 6.390625 31.78125 6.390625 
Q 39.453125 6.390625 43.28125 13.890625 
Q 47.125 21.390625 47.125 36.375 
Q 47.125 51.421875 43.28125 58.90625 
Q 39.453125 66.40625 31.78125 66.40625 
z
M 31.78125 74.21875 
Q 44.046875 74.21875 50.515625 64.515625 
Q 56.984375 54.828125 56.984375 36.375 
Q 56.984375 17.96875 50.515625 8.265625 
Q 44.046875 -1.421875 31.78125 -1.421875 
Q 19.53125 -1.421875 13.0625 8.265625 
Q 6.59375 17.96875 6.59375 36.375 
Q 6.59375 54.828125 13.0625 64.515625 
Q 19.53125 74.21875 31.78125 74.21875 
z
" id="DejaVuSans-48"/>
        <path d="M 4.890625 31.390625 
L 31.203125 31.390625 
L 31.203125 23.390625 
L 4.890625 23.390625 
z
" id="DejaVuSans-45"/>
        <path d="M 12.40625 8.296875 
L 28.515625 8.296875 
L 28.515625 63.921875 
L 10.984375 60.40625 
L 10.984375 69.390625 
L 28.421875 72.90625 
L 38.28125 72.90625 
L 38.28125 8.296875 
L 54.390625 8.296875 
L 54.390625 0 
L 12.40625 0 
z
" id="DejaVuSans-49"/>
       </defs>
       <use xlink:href="#DejaVuSans-50"/>
       <use x="63.623047" xlink:href="#DejaVuSans-48"/>
       <use x="127.246094" xlink:href="#DejaVuSans-50"/>
       <use x="190.869141" xlink:href="#DejaVuSans-48"/>
       <use x="254.492188" xlink:href="#DejaVuSans-45"/>
       <use x="290.576172" xlink:href="#DejaVuSans-48"/>
       <use x="354.199219" xlink:href="#DejaVuSans-49"/>
      </g>
     </g>
    </g>
    <g id="xtick_2">
     <g id="line2d_2">
      <g>
       <use style="stroke:#000000;stroke-width:0.8;" x="214.318804" xlink:href="#m790ff9f64f" y="460.8"/>
      </g>
     </g>
     <g id="text_2">
      <!-- 2020-04 -->
      <g transform="translate(169.64902 500.766215)rotate(-30)scale(0.12 -0.12)">
       <defs>
        <path d="M 37.796875 64.3125 
L 12.890625 25.390625 
L 37.796875 25.390625 
z
M 35.203125 72.90625 
L 47.609375 72.90625 
L 47.609375 25.390625 
L 58.015625 25.390625 
L 58.015625 17.1875 
L 47.609375 17.1875 
L 47.609375 0 
L 37.796875 0 
L 37.796875 17.1875 
L 4.890625 17.1875 
L 4.890625 26.703125 
z
" id="DejaVuSans-52"/>
       </defs>
       <use xlink:href="#DejaVuSans-50"/>
       <use x="63.623047" xlink:href="#DejaVuSans-48"/>
       <use x="127.246094" xlink:href="#DejaVuSans-50"/>
       <use x="190.869141" xlink:href="#DejaVuSans-48"/>
       <use x="254.492188" xlink:href="#DejaVuSans-45"/>
       <use x="290.576172" xlink:href="#DejaVuSans-48"/>
       <use x="354.199219" xlink:href="#DejaVuSans-52"/>
      </g>
     </g>
    </g>
    <g id="xtick_3">
     <g id="line2d_3">
      <g>
       <use style="stroke:#000000;stroke-width:0.8;" x="290.201245" xlink:href="#m790ff9f64f" y="460.8"/>
      </g>
     </g>
     <g id="text_3">
      <!-- 2020-07 -->
      <g transform="translate(245.53146 500.766215)rotate(-30)scale(0.12 -0.12)">
       <defs>
        <path d="M 8.203125 72.90625 
L 55.078125 72.90625 
L 55.078125 68.703125 
L 28.609375 0 
L 18.3125 0 
L 43.21875 64.59375 
L 8.203125 64.59375 
z
" id="DejaVuSans-55"/>
       </defs>
       <use xlink:href="#DejaVuSans-50"/>
       <use x="63.623047" xlink:href="#DejaVuSans-48"/>
       <use x="127.246094" xlink:href="#DejaVuSans-50"/>
       <use x="190.869141" xlink:href="#DejaVuSans-48"/>
       <use x="254.492188" xlink:href="#DejaVuSans-45"/>
       <use x="290.576172" xlink:href="#DejaVuSans-48"/>
       <use x="354.199219" xlink:href="#DejaVuSans-55"/>
      </g>
     </g>
    </g>
    <g id="xtick_4">
     <g id="line2d_4">
      <g>
       <use style="stroke:#000000;stroke-width:0.8;" x="366.917559" xlink:href="#m790ff9f64f" y="460.8"/>
      </g>
     </g>
     <g id="text_4">
      <!-- 2020-10 -->
      <g transform="translate(322.247774 500.766215)rotate(-30)scale(0.12 -0.12)">
       <use xlink:href="#DejaVuSans-50"/>
       <use x="63.623047" xlink:href="#DejaVuSans-48"/>
       <use x="127.246094" xlink:href="#DejaVuSans-50"/>
       <use x="190.869141" xlink:href="#DejaVuSans-48"/>
       <use x="254.492188" xlink:href="#DejaVuSans-45"/>
       <use x="290.576172" xlink:href="#DejaVuSans-49"/>
       <use x="354.199219" xlink:href="#DejaVuSans-48"/>
      </g>
     </g>
    </g>
    <g id="xtick_5">
     <g id="line2d_5">
      <g>
       <use style="stroke:#000000;stroke-width:0.8;" x="443.633873" xlink:href="#m790ff9f64f" y="460.8"/>
      </g>
     </g>
     <g id="text_5">
      <!-- 2021-01 -->
      <g transform="translate(398.964088 500.766215)rotate(-30)scale(0.12 -0.12)">
       <use xlink:href="#DejaVuSans-50"/>
       <use x="63.623047" xlink:href="#DejaVuSans-48"/>
       <use x="127.246094" xlink:href="#DejaVuSans-50"/>
       <use x="190.869141" xlink:href="#DejaVuSans-49"/>
       <use x="254.492188" xlink:href="#DejaVuSans-45"/>
       <use x="290.576172" xlink:href="#DejaVuSans-48"/>
       <use x="354.199219" xlink:href="#DejaVuSans-49"/>
      </g>
     </g>
    </g>
    <g id="xtick_6">
     <g id="line2d_6">
      <g>
       <use style="stroke:#000000;stroke-width:0.8;" x="518.682441" xlink:href="#m790ff9f64f" y="460.8"/>
      </g>
     </g>
     <g id="text_6">
      <!-- 2021-04 -->
      <g transform="translate(474.012656 500.766215)rotate(-30)scale(0.12 -0.12)">
       <use xlink:href="#DejaVuSans-50"/>
       <use x="63.623047" xlink:href="#DejaVuSans-48"/>
       <use x="127.246094" xlink:href="#DejaVuSans-50"/>
       <use x="190.869141" xlink:href="#DejaVuSans-49"/>
       <use x="254.492188" xlink:href="#DejaVuSans-45"/>
       <use x="290.576172" xlink:href="#DejaVuSans-48"/>
       <use x="354.199219" xlink:href="#DejaVuSans-52"/>
      </g>
     </g>
    </g>
    <g id="xtick_7">
     <g id="line2d_7">
      <g>
       <use style="stroke:#000000;stroke-width:0.8;" x="594.564882" xlink:href="#m790ff9f64f" y="460.8"/>
      </g>
     </g>
     <g id="text_7">
      <!-- 2021-07 -->
      <g transform="translate(549.895097 500.766215)rotate(-30)scale(0.12 -0.12)">
       <use xlink:href="#DejaVuSans-50"/>
       <use x="63.623047" xlink:href="#DejaVuSans-48"/>
       <use x="127.246094" xlink:href="#DejaVuSans-50"/>
       <use x="190.869141" xlink:href="#DejaVuSans-49"/>
       <use x="254.492188" xlink:href="#DejaVuSans-45"/>
       <use x="290.576172" xlink:href="#DejaVuSans-48"/>
       <use x="354.199219" xlink:href="#DejaVuSans-55"/>
      </g>
     </g>
    </g>
    <g id="xtick_8">
     <g id="line2d_8">
      <g>
       <use style="stroke:#000000;stroke-width:0.8;" x="671.281196" xlink:href="#m790ff9f64f" y="460.8"/>
      </g>
     </g>
     <g id="text_8">
      <!-- 2021-10 -->
      <g transform="translate(626.611411 500.766215)rotate(-30)scale(0.12 -0.12)">
       <use xlink:href="#DejaVuSans-50"/>
       <use x="63.623047" xlink:href="#DejaVuSans-48"/>
       <use x="127.246094" xlink:href="#DejaVuSans-50"/>
       <use x="190.869141" xlink:href="#DejaVuSans-49"/>
       <use x="254.492188" xlink:href="#DejaVuSans-45"/>
       <use x="290.576172" xlink:href="#DejaVuSans-49"/>
       <use x="354.199219" xlink:href="#DejaVuSans-48"/>
      </g>
     </g>
    </g>
    <g id="xtick_9">
     <g id="line2d_9">
      <g>
       <use style="stroke:#000000;stroke-width:0.8;" x="747.997509" xlink:href="#m790ff9f64f" y="460.8"/>
      </g>
     </g>
     <g id="text_9">
      <!-- 2022-01 -->
      <g transform="translate(703.327724 500.766215)rotate(-30)scale(0.12 -0.12)">
       <use xlink:href="#DejaVuSans-50"/>
       <use x="63.623047" xlink:href="#DejaVuSans-48"/>
       <use x="127.246094" xlink:href="#DejaVuSans-50"/>
       <use x="190.869141" xlink:href="#DejaVuSans-50"/>
       <use x="254.492188" xlink:href="#DejaVuSans-45"/>
       <use x="290.576172" xlink:href="#DejaVuSans-48"/>
       <use x="354.199219" xlink:href="#DejaVuSans-49"/>
      </g>
     </g>
    </g>
    <g id="text_10">
     <!-- Date -->
     <g transform="translate(424.873828 518.325146)scale(0.15 -0.15)">
      <defs>
       <path d="M 19.671875 64.796875 
L 19.671875 8.109375 
L 31.59375 8.109375 
Q 46.6875 8.109375 53.6875 14.9375 
Q 60.6875 21.78125 60.6875 36.53125 
Q 60.6875 51.171875 53.6875 57.984375 
Q 46.6875 64.796875 31.59375 64.796875 
z
M 9.8125 72.90625 
L 30.078125 72.90625 
Q 51.265625 72.90625 61.171875 64.09375 
Q 71.09375 55.28125 71.09375 36.53125 
Q 71.09375 17.671875 61.125 8.828125 
Q 51.171875 0 30.078125 0 
L 9.8125 0 
z
" id="DejaVuSans-68"/>
       <path d="M 34.28125 27.484375 
Q 23.390625 27.484375 19.1875 25 
Q 14.984375 22.515625 14.984375 16.5 
Q 14.984375 11.71875 18.140625 8.90625 
Q 21.296875 6.109375 26.703125 6.109375 
Q 34.1875 6.109375 38.703125 11.40625 
Q 43.21875 16.703125 43.21875 25.484375 
L 43.21875 27.484375 
z
M 52.203125 31.203125 
L 52.203125 0 
L 43.21875 0 
L 43.21875 8.296875 
Q 40.140625 3.328125 35.546875 0.953125 
Q 30.953125 -1.421875 24.3125 -1.421875 
Q 15.921875 -1.421875 10.953125 3.296875 
Q 6 8.015625 6 15.921875 
Q 6 25.140625 12.171875 29.828125 
Q 18.359375 34.515625 30.609375 34.515625 
L 43.21875 34.515625 
L 43.21875 35.40625 
Q 43.21875 41.609375 39.140625 45 
Q 35.0625 48.390625 27.6875 48.390625 
Q 23 48.390625 18.546875 47.265625 
Q 14.109375 46.140625 10.015625 43.890625 
L 10.015625 52.203125 
Q 14.9375 54.109375 19.578125 55.046875 
Q 24.21875 56 28.609375 56 
Q 40.484375 56 46.34375 49.84375 
Q 52.203125 43.703125 52.203125 31.203125 
z
" id="DejaVuSans-97"/>
       <path d="M 18.3125 70.21875 
L 18.3125 54.6875 
L 36.8125 54.6875 
L 36.8125 47.703125 
L 18.3125 47.703125 
L 18.3125 18.015625 
Q 18.3125 11.328125 20.140625 9.421875 
Q 21.96875 7.515625 27.59375 7.515625 
L 36.8125 7.515625 
L 36.8125 0 
L 27.59375 0 
Q 17.1875 0 13.234375 3.875 
Q 9.28125 7.765625 9.28125 18.015625 
L 9.28125 47.703125 
L 2.6875 47.703125 
L 2.6875 54.6875 
L 9.28125 54.6875 
L 9.28125 70.21875 
z
" id="DejaVuSans-116"/>
       <path d="M 56.203125 29.59375 
L 56.203125 25.203125 
L 14.890625 25.203125 
Q 15.484375 15.921875 20.484375 11.0625 
Q 25.484375 6.203125 34.421875 6.203125 
Q 39.59375 6.203125 44.453125 7.46875 
Q 49.3125 8.734375 54.109375 11.28125 
L 54.109375 2.78125 
Q 49.265625 0.734375 44.1875 -0.34375 
Q 39.109375 -1.421875 33.890625 -1.421875 
Q 20.796875 -1.421875 13.15625 6.1875 
Q 5.515625 13.8125 5.515625 26.8125 
Q 5.515625 40.234375 12.765625 48.109375 
Q 20.015625 56 32.328125 56 
Q 43.359375 56 49.78125 48.890625 
Q 56.203125 41.796875 56.203125 29.59375 
z
M 47.21875 32.234375 
Q 47.125 39.59375 43.09375 43.984375 
Q 39.0625 48.390625 32.421875 48.390625 
Q 24.90625 48.390625 20.390625 44.140625 
Q 15.875 39.890625 15.1875 32.171875 
z
" id="DejaVuSans-101"/>
      </defs>
      <use xlink:href="#DejaVuSans-68"/>
      <use x="77.001953" xlink:href="#DejaVuSans-97"/>
      <use x="138.28125" xlink:href="#DejaVuSans-116"/>
      <use x="177.490234" xlink:href="#DejaVuSans-101"/>
     </g>
    </g>
   </g>
   <g id="matplotlib.axis_2">
    <g id="ytick_1">
     <g id="line2d_10">
      <defs>
       <path d="M 0 0 
L -3.5 0 
" id="md838e4789b" style="stroke:#000000;stroke-width:0.8;"/>
      </defs>
      <g>
       <use style="stroke:#000000;stroke-width:0.8;" x="108" xlink:href="#md838e4789b" y="443.695559"/>
      </g>
     </g>
     <g id="text_11">
      <!-- 0 -->
      <g transform="translate(93.365 448.254622)scale(0.12 -0.12)">
       <use xlink:href="#DejaVuSans-48"/>
      </g>
     </g>
    </g>
    <g id="ytick_2">
     <g id="line2d_11">
      <g>
       <use style="stroke:#000000;stroke-width:0.8;" x="108" xlink:href="#md838e4789b" y="394.022035"/>
      </g>
     </g>
     <g id="text_12">
      <!-- 10 -->
      <g transform="translate(85.73 398.581098)scale(0.12 -0.12)">
       <use xlink:href="#DejaVuSans-49"/>
       <use x="63.623047" xlink:href="#DejaVuSans-48"/>
      </g>
     </g>
    </g>
    <g id="ytick_3">
     <g id="line2d_12">
      <g>
       <use style="stroke:#000000;stroke-width:0.8;" x="108" xlink:href="#md838e4789b" y="344.348511"/>
      </g>
     </g>
     <g id="text_13">
      <!-- 20 -->
      <g transform="translate(85.73 348.907574)scale(0.12 -0.12)">
       <use xlink:href="#DejaVuSans-50"/>
       <use x="63.623047" xlink:href="#DejaVuSans-48"/>
      </g>
     </g>
    </g>
    <g id="ytick_4">
     <g id="line2d_13">
      <g>
       <use style="stroke:#000000;stroke-width:0.8;" x="108" xlink:href="#md838e4789b" y="294.674987"/>
      </g>
     </g>
     <g id="text_14">
      <!-- 30 -->
      <g transform="translate(85.73 299.23405)scale(0.12 -0.12)">
       <defs>
        <path d="M 40.578125 39.3125 
Q 47.65625 37.796875 51.625 33 
Q 55.609375 28.21875 55.609375 21.1875 
Q 55.609375 10.40625 48.1875 4.484375 
Q 40.765625 -1.421875 27.09375 -1.421875 
Q 22.515625 -1.421875 17.65625 -0.515625 
Q 12.796875 0.390625 7.625 2.203125 
L 7.625 11.71875 
Q 11.71875 9.328125 16.59375 8.109375 
Q 21.484375 6.890625 26.8125 6.890625 
Q 36.078125 6.890625 40.9375 10.546875 
Q 45.796875 14.203125 45.796875 21.1875 
Q 45.796875 27.640625 41.28125 31.265625 
Q 36.765625 34.90625 28.71875 34.90625 
L 20.21875 34.90625 
L 20.21875 43.015625 
L 29.109375 43.015625 
Q 36.375 43.015625 40.234375 45.921875 
Q 44.09375 48.828125 44.09375 54.296875 
Q 44.09375 59.90625 40.109375 62.90625 
Q 36.140625 65.921875 28.71875 65.921875 
Q 24.65625 65.921875 20.015625 65.03125 
Q 15.375 64.15625 9.8125 62.3125 
L 9.8125 71.09375 
Q 15.4375 72.65625 20.34375 73.4375 
Q 25.25 74.21875 29.59375 74.21875 
Q 40.828125 74.21875 47.359375 69.109375 
Q 53.90625 64.015625 53.90625 55.328125 
Q 53.90625 49.265625 50.4375 45.09375 
Q 46.96875 40.921875 40.578125 39.3125 
z
" id="DejaVuSans-51"/>
       </defs>
       <use xlink:href="#DejaVuSans-51"/>
       <use x="63.623047" xlink:href="#DejaVuSans-48"/>
      </g>
     </g>
    </g>
    <g id="ytick_5">
     <g id="line2d_14">
      <g>
       <use style="stroke:#000000;stroke-width:0.8;" x="108" xlink:href="#md838e4789b" y="245.001463"/>
      </g>
     </g>
     <g id="text_15">
      <!-- 40 -->
      <g transform="translate(85.73 249.560526)scale(0.12 -0.12)">
       <use xlink:href="#DejaVuSans-52"/>
       <use x="63.623047" xlink:href="#DejaVuSans-48"/>
      </g>
     </g>
    </g>
    <g id="ytick_6">
     <g id="line2d_15">
      <g>
       <use style="stroke:#000000;stroke-width:0.8;" x="108" xlink:href="#md838e4789b" y="195.327939"/>
      </g>
     </g>
     <g id="text_16">
      <!-- 50 -->
      <g transform="translate(85.73 199.887002)scale(0.12 -0.12)">
       <defs>
        <path d="M 10.796875 72.90625 
L 49.515625 72.90625 
L 49.515625 64.59375 
L 19.828125 64.59375 
L 19.828125 46.734375 
Q 21.96875 47.46875 24.109375 47.828125 
Q 26.265625 48.1875 28.421875 48.1875 
Q 40.625 48.1875 47.75 41.5 
Q 54.890625 34.8125 54.890625 23.390625 
Q 54.890625 11.625 47.5625 5.09375 
Q 40.234375 -1.421875 26.90625 -1.421875 
Q 22.3125 -1.421875 17.546875 -0.640625 
Q 12.796875 0.140625 7.71875 1.703125 
L 7.71875 11.625 
Q 12.109375 9.234375 16.796875 8.0625 
Q 21.484375 6.890625 26.703125 6.890625 
Q 35.15625 6.890625 40.078125 11.328125 
Q 45.015625 15.765625 45.015625 23.390625 
Q 45.015625 31 40.078125 35.4375 
Q 35.15625 39.890625 26.703125 39.890625 
Q 22.75 39.890625 18.8125 39.015625 
Q 14.890625 38.140625 10.796875 36.28125 
z
" id="DejaVuSans-53"/>
       </defs>
       <use xlink:href="#DejaVuSans-53"/>
       <use x="63.623047" xlink:href="#DejaVuSans-48"/>
      </g>
     </g>
    </g>
    <g id="ytick_7">
     <g id="line2d_16">
      <g>
       <use style="stroke:#000000;stroke-width:0.8;" x="108" xlink:href="#md838e4789b" y="145.654415"/>
      </g>
     </g>
     <g id="text_17">
      <!-- 60 -->
      <g transform="translate(85.73 150.213478)scale(0.12 -0.12)">
       <defs>
        <path d="M 33.015625 40.375 
Q 26.375 40.375 22.484375 35.828125 
Q 18.609375 31.296875 18.609375 23.390625 
Q 18.609375 15.53125 22.484375 10.953125 
Q 26.375 6.390625 33.015625 6.390625 
Q 39.65625 6.390625 43.53125 10.953125 
Q 47.40625 15.53125 47.40625 23.390625 
Q 47.40625 31.296875 43.53125 35.828125 
Q 39.65625 40.375 33.015625 40.375 
z
M 52.59375 71.296875 
L 52.59375 62.3125 
Q 48.875 64.0625 45.09375 64.984375 
Q 41.3125 65.921875 37.59375 65.921875 
Q 27.828125 65.921875 22.671875 59.328125 
Q 17.53125 52.734375 16.796875 39.40625 
Q 19.671875 43.65625 24.015625 45.921875 
Q 28.375 48.1875 33.59375 48.1875 
Q 44.578125 48.1875 50.953125 41.515625 
Q 57.328125 34.859375 57.328125 23.390625 
Q 57.328125 12.15625 50.6875 5.359375 
Q 44.046875 -1.421875 33.015625 -1.421875 
Q 20.359375 -1.421875 13.671875 8.265625 
Q 6.984375 17.96875 6.984375 36.375 
Q 6.984375 53.65625 15.1875 63.9375 
Q 23.390625 74.21875 37.203125 74.21875 
Q 40.921875 74.21875 44.703125 73.484375 
Q 48.484375 72.75 52.59375 71.296875 
z
" id="DejaVuSans-54"/>
       </defs>
       <use xlink:href="#DejaVuSans-54"/>
       <use x="63.623047" xlink:href="#DejaVuSans-48"/>
      </g>
     </g>
    </g>
    <g id="ytick_8">
     <g id="line2d_17">
      <g>
       <use style="stroke:#000000;stroke-width:0.8;" x="108" xlink:href="#md838e4789b" y="95.980891"/>
      </g>
     </g>
     <g id="text_18">
      <!-- 70 -->
      <g transform="translate(85.73 100.539954)scale(0.12 -0.12)">
       <use xlink:href="#DejaVuSans-55"/>
       <use x="63.623047" xlink:href="#DejaVuSans-48"/>
      </g>
     </g>
    </g>
    <g id="text_19">
     <!-- PM25(micro-gram/m3) -->
     <g transform="translate(78.610469 349.562344)rotate(-90)scale(0.15 -0.15)">
      <defs>
       <path d="M 19.671875 64.796875 
L 19.671875 37.40625 
L 32.078125 37.40625 
Q 38.96875 37.40625 42.71875 40.96875 
Q 46.484375 44.53125 46.484375 51.125 
Q 46.484375 57.671875 42.71875 61.234375 
Q 38.96875 64.796875 32.078125 64.796875 
z
M 9.8125 72.90625 
L 32.078125 72.90625 
Q 44.34375 72.90625 50.609375 67.359375 
Q 56.890625 61.8125 56.890625 51.125 
Q 56.890625 40.328125 50.609375 34.8125 
Q 44.34375 29.296875 32.078125 29.296875 
L 19.671875 29.296875 
L 19.671875 0 
L 9.8125 0 
z
" id="DejaVuSans-80"/>
       <path d="M 9.8125 72.90625 
L 24.515625 72.90625 
L 43.109375 23.296875 
L 61.8125 72.90625 
L 76.515625 72.90625 
L 76.515625 0 
L 66.890625 0 
L 66.890625 64.015625 
L 48.09375 14.015625 
L 38.1875 14.015625 
L 19.390625 64.015625 
L 19.390625 0 
L 9.8125 0 
z
" id="DejaVuSans-77"/>
       <path d="M 31 75.875 
Q 24.46875 64.65625 21.28125 53.65625 
Q 18.109375 42.671875 18.109375 31.390625 
Q 18.109375 20.125 21.3125 9.0625 
Q 24.515625 -2 31 -13.1875 
L 23.1875 -13.1875 
Q 15.875 -1.703125 12.234375 9.375 
Q 8.59375 20.453125 8.59375 31.390625 
Q 8.59375 42.28125 12.203125 53.3125 
Q 15.828125 64.359375 23.1875 75.875 
z
" id="DejaVuSans-40"/>
       <path d="M 52 44.1875 
Q 55.375 50.25 60.0625 53.125 
Q 64.75 56 71.09375 56 
Q 79.640625 56 84.28125 50.015625 
Q 88.921875 44.046875 88.921875 33.015625 
L 88.921875 0 
L 79.890625 0 
L 79.890625 32.71875 
Q 79.890625 40.578125 77.09375 44.375 
Q 74.3125 48.1875 68.609375 48.1875 
Q 61.625 48.1875 57.5625 43.546875 
Q 53.515625 38.921875 53.515625 30.90625 
L 53.515625 0 
L 44.484375 0 
L 44.484375 32.71875 
Q 44.484375 40.625 41.703125 44.40625 
Q 38.921875 48.1875 33.109375 48.1875 
Q 26.21875 48.1875 22.15625 43.53125 
Q 18.109375 38.875 18.109375 30.90625 
L 18.109375 0 
L 9.078125 0 
L 9.078125 54.6875 
L 18.109375 54.6875 
L 18.109375 46.1875 
Q 21.1875 51.21875 25.484375 53.609375 
Q 29.78125 56 35.6875 56 
Q 41.65625 56 45.828125 52.96875 
Q 50 49.953125 52 44.1875 
z
" id="DejaVuSans-109"/>
       <path d="M 9.421875 54.6875 
L 18.40625 54.6875 
L 18.40625 0 
L 9.421875 0 
z
M 9.421875 75.984375 
L 18.40625 75.984375 
L 18.40625 64.59375 
L 9.421875 64.59375 
z
" id="DejaVuSans-105"/>
       <path d="M 48.78125 52.59375 
L 48.78125 44.1875 
Q 44.96875 46.296875 41.140625 47.34375 
Q 37.3125 48.390625 33.40625 48.390625 
Q 24.65625 48.390625 19.8125 42.84375 
Q 14.984375 37.3125 14.984375 27.296875 
Q 14.984375 17.28125 19.8125 11.734375 
Q 24.65625 6.203125 33.40625 6.203125 
Q 37.3125 6.203125 41.140625 7.25 
Q 44.96875 8.296875 48.78125 10.40625 
L 48.78125 2.09375 
Q 45.015625 0.34375 40.984375 -0.53125 
Q 36.96875 -1.421875 32.421875 -1.421875 
Q 20.0625 -1.421875 12.78125 6.34375 
Q 5.515625 14.109375 5.515625 27.296875 
Q 5.515625 40.671875 12.859375 48.328125 
Q 20.21875 56 33.015625 56 
Q 37.15625 56 41.109375 55.140625 
Q 45.0625 54.296875 48.78125 52.59375 
z
" id="DejaVuSans-99"/>
       <path d="M 41.109375 46.296875 
Q 39.59375 47.171875 37.8125 47.578125 
Q 36.03125 48 33.890625 48 
Q 26.265625 48 22.1875 43.046875 
Q 18.109375 38.09375 18.109375 28.8125 
L 18.109375 0 
L 9.078125 0 
L 9.078125 54.6875 
L 18.109375 54.6875 
L 18.109375 46.1875 
Q 20.953125 51.171875 25.484375 53.578125 
Q 30.03125 56 36.53125 56 
Q 37.453125 56 38.578125 55.875 
Q 39.703125 55.765625 41.0625 55.515625 
z
" id="DejaVuSans-114"/>
       <path d="M 30.609375 48.390625 
Q 23.390625 48.390625 19.1875 42.75 
Q 14.984375 37.109375 14.984375 27.296875 
Q 14.984375 17.484375 19.15625 11.84375 
Q 23.34375 6.203125 30.609375 6.203125 
Q 37.796875 6.203125 41.984375 11.859375 
Q 46.1875 17.53125 46.1875 27.296875 
Q 46.1875 37.015625 41.984375 42.703125 
Q 37.796875 48.390625 30.609375 48.390625 
z
M 30.609375 56 
Q 42.328125 56 49.015625 48.375 
Q 55.71875 40.765625 55.71875 27.296875 
Q 55.71875 13.875 49.015625 6.21875 
Q 42.328125 -1.421875 30.609375 -1.421875 
Q 18.84375 -1.421875 12.171875 6.21875 
Q 5.515625 13.875 5.515625 27.296875 
Q 5.515625 40.765625 12.171875 48.375 
Q 18.84375 56 30.609375 56 
z
" id="DejaVuSans-111"/>
       <path d="M 45.40625 27.984375 
Q 45.40625 37.75 41.375 43.109375 
Q 37.359375 48.484375 30.078125 48.484375 
Q 22.859375 48.484375 18.828125 43.109375 
Q 14.796875 37.75 14.796875 27.984375 
Q 14.796875 18.265625 18.828125 12.890625 
Q 22.859375 7.515625 30.078125 7.515625 
Q 37.359375 7.515625 41.375 12.890625 
Q 45.40625 18.265625 45.40625 27.984375 
z
M 54.390625 6.78125 
Q 54.390625 -7.171875 48.1875 -13.984375 
Q 42 -20.796875 29.203125 -20.796875 
Q 24.46875 -20.796875 20.265625 -20.09375 
Q 16.0625 -19.390625 12.109375 -17.921875 
L 12.109375 -9.1875 
Q 16.0625 -11.328125 19.921875 -12.34375 
Q 23.78125 -13.375 27.78125 -13.375 
Q 36.625 -13.375 41.015625 -8.765625 
Q 45.40625 -4.15625 45.40625 5.171875 
L 45.40625 9.625 
Q 42.625 4.78125 38.28125 2.390625 
Q 33.9375 0 27.875 0 
Q 17.828125 0 11.671875 7.65625 
Q 5.515625 15.328125 5.515625 27.984375 
Q 5.515625 40.671875 11.671875 48.328125 
Q 17.828125 56 27.875 56 
Q 33.9375 56 38.28125 53.609375 
Q 42.625 51.21875 45.40625 46.390625 
L 45.40625 54.6875 
L 54.390625 54.6875 
z
" id="DejaVuSans-103"/>
       <path d="M 25.390625 72.90625 
L 33.6875 72.90625 
L 8.296875 -9.28125 
L 0 -9.28125 
z
" id="DejaVuSans-47"/>
       <path d="M 8.015625 75.875 
L 15.828125 75.875 
Q 23.140625 64.359375 26.78125 53.3125 
Q 30.421875 42.28125 30.421875 31.390625 
Q 30.421875 20.453125 26.78125 9.375 
Q 23.140625 -1.703125 15.828125 -13.1875 
L 8.015625 -13.1875 
Q 14.5 -2 17.703125 9.0625 
Q 20.90625 20.125 20.90625 31.390625 
Q 20.90625 42.671875 17.703125 53.65625 
Q 14.5 64.65625 8.015625 75.875 
z
" id="DejaVuSans-41"/>
      </defs>
      <use xlink:href="#DejaVuSans-80"/>
      <use x="60.302734" xlink:href="#DejaVuSans-77"/>
      <use x="146.582031" xlink:href="#DejaVuSans-50"/>
      <use x="210.205078" xlink:href="#DejaVuSans-53"/>
      <use x="273.828125" xlink:href="#DejaVuSans-40"/>
      <use x="312.841797" xlink:href="#DejaVuSans-109"/>
      <use x="410.253906" xlink:href="#DejaVuSans-105"/>
      <use x="438.037109" xlink:href="#DejaVuSans-99"/>
      <use x="493.017578" xlink:href="#DejaVuSans-114"/>
      <use x="531.880859" xlink:href="#DejaVuSans-111"/>
      <use x="594.9375" xlink:href="#DejaVuSans-45"/>
      <use x="631.021484" xlink:href="#DejaVuSans-103"/>
      <use x="694.498047" xlink:href="#DejaVuSans-114"/>
      <use x="735.611328" xlink:href="#DejaVuSans-97"/>
      <use x="796.890625" xlink:href="#DejaVuSans-109"/>
      <use x="894.302734" xlink:href="#DejaVuSans-47"/>
      <use x="927.994141" xlink:href="#DejaVuSans-109"/>
      <use x="1025.40625" xlink:href="#DejaVuSans-51"/>
      <use x="1089.029297" xlink:href="#DejaVuSans-41"/>
     </g>
    </g>
   </g>
   <g id="line2d_18">
    <path clip-path="url(#p45edd958eb)" d="M 138.436364 308.956125 
L 139.270237 299.416551 
L 140.10411 269.424279 
L 140.937983 244.79449 
L 141.771856 334.827753 
L 142.605729 355.525054 
L 143.439601 324.479102 
L 144.273474 329.8604 
L 145.107347 332.137103 
L 145.94122 302.332989 
L 146.775093 267.975468 
L 147.608966 328.204616 
L 148.442839 307.714287 
L 149.276712 304.816665 
L 150.110585 294.22341 
L 150.944458 278.531092 
L 151.778331 330.067373 
L 152.612204 327.169751 
L 153.446077 266.319684 
L 154.27995 307.714287 
L 155.113823 274.184659 
L 155.947696 278.117146 
L 157.615442 337.725375 
L 158.449315 352.420459 
L 159.283188 386.77798 
L 160.117061 400.645172 
L 160.950934 385.950088 
L 161.784807 335.241699 
L 162.61868 317.235046 
L 163.452553 295.803931 
L 164.286426 316.614127 
L 165.120299 314.130451 
L 165.954172 304.609692 
L 166.788045 353.86927 
L 167.621918 378.894189 
L 168.455791 359.043596 
L 169.289664 322.823318 
L 170.123537 397.74755 
L 170.95741 368.771327 
L 171.791283 335.862618 
L 172.625156 295.502879 
L 173.459029 280.600822 
L 174.292902 363.803975 
L 175.126775 375.601437 
L 175.960648 360.492407 
L 176.794521 423.205231 
L 177.628394 383.880358 
L 178.462267 387.110936 
L 179.296139 360.69938 
L 180.130012 354.697162 
L 180.963885 361.113326 
L 181.797758 284.53331 
L 182.631631 337.932348 
L 183.465504 330.688292 
L 184.299377 330.688292 
L 185.13325 338.026426 
L 185.967123 366.701597 
L 186.800996 353.810135 
L 187.634869 351.385594 
L 188.468742 328.411589 
L 189.302615 349.315864 
L 190.136488 358.422676 
L 190.970361 379.983866 
L 191.804234 394.229008 
L 192.638107 342.071808 
L 193.47198 298.814448 
L 194.305853 340.82997 
L 195.139726 368.771327 
L 195.973599 368.150408 
L 196.807472 343.313646 
L 197.641345 296.951691 
L 198.475218 211.678808 
L 199.309091 355.318081 
L 200.142964 271.080063 
L 200.976837 318.476884 
L 201.81071 314.328425 
L 202.644583 298.193529 
L 203.478456 324.686075 
L 204.312329 239.206219 
L 205.146202 280.807795 
L 205.980075 299.849313 
L 206.813948 333.171968 
L 207.647821 324.911045 
L 208.481694 356.766892 
L 209.315567 330.067373 
L 210.14944 345.590349 
L 210.983313 347.039161 
L 211.817186 392.98717 
L 212.651059 366.90857 
L 213.484932 348.074026 
L 214.318804 351.79954 
L 215.152677 353.248351 
L 216.820423 358.62965 
L 217.654296 383.673385 
L 218.488169 372.082896 
L 219.322042 340.058525 
L 220.155915 325.513967 
L 220.989788 354.697162 
L 221.823661 348.694945 
L 222.657534 311.439802 
L 223.491407 385.536142 
L 224.32528 350.143756 
L 225.159153 323.030291 
L 225.993026 260.938386 
L 226.826899 324.065156 
L 227.660772 358.215703 
L 228.494645 329.032508 
L 230.162391 383.007471 
L 230.996264 385.122196 
L 231.830137 398.782415 
L 232.66401 365.459759 
L 233.497883 324.272129 
L 234.331756 271.287036 
L 235.165629 96.394837 
L 235.999502 182.495612 
L 236.833375 330.895265 
L 237.667248 341.243916 
L 238.501121 332.964995 
L 239.334994 369.806192 
L 240.168867 376.015383 
L 241.00274 388.433764 
L 241.836613 396.091766 
L 242.670486 407.41229 
L 243.504359 402.300956 
L 244.338232 407.682254 
L 245.172105 414.719337 
L 246.005978 413.063553 
L 246.839851 409.751985 
L 247.673724 380.982735 
L 248.507597 302.953908 
L 249.341469 263.008116 
L 250.175342 353.041378 
L 251.009215 379.533924 
L 251.843088 398.161496 
L 252.676961 402.507929 
L 253.510834 393.194143 
L 254.344707 390.91744 
L 255.17858 394.022035 
L 256.012453 382.638519 
L 256.846326 355.939 
L 257.680199 408.924093 
L 258.514072 408.0962 
L 259.347945 401.059118 
L 260.181818 373.531707 
L 261.015691 300.677205 
L 261.849564 318.476884 
L 262.683437 380.775762 
L 263.51731 404.163713 
L 264.351183 411.947698 
L 265.185056 409.545012 
L 266.018929 413.027558 
L 266.852802 414.098418 
L 267.686675 410.435895 
L 268.520548 411.407769 
L 269.354421 382.0176 
L 270.188294 389.261656 
L 271.022167 393.815062 
L 271.85604 395.0569 
L 272.689913 406.854362 
L 273.523786 421.018516 
L 274.357659 416.375121 
L 275.191532 407.682254 
L 276.025405 422.791285 
L 276.859278 410.993823 
L 277.693151 420.890896 
L 278.527024 412.442634 
L 279.360897 414.92631 
L 280.19477 414.098418 
L 281.862516 426.309826 
L 282.696389 416.99604 
L 283.530262 414.755332 
L 284.364134 408.71712 
L 285.198007 412.85658 
L 286.03188 415.754202 
L 286.865753 416.168148 
L 287.699626 419.06577 
L 288.533499 419.272743 
L 289.367372 418.237878 
L 290.201245 427.137718 
L 291.035118 422.098375 
L 291.868991 409.545012 
L 292.702864 408.71712 
L 293.536737 413.891445 
L 294.37061 413.891445 
L 295.204483 414.305391 
L 296.038356 406.02647 
L 296.872229 403.335821 
L 297.706102 407.889227 
L 298.539975 402.507929 
L 299.373848 417.409986 
L 300.207721 406.647389 
L 301.041594 408.71712 
L 301.875467 406.233443 
L 302.70934 422.098375 
L 303.543213 422.791285 
L 304.377086 425.89588 
L 305.210959 425.067988 
L 306.044832 420.3706 
L 306.878705 413.063553 
L 307.712578 420.307608 
L 308.546451 420.100635 
L 309.380324 414.719337 
L 310.214197 416.168148 
L 311.04807 421.963393 
L 311.881943 420.307608 
L 312.715816 422.377339 
L 313.549689 415.754202 
L 315.217435 427.551664 
L 316.051308 429.976205 
L 316.885181 432.814692 
L 317.719054 429.000475 
L 318.552927 426.102853 
L 319.3868 420.928528 
L 320.220672 420.100635 
L 321.888418 420.514582 
L 322.722291 423.412204 
L 323.556164 418.444851 
L 325.22391 416.267135 
L 326.057783 407.475281 
L 326.891656 405.036599 
L 327.725529 418.651824 
L 328.559402 407.889227 
L 329.393275 404.163713 
L 330.227148 388.019818 
L 331.061021 420.514582 
L 331.894894 409.545012 
L 332.728767 325.513967 
L 333.56264 313.095586 
L 334.396513 377.671167 
L 335.230386 376.636302 
L 336.064259 389.261656 
L 336.898132 394.229008 
L 337.732005 360.978343 
L 338.565878 311.646775 
L 339.399751 311.646775 
L 340.233624 305.437584 
L 341.067497 350.350729 
L 343.569116 247.692113 
L 344.402989 338.139321 
L 345.236862 374.378415 
L 346.070735 377.464194 
L 346.904608 413.270526 
L 347.738481 418.444851 
L 348.572354 411.614742 
L 349.406227 408.71712 
L 350.2401 414.92631 
L 351.073973 395.677819 
L 351.907846 379.533924 
L 352.741719 396.298739 
L 353.575592 422.584312 
L 354.409465 431.070205 
L 355.243337 417.131023 
L 356.07721 425.274961 
L 356.911083 423.205231 
L 357.744956 430.242313 
L 358.578829 426.723772 
L 359.412702 397.74755 
L 360.246575 397.693557 
L 361.080448 349.108891 
L 361.914321 342.836708 
L 363.582067 386.364034 
L 364.41594 365.045813 
L 365.249813 403.128848 
L 366.083686 405.198578 
L 366.917559 375.601437 
L 367.751432 362.148191 
L 368.585305 368.150408 
L 369.419178 342.071808 
L 370.253051 353.248351 
L 371.086924 335.655645 
L 371.920797 354.71516 
L 372.75467 349.315864 
L 373.588543 305.644557 
L 374.422416 278.324119 
L 375.256289 305.023638 
L 376.090162 303.574827 
L 376.924035 400.438199 
L 377.757908 376.518032 
L 378.591781 376.429329 
L 379.425654 336.483537 
L 380.259527 322.409372 
L 381.0934 333.792887 
L 381.927273 339.381159 
L 382.761146 325.342989 
L 383.595019 315.372289 
L 384.428892 323.237264 
L 385.262765 315.786235 
L 386.096638 297.779583 
L 386.930511 295.295906 
L 387.764384 339.381159 
L 388.598257 345.176403 
L 389.43213 339.588132 
L 390.266002 290.7425 
L 391.099875 261.733598 
L 391.933748 321.995426 
L 392.767621 302.746935 
L 393.601494 222.855351 
L 394.435367 293.019203 
L 395.26924 266.319684 
L 396.103113 345.428371 
L 396.936986 220.164701 
L 397.770859 244.587517 
L 398.604732 243.138706 
L 399.438605 276.668335 
L 400.272478 264.870873 
L 401.106351 310.61191 
L 401.940224 324.686075 
L 402.774097 318.269911 
L 403.60797 310.197964 
L 404.441843 307.507314 
L 405.275716 319.097803 
L 406.109589 382.638519 
L 406.943462 379.33595 
L 407.777335 377.050248 
L 408.611208 366.90857 
L 409.445081 366.90857 
L 410.278954 360.492407 
L 411.112827 325.306994 
L 411.9467 268.80336 
L 412.780573 306.058503 
L 413.614446 277.082281 
L 414.448319 309.990991 
L 416.116065 340.82997 
L 416.949938 335.359969 
L 417.783811 297.986556 
L 418.617684 295.295906 
L 419.451557 299.858312 
L 420.28543 300.056286 
L 421.119303 255.557087 
L 421.953176 191.188479 
L 422.787049 165.523825 
L 423.620922 229.478487 
L 424.454795 193.879128 
L 425.288667 199.881346 
L 426.12254 212.920646 
L 426.956413 177.618248 
L 427.790286 320.296068 
L 428.624159 296.123798 
L 429.458032 365.459759 
L 430.291905 323.399243 
L 431.125778 312.68164 
L 431.959651 314.544397 
L 432.793524 291.156446 
L 433.627397 241.896868 
L 434.46127 183.944423 
L 435.295143 180.218909 
L 436.129016 180.839828 
L 436.962889 264.870873 
L 437.796762 242.517787 
L 438.630635 330.688292 
L 439.464508 219.957728 
L 440.298381 298.607475 
L 441.132254 280.204874 
L 441.966127 361.320299 
L 442.8 341.036943 
L 443.633873 339.933087 
L 444.467746 323.444237 
L 445.301619 264.042981 
L 446.135492 255.557087 
L 446.969365 187.255992 
L 447.803238 252.866438 
L 448.637111 184.565342 
L 449.470984 280.393849 
L 450.304857 347.246134 
L 451.13873 319.097803 
L 451.972603 311.853748 
L 452.806476 266.112711 
L 453.640349 252.245519 
L 454.474222 205.262644 
L 455.308095 246.450274 
L 456.141968 273.977686 
L 456.975841 169.663285 
L 458.643587 263.064563 
L 459.47746 326.755805 
L 460.311333 220.371674 
L 461.145205 220.992593 
L 461.979078 192.392686 
L 462.812951 220.78562 
L 463.646824 298.814448 
L 464.480697 196.983723 
L 465.31457 243.552652 
L 466.148443 229.667462 
L 466.982316 343.313646 
L 467.816189 309.990991 
L 468.650062 365.252786 
L 469.483935 363.390029 
L 470.317808 299.849313 
L 471.151681 320.132668 
L 471.985554 337.311429 
L 472.819427 345.383376 
L 473.6533 306.058503 
L 474.487173 298.400502 
L 476.154919 322.319383 
L 476.988792 405.612524 
L 478.656538 339.795105 
L 480.324284 326.755805 
L 481.158157 299.021421 
L 481.99203 327.997643 
L 482.825903 340.622997 
L 483.659776 308.542179 
L 484.493649 326.755805 
L 486.161395 285.361202 
L 486.995268 293.226176 
L 487.829141 314.130451 
L 488.663014 348.280999 
L 489.496887 372.208879 
L 490.33076 365.666732 
L 491.164633 317.028073 
L 491.998506 350.350729 
L 492.832379 348.074026 
L 493.666252 362.148191 
L 494.500125 356.766892 
L 495.333998 292.398284 
L 496.16787 255.350114 
L 497.001743 318.062938 
L 497.835616 329.239481 
L 498.669489 373.531707 
L 499.503362 319.511749 
L 500.337235 336.069591 
L 501.171108 371.048031 
L 502.004981 311.439802 
L 502.838854 331.93013 
L 503.672727 307.093368 
L 504.5066 347.66008 
L 505.340473 325.306994 
L 506.174346 334.206834 
L 507.842092 376.429329 
L 508.675965 363.803975 
L 509.509838 330.274346 
L 510.343711 314.337424 
L 511.177584 273.56374 
L 512.011457 180.641854 
L 512.84533 224.718108 
L 513.679203 372.082896 
L 514.513076 341.657862 
L 515.346949 344.762457 
L 516.180822 392.366251 
L 517.014695 396.712685 
L 519.516314 381.603654 
L 520.350187 384.294304 
L 521.18406 294.674987 
L 522.017933 317.028073 
L 522.851806 286.60304 
L 523.685679 358.386681 
L 525.353425 348.487972 
L 526.187298 354.697162 
L 527.021171 374.566572 
L 527.855044 382.431546 
L 528.688917 386.571007 
L 529.52279 376.843275 
L 530.356663 385.536142 
L 531.190535 370.220138 
L 532.024408 328.411589 
L 532.858281 273.977686 
L 533.692154 321.88744 
L 534.526027 358.215703 
L 535.3599 350.557702 
L 536.193773 344.555484 
L 537.027646 331.516184 
L 537.861519 372.496842 
L 538.695392 366.287651 
L 539.529265 389.261656 
L 540.363138 401.473064 
L 541.197011 367.529489 
L 542.030884 350.557702 
L 542.864757 341.450889 
L 543.69863 337.518402 
L 544.532503 354.904135 
L 545.366376 376.015383 
L 546.200249 381.063725 
L 547.034122 313.302559 
L 547.867995 348.88392 
L 548.701868 362.976083 
L 549.535741 373.117761 
L 550.369614 391.331386 
L 551.203487 413.891445 
L 552.03736 407.682254 
L 552.871233 389.054683 
L 553.705106 381.603654 
L 555.372852 390.503494 
L 556.206725 403.335821 
L 557.040598 402.714902 
L 557.874471 396.919658 
L 558.708344 398.575442 
L 559.542217 403.505163 
L 560.37609 420.154628 
L 561.209963 412.649607 
L 562.043836 428.793502 
L 562.877709 415.547229 
L 563.711582 419.272743 
L 564.545455 415.133283 
L 565.379328 425.274961 
L 566.2132 420.100635 
L 567.047073 419.272743 
L 568.714819 391.538359 
L 569.548692 407.268308 
L 570.382565 400.231226 
L 571.216438 401.365078 
L 572.050311 378.085113 
L 573.718057 288.67277 
L 574.55193 378.085113 
L 575.385803 383.052465 
L 576.219676 419.272743 
L 577.053549 424.240096 
L 577.887422 421.75642 
L 578.721295 424.861015 
L 579.555168 422.170366 
L 580.389041 408.0962 
L 581.222914 404.577659 
L 582.056787 390.089548 
L 582.89066 392.366251 
L 583.724533 398.557444 
L 584.558406 388.433764 
L 585.392279 376.843275 
L 586.226152 375.394464 
L 587.060025 396.712685 
L 587.893898 402.507929 
L 588.727771 409.131066 
L 589.561644 397.860444 
L 590.395517 381.810627 
L 591.22939 382.845492 
L 592.063263 382.431546 
L 592.897136 374.359599 
L 593.731009 379.326951 
L 594.564882 386.031077 
L 595.398755 373.531707 
L 596.232628 381.396681 
L 597.066501 395.884793 
L 597.900374 420.307608 
L 598.734247 429.207448 
L 599.56812 419.272743 
L 600.401993 418.237878 
L 601.235866 397.126631 
L 602.069738 423.412204 
L 602.903611 426.516799 
L 603.737484 421.135501 
L 604.571357 412.85658 
L 605.40523 415.961175 
L 606.239103 422.530319 
L 607.072976 409.338039 
L 607.906849 389.054683 
L 608.740722 420.514582 
L 609.574595 435.830585 
L 611.242341 419.686689 
L 612.076214 394.642954 
L 612.910087 358.00873 
L 613.74396 309.577045 
L 615.411706 384.501277 
L 616.245579 298.193529 
L 617.079452 350.143756 
L 617.913325 386.678993 
L 618.747198 406.233443 
L 619.581071 389.468629 
L 620.414944 393.608089 
L 621.248817 368.357381 
L 622.08269 414.098418 
L 622.916563 342.278781 
L 623.750436 345.797322 
L 625.418182 349.315864 
L 626.252055 371.66895 
L 627.085928 379.94787 
L 627.919801 381.810627 
L 628.753674 398.575442 
L 629.587547 407.844233 
L 630.42142 398.782415 
L 631.255293 401.88701 
L 632.089166 414.719337 
L 632.923039 413.891445 
L 633.756912 398.989388 
L 634.590785 402.921875 
L 635.424658 399.610307 
L 636.258531 411.821715 
L 637.092403 404.784632 
L 637.926276 416.99604 
L 638.760149 417.409986 
L 639.594022 419.686689 
L 640.427895 422.377339 
L 641.261768 419.074769 
L 642.095641 417.616959 
L 642.929514 410.855841 
L 643.763387 405.405551 
L 644.59726 410.165931 
L 645.431133 380.775762 
L 646.265006 419.893662 
L 647.098879 428.172583 
L 648.766625 428.586529 
L 649.600498 429.621394 
L 650.434371 413.063553 
L 651.268244 403.505163 
L 652.102117 414.92631 
L 652.93599 363.390029 
L 653.769863 385.536142 
L 654.603736 386.984953 
L 655.437609 336.276564 
L 656.271482 364.217921 
L 657.105355 404.991605 
L 657.939228 387.398899 
L 658.773101 383.673385 
L 659.606974 343.313646 
L 660.440847 346.832188 
L 661.27472 422.584312 
L 662.108593 417.409986 
L 662.942466 405.198578 
L 663.776339 426.102853 
L 664.610212 425.985868 
L 665.444085 413.270526 
L 667.111831 358.215703 
L 668.779577 312.68164 
L 669.61345 303.367854 
L 670.447323 282.877525 
L 671.281196 290.7425 
L 672.115068 361.941218 
L 672.948941 391.764148 
L 673.782814 373.324734 
L 674.616687 379.119978 
L 675.45056 365.459759 
L 676.284433 395.0569 
L 677.118306 435.056686 
L 677.952179 426.309826 
L 678.786052 412.235661 
L 679.619925 334.827753 
L 680.453798 387.398899 
L 681.287671 416.789067 
L 682.121544 392.159278 
L 682.955417 352.627432 
L 684.623163 397.74755 
L 685.457036 342.8997 
L 686.290909 330.156076 
L 687.124782 377.050248 
L 687.958655 399.853275 
L 688.792528 393.401116 
L 689.626401 335.241699 
L 690.460274 375.394464 
L 691.294147 355.318081 
L 692.12802 291.570392 
L 692.961893 323.65121 
L 693.795766 322.616345 
L 694.629639 316.8211 
L 695.463512 285.361202 
L 696.297385 303.988773 
L 697.131258 299.228394 
L 697.965131 357.180838 
L 698.799004 318.683857 
L 699.632877 345.767755 
L 700.46675 359.043596 
L 701.300623 377.464194 
L 702.134496 390.089548 
L 702.968369 400.438199 
L 703.802242 373.463406 
L 704.636115 371.977339 
L 705.469988 353.041378 
L 706.303861 324.479102 
L 707.137733 321.995426 
L 707.971606 332.758022 
L 708.805479 324.479102 
L 709.639352 261.631295 
L 710.473225 238.5853 
L 711.307098 317.648992 
L 712.140971 261.352332 
L 712.974844 349.315864 
L 713.808717 355.939 
L 714.64259 375.187491 
L 715.476463 316.200181 
L 716.310336 293.847095 
L 717.144209 256.384979 
L 717.978082 290.121581 
L 718.811955 302.332989 
L 719.645828 274.184659 
L 720.479701 277.289254 
L 721.313574 270.459144 
L 722.147447 340.416024 
L 722.98132 341.864835 
L 723.815193 352.627432 
L 724.649066 352.006513 
L 725.482939 297.158664 
L 726.316812 299.849313 
L 727.150685 297.57261 
L 727.984558 340.002078 
L 728.818431 306.265476 
L 730.486177 334.413807 
L 732.153923 134.684845 
L 733.821669 301.298124 
L 734.655542 338.76024 
L 735.489415 334.413807 
L 736.323288 237.964381 
L 737.157161 270.045198 
L 737.991034 317.855965 
L 738.824907 391.124413 
L 739.65878 322.823318 
L 740.492653 296.537744 
L 741.326526 121.438572 
L 742.160399 246.657247 
L 742.994271 273.770713 
L 743.828144 327.376724 
L 745.49589 206.918428 
L 746.329763 287.115973 
L 747.163636 276.668335 
L 747.163636 276.668335 
" style="fill:none;stroke:#1f77b4;stroke-linecap:square;stroke-width:1.5;"/>
   </g>
   <g id="line2d_19">
    <path clip-path="url(#p45edd958eb)" d="M 138.436364 275.98064 
L 139.270237 270.55099 
L 140.10411 250.123193 
L 140.937983 268.967408 
L 141.771856 309.860151 
L 142.605729 317.044976 
L 143.439601 307.571886 
L 144.273474 261.334564 
L 145.107347 336.364591 
L 145.94122 259.291773 
L 146.775093 201.031458 
L 147.608966 243.479863 
L 148.442839 192.202254 
L 149.276712 280.306532 
L 150.110585 276.143733 
L 150.944458 237.867583 
L 151.778331 277.061923 
L 152.612204 295.011293 
L 153.446077 241.71708 
L 154.27995 323.719325 
L 155.113823 257.204793 
L 155.947696 210.376244 
L 156.781569 293.788376 
L 157.615442 290.412242 
L 158.449315 261.25134 
L 159.283188 262.529257 
L 160.117061 360.795505 
L 160.950934 341.473066 
L 161.784807 336.745721 
L 162.61868 298.224011 
L 163.452553 254.078918 
L 164.286426 291.227094 
L 165.120299 205.617861 
L 165.954172 218.746941 
L 166.788045 199.068708 
L 168.455791 301.881906 
L 169.289664 213.45956 
L 170.123537 300.428655 
L 170.95741 375.23795 
L 171.791283 237.190973 
L 172.625156 201.631799 
L 173.459029 210.904048 
L 174.292902 316.780344 
L 175.126775 338.010165 
L 175.960648 254.219557 
L 176.794521 373.619781 
L 177.628394 365.210348 
L 178.462267 328.094381 
L 179.296139 185.879787 
L 180.130012 305.529322 
L 180.963885 329.078494 
L 181.797758 297.174069 
L 182.631631 333.8215 
L 183.465504 326.719369 
L 184.299377 301.518503 
L 185.13325 288.749519 
L 185.967123 322.200586 
L 186.800996 270.616061 
L 187.634869 281.35962 
L 188.468742 285.64933 
L 189.302615 215.390154 
L 190.136488 303.566638 
L 190.970361 224.013516 
L 191.804234 245.008001 
L 192.638107 283.207389 
L 193.47198 240.07523 
L 194.305853 224.49518 
L 195.139726 310.833464 
L 195.973599 329.544041 
L 196.807472 278.541609 
L 197.641345 280.586996 
L 198.475218 230.727109 
L 199.309091 323.812061 
L 200.142964 276.738332 
L 200.976837 266.141116 
L 201.81071 285.052959 
L 202.644583 218.660022 
L 203.478456 255.102085 
L 204.312329 242.108281 
L 205.146202 243.056278 
L 205.980075 243.382067 
L 206.813948 310.778616 
L 207.647821 288.666381 
L 208.481694 306.859671 
L 209.315567 282.635415 
L 210.14944 251.405582 
L 211.817186 345.229779 
L 212.651059 353.770723 
L 213.484932 259.530643 
L 214.318804 359.498534 
L 215.152677 275.910567 
L 215.98655 261.967648 
L 216.820423 300.838805 
L 217.654296 278.508751 
L 218.488169 278.303629 
L 219.322042 269.958987 
L 220.155915 279.724516 
L 220.989788 351.101717 
L 221.823661 341.538923 
L 222.657534 222.095371 
L 223.491407 356.019963 
L 224.32528 347.316911 
L 225.159153 279.972008 
L 225.993026 241.517415 
L 226.826899 313.509027 
L 227.660772 351.888789 
L 228.494645 337.442606 
L 229.328518 336.647556 
L 230.162391 366.148084 
L 230.996264 384.873717 
L 231.830137 298.28714 
L 232.66401 318.099712 
L 233.497883 307.297505 
L 234.331756 277.232312 
L 235.165629 167.825023 
L 235.999502 160.191288 
L 236.833375 315.275987 
L 237.667248 324.972921 
L 238.501121 305.943433 
L 240.168867 365.591071 
L 241.00274 385.704746 
L 241.836613 396.109044 
L 242.670486 402.297002 
L 243.504359 402.711302 
L 244.338232 402.623957 
L 245.172105 404.553947 
L 246.005978 408.221241 
L 246.839851 391.036241 
L 247.673724 370.53288 
L 248.507597 355.909007 
L 249.341469 236.12915 
L 250.175342 343.968594 
L 251.009215 365.425641 
L 251.843088 309.128172 
L 252.676961 344.154105 
L 253.510834 331.086504 
L 254.344707 366.509805 
L 255.17858 361.566935 
L 256.012453 354.361115 
L 256.846326 344.397817 
L 257.680199 380.83951 
L 258.514072 384.977088 
L 259.347945 370.168681 
L 260.181818 384.443291 
L 261.015691 309.783759 
L 261.849564 282.557914 
L 262.683437 364.964808 
L 263.51731 377.502596 
L 264.351183 401.920382 
L 265.185056 395.992413 
L 266.018929 381.692056 
L 266.852802 406.717092 
L 267.686675 405.753842 
L 268.520548 400.357009 
L 269.354421 334.094327 
L 270.188294 363.158495 
L 271.022167 351.211298 
L 271.85604 379.476896 
L 272.689913 388.975581 
L 273.523786 422.531399 
L 274.357659 414.618822 
L 276.025405 395.188229 
L 276.859278 406.460779 
L 278.527024 419.363249 
L 279.360897 414.161167 
L 280.19477 414.381003 
L 281.028643 422.954823 
L 281.862516 421.272573 
L 282.696389 419.031093 
L 283.530262 407.619128 
L 284.364134 418.994086 
L 285.198007 409.636121 
L 286.03188 413.565914 
L 286.865753 419.743403 
L 287.699626 420.035804 
L 288.533499 417.103654 
L 289.367372 412.560597 
L 290.201245 428.432839 
L 291.035118 418.876403 
L 291.868991 400.290148 
L 292.702864 414.997782 
L 293.536737 416.521807 
L 294.37061 421.883393 
L 295.204483 403.870873 
L 296.038356 388.705018 
L 296.872229 397.793529 
L 297.706102 392.748894 
L 298.539975 413.616148 
L 299.373848 407.577526 
L 300.207721 408.065405 
L 301.041594 412.014384 
L 301.875467 406.324896 
L 302.70934 413.439487 
L 303.543213 417.290964 
L 304.377086 427.793994 
L 305.210959 416.743216 
L 306.044832 419.608562 
L 306.878705 429.720742 
L 307.712578 424.129978 
L 308.546451 431.211597 
L 309.380324 427.745125 
L 310.214197 415.042283 
L 311.04807 422.293798 
L 311.881943 419.978123 
L 312.715816 415.130623 
L 313.549689 417.406922 
L 314.383562 409.624903 
L 315.217435 374.671874 
L 316.051308 363.676692 
L 316.885181 361.760006 
L 317.719054 377.256818 
L 318.552927 427.441231 
L 319.3868 361.599167 
L 320.220672 416.334952 
L 321.054545 423.114847 
L 321.888418 426.106761 
L 322.722291 425.853366 
L 323.556164 413.666135 
L 324.390037 404.454048 
L 325.22391 398.031755 
L 326.057783 387.790594 
L 327.725529 411.181587 
L 328.559402 392.792002 
L 329.393275 381.03159 
L 330.227148 360.745176 
L 331.061021 335.154379 
L 331.894894 425.695919 
L 332.728767 352.974981 
L 333.56264 331.04565 
L 334.396513 364.38759 
L 335.230386 361.208184 
L 336.064259 392.625583 
L 336.898132 372.024105 
L 337.732005 329.165328 
L 338.565878 338.748113 
L 339.399751 321.064909 
L 340.233624 317.478906 
L 341.067497 324.563282 
L 343.569116 247.351455 
L 345.236862 364.369389 
L 346.070735 362.132902 
L 346.904608 399.893878 
L 347.738481 402.676796 
L 348.572354 381.857944 
L 349.406227 392.288813 
L 350.2401 419.013328 
L 351.073973 390.818053 
L 351.907846 377.039308 
L 352.741719 394.601693 
L 353.575592 393.602354 
L 354.409465 431.244142 
L 355.243337 393.631611 
L 356.07721 394.108471 
L 356.911083 419.381829 
L 357.744956 424.190871 
L 358.578829 416.459967 
L 359.412702 406.667531 
L 360.246575 394.557144 
L 361.080448 366.117813 
L 361.914321 326.629835 
L 362.748194 354.237606 
L 363.582067 366.592432 
L 364.41594 300.390662 
L 365.249813 382.456248 
L 366.083686 382.698875 
L 366.917559 353.822008 
L 367.751432 340.079257 
L 368.585305 366.576364 
L 369.419178 358.397714 
L 370.253051 321.080059 
L 371.086924 324.019552 
L 371.920797 295.273367 
L 372.75467 334.825596 
L 373.588543 323.629478 
L 374.422416 298.007093 
L 375.256289 292.032273 
L 376.090162 299.045268 
L 376.924035 304.931398 
L 377.757908 376.432198 
L 379.425654 333.084405 
L 380.259527 302.354995 
L 381.0934 313.807927 
L 381.927273 314.661662 
L 382.761146 313.173014 
L 383.595019 328.625946 
L 384.428892 318.918799 
L 385.262765 327.552062 
L 386.096638 311.305852 
L 386.930511 274.098251 
L 387.764384 337.296405 
L 388.598257 284.114399 
L 389.43213 296.989544 
L 390.266002 276.622782 
L 391.099875 195.260822 
L 392.767621 328.00839 
L 393.601494 195.156489 
L 394.435367 256.320256 
L 395.26924 243.389344 
L 396.103113 314.108742 
L 396.936986 273.907947 
L 397.770859 167.448848 
L 398.604732 249.857282 
L 399.438605 255.511363 
L 400.272478 236.189844 
L 401.106351 264.008431 
L 401.940224 276.630551 
L 402.774097 259.750792 
L 404.441843 293.610246 
L 405.275716 291.351863 
L 406.109589 337.899939 
L 406.943462 341.75297 
L 407.777335 363.102188 
L 408.611208 337.09441 
L 410.278954 372.664911 
L 411.112827 324.661807 
L 411.9467 231.543088 
L 412.780573 298.384964 
L 413.614446 311.956909 
L 414.448319 254.745409 
L 415.282192 333.690857 
L 416.116065 318.186062 
L 416.949938 317.166817 
L 417.783811 272.25649 
L 418.617684 308.362815 
L 419.451557 310.400604 
L 420.28543 336.375686 
L 421.119303 270.312157 
L 421.953176 245.000383 
L 422.787049 129.881673 
L 423.620922 220.827649 
L 424.454795 147.994875 
L 425.288667 86.923636 
L 426.12254 181.062813 
L 426.956413 132.592377 
L 427.790286 294.59111 
L 428.624159 204.968879 
L 429.458032 350.024422 
L 430.291905 289.670372 
L 431.125778 279.82413 
L 431.959651 251.972856 
L 432.793524 232.05651 
L 433.627397 270.254003 
L 434.46127 153.093904 
L 435.295143 200.976772 
L 436.129016 130.041924 
L 436.962889 255.308098 
L 437.796762 183.017719 
L 438.630635 268.034343 
L 439.464508 261.127869 
L 440.298381 192.301774 
L 441.132254 295.8037 
L 441.966127 333.510112 
L 442.8 301.754351 
L 443.633873 315.357695 
L 444.467746 314.145398 
L 445.301619 301.565895 
L 446.135492 163.529259 
L 446.969365 101.358299 
L 447.803238 163.45892 
L 448.637111 137.056236 
L 449.470984 212.550655 
L 450.304857 342.032789 
L 451.13873 305.569579 
L 451.972603 282.590373 
L 452.806476 292.3909 
L 453.640349 193.961455 
L 454.474222 254.157878 
L 455.308095 208.017025 
L 456.141968 215.655705 
L 456.975841 199.538243 
L 457.809714 233.165857 
L 458.643587 193.306826 
L 459.47746 241.140597 
L 460.311333 237.25413 
L 461.145205 235.110701 
L 461.979078 235.560606 
L 462.812951 104.693503 
L 463.646824 308.452832 
L 465.31457 177.878992 
L 466.148443 217.397833 
L 466.982316 287.835915 
L 467.816189 291.81868 
L 468.650062 305.419144 
L 469.483935 338.380693 
L 470.317808 324.090033 
L 471.151681 279.2986 
L 471.985554 317.201058 
L 472.819427 331.402279 
L 473.6533 309.738556 
L 474.487173 309.935596 
L 475.321046 234.106085 
L 476.154919 278.386587 
L 476.988792 359.951613 
L 477.822665 341.455993 
L 478.656538 354.23212 
L 479.490411 286.465954 
L 480.324284 311.215569 
L 481.158157 332.452666 
L 481.99203 329.476015 
L 483.659776 282.819864 
L 485.327522 308.761757 
L 486.161395 271.590188 
L 486.995268 271.040081 
L 487.829141 327.330027 
L 488.663014 316.939837 
L 489.496887 303.361032 
L 490.33076 304.405385 
L 491.164633 211.178619 
L 491.998506 231.185863 
L 492.832379 329.690071 
L 493.666252 335.168155 
L 494.500125 239.139607 
L 495.333998 270.641433 
L 496.16787 186.267406 
L 497.001743 269.049892 
L 497.835616 209.652357 
L 498.669489 298.612322 
L 499.503362 324.372921 
L 500.337235 219.530423 
L 501.171108 354.576716 
L 502.004981 313.949855 
L 502.838854 258.310331 
L 503.672727 304.174189 
L 504.5066 325.722115 
L 505.340473 336.63521 
L 506.174346 323.995837 
L 507.008219 327.720575 
L 507.842092 351.338038 
L 508.675965 342.116401 
L 509.509838 262.887203 
L 510.343711 334.1426 
L 511.177584 234.828513 
L 512.011457 180.010692 
L 512.84533 161.684731 
L 513.679203 351.207726 
L 514.513076 314.466934 
L 515.346949 336.987367 
L 516.180822 372.675385 
L 517.014695 402.350637 
L 517.848568 390.251053 
L 518.682441 391.065858 
L 520.350187 351.08652 
L 521.18406 236.582428 
L 522.017933 261.071628 
L 522.851806 310.698841 
L 523.685679 307.579361 
L 524.519552 303.681829 
L 525.353425 316.684216 
L 526.187298 322.815526 
L 527.021171 355.659213 
L 527.855044 379.234979 
L 528.688917 380.550823 
L 529.52279 376.413273 
L 530.356663 363.506606 
L 531.190535 347.285522 
L 532.024408 319.543498 
L 532.858281 251.714203 
L 533.692154 243.6364 
L 534.526027 344.14463 
L 535.3599 360.060882 
L 536.193773 346.748537 
L 537.027646 346.990601 
L 537.861519 343.174226 
L 538.695392 357.563269 
L 539.529265 309.869967 
L 540.363138 343.942938 
L 541.197011 317.882566 
L 542.030884 349.973544 
L 542.864757 288.403455 
L 543.69863 325.966367 
L 544.532503 335.031021 
L 545.366376 330.973142 
L 546.200249 361.172238 
L 547.034122 355.244364 
L 547.867995 309.602872 
L 548.701868 365.060562 
L 549.535741 387.480509 
L 550.369614 383.952689 
L 551.203487 406.220564 
L 552.03736 401.086837 
L 552.871233 383.744231 
L 553.705106 394.01655 
L 554.538979 378.923724 
L 555.372852 394.386026 
L 556.206725 396.405405 
L 557.040598 406.797872 
L 557.874471 399.53111 
L 558.708344 402.988136 
L 559.542217 404.735895 
L 560.37609 419.159804 
L 561.209963 416.973332 
L 562.043836 432.718995 
L 562.877709 435.342818 
L 563.711582 411.827367 
L 564.545455 425.234996 
L 565.379328 435.914508 
L 567.047073 408.670899 
L 567.880946 421.042893 
L 568.714819 372.084268 
L 569.548692 412.694357 
L 570.382565 387.390345 
L 571.216438 384.338679 
L 572.050311 357.098954 
L 572.884184 315.761336 
L 573.718057 310.46233 
L 574.55193 355.638862 
L 575.385803 384.789152 
L 576.219676 394.875013 
L 577.053549 407.798935 
L 577.887422 415.699205 
L 578.721295 406.201397 
L 579.555168 389.078862 
L 580.389041 411.399481 
L 581.222914 418.576896 
L 582.056787 401.932301 
L 582.89066 396.201458 
L 583.724533 396.867703 
L 584.558406 379.192212 
L 585.392279 383.045067 
L 586.226152 383.732028 
L 587.060025 348.043272 
L 587.893898 340.471548 
L 588.727771 351.283958 
L 589.561644 408.250716 
L 590.395517 372.987749 
L 591.22939 386.645784 
L 592.063263 344.775924 
L 592.897136 374.27956 
L 593.731009 387.006652 
L 594.564882 396.082136 
L 595.398755 388.874554 
L 596.232628 388.558808 
L 597.066501 381.068839 
L 597.900374 411.761832 
L 598.734247 418.869383 
L 599.56812 434.004767 
L 600.401993 422.071129 
L 601.235866 404.042629 
L 602.069738 412.386806 
L 602.903611 438.891037 
L 603.737484 427.942231 
L 604.571357 429.825037 
L 605.40523 421.305563 
L 606.239103 422.741903 
L 607.072976 379.640184 
L 607.906849 356.760857 
L 608.740722 398.877551 
L 609.574595 360.760714 
L 610.408468 378.270241 
L 611.242341 361.396736 
L 612.076214 384.611871 
L 612.910087 383.252757 
L 613.74396 362.770686 
L 614.577833 348.102269 
L 615.411706 411.415578 
L 616.245579 360.753504 
L 617.079452 353.058972 
L 617.913325 377.733754 
L 618.747198 362.211635 
L 619.581071 390.67207 
L 620.414944 376.428418 
L 622.08269 414.99979 
L 622.916563 362.970446 
L 623.750436 328.717365 
L 624.584309 343.014307 
L 625.418182 342.85144 
L 626.252055 372.701942 
L 627.085928 364.629952 
L 627.919801 398.31436 
L 628.753674 378.242287 
L 629.587547 400.486819 
L 630.42142 390.312334 
L 631.255293 392.827086 
L 632.089166 414.678748 
L 632.923039 391.818652 
L 634.590785 395.803881 
L 635.424658 387.055896 
L 637.092403 401.027641 
L 637.926276 409.480057 
L 638.760149 425.987951 
L 639.594022 419.917487 
L 640.427895 421.179742 
L 641.261768 424.713483 
L 642.095641 380.313155 
L 642.929514 402.59217 
L 643.763387 390.763622 
L 644.59726 404.778037 
L 645.431133 386.251049 
L 646.265006 383.421844 
L 647.098879 410.990582 
L 647.932752 420.167291 
L 648.766625 423.825754 
L 649.600498 437.001211 
L 650.434371 424.092526 
L 651.268244 396.836693 
L 652.102117 429.363004 
L 652.93599 380.995839 
L 653.769863 370.79673 
L 654.603736 370.701554 
L 655.437609 374.396058 
L 656.271482 314.073781 
L 657.105355 373.098861 
L 657.939228 389.499737 
L 658.773101 378.50464 
L 659.606974 359.654304 
L 660.440847 328.979059 
L 661.27472 400.865997 
L 662.108593 404.18178 
L 662.942466 408.001414 
L 663.776339 413.742888 
L 664.610212 412.372481 
L 665.444085 414.478164 
L 666.277958 388.607677 
L 667.111831 348.392017 
L 668.779577 333.825432 
L 669.61345 314.57841 
L 670.447323 317.592136 
L 671.281196 282.660427 
L 672.115068 337.679563 
L 672.948941 365.902331 
L 673.782814 365.949144 
L 674.616687 409.538183 
L 675.45056 387.633536 
L 676.284433 356.211783 
L 677.118306 391.842149 
L 677.952179 365.897551 
L 678.786052 442.996364 
L 679.619925 313.496122 
L 680.453798 328.825564 
L 681.287671 326.77903 
L 682.121544 376.869568 
L 682.955417 360.506988 
L 683.78929 348.500112 
L 684.623163 364.092574 
L 685.457036 359.988308 
L 686.290909 310.397752 
L 687.124782 384.252073 
L 687.958655 368.999133 
L 688.792528 348.469329 
L 689.626401 333.274226 
L 690.460274 323.040261 
L 691.294147 365.963417 
L 692.12802 277.531232 
L 692.961893 212.139501 
L 693.795766 260.551461 
L 694.629639 264.725838 
L 695.463512 282.466788 
L 696.297385 260.410556 
L 697.965131 348.01589 
L 698.799004 325.946622 
L 699.632877 330.121548 
L 700.46675 360.706643 
L 701.300623 377.790373 
L 702.134496 414.836138 
L 702.968369 395.481815 
L 703.802242 384.615291 
L 704.636115 356.270818 
L 705.469988 349.964486 
L 706.303861 317.032015 
L 707.137733 297.675477 
L 707.971606 322.994319 
L 708.805479 283.409062 
L 709.639352 283.895179 
L 710.473225 233.298159 
L 711.307098 344.950046 
L 712.140971 239.542727 
L 712.974844 313.129062 
L 713.808717 368.198952 
L 714.64259 267.258383 
L 715.476463 347.526079 
L 716.310336 325.277705 
L 717.144209 265.194976 
L 717.978082 283.30183 
L 718.811955 315.042262 
L 719.645828 270.665858 
L 720.479701 330.97571 
L 721.313574 282.410908 
L 722.98132 344.396831 
L 723.815193 312.55958 
L 724.649066 341.569459 
L 725.482939 295.599317 
L 726.316812 256.713712 
L 727.150685 275.718386 
L 727.984558 311.180192 
L 728.818431 308.822602 
L 729.652304 266.12067 
L 730.486177 348.020902 
L 731.32005 268.311641 
L 732.153923 121.297213 
L 732.987796 188.121845 
L 733.821669 219.293524 
L 734.655542 350.047397 
L 735.489415 331.579613 
L 736.323288 256.259449 
L 737.991034 248.231785 
L 738.824907 323.891874 
L 739.65878 299.451685 
L 740.492653 224.116011 
L 741.326526 171.204435 
L 742.160399 189.309963 
L 742.994271 252.225313 
L 743.828144 343.645979 
L 745.49589 219.129615 
L 746.329763 320.033243 
L 747.163636 257.63717 
L 747.163636 257.63717 
" style="fill:none;stroke:#ff0000;stroke-dasharray:5.55,2.4;stroke-dashoffset:0;stroke-width:1.5;"/>
   </g>
   <g id="patch_3">
    <path d="M 108 460.8 
L 108 69.12 
" style="fill:none;stroke:#000000;stroke-linecap:square;stroke-linejoin:miter;stroke-width:0.8;"/>
   </g>
   <g id="patch_4">
    <path d="M 777.6 460.8 
L 777.6 69.12 
" style="fill:none;stroke:#000000;stroke-linecap:square;stroke-linejoin:miter;stroke-width:0.8;"/>
   </g>
   <g id="patch_5">
    <path d="M 108 460.8 
L 777.6 460.8 
" style="fill:none;stroke:#000000;stroke-linecap:square;stroke-linejoin:miter;stroke-width:0.8;"/>
   </g>
   <g id="patch_6">
    <path d="M 108 69.12 
L 777.6 69.12 
" style="fill:none;stroke:#000000;stroke-linecap:square;stroke-linejoin:miter;stroke-width:0.8;"/>
   </g>
   <g id="text_20">
    <!-- Macau roadside 2020-2021 | Forecast vs Monitored | ANN -->
    <g transform="translate(226.886719 63.12)scale(0.15 -0.15)">
     <defs>
      <path d="M 8.5 21.578125 
L 8.5 54.6875 
L 17.484375 54.6875 
L 17.484375 21.921875 
Q 17.484375 14.15625 20.5 10.265625 
Q 23.53125 6.390625 29.59375 6.390625 
Q 36.859375 6.390625 41.078125 11.03125 
Q 45.3125 15.671875 45.3125 23.6875 
L 45.3125 54.6875 
L 54.296875 54.6875 
L 54.296875 0 
L 45.3125 0 
L 45.3125 8.40625 
Q 42.046875 3.421875 37.71875 1 
Q 33.40625 -1.421875 27.6875 -1.421875 
Q 18.265625 -1.421875 13.375 4.4375 
Q 8.5 10.296875 8.5 21.578125 
z
M 31.109375 56 
z
" id="DejaVuSans-117"/>
      <path id="DejaVuSans-32"/>
      <path d="M 45.40625 46.390625 
L 45.40625 75.984375 
L 54.390625 75.984375 
L 54.390625 0 
L 45.40625 0 
L 45.40625 8.203125 
Q 42.578125 3.328125 38.25 0.953125 
Q 33.9375 -1.421875 27.875 -1.421875 
Q 17.96875 -1.421875 11.734375 6.484375 
Q 5.515625 14.40625 5.515625 27.296875 
Q 5.515625 40.1875 11.734375 48.09375 
Q 17.96875 56 27.875 56 
Q 33.9375 56 38.25 53.625 
Q 42.578125 51.265625 45.40625 46.390625 
z
M 14.796875 27.296875 
Q 14.796875 17.390625 18.875 11.75 
Q 22.953125 6.109375 30.078125 6.109375 
Q 37.203125 6.109375 41.296875 11.75 
Q 45.40625 17.390625 45.40625 27.296875 
Q 45.40625 37.203125 41.296875 42.84375 
Q 37.203125 48.484375 30.078125 48.484375 
Q 22.953125 48.484375 18.875 42.84375 
Q 14.796875 37.203125 14.796875 27.296875 
z
" id="DejaVuSans-100"/>
      <path d="M 44.28125 53.078125 
L 44.28125 44.578125 
Q 40.484375 46.53125 36.375 47.5 
Q 32.28125 48.484375 27.875 48.484375 
Q 21.1875 48.484375 17.84375 46.4375 
Q 14.5 44.390625 14.5 40.28125 
Q 14.5 37.15625 16.890625 35.375 
Q 19.28125 33.59375 26.515625 31.984375 
L 29.59375 31.296875 
Q 39.15625 29.25 43.1875 25.515625 
Q 47.21875 21.78125 47.21875 15.09375 
Q 47.21875 7.46875 41.1875 3.015625 
Q 35.15625 -1.421875 24.609375 -1.421875 
Q 20.21875 -1.421875 15.453125 -0.5625 
Q 10.6875 0.296875 5.421875 2 
L 5.421875 11.28125 
Q 10.40625 8.6875 15.234375 7.390625 
Q 20.0625 6.109375 24.8125 6.109375 
Q 31.15625 6.109375 34.5625 8.28125 
Q 37.984375 10.453125 37.984375 14.40625 
Q 37.984375 18.0625 35.515625 20.015625 
Q 33.0625 21.96875 24.703125 23.78125 
L 21.578125 24.515625 
Q 13.234375 26.265625 9.515625 29.90625 
Q 5.8125 33.546875 5.8125 39.890625 
Q 5.8125 47.609375 11.28125 51.796875 
Q 16.75 56 26.8125 56 
Q 31.78125 56 36.171875 55.265625 
Q 40.578125 54.546875 44.28125 53.078125 
z
" id="DejaVuSans-115"/>
      <path d="M 21 76.421875 
L 21 -23.578125 
L 12.703125 -23.578125 
L 12.703125 76.421875 
z
" id="DejaVuSans-124"/>
      <path d="M 9.8125 72.90625 
L 51.703125 72.90625 
L 51.703125 64.59375 
L 19.671875 64.59375 
L 19.671875 43.109375 
L 48.578125 43.109375 
L 48.578125 34.8125 
L 19.671875 34.8125 
L 19.671875 0 
L 9.8125 0 
z
" id="DejaVuSans-70"/>
      <path d="M 2.984375 54.6875 
L 12.5 54.6875 
L 29.59375 8.796875 
L 46.6875 54.6875 
L 56.203125 54.6875 
L 35.6875 0 
L 23.484375 0 
z
" id="DejaVuSans-118"/>
      <path d="M 54.890625 33.015625 
L 54.890625 0 
L 45.90625 0 
L 45.90625 32.71875 
Q 45.90625 40.484375 42.875 44.328125 
Q 39.84375 48.1875 33.796875 48.1875 
Q 26.515625 48.1875 22.3125 43.546875 
Q 18.109375 38.921875 18.109375 30.90625 
L 18.109375 0 
L 9.078125 0 
L 9.078125 54.6875 
L 18.109375 54.6875 
L 18.109375 46.1875 
Q 21.34375 51.125 25.703125 53.5625 
Q 30.078125 56 35.796875 56 
Q 45.21875 56 50.046875 50.171875 
Q 54.890625 44.34375 54.890625 33.015625 
z
" id="DejaVuSans-110"/>
      <path d="M 34.1875 63.1875 
L 20.796875 26.90625 
L 47.609375 26.90625 
z
M 28.609375 72.90625 
L 39.796875 72.90625 
L 67.578125 0 
L 57.328125 0 
L 50.6875 18.703125 
L 17.828125 18.703125 
L 11.1875 0 
L 0.78125 0 
z
" id="DejaVuSans-65"/>
      <path d="M 9.8125 72.90625 
L 23.09375 72.90625 
L 55.421875 11.921875 
L 55.421875 72.90625 
L 64.984375 72.90625 
L 64.984375 0 
L 51.703125 0 
L 19.390625 60.984375 
L 19.390625 0 
L 9.8125 0 
z
" id="DejaVuSans-78"/>
     </defs>
     <use xlink:href="#DejaVuSans-77"/>
     <use x="86.279297" xlink:href="#DejaVuSans-97"/>
     <use x="147.558594" xlink:href="#DejaVuSans-99"/>
     <use x="202.539062" xlink:href="#DejaVuSans-97"/>
     <use x="263.818359" xlink:href="#DejaVuSans-117"/>
     <use x="327.197266" xlink:href="#DejaVuSans-32"/>
     <use x="358.984375" xlink:href="#DejaVuSans-114"/>
     <use x="397.847656" xlink:href="#DejaVuSans-111"/>
     <use x="459.029297" xlink:href="#DejaVuSans-97"/>
     <use x="520.308594" xlink:href="#DejaVuSans-100"/>
     <use x="583.785156" xlink:href="#DejaVuSans-115"/>
     <use x="635.884766" xlink:href="#DejaVuSans-105"/>
     <use x="663.667969" xlink:href="#DejaVuSans-100"/>
     <use x="727.144531" xlink:href="#DejaVuSans-101"/>
     <use x="788.667969" xlink:href="#DejaVuSans-32"/>
     <use x="820.455078" xlink:href="#DejaVuSans-50"/>
     <use x="884.078125" xlink:href="#DejaVuSans-48"/>
     <use x="947.701172" xlink:href="#DejaVuSans-50"/>
     <use x="1011.324219" xlink:href="#DejaVuSans-48"/>
     <use x="1074.947266" xlink:href="#DejaVuSans-45"/>
     <use x="1111.03125" xlink:href="#DejaVuSans-50"/>
     <use x="1174.654297" xlink:href="#DejaVuSans-48"/>
     <use x="1238.277344" xlink:href="#DejaVuSans-50"/>
     <use x="1301.900391" xlink:href="#DejaVuSans-49"/>
     <use x="1365.523438" xlink:href="#DejaVuSans-32"/>
     <use x="1397.310547" xlink:href="#DejaVuSans-124"/>
     <use x="1431.001953" xlink:href="#DejaVuSans-32"/>
     <use x="1462.789062" xlink:href="#DejaVuSans-70"/>
     <use x="1516.683594" xlink:href="#DejaVuSans-111"/>
     <use x="1577.865234" xlink:href="#DejaVuSans-114"/>
     <use x="1616.728516" xlink:href="#DejaVuSans-101"/>
     <use x="1678.251953" xlink:href="#DejaVuSans-99"/>
     <use x="1733.232422" xlink:href="#DejaVuSans-97"/>
     <use x="1794.511719" xlink:href="#DejaVuSans-115"/>
     <use x="1846.611328" xlink:href="#DejaVuSans-116"/>
     <use x="1885.820312" xlink:href="#DejaVuSans-32"/>
     <use x="1917.607422" xlink:href="#DejaVuSans-118"/>
     <use x="1976.787109" xlink:href="#DejaVuSans-115"/>
     <use x="2028.886719" xlink:href="#DejaVuSans-32"/>
     <use x="2060.673828" xlink:href="#DejaVuSans-77"/>
     <use x="2146.953125" xlink:href="#DejaVuSans-111"/>
     <use x="2208.134766" xlink:href="#DejaVuSans-110"/>
     <use x="2271.513672" xlink:href="#DejaVuSans-105"/>
     <use x="2299.296875" xlink:href="#DejaVuSans-116"/>
     <use x="2338.505859" xlink:href="#DejaVuSans-111"/>
     <use x="2399.6875" xlink:href="#DejaVuSans-114"/>
     <use x="2438.550781" xlink:href="#DejaVuSans-101"/>
     <use x="2500.074219" xlink:href="#DejaVuSans-100"/>
     <use x="2563.550781" xlink:href="#DejaVuSans-32"/>
     <use x="2595.337891" xlink:href="#DejaVuSans-124"/>
     <use x="2629.029297" xlink:href="#DejaVuSans-32"/>
     <use x="2660.816406" xlink:href="#DejaVuSans-65"/>
     <use x="2729.224609" xlink:href="#DejaVuSans-78"/>
     <use x="2804.029297" xlink:href="#DejaVuSans-78"/>
    </g>
   </g>
   <g id="legend_1">
    <g id="patch_7">
     <path d="M 598.963125 114.615 
L 769.2 114.615 
Q 771.6 114.615 771.6 112.215 
L 771.6 77.52 
Q 771.6 75.12 769.2 75.12 
L 598.963125 75.12 
Q 596.563125 75.12 596.563125 77.52 
L 596.563125 112.215 
Q 596.563125 114.615 598.963125 114.615 
z
" style="fill:#ffffff;opacity:0.8;stroke:#cccccc;stroke-linejoin:miter;"/>
    </g>
    <g id="line2d_20">
     <path d="M 601.363125 84.838125 
L 625.363125 84.838125 
" style="fill:none;stroke:#1f77b4;stroke-linecap:square;stroke-width:1.5;"/>
    </g>
    <g id="line2d_21"/>
    <g id="text_21">
     <!-- measured_data_PM25 -->
     <g transform="translate(634.963125 89.038125)scale(0.12 -0.12)">
      <defs>
       <path d="M 50.984375 -16.609375 
L 50.984375 -23.578125 
L -0.984375 -23.578125 
L -0.984375 -16.609375 
z
" id="DejaVuSans-95"/>
      </defs>
      <use xlink:href="#DejaVuSans-109"/>
      <use x="97.412109" xlink:href="#DejaVuSans-101"/>
      <use x="158.935547" xlink:href="#DejaVuSans-97"/>
      <use x="220.214844" xlink:href="#DejaVuSans-115"/>
      <use x="272.314453" xlink:href="#DejaVuSans-117"/>
      <use x="335.693359" xlink:href="#DejaVuSans-114"/>
      <use x="374.556641" xlink:href="#DejaVuSans-101"/>
      <use x="436.080078" xlink:href="#DejaVuSans-100"/>
      <use x="499.556641" xlink:href="#DejaVuSans-95"/>
      <use x="549.556641" xlink:href="#DejaVuSans-100"/>
      <use x="613.033203" xlink:href="#DejaVuSans-97"/>
      <use x="674.3125" xlink:href="#DejaVuSans-116"/>
      <use x="713.521484" xlink:href="#DejaVuSans-97"/>
      <use x="774.800781" xlink:href="#DejaVuSans-95"/>
      <use x="824.800781" xlink:href="#DejaVuSans-80"/>
      <use x="885.103516" xlink:href="#DejaVuSans-77"/>
      <use x="971.382812" xlink:href="#DejaVuSans-50"/>
      <use x="1035.005859" xlink:href="#DejaVuSans-53"/>
     </g>
    </g>
    <g id="line2d_22">
     <path d="M 601.363125 102.785625 
L 625.363125 102.785625 
" style="fill:none;stroke:#ff0000;stroke-dasharray:5.55,2.4;stroke-dashoffset:0;stroke-width:1.5;"/>
    </g>
    <g id="line2d_23"/>
    <g id="text_22">
     <!-- predicted_data_PM25 -->
     <g transform="translate(634.963125 106.985625)scale(0.12 -0.12)">
      <defs>
       <path d="M 18.109375 8.203125 
L 18.109375 -20.796875 
L 9.078125 -20.796875 
L 9.078125 54.6875 
L 18.109375 54.6875 
L 18.109375 46.390625 
Q 20.953125 51.265625 25.265625 53.625 
Q 29.59375 56 35.59375 56 
Q 45.5625 56 51.78125 48.09375 
Q 58.015625 40.1875 58.015625 27.296875 
Q 58.015625 14.40625 51.78125 6.484375 
Q 45.5625 -1.421875 35.59375 -1.421875 
Q 29.59375 -1.421875 25.265625 0.953125 
Q 20.953125 3.328125 18.109375 8.203125 
z
M 48.6875 27.296875 
Q 48.6875 37.203125 44.609375 42.84375 
Q 40.53125 48.484375 33.40625 48.484375 
Q 26.265625 48.484375 22.1875 42.84375 
Q 18.109375 37.203125 18.109375 27.296875 
Q 18.109375 17.390625 22.1875 11.75 
Q 26.265625 6.109375 33.40625 6.109375 
Q 40.53125 6.109375 44.609375 11.75 
Q 48.6875 17.390625 48.6875 27.296875 
z
" id="DejaVuSans-112"/>
      </defs>
      <use xlink:href="#DejaVuSans-112"/>
      <use x="63.476562" xlink:href="#DejaVuSans-114"/>
      <use x="102.339844" xlink:href="#DejaVuSans-101"/>
      <use x="163.863281" xlink:href="#DejaVuSans-100"/>
      <use x="227.339844" xlink:href="#DejaVuSans-105"/>
      <use x="255.123047" xlink:href="#DejaVuSans-99"/>
      <use x="310.103516" xlink:href="#DejaVuSans-116"/>
      <use x="349.3125" xlink:href="#DejaVuSans-101"/>
      <use x="410.835938" xlink:href="#DejaVuSans-100"/>
      <use x="474.3125" xlink:href="#DejaVuSans-95"/>
      <use x="524.3125" xlink:href="#DejaVuSans-100"/>
      <use x="587.789062" xlink:href="#DejaVuSans-97"/>
      <use x="649.068359" xlink:href="#DejaVuSans-116"/>
      <use x="688.277344" xlink:href="#DejaVuSans-97"/>
      <use x="749.556641" xlink:href="#DejaVuSans-95"/>
      <use x="799.556641" xlink:href="#DejaVuSans-80"/>
      <use x="859.859375" xlink:href="#DejaVuSans-77"/>
      <use x="946.138672" xlink:href="#DejaVuSans-50"/>
      <use x="1009.761719" xlink:href="#DejaVuSans-53"/>
     </g>
    </g>
   </g>
  </g>
 </g>
 <defs>
  <clipPath id="p45edd958eb">
   <rect height="391.68" width="669.6" x="108" y="69.12"/>
  </clipPath>
 </defs>
</svg>
