<?xml version="1.0" encoding="utf-8" standalone="no"?>
<!DOCTYPE svg PUBLIC "-//W3C//DTD SVG 1.1//EN"
  "http://www.w3.org/Graphics/SVG/1.1/DTD/svg11.dtd">
<!-- Created with matplotlib (https://matplotlib.org/) -->
<svg height="576pt" version="1.1" viewBox="0 0 864 576" width="864pt" xmlns="http://www.w3.org/2000/svg" xmlns:xlink="http://www.w3.org/1999/xlink">
 <metadata>
  <rdf:RDF xmlns:cc="http://creativecommons.org/ns#" xmlns:dc="http://purl.org/dc/elements/1.1/" xmlns:rdf="http://www.w3.org/1999/02/22-rdf-syntax-ns#">
   <cc:Work>
    <dc:type rdf:resource="http://purl.org/dc/dcmitype/StillImage"/>
    <dc:date>2024-03-08T17:46:52.951960</dc:date>
    <dc:format>image/svg+xml</dc:format>
    <dc:creator>
     <cc:Agent>
      <dc:title>Matplotlib v3.3.4, https://matplotlib.org/</dc:title>
     </cc:Agent>
    </dc:creator>
   </cc:Work>
  </rdf:RDF>
 </metadata>
 <defs>
  <style type="text/css">*{stroke-linecap:butt;stroke-linejoin:round;}</style>
 </defs>
 <g id="figure_1">
  <g id="patch_1">
   <path d="M 0 576 
L 864 576 
L 864 0 
L 0 0 
z
" style="fill:#ffffff;"/>
  </g>
  <g id="axes_1">
   <g id="patch_2">
    <path d="M 108 460.8 
L 777.6 460.8 
L 777.6 69.12 
L 108 69.12 
z
" style="fill:#ffffff;"/>
   </g>
   <g id="matplotlib.axis_1">
    <g id="xtick_1">
     <g id="line2d_1">
      <defs>
       <path d="M 0 0 
L 0 3.5 
" id="ma29ff6a0d5" style="stroke:#000000;stroke-width:0.8;"/>
      </defs>
      <g>
       <use style="stroke:#000000;stroke-width:0.8;" x="136.761736" xlink:href="#ma29ff6a0d5" y="460.8"/>
      </g>
     </g>
     <g id="text_1">
      <!-- 2020-01 -->
      <g transform="translate(92.091951 500.766215)rotate(-30)scale(0.12 -0.12)">
       <defs>
        <path d="M 19.1875 8.296875 
L 53.609375 8.296875 
L 53.609375 0 
L 7.328125 0 
L 7.328125 8.296875 
Q 12.9375 14.109375 22.625 23.890625 
Q 32.328125 33.6875 34.8125 36.53125 
Q 39.546875 41.84375 41.421875 45.53125 
Q 43.3125 49.21875 43.3125 52.78125 
Q 43.3125 58.59375 39.234375 62.25 
Q 35.15625 65.921875 28.609375 65.921875 
Q 23.96875 65.921875 18.8125 64.3125 
Q 13.671875 62.703125 7.8125 59.421875 
L 7.8125 69.390625 
Q 13.765625 71.78125 18.9375 73 
Q 24.125 74.21875 28.421875 74.21875 
Q 39.75 74.21875 46.484375 68.546875 
Q 53.21875 62.890625 53.21875 53.421875 
Q 53.21875 48.921875 51.53125 44.890625 
Q 49.859375 40.875 45.40625 35.40625 
Q 44.1875 33.984375 37.640625 27.21875 
Q 31.109375 20.453125 19.1875 8.296875 
z
" id="DejaVuSans-50"/>
        <path d="M 31.78125 66.40625 
Q 24.171875 66.40625 20.328125 58.90625 
Q 16.5 51.421875 16.5 36.375 
Q 16.5 21.390625 20.328125 13.890625 
Q 24.171875 6.390625 31.78125 6.390625 
Q 39.453125 6.390625 43.28125 13.890625 
Q 47.125 21.390625 47.125 36.375 
Q 47.125 51.421875 43.28125 58.90625 
Q 39.453125 66.40625 31.78125 66.40625 
z
M 31.78125 74.21875 
Q 44.046875 74.21875 50.515625 64.515625 
Q 56.984375 54.828125 56.984375 36.375 
Q 56.984375 17.96875 50.515625 8.265625 
Q 44.046875 -1.421875 31.78125 -1.421875 
Q 19.53125 -1.421875 13.0625 8.265625 
Q 6.59375 17.96875 6.59375 36.375 
Q 6.59375 54.828125 13.0625 64.515625 
Q 19.53125 74.21875 31.78125 74.21875 
z
" id="DejaVuSans-48"/>
        <path d="M 4.890625 31.390625 
L 31.203125 31.390625 
L 31.203125 23.390625 
L 4.890625 23.390625 
z
" id="DejaVuSans-45"/>
        <path d="M 12.40625 8.296875 
L 28.515625 8.296875 
L 28.515625 63.921875 
L 10.984375 60.40625 
L 10.984375 69.390625 
L 28.421875 72.90625 
L 38.28125 72.90625 
L 38.28125 8.296875 
L 54.390625 8.296875 
L 54.390625 0 
L 12.40625 0 
z
" id="DejaVuSans-49"/>
       </defs>
       <use xlink:href="#DejaVuSans-50"/>
       <use x="63.623047" xlink:href="#DejaVuSans-48"/>
       <use x="127.246094" xlink:href="#DejaVuSans-50"/>
       <use x="190.869141" xlink:href="#DejaVuSans-48"/>
       <use x="254.492188" xlink:href="#DejaVuSans-45"/>
       <use x="290.576172" xlink:href="#DejaVuSans-48"/>
       <use x="354.199219" xlink:href="#DejaVuSans-49"/>
      </g>
     </g>
    </g>
    <g id="xtick_2">
     <g id="line2d_2">
      <g>
       <use style="stroke:#000000;stroke-width:0.8;" x="212.957309" xlink:href="#ma29ff6a0d5" y="460.8"/>
      </g>
     </g>
     <g id="text_2">
      <!-- 2020-04 -->
      <g transform="translate(168.287524 500.766215)rotate(-30)scale(0.12 -0.12)">
       <defs>
        <path d="M 37.796875 64.3125 
L 12.890625 25.390625 
L 37.796875 25.390625 
z
M 35.203125 72.90625 
L 47.609375 72.90625 
L 47.609375 25.390625 
L 58.015625 25.390625 
L 58.015625 17.1875 
L 47.609375 17.1875 
L 47.609375 0 
L 37.796875 0 
L 37.796875 17.1875 
L 4.890625 17.1875 
L 4.890625 26.703125 
z
" id="DejaVuSans-52"/>
       </defs>
       <use xlink:href="#DejaVuSans-50"/>
       <use x="63.623047" xlink:href="#DejaVuSans-48"/>
       <use x="127.246094" xlink:href="#DejaVuSans-50"/>
       <use x="190.869141" xlink:href="#DejaVuSans-48"/>
       <use x="254.492188" xlink:href="#DejaVuSans-45"/>
       <use x="290.576172" xlink:href="#DejaVuSans-48"/>
       <use x="354.199219" xlink:href="#DejaVuSans-52"/>
      </g>
     </g>
    </g>
    <g id="xtick_3">
     <g id="line2d_3">
      <g>
       <use style="stroke:#000000;stroke-width:0.8;" x="289.152882" xlink:href="#ma29ff6a0d5" y="460.8"/>
      </g>
     </g>
     <g id="text_3">
      <!-- 2020-07 -->
      <g transform="translate(244.483097 500.766215)rotate(-30)scale(0.12 -0.12)">
       <defs>
        <path d="M 8.203125 72.90625 
L 55.078125 72.90625 
L 55.078125 68.703125 
L 28.609375 0 
L 18.3125 0 
L 43.21875 64.59375 
L 8.203125 64.59375 
z
" id="DejaVuSans-55"/>
       </defs>
       <use xlink:href="#DejaVuSans-50"/>
       <use x="63.623047" xlink:href="#DejaVuSans-48"/>
       <use x="127.246094" xlink:href="#DejaVuSans-50"/>
       <use x="190.869141" xlink:href="#DejaVuSans-48"/>
       <use x="254.492188" xlink:href="#DejaVuSans-45"/>
       <use x="290.576172" xlink:href="#DejaVuSans-48"/>
       <use x="354.199219" xlink:href="#DejaVuSans-55"/>
      </g>
     </g>
    </g>
    <g id="xtick_4">
     <g id="line2d_4">
      <g>
       <use style="stroke:#000000;stroke-width:0.8;" x="366.18577" xlink:href="#ma29ff6a0d5" y="460.8"/>
      </g>
     </g>
     <g id="text_4">
      <!-- 2020-10 -->
      <g transform="translate(321.515985 500.766215)rotate(-30)scale(0.12 -0.12)">
       <use xlink:href="#DejaVuSans-50"/>
       <use x="63.623047" xlink:href="#DejaVuSans-48"/>
       <use x="127.246094" xlink:href="#DejaVuSans-50"/>
       <use x="190.869141" xlink:href="#DejaVuSans-48"/>
       <use x="254.492188" xlink:href="#DejaVuSans-45"/>
       <use x="290.576172" xlink:href="#DejaVuSans-49"/>
       <use x="354.199219" xlink:href="#DejaVuSans-48"/>
      </g>
     </g>
    </g>
    <g id="xtick_5">
     <g id="line2d_5">
      <g>
       <use style="stroke:#000000;stroke-width:0.8;" x="443.218657" xlink:href="#ma29ff6a0d5" y="460.8"/>
      </g>
     </g>
     <g id="text_5">
      <!-- 2021-01 -->
      <g transform="translate(398.548872 500.766215)rotate(-30)scale(0.12 -0.12)">
       <use xlink:href="#DejaVuSans-50"/>
       <use x="63.623047" xlink:href="#DejaVuSans-48"/>
       <use x="127.246094" xlink:href="#DejaVuSans-50"/>
       <use x="190.869141" xlink:href="#DejaVuSans-49"/>
       <use x="254.492188" xlink:href="#DejaVuSans-45"/>
       <use x="290.576172" xlink:href="#DejaVuSans-48"/>
       <use x="354.199219" xlink:href="#DejaVuSans-49"/>
      </g>
     </g>
    </g>
    <g id="xtick_6">
     <g id="line2d_6">
      <g>
       <use style="stroke:#000000;stroke-width:0.8;" x="518.576916" xlink:href="#ma29ff6a0d5" y="460.8"/>
      </g>
     </g>
     <g id="text_6">
      <!-- 2021-04 -->
      <g transform="translate(473.907131 500.766215)rotate(-30)scale(0.12 -0.12)">
       <use xlink:href="#DejaVuSans-50"/>
       <use x="63.623047" xlink:href="#DejaVuSans-48"/>
       <use x="127.246094" xlink:href="#DejaVuSans-50"/>
       <use x="190.869141" xlink:href="#DejaVuSans-49"/>
       <use x="254.492188" xlink:href="#DejaVuSans-45"/>
       <use x="290.576172" xlink:href="#DejaVuSans-48"/>
       <use x="354.199219" xlink:href="#DejaVuSans-52"/>
      </g>
     </g>
    </g>
    <g id="xtick_7">
     <g id="line2d_7">
      <g>
       <use style="stroke:#000000;stroke-width:0.8;" x="594.77249" xlink:href="#ma29ff6a0d5" y="460.8"/>
      </g>
     </g>
     <g id="text_7">
      <!-- 2021-07 -->
      <g transform="translate(550.102705 500.766215)rotate(-30)scale(0.12 -0.12)">
       <use xlink:href="#DejaVuSans-50"/>
       <use x="63.623047" xlink:href="#DejaVuSans-48"/>
       <use x="127.246094" xlink:href="#DejaVuSans-50"/>
       <use x="190.869141" xlink:href="#DejaVuSans-49"/>
       <use x="254.492188" xlink:href="#DejaVuSans-45"/>
       <use x="290.576172" xlink:href="#DejaVuSans-48"/>
       <use x="354.199219" xlink:href="#DejaVuSans-55"/>
      </g>
     </g>
    </g>
    <g id="xtick_8">
     <g id="line2d_8">
      <g>
       <use style="stroke:#000000;stroke-width:0.8;" x="671.805377" xlink:href="#ma29ff6a0d5" y="460.8"/>
      </g>
     </g>
     <g id="text_8">
      <!-- 2021-10 -->
      <g transform="translate(627.135592 500.766215)rotate(-30)scale(0.12 -0.12)">
       <use xlink:href="#DejaVuSans-50"/>
       <use x="63.623047" xlink:href="#DejaVuSans-48"/>
       <use x="127.246094" xlink:href="#DejaVuSans-50"/>
       <use x="190.869141" xlink:href="#DejaVuSans-49"/>
       <use x="254.492188" xlink:href="#DejaVuSans-45"/>
       <use x="290.576172" xlink:href="#DejaVuSans-49"/>
       <use x="354.199219" xlink:href="#DejaVuSans-48"/>
      </g>
     </g>
    </g>
    <g id="xtick_9">
     <g id="line2d_9">
      <g>
       <use style="stroke:#000000;stroke-width:0.8;" x="748.838264" xlink:href="#ma29ff6a0d5" y="460.8"/>
      </g>
     </g>
     <g id="text_9">
      <!-- 2022-01 -->
      <g transform="translate(704.168479 500.766215)rotate(-30)scale(0.12 -0.12)">
       <use xlink:href="#DejaVuSans-50"/>
       <use x="63.623047" xlink:href="#DejaVuSans-48"/>
       <use x="127.246094" xlink:href="#DejaVuSans-50"/>
       <use x="190.869141" xlink:href="#DejaVuSans-50"/>
       <use x="254.492188" xlink:href="#DejaVuSans-45"/>
       <use x="290.576172" xlink:href="#DejaVuSans-48"/>
       <use x="354.199219" xlink:href="#DejaVuSans-49"/>
      </g>
     </g>
    </g>
    <g id="text_10">
     <!-- Date -->
     <g transform="translate(424.873828 518.325146)scale(0.15 -0.15)">
      <defs>
       <path d="M 19.671875 64.796875 
L 19.671875 8.109375 
L 31.59375 8.109375 
Q 46.6875 8.109375 53.6875 14.9375 
Q 60.6875 21.78125 60.6875 36.53125 
Q 60.6875 51.171875 53.6875 57.984375 
Q 46.6875 64.796875 31.59375 64.796875 
z
M 9.8125 72.90625 
L 30.078125 72.90625 
Q 51.265625 72.90625 61.171875 64.09375 
Q 71.09375 55.28125 71.09375 36.53125 
Q 71.09375 17.671875 61.125 8.828125 
Q 51.171875 0 30.078125 0 
L 9.8125 0 
z
" id="DejaVuSans-68"/>
       <path d="M 34.28125 27.484375 
Q 23.390625 27.484375 19.1875 25 
Q 14.984375 22.515625 14.984375 16.5 
Q 14.984375 11.71875 18.140625 8.90625 
Q 21.296875 6.109375 26.703125 6.109375 
Q 34.1875 6.109375 38.703125 11.40625 
Q 43.21875 16.703125 43.21875 25.484375 
L 43.21875 27.484375 
z
M 52.203125 31.203125 
L 52.203125 0 
L 43.21875 0 
L 43.21875 8.296875 
Q 40.140625 3.328125 35.546875 0.953125 
Q 30.953125 -1.421875 24.3125 -1.421875 
Q 15.921875 -1.421875 10.953125 3.296875 
Q 6 8.015625 6 15.921875 
Q 6 25.140625 12.171875 29.828125 
Q 18.359375 34.515625 30.609375 34.515625 
L 43.21875 34.515625 
L 43.21875 35.40625 
Q 43.21875 41.609375 39.140625 45 
Q 35.0625 48.390625 27.6875 48.390625 
Q 23 48.390625 18.546875 47.265625 
Q 14.109375 46.140625 10.015625 43.890625 
L 10.015625 52.203125 
Q 14.9375 54.109375 19.578125 55.046875 
Q 24.21875 56 28.609375 56 
Q 40.484375 56 46.34375 49.84375 
Q 52.203125 43.703125 52.203125 31.203125 
z
" id="DejaVuSans-97"/>
       <path d="M 18.3125 70.21875 
L 18.3125 54.6875 
L 36.8125 54.6875 
L 36.8125 47.703125 
L 18.3125 47.703125 
L 18.3125 18.015625 
Q 18.3125 11.328125 20.140625 9.421875 
Q 21.96875 7.515625 27.59375 7.515625 
L 36.8125 7.515625 
L 36.8125 0 
L 27.59375 0 
Q 17.1875 0 13.234375 3.875 
Q 9.28125 7.765625 9.28125 18.015625 
L 9.28125 47.703125 
L 2.6875 47.703125 
L 2.6875 54.6875 
L 9.28125 54.6875 
L 9.28125 70.21875 
z
" id="DejaVuSans-116"/>
       <path d="M 56.203125 29.59375 
L 56.203125 25.203125 
L 14.890625 25.203125 
Q 15.484375 15.921875 20.484375 11.0625 
Q 25.484375 6.203125 34.421875 6.203125 
Q 39.59375 6.203125 44.453125 7.46875 
Q 49.3125 8.734375 54.109375 11.28125 
L 54.109375 2.78125 
Q 49.265625 0.734375 44.1875 -0.34375 
Q 39.109375 -1.421875 33.890625 -1.421875 
Q 20.796875 -1.421875 13.15625 6.1875 
Q 5.515625 13.8125 5.515625 26.8125 
Q 5.515625 40.234375 12.765625 48.109375 
Q 20.015625 56 32.328125 56 
Q 43.359375 56 49.78125 48.890625 
Q 56.203125 41.796875 56.203125 29.59375 
z
M 47.21875 32.234375 
Q 47.125 39.59375 43.09375 43.984375 
Q 39.0625 48.390625 32.421875 48.390625 
Q 24.90625 48.390625 20.390625 44.140625 
Q 15.875 39.890625 15.1875 32.171875 
z
" id="DejaVuSans-101"/>
      </defs>
      <use xlink:href="#DejaVuSans-68"/>
      <use x="77.001953" xlink:href="#DejaVuSans-97"/>
      <use x="138.28125" xlink:href="#DejaVuSans-116"/>
      <use x="177.490234" xlink:href="#DejaVuSans-101"/>
     </g>
    </g>
   </g>
   <g id="matplotlib.axis_2">
    <g id="ytick_1">
     <g id="line2d_10">
      <defs>
       <path d="M 0 0 
L -3.5 0 
" id="maa88f9c155" style="stroke:#000000;stroke-width:0.8;"/>
      </defs>
      <g>
       <use style="stroke:#000000;stroke-width:0.8;" x="108" xlink:href="#maa88f9c155" y="450.738443"/>
      </g>
     </g>
     <g id="text_11">
      <!-- 0 -->
      <g transform="translate(93.365 455.297505)scale(0.12 -0.12)">
       <use xlink:href="#DejaVuSans-48"/>
      </g>
     </g>
    </g>
    <g id="ytick_2">
     <g id="line2d_11">
      <g>
       <use style="stroke:#000000;stroke-width:0.8;" x="108" xlink:href="#maa88f9c155" y="401.841101"/>
      </g>
     </g>
     <g id="text_12">
      <!-- 10 -->
      <g transform="translate(85.73 406.400164)scale(0.12 -0.12)">
       <use xlink:href="#DejaVuSans-49"/>
       <use x="63.623047" xlink:href="#DejaVuSans-48"/>
      </g>
     </g>
    </g>
    <g id="ytick_3">
     <g id="line2d_12">
      <g>
       <use style="stroke:#000000;stroke-width:0.8;" x="108" xlink:href="#maa88f9c155" y="352.94376"/>
      </g>
     </g>
     <g id="text_13">
      <!-- 20 -->
      <g transform="translate(85.73 357.502822)scale(0.12 -0.12)">
       <use xlink:href="#DejaVuSans-50"/>
       <use x="63.623047" xlink:href="#DejaVuSans-48"/>
      </g>
     </g>
    </g>
    <g id="ytick_4">
     <g id="line2d_13">
      <g>
       <use style="stroke:#000000;stroke-width:0.8;" x="108" xlink:href="#maa88f9c155" y="304.046418"/>
      </g>
     </g>
     <g id="text_14">
      <!-- 30 -->
      <g transform="translate(85.73 308.605481)scale(0.12 -0.12)">
       <defs>
        <path d="M 40.578125 39.3125 
Q 47.65625 37.796875 51.625 33 
Q 55.609375 28.21875 55.609375 21.1875 
Q 55.609375 10.40625 48.1875 4.484375 
Q 40.765625 -1.421875 27.09375 -1.421875 
Q 22.515625 -1.421875 17.65625 -0.515625 
Q 12.796875 0.390625 7.625 2.203125 
L 7.625 11.71875 
Q 11.71875 9.328125 16.59375 8.109375 
Q 21.484375 6.890625 26.8125 6.890625 
Q 36.078125 6.890625 40.9375 10.546875 
Q 45.796875 14.203125 45.796875 21.1875 
Q 45.796875 27.640625 41.28125 31.265625 
Q 36.765625 34.90625 28.71875 34.90625 
L 20.21875 34.90625 
L 20.21875 43.015625 
L 29.109375 43.015625 
Q 36.375 43.015625 40.234375 45.921875 
Q 44.09375 48.828125 44.09375 54.296875 
Q 44.09375 59.90625 40.109375 62.90625 
Q 36.140625 65.921875 28.71875 65.921875 
Q 24.65625 65.921875 20.015625 65.03125 
Q 15.375 64.15625 9.8125 62.3125 
L 9.8125 71.09375 
Q 15.4375 72.65625 20.34375 73.4375 
Q 25.25 74.21875 29.59375 74.21875 
Q 40.828125 74.21875 47.359375 69.109375 
Q 53.90625 64.015625 53.90625 55.328125 
Q 53.90625 49.265625 50.4375 45.09375 
Q 46.96875 40.921875 40.578125 39.3125 
z
" id="DejaVuSans-51"/>
       </defs>
       <use xlink:href="#DejaVuSans-51"/>
       <use x="63.623047" xlink:href="#DejaVuSans-48"/>
      </g>
     </g>
    </g>
    <g id="ytick_5">
     <g id="line2d_14">
      <g>
       <use style="stroke:#000000;stroke-width:0.8;" x="108" xlink:href="#maa88f9c155" y="255.149077"/>
      </g>
     </g>
     <g id="text_15">
      <!-- 40 -->
      <g transform="translate(85.73 259.708139)scale(0.12 -0.12)">
       <use xlink:href="#DejaVuSans-52"/>
       <use x="63.623047" xlink:href="#DejaVuSans-48"/>
      </g>
     </g>
    </g>
    <g id="ytick_6">
     <g id="line2d_15">
      <g>
       <use style="stroke:#000000;stroke-width:0.8;" x="108" xlink:href="#maa88f9c155" y="206.251735"/>
      </g>
     </g>
     <g id="text_16">
      <!-- 50 -->
      <g transform="translate(85.73 210.810798)scale(0.12 -0.12)">
       <defs>
        <path d="M 10.796875 72.90625 
L 49.515625 72.90625 
L 49.515625 64.59375 
L 19.828125 64.59375 
L 19.828125 46.734375 
Q 21.96875 47.46875 24.109375 47.828125 
Q 26.265625 48.1875 28.421875 48.1875 
Q 40.625 48.1875 47.75 41.5 
Q 54.890625 34.8125 54.890625 23.390625 
Q 54.890625 11.625 47.5625 5.09375 
Q 40.234375 -1.421875 26.90625 -1.421875 
Q 22.3125 -1.421875 17.546875 -0.640625 
Q 12.796875 0.140625 7.71875 1.703125 
L 7.71875 11.625 
Q 12.109375 9.234375 16.796875 8.0625 
Q 21.484375 6.890625 26.703125 6.890625 
Q 35.15625 6.890625 40.078125 11.328125 
Q 45.015625 15.765625 45.015625 23.390625 
Q 45.015625 31 40.078125 35.4375 
Q 35.15625 39.890625 26.703125 39.890625 
Q 22.75 39.890625 18.8125 39.015625 
Q 14.890625 38.140625 10.796875 36.28125 
z
" id="DejaVuSans-53"/>
       </defs>
       <use xlink:href="#DejaVuSans-53"/>
       <use x="63.623047" xlink:href="#DejaVuSans-48"/>
      </g>
     </g>
    </g>
    <g id="ytick_7">
     <g id="line2d_16">
      <g>
       <use style="stroke:#000000;stroke-width:0.8;" x="108" xlink:href="#maa88f9c155" y="157.354394"/>
      </g>
     </g>
     <g id="text_17">
      <!-- 60 -->
      <g transform="translate(85.73 161.913456)scale(0.12 -0.12)">
       <defs>
        <path d="M 33.015625 40.375 
Q 26.375 40.375 22.484375 35.828125 
Q 18.609375 31.296875 18.609375 23.390625 
Q 18.609375 15.53125 22.484375 10.953125 
Q 26.375 6.390625 33.015625 6.390625 
Q 39.65625 6.390625 43.53125 10.953125 
Q 47.40625 15.53125 47.40625 23.390625 
Q 47.40625 31.296875 43.53125 35.828125 
Q 39.65625 40.375 33.015625 40.375 
z
M 52.59375 71.296875 
L 52.59375 62.3125 
Q 48.875 64.0625 45.09375 64.984375 
Q 41.3125 65.921875 37.59375 65.921875 
Q 27.828125 65.921875 22.671875 59.328125 
Q 17.53125 52.734375 16.796875 39.40625 
Q 19.671875 43.65625 24.015625 45.921875 
Q 28.375 48.1875 33.59375 48.1875 
Q 44.578125 48.1875 50.953125 41.515625 
Q 57.328125 34.859375 57.328125 23.390625 
Q 57.328125 12.15625 50.6875 5.359375 
Q 44.046875 -1.421875 33.015625 -1.421875 
Q 20.359375 -1.421875 13.671875 8.265625 
Q 6.984375 17.96875 6.984375 36.375 
Q 6.984375 53.65625 15.1875 63.9375 
Q 23.390625 74.21875 37.203125 74.21875 
Q 40.921875 74.21875 44.703125 73.484375 
Q 48.484375 72.75 52.59375 71.296875 
z
" id="DejaVuSans-54"/>
       </defs>
       <use xlink:href="#DejaVuSans-54"/>
       <use x="63.623047" xlink:href="#DejaVuSans-48"/>
      </g>
     </g>
    </g>
    <g id="ytick_8">
     <g id="line2d_17">
      <g>
       <use style="stroke:#000000;stroke-width:0.8;" x="108" xlink:href="#maa88f9c155" y="108.457052"/>
      </g>
     </g>
     <g id="text_18">
      <!-- 70 -->
      <g transform="translate(85.73 113.016115)scale(0.12 -0.12)">
       <use xlink:href="#DejaVuSans-55"/>
       <use x="63.623047" xlink:href="#DejaVuSans-48"/>
      </g>
     </g>
    </g>
    <g id="text_19">
     <!-- PM25(micro-gram/m3) -->
     <g transform="translate(78.610469 349.562344)rotate(-90)scale(0.15 -0.15)">
      <defs>
       <path d="M 19.671875 64.796875 
L 19.671875 37.40625 
L 32.078125 37.40625 
Q 38.96875 37.40625 42.71875 40.96875 
Q 46.484375 44.53125 46.484375 51.125 
Q 46.484375 57.671875 42.71875 61.234375 
Q 38.96875 64.796875 32.078125 64.796875 
z
M 9.8125 72.90625 
L 32.078125 72.90625 
Q 44.34375 72.90625 50.609375 67.359375 
Q 56.890625 61.8125 56.890625 51.125 
Q 56.890625 40.328125 50.609375 34.8125 
Q 44.34375 29.296875 32.078125 29.296875 
L 19.671875 29.296875 
L 19.671875 0 
L 9.8125 0 
z
" id="DejaVuSans-80"/>
       <path d="M 9.8125 72.90625 
L 24.515625 72.90625 
L 43.109375 23.296875 
L 61.8125 72.90625 
L 76.515625 72.90625 
L 76.515625 0 
L 66.890625 0 
L 66.890625 64.015625 
L 48.09375 14.015625 
L 38.1875 14.015625 
L 19.390625 64.015625 
L 19.390625 0 
L 9.8125 0 
z
" id="DejaVuSans-77"/>
       <path d="M 31 75.875 
Q 24.46875 64.65625 21.28125 53.65625 
Q 18.109375 42.671875 18.109375 31.390625 
Q 18.109375 20.125 21.3125 9.0625 
Q 24.515625 -2 31 -13.1875 
L 23.1875 -13.1875 
Q 15.875 -1.703125 12.234375 9.375 
Q 8.59375 20.453125 8.59375 31.390625 
Q 8.59375 42.28125 12.203125 53.3125 
Q 15.828125 64.359375 23.1875 75.875 
z
" id="DejaVuSans-40"/>
       <path d="M 52 44.1875 
Q 55.375 50.25 60.0625 53.125 
Q 64.75 56 71.09375 56 
Q 79.640625 56 84.28125 50.015625 
Q 88.921875 44.046875 88.921875 33.015625 
L 88.921875 0 
L 79.890625 0 
L 79.890625 32.71875 
Q 79.890625 40.578125 77.09375 44.375 
Q 74.3125 48.1875 68.609375 48.1875 
Q 61.625 48.1875 57.5625 43.546875 
Q 53.515625 38.921875 53.515625 30.90625 
L 53.515625 0 
L 44.484375 0 
L 44.484375 32.71875 
Q 44.484375 40.625 41.703125 44.40625 
Q 38.921875 48.1875 33.109375 48.1875 
Q 26.21875 48.1875 22.15625 43.53125 
Q 18.109375 38.875 18.109375 30.90625 
L 18.109375 0 
L 9.078125 0 
L 9.078125 54.6875 
L 18.109375 54.6875 
L 18.109375 46.1875 
Q 21.1875 51.21875 25.484375 53.609375 
Q 29.78125 56 35.6875 56 
Q 41.65625 56 45.828125 52.96875 
Q 50 49.953125 52 44.1875 
z
" id="DejaVuSans-109"/>
       <path d="M 9.421875 54.6875 
L 18.40625 54.6875 
L 18.40625 0 
L 9.421875 0 
z
M 9.421875 75.984375 
L 18.40625 75.984375 
L 18.40625 64.59375 
L 9.421875 64.59375 
z
" id="DejaVuSans-105"/>
       <path d="M 48.78125 52.59375 
L 48.78125 44.1875 
Q 44.96875 46.296875 41.140625 47.34375 
Q 37.3125 48.390625 33.40625 48.390625 
Q 24.65625 48.390625 19.8125 42.84375 
Q 14.984375 37.3125 14.984375 27.296875 
Q 14.984375 17.28125 19.8125 11.734375 
Q 24.65625 6.203125 33.40625 6.203125 
Q 37.3125 6.203125 41.140625 7.25 
Q 44.96875 8.296875 48.78125 10.40625 
L 48.78125 2.09375 
Q 45.015625 0.34375 40.984375 -0.53125 
Q 36.96875 -1.421875 32.421875 -1.421875 
Q 20.0625 -1.421875 12.78125 6.34375 
Q 5.515625 14.109375 5.515625 27.296875 
Q 5.515625 40.671875 12.859375 48.328125 
Q 20.21875 56 33.015625 56 
Q 37.15625 56 41.109375 55.140625 
Q 45.0625 54.296875 48.78125 52.59375 
z
" id="DejaVuSans-99"/>
       <path d="M 41.109375 46.296875 
Q 39.59375 47.171875 37.8125 47.578125 
Q 36.03125 48 33.890625 48 
Q 26.265625 48 22.1875 43.046875 
Q 18.109375 38.09375 18.109375 28.8125 
L 18.109375 0 
L 9.078125 0 
L 9.078125 54.6875 
L 18.109375 54.6875 
L 18.109375 46.1875 
Q 20.953125 51.171875 25.484375 53.578125 
Q 30.03125 56 36.53125 56 
Q 37.453125 56 38.578125 55.875 
Q 39.703125 55.765625 41.0625 55.515625 
z
" id="DejaVuSans-114"/>
       <path d="M 30.609375 48.390625 
Q 23.390625 48.390625 19.1875 42.75 
Q 14.984375 37.109375 14.984375 27.296875 
Q 14.984375 17.484375 19.15625 11.84375 
Q 23.34375 6.203125 30.609375 6.203125 
Q 37.796875 6.203125 41.984375 11.859375 
Q 46.1875 17.53125 46.1875 27.296875 
Q 46.1875 37.015625 41.984375 42.703125 
Q 37.796875 48.390625 30.609375 48.390625 
z
M 30.609375 56 
Q 42.328125 56 49.015625 48.375 
Q 55.71875 40.765625 55.71875 27.296875 
Q 55.71875 13.875 49.015625 6.21875 
Q 42.328125 -1.421875 30.609375 -1.421875 
Q 18.84375 -1.421875 12.171875 6.21875 
Q 5.515625 13.875 5.515625 27.296875 
Q 5.515625 40.765625 12.171875 48.375 
Q 18.84375 56 30.609375 56 
z
" id="DejaVuSans-111"/>
       <path d="M 45.40625 27.984375 
Q 45.40625 37.75 41.375 43.109375 
Q 37.359375 48.484375 30.078125 48.484375 
Q 22.859375 48.484375 18.828125 43.109375 
Q 14.796875 37.75 14.796875 27.984375 
Q 14.796875 18.265625 18.828125 12.890625 
Q 22.859375 7.515625 30.078125 7.515625 
Q 37.359375 7.515625 41.375 12.890625 
Q 45.40625 18.265625 45.40625 27.984375 
z
M 54.390625 6.78125 
Q 54.390625 -7.171875 48.1875 -13.984375 
Q 42 -20.796875 29.203125 -20.796875 
Q 24.46875 -20.796875 20.265625 -20.09375 
Q 16.0625 -19.390625 12.109375 -17.921875 
L 12.109375 -9.1875 
Q 16.0625 -11.328125 19.921875 -12.34375 
Q 23.78125 -13.375 27.78125 -13.375 
Q 36.625 -13.375 41.015625 -8.765625 
Q 45.40625 -4.15625 45.40625 5.171875 
L 45.40625 9.625 
Q 42.625 4.78125 38.28125 2.390625 
Q 33.9375 0 27.875 0 
Q 17.828125 0 11.671875 7.65625 
Q 5.515625 15.328125 5.515625 27.984375 
Q 5.515625 40.671875 11.671875 48.328125 
Q 17.828125 56 27.875 56 
Q 33.9375 56 38.28125 53.609375 
Q 42.625 51.21875 45.40625 46.390625 
L 45.40625 54.6875 
L 54.390625 54.6875 
z
" id="DejaVuSans-103"/>
       <path d="M 25.390625 72.90625 
L 33.6875 72.90625 
L 8.296875 -9.28125 
L 0 -9.28125 
z
" id="DejaVuSans-47"/>
       <path d="M 8.015625 75.875 
L 15.828125 75.875 
Q 23.140625 64.359375 26.78125 53.3125 
Q 30.421875 42.28125 30.421875 31.390625 
Q 30.421875 20.453125 26.78125 9.375 
Q 23.140625 -1.703125 15.828125 -13.1875 
L 8.015625 -13.1875 
Q 14.5 -2 17.703125 9.0625 
Q 20.90625 20.125 20.90625 31.390625 
Q 20.90625 42.671875 17.703125 53.65625 
Q 14.5 64.65625 8.015625 75.875 
z
" id="DejaVuSans-41"/>
      </defs>
      <use xlink:href="#DejaVuSans-80"/>
      <use x="60.302734" xlink:href="#DejaVuSans-77"/>
      <use x="146.582031" xlink:href="#DejaVuSans-50"/>
      <use x="210.205078" xlink:href="#DejaVuSans-53"/>
      <use x="273.828125" xlink:href="#DejaVuSans-40"/>
      <use x="312.841797" xlink:href="#DejaVuSans-109"/>
      <use x="410.253906" xlink:href="#DejaVuSans-105"/>
      <use x="438.037109" xlink:href="#DejaVuSans-99"/>
      <use x="493.017578" xlink:href="#DejaVuSans-114"/>
      <use x="531.880859" xlink:href="#DejaVuSans-111"/>
      <use x="594.9375" xlink:href="#DejaVuSans-45"/>
      <use x="631.021484" xlink:href="#DejaVuSans-103"/>
      <use x="694.498047" xlink:href="#DejaVuSans-114"/>
      <use x="735.611328" xlink:href="#DejaVuSans-97"/>
      <use x="796.890625" xlink:href="#DejaVuSans-109"/>
      <use x="894.302734" xlink:href="#DejaVuSans-47"/>
      <use x="927.994141" xlink:href="#DejaVuSans-109"/>
      <use x="1025.40625" xlink:href="#DejaVuSans-51"/>
      <use x="1089.029297" xlink:href="#DejaVuSans-41"/>
     </g>
    </g>
   </g>
   <g id="line2d_18">
    <path clip-path="url(#p037159677a)" d="M 138.436364 254.945338 
L 139.273678 343.571769 
L 140.110992 363.945662 
L 140.948306 333.384823 
L 141.78562 338.682035 
L 142.622934 340.923163 
L 143.460248 311.584758 
L 144.297562 277.764097 
L 145.134876 337.052124 
L 145.97219 316.88197 
L 146.809504 314.029625 
L 147.646818 303.601897 
L 148.484132 288.154782 
L 149.321446 338.885774 
L 150.15876 336.033429 
L 150.996074 276.134186 
L 151.833388 316.88197 
L 152.670702 283.876265 
L 153.508016 287.747304 
L 155.182643 346.424114 
L 156.019957 360.889578 
L 156.857271 394.710239 
L 157.694585 408.360747 
L 158.531899 393.895283 
L 159.369213 343.979247 
L 160.206527 326.253961 
L 161.043841 305.157721 
L 161.881155 325.642744 
L 162.718469 323.197877 
L 163.555783 313.825887 
L 164.393097 362.31575 
L 165.230411 386.949638 
L 166.067725 367.409223 
L 166.905039 331.754912 
L 167.742353 405.508402 
L 168.579667 376.984953 
L 169.416981 344.590464 
L 170.254295 304.861374 
L 171.091609 290.192172 
L 171.928923 372.095218 
L 172.766237 383.708337 
L 173.603551 368.835396 
L 174.440865 430.568289 
L 175.278179 391.857894 
L 176.115493 395.037993 
L 176.952807 369.039135 
L 177.790121 363.130706 
L 178.627435 369.446612 
L 179.464749 294.063211 
L 180.302063 346.627853 
L 181.139377 339.496991 
L 181.976691 339.496991 
L 182.814005 346.720462 
L 183.651319 374.947563 
L 184.488633 362.257539 
L 185.325947 359.870883 
L 186.163261 337.255863 
L 187.000575 357.833494 
L 187.837889 366.798006 
L 188.675203 388.022287 
L 189.512517 402.04484 
L 190.349831 350.702632 
L 191.187145 308.121197 
L 192.024459 349.480198 
L 192.861773 376.984953 
L 193.699087 376.373736 
L 194.536401 351.925065 
L 195.373715 306.287546 
L 196.211029 222.34711 
L 197.048343 363.741923 
L 197.885657 280.820181 
L 198.722971 327.476394 
L 199.560285 323.392758 
L 200.397599 307.50998 
L 201.234913 333.588562 
L 202.072227 249.444387 
L 202.909541 290.39591 
L 203.746855 309.139891 
L 204.584169 341.941858 
L 205.421483 333.810017 
L 206.258797 365.168095 
L 207.096111 338.885774 
L 207.933425 354.166193 
L 208.770739 355.592366 
L 209.608053 400.822407 
L 210.445367 375.151302 
L 211.282681 356.61106 
L 212.119995 360.278361 
L 212.957309 361.704533 
L 214.631937 367.001745 
L 215.469251 391.654155 
L 216.306565 380.244775 
L 217.143879 348.720808 
L 217.981193 334.403518 
L 218.818507 363.130706 
L 219.655821 357.222277 
L 220.493135 320.549271 
L 221.330449 393.487805 
L 222.167763 358.64845 
L 223.005077 331.958651 
L 223.842391 270.836974 
L 224.679705 332.977345 
L 225.517019 366.594268 
L 226.354333 337.867079 
L 228.028961 390.998647 
L 228.866275 393.080328 
L 229.703589 406.527096 
L 230.540903 373.72513 
L 231.378217 333.181084 
L 232.215531 281.02392 
L 233.052845 108.86453 
L 233.890159 193.619922 
L 234.727473 339.70073 
L 235.564787 349.887676 
L 236.402101 341.738119 
L 237.239415 378.003647 
L 238.076729 384.115815 
L 238.914043 396.34015 
L 239.751357 403.87849 
L 240.588671 415.022124 
L 241.425985 409.990658 
L 242.263299 415.28787 
L 243.100613 422.214994 
L 243.937927 420.585082 
L 244.775241 417.325259 
L 245.612555 389.005549 
L 246.449869 312.195975 
L 247.287183 272.874363 
L 248.124497 361.500794 
L 248.961811 387.579377 
L 249.799125 405.91588 
L 250.636439 410.194397 
L 251.473753 401.026146 
L 252.311067 398.785017 
L 253.148381 401.841101 
L 253.985695 390.63546 
L 254.823009 364.353139 
L 255.660323 416.510304 
L 256.497637 415.695348 
L 257.334951 408.768225 
L 258.172265 381.670948 
L 259.009579 309.954847 
L 259.846893 327.476394 
L 260.684207 388.80181 
L 261.521521 411.824308 
L 262.358835 419.486664 
L 263.196149 417.12152 
L 264.033463 420.549649 
L 264.870777 421.603777 
L 265.708091 417.998484 
L 266.545405 418.955171 
L 267.382719 390.024244 
L 268.220033 397.155106 
L 269.057347 401.637362 
L 269.89466 402.859796 
L 270.731974 414.472914 
L 271.569288 428.415743 
L 272.406602 423.844905 
L 273.243916 415.28787 
L 274.08123 430.160811 
L 274.918544 418.547693 
L 275.755858 428.290118 
L 276.593172 419.973865 
L 277.430486 422.418732 
L 278.2678 421.603777 
L 279.942428 433.624373 
L 280.779742 424.456122 
L 281.617056 422.250426 
L 282.45437 416.306565 
L 283.291684 420.381343 
L 284.128998 423.233688 
L 284.966312 423.641166 
L 285.803626 426.493511 
L 286.64094 426.69725 
L 287.478254 425.678555 
L 288.315568 434.439329 
L 289.152882 429.478729 
L 289.990196 417.12152 
L 290.82751 416.306565 
L 291.664824 421.400038 
L 292.502138 421.400038 
L 293.339452 421.807516 
L 294.176766 413.657959 
L 295.01408 411.009353 
L 295.851394 415.491609 
L 296.688708 410.194397 
L 297.526022 424.8636 
L 298.363336 414.269176 
L 299.20065 416.306565 
L 300.037964 413.861698 
L 300.875278 429.478729 
L 301.712592 430.160811 
L 302.549906 433.216895 
L 303.38722 432.40194 
L 304.224534 427.777952 
L 305.061848 420.585082 
L 305.899162 427.715944 
L 306.736476 427.512205 
L 307.57379 422.214994 
L 308.411104 423.641166 
L 309.248418 429.345856 
L 310.085732 427.715944 
L 310.923046 429.753334 
L 311.76036 423.233688 
L 313.434988 434.846807 
L 314.272302 437.233463 
L 315.109616 440.027596 
L 315.94693 436.272979 
L 316.784244 433.420634 
L 317.621558 428.327161 
L 318.458872 427.512205 
L 320.1335 427.919683 
L 320.970814 430.772028 
L 321.808128 425.882294 
L 323.482756 423.738606 
L 324.32007 415.084131 
L 325.157384 412.683555 
L 325.994698 426.086033 
L 326.832012 415.491609 
L 327.669326 411.824308 
L 328.50664 395.932672 
L 329.343954 427.919683 
L 330.181268 417.12152 
L 331.018582 334.403518 
L 331.855896 322.179182 
L 332.69321 385.745726 
L 333.530524 384.727032 
L 334.367838 397.155106 
L 335.205152 402.04484 
L 336.042466 369.313739 
L 336.87978 320.75301 
L 337.717094 320.75301 
L 338.554408 314.640842 
L 339.391722 358.852189 
L 340.229036 257.797683 
L 342.740978 346.831592 
L 343.578292 382.504425 
L 344.415606 385.541987 
L 345.25292 420.788821 
L 346.090234 425.882294 
L 346.927548 419.15891 
L 347.764862 416.306565 
L 348.602176 422.418732 
L 349.43949 403.471013 
L 350.276804 387.579377 
L 351.114118 404.082229 
L 351.951432 429.957073 
L 352.788746 438.310368 
L 353.62606 424.588995 
L 354.463374 432.605679 
L 355.300688 430.568289 
L 356.138002 437.495413 
L 356.975316 434.031851 
L 357.81263 405.508402 
L 358.649944 405.455253 
L 359.487258 357.629755 
L 360.324572 351.45558 
L 361.9992 394.302761 
L 362.836514 373.317652 
L 363.673828 410.805614 
L 364.511142 412.843003 
L 365.348456 383.708337 
L 366.18577 370.465307 
L 367.023084 376.373736 
L 367.860398 350.702632 
L 368.697712 361.704533 
L 369.535026 344.386725 
L 370.37234 363.148422 
L 371.209654 357.833494 
L 372.046968 314.844581 
L 372.884282 287.951043 
L 373.721596 314.233364 
L 374.55891 312.807192 
L 375.396224 408.157008 
L 376.233538 384.610609 
L 377.070852 384.523293 
L 377.908166 345.201681 
L 378.74548 331.347434 
L 379.582794 342.553075 
L 380.420108 348.054026 
L 381.257422 334.235212 
L 382.094736 324.420311 
L 382.93205 332.16239 
L 383.769364 324.827788 
L 384.606678 307.102502 
L 385.443991 304.657635 
L 386.281305 348.054026 
L 387.118619 353.758715 
L 387.955933 348.257765 
L 388.793247 300.175379 
L 389.630561 271.61976 
L 390.467875 330.939956 
L 391.305189 311.992236 
L 392.142503 233.349012 
L 392.979817 302.416507 
L 393.817131 276.134186 
L 394.654445 354.006745 
L 395.491759 230.700406 
L 396.329073 254.741599 
L 397.166387 253.315426 
L 398.003701 286.321132 
L 398.841015 274.708013 
L 399.678329 319.734315 
L 400.515643 333.588562 
L 401.352957 327.272655 
L 402.190271 319.326837 
L 403.027585 316.678231 
L 403.864899 328.087611 
L 404.702213 390.63546 
L 405.539527 387.384496 
L 406.376841 385.13451 
L 407.214155 375.151302 
L 408.051469 375.151302 
L 408.888783 368.835396 
L 409.726097 334.199779 
L 410.563411 278.579053 
L 411.400725 315.252059 
L 412.238039 286.72861 
L 413.075353 319.123099 
L 414.749981 349.480198 
L 415.587295 344.095669 
L 416.424609 307.306241 
L 417.261923 304.657635 
L 418.099237 309.14875 
L 418.936551 309.34363 
L 419.773865 265.539762 
L 420.611179 202.176957 
L 421.448493 176.91333 
L 422.285807 239.868658 
L 423.123121 204.825563 
L 423.960435 210.733992 
L 424.797749 223.569544 
L 425.635063 188.81877 
L 426.472377 329.267152 
L 427.309691 305.472591 
L 428.147005 373.72513 
L 428.984319 332.321837 
L 429.821633 321.771705 
L 430.658947 323.605355 
L 431.496261 300.582857 
L 432.333575 252.092993 
L 433.170889 195.046095 
L 434.008203 191.378794 
L 434.845517 191.990011 
L 435.682831 274.708013 
L 436.520145 252.70421 
L 437.357459 339.496991 
L 438.194773 230.496667 
L 439.032087 307.917458 
L 439.869401 289.80241 
L 440.706715 369.650351 
L 441.544029 349.683937 
L 442.381343 348.597329 
L 443.218657 332.366129 
L 444.055971 273.893058 
L 444.893285 265.539762 
L 445.730599 198.305917 
L 446.567913 262.891156 
L 447.405227 195.657311 
L 448.242541 289.988433 
L 449.079855 355.796105 
L 449.917169 328.087611 
L 450.754483 320.956749 
L 451.591797 275.930447 
L 452.429111 262.279939 
L 453.266425 216.031204 
L 454.103739 256.575249 
L 454.941053 283.672526 
L 455.778367 180.988109 
L 457.452995 272.929928 
L 458.290309 335.625951 
L 459.127623 230.904145 
L 459.964937 231.515362 
L 460.802251 203.362347 
L 461.639565 231.311623 
L 462.476879 308.121197 
L 463.314193 207.881647 
L 464.151507 253.722904 
L 464.988821 240.05468 
L 465.826135 351.925065 
L 466.663449 319.123099 
L 467.500763 373.521391 
L 468.338077 371.687741 
L 469.175391 309.139891 
L 470.012705 329.106306 
L 470.850019 346.016636 
L 471.687333 353.962454 
L 472.524647 315.252059 
L 473.361961 307.713719 
L 475.036589 331.258852 
L 475.873903 413.250481 
L 477.548531 348.461503 
L 479.223159 335.625951 
L 480.060473 308.324936 
L 480.897787 336.848385 
L 481.735101 349.276459 
L 482.572415 317.696926 
L 483.409729 335.625951 
L 485.084357 294.878167 
L 485.921671 302.620246 
L 486.758985 323.197877 
L 487.596299 356.814799 
L 488.433613 380.36879 
L 489.270927 373.928869 
L 490.108241 326.050222 
L 490.945555 358.852189 
L 491.782869 356.61106 
L 492.620183 370.465307 
L 493.457497 365.168095 
L 494.294811 301.80529 
L 495.132125 265.336023 
L 495.969439 327.068917 
L 496.806753 338.070818 
L 497.644067 381.670948 
L 498.481381 328.495089 
L 499.318695 344.794203 
L 500.156009 379.226081 
L 500.993322 320.549271 
L 501.830636 340.719424 
L 502.66795 316.270754 
L 503.505264 356.203583 
L 504.342578 334.199779 
L 505.179892 342.960553 
L 506.85452 384.523293 
L 507.691834 372.095218 
L 508.529148 339.089513 
L 509.366462 323.401616 
L 510.203776 283.265048 
L 511.04109 191.79513 
L 511.878404 235.182662 
L 512.715718 380.244775 
L 513.553032 350.295154 
L 514.390346 353.351238 
L 515.22766 400.21119 
L 516.064974 404.489707 
L 518.576916 389.616766 
L 519.41423 392.265372 
L 520.251544 304.046418 
L 521.088858 326.050222 
L 521.926172 296.1006 
L 522.763486 366.762574 
L 524.438114 357.018538 
L 525.275428 363.130706 
L 526.112742 382.689642 
L 526.950056 390.431722 
L 527.78737 394.5065 
L 528.624684 384.930771 
L 529.461998 393.487805 
L 530.299312 378.411125 
L 531.136626 337.255863 
L 531.97394 283.672526 
L 532.811254 330.833658 
L 533.648568 366.594268 
L 534.485882 359.055927 
L 535.323196 353.147499 
L 536.16051 340.311947 
L 536.997824 380.652253 
L 537.835138 374.540086 
L 538.672452 397.155106 
L 539.509766 409.175702 
L 540.34708 375.762519 
L 541.184394 359.055927 
L 542.021708 350.091415 
L 542.859022 346.220375 
L 543.696336 363.334445 
L 544.53365 384.115815 
L 545.370964 389.085273 
L 546.208278 322.382921 
L 547.045592 357.4083 
L 547.882906 371.280263 
L 548.72022 381.26347 
L 549.557534 399.192495 
L 550.394848 421.400038 
L 551.232162 415.28787 
L 552.069476 396.951367 
L 552.90679 389.616766 
L 554.581418 398.37754 
L 555.418732 411.009353 
L 556.256046 410.398136 
L 557.09336 404.693446 
L 557.930674 406.323358 
L 558.767988 411.176048 
L 559.605302 427.565355 
L 560.442616 420.177604 
L 561.27993 436.06924 
L 562.117244 423.029949 
L 562.954558 426.69725 
L 563.791872 422.622471 
L 564.629186 432.605679 
L 565.4665 427.512205 
L 566.303814 426.69725 
L 567.978442 399.396234 
L 568.815756 414.880392 
L 569.65307 407.953269 
L 570.490384 409.069404 
L 571.327698 386.153204 
L 573.002326 298.137989 
L 573.83964 386.153204 
L 574.676954 391.042938 
L 575.514268 426.69725 
L 576.351582 431.586984 
L 577.188896 429.142117 
L 578.02621 432.198201 
L 578.863524 429.549595 
L 579.700838 415.695348 
L 580.538152 412.231786 
L 581.375466 397.970062 
L 582.21278 400.21119 
L 583.050094 406.305641 
L 583.887408 396.34015 
L 584.724722 384.930771 
L 585.562036 383.504598 
L 586.39935 404.489707 
L 587.236664 410.194397 
L 588.073978 416.714043 
L 588.911292 405.619532 
L 589.748606 389.820505 
L 590.58592 390.839199 
L 591.423234 390.431722 
L 592.260548 382.485904 
L 593.097862 387.375638 
L 593.935176 393.975007 
L 594.77249 381.670948 
L 595.609804 389.413027 
L 596.447118 403.674752 
L 597.284432 427.715944 
L 598.121746 436.476718 
L 598.95906 426.69725 
L 599.796374 425.678555 
L 600.633688 404.897185 
L 601.471002 430.772028 
L 602.308316 433.828112 
L 603.14563 428.5309 
L 603.982944 420.381343 
L 604.820258 423.437427 
L 605.657572 429.903923 
L 606.494886 416.917782 
L 607.3322 396.951367 
L 608.169514 427.919683 
L 609.006828 442.996364 
L 610.681456 427.104728 
L 611.51877 402.452318 
L 612.356084 366.390529 
L 613.193398 318.715621 
L 614.868026 392.469111 
L 615.70534 307.50998 
L 616.542653 358.64845 
L 617.379967 394.612799 
L 618.217281 413.861698 
L 619.054595 397.358845 
L 619.891909 401.433623 
L 620.729223 376.577475 
L 621.566537 421.603777 
L 622.403851 350.906371 
L 623.241165 354.369932 
L 624.915793 357.833494 
L 625.753107 379.837298 
L 626.590421 387.986854 
L 627.427735 389.820505 
L 628.265049 406.323358 
L 629.102363 415.447318 
L 629.939677 406.527096 
L 630.776991 409.58318 
L 631.614305 422.214994 
L 632.451619 421.400038 
L 633.288933 406.730835 
L 634.126247 410.601875 
L 634.963561 407.342052 
L 635.800875 419.362649 
L 636.638189 412.435525 
L 637.475503 424.456122 
L 638.312817 424.8636 
L 639.150131 427.104728 
L 639.987445 429.753334 
L 640.824759 426.502369 
L 641.662073 425.067338 
L 642.499387 418.411867 
L 643.336701 413.046742 
L 644.174015 417.732737 
L 645.011329 388.80181 
L 645.848643 427.308467 
L 646.685957 435.458023 
L 648.360585 435.865501 
L 649.197899 436.884196 
L 650.035213 420.585082 
L 650.872527 411.176048 
L 651.709841 422.418732 
L 652.547155 371.687741 
L 653.384469 393.487805 
L 654.221783 394.913978 
L 655.059097 344.997942 
L 655.896411 372.502696 
L 656.733725 412.639264 
L 657.571039 395.321456 
L 658.408353 391.654155 
L 659.245667 351.925065 
L 660.082981 355.388627 
L 660.920295 429.957073 
L 661.757609 424.8636 
L 662.594923 412.843003 
L 663.432237 433.420634 
L 664.269551 433.305477 
L 665.106865 420.788821 
L 666.781493 366.594268 
L 668.456121 321.771705 
L 669.293435 312.603453 
L 670.130749 292.4333 
L 670.968063 300.175379 
L 671.805377 370.261568 
L 672.642691 399.618495 
L 673.480005 381.467209 
L 674.317319 387.171899 
L 675.154633 373.72513 
L 675.991947 402.859796 
L 676.829261 442.234557 
L 677.666575 433.624373 
L 678.503889 419.770126 
L 679.341203 343.571769 
L 680.178517 395.321456 
L 681.015831 424.252383 
L 681.853145 400.007451 
L 682.690459 361.093317 
L 684.365087 405.508402 
L 685.202401 351.517587 
L 686.039715 338.973091 
L 686.877029 385.13451 
L 687.714343 407.581224 
L 688.551657 401.229884 
L 689.388971 343.979247 
L 690.226285 383.504598 
L 691.063599 363.741923 
L 691.900913 300.990334 
L 692.738227 332.569867 
L 693.575541 331.551173 
L 694.412855 325.846483 
L 695.250169 294.878167 
L 696.087483 313.21467 
L 696.924797 308.528675 
L 697.762111 365.575573 
L 698.599425 327.680133 
L 699.436739 354.340827 
L 700.274053 367.409223 
L 701.111367 385.541987 
L 701.948681 397.970062 
L 702.785995 408.157008 
L 703.623309 381.603714 
L 704.460623 380.140869 
L 705.297937 361.500794 
L 706.135251 333.384823 
L 706.972565 330.939956 
L 707.809879 341.53438 
L 708.647193 333.384823 
L 709.484507 271.519056 
L 710.321821 248.83317 
L 711.159135 326.661439 
L 711.996449 271.244452 
L 712.833763 357.833494 
L 713.671077 364.353139 
L 714.508391 383.300859 
L 715.345705 325.235266 
L 716.183019 303.231463 
L 717.020333 266.354718 
L 717.857647 299.564162 
L 718.694961 311.584758 
L 719.532275 283.876265 
L 720.369589 286.932349 
L 721.206903 280.208964 
L 722.044217 349.07272 
L 722.881531 350.498893 
L 723.718845 361.093317 
L 724.556159 360.4821 
L 725.393473 306.491285 
L 726.230787 309.139891 
L 727.068101 306.898763 
L 727.905415 348.665242 
L 728.742729 315.455798 
L 730.417357 343.164291 
L 732.091984 146.556231 
L 733.766612 310.566064 
L 734.603926 347.442809 
L 735.44124 343.164291 
L 736.278554 248.221953 
L 737.115868 279.801486 
L 737.953182 326.865178 
L 738.790496 398.988756 
L 739.62781 331.754912 
L 740.465124 305.880069 
L 741.302438 133.51694 
L 742.139752 256.778988 
L 742.977066 283.468787 
L 743.81438 336.237168 
L 745.489008 217.661115 
L 746.326322 296.605518 
L 747.163636 286.321132 
L 747.163636 286.321132 
" style="fill:none;stroke:#1f77b4;stroke-linecap:square;stroke-width:1.5;"/>
   </g>
   <g id="line2d_19">
    <path clip-path="url(#p037159677a)" d="M 138.436364 274.60643 
L 139.273678 295.399831 
L 140.110992 329.564 
L 140.948306 301.101729 
L 141.78562 290.058623 
L 142.622934 307.759987 
L 143.460248 294.473325 
L 144.297562 262.277303 
L 145.134876 278.824661 
L 145.97219 243.603575 
L 146.809504 296.012689 
L 147.646818 262.844088 
L 148.484132 293.429437 
L 149.321446 295.69366 
L 150.15876 292.808129 
L 150.996074 264.902991 
L 151.833388 301.545555 
L 152.670702 263.128824 
L 153.508016 272.143134 
L 154.345329 296.795289 
L 155.182643 291.141515 
L 156.019957 332.991891 
L 156.857271 331.829222 
L 157.694585 327.953718 
L 158.531899 277.713305 
L 159.369213 269.999622 
L 160.206527 237.190052 
L 161.043841 240.206144 
L 161.881155 257.606758 
L 162.718469 258.036408 
L 163.555783 307.744375 
L 164.393097 300.031624 
L 165.230411 317.441398 
L 166.067725 326.214097 
L 166.905039 301.33779 
L 167.742353 328.626601 
L 168.579667 334.101587 
L 169.416981 309.581616 
L 170.254295 296.042357 
L 171.091609 287.360394 
L 171.928923 304.308276 
L 172.766237 327.010639 
L 173.603551 317.67965 
L 174.440865 324.717419 
L 175.278179 316.61613 
L 176.115493 292.989117 
L 176.952807 296.375693 
L 177.790121 249.323212 
L 178.627435 304.005541 
L 179.464749 293.984583 
L 180.302063 321.809943 
L 181.139377 301.331933 
L 181.976691 296.479412 
L 182.814005 300.592049 
L 183.651319 325.117206 
L 184.488633 342.432288 
L 185.325947 337.543916 
L 186.163261 299.233739 
L 187.000575 300.402229 
L 187.837889 315.773394 
L 188.675203 303.924904 
L 189.512517 323.800119 
L 190.349831 323.563516 
L 191.187145 302.788964 
L 192.024459 306.78075 
L 192.861773 310.105369 
L 193.699087 304.641612 
L 194.536401 311.937546 
L 195.373715 298.892905 
L 196.211029 246.967748 
L 197.048343 285.656326 
L 197.885657 242.740433 
L 198.722971 297.17008 
L 199.560285 312.131498 
L 200.397599 296.753152 
L 201.234913 295.823083 
L 202.072227 272.273816 
L 202.909541 261.29273 
L 203.746855 213.367912 
L 204.584169 274.252511 
L 205.421483 290.511067 
L 206.258797 321.334733 
L 207.096111 324.319657 
L 207.933425 294.904467 
L 208.770739 312.175818 
L 209.608053 318.086031 
L 210.445367 312.934821 
L 211.282681 301.213357 
L 212.119995 310.581857 
L 212.957309 301.732112 
L 213.794623 296.379796 
L 214.631937 322.832119 
L 215.469251 321.00745 
L 216.306565 324.870177 
L 217.143879 333.731748 
L 217.981193 296.870068 
L 218.818507 290.385179 
L 219.655821 313.614447 
L 220.493135 315.631091 
L 221.330449 307.529466 
L 222.167763 272.771866 
L 223.005077 282.310451 
L 223.842391 262.61283 
L 224.679705 319.162002 
L 225.517019 334.818118 
L 226.354333 312.783724 
L 228.028961 324.713568 
L 228.866275 345.831547 
L 229.703589 357.85653 
L 230.540903 363.137284 
L 231.378217 319.579891 
L 232.215531 265.406692 
L 233.052845 186.703636 
L 233.890159 168.153539 
L 234.727473 272.67696 
L 235.564787 312.699338 
L 237.239415 341.9212 
L 238.076729 349.312925 
L 238.914043 350.48217 
L 239.751357 372.855277 
L 240.588671 389.970242 
L 241.425985 385.535218 
L 242.263299 375.785119 
L 243.100613 382.152084 
L 243.937927 354.627255 
L 244.775241 336.454682 
L 245.612555 342.019286 
L 246.449869 348.6535 
L 247.287183 250.583417 
L 248.124497 300.66889 
L 248.961811 300.9634 
L 249.799125 339.665519 
L 250.636439 314.375092 
L 251.473753 317.821953 
L 252.311067 319.296471 
L 253.148381 304.726175 
L 253.985695 299.609389 
L 254.823009 343.829023 
L 255.660323 329.331763 
L 257.334951 297.824003 
L 258.172265 332.949382 
L 259.009579 313.488671 
L 259.846893 262.886524 
L 260.684207 291.647865 
L 261.521521 311.304552 
L 262.358835 365.333509 
L 263.196149 345.374785 
L 264.033463 339.17162 
L 264.870777 339.963415 
L 265.708091 329.063264 
L 266.545405 335.359237 
L 267.382719 349.394168 
L 268.220033 360.432238 
L 269.057347 339.08521 
L 269.89466 348.933303 
L 270.731974 333.279285 
L 271.569288 325.984042 
L 272.406602 386.858554 
L 273.243916 402.499813 
L 274.08123 415.503949 
L 274.918544 387.972876 
L 275.755858 367.680681 
L 276.593172 371.222252 
L 277.430486 398.880888 
L 278.2678 403.249732 
L 279.105114 404.00175 
L 279.942428 413.471506 
L 280.779742 410.353206 
L 281.617056 397.132603 
L 282.45437 398.139708 
L 283.291684 389.277251 
L 284.966312 356.310563 
L 285.803626 360.327549 
L 286.64094 380.945795 
L 287.478254 386.121468 
L 288.315568 389.778267 
L 289.152882 377.695134 
L 289.990196 367.593974 
L 290.82751 364.06559 
L 291.664824 376.973781 
L 292.502138 380.468879 
L 293.339452 386.348688 
L 294.176766 384.44369 
L 295.01408 369.862804 
L 295.851394 358.479881 
L 296.688708 333.318904 
L 297.526022 354.403476 
L 298.363336 370.924655 
L 300.037964 397.133237 
L 300.875278 393.596087 
L 301.712592 403.263395 
L 302.549906 409.353348 
L 303.38722 413.15978 
L 304.224534 406.242909 
L 305.061848 382.203146 
L 305.899162 393.509164 
L 306.736476 391.146846 
L 307.57379 398.111094 
L 308.411104 394.692949 
L 309.248418 388.294526 
L 310.085732 395.073962 
L 310.923046 403.507701 
L 311.76036 402.959419 
L 312.597674 408.613454 
L 314.272302 389.026538 
L 315.109616 377.377037 
L 315.94693 359.693603 
L 316.784244 359.331803 
L 317.621558 336.373869 
L 318.458872 362.981337 
L 319.296186 337.312247 
L 320.1335 339.077964 
L 320.970814 377.348815 
L 321.808128 400.518674 
L 322.645442 398.728588 
L 323.482756 382.635454 
L 324.32007 362.046474 
L 325.157384 336.383568 
L 325.994698 358.103998 
L 326.832012 375.576636 
L 327.669326 377.442108 
L 328.50664 353.992489 
L 329.343954 346.176009 
L 330.181268 354.456245 
L 331.018582 291.718 
L 331.855896 283.440068 
L 332.69321 344.382966 
L 333.530524 346.352419 
L 334.367838 357.734951 
L 335.205152 353.282943 
L 336.042466 329.67311 
L 336.87978 312.262348 
L 337.717094 267.085002 
L 338.554408 275.115877 
L 339.391722 290.499558 
L 340.229036 279.922456 
L 342.740978 275.257116 
L 343.578292 312.706463 
L 344.415606 318.609299 
L 345.25292 337.866694 
L 346.090234 346.586456 
L 346.927548 357.168007 
L 347.764862 338.106271 
L 348.602176 326.014278 
L 349.43949 335.34729 
L 350.276804 328.178186 
L 351.114118 360.222328 
L 351.951432 373.712824 
L 352.788746 366.425605 
L 353.62606 372.587954 
L 354.463374 375.405356 
L 355.300688 368.257773 
L 356.138002 355.61248 
L 356.975316 369.074731 
L 357.81263 377.806267 
L 358.649944 365.056206 
L 359.487258 365.135593 
L 360.324572 338.967408 
L 361.161886 348.331422 
L 361.9992 341.076244 
L 362.836514 344.681561 
L 363.673828 364.874219 
L 364.511142 331.928613 
L 365.348456 345.160707 
L 366.18577 331.621569 
L 367.023084 307.127879 
L 367.860398 317.888646 
L 368.697712 314.693403 
L 369.535026 326.35251 
L 370.37234 309.714256 
L 371.209654 321.558708 
L 372.046968 302.441405 
L 372.884282 266.373489 
L 373.721596 294.500344 
L 374.55891 302.707404 
L 375.396224 317.240963 
L 376.233538 357.500979 
L 377.070852 344.333947 
L 377.908166 324.443698 
L 378.74548 332.32328 
L 379.582794 327.643651 
L 380.420108 319.762503 
L 381.257422 315.140503 
L 382.094736 282.54432 
L 382.93205 275.17329 
L 383.769364 273.902937 
L 384.606678 271.814191 
L 385.443991 280.71815 
L 386.281305 304.532754 
L 387.118619 291.387639 
L 387.955933 335.949143 
L 388.793247 311.57624 
L 389.630561 302.882676 
L 390.467875 310.353667 
L 391.305189 292.92469 
L 392.142503 225.025088 
L 392.979817 283.969399 
L 393.817131 259.389188 
L 394.654445 292.648572 
L 395.491759 284.047256 
L 396.329073 217.743237 
L 397.166387 253.758618 
L 398.003701 257.232265 
L 398.841015 247.525263 
L 399.678329 290.749208 
L 400.515643 262.84282 
L 401.352957 292.081358 
L 402.190271 298.19332 
L 403.027585 316.936856 
L 403.864899 287.679675 
L 404.702213 342.672854 
L 405.539527 348.924526 
L 406.376841 340.63655 
L 407.214155 303.662365 
L 408.051469 312.670128 
L 408.888783 329.564868 
L 409.726097 326.625317 
L 410.563411 282.60871 
L 411.400725 317.084923 
L 413.075353 278.17502 
L 413.912667 320.90208 
L 414.749981 312.34069 
L 415.587295 272.922879 
L 416.424609 278.413273 
L 417.261923 275.842238 
L 418.099237 230.459952 
L 418.936551 277.358323 
L 419.773865 242.147458 
L 420.611179 227.782074 
L 421.448493 219.107582 
L 422.285807 233.860536 
L 423.123121 214.260898 
L 423.960435 231.658659 
L 424.797749 233.633139 
L 425.635063 250.431695 
L 426.472377 281.207489 
L 427.309691 275.296772 
L 428.147005 305.932297 
L 428.984319 309.788485 
L 429.821633 298.993602 
L 430.658947 299.226884 
L 431.496261 277.260358 
L 432.333575 273.705982 
L 433.170889 213.270469 
L 434.008203 219.120266 
L 434.845517 181.680142 
L 435.682831 261.457361 
L 436.520145 247.80666 
L 437.357459 306.546442 
L 438.194773 215.514519 
L 439.032087 231.93903 
L 439.869401 285.385132 
L 440.706715 313.577561 
L 441.544029 281.679089 
L 442.381343 269.62705 
L 443.218657 259.499538 
L 444.055971 244.696968 
L 444.893285 254.698629 
L 445.730599 267.093489 
L 446.567913 262.813069 
L 447.405227 229.885444 
L 448.242541 274.298938 
L 449.917169 250.036683 
L 450.754483 241.867516 
L 452.429111 221.517549 
L 453.266425 236.712259 
L 454.103739 204.184477 
L 454.941053 206.056552 
L 456.615681 241.865763 
L 457.452995 206.072146 
L 458.290309 266.186811 
L 459.127623 282.342627 
L 459.964937 224.383803 
L 460.802251 203.4935 
L 461.639565 141.623378 
L 462.476879 285.313337 
L 463.314193 258.058661 
L 464.151507 192.189161 
L 464.988821 260.229872 
L 465.826135 286.464367 
L 466.663449 254.234434 
L 467.500763 317.299384 
L 468.338077 306.103054 
L 470.012705 275.876652 
L 470.850019 300.063586 
L 471.687333 314.704846 
L 472.524647 283.264544 
L 473.361961 291.608787 
L 474.199275 277.977766 
L 475.036589 295.176687 
L 475.873903 301.85827 
L 476.711217 323.929224 
L 477.548531 297.217356 
L 478.385845 255.181551 
L 479.223159 296.964199 
L 480.060473 281.670229 
L 480.897787 288.011342 
L 481.735101 284.068949 
L 482.572415 276.733284 
L 483.409729 276.480632 
L 484.247043 277.030518 
L 485.084357 267.036038 
L 485.921671 267.892614 
L 486.758985 283.476721 
L 487.596299 301.743481 
L 488.433613 325.526039 
L 489.270927 304.938939 
L 490.108241 312.35412 
L 490.945555 315.805589 
L 491.782869 324.295725 
L 492.620183 305.214693 
L 493.457497 300.415892 
L 494.294811 306.815015 
L 495.132125 260.701025 
L 495.969439 273.90152 
L 496.806753 284.382615 
L 497.644067 312.462027 
L 498.481381 289.281862 
L 499.318695 277.805563 
L 500.156009 325.955792 
L 500.993322 301.931334 
L 501.830636 286.993866 
L 502.66795 304.498843 
L 503.505264 305.322731 
L 504.342578 298.349706 
L 505.179892 285.201009 
L 506.017206 321.686974 
L 506.85452 345.053807 
L 508.529148 268.425732 
L 509.366462 304.082903 
L 510.203776 269.147149 
L 511.04109 255.632167 
L 511.878404 223.699598 
L 512.715718 292.598191 
L 513.553032 294.023008 
L 514.390346 285.449074 
L 515.22766 332.401435 
L 516.064974 327.330069 
L 516.902288 342.090782 
L 517.739602 326.86316 
L 518.576916 330.36708 
L 519.41423 319.930733 
L 520.251544 326.459801 
L 521.926172 271.467882 
L 523.6008 313.340791 
L 524.438114 328.197203 
L 525.275428 289.845458 
L 526.112742 314.178528 
L 526.950056 346.781192 
L 527.78737 352.916172 
L 528.624684 357.806998 
L 529.461998 360.91946 
L 531.136626 315.837327 
L 531.97394 262.082716 
L 532.811254 274.871133 
L 533.648568 279.168974 
L 534.485882 303.23556 
L 535.323196 286.737016 
L 536.16051 305.678077 
L 536.997824 342.193746 
L 537.835138 352.39046 
L 538.672452 330.661572 
L 539.509766 323.025512 
L 540.34708 344.136879 
L 541.184394 314.600297 
L 542.021708 244.833936 
L 542.859022 298.886106 
L 543.696336 306.527724 
L 544.53365 324.100672 
L 545.370964 311.442807 
L 546.208278 310.385946 
L 547.045592 298.628174 
L 547.882906 333.677878 
L 548.72022 338.338527 
L 550.394848 377.496042 
L 551.232162 373.768913 
L 552.069476 369.055434 
L 552.90679 372.406075 
L 553.744104 345.716077 
L 554.581418 369.683485 
L 555.418732 367.27085 
L 556.256046 376.500036 
L 557.09336 394.079802 
L 557.930674 382.131249 
L 558.767988 381.830733 
L 559.605302 391.163605 
L 560.442616 392.818319 
L 561.27993 402.136548 
L 562.117244 400.505347 
L 562.954558 403.335843 
L 563.791872 404.648417 
L 564.629186 396.338262 
L 565.4665 406.288236 
L 566.303814 404.726096 
L 567.141128 383.777037 
L 567.978442 359.364828 
L 568.815756 351.322118 
L 569.65307 364.494419 
L 570.490384 334.921259 
L 571.327698 337.561123 
L 572.165012 336.106293 
L 573.002326 282.803744 
L 573.83964 294.42244 
L 574.676954 343.005183 
L 575.514268 374.059142 
L 576.351582 390.25883 
L 577.188896 387.867263 
L 578.02621 397.090643 
L 578.863524 396.120089 
L 580.538152 332.462514 
L 581.375466 357.356895 
L 582.21278 371.927564 
L 583.050094 377.691142 
L 583.887408 374.04269 
L 584.724722 360.702891 
L 585.562036 360.354549 
L 586.39935 357.128584 
L 587.236664 373.18603 
L 588.911292 363.96479 
L 589.748606 319.161834 
L 590.58592 314.33871 
L 591.423234 303.614017 
L 592.260548 361.916417 
L 593.097862 333.235442 
L 593.935176 319.221234 
L 594.77249 324.469747 
L 595.609804 358.234698 
L 596.447118 360.328211 
L 597.284432 364.893534 
L 598.121746 393.857796 
L 598.95906 410.839243 
L 599.796374 404.756706 
L 600.633688 385.42331 
L 601.471002 398.49857 
L 602.308316 415.024366 
L 603.982944 396.885555 
L 604.820258 392.152785 
L 605.657572 396.365952 
L 606.494886 386.463552 
L 607.3322 387.430833 
L 608.169514 369.623693 
L 609.006828 346.873794 
L 609.844142 369.91313 
L 610.681456 364.940045 
L 612.356084 272.169528 
L 613.193398 279.771238 
L 614.030712 300.771993 
L 614.868026 302.869209 
L 615.70534 278.765513 
L 616.542653 294.847567 
L 617.379967 328.963444 
L 618.217281 371.615576 
L 619.054595 318.511922 
L 619.891909 304.480396 
L 620.729223 348.542768 
L 621.566537 316.90704 
L 622.403851 319.727473 
L 623.241165 304.251516 
L 624.078479 282.996783 
L 624.915793 274.047161 
L 625.753107 290.224223 
L 626.590421 299.955101 
L 627.427735 346.172484 
L 628.265049 332.989308 
L 629.102363 324.856169 
L 629.939677 348.359681 
L 630.776991 360.95282 
L 631.614305 359.985828 
L 632.451619 325.073465 
L 633.288933 320.236397 
L 634.126247 352.26501 
L 634.963561 369.960564 
L 635.800875 375.18847 
L 636.638189 375.102993 
L 637.475503 367.829811 
L 638.312817 389.553164 
L 639.150131 392.159584 
L 639.987445 404.74322 
L 640.824759 395.007651 
L 641.662073 387.953514 
L 642.499387 391.151565 
L 643.336701 378.116185 
L 644.174015 346.187705 
L 645.011329 364.912103 
L 645.848643 363.629803 
L 647.523271 372.71387 
L 648.360585 400.069392 
L 649.197899 407.452463 
L 650.035213 401.923225 
L 650.872527 378.236253 
L 651.709841 388.107671 
L 652.547155 365.797843 
L 653.384469 357.161553 
L 654.221783 371.948194 
L 655.059097 339.745074 
L 655.896411 334.877611 
L 656.733725 353.984766 
L 657.571039 345.443241 
L 658.408353 340.032794 
L 659.245667 350.078038 
L 660.082981 319.875474 
L 660.920295 369.200665 
L 661.757609 372.635304 
L 662.594923 377.847322 
L 663.432237 376.409616 
L 664.269551 394.221004 
L 665.106865 396.593647 
L 665.944179 365.496777 
L 666.781493 349.247081 
L 667.618807 337.384005 
L 668.456121 297.719957 
L 669.293435 280.861814 
L 670.130749 303.080825 
L 670.968063 271.751293 
L 671.805377 319.034883 
L 672.642691 359.744563 
L 673.480005 360.656706 
L 674.317319 353.414847 
L 675.154633 340.178212 
L 675.991947 357.404777 
L 676.829261 372.177922 
L 677.666575 393.646459 
L 680.178517 313.213075 
L 681.015831 337.640715 
L 681.853145 368.195444 
L 682.690459 332.721099 
L 683.527773 330.298307 
L 684.365087 337.408934 
L 685.202401 335.105195 
L 686.039715 306.982228 
L 686.877029 329.568691 
L 687.714343 360.809081 
L 688.551657 372.102005 
L 689.388971 317.981351 
L 690.226285 306.081622 
L 691.063599 317.180612 
L 691.900913 296.620772 
L 692.738227 304.223247 
L 693.575541 327.142244 
L 694.412855 304.741797 
L 695.250169 296.332362 
L 696.087483 279.157466 
L 696.924797 279.958158 
L 697.762111 321.692122 
L 698.599425 288.91442 
L 699.436739 307.158787 
L 700.274053 308.341238 
L 701.111367 325.869541 
L 701.948681 333.696885 
L 702.785995 327.571931 
L 703.623309 318.071109 
L 704.460623 300.238969 
L 706.135251 278.895673 
L 706.972565 288.969166 
L 707.809879 300.850979 
L 708.647193 309.20286 
L 709.484507 303.798755 
L 710.321821 275.817448 
L 711.159135 292.351414 
L 711.996449 230.952835 
L 712.833763 281.968451 
L 713.671077 312.503474 
L 714.508391 316.516141 
L 715.345705 299.331965 
L 716.183019 253.539056 
L 717.020333 230.794976 
L 717.857647 268.136967 
L 718.694961 279.325155 
L 719.532275 257.342914 
L 720.369589 294.543264 
L 721.206903 228.841686 
L 722.044217 277.271998 
L 722.881531 288.406074 
L 723.718845 270.672375 
L 724.556159 288.535506 
L 725.393473 249.059479 
L 726.230787 273.338446 
L 727.068101 289.380032 
L 727.905415 295.594026 
L 728.742729 298.938026 
L 729.580043 268.736171 
L 730.417357 317.753143 
L 731.254671 263.469631 
L 732.091984 86.923636 
L 732.929298 236.505622 
L 733.766612 277.60109 
L 734.603926 299.557898 
L 735.44124 287.359518 
L 736.278554 244.021436 
L 737.115868 285.802415 
L 737.953182 258.794367 
L 738.790496 316.697951 
L 739.62781 286.472948 
L 740.465124 287.279161 
L 741.302438 270.301202 
L 742.139752 256.329672 
L 742.977066 230.254062 
L 743.81438 285.466831 
L 744.651694 264.608742 
L 745.489008 255.655091 
L 746.326322 253.199555 
L 747.163636 225.416705 
L 747.163636 225.416705 
" style="fill:none;stroke:#ff0000;stroke-dasharray:5.55,2.4;stroke-dashoffset:0;stroke-width:1.5;"/>
   </g>
   <g id="patch_3">
    <path d="M 108 460.8 
L 108 69.12 
" style="fill:none;stroke:#000000;stroke-linecap:square;stroke-linejoin:miter;stroke-width:0.8;"/>
   </g>
   <g id="patch_4">
    <path d="M 777.6 460.8 
L 777.6 69.12 
" style="fill:none;stroke:#000000;stroke-linecap:square;stroke-linejoin:miter;stroke-width:0.8;"/>
   </g>
   <g id="patch_5">
    <path d="M 108 460.8 
L 777.6 460.8 
" style="fill:none;stroke:#000000;stroke-linecap:square;stroke-linejoin:miter;stroke-width:0.8;"/>
   </g>
   <g id="patch_6">
    <path d="M 108 69.12 
L 777.6 69.12 
" style="fill:none;stroke:#000000;stroke-linecap:square;stroke-linejoin:miter;stroke-width:0.8;"/>
   </g>
   <g id="text_20">
    <!-- Macau roadside 2020-2021 | Forecast vs Monitored | LSTM -->
    <g transform="translate(223.246875 63.12)scale(0.15 -0.15)">
     <defs>
      <path d="M 8.5 21.578125 
L 8.5 54.6875 
L 17.484375 54.6875 
L 17.484375 21.921875 
Q 17.484375 14.15625 20.5 10.265625 
Q 23.53125 6.390625 29.59375 6.390625 
Q 36.859375 6.390625 41.078125 11.03125 
Q 45.3125 15.671875 45.3125 23.6875 
L 45.3125 54.6875 
L 54.296875 54.6875 
L 54.296875 0 
L 45.3125 0 
L 45.3125 8.40625 
Q 42.046875 3.421875 37.71875 1 
Q 33.40625 -1.421875 27.6875 -1.421875 
Q 18.265625 -1.421875 13.375 4.4375 
Q 8.5 10.296875 8.5 21.578125 
z
M 31.109375 56 
z
" id="DejaVuSans-117"/>
      <path id="DejaVuSans-32"/>
      <path d="M 45.40625 46.390625 
L 45.40625 75.984375 
L 54.390625 75.984375 
L 54.390625 0 
L 45.40625 0 
L 45.40625 8.203125 
Q 42.578125 3.328125 38.25 0.953125 
Q 33.9375 -1.421875 27.875 -1.421875 
Q 17.96875 -1.421875 11.734375 6.484375 
Q 5.515625 14.40625 5.515625 27.296875 
Q 5.515625 40.1875 11.734375 48.09375 
Q 17.96875 56 27.875 56 
Q 33.9375 56 38.25 53.625 
Q 42.578125 51.265625 45.40625 46.390625 
z
M 14.796875 27.296875 
Q 14.796875 17.390625 18.875 11.75 
Q 22.953125 6.109375 30.078125 6.109375 
Q 37.203125 6.109375 41.296875 11.75 
Q 45.40625 17.390625 45.40625 27.296875 
Q 45.40625 37.203125 41.296875 42.84375 
Q 37.203125 48.484375 30.078125 48.484375 
Q 22.953125 48.484375 18.875 42.84375 
Q 14.796875 37.203125 14.796875 27.296875 
z
" id="DejaVuSans-100"/>
      <path d="M 44.28125 53.078125 
L 44.28125 44.578125 
Q 40.484375 46.53125 36.375 47.5 
Q 32.28125 48.484375 27.875 48.484375 
Q 21.1875 48.484375 17.84375 46.4375 
Q 14.5 44.390625 14.5 40.28125 
Q 14.5 37.15625 16.890625 35.375 
Q 19.28125 33.59375 26.515625 31.984375 
L 29.59375 31.296875 
Q 39.15625 29.25 43.1875 25.515625 
Q 47.21875 21.78125 47.21875 15.09375 
Q 47.21875 7.46875 41.1875 3.015625 
Q 35.15625 -1.421875 24.609375 -1.421875 
Q 20.21875 -1.421875 15.453125 -0.5625 
Q 10.6875 0.296875 5.421875 2 
L 5.421875 11.28125 
Q 10.40625 8.6875 15.234375 7.390625 
Q 20.0625 6.109375 24.8125 6.109375 
Q 31.15625 6.109375 34.5625 8.28125 
Q 37.984375 10.453125 37.984375 14.40625 
Q 37.984375 18.0625 35.515625 20.015625 
Q 33.0625 21.96875 24.703125 23.78125 
L 21.578125 24.515625 
Q 13.234375 26.265625 9.515625 29.90625 
Q 5.8125 33.546875 5.8125 39.890625 
Q 5.8125 47.609375 11.28125 51.796875 
Q 16.75 56 26.8125 56 
Q 31.78125 56 36.171875 55.265625 
Q 40.578125 54.546875 44.28125 53.078125 
z
" id="DejaVuSans-115"/>
      <path d="M 21 76.421875 
L 21 -23.578125 
L 12.703125 -23.578125 
L 12.703125 76.421875 
z
" id="DejaVuSans-124"/>
      <path d="M 9.8125 72.90625 
L 51.703125 72.90625 
L 51.703125 64.59375 
L 19.671875 64.59375 
L 19.671875 43.109375 
L 48.578125 43.109375 
L 48.578125 34.8125 
L 19.671875 34.8125 
L 19.671875 0 
L 9.8125 0 
z
" id="DejaVuSans-70"/>
      <path d="M 2.984375 54.6875 
L 12.5 54.6875 
L 29.59375 8.796875 
L 46.6875 54.6875 
L 56.203125 54.6875 
L 35.6875 0 
L 23.484375 0 
z
" id="DejaVuSans-118"/>
      <path d="M 54.890625 33.015625 
L 54.890625 0 
L 45.90625 0 
L 45.90625 32.71875 
Q 45.90625 40.484375 42.875 44.328125 
Q 39.84375 48.1875 33.796875 48.1875 
Q 26.515625 48.1875 22.3125 43.546875 
Q 18.109375 38.921875 18.109375 30.90625 
L 18.109375 0 
L 9.078125 0 
L 9.078125 54.6875 
L 18.109375 54.6875 
L 18.109375 46.1875 
Q 21.34375 51.125 25.703125 53.5625 
Q 30.078125 56 35.796875 56 
Q 45.21875 56 50.046875 50.171875 
Q 54.890625 44.34375 54.890625 33.015625 
z
" id="DejaVuSans-110"/>
      <path d="M 9.8125 72.90625 
L 19.671875 72.90625 
L 19.671875 8.296875 
L 55.171875 8.296875 
L 55.171875 0 
L 9.8125 0 
z
" id="DejaVuSans-76"/>
      <path d="M 53.515625 70.515625 
L 53.515625 60.890625 
Q 47.90625 63.578125 42.921875 64.890625 
Q 37.9375 66.21875 33.296875 66.21875 
Q 25.25 66.21875 20.875 63.09375 
Q 16.5 59.96875 16.5 54.203125 
Q 16.5 49.359375 19.40625 46.890625 
Q 22.3125 44.4375 30.421875 42.921875 
L 36.375 41.703125 
Q 47.40625 39.59375 52.65625 34.296875 
Q 57.90625 29 57.90625 20.125 
Q 57.90625 9.515625 50.796875 4.046875 
Q 43.703125 -1.421875 29.984375 -1.421875 
Q 24.8125 -1.421875 18.96875 -0.25 
Q 13.140625 0.921875 6.890625 3.21875 
L 6.890625 13.375 
Q 12.890625 10.015625 18.65625 8.296875 
Q 24.421875 6.59375 29.984375 6.59375 
Q 38.421875 6.59375 43.015625 9.90625 
Q 47.609375 13.234375 47.609375 19.390625 
Q 47.609375 24.75 44.3125 27.78125 
Q 41.015625 30.8125 33.5 32.328125 
L 27.484375 33.5 
Q 16.453125 35.6875 11.515625 40.375 
Q 6.59375 45.0625 6.59375 53.421875 
Q 6.59375 63.09375 13.40625 68.65625 
Q 20.21875 74.21875 32.171875 74.21875 
Q 37.3125 74.21875 42.625 73.28125 
Q 47.953125 72.359375 53.515625 70.515625 
z
" id="DejaVuSans-83"/>
      <path d="M -0.296875 72.90625 
L 61.375 72.90625 
L 61.375 64.59375 
L 35.5 64.59375 
L 35.5 0 
L 25.59375 0 
L 25.59375 64.59375 
L -0.296875 64.59375 
z
" id="DejaVuSans-84"/>
     </defs>
     <use xlink:href="#DejaVuSans-77"/>
     <use x="86.279297" xlink:href="#DejaVuSans-97"/>
     <use x="147.558594" xlink:href="#DejaVuSans-99"/>
     <use x="202.539062" xlink:href="#DejaVuSans-97"/>
     <use x="263.818359" xlink:href="#DejaVuSans-117"/>
     <use x="327.197266" xlink:href="#DejaVuSans-32"/>
     <use x="358.984375" xlink:href="#DejaVuSans-114"/>
     <use x="397.847656" xlink:href="#DejaVuSans-111"/>
     <use x="459.029297" xlink:href="#DejaVuSans-97"/>
     <use x="520.308594" xlink:href="#DejaVuSans-100"/>
     <use x="583.785156" xlink:href="#DejaVuSans-115"/>
     <use x="635.884766" xlink:href="#DejaVuSans-105"/>
     <use x="663.667969" xlink:href="#DejaVuSans-100"/>
     <use x="727.144531" xlink:href="#DejaVuSans-101"/>
     <use x="788.667969" xlink:href="#DejaVuSans-32"/>
     <use x="820.455078" xlink:href="#DejaVuSans-50"/>
     <use x="884.078125" xlink:href="#DejaVuSans-48"/>
     <use x="947.701172" xlink:href="#DejaVuSans-50"/>
     <use x="1011.324219" xlink:href="#DejaVuSans-48"/>
     <use x="1074.947266" xlink:href="#DejaVuSans-45"/>
     <use x="1111.03125" xlink:href="#DejaVuSans-50"/>
     <use x="1174.654297" xlink:href="#DejaVuSans-48"/>
     <use x="1238.277344" xlink:href="#DejaVuSans-50"/>
     <use x="1301.900391" xlink:href="#DejaVuSans-49"/>
     <use x="1365.523438" xlink:href="#DejaVuSans-32"/>
     <use x="1397.310547" xlink:href="#DejaVuSans-124"/>
     <use x="1431.001953" xlink:href="#DejaVuSans-32"/>
     <use x="1462.789062" xlink:href="#DejaVuSans-70"/>
     <use x="1516.683594" xlink:href="#DejaVuSans-111"/>
     <use x="1577.865234" xlink:href="#DejaVuSans-114"/>
     <use x="1616.728516" xlink:href="#DejaVuSans-101"/>
     <use x="1678.251953" xlink:href="#DejaVuSans-99"/>
     <use x="1733.232422" xlink:href="#DejaVuSans-97"/>
     <use x="1794.511719" xlink:href="#DejaVuSans-115"/>
     <use x="1846.611328" xlink:href="#DejaVuSans-116"/>
     <use x="1885.820312" xlink:href="#DejaVuSans-32"/>
     <use x="1917.607422" xlink:href="#DejaVuSans-118"/>
     <use x="1976.787109" xlink:href="#DejaVuSans-115"/>
     <use x="2028.886719" xlink:href="#DejaVuSans-32"/>
     <use x="2060.673828" xlink:href="#DejaVuSans-77"/>
     <use x="2146.953125" xlink:href="#DejaVuSans-111"/>
     <use x="2208.134766" xlink:href="#DejaVuSans-110"/>
     <use x="2271.513672" xlink:href="#DejaVuSans-105"/>
     <use x="2299.296875" xlink:href="#DejaVuSans-116"/>
     <use x="2338.505859" xlink:href="#DejaVuSans-111"/>
     <use x="2399.6875" xlink:href="#DejaVuSans-114"/>
     <use x="2438.550781" xlink:href="#DejaVuSans-101"/>
     <use x="2500.074219" xlink:href="#DejaVuSans-100"/>
     <use x="2563.550781" xlink:href="#DejaVuSans-32"/>
     <use x="2595.337891" xlink:href="#DejaVuSans-124"/>
     <use x="2629.029297" xlink:href="#DejaVuSans-32"/>
     <use x="2660.816406" xlink:href="#DejaVuSans-76"/>
     <use x="2716.529297" xlink:href="#DejaVuSans-83"/>
     <use x="2780.005859" xlink:href="#DejaVuSans-84"/>
     <use x="2841.089844" xlink:href="#DejaVuSans-77"/>
    </g>
   </g>
   <g id="legend_1">
    <g id="patch_7">
     <path d="M 357.681562 114.615 
L 527.918437 114.615 
Q 530.318437 114.615 530.318437 112.215 
L 530.318437 77.52 
Q 530.318437 75.12 527.918437 75.12 
L 357.681562 75.12 
Q 355.281563 75.12 355.281563 77.52 
L 355.281563 112.215 
Q 355.281563 114.615 357.681562 114.615 
z
" style="fill:#ffffff;opacity:0.8;stroke:#cccccc;stroke-linejoin:miter;"/>
    </g>
    <g id="line2d_20">
     <path d="M 360.081563 84.838125 
L 384.081563 84.838125 
" style="fill:none;stroke:#1f77b4;stroke-linecap:square;stroke-width:1.5;"/>
    </g>
    <g id="line2d_21"/>
    <g id="text_21">
     <!-- measured_data_PM25 -->
     <g transform="translate(393.681563 89.038125)scale(0.12 -0.12)">
      <defs>
       <path d="M 50.984375 -16.609375 
L 50.984375 -23.578125 
L -0.984375 -23.578125 
L -0.984375 -16.609375 
z
" id="DejaVuSans-95"/>
      </defs>
      <use xlink:href="#DejaVuSans-109"/>
      <use x="97.412109" xlink:href="#DejaVuSans-101"/>
      <use x="158.935547" xlink:href="#DejaVuSans-97"/>
      <use x="220.214844" xlink:href="#DejaVuSans-115"/>
      <use x="272.314453" xlink:href="#DejaVuSans-117"/>
      <use x="335.693359" xlink:href="#DejaVuSans-114"/>
      <use x="374.556641" xlink:href="#DejaVuSans-101"/>
      <use x="436.080078" xlink:href="#DejaVuSans-100"/>
      <use x="499.556641" xlink:href="#DejaVuSans-95"/>
      <use x="549.556641" xlink:href="#DejaVuSans-100"/>
      <use x="613.033203" xlink:href="#DejaVuSans-97"/>
      <use x="674.3125" xlink:href="#DejaVuSans-116"/>
      <use x="713.521484" xlink:href="#DejaVuSans-97"/>
      <use x="774.800781" xlink:href="#DejaVuSans-95"/>
      <use x="824.800781" xlink:href="#DejaVuSans-80"/>
      <use x="885.103516" xlink:href="#DejaVuSans-77"/>
      <use x="971.382812" xlink:href="#DejaVuSans-50"/>
      <use x="1035.005859" xlink:href="#DejaVuSans-53"/>
     </g>
    </g>
    <g id="line2d_22">
     <path d="M 360.081563 102.785625 
L 384.081563 102.785625 
" style="fill:none;stroke:#ff0000;stroke-dasharray:5.55,2.4;stroke-dashoffset:0;stroke-width:1.5;"/>
    </g>
    <g id="line2d_23"/>
    <g id="text_22">
     <!-- predicted_data_PM25 -->
     <g transform="translate(393.681563 106.985625)scale(0.12 -0.12)">
      <defs>
       <path d="M 18.109375 8.203125 
L 18.109375 -20.796875 
L 9.078125 -20.796875 
L 9.078125 54.6875 
L 18.109375 54.6875 
L 18.109375 46.390625 
Q 20.953125 51.265625 25.265625 53.625 
Q 29.59375 56 35.59375 56 
Q 45.5625 56 51.78125 48.09375 
Q 58.015625 40.1875 58.015625 27.296875 
Q 58.015625 14.40625 51.78125 6.484375 
Q 45.5625 -1.421875 35.59375 -1.421875 
Q 29.59375 -1.421875 25.265625 0.953125 
Q 20.953125 3.328125 18.109375 8.203125 
z
M 48.6875 27.296875 
Q 48.6875 37.203125 44.609375 42.84375 
Q 40.53125 48.484375 33.40625 48.484375 
Q 26.265625 48.484375 22.1875 42.84375 
Q 18.109375 37.203125 18.109375 27.296875 
Q 18.109375 17.390625 22.1875 11.75 
Q 26.265625 6.109375 33.40625 6.109375 
Q 40.53125 6.109375 44.609375 11.75 
Q 48.6875 17.390625 48.6875 27.296875 
z
" id="DejaVuSans-112"/>
      </defs>
      <use xlink:href="#DejaVuSans-112"/>
      <use x="63.476562" xlink:href="#DejaVuSans-114"/>
      <use x="102.339844" xlink:href="#DejaVuSans-101"/>
      <use x="163.863281" xlink:href="#DejaVuSans-100"/>
      <use x="227.339844" xlink:href="#DejaVuSans-105"/>
      <use x="255.123047" xlink:href="#DejaVuSans-99"/>
      <use x="310.103516" xlink:href="#DejaVuSans-116"/>
      <use x="349.3125" xlink:href="#DejaVuSans-101"/>
      <use x="410.835938" xlink:href="#DejaVuSans-100"/>
      <use x="474.3125" xlink:href="#DejaVuSans-95"/>
      <use x="524.3125" xlink:href="#DejaVuSans-100"/>
      <use x="587.789062" xlink:href="#DejaVuSans-97"/>
      <use x="649.068359" xlink:href="#DejaVuSans-116"/>
      <use x="688.277344" xlink:href="#DejaVuSans-97"/>
      <use x="749.556641" xlink:href="#DejaVuSans-95"/>
      <use x="799.556641" xlink:href="#DejaVuSans-80"/>
      <use x="859.859375" xlink:href="#DejaVuSans-77"/>
      <use x="946.138672" xlink:href="#DejaVuSans-50"/>
      <use x="1009.761719" xlink:href="#DejaVuSans-53"/>
     </g>
    </g>
   </g>
  </g>
 </g>
 <defs>
  <clipPath id="p037159677a">
   <rect height="391.68" width="669.6" x="108" y="69.12"/>
  </clipPath>
 </defs>
</svg>
