<?xml version="1.0" encoding="utf-8" standalone="no"?>
<!DOCTYPE svg PUBLIC "-//W3C//DTD SVG 1.1//EN"
  "http://www.w3.org/Graphics/SVG/1.1/DTD/svg11.dtd">
<!-- Created with matplotlib (https://matplotlib.org/) -->
<svg height="576pt" version="1.1" viewBox="0 0 864 576" width="864pt" xmlns="http://www.w3.org/2000/svg" xmlns:xlink="http://www.w3.org/1999/xlink">
 <metadata>
  <rdf:RDF xmlns:cc="http://creativecommons.org/ns#" xmlns:dc="http://purl.org/dc/elements/1.1/" xmlns:rdf="http://www.w3.org/1999/02/22-rdf-syntax-ns#">
   <cc:Work>
    <dc:type rdf:resource="http://purl.org/dc/dcmitype/StillImage"/>
    <dc:date>2024-03-08T17:48:22.831455</dc:date>
    <dc:format>image/svg+xml</dc:format>
    <dc:creator>
     <cc:Agent>
      <dc:title>Matplotlib v3.3.4, https://matplotlib.org/</dc:title>
     </cc:Agent>
    </dc:creator>
   </cc:Work>
  </rdf:RDF>
 </metadata>
 <defs>
  <style type="text/css">*{stroke-linecap:butt;stroke-linejoin:round;}</style>
 </defs>
 <g id="figure_1">
  <g id="patch_1">
   <path d="M 0 576 
L 864 576 
L 864 0 
L 0 0 
z
" style="fill:#ffffff;"/>
  </g>
  <g id="axes_1">
   <g id="patch_2">
    <path d="M 108 460.8 
L 777.6 460.8 
L 777.6 69.12 
L 108 69.12 
z
" style="fill:#ffffff;"/>
   </g>
   <g id="matplotlib.axis_1">
    <g id="xtick_1">
     <g id="line2d_1">
      <defs>
       <path d="M 0 0 
L 0 3.5 
" id="m922222a5ce" style="stroke:#000000;stroke-width:0.8;"/>
      </defs>
      <g>
       <use style="stroke:#000000;stroke-width:0.8;" x="136.761736" xlink:href="#m922222a5ce" y="460.8"/>
      </g>
     </g>
     <g id="text_1">
      <!-- 2020-01 -->
      <g transform="translate(92.091951 500.766215)rotate(-30)scale(0.12 -0.12)">
       <defs>
        <path d="M 19.1875 8.296875 
L 53.609375 8.296875 
L 53.609375 0 
L 7.328125 0 
L 7.328125 8.296875 
Q 12.9375 14.109375 22.625 23.890625 
Q 32.328125 33.6875 34.8125 36.53125 
Q 39.546875 41.84375 41.421875 45.53125 
Q 43.3125 49.21875 43.3125 52.78125 
Q 43.3125 58.59375 39.234375 62.25 
Q 35.15625 65.921875 28.609375 65.921875 
Q 23.96875 65.921875 18.8125 64.3125 
Q 13.671875 62.703125 7.8125 59.421875 
L 7.8125 69.390625 
Q 13.765625 71.78125 18.9375 73 
Q 24.125 74.21875 28.421875 74.21875 
Q 39.75 74.21875 46.484375 68.546875 
Q 53.21875 62.890625 53.21875 53.421875 
Q 53.21875 48.921875 51.53125 44.890625 
Q 49.859375 40.875 45.40625 35.40625 
Q 44.1875 33.984375 37.640625 27.21875 
Q 31.109375 20.453125 19.1875 8.296875 
z
" id="DejaVuSans-50"/>
        <path d="M 31.78125 66.40625 
Q 24.171875 66.40625 20.328125 58.90625 
Q 16.5 51.421875 16.5 36.375 
Q 16.5 21.390625 20.328125 13.890625 
Q 24.171875 6.390625 31.78125 6.390625 
Q 39.453125 6.390625 43.28125 13.890625 
Q 47.125 21.390625 47.125 36.375 
Q 47.125 51.421875 43.28125 58.90625 
Q 39.453125 66.40625 31.78125 66.40625 
z
M 31.78125 74.21875 
Q 44.046875 74.21875 50.515625 64.515625 
Q 56.984375 54.828125 56.984375 36.375 
Q 56.984375 17.96875 50.515625 8.265625 
Q 44.046875 -1.421875 31.78125 -1.421875 
Q 19.53125 -1.421875 13.0625 8.265625 
Q 6.59375 17.96875 6.59375 36.375 
Q 6.59375 54.828125 13.0625 64.515625 
Q 19.53125 74.21875 31.78125 74.21875 
z
" id="DejaVuSans-48"/>
        <path d="M 4.890625 31.390625 
L 31.203125 31.390625 
L 31.203125 23.390625 
L 4.890625 23.390625 
z
" id="DejaVuSans-45"/>
        <path d="M 12.40625 8.296875 
L 28.515625 8.296875 
L 28.515625 63.921875 
L 10.984375 60.40625 
L 10.984375 69.390625 
L 28.421875 72.90625 
L 38.28125 72.90625 
L 38.28125 8.296875 
L 54.390625 8.296875 
L 54.390625 0 
L 12.40625 0 
z
" id="DejaVuSans-49"/>
       </defs>
       <use xlink:href="#DejaVuSans-50"/>
       <use x="63.623047" xlink:href="#DejaVuSans-48"/>
       <use x="127.246094" xlink:href="#DejaVuSans-50"/>
       <use x="190.869141" xlink:href="#DejaVuSans-48"/>
       <use x="254.492188" xlink:href="#DejaVuSans-45"/>
       <use x="290.576172" xlink:href="#DejaVuSans-48"/>
       <use x="354.199219" xlink:href="#DejaVuSans-49"/>
      </g>
     </g>
    </g>
    <g id="xtick_2">
     <g id="line2d_2">
      <g>
       <use style="stroke:#000000;stroke-width:0.8;" x="212.957309" xlink:href="#m922222a5ce" y="460.8"/>
      </g>
     </g>
     <g id="text_2">
      <!-- 2020-04 -->
      <g transform="translate(168.287524 500.766215)rotate(-30)scale(0.12 -0.12)">
       <defs>
        <path d="M 37.796875 64.3125 
L 12.890625 25.390625 
L 37.796875 25.390625 
z
M 35.203125 72.90625 
L 47.609375 72.90625 
L 47.609375 25.390625 
L 58.015625 25.390625 
L 58.015625 17.1875 
L 47.609375 17.1875 
L 47.609375 0 
L 37.796875 0 
L 37.796875 17.1875 
L 4.890625 17.1875 
L 4.890625 26.703125 
z
" id="DejaVuSans-52"/>
       </defs>
       <use xlink:href="#DejaVuSans-50"/>
       <use x="63.623047" xlink:href="#DejaVuSans-48"/>
       <use x="127.246094" xlink:href="#DejaVuSans-50"/>
       <use x="190.869141" xlink:href="#DejaVuSans-48"/>
       <use x="254.492188" xlink:href="#DejaVuSans-45"/>
       <use x="290.576172" xlink:href="#DejaVuSans-48"/>
       <use x="354.199219" xlink:href="#DejaVuSans-52"/>
      </g>
     </g>
    </g>
    <g id="xtick_3">
     <g id="line2d_3">
      <g>
       <use style="stroke:#000000;stroke-width:0.8;" x="289.152882" xlink:href="#m922222a5ce" y="460.8"/>
      </g>
     </g>
     <g id="text_3">
      <!-- 2020-07 -->
      <g transform="translate(244.483097 500.766215)rotate(-30)scale(0.12 -0.12)">
       <defs>
        <path d="M 8.203125 72.90625 
L 55.078125 72.90625 
L 55.078125 68.703125 
L 28.609375 0 
L 18.3125 0 
L 43.21875 64.59375 
L 8.203125 64.59375 
z
" id="DejaVuSans-55"/>
       </defs>
       <use xlink:href="#DejaVuSans-50"/>
       <use x="63.623047" xlink:href="#DejaVuSans-48"/>
       <use x="127.246094" xlink:href="#DejaVuSans-50"/>
       <use x="190.869141" xlink:href="#DejaVuSans-48"/>
       <use x="254.492188" xlink:href="#DejaVuSans-45"/>
       <use x="290.576172" xlink:href="#DejaVuSans-48"/>
       <use x="354.199219" xlink:href="#DejaVuSans-55"/>
      </g>
     </g>
    </g>
    <g id="xtick_4">
     <g id="line2d_4">
      <g>
       <use style="stroke:#000000;stroke-width:0.8;" x="366.18577" xlink:href="#m922222a5ce" y="460.8"/>
      </g>
     </g>
     <g id="text_4">
      <!-- 2020-10 -->
      <g transform="translate(321.515985 500.766215)rotate(-30)scale(0.12 -0.12)">
       <use xlink:href="#DejaVuSans-50"/>
       <use x="63.623047" xlink:href="#DejaVuSans-48"/>
       <use x="127.246094" xlink:href="#DejaVuSans-50"/>
       <use x="190.869141" xlink:href="#DejaVuSans-48"/>
       <use x="254.492188" xlink:href="#DejaVuSans-45"/>
       <use x="290.576172" xlink:href="#DejaVuSans-49"/>
       <use x="354.199219" xlink:href="#DejaVuSans-48"/>
      </g>
     </g>
    </g>
    <g id="xtick_5">
     <g id="line2d_5">
      <g>
       <use style="stroke:#000000;stroke-width:0.8;" x="443.218657" xlink:href="#m922222a5ce" y="460.8"/>
      </g>
     </g>
     <g id="text_5">
      <!-- 2021-01 -->
      <g transform="translate(398.548872 500.766215)rotate(-30)scale(0.12 -0.12)">
       <use xlink:href="#DejaVuSans-50"/>
       <use x="63.623047" xlink:href="#DejaVuSans-48"/>
       <use x="127.246094" xlink:href="#DejaVuSans-50"/>
       <use x="190.869141" xlink:href="#DejaVuSans-49"/>
       <use x="254.492188" xlink:href="#DejaVuSans-45"/>
       <use x="290.576172" xlink:href="#DejaVuSans-48"/>
       <use x="354.199219" xlink:href="#DejaVuSans-49"/>
      </g>
     </g>
    </g>
    <g id="xtick_6">
     <g id="line2d_6">
      <g>
       <use style="stroke:#000000;stroke-width:0.8;" x="518.576916" xlink:href="#m922222a5ce" y="460.8"/>
      </g>
     </g>
     <g id="text_6">
      <!-- 2021-04 -->
      <g transform="translate(473.907131 500.766215)rotate(-30)scale(0.12 -0.12)">
       <use xlink:href="#DejaVuSans-50"/>
       <use x="63.623047" xlink:href="#DejaVuSans-48"/>
       <use x="127.246094" xlink:href="#DejaVuSans-50"/>
       <use x="190.869141" xlink:href="#DejaVuSans-49"/>
       <use x="254.492188" xlink:href="#DejaVuSans-45"/>
       <use x="290.576172" xlink:href="#DejaVuSans-48"/>
       <use x="354.199219" xlink:href="#DejaVuSans-52"/>
      </g>
     </g>
    </g>
    <g id="xtick_7">
     <g id="line2d_7">
      <g>
       <use style="stroke:#000000;stroke-width:0.8;" x="594.77249" xlink:href="#m922222a5ce" y="460.8"/>
      </g>
     </g>
     <g id="text_7">
      <!-- 2021-07 -->
      <g transform="translate(550.102705 500.766215)rotate(-30)scale(0.12 -0.12)">
       <use xlink:href="#DejaVuSans-50"/>
       <use x="63.623047" xlink:href="#DejaVuSans-48"/>
       <use x="127.246094" xlink:href="#DejaVuSans-50"/>
       <use x="190.869141" xlink:href="#DejaVuSans-49"/>
       <use x="254.492188" xlink:href="#DejaVuSans-45"/>
       <use x="290.576172" xlink:href="#DejaVuSans-48"/>
       <use x="354.199219" xlink:href="#DejaVuSans-55"/>
      </g>
     </g>
    </g>
    <g id="xtick_8">
     <g id="line2d_8">
      <g>
       <use style="stroke:#000000;stroke-width:0.8;" x="671.805377" xlink:href="#m922222a5ce" y="460.8"/>
      </g>
     </g>
     <g id="text_8">
      <!-- 2021-10 -->
      <g transform="translate(627.135592 500.766215)rotate(-30)scale(0.12 -0.12)">
       <use xlink:href="#DejaVuSans-50"/>
       <use x="63.623047" xlink:href="#DejaVuSans-48"/>
       <use x="127.246094" xlink:href="#DejaVuSans-50"/>
       <use x="190.869141" xlink:href="#DejaVuSans-49"/>
       <use x="254.492188" xlink:href="#DejaVuSans-45"/>
       <use x="290.576172" xlink:href="#DejaVuSans-49"/>
       <use x="354.199219" xlink:href="#DejaVuSans-48"/>
      </g>
     </g>
    </g>
    <g id="xtick_9">
     <g id="line2d_9">
      <g>
       <use style="stroke:#000000;stroke-width:0.8;" x="748.838264" xlink:href="#m922222a5ce" y="460.8"/>
      </g>
     </g>
     <g id="text_9">
      <!-- 2022-01 -->
      <g transform="translate(704.168479 500.766215)rotate(-30)scale(0.12 -0.12)">
       <use xlink:href="#DejaVuSans-50"/>
       <use x="63.623047" xlink:href="#DejaVuSans-48"/>
       <use x="127.246094" xlink:href="#DejaVuSans-50"/>
       <use x="190.869141" xlink:href="#DejaVuSans-50"/>
       <use x="254.492188" xlink:href="#DejaVuSans-45"/>
       <use x="290.576172" xlink:href="#DejaVuSans-48"/>
       <use x="354.199219" xlink:href="#DejaVuSans-49"/>
      </g>
     </g>
    </g>
    <g id="text_10">
     <!-- Date -->
     <g transform="translate(424.873828 518.325146)scale(0.15 -0.15)">
      <defs>
       <path d="M 19.671875 64.796875 
L 19.671875 8.109375 
L 31.59375 8.109375 
Q 46.6875 8.109375 53.6875 14.9375 
Q 60.6875 21.78125 60.6875 36.53125 
Q 60.6875 51.171875 53.6875 57.984375 
Q 46.6875 64.796875 31.59375 64.796875 
z
M 9.8125 72.90625 
L 30.078125 72.90625 
Q 51.265625 72.90625 61.171875 64.09375 
Q 71.09375 55.28125 71.09375 36.53125 
Q 71.09375 17.671875 61.125 8.828125 
Q 51.171875 0 30.078125 0 
L 9.8125 0 
z
" id="DejaVuSans-68"/>
       <path d="M 34.28125 27.484375 
Q 23.390625 27.484375 19.1875 25 
Q 14.984375 22.515625 14.984375 16.5 
Q 14.984375 11.71875 18.140625 8.90625 
Q 21.296875 6.109375 26.703125 6.109375 
Q 34.1875 6.109375 38.703125 11.40625 
Q 43.21875 16.703125 43.21875 25.484375 
L 43.21875 27.484375 
z
M 52.203125 31.203125 
L 52.203125 0 
L 43.21875 0 
L 43.21875 8.296875 
Q 40.140625 3.328125 35.546875 0.953125 
Q 30.953125 -1.421875 24.3125 -1.421875 
Q 15.921875 -1.421875 10.953125 3.296875 
Q 6 8.015625 6 15.921875 
Q 6 25.140625 12.171875 29.828125 
Q 18.359375 34.515625 30.609375 34.515625 
L 43.21875 34.515625 
L 43.21875 35.40625 
Q 43.21875 41.609375 39.140625 45 
Q 35.0625 48.390625 27.6875 48.390625 
Q 23 48.390625 18.546875 47.265625 
Q 14.109375 46.140625 10.015625 43.890625 
L 10.015625 52.203125 
Q 14.9375 54.109375 19.578125 55.046875 
Q 24.21875 56 28.609375 56 
Q 40.484375 56 46.34375 49.84375 
Q 52.203125 43.703125 52.203125 31.203125 
z
" id="DejaVuSans-97"/>
       <path d="M 18.3125 70.21875 
L 18.3125 54.6875 
L 36.8125 54.6875 
L 36.8125 47.703125 
L 18.3125 47.703125 
L 18.3125 18.015625 
Q 18.3125 11.328125 20.140625 9.421875 
Q 21.96875 7.515625 27.59375 7.515625 
L 36.8125 7.515625 
L 36.8125 0 
L 27.59375 0 
Q 17.1875 0 13.234375 3.875 
Q 9.28125 7.765625 9.28125 18.015625 
L 9.28125 47.703125 
L 2.6875 47.703125 
L 2.6875 54.6875 
L 9.28125 54.6875 
L 9.28125 70.21875 
z
" id="DejaVuSans-116"/>
       <path d="M 56.203125 29.59375 
L 56.203125 25.203125 
L 14.890625 25.203125 
Q 15.484375 15.921875 20.484375 11.0625 
Q 25.484375 6.203125 34.421875 6.203125 
Q 39.59375 6.203125 44.453125 7.46875 
Q 49.3125 8.734375 54.109375 11.28125 
L 54.109375 2.78125 
Q 49.265625 0.734375 44.1875 -0.34375 
Q 39.109375 -1.421875 33.890625 -1.421875 
Q 20.796875 -1.421875 13.15625 6.1875 
Q 5.515625 13.8125 5.515625 26.8125 
Q 5.515625 40.234375 12.765625 48.109375 
Q 20.015625 56 32.328125 56 
Q 43.359375 56 49.78125 48.890625 
Q 56.203125 41.796875 56.203125 29.59375 
z
M 47.21875 32.234375 
Q 47.125 39.59375 43.09375 43.984375 
Q 39.0625 48.390625 32.421875 48.390625 
Q 24.90625 48.390625 20.390625 44.140625 
Q 15.875 39.890625 15.1875 32.171875 
z
" id="DejaVuSans-101"/>
      </defs>
      <use xlink:href="#DejaVuSans-68"/>
      <use x="77.001953" xlink:href="#DejaVuSans-97"/>
      <use x="138.28125" xlink:href="#DejaVuSans-116"/>
      <use x="177.490234" xlink:href="#DejaVuSans-101"/>
     </g>
    </g>
   </g>
   <g id="matplotlib.axis_2">
    <g id="ytick_1">
     <g id="line2d_10">
      <defs>
       <path d="M 0 0 
L -3.5 0 
" id="m32c9029cd8" style="stroke:#000000;stroke-width:0.8;"/>
      </defs>
      <g>
       <use style="stroke:#000000;stroke-width:0.8;" x="108" xlink:href="#m32c9029cd8" y="449.896113"/>
      </g>
     </g>
     <g id="text_11">
      <!-- 0 -->
      <g transform="translate(93.365 454.455176)scale(0.12 -0.12)">
       <use xlink:href="#DejaVuSans-48"/>
      </g>
     </g>
    </g>
    <g id="ytick_2">
     <g id="line2d_11">
      <g>
       <use style="stroke:#000000;stroke-width:0.8;" x="108" xlink:href="#m32c9029cd8" y="404.229662"/>
      </g>
     </g>
     <g id="text_12">
      <!-- 10 -->
      <g transform="translate(85.73 408.788724)scale(0.12 -0.12)">
       <use xlink:href="#DejaVuSans-49"/>
       <use x="63.623047" xlink:href="#DejaVuSans-48"/>
      </g>
     </g>
    </g>
    <g id="ytick_3">
     <g id="line2d_12">
      <g>
       <use style="stroke:#000000;stroke-width:0.8;" x="108" xlink:href="#m32c9029cd8" y="358.56321"/>
      </g>
     </g>
     <g id="text_13">
      <!-- 20 -->
      <g transform="translate(85.73 363.122273)scale(0.12 -0.12)">
       <use xlink:href="#DejaVuSans-50"/>
       <use x="63.623047" xlink:href="#DejaVuSans-48"/>
      </g>
     </g>
    </g>
    <g id="ytick_4">
     <g id="line2d_13">
      <g>
       <use style="stroke:#000000;stroke-width:0.8;" x="108" xlink:href="#m32c9029cd8" y="312.896758"/>
      </g>
     </g>
     <g id="text_14">
      <!-- 30 -->
      <g transform="translate(85.73 317.455821)scale(0.12 -0.12)">
       <defs>
        <path d="M 40.578125 39.3125 
Q 47.65625 37.796875 51.625 33 
Q 55.609375 28.21875 55.609375 21.1875 
Q 55.609375 10.40625 48.1875 4.484375 
Q 40.765625 -1.421875 27.09375 -1.421875 
Q 22.515625 -1.421875 17.65625 -0.515625 
Q 12.796875 0.390625 7.625 2.203125 
L 7.625 11.71875 
Q 11.71875 9.328125 16.59375 8.109375 
Q 21.484375 6.890625 26.8125 6.890625 
Q 36.078125 6.890625 40.9375 10.546875 
Q 45.796875 14.203125 45.796875 21.1875 
Q 45.796875 27.640625 41.28125 31.265625 
Q 36.765625 34.90625 28.71875 34.90625 
L 20.21875 34.90625 
L 20.21875 43.015625 
L 29.109375 43.015625 
Q 36.375 43.015625 40.234375 45.921875 
Q 44.09375 48.828125 44.09375 54.296875 
Q 44.09375 59.90625 40.109375 62.90625 
Q 36.140625 65.921875 28.71875 65.921875 
Q 24.65625 65.921875 20.015625 65.03125 
Q 15.375 64.15625 9.8125 62.3125 
L 9.8125 71.09375 
Q 15.4375 72.65625 20.34375 73.4375 
Q 25.25 74.21875 29.59375 74.21875 
Q 40.828125 74.21875 47.359375 69.109375 
Q 53.90625 64.015625 53.90625 55.328125 
Q 53.90625 49.265625 50.4375 45.09375 
Q 46.96875 40.921875 40.578125 39.3125 
z
" id="DejaVuSans-51"/>
       </defs>
       <use xlink:href="#DejaVuSans-51"/>
       <use x="63.623047" xlink:href="#DejaVuSans-48"/>
      </g>
     </g>
    </g>
    <g id="ytick_5">
     <g id="line2d_14">
      <g>
       <use style="stroke:#000000;stroke-width:0.8;" x="108" xlink:href="#m32c9029cd8" y="267.230307"/>
      </g>
     </g>
     <g id="text_15">
      <!-- 40 -->
      <g transform="translate(85.73 271.789369)scale(0.12 -0.12)">
       <use xlink:href="#DejaVuSans-52"/>
       <use x="63.623047" xlink:href="#DejaVuSans-48"/>
      </g>
     </g>
    </g>
    <g id="ytick_6">
     <g id="line2d_15">
      <g>
       <use style="stroke:#000000;stroke-width:0.8;" x="108" xlink:href="#m32c9029cd8" y="221.563855"/>
      </g>
     </g>
     <g id="text_16">
      <!-- 50 -->
      <g transform="translate(85.73 226.122918)scale(0.12 -0.12)">
       <defs>
        <path d="M 10.796875 72.90625 
L 49.515625 72.90625 
L 49.515625 64.59375 
L 19.828125 64.59375 
L 19.828125 46.734375 
Q 21.96875 47.46875 24.109375 47.828125 
Q 26.265625 48.1875 28.421875 48.1875 
Q 40.625 48.1875 47.75 41.5 
Q 54.890625 34.8125 54.890625 23.390625 
Q 54.890625 11.625 47.5625 5.09375 
Q 40.234375 -1.421875 26.90625 -1.421875 
Q 22.3125 -1.421875 17.546875 -0.640625 
Q 12.796875 0.140625 7.71875 1.703125 
L 7.71875 11.625 
Q 12.109375 9.234375 16.796875 8.0625 
Q 21.484375 6.890625 26.703125 6.890625 
Q 35.15625 6.890625 40.078125 11.328125 
Q 45.015625 15.765625 45.015625 23.390625 
Q 45.015625 31 40.078125 35.4375 
Q 35.15625 39.890625 26.703125 39.890625 
Q 22.75 39.890625 18.8125 39.015625 
Q 14.890625 38.140625 10.796875 36.28125 
z
" id="DejaVuSans-53"/>
       </defs>
       <use xlink:href="#DejaVuSans-53"/>
       <use x="63.623047" xlink:href="#DejaVuSans-48"/>
      </g>
     </g>
    </g>
    <g id="ytick_7">
     <g id="line2d_16">
      <g>
       <use style="stroke:#000000;stroke-width:0.8;" x="108" xlink:href="#m32c9029cd8" y="175.897404"/>
      </g>
     </g>
     <g id="text_17">
      <!-- 60 -->
      <g transform="translate(85.73 180.456466)scale(0.12 -0.12)">
       <defs>
        <path d="M 33.015625 40.375 
Q 26.375 40.375 22.484375 35.828125 
Q 18.609375 31.296875 18.609375 23.390625 
Q 18.609375 15.53125 22.484375 10.953125 
Q 26.375 6.390625 33.015625 6.390625 
Q 39.65625 6.390625 43.53125 10.953125 
Q 47.40625 15.53125 47.40625 23.390625 
Q 47.40625 31.296875 43.53125 35.828125 
Q 39.65625 40.375 33.015625 40.375 
z
M 52.59375 71.296875 
L 52.59375 62.3125 
Q 48.875 64.0625 45.09375 64.984375 
Q 41.3125 65.921875 37.59375 65.921875 
Q 27.828125 65.921875 22.671875 59.328125 
Q 17.53125 52.734375 16.796875 39.40625 
Q 19.671875 43.65625 24.015625 45.921875 
Q 28.375 48.1875 33.59375 48.1875 
Q 44.578125 48.1875 50.953125 41.515625 
Q 57.328125 34.859375 57.328125 23.390625 
Q 57.328125 12.15625 50.6875 5.359375 
Q 44.046875 -1.421875 33.015625 -1.421875 
Q 20.359375 -1.421875 13.671875 8.265625 
Q 6.984375 17.96875 6.984375 36.375 
Q 6.984375 53.65625 15.1875 63.9375 
Q 23.390625 74.21875 37.203125 74.21875 
Q 40.921875 74.21875 44.703125 73.484375 
Q 48.484375 72.75 52.59375 71.296875 
z
" id="DejaVuSans-54"/>
       </defs>
       <use xlink:href="#DejaVuSans-54"/>
       <use x="63.623047" xlink:href="#DejaVuSans-48"/>
      </g>
     </g>
    </g>
    <g id="ytick_8">
     <g id="line2d_17">
      <g>
       <use style="stroke:#000000;stroke-width:0.8;" x="108" xlink:href="#m32c9029cd8" y="130.230952"/>
      </g>
     </g>
     <g id="text_18">
      <!-- 70 -->
      <g transform="translate(85.73 134.790014)scale(0.12 -0.12)">
       <use xlink:href="#DejaVuSans-55"/>
       <use x="63.623047" xlink:href="#DejaVuSans-48"/>
      </g>
     </g>
    </g>
    <g id="ytick_9">
     <g id="line2d_18">
      <g>
       <use style="stroke:#000000;stroke-width:0.8;" x="108" xlink:href="#m32c9029cd8" y="84.5645"/>
      </g>
     </g>
     <g id="text_19">
      <!-- 80 -->
      <g transform="translate(85.73 89.123563)scale(0.12 -0.12)">
       <defs>
        <path d="M 31.78125 34.625 
Q 24.75 34.625 20.71875 30.859375 
Q 16.703125 27.09375 16.703125 20.515625 
Q 16.703125 13.921875 20.71875 10.15625 
Q 24.75 6.390625 31.78125 6.390625 
Q 38.8125 6.390625 42.859375 10.171875 
Q 46.921875 13.96875 46.921875 20.515625 
Q 46.921875 27.09375 42.890625 30.859375 
Q 38.875 34.625 31.78125 34.625 
z
M 21.921875 38.8125 
Q 15.578125 40.375 12.03125 44.71875 
Q 8.5 49.078125 8.5 55.328125 
Q 8.5 64.0625 14.71875 69.140625 
Q 20.953125 74.21875 31.78125 74.21875 
Q 42.671875 74.21875 48.875 69.140625 
Q 55.078125 64.0625 55.078125 55.328125 
Q 55.078125 49.078125 51.53125 44.71875 
Q 48 40.375 41.703125 38.8125 
Q 48.828125 37.15625 52.796875 32.3125 
Q 56.78125 27.484375 56.78125 20.515625 
Q 56.78125 9.90625 50.3125 4.234375 
Q 43.84375 -1.421875 31.78125 -1.421875 
Q 19.734375 -1.421875 13.25 4.234375 
Q 6.78125 9.90625 6.78125 20.515625 
Q 6.78125 27.484375 10.78125 32.3125 
Q 14.796875 37.15625 21.921875 38.8125 
z
M 18.3125 54.390625 
Q 18.3125 48.734375 21.84375 45.5625 
Q 25.390625 42.390625 31.78125 42.390625 
Q 38.140625 42.390625 41.71875 45.5625 
Q 45.3125 48.734375 45.3125 54.390625 
Q 45.3125 60.0625 41.71875 63.234375 
Q 38.140625 66.40625 31.78125 66.40625 
Q 25.390625 66.40625 21.84375 63.234375 
Q 18.3125 60.0625 18.3125 54.390625 
z
" id="DejaVuSans-56"/>
       </defs>
       <use xlink:href="#DejaVuSans-56"/>
       <use x="63.623047" xlink:href="#DejaVuSans-48"/>
      </g>
     </g>
    </g>
    <g id="text_20">
     <!-- PM25(micro-gram/m3) -->
     <g transform="translate(78.610469 349.562344)rotate(-90)scale(0.15 -0.15)">
      <defs>
       <path d="M 19.671875 64.796875 
L 19.671875 37.40625 
L 32.078125 37.40625 
Q 38.96875 37.40625 42.71875 40.96875 
Q 46.484375 44.53125 46.484375 51.125 
Q 46.484375 57.671875 42.71875 61.234375 
Q 38.96875 64.796875 32.078125 64.796875 
z
M 9.8125 72.90625 
L 32.078125 72.90625 
Q 44.34375 72.90625 50.609375 67.359375 
Q 56.890625 61.8125 56.890625 51.125 
Q 56.890625 40.328125 50.609375 34.8125 
Q 44.34375 29.296875 32.078125 29.296875 
L 19.671875 29.296875 
L 19.671875 0 
L 9.8125 0 
z
" id="DejaVuSans-80"/>
       <path d="M 9.8125 72.90625 
L 24.515625 72.90625 
L 43.109375 23.296875 
L 61.8125 72.90625 
L 76.515625 72.90625 
L 76.515625 0 
L 66.890625 0 
L 66.890625 64.015625 
L 48.09375 14.015625 
L 38.1875 14.015625 
L 19.390625 64.015625 
L 19.390625 0 
L 9.8125 0 
z
" id="DejaVuSans-77"/>
       <path d="M 31 75.875 
Q 24.46875 64.65625 21.28125 53.65625 
Q 18.109375 42.671875 18.109375 31.390625 
Q 18.109375 20.125 21.3125 9.0625 
Q 24.515625 -2 31 -13.1875 
L 23.1875 -13.1875 
Q 15.875 -1.703125 12.234375 9.375 
Q 8.59375 20.453125 8.59375 31.390625 
Q 8.59375 42.28125 12.203125 53.3125 
Q 15.828125 64.359375 23.1875 75.875 
z
" id="DejaVuSans-40"/>
       <path d="M 52 44.1875 
Q 55.375 50.25 60.0625 53.125 
Q 64.75 56 71.09375 56 
Q 79.640625 56 84.28125 50.015625 
Q 88.921875 44.046875 88.921875 33.015625 
L 88.921875 0 
L 79.890625 0 
L 79.890625 32.71875 
Q 79.890625 40.578125 77.09375 44.375 
Q 74.3125 48.1875 68.609375 48.1875 
Q 61.625 48.1875 57.5625 43.546875 
Q 53.515625 38.921875 53.515625 30.90625 
L 53.515625 0 
L 44.484375 0 
L 44.484375 32.71875 
Q 44.484375 40.625 41.703125 44.40625 
Q 38.921875 48.1875 33.109375 48.1875 
Q 26.21875 48.1875 22.15625 43.53125 
Q 18.109375 38.875 18.109375 30.90625 
L 18.109375 0 
L 9.078125 0 
L 9.078125 54.6875 
L 18.109375 54.6875 
L 18.109375 46.1875 
Q 21.1875 51.21875 25.484375 53.609375 
Q 29.78125 56 35.6875 56 
Q 41.65625 56 45.828125 52.96875 
Q 50 49.953125 52 44.1875 
z
" id="DejaVuSans-109"/>
       <path d="M 9.421875 54.6875 
L 18.40625 54.6875 
L 18.40625 0 
L 9.421875 0 
z
M 9.421875 75.984375 
L 18.40625 75.984375 
L 18.40625 64.59375 
L 9.421875 64.59375 
z
" id="DejaVuSans-105"/>
       <path d="M 48.78125 52.59375 
L 48.78125 44.1875 
Q 44.96875 46.296875 41.140625 47.34375 
Q 37.3125 48.390625 33.40625 48.390625 
Q 24.65625 48.390625 19.8125 42.84375 
Q 14.984375 37.3125 14.984375 27.296875 
Q 14.984375 17.28125 19.8125 11.734375 
Q 24.65625 6.203125 33.40625 6.203125 
Q 37.3125 6.203125 41.140625 7.25 
Q 44.96875 8.296875 48.78125 10.40625 
L 48.78125 2.09375 
Q 45.015625 0.34375 40.984375 -0.53125 
Q 36.96875 -1.421875 32.421875 -1.421875 
Q 20.0625 -1.421875 12.78125 6.34375 
Q 5.515625 14.109375 5.515625 27.296875 
Q 5.515625 40.671875 12.859375 48.328125 
Q 20.21875 56 33.015625 56 
Q 37.15625 56 41.109375 55.140625 
Q 45.0625 54.296875 48.78125 52.59375 
z
" id="DejaVuSans-99"/>
       <path d="M 41.109375 46.296875 
Q 39.59375 47.171875 37.8125 47.578125 
Q 36.03125 48 33.890625 48 
Q 26.265625 48 22.1875 43.046875 
Q 18.109375 38.09375 18.109375 28.8125 
L 18.109375 0 
L 9.078125 0 
L 9.078125 54.6875 
L 18.109375 54.6875 
L 18.109375 46.1875 
Q 20.953125 51.171875 25.484375 53.578125 
Q 30.03125 56 36.53125 56 
Q 37.453125 56 38.578125 55.875 
Q 39.703125 55.765625 41.0625 55.515625 
z
" id="DejaVuSans-114"/>
       <path d="M 30.609375 48.390625 
Q 23.390625 48.390625 19.1875 42.75 
Q 14.984375 37.109375 14.984375 27.296875 
Q 14.984375 17.484375 19.15625 11.84375 
Q 23.34375 6.203125 30.609375 6.203125 
Q 37.796875 6.203125 41.984375 11.859375 
Q 46.1875 17.53125 46.1875 27.296875 
Q 46.1875 37.015625 41.984375 42.703125 
Q 37.796875 48.390625 30.609375 48.390625 
z
M 30.609375 56 
Q 42.328125 56 49.015625 48.375 
Q 55.71875 40.765625 55.71875 27.296875 
Q 55.71875 13.875 49.015625 6.21875 
Q 42.328125 -1.421875 30.609375 -1.421875 
Q 18.84375 -1.421875 12.171875 6.21875 
Q 5.515625 13.875 5.515625 27.296875 
Q 5.515625 40.765625 12.171875 48.375 
Q 18.84375 56 30.609375 56 
z
" id="DejaVuSans-111"/>
       <path d="M 45.40625 27.984375 
Q 45.40625 37.75 41.375 43.109375 
Q 37.359375 48.484375 30.078125 48.484375 
Q 22.859375 48.484375 18.828125 43.109375 
Q 14.796875 37.75 14.796875 27.984375 
Q 14.796875 18.265625 18.828125 12.890625 
Q 22.859375 7.515625 30.078125 7.515625 
Q 37.359375 7.515625 41.375 12.890625 
Q 45.40625 18.265625 45.40625 27.984375 
z
M 54.390625 6.78125 
Q 54.390625 -7.171875 48.1875 -13.984375 
Q 42 -20.796875 29.203125 -20.796875 
Q 24.46875 -20.796875 20.265625 -20.09375 
Q 16.0625 -19.390625 12.109375 -17.921875 
L 12.109375 -9.1875 
Q 16.0625 -11.328125 19.921875 -12.34375 
Q 23.78125 -13.375 27.78125 -13.375 
Q 36.625 -13.375 41.015625 -8.765625 
Q 45.40625 -4.15625 45.40625 5.171875 
L 45.40625 9.625 
Q 42.625 4.78125 38.28125 2.390625 
Q 33.9375 0 27.875 0 
Q 17.828125 0 11.671875 7.65625 
Q 5.515625 15.328125 5.515625 27.984375 
Q 5.515625 40.671875 11.671875 48.328125 
Q 17.828125 56 27.875 56 
Q 33.9375 56 38.28125 53.609375 
Q 42.625 51.21875 45.40625 46.390625 
L 45.40625 54.6875 
L 54.390625 54.6875 
z
" id="DejaVuSans-103"/>
       <path d="M 25.390625 72.90625 
L 33.6875 72.90625 
L 8.296875 -9.28125 
L 0 -9.28125 
z
" id="DejaVuSans-47"/>
       <path d="M 8.015625 75.875 
L 15.828125 75.875 
Q 23.140625 64.359375 26.78125 53.3125 
Q 30.421875 42.28125 30.421875 31.390625 
Q 30.421875 20.453125 26.78125 9.375 
Q 23.140625 -1.703125 15.828125 -13.1875 
L 8.015625 -13.1875 
Q 14.5 -2 17.703125 9.0625 
Q 20.90625 20.125 20.90625 31.390625 
Q 20.90625 42.671875 17.703125 53.65625 
Q 14.5 64.65625 8.015625 75.875 
z
" id="DejaVuSans-41"/>
      </defs>
      <use xlink:href="#DejaVuSans-80"/>
      <use x="60.302734" xlink:href="#DejaVuSans-77"/>
      <use x="146.582031" xlink:href="#DejaVuSans-50"/>
      <use x="210.205078" xlink:href="#DejaVuSans-53"/>
      <use x="273.828125" xlink:href="#DejaVuSans-40"/>
      <use x="312.841797" xlink:href="#DejaVuSans-109"/>
      <use x="410.253906" xlink:href="#DejaVuSans-105"/>
      <use x="438.037109" xlink:href="#DejaVuSans-99"/>
      <use x="493.017578" xlink:href="#DejaVuSans-114"/>
      <use x="531.880859" xlink:href="#DejaVuSans-111"/>
      <use x="594.9375" xlink:href="#DejaVuSans-45"/>
      <use x="631.021484" xlink:href="#DejaVuSans-103"/>
      <use x="694.498047" xlink:href="#DejaVuSans-114"/>
      <use x="735.611328" xlink:href="#DejaVuSans-97"/>
      <use x="796.890625" xlink:href="#DejaVuSans-109"/>
      <use x="894.302734" xlink:href="#DejaVuSans-47"/>
      <use x="927.994141" xlink:href="#DejaVuSans-109"/>
      <use x="1025.40625" xlink:href="#DejaVuSans-51"/>
      <use x="1089.029297" xlink:href="#DejaVuSans-41"/>
     </g>
    </g>
   </g>
   <g id="line2d_19">
    <path clip-path="url(#p7914af68ef)" d="M 138.436364 267.04003 
L 139.273678 349.810474 
L 140.110992 368.838162 
L 140.948306 340.296629 
L 141.78562 345.243828 
L 142.622934 347.336874 
L 143.460248 319.937003 
L 144.297562 288.351041 
L 145.134876 343.721613 
L 145.97219 324.884202 
L 146.809504 322.220326 
L 147.646818 312.481609 
L 148.484132 298.055162 
L 149.321446 345.434105 
L 150.15876 342.770229 
L 150.996074 286.828826 
L 151.833388 324.884202 
L 152.670702 294.059347 
L 153.508016 297.674608 
L 155.182643 352.47435 
L 156.019957 365.984008 
L 156.857271 397.569971 
L 157.694585 410.318522 
L 158.531899 396.808863 
L 159.369213 350.191027 
L 160.206527 333.636939 
L 161.043841 313.934632 
L 161.881155 333.066108 
L 162.718469 330.782785 
L 163.555783 322.030049 
L 164.393097 367.315947 
L 165.230411 390.322151 
L 166.067725 372.072869 
L 166.905039 338.774414 
L 167.742353 407.654646 
L 168.579667 381.015882 
L 169.416981 350.761858 
L 170.254295 313.657866 
L 171.091609 299.957931 
L 171.928923 376.449237 
L 172.766237 387.295019 
L 173.603551 373.404807 
L 174.440865 431.058702 
L 175.278179 394.906095 
L 176.115493 397.876068 
L 176.952807 373.595084 
L 177.790121 368.077054 
L 178.627435 373.975638 
L 179.464749 303.573191 
L 180.302063 352.664627 
L 181.139377 346.004936 
L 181.976691 346.004936 
L 182.814005 352.751116 
L 183.651319 379.113113 
L 184.488633 367.261582 
L 185.325947 365.032624 
L 186.163261 343.91189 
L 187.000575 363.129855 
L 187.837889 371.502038 
L 188.675203 391.323925 
L 189.512517 404.419939 
L 190.349831 356.470164 
L 191.187145 316.702296 
L 192.024459 355.328503 
L 192.861773 381.015882 
L 193.699087 380.445052 
L 194.536401 357.611826 
L 195.373715 314.989804 
L 196.211029 236.595729 
L 197.048343 368.647885 
L 197.885657 291.205194 
L 198.722971 334.7786 
L 199.560285 330.964789 
L 200.397599 316.131465 
L 201.234913 340.486906 
L 202.072227 261.902554 
L 202.909541 300.148207 
L 203.746855 317.653681 
L 204.584169 348.288258 
L 205.421483 340.693729 
L 206.258797 369.979823 
L 207.096111 345.434105 
L 207.933425 359.704871 
L 208.770739 361.03681 
L 209.608053 403.278277 
L 210.445367 379.30339 
L 211.282681 361.988194 
L 212.119995 365.413178 
L 212.957309 366.745116 
L 214.631937 371.692315 
L 215.469251 394.715818 
L 216.306565 384.060312 
L 217.143879 354.619289 
L 217.981193 341.248014 
L 218.818507 368.077054 
L 219.655821 362.559025 
L 220.493135 328.309186 
L 221.330449 396.42831 
L 222.167763 363.890963 
L 223.005077 338.964691 
L 223.842391 281.881627 
L 224.679705 339.916076 
L 225.517019 371.311761 
L 226.354333 344.482721 
L 228.028961 394.103622 
L 228.866275 396.047756 
L 229.703589 408.60603 
L 230.540903 377.971452 
L 231.378217 340.106353 
L 232.215531 291.395471 
L 233.052845 130.611506 
L 233.890159 209.766689 
L 234.727473 346.195213 
L 235.564787 355.709057 
L 236.402101 348.097982 
L 237.239415 381.967267 
L 238.076729 387.675573 
L 238.914043 399.092186 
L 239.751357 406.132431 
L 240.588671 416.539749 
L 241.425985 411.840737 
L 242.263299 416.787936 
L 243.100613 423.25735 
L 243.937927 421.735135 
L 244.775241 418.690705 
L 245.612555 392.242218 
L 246.449869 320.507834 
L 247.287183 283.784396 
L 248.124497 366.554839 
L 248.961811 390.91028 
L 249.799125 408.035199 
L 250.636439 412.031014 
L 251.473753 403.468554 
L 252.311067 401.375508 
L 253.148381 404.229662 
L 253.985695 393.764433 
L 254.823009 369.218715 
L 255.660323 417.929597 
L 256.497637 417.16849 
L 257.334951 410.699076 
L 258.172265 385.39225 
L 259.009579 318.414788 
L 259.846893 334.7786 
L 260.684207 392.051941 
L 261.521521 413.553229 
L 262.358835 420.709294 
L 263.196149 418.500428 
L 264.033463 421.702043 
L 264.870777 422.686519 
L 265.708091 419.319446 
L 266.545405 420.21292 
L 267.382719 393.193603 
L 268.220033 399.853293 
L 269.057347 404.039385 
L 269.89466 405.181046 
L 270.731974 416.026828 
L 271.569288 429.048385 
L 272.406602 424.779565 
L 273.243916 416.787936 
L 274.08123 430.678148 
L 274.918544 419.832366 
L 275.755858 428.931061 
L 276.593172 421.164304 
L 277.430486 423.447627 
L 278.2678 422.686519 
L 279.942428 433.912855 
L 280.779742 425.350396 
L 281.617056 423.290442 
L 282.45437 417.73932 
L 283.291684 421.544858 
L 284.128998 424.208734 
L 284.966312 424.589288 
L 285.803626 427.253164 
L 286.64094 427.443441 
L 287.478254 426.492057 
L 288.315568 434.673963 
L 289.152882 430.041134 
L 289.990196 418.500428 
L 290.82751 417.73932 
L 291.664824 422.496242 
L 292.502138 422.496242 
L 293.339452 422.876796 
L 294.176766 415.265721 
L 295.01408 412.792121 
L 295.851394 416.978213 
L 296.688708 412.031014 
L 297.526022 425.730949 
L 298.363336 415.836552 
L 299.20065 417.73932 
L 300.037964 415.455998 
L 300.875278 430.041134 
L 301.712592 430.678148 
L 302.549906 433.532302 
L 303.38722 432.771194 
L 304.224534 428.452736 
L 305.061848 421.735135 
L 305.899162 428.394826 
L 306.736476 428.204549 
L 307.57379 423.25735 
L 308.411104 424.589288 
L 309.248418 429.917041 
L 310.085732 428.394826 
L 310.923046 430.297595 
L 311.76036 424.208734 
L 313.434988 435.054517 
L 314.272302 437.283474 
L 315.109616 439.892986 
L 315.94693 436.386455 
L 316.784244 433.722578 
L 317.621558 428.965656 
L 318.458872 428.204549 
L 320.1335 428.585103 
L 320.970814 431.248979 
L 321.808128 426.682334 
L 323.482756 424.68029 
L 324.32007 416.597659 
L 325.157384 414.355701 
L 325.994698 426.872611 
L 326.832012 416.978213 
L 327.669326 413.553229 
L 328.50664 398.711632 
L 329.343954 428.585103 
L 330.181268 418.500428 
L 331.018582 341.248014 
L 331.855896 329.831401 
L 332.69321 389.197788 
L 333.530524 388.246404 
L 334.367838 399.853293 
L 335.205152 404.419939 
L 336.042466 373.851544 
L 336.87978 328.499463 
L 337.717094 328.499463 
L 338.554408 322.791156 
L 339.391722 364.08124 
L 340.229036 269.703906 
L 342.740978 352.854904 
L 343.578292 386.170656 
L 344.415606 389.007511 
L 345.25292 421.925412 
L 346.090234 426.682334 
L 346.927548 420.403197 
L 347.764862 417.73932 
L 348.602176 423.447627 
L 349.43949 405.751877 
L 350.276804 390.91028 
L 351.114118 406.322707 
L 351.951432 430.487871 
L 352.788746 438.289224 
L 353.62606 425.474489 
L 354.463374 432.961471 
L 355.300688 431.058702 
L 356.138002 437.528116 
L 356.975316 434.293409 
L 357.81263 407.654646 
L 358.649944 407.605008 
L 359.487258 362.939578 
L 360.324572 357.173362 
L 361.9992 397.189417 
L 362.836514 377.590898 
L 363.673828 412.601845 
L 364.511142 414.504613 
L 365.348456 387.295019 
L 366.18577 374.927022 
L 367.023084 380.445052 
L 367.860398 356.470164 
L 368.697712 366.745116 
L 369.535026 350.571581 
L 370.37234 368.0936 
L 371.209654 363.129855 
L 372.046968 322.981433 
L 372.884282 297.864885 
L 373.721596 322.410603 
L 374.55891 321.078664 
L 375.396224 410.128245 
L 376.233538 388.137674 
L 377.070852 388.056127 
L 377.908166 351.332689 
L 378.74548 338.393861 
L 379.582794 348.859089 
L 380.420108 353.996565 
L 381.257422 341.090829 
L 382.094736 331.924447 
L 382.93205 339.154968 
L 383.769364 332.305 
L 384.606678 315.750912 
L 385.443991 313.467589 
L 386.281305 353.996565 
L 387.118619 359.324318 
L 387.955933 354.186842 
L 388.793247 309.281498 
L 389.630561 282.612691 
L 390.467875 338.013307 
L 391.305189 320.317557 
L 392.142503 246.87068 
L 392.979817 311.374543 
L 393.817131 286.828826 
L 394.654445 359.555959 
L 395.491759 244.397081 
L 396.329073 266.849753 
L 397.166387 265.517815 
L 398.003701 296.34267 
L 398.841015 285.496887 
L 399.678329 327.548078 
L 400.515643 340.486906 
L 401.352957 334.588323 
L 402.190271 327.167525 
L 403.027585 324.693925 
L 403.864899 335.349431 
L 404.702213 393.764433 
L 405.539527 390.728276 
L 406.376841 388.626957 
L 407.214155 379.30339 
L 408.051469 379.30339 
L 408.888783 373.404807 
L 409.726097 341.057737 
L 410.563411 289.112148 
L 411.400725 323.361987 
L 412.238039 296.723224 
L 413.075353 326.977248 
L 414.749981 355.328503 
L 415.587295 350.299757 
L 416.424609 315.941189 
L 417.261923 313.467589 
L 418.099237 317.661953 
L 418.936551 317.843957 
L 419.773865 276.934428 
L 420.611179 217.758318 
L 421.448493 194.163984 
L 422.285807 252.959541 
L 423.123121 220.231917 
L 423.960435 225.749947 
L 424.797749 237.73739 
L 425.635063 205.282772 
L 426.472377 336.451034 
L 427.309691 314.228697 
L 428.147005 377.971452 
L 428.984319 339.30388 
L 429.821633 329.450847 
L 430.658947 331.163339 
L 431.496261 309.662051 
L 432.333575 264.376154 
L 433.170889 211.098627 
L 434.008203 207.673643 
L 434.845517 208.244473 
L 435.682831 285.496887 
L 436.520145 264.946984 
L 437.357459 346.004936 
L 438.194773 244.206804 
L 439.032087 316.512019 
L 439.869401 299.593923 
L 440.706715 374.165914 
L 441.544029 355.51878 
L 442.381343 354.50397 
L 443.218657 339.345245 
L 444.055971 284.73578 
L 444.893285 276.934428 
L 445.730599 214.143057 
L 446.567913 274.460828 
L 447.405227 211.669457 
L 448.242541 299.767654 
L 449.079855 361.227086 
L 449.917169 335.349431 
L 450.754483 328.68974 
L 451.591797 286.638549 
L 452.429111 273.889998 
L 453.266425 230.697146 
L 454.103739 268.562245 
L 454.941053 293.86907 
L 455.778367 197.969522 
L 457.452995 283.836289 
L 458.290309 342.389675 
L 459.127623 244.587358 
L 459.964937 245.158189 
L 460.802251 218.865383 
L 461.639565 244.967912 
L 462.476879 316.702296 
L 463.314193 223.08607 
L 464.151507 265.898369 
L 464.988821 253.133272 
L 465.826135 357.611826 
L 466.663449 326.977248 
L 467.500763 377.781175 
L 468.338077 376.068683 
L 469.175391 317.653681 
L 470.012705 336.300815 
L 470.850019 352.093796 
L 471.687333 359.514595 
L 472.524647 323.361987 
L 473.361961 316.321742 
L 475.036589 338.311132 
L 475.873903 414.885167 
L 477.548531 354.377119 
L 479.223159 342.389675 
L 480.060473 316.892573 
L 480.897787 343.531336 
L 481.735101 355.138226 
L 482.572415 325.64531 
L 483.409729 342.389675 
L 485.084357 304.334299 
L 485.921671 311.56482 
L 486.758985 330.782785 
L 487.596299 362.178471 
L 488.433613 384.176133 
L 489.270927 378.161729 
L 490.108241 333.446662 
L 490.945555 364.08124 
L 491.782869 361.988194 
L 492.620183 374.927022 
L 493.457497 369.979823 
L 494.294811 310.803713 
L 495.132125 276.744151 
L 495.969439 334.398046 
L 496.806753 344.672998 
L 497.644067 385.39225 
L 498.481381 335.729984 
L 499.318695 350.952135 
L 500.156009 383.108928 
L 500.993322 328.309186 
L 501.830636 347.146597 
L 502.66795 324.313371 
L 503.505264 361.60764 
L 504.342578 341.057737 
L 505.179892 349.239643 
L 506.85452 388.056127 
L 507.691834 376.449237 
L 508.529148 345.624382 
L 509.366462 330.973062 
L 510.203776 293.488517 
L 511.04109 208.06247 
L 511.878404 248.583172 
L 512.715718 384.060312 
L 513.553032 356.089611 
L 514.390346 358.943764 
L 515.22766 402.707447 
L 516.064974 406.703261 
L 518.576916 392.813049 
L 519.41423 395.286648 
L 520.251544 312.896758 
L 521.088858 333.446662 
L 521.926172 305.47596 
L 522.763486 371.468946 
L 524.438114 362.368748 
L 525.275428 368.077054 
L 526.112742 386.343635 
L 526.950056 393.574156 
L 527.78737 397.379694 
L 528.624684 388.436681 
L 529.461998 396.42831 
L 530.299312 382.34782 
L 531.136626 343.91189 
L 531.97394 293.86907 
L 532.811254 337.914032 
L 533.648568 371.311761 
L 534.485882 364.271517 
L 535.323196 358.753487 
L 536.16051 346.766043 
L 536.997824 384.440866 
L 537.835138 378.73256 
L 538.672452 399.853293 
L 539.509766 411.079629 
L 540.34708 379.874221 
L 541.184394 364.271517 
L 542.021708 355.899334 
L 542.859022 352.284073 
L 543.696336 368.267331 
L 544.53365 387.675573 
L 545.370964 392.316674 
L 546.208278 330.021678 
L 547.045592 362.732756 
L 547.882906 375.688129 
L 548.72022 385.011697 
L 549.557534 401.756062 
L 550.394848 422.496242 
L 551.232162 416.787936 
L 552.069476 399.663017 
L 552.90679 392.813049 
L 554.581418 400.994955 
L 555.418732 412.792121 
L 556.256046 412.221291 
L 557.09336 406.893538 
L 557.930674 408.415753 
L 558.767988 412.947802 
L 559.605302 428.254186 
L 560.442616 421.354581 
L 561.27993 436.196178 
L 562.117244 424.018457 
L 562.954558 427.443441 
L 563.791872 423.637904 
L 564.629186 432.961471 
L 565.4665 428.204549 
L 566.303814 427.443441 
L 567.978442 401.946339 
L 568.815756 416.407382 
L 569.65307 409.937968 
L 570.490384 410.980355 
L 571.327698 389.578342 
L 573.002326 307.378729 
L 573.83964 389.578342 
L 574.676954 394.144987 
L 575.514268 427.443441 
L 576.351582 432.010086 
L 577.188896 429.726764 
L 578.02621 432.580917 
L 578.863524 430.107318 
L 579.700838 417.16849 
L 580.538152 413.933783 
L 581.375466 400.614401 
L 582.21278 402.707447 
L 583.050094 408.399207 
L 583.887408 399.092186 
L 584.724722 388.436681 
L 585.562036 387.104742 
L 586.39935 406.703261 
L 587.236664 412.031014 
L 588.073978 418.119874 
L 588.911292 407.758433 
L 589.748606 393.003326 
L 590.58592 393.95471 
L 591.423234 393.574156 
L 592.260548 386.153358 
L 593.097862 390.720003 
L 593.935176 396.88332 
L 594.77249 385.39225 
L 595.609804 392.622772 
L 596.447118 405.942154 
L 597.284432 428.394826 
L 598.121746 436.576732 
L 598.95906 427.443441 
L 599.796374 426.492057 
L 600.633688 407.083815 
L 601.471002 431.248979 
L 602.308316 434.103132 
L 603.14563 429.155933 
L 603.982944 421.544858 
L 604.820258 424.399011 
L 605.657572 430.438234 
L 606.494886 418.310151 
L 607.3322 399.663017 
L 608.169514 428.585103 
L 609.006828 442.665592 
L 610.681456 427.823995 
L 611.51877 404.800492 
L 612.356084 371.121484 
L 613.193398 326.596694 
L 614.868026 395.476925 
L 615.70534 316.131465 
L 616.542653 363.890963 
L 617.379967 397.478969 
L 618.217281 415.455998 
L 619.054595 400.04357 
L 619.891909 403.849108 
L 620.729223 380.635328 
L 621.566537 422.686519 
L 622.403851 356.660441 
L 623.241165 359.895148 
L 624.915793 363.129855 
L 625.753107 383.679758 
L 626.590421 391.290834 
L 627.427735 393.003326 
L 628.265049 408.415753 
L 629.102363 416.936848 
L 629.939677 408.60603 
L 630.776991 411.460183 
L 631.614305 423.25735 
L 632.451619 422.496242 
L 633.288933 408.796307 
L 634.126247 412.411568 
L 634.963561 409.367138 
L 635.800875 420.593474 
L 636.638189 414.12406 
L 637.475503 425.350396 
L 638.312817 425.730949 
L 639.150131 427.823995 
L 639.987445 430.297595 
L 640.824759 427.261437 
L 641.662073 425.921226 
L 642.499387 419.705515 
L 643.336701 414.69489 
L 644.174015 419.071259 
L 645.011329 392.051941 
L 645.848643 428.014272 
L 646.685957 435.625347 
L 648.360585 436.005901 
L 649.197899 436.957285 
L 650.035213 421.735135 
L 650.872527 412.947802 
L 651.709841 423.447627 
L 652.547155 376.068683 
L 653.384469 396.42831 
L 654.221783 397.760248 
L 655.059097 351.142412 
L 655.896411 376.829791 
L 656.733725 414.314336 
L 657.571039 398.140802 
L 658.408353 394.715818 
L 659.245667 357.611826 
L 660.082981 360.846533 
L 660.920295 430.487871 
L 661.757609 425.730949 
L 662.594923 414.504613 
L 663.432237 433.722578 
L 664.269551 433.615031 
L 665.106865 421.925412 
L 666.781493 371.311761 
L 668.456121 329.450847 
L 669.293435 320.888388 
L 670.130749 302.050976 
L 670.968063 309.281498 
L 671.805377 374.736745 
L 672.642691 402.153914 
L 673.480005 385.201974 
L 674.317319 390.529726 
L 675.154633 377.971452 
L 675.991947 405.181046 
L 676.829261 441.954122 
L 677.666575 433.912855 
L 678.503889 420.974027 
L 679.341203 349.810474 
L 680.178517 398.140802 
L 681.015831 425.160119 
L 681.853145 402.51717 
L 682.690459 366.174285 
L 684.365087 407.654646 
L 685.202401 357.231272 
L 686.039715 345.515652 
L 686.877029 388.626957 
L 687.714343 409.590506 
L 688.551657 403.658831 
L 689.388971 350.191027 
L 690.226285 387.104742 
L 691.063599 368.647885 
L 691.900913 310.042605 
L 692.738227 339.535522 
L 693.575541 338.584138 
L 694.412855 333.256385 
L 695.250169 304.334299 
L 696.087483 321.459218 
L 696.924797 317.08285 
L 697.762111 370.360377 
L 698.599425 334.968877 
L 699.436739 359.867966 
L 700.274053 372.072869 
L 701.111367 389.007511 
L 701.948681 400.614401 
L 702.785995 410.128245 
L 703.623309 385.329459 
L 704.460623 383.963271 
L 705.297937 366.554839 
L 706.135251 340.296629 
L 706.972565 338.013307 
L 707.809879 347.907705 
L 708.647193 340.296629 
L 709.484507 282.518641 
L 710.321821 261.331724 
L 711.159135 334.017492 
L 711.996449 282.262181 
L 712.833763 363.129855 
L 713.671077 369.218715 
L 714.508391 386.914465 
L 715.345705 332.685554 
L 716.183019 312.135651 
L 717.020333 277.695535 
L 717.857647 308.710667 
L 718.694961 319.937003 
L 719.532275 294.059347 
L 720.369589 296.9135 
L 721.206903 290.634363 
L 722.044217 354.947949 
L 722.881531 356.279888 
L 723.718845 366.174285 
L 724.556159 365.603455 
L 725.393473 315.180081 
L 726.230787 317.653681 
L 727.068101 315.560635 
L 727.905415 354.567396 
L 728.742729 323.552264 
L 730.417357 349.42992 
L 732.091984 165.812729 
L 733.766612 318.985619 
L 734.603926 353.425734 
L 735.44124 349.42992 
L 736.278554 260.760893 
L 737.115868 290.25381 
L 737.953182 334.207769 
L 738.790496 401.565785 
L 739.62781 338.774414 
L 740.465124 314.60925 
L 741.302438 153.635008 
L 742.139752 268.752522 
L 742.977066 293.678793 
L 743.81438 342.960506 
L 745.489008 232.219361 
L 746.326322 305.947516 
L 747.163636 296.34267 
L 747.163636 296.34267 
" style="fill:none;stroke:#1f77b4;stroke-linecap:square;stroke-width:1.5;"/>
   </g>
   <g id="line2d_20">
    <path clip-path="url(#p7914af68ef)" d="M 138.436364 295.158747 
L 140.110992 348.503409 
L 140.948306 296.451233 
L 141.78562 301.682326 
L 142.622934 332.333082 
L 143.460248 276.684428 
L 144.297562 263.768671 
L 145.134876 293.556003 
L 145.97219 199.656296 
L 146.809504 348.413737 
L 147.646818 190.106327 
L 148.484132 322.528254 
L 149.321446 260.446972 
L 150.15876 253.480323 
L 150.996074 268.028909 
L 151.833388 362.929451 
L 152.670702 215.255103 
L 153.508016 315.346611 
L 154.345329 299.21123 
L 155.182643 267.660033 
L 156.019957 334.502092 
L 156.857271 336.467772 
L 157.694585 289.054946 
L 158.531899 230.144502 
L 159.369213 208.519675 
L 160.206527 240.463649 
L 161.043841 218.779209 
L 161.881155 278.522138 
L 162.718469 234.419408 
L 163.555783 298.856586 
L 164.393097 188.812586 
L 165.230411 346.530029 
L 166.067725 332.332847 
L 166.905039 234.315879 
L 167.742353 375.325115 
L 168.579667 331.299209 
L 169.416981 295.509053 
L 170.254295 304.461494 
L 171.091609 254.965601 
L 171.928923 326.894286 
L 172.766237 381.140831 
L 173.603551 214.045991 
L 174.440865 331.852802 
L 175.278179 255.463301 
L 176.115493 304.889599 
L 176.952807 310.999219 
L 177.790121 258.976519 
L 178.627435 357.157831 
L 179.464749 303.758834 
L 180.302063 345.442955 
L 181.139377 317.558379 
L 181.976691 322.462205 
L 182.814005 303.8058 
L 183.651319 348.430348 
L 184.488633 347.62773 
L 185.325947 345.169577 
L 186.163261 281.927419 
L 187.000575 277.844851 
L 187.837889 330.838824 
L 188.675203 263.790847 
L 189.512517 330.438382 
L 190.349831 326.784468 
L 191.187145 259.490698 
L 192.024459 341.43904 
L 192.861773 279.883818 
L 193.699087 279.072465 
L 194.536401 252.604723 
L 195.373715 271.478612 
L 196.211029 154.42335 
L 197.048343 329.948765 
L 197.885657 212.045035 
L 198.722971 305.303446 
L 199.560285 318.355797 
L 200.397599 306.178105 
L 201.234913 258.529669 
L 202.072227 249.247922 
L 202.909541 280.083299 
L 203.746855 158.993444 
L 204.584169 298.802182 
L 205.421483 227.967147 
L 206.258797 320.418107 
L 207.096111 296.426113 
L 207.933425 296.023511 
L 208.770739 318.89501 
L 209.608053 326.960701 
L 210.445367 269.410327 
L 211.282681 318.89609 
L 212.119995 288.411402 
L 212.957309 273.907917 
L 213.794623 264.93216 
L 214.631937 344.598955 
L 215.469251 298.461143 
L 216.306565 356.930051 
L 217.143879 360.495625 
L 217.981193 203.631084 
L 218.818507 318.554285 
L 219.655821 310.082202 
L 220.493135 325.160219 
L 221.330449 359.750861 
L 222.167763 232.829486 
L 223.005077 357.020497 
L 223.842391 248.39739 
L 224.679705 304.306688 
L 225.517019 325.7272 
L 226.354333 365.020192 
L 227.191647 360.313191 
L 228.028961 333.751867 
L 228.866275 350.004426 
L 229.703589 379.405641 
L 230.540903 398.474499 
L 232.215531 220.172281 
L 233.052845 174.307568 
L 233.890159 223.292635 
L 234.727473 352.68617 
L 235.564787 336.903507 
L 236.402101 293.293182 
L 237.239415 375.038959 
L 238.076729 380.093109 
L 238.914043 344.7901 
L 239.751357 401.455307 
L 240.588671 412.43763 
L 241.425985 393.849077 
L 242.263299 388.763218 
L 243.100613 416.554882 
L 243.937927 351.767881 
L 244.775241 381.775551 
L 245.612555 370.847505 
L 246.449869 376.871334 
L 247.287183 216.728832 
L 248.124497 345.615234 
L 248.961811 196.617452 
L 249.799125 377.333723 
L 250.636439 293.100373 
L 251.473753 361.384491 
L 252.311067 345.930054 
L 253.148381 256.633479 
L 254.823009 396.369421 
L 255.660323 305.771497 
L 256.497637 284.665988 
L 257.334951 313.567016 
L 258.172265 400.935614 
L 259.009579 242.675687 
L 259.846893 259.842241 
L 260.684207 346.789636 
L 261.521521 308.487506 
L 262.358835 422.283988 
L 263.196149 187.698885 
L 264.033463 374.620226 
L 264.870777 350.988372 
L 265.708091 304.480508 
L 266.545405 354.82013 
L 268.220033 417.431649 
L 269.057347 281.122737 
L 269.89466 398.273677 
L 270.731974 237.559882 
L 272.406602 412.286935 
L 273.243916 427.514079 
L 274.08123 426.388001 
L 274.918544 404.939206 
L 275.755858 370.353725 
L 276.593172 408.205961 
L 277.430486 412.102976 
L 278.2678 422.720377 
L 279.105114 418.907747 
L 279.942428 433.433757 
L 280.779742 424.991418 
L 281.617056 413.398868 
L 282.45437 421.526115 
L 283.291684 411.000711 
L 284.128998 383.334326 
L 284.966312 362.927718 
L 285.803626 339.709868 
L 286.64094 415.840908 
L 287.478254 368.165779 
L 288.315568 415.432244 
L 289.152882 400.670711 
L 289.990196 401.662383 
L 290.82751 394.862011 
L 291.664824 386.845427 
L 292.502138 337.265416 
L 293.339452 405.907221 
L 294.176766 410.670429 
L 295.01408 362.301229 
L 295.851394 377.687191 
L 296.688708 321.011776 
L 297.526022 396.399445 
L 298.363336 351.722632 
L 299.20065 410.734841 
L 300.037964 422.388058 
L 300.875278 419.255178 
L 301.712592 433.366149 
L 302.549906 432.46839 
L 303.38722 433.767836 
L 304.224534 426.988664 
L 305.061848 418.30238 
L 306.736476 428.15521 
L 307.57379 426.805166 
L 308.411104 410.666283 
L 309.248418 401.299821 
L 310.085732 417.706264 
L 310.923046 429.621744 
L 311.76036 433.363213 
L 312.597674 424.767758 
L 313.434988 407.335117 
L 314.272302 413.670548 
L 315.109616 396.77549 
L 315.94693 364.806243 
L 316.784244 394.115261 
L 317.621558 248.992418 
L 318.458872 420.84956 
L 319.296186 182.091756 
L 320.1335 405.190722 
L 320.970814 374.061921 
L 321.808128 417.274108 
L 322.645442 411.512007 
L 323.482756 426.130632 
L 324.32007 408.638004 
L 325.157384 339.527137 
L 325.994698 385.313602 
L 326.832012 367.692555 
L 327.669326 379.443408 
L 328.50664 383.164704 
L 329.343954 382.780184 
L 330.181268 423.312609 
L 331.018582 123.207373 
L 331.855896 369.531466 
L 332.69321 400.557043 
L 333.530524 220.993181 
L 334.367838 397.054094 
L 336.042466 334.782691 
L 336.87978 362.390761 
L 337.717094 235.914982 
L 338.554408 313.963904 
L 339.391722 225.993942 
L 340.229036 348.088795 
L 342.740978 323.836079 
L 343.578292 364.784363 
L 344.415606 287.833656 
L 345.25292 304.013581 
L 346.090234 372.092121 
L 346.927548 421.752937 
L 347.764862 333.291403 
L 348.602176 360.372969 
L 349.43949 368.468406 
L 350.276804 356.843724 
L 351.114118 409.596228 
L 351.951432 349.376004 
L 352.788746 409.505076 
L 353.62606 397.968402 
L 354.463374 413.36989 
L 355.300688 396.360075 
L 356.138002 383.802254 
L 356.975316 387.228684 
L 357.81263 414.571991 
L 358.649944 363.530532 
L 359.487258 381.836122 
L 360.324572 382.329449 
L 361.161886 352.465045 
L 361.9992 316.913025 
L 362.836514 354.241286 
L 363.673828 418.153009 
L 364.511142 205.066539 
L 365.348456 396.421674 
L 366.18577 270.119353 
L 367.023084 330.848527 
L 367.860398 352.353711 
L 368.697712 339.827952 
L 369.535026 375.043933 
L 370.37234 296.239872 
L 371.209654 354.216236 
L 372.046968 292.86309 
L 372.884282 211.633827 
L 373.721596 333.184241 
L 374.55891 330.141931 
L 375.396224 334.383538 
L 376.233538 395.133525 
L 377.070852 331.724292 
L 377.908166 363.55749 
L 378.74548 303.549407 
L 379.582794 317.776665 
L 380.420108 353.044028 
L 381.257422 364.746814 
L 382.094736 307.030963 
L 382.93205 199.367919 
L 383.769364 239.269134 
L 384.606678 296.424807 
L 385.443991 259.312732 
L 386.281305 339.523949 
L 387.118619 308.529071 
L 387.955933 353.547834 
L 388.793247 360.420509 
L 389.630561 330.963676 
L 390.467875 331.22134 
L 391.305189 309.651466 
L 392.142503 180.326288 
L 392.979817 289.294023 
L 393.817131 262.453468 
L 394.654445 317.158199 
L 395.491759 256.826305 
L 396.329073 214.770835 
L 397.166387 262.228274 
L 398.003701 256.566933 
L 398.841015 216.44164 
L 399.678329 305.021672 
L 400.515643 267.872125 
L 401.352957 331.217551 
L 402.190271 332.400098 
L 403.027585 346.687579 
L 403.864899 260.472127 
L 404.702213 384.64182 
L 405.539527 367.801728 
L 406.376841 366.084838 
L 407.214155 292.283428 
L 408.888783 357.882004 
L 409.726097 365.309283 
L 410.563411 202.061857 
L 411.400725 357.755471 
L 413.075353 240.986086 
L 413.912667 340.197586 
L 414.749981 308.308164 
L 415.587295 223.921789 
L 416.424609 282.608799 
L 418.099237 259.824455 
L 418.936551 325.943718 
L 419.773865 210.587995 
L 420.611179 274.547384 
L 421.448493 261.178401 
L 422.285807 326.552107 
L 423.123121 178.137088 
L 423.960435 329.588634 
L 424.797749 202.030396 
L 425.635063 250.717957 
L 426.472377 347.976416 
L 427.309691 180.792475 
L 428.147005 349.521333 
L 428.984319 307.67948 
L 429.821633 304.677715 
L 430.658947 321.762446 
L 431.496261 282.059187 
L 432.333575 274.941433 
L 433.170889 171.725417 
L 434.008203 283.070979 
L 434.845517 167.524164 
L 435.682831 244.63635 
L 436.520145 211.160637 
L 437.357459 327.449587 
L 438.194773 153.983799 
L 439.032087 198.897342 
L 439.869401 340.209441 
L 440.706715 346.916962 
L 442.381343 254.740617 
L 443.218657 319.019225 
L 444.055971 316.518392 
L 444.893285 269.286694 
L 445.730599 246.392097 
L 446.567913 311.053387 
L 447.405227 209.036694 
L 448.242541 324.438972 
L 449.079855 226.135883 
L 449.917169 319.452156 
L 450.754483 259.790938 
L 451.591797 220.907177 
L 452.429111 253.144963 
L 453.266425 276.238763 
L 454.103739 178.36465 
L 454.941053 189.524417 
L 455.778367 119.778696 
L 456.615681 190.733565 
L 457.452995 183.329665 
L 458.290309 329.868814 
L 459.127623 239.21311 
L 459.964937 161.373607 
L 460.802251 250.368452 
L 461.639565 86.923636 
L 462.476879 341.179041 
L 463.314193 224.850957 
L 464.151507 234.585773 
L 464.988821 314.173375 
L 465.826135 340.618932 
L 466.663449 273.881822 
L 467.500763 353.345993 
L 468.338077 293.937196 
L 469.175391 305.681738 
L 470.012705 281.624531 
L 470.850019 266.370577 
L 471.687333 339.360851 
L 472.524647 313.119025 
L 473.361961 335.227746 
L 474.199275 285.719224 
L 475.036589 330.418566 
L 475.873903 329.493457 
L 476.711217 372.709368 
L 477.548531 213.0458 
L 478.385845 240.972358 
L 479.223159 349.001745 
L 480.060473 270.964049 
L 480.897787 347.054731 
L 481.735101 249.098177 
L 482.572415 286.824128 
L 483.409729 309.837358 
L 484.247043 313.281792 
L 485.084357 270.632069 
L 485.921671 306.710446 
L 487.596299 324.863759 
L 488.433613 329.355166 
L 489.270927 224.700096 
L 490.108241 351.904143 
L 490.945555 301.640099 
L 491.782869 346.090148 
L 492.620183 289.511202 
L 493.457497 341.163746 
L 494.294811 293.591366 
L 495.132125 221.703723 
L 495.969439 331.568537 
L 496.806753 270.600469 
L 497.644067 365.957878 
L 498.481381 287.68999 
L 499.318695 342.475578 
L 500.156009 365.182881 
L 500.993322 261.01512 
L 501.830636 345.962648 
L 502.66795 254.442676 
L 503.505264 304.13231 
L 504.342578 324.292214 
L 505.179892 273.775836 
L 506.017206 305.155399 
L 506.85452 354.569817 
L 507.691834 317.877346 
L 508.529148 295.895158 
L 509.366462 328.344366 
L 510.203776 249.90413 
L 511.04109 248.070688 
L 511.878404 210.126739 
L 512.715718 373.638057 
L 513.553032 207.104287 
L 514.390346 347.280542 
L 515.22766 368.233771 
L 516.064974 308.271999 
L 516.902288 353.865538 
L 517.739602 303.868539 
L 518.576916 357.058953 
L 519.41423 325.989237 
L 520.251544 373.293238 
L 521.088858 371.641552 
L 521.926172 265.233096 
L 522.763486 362.208884 
L 523.6008 288.959778 
L 524.438114 318.529434 
L 525.275428 301.192257 
L 526.112742 367.9596 
L 526.950056 393.430457 
L 527.78737 340.23308 
L 528.624684 393.513648 
L 529.461998 352.307233 
L 530.299312 357.694369 
L 531.136626 334.024826 
L 531.97394 317.639262 
L 532.811254 314.444236 
L 533.648568 304.604428 
L 534.485882 335.698061 
L 535.323196 253.091064 
L 536.997824 362.687421 
L 537.835138 360.736628 
L 538.672452 355.818265 
L 539.509766 356.221259 
L 540.34708 413.115483 
L 541.184394 264.515238 
L 542.021708 303.054442 
L 542.859022 364.924859 
L 543.696336 297.288456 
L 544.53365 386.046198 
L 545.370964 279.448884 
L 546.208278 379.114668 
L 547.045592 314.720079 
L 547.882906 360.826482 
L 548.72022 356.140638 
L 549.557534 387.638707 
L 550.394848 400.739007 
L 551.232162 370.872547 
L 552.069476 397.383688 
L 552.90679 400.258336 
L 553.744104 377.680745 
L 554.581418 411.887181 
L 555.418732 391.306548 
L 556.256046 425.963301 
L 557.09336 406.165174 
L 557.930674 417.101681 
L 558.767988 408.944271 
L 559.605302 398.005133 
L 560.442616 427.1615 
L 561.27993 439.132709 
L 562.117244 435.821393 
L 562.954558 388.213649 
L 563.791872 429.922898 
L 564.629186 404.137808 
L 565.4665 422.242841 
L 566.303814 432.249938 
L 567.141128 352.347056 
L 567.978442 381.695626 
L 568.815756 385.816537 
L 569.65307 412.516152 
L 570.490384 206.913517 
L 571.327698 330.989397 
L 572.165012 363.29784 
L 573.002326 304.932741 
L 573.83964 369.049924 
L 575.514268 383.161219 
L 576.351582 398.934945 
L 577.188896 388.697378 
L 578.02621 421.012693 
L 578.863524 423.233111 
L 579.700838 386.314977 
L 580.538152 328.607849 
L 581.375466 392.376725 
L 582.21278 394.574305 
L 583.050094 420.495578 
L 584.724722 368.990329 
L 585.562036 385.49851 
L 586.39935 351.294448 
L 587.236664 419.007757 
L 588.073978 418.217552 
L 588.911292 395.93764 
L 589.748606 228.749287 
L 590.58592 370.710668 
L 591.423234 319.593732 
L 592.260548 413.487695 
L 593.097862 209.172311 
L 593.935176 359.274214 
L 594.77249 343.200788 
L 595.609804 398.918988 
L 596.447118 370.756223 
L 598.121746 420.616903 
L 598.95906 423.571702 
L 599.796374 429.891516 
L 600.633688 422.241561 
L 601.471002 433.877375 
L 602.308316 435.332612 
L 603.14563 430.261002 
L 603.982944 426.207108 
L 604.820258 420.309102 
L 605.657572 421.541288 
L 606.494886 414.067558 
L 607.3322 387.955967 
L 608.169514 366.960263 
L 609.006828 377.038683 
L 609.844142 411.791177 
L 610.681456 370.76009 
L 611.51877 275.358198 
L 612.356084 267.968861 
L 613.193398 339.657676 
L 614.030712 360.293601 
L 614.868026 258.980822 
L 615.70534 282.774206 
L 616.542653 323.068834 
L 617.379967 335.628188 
L 618.217281 408.577999 
L 619.054595 203.683449 
L 619.891909 361.300603 
L 620.729223 401.625861 
L 621.566537 168.814944 
L 622.403851 350.776802 
L 623.241165 303.376492 
L 624.078479 307.063156 
L 624.915793 316.736365 
L 625.753107 359.477483 
L 626.590421 322.736767 
L 627.427735 400.66126 
L 628.265049 305.798254 
L 629.102363 373.436564 
L 629.939677 360.492681 
L 630.776991 377.615262 
L 631.614305 418.668469 
L 632.451619 325.629811 
L 633.288933 389.081488 
L 634.126247 391.247258 
L 634.963561 358.988607 
L 635.800875 409.013177 
L 636.638189 417.455489 
L 637.475503 329.284012 
L 638.312817 422.498616 
L 639.150131 420.780898 
L 639.987445 424.96723 
L 640.824759 420.907779 
L 641.662073 422.433969 
L 642.499387 413.173562 
L 643.336701 420.075425 
L 644.174015 325.262842 
L 645.011329 423.00412 
L 645.848643 360.857325 
L 646.685957 377.357136 
L 647.523271 411.819311 
L 648.360585 408.394946 
L 649.197899 442.996364 
L 650.035213 424.797756 
L 650.872527 402.098136 
L 651.709841 415.854609 
L 652.547155 384.537237 
L 653.384469 386.727317 
L 654.221783 395.863943 
L 655.059097 344.507673 
L 655.896411 383.066566 
L 656.733725 401.539543 
L 658.408353 383.837792 
L 659.245667 345.520284 
L 660.082981 355.28116 
L 660.920295 427.167283 
L 661.757609 377.31585 
L 662.594923 393.888482 
L 663.432237 383.593288 
L 664.269551 440.324201 
L 665.106865 416.403908 
L 665.944179 375.863518 
L 666.781493 409.175892 
L 667.618807 328.938532 
L 668.456121 372.724271 
L 669.293435 228.969411 
L 670.130749 333.268146 
L 670.968063 292.729023 
L 671.805377 361.47931 
L 672.642691 398.338167 
L 673.480005 395.540752 
L 674.317319 398.745786 
L 675.154633 273.507197 
L 675.991947 371.105571 
L 676.829261 377.059065 
L 677.666575 428.701095 
L 678.503889 315.04793 
L 679.341203 393.499947 
L 680.178517 243.798761 
L 681.015831 390.221721 
L 681.853145 424.672138 
L 682.690459 236.621134 
L 683.527773 376.137662 
L 684.365087 400.11332 
L 685.202401 324.94945 
L 686.039715 355.851564 
L 686.877029 392.928263 
L 687.714343 362.306499 
L 688.551657 387.022906 
L 689.388971 302.511849 
L 690.226285 362.081977 
L 691.063599 384.528718 
L 691.900913 295.968532 
L 692.738227 331.015205 
L 693.575541 354.099493 
L 694.412855 305.733999 
L 695.250169 349.153258 
L 696.087483 282.23731 
L 696.924797 326.948969 
L 697.762111 395.105304 
L 698.599425 224.3242 
L 699.436739 359.351255 
L 700.274053 310.053118 
L 701.111367 340.076793 
L 701.948681 383.80188 
L 702.785995 340.018374 
L 703.623309 309.994455 
L 704.460623 340.580982 
L 705.297937 349.781559 
L 706.135251 304.198342 
L 706.972565 278.260728 
L 707.809879 319.586772 
L 708.647193 344.368937 
L 709.484507 274.72124 
L 710.321821 293.141241 
L 711.159135 276.167392 
L 711.996449 139.105376 
L 712.833763 319.188787 
L 713.671077 289.98096 
L 714.508391 322.381087 
L 715.345705 331.445114 
L 716.183019 248.632251 
L 717.020333 239.035179 
L 717.857647 341.878965 
L 718.694961 301.157189 
L 719.532275 277.159151 
L 720.369589 315.168923 
L 721.206903 242.46342 
L 722.044217 271.182501 
L 722.881531 320.709123 
L 723.718845 301.717498 
L 724.556159 355.220215 
L 725.393473 223.501279 
L 726.230787 334.73698 
L 727.068101 287.259149 
L 727.905415 282.250776 
L 728.742729 324.758871 
L 729.580043 282.6639 
L 730.417357 346.086254 
L 731.254671 255.05974 
L 732.091984 123.463069 
L 732.929298 279.396849 
L 733.766612 334.048509 
L 734.603926 304.521411 
L 735.44124 318.977817 
L 736.278554 255.913269 
L 737.115868 319.539729 
L 737.953182 312.997953 
L 738.790496 380.923146 
L 739.62781 197.148616 
L 740.465124 324.443292 
L 741.302438 250.967643 
L 742.139752 321.870313 
L 742.977066 211.30439 
L 743.81438 358.132901 
L 744.651694 215.374781 
L 745.489008 208.541084 
L 746.326322 328.001725 
L 747.163636 289.295869 
L 747.163636 289.295869 
" style="fill:none;stroke:#ff0000;stroke-dasharray:5.55,2.4;stroke-dashoffset:0;stroke-width:1.5;"/>
   </g>
   <g id="patch_3">
    <path d="M 108 460.8 
L 108 69.12 
" style="fill:none;stroke:#000000;stroke-linecap:square;stroke-linejoin:miter;stroke-width:0.8;"/>
   </g>
   <g id="patch_4">
    <path d="M 777.6 460.8 
L 777.6 69.12 
" style="fill:none;stroke:#000000;stroke-linecap:square;stroke-linejoin:miter;stroke-width:0.8;"/>
   </g>
   <g id="patch_5">
    <path d="M 108 460.8 
L 777.6 460.8 
" style="fill:none;stroke:#000000;stroke-linecap:square;stroke-linejoin:miter;stroke-width:0.8;"/>
   </g>
   <g id="patch_6">
    <path d="M 108 69.12 
L 777.6 69.12 
" style="fill:none;stroke:#000000;stroke-linecap:square;stroke-linejoin:miter;stroke-width:0.8;"/>
   </g>
   <g id="text_21">
    <!-- Macau roadside 2020-2021 | Forecast vs Monitored | GRU -->
    <g transform="translate(226.727344 63.12)scale(0.15 -0.15)">
     <defs>
      <path d="M 8.5 21.578125 
L 8.5 54.6875 
L 17.484375 54.6875 
L 17.484375 21.921875 
Q 17.484375 14.15625 20.5 10.265625 
Q 23.53125 6.390625 29.59375 6.390625 
Q 36.859375 6.390625 41.078125 11.03125 
Q 45.3125 15.671875 45.3125 23.6875 
L 45.3125 54.6875 
L 54.296875 54.6875 
L 54.296875 0 
L 45.3125 0 
L 45.3125 8.40625 
Q 42.046875 3.421875 37.71875 1 
Q 33.40625 -1.421875 27.6875 -1.421875 
Q 18.265625 -1.421875 13.375 4.4375 
Q 8.5 10.296875 8.5 21.578125 
z
M 31.109375 56 
z
" id="DejaVuSans-117"/>
      <path id="DejaVuSans-32"/>
      <path d="M 45.40625 46.390625 
L 45.40625 75.984375 
L 54.390625 75.984375 
L 54.390625 0 
L 45.40625 0 
L 45.40625 8.203125 
Q 42.578125 3.328125 38.25 0.953125 
Q 33.9375 -1.421875 27.875 -1.421875 
Q 17.96875 -1.421875 11.734375 6.484375 
Q 5.515625 14.40625 5.515625 27.296875 
Q 5.515625 40.1875 11.734375 48.09375 
Q 17.96875 56 27.875 56 
Q 33.9375 56 38.25 53.625 
Q 42.578125 51.265625 45.40625 46.390625 
z
M 14.796875 27.296875 
Q 14.796875 17.390625 18.875 11.75 
Q 22.953125 6.109375 30.078125 6.109375 
Q 37.203125 6.109375 41.296875 11.75 
Q 45.40625 17.390625 45.40625 27.296875 
Q 45.40625 37.203125 41.296875 42.84375 
Q 37.203125 48.484375 30.078125 48.484375 
Q 22.953125 48.484375 18.875 42.84375 
Q 14.796875 37.203125 14.796875 27.296875 
z
" id="DejaVuSans-100"/>
      <path d="M 44.28125 53.078125 
L 44.28125 44.578125 
Q 40.484375 46.53125 36.375 47.5 
Q 32.28125 48.484375 27.875 48.484375 
Q 21.1875 48.484375 17.84375 46.4375 
Q 14.5 44.390625 14.5 40.28125 
Q 14.5 37.15625 16.890625 35.375 
Q 19.28125 33.59375 26.515625 31.984375 
L 29.59375 31.296875 
Q 39.15625 29.25 43.1875 25.515625 
Q 47.21875 21.78125 47.21875 15.09375 
Q 47.21875 7.46875 41.1875 3.015625 
Q 35.15625 -1.421875 24.609375 -1.421875 
Q 20.21875 -1.421875 15.453125 -0.5625 
Q 10.6875 0.296875 5.421875 2 
L 5.421875 11.28125 
Q 10.40625 8.6875 15.234375 7.390625 
Q 20.0625 6.109375 24.8125 6.109375 
Q 31.15625 6.109375 34.5625 8.28125 
Q 37.984375 10.453125 37.984375 14.40625 
Q 37.984375 18.0625 35.515625 20.015625 
Q 33.0625 21.96875 24.703125 23.78125 
L 21.578125 24.515625 
Q 13.234375 26.265625 9.515625 29.90625 
Q 5.8125 33.546875 5.8125 39.890625 
Q 5.8125 47.609375 11.28125 51.796875 
Q 16.75 56 26.8125 56 
Q 31.78125 56 36.171875 55.265625 
Q 40.578125 54.546875 44.28125 53.078125 
z
" id="DejaVuSans-115"/>
      <path d="M 21 76.421875 
L 21 -23.578125 
L 12.703125 -23.578125 
L 12.703125 76.421875 
z
" id="DejaVuSans-124"/>
      <path d="M 9.8125 72.90625 
L 51.703125 72.90625 
L 51.703125 64.59375 
L 19.671875 64.59375 
L 19.671875 43.109375 
L 48.578125 43.109375 
L 48.578125 34.8125 
L 19.671875 34.8125 
L 19.671875 0 
L 9.8125 0 
z
" id="DejaVuSans-70"/>
      <path d="M 2.984375 54.6875 
L 12.5 54.6875 
L 29.59375 8.796875 
L 46.6875 54.6875 
L 56.203125 54.6875 
L 35.6875 0 
L 23.484375 0 
z
" id="DejaVuSans-118"/>
      <path d="M 54.890625 33.015625 
L 54.890625 0 
L 45.90625 0 
L 45.90625 32.71875 
Q 45.90625 40.484375 42.875 44.328125 
Q 39.84375 48.1875 33.796875 48.1875 
Q 26.515625 48.1875 22.3125 43.546875 
Q 18.109375 38.921875 18.109375 30.90625 
L 18.109375 0 
L 9.078125 0 
L 9.078125 54.6875 
L 18.109375 54.6875 
L 18.109375 46.1875 
Q 21.34375 51.125 25.703125 53.5625 
Q 30.078125 56 35.796875 56 
Q 45.21875 56 50.046875 50.171875 
Q 54.890625 44.34375 54.890625 33.015625 
z
" id="DejaVuSans-110"/>
      <path d="M 59.515625 10.40625 
L 59.515625 29.984375 
L 43.40625 29.984375 
L 43.40625 38.09375 
L 69.28125 38.09375 
L 69.28125 6.78125 
Q 63.578125 2.734375 56.6875 0.65625 
Q 49.8125 -1.421875 42 -1.421875 
Q 24.90625 -1.421875 15.25 8.5625 
Q 5.609375 18.5625 5.609375 36.375 
Q 5.609375 54.25 15.25 64.234375 
Q 24.90625 74.21875 42 74.21875 
Q 49.125 74.21875 55.546875 72.453125 
Q 61.96875 70.703125 67.390625 67.28125 
L 67.390625 56.78125 
Q 61.921875 61.421875 55.765625 63.765625 
Q 49.609375 66.109375 42.828125 66.109375 
Q 29.4375 66.109375 22.71875 58.640625 
Q 16.015625 51.171875 16.015625 36.375 
Q 16.015625 21.625 22.71875 14.15625 
Q 29.4375 6.6875 42.828125 6.6875 
Q 48.046875 6.6875 52.140625 7.59375 
Q 56.25 8.5 59.515625 10.40625 
z
" id="DejaVuSans-71"/>
      <path d="M 44.390625 34.1875 
Q 47.5625 33.109375 50.5625 29.59375 
Q 53.5625 26.078125 56.59375 19.921875 
L 66.609375 0 
L 56 0 
L 46.6875 18.703125 
Q 43.0625 26.03125 39.671875 28.421875 
Q 36.28125 30.8125 30.421875 30.8125 
L 19.671875 30.8125 
L 19.671875 0 
L 9.8125 0 
L 9.8125 72.90625 
L 32.078125 72.90625 
Q 44.578125 72.90625 50.734375 67.671875 
Q 56.890625 62.453125 56.890625 51.90625 
Q 56.890625 45.015625 53.6875 40.46875 
Q 50.484375 35.9375 44.390625 34.1875 
z
M 19.671875 64.796875 
L 19.671875 38.921875 
L 32.078125 38.921875 
Q 39.203125 38.921875 42.84375 42.21875 
Q 46.484375 45.515625 46.484375 51.90625 
Q 46.484375 58.296875 42.84375 61.546875 
Q 39.203125 64.796875 32.078125 64.796875 
z
" id="DejaVuSans-82"/>
      <path d="M 8.6875 72.90625 
L 18.609375 72.90625 
L 18.609375 28.609375 
Q 18.609375 16.890625 22.84375 11.734375 
Q 27.09375 6.59375 36.625 6.59375 
Q 46.09375 6.59375 50.34375 11.734375 
Q 54.59375 16.890625 54.59375 28.609375 
L 54.59375 72.90625 
L 64.5 72.90625 
L 64.5 27.390625 
Q 64.5 13.140625 57.4375 5.859375 
Q 50.390625 -1.421875 36.625 -1.421875 
Q 22.796875 -1.421875 15.734375 5.859375 
Q 8.6875 13.140625 8.6875 27.390625 
z
" id="DejaVuSans-85"/>
     </defs>
     <use xlink:href="#DejaVuSans-77"/>
     <use x="86.279297" xlink:href="#DejaVuSans-97"/>
     <use x="147.558594" xlink:href="#DejaVuSans-99"/>
     <use x="202.539062" xlink:href="#DejaVuSans-97"/>
     <use x="263.818359" xlink:href="#DejaVuSans-117"/>
     <use x="327.197266" xlink:href="#DejaVuSans-32"/>
     <use x="358.984375" xlink:href="#DejaVuSans-114"/>
     <use x="397.847656" xlink:href="#DejaVuSans-111"/>
     <use x="459.029297" xlink:href="#DejaVuSans-97"/>
     <use x="520.308594" xlink:href="#DejaVuSans-100"/>
     <use x="583.785156" xlink:href="#DejaVuSans-115"/>
     <use x="635.884766" xlink:href="#DejaVuSans-105"/>
     <use x="663.667969" xlink:href="#DejaVuSans-100"/>
     <use x="727.144531" xlink:href="#DejaVuSans-101"/>
     <use x="788.667969" xlink:href="#DejaVuSans-32"/>
     <use x="820.455078" xlink:href="#DejaVuSans-50"/>
     <use x="884.078125" xlink:href="#DejaVuSans-48"/>
     <use x="947.701172" xlink:href="#DejaVuSans-50"/>
     <use x="1011.324219" xlink:href="#DejaVuSans-48"/>
     <use x="1074.947266" xlink:href="#DejaVuSans-45"/>
     <use x="1111.03125" xlink:href="#DejaVuSans-50"/>
     <use x="1174.654297" xlink:href="#DejaVuSans-48"/>
     <use x="1238.277344" xlink:href="#DejaVuSans-50"/>
     <use x="1301.900391" xlink:href="#DejaVuSans-49"/>
     <use x="1365.523438" xlink:href="#DejaVuSans-32"/>
     <use x="1397.310547" xlink:href="#DejaVuSans-124"/>
     <use x="1431.001953" xlink:href="#DejaVuSans-32"/>
     <use x="1462.789062" xlink:href="#DejaVuSans-70"/>
     <use x="1516.683594" xlink:href="#DejaVuSans-111"/>
     <use x="1577.865234" xlink:href="#DejaVuSans-114"/>
     <use x="1616.728516" xlink:href="#DejaVuSans-101"/>
     <use x="1678.251953" xlink:href="#DejaVuSans-99"/>
     <use x="1733.232422" xlink:href="#DejaVuSans-97"/>
     <use x="1794.511719" xlink:href="#DejaVuSans-115"/>
     <use x="1846.611328" xlink:href="#DejaVuSans-116"/>
     <use x="1885.820312" xlink:href="#DejaVuSans-32"/>
     <use x="1917.607422" xlink:href="#DejaVuSans-118"/>
     <use x="1976.787109" xlink:href="#DejaVuSans-115"/>
     <use x="2028.886719" xlink:href="#DejaVuSans-32"/>
     <use x="2060.673828" xlink:href="#DejaVuSans-77"/>
     <use x="2146.953125" xlink:href="#DejaVuSans-111"/>
     <use x="2208.134766" xlink:href="#DejaVuSans-110"/>
     <use x="2271.513672" xlink:href="#DejaVuSans-105"/>
     <use x="2299.296875" xlink:href="#DejaVuSans-116"/>
     <use x="2338.505859" xlink:href="#DejaVuSans-111"/>
     <use x="2399.6875" xlink:href="#DejaVuSans-114"/>
     <use x="2438.550781" xlink:href="#DejaVuSans-101"/>
     <use x="2500.074219" xlink:href="#DejaVuSans-100"/>
     <use x="2563.550781" xlink:href="#DejaVuSans-32"/>
     <use x="2595.337891" xlink:href="#DejaVuSans-124"/>
     <use x="2629.029297" xlink:href="#DejaVuSans-32"/>
     <use x="2660.816406" xlink:href="#DejaVuSans-71"/>
     <use x="2738.306641" xlink:href="#DejaVuSans-82"/>
     <use x="2807.789062" xlink:href="#DejaVuSans-85"/>
    </g>
   </g>
   <g id="legend_1">
    <g id="patch_7">
     <path d="M 598.963125 114.615 
L 769.2 114.615 
Q 771.6 114.615 771.6 112.215 
L 771.6 77.52 
Q 771.6 75.12 769.2 75.12 
L 598.963125 75.12 
Q 596.563125 75.12 596.563125 77.52 
L 596.563125 112.215 
Q 596.563125 114.615 598.963125 114.615 
z
" style="fill:#ffffff;opacity:0.8;stroke:#cccccc;stroke-linejoin:miter;"/>
    </g>
    <g id="line2d_21">
     <path d="M 601.363125 84.838125 
L 625.363125 84.838125 
" style="fill:none;stroke:#1f77b4;stroke-linecap:square;stroke-width:1.5;"/>
    </g>
    <g id="line2d_22"/>
    <g id="text_22">
     <!-- measured_data_PM25 -->
     <g transform="translate(634.963125 89.038125)scale(0.12 -0.12)">
      <defs>
       <path d="M 50.984375 -16.609375 
L 50.984375 -23.578125 
L -0.984375 -23.578125 
L -0.984375 -16.609375 
z
" id="DejaVuSans-95"/>
      </defs>
      <use xlink:href="#DejaVuSans-109"/>
      <use x="97.412109" xlink:href="#DejaVuSans-101"/>
      <use x="158.935547" xlink:href="#DejaVuSans-97"/>
      <use x="220.214844" xlink:href="#DejaVuSans-115"/>
      <use x="272.314453" xlink:href="#DejaVuSans-117"/>
      <use x="335.693359" xlink:href="#DejaVuSans-114"/>
      <use x="374.556641" xlink:href="#DejaVuSans-101"/>
      <use x="436.080078" xlink:href="#DejaVuSans-100"/>
      <use x="499.556641" xlink:href="#DejaVuSans-95"/>
      <use x="549.556641" xlink:href="#DejaVuSans-100"/>
      <use x="613.033203" xlink:href="#DejaVuSans-97"/>
      <use x="674.3125" xlink:href="#DejaVuSans-116"/>
      <use x="713.521484" xlink:href="#DejaVuSans-97"/>
      <use x="774.800781" xlink:href="#DejaVuSans-95"/>
      <use x="824.800781" xlink:href="#DejaVuSans-80"/>
      <use x="885.103516" xlink:href="#DejaVuSans-77"/>
      <use x="971.382812" xlink:href="#DejaVuSans-50"/>
      <use x="1035.005859" xlink:href="#DejaVuSans-53"/>
     </g>
    </g>
    <g id="line2d_23">
     <path d="M 601.363125 102.785625 
L 625.363125 102.785625 
" style="fill:none;stroke:#ff0000;stroke-dasharray:5.55,2.4;stroke-dashoffset:0;stroke-width:1.5;"/>
    </g>
    <g id="line2d_24"/>
    <g id="text_23">
     <!-- predicted_data_PM25 -->
     <g transform="translate(634.963125 106.985625)scale(0.12 -0.12)">
      <defs>
       <path d="M 18.109375 8.203125 
L 18.109375 -20.796875 
L 9.078125 -20.796875 
L 9.078125 54.6875 
L 18.109375 54.6875 
L 18.109375 46.390625 
Q 20.953125 51.265625 25.265625 53.625 
Q 29.59375 56 35.59375 56 
Q 45.5625 56 51.78125 48.09375 
Q 58.015625 40.1875 58.015625 27.296875 
Q 58.015625 14.40625 51.78125 6.484375 
Q 45.5625 -1.421875 35.59375 -1.421875 
Q 29.59375 -1.421875 25.265625 0.953125 
Q 20.953125 3.328125 18.109375 8.203125 
z
M 48.6875 27.296875 
Q 48.6875 37.203125 44.609375 42.84375 
Q 40.53125 48.484375 33.40625 48.484375 
Q 26.265625 48.484375 22.1875 42.84375 
Q 18.109375 37.203125 18.109375 27.296875 
Q 18.109375 17.390625 22.1875 11.75 
Q 26.265625 6.109375 33.40625 6.109375 
Q 40.53125 6.109375 44.609375 11.75 
Q 48.6875 17.390625 48.6875 27.296875 
z
" id="DejaVuSans-112"/>
      </defs>
      <use xlink:href="#DejaVuSans-112"/>
      <use x="63.476562" xlink:href="#DejaVuSans-114"/>
      <use x="102.339844" xlink:href="#DejaVuSans-101"/>
      <use x="163.863281" xlink:href="#DejaVuSans-100"/>
      <use x="227.339844" xlink:href="#DejaVuSans-105"/>
      <use x="255.123047" xlink:href="#DejaVuSans-99"/>
      <use x="310.103516" xlink:href="#DejaVuSans-116"/>
      <use x="349.3125" xlink:href="#DejaVuSans-101"/>
      <use x="410.835938" xlink:href="#DejaVuSans-100"/>
      <use x="474.3125" xlink:href="#DejaVuSans-95"/>
      <use x="524.3125" xlink:href="#DejaVuSans-100"/>
      <use x="587.789062" xlink:href="#DejaVuSans-97"/>
      <use x="649.068359" xlink:href="#DejaVuSans-116"/>
      <use x="688.277344" xlink:href="#DejaVuSans-97"/>
      <use x="749.556641" xlink:href="#DejaVuSans-95"/>
      <use x="799.556641" xlink:href="#DejaVuSans-80"/>
      <use x="859.859375" xlink:href="#DejaVuSans-77"/>
      <use x="946.138672" xlink:href="#DejaVuSans-50"/>
      <use x="1009.761719" xlink:href="#DejaVuSans-53"/>
     </g>
    </g>
   </g>
  </g>
 </g>
 <defs>
  <clipPath id="p7914af68ef">
   <rect height="391.68" width="669.6" x="108" y="69.12"/>
  </clipPath>
 </defs>
</svg>
