<?xml version="1.0" encoding="utf-8" standalone="no"?>
<!DOCTYPE svg PUBLIC "-//W3C//DTD SVG 1.1//EN"
  "http://www.w3.org/Graphics/SVG/1.1/DTD/svg11.dtd">
<!-- Created with matplotlib (https://matplotlib.org/) -->
<svg height="576pt" version="1.1" viewBox="0 0 864 576" width="864pt" xmlns="http://www.w3.org/2000/svg" xmlns:xlink="http://www.w3.org/1999/xlink">
 <metadata>
  <rdf:RDF xmlns:cc="http://creativecommons.org/ns#" xmlns:dc="http://purl.org/dc/elements/1.1/" xmlns:rdf="http://www.w3.org/1999/02/22-rdf-syntax-ns#">
   <cc:Work>
    <dc:type rdf:resource="http://purl.org/dc/dcmitype/StillImage"/>
    <dc:date>2024-03-08T17:52:24.840953</dc:date>
    <dc:format>image/svg+xml</dc:format>
    <dc:creator>
     <cc:Agent>
      <dc:title>Matplotlib v3.3.4, https://matplotlib.org/</dc:title>
     </cc:Agent>
    </dc:creator>
   </cc:Work>
  </rdf:RDF>
 </metadata>
 <defs>
  <style type="text/css">*{stroke-linecap:butt;stroke-linejoin:round;}</style>
 </defs>
 <g id="figure_1">
  <g id="patch_1">
   <path d="M 0 576 
L 864 576 
L 864 0 
L 0 0 
z
" style="fill:#ffffff;"/>
  </g>
  <g id="axes_1">
   <g id="patch_2">
    <path d="M 108 460.8 
L 777.6 460.8 
L 777.6 69.12 
L 108 69.12 
z
" style="fill:#ffffff;"/>
   </g>
   <g id="matplotlib.axis_1">
    <g id="xtick_1">
     <g id="line2d_1">
      <defs>
       <path d="M 0 0 
L 0 3.5 
" id="mbfead07adb" style="stroke:#000000;stroke-width:0.8;"/>
      </defs>
      <g>
       <use style="stroke:#000000;stroke-width:0.8;" x="138.436364" xlink:href="#mbfead07adb" y="460.8"/>
      </g>
     </g>
     <g id="text_1">
      <!-- 2020-01 -->
      <g transform="translate(93.766579 500.766215)rotate(-30)scale(0.12 -0.12)">
       <defs>
        <path d="M 19.1875 8.296875 
L 53.609375 8.296875 
L 53.609375 0 
L 7.328125 0 
L 7.328125 8.296875 
Q 12.9375 14.109375 22.625 23.890625 
Q 32.328125 33.6875 34.8125 36.53125 
Q 39.546875 41.84375 41.421875 45.53125 
Q 43.3125 49.21875 43.3125 52.78125 
Q 43.3125 58.59375 39.234375 62.25 
Q 35.15625 65.921875 28.609375 65.921875 
Q 23.96875 65.921875 18.8125 64.3125 
Q 13.671875 62.703125 7.8125 59.421875 
L 7.8125 69.390625 
Q 13.765625 71.78125 18.9375 73 
Q 24.125 74.21875 28.421875 74.21875 
Q 39.75 74.21875 46.484375 68.546875 
Q 53.21875 62.890625 53.21875 53.421875 
Q 53.21875 48.921875 51.53125 44.890625 
Q 49.859375 40.875 45.40625 35.40625 
Q 44.1875 33.984375 37.640625 27.21875 
Q 31.109375 20.453125 19.1875 8.296875 
z
" id="DejaVuSans-50"/>
        <path d="M 31.78125 66.40625 
Q 24.171875 66.40625 20.328125 58.90625 
Q 16.5 51.421875 16.5 36.375 
Q 16.5 21.390625 20.328125 13.890625 
Q 24.171875 6.390625 31.78125 6.390625 
Q 39.453125 6.390625 43.28125 13.890625 
Q 47.125 21.390625 47.125 36.375 
Q 47.125 51.421875 43.28125 58.90625 
Q 39.453125 66.40625 31.78125 66.40625 
z
M 31.78125 74.21875 
Q 44.046875 74.21875 50.515625 64.515625 
Q 56.984375 54.828125 56.984375 36.375 
Q 56.984375 17.96875 50.515625 8.265625 
Q 44.046875 -1.421875 31.78125 -1.421875 
Q 19.53125 -1.421875 13.0625 8.265625 
Q 6.59375 17.96875 6.59375 36.375 
Q 6.59375 54.828125 13.0625 64.515625 
Q 19.53125 74.21875 31.78125 74.21875 
z
" id="DejaVuSans-48"/>
        <path d="M 4.890625 31.390625 
L 31.203125 31.390625 
L 31.203125 23.390625 
L 4.890625 23.390625 
z
" id="DejaVuSans-45"/>
        <path d="M 12.40625 8.296875 
L 28.515625 8.296875 
L 28.515625 63.921875 
L 10.984375 60.40625 
L 10.984375 69.390625 
L 28.421875 72.90625 
L 38.28125 72.90625 
L 38.28125 8.296875 
L 54.390625 8.296875 
L 54.390625 0 
L 12.40625 0 
z
" id="DejaVuSans-49"/>
       </defs>
       <use xlink:href="#DejaVuSans-50"/>
       <use x="63.623047" xlink:href="#DejaVuSans-48"/>
       <use x="127.246094" xlink:href="#DejaVuSans-50"/>
       <use x="190.869141" xlink:href="#DejaVuSans-48"/>
       <use x="254.492188" xlink:href="#DejaVuSans-45"/>
       <use x="290.576172" xlink:href="#DejaVuSans-48"/>
       <use x="354.199219" xlink:href="#DejaVuSans-49"/>
      </g>
     </g>
    </g>
    <g id="xtick_2">
     <g id="line2d_2">
      <g>
       <use style="stroke:#000000;stroke-width:0.8;" x="214.318804" xlink:href="#mbfead07adb" y="460.8"/>
      </g>
     </g>
     <g id="text_2">
      <!-- 2020-04 -->
      <g transform="translate(169.64902 500.766215)rotate(-30)scale(0.12 -0.12)">
       <defs>
        <path d="M 37.796875 64.3125 
L 12.890625 25.390625 
L 37.796875 25.390625 
z
M 35.203125 72.90625 
L 47.609375 72.90625 
L 47.609375 25.390625 
L 58.015625 25.390625 
L 58.015625 17.1875 
L 47.609375 17.1875 
L 47.609375 0 
L 37.796875 0 
L 37.796875 17.1875 
L 4.890625 17.1875 
L 4.890625 26.703125 
z
" id="DejaVuSans-52"/>
       </defs>
       <use xlink:href="#DejaVuSans-50"/>
       <use x="63.623047" xlink:href="#DejaVuSans-48"/>
       <use x="127.246094" xlink:href="#DejaVuSans-50"/>
       <use x="190.869141" xlink:href="#DejaVuSans-48"/>
       <use x="254.492188" xlink:href="#DejaVuSans-45"/>
       <use x="290.576172" xlink:href="#DejaVuSans-48"/>
       <use x="354.199219" xlink:href="#DejaVuSans-52"/>
      </g>
     </g>
    </g>
    <g id="xtick_3">
     <g id="line2d_3">
      <g>
       <use style="stroke:#000000;stroke-width:0.8;" x="290.201245" xlink:href="#mbfead07adb" y="460.8"/>
      </g>
     </g>
     <g id="text_3">
      <!-- 2020-07 -->
      <g transform="translate(245.53146 500.766215)rotate(-30)scale(0.12 -0.12)">
       <defs>
        <path d="M 8.203125 72.90625 
L 55.078125 72.90625 
L 55.078125 68.703125 
L 28.609375 0 
L 18.3125 0 
L 43.21875 64.59375 
L 8.203125 64.59375 
z
" id="DejaVuSans-55"/>
       </defs>
       <use xlink:href="#DejaVuSans-50"/>
       <use x="63.623047" xlink:href="#DejaVuSans-48"/>
       <use x="127.246094" xlink:href="#DejaVuSans-50"/>
       <use x="190.869141" xlink:href="#DejaVuSans-48"/>
       <use x="254.492188" xlink:href="#DejaVuSans-45"/>
       <use x="290.576172" xlink:href="#DejaVuSans-48"/>
       <use x="354.199219" xlink:href="#DejaVuSans-55"/>
      </g>
     </g>
    </g>
    <g id="xtick_4">
     <g id="line2d_4">
      <g>
       <use style="stroke:#000000;stroke-width:0.8;" x="366.917559" xlink:href="#mbfead07adb" y="460.8"/>
      </g>
     </g>
     <g id="text_4">
      <!-- 2020-10 -->
      <g transform="translate(322.247774 500.766215)rotate(-30)scale(0.12 -0.12)">
       <use xlink:href="#DejaVuSans-50"/>
       <use x="63.623047" xlink:href="#DejaVuSans-48"/>
       <use x="127.246094" xlink:href="#DejaVuSans-50"/>
       <use x="190.869141" xlink:href="#DejaVuSans-48"/>
       <use x="254.492188" xlink:href="#DejaVuSans-45"/>
       <use x="290.576172" xlink:href="#DejaVuSans-49"/>
       <use x="354.199219" xlink:href="#DejaVuSans-48"/>
      </g>
     </g>
    </g>
    <g id="xtick_5">
     <g id="line2d_5">
      <g>
       <use style="stroke:#000000;stroke-width:0.8;" x="443.633873" xlink:href="#mbfead07adb" y="460.8"/>
      </g>
     </g>
     <g id="text_5">
      <!-- 2021-01 -->
      <g transform="translate(398.964088 500.766215)rotate(-30)scale(0.12 -0.12)">
       <use xlink:href="#DejaVuSans-50"/>
       <use x="63.623047" xlink:href="#DejaVuSans-48"/>
       <use x="127.246094" xlink:href="#DejaVuSans-50"/>
       <use x="190.869141" xlink:href="#DejaVuSans-49"/>
       <use x="254.492188" xlink:href="#DejaVuSans-45"/>
       <use x="290.576172" xlink:href="#DejaVuSans-48"/>
       <use x="354.199219" xlink:href="#DejaVuSans-49"/>
      </g>
     </g>
    </g>
    <g id="xtick_6">
     <g id="line2d_6">
      <g>
       <use style="stroke:#000000;stroke-width:0.8;" x="518.682441" xlink:href="#mbfead07adb" y="460.8"/>
      </g>
     </g>
     <g id="text_6">
      <!-- 2021-04 -->
      <g transform="translate(474.012656 500.766215)rotate(-30)scale(0.12 -0.12)">
       <use xlink:href="#DejaVuSans-50"/>
       <use x="63.623047" xlink:href="#DejaVuSans-48"/>
       <use x="127.246094" xlink:href="#DejaVuSans-50"/>
       <use x="190.869141" xlink:href="#DejaVuSans-49"/>
       <use x="254.492188" xlink:href="#DejaVuSans-45"/>
       <use x="290.576172" xlink:href="#DejaVuSans-48"/>
       <use x="354.199219" xlink:href="#DejaVuSans-52"/>
      </g>
     </g>
    </g>
    <g id="xtick_7">
     <g id="line2d_7">
      <g>
       <use style="stroke:#000000;stroke-width:0.8;" x="594.564882" xlink:href="#mbfead07adb" y="460.8"/>
      </g>
     </g>
     <g id="text_7">
      <!-- 2021-07 -->
      <g transform="translate(549.895097 500.766215)rotate(-30)scale(0.12 -0.12)">
       <use xlink:href="#DejaVuSans-50"/>
       <use x="63.623047" xlink:href="#DejaVuSans-48"/>
       <use x="127.246094" xlink:href="#DejaVuSans-50"/>
       <use x="190.869141" xlink:href="#DejaVuSans-49"/>
       <use x="254.492188" xlink:href="#DejaVuSans-45"/>
       <use x="290.576172" xlink:href="#DejaVuSans-48"/>
       <use x="354.199219" xlink:href="#DejaVuSans-55"/>
      </g>
     </g>
    </g>
    <g id="xtick_8">
     <g id="line2d_8">
      <g>
       <use style="stroke:#000000;stroke-width:0.8;" x="671.281196" xlink:href="#mbfead07adb" y="460.8"/>
      </g>
     </g>
     <g id="text_8">
      <!-- 2021-10 -->
      <g transform="translate(626.611411 500.766215)rotate(-30)scale(0.12 -0.12)">
       <use xlink:href="#DejaVuSans-50"/>
       <use x="63.623047" xlink:href="#DejaVuSans-48"/>
       <use x="127.246094" xlink:href="#DejaVuSans-50"/>
       <use x="190.869141" xlink:href="#DejaVuSans-49"/>
       <use x="254.492188" xlink:href="#DejaVuSans-45"/>
       <use x="290.576172" xlink:href="#DejaVuSans-49"/>
       <use x="354.199219" xlink:href="#DejaVuSans-48"/>
      </g>
     </g>
    </g>
    <g id="xtick_9">
     <g id="line2d_9">
      <g>
       <use style="stroke:#000000;stroke-width:0.8;" x="747.997509" xlink:href="#mbfead07adb" y="460.8"/>
      </g>
     </g>
     <g id="text_9">
      <!-- 2022-01 -->
      <g transform="translate(703.327724 500.766215)rotate(-30)scale(0.12 -0.12)">
       <use xlink:href="#DejaVuSans-50"/>
       <use x="63.623047" xlink:href="#DejaVuSans-48"/>
       <use x="127.246094" xlink:href="#DejaVuSans-50"/>
       <use x="190.869141" xlink:href="#DejaVuSans-50"/>
       <use x="254.492188" xlink:href="#DejaVuSans-45"/>
       <use x="290.576172" xlink:href="#DejaVuSans-48"/>
       <use x="354.199219" xlink:href="#DejaVuSans-49"/>
      </g>
     </g>
    </g>
    <g id="text_10">
     <!-- Date -->
     <g transform="translate(424.873828 518.325146)scale(0.15 -0.15)">
      <defs>
       <path d="M 19.671875 64.796875 
L 19.671875 8.109375 
L 31.59375 8.109375 
Q 46.6875 8.109375 53.6875 14.9375 
Q 60.6875 21.78125 60.6875 36.53125 
Q 60.6875 51.171875 53.6875 57.984375 
Q 46.6875 64.796875 31.59375 64.796875 
z
M 9.8125 72.90625 
L 30.078125 72.90625 
Q 51.265625 72.90625 61.171875 64.09375 
Q 71.09375 55.28125 71.09375 36.53125 
Q 71.09375 17.671875 61.125 8.828125 
Q 51.171875 0 30.078125 0 
L 9.8125 0 
z
" id="DejaVuSans-68"/>
       <path d="M 34.28125 27.484375 
Q 23.390625 27.484375 19.1875 25 
Q 14.984375 22.515625 14.984375 16.5 
Q 14.984375 11.71875 18.140625 8.90625 
Q 21.296875 6.109375 26.703125 6.109375 
Q 34.1875 6.109375 38.703125 11.40625 
Q 43.21875 16.703125 43.21875 25.484375 
L 43.21875 27.484375 
z
M 52.203125 31.203125 
L 52.203125 0 
L 43.21875 0 
L 43.21875 8.296875 
Q 40.140625 3.328125 35.546875 0.953125 
Q 30.953125 -1.421875 24.3125 -1.421875 
Q 15.921875 -1.421875 10.953125 3.296875 
Q 6 8.015625 6 15.921875 
Q 6 25.140625 12.171875 29.828125 
Q 18.359375 34.515625 30.609375 34.515625 
L 43.21875 34.515625 
L 43.21875 35.40625 
Q 43.21875 41.609375 39.140625 45 
Q 35.0625 48.390625 27.6875 48.390625 
Q 23 48.390625 18.546875 47.265625 
Q 14.109375 46.140625 10.015625 43.890625 
L 10.015625 52.203125 
Q 14.9375 54.109375 19.578125 55.046875 
Q 24.21875 56 28.609375 56 
Q 40.484375 56 46.34375 49.84375 
Q 52.203125 43.703125 52.203125 31.203125 
z
" id="DejaVuSans-97"/>
       <path d="M 18.3125 70.21875 
L 18.3125 54.6875 
L 36.8125 54.6875 
L 36.8125 47.703125 
L 18.3125 47.703125 
L 18.3125 18.015625 
Q 18.3125 11.328125 20.140625 9.421875 
Q 21.96875 7.515625 27.59375 7.515625 
L 36.8125 7.515625 
L 36.8125 0 
L 27.59375 0 
Q 17.1875 0 13.234375 3.875 
Q 9.28125 7.765625 9.28125 18.015625 
L 9.28125 47.703125 
L 2.6875 47.703125 
L 2.6875 54.6875 
L 9.28125 54.6875 
L 9.28125 70.21875 
z
" id="DejaVuSans-116"/>
       <path d="M 56.203125 29.59375 
L 56.203125 25.203125 
L 14.890625 25.203125 
Q 15.484375 15.921875 20.484375 11.0625 
Q 25.484375 6.203125 34.421875 6.203125 
Q 39.59375 6.203125 44.453125 7.46875 
Q 49.3125 8.734375 54.109375 11.28125 
L 54.109375 2.78125 
Q 49.265625 0.734375 44.1875 -0.34375 
Q 39.109375 -1.421875 33.890625 -1.421875 
Q 20.796875 -1.421875 13.15625 6.1875 
Q 5.515625 13.8125 5.515625 26.8125 
Q 5.515625 40.234375 12.765625 48.109375 
Q 20.015625 56 32.328125 56 
Q 43.359375 56 49.78125 48.890625 
Q 56.203125 41.796875 56.203125 29.59375 
z
M 47.21875 32.234375 
Q 47.125 39.59375 43.09375 43.984375 
Q 39.0625 48.390625 32.421875 48.390625 
Q 24.90625 48.390625 20.390625 44.140625 
Q 15.875 39.890625 15.1875 32.171875 
z
" id="DejaVuSans-101"/>
      </defs>
      <use xlink:href="#DejaVuSans-68"/>
      <use x="77.001953" xlink:href="#DejaVuSans-97"/>
      <use x="138.28125" xlink:href="#DejaVuSans-116"/>
      <use x="177.490234" xlink:href="#DejaVuSans-101"/>
     </g>
    </g>
   </g>
   <g id="matplotlib.axis_2">
    <g id="ytick_1">
     <g id="line2d_10">
      <defs>
       <path d="M 0 0 
L -3.5 0 
" id="m678dbaf723" style="stroke:#000000;stroke-width:0.8;"/>
      </defs>
      <g>
       <use style="stroke:#000000;stroke-width:0.8;" x="108" xlink:href="#m678dbaf723" y="459.158493"/>
      </g>
     </g>
     <g id="text_11">
      <!-- −10 -->
      <g transform="translate(75.674375 463.717555)scale(0.12 -0.12)">
       <defs>
        <path d="M 10.59375 35.5 
L 73.1875 35.5 
L 73.1875 27.203125 
L 10.59375 27.203125 
z
" id="DejaVuSans-8722"/>
       </defs>
       <use xlink:href="#DejaVuSans-8722"/>
       <use x="83.789062" xlink:href="#DejaVuSans-49"/>
       <use x="147.412109" xlink:href="#DejaVuSans-48"/>
      </g>
     </g>
    </g>
    <g id="ytick_2">
     <g id="line2d_11">
      <g>
       <use style="stroke:#000000;stroke-width:0.8;" x="108" xlink:href="#m678dbaf723" y="412.580617"/>
      </g>
     </g>
     <g id="text_12">
      <!-- 0 -->
      <g transform="translate(93.365 417.13968)scale(0.12 -0.12)">
       <use xlink:href="#DejaVuSans-48"/>
      </g>
     </g>
    </g>
    <g id="ytick_3">
     <g id="line2d_12">
      <g>
       <use style="stroke:#000000;stroke-width:0.8;" x="108" xlink:href="#m678dbaf723" y="366.002742"/>
      </g>
     </g>
     <g id="text_13">
      <!-- 10 -->
      <g transform="translate(85.73 370.561804)scale(0.12 -0.12)">
       <use xlink:href="#DejaVuSans-49"/>
       <use x="63.623047" xlink:href="#DejaVuSans-48"/>
      </g>
     </g>
    </g>
    <g id="ytick_4">
     <g id="line2d_13">
      <g>
       <use style="stroke:#000000;stroke-width:0.8;" x="108" xlink:href="#m678dbaf723" y="319.424866"/>
      </g>
     </g>
     <g id="text_14">
      <!-- 20 -->
      <g transform="translate(85.73 323.983928)scale(0.12 -0.12)">
       <use xlink:href="#DejaVuSans-50"/>
       <use x="63.623047" xlink:href="#DejaVuSans-48"/>
      </g>
     </g>
    </g>
    <g id="ytick_5">
     <g id="line2d_14">
      <g>
       <use style="stroke:#000000;stroke-width:0.8;" x="108" xlink:href="#m678dbaf723" y="272.84699"/>
      </g>
     </g>
     <g id="text_15">
      <!-- 30 -->
      <g transform="translate(85.73 277.406053)scale(0.12 -0.12)">
       <defs>
        <path d="M 40.578125 39.3125 
Q 47.65625 37.796875 51.625 33 
Q 55.609375 28.21875 55.609375 21.1875 
Q 55.609375 10.40625 48.1875 4.484375 
Q 40.765625 -1.421875 27.09375 -1.421875 
Q 22.515625 -1.421875 17.65625 -0.515625 
Q 12.796875 0.390625 7.625 2.203125 
L 7.625 11.71875 
Q 11.71875 9.328125 16.59375 8.109375 
Q 21.484375 6.890625 26.8125 6.890625 
Q 36.078125 6.890625 40.9375 10.546875 
Q 45.796875 14.203125 45.796875 21.1875 
Q 45.796875 27.640625 41.28125 31.265625 
Q 36.765625 34.90625 28.71875 34.90625 
L 20.21875 34.90625 
L 20.21875 43.015625 
L 29.109375 43.015625 
Q 36.375 43.015625 40.234375 45.921875 
Q 44.09375 48.828125 44.09375 54.296875 
Q 44.09375 59.90625 40.109375 62.90625 
Q 36.140625 65.921875 28.71875 65.921875 
Q 24.65625 65.921875 20.015625 65.03125 
Q 15.375 64.15625 9.8125 62.3125 
L 9.8125 71.09375 
Q 15.4375 72.65625 20.34375 73.4375 
Q 25.25 74.21875 29.59375 74.21875 
Q 40.828125 74.21875 47.359375 69.109375 
Q 53.90625 64.015625 53.90625 55.328125 
Q 53.90625 49.265625 50.4375 45.09375 
Q 46.96875 40.921875 40.578125 39.3125 
z
" id="DejaVuSans-51"/>
       </defs>
       <use xlink:href="#DejaVuSans-51"/>
       <use x="63.623047" xlink:href="#DejaVuSans-48"/>
      </g>
     </g>
    </g>
    <g id="ytick_6">
     <g id="line2d_15">
      <g>
       <use style="stroke:#000000;stroke-width:0.8;" x="108" xlink:href="#m678dbaf723" y="226.269114"/>
      </g>
     </g>
     <g id="text_16">
      <!-- 40 -->
      <g transform="translate(85.73 230.828177)scale(0.12 -0.12)">
       <use xlink:href="#DejaVuSans-52"/>
       <use x="63.623047" xlink:href="#DejaVuSans-48"/>
      </g>
     </g>
    </g>
    <g id="ytick_7">
     <g id="line2d_16">
      <g>
       <use style="stroke:#000000;stroke-width:0.8;" x="108" xlink:href="#m678dbaf723" y="179.691239"/>
      </g>
     </g>
     <g id="text_17">
      <!-- 50 -->
      <g transform="translate(85.73 184.250301)scale(0.12 -0.12)">
       <defs>
        <path d="M 10.796875 72.90625 
L 49.515625 72.90625 
L 49.515625 64.59375 
L 19.828125 64.59375 
L 19.828125 46.734375 
Q 21.96875 47.46875 24.109375 47.828125 
Q 26.265625 48.1875 28.421875 48.1875 
Q 40.625 48.1875 47.75 41.5 
Q 54.890625 34.8125 54.890625 23.390625 
Q 54.890625 11.625 47.5625 5.09375 
Q 40.234375 -1.421875 26.90625 -1.421875 
Q 22.3125 -1.421875 17.546875 -0.640625 
Q 12.796875 0.140625 7.71875 1.703125 
L 7.71875 11.625 
Q 12.109375 9.234375 16.796875 8.0625 
Q 21.484375 6.890625 26.703125 6.890625 
Q 35.15625 6.890625 40.078125 11.328125 
Q 45.015625 15.765625 45.015625 23.390625 
Q 45.015625 31 40.078125 35.4375 
Q 35.15625 39.890625 26.703125 39.890625 
Q 22.75 39.890625 18.8125 39.015625 
Q 14.890625 38.140625 10.796875 36.28125 
z
" id="DejaVuSans-53"/>
       </defs>
       <use xlink:href="#DejaVuSans-53"/>
       <use x="63.623047" xlink:href="#DejaVuSans-48"/>
      </g>
     </g>
    </g>
    <g id="ytick_8">
     <g id="line2d_17">
      <g>
       <use style="stroke:#000000;stroke-width:0.8;" x="108" xlink:href="#m678dbaf723" y="133.113363"/>
      </g>
     </g>
     <g id="text_18">
      <!-- 60 -->
      <g transform="translate(85.73 137.672426)scale(0.12 -0.12)">
       <defs>
        <path d="M 33.015625 40.375 
Q 26.375 40.375 22.484375 35.828125 
Q 18.609375 31.296875 18.609375 23.390625 
Q 18.609375 15.53125 22.484375 10.953125 
Q 26.375 6.390625 33.015625 6.390625 
Q 39.65625 6.390625 43.53125 10.953125 
Q 47.40625 15.53125 47.40625 23.390625 
Q 47.40625 31.296875 43.53125 35.828125 
Q 39.65625 40.375 33.015625 40.375 
z
M 52.59375 71.296875 
L 52.59375 62.3125 
Q 48.875 64.0625 45.09375 64.984375 
Q 41.3125 65.921875 37.59375 65.921875 
Q 27.828125 65.921875 22.671875 59.328125 
Q 17.53125 52.734375 16.796875 39.40625 
Q 19.671875 43.65625 24.015625 45.921875 
Q 28.375 48.1875 33.59375 48.1875 
Q 44.578125 48.1875 50.953125 41.515625 
Q 57.328125 34.859375 57.328125 23.390625 
Q 57.328125 12.15625 50.6875 5.359375 
Q 44.046875 -1.421875 33.015625 -1.421875 
Q 20.359375 -1.421875 13.671875 8.265625 
Q 6.984375 17.96875 6.984375 36.375 
Q 6.984375 53.65625 15.1875 63.9375 
Q 23.390625 74.21875 37.203125 74.21875 
Q 40.921875 74.21875 44.703125 73.484375 
Q 48.484375 72.75 52.59375 71.296875 
z
" id="DejaVuSans-54"/>
       </defs>
       <use xlink:href="#DejaVuSans-54"/>
       <use x="63.623047" xlink:href="#DejaVuSans-48"/>
      </g>
     </g>
    </g>
    <g id="ytick_9">
     <g id="line2d_18">
      <g>
       <use style="stroke:#000000;stroke-width:0.8;" x="108" xlink:href="#m678dbaf723" y="86.535487"/>
      </g>
     </g>
     <g id="text_19">
      <!-- 70 -->
      <g transform="translate(85.73 91.09455)scale(0.12 -0.12)">
       <use xlink:href="#DejaVuSans-55"/>
       <use x="63.623047" xlink:href="#DejaVuSans-48"/>
      </g>
     </g>
    </g>
    <g id="text_20">
     <!-- PM25(micro-gram/m3) -->
     <g transform="translate(68.554844 349.562344)rotate(-90)scale(0.15 -0.15)">
      <defs>
       <path d="M 19.671875 64.796875 
L 19.671875 37.40625 
L 32.078125 37.40625 
Q 38.96875 37.40625 42.71875 40.96875 
Q 46.484375 44.53125 46.484375 51.125 
Q 46.484375 57.671875 42.71875 61.234375 
Q 38.96875 64.796875 32.078125 64.796875 
z
M 9.8125 72.90625 
L 32.078125 72.90625 
Q 44.34375 72.90625 50.609375 67.359375 
Q 56.890625 61.8125 56.890625 51.125 
Q 56.890625 40.328125 50.609375 34.8125 
Q 44.34375 29.296875 32.078125 29.296875 
L 19.671875 29.296875 
L 19.671875 0 
L 9.8125 0 
z
" id="DejaVuSans-80"/>
       <path d="M 9.8125 72.90625 
L 24.515625 72.90625 
L 43.109375 23.296875 
L 61.8125 72.90625 
L 76.515625 72.90625 
L 76.515625 0 
L 66.890625 0 
L 66.890625 64.015625 
L 48.09375 14.015625 
L 38.1875 14.015625 
L 19.390625 64.015625 
L 19.390625 0 
L 9.8125 0 
z
" id="DejaVuSans-77"/>
       <path d="M 31 75.875 
Q 24.46875 64.65625 21.28125 53.65625 
Q 18.109375 42.671875 18.109375 31.390625 
Q 18.109375 20.125 21.3125 9.0625 
Q 24.515625 -2 31 -13.1875 
L 23.1875 -13.1875 
Q 15.875 -1.703125 12.234375 9.375 
Q 8.59375 20.453125 8.59375 31.390625 
Q 8.59375 42.28125 12.203125 53.3125 
Q 15.828125 64.359375 23.1875 75.875 
z
" id="DejaVuSans-40"/>
       <path d="M 52 44.1875 
Q 55.375 50.25 60.0625 53.125 
Q 64.75 56 71.09375 56 
Q 79.640625 56 84.28125 50.015625 
Q 88.921875 44.046875 88.921875 33.015625 
L 88.921875 0 
L 79.890625 0 
L 79.890625 32.71875 
Q 79.890625 40.578125 77.09375 44.375 
Q 74.3125 48.1875 68.609375 48.1875 
Q 61.625 48.1875 57.5625 43.546875 
Q 53.515625 38.921875 53.515625 30.90625 
L 53.515625 0 
L 44.484375 0 
L 44.484375 32.71875 
Q 44.484375 40.625 41.703125 44.40625 
Q 38.921875 48.1875 33.109375 48.1875 
Q 26.21875 48.1875 22.15625 43.53125 
Q 18.109375 38.875 18.109375 30.90625 
L 18.109375 0 
L 9.078125 0 
L 9.078125 54.6875 
L 18.109375 54.6875 
L 18.109375 46.1875 
Q 21.1875 51.21875 25.484375 53.609375 
Q 29.78125 56 35.6875 56 
Q 41.65625 56 45.828125 52.96875 
Q 50 49.953125 52 44.1875 
z
" id="DejaVuSans-109"/>
       <path d="M 9.421875 54.6875 
L 18.40625 54.6875 
L 18.40625 0 
L 9.421875 0 
z
M 9.421875 75.984375 
L 18.40625 75.984375 
L 18.40625 64.59375 
L 9.421875 64.59375 
z
" id="DejaVuSans-105"/>
       <path d="M 48.78125 52.59375 
L 48.78125 44.1875 
Q 44.96875 46.296875 41.140625 47.34375 
Q 37.3125 48.390625 33.40625 48.390625 
Q 24.65625 48.390625 19.8125 42.84375 
Q 14.984375 37.3125 14.984375 27.296875 
Q 14.984375 17.28125 19.8125 11.734375 
Q 24.65625 6.203125 33.40625 6.203125 
Q 37.3125 6.203125 41.140625 7.25 
Q 44.96875 8.296875 48.78125 10.40625 
L 48.78125 2.09375 
Q 45.015625 0.34375 40.984375 -0.53125 
Q 36.96875 -1.421875 32.421875 -1.421875 
Q 20.0625 -1.421875 12.78125 6.34375 
Q 5.515625 14.109375 5.515625 27.296875 
Q 5.515625 40.671875 12.859375 48.328125 
Q 20.21875 56 33.015625 56 
Q 37.15625 56 41.109375 55.140625 
Q 45.0625 54.296875 48.78125 52.59375 
z
" id="DejaVuSans-99"/>
       <path d="M 41.109375 46.296875 
Q 39.59375 47.171875 37.8125 47.578125 
Q 36.03125 48 33.890625 48 
Q 26.265625 48 22.1875 43.046875 
Q 18.109375 38.09375 18.109375 28.8125 
L 18.109375 0 
L 9.078125 0 
L 9.078125 54.6875 
L 18.109375 54.6875 
L 18.109375 46.1875 
Q 20.953125 51.171875 25.484375 53.578125 
Q 30.03125 56 36.53125 56 
Q 37.453125 56 38.578125 55.875 
Q 39.703125 55.765625 41.0625 55.515625 
z
" id="DejaVuSans-114"/>
       <path d="M 30.609375 48.390625 
Q 23.390625 48.390625 19.1875 42.75 
Q 14.984375 37.109375 14.984375 27.296875 
Q 14.984375 17.484375 19.15625 11.84375 
Q 23.34375 6.203125 30.609375 6.203125 
Q 37.796875 6.203125 41.984375 11.859375 
Q 46.1875 17.53125 46.1875 27.296875 
Q 46.1875 37.015625 41.984375 42.703125 
Q 37.796875 48.390625 30.609375 48.390625 
z
M 30.609375 56 
Q 42.328125 56 49.015625 48.375 
Q 55.71875 40.765625 55.71875 27.296875 
Q 55.71875 13.875 49.015625 6.21875 
Q 42.328125 -1.421875 30.609375 -1.421875 
Q 18.84375 -1.421875 12.171875 6.21875 
Q 5.515625 13.875 5.515625 27.296875 
Q 5.515625 40.765625 12.171875 48.375 
Q 18.84375 56 30.609375 56 
z
" id="DejaVuSans-111"/>
       <path d="M 45.40625 27.984375 
Q 45.40625 37.75 41.375 43.109375 
Q 37.359375 48.484375 30.078125 48.484375 
Q 22.859375 48.484375 18.828125 43.109375 
Q 14.796875 37.75 14.796875 27.984375 
Q 14.796875 18.265625 18.828125 12.890625 
Q 22.859375 7.515625 30.078125 7.515625 
Q 37.359375 7.515625 41.375 12.890625 
Q 45.40625 18.265625 45.40625 27.984375 
z
M 54.390625 6.78125 
Q 54.390625 -7.171875 48.1875 -13.984375 
Q 42 -20.796875 29.203125 -20.796875 
Q 24.46875 -20.796875 20.265625 -20.09375 
Q 16.0625 -19.390625 12.109375 -17.921875 
L 12.109375 -9.1875 
Q 16.0625 -11.328125 19.921875 -12.34375 
Q 23.78125 -13.375 27.78125 -13.375 
Q 36.625 -13.375 41.015625 -8.765625 
Q 45.40625 -4.15625 45.40625 5.171875 
L 45.40625 9.625 
Q 42.625 4.78125 38.28125 2.390625 
Q 33.9375 0 27.875 0 
Q 17.828125 0 11.671875 7.65625 
Q 5.515625 15.328125 5.515625 27.984375 
Q 5.515625 40.671875 11.671875 48.328125 
Q 17.828125 56 27.875 56 
Q 33.9375 56 38.28125 53.609375 
Q 42.625 51.21875 45.40625 46.390625 
L 45.40625 54.6875 
L 54.390625 54.6875 
z
" id="DejaVuSans-103"/>
       <path d="M 25.390625 72.90625 
L 33.6875 72.90625 
L 8.296875 -9.28125 
L 0 -9.28125 
z
" id="DejaVuSans-47"/>
       <path d="M 8.015625 75.875 
L 15.828125 75.875 
Q 23.140625 64.359375 26.78125 53.3125 
Q 30.421875 42.28125 30.421875 31.390625 
Q 30.421875 20.453125 26.78125 9.375 
Q 23.140625 -1.703125 15.828125 -13.1875 
L 8.015625 -13.1875 
Q 14.5 -2 17.703125 9.0625 
Q 20.90625 20.125 20.90625 31.390625 
Q 20.90625 42.671875 17.703125 53.65625 
Q 14.5 64.65625 8.015625 75.875 
z
" id="DejaVuSans-41"/>
      </defs>
      <use xlink:href="#DejaVuSans-80"/>
      <use x="60.302734" xlink:href="#DejaVuSans-77"/>
      <use x="146.582031" xlink:href="#DejaVuSans-50"/>
      <use x="210.205078" xlink:href="#DejaVuSans-53"/>
      <use x="273.828125" xlink:href="#DejaVuSans-40"/>
      <use x="312.841797" xlink:href="#DejaVuSans-109"/>
      <use x="410.253906" xlink:href="#DejaVuSans-105"/>
      <use x="438.037109" xlink:href="#DejaVuSans-99"/>
      <use x="493.017578" xlink:href="#DejaVuSans-114"/>
      <use x="531.880859" xlink:href="#DejaVuSans-111"/>
      <use x="594.9375" xlink:href="#DejaVuSans-45"/>
      <use x="631.021484" xlink:href="#DejaVuSans-103"/>
      <use x="694.498047" xlink:href="#DejaVuSans-114"/>
      <use x="735.611328" xlink:href="#DejaVuSans-97"/>
      <use x="796.890625" xlink:href="#DejaVuSans-109"/>
      <use x="894.302734" xlink:href="#DejaVuSans-47"/>
      <use x="927.994141" xlink:href="#DejaVuSans-109"/>
      <use x="1025.40625" xlink:href="#DejaVuSans-51"/>
      <use x="1089.029297" xlink:href="#DejaVuSans-41"/>
     </g>
    </g>
   </g>
   <g id="line2d_19">
    <path clip-path="url(#p4cca4d2aa4)" d="M 138.436364 286.238129 
L 139.270237 277.29306 
L 140.10411 249.169903 
L 140.937983 226.07504 
L 141.771856 310.49744 
L 142.605729 329.904888 
L 143.439601 300.793716 
L 144.273474 305.839652 
L 145.107347 307.974471 
L 145.94122 280.027746 
L 146.775093 247.811382 
L 147.608966 304.287056 
L 148.442839 285.073683 
L 149.276712 282.35664 
L 150.110585 272.423555 
L 150.944458 257.709181 
L 151.778331 306.033727 
L 152.612204 303.316684 
L 153.446077 246.258786 
L 154.27995 285.073683 
L 155.113823 253.633616 
L 155.947696 257.321032 
L 157.615442 313.214482 
L 158.449315 326.993771 
L 159.283188 359.210135 
L 160.117061 372.213125 
L 160.950934 358.433837 
L 161.784807 310.885589 
L 162.61868 294.001109 
L 163.452553 273.905578 
L 164.286426 293.418885 
L 165.120299 291.089992 
L 165.954172 282.162565 
L 166.788045 328.352292 
L 167.621918 351.817661 
L 168.455791 333.204154 
L 169.289664 299.24112 
L 170.123537 369.496082 
L 170.95741 342.325655 
L 171.791283 311.467812 
L 172.625156 273.623288 
L 173.459029 259.649925 
L 174.292902 337.667867 
L 175.126775 348.730113 
L 175.960648 334.562675 
L 176.794521 393.367244 
L 177.628394 356.493092 
L 178.462267 359.522341 
L 179.296139 334.75675 
L 180.130012 329.12859 
L 180.963885 335.144899 
L 181.797758 263.337341 
L 182.631631 313.408557 
L 183.465504 306.61595 
L 184.299377 306.61595 
L 185.13325 313.496773 
L 185.967123 340.38491 
L 186.800996 328.296842 
L 187.634869 326.023398 
L 188.468742 304.481131 
L 189.302615 324.082653 
L 190.136488 332.621931 
L 190.970361 352.839429 
L 191.804234 366.196816 
L 192.638107 317.290047 
L 193.47198 276.72848 
L 194.305853 316.1256 
L 195.139726 342.325655 
L 195.973599 341.743431 
L 196.807472 318.454493 
L 197.641345 274.981809 
L 198.475218 195.023123 
L 199.309091 329.710813 
L 200.142964 250.722499 
L 200.976837 295.165556 
L 201.81071 291.275628 
L 202.644583 276.146256 
L 203.478456 300.98779 
L 204.312329 220.835029 
L 205.146202 259.844 
L 205.980075 277.698852 
L 206.813948 308.944844 
L 207.647821 301.198741 
L 208.481694 331.069335 
L 209.315567 306.033727 
L 210.14944 320.589313 
L 210.983313 321.947834 
L 211.817186 365.032369 
L 212.651059 340.578984 
L 213.484932 322.918207 
L 214.318804 326.411547 
L 215.152677 327.770069 
L 216.820423 332.816005 
L 217.654296 356.299017 
L 218.488169 345.430846 
L 219.322042 315.402231 
L 220.155915 301.764088 
L 220.989788 329.12859 
L 221.823661 323.50043 
L 222.657534 288.567023 
L 223.491407 358.045688 
L 224.32528 324.858951 
L 225.159153 299.435194 
L 225.993026 241.21285 
L 226.826899 300.405567 
L 227.660772 332.427856 
L 228.494645 305.063354 
L 230.162391 355.674604 
L 230.996264 357.657539 
L 231.830137 370.466455 
L 232.66401 339.220463 
L 233.497883 300.599641 
L 234.331756 250.916574 
L 235.165629 86.923636 
L 235.999502 167.658621 
L 236.833375 306.810025 
L 237.667248 316.513749 
L 238.501121 308.750769 
L 239.334994 343.296027 
L 240.168867 349.118262 
L 241.00274 360.762731 
L 241.836613 367.943486 
L 242.670486 378.558517 
L 243.504359 373.765721 
L 244.338232 378.811657 
L 245.172105 385.41019 
L 246.005978 383.857594 
L 246.839851 380.752402 
L 247.673724 353.776049 
L 248.507597 280.609969 
L 249.341469 243.153594 
L 250.175342 327.575994 
L 251.009215 352.417528 
L 251.843088 369.884231 
L 252.676961 373.959795 
L 253.510834 365.226444 
L 254.344707 363.091624 
L 255.17858 366.002742 
L 256.012453 355.328645 
L 256.846326 330.293037 
L 257.680199 379.976104 
L 258.514072 379.199806 
L 259.347945 372.601274 
L 260.181818 346.789368 
L 261.015691 278.47515 
L 261.849564 295.165556 
L 262.683437 353.581975 
L 263.51731 375.512391 
L 264.351183 382.811279 
L 265.185056 380.558328 
L 266.018929 383.823842 
L 266.852802 384.827966 
L 267.686675 381.393692 
L 268.520548 382.304998 
L 269.354421 354.746422 
L 270.188294 361.539028 
L 271.022167 365.808667 
L 271.85604 366.973114 
L 272.689913 378.035359 
L 273.523786 391.316804 
L 274.357659 386.962786 
L 275.191532 378.811657 
L 276.025405 392.979095 
L 276.859278 381.916849 
L 277.693151 391.197138 
L 278.527024 383.27537 
L 279.360897 385.604264 
L 280.19477 384.827966 
L 281.862516 396.278361 
L 282.696389 387.545009 
L 283.530262 385.443942 
L 284.364134 379.78203 
L 285.198007 383.663519 
L 286.03188 386.380562 
L 286.865753 386.768711 
L 287.699626 389.485754 
L 288.533499 389.679828 
L 289.367372 388.709456 
L 290.201245 397.054659 
L 291.035118 392.329367 
L 291.868991 380.558328 
L 292.702864 379.78203 
L 293.536737 384.633892 
L 294.37061 384.633892 
L 295.204483 385.022041 
L 296.038356 377.259062 
L 296.872229 374.736093 
L 297.706102 379.005732 
L 298.539975 373.959795 
L 299.373848 387.933158 
L 300.207721 377.841285 
L 301.041594 379.78203 
L 301.875467 377.453136 
L 302.70934 392.329367 
L 303.543213 392.979095 
L 304.377086 395.890212 
L 305.210959 395.113914 
L 306.044832 390.709267 
L 306.878705 383.857594 
L 307.712578 390.650201 
L 308.546451 390.456126 
L 309.380324 385.41019 
L 310.214197 386.768711 
L 311.04807 392.202797 
L 311.881943 390.650201 
L 312.715816 392.590946 
L 313.549689 386.380562 
L 315.217435 397.442808 
L 316.051308 399.716252 
L 316.885181 402.377845 
L 317.719054 398.801329 
L 318.552927 396.084286 
L 319.3868 391.232424 
L 320.220672 390.456126 
L 321.888418 390.844275 
L 322.722291 393.561318 
L 323.556164 388.90353 
L 325.22391 386.861529 
L 326.057783 378.617583 
L 326.891656 376.330879 
L 327.725529 389.097605 
L 328.559402 379.005732 
L 329.393275 375.512391 
L 330.227148 360.374582 
L 331.061021 390.844275 
L 331.894894 380.558328 
L 332.728767 301.764088 
L 333.56264 290.119619 
L 334.396513 350.670857 
L 335.230386 349.700485 
L 336.064259 361.539028 
L 336.898132 366.196816 
L 337.732005 335.018329 
L 338.565878 288.761098 
L 339.399751 288.761098 
L 340.233624 282.938863 
L 341.067497 325.053026 
L 343.569116 228.792083 
L 344.402989 313.602631 
L 345.236862 347.583309 
L 346.070735 350.476783 
L 346.904608 384.051668 
L 347.738481 388.90353 
L 348.572354 382.499073 
L 349.406227 379.78203 
L 350.2401 385.604264 
L 351.073973 367.555337 
L 351.907846 352.417528 
L 352.741719 368.137561 
L 353.575592 392.78502 
L 354.409465 400.742074 
L 355.243337 387.671579 
L 356.07721 395.307988 
L 356.911083 393.367244 
L 357.744956 399.965776 
L 358.578829 396.66651 
L 359.412702 369.496082 
L 360.246575 369.445454 
L 361.080448 323.888579 
L 361.914321 318.007278 
L 363.582067 358.821986 
L 364.41594 338.832314 
L 365.249813 374.542019 
L 366.083686 376.482764 
L 366.917559 348.730113 
L 367.751432 336.115271 
L 368.585305 341.743431 
L 369.419178 317.290047 
L 370.253051 327.770069 
L 371.086924 311.273738 
L 371.920797 329.145466 
L 372.75467 324.082653 
L 373.588543 283.132938 
L 374.422416 257.515106 
L 375.256289 282.550714 
L 376.090162 281.192193 
L 376.924035 372.019051 
L 377.757908 349.589585 
L 378.591781 349.506411 
L 379.425654 312.050036 
L 380.259527 298.852971 
L 381.0934 309.527067 
L 381.927273 314.767078 
L 382.761146 301.603766 
L 383.595019 292.254438 
L 384.428892 299.629269 
L 385.262765 292.642587 
L 386.096638 275.758107 
L 386.930511 273.429214 
L 387.764384 314.767078 
L 388.598257 320.201164 
L 389.43213 314.961153 
L 390.266002 269.159575 
L 391.099875 241.958504 
L 391.933748 298.464822 
L 392.767621 280.415895 
L 393.601494 205.503145 
L 394.435367 271.294394 
L 395.26924 246.258786 
L 396.103113 320.437428 
L 396.936986 202.980177 
L 397.770859 225.880966 
L 398.604732 224.522444 
L 399.438605 255.96251 
L 400.272478 244.900265 
L 401.106351 287.790725 
L 401.940224 300.98779 
L 402.774097 294.971481 
L 403.60797 287.402576 
L 404.441843 284.879608 
L 405.275716 295.747779 
L 406.109589 355.328645 
L 406.943462 352.231891 
L 407.777335 350.088634 
L 408.611208 340.578984 
L 409.445081 340.578984 
L 410.278954 334.562675 
L 411.112827 301.570014 
L 411.9467 248.58768 
L 412.780573 283.521087 
L 413.614446 256.350659 
L 414.448319 287.208502 
L 416.116065 316.1256 
L 416.949938 310.996488 
L 417.783811 275.952182 
L 418.617684 273.429214 
L 419.451557 277.70729 
L 420.28543 277.892927 
L 421.119303 236.166913 
L 421.953176 175.809749 
L 422.787049 151.744513 
L 423.620922 211.713528 
L 424.454795 178.332717 
L 425.288667 183.960877 
L 426.12254 196.18757 
L 426.956413 163.085214 
L 427.790286 296.871368 
L 428.624159 274.205512 
L 429.458032 339.220463 
L 430.291905 299.781153 
L 431.125778 289.73147 
L 431.959651 291.47814 
L 432.793524 269.547724 
L 433.627397 223.357997 
L 434.46127 169.017142 
L 435.295143 165.523802 
L 436.129016 166.106025 
L 436.962889 244.900265 
L 437.796762 223.940221 
L 438.630635 306.61595 
L 439.464508 202.786102 
L 440.298381 276.534405 
L 441.132254 259.278652 
L 441.966127 335.338973 
L 442.8 316.319674 
L 443.633873 315.28461 
L 444.467746 299.823343 
L 445.301619 244.123967 
L 446.135492 236.166913 
L 446.969365 172.122334 
L 447.803238 233.643945 
L 448.637111 169.599366 
L 449.470984 259.455851 
L 450.304857 322.141909 
L 451.13873 295.747779 
L 451.972603 288.955172 
L 452.806476 246.064712 
L 453.640349 233.061721 
L 454.474222 189.006814 
L 455.308095 227.627636 
L 456.141968 253.439542 
L 456.975841 155.626003 
L 458.643587 243.206524 
L 459.47746 302.928535 
L 460.311333 203.174251 
L 461.145205 203.756475 
L 461.979078 176.93891 
L 462.812951 203.5624 
L 463.646824 276.72848 
L 464.480697 181.243835 
L 465.31457 224.910593 
L 466.148443 211.890727 
L 466.982316 318.454493 
L 467.816189 287.208502 
L 468.650062 339.026389 
L 469.483935 337.279718 
L 470.317808 277.698852 
L 471.151681 296.718151 
L 471.985554 312.826333 
L 472.819427 320.395238 
L 473.6533 283.521087 
L 474.487173 276.340331 
L 476.154919 298.768591 
L 476.988792 376.870913 
L 478.656538 315.155227 
L 480.324284 302.928535 
L 481.158157 276.922554 
L 481.99203 304.092982 
L 482.825903 315.931525 
L 483.659776 285.84998 
L 484.493649 302.928535 
L 486.161395 264.113638 
L 486.995268 271.488469 
L 487.829141 291.089992 
L 488.663014 323.112281 
L 489.496887 345.548979 
L 490.33076 339.414538 
L 491.164633 293.807034 
L 491.998506 325.053026 
L 492.832379 322.918207 
L 493.666252 336.115271 
L 494.500125 331.069335 
L 495.333998 270.712171 
L 496.16787 235.972839 
L 497.001743 294.777407 
L 497.835616 305.257429 
L 498.669489 346.789368 
L 499.503362 296.135928 
L 500.337235 311.661887 
L 501.171108 344.460474 
L 502.004981 288.567023 
L 502.838854 307.780397 
L 503.672727 284.491459 
L 504.5066 322.530058 
L 505.340473 301.570014 
L 506.174346 309.915216 
L 507.842092 349.506411 
L 508.675965 337.667867 
L 509.509838 306.227801 
L 510.343711 291.284066 
L 511.177584 253.051393 
L 512.011457 165.920389 
L 512.84533 207.249815 
L 513.679203 345.430846 
L 514.513076 316.901898 
L 515.346949 319.813015 
L 516.180822 364.450146 
L 517.014695 368.52571 
L 519.516314 354.358273 
L 520.350187 356.881241 
L 521.18406 272.84699 
L 522.017933 293.807034 
L 522.851806 265.278085 
L 523.685679 332.588179 
L 525.353425 323.306356 
L 526.187298 329.12859 
L 527.021171 347.75974 
L 527.855044 355.134571 
L 528.688917 359.01606 
L 529.52279 349.89456 
L 530.356663 358.045688 
L 531.190535 343.684176 
L 532.024408 304.481131 
L 532.858281 253.439542 
L 533.692154 298.363566 
L 534.526027 332.427856 
L 535.3599 325.2471 
L 536.193773 319.61894 
L 537.027646 307.392248 
L 537.861519 345.818995 
L 538.695392 339.996761 
L 539.529265 361.539028 
L 540.363138 372.989423 
L 541.197011 341.161208 
L 542.030884 325.2471 
L 542.864757 316.707823 
L 543.69863 313.020408 
L 544.532503 329.322664 
L 545.366376 349.118262 
L 546.200249 353.851991 
L 547.034122 290.313694 
L 547.867995 323.677628 
L 548.701868 336.891569 
L 549.535741 346.401219 
L 550.369614 363.479773 
L 551.203487 384.633892 
L 552.03736 378.811657 
L 552.871233 361.344954 
L 553.705106 354.358273 
L 555.372852 362.703475 
L 556.206725 374.736093 
L 557.040598 374.15387 
L 557.874471 368.719784 
L 558.708344 370.27238 
L 559.542217 374.894881 
L 560.37609 390.506754 
L 561.209963 383.469445 
L 562.043836 398.607255 
L 562.877709 386.186488 
L 563.711582 389.679828 
L 564.545455 385.798339 
L 565.379328 395.307988 
L 566.2132 390.456126 
L 567.047073 389.679828 
L 568.714819 363.673848 
L 569.548692 378.423508 
L 570.382565 371.824976 
L 571.216438 372.888167 
L 572.050311 351.059006 
L 573.718057 267.21883 
L 574.55193 351.059006 
L 575.385803 355.716794 
L 576.219676 389.679828 
L 577.053549 394.337616 
L 577.887422 392.008722 
L 578.721295 394.919839 
L 579.555168 392.396871 
L 580.389041 379.199806 
L 581.222914 375.90054 
L 582.056787 362.315326 
L 582.89066 364.450146 
L 583.724533 370.255504 
L 584.558406 360.762731 
L 585.392279 349.89456 
L 586.226152 348.536038 
L 587.060025 368.52571 
L 587.893898 373.959795 
L 588.727771 380.170179 
L 589.561644 369.601941 
L 590.395517 354.552347 
L 591.22939 355.52272 
L 592.063263 355.134571 
L 592.897136 347.565666 
L 593.731009 352.223453 
L 594.564882 358.509779 
L 595.398755 346.789368 
L 596.232628 354.164198 
L 597.066501 367.749412 
L 597.900374 390.650201 
L 598.734247 398.995404 
L 599.56812 389.679828 
L 600.401993 388.709456 
L 601.235866 368.913859 
L 602.069738 393.561318 
L 602.903611 396.472435 
L 603.737484 391.426499 
L 604.571357 383.663519 
L 605.40523 386.574637 
L 606.239103 392.734392 
L 607.072976 380.364253 
L 607.906849 361.344954 
L 608.740722 390.844275 
L 609.574595 405.205787 
L 611.242341 390.067977 
L 612.076214 366.584965 
L 612.910087 332.233782 
L 613.74396 286.820353 
L 615.411706 357.075315 
L 616.245579 276.146256 
L 617.079452 324.858951 
L 617.913325 359.117316 
L 618.747198 377.453136 
L 619.581071 361.733103 
L 620.414944 365.614593 
L 621.248817 341.937506 
L 622.08269 384.827966 
L 622.916563 317.484121 
L 623.750436 320.783387 
L 625.418182 324.082653 
L 626.252055 345.042698 
L 627.085928 352.805677 
L 627.919801 354.552347 
L 628.753674 370.27238 
L 629.587547 378.963542 
L 630.42142 370.466455 
L 631.255293 373.377572 
L 632.089166 385.41019 
L 632.923039 384.633892 
L 633.756912 370.660529 
L 634.590785 374.347944 
L 635.424658 371.242753 
L 636.258531 382.693147 
L 637.092403 376.094615 
L 637.926276 387.545009 
L 638.760149 387.933158 
L 639.594022 390.067977 
L 640.427895 392.590946 
L 641.261768 389.494192 
L 642.095641 388.127233 
L 642.929514 381.787466 
L 643.763387 376.676838 
L 644.59726 381.140551 
L 645.431133 353.581975 
L 646.265006 390.262052 
L 647.098879 398.025031 
L 648.766625 398.41318 
L 649.600498 399.383552 
L 650.434371 383.857594 
L 651.268244 374.894881 
L 652.102117 385.604264 
L 652.93599 337.279718 
L 653.769863 358.045688 
L 654.603736 359.404209 
L 655.437609 311.855961 
L 656.271482 338.056016 
L 657.105355 376.288689 
L 657.939228 359.792358 
L 658.773101 356.299017 
L 659.606974 318.454493 
L 660.440847 321.75376 
L 661.27472 392.78502 
L 662.108593 387.933158 
L 662.942466 376.482764 
L 663.776339 396.084286 
L 664.610212 395.974592 
L 665.444085 384.051668 
L 667.111831 332.427856 
L 668.779577 289.73147 
L 669.61345 280.998118 
L 670.447323 261.784745 
L 671.281196 269.159575 
L 672.115068 335.921197 
L 672.948941 363.885565 
L 673.782814 346.595293 
L 674.616687 352.029379 
L 675.45056 339.220463 
L 676.284433 366.973114 
L 677.118306 404.480117 
L 677.952179 396.278361 
L 678.786052 383.081296 
L 679.619925 310.49744 
L 680.453798 359.792358 
L 681.287671 387.350935 
L 682.121544 364.256071 
L 682.955417 327.187845 
L 684.623163 369.496082 
L 685.457036 318.066345 
L 686.290909 306.116901 
L 687.124782 350.088634 
L 687.958655 371.470579 
L 688.792528 365.420518 
L 689.626401 310.885589 
L 690.460274 348.536038 
L 691.294147 329.710813 
L 692.12802 269.935873 
L 692.961893 300.017418 
L 693.795766 299.047045 
L 694.629639 293.61296 
L 695.463512 264.113638 
L 696.297385 281.580342 
L 697.131258 277.116629 
L 697.965131 331.457484 
L 698.799004 295.35963 
L 699.632877 320.755662 
L 700.46675 333.204154 
L 701.300623 350.476783 
L 702.134496 362.315326 
L 702.968369 372.019051 
L 703.802242 346.725323 
L 704.636115 345.331868 
L 705.469988 327.575994 
L 706.303861 300.793716 
L 707.137733 298.464822 
L 707.971606 308.556695 
L 708.805479 300.793716 
L 709.639352 241.862577 
L 710.473225 220.252806 
L 711.307098 294.389258 
L 712.140971 241.600999 
L 712.974844 324.082653 
L 713.808717 330.293037 
L 714.64259 348.341964 
L 715.476463 293.030736 
L 716.310336 272.070692 
L 717.144209 236.943211 
L 717.978082 268.577352 
L 718.811955 280.027746 
L 719.645828 253.633616 
L 720.479701 256.544734 
L 721.313574 250.140276 
L 722.147447 315.737451 
L 722.98132 317.095972 
L 723.815193 327.187845 
L 724.649066 326.605622 
L 725.482939 275.175884 
L 726.316812 277.698852 
L 727.150685 275.564033 
L 727.984558 315.349302 
L 728.818431 283.715161 
L 730.486177 310.109291 
L 732.153923 122.827416 
L 733.821669 279.057374 
L 734.655542 314.184855 
L 735.489415 310.109291 
L 736.323288 219.670582 
L 737.157161 249.752127 
L 737.991034 294.583332 
L 738.824907 363.285699 
L 739.65878 299.24112 
L 740.492653 274.593661 
L 741.326526 110.406649 
L 742.160399 227.82171 
L 742.994271 253.245467 
L 743.828144 303.510758 
L 745.49589 190.55941 
L 746.329763 265.759053 
L 747.163636 255.96251 
L 747.163636 255.96251 
" style="fill:none;stroke:#1f77b4;stroke-linecap:square;stroke-width:1.5;"/>
   </g>
   <g id="line2d_20">
    <path clip-path="url(#p4cca4d2aa4)" d="M 138.436364 259.920194 
L 139.270237 298.312623 
L 140.10411 231.108907 
L 140.937983 249.215338 
L 141.771856 289.845518 
L 142.605729 321.74058 
L 143.439601 306.113466 
L 144.273474 287.781225 
L 145.107347 333.35885 
L 145.94122 283.727315 
L 146.775093 264.933545 
L 147.608966 275.637942 
L 148.442839 267.248708 
L 149.276712 284.466368 
L 150.110585 282.259142 
L 150.944458 257.358069 
L 151.778331 297.419198 
L 152.612204 305.770363 
L 153.446077 237.31738 
L 154.27995 304.699734 
L 155.113823 229.021918 
L 155.947696 275.101053 
L 156.781569 279.361126 
L 157.615442 314.077655 
L 158.449315 339.773323 
L 159.283188 316.194744 
L 160.117061 353.833726 
L 161.784807 305.632341 
L 162.61868 266.301062 
L 163.452553 241.574439 
L 164.286426 285.319817 
L 165.120299 286.38163 
L 165.954172 297.845286 
L 166.788045 290.727543 
L 167.621918 337.55157 
L 168.455791 330.270685 
L 169.289664 296.541167 
L 170.123537 364.727076 
L 170.95741 338.319001 
L 171.791283 307.039446 
L 172.625156 267.172137 
L 173.459029 258.00063 
L 174.292902 329.522538 
L 175.126775 351.03867 
L 175.960648 321.38019 
L 176.794521 378.41557 
L 177.628394 319.177572 
L 178.462267 323.974127 
L 179.296139 306.647652 
L 180.130012 325.578848 
L 180.963885 332.012123 
L 181.797758 273.374467 
L 182.631631 323.560757 
L 183.465504 297.839758 
L 184.299377 310.435925 
L 185.13325 299.789084 
L 185.967123 348.368746 
L 186.800996 325.946952 
L 187.634869 325.39158 
L 188.468742 301.606015 
L 189.302615 323.182776 
L 190.136488 315.292027 
L 190.970361 345.277425 
L 191.804234 358.284711 
L 192.638107 316.619574 
L 193.47198 293.614168 
L 194.305853 287.796559 
L 195.139726 359.281375 
L 195.973599 339.477705 
L 196.807472 287.453863 
L 197.641345 304.538098 
L 198.475218 209.506015 
L 199.309091 331.748174 
L 200.142964 234.786888 
L 200.976837 301.074408 
L 201.81071 295.401062 
L 202.644583 267.999995 
L 203.478456 289.773949 
L 204.312329 255.185504 
L 205.146202 269.980353 
L 205.980075 258.197242 
L 206.813948 313.333303 
L 207.647821 290.256933 
L 208.481694 340.445585 
L 209.315567 311.322264 
L 210.14944 309.601184 
L 211.817186 357.75254 
L 212.651059 337.022084 
L 213.484932 311.6165 
L 214.318804 341.883743 
L 215.152677 299.975639 
L 215.98655 332.091969 
L 216.820423 359.194061 
L 217.654296 341.22296 
L 218.488169 328.115471 
L 219.322042 351.561694 
L 220.155915 263.053223 
L 220.989788 335.324008 
L 221.823661 326.06203 
L 222.657534 331.840137 
L 223.491407 328.589301 
L 224.32528 296.548404 
L 225.159153 300.355136 
L 225.993026 228.347156 
L 226.826899 304.255048 
L 227.660772 330.099053 
L 228.494645 308.7897 
L 229.328518 324.916199 
L 230.162391 357.826065 
L 230.996264 365.82229 
L 231.830137 360.847161 
L 232.66401 377.132387 
L 233.497883 311.214848 
L 234.331756 256.358604 
L 235.165629 131.039283 
L 235.999502 129.702011 
L 236.833375 312.205799 
L 237.667248 302.8013 
L 238.501121 295.01299 
L 239.334994 335.152525 
L 240.168867 344.158146 
L 241.00274 359.710382 
L 241.836613 361.509838 
L 242.670486 374.796235 
L 243.504359 368.809751 
L 244.338232 381.283126 
L 245.172105 381.599249 
L 246.005978 384.950215 
L 246.839851 383.293326 
L 247.673724 346.413968 
L 248.507597 353.34513 
L 249.341469 205.328919 
L 250.175342 330.597565 
L 251.009215 339.906393 
L 251.843088 371.674692 
L 252.676961 369.250642 
L 253.510834 362.129668 
L 254.344707 358.311674 
L 255.17858 366.2796 
L 256.012453 376.254174 
L 256.846326 363.602851 
L 257.680199 353.488547 
L 259.347945 380.738294 
L 260.181818 357.948231 
L 261.849564 276.933565 
L 262.683437 348.139344 
L 263.51731 393.897178 
L 264.351183 375.147624 
L 265.185056 381.44483 
L 266.018929 384.014433 
L 266.852802 377.434931 
L 267.686675 377.996485 
L 268.520548 383.363979 
L 269.354421 380.079752 
L 270.188294 357.41755 
L 271.022167 377.806284 
L 271.85604 363.805899 
L 272.689913 368.443319 
L 273.523786 384.027527 
L 274.357659 387.698457 
L 275.191532 376.567136 
L 276.025405 394.380619 
L 276.859278 375.617032 
L 277.693151 382.746173 
L 278.527024 380.868759 
L 279.360897 383.633586 
L 280.19477 378.515478 
L 281.028643 383.741925 
L 281.862516 390.628081 
L 282.696389 383.69565 
L 283.530262 378.414831 
L 284.364134 375.323148 
L 285.198007 379.067379 
L 286.03188 384.197191 
L 286.865753 385.919918 
L 287.699626 384.038612 
L 288.533499 384.807354 
L 289.367372 381.728198 
L 290.201245 396.202419 
L 291.035118 389.459757 
L 291.868991 383.948802 
L 292.702864 377.44484 
L 293.536737 379.499683 
L 294.37061 385.647942 
L 295.204483 378.921248 
L 296.038356 375.008506 
L 296.872229 381.612163 
L 297.706102 375.446464 
L 298.539975 374.763909 
L 299.373848 378.25812 
L 300.207721 370.893646 
L 301.041594 377.865809 
L 301.875467 375.001971 
L 302.70934 382.095047 
L 303.543213 386.112317 
L 304.377086 396.394049 
L 305.210959 386.763959 
L 306.044832 387.767779 
L 306.878705 382.734291 
L 307.712578 384.006697 
L 308.546451 385.876273 
L 309.380324 380.815879 
L 310.214197 381.309192 
L 311.04807 385.166906 
L 311.881943 386.385058 
L 312.715816 388.170077 
L 313.549689 389.372819 
L 314.383562 394.010467 
L 315.217435 383.347996 
L 316.051308 404.939426 
L 316.885181 404.161152 
L 317.719054 407.36904 
L 318.552927 392.847084 
L 319.3868 401.97982 
L 320.220672 391.905652 
L 321.888418 386.917207 
L 322.722291 387.827536 
L 323.556164 390.390859 
L 324.390037 386.022833 
L 325.22391 384.328752 
L 326.057783 380.020542 
L 326.891656 372.356781 
L 327.725529 389.57398 
L 328.559402 386.985519 
L 329.393275 365.48626 
L 330.227148 351.602149 
L 331.061021 406.121418 
L 331.894894 383.62039 
L 332.728767 311.036838 
L 333.56264 286.580604 
L 334.396513 353.146914 
L 335.230386 338.504628 
L 336.064259 365.785624 
L 336.898132 354.916244 
L 337.732005 341.503496 
L 338.565878 320.84168 
L 339.399751 285.115808 
L 340.233624 296.727335 
L 341.067497 306.565756 
L 343.569116 232.327333 
L 345.236862 345.427434 
L 346.070735 349.659273 
L 346.904608 378.091855 
L 347.738481 386.110621 
L 348.572354 386.538379 
L 349.406227 369.633006 
L 350.2401 385.410085 
L 351.073973 367.640071 
L 351.907846 340.294674 
L 352.741719 375.031109 
L 353.575592 380.294275 
L 354.409465 397.270087 
L 355.243337 383.602154 
L 356.07721 393.266696 
L 356.911083 397.013066 
L 357.744956 393.343578 
L 358.578829 395.822525 
L 359.412702 372.539934 
L 360.246575 369.75745 
L 361.080448 352.927013 
L 361.914321 287.183546 
L 362.748194 349.630039 
L 363.582067 348.529915 
L 364.41594 347.714578 
L 365.249813 374.693916 
L 366.083686 373.379259 
L 366.917559 356.622488 
L 367.751432 328.779024 
L 368.585305 343.633852 
L 369.419178 328.463378 
L 370.253051 303.221425 
L 371.086924 323.603052 
L 371.920797 327.205974 
L 372.75467 316.704353 
L 373.588543 294.233843 
L 374.422416 264.395374 
L 375.256289 276.08449 
L 376.090162 277.196908 
L 376.924035 338.732493 
L 377.757908 354.324395 
L 378.591781 341.056861 
L 379.425654 313.807628 
L 380.259527 308.874165 
L 381.0934 310.49414 
L 381.927273 307.659448 
L 382.761146 302.192547 
L 383.595019 293.81451 
L 384.428892 281.028671 
L 385.262765 302.786334 
L 386.096638 267.1553 
L 386.930511 248.854827 
L 387.764384 325.785454 
L 388.598257 307.618244 
L 389.43213 319.737367 
L 390.266002 293.389549 
L 391.099875 243.27834 
L 391.933748 292.876119 
L 392.767621 298.819021 
L 393.601494 210.739519 
L 394.435367 284.74555 
L 395.26924 223.63027 
L 396.103113 310.918776 
L 397.770859 197.313904 
L 398.604732 227.344047 
L 399.438605 247.275155 
L 400.272478 229.088676 
L 401.106351 261.932274 
L 401.940224 287.596623 
L 402.774097 277.512078 
L 403.60797 293.435128 
L 404.441843 288.702113 
L 405.275716 282.504133 
L 406.109589 344.759986 
L 406.943462 336.789628 
L 407.777335 356.398669 
L 408.611208 326.752575 
L 409.445081 342.154396 
L 410.278954 345.882154 
L 411.112827 323.270253 
L 411.9467 227.066873 
L 412.780573 286.506337 
L 413.614446 280.137861 
L 414.448319 268.147798 
L 415.282192 298.335663 
L 416.116065 298.41152 
L 416.949938 295.917328 
L 418.617684 272.11969 
L 419.451557 234.048873 
L 420.28543 281.956625 
L 421.119303 229.010306 
L 421.953176 199.560329 
L 422.787049 118.980707 
L 423.620922 202.302785 
L 424.454795 175.764663 
L 425.288667 135.33995 
L 426.12254 190.542374 
L 426.956413 160.716458 
L 427.790286 300.48957 
L 428.624159 263.212228 
L 429.458032 353.102581 
L 430.291905 309.951058 
L 431.125778 315.074983 
L 431.959651 293.366789 
L 432.793524 295.974499 
L 433.627397 255.006663 
L 434.46127 170.370325 
L 435.295143 205.265923 
L 436.129016 149.810184 
L 436.962889 252.736715 
L 437.796762 238.818794 
L 438.630635 280.548539 
L 439.464508 224.71301 
L 440.298381 226.075414 
L 441.132254 287.326806 
L 441.966127 304.063869 
L 442.8 289.760615 
L 443.633873 288.928749 
L 444.467746 273.628585 
L 445.301619 288.069172 
L 446.969365 185.509862 
L 447.803238 208.114344 
L 448.637111 174.140919 
L 449.470984 257.70392 
L 450.304857 287.714936 
L 451.13873 276.247574 
L 451.972603 286.303344 
L 452.806476 221.305418 
L 453.640349 186.59445 
L 454.474222 198.026119 
L 455.308095 195.19487 
L 456.141968 225.282628 
L 456.975841 229.783385 
L 457.809714 197.076469 
L 458.643587 194.354881 
L 459.47746 296.835643 
L 460.311333 245.859164 
L 461.145205 183.229392 
L 461.979078 218.822258 
L 462.812951 155.196571 
L 463.646824 320.027842 
L 464.480697 237.12091 
L 465.31457 170.711451 
L 466.148443 262.85358 
L 466.982316 290.169238 
L 467.816189 267.418529 
L 468.650062 330.415105 
L 469.483935 329.631775 
L 471.151681 275.529246 
L 471.985554 314.465506 
L 472.819427 327.963104 
L 473.6533 296.766493 
L 474.487173 282.957892 
L 475.321046 273.92099 
L 476.154919 303.274523 
L 476.988792 367.081359 
L 477.822665 357.539602 
L 478.656538 311.726804 
L 479.490411 302.830797 
L 480.324284 318.978429 
L 481.158157 281.347966 
L 481.99203 316.877435 
L 482.825903 282.652815 
L 483.659776 286.233652 
L 484.493649 298.145586 
L 485.327522 286.513552 
L 486.161395 272.306346 
L 486.995268 261.06879 
L 487.829141 295.879213 
L 488.663014 325.8999 
L 489.496887 335.244645 
L 490.33076 335.524046 
L 491.164633 312.985309 
L 491.998506 306.534809 
L 492.832379 339.622991 
L 493.666252 313.045997 
L 494.500125 328.498367 
L 495.333998 308.370432 
L 496.16787 215.039592 
L 497.001743 295.831334 
L 497.835616 303.605846 
L 498.669489 342.187261 
L 499.503362 304.309911 
L 500.337235 296.549333 
L 501.171108 341.9001 
L 502.004981 295.349738 
L 502.838854 302.581002 
L 503.672727 301.741689 
L 504.5066 311.9196 
L 505.340473 309.411106 
L 506.174346 311.870641 
L 507.008219 331.581878 
L 507.842092 354.09232 
L 508.675965 335.756088 
L 509.509838 301.147197 
L 510.343711 324.772515 
L 512.011457 185.156094 
L 512.84533 167.671833 
L 513.679203 354.587606 
L 514.513076 312.373902 
L 515.346949 303.383204 
L 516.180822 372.154539 
L 517.014695 370.051388 
L 517.848568 362.44418 
L 518.682441 363.124939 
L 519.516314 354.740857 
L 520.350187 365.218329 
L 521.18406 302.532939 
L 522.017933 293.36509 
L 522.851806 276.559396 
L 523.685679 320.712024 
L 524.519552 351.217075 
L 525.353425 321.821768 
L 526.187298 306.619081 
L 527.021171 342.162362 
L 527.855044 350.137876 
L 528.688917 353.823861 
L 529.52279 365.495328 
L 530.356663 345.425635 
L 531.190535 361.111829 
L 532.858281 291.732599 
L 533.692154 263.312994 
L 534.526027 330.15986 
L 535.3599 317.509155 
L 536.193773 313.927505 
L 537.027646 313.125248 
L 537.861519 346.997511 
L 538.695392 347.576576 
L 539.529265 357.288069 
L 540.363138 378.618771 
L 541.197011 332.72786 
L 542.030884 335.593689 
L 542.864757 273.939635 
L 543.69863 344.241735 
L 544.532503 317.660494 
L 545.366376 362.095342 
L 546.200249 345.237868 
L 547.034122 332.818995 
L 547.867995 300.736617 
L 548.701868 331.280901 
L 549.535741 342.725324 
L 550.369614 365.517478 
L 551.203487 382.209484 
L 552.03736 374.070302 
L 552.871233 363.854562 
L 553.705106 361.207374 
L 554.538979 366.779475 
L 555.372852 368.715321 
L 556.206725 367.888526 
L 557.040598 373.603273 
L 557.874471 373.444521 
L 558.708344 365.375233 
L 559.542217 377.695442 
L 560.37609 381.803747 
L 561.209963 376.263995 
L 562.043836 396.359684 
L 562.877709 392.418143 
L 563.711582 391.582508 
L 564.545455 387.187706 
L 565.379328 391.109456 
L 566.2132 389.683288 
L 567.047073 394.295072 
L 567.880946 388.894454 
L 568.714819 364.403964 
L 569.548692 416.711253 
L 570.382565 376.647026 
L 571.216438 372.074184 
L 572.050311 369.001141 
L 572.884184 339.170817 
L 573.718057 259.040607 
L 574.55193 347.145777 
L 575.385803 349.804734 
L 576.219676 380.591474 
L 577.053549 389.138499 
L 577.887422 390.359141 
L 578.721295 397.34903 
L 579.555168 401.214371 
L 580.389041 380.730407 
L 581.222914 378.599902 
L 582.056787 364.504323 
L 582.89066 364.050379 
L 583.724533 372.995322 
L 584.558406 362.191526 
L 585.392279 357.817029 
L 586.226152 356.45914 
L 587.060025 370.173471 
L 587.893898 381.054969 
L 588.727771 389.357107 
L 590.395517 364.302374 
L 591.22939 360.045942 
L 592.063263 371.441336 
L 592.897136 354.164497 
L 593.731009 355.46076 
L 594.564882 356.174339 
L 595.398755 354.823414 
L 596.232628 364.142325 
L 597.066501 359.587765 
L 597.900374 385.942253 
L 598.734247 392.313673 
L 599.56812 394.385201 
L 600.401993 390.689785 
L 601.235866 370.978499 
L 602.069738 388.202384 
L 602.903611 396.646039 
L 603.737484 385.264859 
L 604.571357 384.68835 
L 605.40523 382.172691 
L 606.239103 393.233869 
L 607.072976 388.491713 
L 607.906849 353.164482 
L 608.740722 405.80503 
L 609.574595 405.144663 
L 610.408468 407.715669 
L 611.242341 392.555298 
L 612.076214 371.759795 
L 612.910087 356.548416 
L 613.74396 323.692242 
L 614.577833 298.34556 
L 615.411706 364.309359 
L 616.245579 289.41933 
L 617.079452 324.705663 
L 617.913325 371.023403 
L 618.747198 370.557686 
L 619.581071 373.904661 
L 620.414944 375.908797 
L 621.248817 350.649799 
L 622.08269 392.23437 
L 622.916563 330.034011 
L 623.750436 347.065117 
L 624.584309 324.068063 
L 625.418182 318.453959 
L 626.252055 353.443327 
L 627.085928 354.739218 
L 627.919801 366.825461 
L 628.753674 367.392575 
L 629.587547 378.799082 
L 630.42142 380.533746 
L 631.255293 376.688045 
L 632.089166 386.240934 
L 632.923039 385.042278 
L 633.756912 367.886906 
L 634.590785 379.950603 
L 635.424658 370.074165 
L 636.258531 383.996016 
L 637.092403 386.441181 
L 637.926276 377.453208 
L 638.760149 390.078204 
L 639.594022 384.882286 
L 640.427895 392.17148 
L 641.261768 392.284 
L 642.095641 383.291596 
L 643.763387 378.461911 
L 644.59726 382.06784 
L 645.431133 367.153204 
L 646.265006 377.009944 
L 647.098879 394.867129 
L 647.932752 396.409339 
L 648.766625 393.370159 
L 649.600498 397.552615 
L 650.434371 386.887123 
L 651.268244 370.202324 
L 652.102117 394.249741 
L 652.93599 349.525765 
L 653.769863 351.680026 
L 654.603736 367.533241 
L 655.437609 333.106475 
L 656.271482 336.146773 
L 657.105355 373.56914 
L 657.939228 351.154608 
L 658.773101 357.461852 
L 659.606974 336.129691 
L 660.440847 310.612688 
L 661.27472 405.08013 
L 662.108593 374.890301 
L 662.942466 381.563767 
L 663.776339 390.358949 
L 664.610212 396.655581 
L 665.444085 396.070323 
L 666.277958 363.64599 
L 667.111831 346.642034 
L 669.61345 284.155764 
L 670.447323 294.362706 
L 671.281196 259.10887 
L 672.115068 345.244185 
L 672.948941 356.316686 
L 673.782814 344.535809 
L 674.616687 353.243428 
L 675.45056 351.186589 
L 676.284433 354.679595 
L 677.118306 425.894848 
L 677.952179 396.103206 
L 678.786052 442.996364 
L 679.619925 321.421864 
L 680.453798 366.923561 
L 681.287671 375.981341 
L 682.121544 373.97804 
L 682.955417 340.652691 
L 683.78929 358.050906 
L 684.623163 355.073893 
L 685.457036 332.652469 
L 686.290909 293.229017 
L 687.124782 354.934413 
L 687.958655 372.452583 
L 688.792528 361.120458 
L 689.626401 314.616358 
L 690.460274 327.68604 
L 691.294147 337.87952 
L 692.12802 286.732463 
L 692.961893 280.956991 
L 693.795766 317.73634 
L 694.629639 292.560049 
L 695.463512 282.948199 
L 696.297385 269.628561 
L 697.131258 275.711617 
L 697.965131 346.009924 
L 698.799004 290.519705 
L 699.632877 310.589426 
L 700.46675 344.037478 
L 701.300623 361.652155 
L 702.134496 371.788474 
L 702.968369 357.751521 
L 703.802242 331.964495 
L 704.636115 331.82721 
L 705.469988 318.423284 
L 706.303861 290.891081 
L 707.137733 297.096344 
L 707.971606 293.984351 
L 708.805479 298.687462 
L 709.639352 267.140682 
L 710.473225 227.19761 
L 711.307098 294.82802 
L 712.140971 230.739938 
L 712.974844 318.373639 
L 713.808717 352.048556 
L 714.64259 332.725708 
L 715.476463 291.620075 
L 716.310336 276.872485 
L 717.144209 231.725938 
L 717.978082 264.552488 
L 718.811955 267.721867 
L 719.645828 253.899058 
L 720.479701 260.183408 
L 721.313574 234.507691 
L 722.147447 293.883359 
L 722.98132 284.613906 
L 723.815193 303.447651 
L 724.649066 317.72342 
L 725.482939 274.182246 
L 726.316812 265.223059 
L 727.150685 277.324897 
L 727.984558 306.272777 
L 728.818431 296.223073 
L 729.652304 273.732474 
L 730.486177 336.374459 
L 731.32005 255.658479 
L 732.153923 105.076017 
L 732.987796 206.965972 
L 733.821669 280.040067 
L 734.655542 330.63796 
L 735.489415 316.258696 
L 736.323288 234.295425 
L 737.157161 238.116375 
L 737.991034 278.279106 
L 738.824907 355.861576 
L 739.65878 304.97677 
L 740.492653 304.944267 
L 741.326526 192.978589 
L 742.160399 202.894224 
L 742.994271 200.003411 
L 743.828144 315.27774 
L 744.662017 253.370731 
L 745.49589 179.364839 
L 746.329763 273.95644 
L 747.163636 244.284715 
L 747.163636 244.284715 
" style="fill:none;stroke:#ff0000;stroke-dasharray:5.55,2.4;stroke-dashoffset:0;stroke-width:1.5;"/>
   </g>
   <g id="patch_3">
    <path d="M 108 460.8 
L 108 69.12 
" style="fill:none;stroke:#000000;stroke-linecap:square;stroke-linejoin:miter;stroke-width:0.8;"/>
   </g>
   <g id="patch_4">
    <path d="M 777.6 460.8 
L 777.6 69.12 
" style="fill:none;stroke:#000000;stroke-linecap:square;stroke-linejoin:miter;stroke-width:0.8;"/>
   </g>
   <g id="patch_5">
    <path d="M 108 460.8 
L 777.6 460.8 
" style="fill:none;stroke:#000000;stroke-linecap:square;stroke-linejoin:miter;stroke-width:0.8;"/>
   </g>
   <g id="patch_6">
    <path d="M 108 69.12 
L 777.6 69.12 
" style="fill:none;stroke:#000000;stroke-linecap:square;stroke-linejoin:miter;stroke-width:0.8;"/>
   </g>
   <g id="text_21">
    <!-- Macau roadside 2020-2021 | Forecast vs Monitored | Support vector machine -->
    <g transform="translate(94.802344 63.12)scale(0.18 -0.18)">
     <defs>
      <path d="M 8.5 21.578125 
L 8.5 54.6875 
L 17.484375 54.6875 
L 17.484375 21.921875 
Q 17.484375 14.15625 20.5 10.265625 
Q 23.53125 6.390625 29.59375 6.390625 
Q 36.859375 6.390625 41.078125 11.03125 
Q 45.3125 15.671875 45.3125 23.6875 
L 45.3125 54.6875 
L 54.296875 54.6875 
L 54.296875 0 
L 45.3125 0 
L 45.3125 8.40625 
Q 42.046875 3.421875 37.71875 1 
Q 33.40625 -1.421875 27.6875 -1.421875 
Q 18.265625 -1.421875 13.375 4.4375 
Q 8.5 10.296875 8.5 21.578125 
z
M 31.109375 56 
z
" id="DejaVuSans-117"/>
      <path id="DejaVuSans-32"/>
      <path d="M 45.40625 46.390625 
L 45.40625 75.984375 
L 54.390625 75.984375 
L 54.390625 0 
L 45.40625 0 
L 45.40625 8.203125 
Q 42.578125 3.328125 38.25 0.953125 
Q 33.9375 -1.421875 27.875 -1.421875 
Q 17.96875 -1.421875 11.734375 6.484375 
Q 5.515625 14.40625 5.515625 27.296875 
Q 5.515625 40.1875 11.734375 48.09375 
Q 17.96875 56 27.875 56 
Q 33.9375 56 38.25 53.625 
Q 42.578125 51.265625 45.40625 46.390625 
z
M 14.796875 27.296875 
Q 14.796875 17.390625 18.875 11.75 
Q 22.953125 6.109375 30.078125 6.109375 
Q 37.203125 6.109375 41.296875 11.75 
Q 45.40625 17.390625 45.40625 27.296875 
Q 45.40625 37.203125 41.296875 42.84375 
Q 37.203125 48.484375 30.078125 48.484375 
Q 22.953125 48.484375 18.875 42.84375 
Q 14.796875 37.203125 14.796875 27.296875 
z
" id="DejaVuSans-100"/>
      <path d="M 44.28125 53.078125 
L 44.28125 44.578125 
Q 40.484375 46.53125 36.375 47.5 
Q 32.28125 48.484375 27.875 48.484375 
Q 21.1875 48.484375 17.84375 46.4375 
Q 14.5 44.390625 14.5 40.28125 
Q 14.5 37.15625 16.890625 35.375 
Q 19.28125 33.59375 26.515625 31.984375 
L 29.59375 31.296875 
Q 39.15625 29.25 43.1875 25.515625 
Q 47.21875 21.78125 47.21875 15.09375 
Q 47.21875 7.46875 41.1875 3.015625 
Q 35.15625 -1.421875 24.609375 -1.421875 
Q 20.21875 -1.421875 15.453125 -0.5625 
Q 10.6875 0.296875 5.421875 2 
L 5.421875 11.28125 
Q 10.40625 8.6875 15.234375 7.390625 
Q 20.0625 6.109375 24.8125 6.109375 
Q 31.15625 6.109375 34.5625 8.28125 
Q 37.984375 10.453125 37.984375 14.40625 
Q 37.984375 18.0625 35.515625 20.015625 
Q 33.0625 21.96875 24.703125 23.78125 
L 21.578125 24.515625 
Q 13.234375 26.265625 9.515625 29.90625 
Q 5.8125 33.546875 5.8125 39.890625 
Q 5.8125 47.609375 11.28125 51.796875 
Q 16.75 56 26.8125 56 
Q 31.78125 56 36.171875 55.265625 
Q 40.578125 54.546875 44.28125 53.078125 
z
" id="DejaVuSans-115"/>
      <path d="M 21 76.421875 
L 21 -23.578125 
L 12.703125 -23.578125 
L 12.703125 76.421875 
z
" id="DejaVuSans-124"/>
      <path d="M 9.8125 72.90625 
L 51.703125 72.90625 
L 51.703125 64.59375 
L 19.671875 64.59375 
L 19.671875 43.109375 
L 48.578125 43.109375 
L 48.578125 34.8125 
L 19.671875 34.8125 
L 19.671875 0 
L 9.8125 0 
z
" id="DejaVuSans-70"/>
      <path d="M 2.984375 54.6875 
L 12.5 54.6875 
L 29.59375 8.796875 
L 46.6875 54.6875 
L 56.203125 54.6875 
L 35.6875 0 
L 23.484375 0 
z
" id="DejaVuSans-118"/>
      <path d="M 54.890625 33.015625 
L 54.890625 0 
L 45.90625 0 
L 45.90625 32.71875 
Q 45.90625 40.484375 42.875 44.328125 
Q 39.84375 48.1875 33.796875 48.1875 
Q 26.515625 48.1875 22.3125 43.546875 
Q 18.109375 38.921875 18.109375 30.90625 
L 18.109375 0 
L 9.078125 0 
L 9.078125 54.6875 
L 18.109375 54.6875 
L 18.109375 46.1875 
Q 21.34375 51.125 25.703125 53.5625 
Q 30.078125 56 35.796875 56 
Q 45.21875 56 50.046875 50.171875 
Q 54.890625 44.34375 54.890625 33.015625 
z
" id="DejaVuSans-110"/>
      <path d="M 53.515625 70.515625 
L 53.515625 60.890625 
Q 47.90625 63.578125 42.921875 64.890625 
Q 37.9375 66.21875 33.296875 66.21875 
Q 25.25 66.21875 20.875 63.09375 
Q 16.5 59.96875 16.5 54.203125 
Q 16.5 49.359375 19.40625 46.890625 
Q 22.3125 44.4375 30.421875 42.921875 
L 36.375 41.703125 
Q 47.40625 39.59375 52.65625 34.296875 
Q 57.90625 29 57.90625 20.125 
Q 57.90625 9.515625 50.796875 4.046875 
Q 43.703125 -1.421875 29.984375 -1.421875 
Q 24.8125 -1.421875 18.96875 -0.25 
Q 13.140625 0.921875 6.890625 3.21875 
L 6.890625 13.375 
Q 12.890625 10.015625 18.65625 8.296875 
Q 24.421875 6.59375 29.984375 6.59375 
Q 38.421875 6.59375 43.015625 9.90625 
Q 47.609375 13.234375 47.609375 19.390625 
Q 47.609375 24.75 44.3125 27.78125 
Q 41.015625 30.8125 33.5 32.328125 
L 27.484375 33.5 
Q 16.453125 35.6875 11.515625 40.375 
Q 6.59375 45.0625 6.59375 53.421875 
Q 6.59375 63.09375 13.40625 68.65625 
Q 20.21875 74.21875 32.171875 74.21875 
Q 37.3125 74.21875 42.625 73.28125 
Q 47.953125 72.359375 53.515625 70.515625 
z
" id="DejaVuSans-83"/>
      <path d="M 18.109375 8.203125 
L 18.109375 -20.796875 
L 9.078125 -20.796875 
L 9.078125 54.6875 
L 18.109375 54.6875 
L 18.109375 46.390625 
Q 20.953125 51.265625 25.265625 53.625 
Q 29.59375 56 35.59375 56 
Q 45.5625 56 51.78125 48.09375 
Q 58.015625 40.1875 58.015625 27.296875 
Q 58.015625 14.40625 51.78125 6.484375 
Q 45.5625 -1.421875 35.59375 -1.421875 
Q 29.59375 -1.421875 25.265625 0.953125 
Q 20.953125 3.328125 18.109375 8.203125 
z
M 48.6875 27.296875 
Q 48.6875 37.203125 44.609375 42.84375 
Q 40.53125 48.484375 33.40625 48.484375 
Q 26.265625 48.484375 22.1875 42.84375 
Q 18.109375 37.203125 18.109375 27.296875 
Q 18.109375 17.390625 22.1875 11.75 
Q 26.265625 6.109375 33.40625 6.109375 
Q 40.53125 6.109375 44.609375 11.75 
Q 48.6875 17.390625 48.6875 27.296875 
z
" id="DejaVuSans-112"/>
      <path d="M 54.890625 33.015625 
L 54.890625 0 
L 45.90625 0 
L 45.90625 32.71875 
Q 45.90625 40.484375 42.875 44.328125 
Q 39.84375 48.1875 33.796875 48.1875 
Q 26.515625 48.1875 22.3125 43.546875 
Q 18.109375 38.921875 18.109375 30.90625 
L 18.109375 0 
L 9.078125 0 
L 9.078125 75.984375 
L 18.109375 75.984375 
L 18.109375 46.1875 
Q 21.34375 51.125 25.703125 53.5625 
Q 30.078125 56 35.796875 56 
Q 45.21875 56 50.046875 50.171875 
Q 54.890625 44.34375 54.890625 33.015625 
z
" id="DejaVuSans-104"/>
     </defs>
     <use xlink:href="#DejaVuSans-77"/>
     <use x="86.279297" xlink:href="#DejaVuSans-97"/>
     <use x="147.558594" xlink:href="#DejaVuSans-99"/>
     <use x="202.539062" xlink:href="#DejaVuSans-97"/>
     <use x="263.818359" xlink:href="#DejaVuSans-117"/>
     <use x="327.197266" xlink:href="#DejaVuSans-32"/>
     <use x="358.984375" xlink:href="#DejaVuSans-114"/>
     <use x="397.847656" xlink:href="#DejaVuSans-111"/>
     <use x="459.029297" xlink:href="#DejaVuSans-97"/>
     <use x="520.308594" xlink:href="#DejaVuSans-100"/>
     <use x="583.785156" xlink:href="#DejaVuSans-115"/>
     <use x="635.884766" xlink:href="#DejaVuSans-105"/>
     <use x="663.667969" xlink:href="#DejaVuSans-100"/>
     <use x="727.144531" xlink:href="#DejaVuSans-101"/>
     <use x="788.667969" xlink:href="#DejaVuSans-32"/>
     <use x="820.455078" xlink:href="#DejaVuSans-50"/>
     <use x="884.078125" xlink:href="#DejaVuSans-48"/>
     <use x="947.701172" xlink:href="#DejaVuSans-50"/>
     <use x="1011.324219" xlink:href="#DejaVuSans-48"/>
     <use x="1074.947266" xlink:href="#DejaVuSans-45"/>
     <use x="1111.03125" xlink:href="#DejaVuSans-50"/>
     <use x="1174.654297" xlink:href="#DejaVuSans-48"/>
     <use x="1238.277344" xlink:href="#DejaVuSans-50"/>
     <use x="1301.900391" xlink:href="#DejaVuSans-49"/>
     <use x="1365.523438" xlink:href="#DejaVuSans-32"/>
     <use x="1397.310547" xlink:href="#DejaVuSans-124"/>
     <use x="1431.001953" xlink:href="#DejaVuSans-32"/>
     <use x="1462.789062" xlink:href="#DejaVuSans-70"/>
     <use x="1516.683594" xlink:href="#DejaVuSans-111"/>
     <use x="1577.865234" xlink:href="#DejaVuSans-114"/>
     <use x="1616.728516" xlink:href="#DejaVuSans-101"/>
     <use x="1678.251953" xlink:href="#DejaVuSans-99"/>
     <use x="1733.232422" xlink:href="#DejaVuSans-97"/>
     <use x="1794.511719" xlink:href="#DejaVuSans-115"/>
     <use x="1846.611328" xlink:href="#DejaVuSans-116"/>
     <use x="1885.820312" xlink:href="#DejaVuSans-32"/>
     <use x="1917.607422" xlink:href="#DejaVuSans-118"/>
     <use x="1976.787109" xlink:href="#DejaVuSans-115"/>
     <use x="2028.886719" xlink:href="#DejaVuSans-32"/>
     <use x="2060.673828" xlink:href="#DejaVuSans-77"/>
     <use x="2146.953125" xlink:href="#DejaVuSans-111"/>
     <use x="2208.134766" xlink:href="#DejaVuSans-110"/>
     <use x="2271.513672" xlink:href="#DejaVuSans-105"/>
     <use x="2299.296875" xlink:href="#DejaVuSans-116"/>
     <use x="2338.505859" xlink:href="#DejaVuSans-111"/>
     <use x="2399.6875" xlink:href="#DejaVuSans-114"/>
     <use x="2438.550781" xlink:href="#DejaVuSans-101"/>
     <use x="2500.074219" xlink:href="#DejaVuSans-100"/>
     <use x="2563.550781" xlink:href="#DejaVuSans-32"/>
     <use x="2595.337891" xlink:href="#DejaVuSans-124"/>
     <use x="2629.029297" xlink:href="#DejaVuSans-32"/>
     <use x="2660.816406" xlink:href="#DejaVuSans-83"/>
     <use x="2724.292969" xlink:href="#DejaVuSans-117"/>
     <use x="2787.671875" xlink:href="#DejaVuSans-112"/>
     <use x="2851.148438" xlink:href="#DejaVuSans-112"/>
     <use x="2914.625" xlink:href="#DejaVuSans-111"/>
     <use x="2975.806641" xlink:href="#DejaVuSans-114"/>
     <use x="3016.919922" xlink:href="#DejaVuSans-116"/>
     <use x="3056.128906" xlink:href="#DejaVuSans-32"/>
     <use x="3087.916016" xlink:href="#DejaVuSans-118"/>
     <use x="3147.095703" xlink:href="#DejaVuSans-101"/>
     <use x="3208.619141" xlink:href="#DejaVuSans-99"/>
     <use x="3263.599609" xlink:href="#DejaVuSans-116"/>
     <use x="3302.808594" xlink:href="#DejaVuSans-111"/>
     <use x="3363.990234" xlink:href="#DejaVuSans-114"/>
     <use x="3405.103516" xlink:href="#DejaVuSans-32"/>
     <use x="3436.890625" xlink:href="#DejaVuSans-109"/>
     <use x="3534.302734" xlink:href="#DejaVuSans-97"/>
     <use x="3595.582031" xlink:href="#DejaVuSans-99"/>
     <use x="3650.5625" xlink:href="#DejaVuSans-104"/>
     <use x="3713.941406" xlink:href="#DejaVuSans-105"/>
     <use x="3741.724609" xlink:href="#DejaVuSans-110"/>
     <use x="3805.103516" xlink:href="#DejaVuSans-101"/>
    </g>
   </g>
   <g id="legend_1">
    <g id="patch_7">
     <path d="M 116.4 454.8 
L 286.636875 454.8 
Q 289.036875 454.8 289.036875 452.4 
L 289.036875 417.705 
Q 289.036875 415.305 286.636875 415.305 
L 116.4 415.305 
Q 114 415.305 114 417.705 
L 114 452.4 
Q 114 454.8 116.4 454.8 
z
" style="fill:#ffffff;opacity:0.8;stroke:#cccccc;stroke-linejoin:miter;"/>
    </g>
    <g id="line2d_21">
     <path d="M 118.8 425.023125 
L 142.8 425.023125 
" style="fill:none;stroke:#1f77b4;stroke-linecap:square;stroke-width:1.5;"/>
    </g>
    <g id="line2d_22"/>
    <g id="text_22">
     <!-- measured_data_PM25 -->
     <g transform="translate(152.4 429.223125)scale(0.12 -0.12)">
      <defs>
       <path d="M 50.984375 -16.609375 
L 50.984375 -23.578125 
L -0.984375 -23.578125 
L -0.984375 -16.609375 
z
" id="DejaVuSans-95"/>
      </defs>
      <use xlink:href="#DejaVuSans-109"/>
      <use x="97.412109" xlink:href="#DejaVuSans-101"/>
      <use x="158.935547" xlink:href="#DejaVuSans-97"/>
      <use x="220.214844" xlink:href="#DejaVuSans-115"/>
      <use x="272.314453" xlink:href="#DejaVuSans-117"/>
      <use x="335.693359" xlink:href="#DejaVuSans-114"/>
      <use x="374.556641" xlink:href="#DejaVuSans-101"/>
      <use x="436.080078" xlink:href="#DejaVuSans-100"/>
      <use x="499.556641" xlink:href="#DejaVuSans-95"/>
      <use x="549.556641" xlink:href="#DejaVuSans-100"/>
      <use x="613.033203" xlink:href="#DejaVuSans-97"/>
      <use x="674.3125" xlink:href="#DejaVuSans-116"/>
      <use x="713.521484" xlink:href="#DejaVuSans-97"/>
      <use x="774.800781" xlink:href="#DejaVuSans-95"/>
      <use x="824.800781" xlink:href="#DejaVuSans-80"/>
      <use x="885.103516" xlink:href="#DejaVuSans-77"/>
      <use x="971.382812" xlink:href="#DejaVuSans-50"/>
      <use x="1035.005859" xlink:href="#DejaVuSans-53"/>
     </g>
    </g>
    <g id="line2d_23">
     <path d="M 118.8 442.970625 
L 142.8 442.970625 
" style="fill:none;stroke:#ff0000;stroke-dasharray:5.55,2.4;stroke-dashoffset:0;stroke-width:1.5;"/>
    </g>
    <g id="line2d_24"/>
    <g id="text_23">
     <!-- predicted_data_PM25 -->
     <g transform="translate(152.4 447.170625)scale(0.12 -0.12)">
      <use xlink:href="#DejaVuSans-112"/>
      <use x="63.476562" xlink:href="#DejaVuSans-114"/>
      <use x="102.339844" xlink:href="#DejaVuSans-101"/>
      <use x="163.863281" xlink:href="#DejaVuSans-100"/>
      <use x="227.339844" xlink:href="#DejaVuSans-105"/>
      <use x="255.123047" xlink:href="#DejaVuSans-99"/>
      <use x="310.103516" xlink:href="#DejaVuSans-116"/>
      <use x="349.3125" xlink:href="#DejaVuSans-101"/>
      <use x="410.835938" xlink:href="#DejaVuSans-100"/>
      <use x="474.3125" xlink:href="#DejaVuSans-95"/>
      <use x="524.3125" xlink:href="#DejaVuSans-100"/>
      <use x="587.789062" xlink:href="#DejaVuSans-97"/>
      <use x="649.068359" xlink:href="#DejaVuSans-116"/>
      <use x="688.277344" xlink:href="#DejaVuSans-97"/>
      <use x="749.556641" xlink:href="#DejaVuSans-95"/>
      <use x="799.556641" xlink:href="#DejaVuSans-80"/>
      <use x="859.859375" xlink:href="#DejaVuSans-77"/>
      <use x="946.138672" xlink:href="#DejaVuSans-50"/>
      <use x="1009.761719" xlink:href="#DejaVuSans-53"/>
     </g>
    </g>
   </g>
  </g>
 </g>
 <defs>
  <clipPath id="p4cca4d2aa4">
   <rect height="391.68" width="669.6" x="108" y="69.12"/>
  </clipPath>
 </defs>
</svg>
