<?xml version="1.0" encoding="utf-8" standalone="no"?>
<!DOCTYPE svg PUBLIC "-//W3C//DTD SVG 1.1//EN"
  "http://www.w3.org/Graphics/SVG/1.1/DTD/svg11.dtd">
<!-- Created with matplotlib (https://matplotlib.org/) -->
<svg height="576pt" version="1.1" viewBox="0 0 864 576" width="864pt" xmlns="http://www.w3.org/2000/svg" xmlns:xlink="http://www.w3.org/1999/xlink">
 <metadata>
  <rdf:RDF xmlns:cc="http://creativecommons.org/ns#" xmlns:dc="http://purl.org/dc/elements/1.1/" xmlns:rdf="http://www.w3.org/1999/02/22-rdf-syntax-ns#">
   <cc:Work>
    <dc:type rdf:resource="http://purl.org/dc/dcmitype/StillImage"/>
    <dc:date>2024-03-08T20:46:48.981892</dc:date>
    <dc:format>image/svg+xml</dc:format>
    <dc:creator>
     <cc:Agent>
      <dc:title>Matplotlib v3.3.4, https://matplotlib.org/</dc:title>
     </cc:Agent>
    </dc:creator>
   </cc:Work>
  </rdf:RDF>
 </metadata>
 <defs>
  <style type="text/css">*{stroke-linecap:butt;stroke-linejoin:round;}</style>
 </defs>
 <g id="figure_1">
  <g id="patch_1">
   <path d="M 0 576 
L 864 576 
L 864 0 
L 0 0 
z
" style="fill:#ffffff;"/>
  </g>
  <g id="axes_1">
   <g id="patch_2">
    <path d="M 108 460.8 
L 777.6 460.8 
L 777.6 69.12 
L 108 69.12 
z
" style="fill:#ffffff;"/>
   </g>
   <g id="matplotlib.axis_1">
    <g id="xtick_1">
     <g id="line2d_1">
      <defs>
       <path d="M 0 0 
L 0 3.5 
" id="m0d70aa54db" style="stroke:#000000;stroke-width:0.8;"/>
      </defs>
      <g>
       <use style="stroke:#000000;stroke-width:0.8;" x="138.436364" xlink:href="#m0d70aa54db" y="460.8"/>
      </g>
     </g>
     <g id="text_1">
      <!-- 2020-01 -->
      <g transform="translate(93.766579 500.766215)rotate(-30)scale(0.12 -0.12)">
       <defs>
        <path d="M 19.1875 8.296875 
L 53.609375 8.296875 
L 53.609375 0 
L 7.328125 0 
L 7.328125 8.296875 
Q 12.9375 14.109375 22.625 23.890625 
Q 32.328125 33.6875 34.8125 36.53125 
Q 39.546875 41.84375 41.421875 45.53125 
Q 43.3125 49.21875 43.3125 52.78125 
Q 43.3125 58.59375 39.234375 62.25 
Q 35.15625 65.921875 28.609375 65.921875 
Q 23.96875 65.921875 18.8125 64.3125 
Q 13.671875 62.703125 7.8125 59.421875 
L 7.8125 69.390625 
Q 13.765625 71.78125 18.9375 73 
Q 24.125 74.21875 28.421875 74.21875 
Q 39.75 74.21875 46.484375 68.546875 
Q 53.21875 62.890625 53.21875 53.421875 
Q 53.21875 48.921875 51.53125 44.890625 
Q 49.859375 40.875 45.40625 35.40625 
Q 44.1875 33.984375 37.640625 27.21875 
Q 31.109375 20.453125 19.1875 8.296875 
z
" id="DejaVuSans-50"/>
        <path d="M 31.78125 66.40625 
Q 24.171875 66.40625 20.328125 58.90625 
Q 16.5 51.421875 16.5 36.375 
Q 16.5 21.390625 20.328125 13.890625 
Q 24.171875 6.390625 31.78125 6.390625 
Q 39.453125 6.390625 43.28125 13.890625 
Q 47.125 21.390625 47.125 36.375 
Q 47.125 51.421875 43.28125 58.90625 
Q 39.453125 66.40625 31.78125 66.40625 
z
M 31.78125 74.21875 
Q 44.046875 74.21875 50.515625 64.515625 
Q 56.984375 54.828125 56.984375 36.375 
Q 56.984375 17.96875 50.515625 8.265625 
Q 44.046875 -1.421875 31.78125 -1.421875 
Q 19.53125 -1.421875 13.0625 8.265625 
Q 6.59375 17.96875 6.59375 36.375 
Q 6.59375 54.828125 13.0625 64.515625 
Q 19.53125 74.21875 31.78125 74.21875 
z
" id="DejaVuSans-48"/>
        <path d="M 4.890625 31.390625 
L 31.203125 31.390625 
L 31.203125 23.390625 
L 4.890625 23.390625 
z
" id="DejaVuSans-45"/>
        <path d="M 12.40625 8.296875 
L 28.515625 8.296875 
L 28.515625 63.921875 
L 10.984375 60.40625 
L 10.984375 69.390625 
L 28.421875 72.90625 
L 38.28125 72.90625 
L 38.28125 8.296875 
L 54.390625 8.296875 
L 54.390625 0 
L 12.40625 0 
z
" id="DejaVuSans-49"/>
       </defs>
       <use xlink:href="#DejaVuSans-50"/>
       <use x="63.623047" xlink:href="#DejaVuSans-48"/>
       <use x="127.246094" xlink:href="#DejaVuSans-50"/>
       <use x="190.869141" xlink:href="#DejaVuSans-48"/>
       <use x="254.492188" xlink:href="#DejaVuSans-45"/>
       <use x="290.576172" xlink:href="#DejaVuSans-48"/>
       <use x="354.199219" xlink:href="#DejaVuSans-49"/>
      </g>
     </g>
    </g>
    <g id="xtick_2">
     <g id="line2d_2">
      <g>
       <use style="stroke:#000000;stroke-width:0.8;" x="214.318804" xlink:href="#m0d70aa54db" y="460.8"/>
      </g>
     </g>
     <g id="text_2">
      <!-- 2020-04 -->
      <g transform="translate(169.64902 500.766215)rotate(-30)scale(0.12 -0.12)">
       <defs>
        <path d="M 37.796875 64.3125 
L 12.890625 25.390625 
L 37.796875 25.390625 
z
M 35.203125 72.90625 
L 47.609375 72.90625 
L 47.609375 25.390625 
L 58.015625 25.390625 
L 58.015625 17.1875 
L 47.609375 17.1875 
L 47.609375 0 
L 37.796875 0 
L 37.796875 17.1875 
L 4.890625 17.1875 
L 4.890625 26.703125 
z
" id="DejaVuSans-52"/>
       </defs>
       <use xlink:href="#DejaVuSans-50"/>
       <use x="63.623047" xlink:href="#DejaVuSans-48"/>
       <use x="127.246094" xlink:href="#DejaVuSans-50"/>
       <use x="190.869141" xlink:href="#DejaVuSans-48"/>
       <use x="254.492188" xlink:href="#DejaVuSans-45"/>
       <use x="290.576172" xlink:href="#DejaVuSans-48"/>
       <use x="354.199219" xlink:href="#DejaVuSans-52"/>
      </g>
     </g>
    </g>
    <g id="xtick_3">
     <g id="line2d_3">
      <g>
       <use style="stroke:#000000;stroke-width:0.8;" x="290.201245" xlink:href="#m0d70aa54db" y="460.8"/>
      </g>
     </g>
     <g id="text_3">
      <!-- 2020-07 -->
      <g transform="translate(245.53146 500.766215)rotate(-30)scale(0.12 -0.12)">
       <defs>
        <path d="M 8.203125 72.90625 
L 55.078125 72.90625 
L 55.078125 68.703125 
L 28.609375 0 
L 18.3125 0 
L 43.21875 64.59375 
L 8.203125 64.59375 
z
" id="DejaVuSans-55"/>
       </defs>
       <use xlink:href="#DejaVuSans-50"/>
       <use x="63.623047" xlink:href="#DejaVuSans-48"/>
       <use x="127.246094" xlink:href="#DejaVuSans-50"/>
       <use x="190.869141" xlink:href="#DejaVuSans-48"/>
       <use x="254.492188" xlink:href="#DejaVuSans-45"/>
       <use x="290.576172" xlink:href="#DejaVuSans-48"/>
       <use x="354.199219" xlink:href="#DejaVuSans-55"/>
      </g>
     </g>
    </g>
    <g id="xtick_4">
     <g id="line2d_4">
      <g>
       <use style="stroke:#000000;stroke-width:0.8;" x="366.917559" xlink:href="#m0d70aa54db" y="460.8"/>
      </g>
     </g>
     <g id="text_4">
      <!-- 2020-10 -->
      <g transform="translate(322.247774 500.766215)rotate(-30)scale(0.12 -0.12)">
       <use xlink:href="#DejaVuSans-50"/>
       <use x="63.623047" xlink:href="#DejaVuSans-48"/>
       <use x="127.246094" xlink:href="#DejaVuSans-50"/>
       <use x="190.869141" xlink:href="#DejaVuSans-48"/>
       <use x="254.492188" xlink:href="#DejaVuSans-45"/>
       <use x="290.576172" xlink:href="#DejaVuSans-49"/>
       <use x="354.199219" xlink:href="#DejaVuSans-48"/>
      </g>
     </g>
    </g>
    <g id="xtick_5">
     <g id="line2d_5">
      <g>
       <use style="stroke:#000000;stroke-width:0.8;" x="443.633873" xlink:href="#m0d70aa54db" y="460.8"/>
      </g>
     </g>
     <g id="text_5">
      <!-- 2021-01 -->
      <g transform="translate(398.964088 500.766215)rotate(-30)scale(0.12 -0.12)">
       <use xlink:href="#DejaVuSans-50"/>
       <use x="63.623047" xlink:href="#DejaVuSans-48"/>
       <use x="127.246094" xlink:href="#DejaVuSans-50"/>
       <use x="190.869141" xlink:href="#DejaVuSans-49"/>
       <use x="254.492188" xlink:href="#DejaVuSans-45"/>
       <use x="290.576172" xlink:href="#DejaVuSans-48"/>
       <use x="354.199219" xlink:href="#DejaVuSans-49"/>
      </g>
     </g>
    </g>
    <g id="xtick_6">
     <g id="line2d_6">
      <g>
       <use style="stroke:#000000;stroke-width:0.8;" x="518.682441" xlink:href="#m0d70aa54db" y="460.8"/>
      </g>
     </g>
     <g id="text_6">
      <!-- 2021-04 -->
      <g transform="translate(474.012656 500.766215)rotate(-30)scale(0.12 -0.12)">
       <use xlink:href="#DejaVuSans-50"/>
       <use x="63.623047" xlink:href="#DejaVuSans-48"/>
       <use x="127.246094" xlink:href="#DejaVuSans-50"/>
       <use x="190.869141" xlink:href="#DejaVuSans-49"/>
       <use x="254.492188" xlink:href="#DejaVuSans-45"/>
       <use x="290.576172" xlink:href="#DejaVuSans-48"/>
       <use x="354.199219" xlink:href="#DejaVuSans-52"/>
      </g>
     </g>
    </g>
    <g id="xtick_7">
     <g id="line2d_7">
      <g>
       <use style="stroke:#000000;stroke-width:0.8;" x="594.564882" xlink:href="#m0d70aa54db" y="460.8"/>
      </g>
     </g>
     <g id="text_7">
      <!-- 2021-07 -->
      <g transform="translate(549.895097 500.766215)rotate(-30)scale(0.12 -0.12)">
       <use xlink:href="#DejaVuSans-50"/>
       <use x="63.623047" xlink:href="#DejaVuSans-48"/>
       <use x="127.246094" xlink:href="#DejaVuSans-50"/>
       <use x="190.869141" xlink:href="#DejaVuSans-49"/>
       <use x="254.492188" xlink:href="#DejaVuSans-45"/>
       <use x="290.576172" xlink:href="#DejaVuSans-48"/>
       <use x="354.199219" xlink:href="#DejaVuSans-55"/>
      </g>
     </g>
    </g>
    <g id="xtick_8">
     <g id="line2d_8">
      <g>
       <use style="stroke:#000000;stroke-width:0.8;" x="671.281196" xlink:href="#m0d70aa54db" y="460.8"/>
      </g>
     </g>
     <g id="text_8">
      <!-- 2021-10 -->
      <g transform="translate(626.611411 500.766215)rotate(-30)scale(0.12 -0.12)">
       <use xlink:href="#DejaVuSans-50"/>
       <use x="63.623047" xlink:href="#DejaVuSans-48"/>
       <use x="127.246094" xlink:href="#DejaVuSans-50"/>
       <use x="190.869141" xlink:href="#DejaVuSans-49"/>
       <use x="254.492188" xlink:href="#DejaVuSans-45"/>
       <use x="290.576172" xlink:href="#DejaVuSans-49"/>
       <use x="354.199219" xlink:href="#DejaVuSans-48"/>
      </g>
     </g>
    </g>
    <g id="xtick_9">
     <g id="line2d_9">
      <g>
       <use style="stroke:#000000;stroke-width:0.8;" x="747.997509" xlink:href="#m0d70aa54db" y="460.8"/>
      </g>
     </g>
     <g id="text_9">
      <!-- 2022-01 -->
      <g transform="translate(703.327724 500.766215)rotate(-30)scale(0.12 -0.12)">
       <use xlink:href="#DejaVuSans-50"/>
       <use x="63.623047" xlink:href="#DejaVuSans-48"/>
       <use x="127.246094" xlink:href="#DejaVuSans-50"/>
       <use x="190.869141" xlink:href="#DejaVuSans-50"/>
       <use x="254.492188" xlink:href="#DejaVuSans-45"/>
       <use x="290.576172" xlink:href="#DejaVuSans-48"/>
       <use x="354.199219" xlink:href="#DejaVuSans-49"/>
      </g>
     </g>
    </g>
    <g id="text_10">
     <!-- Date -->
     <g transform="translate(424.873828 518.325146)scale(0.15 -0.15)">
      <defs>
       <path d="M 19.671875 64.796875 
L 19.671875 8.109375 
L 31.59375 8.109375 
Q 46.6875 8.109375 53.6875 14.9375 
Q 60.6875 21.78125 60.6875 36.53125 
Q 60.6875 51.171875 53.6875 57.984375 
Q 46.6875 64.796875 31.59375 64.796875 
z
M 9.8125 72.90625 
L 30.078125 72.90625 
Q 51.265625 72.90625 61.171875 64.09375 
Q 71.09375 55.28125 71.09375 36.53125 
Q 71.09375 17.671875 61.125 8.828125 
Q 51.171875 0 30.078125 0 
L 9.8125 0 
z
" id="DejaVuSans-68"/>
       <path d="M 34.28125 27.484375 
Q 23.390625 27.484375 19.1875 25 
Q 14.984375 22.515625 14.984375 16.5 
Q 14.984375 11.71875 18.140625 8.90625 
Q 21.296875 6.109375 26.703125 6.109375 
Q 34.1875 6.109375 38.703125 11.40625 
Q 43.21875 16.703125 43.21875 25.484375 
L 43.21875 27.484375 
z
M 52.203125 31.203125 
L 52.203125 0 
L 43.21875 0 
L 43.21875 8.296875 
Q 40.140625 3.328125 35.546875 0.953125 
Q 30.953125 -1.421875 24.3125 -1.421875 
Q 15.921875 -1.421875 10.953125 3.296875 
Q 6 8.015625 6 15.921875 
Q 6 25.140625 12.171875 29.828125 
Q 18.359375 34.515625 30.609375 34.515625 
L 43.21875 34.515625 
L 43.21875 35.40625 
Q 43.21875 41.609375 39.140625 45 
Q 35.0625 48.390625 27.6875 48.390625 
Q 23 48.390625 18.546875 47.265625 
Q 14.109375 46.140625 10.015625 43.890625 
L 10.015625 52.203125 
Q 14.9375 54.109375 19.578125 55.046875 
Q 24.21875 56 28.609375 56 
Q 40.484375 56 46.34375 49.84375 
Q 52.203125 43.703125 52.203125 31.203125 
z
" id="DejaVuSans-97"/>
       <path d="M 18.3125 70.21875 
L 18.3125 54.6875 
L 36.8125 54.6875 
L 36.8125 47.703125 
L 18.3125 47.703125 
L 18.3125 18.015625 
Q 18.3125 11.328125 20.140625 9.421875 
Q 21.96875 7.515625 27.59375 7.515625 
L 36.8125 7.515625 
L 36.8125 0 
L 27.59375 0 
Q 17.1875 0 13.234375 3.875 
Q 9.28125 7.765625 9.28125 18.015625 
L 9.28125 47.703125 
L 2.6875 47.703125 
L 2.6875 54.6875 
L 9.28125 54.6875 
L 9.28125 70.21875 
z
" id="DejaVuSans-116"/>
       <path d="M 56.203125 29.59375 
L 56.203125 25.203125 
L 14.890625 25.203125 
Q 15.484375 15.921875 20.484375 11.0625 
Q 25.484375 6.203125 34.421875 6.203125 
Q 39.59375 6.203125 44.453125 7.46875 
Q 49.3125 8.734375 54.109375 11.28125 
L 54.109375 2.78125 
Q 49.265625 0.734375 44.1875 -0.34375 
Q 39.109375 -1.421875 33.890625 -1.421875 
Q 20.796875 -1.421875 13.15625 6.1875 
Q 5.515625 13.8125 5.515625 26.8125 
Q 5.515625 40.234375 12.765625 48.109375 
Q 20.015625 56 32.328125 56 
Q 43.359375 56 49.78125 48.890625 
Q 56.203125 41.796875 56.203125 29.59375 
z
M 47.21875 32.234375 
Q 47.125 39.59375 43.09375 43.984375 
Q 39.0625 48.390625 32.421875 48.390625 
Q 24.90625 48.390625 20.390625 44.140625 
Q 15.875 39.890625 15.1875 32.171875 
z
" id="DejaVuSans-101"/>
      </defs>
      <use xlink:href="#DejaVuSans-68"/>
      <use x="77.001953" xlink:href="#DejaVuSans-97"/>
      <use x="138.28125" xlink:href="#DejaVuSans-116"/>
      <use x="177.490234" xlink:href="#DejaVuSans-101"/>
     </g>
    </g>
   </g>
   <g id="matplotlib.axis_2">
    <g id="ytick_1">
     <g id="line2d_10">
      <defs>
       <path d="M 0 0 
L -3.5 0 
" id="m1dcdeb6fb7" style="stroke:#000000;stroke-width:0.8;"/>
      </defs>
      <g>
       <use style="stroke:#000000;stroke-width:0.8;" x="108" xlink:href="#m1dcdeb6fb7" y="449.485861"/>
      </g>
     </g>
     <g id="text_11">
      <!-- 0 -->
      <g transform="translate(93.365 454.044924)scale(0.12 -0.12)">
       <use xlink:href="#DejaVuSans-48"/>
      </g>
     </g>
    </g>
    <g id="ytick_2">
     <g id="line2d_11">
      <g>
       <use style="stroke:#000000;stroke-width:0.8;" x="108" xlink:href="#m1dcdeb6fb7" y="388.488722"/>
      </g>
     </g>
     <g id="text_12">
      <!-- 2 -->
      <g transform="translate(93.365 393.047784)scale(0.12 -0.12)">
       <use xlink:href="#DejaVuSans-50"/>
      </g>
     </g>
    </g>
    <g id="ytick_3">
     <g id="line2d_12">
      <g>
       <use style="stroke:#000000;stroke-width:0.8;" x="108" xlink:href="#m1dcdeb6fb7" y="327.491583"/>
      </g>
     </g>
     <g id="text_13">
      <!-- 4 -->
      <g transform="translate(93.365 332.050645)scale(0.12 -0.12)">
       <use xlink:href="#DejaVuSans-52"/>
      </g>
     </g>
    </g>
    <g id="ytick_4">
     <g id="line2d_13">
      <g>
       <use style="stroke:#000000;stroke-width:0.8;" x="108" xlink:href="#m1dcdeb6fb7" y="266.494443"/>
      </g>
     </g>
     <g id="text_14">
      <!-- 6 -->
      <g transform="translate(93.365 271.053506)scale(0.12 -0.12)">
       <defs>
        <path d="M 33.015625 40.375 
Q 26.375 40.375 22.484375 35.828125 
Q 18.609375 31.296875 18.609375 23.390625 
Q 18.609375 15.53125 22.484375 10.953125 
Q 26.375 6.390625 33.015625 6.390625 
Q 39.65625 6.390625 43.53125 10.953125 
Q 47.40625 15.53125 47.40625 23.390625 
Q 47.40625 31.296875 43.53125 35.828125 
Q 39.65625 40.375 33.015625 40.375 
z
M 52.59375 71.296875 
L 52.59375 62.3125 
Q 48.875 64.0625 45.09375 64.984375 
Q 41.3125 65.921875 37.59375 65.921875 
Q 27.828125 65.921875 22.671875 59.328125 
Q 17.53125 52.734375 16.796875 39.40625 
Q 19.671875 43.65625 24.015625 45.921875 
Q 28.375 48.1875 33.59375 48.1875 
Q 44.578125 48.1875 50.953125 41.515625 
Q 57.328125 34.859375 57.328125 23.390625 
Q 57.328125 12.15625 50.6875 5.359375 
Q 44.046875 -1.421875 33.015625 -1.421875 
Q 20.359375 -1.421875 13.671875 8.265625 
Q 6.984375 17.96875 6.984375 36.375 
Q 6.984375 53.65625 15.1875 63.9375 
Q 23.390625 74.21875 37.203125 74.21875 
Q 40.921875 74.21875 44.703125 73.484375 
Q 48.484375 72.75 52.59375 71.296875 
z
" id="DejaVuSans-54"/>
       </defs>
       <use xlink:href="#DejaVuSans-54"/>
      </g>
     </g>
    </g>
    <g id="ytick_5">
     <g id="line2d_14">
      <g>
       <use style="stroke:#000000;stroke-width:0.8;" x="108" xlink:href="#m1dcdeb6fb7" y="205.497304"/>
      </g>
     </g>
     <g id="text_15">
      <!-- 8 -->
      <g transform="translate(93.365 210.056367)scale(0.12 -0.12)">
       <defs>
        <path d="M 31.78125 34.625 
Q 24.75 34.625 20.71875 30.859375 
Q 16.703125 27.09375 16.703125 20.515625 
Q 16.703125 13.921875 20.71875 10.15625 
Q 24.75 6.390625 31.78125 6.390625 
Q 38.8125 6.390625 42.859375 10.171875 
Q 46.921875 13.96875 46.921875 20.515625 
Q 46.921875 27.09375 42.890625 30.859375 
Q 38.875 34.625 31.78125 34.625 
z
M 21.921875 38.8125 
Q 15.578125 40.375 12.03125 44.71875 
Q 8.5 49.078125 8.5 55.328125 
Q 8.5 64.0625 14.71875 69.140625 
Q 20.953125 74.21875 31.78125 74.21875 
Q 42.671875 74.21875 48.875 69.140625 
Q 55.078125 64.0625 55.078125 55.328125 
Q 55.078125 49.078125 51.53125 44.71875 
Q 48 40.375 41.703125 38.8125 
Q 48.828125 37.15625 52.796875 32.3125 
Q 56.78125 27.484375 56.78125 20.515625 
Q 56.78125 9.90625 50.3125 4.234375 
Q 43.84375 -1.421875 31.78125 -1.421875 
Q 19.734375 -1.421875 13.25 4.234375 
Q 6.78125 9.90625 6.78125 20.515625 
Q 6.78125 27.484375 10.78125 32.3125 
Q 14.796875 37.15625 21.921875 38.8125 
z
M 18.3125 54.390625 
Q 18.3125 48.734375 21.84375 45.5625 
Q 25.390625 42.390625 31.78125 42.390625 
Q 38.140625 42.390625 41.71875 45.5625 
Q 45.3125 48.734375 45.3125 54.390625 
Q 45.3125 60.0625 41.71875 63.234375 
Q 38.140625 66.40625 31.78125 66.40625 
Q 25.390625 66.40625 21.84375 63.234375 
Q 18.3125 60.0625 18.3125 54.390625 
z
" id="DejaVuSans-56"/>
       </defs>
       <use xlink:href="#DejaVuSans-56"/>
      </g>
     </g>
    </g>
    <g id="ytick_6">
     <g id="line2d_15">
      <g>
       <use style="stroke:#000000;stroke-width:0.8;" x="108" xlink:href="#m1dcdeb6fb7" y="144.500165"/>
      </g>
     </g>
     <g id="text_16">
      <!-- 10 -->
      <g transform="translate(85.73 149.059227)scale(0.12 -0.12)">
       <use xlink:href="#DejaVuSans-49"/>
       <use x="63.623047" xlink:href="#DejaVuSans-48"/>
      </g>
     </g>
    </g>
    <g id="ytick_7">
     <g id="line2d_16">
      <g>
       <use style="stroke:#000000;stroke-width:0.8;" x="108" xlink:href="#m1dcdeb6fb7" y="83.503025"/>
      </g>
     </g>
     <g id="text_17">
      <!-- 12 -->
      <g transform="translate(85.73 88.062088)scale(0.12 -0.12)">
       <use xlink:href="#DejaVuSans-49"/>
       <use x="63.623047" xlink:href="#DejaVuSans-50"/>
      </g>
     </g>
    </g>
    <g id="text_18">
     <!-- SO2(ppm) -->
     <g transform="translate(78.610469 303.077578)rotate(-90)scale(0.15 -0.15)">
      <defs>
       <path d="M 53.515625 70.515625 
L 53.515625 60.890625 
Q 47.90625 63.578125 42.921875 64.890625 
Q 37.9375 66.21875 33.296875 66.21875 
Q 25.25 66.21875 20.875 63.09375 
Q 16.5 59.96875 16.5 54.203125 
Q 16.5 49.359375 19.40625 46.890625 
Q 22.3125 44.4375 30.421875 42.921875 
L 36.375 41.703125 
Q 47.40625 39.59375 52.65625 34.296875 
Q 57.90625 29 57.90625 20.125 
Q 57.90625 9.515625 50.796875 4.046875 
Q 43.703125 -1.421875 29.984375 -1.421875 
Q 24.8125 -1.421875 18.96875 -0.25 
Q 13.140625 0.921875 6.890625 3.21875 
L 6.890625 13.375 
Q 12.890625 10.015625 18.65625 8.296875 
Q 24.421875 6.59375 29.984375 6.59375 
Q 38.421875 6.59375 43.015625 9.90625 
Q 47.609375 13.234375 47.609375 19.390625 
Q 47.609375 24.75 44.3125 27.78125 
Q 41.015625 30.8125 33.5 32.328125 
L 27.484375 33.5 
Q 16.453125 35.6875 11.515625 40.375 
Q 6.59375 45.0625 6.59375 53.421875 
Q 6.59375 63.09375 13.40625 68.65625 
Q 20.21875 74.21875 32.171875 74.21875 
Q 37.3125 74.21875 42.625 73.28125 
Q 47.953125 72.359375 53.515625 70.515625 
z
" id="DejaVuSans-83"/>
       <path d="M 39.40625 66.21875 
Q 28.65625 66.21875 22.328125 58.203125 
Q 16.015625 50.203125 16.015625 36.375 
Q 16.015625 22.609375 22.328125 14.59375 
Q 28.65625 6.59375 39.40625 6.59375 
Q 50.140625 6.59375 56.421875 14.59375 
Q 62.703125 22.609375 62.703125 36.375 
Q 62.703125 50.203125 56.421875 58.203125 
Q 50.140625 66.21875 39.40625 66.21875 
z
M 39.40625 74.21875 
Q 54.734375 74.21875 63.90625 63.9375 
Q 73.09375 53.65625 73.09375 36.375 
Q 73.09375 19.140625 63.90625 8.859375 
Q 54.734375 -1.421875 39.40625 -1.421875 
Q 24.03125 -1.421875 14.8125 8.828125 
Q 5.609375 19.09375 5.609375 36.375 
Q 5.609375 53.65625 14.8125 63.9375 
Q 24.03125 74.21875 39.40625 74.21875 
z
" id="DejaVuSans-79"/>
       <path d="M 31 75.875 
Q 24.46875 64.65625 21.28125 53.65625 
Q 18.109375 42.671875 18.109375 31.390625 
Q 18.109375 20.125 21.3125 9.0625 
Q 24.515625 -2 31 -13.1875 
L 23.1875 -13.1875 
Q 15.875 -1.703125 12.234375 9.375 
Q 8.59375 20.453125 8.59375 31.390625 
Q 8.59375 42.28125 12.203125 53.3125 
Q 15.828125 64.359375 23.1875 75.875 
z
" id="DejaVuSans-40"/>
       <path d="M 18.109375 8.203125 
L 18.109375 -20.796875 
L 9.078125 -20.796875 
L 9.078125 54.6875 
L 18.109375 54.6875 
L 18.109375 46.390625 
Q 20.953125 51.265625 25.265625 53.625 
Q 29.59375 56 35.59375 56 
Q 45.5625 56 51.78125 48.09375 
Q 58.015625 40.1875 58.015625 27.296875 
Q 58.015625 14.40625 51.78125 6.484375 
Q 45.5625 -1.421875 35.59375 -1.421875 
Q 29.59375 -1.421875 25.265625 0.953125 
Q 20.953125 3.328125 18.109375 8.203125 
z
M 48.6875 27.296875 
Q 48.6875 37.203125 44.609375 42.84375 
Q 40.53125 48.484375 33.40625 48.484375 
Q 26.265625 48.484375 22.1875 42.84375 
Q 18.109375 37.203125 18.109375 27.296875 
Q 18.109375 17.390625 22.1875 11.75 
Q 26.265625 6.109375 33.40625 6.109375 
Q 40.53125 6.109375 44.609375 11.75 
Q 48.6875 17.390625 48.6875 27.296875 
z
" id="DejaVuSans-112"/>
       <path d="M 52 44.1875 
Q 55.375 50.25 60.0625 53.125 
Q 64.75 56 71.09375 56 
Q 79.640625 56 84.28125 50.015625 
Q 88.921875 44.046875 88.921875 33.015625 
L 88.921875 0 
L 79.890625 0 
L 79.890625 32.71875 
Q 79.890625 40.578125 77.09375 44.375 
Q 74.3125 48.1875 68.609375 48.1875 
Q 61.625 48.1875 57.5625 43.546875 
Q 53.515625 38.921875 53.515625 30.90625 
L 53.515625 0 
L 44.484375 0 
L 44.484375 32.71875 
Q 44.484375 40.625 41.703125 44.40625 
Q 38.921875 48.1875 33.109375 48.1875 
Q 26.21875 48.1875 22.15625 43.53125 
Q 18.109375 38.875 18.109375 30.90625 
L 18.109375 0 
L 9.078125 0 
L 9.078125 54.6875 
L 18.109375 54.6875 
L 18.109375 46.1875 
Q 21.1875 51.21875 25.484375 53.609375 
Q 29.78125 56 35.6875 56 
Q 41.65625 56 45.828125 52.96875 
Q 50 49.953125 52 44.1875 
z
" id="DejaVuSans-109"/>
       <path d="M 8.015625 75.875 
L 15.828125 75.875 
Q 23.140625 64.359375 26.78125 53.3125 
Q 30.421875 42.28125 30.421875 31.390625 
Q 30.421875 20.453125 26.78125 9.375 
Q 23.140625 -1.703125 15.828125 -13.1875 
L 8.015625 -13.1875 
Q 14.5 -2 17.703125 9.0625 
Q 20.90625 20.125 20.90625 31.390625 
Q 20.90625 42.671875 17.703125 53.65625 
Q 14.5 64.65625 8.015625 75.875 
z
" id="DejaVuSans-41"/>
      </defs>
      <use xlink:href="#DejaVuSans-83"/>
      <use x="63.476562" xlink:href="#DejaVuSans-79"/>
      <use x="142.1875" xlink:href="#DejaVuSans-50"/>
      <use x="205.810547" xlink:href="#DejaVuSans-40"/>
      <use x="244.824219" xlink:href="#DejaVuSans-112"/>
      <use x="308.300781" xlink:href="#DejaVuSans-112"/>
      <use x="371.777344" xlink:href="#DejaVuSans-109"/>
      <use x="469.189453" xlink:href="#DejaVuSans-41"/>
     </g>
    </g>
   </g>
   <g id="line2d_17">
    <path clip-path="url(#p36fe6746c4)" d="M 138.436364 400.343516 
L 139.270237 401.042696 
L 140.10411 374.640338 
L 140.937983 370.878085 
L 141.771856 388.157812 
L 142.605729 381.878223 
L 143.439601 377.370468 
L 144.273474 360.85651 
L 145.107347 384.428854 
L 145.94122 382.697552 
L 146.775093 385.194622 
L 147.608966 338.948879 
L 148.442839 341.679009 
L 149.276712 379.268242 
L 150.110585 392.119831 
L 150.944458 391.587122 
L 151.778331 369.779374 
L 152.612204 336.318631 
L 153.446077 356.162017 
L 154.27995 351.800468 
L 155.113823 376.771171 
L 155.947696 385.760625 
L 156.781569 384.39556 
L 157.615442 393.151953 
L 158.449315 399.411276 
L 159.283188 402.640821 
L 160.117061 399.943985 
L 160.950934 387.392044 
L 161.784807 365.084882 
L 162.61868 355.962252 
L 164.286426 378.702239 
L 165.120299 389.522878 
L 165.954172 388.29099 
L 166.788045 399.577748 
L 167.621918 398.012917 
L 168.455791 398.745391 
L 169.289664 391.753594 
L 170.123537 397.480209 
L 170.95741 389.389701 
L 171.791283 391.087708 
L 172.625156 390.188763 
L 173.459029 394.117487 
L 175.126775 395.815495 
L 175.960648 395.815495 
L 176.794521 400.776342 
L 177.628394 379.867539 
L 178.462267 366.283476 
L 179.296139 367.981484 
L 180.130012 369.27996 
L 180.963885 375.472695 
L 181.797758 353.165533 
L 182.631631 382.198138 
L 183.465504 384.62862 
L 184.299377 382.963906 
L 185.13325 379.277322 
L 185.967123 384.029323 
L 186.800996 380.167187 
L 187.634869 363.653228 
L 188.468742 386.359922 
L 189.302615 385.927096 
L 190.136488 386.393216 
L 190.970361 386.726159 
L 191.804234 382.031666 
L 192.638107 346.406796 
L 195.139726 269.064202 
L 196.807472 379.234948 
L 197.641345 384.428854 
L 198.475218 377.836588 
L 199.309091 379.80095 
L 200.142964 357.993202 
L 200.976837 376.73485 
L 201.81071 383.263555 
L 204.312329 365.417825 
L 205.146202 370.578437 
L 205.980075 377.30388 
L 206.813948 375.572578 
L 207.647821 382.897318 
L 208.481694 381.598841 
L 209.315567 372.043385 
L 210.14944 369.679492 
L 210.983313 367.681835 
L 211.817186 371.777031 
L 212.651059 359.824387 
L 213.484932 341.279478 
L 214.318804 352.466353 
L 215.152677 356.864092 
L 215.98655 360.057447 
L 216.820423 358.059791 
L 217.654296 357.926614 
L 218.488169 360.923098 
L 219.322042 348.171392 
L 220.155915 331.224608 
L 220.989788 332.95591 
L 221.823661 346.573267 
L 222.657534 352.166705 
L 223.491407 328.960597 
L 224.32528 289.240531 
L 225.159153 286.776755 
L 225.993026 285.444984 
L 226.826899 325.464699 
L 227.660772 335.086743 
L 228.494645 340.04759 
L 229.328518 337.317459 
L 230.162391 334.187798 
L 230.996264 337.550519 
L 231.830137 337.983345 
L 234.331756 326.530115 
L 235.165629 303.090948 
L 235.999502 264.036767 
L 236.833375 269.963147 
L 237.667248 321.402797 
L 238.501121 320.470558 
L 239.334994 328.927303 
L 240.168867 330.259074 
L 241.00274 324.998579 
L 241.836613 327.695415 
L 242.670486 326.896352 
L 243.504359 322.568097 
L 244.338232 320.969972 
L 245.172105 321.50268 
L 246.005978 317.573956 
L 246.839851 326.996235 
L 248.507597 296.465388 
L 249.341469 291.671013 
L 250.175342 314.677354 
L 251.009215 350.535285 
L 251.843088 353.731535 
L 252.676961 353.76483 
L 253.510834 349.203514 
L 254.344707 345.541144 
L 255.17858 345.707616 
L 256.012453 341.812186 
L 256.846326 344.908553 
L 257.680199 345.241496 
L 258.514072 346.20703 
L 259.347945 340.180767 
L 260.181818 337.160501 
L 261.015691 332.856027 
L 261.849564 331.624139 
L 262.683437 334.254386 
L 264.351183 342.811014 
L 265.185056 340.247355 
L 266.018929 339.215233 
L 266.852802 335.419686 
L 267.686675 332.689556 
L 268.520548 332.02367 
L 269.354421 327.861886 
L 270.188294 332.523084 
L 271.022167 332.656261 
L 271.85604 326.996235 
L 272.689913 331.990376 
L 273.523786 312.61311 
L 274.357659 305.454841 
L 275.191532 308.318149 
L 276.025405 305.687901 
L 276.859278 301.559411 
L 277.693151 295.993214 
L 278.527024 296.998096 
L 279.360897 292.470075 
L 280.19477 292.370192 
L 281.028643 293.935023 
L 281.862516 269.82997 
L 282.696389 282.215439 
L 283.530262 245.325386 
L 284.364134 272.693278 
L 285.198007 423.516329 
L 286.03188 439.197931 
L 287.699626 426.546108 
L 288.533499 437.499923 
L 289.367372 432.472488 
L 290.201245 441.828179 
L 291.035118 434.103908 
L 291.868991 432.505783 
L 292.702864 436.201447 
L 293.536737 432.572371 
L 294.37061 431.040835 
L 295.204483 429.176355 
L 296.038356 430.208478 
L 296.872229 430.008712 
L 297.706102 431.606837 
L 298.539975 429.642475 
L 299.373848 431.373777 
L 300.207721 428.810118 
L 301.041594 428.244116 
L 301.875467 425.54728 
L 302.70934 426.179871 
L 303.543213 429.642475 
L 304.377086 428.27741 
L 305.210959 428.577059 
L 306.044832 424.541214 
L 306.878705 429.875535 
L 307.712578 429.808947 
L 308.546451 423.449741 
L 309.380324 420.153608 
L 310.214197 422.750561 
L 311.04807 426.945639 
L 311.881943 422.450912 
L 312.715816 419.054897 
L 313.549689 422.11797 
L 314.383562 421.485379 
L 315.217435 424.947983 
L 316.051308 421.663957 
L 316.885181 422.417618 
L 317.719054 416.890769 
L 318.552927 416.224884 
L 319.3868 418.255834 
L 320.220672 427.944467 
L 321.054545 428.04435 
L 321.888418 432.672254 
L 322.722291 424.648334 
L 323.556164 417.789714 
L 324.390037 417.623243 
L 325.22391 421.851616 
L 326.057783 417.656537 
L 326.891656 416.029461 
L 327.725529 418.389011 
L 328.559402 424.182215 
L 329.393275 419.820665 
L 330.227148 416.624415 
L 331.061021 414.193933 
L 331.894894 413.894285 
L 332.728767 412.362748 
L 333.56264 409.366264 
L 334.396513 414.56017 
L 335.230386 412.462631 
L 336.064259 410.962636 
L 336.898132 409.000027 
L 337.732005 400.310222 
L 338.565878 400.110456 
L 339.399751 398.57892 
L 340.233624 399.477865 
L 341.067497 399.544453 
L 343.569116 387.958047 
L 344.402989 392.852305 
L 345.236862 396.914206 
L 346.070735 400.210339 
L 346.904608 401.841758 
L 347.738481 400.310222 
L 348.572354 406.336485 
L 349.406227 402.940469 
L 350.2401 373.708098 
L 351.073973 362.754283 
L 351.907846 362.920754 
L 352.741719 366.31677 
L 353.575592 363.567615 
L 354.409465 366.250182 
L 355.243337 341.945363 
L 356.07721 356.794608 
L 356.911083 357.693554 
L 357.744956 363.35358 
L 358.578829 364.585468 
L 359.412702 362.321457 
L 360.246575 361.156158 
L 361.080448 356.994374 
L 361.914321 356.428371 
L 362.748194 361.622278 
L 363.582067 361.289335 
L 364.41594 359.524739 
L 365.249813 362.587812 
L 366.083686 359.791093 
L 366.917559 364.918411 
L 368.585305 360.556861 
L 369.419178 359.324973 
L 370.253051 368.214544 
L 371.086924 368.114661 
L 373.588543 328.960597 
L 374.422416 302.558239 
L 375.256289 330.991548 
L 376.090162 337.417342 
L 376.924035 356.195311 
L 377.757908 357.726848 
L 378.591781 351.66729 
L 379.425654 342.54466 
L 381.0934 315.409828 
L 381.927273 321.802329 
L 382.761146 318.939021 
L 383.595019 316.774894 
L 384.428892 299.728226 
L 385.262765 265.268655 
L 386.096638 254.048485 
L 386.930511 303.956599 
L 387.764384 318.77255 
L 388.598257 318.373019 
L 389.43213 324.033045 
L 390.266002 331.657433 
L 391.099875 325.930818 
L 391.933748 325.997407 
L 392.767621 324.499165 
L 393.601494 301.193174 
L 394.435367 305.188487 
L 395.26924 300.527289 
L 396.103113 303.723539 
L 396.936986 267.699137 
L 397.770859 226.281063 
L 398.604732 221.320216 
L 399.438605 221.519982 
L 400.272478 208.168979 
L 401.106351 269.230673 
L 401.940224 267.017583 
L 402.774097 228.012365 
L 403.60797 253.981897 
L 404.441843 306.786612 
L 405.275716 300.061169 
L 406.109589 315.069648 
L 406.943462 311.747459 
L 407.777335 310.448982 
L 408.611208 313.611938 
L 409.445081 312.479932 
L 410.278954 313.145818 
L 411.9467 303.89001 
L 412.780573 305.488135 
L 413.614446 312.679698 
L 414.448319 304.788956 
L 415.282192 299.661638 
L 416.116065 280.58402 
L 416.949938 269.663499 
L 417.783811 264.969007 
L 418.617684 259.042626 
L 419.451557 273.192692 
L 420.28543 267.466077 
L 421.953176 228.112248 
L 422.787049 182.279353 
L 423.620922 228.245425 
L 424.454795 244.626206 
L 425.288667 215.460424 
L 426.12254 286.295501 
L 426.956413 281.47428 
L 427.790286 309.271416 
L 429.458032 286.776755 
L 430.291905 257.311324 
L 431.125778 245.797559 
L 431.959651 243.061376 
L 432.793524 238.133823 
L 433.627397 208.768276 
L 434.46127 192.687142 
L 435.295143 198.51364 
L 436.129016 212.863471 
L 436.962889 271.428095 
L 437.796762 265.701481 
L 438.630635 295.732914 
L 439.464508 268.897731 
L 440.298381 268.864436 
L 441.132254 282.348616 
L 441.966127 266.067717 
L 442.8 224.949292 
L 443.633873 191.455254 
L 444.467746 189.324421 
L 445.301619 218.15726 
L 446.135492 168.249147 
L 446.969365 92.304913 
L 447.803238 231.375086 
L 448.637111 252.050829 
L 449.470984 243.227847 
L 450.304857 190.289955 
L 451.13873 160.857818 
L 451.972603 182.166152 
L 452.806476 136.952531 
L 453.640349 158.260865 
L 454.474222 164.68666 
L 455.308095 210.033458 
L 456.141968 239.632066 
L 456.975841 236.102873 
L 457.809714 180.767793 
L 458.643587 246.596622 
L 459.47746 255.213785 
L 460.311333 250.019878 
L 461.145205 262.671702 
L 461.979078 264.143309 
L 462.812951 274.923994 
L 463.646824 269.563616 
L 464.480697 271.22833 
L 465.31457 262.771585 
L 466.148443 267.932197 
L 466.982316 245.258798 
L 467.816189 257.344618 
L 468.650062 249.320699 
L 469.483935 261.273342 
L 470.317808 248.721402 
L 471.151681 258.842861 
L 471.985554 254.148368 
L 472.819427 261.572991 
L 473.6533 246.557274 
L 474.487173 250.119761 
L 475.321046 260.440986 
L 476.154919 262.538525 
L 476.988792 277.487653 
L 477.822665 273.692106 
L 478.656538 254.847548 
L 479.490411 250.286233 
L 480.324284 264.636064 
L 481.158157 249.353993 
L 481.99203 253.415894 
L 482.825903 256.911793 
L 483.659776 237.534527 
L 484.493649 237.534527 
L 485.327522 240.5976 
L 486.161395 253.582366 
L 486.995268 255.546728 
L 487.829141 246.390803 
L 488.663014 259.575334 
L 489.496887 257.810738 
L 490.33076 256.945087 
L 491.164633 250.352821 
L 491.998506 249.02105 
L 492.832379 241.962665 
L 493.666252 237.068407 
L 494.500125 254.980725 
L 495.333998 249.420582 
L 496.16787 245.258798 
L 497.001743 256.212613 
L 497.835616 246.52398 
L 498.669489 256.212613 
L 499.503362 248.55493 
L 500.337235 252.550243 
L 501.171108 250.719058 
L 502.004981 231.441675 
L 502.838854 245.092326 
L 503.672727 247.755868 
L 504.5066 246.856923 
L 505.340473 248.188694 
L 506.174346 249.820113 
L 507.008219 254.048485 
L 507.842092 256.545556 
L 508.675965 260.873811 
L 509.509838 243.061376 
L 510.343711 215.593601 
L 511.177584 193.219851 
L 512.011457 116.693691 
L 513.679203 337.650402 
L 514.513076 349.469869 
L 515.346949 347.239152 
L 516.180822 351.90035 
L 517.014695 347.205858 
L 517.848568 339.914413 
L 518.682441 344.109491 
L 519.516314 344.975142 
L 520.350187 347.172564 
L 521.18406 346.107147 
L 522.017933 349.503163 
L 522.851806 349.669634 
L 523.685679 352.36647 
L 524.519552 350.169048 
L 525.353425 349.802811 
L 526.187298 347.105975 
L 527.021171 352.033527 
L 527.855044 351.933645 
L 528.688917 349.802811 
L 529.52279 350.268931 
L 530.356663 349.935988 
L 531.190535 352.033527 
L 532.024408 346.872915 
L 532.858281 352.299882 
L 533.692154 347.705272 
L 534.526027 348.570923 
L 535.3599 350.302225 
L 536.193773 348.071509 
L 537.027646 344.580367 
L 537.861519 355.56272 
L 538.695392 353.365298 
L 539.529265 356.062134 
L 540.363138 348.837277 
L 541.197011 344.875259 
L 542.030884 346.44009 
L 542.864757 341.179595 
L 543.69863 348.204686 
L 544.532503 348.071509 
L 545.366376 347.705272 
L 546.200249 341.445949 
L 547.034122 341.179595 
L 547.867995 346.606561 
L 548.701868 343.443605 
L 549.535741 339.481587 
L 550.369614 341.512538 
L 551.203487 342.178423 
L 552.03736 341.212889 
L 552.871233 341.579126 
L 553.705106 340.014295 
L 554.538979 336.651574 
L 555.372852 339.148644 
L 556.206725 343.210545 
L 557.040598 341.712303 
L 557.874471 338.749113 
L 558.708344 340.879946 
L 559.542217 340.913241 
L 560.37609 340.513709 
L 561.209963 344.076197 
L 562.043836 346.573267 
L 562.877709 350.934817 
L 563.711582 347.871743 
L 564.545455 345.674322 
L 565.379328 339.048761 
L 566.2132 338.682524 
L 567.047073 340.513709 
L 567.880946 341.84548 
L 568.714819 337.750285 
L 569.548692 339.181939 
L 570.382565 336.085571 
L 572.050311 337.816873 
L 572.884184 337.783579 
L 573.718057 337.284165 
L 574.55193 340.780064 
L 575.385803 342.711131 
L 577.053549 350.33552 
L 578.721295 283.214268 
L 579.555168 274.757522 
L 580.389041 274.824111 
L 581.222914 274.391285 
L 582.056787 278.553069 
L 582.89066 272.526806 
L 583.724533 276.022705 
L 584.558406 277.654124 
L 585.392279 280.983551 
L 586.226152 275.889528 
L 587.060025 279.418721 
L 587.893898 271.694449 
L 588.727771 272.360335 
L 589.561644 272.726572 
L 590.395517 269.896559 
L 591.22939 275.123759 
L 592.063263 271.195035 
L 592.897136 271.694449 
L 593.731009 272.060686 
L 594.564882 273.991754 
L 595.398755 271.627861 
L 596.232628 272.78408 
L 597.066501 275.856233 
L 598.734247 279.751663 
L 599.56812 272.859749 
L 600.401993 281.616142 
L 601.235866 282.947913 
L 602.069738 276.821767 
L 602.903611 279.052484 
L 603.737484 275.789645 
L 605.40523 271.22833 
L 606.239103 278.353304 
L 607.072976 273.092809 
L 607.906849 276.022705 
L 608.740722 279.851546 
L 609.574595 279.751663 
L 610.408468 276.855062 
L 611.242341 274.757522 
L 612.076214 273.592223 
L 612.910087 277.487653 
L 613.74396 275.556585 
L 614.577833 279.252249 
L 615.411706 276.821767 
L 616.245579 278.053655 
L 617.079452 273.558929 
L 617.913325 273.692106 
L 618.747198 276.755179 
L 619.581071 277.021533 
L 620.414944 274.025048 
L 621.248817 269.497028 
L 622.08269 280.151195 
L 622.916563 270.99527 
L 623.750436 272.959632 
L 624.584309 267.665843 
L 625.418182 268.365022 
L 626.252055 268.531494 
L 627.085928 271.994098 
L 627.919801 268.897731 
L 628.753674 268.331728 
L 629.587547 270.928681 
L 630.42142 269.996442 
L 631.255293 267.133134 
L 632.089166 269.297262 
L 632.923039 268.797848 
L 633.756912 265.93454 
L 634.590785 270.429267 
L 635.424658 272.260452 
L 636.258531 269.82997 
L 637.092403 270.196207 
L 637.926276 267.299606 
L 638.760149 267.998785 
L 639.594022 266.900074 
L 640.427895 266.766897 
L 641.261768 271.561272 
L 642.095641 268.964319 
L 642.929514 269.59691 
L 643.763387 272.160569 
L 644.59726 270.229501 
L 645.431133 273.359163 
L 646.265006 268.997613 
L 647.098879 268.598082 
L 647.932752 275.822939 
L 648.766625 271.594567 
L 649.600498 274.158226 
L 650.434371 269.82997 
L 651.268244 270.928681 
L 652.102117 273.126103 
L 652.93599 272.293746 
L 653.769863 277.953773 
L 655.437609 273.225986 
L 656.271482 274.291403 
L 657.105355 268.464905 
L 657.939228 271.894215 
L 658.773101 269.696793 
L 659.606974 269.563616 
L 660.440847 274.65764 
L 661.27472 271.860921 
L 662.108593 267.932197 
L 662.942466 275.623174 
L 663.776339 279.818252 
L 665.444085 274.591051 
L 666.277958 277.454358 
L 667.111831 273.95846 
L 667.945704 280.1179 
L 668.779577 277.121416 
L 669.61345 278.453187 
L 670.447323 278.786129 
L 671.281196 279.318838 
L 672.115068 276.988239 
L 672.948941 275.323525 
L 673.782814 275.023877 
L 674.616687 274.357991 
L 675.45056 275.856233 
L 676.284433 275.356819 
L 677.118306 276.388942 
L 677.952179 272.693278 
L 678.786052 224.649643 
L 679.619925 258.433817 
L 680.453798 275.090465 
L 681.287671 280.184489 
L 682.121544 275.656468 
L 682.955417 267.399488 
L 683.78929 267.965491 
L 684.623163 270.362679 
L 685.457036 267.898902 
L 686.290909 262.864809 
L 687.124782 266.267483 
L 687.958655 266.467249 
L 688.792528 264.902418 
L 689.626401 262.172288 
L 690.460274 262.50523 
L 691.294147 263.058428 
L 692.12802 266.272239 
L 692.961893 281.349788 
L 693.795766 284.94557 
L 694.629639 282.348616 
L 695.463512 280.650609 
L 696.297385 277.587536 
L 697.965131 285.478278 
L 698.799004 284.612627 
L 699.632877 285.944398 
L 700.46675 285.977692 
L 701.300623 281.116728 
L 702.134496 283.980036 
L 702.968369 283.380739 
L 704.636115 242.528667 
L 705.469988 233.306154 
L 706.303861 194.003779 
L 707.137733 190.323249 
L 707.971606 233.27286 
L 708.805479 266.067717 
L 709.639352 257.610972 
L 710.473225 254.714371 
L 711.307098 256.984435 
L 712.140971 253.061764 
L 712.974844 278.849691 
L 713.808717 278.341197 
L 714.64259 274.963342 
L 715.476463 242.564988 
L 717.144209 192.151407 
L 717.978082 184.269745 
L 718.811955 214.5978 
L 719.645828 234.538042 
L 720.479701 235.119178 
L 721.313574 238.170144 
L 722.147447 216.777061 
L 722.98132 184.523992 
L 723.815193 202.321294 
L 724.649066 179.83858 
L 725.482939 197.454277 
L 726.316812 193.67689 
L 727.150685 202.17601 
L 727.984558 257.856139 
L 728.818431 266.173654 
L 729.652304 264.938739 
L 730.486177 269.660472 
L 731.32005 262.723157 
L 732.153923 246.560301 
L 732.987796 239.332417 
L 733.821669 253.788185 
L 735.489415 237.334761 
L 737.157161 160.079943 
L 738.824907 247.795216 
L 739.65878 235.772957 
L 740.492653 221.571437 
L 741.326526 213.326564 
L 742.160399 219.174249 
L 742.994271 229.562062 
L 743.828144 224.477118 
L 744.662017 176.388083 
L 745.49589 164.256861 
L 746.329763 185.795228 
L 747.163636 175.371094 
L 747.163636 175.371094 
" style="fill:none;stroke:#1f77b4;stroke-linecap:square;stroke-width:1.5;"/>
   </g>
   <g id="line2d_18">
    <path clip-path="url(#p36fe6746c4)" d="M 138.436364 397.481458 
L 139.270237 400.576062 
L 140.10411 376.717511 
L 140.937983 374.507425 
L 141.771856 389.156694 
L 142.605729 383.210613 
L 143.439601 379.539359 
L 144.273474 352.27123 
L 145.107347 387.263031 
L 145.94122 375.438943 
L 146.775093 380.73841 
L 147.608966 343.06405 
L 148.442839 329.199587 
L 149.276712 367.385682 
L 150.110585 384.458043 
L 150.944458 393.984259 
L 151.778331 375.051716 
L 152.612204 332.321729 
L 153.446077 366.051785 
L 154.27995 362.47193 
L 155.113823 372.792242 
L 155.947696 391.345547 
L 156.781569 372.136931 
L 157.615442 398.06903 
L 158.449315 402.753913 
L 159.283188 399.719583 
L 160.117061 381.321437 
L 160.950934 367.455961 
L 161.784807 348.330012 
L 162.61868 338.525796 
L 163.452553 349.762199 
L 164.286426 358.461279 
L 165.120299 392.167833 
L 165.954172 391.065951 
L 166.788045 400.028695 
L 167.621918 403.53175 
L 168.455791 404.239581 
L 169.289664 392.576251 
L 170.123537 401.895399 
L 171.791283 392.421337 
L 172.625156 388.967187 
L 173.459029 399.301224 
L 174.292902 400.931104 
L 175.126775 399.412409 
L 175.960648 400.952385 
L 176.794521 396.745181 
L 177.628394 355.977986 
L 178.462267 346.765704 
L 179.296139 352.159092 
L 180.130012 365.727458 
L 180.963885 375.264867 
L 181.797758 351.097525 
L 182.631631 393.242647 
L 183.465504 388.754458 
L 184.299377 385.204537 
L 185.13325 380.260042 
L 185.967123 383.896111 
L 186.800996 390.435067 
L 187.634869 360.576126 
L 188.468742 378.694788 
L 189.302615 386.231904 
L 190.136488 386.063487 
L 190.970361 393.404641 
L 191.804234 391.348619 
L 192.638107 356.086996 
L 195.139726 286.505087 
L 195.973599 280.841785 
L 196.807472 369.476717 
L 197.641345 380.039876 
L 198.475218 384.214527 
L 199.309091 382.626146 
L 200.142964 351.777751 
L 200.976837 380.204837 
L 201.81071 384.992054 
L 202.644583 378.265579 
L 203.478456 381.282194 
L 204.312329 366.581575 
L 205.146202 372.397063 
L 205.980075 372.465742 
L 206.813948 372.274671 
L 207.647821 380.662453 
L 208.481694 381.932009 
L 209.315567 377.300205 
L 210.14944 378.508519 
L 210.983313 380.525292 
L 211.817186 376.996581 
L 212.651059 372.705506 
L 213.484932 357.358161 
L 214.318804 352.340931 
L 215.152677 352.172764 
L 215.98655 374.970271 
L 216.820423 368.279984 
L 217.654296 370.979904 
L 218.488169 366.451871 
L 219.322042 357.271828 
L 220.155915 330.772344 
L 220.989788 330.931097 
L 221.823661 346.189429 
L 222.657534 383.202081 
L 223.491407 320.130748 
L 225.159153 257.417015 
L 225.993026 268.319196 
L 226.826899 326.374925 
L 227.660772 324.936507 
L 228.494645 342.568666 
L 229.328518 341.813325 
L 230.162391 345.018369 
L 231.830137 359.73778 
L 233.497883 334.844739 
L 234.331756 328.755869 
L 235.165629 309.319002 
L 235.999502 269.40498 
L 236.833375 268.596731 
L 237.667248 325.409016 
L 238.501121 313.243311 
L 239.334994 324.410306 
L 240.168867 322.873985 
L 241.00274 326.404682 
L 241.836613 322.516685 
L 242.670486 322.101876 
L 243.504359 325.766461 
L 244.338232 322.741923 
L 245.172105 322.596909 
L 246.005978 326.628977 
L 246.839851 333.640728 
L 247.673724 326.311478 
L 248.507597 305.18205 
L 249.341469 294.728601 
L 250.175342 289.116363 
L 251.009215 347.489611 
L 251.843088 352.72705 
L 252.676961 355.196498 
L 253.510834 356.348149 
L 254.344707 350.218558 
L 255.17858 350.900428 
L 256.012453 358.474771 
L 256.846326 361.084147 
L 257.680199 349.596678 
L 258.514072 346.599058 
L 259.347945 357.135146 
L 260.181818 345.05007 
L 261.015691 336.308855 
L 262.683437 341.173657 
L 263.51731 362.881199 
L 264.351183 345.266326 
L 265.185056 339.595263 
L 266.018929 342.390663 
L 266.852802 336.373172 
L 267.686675 337.044897 
L 268.520548 332.602552 
L 269.354421 342.823416 
L 270.188294 341.454948 
L 271.022167 341.323189 
L 272.689913 321.94713 
L 273.523786 321.595299 
L 274.357659 307.946232 
L 275.191532 317.517713 
L 276.025405 312.232518 
L 276.859278 304.282582 
L 277.693151 298.846 
L 279.360897 291.710527 
L 280.19477 289.885121 
L 281.028643 291.999832 
L 281.862516 287.188128 
L 282.696389 262.374826 
L 283.530262 288.641579 
L 284.364134 249.490469 
L 285.198007 357.257553 
L 286.03188 421.64699 
L 286.865753 425.482544 
L 287.699626 426.322056 
L 288.533499 421.307926 
L 289.367372 427.920357 
L 290.201245 442.996364 
L 291.035118 433.151721 
L 291.868991 433.580859 
L 292.702864 431.268101 
L 293.536737 431.396712 
L 294.37061 426.170182 
L 295.204483 427.781038 
L 296.038356 425.623702 
L 296.872229 429.064925 
L 298.539975 425.73745 
L 299.373848 420.341387 
L 300.207721 418.953752 
L 301.041594 425.7198 
L 301.875467 418.045351 
L 302.70934 418.932231 
L 304.377086 423.13066 
L 305.210959 427.299979 
L 306.044832 419.680627 
L 306.878705 417.283782 
L 307.712578 423.262664 
L 308.546451 414.60984 
L 309.380324 415.548055 
L 310.214197 417.26082 
L 311.04807 420.185018 
L 311.881943 415.146605 
L 312.715816 415.348506 
L 313.549689 425.270481 
L 314.383562 421.377721 
L 315.217435 424.286957 
L 316.051308 432.510105 
L 316.885181 431.394187 
L 317.719054 433.391365 
L 318.552927 417.028617 
L 319.3868 425.823459 
L 320.220672 421.986161 
L 321.054545 421.917019 
L 321.888418 422.371778 
L 322.722291 424.050161 
L 323.556164 427.367852 
L 324.390037 419.343974 
L 325.22391 424.148878 
L 326.891656 411.472436 
L 327.725529 418.564999 
L 328.559402 424.147785 
L 329.393275 422.992604 
L 330.227148 416.377095 
L 331.061021 427.926237 
L 331.894894 402.832793 
L 332.728767 408.294974 
L 333.56264 401.991935 
L 334.396513 407.327361 
L 335.230386 413.566043 
L 336.064259 406.997228 
L 336.898132 406.284996 
L 337.732005 402.208515 
L 338.565878 400.851191 
L 339.399751 389.823844 
L 341.067497 398.034403 
L 343.569116 387.74876 
L 345.236862 397.715498 
L 346.070735 396.237421 
L 346.904608 406.414899 
L 347.738481 410.70812 
L 348.572354 406.886606 
L 349.406227 401.832581 
L 351.073973 369.538094 
L 351.907846 366.463676 
L 352.741719 368.21125 
L 353.575592 364.077432 
L 354.409465 366.961775 
L 355.243337 358.127565 
L 356.07721 359.384939 
L 356.911083 368.239221 
L 357.744956 362.992863 
L 358.578829 370.995848 
L 359.412702 361.54668 
L 360.246575 363.960182 
L 361.080448 359.083498 
L 361.914321 354.941341 
L 362.748194 369.646265 
L 363.582067 364.526636 
L 364.41594 384.640103 
L 365.249813 369.056863 
L 366.083686 369.234241 
L 366.917559 360.644207 
L 367.751432 362.379013 
L 368.585305 360.818047 
L 369.419178 361.668715 
L 370.253051 359.814055 
L 371.086924 369.151213 
L 371.920797 352.474145 
L 372.75467 342.579765 
L 373.588543 328.232331 
L 374.422416 306.822852 
L 375.256289 329.150173 
L 376.090162 322.907081 
L 376.924035 355.338864 
L 377.757908 362.440768 
L 378.591781 352.316273 
L 379.425654 348.110443 
L 380.259527 327.992428 
L 381.0934 338.166877 
L 381.927273 325.835799 
L 382.761146 311.149263 
L 383.595019 310.953719 
L 384.428892 306.60648 
L 385.262765 269.282306 
L 386.096638 243.934236 
L 386.930511 297.512899 
L 387.764384 302.666703 
L 388.598257 314.200119 
L 389.43213 322.926113 
L 390.266002 340.998313 
L 391.099875 332.161782 
L 391.933748 325.7206 
L 392.767621 325.618761 
L 393.601494 305.209064 
L 394.435367 309.720668 
L 395.26924 295.544101 
L 396.103113 298.821398 
L 396.936986 281.141376 
L 397.770859 223.209882 
L 398.604732 230.251551 
L 399.438605 198.813938 
L 400.272478 212.648711 
L 401.106351 246.19971 
L 401.940224 251.91811 
L 402.774097 216.676579 
L 404.441843 304.72445 
L 405.275716 293.356707 
L 406.109589 316.605058 
L 406.943462 310.136806 
L 407.777335 313.869373 
L 408.611208 310.836215 
L 409.445081 318.193022 
L 410.278954 312.149087 
L 411.112827 309.666609 
L 411.9467 305.781273 
L 412.780573 311.872506 
L 413.614446 301.332056 
L 414.448319 306.525459 
L 415.282192 299.217987 
L 416.116065 287.629222 
L 416.949938 265.922615 
L 417.783811 261.859237 
L 418.617684 255.658266 
L 419.451557 263.96482 
L 420.28543 261.105819 
L 421.119303 242.41734 
L 422.787049 183.975603 
L 423.620922 224.936555 
L 424.454795 222.559627 
L 425.288667 199.050207 
L 426.12254 272.774765 
L 426.956413 274.323489 
L 427.790286 311.71012 
L 428.624159 306.781664 
L 429.458032 316.377431 
L 430.291905 276.408229 
L 431.125778 265.935397 
L 431.959651 239.810253 
L 432.793524 259.116945 
L 434.46127 190.16256 
L 435.295143 200.839988 
L 436.129016 216.550803 
L 436.962889 272.217301 
L 437.796762 272.980536 
L 438.630635 291.111276 
L 439.464508 256.433212 
L 440.298381 255.402375 
L 441.132254 293.006042 
L 442.8 235.816795 
L 443.633873 190.161012 
L 444.467746 168.550247 
L 445.301619 232.206028 
L 446.135492 178.306356 
L 446.969365 86.923636 
L 447.803238 211.025805 
L 448.637111 262.951315 
L 449.470984 259.104285 
L 450.304857 192.045922 
L 451.13873 185.782251 
L 451.972603 190.825088 
L 452.806476 114.314163 
L 453.640349 140.311671 
L 454.474222 134.386652 
L 456.975841 278.96491 
L 457.809714 160.274971 
L 458.643587 221.914443 
L 459.47746 245.949338 
L 460.311333 247.203642 
L 461.979078 268.927802 
L 462.812951 287.909786 
L 463.646824 284.872491 
L 464.480697 275.498842 
L 465.31457 280.377251 
L 466.148443 292.408577 
L 466.982316 245.696791 
L 467.816189 264.3809 
L 468.650062 253.562984 
L 469.483935 274.708046 
L 470.317808 260.722301 
L 471.151681 261.640464 
L 471.985554 267.738667 
L 472.819427 280.548857 
L 473.6533 261.321821 
L 474.487173 252.62812 
L 475.321046 273.597466 
L 476.154919 272.675265 
L 476.988792 288.806044 
L 477.822665 280.160321 
L 478.656538 262.842866 
L 479.490411 256.61668 
L 480.324284 269.579191 
L 481.158157 262.498884 
L 481.99203 257.321705 
L 482.825903 260.315669 
L 483.659776 234.15985 
L 484.493649 248.527044 
L 485.327522 244.9714 
L 486.161395 261.271013 
L 486.995268 257.765431 
L 487.829141 253.522192 
L 488.663014 271.201786 
L 489.496887 266.330697 
L 490.33076 266.636661 
L 491.164633 263.824454 
L 491.998506 254.39062 
L 492.832379 255.091422 
L 493.666252 236.742516 
L 494.500125 258.820748 
L 495.333998 267.158844 
L 496.16787 246.847403 
L 497.001743 271.439437 
L 497.835616 258.990359 
L 498.669489 261.119653 
L 499.503362 261.315528 
L 500.337235 265.097471 
L 501.171108 264.332641 
L 502.004981 240.65602 
L 502.838854 252.873207 
L 503.672727 255.094181 
L 504.5066 255.549508 
L 505.340473 252.153158 
L 506.174346 258.943215 
L 507.842092 262.812895 
L 508.675965 264.324392 
L 509.509838 257.26676 
L 510.343711 241.610909 
L 511.177584 217.033301 
L 512.011457 126.557498 
L 512.84533 182.07235 
L 513.679203 333.453111 
L 514.513076 332.871614 
L 516.180822 356.107718 
L 517.014695 349.477303 
L 517.848568 344.539592 
L 518.682441 338.271838 
L 519.516314 350.565787 
L 520.350187 365.527374 
L 521.18406 362.412044 
L 522.017933 351.762106 
L 522.851806 357.828515 
L 523.685679 361.21167 
L 524.519552 367.725446 
L 525.353425 359.998515 
L 526.187298 350.133654 
L 527.021171 348.564953 
L 527.855044 357.308364 
L 528.688917 363.250008 
L 529.52279 364.42572 
L 530.356663 358.085977 
L 531.190535 369.88709 
L 532.024408 365.838455 
L 532.858281 355.367987 
L 533.692154 351.063199 
L 534.526027 347.447104 
L 535.3599 342.405938 
L 536.193773 343.031942 
L 537.027646 359.012667 
L 537.861519 361.70286 
L 538.695392 369.89638 
L 539.529265 357.583231 
L 540.363138 373.438439 
L 541.197011 351.212289 
L 542.030884 316.901758 
L 542.864757 342.667401 
L 543.69863 357.980279 
L 544.532503 361.842112 
L 545.366376 362.93862 
L 546.200249 353.793005 
L 547.034122 351.263597 
L 547.867995 347.135772 
L 548.701868 345.789215 
L 549.535741 338.195914 
L 550.369614 345.574098 
L 552.03736 342.756181 
L 552.871233 350.216468 
L 553.705106 346.158108 
L 554.538979 343.474823 
L 555.372852 343.845413 
L 556.206725 346.023647 
L 557.040598 350.630269 
L 557.874471 340.46762 
L 558.708344 344.599023 
L 559.542217 353.046672 
L 560.37609 342.951128 
L 561.209963 347.40839 
L 562.043836 349.354796 
L 562.877709 363.034197 
L 564.545455 352.977081 
L 565.379328 344.417594 
L 566.2132 342.324409 
L 567.047073 346.796024 
L 567.880946 356.874316 
L 568.714819 351.082021 
L 569.548692 380.776961 
L 570.382565 343.616944 
L 571.216438 343.226198 
L 572.050311 350.229813 
L 573.718057 343.599341 
L 574.55193 347.852637 
L 575.385803 347.76027 
L 576.219676 355.034295 
L 577.053549 354.991302 
L 577.887422 349.132904 
L 578.721295 297.328153 
L 579.555168 300.580074 
L 580.389041 284.784042 
L 581.222914 282.303164 
L 582.056787 288.203002 
L 582.89066 276.167125 
L 583.724533 283.452991 
L 584.558406 284.151442 
L 585.392279 286.601666 
L 586.226152 295.407918 
L 587.060025 298.300698 
L 587.893898 285.828815 
L 588.727771 296.36916 
L 589.561644 285.976262 
L 590.395517 284.540395 
L 591.22939 284.302559 
L 592.063263 296.513973 
L 592.897136 281.820767 
L 593.731009 282.505274 
L 594.564882 284.482107 
L 595.398755 279.680053 
L 596.232628 285.898066 
L 597.066501 279.013501 
L 597.900374 285.283857 
L 598.734247 294.008695 
L 599.56812 275.254799 
L 600.401993 285.547977 
L 601.235866 289.746298 
L 602.069738 285.987805 
L 602.903611 286.869317 
L 603.737484 281.130686 
L 604.571357 278.429328 
L 605.40523 281.906248 
L 606.239103 287.304621 
L 607.072976 289.431718 
L 607.906849 290.825139 
L 608.740722 290.330115 
L 609.574595 298.760139 
L 610.408468 294.233563 
L 611.242341 288.055401 
L 612.076214 278.486849 
L 612.910087 286.637149 
L 613.74396 288.498436 
L 614.577833 280.327972 
L 615.411706 279.473404 
L 616.245579 290.593071 
L 617.079452 289.411686 
L 617.913325 297.703291 
L 618.747198 284.67674 
L 619.581071 290.172691 
L 620.414944 296.415025 
L 621.248817 274.52224 
L 622.08269 290.462212 
L 622.916563 283.266419 
L 623.750436 290.352991 
L 624.584309 277.847554 
L 625.418182 283.308117 
L 626.252055 281.127642 
L 627.085928 289.0205 
L 627.919801 288.446068 
L 628.753674 281.059499 
L 629.587547 286.78896 
L 630.42142 285.164651 
L 631.255293 286.337145 
L 632.089166 285.172894 
L 632.923039 278.246739 
L 633.756912 275.526062 
L 634.590785 284.411416 
L 635.424658 279.410629 
L 636.258531 276.798473 
L 637.092403 281.425165 
L 637.926276 276.625707 
L 638.760149 277.198239 
L 639.594022 278.281798 
L 640.427895 277.236701 
L 641.261768 279.695563 
L 642.095641 287.196724 
L 642.929514 275.938955 
L 643.763387 284.580829 
L 644.59726 282.272837 
L 645.431133 283.461369 
L 646.265006 281.334531 
L 647.098879 273.600931 
L 647.932752 282.513789 
L 648.766625 279.151419 
L 649.600498 281.262536 
L 650.434371 276.064565 
L 651.268244 282.490088 
L 652.102117 277.102391 
L 652.93599 286.506267 
L 653.769863 276.226557 
L 654.603736 290.609622 
L 655.437609 290.908237 
L 656.271482 291.466705 
L 657.105355 280.649697 
L 657.939228 275.01244 
L 658.773101 282.563136 
L 659.606974 285.908522 
L 660.440847 282.722215 
L 661.27472 287.11287 
L 662.108593 276.417791 
L 662.942466 288.575734 
L 663.776339 285.457162 
L 664.610212 292.894787 
L 665.444085 289.597565 
L 666.277958 291.206474 
L 667.111831 280.212758 
L 667.945704 287.893997 
L 668.779577 283.070412 
L 669.61345 284.452863 
L 670.447323 292.454696 
L 671.281196 293.581762 
L 672.115068 290.702448 
L 672.948941 286.783053 
L 673.782814 278.152035 
L 674.616687 278.442486 
L 675.45056 294.458124 
L 676.284433 285.832553 
L 677.118306 312.089468 
L 677.952179 293.183724 
L 678.786052 282.781703 
L 679.619925 267.059126 
L 680.453798 277.785449 
L 681.287671 301.080593 
L 682.955417 288.093895 
L 683.78929 278.37097 
L 684.623163 275.779152 
L 685.457036 278.124645 
L 686.290909 269.475794 
L 687.124782 291.778069 
L 687.958655 292.403906 
L 688.792528 272.837285 
L 689.626401 271.427643 
L 690.460274 259.212971 
L 691.294147 269.271059 
L 692.12802 276.404713 
L 692.961893 296.945452 
L 693.795766 299.568684 
L 694.629639 299.305912 
L 695.463512 296.814157 
L 696.297385 286.899634 
L 697.131258 298.338053 
L 697.965131 297.428453 
L 698.799004 284.726878 
L 699.632877 289.688905 
L 700.46675 292.856588 
L 701.300623 299.683861 
L 702.134496 299.200124 
L 702.968369 273.232118 
L 703.802242 270.030293 
L 704.636115 252.151525 
L 705.469988 243.650868 
L 707.137733 180.53383 
L 707.971606 236.439777 
L 708.805479 259.660064 
L 709.639352 262.847219 
L 710.473225 258.849289 
L 711.307098 260.592849 
L 712.140971 260.749326 
L 712.974844 296.878554 
L 713.808717 295.453558 
L 714.64259 282.759489 
L 716.310336 215.494301 
L 717.144209 205.318516 
L 717.978082 180.236289 
L 718.811955 199.82439 
L 719.645828 232.729539 
L 720.479701 225.220956 
L 721.313574 241.43661 
L 722.147447 232.141751 
L 722.98132 193.176267 
L 723.815193 197.12705 
L 724.649066 179.401193 
L 725.482939 206.696155 
L 726.316812 168.216288 
L 727.150685 203.503208 
L 727.984558 261.281717 
L 728.818431 272.078 
L 729.652304 268.716748 
L 730.486177 287.326522 
L 731.32005 266.244305 
L 732.153923 251.301869 
L 732.987796 244.774059 
L 733.821669 286.320864 
L 734.655542 273.820472 
L 735.489415 252.227697 
L 737.157161 177.447787 
L 737.991034 187.60089 
L 738.824907 252.175322 
L 739.65878 232.46907 
L 740.492653 246.402405 
L 741.326526 236.7595 
L 742.160399 237.858911 
L 742.994271 233.270007 
L 743.828144 235.646484 
L 744.662017 192.057727 
L 745.49589 179.10022 
L 746.329763 193.368173 
L 747.163636 178.035673 
L 747.163636 178.035673 
" style="fill:none;stroke:#ff0000;stroke-dasharray:5.55,2.4;stroke-dashoffset:0;stroke-width:1.5;"/>
   </g>
   <g id="patch_3">
    <path d="M 108 460.8 
L 108 69.12 
" style="fill:none;stroke:#000000;stroke-linecap:square;stroke-linejoin:miter;stroke-width:0.8;"/>
   </g>
   <g id="patch_4">
    <path d="M 777.6 460.8 
L 777.6 69.12 
" style="fill:none;stroke:#000000;stroke-linecap:square;stroke-linejoin:miter;stroke-width:0.8;"/>
   </g>
   <g id="patch_5">
    <path d="M 108 460.8 
L 777.6 460.8 
" style="fill:none;stroke:#000000;stroke-linecap:square;stroke-linejoin:miter;stroke-width:0.8;"/>
   </g>
   <g id="patch_6">
    <path d="M 108 69.12 
L 777.6 69.12 
" style="fill:none;stroke:#000000;stroke-linecap:square;stroke-linejoin:miter;stroke-width:0.8;"/>
   </g>
   <g id="text_19">
    <!-- Macau residential 2020-2021 | Forecast vs Monitored | Support vector machine -->
    <g transform="translate(86.252344 63.12)scale(0.18 -0.18)">
     <defs>
      <path d="M 9.8125 72.90625 
L 24.515625 72.90625 
L 43.109375 23.296875 
L 61.8125 72.90625 
L 76.515625 72.90625 
L 76.515625 0 
L 66.890625 0 
L 66.890625 64.015625 
L 48.09375 14.015625 
L 38.1875 14.015625 
L 19.390625 64.015625 
L 19.390625 0 
L 9.8125 0 
z
" id="DejaVuSans-77"/>
      <path d="M 48.78125 52.59375 
L 48.78125 44.1875 
Q 44.96875 46.296875 41.140625 47.34375 
Q 37.3125 48.390625 33.40625 48.390625 
Q 24.65625 48.390625 19.8125 42.84375 
Q 14.984375 37.3125 14.984375 27.296875 
Q 14.984375 17.28125 19.8125 11.734375 
Q 24.65625 6.203125 33.40625 6.203125 
Q 37.3125 6.203125 41.140625 7.25 
Q 44.96875 8.296875 48.78125 10.40625 
L 48.78125 2.09375 
Q 45.015625 0.34375 40.984375 -0.53125 
Q 36.96875 -1.421875 32.421875 -1.421875 
Q 20.0625 -1.421875 12.78125 6.34375 
Q 5.515625 14.109375 5.515625 27.296875 
Q 5.515625 40.671875 12.859375 48.328125 
Q 20.21875 56 33.015625 56 
Q 37.15625 56 41.109375 55.140625 
Q 45.0625 54.296875 48.78125 52.59375 
z
" id="DejaVuSans-99"/>
      <path d="M 8.5 21.578125 
L 8.5 54.6875 
L 17.484375 54.6875 
L 17.484375 21.921875 
Q 17.484375 14.15625 20.5 10.265625 
Q 23.53125 6.390625 29.59375 6.390625 
Q 36.859375 6.390625 41.078125 11.03125 
Q 45.3125 15.671875 45.3125 23.6875 
L 45.3125 54.6875 
L 54.296875 54.6875 
L 54.296875 0 
L 45.3125 0 
L 45.3125 8.40625 
Q 42.046875 3.421875 37.71875 1 
Q 33.40625 -1.421875 27.6875 -1.421875 
Q 18.265625 -1.421875 13.375 4.4375 
Q 8.5 10.296875 8.5 21.578125 
z
M 31.109375 56 
z
" id="DejaVuSans-117"/>
      <path id="DejaVuSans-32"/>
      <path d="M 41.109375 46.296875 
Q 39.59375 47.171875 37.8125 47.578125 
Q 36.03125 48 33.890625 48 
Q 26.265625 48 22.1875 43.046875 
Q 18.109375 38.09375 18.109375 28.8125 
L 18.109375 0 
L 9.078125 0 
L 9.078125 54.6875 
L 18.109375 54.6875 
L 18.109375 46.1875 
Q 20.953125 51.171875 25.484375 53.578125 
Q 30.03125 56 36.53125 56 
Q 37.453125 56 38.578125 55.875 
Q 39.703125 55.765625 41.0625 55.515625 
z
" id="DejaVuSans-114"/>
      <path d="M 44.28125 53.078125 
L 44.28125 44.578125 
Q 40.484375 46.53125 36.375 47.5 
Q 32.28125 48.484375 27.875 48.484375 
Q 21.1875 48.484375 17.84375 46.4375 
Q 14.5 44.390625 14.5 40.28125 
Q 14.5 37.15625 16.890625 35.375 
Q 19.28125 33.59375 26.515625 31.984375 
L 29.59375 31.296875 
Q 39.15625 29.25 43.1875 25.515625 
Q 47.21875 21.78125 47.21875 15.09375 
Q 47.21875 7.46875 41.1875 3.015625 
Q 35.15625 -1.421875 24.609375 -1.421875 
Q 20.21875 -1.421875 15.453125 -0.5625 
Q 10.6875 0.296875 5.421875 2 
L 5.421875 11.28125 
Q 10.40625 8.6875 15.234375 7.390625 
Q 20.0625 6.109375 24.8125 6.109375 
Q 31.15625 6.109375 34.5625 8.28125 
Q 37.984375 10.453125 37.984375 14.40625 
Q 37.984375 18.0625 35.515625 20.015625 
Q 33.0625 21.96875 24.703125 23.78125 
L 21.578125 24.515625 
Q 13.234375 26.265625 9.515625 29.90625 
Q 5.8125 33.546875 5.8125 39.890625 
Q 5.8125 47.609375 11.28125 51.796875 
Q 16.75 56 26.8125 56 
Q 31.78125 56 36.171875 55.265625 
Q 40.578125 54.546875 44.28125 53.078125 
z
" id="DejaVuSans-115"/>
      <path d="M 9.421875 54.6875 
L 18.40625 54.6875 
L 18.40625 0 
L 9.421875 0 
z
M 9.421875 75.984375 
L 18.40625 75.984375 
L 18.40625 64.59375 
L 9.421875 64.59375 
z
" id="DejaVuSans-105"/>
      <path d="M 45.40625 46.390625 
L 45.40625 75.984375 
L 54.390625 75.984375 
L 54.390625 0 
L 45.40625 0 
L 45.40625 8.203125 
Q 42.578125 3.328125 38.25 0.953125 
Q 33.9375 -1.421875 27.875 -1.421875 
Q 17.96875 -1.421875 11.734375 6.484375 
Q 5.515625 14.40625 5.515625 27.296875 
Q 5.515625 40.1875 11.734375 48.09375 
Q 17.96875 56 27.875 56 
Q 33.9375 56 38.25 53.625 
Q 42.578125 51.265625 45.40625 46.390625 
z
M 14.796875 27.296875 
Q 14.796875 17.390625 18.875 11.75 
Q 22.953125 6.109375 30.078125 6.109375 
Q 37.203125 6.109375 41.296875 11.75 
Q 45.40625 17.390625 45.40625 27.296875 
Q 45.40625 37.203125 41.296875 42.84375 
Q 37.203125 48.484375 30.078125 48.484375 
Q 22.953125 48.484375 18.875 42.84375 
Q 14.796875 37.203125 14.796875 27.296875 
z
" id="DejaVuSans-100"/>
      <path d="M 54.890625 33.015625 
L 54.890625 0 
L 45.90625 0 
L 45.90625 32.71875 
Q 45.90625 40.484375 42.875 44.328125 
Q 39.84375 48.1875 33.796875 48.1875 
Q 26.515625 48.1875 22.3125 43.546875 
Q 18.109375 38.921875 18.109375 30.90625 
L 18.109375 0 
L 9.078125 0 
L 9.078125 54.6875 
L 18.109375 54.6875 
L 18.109375 46.1875 
Q 21.34375 51.125 25.703125 53.5625 
Q 30.078125 56 35.796875 56 
Q 45.21875 56 50.046875 50.171875 
Q 54.890625 44.34375 54.890625 33.015625 
z
" id="DejaVuSans-110"/>
      <path d="M 9.421875 75.984375 
L 18.40625 75.984375 
L 18.40625 0 
L 9.421875 0 
z
" id="DejaVuSans-108"/>
      <path d="M 21 76.421875 
L 21 -23.578125 
L 12.703125 -23.578125 
L 12.703125 76.421875 
z
" id="DejaVuSans-124"/>
      <path d="M 9.8125 72.90625 
L 51.703125 72.90625 
L 51.703125 64.59375 
L 19.671875 64.59375 
L 19.671875 43.109375 
L 48.578125 43.109375 
L 48.578125 34.8125 
L 19.671875 34.8125 
L 19.671875 0 
L 9.8125 0 
z
" id="DejaVuSans-70"/>
      <path d="M 30.609375 48.390625 
Q 23.390625 48.390625 19.1875 42.75 
Q 14.984375 37.109375 14.984375 27.296875 
Q 14.984375 17.484375 19.15625 11.84375 
Q 23.34375 6.203125 30.609375 6.203125 
Q 37.796875 6.203125 41.984375 11.859375 
Q 46.1875 17.53125 46.1875 27.296875 
Q 46.1875 37.015625 41.984375 42.703125 
Q 37.796875 48.390625 30.609375 48.390625 
z
M 30.609375 56 
Q 42.328125 56 49.015625 48.375 
Q 55.71875 40.765625 55.71875 27.296875 
Q 55.71875 13.875 49.015625 6.21875 
Q 42.328125 -1.421875 30.609375 -1.421875 
Q 18.84375 -1.421875 12.171875 6.21875 
Q 5.515625 13.875 5.515625 27.296875 
Q 5.515625 40.765625 12.171875 48.375 
Q 18.84375 56 30.609375 56 
z
" id="DejaVuSans-111"/>
      <path d="M 2.984375 54.6875 
L 12.5 54.6875 
L 29.59375 8.796875 
L 46.6875 54.6875 
L 56.203125 54.6875 
L 35.6875 0 
L 23.484375 0 
z
" id="DejaVuSans-118"/>
      <path d="M 54.890625 33.015625 
L 54.890625 0 
L 45.90625 0 
L 45.90625 32.71875 
Q 45.90625 40.484375 42.875 44.328125 
Q 39.84375 48.1875 33.796875 48.1875 
Q 26.515625 48.1875 22.3125 43.546875 
Q 18.109375 38.921875 18.109375 30.90625 
L 18.109375 0 
L 9.078125 0 
L 9.078125 75.984375 
L 18.109375 75.984375 
L 18.109375 46.1875 
Q 21.34375 51.125 25.703125 53.5625 
Q 30.078125 56 35.796875 56 
Q 45.21875 56 50.046875 50.171875 
Q 54.890625 44.34375 54.890625 33.015625 
z
" id="DejaVuSans-104"/>
     </defs>
     <use xlink:href="#DejaVuSans-77"/>
     <use x="86.279297" xlink:href="#DejaVuSans-97"/>
     <use x="147.558594" xlink:href="#DejaVuSans-99"/>
     <use x="202.539062" xlink:href="#DejaVuSans-97"/>
     <use x="263.818359" xlink:href="#DejaVuSans-117"/>
     <use x="327.197266" xlink:href="#DejaVuSans-32"/>
     <use x="358.984375" xlink:href="#DejaVuSans-114"/>
     <use x="397.847656" xlink:href="#DejaVuSans-101"/>
     <use x="459.371094" xlink:href="#DejaVuSans-115"/>
     <use x="511.470703" xlink:href="#DejaVuSans-105"/>
     <use x="539.253906" xlink:href="#DejaVuSans-100"/>
     <use x="602.730469" xlink:href="#DejaVuSans-101"/>
     <use x="664.253906" xlink:href="#DejaVuSans-110"/>
     <use x="727.632812" xlink:href="#DejaVuSans-116"/>
     <use x="766.841797" xlink:href="#DejaVuSans-105"/>
     <use x="794.625" xlink:href="#DejaVuSans-97"/>
     <use x="855.904297" xlink:href="#DejaVuSans-108"/>
     <use x="883.6875" xlink:href="#DejaVuSans-32"/>
     <use x="915.474609" xlink:href="#DejaVuSans-50"/>
     <use x="979.097656" xlink:href="#DejaVuSans-48"/>
     <use x="1042.720703" xlink:href="#DejaVuSans-50"/>
     <use x="1106.34375" xlink:href="#DejaVuSans-48"/>
     <use x="1169.966797" xlink:href="#DejaVuSans-45"/>
     <use x="1206.050781" xlink:href="#DejaVuSans-50"/>
     <use x="1269.673828" xlink:href="#DejaVuSans-48"/>
     <use x="1333.296875" xlink:href="#DejaVuSans-50"/>
     <use x="1396.919922" xlink:href="#DejaVuSans-49"/>
     <use x="1460.542969" xlink:href="#DejaVuSans-32"/>
     <use x="1492.330078" xlink:href="#DejaVuSans-124"/>
     <use x="1526.021484" xlink:href="#DejaVuSans-32"/>
     <use x="1557.808594" xlink:href="#DejaVuSans-70"/>
     <use x="1611.703125" xlink:href="#DejaVuSans-111"/>
     <use x="1672.884766" xlink:href="#DejaVuSans-114"/>
     <use x="1711.748047" xlink:href="#DejaVuSans-101"/>
     <use x="1773.271484" xlink:href="#DejaVuSans-99"/>
     <use x="1828.251953" xlink:href="#DejaVuSans-97"/>
     <use x="1889.53125" xlink:href="#DejaVuSans-115"/>
     <use x="1941.630859" xlink:href="#DejaVuSans-116"/>
     <use x="1980.839844" xlink:href="#DejaVuSans-32"/>
     <use x="2012.626953" xlink:href="#DejaVuSans-118"/>
     <use x="2071.806641" xlink:href="#DejaVuSans-115"/>
     <use x="2123.90625" xlink:href="#DejaVuSans-32"/>
     <use x="2155.693359" xlink:href="#DejaVuSans-77"/>
     <use x="2241.972656" xlink:href="#DejaVuSans-111"/>
     <use x="2303.154297" xlink:href="#DejaVuSans-110"/>
     <use x="2366.533203" xlink:href="#DejaVuSans-105"/>
     <use x="2394.316406" xlink:href="#DejaVuSans-116"/>
     <use x="2433.525391" xlink:href="#DejaVuSans-111"/>
     <use x="2494.707031" xlink:href="#DejaVuSans-114"/>
     <use x="2533.570312" xlink:href="#DejaVuSans-101"/>
     <use x="2595.09375" xlink:href="#DejaVuSans-100"/>
     <use x="2658.570312" xlink:href="#DejaVuSans-32"/>
     <use x="2690.357422" xlink:href="#DejaVuSans-124"/>
     <use x="2724.048828" xlink:href="#DejaVuSans-32"/>
     <use x="2755.835938" xlink:href="#DejaVuSans-83"/>
     <use x="2819.3125" xlink:href="#DejaVuSans-117"/>
     <use x="2882.691406" xlink:href="#DejaVuSans-112"/>
     <use x="2946.167969" xlink:href="#DejaVuSans-112"/>
     <use x="3009.644531" xlink:href="#DejaVuSans-111"/>
     <use x="3070.826172" xlink:href="#DejaVuSans-114"/>
     <use x="3111.939453" xlink:href="#DejaVuSans-116"/>
     <use x="3151.148438" xlink:href="#DejaVuSans-32"/>
     <use x="3182.935547" xlink:href="#DejaVuSans-118"/>
     <use x="3242.115234" xlink:href="#DejaVuSans-101"/>
     <use x="3303.638672" xlink:href="#DejaVuSans-99"/>
     <use x="3358.619141" xlink:href="#DejaVuSans-116"/>
     <use x="3397.828125" xlink:href="#DejaVuSans-111"/>
     <use x="3459.009766" xlink:href="#DejaVuSans-114"/>
     <use x="3500.123047" xlink:href="#DejaVuSans-32"/>
     <use x="3531.910156" xlink:href="#DejaVuSans-109"/>
     <use x="3629.322266" xlink:href="#DejaVuSans-97"/>
     <use x="3690.601562" xlink:href="#DejaVuSans-99"/>
     <use x="3745.582031" xlink:href="#DejaVuSans-104"/>
     <use x="3808.960938" xlink:href="#DejaVuSans-105"/>
     <use x="3836.744141" xlink:href="#DejaVuSans-110"/>
     <use x="3900.123047" xlink:href="#DejaVuSans-101"/>
    </g>
   </g>
   <g id="legend_1">
    <g id="patch_7">
     <path d="M 607.123125 114.615 
L 769.2 114.615 
Q 771.6 114.615 771.6 112.215 
L 771.6 77.52 
Q 771.6 75.12 769.2 75.12 
L 607.123125 75.12 
Q 604.723125 75.12 604.723125 77.52 
L 604.723125 112.215 
Q 604.723125 114.615 607.123125 114.615 
z
" style="fill:#ffffff;opacity:0.8;stroke:#cccccc;stroke-linejoin:miter;"/>
    </g>
    <g id="line2d_19">
     <path d="M 609.523125 84.838125 
L 633.523125 84.838125 
" style="fill:none;stroke:#1f77b4;stroke-linecap:square;stroke-width:1.5;"/>
    </g>
    <g id="line2d_20"/>
    <g id="text_20">
     <!-- measured_data_SO2 -->
     <g transform="translate(643.123125 89.038125)scale(0.12 -0.12)">
      <defs>
       <path d="M 50.984375 -16.609375 
L 50.984375 -23.578125 
L -0.984375 -23.578125 
L -0.984375 -16.609375 
z
" id="DejaVuSans-95"/>
      </defs>
      <use xlink:href="#DejaVuSans-109"/>
      <use x="97.412109" xlink:href="#DejaVuSans-101"/>
      <use x="158.935547" xlink:href="#DejaVuSans-97"/>
      <use x="220.214844" xlink:href="#DejaVuSans-115"/>
      <use x="272.314453" xlink:href="#DejaVuSans-117"/>
      <use x="335.693359" xlink:href="#DejaVuSans-114"/>
      <use x="374.556641" xlink:href="#DejaVuSans-101"/>
      <use x="436.080078" xlink:href="#DejaVuSans-100"/>
      <use x="499.556641" xlink:href="#DejaVuSans-95"/>
      <use x="549.556641" xlink:href="#DejaVuSans-100"/>
      <use x="613.033203" xlink:href="#DejaVuSans-97"/>
      <use x="674.3125" xlink:href="#DejaVuSans-116"/>
      <use x="713.521484" xlink:href="#DejaVuSans-97"/>
      <use x="774.800781" xlink:href="#DejaVuSans-95"/>
      <use x="824.800781" xlink:href="#DejaVuSans-83"/>
      <use x="888.277344" xlink:href="#DejaVuSans-79"/>
      <use x="966.988281" xlink:href="#DejaVuSans-50"/>
     </g>
    </g>
    <g id="line2d_21">
     <path d="M 609.523125 102.785625 
L 633.523125 102.785625 
" style="fill:none;stroke:#ff0000;stroke-dasharray:5.55,2.4;stroke-dashoffset:0;stroke-width:1.5;"/>
    </g>
    <g id="line2d_22"/>
    <g id="text_21">
     <!-- predicted_data_SO2 -->
     <g transform="translate(643.123125 106.985625)scale(0.12 -0.12)">
      <use xlink:href="#DejaVuSans-112"/>
      <use x="63.476562" xlink:href="#DejaVuSans-114"/>
      <use x="102.339844" xlink:href="#DejaVuSans-101"/>
      <use x="163.863281" xlink:href="#DejaVuSans-100"/>
      <use x="227.339844" xlink:href="#DejaVuSans-105"/>
      <use x="255.123047" xlink:href="#DejaVuSans-99"/>
      <use x="310.103516" xlink:href="#DejaVuSans-116"/>
      <use x="349.3125" xlink:href="#DejaVuSans-101"/>
      <use x="410.835938" xlink:href="#DejaVuSans-100"/>
      <use x="474.3125" xlink:href="#DejaVuSans-95"/>
      <use x="524.3125" xlink:href="#DejaVuSans-100"/>
      <use x="587.789062" xlink:href="#DejaVuSans-97"/>
      <use x="649.068359" xlink:href="#DejaVuSans-116"/>
      <use x="688.277344" xlink:href="#DejaVuSans-97"/>
      <use x="749.556641" xlink:href="#DejaVuSans-95"/>
      <use x="799.556641" xlink:href="#DejaVuSans-83"/>
      <use x="863.033203" xlink:href="#DejaVuSans-79"/>
      <use x="941.744141" xlink:href="#DejaVuSans-50"/>
     </g>
    </g>
   </g>
  </g>
 </g>
 <defs>
  <clipPath id="p36fe6746c4">
   <rect height="391.68" width="669.6" x="108" y="69.12"/>
  </clipPath>
 </defs>
</svg>
