<?xml version="1.0" encoding="utf-8" standalone="no"?>
<!DOCTYPE svg PUBLIC "-//W3C//DTD SVG 1.1//EN"
  "http://www.w3.org/Graphics/SVG/1.1/DTD/svg11.dtd">
<!-- Created with matplotlib (https://matplotlib.org/) -->
<svg height="576pt" version="1.1" viewBox="0 0 864 576" width="864pt" xmlns="http://www.w3.org/2000/svg" xmlns:xlink="http://www.w3.org/1999/xlink">
 <metadata>
  <rdf:RDF xmlns:cc="http://creativecommons.org/ns#" xmlns:dc="http://purl.org/dc/elements/1.1/" xmlns:rdf="http://www.w3.org/1999/02/22-rdf-syntax-ns#">
   <cc:Work>
    <dc:type rdf:resource="http://purl.org/dc/dcmitype/StillImage"/>
    <dc:date>2024-03-08T20:46:47.115409</dc:date>
    <dc:format>image/svg+xml</dc:format>
    <dc:creator>
     <cc:Agent>
      <dc:title>Matplotlib v3.3.4, https://matplotlib.org/</dc:title>
     </cc:Agent>
    </dc:creator>
   </cc:Work>
  </rdf:RDF>
 </metadata>
 <defs>
  <style type="text/css">*{stroke-linecap:butt;stroke-linejoin:round;}</style>
 </defs>
 <g id="figure_1">
  <g id="patch_1">
   <path d="M 0 576 
L 864 576 
L 864 0 
L 0 0 
z
" style="fill:#ffffff;"/>
  </g>
  <g id="axes_1">
   <g id="patch_2">
    <path d="M 108 460.8 
L 777.6 460.8 
L 777.6 69.12 
L 108 69.12 
z
" style="fill:#ffffff;"/>
   </g>
   <g id="matplotlib.axis_1">
    <g id="xtick_1">
     <g id="line2d_1">
      <defs>
       <path d="M 0 0 
L 0 3.5 
" id="m94f925c122" style="stroke:#000000;stroke-width:0.8;"/>
      </defs>
      <g>
       <use style="stroke:#000000;stroke-width:0.8;" x="138.436364" xlink:href="#m94f925c122" y="460.8"/>
      </g>
     </g>
     <g id="text_1">
      <!-- 2020-01 -->
      <g transform="translate(93.766579 500.766215)rotate(-30)scale(0.12 -0.12)">
       <defs>
        <path d="M 19.1875 8.296875 
L 53.609375 8.296875 
L 53.609375 0 
L 7.328125 0 
L 7.328125 8.296875 
Q 12.9375 14.109375 22.625 23.890625 
Q 32.328125 33.6875 34.8125 36.53125 
Q 39.546875 41.84375 41.421875 45.53125 
Q 43.3125 49.21875 43.3125 52.78125 
Q 43.3125 58.59375 39.234375 62.25 
Q 35.15625 65.921875 28.609375 65.921875 
Q 23.96875 65.921875 18.8125 64.3125 
Q 13.671875 62.703125 7.8125 59.421875 
L 7.8125 69.390625 
Q 13.765625 71.78125 18.9375 73 
Q 24.125 74.21875 28.421875 74.21875 
Q 39.75 74.21875 46.484375 68.546875 
Q 53.21875 62.890625 53.21875 53.421875 
Q 53.21875 48.921875 51.53125 44.890625 
Q 49.859375 40.875 45.40625 35.40625 
Q 44.1875 33.984375 37.640625 27.21875 
Q 31.109375 20.453125 19.1875 8.296875 
z
" id="DejaVuSans-50"/>
        <path d="M 31.78125 66.40625 
Q 24.171875 66.40625 20.328125 58.90625 
Q 16.5 51.421875 16.5 36.375 
Q 16.5 21.390625 20.328125 13.890625 
Q 24.171875 6.390625 31.78125 6.390625 
Q 39.453125 6.390625 43.28125 13.890625 
Q 47.125 21.390625 47.125 36.375 
Q 47.125 51.421875 43.28125 58.90625 
Q 39.453125 66.40625 31.78125 66.40625 
z
M 31.78125 74.21875 
Q 44.046875 74.21875 50.515625 64.515625 
Q 56.984375 54.828125 56.984375 36.375 
Q 56.984375 17.96875 50.515625 8.265625 
Q 44.046875 -1.421875 31.78125 -1.421875 
Q 19.53125 -1.421875 13.0625 8.265625 
Q 6.59375 17.96875 6.59375 36.375 
Q 6.59375 54.828125 13.0625 64.515625 
Q 19.53125 74.21875 31.78125 74.21875 
z
" id="DejaVuSans-48"/>
        <path d="M 4.890625 31.390625 
L 31.203125 31.390625 
L 31.203125 23.390625 
L 4.890625 23.390625 
z
" id="DejaVuSans-45"/>
        <path d="M 12.40625 8.296875 
L 28.515625 8.296875 
L 28.515625 63.921875 
L 10.984375 60.40625 
L 10.984375 69.390625 
L 28.421875 72.90625 
L 38.28125 72.90625 
L 38.28125 8.296875 
L 54.390625 8.296875 
L 54.390625 0 
L 12.40625 0 
z
" id="DejaVuSans-49"/>
       </defs>
       <use xlink:href="#DejaVuSans-50"/>
       <use x="63.623047" xlink:href="#DejaVuSans-48"/>
       <use x="127.246094" xlink:href="#DejaVuSans-50"/>
       <use x="190.869141" xlink:href="#DejaVuSans-48"/>
       <use x="254.492188" xlink:href="#DejaVuSans-45"/>
       <use x="290.576172" xlink:href="#DejaVuSans-48"/>
       <use x="354.199219" xlink:href="#DejaVuSans-49"/>
      </g>
     </g>
    </g>
    <g id="xtick_2">
     <g id="line2d_2">
      <g>
       <use style="stroke:#000000;stroke-width:0.8;" x="214.318804" xlink:href="#m94f925c122" y="460.8"/>
      </g>
     </g>
     <g id="text_2">
      <!-- 2020-04 -->
      <g transform="translate(169.64902 500.766215)rotate(-30)scale(0.12 -0.12)">
       <defs>
        <path d="M 37.796875 64.3125 
L 12.890625 25.390625 
L 37.796875 25.390625 
z
M 35.203125 72.90625 
L 47.609375 72.90625 
L 47.609375 25.390625 
L 58.015625 25.390625 
L 58.015625 17.1875 
L 47.609375 17.1875 
L 47.609375 0 
L 37.796875 0 
L 37.796875 17.1875 
L 4.890625 17.1875 
L 4.890625 26.703125 
z
" id="DejaVuSans-52"/>
       </defs>
       <use xlink:href="#DejaVuSans-50"/>
       <use x="63.623047" xlink:href="#DejaVuSans-48"/>
       <use x="127.246094" xlink:href="#DejaVuSans-50"/>
       <use x="190.869141" xlink:href="#DejaVuSans-48"/>
       <use x="254.492188" xlink:href="#DejaVuSans-45"/>
       <use x="290.576172" xlink:href="#DejaVuSans-48"/>
       <use x="354.199219" xlink:href="#DejaVuSans-52"/>
      </g>
     </g>
    </g>
    <g id="xtick_3">
     <g id="line2d_3">
      <g>
       <use style="stroke:#000000;stroke-width:0.8;" x="290.201245" xlink:href="#m94f925c122" y="460.8"/>
      </g>
     </g>
     <g id="text_3">
      <!-- 2020-07 -->
      <g transform="translate(245.53146 500.766215)rotate(-30)scale(0.12 -0.12)">
       <defs>
        <path d="M 8.203125 72.90625 
L 55.078125 72.90625 
L 55.078125 68.703125 
L 28.609375 0 
L 18.3125 0 
L 43.21875 64.59375 
L 8.203125 64.59375 
z
" id="DejaVuSans-55"/>
       </defs>
       <use xlink:href="#DejaVuSans-50"/>
       <use x="63.623047" xlink:href="#DejaVuSans-48"/>
       <use x="127.246094" xlink:href="#DejaVuSans-50"/>
       <use x="190.869141" xlink:href="#DejaVuSans-48"/>
       <use x="254.492188" xlink:href="#DejaVuSans-45"/>
       <use x="290.576172" xlink:href="#DejaVuSans-48"/>
       <use x="354.199219" xlink:href="#DejaVuSans-55"/>
      </g>
     </g>
    </g>
    <g id="xtick_4">
     <g id="line2d_4">
      <g>
       <use style="stroke:#000000;stroke-width:0.8;" x="366.917559" xlink:href="#m94f925c122" y="460.8"/>
      </g>
     </g>
     <g id="text_4">
      <!-- 2020-10 -->
      <g transform="translate(322.247774 500.766215)rotate(-30)scale(0.12 -0.12)">
       <use xlink:href="#DejaVuSans-50"/>
       <use x="63.623047" xlink:href="#DejaVuSans-48"/>
       <use x="127.246094" xlink:href="#DejaVuSans-50"/>
       <use x="190.869141" xlink:href="#DejaVuSans-48"/>
       <use x="254.492188" xlink:href="#DejaVuSans-45"/>
       <use x="290.576172" xlink:href="#DejaVuSans-49"/>
       <use x="354.199219" xlink:href="#DejaVuSans-48"/>
      </g>
     </g>
    </g>
    <g id="xtick_5">
     <g id="line2d_5">
      <g>
       <use style="stroke:#000000;stroke-width:0.8;" x="443.633873" xlink:href="#m94f925c122" y="460.8"/>
      </g>
     </g>
     <g id="text_5">
      <!-- 2021-01 -->
      <g transform="translate(398.964088 500.766215)rotate(-30)scale(0.12 -0.12)">
       <use xlink:href="#DejaVuSans-50"/>
       <use x="63.623047" xlink:href="#DejaVuSans-48"/>
       <use x="127.246094" xlink:href="#DejaVuSans-50"/>
       <use x="190.869141" xlink:href="#DejaVuSans-49"/>
       <use x="254.492188" xlink:href="#DejaVuSans-45"/>
       <use x="290.576172" xlink:href="#DejaVuSans-48"/>
       <use x="354.199219" xlink:href="#DejaVuSans-49"/>
      </g>
     </g>
    </g>
    <g id="xtick_6">
     <g id="line2d_6">
      <g>
       <use style="stroke:#000000;stroke-width:0.8;" x="518.682441" xlink:href="#m94f925c122" y="460.8"/>
      </g>
     </g>
     <g id="text_6">
      <!-- 2021-04 -->
      <g transform="translate(474.012656 500.766215)rotate(-30)scale(0.12 -0.12)">
       <use xlink:href="#DejaVuSans-50"/>
       <use x="63.623047" xlink:href="#DejaVuSans-48"/>
       <use x="127.246094" xlink:href="#DejaVuSans-50"/>
       <use x="190.869141" xlink:href="#DejaVuSans-49"/>
       <use x="254.492188" xlink:href="#DejaVuSans-45"/>
       <use x="290.576172" xlink:href="#DejaVuSans-48"/>
       <use x="354.199219" xlink:href="#DejaVuSans-52"/>
      </g>
     </g>
    </g>
    <g id="xtick_7">
     <g id="line2d_7">
      <g>
       <use style="stroke:#000000;stroke-width:0.8;" x="594.564882" xlink:href="#m94f925c122" y="460.8"/>
      </g>
     </g>
     <g id="text_7">
      <!-- 2021-07 -->
      <g transform="translate(549.895097 500.766215)rotate(-30)scale(0.12 -0.12)">
       <use xlink:href="#DejaVuSans-50"/>
       <use x="63.623047" xlink:href="#DejaVuSans-48"/>
       <use x="127.246094" xlink:href="#DejaVuSans-50"/>
       <use x="190.869141" xlink:href="#DejaVuSans-49"/>
       <use x="254.492188" xlink:href="#DejaVuSans-45"/>
       <use x="290.576172" xlink:href="#DejaVuSans-48"/>
       <use x="354.199219" xlink:href="#DejaVuSans-55"/>
      </g>
     </g>
    </g>
    <g id="xtick_8">
     <g id="line2d_8">
      <g>
       <use style="stroke:#000000;stroke-width:0.8;" x="671.281196" xlink:href="#m94f925c122" y="460.8"/>
      </g>
     </g>
     <g id="text_8">
      <!-- 2021-10 -->
      <g transform="translate(626.611411 500.766215)rotate(-30)scale(0.12 -0.12)">
       <use xlink:href="#DejaVuSans-50"/>
       <use x="63.623047" xlink:href="#DejaVuSans-48"/>
       <use x="127.246094" xlink:href="#DejaVuSans-50"/>
       <use x="190.869141" xlink:href="#DejaVuSans-49"/>
       <use x="254.492188" xlink:href="#DejaVuSans-45"/>
       <use x="290.576172" xlink:href="#DejaVuSans-49"/>
       <use x="354.199219" xlink:href="#DejaVuSans-48"/>
      </g>
     </g>
    </g>
    <g id="xtick_9">
     <g id="line2d_9">
      <g>
       <use style="stroke:#000000;stroke-width:0.8;" x="747.997509" xlink:href="#m94f925c122" y="460.8"/>
      </g>
     </g>
     <g id="text_9">
      <!-- 2022-01 -->
      <g transform="translate(703.327724 500.766215)rotate(-30)scale(0.12 -0.12)">
       <use xlink:href="#DejaVuSans-50"/>
       <use x="63.623047" xlink:href="#DejaVuSans-48"/>
       <use x="127.246094" xlink:href="#DejaVuSans-50"/>
       <use x="190.869141" xlink:href="#DejaVuSans-50"/>
       <use x="254.492188" xlink:href="#DejaVuSans-45"/>
       <use x="290.576172" xlink:href="#DejaVuSans-48"/>
       <use x="354.199219" xlink:href="#DejaVuSans-49"/>
      </g>
     </g>
    </g>
    <g id="text_10">
     <!-- Date -->
     <g transform="translate(424.873828 518.325146)scale(0.15 -0.15)">
      <defs>
       <path d="M 19.671875 64.796875 
L 19.671875 8.109375 
L 31.59375 8.109375 
Q 46.6875 8.109375 53.6875 14.9375 
Q 60.6875 21.78125 60.6875 36.53125 
Q 60.6875 51.171875 53.6875 57.984375 
Q 46.6875 64.796875 31.59375 64.796875 
z
M 9.8125 72.90625 
L 30.078125 72.90625 
Q 51.265625 72.90625 61.171875 64.09375 
Q 71.09375 55.28125 71.09375 36.53125 
Q 71.09375 17.671875 61.125 8.828125 
Q 51.171875 0 30.078125 0 
L 9.8125 0 
z
" id="DejaVuSans-68"/>
       <path d="M 34.28125 27.484375 
Q 23.390625 27.484375 19.1875 25 
Q 14.984375 22.515625 14.984375 16.5 
Q 14.984375 11.71875 18.140625 8.90625 
Q 21.296875 6.109375 26.703125 6.109375 
Q 34.1875 6.109375 38.703125 11.40625 
Q 43.21875 16.703125 43.21875 25.484375 
L 43.21875 27.484375 
z
M 52.203125 31.203125 
L 52.203125 0 
L 43.21875 0 
L 43.21875 8.296875 
Q 40.140625 3.328125 35.546875 0.953125 
Q 30.953125 -1.421875 24.3125 -1.421875 
Q 15.921875 -1.421875 10.953125 3.296875 
Q 6 8.015625 6 15.921875 
Q 6 25.140625 12.171875 29.828125 
Q 18.359375 34.515625 30.609375 34.515625 
L 43.21875 34.515625 
L 43.21875 35.40625 
Q 43.21875 41.609375 39.140625 45 
Q 35.0625 48.390625 27.6875 48.390625 
Q 23 48.390625 18.546875 47.265625 
Q 14.109375 46.140625 10.015625 43.890625 
L 10.015625 52.203125 
Q 14.9375 54.109375 19.578125 55.046875 
Q 24.21875 56 28.609375 56 
Q 40.484375 56 46.34375 49.84375 
Q 52.203125 43.703125 52.203125 31.203125 
z
" id="DejaVuSans-97"/>
       <path d="M 18.3125 70.21875 
L 18.3125 54.6875 
L 36.8125 54.6875 
L 36.8125 47.703125 
L 18.3125 47.703125 
L 18.3125 18.015625 
Q 18.3125 11.328125 20.140625 9.421875 
Q 21.96875 7.515625 27.59375 7.515625 
L 36.8125 7.515625 
L 36.8125 0 
L 27.59375 0 
Q 17.1875 0 13.234375 3.875 
Q 9.28125 7.765625 9.28125 18.015625 
L 9.28125 47.703125 
L 2.6875 47.703125 
L 2.6875 54.6875 
L 9.28125 54.6875 
L 9.28125 70.21875 
z
" id="DejaVuSans-116"/>
       <path d="M 56.203125 29.59375 
L 56.203125 25.203125 
L 14.890625 25.203125 
Q 15.484375 15.921875 20.484375 11.0625 
Q 25.484375 6.203125 34.421875 6.203125 
Q 39.59375 6.203125 44.453125 7.46875 
Q 49.3125 8.734375 54.109375 11.28125 
L 54.109375 2.78125 
Q 49.265625 0.734375 44.1875 -0.34375 
Q 39.109375 -1.421875 33.890625 -1.421875 
Q 20.796875 -1.421875 13.15625 6.1875 
Q 5.515625 13.8125 5.515625 26.8125 
Q 5.515625 40.234375 12.765625 48.109375 
Q 20.015625 56 32.328125 56 
Q 43.359375 56 49.78125 48.890625 
Q 56.203125 41.796875 56.203125 29.59375 
z
M 47.21875 32.234375 
Q 47.125 39.59375 43.09375 43.984375 
Q 39.0625 48.390625 32.421875 48.390625 
Q 24.90625 48.390625 20.390625 44.140625 
Q 15.875 39.890625 15.1875 32.171875 
z
" id="DejaVuSans-101"/>
      </defs>
      <use xlink:href="#DejaVuSans-68"/>
      <use x="77.001953" xlink:href="#DejaVuSans-97"/>
      <use x="138.28125" xlink:href="#DejaVuSans-116"/>
      <use x="177.490234" xlink:href="#DejaVuSans-101"/>
     </g>
    </g>
   </g>
   <g id="matplotlib.axis_2">
    <g id="ytick_1">
     <g id="line2d_10">
      <defs>
       <path d="M 0 0 
L -3.5 0 
" id="m2b6e39577a" style="stroke:#000000;stroke-width:0.8;"/>
      </defs>
      <g>
       <use style="stroke:#000000;stroke-width:0.8;" x="108" xlink:href="#m2b6e39577a" y="450.797538"/>
      </g>
     </g>
     <g id="text_11">
      <!-- 0 -->
      <g transform="translate(93.365 455.3566)scale(0.12 -0.12)">
       <use xlink:href="#DejaVuSans-48"/>
      </g>
     </g>
    </g>
    <g id="ytick_2">
     <g id="line2d_11">
      <g>
       <use style="stroke:#000000;stroke-width:0.8;" x="108" xlink:href="#m2b6e39577a" y="388.657418"/>
      </g>
     </g>
     <g id="text_12">
      <!-- 2 -->
      <g transform="translate(93.365 393.21648)scale(0.12 -0.12)">
       <use xlink:href="#DejaVuSans-50"/>
      </g>
     </g>
    </g>
    <g id="ytick_3">
     <g id="line2d_12">
      <g>
       <use style="stroke:#000000;stroke-width:0.8;" x="108" xlink:href="#m2b6e39577a" y="326.517298"/>
      </g>
     </g>
     <g id="text_13">
      <!-- 4 -->
      <g transform="translate(93.365 331.07636)scale(0.12 -0.12)">
       <use xlink:href="#DejaVuSans-52"/>
      </g>
     </g>
    </g>
    <g id="ytick_4">
     <g id="line2d_13">
      <g>
       <use style="stroke:#000000;stroke-width:0.8;" x="108" xlink:href="#m2b6e39577a" y="264.377177"/>
      </g>
     </g>
     <g id="text_14">
      <!-- 6 -->
      <g transform="translate(93.365 268.93624)scale(0.12 -0.12)">
       <defs>
        <path d="M 33.015625 40.375 
Q 26.375 40.375 22.484375 35.828125 
Q 18.609375 31.296875 18.609375 23.390625 
Q 18.609375 15.53125 22.484375 10.953125 
Q 26.375 6.390625 33.015625 6.390625 
Q 39.65625 6.390625 43.53125 10.953125 
Q 47.40625 15.53125 47.40625 23.390625 
Q 47.40625 31.296875 43.53125 35.828125 
Q 39.65625 40.375 33.015625 40.375 
z
M 52.59375 71.296875 
L 52.59375 62.3125 
Q 48.875 64.0625 45.09375 64.984375 
Q 41.3125 65.921875 37.59375 65.921875 
Q 27.828125 65.921875 22.671875 59.328125 
Q 17.53125 52.734375 16.796875 39.40625 
Q 19.671875 43.65625 24.015625 45.921875 
Q 28.375 48.1875 33.59375 48.1875 
Q 44.578125 48.1875 50.953125 41.515625 
Q 57.328125 34.859375 57.328125 23.390625 
Q 57.328125 12.15625 50.6875 5.359375 
Q 44.046875 -1.421875 33.015625 -1.421875 
Q 20.359375 -1.421875 13.671875 8.265625 
Q 6.984375 17.96875 6.984375 36.375 
Q 6.984375 53.65625 15.1875 63.9375 
Q 23.390625 74.21875 37.203125 74.21875 
Q 40.921875 74.21875 44.703125 73.484375 
Q 48.484375 72.75 52.59375 71.296875 
z
" id="DejaVuSans-54"/>
       </defs>
       <use xlink:href="#DejaVuSans-54"/>
      </g>
     </g>
    </g>
    <g id="ytick_5">
     <g id="line2d_14">
      <g>
       <use style="stroke:#000000;stroke-width:0.8;" x="108" xlink:href="#m2b6e39577a" y="202.237057"/>
      </g>
     </g>
     <g id="text_15">
      <!-- 8 -->
      <g transform="translate(93.365 206.79612)scale(0.12 -0.12)">
       <defs>
        <path d="M 31.78125 34.625 
Q 24.75 34.625 20.71875 30.859375 
Q 16.703125 27.09375 16.703125 20.515625 
Q 16.703125 13.921875 20.71875 10.15625 
Q 24.75 6.390625 31.78125 6.390625 
Q 38.8125 6.390625 42.859375 10.171875 
Q 46.921875 13.96875 46.921875 20.515625 
Q 46.921875 27.09375 42.890625 30.859375 
Q 38.875 34.625 31.78125 34.625 
z
M 21.921875 38.8125 
Q 15.578125 40.375 12.03125 44.71875 
Q 8.5 49.078125 8.5 55.328125 
Q 8.5 64.0625 14.71875 69.140625 
Q 20.953125 74.21875 31.78125 74.21875 
Q 42.671875 74.21875 48.875 69.140625 
Q 55.078125 64.0625 55.078125 55.328125 
Q 55.078125 49.078125 51.53125 44.71875 
Q 48 40.375 41.703125 38.8125 
Q 48.828125 37.15625 52.796875 32.3125 
Q 56.78125 27.484375 56.78125 20.515625 
Q 56.78125 9.90625 50.3125 4.234375 
Q 43.84375 -1.421875 31.78125 -1.421875 
Q 19.734375 -1.421875 13.25 4.234375 
Q 6.78125 9.90625 6.78125 20.515625 
Q 6.78125 27.484375 10.78125 32.3125 
Q 14.796875 37.15625 21.921875 38.8125 
z
M 18.3125 54.390625 
Q 18.3125 48.734375 21.84375 45.5625 
Q 25.390625 42.390625 31.78125 42.390625 
Q 38.140625 42.390625 41.71875 45.5625 
Q 45.3125 48.734375 45.3125 54.390625 
Q 45.3125 60.0625 41.71875 63.234375 
Q 38.140625 66.40625 31.78125 66.40625 
Q 25.390625 66.40625 21.84375 63.234375 
Q 18.3125 60.0625 18.3125 54.390625 
z
" id="DejaVuSans-56"/>
       </defs>
       <use xlink:href="#DejaVuSans-56"/>
      </g>
     </g>
    </g>
    <g id="ytick_6">
     <g id="line2d_15">
      <g>
       <use style="stroke:#000000;stroke-width:0.8;" x="108" xlink:href="#m2b6e39577a" y="140.096937"/>
      </g>
     </g>
     <g id="text_16">
      <!-- 10 -->
      <g transform="translate(85.73 144.656)scale(0.12 -0.12)">
       <use xlink:href="#DejaVuSans-49"/>
       <use x="63.623047" xlink:href="#DejaVuSans-48"/>
      </g>
     </g>
    </g>
    <g id="ytick_7">
     <g id="line2d_16">
      <g>
       <use style="stroke:#000000;stroke-width:0.8;" x="108" xlink:href="#m2b6e39577a" y="77.956817"/>
      </g>
     </g>
     <g id="text_17">
      <!-- 12 -->
      <g transform="translate(85.73 82.51588)scale(0.12 -0.12)">
       <use xlink:href="#DejaVuSans-49"/>
       <use x="63.623047" xlink:href="#DejaVuSans-50"/>
      </g>
     </g>
    </g>
    <g id="text_18">
     <!-- SO2(ppm) -->
     <g transform="translate(78.610469 303.077578)rotate(-90)scale(0.15 -0.15)">
      <defs>
       <path d="M 53.515625 70.515625 
L 53.515625 60.890625 
Q 47.90625 63.578125 42.921875 64.890625 
Q 37.9375 66.21875 33.296875 66.21875 
Q 25.25 66.21875 20.875 63.09375 
Q 16.5 59.96875 16.5 54.203125 
Q 16.5 49.359375 19.40625 46.890625 
Q 22.3125 44.4375 30.421875 42.921875 
L 36.375 41.703125 
Q 47.40625 39.59375 52.65625 34.296875 
Q 57.90625 29 57.90625 20.125 
Q 57.90625 9.515625 50.796875 4.046875 
Q 43.703125 -1.421875 29.984375 -1.421875 
Q 24.8125 -1.421875 18.96875 -0.25 
Q 13.140625 0.921875 6.890625 3.21875 
L 6.890625 13.375 
Q 12.890625 10.015625 18.65625 8.296875 
Q 24.421875 6.59375 29.984375 6.59375 
Q 38.421875 6.59375 43.015625 9.90625 
Q 47.609375 13.234375 47.609375 19.390625 
Q 47.609375 24.75 44.3125 27.78125 
Q 41.015625 30.8125 33.5 32.328125 
L 27.484375 33.5 
Q 16.453125 35.6875 11.515625 40.375 
Q 6.59375 45.0625 6.59375 53.421875 
Q 6.59375 63.09375 13.40625 68.65625 
Q 20.21875 74.21875 32.171875 74.21875 
Q 37.3125 74.21875 42.625 73.28125 
Q 47.953125 72.359375 53.515625 70.515625 
z
" id="DejaVuSans-83"/>
       <path d="M 39.40625 66.21875 
Q 28.65625 66.21875 22.328125 58.203125 
Q 16.015625 50.203125 16.015625 36.375 
Q 16.015625 22.609375 22.328125 14.59375 
Q 28.65625 6.59375 39.40625 6.59375 
Q 50.140625 6.59375 56.421875 14.59375 
Q 62.703125 22.609375 62.703125 36.375 
Q 62.703125 50.203125 56.421875 58.203125 
Q 50.140625 66.21875 39.40625 66.21875 
z
M 39.40625 74.21875 
Q 54.734375 74.21875 63.90625 63.9375 
Q 73.09375 53.65625 73.09375 36.375 
Q 73.09375 19.140625 63.90625 8.859375 
Q 54.734375 -1.421875 39.40625 -1.421875 
Q 24.03125 -1.421875 14.8125 8.828125 
Q 5.609375 19.09375 5.609375 36.375 
Q 5.609375 53.65625 14.8125 63.9375 
Q 24.03125 74.21875 39.40625 74.21875 
z
" id="DejaVuSans-79"/>
       <path d="M 31 75.875 
Q 24.46875 64.65625 21.28125 53.65625 
Q 18.109375 42.671875 18.109375 31.390625 
Q 18.109375 20.125 21.3125 9.0625 
Q 24.515625 -2 31 -13.1875 
L 23.1875 -13.1875 
Q 15.875 -1.703125 12.234375 9.375 
Q 8.59375 20.453125 8.59375 31.390625 
Q 8.59375 42.28125 12.203125 53.3125 
Q 15.828125 64.359375 23.1875 75.875 
z
" id="DejaVuSans-40"/>
       <path d="M 18.109375 8.203125 
L 18.109375 -20.796875 
L 9.078125 -20.796875 
L 9.078125 54.6875 
L 18.109375 54.6875 
L 18.109375 46.390625 
Q 20.953125 51.265625 25.265625 53.625 
Q 29.59375 56 35.59375 56 
Q 45.5625 56 51.78125 48.09375 
Q 58.015625 40.1875 58.015625 27.296875 
Q 58.015625 14.40625 51.78125 6.484375 
Q 45.5625 -1.421875 35.59375 -1.421875 
Q 29.59375 -1.421875 25.265625 0.953125 
Q 20.953125 3.328125 18.109375 8.203125 
z
M 48.6875 27.296875 
Q 48.6875 37.203125 44.609375 42.84375 
Q 40.53125 48.484375 33.40625 48.484375 
Q 26.265625 48.484375 22.1875 42.84375 
Q 18.109375 37.203125 18.109375 27.296875 
Q 18.109375 17.390625 22.1875 11.75 
Q 26.265625 6.109375 33.40625 6.109375 
Q 40.53125 6.109375 44.609375 11.75 
Q 48.6875 17.390625 48.6875 27.296875 
z
" id="DejaVuSans-112"/>
       <path d="M 52 44.1875 
Q 55.375 50.25 60.0625 53.125 
Q 64.75 56 71.09375 56 
Q 79.640625 56 84.28125 50.015625 
Q 88.921875 44.046875 88.921875 33.015625 
L 88.921875 0 
L 79.890625 0 
L 79.890625 32.71875 
Q 79.890625 40.578125 77.09375 44.375 
Q 74.3125 48.1875 68.609375 48.1875 
Q 61.625 48.1875 57.5625 43.546875 
Q 53.515625 38.921875 53.515625 30.90625 
L 53.515625 0 
L 44.484375 0 
L 44.484375 32.71875 
Q 44.484375 40.625 41.703125 44.40625 
Q 38.921875 48.1875 33.109375 48.1875 
Q 26.21875 48.1875 22.15625 43.53125 
Q 18.109375 38.875 18.109375 30.90625 
L 18.109375 0 
L 9.078125 0 
L 9.078125 54.6875 
L 18.109375 54.6875 
L 18.109375 46.1875 
Q 21.1875 51.21875 25.484375 53.609375 
Q 29.78125 56 35.6875 56 
Q 41.65625 56 45.828125 52.96875 
Q 50 49.953125 52 44.1875 
z
" id="DejaVuSans-109"/>
       <path d="M 8.015625 75.875 
L 15.828125 75.875 
Q 23.140625 64.359375 26.78125 53.3125 
Q 30.421875 42.28125 30.421875 31.390625 
Q 30.421875 20.453125 26.78125 9.375 
Q 23.140625 -1.703125 15.828125 -13.1875 
L 8.015625 -13.1875 
Q 14.5 -2 17.703125 9.0625 
Q 20.90625 20.125 20.90625 31.390625 
Q 20.90625 42.671875 17.703125 53.65625 
Q 14.5 64.65625 8.015625 75.875 
z
" id="DejaVuSans-41"/>
      </defs>
      <use xlink:href="#DejaVuSans-83"/>
      <use x="63.476562" xlink:href="#DejaVuSans-79"/>
      <use x="142.1875" xlink:href="#DejaVuSans-50"/>
      <use x="205.810547" xlink:href="#DejaVuSans-40"/>
      <use x="244.824219" xlink:href="#DejaVuSans-112"/>
      <use x="308.300781" xlink:href="#DejaVuSans-112"/>
      <use x="371.777344" xlink:href="#DejaVuSans-109"/>
      <use x="469.189453" xlink:href="#DejaVuSans-41"/>
     </g>
    </g>
   </g>
   <g id="line2d_17">
    <path clip-path="url(#pb9c657e7cb)" d="M 138.436364 400.73435 
L 139.270237 401.446631 
L 140.10411 374.549539 
L 140.937983 370.716788 
L 141.771856 388.320308 
L 142.605729 381.92305 
L 143.439601 377.330827 
L 144.273474 360.507425 
L 145.107347 384.521475 
L 145.94122 382.757731 
L 146.775093 385.301592 
L 147.608966 338.189283 
L 148.442839 340.970572 
L 149.276712 379.264162 
L 150.110585 392.356567 
L 150.944458 391.813877 
L 151.778331 369.597489 
L 152.612204 335.50975 
L 153.446077 355.724966 
L 154.27995 351.281689 
L 155.113823 376.720301 
L 155.947696 385.878201 
L 156.781569 384.487557 
L 157.615442 393.40803 
L 158.449315 399.784642 
L 159.283188 403.074702 
L 160.117061 400.327332 
L 160.950934 387.54019 
L 161.784807 364.81503 
L 162.61868 355.521458 
L 164.286426 378.687553 
L 165.120299 389.710952 
L 165.954172 388.45598 
L 166.788045 399.954233 
L 167.621918 398.36008 
L 168.455791 399.106279 
L 169.289664 391.983468 
L 170.123537 397.817389 
L 170.95741 389.575279 
L 171.791283 391.305105 
L 172.625156 390.389315 
L 173.459029 394.391656 
L 174.292902 395.341364 
L 175.126775 396.121482 
L 175.960648 396.121482 
L 176.794521 401.175286 
L 177.628394 379.874689 
L 178.462267 366.036084 
L 179.296139 367.765909 
L 180.130012 369.088717 
L 180.963885 375.397493 
L 181.797758 352.672333 
L 182.631631 382.248959 
L 183.465504 384.724984 
L 184.299377 383.029076 
L 185.13325 379.273412 
L 185.967123 384.114457 
L 186.800996 380.179952 
L 187.634869 363.35655 
L 188.468742 386.488728 
L 189.302615 386.047792 
L 190.136488 386.522646 
L 190.970361 386.861827 
L 191.804234 382.079368 
L 192.638107 345.786949 
L 195.139726 266.995089 
L 196.807472 379.230244 
L 197.641345 384.521475 
L 198.475218 377.805681 
L 199.309091 379.806852 
L 200.142964 357.590465 
L 200.976837 376.683299 
L 201.81071 383.33434 
L 204.312329 365.154212 
L 205.146202 370.411525 
L 205.980075 377.262991 
L 206.813948 375.499247 
L 207.647821 382.96124 
L 208.481694 381.638432 
L 209.315567 371.903924 
L 210.14944 369.495735 
L 210.983313 367.460646 
L 211.817186 371.632578 
L 212.651059 359.455963 
L 213.484932 340.563554 
L 214.318804 351.960052 
L 215.152677 356.440197 
L 215.98655 359.69339 
L 216.820423 357.658301 
L 217.654296 357.522628 
L 218.488169 360.575262 
L 219.322042 347.584611 
L 220.155915 330.320273 
L 220.989788 332.084017 
L 221.823661 345.95654 
L 222.657534 351.654789 
L 223.491407 328.013839 
L 224.32528 287.549487 
L 225.159153 285.039544 
L 225.993026 283.682818 
L 226.826899 324.452433 
L 227.660772 334.254778 
L 228.494645 339.308582 
L 229.328518 336.527294 
L 230.162391 333.338988 
L 230.996264 336.764721 
L 231.830137 337.205657 
L 234.331756 325.537814 
L 235.165629 301.659437 
L 235.999502 261.873448 
L 236.833375 267.910879 
L 237.667248 320.314419 
L 238.501121 319.364711 
L 239.334994 327.979921 
L 240.168867 329.336647 
L 241.00274 323.977579 
L 241.836613 326.724949 
L 242.670486 325.910914 
L 243.504359 321.501554 
L 244.338232 319.873483 
L 245.172105 320.416173 
L 246.005978 316.413832 
L 246.839851 326.012668 
L 248.507597 294.909725 
L 249.341469 290.025512 
L 250.175342 313.462953 
L 251.009215 349.992799 
L 251.843088 353.248942 
L 252.676961 353.28286 
L 253.510834 348.636073 
L 254.344707 344.905077 
L 255.17858 345.074668 
L 256.012453 341.106244 
L 256.846326 344.260632 
L 257.680199 344.599814 
L 258.514072 345.58344 
L 259.347945 339.444255 
L 260.181818 336.367394 
L 261.015691 331.982262 
L 261.849564 330.727291 
L 262.683437 333.406825 
L 264.351183 342.123789 
L 265.185056 339.512091 
L 266.018929 338.460629 
L 266.852802 334.59396 
L 267.686675 331.812672 
L 268.520548 331.134309 
L 269.354421 326.89454 
L 270.188294 331.643081 
L 271.022167 331.778753 
L 271.85604 326.012668 
L 272.689913 331.10039 
L 273.523786 311.360028 
L 274.357659 304.067626 
L 275.191532 306.984587 
L 276.025405 304.305053 
L 276.859278 300.099202 
L 277.693151 294.428704 
L 278.527024 295.452416 
L 279.360897 290.839548 
L 280.19477 290.737793 
L 281.028643 292.331946 
L 281.862516 267.775206 
L 282.696389 280.392758 
L 283.530262 242.811449 
L 284.364134 270.692167 
L 285.198007 424.341382 
L 286.03188 440.31683 
L 287.699626 427.427933 
L 288.533499 438.587004 
L 289.367372 433.465364 
L 290.201245 442.996364 
L 291.035118 435.127353 
L 291.868991 433.499282 
L 292.702864 437.264196 
L 293.536737 433.567118 
L 294.37061 432.006883 
L 295.204483 430.107467 
L 296.038356 431.15893 
L 296.872229 430.955421 
L 297.706102 432.583492 
L 298.539975 430.582321 
L 299.373848 432.346065 
L 300.207721 429.734367 
L 301.041594 429.157759 
L 301.875467 426.410389 
L 302.70934 427.054834 
L 303.543213 430.582321 
L 304.377086 429.191677 
L 305.210959 429.49694 
L 306.044832 425.385471 
L 306.878705 430.819748 
L 307.712578 430.751912 
L 308.546451 424.273545 
L 309.380324 420.915649 
L 310.214197 423.561264 
L 311.04807 427.834951 
L 311.881943 423.256001 
L 312.715816 419.79635 
L 313.549689 422.916819 
L 314.383562 422.272375 
L 315.217435 425.799862 
L 316.051308 422.454299 
L 316.885181 423.222083 
L 317.719054 417.59167 
L 318.552927 416.913307 
L 319.3868 418.982314 
L 320.220672 428.852496 
L 321.054545 428.95425 
L 321.888418 433.668873 
L 322.722291 425.494599 
L 323.556164 418.50746 
L 324.390037 418.337869 
L 325.22391 422.645474 
L 326.057783 418.371788 
L 326.891656 416.714222 
L 327.725529 419.117987 
L 328.559402 425.019745 
L 329.393275 420.576467 
L 330.227148 417.320325 
L 331.061021 414.8443 
L 331.894894 414.539037 
L 332.728767 412.978802 
L 333.56264 409.926168 
L 334.396513 415.2174 
L 335.230386 413.080556 
L 336.064259 411.552454 
L 336.898132 409.553069 
L 337.732005 400.700432 
L 338.565878 400.496923 
L 339.399751 398.936688 
L 340.233624 399.852478 
L 341.067497 399.920315 
L 343.569116 388.116799 
L 344.402989 393.102767 
L 345.236862 397.240781 
L 346.070735 400.598677 
L 346.904608 402.260667 
L 347.738481 400.700432 
L 348.572354 406.839617 
L 349.406227 403.379966 
L 350.2401 373.599831 
L 351.073973 362.44076 
L 351.907846 362.610351 
L 352.741719 366.070002 
L 353.575592 363.269332 
L 354.409465 366.002166 
L 355.243337 341.241917 
L 356.07721 356.369411 
L 356.911083 357.285201 
L 357.744956 363.051287 
L 358.578829 364.306258 
L 359.412702 361.999824 
L 360.246575 360.812689 
L 361.080448 356.57292 
L 361.914321 355.996312 
L 362.748194 361.287543 
L 363.582067 360.948361 
L 364.41594 359.1507 
L 365.249813 362.271169 
L 366.083686 359.422045 
L 366.917559 364.64544 
L 368.585305 360.202162 
L 369.419178 358.947191 
L 370.253051 368.003336 
L 371.086924 367.901582 
L 373.588543 328.013839 
L 374.422416 301.116747 
L 375.256289 330.082846 
L 376.090162 336.629049 
L 376.924035 355.758885 
L 377.757908 357.319119 
L 378.591781 351.146016 
L 379.425654 341.852444 
L 381.0934 314.209152 
L 381.927273 320.721437 
L 382.761146 317.804476 
L 383.595019 315.599796 
L 384.428892 298.233704 
L 385.262765 263.12842 
L 386.096638 251.698004 
L 386.930511 302.541309 
L 387.764384 317.634885 
L 388.598257 317.227867 
L 389.43213 322.993953 
L 390.266002 330.761209 
L 391.099875 324.927287 
L 391.933748 324.995124 
L 392.767621 323.468807 
L 393.601494 299.726103 
L 394.435367 303.796281 
L 395.26924 299.04774 
L 396.103113 302.303882 
L 396.936986 265.604445 
L 397.770859 223.410268 
L 398.604732 218.356463 
L 399.438605 218.559972 
L 400.272478 204.958795 
L 401.106351 267.16468 
L 401.940224 264.91012 
L 402.774097 225.174011 
L 403.60797 251.630167 
L 404.441843 305.424352 
L 405.275716 298.572886 
L 406.109589 313.862597 
L 406.943462 310.478156 
L 407.777335 309.155348 
L 408.611208 312.377572 
L 409.445081 311.224355 
L 410.278954 311.902718 
L 411.9467 302.473473 
L 412.780573 304.101544 
L 413.614446 311.427864 
L 414.448319 303.389263 
L 415.282192 298.165868 
L 416.116065 278.730768 
L 416.949938 267.605616 
L 417.783811 262.823157 
L 418.617684 256.785726 
L 419.451557 271.200939 
L 420.28543 265.367018 
L 421.953176 225.275766 
L 422.787049 178.584042 
L 423.620922 225.411438 
L 424.454795 242.099168 
L 425.288667 212.386869 
L 426.12254 284.549273 
L 426.956413 279.63771 
L 427.790286 307.955717 
L 429.458032 285.039544 
L 430.291905 255.021982 
L 431.125778 243.29247 
L 431.959651 240.505015 
L 432.793524 235.485129 
L 433.627397 205.569321 
L 434.46127 189.186855 
L 435.295143 195.122531 
L 436.129016 209.741254 
L 436.962889 269.403278 
L 437.796762 263.569356 
L 438.630635 294.163526 
L 439.464508 266.825498 
L 440.298381 266.79158 
L 441.132254 280.52843 
L 441.966127 263.942456 
L 442.8 222.053542 
L 443.633873 187.931884 
L 444.467746 185.761122 
L 445.301619 215.134239 
L 446.135492 164.290934 
L 446.969365 86.923636 
L 447.803238 228.599744 
L 448.637111 249.662915 
L 449.470984 240.674605 
L 450.304857 186.744749 
L 451.13873 156.761105 
L 451.972603 178.46872 
L 452.806476 132.407874 
L 453.640349 154.115489 
L 454.474222 160.661692 
L 455.308095 206.858211 
L 456.141968 237.011445 
L 456.975841 233.416122 
L 457.809714 177.044158 
L 458.643587 244.106505 
L 459.47746 252.885139 
L 460.311333 247.593908 
L 461.145205 260.482804 
L 461.979078 261.981987 
L 462.812951 272.964683 
L 463.646824 267.503861 
L 464.480697 269.199769 
L 465.31457 260.584559 
L 466.148443 265.841872 
L 466.982316 242.743612 
L 467.816189 255.055901 
L 468.650062 246.881627 
L 469.483935 259.058242 
L 470.317808 246.2711 
L 471.151681 256.582217 
L 471.985554 251.799758 
L 472.819427 259.363505 
L 473.6533 244.06642 
L 474.487173 247.695662 
L 475.321046 258.210288 
L 476.154919 260.347132 
L 476.988792 275.576381 
L 477.822665 271.709712 
L 478.656538 252.512039 
L 479.490411 247.865253 
L 480.324284 262.483975 
L 481.158157 246.915545 
L 481.99203 251.053559 
L 482.825903 254.614965 
L 483.659776 234.874602 
L 484.493649 234.874602 
L 485.327522 237.995072 
L 486.161395 251.22315 
L 486.995268 253.22432 
L 487.829141 243.89683 
L 488.663014 257.328416 
L 489.496887 255.530755 
L 490.33076 254.648883 
L 491.164633 247.933089 
L 491.998506 246.576363 
L 492.832379 239.385716 
L 493.666252 234.399748 
L 494.500125 252.647712 
L 495.333998 246.983381 
L 496.16787 242.743612 
L 497.001743 253.902683 
L 497.835616 244.032502 
L 498.669489 253.902683 
L 499.503362 246.101509 
L 500.337235 250.171687 
L 501.171108 248.306189 
L 502.004981 228.667581 
L 502.838854 242.574022 
L 503.672727 245.287474 
L 504.5066 244.371684 
L 505.340473 245.72841 
L 506.174346 247.390399 
L 507.008219 251.698004 
L 507.842092 254.241865 
L 508.675965 258.651224 
L 509.509838 240.505015 
L 510.343711 212.522542 
L 511.177584 189.729546 
L 512.011457 111.769418 
L 513.679203 336.866476 
L 514.513076 348.907419 
L 515.346949 346.634903 
L 516.180822 351.383443 
L 517.014695 346.600984 
L 517.848568 339.17291 
L 518.682441 343.446597 
L 519.516314 344.328468 
L 520.350187 346.567066 
L 521.18406 345.481686 
L 522.017933 348.941337 
L 522.851806 349.110927 
L 523.685679 351.858298 
L 524.519552 349.6197 
L 525.353425 349.2466 
L 526.187298 346.49923 
L 527.021171 351.519116 
L 527.855044 351.417362 
L 528.688917 349.2466 
L 529.52279 349.721454 
L 530.356663 349.382273 
L 531.190535 351.519116 
L 532.024408 346.261803 
L 532.858281 351.790461 
L 533.692154 347.109757 
L 534.526027 347.991629 
L 535.3599 349.755372 
L 536.193773 347.482856 
L 537.027646 343.926296 
L 537.861519 355.11444 
L 538.695392 352.875842 
L 539.529265 355.623212 
L 540.363138 348.262974 
L 541.197011 344.226714 
L 542.030884 345.820867 
L 542.864757 340.461799 
L 543.69863 347.618529 
L 544.532503 347.482856 
L 545.366376 347.109757 
L 546.200249 340.733145 
L 547.034122 340.461799 
L 547.867995 345.990458 
L 548.701868 342.768234 
L 549.535741 338.731974 
L 550.369614 340.800981 
L 551.203487 341.479344 
L 552.03736 340.495718 
L 552.871233 340.868817 
L 553.705106 339.274664 
L 554.538979 335.848931 
L 555.372852 338.392792 
L 556.206725 342.530807 
L 557.040598 341.00449 
L 557.874471 337.985775 
L 558.708344 340.156536 
L 559.542217 340.190454 
L 560.37609 339.783436 
L 561.209963 343.412678 
L 562.043836 345.95654 
L 562.877709 350.399817 
L 563.711582 347.279347 
L 564.545455 345.04075 
L 565.379328 338.291038 
L 566.2132 337.917938 
L 567.047073 339.783436 
L 567.880946 341.140162 
L 568.714819 336.96823 
L 569.548692 338.426711 
L 570.382565 335.272323 
L 572.050311 337.036066 
L 572.884184 337.002148 
L 573.718057 336.493376 
L 574.55193 340.054782 
L 575.385803 342.022034 
L 577.053549 349.78929 
L 578.721295 281.410302 
L 579.555168 272.795092 
L 580.389041 272.862929 
L 581.222914 272.421993 
L 582.056787 276.661761 
L 582.89066 270.522576 
L 583.724533 274.083982 
L 584.558406 275.745971 
L 585.392279 279.137786 
L 586.226152 273.948309 
L 587.060025 277.543633 
L 587.893898 269.674623 
L 588.727771 270.352986 
L 589.561644 270.726085 
L 590.395517 267.843043 
L 591.22939 273.168192 
L 592.063263 269.16585 
L 592.897136 269.674623 
L 593.731009 270.047722 
L 594.564882 272.014975 
L 595.398755 269.606786 
L 596.232628 270.784671 
L 597.066501 273.914391 
L 598.734247 277.882815 
L 599.56812 270.861758 
L 600.401993 279.782231 
L 601.235866 281.138957 
L 602.069738 274.898018 
L 602.903611 277.170534 
L 603.737484 273.846555 
L 605.40523 269.199769 
L 606.239103 276.458252 
L 607.072976 271.099185 
L 607.906849 274.083982 
L 608.740722 277.984569 
L 609.574595 277.882815 
L 610.408468 274.931936 
L 611.242341 272.795092 
L 612.076214 271.607957 
L 612.910087 275.576381 
L 613.74396 273.609128 
L 614.577833 277.374043 
L 615.411706 274.898018 
L 616.245579 276.152989 
L 617.079452 271.574039 
L 617.913325 271.709712 
L 618.747198 274.830181 
L 619.581071 275.101527 
L 620.414944 272.048893 
L 621.248817 267.436025 
L 622.08269 278.289833 
L 622.916563 268.962342 
L 623.750436 270.963512 
L 624.584309 265.570527 
L 625.418182 266.282808 
L 626.252055 266.452399 
L 627.085928 269.979886 
L 627.919801 266.825498 
L 628.753674 266.24889 
L 629.587547 268.894505 
L 630.42142 267.944797 
L 631.255293 265.027836 
L 632.089166 267.232516 
L 632.923039 266.723744 
L 633.756912 263.806783 
L 634.590785 268.385733 
L 635.424658 270.251231 
L 636.258531 267.775206 
L 637.092403 268.148306 
L 637.926276 265.197427 
L 638.760149 265.909708 
L 639.594022 264.790409 
L 640.427895 264.654737 
L 641.261768 269.53895 
L 642.095641 266.893334 
L 642.929514 267.537779 
L 643.763387 270.149477 
L 644.59726 268.182224 
L 645.431133 271.37053 
L 646.265006 266.927253 
L 647.098879 266.520235 
L 647.932752 273.880473 
L 648.766625 269.572868 
L 649.600498 272.184566 
L 650.434371 267.775206 
L 651.268244 268.894505 
L 652.102117 271.133103 
L 652.93599 270.285149 
L 653.769863 276.051235 
L 655.437609 271.234858 
L 656.271482 272.320238 
L 657.105355 266.384562 
L 657.939228 269.878132 
L 658.773101 267.639534 
L 659.606974 267.503861 
L 660.440847 272.693338 
L 661.27472 269.844213 
L 662.108593 265.841872 
L 662.942466 273.676964 
L 663.776339 277.950651 
L 665.444085 272.625502 
L 666.277958 275.542462 
L 667.111831 271.981057 
L 667.945704 278.255914 
L 668.779577 275.203281 
L 669.61345 276.560007 
L 670.447323 276.899188 
L 671.281196 277.441879 
L 672.115068 275.067608 
L 672.948941 273.371701 
L 673.782814 273.066438 
L 674.616687 272.388075 
L 675.45056 273.914391 
L 676.284433 273.405619 
L 677.118306 274.457082 
L 677.952179 270.692167 
L 678.786052 221.748278 
L 679.619925 256.165509 
L 680.453798 273.134274 
L 681.287671 278.323751 
L 682.121544 273.710882 
L 682.955417 265.299181 
L 683.78929 265.87579 
L 684.623163 268.317897 
L 685.457036 265.807954 
L 686.290909 260.67953 
L 687.124782 264.145964 
L 687.958655 264.349473 
L 688.792528 262.75532 
L 689.626401 259.974032 
L 690.460274 260.313214 
L 691.294147 260.876777 
L 692.12802 264.15081 
L 692.961893 279.510886 
L 693.795766 283.174046 
L 694.629639 280.52843 
L 695.463512 278.798605 
L 696.297385 275.678135 
L 697.965131 283.716736 
L 698.799004 282.834864 
L 699.632877 284.19159 
L 700.46675 284.225509 
L 701.300623 279.273459 
L 702.134496 282.19042 
L 702.968369 281.579893 
L 704.636115 239.962324 
L 705.469988 230.566997 
L 706.303861 190.528164 
L 707.137733 186.778667 
L 707.971606 230.533079 
L 708.805479 263.942456 
L 709.639352 255.327246 
L 710.473225 252.376367 
L 711.307098 254.688968 
L 712.140971 250.692793 
L 712.974844 276.963941 
L 713.808717 276.445919 
L 714.64259 273.004768 
L 715.476463 239.999326 
L 717.144209 188.641081 
L 717.978082 180.611731 
L 718.811955 211.508081 
L 719.645828 231.821969 
L 720.479701 232.413994 
L 721.313574 235.52213 
L 722.147447 213.728178 
L 722.98132 180.870742 
L 723.815193 199.001534 
L 724.649066 176.097533 
L 725.482939 194.043318 
L 726.316812 190.195149 
L 727.150685 198.853528 
L 727.984558 255.577007 
L 728.818431 264.050377 
L 729.652304 262.792322 
L 730.486177 267.602532 
L 731.32005 260.535223 
L 732.153923 244.069504 
L 732.987796 236.706182 
L 733.821669 251.432826 
L 735.489415 234.671093 
L 737.157161 155.968654 
L 738.824907 245.327559 
L 739.65878 233.080023 
L 740.492653 218.612391 
L 741.326526 210.213024 
L 742.160399 216.170285 
L 742.994271 226.752747 
L 743.828144 221.572521 
L 744.662017 172.58238 
L 745.49589 160.22384 
L 746.329763 182.165799 
L 747.163636 171.546334 
L 747.163636 171.546334 
" style="fill:none;stroke:#1f77b4;stroke-linecap:square;stroke-width:1.5;"/>
   </g>
   <g id="line2d_18">
    <path clip-path="url(#pb9c657e7cb)" d="M 138.436364 400.976656 
L 139.270237 401.089928 
L 140.10411 369.381095 
L 140.937983 376.05658 
L 141.771856 380.915706 
L 143.439601 384.336054 
L 144.273474 364.295626 
L 145.107347 378.604566 
L 145.94122 377.617493 
L 146.775093 383.615087 
L 147.608966 358.567411 
L 148.442839 318.927274 
L 149.276712 373.520873 
L 150.110585 381.547205 
L 150.944458 393.420414 
L 151.778331 374.52612 
L 152.612204 324.320031 
L 153.446077 335.759187 
L 154.27995 358.386157 
L 155.113823 374.30328 
L 155.947696 386.650508 
L 156.781569 375.060724 
L 158.449315 403.047926 
L 159.283188 383.817703 
L 160.117061 373.860347 
L 160.950934 373.952059 
L 161.784807 356.953317 
L 162.61868 356.87641 
L 163.452553 357.654272 
L 164.286426 365.968292 
L 165.120299 379.459228 
L 165.954172 381.681309 
L 166.788045 391.871354 
L 167.621918 400.213016 
L 168.455791 396.965254 
L 169.289664 385.517869 
L 170.123537 402.364596 
L 170.95741 386.798753 
L 171.791283 380.873341 
L 172.625156 378.43083 
L 173.459029 391.689859 
L 174.292902 393.00854 
L 175.126775 393.043376 
L 175.960648 400.824848 
L 176.794521 377.043079 
L 177.628394 361.046739 
L 178.462267 365.248832 
L 179.296139 366.434712 
L 180.963885 372.450262 
L 181.797758 332.070253 
L 182.631631 377.999812 
L 183.465504 385.029599 
L 184.299377 379.587988 
L 185.13325 374.88529 
L 186.800996 382.224328 
L 187.634869 366.089277 
L 188.468742 377.154618 
L 190.970361 384.36807 
L 191.804234 378.43803 
L 192.638107 368.354077 
L 193.47198 328.721036 
L 194.305853 301.378166 
L 195.139726 267.511341 
L 195.973599 286.641224 
L 196.807472 376.120259 
L 197.641345 375.763159 
L 198.475218 375.575245 
L 199.309091 377.418641 
L 200.142964 359.234189 
L 200.976837 377.109369 
L 201.81071 379.348199 
L 202.644583 378.212538 
L 203.478456 375.805259 
L 204.312329 365.584596 
L 205.146202 366.468921 
L 205.980075 373.455543 
L 206.813948 372.374353 
L 207.647821 379.27106 
L 208.481694 379.558873 
L 209.315567 376.021847 
L 210.14944 373.228942 
L 210.983313 376.802939 
L 211.817186 383.771475 
L 212.651059 375.31366 
L 213.484932 339.540575 
L 214.318804 341.29265 
L 215.152677 341.260003 
L 215.98655 376.346534 
L 216.820423 365.277908 
L 217.654296 369.71542 
L 218.488169 366.879289 
L 219.322042 358.141877 
L 220.155915 328.772399 
L 220.989788 333.471697 
L 222.657534 356.495281 
L 223.491407 347.578166 
L 224.32528 293.693438 
L 225.159153 274.222581 
L 225.993026 278.502481 
L 226.826899 318.822437 
L 227.660772 320.077866 
L 228.494645 331.620222 
L 229.328518 335.199853 
L 230.162391 336.251247 
L 230.996264 333.52436 
L 231.830137 341.435678 
L 232.66401 338.45188 
L 233.497883 327.842327 
L 234.331756 326.493052 
L 235.165629 292.140901 
L 235.999502 276.540077 
L 236.833375 244.069085 
L 237.667248 319.529957 
L 238.501121 315.384155 
L 240.168867 320.141824 
L 241.00274 321.082698 
L 241.836613 317.814032 
L 242.670486 319.472253 
L 243.504359 317.764768 
L 244.338232 321.458105 
L 245.172105 319.771513 
L 246.005978 316.250603 
L 246.839851 317.636268 
L 247.673724 321.440039 
L 248.507597 296.795582 
L 249.341469 285.184397 
L 250.175342 283.370561 
L 251.009215 340.318594 
L 251.843088 355.467855 
L 252.676961 361.735991 
L 253.510834 343.374581 
L 254.344707 343.233761 
L 255.17858 344.189468 
L 256.012453 341.480556 
L 256.846326 344.443771 
L 257.680199 341.484271 
L 258.514072 346.739818 
L 259.347945 344.349734 
L 260.181818 335.114991 
L 261.015691 329.068072 
L 261.849564 324.474727 
L 262.683437 334.823348 
L 263.51731 335.276817 
L 264.351183 339.928805 
L 265.185056 340.768025 
L 266.018929 340.036155 
L 266.852802 340.55024 
L 267.686675 337.393196 
L 269.354421 320.387184 
L 270.188294 323.462665 
L 271.022167 330.483183 
L 271.85604 327.037699 
L 272.689913 324.087899 
L 273.523786 324.521606 
L 274.357659 291.356886 
L 276.025405 323.408475 
L 276.859278 303.505141 
L 277.693151 273.313692 
L 278.527024 294.689646 
L 279.360897 278.994627 
L 280.19477 285.419874 
L 281.028643 288.681018 
L 281.862516 241.925272 
L 283.530262 278.145287 
L 284.364134 239.258033 
L 285.198007 346.670089 
L 286.03188 423.445224 
L 286.865753 435.033409 
L 287.699626 435.753291 
L 288.533499 420.828663 
L 289.367372 434.103094 
L 290.201245 438.476 
L 291.035118 435.880724 
L 291.868991 434.732518 
L 292.702864 434.654405 
L 293.536737 435.18148 
L 294.37061 422.818203 
L 295.204483 425.807031 
L 296.038356 421.093224 
L 296.872229 423.096044 
L 297.706102 432.887394 
L 298.539975 424.589839 
L 299.373848 425.819602 
L 300.207721 424.874367 
L 301.041594 422.751499 
L 301.875467 421.13319 
L 302.70934 424.221419 
L 303.543213 426.494055 
L 304.377086 423.856111 
L 305.210959 425.994909 
L 306.044832 420.954055 
L 306.878705 423.181135 
L 307.712578 423.349231 
L 308.546451 418.539104 
L 310.214197 414.884271 
L 311.04807 422.316844 
L 311.881943 422.535606 
L 312.715816 415.669268 
L 313.549689 413.402375 
L 314.383562 414.225327 
L 315.217435 416.411192 
L 316.051308 414.364552 
L 316.885181 415.205911 
L 317.719054 409.041169 
L 318.552927 414.866899 
L 319.3868 409.087396 
L 320.220672 422.63445 
L 321.054545 423.753833 
L 321.888418 430.053055 
L 322.722291 422.630844 
L 323.556164 412.588622 
L 324.390037 412.695304 
L 325.22391 419.842047 
L 326.057783 415.393743 
L 326.891656 419.070544 
L 327.725529 418.899009 
L 328.559402 420.675419 
L 329.393275 417.804378 
L 330.227148 411.007911 
L 331.061021 415.342597 
L 331.894894 403.358686 
L 332.728767 411.195807 
L 333.56264 404.527178 
L 334.396513 413.007161 
L 335.230386 411.422227 
L 336.064259 406.757113 
L 336.898132 405.107362 
L 337.732005 401.79053 
L 338.565878 394.825449 
L 339.399751 390.141274 
L 340.233624 398.321316 
L 341.067497 400.331576 
L 343.569116 366.653855 
L 345.236862 393.501408 
L 346.904608 405.896398 
L 347.738481 401.667685 
L 348.572354 405.476347 
L 349.406227 404.866671 
L 350.2401 372.045645 
L 351.073973 385.107828 
L 351.907846 373.172322 
L 352.741719 366.874017 
L 353.575592 370.185648 
L 354.409465 368.841288 
L 355.243337 373.523367 
L 356.07721 350.688782 
L 356.911083 378.259906 
L 357.744956 366.584517 
L 358.578829 374.450244 
L 359.412702 374.46353 
L 360.246575 373.963352 
L 361.080448 369.030656 
L 361.914321 362.453911 
L 362.748194 379.355748 
L 363.582067 373.841082 
L 364.41594 373.135731 
L 365.249813 374.760561 
L 366.083686 380.293317 
L 366.917559 376.865934 
L 367.751432 363.761712 
L 369.419178 363.68454 
L 370.253051 370.919601 
L 371.086924 373.349653 
L 371.920797 368.215887 
L 372.75467 346.858849 
L 373.588543 335.569284 
L 374.422416 309.572798 
L 375.256289 316.048326 
L 376.090162 327.198398 
L 377.757908 374.896934 
L 378.591781 345.232119 
L 379.425654 346.281692 
L 380.259527 339.071428 
L 381.0934 326.381758 
L 381.927273 328.22527 
L 382.761146 325.836373 
L 383.595019 326.646921 
L 384.428892 323.639762 
L 385.262765 271.963575 
L 386.096638 236.66197 
L 386.930511 294.850268 
L 387.764384 314.274182 
L 388.598257 322.290358 
L 389.43213 325.449853 
L 390.266002 336.350292 
L 391.099875 326.889568 
L 391.933748 322.157282 
L 393.601494 305.581901 
L 394.435367 305.037653 
L 395.26924 295.983846 
L 396.103113 294.231865 
L 396.936986 287.259195 
L 397.770859 198.882711 
L 398.604732 196.775372 
L 399.438605 208.00472 
L 400.272478 208.370039 
L 401.106351 252.814386 
L 401.940224 280.85271 
L 402.774097 217.774275 
L 404.441843 292.599607 
L 405.275716 292.622129 
L 406.109589 314.563755 
L 406.943462 310.766192 
L 407.777335 308.876225 
L 408.611208 305.847676 
L 409.445081 306.637681 
L 410.278954 304.314852 
L 411.112827 312.036003 
L 411.9467 294.558696 
L 412.780573 298.855631 
L 413.614446 297.007747 
L 414.448319 307.30131 
L 415.282192 305.233909 
L 416.116065 294.850796 
L 416.949938 265.770531 
L 417.783811 264.23044 
L 418.617684 235.882808 
L 419.451557 272.182365 
L 420.28543 272.387829 
L 421.119303 239.63725 
L 421.953176 197.593551 
L 422.787049 183.361109 
L 423.620922 192.105596 
L 424.454795 240.312166 
L 425.288667 194.229732 
L 426.12254 273.461104 
L 426.956413 274.823849 
L 427.790286 304.758695 
L 428.624159 300.438647 
L 429.458032 306.348399 
L 430.291905 250.798107 
L 431.125778 226.341137 
L 431.959651 224.479639 
L 432.793524 238.793458 
L 433.627397 197.582739 
L 434.46127 202.496906 
L 435.295143 193.110655 
L 436.129016 216.426527 
L 436.962889 266.244154 
L 437.796762 265.185608 
L 438.630635 291.754546 
L 440.298381 255.803539 
L 441.132254 283.642928 
L 441.966127 257.222577 
L 442.8 213.655499 
L 443.633873 163.383209 
L 444.467746 176.669547 
L 445.301619 196.674029 
L 446.135492 181.587875 
L 446.969365 105.633595 
L 447.803238 205.677469 
L 448.637111 250.772671 
L 449.470984 238.309169 
L 450.304857 187.951556 
L 451.13873 158.073765 
L 451.972603 155.22613 
L 453.640349 146.966181 
L 454.474222 144.679578 
L 455.308095 182.541921 
L 456.141968 176.491064 
L 456.975841 243.63916 
L 457.809714 182.133287 
L 458.643587 196.786157 
L 459.47746 244.373624 
L 460.311333 244.873668 
L 461.145205 253.080515 
L 461.979078 264.641195 
L 462.812951 263.278641 
L 463.646824 279.439158 
L 464.480697 269.583942 
L 465.31457 268.581112 
L 466.148443 269.159838 
L 466.982316 234.053411 
L 467.816189 244.830274 
L 468.650062 236.46448 
L 469.483935 253.587953 
L 470.317808 236.595272 
L 471.151681 248.498773 
L 471.985554 245.584402 
L 472.819427 252.929877 
L 473.6533 226.569337 
L 474.487173 225.824473 
L 475.321046 249.858801 
L 476.154919 267.04286 
L 476.988792 287.850993 
L 477.822665 269.334244 
L 478.656538 239.626039 
L 479.490411 237.30739 
L 480.324284 265.255682 
L 481.158157 249.088347 
L 481.99203 239.288042 
L 482.825903 242.126273 
L 483.659776 227.308971 
L 484.493649 232.027548 
L 485.327522 227.379411 
L 486.161395 247.154722 
L 486.995268 251.331623 
L 487.829141 229.509944 
L 488.663014 250.4883 
L 489.496887 254.463367 
L 490.33076 254.665753 
L 491.164633 248.048577 
L 491.998506 247.845306 
L 492.832379 242.150292 
L 493.666252 232.914546 
L 494.500125 246.810149 
L 495.333998 250.469168 
L 496.16787 235.733626 
L 497.001743 252.150574 
L 497.835616 245.725073 
L 498.669489 246.671461 
L 499.503362 245.019225 
L 501.171108 251.538653 
L 502.004981 232.54044 
L 502.838854 241.431149 
L 503.672727 242.521716 
L 504.5066 242.643662 
L 505.340473 235.056298 
L 506.174346 241.148874 
L 507.008219 245.017267 
L 507.842092 255.942861 
L 508.675965 261.850286 
L 509.509838 239.204341 
L 511.177584 211.03371 
L 512.011457 127.509756 
L 512.84533 171.830985 
L 513.679203 321.822034 
L 514.513076 326.146605 
L 515.346949 341.867858 
L 516.180822 344.024931 
L 517.014695 345.003724 
L 517.848568 341.860672 
L 518.682441 337.218178 
L 519.516314 341.205174 
L 520.350187 340.999751 
L 521.18406 333.667092 
L 522.017933 337.663079 
L 523.685679 343.369015 
L 524.519552 343.74282 
L 525.353425 337.214199 
L 526.187298 335.597668 
L 527.855044 339.821415 
L 528.688917 343.781999 
L 529.52279 342.267864 
L 530.356663 342.458603 
L 531.190535 345.799926 
L 532.024408 341.608763 
L 532.858281 338.868855 
L 533.692154 340.100582 
L 534.526027 340.929463 
L 535.3599 339.349436 
L 536.193773 342.578655 
L 537.027646 341.463945 
L 537.861519 345.37227 
L 538.695392 371.524794 
L 539.529265 341.558143 
L 540.363138 366.813957 
L 541.197011 339.747066 
L 542.030884 339.377247 
L 542.864757 334.639577 
L 543.69863 342.596792 
L 544.532503 344.125781 
L 545.366376 345.256295 
L 546.200249 336.97883 
L 547.034122 336.977143 
L 547.867995 340.129049 
L 548.701868 339.865818 
L 549.535741 335.21369 
L 550.369614 336.171819 
L 551.203487 339.518726 
L 552.03736 337.099649 
L 552.871233 339.136183 
L 553.705106 334.463538 
L 554.538979 336.076464 
L 555.372852 335.921893 
L 557.040598 340.581158 
L 557.874471 335.134282 
L 558.708344 339.489679 
L 559.542217 336.895032 
L 560.37609 336.968757 
L 561.209963 340.238323 
L 562.043836 342.114407 
L 562.877709 343.701572 
L 563.711582 340.529191 
L 564.545455 341.362919 
L 565.379328 337.970049 
L 566.2132 337.79805 
L 567.047073 336.533028 
L 567.880946 349.002325 
L 568.714819 341.818417 
L 569.548692 337.234452 
L 570.382565 336.774301 
L 571.216438 341.722917 
L 572.050311 336.203731 
L 572.884184 334.343583 
L 573.718057 334.552108 
L 574.55193 336.595097 
L 575.385803 336.322255 
L 576.219676 340.607665 
L 577.053549 349.312413 
L 577.887422 339.813896 
L 578.721295 282.534511 
L 579.555168 277.204115 
L 580.389041 279.295897 
L 581.222914 279.449542 
L 582.056787 283.534337 
L 582.89066 260.107696 
L 583.724533 278.368293 
L 584.558406 274.409024 
L 585.392279 277.444842 
L 586.226152 277.953687 
L 587.060025 298.353588 
L 587.893898 272.444216 
L 588.727771 289.53847 
L 589.561644 278.914732 
L 590.395517 278.083689 
L 591.22939 276.880621 
L 592.063263 295.354645 
L 592.897136 271.974762 
L 593.731009 275.577996 
L 594.564882 278.333484 
L 595.398755 276.887245 
L 596.232628 274.645625 
L 597.066501 275.16952 
L 597.900374 278.48687 
L 598.734247 276.047517 
L 599.56812 279.435424 
L 600.401993 285.394437 
L 601.235866 282.091396 
L 602.069738 282.484274 
L 602.903611 280.242409 
L 603.737484 276.197792 
L 604.571357 280.483021 
L 605.40523 278.68038 
L 606.239103 281.242065 
L 607.072976 278.998717 
L 607.906849 279.564245 
L 608.740722 279.829628 
L 609.574595 297.130182 
L 610.408468 292.429207 
L 611.242341 270.337904 
L 612.076214 270.587437 
L 612.910087 276.076643 
L 613.74396 284.65636 
L 614.577833 270.427441 
L 615.411706 273.473233 
L 616.245579 277.588686 
L 617.079452 277.093408 
L 617.913325 294.237561 
L 618.747198 279.095143 
L 619.581071 281.276863 
L 620.414944 289.731227 
L 621.248817 269.642876 
L 622.08269 286.767194 
L 622.916563 275.23193 
L 623.750436 284.42931 
L 624.584309 270.260822 
L 625.418182 272.600567 
L 626.252055 274.030546 
L 627.085928 282.403964 
L 627.919801 274.503913 
L 628.753674 277.943347 
L 629.587547 271.319039 
L 630.42142 274.601264 
L 631.255293 290.562378 
L 632.089166 285.492948 
L 632.923039 273.786899 
L 634.590785 270.9352 
L 635.424658 275.913598 
L 636.258531 275.309811 
L 637.092403 273.312899 
L 637.926276 275.336076 
L 638.760149 273.265616 
L 639.594022 274.417957 
L 640.427895 274.880565 
L 641.261768 272.110354 
L 642.095641 285.044602 
L 642.929514 272.636714 
L 643.763387 281.045185 
L 644.59726 273.009861 
L 645.431133 277.611568 
L 646.265006 271.648408 
L 647.098879 264.666053 
L 647.932752 282.218719 
L 648.766625 275.649928 
L 649.600498 280.490096 
L 650.434371 275.07201 
L 651.268244 277.084885 
L 652.102117 268.089109 
L 652.93599 278.738309 
L 653.769863 265.564387 
L 654.603736 279.654261 
L 655.437609 286.052568 
L 656.271482 286.040979 
L 657.105355 278.945678 
L 657.939228 273.016119 
L 658.773101 272.235447 
L 659.606974 285.293019 
L 660.440847 282.176417 
L 661.27472 285.856894 
L 662.108593 266.034562 
L 662.942466 281.208688 
L 663.776339 284.974955 
L 664.610212 286.791083 
L 665.444085 281.621917 
L 666.277958 283.232283 
L 667.111831 274.776108 
L 667.945704 282.452272 
L 668.779577 278.072457 
L 669.61345 277.477687 
L 670.447323 281.045437 
L 671.281196 279.84708 
L 672.115068 279.983767 
L 672.948941 278.799321 
L 673.782814 281.930504 
L 674.616687 280.990888 
L 675.45056 277.724809 
L 676.284433 278.232153 
L 677.118306 296.610005 
L 677.952179 296.979271 
L 678.786052 235.601473 
L 679.619925 244.099582 
L 680.453798 278.830677 
L 681.287671 304.597094 
L 682.121544 271.556398 
L 682.955417 270.719966 
L 683.78929 267.220121 
L 684.623163 283.714301 
L 685.457036 284.740424 
L 686.290909 262.877568 
L 687.124782 274.079793 
L 687.958655 271.942921 
L 688.792528 266.0724 
L 689.626401 265.100501 
L 690.460274 255.820416 
L 691.294147 256.395767 
L 692.12802 261.170085 
L 692.961893 279.561161 
L 693.795766 284.439615 
L 694.629639 286.14928 
L 695.463512 285.459506 
L 696.297385 279.695118 
L 697.965131 283.124784 
L 698.799004 280.622312 
L 699.632877 284.68685 
L 700.46675 284.165291 
L 701.300623 285.881311 
L 702.134496 282.769861 
L 702.968369 284.729143 
L 703.802242 277.842177 
L 704.636115 228.32166 
L 705.469988 228.408908 
L 706.303861 171.71857 
L 707.137733 175.067579 
L 708.805479 257.861237 
L 709.639352 252.22047 
L 710.473225 248.001707 
L 711.307098 251.109265 
L 712.140971 241.439693 
L 712.974844 281.598425 
L 713.808717 272.450118 
L 714.64259 270.696182 
L 715.476463 252.682827 
L 716.310336 194.524871 
L 717.144209 187.603761 
L 717.978082 177.423864 
L 718.811955 189.059246 
L 719.645828 228.911188 
L 720.479701 225.217987 
L 721.313574 220.67062 
L 722.147447 221.803147 
L 722.98132 175.266646 
L 723.815193 168.184649 
L 724.649066 200.111728 
L 725.482939 211.529302 
L 726.316812 167.617893 
L 727.150685 197.612402 
L 727.984558 248.569225 
L 728.818431 270.830519 
L 729.652304 255.04216 
L 730.486177 271.921021 
L 731.32005 266.165748 
L 732.153923 237.979022 
L 732.987796 233.199308 
L 733.821669 247.666673 
L 734.655542 225.526537 
L 735.489415 227.304947 
L 736.323288 207.311326 
L 737.157161 177.430463 
L 737.991034 190.937692 
L 738.824907 265.372738 
L 739.65878 237.438018 
L 740.492653 234.754537 
L 741.326526 201.052144 
L 742.160399 206.119711 
L 742.994271 204.210008 
L 743.828144 243.174317 
L 744.662017 188.710717 
L 745.49589 154.750031 
L 746.329763 177.242148 
L 747.163636 176.212558 
L 747.163636 176.212558 
" style="fill:none;stroke:#ff0000;stroke-dasharray:5.55,2.4;stroke-dashoffset:0;stroke-width:1.5;"/>
   </g>
   <g id="patch_3">
    <path d="M 108 460.8 
L 108 69.12 
" style="fill:none;stroke:#000000;stroke-linecap:square;stroke-linejoin:miter;stroke-width:0.8;"/>
   </g>
   <g id="patch_4">
    <path d="M 777.6 460.8 
L 777.6 69.12 
" style="fill:none;stroke:#000000;stroke-linecap:square;stroke-linejoin:miter;stroke-width:0.8;"/>
   </g>
   <g id="patch_5">
    <path d="M 108 460.8 
L 777.6 460.8 
" style="fill:none;stroke:#000000;stroke-linecap:square;stroke-linejoin:miter;stroke-width:0.8;"/>
   </g>
   <g id="patch_6">
    <path d="M 108 69.12 
L 777.6 69.12 
" style="fill:none;stroke:#000000;stroke-linecap:square;stroke-linejoin:miter;stroke-width:0.8;"/>
   </g>
   <g id="text_19">
    <!-- Macau residential 2020-2021 | Forecast vs Monitored | Random forest -->
    <g transform="translate(181.076953 63.12)scale(0.15 -0.15)">
     <defs>
      <path d="M 9.8125 72.90625 
L 24.515625 72.90625 
L 43.109375 23.296875 
L 61.8125 72.90625 
L 76.515625 72.90625 
L 76.515625 0 
L 66.890625 0 
L 66.890625 64.015625 
L 48.09375 14.015625 
L 38.1875 14.015625 
L 19.390625 64.015625 
L 19.390625 0 
L 9.8125 0 
z
" id="DejaVuSans-77"/>
      <path d="M 48.78125 52.59375 
L 48.78125 44.1875 
Q 44.96875 46.296875 41.140625 47.34375 
Q 37.3125 48.390625 33.40625 48.390625 
Q 24.65625 48.390625 19.8125 42.84375 
Q 14.984375 37.3125 14.984375 27.296875 
Q 14.984375 17.28125 19.8125 11.734375 
Q 24.65625 6.203125 33.40625 6.203125 
Q 37.3125 6.203125 41.140625 7.25 
Q 44.96875 8.296875 48.78125 10.40625 
L 48.78125 2.09375 
Q 45.015625 0.34375 40.984375 -0.53125 
Q 36.96875 -1.421875 32.421875 -1.421875 
Q 20.0625 -1.421875 12.78125 6.34375 
Q 5.515625 14.109375 5.515625 27.296875 
Q 5.515625 40.671875 12.859375 48.328125 
Q 20.21875 56 33.015625 56 
Q 37.15625 56 41.109375 55.140625 
Q 45.0625 54.296875 48.78125 52.59375 
z
" id="DejaVuSans-99"/>
      <path d="M 8.5 21.578125 
L 8.5 54.6875 
L 17.484375 54.6875 
L 17.484375 21.921875 
Q 17.484375 14.15625 20.5 10.265625 
Q 23.53125 6.390625 29.59375 6.390625 
Q 36.859375 6.390625 41.078125 11.03125 
Q 45.3125 15.671875 45.3125 23.6875 
L 45.3125 54.6875 
L 54.296875 54.6875 
L 54.296875 0 
L 45.3125 0 
L 45.3125 8.40625 
Q 42.046875 3.421875 37.71875 1 
Q 33.40625 -1.421875 27.6875 -1.421875 
Q 18.265625 -1.421875 13.375 4.4375 
Q 8.5 10.296875 8.5 21.578125 
z
M 31.109375 56 
z
" id="DejaVuSans-117"/>
      <path id="DejaVuSans-32"/>
      <path d="M 41.109375 46.296875 
Q 39.59375 47.171875 37.8125 47.578125 
Q 36.03125 48 33.890625 48 
Q 26.265625 48 22.1875 43.046875 
Q 18.109375 38.09375 18.109375 28.8125 
L 18.109375 0 
L 9.078125 0 
L 9.078125 54.6875 
L 18.109375 54.6875 
L 18.109375 46.1875 
Q 20.953125 51.171875 25.484375 53.578125 
Q 30.03125 56 36.53125 56 
Q 37.453125 56 38.578125 55.875 
Q 39.703125 55.765625 41.0625 55.515625 
z
" id="DejaVuSans-114"/>
      <path d="M 44.28125 53.078125 
L 44.28125 44.578125 
Q 40.484375 46.53125 36.375 47.5 
Q 32.28125 48.484375 27.875 48.484375 
Q 21.1875 48.484375 17.84375 46.4375 
Q 14.5 44.390625 14.5 40.28125 
Q 14.5 37.15625 16.890625 35.375 
Q 19.28125 33.59375 26.515625 31.984375 
L 29.59375 31.296875 
Q 39.15625 29.25 43.1875 25.515625 
Q 47.21875 21.78125 47.21875 15.09375 
Q 47.21875 7.46875 41.1875 3.015625 
Q 35.15625 -1.421875 24.609375 -1.421875 
Q 20.21875 -1.421875 15.453125 -0.5625 
Q 10.6875 0.296875 5.421875 2 
L 5.421875 11.28125 
Q 10.40625 8.6875 15.234375 7.390625 
Q 20.0625 6.109375 24.8125 6.109375 
Q 31.15625 6.109375 34.5625 8.28125 
Q 37.984375 10.453125 37.984375 14.40625 
Q 37.984375 18.0625 35.515625 20.015625 
Q 33.0625 21.96875 24.703125 23.78125 
L 21.578125 24.515625 
Q 13.234375 26.265625 9.515625 29.90625 
Q 5.8125 33.546875 5.8125 39.890625 
Q 5.8125 47.609375 11.28125 51.796875 
Q 16.75 56 26.8125 56 
Q 31.78125 56 36.171875 55.265625 
Q 40.578125 54.546875 44.28125 53.078125 
z
" id="DejaVuSans-115"/>
      <path d="M 9.421875 54.6875 
L 18.40625 54.6875 
L 18.40625 0 
L 9.421875 0 
z
M 9.421875 75.984375 
L 18.40625 75.984375 
L 18.40625 64.59375 
L 9.421875 64.59375 
z
" id="DejaVuSans-105"/>
      <path d="M 45.40625 46.390625 
L 45.40625 75.984375 
L 54.390625 75.984375 
L 54.390625 0 
L 45.40625 0 
L 45.40625 8.203125 
Q 42.578125 3.328125 38.25 0.953125 
Q 33.9375 -1.421875 27.875 -1.421875 
Q 17.96875 -1.421875 11.734375 6.484375 
Q 5.515625 14.40625 5.515625 27.296875 
Q 5.515625 40.1875 11.734375 48.09375 
Q 17.96875 56 27.875 56 
Q 33.9375 56 38.25 53.625 
Q 42.578125 51.265625 45.40625 46.390625 
z
M 14.796875 27.296875 
Q 14.796875 17.390625 18.875 11.75 
Q 22.953125 6.109375 30.078125 6.109375 
Q 37.203125 6.109375 41.296875 11.75 
Q 45.40625 17.390625 45.40625 27.296875 
Q 45.40625 37.203125 41.296875 42.84375 
Q 37.203125 48.484375 30.078125 48.484375 
Q 22.953125 48.484375 18.875 42.84375 
Q 14.796875 37.203125 14.796875 27.296875 
z
" id="DejaVuSans-100"/>
      <path d="M 54.890625 33.015625 
L 54.890625 0 
L 45.90625 0 
L 45.90625 32.71875 
Q 45.90625 40.484375 42.875 44.328125 
Q 39.84375 48.1875 33.796875 48.1875 
Q 26.515625 48.1875 22.3125 43.546875 
Q 18.109375 38.921875 18.109375 30.90625 
L 18.109375 0 
L 9.078125 0 
L 9.078125 54.6875 
L 18.109375 54.6875 
L 18.109375 46.1875 
Q 21.34375 51.125 25.703125 53.5625 
Q 30.078125 56 35.796875 56 
Q 45.21875 56 50.046875 50.171875 
Q 54.890625 44.34375 54.890625 33.015625 
z
" id="DejaVuSans-110"/>
      <path d="M 9.421875 75.984375 
L 18.40625 75.984375 
L 18.40625 0 
L 9.421875 0 
z
" id="DejaVuSans-108"/>
      <path d="M 21 76.421875 
L 21 -23.578125 
L 12.703125 -23.578125 
L 12.703125 76.421875 
z
" id="DejaVuSans-124"/>
      <path d="M 9.8125 72.90625 
L 51.703125 72.90625 
L 51.703125 64.59375 
L 19.671875 64.59375 
L 19.671875 43.109375 
L 48.578125 43.109375 
L 48.578125 34.8125 
L 19.671875 34.8125 
L 19.671875 0 
L 9.8125 0 
z
" id="DejaVuSans-70"/>
      <path d="M 30.609375 48.390625 
Q 23.390625 48.390625 19.1875 42.75 
Q 14.984375 37.109375 14.984375 27.296875 
Q 14.984375 17.484375 19.15625 11.84375 
Q 23.34375 6.203125 30.609375 6.203125 
Q 37.796875 6.203125 41.984375 11.859375 
Q 46.1875 17.53125 46.1875 27.296875 
Q 46.1875 37.015625 41.984375 42.703125 
Q 37.796875 48.390625 30.609375 48.390625 
z
M 30.609375 56 
Q 42.328125 56 49.015625 48.375 
Q 55.71875 40.765625 55.71875 27.296875 
Q 55.71875 13.875 49.015625 6.21875 
Q 42.328125 -1.421875 30.609375 -1.421875 
Q 18.84375 -1.421875 12.171875 6.21875 
Q 5.515625 13.875 5.515625 27.296875 
Q 5.515625 40.765625 12.171875 48.375 
Q 18.84375 56 30.609375 56 
z
" id="DejaVuSans-111"/>
      <path d="M 2.984375 54.6875 
L 12.5 54.6875 
L 29.59375 8.796875 
L 46.6875 54.6875 
L 56.203125 54.6875 
L 35.6875 0 
L 23.484375 0 
z
" id="DejaVuSans-118"/>
      <path d="M 44.390625 34.1875 
Q 47.5625 33.109375 50.5625 29.59375 
Q 53.5625 26.078125 56.59375 19.921875 
L 66.609375 0 
L 56 0 
L 46.6875 18.703125 
Q 43.0625 26.03125 39.671875 28.421875 
Q 36.28125 30.8125 30.421875 30.8125 
L 19.671875 30.8125 
L 19.671875 0 
L 9.8125 0 
L 9.8125 72.90625 
L 32.078125 72.90625 
Q 44.578125 72.90625 50.734375 67.671875 
Q 56.890625 62.453125 56.890625 51.90625 
Q 56.890625 45.015625 53.6875 40.46875 
Q 50.484375 35.9375 44.390625 34.1875 
z
M 19.671875 64.796875 
L 19.671875 38.921875 
L 32.078125 38.921875 
Q 39.203125 38.921875 42.84375 42.21875 
Q 46.484375 45.515625 46.484375 51.90625 
Q 46.484375 58.296875 42.84375 61.546875 
Q 39.203125 64.796875 32.078125 64.796875 
z
" id="DejaVuSans-82"/>
      <path d="M 37.109375 75.984375 
L 37.109375 68.5 
L 28.515625 68.5 
Q 23.6875 68.5 21.796875 66.546875 
Q 19.921875 64.59375 19.921875 59.515625 
L 19.921875 54.6875 
L 34.71875 54.6875 
L 34.71875 47.703125 
L 19.921875 47.703125 
L 19.921875 0 
L 10.890625 0 
L 10.890625 47.703125 
L 2.296875 47.703125 
L 2.296875 54.6875 
L 10.890625 54.6875 
L 10.890625 58.5 
Q 10.890625 67.625 15.140625 71.796875 
Q 19.390625 75.984375 28.609375 75.984375 
z
" id="DejaVuSans-102"/>
     </defs>
     <use xlink:href="#DejaVuSans-77"/>
     <use x="86.279297" xlink:href="#DejaVuSans-97"/>
     <use x="147.558594" xlink:href="#DejaVuSans-99"/>
     <use x="202.539062" xlink:href="#DejaVuSans-97"/>
     <use x="263.818359" xlink:href="#DejaVuSans-117"/>
     <use x="327.197266" xlink:href="#DejaVuSans-32"/>
     <use x="358.984375" xlink:href="#DejaVuSans-114"/>
     <use x="397.847656" xlink:href="#DejaVuSans-101"/>
     <use x="459.371094" xlink:href="#DejaVuSans-115"/>
     <use x="511.470703" xlink:href="#DejaVuSans-105"/>
     <use x="539.253906" xlink:href="#DejaVuSans-100"/>
     <use x="602.730469" xlink:href="#DejaVuSans-101"/>
     <use x="664.253906" xlink:href="#DejaVuSans-110"/>
     <use x="727.632812" xlink:href="#DejaVuSans-116"/>
     <use x="766.841797" xlink:href="#DejaVuSans-105"/>
     <use x="794.625" xlink:href="#DejaVuSans-97"/>
     <use x="855.904297" xlink:href="#DejaVuSans-108"/>
     <use x="883.6875" xlink:href="#DejaVuSans-32"/>
     <use x="915.474609" xlink:href="#DejaVuSans-50"/>
     <use x="979.097656" xlink:href="#DejaVuSans-48"/>
     <use x="1042.720703" xlink:href="#DejaVuSans-50"/>
     <use x="1106.34375" xlink:href="#DejaVuSans-48"/>
     <use x="1169.966797" xlink:href="#DejaVuSans-45"/>
     <use x="1206.050781" xlink:href="#DejaVuSans-50"/>
     <use x="1269.673828" xlink:href="#DejaVuSans-48"/>
     <use x="1333.296875" xlink:href="#DejaVuSans-50"/>
     <use x="1396.919922" xlink:href="#DejaVuSans-49"/>
     <use x="1460.542969" xlink:href="#DejaVuSans-32"/>
     <use x="1492.330078" xlink:href="#DejaVuSans-124"/>
     <use x="1526.021484" xlink:href="#DejaVuSans-32"/>
     <use x="1557.808594" xlink:href="#DejaVuSans-70"/>
     <use x="1611.703125" xlink:href="#DejaVuSans-111"/>
     <use x="1672.884766" xlink:href="#DejaVuSans-114"/>
     <use x="1711.748047" xlink:href="#DejaVuSans-101"/>
     <use x="1773.271484" xlink:href="#DejaVuSans-99"/>
     <use x="1828.251953" xlink:href="#DejaVuSans-97"/>
     <use x="1889.53125" xlink:href="#DejaVuSans-115"/>
     <use x="1941.630859" xlink:href="#DejaVuSans-116"/>
     <use x="1980.839844" xlink:href="#DejaVuSans-32"/>
     <use x="2012.626953" xlink:href="#DejaVuSans-118"/>
     <use x="2071.806641" xlink:href="#DejaVuSans-115"/>
     <use x="2123.90625" xlink:href="#DejaVuSans-32"/>
     <use x="2155.693359" xlink:href="#DejaVuSans-77"/>
     <use x="2241.972656" xlink:href="#DejaVuSans-111"/>
     <use x="2303.154297" xlink:href="#DejaVuSans-110"/>
     <use x="2366.533203" xlink:href="#DejaVuSans-105"/>
     <use x="2394.316406" xlink:href="#DejaVuSans-116"/>
     <use x="2433.525391" xlink:href="#DejaVuSans-111"/>
     <use x="2494.707031" xlink:href="#DejaVuSans-114"/>
     <use x="2533.570312" xlink:href="#DejaVuSans-101"/>
     <use x="2595.09375" xlink:href="#DejaVuSans-100"/>
     <use x="2658.570312" xlink:href="#DejaVuSans-32"/>
     <use x="2690.357422" xlink:href="#DejaVuSans-124"/>
     <use x="2724.048828" xlink:href="#DejaVuSans-32"/>
     <use x="2755.835938" xlink:href="#DejaVuSans-82"/>
     <use x="2823.068359" xlink:href="#DejaVuSans-97"/>
     <use x="2884.347656" xlink:href="#DejaVuSans-110"/>
     <use x="2947.726562" xlink:href="#DejaVuSans-100"/>
     <use x="3011.203125" xlink:href="#DejaVuSans-111"/>
     <use x="3072.384766" xlink:href="#DejaVuSans-109"/>
     <use x="3169.796875" xlink:href="#DejaVuSans-32"/>
     <use x="3201.583984" xlink:href="#DejaVuSans-102"/>
     <use x="3236.789062" xlink:href="#DejaVuSans-111"/>
     <use x="3297.970703" xlink:href="#DejaVuSans-114"/>
     <use x="3336.833984" xlink:href="#DejaVuSans-101"/>
     <use x="3398.357422" xlink:href="#DejaVuSans-115"/>
     <use x="3450.457031" xlink:href="#DejaVuSans-116"/>
    </g>
   </g>
   <g id="legend_1">
    <g id="patch_7">
     <path d="M 607.123125 114.615 
L 769.2 114.615 
Q 771.6 114.615 771.6 112.215 
L 771.6 77.52 
Q 771.6 75.12 769.2 75.12 
L 607.123125 75.12 
Q 604.723125 75.12 604.723125 77.52 
L 604.723125 112.215 
Q 604.723125 114.615 607.123125 114.615 
z
" style="fill:#ffffff;opacity:0.8;stroke:#cccccc;stroke-linejoin:miter;"/>
    </g>
    <g id="line2d_19">
     <path d="M 609.523125 84.838125 
L 633.523125 84.838125 
" style="fill:none;stroke:#1f77b4;stroke-linecap:square;stroke-width:1.5;"/>
    </g>
    <g id="line2d_20"/>
    <g id="text_20">
     <!-- measured_data_SO2 -->
     <g transform="translate(643.123125 89.038125)scale(0.12 -0.12)">
      <defs>
       <path d="M 50.984375 -16.609375 
L 50.984375 -23.578125 
L -0.984375 -23.578125 
L -0.984375 -16.609375 
z
" id="DejaVuSans-95"/>
      </defs>
      <use xlink:href="#DejaVuSans-109"/>
      <use x="97.412109" xlink:href="#DejaVuSans-101"/>
      <use x="158.935547" xlink:href="#DejaVuSans-97"/>
      <use x="220.214844" xlink:href="#DejaVuSans-115"/>
      <use x="272.314453" xlink:href="#DejaVuSans-117"/>
      <use x="335.693359" xlink:href="#DejaVuSans-114"/>
      <use x="374.556641" xlink:href="#DejaVuSans-101"/>
      <use x="436.080078" xlink:href="#DejaVuSans-100"/>
      <use x="499.556641" xlink:href="#DejaVuSans-95"/>
      <use x="549.556641" xlink:href="#DejaVuSans-100"/>
      <use x="613.033203" xlink:href="#DejaVuSans-97"/>
      <use x="674.3125" xlink:href="#DejaVuSans-116"/>
      <use x="713.521484" xlink:href="#DejaVuSans-97"/>
      <use x="774.800781" xlink:href="#DejaVuSans-95"/>
      <use x="824.800781" xlink:href="#DejaVuSans-83"/>
      <use x="888.277344" xlink:href="#DejaVuSans-79"/>
      <use x="966.988281" xlink:href="#DejaVuSans-50"/>
     </g>
    </g>
    <g id="line2d_21">
     <path d="M 609.523125 102.785625 
L 633.523125 102.785625 
" style="fill:none;stroke:#ff0000;stroke-dasharray:5.55,2.4;stroke-dashoffset:0;stroke-width:1.5;"/>
    </g>
    <g id="line2d_22"/>
    <g id="text_21">
     <!-- predicted_data_SO2 -->
     <g transform="translate(643.123125 106.985625)scale(0.12 -0.12)">
      <use xlink:href="#DejaVuSans-112"/>
      <use x="63.476562" xlink:href="#DejaVuSans-114"/>
      <use x="102.339844" xlink:href="#DejaVuSans-101"/>
      <use x="163.863281" xlink:href="#DejaVuSans-100"/>
      <use x="227.339844" xlink:href="#DejaVuSans-105"/>
      <use x="255.123047" xlink:href="#DejaVuSans-99"/>
      <use x="310.103516" xlink:href="#DejaVuSans-116"/>
      <use x="349.3125" xlink:href="#DejaVuSans-101"/>
      <use x="410.835938" xlink:href="#DejaVuSans-100"/>
      <use x="474.3125" xlink:href="#DejaVuSans-95"/>
      <use x="524.3125" xlink:href="#DejaVuSans-100"/>
      <use x="587.789062" xlink:href="#DejaVuSans-97"/>
      <use x="649.068359" xlink:href="#DejaVuSans-116"/>
      <use x="688.277344" xlink:href="#DejaVuSans-97"/>
      <use x="749.556641" xlink:href="#DejaVuSans-95"/>
      <use x="799.556641" xlink:href="#DejaVuSans-83"/>
      <use x="863.033203" xlink:href="#DejaVuSans-79"/>
      <use x="941.744141" xlink:href="#DejaVuSans-50"/>
     </g>
    </g>
   </g>
  </g>
 </g>
 <defs>
  <clipPath id="pb9c657e7cb">
   <rect height="391.68" width="669.6" x="108" y="69.12"/>
  </clipPath>
 </defs>
</svg>
