<?xml version="1.0" encoding="utf-8" standalone="no"?>
<!DOCTYPE svg PUBLIC "-//W3C//DTD SVG 1.1//EN"
  "http://www.w3.org/Graphics/SVG/1.1/DTD/svg11.dtd">
<!-- Created with matplotlib (https://matplotlib.org/) -->
<svg height="576pt" version="1.1" viewBox="0 0 864 576" width="864pt" xmlns="http://www.w3.org/2000/svg" xmlns:xlink="http://www.w3.org/1999/xlink">
 <metadata>
  <rdf:RDF xmlns:cc="http://creativecommons.org/ns#" xmlns:dc="http://purl.org/dc/elements/1.1/" xmlns:rdf="http://www.w3.org/1999/02/22-rdf-syntax-ns#">
   <cc:Work>
    <dc:type rdf:resource="http://purl.org/dc/dcmitype/StillImage"/>
    <dc:date>2024-03-08T21:10:01.175819</dc:date>
    <dc:format>image/svg+xml</dc:format>
    <dc:creator>
     <cc:Agent>
      <dc:title>Matplotlib v3.3.4, https://matplotlib.org/</dc:title>
     </cc:Agent>
    </dc:creator>
   </cc:Work>
  </rdf:RDF>
 </metadata>
 <defs>
  <style type="text/css">*{stroke-linecap:butt;stroke-linejoin:round;}</style>
 </defs>
 <g id="figure_1">
  <g id="patch_1">
   <path d="M 0 576 
L 864 576 
L 864 0 
L 0 0 
z
" style="fill:#ffffff;"/>
  </g>
  <g id="axes_1">
   <g id="patch_2">
    <path d="M 108 460.8 
L 777.6 460.8 
L 777.6 69.12 
L 108 69.12 
z
" style="fill:#ffffff;"/>
   </g>
   <g id="matplotlib.axis_1">
    <g id="xtick_1">
     <g id="line2d_1">
      <defs>
       <path d="M 0 0 
L 0 3.5 
" id="m1f43701ef8" style="stroke:#000000;stroke-width:0.8;"/>
      </defs>
      <g>
       <use style="stroke:#000000;stroke-width:0.8;" x="136.761736" xlink:href="#m1f43701ef8" y="460.8"/>
      </g>
     </g>
     <g id="text_1">
      <!-- 2020-01 -->
      <g transform="translate(92.091951 500.766215)rotate(-30)scale(0.12 -0.12)">
       <defs>
        <path d="M 19.1875 8.296875 
L 53.609375 8.296875 
L 53.609375 0 
L 7.328125 0 
L 7.328125 8.296875 
Q 12.9375 14.109375 22.625 23.890625 
Q 32.328125 33.6875 34.8125 36.53125 
Q 39.546875 41.84375 41.421875 45.53125 
Q 43.3125 49.21875 43.3125 52.78125 
Q 43.3125 58.59375 39.234375 62.25 
Q 35.15625 65.921875 28.609375 65.921875 
Q 23.96875 65.921875 18.8125 64.3125 
Q 13.671875 62.703125 7.8125 59.421875 
L 7.8125 69.390625 
Q 13.765625 71.78125 18.9375 73 
Q 24.125 74.21875 28.421875 74.21875 
Q 39.75 74.21875 46.484375 68.546875 
Q 53.21875 62.890625 53.21875 53.421875 
Q 53.21875 48.921875 51.53125 44.890625 
Q 49.859375 40.875 45.40625 35.40625 
Q 44.1875 33.984375 37.640625 27.21875 
Q 31.109375 20.453125 19.1875 8.296875 
z
" id="DejaVuSans-50"/>
        <path d="M 31.78125 66.40625 
Q 24.171875 66.40625 20.328125 58.90625 
Q 16.5 51.421875 16.5 36.375 
Q 16.5 21.390625 20.328125 13.890625 
Q 24.171875 6.390625 31.78125 6.390625 
Q 39.453125 6.390625 43.28125 13.890625 
Q 47.125 21.390625 47.125 36.375 
Q 47.125 51.421875 43.28125 58.90625 
Q 39.453125 66.40625 31.78125 66.40625 
z
M 31.78125 74.21875 
Q 44.046875 74.21875 50.515625 64.515625 
Q 56.984375 54.828125 56.984375 36.375 
Q 56.984375 17.96875 50.515625 8.265625 
Q 44.046875 -1.421875 31.78125 -1.421875 
Q 19.53125 -1.421875 13.0625 8.265625 
Q 6.59375 17.96875 6.59375 36.375 
Q 6.59375 54.828125 13.0625 64.515625 
Q 19.53125 74.21875 31.78125 74.21875 
z
" id="DejaVuSans-48"/>
        <path d="M 4.890625 31.390625 
L 31.203125 31.390625 
L 31.203125 23.390625 
L 4.890625 23.390625 
z
" id="DejaVuSans-45"/>
        <path d="M 12.40625 8.296875 
L 28.515625 8.296875 
L 28.515625 63.921875 
L 10.984375 60.40625 
L 10.984375 69.390625 
L 28.421875 72.90625 
L 38.28125 72.90625 
L 38.28125 8.296875 
L 54.390625 8.296875 
L 54.390625 0 
L 12.40625 0 
z
" id="DejaVuSans-49"/>
       </defs>
       <use xlink:href="#DejaVuSans-50"/>
       <use x="63.623047" xlink:href="#DejaVuSans-48"/>
       <use x="127.246094" xlink:href="#DejaVuSans-50"/>
       <use x="190.869141" xlink:href="#DejaVuSans-48"/>
       <use x="254.492188" xlink:href="#DejaVuSans-45"/>
       <use x="290.576172" xlink:href="#DejaVuSans-48"/>
       <use x="354.199219" xlink:href="#DejaVuSans-49"/>
      </g>
     </g>
    </g>
    <g id="xtick_2">
     <g id="line2d_2">
      <g>
       <use style="stroke:#000000;stroke-width:0.8;" x="212.957309" xlink:href="#m1f43701ef8" y="460.8"/>
      </g>
     </g>
     <g id="text_2">
      <!-- 2020-04 -->
      <g transform="translate(168.287524 500.766215)rotate(-30)scale(0.12 -0.12)">
       <defs>
        <path d="M 37.796875 64.3125 
L 12.890625 25.390625 
L 37.796875 25.390625 
z
M 35.203125 72.90625 
L 47.609375 72.90625 
L 47.609375 25.390625 
L 58.015625 25.390625 
L 58.015625 17.1875 
L 47.609375 17.1875 
L 47.609375 0 
L 37.796875 0 
L 37.796875 17.1875 
L 4.890625 17.1875 
L 4.890625 26.703125 
z
" id="DejaVuSans-52"/>
       </defs>
       <use xlink:href="#DejaVuSans-50"/>
       <use x="63.623047" xlink:href="#DejaVuSans-48"/>
       <use x="127.246094" xlink:href="#DejaVuSans-50"/>
       <use x="190.869141" xlink:href="#DejaVuSans-48"/>
       <use x="254.492188" xlink:href="#DejaVuSans-45"/>
       <use x="290.576172" xlink:href="#DejaVuSans-48"/>
       <use x="354.199219" xlink:href="#DejaVuSans-52"/>
      </g>
     </g>
    </g>
    <g id="xtick_3">
     <g id="line2d_3">
      <g>
       <use style="stroke:#000000;stroke-width:0.8;" x="289.152882" xlink:href="#m1f43701ef8" y="460.8"/>
      </g>
     </g>
     <g id="text_3">
      <!-- 2020-07 -->
      <g transform="translate(244.483097 500.766215)rotate(-30)scale(0.12 -0.12)">
       <defs>
        <path d="M 8.203125 72.90625 
L 55.078125 72.90625 
L 55.078125 68.703125 
L 28.609375 0 
L 18.3125 0 
L 43.21875 64.59375 
L 8.203125 64.59375 
z
" id="DejaVuSans-55"/>
       </defs>
       <use xlink:href="#DejaVuSans-50"/>
       <use x="63.623047" xlink:href="#DejaVuSans-48"/>
       <use x="127.246094" xlink:href="#DejaVuSans-50"/>
       <use x="190.869141" xlink:href="#DejaVuSans-48"/>
       <use x="254.492188" xlink:href="#DejaVuSans-45"/>
       <use x="290.576172" xlink:href="#DejaVuSans-48"/>
       <use x="354.199219" xlink:href="#DejaVuSans-55"/>
      </g>
     </g>
    </g>
    <g id="xtick_4">
     <g id="line2d_4">
      <g>
       <use style="stroke:#000000;stroke-width:0.8;" x="366.18577" xlink:href="#m1f43701ef8" y="460.8"/>
      </g>
     </g>
     <g id="text_4">
      <!-- 2020-10 -->
      <g transform="translate(321.515985 500.766215)rotate(-30)scale(0.12 -0.12)">
       <use xlink:href="#DejaVuSans-50"/>
       <use x="63.623047" xlink:href="#DejaVuSans-48"/>
       <use x="127.246094" xlink:href="#DejaVuSans-50"/>
       <use x="190.869141" xlink:href="#DejaVuSans-48"/>
       <use x="254.492188" xlink:href="#DejaVuSans-45"/>
       <use x="290.576172" xlink:href="#DejaVuSans-49"/>
       <use x="354.199219" xlink:href="#DejaVuSans-48"/>
      </g>
     </g>
    </g>
    <g id="xtick_5">
     <g id="line2d_5">
      <g>
       <use style="stroke:#000000;stroke-width:0.8;" x="443.218657" xlink:href="#m1f43701ef8" y="460.8"/>
      </g>
     </g>
     <g id="text_5">
      <!-- 2021-01 -->
      <g transform="translate(398.548872 500.766215)rotate(-30)scale(0.12 -0.12)">
       <use xlink:href="#DejaVuSans-50"/>
       <use x="63.623047" xlink:href="#DejaVuSans-48"/>
       <use x="127.246094" xlink:href="#DejaVuSans-50"/>
       <use x="190.869141" xlink:href="#DejaVuSans-49"/>
       <use x="254.492188" xlink:href="#DejaVuSans-45"/>
       <use x="290.576172" xlink:href="#DejaVuSans-48"/>
       <use x="354.199219" xlink:href="#DejaVuSans-49"/>
      </g>
     </g>
    </g>
    <g id="xtick_6">
     <g id="line2d_6">
      <g>
       <use style="stroke:#000000;stroke-width:0.8;" x="518.576916" xlink:href="#m1f43701ef8" y="460.8"/>
      </g>
     </g>
     <g id="text_6">
      <!-- 2021-04 -->
      <g transform="translate(473.907131 500.766215)rotate(-30)scale(0.12 -0.12)">
       <use xlink:href="#DejaVuSans-50"/>
       <use x="63.623047" xlink:href="#DejaVuSans-48"/>
       <use x="127.246094" xlink:href="#DejaVuSans-50"/>
       <use x="190.869141" xlink:href="#DejaVuSans-49"/>
       <use x="254.492188" xlink:href="#DejaVuSans-45"/>
       <use x="290.576172" xlink:href="#DejaVuSans-48"/>
       <use x="354.199219" xlink:href="#DejaVuSans-52"/>
      </g>
     </g>
    </g>
    <g id="xtick_7">
     <g id="line2d_7">
      <g>
       <use style="stroke:#000000;stroke-width:0.8;" x="594.77249" xlink:href="#m1f43701ef8" y="460.8"/>
      </g>
     </g>
     <g id="text_7">
      <!-- 2021-07 -->
      <g transform="translate(550.102705 500.766215)rotate(-30)scale(0.12 -0.12)">
       <use xlink:href="#DejaVuSans-50"/>
       <use x="63.623047" xlink:href="#DejaVuSans-48"/>
       <use x="127.246094" xlink:href="#DejaVuSans-50"/>
       <use x="190.869141" xlink:href="#DejaVuSans-49"/>
       <use x="254.492188" xlink:href="#DejaVuSans-45"/>
       <use x="290.576172" xlink:href="#DejaVuSans-48"/>
       <use x="354.199219" xlink:href="#DejaVuSans-55"/>
      </g>
     </g>
    </g>
    <g id="xtick_8">
     <g id="line2d_8">
      <g>
       <use style="stroke:#000000;stroke-width:0.8;" x="671.805377" xlink:href="#m1f43701ef8" y="460.8"/>
      </g>
     </g>
     <g id="text_8">
      <!-- 2021-10 -->
      <g transform="translate(627.135592 500.766215)rotate(-30)scale(0.12 -0.12)">
       <use xlink:href="#DejaVuSans-50"/>
       <use x="63.623047" xlink:href="#DejaVuSans-48"/>
       <use x="127.246094" xlink:href="#DejaVuSans-50"/>
       <use x="190.869141" xlink:href="#DejaVuSans-49"/>
       <use x="254.492188" xlink:href="#DejaVuSans-45"/>
       <use x="290.576172" xlink:href="#DejaVuSans-49"/>
       <use x="354.199219" xlink:href="#DejaVuSans-48"/>
      </g>
     </g>
    </g>
    <g id="xtick_9">
     <g id="line2d_9">
      <g>
       <use style="stroke:#000000;stroke-width:0.8;" x="748.838264" xlink:href="#m1f43701ef8" y="460.8"/>
      </g>
     </g>
     <g id="text_9">
      <!-- 2022-01 -->
      <g transform="translate(704.168479 500.766215)rotate(-30)scale(0.12 -0.12)">
       <use xlink:href="#DejaVuSans-50"/>
       <use x="63.623047" xlink:href="#DejaVuSans-48"/>
       <use x="127.246094" xlink:href="#DejaVuSans-50"/>
       <use x="190.869141" xlink:href="#DejaVuSans-50"/>
       <use x="254.492188" xlink:href="#DejaVuSans-45"/>
       <use x="290.576172" xlink:href="#DejaVuSans-48"/>
       <use x="354.199219" xlink:href="#DejaVuSans-49"/>
      </g>
     </g>
    </g>
    <g id="text_10">
     <!-- Date -->
     <g transform="translate(424.873828 518.325146)scale(0.15 -0.15)">
      <defs>
       <path d="M 19.671875 64.796875 
L 19.671875 8.109375 
L 31.59375 8.109375 
Q 46.6875 8.109375 53.6875 14.9375 
Q 60.6875 21.78125 60.6875 36.53125 
Q 60.6875 51.171875 53.6875 57.984375 
Q 46.6875 64.796875 31.59375 64.796875 
z
M 9.8125 72.90625 
L 30.078125 72.90625 
Q 51.265625 72.90625 61.171875 64.09375 
Q 71.09375 55.28125 71.09375 36.53125 
Q 71.09375 17.671875 61.125 8.828125 
Q 51.171875 0 30.078125 0 
L 9.8125 0 
z
" id="DejaVuSans-68"/>
       <path d="M 34.28125 27.484375 
Q 23.390625 27.484375 19.1875 25 
Q 14.984375 22.515625 14.984375 16.5 
Q 14.984375 11.71875 18.140625 8.90625 
Q 21.296875 6.109375 26.703125 6.109375 
Q 34.1875 6.109375 38.703125 11.40625 
Q 43.21875 16.703125 43.21875 25.484375 
L 43.21875 27.484375 
z
M 52.203125 31.203125 
L 52.203125 0 
L 43.21875 0 
L 43.21875 8.296875 
Q 40.140625 3.328125 35.546875 0.953125 
Q 30.953125 -1.421875 24.3125 -1.421875 
Q 15.921875 -1.421875 10.953125 3.296875 
Q 6 8.015625 6 15.921875 
Q 6 25.140625 12.171875 29.828125 
Q 18.359375 34.515625 30.609375 34.515625 
L 43.21875 34.515625 
L 43.21875 35.40625 
Q 43.21875 41.609375 39.140625 45 
Q 35.0625 48.390625 27.6875 48.390625 
Q 23 48.390625 18.546875 47.265625 
Q 14.109375 46.140625 10.015625 43.890625 
L 10.015625 52.203125 
Q 14.9375 54.109375 19.578125 55.046875 
Q 24.21875 56 28.609375 56 
Q 40.484375 56 46.34375 49.84375 
Q 52.203125 43.703125 52.203125 31.203125 
z
" id="DejaVuSans-97"/>
       <path d="M 18.3125 70.21875 
L 18.3125 54.6875 
L 36.8125 54.6875 
L 36.8125 47.703125 
L 18.3125 47.703125 
L 18.3125 18.015625 
Q 18.3125 11.328125 20.140625 9.421875 
Q 21.96875 7.515625 27.59375 7.515625 
L 36.8125 7.515625 
L 36.8125 0 
L 27.59375 0 
Q 17.1875 0 13.234375 3.875 
Q 9.28125 7.765625 9.28125 18.015625 
L 9.28125 47.703125 
L 2.6875 47.703125 
L 2.6875 54.6875 
L 9.28125 54.6875 
L 9.28125 70.21875 
z
" id="DejaVuSans-116"/>
       <path d="M 56.203125 29.59375 
L 56.203125 25.203125 
L 14.890625 25.203125 
Q 15.484375 15.921875 20.484375 11.0625 
Q 25.484375 6.203125 34.421875 6.203125 
Q 39.59375 6.203125 44.453125 7.46875 
Q 49.3125 8.734375 54.109375 11.28125 
L 54.109375 2.78125 
Q 49.265625 0.734375 44.1875 -0.34375 
Q 39.109375 -1.421875 33.890625 -1.421875 
Q 20.796875 -1.421875 13.15625 6.1875 
Q 5.515625 13.8125 5.515625 26.8125 
Q 5.515625 40.234375 12.765625 48.109375 
Q 20.015625 56 32.328125 56 
Q 43.359375 56 49.78125 48.890625 
Q 56.203125 41.796875 56.203125 29.59375 
z
M 47.21875 32.234375 
Q 47.125 39.59375 43.09375 43.984375 
Q 39.0625 48.390625 32.421875 48.390625 
Q 24.90625 48.390625 20.390625 44.140625 
Q 15.875 39.890625 15.1875 32.171875 
z
" id="DejaVuSans-101"/>
      </defs>
      <use xlink:href="#DejaVuSans-68"/>
      <use x="77.001953" xlink:href="#DejaVuSans-97"/>
      <use x="138.28125" xlink:href="#DejaVuSans-116"/>
      <use x="177.490234" xlink:href="#DejaVuSans-101"/>
     </g>
    </g>
   </g>
   <g id="matplotlib.axis_2">
    <g id="ytick_1">
     <g id="line2d_10">
      <defs>
       <path d="M 0 0 
L -3.5 0 
" id="mda17357b1b" style="stroke:#000000;stroke-width:0.8;"/>
      </defs>
      <g>
       <use style="stroke:#000000;stroke-width:0.8;" x="108" xlink:href="#mda17357b1b" y="450.313913"/>
      </g>
     </g>
     <g id="text_11">
      <!-- 0 -->
      <g transform="translate(93.365 454.872975)scale(0.12 -0.12)">
       <use xlink:href="#DejaVuSans-48"/>
      </g>
     </g>
    </g>
    <g id="ytick_2">
     <g id="line2d_11">
      <g>
       <use style="stroke:#000000;stroke-width:0.8;" x="108" xlink:href="#mda17357b1b" y="392.0261"/>
      </g>
     </g>
     <g id="text_12">
      <!-- 2 -->
      <g transform="translate(93.365 396.585163)scale(0.12 -0.12)">
       <use xlink:href="#DejaVuSans-50"/>
      </g>
     </g>
    </g>
    <g id="ytick_3">
     <g id="line2d_12">
      <g>
       <use style="stroke:#000000;stroke-width:0.8;" x="108" xlink:href="#mda17357b1b" y="333.738288"/>
      </g>
     </g>
     <g id="text_13">
      <!-- 4 -->
      <g transform="translate(93.365 338.29735)scale(0.12 -0.12)">
       <use xlink:href="#DejaVuSans-52"/>
      </g>
     </g>
    </g>
    <g id="ytick_4">
     <g id="line2d_13">
      <g>
       <use style="stroke:#000000;stroke-width:0.8;" x="108" xlink:href="#mda17357b1b" y="275.450475"/>
      </g>
     </g>
     <g id="text_14">
      <!-- 6 -->
      <g transform="translate(93.365 280.009538)scale(0.12 -0.12)">
       <defs>
        <path d="M 33.015625 40.375 
Q 26.375 40.375 22.484375 35.828125 
Q 18.609375 31.296875 18.609375 23.390625 
Q 18.609375 15.53125 22.484375 10.953125 
Q 26.375 6.390625 33.015625 6.390625 
Q 39.65625 6.390625 43.53125 10.953125 
Q 47.40625 15.53125 47.40625 23.390625 
Q 47.40625 31.296875 43.53125 35.828125 
Q 39.65625 40.375 33.015625 40.375 
z
M 52.59375 71.296875 
L 52.59375 62.3125 
Q 48.875 64.0625 45.09375 64.984375 
Q 41.3125 65.921875 37.59375 65.921875 
Q 27.828125 65.921875 22.671875 59.328125 
Q 17.53125 52.734375 16.796875 39.40625 
Q 19.671875 43.65625 24.015625 45.921875 
Q 28.375 48.1875 33.59375 48.1875 
Q 44.578125 48.1875 50.953125 41.515625 
Q 57.328125 34.859375 57.328125 23.390625 
Q 57.328125 12.15625 50.6875 5.359375 
Q 44.046875 -1.421875 33.015625 -1.421875 
Q 20.359375 -1.421875 13.671875 8.265625 
Q 6.984375 17.96875 6.984375 36.375 
Q 6.984375 53.65625 15.1875 63.9375 
Q 23.390625 74.21875 37.203125 74.21875 
Q 40.921875 74.21875 44.703125 73.484375 
Q 48.484375 72.75 52.59375 71.296875 
z
" id="DejaVuSans-54"/>
       </defs>
       <use xlink:href="#DejaVuSans-54"/>
      </g>
     </g>
    </g>
    <g id="ytick_5">
     <g id="line2d_14">
      <g>
       <use style="stroke:#000000;stroke-width:0.8;" x="108" xlink:href="#mda17357b1b" y="217.162663"/>
      </g>
     </g>
     <g id="text_15">
      <!-- 8 -->
      <g transform="translate(93.365 221.721725)scale(0.12 -0.12)">
       <defs>
        <path d="M 31.78125 34.625 
Q 24.75 34.625 20.71875 30.859375 
Q 16.703125 27.09375 16.703125 20.515625 
Q 16.703125 13.921875 20.71875 10.15625 
Q 24.75 6.390625 31.78125 6.390625 
Q 38.8125 6.390625 42.859375 10.171875 
Q 46.921875 13.96875 46.921875 20.515625 
Q 46.921875 27.09375 42.890625 30.859375 
Q 38.875 34.625 31.78125 34.625 
z
M 21.921875 38.8125 
Q 15.578125 40.375 12.03125 44.71875 
Q 8.5 49.078125 8.5 55.328125 
Q 8.5 64.0625 14.71875 69.140625 
Q 20.953125 74.21875 31.78125 74.21875 
Q 42.671875 74.21875 48.875 69.140625 
Q 55.078125 64.0625 55.078125 55.328125 
Q 55.078125 49.078125 51.53125 44.71875 
Q 48 40.375 41.703125 38.8125 
Q 48.828125 37.15625 52.796875 32.3125 
Q 56.78125 27.484375 56.78125 20.515625 
Q 56.78125 9.90625 50.3125 4.234375 
Q 43.84375 -1.421875 31.78125 -1.421875 
Q 19.734375 -1.421875 13.25 4.234375 
Q 6.78125 9.90625 6.78125 20.515625 
Q 6.78125 27.484375 10.78125 32.3125 
Q 14.796875 37.15625 21.921875 38.8125 
z
M 18.3125 54.390625 
Q 18.3125 48.734375 21.84375 45.5625 
Q 25.390625 42.390625 31.78125 42.390625 
Q 38.140625 42.390625 41.71875 45.5625 
Q 45.3125 48.734375 45.3125 54.390625 
Q 45.3125 60.0625 41.71875 63.234375 
Q 38.140625 66.40625 31.78125 66.40625 
Q 25.390625 66.40625 21.84375 63.234375 
Q 18.3125 60.0625 18.3125 54.390625 
z
" id="DejaVuSans-56"/>
       </defs>
       <use xlink:href="#DejaVuSans-56"/>
      </g>
     </g>
    </g>
    <g id="ytick_6">
     <g id="line2d_15">
      <g>
       <use style="stroke:#000000;stroke-width:0.8;" x="108" xlink:href="#mda17357b1b" y="158.874851"/>
      </g>
     </g>
     <g id="text_16">
      <!-- 10 -->
      <g transform="translate(85.73 163.433913)scale(0.12 -0.12)">
       <use xlink:href="#DejaVuSans-49"/>
       <use x="63.623047" xlink:href="#DejaVuSans-48"/>
      </g>
     </g>
    </g>
    <g id="ytick_7">
     <g id="line2d_16">
      <g>
       <use style="stroke:#000000;stroke-width:0.8;" x="108" xlink:href="#mda17357b1b" y="100.587038"/>
      </g>
     </g>
     <g id="text_17">
      <!-- 12 -->
      <g transform="translate(85.73 105.146101)scale(0.12 -0.12)">
       <use xlink:href="#DejaVuSans-49"/>
       <use x="63.623047" xlink:href="#DejaVuSans-50"/>
      </g>
     </g>
    </g>
    <g id="text_18">
     <!-- SO2(ppm) -->
     <g transform="translate(78.610469 303.077578)rotate(-90)scale(0.15 -0.15)">
      <defs>
       <path d="M 53.515625 70.515625 
L 53.515625 60.890625 
Q 47.90625 63.578125 42.921875 64.890625 
Q 37.9375 66.21875 33.296875 66.21875 
Q 25.25 66.21875 20.875 63.09375 
Q 16.5 59.96875 16.5 54.203125 
Q 16.5 49.359375 19.40625 46.890625 
Q 22.3125 44.4375 30.421875 42.921875 
L 36.375 41.703125 
Q 47.40625 39.59375 52.65625 34.296875 
Q 57.90625 29 57.90625 20.125 
Q 57.90625 9.515625 50.796875 4.046875 
Q 43.703125 -1.421875 29.984375 -1.421875 
Q 24.8125 -1.421875 18.96875 -0.25 
Q 13.140625 0.921875 6.890625 3.21875 
L 6.890625 13.375 
Q 12.890625 10.015625 18.65625 8.296875 
Q 24.421875 6.59375 29.984375 6.59375 
Q 38.421875 6.59375 43.015625 9.90625 
Q 47.609375 13.234375 47.609375 19.390625 
Q 47.609375 24.75 44.3125 27.78125 
Q 41.015625 30.8125 33.5 32.328125 
L 27.484375 33.5 
Q 16.453125 35.6875 11.515625 40.375 
Q 6.59375 45.0625 6.59375 53.421875 
Q 6.59375 63.09375 13.40625 68.65625 
Q 20.21875 74.21875 32.171875 74.21875 
Q 37.3125 74.21875 42.625 73.28125 
Q 47.953125 72.359375 53.515625 70.515625 
z
" id="DejaVuSans-83"/>
       <path d="M 39.40625 66.21875 
Q 28.65625 66.21875 22.328125 58.203125 
Q 16.015625 50.203125 16.015625 36.375 
Q 16.015625 22.609375 22.328125 14.59375 
Q 28.65625 6.59375 39.40625 6.59375 
Q 50.140625 6.59375 56.421875 14.59375 
Q 62.703125 22.609375 62.703125 36.375 
Q 62.703125 50.203125 56.421875 58.203125 
Q 50.140625 66.21875 39.40625 66.21875 
z
M 39.40625 74.21875 
Q 54.734375 74.21875 63.90625 63.9375 
Q 73.09375 53.65625 73.09375 36.375 
Q 73.09375 19.140625 63.90625 8.859375 
Q 54.734375 -1.421875 39.40625 -1.421875 
Q 24.03125 -1.421875 14.8125 8.828125 
Q 5.609375 19.09375 5.609375 36.375 
Q 5.609375 53.65625 14.8125 63.9375 
Q 24.03125 74.21875 39.40625 74.21875 
z
" id="DejaVuSans-79"/>
       <path d="M 31 75.875 
Q 24.46875 64.65625 21.28125 53.65625 
Q 18.109375 42.671875 18.109375 31.390625 
Q 18.109375 20.125 21.3125 9.0625 
Q 24.515625 -2 31 -13.1875 
L 23.1875 -13.1875 
Q 15.875 -1.703125 12.234375 9.375 
Q 8.59375 20.453125 8.59375 31.390625 
Q 8.59375 42.28125 12.203125 53.3125 
Q 15.828125 64.359375 23.1875 75.875 
z
" id="DejaVuSans-40"/>
       <path d="M 18.109375 8.203125 
L 18.109375 -20.796875 
L 9.078125 -20.796875 
L 9.078125 54.6875 
L 18.109375 54.6875 
L 18.109375 46.390625 
Q 20.953125 51.265625 25.265625 53.625 
Q 29.59375 56 35.59375 56 
Q 45.5625 56 51.78125 48.09375 
Q 58.015625 40.1875 58.015625 27.296875 
Q 58.015625 14.40625 51.78125 6.484375 
Q 45.5625 -1.421875 35.59375 -1.421875 
Q 29.59375 -1.421875 25.265625 0.953125 
Q 20.953125 3.328125 18.109375 8.203125 
z
M 48.6875 27.296875 
Q 48.6875 37.203125 44.609375 42.84375 
Q 40.53125 48.484375 33.40625 48.484375 
Q 26.265625 48.484375 22.1875 42.84375 
Q 18.109375 37.203125 18.109375 27.296875 
Q 18.109375 17.390625 22.1875 11.75 
Q 26.265625 6.109375 33.40625 6.109375 
Q 40.53125 6.109375 44.609375 11.75 
Q 48.6875 17.390625 48.6875 27.296875 
z
" id="DejaVuSans-112"/>
       <path d="M 52 44.1875 
Q 55.375 50.25 60.0625 53.125 
Q 64.75 56 71.09375 56 
Q 79.640625 56 84.28125 50.015625 
Q 88.921875 44.046875 88.921875 33.015625 
L 88.921875 0 
L 79.890625 0 
L 79.890625 32.71875 
Q 79.890625 40.578125 77.09375 44.375 
Q 74.3125 48.1875 68.609375 48.1875 
Q 61.625 48.1875 57.5625 43.546875 
Q 53.515625 38.921875 53.515625 30.90625 
L 53.515625 0 
L 44.484375 0 
L 44.484375 32.71875 
Q 44.484375 40.625 41.703125 44.40625 
Q 38.921875 48.1875 33.109375 48.1875 
Q 26.21875 48.1875 22.15625 43.53125 
Q 18.109375 38.875 18.109375 30.90625 
L 18.109375 0 
L 9.078125 0 
L 9.078125 54.6875 
L 18.109375 54.6875 
L 18.109375 46.1875 
Q 21.1875 51.21875 25.484375 53.609375 
Q 29.78125 56 35.6875 56 
Q 41.65625 56 45.828125 52.96875 
Q 50 49.953125 52 44.1875 
z
" id="DejaVuSans-109"/>
       <path d="M 8.015625 75.875 
L 15.828125 75.875 
Q 23.140625 64.359375 26.78125 53.3125 
Q 30.421875 42.28125 30.421875 31.390625 
Q 30.421875 20.453125 26.78125 9.375 
Q 23.140625 -1.703125 15.828125 -13.1875 
L 8.015625 -13.1875 
Q 14.5 -2 17.703125 9.0625 
Q 20.90625 20.125 20.90625 31.390625 
Q 20.90625 42.671875 17.703125 53.65625 
Q 14.5 64.65625 8.015625 75.875 
z
" id="DejaVuSans-41"/>
      </defs>
      <use xlink:href="#DejaVuSans-83"/>
      <use x="63.476562" xlink:href="#DejaVuSans-79"/>
      <use x="142.1875" xlink:href="#DejaVuSans-50"/>
      <use x="205.810547" xlink:href="#DejaVuSans-40"/>
      <use x="244.824219" xlink:href="#DejaVuSans-112"/>
      <use x="308.300781" xlink:href="#DejaVuSans-112"/>
      <use x="371.777344" xlink:href="#DejaVuSans-109"/>
      <use x="469.189453" xlink:href="#DejaVuSans-41"/>
     </g>
    </g>
   </g>
   <g id="line2d_17">
    <path clip-path="url(#pcc7f6c4715)" d="M 138.436364 375.19768 
L 139.273678 391.709889 
L 140.110992 385.709222 
L 140.948306 381.401689 
L 141.78562 365.621236 
L 142.622934 388.146561 
L 143.460248 386.492158 
L 144.297562 388.878316 
L 145.134876 344.686682 
L 145.97219 347.295547 
L 146.809504 383.215169 
L 147.646818 395.495925 
L 148.484132 394.986878 
L 149.321446 374.147771 
L 150.15876 342.173263 
L 150.996074 361.13526 
L 151.833388 356.967438 
L 152.670702 380.829012 
L 153.508016 389.419178 
L 154.345329 388.114745 
L 155.182643 396.482204 
L 156.019957 402.463505 
L 156.857271 405.549601 
L 157.694585 402.972551 
L 158.531899 390.978134 
L 159.369213 369.661795 
L 160.206527 360.944367 
L 161.881155 382.674307 
L 162.718469 393.014322 
L 163.555783 391.837151 
L 164.393097 402.622582 
L 165.230411 401.127256 
L 166.067725 401.827196 
L 166.905039 395.145955 
L 167.742353 400.61821 
L 168.579667 392.88706 
L 169.416981 394.509647 
L 170.254295 393.65063 
L 171.091609 397.404851 
L 172.766237 399.027438 
L 173.603551 399.027438 
L 174.440865 403.767937 
L 175.278179 383.787847 
L 176.115493 370.807151 
L 176.952807 372.429738 
L 177.790121 373.67054 
L 178.627435 379.58821 
L 179.464749 358.271871 
L 180.302063 386.014927 
L 181.139377 388.337453 
L 181.976691 386.746682 
L 182.814005 383.223846 
L 183.651319 387.764775 
L 184.488633 384.074186 
L 185.325947 368.293732 
L 186.163261 389.991856 
L 187.000575 389.578255 
L 187.837889 390.023671 
L 188.675203 390.341825 
L 189.512517 385.85585 
L 190.349831 351.813339 
L 192.861773 277.906092 
L 194.536401 383.183353 
L 195.373715 388.146561 
L 196.211029 381.847105 
L 197.048343 383.724216 
L 197.885657 362.885108 
L 198.722971 380.794304 
L 199.560285 387.033021 
L 202.072227 369.97995 
L 202.909541 374.911341 
L 203.746855 381.338058 
L 204.584169 379.683656 
L 205.421483 386.683051 
L 206.258797 385.442249 
L 207.096111 376.31122 
L 207.933425 374.052325 
L 208.770739 372.143399 
L 209.608053 376.056697 
L 210.445367 364.634957 
L 211.282681 346.913762 
L 212.119995 357.603747 
L 212.957309 361.80615 
L 213.794623 364.857665 
L 214.631937 362.948739 
L 215.469251 362.821478 
L 216.306565 365.684866 
L 217.143879 353.499556 
L 217.981193 337.305502 
L 218.818507 338.959904 
L 219.655821 351.972416 
L 220.493135 357.317408 
L 221.330449 335.142053 
L 222.167763 297.186244 
L 223.005077 294.831902 
L 223.842391 293.559284 
L 224.679705 331.801432 
L 225.517019 340.996092 
L 226.354333 345.736591 
L 227.191647 343.127726 
L 228.028961 340.137075 
L 228.866275 343.350434 
L 229.703589 343.764034 
L 232.215531 332.819526 
L 233.052845 310.421463 
L 233.890159 273.101962 
L 234.727473 278.765109 
L 235.564787 327.91995 
L 236.402101 327.029118 
L 237.239415 335.110237 
L 238.076729 336.382854 
L 238.914043 331.356016 
L 239.751357 333.933066 
L 240.588671 333.169496 
L 241.425985 329.03349 
L 242.263299 327.506349 
L 243.100613 328.015396 
L 243.937927 324.261175 
L 244.775241 333.264942 
L 246.449869 304.090192 
L 247.287183 299.50877 
L 248.124497 321.493233 
L 248.961811 355.758452 
L 249.799125 358.812733 
L 250.636439 358.844549 
L 251.473753 354.485835 
L 252.311067 350.986137 
L 253.148381 351.145214 
L 253.985695 347.422809 
L 254.823009 350.381644 
L 255.660323 350.699798 
L 256.497637 351.622446 
L 257.334951 345.863853 
L 258.172265 342.977739 
L 259.009579 338.864458 
L 259.846893 337.687287 
L 260.684207 340.200706 
L 262.358835 348.377272 
L 263.196149 345.927484 
L 264.033463 344.941205 
L 264.870777 341.314246 
L 265.708091 338.705381 
L 266.545405 338.069072 
L 267.382719 334.092143 
L 268.220033 338.546304 
L 269.057347 338.673566 
L 269.89466 333.264942 
L 270.731974 338.037257 
L 271.569288 319.520676 
L 272.406602 312.680358 
L 273.243916 315.416485 
L 274.08123 312.903066 
L 274.918544 308.957953 
L 275.755858 303.638991 
L 276.593172 304.599239 
L 277.430486 300.27234 
L 278.2678 300.176894 
L 279.105114 301.672219 
L 279.942428 278.637847 
L 280.779742 290.473188 
L 281.617056 255.22169 
L 282.45437 281.373974 
L 283.291684 425.497877 
L 284.128998 440.482945 
L 285.803626 428.393081 
L 286.64094 438.860358 
L 287.478254 434.056228 
L 288.315568 442.996364 
L 289.152882 435.615184 
L 289.990196 434.088043 
L 290.82751 437.619556 
L 291.664824 434.151674 
L 292.502138 432.688164 
L 293.339452 430.9065 
L 294.176766 431.892778 
L 295.01408 431.701886 
L 295.851394 433.229026 
L 296.688708 431.351916 
L 297.526022 433.006318 
L 298.363336 430.55653 
L 299.20065 430.015668 
L 300.037964 427.438618 
L 300.875278 428.043111 
L 301.712592 431.351916 
L 302.549906 430.047483 
L 303.38722 430.333822 
L 304.224534 426.477239 
L 305.061848 431.574624 
L 305.899162 431.510993 
L 306.736476 425.434246 
L 307.57379 422.284518 
L 308.411104 424.766122 
L 309.248418 428.774866 
L 310.085732 424.479783 
L 310.923046 421.234609 
L 311.76036 424.161629 
L 312.597674 423.557135 
L 313.434988 426.86594 
L 314.272302 423.727782 
L 315.109616 424.447967 
L 315.94693 419.166606 
L 316.784244 418.530297 
L 317.621558 420.471039 
L 318.458872 429.729329 
L 319.296186 429.824775 
L 320.1335 434.24712 
L 320.970814 426.579601 
L 321.808128 420.025622 
L 322.645442 419.866545 
L 323.482756 423.907105 
L 324.32007 419.898361 
L 325.157384 418.343554 
L 325.994698 420.5983 
L 326.832012 426.134185 
L 327.669326 421.966364 
L 328.50664 418.912082 
L 329.343954 416.589556 
L 330.181268 416.303217 
L 331.018582 414.839707 
L 331.855896 411.976318 
L 332.69321 416.939526 
L 333.530524 414.935154 
L 334.367838 413.501785 
L 335.205152 411.626349 
L 336.042466 403.322521 
L 336.87978 403.131629 
L 337.717094 401.668119 
L 338.554408 402.527135 
L 339.391722 402.590766 
L 340.229036 391.518996 
L 342.740978 396.195865 
L 343.578292 400.077347 
L 344.415606 403.227075 
L 345.25292 404.786031 
L 346.090234 403.322521 
L 346.927548 409.081114 
L 347.764862 405.83594 
L 348.602176 377.901992 
L 349.43949 367.434715 
L 350.276804 367.593792 
L 351.114118 370.838966 
L 351.951432 368.211921 
L 352.788746 370.775335 
L 353.62606 347.550071 
L 354.463374 361.739753 
L 355.300688 362.59877 
L 356.138002 368.007393 
L 356.975316 369.184564 
L 357.81263 367.021115 
L 358.649944 365.907574 
L 359.487258 361.930646 
L 360.324572 361.389783 
L 361.161886 366.35299 
L 361.9992 366.034836 
L 362.836514 364.348618 
L 363.673828 367.275638 
L 364.511142 364.603142 
L 365.348456 369.502718 
L 367.023084 365.334897 
L 367.860398 364.157726 
L 368.697712 372.652446 
L 369.535026 372.556999 
L 372.046968 335.142053 
L 372.884282 309.912416 
L 373.721596 337.082794 
L 374.55891 343.223172 
L 375.396224 361.167075 
L 376.233538 362.630585 
L 377.070852 356.840177 
L 377.908166 348.122749 
L 379.582794 322.193172 
L 380.420108 328.301735 
L 381.257422 325.565608 
L 382.094736 323.497605 
L 382.93205 307.208104 
L 383.769364 274.279133 
L 384.606678 263.557333 
L 385.443991 311.248664 
L 386.281305 325.406531 
L 387.118619 325.024746 
L 387.955933 330.433369 
L 388.793247 337.719103 
L 389.630561 332.246848 
L 390.467875 332.310479 
L 391.305189 330.878785 
L 392.142503 308.607983 
L 392.979817 312.425835 
L 393.817131 307.971675 
L 394.654445 311.025956 
L 395.491759 276.60166 
L 396.329073 237.023264 
L 397.166387 232.282764 
L 398.003701 232.473657 
L 398.841015 219.715669 
L 399.678329 278.06517 
L 400.515643 275.950379 
L 401.352957 238.677666 
L 402.190271 263.493702 
L 403.027585 313.952976 
L 403.864899 307.526259 
L 404.702213 321.868102 
L 405.539527 318.693475 
L 406.376841 317.452673 
L 407.214155 320.475139 
L 408.051469 319.393414 
L 408.888783 320.029723 
L 410.563411 311.185033 
L 411.400725 312.712174 
L 412.238039 319.584307 
L 413.075353 312.04405 
L 413.912667 307.144473 
L 414.749981 288.914232 
L 415.587295 278.47877 
L 416.424609 273.992794 
L 417.261923 268.329648 
L 418.099237 281.851206 
L 418.936551 276.378952 
L 420.611179 238.773112 
L 421.448493 194.97599 
L 422.285807 238.900374 
L 423.123121 254.553566 
L 423.960435 226.683249 
L 424.797749 294.372024 
L 425.635063 289.764948 
L 426.472377 316.327412 
L 428.147005 294.831902 
L 428.984319 266.675245 
L 429.821633 255.672891 
L 430.658947 253.058241 
L 431.496261 248.349557 
L 432.333575 220.288347 
L 433.170889 204.921494 
L 434.008203 210.489194 
L 434.845517 224.201645 
L 435.682831 280.164988 
L 436.520145 274.692734 
L 437.357459 303.390253 
L 438.194773 277.747015 
L 439.032087 277.7152 
L 439.869401 290.600449 
L 440.706715 275.042704 
L 441.544029 235.750646 
L 442.381343 203.744323 
L 443.218657 201.708135 
L 444.055971 229.260298 
L 444.893285 181.568967 
L 445.730599 108.997969 
L 446.567913 241.891025 
L 447.405227 261.648407 
L 448.242541 253.217318 
L 449.079855 202.630783 
L 449.917169 174.505942 
L 450.754483 194.867818 
L 451.591797 151.662462 
L 452.429111 172.024338 
L 453.266425 178.164716 
L 454.103739 221.497333 
L 454.941053 249.781251 
L 455.778367 246.408816 
L 456.615681 193.53157 
L 457.452995 256.436461 
L 458.290309 264.670873 
L 459.127623 259.707666 
L 459.964937 271.79753 
L 460.802251 273.203772 
L 461.639565 283.505608 
L 462.476879 278.383324 
L 463.314193 279.974095 
L 464.151507 271.892976 
L 464.988821 276.824368 
L 465.826135 255.158059 
L 466.663449 266.707061 
L 467.500763 259.039542 
L 468.338077 270.461282 
L 469.175391 258.466864 
L 470.012705 268.138755 
L 470.850019 263.652779 
L 471.687333 270.74762 
L 472.524647 256.398861 
L 473.361961 259.803112 
L 474.199275 269.665896 
L 475.036589 271.670268 
L 475.873903 285.955396 
L 476.711217 282.328437 
L 477.548531 264.320903 
L 478.385845 259.962189 
L 479.223159 273.67464 
L 480.060473 259.071357 
L 480.897787 262.95284 
L 481.735101 266.29346 
L 482.572415 247.776879 
L 483.409729 247.776879 
L 484.247043 250.703899 
L 485.084357 263.111917 
L 485.921671 264.989027 
L 486.758985 256.239784 
L 487.596299 268.838695 
L 488.433613 267.152477 
L 489.270927 266.325276 
L 490.108241 260.02582 
L 490.945555 258.753203 
L 491.782869 252.008332 
L 492.620183 247.331463 
L 493.457497 264.448165 
L 494.294811 259.134988 
L 495.132125 255.158059 
L 495.969439 265.625336 
L 496.806753 256.367046 
L 497.644067 265.625336 
L 498.481381 258.307787 
L 499.318695 262.125639 
L 500.156009 260.37579 
L 500.993322 241.954655 
L 501.830636 254.998982 
L 502.66795 257.544217 
L 503.505264 256.6852 
L 504.342578 257.957817 
L 505.179892 259.516773 
L 506.017206 263.557333 
L 506.85452 265.94349 
L 507.691834 270.079496 
L 508.529148 253.058241 
L 509.366462 226.81051 
L 510.203776 205.430541 
L 511.04109 132.303464 
L 512.715718 343.44588 
L 513.553032 354.740358 
L 514.390346 352.608724 
L 515.22766 357.062885 
L 516.064974 352.576909 
L 516.902288 345.609329 
L 517.739602 349.618074 
L 518.576916 350.445275 
L 519.41423 352.545093 
L 520.251544 351.527 
L 521.088858 354.772174 
L 521.926172 354.931251 
L 522.763486 357.508301 
L 523.6008 355.408482 
L 524.438114 355.058512 
L 525.275428 352.481463 
L 526.112742 357.190146 
L 526.950056 357.0947 
L 527.78737 355.058512 
L 528.624684 355.503929 
L 529.461998 355.185774 
L 530.299312 357.190146 
L 531.136626 352.258755 
L 531.97394 357.44467 
L 532.811254 353.05414 
L 533.648568 353.881342 
L 534.485882 355.535744 
L 535.323196 353.40411 
L 536.16051 350.068035 
L 536.997824 360.562582 
L 537.835138 358.462764 
L 538.672452 361.039813 
L 539.509766 354.135865 
L 540.34708 350.349829 
L 541.184394 351.845154 
L 542.021708 346.818316 
L 542.859022 353.531372 
L 543.696336 353.40411 
L 544.53365 353.05414 
L 545.370964 347.072839 
L 546.208278 346.818316 
L 547.045592 352.004231 
L 547.882906 348.981765 
L 548.72022 345.195729 
L 549.557534 347.13647 
L 550.394848 347.772779 
L 551.232162 346.850131 
L 552.069476 347.200101 
L 552.90679 345.704776 
L 553.744104 342.491417 
L 554.581418 344.877575 
L 555.418732 348.759057 
L 556.256046 347.327363 
L 557.09336 344.495789 
L 557.930674 346.531977 
L 558.767988 346.563792 
L 559.605302 346.182007 
L 560.442616 349.586258 
L 561.27993 351.972416 
L 562.117244 356.140237 
L 562.954558 353.213217 
L 563.791872 351.113399 
L 564.629186 344.782128 
L 565.4665 344.432159 
L 566.303814 346.182007 
L 567.141128 347.454624 
L 567.978442 343.541326 
L 568.815756 344.90939 
L 569.65307 341.950555 
L 571.327698 343.604957 
L 572.165012 343.573142 
L 573.002326 343.09591 
L 573.83964 346.436531 
L 574.676954 348.281826 
L 576.351582 355.567559 
L 578.02621 291.427651 
L 578.863524 283.346531 
L 579.700838 283.410162 
L 580.538152 282.996561 
L 581.375466 286.97349 
L 582.21278 281.214897 
L 583.050094 284.555517 
L 583.887408 286.114474 
L 584.724722 289.296017 
L 585.562036 284.428256 
L 586.39935 287.800691 
L 587.236664 280.419511 
L 588.073978 281.05582 
L 588.911292 281.40579 
L 589.748606 278.701478 
L 590.58592 283.696501 
L 591.423234 279.94228 
L 593.097862 280.769481 
L 593.935176 282.614776 
L 594.77249 280.355881 
L 595.609804 281.460744 
L 596.447118 284.39644 
L 598.121746 288.118846 
L 598.95906 281.533052 
L 599.796374 289.90051 
L 600.633688 291.173127 
L 601.471002 285.319088 
L 602.308316 287.450722 
L 603.14563 284.332809 
L 604.820258 279.974095 
L 605.657572 286.782598 
L 606.494886 281.75576 
L 607.3322 284.555517 
L 608.169514 288.214292 
L 609.006828 288.118846 
L 609.844142 285.350903 
L 610.681456 283.346531 
L 611.51877 282.232991 
L 612.356084 285.955396 
L 613.193398 284.110101 
L 614.030712 287.641614 
L 614.868026 285.319088 
L 615.70534 286.496259 
L 616.542653 282.201176 
L 617.379967 282.328437 
L 618.217281 285.255457 
L 619.054595 285.50998 
L 619.891909 282.646592 
L 620.729223 278.319693 
L 621.566537 288.500631 
L 622.403851 279.751387 
L 623.241165 281.628498 
L 624.078479 276.569844 
L 624.915793 277.237968 
L 625.753107 277.397046 
L 626.590421 280.70585 
L 627.427735 277.747015 
L 628.265049 277.206153 
L 629.102363 279.687757 
L 629.939677 278.796924 
L 630.776991 276.060797 
L 631.614305 278.1288 
L 632.451619 277.651569 
L 633.288933 274.915442 
L 634.126247 279.210525 
L 634.963561 280.960374 
L 635.800875 278.637847 
L 636.638189 278.987817 
L 637.475503 276.219875 
L 638.312817 276.887999 
L 639.150131 275.838089 
L 639.987445 275.710828 
L 640.824759 280.29225 
L 641.662073 277.810646 
L 642.499387 278.415139 
L 643.336701 280.864927 
L 644.174015 279.019632 
L 645.011329 282.010283 
L 645.848643 277.842462 
L 646.685957 277.460676 
L 647.523271 284.364625 
L 648.360585 280.324065 
L 649.197899 282.773853 
L 650.035213 278.637847 
L 650.872527 279.687757 
L 651.709841 281.787575 
L 652.547155 280.992189 
L 653.384469 286.400812 
L 655.059097 281.883021 
L 655.896411 282.901115 
L 656.733725 277.333415 
L 657.571039 280.610404 
L 658.408353 278.510586 
L 659.245667 278.383324 
L 660.082981 283.251085 
L 660.920295 280.578589 
L 661.757609 276.824368 
L 662.594923 284.173732 
L 663.432237 288.182477 
L 665.106865 283.187454 
L 665.944179 285.923581 
L 666.781493 282.582961 
L 667.618807 288.468815 
L 668.456121 285.605427 
L 669.293435 286.878044 
L 670.130749 287.196198 
L 670.968063 287.705245 
L 671.805377 285.478165 
L 672.642691 283.887393 
L 673.480005 283.601055 
L 674.317319 282.964746 
L 675.154633 284.39644 
L 675.991947 283.919209 
L 676.829261 284.905487 
L 677.666575 281.373974 
L 678.503889 235.464308 
L 679.341203 267.74788 
L 680.178517 283.664685 
L 681.015831 288.532446 
L 681.853145 284.205548 
L 682.690459 276.315321 
L 683.527773 276.856183 
L 684.365087 279.146894 
L 685.202401 276.792552 
L 686.039715 271.982059 
L 686.877029 275.233596 
L 687.714343 275.424489 
L 688.551657 273.929164 
L 689.388971 271.320298 
L 690.226285 271.638453 
L 691.063599 272.167078 
L 691.900913 275.238141 
L 692.738227 289.645986 
L 693.575541 293.082053 
L 694.412855 290.600449 
L 695.250169 288.977862 
L 696.087483 286.050843 
L 697.762111 293.5911 
L 698.599425 292.763899 
L 699.436739 294.036516 
L 700.274053 294.068331 
L 701.111367 289.423278 
L 701.948681 292.159405 
L 702.785995 291.586728 
L 704.460623 252.549194 
L 705.297937 243.73632 
L 706.135251 206.179649 
L 706.972565 202.662598 
L 707.809879 243.704504 
L 708.647193 275.042704 
L 709.484507 266.961584 
L 710.321821 264.193642 
L 711.159135 266.362876 
L 711.996449 262.614439 
L 712.833763 287.256937 
L 713.671077 286.771028 
L 714.508391 283.543208 
L 715.345705 252.583902 
L 717.020333 204.409555 
L 717.857647 196.877974 
L 718.694961 225.85894 
L 719.532275 244.91349 
L 720.369589 245.468814 
L 721.206903 248.384265 
L 722.044217 227.941404 
L 722.881531 197.120929 
L 723.718845 214.127723 
L 724.556159 192.64363 
L 725.393473 209.476885 
L 726.230787 205.86728 
L 727.068101 213.988892 
L 727.905415 267.195861 
L 728.742729 275.143935 
L 729.580043 273.963871 
L 730.417357 278.475878 
L 731.254671 271.846699 
L 732.091984 256.401753 
L 732.929298 249.494913 
L 733.766612 263.308594 
L 735.44124 247.585987 
L 737.115868 173.762618 
L 738.790496 257.581817 
L 739.62781 246.093554 
L 740.465124 232.522826 
L 741.302438 224.644169 
L 742.139752 230.232115 
L 742.977066 240.15853 
L 743.81438 235.299446 
L 744.651694 189.346394 
L 745.489008 177.754008 
L 746.326322 198.3357 
L 747.163636 188.374577 
L 747.163636 188.374577 
" style="fill:none;stroke:#1f77b4;stroke-linecap:square;stroke-width:1.5;"/>
   </g>
   <g id="line2d_18">
    <path clip-path="url(#pcc7f6c4715)" d="M 138.436364 281.293759 
L 139.273678 339.979537 
L 140.110992 324.53101 
L 140.948306 326.750997 
L 141.78562 330.674884 
L 142.622934 330.89376 
L 143.460248 334.671075 
L 144.297562 293.153928 
L 145.134876 290.018134 
L 145.97219 285.938353 
L 146.809504 319.3759 
L 147.646818 313.996967 
L 148.484132 344.025466 
L 149.321446 355.22442 
L 150.15876 267.157627 
L 150.996074 316.820886 
L 151.833388 302.672997 
L 152.670702 271.282643 
L 153.508016 352.825315 
L 154.345329 329.3345 
L 155.182643 355.800148 
L 156.019957 374.421198 
L 156.857271 367.711672 
L 157.694585 274.540131 
L 158.531899 272.199046 
L 159.369213 317.745071 
L 160.206527 340.757597 
L 161.043841 346.11187 
L 161.881155 391.304601 
L 162.718469 407.292023 
L 163.555783 384.364748 
L 164.393097 340.4805 
L 165.230411 315.059079 
L 166.067725 330.47663 
L 166.905039 314.914523 
L 167.742353 329.653156 
L 168.579667 302.695093 
L 169.416981 262.372355 
L 170.254295 334.616127 
L 171.091609 322.069272 
L 171.928923 337.734723 
L 172.766237 308.890802 
L 173.603551 305.678604 
L 174.440865 276.771389 
L 175.278179 206.544905 
L 176.115493 291.557452 
L 176.952807 352.430636 
L 177.790121 352.819659 
L 178.627435 393.211839 
L 179.464749 339.485732 
L 180.302063 341.336715 
L 181.139377 374.530678 
L 181.976691 350.790274 
L 182.814005 335.549818 
L 183.651319 365.102258 
L 184.488633 367.332001 
L 185.325947 338.994074 
L 186.163261 328.795175 
L 187.000575 358.151482 
L 187.837889 332.551701 
L 188.675203 315.457545 
L 189.512517 316.940649 
L 190.349831 282.957496 
L 191.187145 283.503616 
L 192.024459 247.659182 
L 192.861773 222.520737 
L 193.699087 200.85093 
L 194.536401 292.623288 
L 195.373715 312.787937 
L 196.211029 305.751118 
L 197.048343 292.725333 
L 197.885657 268.485503 
L 198.722971 309.793725 
L 199.560285 284.980189 
L 200.397599 323.504168 
L 201.234913 326.824137 
L 202.072227 307.404376 
L 203.746855 288.136369 
L 204.584169 270.500401 
L 205.421483 354.219994 
L 206.258797 346.588318 
L 207.096111 358.4697 
L 207.933425 328.972152 
L 208.770739 290.558196 
L 209.608053 280.149197 
L 210.445367 257.63646 
L 211.282681 262.359681 
L 212.119995 269.676704 
L 212.957309 256.526153 
L 213.794623 305.087819 
L 214.631937 287.278167 
L 215.469251 302.381912 
L 216.306565 257.029471 
L 217.143879 265.164478 
L 217.981193 285.016599 
L 218.818507 268.539145 
L 219.655821 265.439679 
L 220.493135 332.820398 
L 221.330449 326.658875 
L 222.167763 221.960817 
L 223.005077 306.03228 
L 223.842391 265.587542 
L 224.679705 374.947494 
L 225.517019 373.832067 
L 226.354333 326.234241 
L 227.191647 314.933729 
L 228.028961 295.757761 
L 229.703589 310.153919 
L 230.540903 298.416488 
L 231.378217 264.872282 
L 232.215531 261.442431 
L 233.052845 263.54927 
L 233.890159 236.396455 
L 234.727473 216.338271 
L 235.564787 353.246669 
L 236.402101 355.740099 
L 237.239415 331.666358 
L 238.076729 334.620824 
L 238.914043 281.15814 
L 239.751357 278.987889 
L 240.588671 285.046783 
L 241.425985 298.955382 
L 242.263299 296.40123 
L 243.100613 302.107296 
L 243.937927 289.499558 
L 244.775241 293.234891 
L 245.612555 260.50974 
L 246.449869 301.170964 
L 247.287183 288.873461 
L 248.124497 271.889701 
L 248.961811 321.048934 
L 249.799125 334.354379 
L 250.636439 329.86696 
L 251.473753 280.061772 
L 252.311067 269.879584 
L 253.148381 283.663208 
L 253.985695 290.214692 
L 254.823009 272.006741 
L 255.660323 268.639203 
L 256.497637 253.528064 
L 257.334951 259.349669 
L 259.009579 276.80495 
L 259.846893 270.578515 
L 260.684207 295.545056 
L 261.521521 305.365798 
L 262.358835 302.231645 
L 263.196149 231.251477 
L 264.033463 212.026231 
L 264.870777 294.919806 
L 265.708091 312.464181 
L 266.545405 322.467848 
L 267.382719 308.223779 
L 268.220033 282.967919 
L 269.057347 245.189509 
L 269.89466 246.560577 
L 270.731974 229.422117 
L 271.569288 316.759086 
L 273.243916 267.727497 
L 274.08123 281.766907 
L 274.918544 246.034051 
L 275.755858 301.67784 
L 276.593172 273.396097 
L 277.430486 274.487004 
L 279.105114 261.909422 
L 279.942428 299.281653 
L 280.779742 216.860517 
L 281.617056 276.233649 
L 282.45437 255.300669 
L 283.291684 290.389696 
L 284.128998 375.051117 
L 284.966312 396.473684 
L 285.803626 396.330254 
L 286.64094 385.492696 
L 288.315568 400.61653 
L 289.152882 402.560025 
L 289.990196 381.696835 
L 290.82751 367.887843 
L 291.664824 399.417527 
L 292.502138 400.300959 
L 293.339452 414.994517 
L 294.176766 411.415594 
L 295.01408 394.207628 
L 295.851394 396.889243 
L 296.688708 386.382091 
L 297.526022 391.23158 
L 298.363336 398.354706 
L 299.20065 422.541436 
L 300.037964 418.707657 
L 300.875278 400.843981 
L 302.549906 420.944696 
L 303.38722 425.009052 
L 304.224534 390.447989 
L 305.061848 411.139254 
L 305.899162 415.234656 
L 306.736476 401.636062 
L 307.57379 416.550858 
L 308.411104 402.429672 
L 309.248418 404.009256 
L 310.085732 406.511059 
L 310.923046 404.327106 
L 311.76036 423.315257 
L 312.597674 420.034366 
L 313.434988 396.615558 
L 314.272302 377.009898 
L 315.109616 354.217263 
L 315.94693 279.676049 
L 316.784244 292.08691 
L 317.621558 314.40573 
L 318.458872 322.891662 
L 319.296186 355.162683 
L 320.1335 376.993319 
L 320.970814 348.787127 
L 321.808128 395.625265 
L 322.645442 409.704357 
L 323.482756 406.070819 
L 324.32007 363.151238 
L 325.157384 339.925777 
L 325.994698 377.447928 
L 326.832012 401.036154 
L 327.669326 388.690935 
L 328.50664 364.387874 
L 329.343954 371.451966 
L 330.181268 333.21739 
L 331.018582 335.851144 
L 331.855896 386.185005 
L 332.69321 393.945422 
L 333.530524 399.863818 
L 334.367838 413.495236 
L 335.205152 392.50785 
L 336.042466 356.117817 
L 336.87978 360.589824 
L 337.717094 367.295494 
L 338.554408 348.820334 
L 339.391722 366.749312 
L 340.229036 348.941758 
L 342.740978 347.93697 
L 343.578292 351.557161 
L 344.415606 347.318732 
L 345.25292 345.379455 
L 346.090234 345.638229 
L 346.927548 367.322732 
L 347.764862 334.180925 
L 348.602176 323.56751 
L 349.43949 317.136345 
L 350.276804 334.637904 
L 351.114118 306.839217 
L 351.951432 315.066708 
L 352.788746 314.788284 
L 353.62606 348.504645 
L 354.463374 322.18859 
L 355.300688 307.436464 
L 356.138002 299.748589 
L 356.975316 308.192191 
L 357.81263 301.225315 
L 358.649944 351.374521 
L 359.487258 345.807382 
L 360.324572 336.321137 
L 361.161886 356.450654 
L 361.9992 320.217566 
L 362.836514 264.688537 
L 363.673828 315.369827 
L 364.511142 285.712111 
L 365.348456 309.178176 
L 366.18577 295.256653 
L 367.860398 309.558826 
L 368.697712 278.13027 
L 369.535026 323.802854 
L 370.37234 330.271846 
L 371.209654 233.211439 
L 372.046968 293.745338 
L 372.884282 246.743363 
L 373.721596 369.456552 
L 374.55891 336.384855 
L 375.396224 393.493508 
L 376.233538 329.011814 
L 377.070852 277.069825 
L 377.908166 282.979967 
L 378.74548 304.988567 
L 379.582794 294.773013 
L 380.420108 297.190156 
L 381.257422 277.811781 
L 382.094736 273.179903 
L 382.93205 241.964734 
L 383.769364 285.848634 
L 384.606678 210.529868 
L 385.443991 197.461421 
L 386.281305 321.842099 
L 387.118619 296.540143 
L 387.955933 303.61226 
L 388.793247 303.982404 
L 389.630561 277.56304 
L 390.467875 269.149678 
L 391.305189 286.400077 
L 392.979817 236.496054 
L 393.817131 312.485971 
L 395.491759 218.267689 
L 396.329073 173.53944 
L 397.166387 219.324881 
L 398.003701 231.319099 
L 398.841015 292.953479 
L 399.678329 256.850354 
L 400.515643 315.008592 
L 401.352957 217.820473 
L 402.190271 229.686325 
L 403.027585 223.163302 
L 403.864899 262.655699 
L 404.702213 253.056403 
L 405.539527 277.333255 
L 406.376841 285.538261 
L 407.214155 274.461322 
L 408.051469 273.751274 
L 408.888783 241.526106 
L 409.726097 266.65506 
L 410.563411 236.208931 
L 411.400725 273.770466 
L 412.238039 330.183253 
L 413.075353 279.538679 
L 413.912667 281.587582 
L 414.749981 221.63228 
L 415.587295 292.447409 
L 416.424609 272.00606 
L 417.261923 257.739852 
L 418.099237 257.51696 
L 418.936551 308.862661 
L 419.773865 293.1345 
L 420.611179 257.993387 
L 421.448493 230.578227 
L 422.285807 244.082774 
L 423.123121 315.968186 
L 423.960435 252.374844 
L 424.797749 243.059643 
L 425.635063 224.861572 
L 426.472377 229.130226 
L 427.309691 253.065562 
L 428.147005 213.503276 
L 428.984319 211.180521 
L 429.821633 265.560596 
L 430.658947 240.988366 
L 431.496261 230.734984 
L 432.333575 185.310085 
L 433.170889 181.157303 
L 434.008203 250.512257 
L 434.845517 231.359011 
L 435.682831 253.139132 
L 436.520145 200.486859 
L 437.357459 269.855348 
L 438.194773 260.618331 
L 439.032087 236.8452 
L 439.869401 304.5299 
L 440.706715 263.526048 
L 441.544029 200.288856 
L 442.381343 177.825772 
L 443.218657 173.728994 
L 444.055971 197.821072 
L 444.893285 130.339462 
L 445.730599 86.923636 
L 447.405227 213.866986 
L 448.242541 190.66745 
L 449.079855 184.884756 
L 449.917169 226.938741 
L 450.754483 237.239775 
L 451.591797 181.875744 
L 452.429111 184.511541 
L 453.266425 218.619767 
L 454.103739 236.502183 
L 454.941053 259.300669 
L 455.778367 234.857346 
L 456.615681 216.265118 
L 457.452995 230.909668 
L 458.290309 240.5853 
L 459.127623 246.115334 
L 459.964937 286.777169 
L 460.802251 275.441262 
L 461.639565 234.242714 
L 463.314193 216.672964 
L 464.151507 229.013562 
L 464.988821 214.595906 
L 465.826135 215.651931 
L 466.663449 287.767448 
L 467.500763 237.024692 
L 468.338077 282.803338 
L 469.175391 254.534561 
L 470.012705 233.400868 
L 470.850019 201.1078 
L 471.687333 206.794633 
L 472.524647 255.883171 
L 473.361961 240.847395 
L 474.199275 247.016423 
L 475.036589 293.877372 
L 475.873903 252.274342 
L 476.711217 219.941751 
L 477.548531 240.594166 
L 478.385845 280.528985 
L 479.223159 253.522561 
L 480.060473 243.862689 
L 480.897787 250.331222 
L 481.735101 246.864224 
L 482.572415 263.572936 
L 483.409729 271.069729 
L 484.247043 236.668918 
L 485.084357 231.437139 
L 485.921671 259.084266 
L 486.758985 245.405216 
L 487.596299 256.288961 
L 488.433613 264.673154 
L 489.270927 237.540684 
L 490.108241 240.712637 
L 490.945555 215.868528 
L 491.782869 196.07048 
L 492.620183 240.457379 
L 493.457497 211.196836 
L 494.294811 277.45149 
L 495.132125 237.401632 
L 495.969439 241.181449 
L 496.806753 234.237072 
L 497.644067 214.970483 
L 498.481381 223.134577 
L 499.318695 266.654754 
L 500.156009 248.842545 
L 500.993322 225.780991 
L 501.830636 291.086542 
L 502.66795 263.667449 
L 503.505264 202.381423 
L 504.342578 218.604814 
L 505.179892 232.526183 
L 506.017206 223.855756 
L 506.85452 211.8854 
L 507.691834 224.840518 
L 508.529148 248.507949 
L 509.366462 197.539299 
L 510.203776 183.750603 
L 511.04109 221.395449 
L 511.878404 212.383298 
L 512.715718 320.536319 
L 513.553032 262.185873 
L 515.22766 284.406692 
L 516.064974 291.582758 
L 516.902288 285.096284 
L 517.739602 298.132686 
L 518.576916 277.181793 
L 519.41423 307.914295 
L 520.251544 314.852738 
L 521.088858 271.053066 
L 521.926172 269.827541 
L 522.763486 315.177592 
L 523.6008 330.034056 
L 524.438114 339.116519 
L 525.275428 277.961589 
L 526.112742 245.854656 
L 527.78737 325.410711 
L 528.624684 358.317584 
L 529.461998 322.452979 
L 530.299312 303.483686 
L 531.136626 299.997635 
L 531.97394 280.077461 
L 532.811254 251.123776 
L 533.648568 268.174852 
L 534.485882 267.273583 
L 535.323196 306.671287 
L 536.16051 338.250263 
L 536.997824 327.285333 
L 537.835138 309.164362 
L 538.672452 305.878663 
L 539.509766 295.042016 
L 540.34708 293.446443 
L 541.184394 289.204277 
L 542.021708 271.54535 
L 542.859022 316.593894 
L 543.696336 304.302074 
L 544.53365 295.554783 
L 545.370964 299.956334 
L 546.208278 327.093125 
L 547.045592 278.908579 
L 547.882906 294.383761 
L 548.72022 314.809644 
L 550.394848 304.469365 
L 551.232162 316.127736 
L 552.069476 353.989291 
L 552.90679 334.323834 
L 553.744104 333.776511 
L 554.581418 306.376061 
L 555.418732 316.946556 
L 556.256046 349.366294 
L 557.09336 329.523137 
L 557.930674 351.904653 
L 558.767988 349.173488 
L 559.605302 332.01114 
L 560.442616 356.923635 
L 561.27993 334.34438 
L 562.117244 344.724049 
L 562.954558 321.914432 
L 563.791872 316.058196 
L 564.629186 312.1459 
L 565.4665 340.285054 
L 566.303814 322.712239 
L 567.141128 309.397858 
L 567.978442 338.433723 
L 568.815756 318.572673 
L 569.65307 281.763127 
L 570.490384 233.991986 
L 571.327698 315.582353 
L 572.165012 308.468378 
L 573.002326 289.996553 
L 573.83964 307.231749 
L 574.676954 343.619684 
L 576.351582 304.00482 
L 577.188896 326.237354 
L 578.02621 287.23731 
L 578.863524 241.746942 
L 579.700838 248.682661 
L 580.538152 275.427087 
L 581.375466 272.234511 
L 582.21278 277.725953 
L 583.050094 285.800996 
L 583.887408 272.188568 
L 584.724722 271.118409 
L 585.562036 237.510055 
L 586.39935 271.594337 
L 587.236664 254.059996 
L 588.073978 247.077305 
L 588.911292 257.917886 
L 589.748606 246.820268 
L 590.58592 231.914623 
L 591.423234 268.813804 
L 592.260548 257.186492 
L 593.097862 225.956745 
L 593.935176 242.061456 
L 594.77249 289.423361 
L 595.609804 278.321394 
L 596.447118 237.931298 
L 597.284432 291.063431 
L 598.121746 280.2318 
L 598.95906 247.970167 
L 599.796374 242.915059 
L 600.633688 270.473802 
L 601.471002 263.410217 
L 602.308316 259.97678 
L 603.14563 264.43428 
L 603.982944 241.135631 
L 604.820258 237.407747 
L 605.657572 259.3271 
L 606.494886 261.704345 
L 607.3322 232.160667 
L 608.169514 250.681604 
L 609.006828 266.253495 
L 609.844142 254.762762 
L 610.681456 255.842968 
L 611.51877 252.611175 
L 612.356084 240.111749 
L 613.193398 272.841444 
L 614.030712 242.878344 
L 614.868026 230.393649 
L 615.70534 255.674051 
L 616.542653 251.54342 
L 617.379967 235.633641 
L 618.217281 225.992057 
L 619.054595 241.329576 
L 619.891909 233.10007 
L 620.729223 234.039847 
L 621.566537 250.822672 
L 622.403851 244.300872 
L 623.241165 256.80234 
L 624.078479 249.358217 
L 624.915793 251.764131 
L 626.590421 267.087211 
L 627.427735 253.993416 
L 628.265049 257.465875 
L 629.102363 261.976502 
L 629.939677 278.479805 
L 630.776991 244.105523 
L 631.614305 216.677328 
L 632.451619 236.313324 
L 633.288933 233.692786 
L 634.126247 289.014737 
L 634.963561 270.44712 
L 635.800875 230.814419 
L 636.638189 277.776969 
L 637.475503 248.808066 
L 638.312817 251.78046 
L 639.150131 246.372732 
L 639.987445 245.545658 
L 640.824759 262.479917 
L 641.662073 270.852478 
L 642.499387 257.308465 
L 643.336701 247.993833 
L 644.174015 235.803197 
L 645.011329 303.911724 
L 645.848643 241.540072 
L 646.685957 242.185972 
L 647.523271 296.263261 
L 648.360585 290.734075 
L 649.197899 280.604265 
L 650.035213 237.67383 
L 650.872527 233.519881 
L 651.709841 235.727195 
L 652.547155 251.343375 
L 653.384469 252.863264 
L 654.221783 253.012003 
L 655.059097 237.547105 
L 655.896411 257.296875 
L 656.733725 244.431739 
L 657.571039 215.04308 
L 658.408353 314.315734 
L 659.245667 281.005024 
L 660.082981 218.252791 
L 660.920295 243.488473 
L 661.757609 220.468513 
L 662.594923 256.600349 
L 663.432237 262.091527 
L 664.269551 287.184668 
L 665.106865 273.671673 
L 665.944179 219.548663 
L 666.781493 228.748395 
L 667.618807 195.155258 
L 668.456121 306.807115 
L 669.293435 288.887205 
L 670.130749 260.870837 
L 670.968063 271.486108 
L 671.805377 278.597928 
L 672.642691 260.462227 
L 673.480005 248.611842 
L 674.317319 284.902297 
L 675.154633 276.730352 
L 675.991947 243.863786 
L 676.829261 230.952735 
L 677.666575 247.215023 
L 678.503889 214.202124 
L 679.341203 203.119014 
L 680.178517 198.382896 
L 681.015831 224.444665 
L 681.853145 219.561712 
L 682.690459 234.257806 
L 683.527773 203.696875 
L 684.365087 276.370728 
L 685.202401 224.963144 
L 686.039715 241.31939 
L 686.877029 247.271778 
L 687.714343 280.248435 
L 688.551657 247.642283 
L 689.388971 202.203209 
L 690.226285 198.505884 
L 691.063599 213.773988 
L 691.900913 280.755616 
L 692.738227 309.874174 
L 693.575541 293.464968 
L 694.412855 270.180814 
L 695.250169 278.188998 
L 696.087483 239.842024 
L 696.924797 225.18826 
L 697.762111 259.638405 
L 698.599425 280.400995 
L 699.436739 251.749275 
L 700.274053 276.842903 
L 701.111367 258.732827 
L 701.948681 254.792932 
L 702.785995 223.662117 
L 703.623309 212.053024 
L 704.460623 226.313506 
L 705.297937 226.751328 
L 706.135251 217.307858 
L 706.972565 205.595525 
L 707.809879 227.199225 
L 708.647193 228.304765 
L 709.484507 247.800972 
L 710.321821 306.066966 
L 711.159135 247.149513 
L 711.996449 242.671711 
L 712.833763 274.722417 
L 713.671077 237.236412 
L 714.508391 230.019572 
L 715.345705 217.99663 
L 716.183019 184.771052 
L 717.020333 288.691592 
L 717.857647 231.619508 
L 718.694961 234.622294 
L 719.532275 207.783786 
L 720.369589 275.103539 
L 721.206903 229.273865 
L 722.044217 209.174754 
L 722.881531 195.347925 
L 723.718845 206.905391 
L 724.556159 228.043684 
L 725.393473 205.400524 
L 726.230787 217.152435 
L 727.068101 226.476711 
L 727.905415 268.388003 
L 728.742729 268.687536 
L 729.580043 238.033802 
L 730.417357 292.89054 
L 731.254671 241.91936 
L 732.091984 216.018948 
L 732.929298 226.802524 
L 733.766612 230.414786 
L 734.603926 210.58301 
L 735.44124 216.798092 
L 736.278554 214.436258 
L 737.115868 173.925079 
L 737.953182 141.905683 
L 738.790496 170.876767 
L 739.62781 250.481864 
L 740.465124 251.574744 
L 741.302438 251.442446 
L 742.139752 259.812769 
L 742.977066 214.641099 
L 743.81438 223.036604 
L 744.651694 188.204253 
L 745.489008 213.384486 
L 746.326322 248.296369 
L 747.163636 179.000004 
L 747.163636 179.000004 
" style="fill:none;stroke:#ff0000;stroke-dasharray:5.55,2.4;stroke-dashoffset:0;stroke-width:1.5;"/>
   </g>
   <g id="patch_3">
    <path d="M 108 460.8 
L 108 69.12 
" style="fill:none;stroke:#000000;stroke-linecap:square;stroke-linejoin:miter;stroke-width:0.8;"/>
   </g>
   <g id="patch_4">
    <path d="M 777.6 460.8 
L 777.6 69.12 
" style="fill:none;stroke:#000000;stroke-linecap:square;stroke-linejoin:miter;stroke-width:0.8;"/>
   </g>
   <g id="patch_5">
    <path d="M 108 460.8 
L 777.6 460.8 
" style="fill:none;stroke:#000000;stroke-linecap:square;stroke-linejoin:miter;stroke-width:0.8;"/>
   </g>
   <g id="patch_6">
    <path d="M 108 69.12 
L 777.6 69.12 
" style="fill:none;stroke:#000000;stroke-linecap:square;stroke-linejoin:miter;stroke-width:0.8;"/>
   </g>
   <g id="text_19">
    <!-- Macau residential 2020-2021 | Forecast vs Monitored | GRU -->
    <g transform="translate(219.602344 63.12)scale(0.15 -0.15)">
     <defs>
      <path d="M 9.8125 72.90625 
L 24.515625 72.90625 
L 43.109375 23.296875 
L 61.8125 72.90625 
L 76.515625 72.90625 
L 76.515625 0 
L 66.890625 0 
L 66.890625 64.015625 
L 48.09375 14.015625 
L 38.1875 14.015625 
L 19.390625 64.015625 
L 19.390625 0 
L 9.8125 0 
z
" id="DejaVuSans-77"/>
      <path d="M 48.78125 52.59375 
L 48.78125 44.1875 
Q 44.96875 46.296875 41.140625 47.34375 
Q 37.3125 48.390625 33.40625 48.390625 
Q 24.65625 48.390625 19.8125 42.84375 
Q 14.984375 37.3125 14.984375 27.296875 
Q 14.984375 17.28125 19.8125 11.734375 
Q 24.65625 6.203125 33.40625 6.203125 
Q 37.3125 6.203125 41.140625 7.25 
Q 44.96875 8.296875 48.78125 10.40625 
L 48.78125 2.09375 
Q 45.015625 0.34375 40.984375 -0.53125 
Q 36.96875 -1.421875 32.421875 -1.421875 
Q 20.0625 -1.421875 12.78125 6.34375 
Q 5.515625 14.109375 5.515625 27.296875 
Q 5.515625 40.671875 12.859375 48.328125 
Q 20.21875 56 33.015625 56 
Q 37.15625 56 41.109375 55.140625 
Q 45.0625 54.296875 48.78125 52.59375 
z
" id="DejaVuSans-99"/>
      <path d="M 8.5 21.578125 
L 8.5 54.6875 
L 17.484375 54.6875 
L 17.484375 21.921875 
Q 17.484375 14.15625 20.5 10.265625 
Q 23.53125 6.390625 29.59375 6.390625 
Q 36.859375 6.390625 41.078125 11.03125 
Q 45.3125 15.671875 45.3125 23.6875 
L 45.3125 54.6875 
L 54.296875 54.6875 
L 54.296875 0 
L 45.3125 0 
L 45.3125 8.40625 
Q 42.046875 3.421875 37.71875 1 
Q 33.40625 -1.421875 27.6875 -1.421875 
Q 18.265625 -1.421875 13.375 4.4375 
Q 8.5 10.296875 8.5 21.578125 
z
M 31.109375 56 
z
" id="DejaVuSans-117"/>
      <path id="DejaVuSans-32"/>
      <path d="M 41.109375 46.296875 
Q 39.59375 47.171875 37.8125 47.578125 
Q 36.03125 48 33.890625 48 
Q 26.265625 48 22.1875 43.046875 
Q 18.109375 38.09375 18.109375 28.8125 
L 18.109375 0 
L 9.078125 0 
L 9.078125 54.6875 
L 18.109375 54.6875 
L 18.109375 46.1875 
Q 20.953125 51.171875 25.484375 53.578125 
Q 30.03125 56 36.53125 56 
Q 37.453125 56 38.578125 55.875 
Q 39.703125 55.765625 41.0625 55.515625 
z
" id="DejaVuSans-114"/>
      <path d="M 44.28125 53.078125 
L 44.28125 44.578125 
Q 40.484375 46.53125 36.375 47.5 
Q 32.28125 48.484375 27.875 48.484375 
Q 21.1875 48.484375 17.84375 46.4375 
Q 14.5 44.390625 14.5 40.28125 
Q 14.5 37.15625 16.890625 35.375 
Q 19.28125 33.59375 26.515625 31.984375 
L 29.59375 31.296875 
Q 39.15625 29.25 43.1875 25.515625 
Q 47.21875 21.78125 47.21875 15.09375 
Q 47.21875 7.46875 41.1875 3.015625 
Q 35.15625 -1.421875 24.609375 -1.421875 
Q 20.21875 -1.421875 15.453125 -0.5625 
Q 10.6875 0.296875 5.421875 2 
L 5.421875 11.28125 
Q 10.40625 8.6875 15.234375 7.390625 
Q 20.0625 6.109375 24.8125 6.109375 
Q 31.15625 6.109375 34.5625 8.28125 
Q 37.984375 10.453125 37.984375 14.40625 
Q 37.984375 18.0625 35.515625 20.015625 
Q 33.0625 21.96875 24.703125 23.78125 
L 21.578125 24.515625 
Q 13.234375 26.265625 9.515625 29.90625 
Q 5.8125 33.546875 5.8125 39.890625 
Q 5.8125 47.609375 11.28125 51.796875 
Q 16.75 56 26.8125 56 
Q 31.78125 56 36.171875 55.265625 
Q 40.578125 54.546875 44.28125 53.078125 
z
" id="DejaVuSans-115"/>
      <path d="M 9.421875 54.6875 
L 18.40625 54.6875 
L 18.40625 0 
L 9.421875 0 
z
M 9.421875 75.984375 
L 18.40625 75.984375 
L 18.40625 64.59375 
L 9.421875 64.59375 
z
" id="DejaVuSans-105"/>
      <path d="M 45.40625 46.390625 
L 45.40625 75.984375 
L 54.390625 75.984375 
L 54.390625 0 
L 45.40625 0 
L 45.40625 8.203125 
Q 42.578125 3.328125 38.25 0.953125 
Q 33.9375 -1.421875 27.875 -1.421875 
Q 17.96875 -1.421875 11.734375 6.484375 
Q 5.515625 14.40625 5.515625 27.296875 
Q 5.515625 40.1875 11.734375 48.09375 
Q 17.96875 56 27.875 56 
Q 33.9375 56 38.25 53.625 
Q 42.578125 51.265625 45.40625 46.390625 
z
M 14.796875 27.296875 
Q 14.796875 17.390625 18.875 11.75 
Q 22.953125 6.109375 30.078125 6.109375 
Q 37.203125 6.109375 41.296875 11.75 
Q 45.40625 17.390625 45.40625 27.296875 
Q 45.40625 37.203125 41.296875 42.84375 
Q 37.203125 48.484375 30.078125 48.484375 
Q 22.953125 48.484375 18.875 42.84375 
Q 14.796875 37.203125 14.796875 27.296875 
z
" id="DejaVuSans-100"/>
      <path d="M 54.890625 33.015625 
L 54.890625 0 
L 45.90625 0 
L 45.90625 32.71875 
Q 45.90625 40.484375 42.875 44.328125 
Q 39.84375 48.1875 33.796875 48.1875 
Q 26.515625 48.1875 22.3125 43.546875 
Q 18.109375 38.921875 18.109375 30.90625 
L 18.109375 0 
L 9.078125 0 
L 9.078125 54.6875 
L 18.109375 54.6875 
L 18.109375 46.1875 
Q 21.34375 51.125 25.703125 53.5625 
Q 30.078125 56 35.796875 56 
Q 45.21875 56 50.046875 50.171875 
Q 54.890625 44.34375 54.890625 33.015625 
z
" id="DejaVuSans-110"/>
      <path d="M 9.421875 75.984375 
L 18.40625 75.984375 
L 18.40625 0 
L 9.421875 0 
z
" id="DejaVuSans-108"/>
      <path d="M 21 76.421875 
L 21 -23.578125 
L 12.703125 -23.578125 
L 12.703125 76.421875 
z
" id="DejaVuSans-124"/>
      <path d="M 9.8125 72.90625 
L 51.703125 72.90625 
L 51.703125 64.59375 
L 19.671875 64.59375 
L 19.671875 43.109375 
L 48.578125 43.109375 
L 48.578125 34.8125 
L 19.671875 34.8125 
L 19.671875 0 
L 9.8125 0 
z
" id="DejaVuSans-70"/>
      <path d="M 30.609375 48.390625 
Q 23.390625 48.390625 19.1875 42.75 
Q 14.984375 37.109375 14.984375 27.296875 
Q 14.984375 17.484375 19.15625 11.84375 
Q 23.34375 6.203125 30.609375 6.203125 
Q 37.796875 6.203125 41.984375 11.859375 
Q 46.1875 17.53125 46.1875 27.296875 
Q 46.1875 37.015625 41.984375 42.703125 
Q 37.796875 48.390625 30.609375 48.390625 
z
M 30.609375 56 
Q 42.328125 56 49.015625 48.375 
Q 55.71875 40.765625 55.71875 27.296875 
Q 55.71875 13.875 49.015625 6.21875 
Q 42.328125 -1.421875 30.609375 -1.421875 
Q 18.84375 -1.421875 12.171875 6.21875 
Q 5.515625 13.875 5.515625 27.296875 
Q 5.515625 40.765625 12.171875 48.375 
Q 18.84375 56 30.609375 56 
z
" id="DejaVuSans-111"/>
      <path d="M 2.984375 54.6875 
L 12.5 54.6875 
L 29.59375 8.796875 
L 46.6875 54.6875 
L 56.203125 54.6875 
L 35.6875 0 
L 23.484375 0 
z
" id="DejaVuSans-118"/>
      <path d="M 59.515625 10.40625 
L 59.515625 29.984375 
L 43.40625 29.984375 
L 43.40625 38.09375 
L 69.28125 38.09375 
L 69.28125 6.78125 
Q 63.578125 2.734375 56.6875 0.65625 
Q 49.8125 -1.421875 42 -1.421875 
Q 24.90625 -1.421875 15.25 8.5625 
Q 5.609375 18.5625 5.609375 36.375 
Q 5.609375 54.25 15.25 64.234375 
Q 24.90625 74.21875 42 74.21875 
Q 49.125 74.21875 55.546875 72.453125 
Q 61.96875 70.703125 67.390625 67.28125 
L 67.390625 56.78125 
Q 61.921875 61.421875 55.765625 63.765625 
Q 49.609375 66.109375 42.828125 66.109375 
Q 29.4375 66.109375 22.71875 58.640625 
Q 16.015625 51.171875 16.015625 36.375 
Q 16.015625 21.625 22.71875 14.15625 
Q 29.4375 6.6875 42.828125 6.6875 
Q 48.046875 6.6875 52.140625 7.59375 
Q 56.25 8.5 59.515625 10.40625 
z
" id="DejaVuSans-71"/>
      <path d="M 44.390625 34.1875 
Q 47.5625 33.109375 50.5625 29.59375 
Q 53.5625 26.078125 56.59375 19.921875 
L 66.609375 0 
L 56 0 
L 46.6875 18.703125 
Q 43.0625 26.03125 39.671875 28.421875 
Q 36.28125 30.8125 30.421875 30.8125 
L 19.671875 30.8125 
L 19.671875 0 
L 9.8125 0 
L 9.8125 72.90625 
L 32.078125 72.90625 
Q 44.578125 72.90625 50.734375 67.671875 
Q 56.890625 62.453125 56.890625 51.90625 
Q 56.890625 45.015625 53.6875 40.46875 
Q 50.484375 35.9375 44.390625 34.1875 
z
M 19.671875 64.796875 
L 19.671875 38.921875 
L 32.078125 38.921875 
Q 39.203125 38.921875 42.84375 42.21875 
Q 46.484375 45.515625 46.484375 51.90625 
Q 46.484375 58.296875 42.84375 61.546875 
Q 39.203125 64.796875 32.078125 64.796875 
z
" id="DejaVuSans-82"/>
      <path d="M 8.6875 72.90625 
L 18.609375 72.90625 
L 18.609375 28.609375 
Q 18.609375 16.890625 22.84375 11.734375 
Q 27.09375 6.59375 36.625 6.59375 
Q 46.09375 6.59375 50.34375 11.734375 
Q 54.59375 16.890625 54.59375 28.609375 
L 54.59375 72.90625 
L 64.5 72.90625 
L 64.5 27.390625 
Q 64.5 13.140625 57.4375 5.859375 
Q 50.390625 -1.421875 36.625 -1.421875 
Q 22.796875 -1.421875 15.734375 5.859375 
Q 8.6875 13.140625 8.6875 27.390625 
z
" id="DejaVuSans-85"/>
     </defs>
     <use xlink:href="#DejaVuSans-77"/>
     <use x="86.279297" xlink:href="#DejaVuSans-97"/>
     <use x="147.558594" xlink:href="#DejaVuSans-99"/>
     <use x="202.539062" xlink:href="#DejaVuSans-97"/>
     <use x="263.818359" xlink:href="#DejaVuSans-117"/>
     <use x="327.197266" xlink:href="#DejaVuSans-32"/>
     <use x="358.984375" xlink:href="#DejaVuSans-114"/>
     <use x="397.847656" xlink:href="#DejaVuSans-101"/>
     <use x="459.371094" xlink:href="#DejaVuSans-115"/>
     <use x="511.470703" xlink:href="#DejaVuSans-105"/>
     <use x="539.253906" xlink:href="#DejaVuSans-100"/>
     <use x="602.730469" xlink:href="#DejaVuSans-101"/>
     <use x="664.253906" xlink:href="#DejaVuSans-110"/>
     <use x="727.632812" xlink:href="#DejaVuSans-116"/>
     <use x="766.841797" xlink:href="#DejaVuSans-105"/>
     <use x="794.625" xlink:href="#DejaVuSans-97"/>
     <use x="855.904297" xlink:href="#DejaVuSans-108"/>
     <use x="883.6875" xlink:href="#DejaVuSans-32"/>
     <use x="915.474609" xlink:href="#DejaVuSans-50"/>
     <use x="979.097656" xlink:href="#DejaVuSans-48"/>
     <use x="1042.720703" xlink:href="#DejaVuSans-50"/>
     <use x="1106.34375" xlink:href="#DejaVuSans-48"/>
     <use x="1169.966797" xlink:href="#DejaVuSans-45"/>
     <use x="1206.050781" xlink:href="#DejaVuSans-50"/>
     <use x="1269.673828" xlink:href="#DejaVuSans-48"/>
     <use x="1333.296875" xlink:href="#DejaVuSans-50"/>
     <use x="1396.919922" xlink:href="#DejaVuSans-49"/>
     <use x="1460.542969" xlink:href="#DejaVuSans-32"/>
     <use x="1492.330078" xlink:href="#DejaVuSans-124"/>
     <use x="1526.021484" xlink:href="#DejaVuSans-32"/>
     <use x="1557.808594" xlink:href="#DejaVuSans-70"/>
     <use x="1611.703125" xlink:href="#DejaVuSans-111"/>
     <use x="1672.884766" xlink:href="#DejaVuSans-114"/>
     <use x="1711.748047" xlink:href="#DejaVuSans-101"/>
     <use x="1773.271484" xlink:href="#DejaVuSans-99"/>
     <use x="1828.251953" xlink:href="#DejaVuSans-97"/>
     <use x="1889.53125" xlink:href="#DejaVuSans-115"/>
     <use x="1941.630859" xlink:href="#DejaVuSans-116"/>
     <use x="1980.839844" xlink:href="#DejaVuSans-32"/>
     <use x="2012.626953" xlink:href="#DejaVuSans-118"/>
     <use x="2071.806641" xlink:href="#DejaVuSans-115"/>
     <use x="2123.90625" xlink:href="#DejaVuSans-32"/>
     <use x="2155.693359" xlink:href="#DejaVuSans-77"/>
     <use x="2241.972656" xlink:href="#DejaVuSans-111"/>
     <use x="2303.154297" xlink:href="#DejaVuSans-110"/>
     <use x="2366.533203" xlink:href="#DejaVuSans-105"/>
     <use x="2394.316406" xlink:href="#DejaVuSans-116"/>
     <use x="2433.525391" xlink:href="#DejaVuSans-111"/>
     <use x="2494.707031" xlink:href="#DejaVuSans-114"/>
     <use x="2533.570312" xlink:href="#DejaVuSans-101"/>
     <use x="2595.09375" xlink:href="#DejaVuSans-100"/>
     <use x="2658.570312" xlink:href="#DejaVuSans-32"/>
     <use x="2690.357422" xlink:href="#DejaVuSans-124"/>
     <use x="2724.048828" xlink:href="#DejaVuSans-32"/>
     <use x="2755.835938" xlink:href="#DejaVuSans-71"/>
     <use x="2833.326172" xlink:href="#DejaVuSans-82"/>
     <use x="2902.808594" xlink:href="#DejaVuSans-85"/>
    </g>
   </g>
   <g id="legend_1">
    <g id="patch_7">
     <path d="M 607.123125 114.615 
L 769.2 114.615 
Q 771.6 114.615 771.6 112.215 
L 771.6 77.52 
Q 771.6 75.12 769.2 75.12 
L 607.123125 75.12 
Q 604.723125 75.12 604.723125 77.52 
L 604.723125 112.215 
Q 604.723125 114.615 607.123125 114.615 
z
" style="fill:#ffffff;opacity:0.8;stroke:#cccccc;stroke-linejoin:miter;"/>
    </g>
    <g id="line2d_19">
     <path d="M 609.523125 84.838125 
L 633.523125 84.838125 
" style="fill:none;stroke:#1f77b4;stroke-linecap:square;stroke-width:1.5;"/>
    </g>
    <g id="line2d_20"/>
    <g id="text_20">
     <!-- measured_data_SO2 -->
     <g transform="translate(643.123125 89.038125)scale(0.12 -0.12)">
      <defs>
       <path d="M 50.984375 -16.609375 
L 50.984375 -23.578125 
L -0.984375 -23.578125 
L -0.984375 -16.609375 
z
" id="DejaVuSans-95"/>
      </defs>
      <use xlink:href="#DejaVuSans-109"/>
      <use x="97.412109" xlink:href="#DejaVuSans-101"/>
      <use x="158.935547" xlink:href="#DejaVuSans-97"/>
      <use x="220.214844" xlink:href="#DejaVuSans-115"/>
      <use x="272.314453" xlink:href="#DejaVuSans-117"/>
      <use x="335.693359" xlink:href="#DejaVuSans-114"/>
      <use x="374.556641" xlink:href="#DejaVuSans-101"/>
      <use x="436.080078" xlink:href="#DejaVuSans-100"/>
      <use x="499.556641" xlink:href="#DejaVuSans-95"/>
      <use x="549.556641" xlink:href="#DejaVuSans-100"/>
      <use x="613.033203" xlink:href="#DejaVuSans-97"/>
      <use x="674.3125" xlink:href="#DejaVuSans-116"/>
      <use x="713.521484" xlink:href="#DejaVuSans-97"/>
      <use x="774.800781" xlink:href="#DejaVuSans-95"/>
      <use x="824.800781" xlink:href="#DejaVuSans-83"/>
      <use x="888.277344" xlink:href="#DejaVuSans-79"/>
      <use x="966.988281" xlink:href="#DejaVuSans-50"/>
     </g>
    </g>
    <g id="line2d_21">
     <path d="M 609.523125 102.785625 
L 633.523125 102.785625 
" style="fill:none;stroke:#ff0000;stroke-dasharray:5.55,2.4;stroke-dashoffset:0;stroke-width:1.5;"/>
    </g>
    <g id="line2d_22"/>
    <g id="text_21">
     <!-- predicted_data_SO2 -->
     <g transform="translate(643.123125 106.985625)scale(0.12 -0.12)">
      <use xlink:href="#DejaVuSans-112"/>
      <use x="63.476562" xlink:href="#DejaVuSans-114"/>
      <use x="102.339844" xlink:href="#DejaVuSans-101"/>
      <use x="163.863281" xlink:href="#DejaVuSans-100"/>
      <use x="227.339844" xlink:href="#DejaVuSans-105"/>
      <use x="255.123047" xlink:href="#DejaVuSans-99"/>
      <use x="310.103516" xlink:href="#DejaVuSans-116"/>
      <use x="349.3125" xlink:href="#DejaVuSans-101"/>
      <use x="410.835938" xlink:href="#DejaVuSans-100"/>
      <use x="474.3125" xlink:href="#DejaVuSans-95"/>
      <use x="524.3125" xlink:href="#DejaVuSans-100"/>
      <use x="587.789062" xlink:href="#DejaVuSans-97"/>
      <use x="649.068359" xlink:href="#DejaVuSans-116"/>
      <use x="688.277344" xlink:href="#DejaVuSans-97"/>
      <use x="749.556641" xlink:href="#DejaVuSans-95"/>
      <use x="799.556641" xlink:href="#DejaVuSans-83"/>
      <use x="863.033203" xlink:href="#DejaVuSans-79"/>
      <use x="941.744141" xlink:href="#DejaVuSans-50"/>
     </g>
    </g>
   </g>
  </g>
 </g>
 <defs>
  <clipPath id="pcc7f6c4715">
   <rect height="391.68" width="669.6" x="108" y="69.12"/>
  </clipPath>
 </defs>
</svg>
