<?xml version="1.0" encoding="utf-8" standalone="no"?>
<!DOCTYPE svg PUBLIC "-//W3C//DTD SVG 1.1//EN"
  "http://www.w3.org/Graphics/SVG/1.1/DTD/svg11.dtd">
<!-- Created with matplotlib (https://matplotlib.org/) -->
<svg height="576pt" version="1.1" viewBox="0 0 864 576" width="864pt" xmlns="http://www.w3.org/2000/svg" xmlns:xlink="http://www.w3.org/1999/xlink">
 <metadata>
  <rdf:RDF xmlns:cc="http://creativecommons.org/ns#" xmlns:dc="http://purl.org/dc/elements/1.1/" xmlns:rdf="http://www.w3.org/1999/02/22-rdf-syntax-ns#">
   <cc:Work>
    <dc:type rdf:resource="http://purl.org/dc/dcmitype/StillImage"/>
    <dc:date>2024-03-08T21:08:49.239726</dc:date>
    <dc:format>image/svg+xml</dc:format>
    <dc:creator>
     <cc:Agent>
      <dc:title>Matplotlib v3.3.4, https://matplotlib.org/</dc:title>
     </cc:Agent>
    </dc:creator>
   </cc:Work>
  </rdf:RDF>
 </metadata>
 <defs>
  <style type="text/css">*{stroke-linecap:butt;stroke-linejoin:round;}</style>
 </defs>
 <g id="figure_1">
  <g id="patch_1">
   <path d="M 0 576 
L 864 576 
L 864 0 
L 0 0 
z
" style="fill:#ffffff;"/>
  </g>
  <g id="axes_1">
   <g id="patch_2">
    <path d="M 108 460.8 
L 777.6 460.8 
L 777.6 69.12 
L 108 69.12 
z
" style="fill:#ffffff;"/>
   </g>
   <g id="matplotlib.axis_1">
    <g id="xtick_1">
     <g id="line2d_1">
      <defs>
       <path d="M 0 0 
L 0 3.5 
" id="m8a17e5d40b" style="stroke:#000000;stroke-width:0.8;"/>
      </defs>
      <g>
       <use style="stroke:#000000;stroke-width:0.8;" x="136.761736" xlink:href="#m8a17e5d40b" y="460.8"/>
      </g>
     </g>
     <g id="text_1">
      <!-- 2020-01 -->
      <g transform="translate(92.091951 500.766215)rotate(-30)scale(0.12 -0.12)">
       <defs>
        <path d="M 19.1875 8.296875 
L 53.609375 8.296875 
L 53.609375 0 
L 7.328125 0 
L 7.328125 8.296875 
Q 12.9375 14.109375 22.625 23.890625 
Q 32.328125 33.6875 34.8125 36.53125 
Q 39.546875 41.84375 41.421875 45.53125 
Q 43.3125 49.21875 43.3125 52.78125 
Q 43.3125 58.59375 39.234375 62.25 
Q 35.15625 65.921875 28.609375 65.921875 
Q 23.96875 65.921875 18.8125 64.3125 
Q 13.671875 62.703125 7.8125 59.421875 
L 7.8125 69.390625 
Q 13.765625 71.78125 18.9375 73 
Q 24.125 74.21875 28.421875 74.21875 
Q 39.75 74.21875 46.484375 68.546875 
Q 53.21875 62.890625 53.21875 53.421875 
Q 53.21875 48.921875 51.53125 44.890625 
Q 49.859375 40.875 45.40625 35.40625 
Q 44.1875 33.984375 37.640625 27.21875 
Q 31.109375 20.453125 19.1875 8.296875 
z
" id="DejaVuSans-50"/>
        <path d="M 31.78125 66.40625 
Q 24.171875 66.40625 20.328125 58.90625 
Q 16.5 51.421875 16.5 36.375 
Q 16.5 21.390625 20.328125 13.890625 
Q 24.171875 6.390625 31.78125 6.390625 
Q 39.453125 6.390625 43.28125 13.890625 
Q 47.125 21.390625 47.125 36.375 
Q 47.125 51.421875 43.28125 58.90625 
Q 39.453125 66.40625 31.78125 66.40625 
z
M 31.78125 74.21875 
Q 44.046875 74.21875 50.515625 64.515625 
Q 56.984375 54.828125 56.984375 36.375 
Q 56.984375 17.96875 50.515625 8.265625 
Q 44.046875 -1.421875 31.78125 -1.421875 
Q 19.53125 -1.421875 13.0625 8.265625 
Q 6.59375 17.96875 6.59375 36.375 
Q 6.59375 54.828125 13.0625 64.515625 
Q 19.53125 74.21875 31.78125 74.21875 
z
" id="DejaVuSans-48"/>
        <path d="M 4.890625 31.390625 
L 31.203125 31.390625 
L 31.203125 23.390625 
L 4.890625 23.390625 
z
" id="DejaVuSans-45"/>
        <path d="M 12.40625 8.296875 
L 28.515625 8.296875 
L 28.515625 63.921875 
L 10.984375 60.40625 
L 10.984375 69.390625 
L 28.421875 72.90625 
L 38.28125 72.90625 
L 38.28125 8.296875 
L 54.390625 8.296875 
L 54.390625 0 
L 12.40625 0 
z
" id="DejaVuSans-49"/>
       </defs>
       <use xlink:href="#DejaVuSans-50"/>
       <use x="63.623047" xlink:href="#DejaVuSans-48"/>
       <use x="127.246094" xlink:href="#DejaVuSans-50"/>
       <use x="190.869141" xlink:href="#DejaVuSans-48"/>
       <use x="254.492188" xlink:href="#DejaVuSans-45"/>
       <use x="290.576172" xlink:href="#DejaVuSans-48"/>
       <use x="354.199219" xlink:href="#DejaVuSans-49"/>
      </g>
     </g>
    </g>
    <g id="xtick_2">
     <g id="line2d_2">
      <g>
       <use style="stroke:#000000;stroke-width:0.8;" x="212.957309" xlink:href="#m8a17e5d40b" y="460.8"/>
      </g>
     </g>
     <g id="text_2">
      <!-- 2020-04 -->
      <g transform="translate(168.287524 500.766215)rotate(-30)scale(0.12 -0.12)">
       <defs>
        <path d="M 37.796875 64.3125 
L 12.890625 25.390625 
L 37.796875 25.390625 
z
M 35.203125 72.90625 
L 47.609375 72.90625 
L 47.609375 25.390625 
L 58.015625 25.390625 
L 58.015625 17.1875 
L 47.609375 17.1875 
L 47.609375 0 
L 37.796875 0 
L 37.796875 17.1875 
L 4.890625 17.1875 
L 4.890625 26.703125 
z
" id="DejaVuSans-52"/>
       </defs>
       <use xlink:href="#DejaVuSans-50"/>
       <use x="63.623047" xlink:href="#DejaVuSans-48"/>
       <use x="127.246094" xlink:href="#DejaVuSans-50"/>
       <use x="190.869141" xlink:href="#DejaVuSans-48"/>
       <use x="254.492188" xlink:href="#DejaVuSans-45"/>
       <use x="290.576172" xlink:href="#DejaVuSans-48"/>
       <use x="354.199219" xlink:href="#DejaVuSans-52"/>
      </g>
     </g>
    </g>
    <g id="xtick_3">
     <g id="line2d_3">
      <g>
       <use style="stroke:#000000;stroke-width:0.8;" x="289.152882" xlink:href="#m8a17e5d40b" y="460.8"/>
      </g>
     </g>
     <g id="text_3">
      <!-- 2020-07 -->
      <g transform="translate(244.483097 500.766215)rotate(-30)scale(0.12 -0.12)">
       <defs>
        <path d="M 8.203125 72.90625 
L 55.078125 72.90625 
L 55.078125 68.703125 
L 28.609375 0 
L 18.3125 0 
L 43.21875 64.59375 
L 8.203125 64.59375 
z
" id="DejaVuSans-55"/>
       </defs>
       <use xlink:href="#DejaVuSans-50"/>
       <use x="63.623047" xlink:href="#DejaVuSans-48"/>
       <use x="127.246094" xlink:href="#DejaVuSans-50"/>
       <use x="190.869141" xlink:href="#DejaVuSans-48"/>
       <use x="254.492188" xlink:href="#DejaVuSans-45"/>
       <use x="290.576172" xlink:href="#DejaVuSans-48"/>
       <use x="354.199219" xlink:href="#DejaVuSans-55"/>
      </g>
     </g>
    </g>
    <g id="xtick_4">
     <g id="line2d_4">
      <g>
       <use style="stroke:#000000;stroke-width:0.8;" x="366.18577" xlink:href="#m8a17e5d40b" y="460.8"/>
      </g>
     </g>
     <g id="text_4">
      <!-- 2020-10 -->
      <g transform="translate(321.515985 500.766215)rotate(-30)scale(0.12 -0.12)">
       <use xlink:href="#DejaVuSans-50"/>
       <use x="63.623047" xlink:href="#DejaVuSans-48"/>
       <use x="127.246094" xlink:href="#DejaVuSans-50"/>
       <use x="190.869141" xlink:href="#DejaVuSans-48"/>
       <use x="254.492188" xlink:href="#DejaVuSans-45"/>
       <use x="290.576172" xlink:href="#DejaVuSans-49"/>
       <use x="354.199219" xlink:href="#DejaVuSans-48"/>
      </g>
     </g>
    </g>
    <g id="xtick_5">
     <g id="line2d_5">
      <g>
       <use style="stroke:#000000;stroke-width:0.8;" x="443.218657" xlink:href="#m8a17e5d40b" y="460.8"/>
      </g>
     </g>
     <g id="text_5">
      <!-- 2021-01 -->
      <g transform="translate(398.548872 500.766215)rotate(-30)scale(0.12 -0.12)">
       <use xlink:href="#DejaVuSans-50"/>
       <use x="63.623047" xlink:href="#DejaVuSans-48"/>
       <use x="127.246094" xlink:href="#DejaVuSans-50"/>
       <use x="190.869141" xlink:href="#DejaVuSans-49"/>
       <use x="254.492188" xlink:href="#DejaVuSans-45"/>
       <use x="290.576172" xlink:href="#DejaVuSans-48"/>
       <use x="354.199219" xlink:href="#DejaVuSans-49"/>
      </g>
     </g>
    </g>
    <g id="xtick_6">
     <g id="line2d_6">
      <g>
       <use style="stroke:#000000;stroke-width:0.8;" x="518.576916" xlink:href="#m8a17e5d40b" y="460.8"/>
      </g>
     </g>
     <g id="text_6">
      <!-- 2021-04 -->
      <g transform="translate(473.907131 500.766215)rotate(-30)scale(0.12 -0.12)">
       <use xlink:href="#DejaVuSans-50"/>
       <use x="63.623047" xlink:href="#DejaVuSans-48"/>
       <use x="127.246094" xlink:href="#DejaVuSans-50"/>
       <use x="190.869141" xlink:href="#DejaVuSans-49"/>
       <use x="254.492188" xlink:href="#DejaVuSans-45"/>
       <use x="290.576172" xlink:href="#DejaVuSans-48"/>
       <use x="354.199219" xlink:href="#DejaVuSans-52"/>
      </g>
     </g>
    </g>
    <g id="xtick_7">
     <g id="line2d_7">
      <g>
       <use style="stroke:#000000;stroke-width:0.8;" x="594.77249" xlink:href="#m8a17e5d40b" y="460.8"/>
      </g>
     </g>
     <g id="text_7">
      <!-- 2021-07 -->
      <g transform="translate(550.102705 500.766215)rotate(-30)scale(0.12 -0.12)">
       <use xlink:href="#DejaVuSans-50"/>
       <use x="63.623047" xlink:href="#DejaVuSans-48"/>
       <use x="127.246094" xlink:href="#DejaVuSans-50"/>
       <use x="190.869141" xlink:href="#DejaVuSans-49"/>
       <use x="254.492188" xlink:href="#DejaVuSans-45"/>
       <use x="290.576172" xlink:href="#DejaVuSans-48"/>
       <use x="354.199219" xlink:href="#DejaVuSans-55"/>
      </g>
     </g>
    </g>
    <g id="xtick_8">
     <g id="line2d_8">
      <g>
       <use style="stroke:#000000;stroke-width:0.8;" x="671.805377" xlink:href="#m8a17e5d40b" y="460.8"/>
      </g>
     </g>
     <g id="text_8">
      <!-- 2021-10 -->
      <g transform="translate(627.135592 500.766215)rotate(-30)scale(0.12 -0.12)">
       <use xlink:href="#DejaVuSans-50"/>
       <use x="63.623047" xlink:href="#DejaVuSans-48"/>
       <use x="127.246094" xlink:href="#DejaVuSans-50"/>
       <use x="190.869141" xlink:href="#DejaVuSans-49"/>
       <use x="254.492188" xlink:href="#DejaVuSans-45"/>
       <use x="290.576172" xlink:href="#DejaVuSans-49"/>
       <use x="354.199219" xlink:href="#DejaVuSans-48"/>
      </g>
     </g>
    </g>
    <g id="xtick_9">
     <g id="line2d_9">
      <g>
       <use style="stroke:#000000;stroke-width:0.8;" x="748.838264" xlink:href="#m8a17e5d40b" y="460.8"/>
      </g>
     </g>
     <g id="text_9">
      <!-- 2022-01 -->
      <g transform="translate(704.168479 500.766215)rotate(-30)scale(0.12 -0.12)">
       <use xlink:href="#DejaVuSans-50"/>
       <use x="63.623047" xlink:href="#DejaVuSans-48"/>
       <use x="127.246094" xlink:href="#DejaVuSans-50"/>
       <use x="190.869141" xlink:href="#DejaVuSans-50"/>
       <use x="254.492188" xlink:href="#DejaVuSans-45"/>
       <use x="290.576172" xlink:href="#DejaVuSans-48"/>
       <use x="354.199219" xlink:href="#DejaVuSans-49"/>
      </g>
     </g>
    </g>
    <g id="text_10">
     <!-- Date -->
     <g transform="translate(424.873828 518.325146)scale(0.15 -0.15)">
      <defs>
       <path d="M 19.671875 64.796875 
L 19.671875 8.109375 
L 31.59375 8.109375 
Q 46.6875 8.109375 53.6875 14.9375 
Q 60.6875 21.78125 60.6875 36.53125 
Q 60.6875 51.171875 53.6875 57.984375 
Q 46.6875 64.796875 31.59375 64.796875 
z
M 9.8125 72.90625 
L 30.078125 72.90625 
Q 51.265625 72.90625 61.171875 64.09375 
Q 71.09375 55.28125 71.09375 36.53125 
Q 71.09375 17.671875 61.125 8.828125 
Q 51.171875 0 30.078125 0 
L 9.8125 0 
z
" id="DejaVuSans-68"/>
       <path d="M 34.28125 27.484375 
Q 23.390625 27.484375 19.1875 25 
Q 14.984375 22.515625 14.984375 16.5 
Q 14.984375 11.71875 18.140625 8.90625 
Q 21.296875 6.109375 26.703125 6.109375 
Q 34.1875 6.109375 38.703125 11.40625 
Q 43.21875 16.703125 43.21875 25.484375 
L 43.21875 27.484375 
z
M 52.203125 31.203125 
L 52.203125 0 
L 43.21875 0 
L 43.21875 8.296875 
Q 40.140625 3.328125 35.546875 0.953125 
Q 30.953125 -1.421875 24.3125 -1.421875 
Q 15.921875 -1.421875 10.953125 3.296875 
Q 6 8.015625 6 15.921875 
Q 6 25.140625 12.171875 29.828125 
Q 18.359375 34.515625 30.609375 34.515625 
L 43.21875 34.515625 
L 43.21875 35.40625 
Q 43.21875 41.609375 39.140625 45 
Q 35.0625 48.390625 27.6875 48.390625 
Q 23 48.390625 18.546875 47.265625 
Q 14.109375 46.140625 10.015625 43.890625 
L 10.015625 52.203125 
Q 14.9375 54.109375 19.578125 55.046875 
Q 24.21875 56 28.609375 56 
Q 40.484375 56 46.34375 49.84375 
Q 52.203125 43.703125 52.203125 31.203125 
z
" id="DejaVuSans-97"/>
       <path d="M 18.3125 70.21875 
L 18.3125 54.6875 
L 36.8125 54.6875 
L 36.8125 47.703125 
L 18.3125 47.703125 
L 18.3125 18.015625 
Q 18.3125 11.328125 20.140625 9.421875 
Q 21.96875 7.515625 27.59375 7.515625 
L 36.8125 7.515625 
L 36.8125 0 
L 27.59375 0 
Q 17.1875 0 13.234375 3.875 
Q 9.28125 7.765625 9.28125 18.015625 
L 9.28125 47.703125 
L 2.6875 47.703125 
L 2.6875 54.6875 
L 9.28125 54.6875 
L 9.28125 70.21875 
z
" id="DejaVuSans-116"/>
       <path d="M 56.203125 29.59375 
L 56.203125 25.203125 
L 14.890625 25.203125 
Q 15.484375 15.921875 20.484375 11.0625 
Q 25.484375 6.203125 34.421875 6.203125 
Q 39.59375 6.203125 44.453125 7.46875 
Q 49.3125 8.734375 54.109375 11.28125 
L 54.109375 2.78125 
Q 49.265625 0.734375 44.1875 -0.34375 
Q 39.109375 -1.421875 33.890625 -1.421875 
Q 20.796875 -1.421875 13.15625 6.1875 
Q 5.515625 13.8125 5.515625 26.8125 
Q 5.515625 40.234375 12.765625 48.109375 
Q 20.015625 56 32.328125 56 
Q 43.359375 56 49.78125 48.890625 
Q 56.203125 41.796875 56.203125 29.59375 
z
M 47.21875 32.234375 
Q 47.125 39.59375 43.09375 43.984375 
Q 39.0625 48.390625 32.421875 48.390625 
Q 24.90625 48.390625 20.390625 44.140625 
Q 15.875 39.890625 15.1875 32.171875 
z
" id="DejaVuSans-101"/>
      </defs>
      <use xlink:href="#DejaVuSans-68"/>
      <use x="77.001953" xlink:href="#DejaVuSans-97"/>
      <use x="138.28125" xlink:href="#DejaVuSans-116"/>
      <use x="177.490234" xlink:href="#DejaVuSans-101"/>
     </g>
    </g>
   </g>
   <g id="matplotlib.axis_2">
    <g id="ytick_1">
     <g id="line2d_10">
      <defs>
       <path d="M 0 0 
L -3.5 0 
" id="mf44fcceb86" style="stroke:#000000;stroke-width:0.8;"/>
      </defs>
      <g>
       <use style="stroke:#000000;stroke-width:0.8;" x="108" xlink:href="#mf44fcceb86" y="450.797538"/>
      </g>
     </g>
     <g id="text_11">
      <!-- 0 -->
      <g transform="translate(93.365 455.3566)scale(0.12 -0.12)">
       <use xlink:href="#DejaVuSans-48"/>
      </g>
     </g>
    </g>
    <g id="ytick_2">
     <g id="line2d_11">
      <g>
       <use style="stroke:#000000;stroke-width:0.8;" x="108" xlink:href="#mf44fcceb86" y="388.657418"/>
      </g>
     </g>
     <g id="text_12">
      <!-- 2 -->
      <g transform="translate(93.365 393.21648)scale(0.12 -0.12)">
       <use xlink:href="#DejaVuSans-50"/>
      </g>
     </g>
    </g>
    <g id="ytick_3">
     <g id="line2d_12">
      <g>
       <use style="stroke:#000000;stroke-width:0.8;" x="108" xlink:href="#mf44fcceb86" y="326.517298"/>
      </g>
     </g>
     <g id="text_13">
      <!-- 4 -->
      <g transform="translate(93.365 331.07636)scale(0.12 -0.12)">
       <use xlink:href="#DejaVuSans-52"/>
      </g>
     </g>
    </g>
    <g id="ytick_4">
     <g id="line2d_13">
      <g>
       <use style="stroke:#000000;stroke-width:0.8;" x="108" xlink:href="#mf44fcceb86" y="264.377177"/>
      </g>
     </g>
     <g id="text_14">
      <!-- 6 -->
      <g transform="translate(93.365 268.93624)scale(0.12 -0.12)">
       <defs>
        <path d="M 33.015625 40.375 
Q 26.375 40.375 22.484375 35.828125 
Q 18.609375 31.296875 18.609375 23.390625 
Q 18.609375 15.53125 22.484375 10.953125 
Q 26.375 6.390625 33.015625 6.390625 
Q 39.65625 6.390625 43.53125 10.953125 
Q 47.40625 15.53125 47.40625 23.390625 
Q 47.40625 31.296875 43.53125 35.828125 
Q 39.65625 40.375 33.015625 40.375 
z
M 52.59375 71.296875 
L 52.59375 62.3125 
Q 48.875 64.0625 45.09375 64.984375 
Q 41.3125 65.921875 37.59375 65.921875 
Q 27.828125 65.921875 22.671875 59.328125 
Q 17.53125 52.734375 16.796875 39.40625 
Q 19.671875 43.65625 24.015625 45.921875 
Q 28.375 48.1875 33.59375 48.1875 
Q 44.578125 48.1875 50.953125 41.515625 
Q 57.328125 34.859375 57.328125 23.390625 
Q 57.328125 12.15625 50.6875 5.359375 
Q 44.046875 -1.421875 33.015625 -1.421875 
Q 20.359375 -1.421875 13.671875 8.265625 
Q 6.984375 17.96875 6.984375 36.375 
Q 6.984375 53.65625 15.1875 63.9375 
Q 23.390625 74.21875 37.203125 74.21875 
Q 40.921875 74.21875 44.703125 73.484375 
Q 48.484375 72.75 52.59375 71.296875 
z
" id="DejaVuSans-54"/>
       </defs>
       <use xlink:href="#DejaVuSans-54"/>
      </g>
     </g>
    </g>
    <g id="ytick_5">
     <g id="line2d_14">
      <g>
       <use style="stroke:#000000;stroke-width:0.8;" x="108" xlink:href="#mf44fcceb86" y="202.237057"/>
      </g>
     </g>
     <g id="text_15">
      <!-- 8 -->
      <g transform="translate(93.365 206.79612)scale(0.12 -0.12)">
       <defs>
        <path d="M 31.78125 34.625 
Q 24.75 34.625 20.71875 30.859375 
Q 16.703125 27.09375 16.703125 20.515625 
Q 16.703125 13.921875 20.71875 10.15625 
Q 24.75 6.390625 31.78125 6.390625 
Q 38.8125 6.390625 42.859375 10.171875 
Q 46.921875 13.96875 46.921875 20.515625 
Q 46.921875 27.09375 42.890625 30.859375 
Q 38.875 34.625 31.78125 34.625 
z
M 21.921875 38.8125 
Q 15.578125 40.375 12.03125 44.71875 
Q 8.5 49.078125 8.5 55.328125 
Q 8.5 64.0625 14.71875 69.140625 
Q 20.953125 74.21875 31.78125 74.21875 
Q 42.671875 74.21875 48.875 69.140625 
Q 55.078125 64.0625 55.078125 55.328125 
Q 55.078125 49.078125 51.53125 44.71875 
Q 48 40.375 41.703125 38.8125 
Q 48.828125 37.15625 52.796875 32.3125 
Q 56.78125 27.484375 56.78125 20.515625 
Q 56.78125 9.90625 50.3125 4.234375 
Q 43.84375 -1.421875 31.78125 -1.421875 
Q 19.734375 -1.421875 13.25 4.234375 
Q 6.78125 9.90625 6.78125 20.515625 
Q 6.78125 27.484375 10.78125 32.3125 
Q 14.796875 37.15625 21.921875 38.8125 
z
M 18.3125 54.390625 
Q 18.3125 48.734375 21.84375 45.5625 
Q 25.390625 42.390625 31.78125 42.390625 
Q 38.140625 42.390625 41.71875 45.5625 
Q 45.3125 48.734375 45.3125 54.390625 
Q 45.3125 60.0625 41.71875 63.234375 
Q 38.140625 66.40625 31.78125 66.40625 
Q 25.390625 66.40625 21.84375 63.234375 
Q 18.3125 60.0625 18.3125 54.390625 
z
" id="DejaVuSans-56"/>
       </defs>
       <use xlink:href="#DejaVuSans-56"/>
      </g>
     </g>
    </g>
    <g id="ytick_6">
     <g id="line2d_15">
      <g>
       <use style="stroke:#000000;stroke-width:0.8;" x="108" xlink:href="#mf44fcceb86" y="140.096937"/>
      </g>
     </g>
     <g id="text_16">
      <!-- 10 -->
      <g transform="translate(85.73 144.656)scale(0.12 -0.12)">
       <use xlink:href="#DejaVuSans-49"/>
       <use x="63.623047" xlink:href="#DejaVuSans-48"/>
      </g>
     </g>
    </g>
    <g id="ytick_7">
     <g id="line2d_16">
      <g>
       <use style="stroke:#000000;stroke-width:0.8;" x="108" xlink:href="#mf44fcceb86" y="77.956817"/>
      </g>
     </g>
     <g id="text_17">
      <!-- 12 -->
      <g transform="translate(85.73 82.51588)scale(0.12 -0.12)">
       <use xlink:href="#DejaVuSans-49"/>
       <use x="63.623047" xlink:href="#DejaVuSans-50"/>
      </g>
     </g>
    </g>
    <g id="text_18">
     <!-- SO2(ppm) -->
     <g transform="translate(78.610469 303.077578)rotate(-90)scale(0.15 -0.15)">
      <defs>
       <path d="M 53.515625 70.515625 
L 53.515625 60.890625 
Q 47.90625 63.578125 42.921875 64.890625 
Q 37.9375 66.21875 33.296875 66.21875 
Q 25.25 66.21875 20.875 63.09375 
Q 16.5 59.96875 16.5 54.203125 
Q 16.5 49.359375 19.40625 46.890625 
Q 22.3125 44.4375 30.421875 42.921875 
L 36.375 41.703125 
Q 47.40625 39.59375 52.65625 34.296875 
Q 57.90625 29 57.90625 20.125 
Q 57.90625 9.515625 50.796875 4.046875 
Q 43.703125 -1.421875 29.984375 -1.421875 
Q 24.8125 -1.421875 18.96875 -0.25 
Q 13.140625 0.921875 6.890625 3.21875 
L 6.890625 13.375 
Q 12.890625 10.015625 18.65625 8.296875 
Q 24.421875 6.59375 29.984375 6.59375 
Q 38.421875 6.59375 43.015625 9.90625 
Q 47.609375 13.234375 47.609375 19.390625 
Q 47.609375 24.75 44.3125 27.78125 
Q 41.015625 30.8125 33.5 32.328125 
L 27.484375 33.5 
Q 16.453125 35.6875 11.515625 40.375 
Q 6.59375 45.0625 6.59375 53.421875 
Q 6.59375 63.09375 13.40625 68.65625 
Q 20.21875 74.21875 32.171875 74.21875 
Q 37.3125 74.21875 42.625 73.28125 
Q 47.953125 72.359375 53.515625 70.515625 
z
" id="DejaVuSans-83"/>
       <path d="M 39.40625 66.21875 
Q 28.65625 66.21875 22.328125 58.203125 
Q 16.015625 50.203125 16.015625 36.375 
Q 16.015625 22.609375 22.328125 14.59375 
Q 28.65625 6.59375 39.40625 6.59375 
Q 50.140625 6.59375 56.421875 14.59375 
Q 62.703125 22.609375 62.703125 36.375 
Q 62.703125 50.203125 56.421875 58.203125 
Q 50.140625 66.21875 39.40625 66.21875 
z
M 39.40625 74.21875 
Q 54.734375 74.21875 63.90625 63.9375 
Q 73.09375 53.65625 73.09375 36.375 
Q 73.09375 19.140625 63.90625 8.859375 
Q 54.734375 -1.421875 39.40625 -1.421875 
Q 24.03125 -1.421875 14.8125 8.828125 
Q 5.609375 19.09375 5.609375 36.375 
Q 5.609375 53.65625 14.8125 63.9375 
Q 24.03125 74.21875 39.40625 74.21875 
z
" id="DejaVuSans-79"/>
       <path d="M 31 75.875 
Q 24.46875 64.65625 21.28125 53.65625 
Q 18.109375 42.671875 18.109375 31.390625 
Q 18.109375 20.125 21.3125 9.0625 
Q 24.515625 -2 31 -13.1875 
L 23.1875 -13.1875 
Q 15.875 -1.703125 12.234375 9.375 
Q 8.59375 20.453125 8.59375 31.390625 
Q 8.59375 42.28125 12.203125 53.3125 
Q 15.828125 64.359375 23.1875 75.875 
z
" id="DejaVuSans-40"/>
       <path d="M 18.109375 8.203125 
L 18.109375 -20.796875 
L 9.078125 -20.796875 
L 9.078125 54.6875 
L 18.109375 54.6875 
L 18.109375 46.390625 
Q 20.953125 51.265625 25.265625 53.625 
Q 29.59375 56 35.59375 56 
Q 45.5625 56 51.78125 48.09375 
Q 58.015625 40.1875 58.015625 27.296875 
Q 58.015625 14.40625 51.78125 6.484375 
Q 45.5625 -1.421875 35.59375 -1.421875 
Q 29.59375 -1.421875 25.265625 0.953125 
Q 20.953125 3.328125 18.109375 8.203125 
z
M 48.6875 27.296875 
Q 48.6875 37.203125 44.609375 42.84375 
Q 40.53125 48.484375 33.40625 48.484375 
Q 26.265625 48.484375 22.1875 42.84375 
Q 18.109375 37.203125 18.109375 27.296875 
Q 18.109375 17.390625 22.1875 11.75 
Q 26.265625 6.109375 33.40625 6.109375 
Q 40.53125 6.109375 44.609375 11.75 
Q 48.6875 17.390625 48.6875 27.296875 
z
" id="DejaVuSans-112"/>
       <path d="M 52 44.1875 
Q 55.375 50.25 60.0625 53.125 
Q 64.75 56 71.09375 56 
Q 79.640625 56 84.28125 50.015625 
Q 88.921875 44.046875 88.921875 33.015625 
L 88.921875 0 
L 79.890625 0 
L 79.890625 32.71875 
Q 79.890625 40.578125 77.09375 44.375 
Q 74.3125 48.1875 68.609375 48.1875 
Q 61.625 48.1875 57.5625 43.546875 
Q 53.515625 38.921875 53.515625 30.90625 
L 53.515625 0 
L 44.484375 0 
L 44.484375 32.71875 
Q 44.484375 40.625 41.703125 44.40625 
Q 38.921875 48.1875 33.109375 48.1875 
Q 26.21875 48.1875 22.15625 43.53125 
Q 18.109375 38.875 18.109375 30.90625 
L 18.109375 0 
L 9.078125 0 
L 9.078125 54.6875 
L 18.109375 54.6875 
L 18.109375 46.1875 
Q 21.1875 51.21875 25.484375 53.609375 
Q 29.78125 56 35.6875 56 
Q 41.65625 56 45.828125 52.96875 
Q 50 49.953125 52 44.1875 
z
" id="DejaVuSans-109"/>
       <path d="M 8.015625 75.875 
L 15.828125 75.875 
Q 23.140625 64.359375 26.78125 53.3125 
Q 30.421875 42.28125 30.421875 31.390625 
Q 30.421875 20.453125 26.78125 9.375 
Q 23.140625 -1.703125 15.828125 -13.1875 
L 8.015625 -13.1875 
Q 14.5 -2 17.703125 9.0625 
Q 20.90625 20.125 20.90625 31.390625 
Q 20.90625 42.671875 17.703125 53.65625 
Q 14.5 64.65625 8.015625 75.875 
z
" id="DejaVuSans-41"/>
      </defs>
      <use xlink:href="#DejaVuSans-83"/>
      <use x="63.476562" xlink:href="#DejaVuSans-79"/>
      <use x="142.1875" xlink:href="#DejaVuSans-50"/>
      <use x="205.810547" xlink:href="#DejaVuSans-40"/>
      <use x="244.824219" xlink:href="#DejaVuSans-112"/>
      <use x="308.300781" xlink:href="#DejaVuSans-112"/>
      <use x="371.777344" xlink:href="#DejaVuSans-109"/>
      <use x="469.189453" xlink:href="#DejaVuSans-41"/>
     </g>
    </g>
   </g>
   <g id="line2d_17">
    <path clip-path="url(#pf01421be97)" d="M 138.436364 370.716788 
L 139.273678 388.320308 
L 140.110992 381.92305 
L 140.948306 377.330827 
L 141.78562 360.507425 
L 142.622934 384.521475 
L 143.460248 382.757731 
L 144.297562 385.301592 
L 145.134876 338.189283 
L 145.97219 340.970572 
L 146.809504 379.264162 
L 147.646818 392.356567 
L 148.484132 391.813877 
L 149.321446 369.597489 
L 150.15876 335.50975 
L 150.996074 355.724966 
L 151.833388 351.281689 
L 152.670702 376.720301 
L 153.508016 385.878201 
L 154.345329 384.487557 
L 155.182643 393.40803 
L 156.019957 399.784642 
L 156.857271 403.074702 
L 157.694585 400.327332 
L 158.531899 387.54019 
L 159.369213 364.81503 
L 160.206527 355.521458 
L 161.881155 378.687553 
L 162.718469 389.710952 
L 163.555783 388.45598 
L 164.393097 399.954233 
L 165.230411 398.36008 
L 166.067725 399.106279 
L 166.905039 391.983468 
L 167.742353 397.817389 
L 168.579667 389.575279 
L 169.416981 391.305105 
L 170.254295 390.389315 
L 171.091609 394.391656 
L 171.928923 395.341364 
L 172.766237 396.121482 
L 173.603551 396.121482 
L 174.440865 401.175286 
L 175.278179 379.874689 
L 176.115493 366.036084 
L 176.952807 367.765909 
L 177.790121 369.088717 
L 178.627435 375.397493 
L 179.464749 352.672333 
L 180.302063 382.248959 
L 181.139377 384.724984 
L 181.976691 383.029076 
L 182.814005 379.273412 
L 183.651319 384.114457 
L 184.488633 380.179952 
L 185.325947 363.35655 
L 186.163261 386.488728 
L 187.000575 386.047792 
L 187.837889 386.522646 
L 188.675203 386.861827 
L 189.512517 382.079368 
L 190.349831 345.786949 
L 192.861773 266.995089 
L 194.536401 379.230244 
L 195.373715 384.521475 
L 196.211029 377.805681 
L 197.048343 379.806852 
L 197.885657 357.590465 
L 198.722971 376.683299 
L 199.560285 383.33434 
L 202.072227 365.154212 
L 202.909541 370.411525 
L 203.746855 377.262991 
L 204.584169 375.499247 
L 205.421483 382.96124 
L 206.258797 381.638432 
L 207.096111 371.903924 
L 207.933425 369.495735 
L 208.770739 367.460646 
L 209.608053 371.632578 
L 210.445367 359.455963 
L 211.282681 340.563554 
L 212.119995 351.960052 
L 212.957309 356.440197 
L 213.794623 359.69339 
L 214.631937 357.658301 
L 215.469251 357.522628 
L 216.306565 360.575262 
L 217.143879 347.584611 
L 217.981193 330.320273 
L 218.818507 332.084017 
L 219.655821 345.95654 
L 220.493135 351.654789 
L 221.330449 328.013839 
L 222.167763 287.549487 
L 223.005077 285.039544 
L 223.842391 283.682818 
L 224.679705 324.452433 
L 225.517019 334.254778 
L 226.354333 339.308582 
L 227.191647 336.527294 
L 228.028961 333.338988 
L 228.866275 336.764721 
L 229.703589 337.205657 
L 232.215531 325.537814 
L 233.052845 301.659437 
L 233.890159 261.873448 
L 234.727473 267.910879 
L 235.564787 320.314419 
L 236.402101 319.364711 
L 237.239415 327.979921 
L 238.076729 329.336647 
L 238.914043 323.977579 
L 239.751357 326.724949 
L 240.588671 325.910914 
L 241.425985 321.501554 
L 242.263299 319.873483 
L 243.100613 320.416173 
L 243.937927 316.413832 
L 244.775241 326.012668 
L 246.449869 294.909725 
L 247.287183 290.025512 
L 248.124497 313.462953 
L 248.961811 349.992799 
L 249.799125 353.248942 
L 250.636439 353.28286 
L 251.473753 348.636073 
L 252.311067 344.905077 
L 253.148381 345.074668 
L 253.985695 341.106244 
L 254.823009 344.260632 
L 255.660323 344.599814 
L 256.497637 345.58344 
L 257.334951 339.444255 
L 258.172265 336.367394 
L 259.009579 331.982262 
L 259.846893 330.727291 
L 260.684207 333.406825 
L 262.358835 342.123789 
L 263.196149 339.512091 
L 264.033463 338.460629 
L 264.870777 334.59396 
L 265.708091 331.812672 
L 266.545405 331.134309 
L 267.382719 326.89454 
L 268.220033 331.643081 
L 269.057347 331.778753 
L 269.89466 326.012668 
L 270.731974 331.10039 
L 271.569288 311.360028 
L 272.406602 304.067626 
L 273.243916 306.984587 
L 274.08123 304.305053 
L 274.918544 300.099202 
L 275.755858 294.428704 
L 276.593172 295.452416 
L 277.430486 290.839548 
L 278.2678 290.737793 
L 279.105114 292.331946 
L 279.942428 267.775206 
L 280.779742 280.392758 
L 281.617056 242.811449 
L 282.45437 270.692167 
L 283.291684 424.341382 
L 284.128998 440.31683 
L 285.803626 427.427933 
L 286.64094 438.587004 
L 287.478254 433.465364 
L 288.315568 442.996364 
L 289.152882 435.127353 
L 289.990196 433.499282 
L 290.82751 437.264196 
L 291.664824 433.567118 
L 292.502138 432.006883 
L 293.339452 430.107467 
L 294.176766 431.15893 
L 295.01408 430.955421 
L 295.851394 432.583492 
L 296.688708 430.582321 
L 297.526022 432.346065 
L 298.363336 429.734367 
L 299.20065 429.157759 
L 300.037964 426.410389 
L 300.875278 427.054834 
L 301.712592 430.582321 
L 302.549906 429.191677 
L 303.38722 429.49694 
L 304.224534 425.385471 
L 305.061848 430.819748 
L 305.899162 430.751912 
L 306.736476 424.273545 
L 307.57379 420.915649 
L 308.411104 423.561264 
L 309.248418 427.834951 
L 310.085732 423.256001 
L 310.923046 419.79635 
L 311.76036 422.916819 
L 312.597674 422.272375 
L 313.434988 425.799862 
L 314.272302 422.454299 
L 315.109616 423.222083 
L 315.94693 417.59167 
L 316.784244 416.913307 
L 317.621558 418.982314 
L 318.458872 428.852496 
L 319.296186 428.95425 
L 320.1335 433.668873 
L 320.970814 425.494599 
L 321.808128 418.50746 
L 322.645442 418.337869 
L 323.482756 422.645474 
L 324.32007 418.371788 
L 325.157384 416.714222 
L 325.994698 419.117987 
L 326.832012 425.019745 
L 327.669326 420.576467 
L 328.50664 417.320325 
L 329.343954 414.8443 
L 330.181268 414.539037 
L 331.018582 412.978802 
L 331.855896 409.926168 
L 332.69321 415.2174 
L 333.530524 413.080556 
L 334.367838 411.552454 
L 335.205152 409.553069 
L 336.042466 400.700432 
L 336.87978 400.496923 
L 337.717094 398.936688 
L 338.554408 399.852478 
L 339.391722 399.920315 
L 340.229036 388.116799 
L 342.740978 393.102767 
L 343.578292 397.240781 
L 344.415606 400.598677 
L 345.25292 402.260667 
L 346.090234 400.700432 
L 346.927548 406.839617 
L 347.764862 403.379966 
L 348.602176 373.599831 
L 349.43949 362.44076 
L 350.276804 362.610351 
L 351.114118 366.070002 
L 351.951432 363.269332 
L 352.788746 366.002166 
L 353.62606 341.241917 
L 354.463374 356.369411 
L 355.300688 357.285201 
L 356.138002 363.051287 
L 356.975316 364.306258 
L 357.81263 361.999824 
L 358.649944 360.812689 
L 359.487258 356.57292 
L 360.324572 355.996312 
L 361.161886 361.287543 
L 361.9992 360.948361 
L 362.836514 359.1507 
L 363.673828 362.271169 
L 364.511142 359.422045 
L 365.348456 364.64544 
L 367.023084 360.202162 
L 367.860398 358.947191 
L 368.697712 368.003336 
L 369.535026 367.901582 
L 372.046968 328.013839 
L 372.884282 301.116747 
L 373.721596 330.082846 
L 374.55891 336.629049 
L 375.396224 355.758885 
L 376.233538 357.319119 
L 377.070852 351.146016 
L 377.908166 341.852444 
L 379.582794 314.209152 
L 380.420108 320.721437 
L 381.257422 317.804476 
L 382.094736 315.599796 
L 382.93205 298.233704 
L 383.769364 263.12842 
L 384.606678 251.698004 
L 385.443991 302.541309 
L 386.281305 317.634885 
L 387.118619 317.227867 
L 387.955933 322.993953 
L 388.793247 330.761209 
L 389.630561 324.927287 
L 390.467875 324.995124 
L 391.305189 323.468807 
L 392.142503 299.726103 
L 392.979817 303.796281 
L 393.817131 299.04774 
L 394.654445 302.303882 
L 395.491759 265.604445 
L 396.329073 223.410268 
L 397.166387 218.356463 
L 398.003701 218.559972 
L 398.841015 204.958795 
L 399.678329 267.16468 
L 400.515643 264.91012 
L 401.352957 225.174011 
L 402.190271 251.630167 
L 403.027585 305.424352 
L 403.864899 298.572886 
L 404.702213 313.862597 
L 405.539527 310.478156 
L 406.376841 309.155348 
L 407.214155 312.377572 
L 408.051469 311.224355 
L 408.888783 311.902718 
L 410.563411 302.473473 
L 411.400725 304.101544 
L 412.238039 311.427864 
L 413.075353 303.389263 
L 413.912667 298.165868 
L 414.749981 278.730768 
L 415.587295 267.605616 
L 416.424609 262.823157 
L 417.261923 256.785726 
L 418.099237 271.200939 
L 418.936551 265.367018 
L 420.611179 225.275766 
L 421.448493 178.584042 
L 422.285807 225.411438 
L 423.123121 242.099168 
L 423.960435 212.386869 
L 424.797749 284.549273 
L 425.635063 279.63771 
L 426.472377 307.955717 
L 428.147005 285.039544 
L 428.984319 255.021982 
L 429.821633 243.29247 
L 430.658947 240.505015 
L 431.496261 235.485129 
L 432.333575 205.569321 
L 433.170889 189.186855 
L 434.008203 195.122531 
L 434.845517 209.741254 
L 435.682831 269.403278 
L 436.520145 263.569356 
L 437.357459 294.163526 
L 438.194773 266.825498 
L 439.032087 266.79158 
L 439.869401 280.52843 
L 440.706715 263.942456 
L 441.544029 222.053542 
L 442.381343 187.931884 
L 443.218657 185.761122 
L 444.055971 215.134239 
L 444.893285 164.290934 
L 445.730599 86.923636 
L 446.567913 228.599744 
L 447.405227 249.662915 
L 448.242541 240.674605 
L 449.079855 186.744749 
L 449.917169 156.761105 
L 450.754483 178.46872 
L 451.591797 132.407874 
L 452.429111 154.115489 
L 453.266425 160.661692 
L 454.103739 206.858211 
L 454.941053 237.011445 
L 455.778367 233.416122 
L 456.615681 177.044158 
L 457.452995 244.106505 
L 458.290309 252.885139 
L 459.127623 247.593908 
L 459.964937 260.482804 
L 460.802251 261.981987 
L 461.639565 272.964683 
L 462.476879 267.503861 
L 463.314193 269.199769 
L 464.151507 260.584559 
L 464.988821 265.841872 
L 465.826135 242.743612 
L 466.663449 255.055901 
L 467.500763 246.881627 
L 468.338077 259.058242 
L 469.175391 246.2711 
L 470.012705 256.582217 
L 470.850019 251.799758 
L 471.687333 259.363505 
L 472.524647 244.06642 
L 473.361961 247.695662 
L 474.199275 258.210288 
L 475.036589 260.347132 
L 475.873903 275.576381 
L 476.711217 271.709712 
L 477.548531 252.512039 
L 478.385845 247.865253 
L 479.223159 262.483975 
L 480.060473 246.915545 
L 480.897787 251.053559 
L 481.735101 254.614965 
L 482.572415 234.874602 
L 483.409729 234.874602 
L 484.247043 237.995072 
L 485.084357 251.22315 
L 485.921671 253.22432 
L 486.758985 243.89683 
L 487.596299 257.328416 
L 488.433613 255.530755 
L 489.270927 254.648883 
L 490.108241 247.933089 
L 490.945555 246.576363 
L 491.782869 239.385716 
L 492.620183 234.399748 
L 493.457497 252.647712 
L 494.294811 246.983381 
L 495.132125 242.743612 
L 495.969439 253.902683 
L 496.806753 244.032502 
L 497.644067 253.902683 
L 498.481381 246.101509 
L 499.318695 250.171687 
L 500.156009 248.306189 
L 500.993322 228.667581 
L 501.830636 242.574022 
L 502.66795 245.287474 
L 503.505264 244.371684 
L 504.342578 245.72841 
L 505.179892 247.390399 
L 506.017206 251.698004 
L 506.85452 254.241865 
L 507.691834 258.651224 
L 508.529148 240.505015 
L 509.366462 212.522542 
L 510.203776 189.729546 
L 511.04109 111.769418 
L 512.715718 336.866476 
L 513.553032 348.907419 
L 514.390346 346.634903 
L 515.22766 351.383443 
L 516.064974 346.600984 
L 516.902288 339.17291 
L 517.739602 343.446597 
L 518.576916 344.328468 
L 519.41423 346.567066 
L 520.251544 345.481686 
L 521.088858 348.941337 
L 521.926172 349.110927 
L 522.763486 351.858298 
L 523.6008 349.6197 
L 524.438114 349.2466 
L 525.275428 346.49923 
L 526.112742 351.519116 
L 526.950056 351.417362 
L 527.78737 349.2466 
L 528.624684 349.721454 
L 529.461998 349.382273 
L 530.299312 351.519116 
L 531.136626 346.261803 
L 531.97394 351.790461 
L 532.811254 347.109757 
L 533.648568 347.991629 
L 534.485882 349.755372 
L 535.323196 347.482856 
L 536.16051 343.926296 
L 536.997824 355.11444 
L 537.835138 352.875842 
L 538.672452 355.623212 
L 539.509766 348.262974 
L 540.34708 344.226714 
L 541.184394 345.820867 
L 542.021708 340.461799 
L 542.859022 347.618529 
L 543.696336 347.482856 
L 544.53365 347.109757 
L 545.370964 340.733145 
L 546.208278 340.461799 
L 547.045592 345.990458 
L 547.882906 342.768234 
L 548.72022 338.731974 
L 549.557534 340.800981 
L 550.394848 341.479344 
L 551.232162 340.495718 
L 552.069476 340.868817 
L 552.90679 339.274664 
L 553.744104 335.848931 
L 554.581418 338.392792 
L 555.418732 342.530807 
L 556.256046 341.00449 
L 557.09336 337.985775 
L 557.930674 340.156536 
L 558.767988 340.190454 
L 559.605302 339.783436 
L 560.442616 343.412678 
L 561.27993 345.95654 
L 562.117244 350.399817 
L 562.954558 347.279347 
L 563.791872 345.04075 
L 564.629186 338.291038 
L 565.4665 337.917938 
L 566.303814 339.783436 
L 567.141128 341.140162 
L 567.978442 336.96823 
L 568.815756 338.426711 
L 569.65307 335.272323 
L 571.327698 337.036066 
L 572.165012 337.002148 
L 573.002326 336.493376 
L 573.83964 340.054782 
L 574.676954 342.022034 
L 576.351582 349.78929 
L 578.02621 281.410302 
L 578.863524 272.795092 
L 579.700838 272.862929 
L 580.538152 272.421993 
L 581.375466 276.661761 
L 582.21278 270.522576 
L 583.050094 274.083982 
L 583.887408 275.745971 
L 584.724722 279.137786 
L 585.562036 273.948309 
L 586.39935 277.543633 
L 587.236664 269.674623 
L 588.073978 270.352986 
L 588.911292 270.726085 
L 589.748606 267.843043 
L 590.58592 273.168192 
L 591.423234 269.16585 
L 592.260548 269.674623 
L 593.097862 270.047722 
L 593.935176 272.014975 
L 594.77249 269.606786 
L 595.609804 270.784671 
L 596.447118 273.914391 
L 598.121746 277.882815 
L 598.95906 270.861758 
L 599.796374 279.782231 
L 600.633688 281.138957 
L 601.471002 274.898018 
L 602.308316 277.170534 
L 603.14563 273.846555 
L 604.820258 269.199769 
L 605.657572 276.458252 
L 606.494886 271.099185 
L 607.3322 274.083982 
L 608.169514 277.984569 
L 609.006828 277.882815 
L 609.844142 274.931936 
L 610.681456 272.795092 
L 611.51877 271.607957 
L 612.356084 275.576381 
L 613.193398 273.609128 
L 614.030712 277.374043 
L 614.868026 274.898018 
L 615.70534 276.152989 
L 616.542653 271.574039 
L 617.379967 271.709712 
L 618.217281 274.830181 
L 619.054595 275.101527 
L 619.891909 272.048893 
L 620.729223 267.436025 
L 621.566537 278.289833 
L 622.403851 268.962342 
L 623.241165 270.963512 
L 624.078479 265.570527 
L 624.915793 266.282808 
L 625.753107 266.452399 
L 626.590421 269.979886 
L 627.427735 266.825498 
L 628.265049 266.24889 
L 629.102363 268.894505 
L 629.939677 267.944797 
L 630.776991 265.027836 
L 631.614305 267.232516 
L 632.451619 266.723744 
L 633.288933 263.806783 
L 634.126247 268.385733 
L 634.963561 270.251231 
L 635.800875 267.775206 
L 636.638189 268.148306 
L 637.475503 265.197427 
L 638.312817 265.909708 
L 639.150131 264.790409 
L 639.987445 264.654737 
L 640.824759 269.53895 
L 641.662073 266.893334 
L 642.499387 267.537779 
L 643.336701 270.149477 
L 644.174015 268.182224 
L 645.011329 271.37053 
L 645.848643 266.927253 
L 646.685957 266.520235 
L 647.523271 273.880473 
L 648.360585 269.572868 
L 649.197899 272.184566 
L 650.035213 267.775206 
L 650.872527 268.894505 
L 651.709841 271.133103 
L 652.547155 270.285149 
L 653.384469 276.051235 
L 655.059097 271.234858 
L 655.896411 272.320238 
L 656.733725 266.384562 
L 657.571039 269.878132 
L 658.408353 267.639534 
L 659.245667 267.503861 
L 660.082981 272.693338 
L 660.920295 269.844213 
L 661.757609 265.841872 
L 662.594923 273.676964 
L 663.432237 277.950651 
L 665.106865 272.625502 
L 665.944179 275.542462 
L 666.781493 271.981057 
L 667.618807 278.255914 
L 668.456121 275.203281 
L 669.293435 276.560007 
L 670.130749 276.899188 
L 670.968063 277.441879 
L 671.805377 275.067608 
L 672.642691 273.371701 
L 673.480005 273.066438 
L 674.317319 272.388075 
L 675.154633 273.914391 
L 675.991947 273.405619 
L 676.829261 274.457082 
L 677.666575 270.692167 
L 678.503889 221.748278 
L 679.341203 256.165509 
L 680.178517 273.134274 
L 681.015831 278.323751 
L 681.853145 273.710882 
L 682.690459 265.299181 
L 683.527773 265.87579 
L 684.365087 268.317897 
L 685.202401 265.807954 
L 686.039715 260.67953 
L 686.877029 264.145964 
L 687.714343 264.349473 
L 688.551657 262.75532 
L 689.388971 259.974032 
L 690.226285 260.313214 
L 691.063599 260.876777 
L 691.900913 264.15081 
L 692.738227 279.510886 
L 693.575541 283.174046 
L 694.412855 280.52843 
L 695.250169 278.798605 
L 696.087483 275.678135 
L 697.762111 283.716736 
L 698.599425 282.834864 
L 699.436739 284.19159 
L 700.274053 284.225509 
L 701.111367 279.273459 
L 701.948681 282.19042 
L 702.785995 281.579893 
L 704.460623 239.962324 
L 705.297937 230.566997 
L 706.135251 190.528164 
L 706.972565 186.778667 
L 707.809879 230.533079 
L 708.647193 263.942456 
L 709.484507 255.327246 
L 710.321821 252.376367 
L 711.159135 254.688968 
L 711.996449 250.692793 
L 712.833763 276.963941 
L 713.671077 276.445919 
L 714.508391 273.004768 
L 715.345705 239.999326 
L 717.020333 188.641081 
L 717.857647 180.611731 
L 718.694961 211.508081 
L 719.532275 231.821969 
L 720.369589 232.413994 
L 721.206903 235.52213 
L 722.044217 213.728178 
L 722.881531 180.870742 
L 723.718845 199.001534 
L 724.556159 176.097533 
L 725.393473 194.043318 
L 726.230787 190.195149 
L 727.068101 198.853528 
L 727.905415 255.577007 
L 728.742729 264.050377 
L 729.580043 262.792322 
L 730.417357 267.602532 
L 731.254671 260.535223 
L 732.091984 244.069504 
L 732.929298 236.706182 
L 733.766612 251.432826 
L 735.44124 234.671093 
L 737.115868 155.968654 
L 738.790496 245.327559 
L 739.62781 233.080023 
L 740.465124 218.612391 
L 741.302438 210.213024 
L 742.139752 216.170285 
L 742.977066 226.752747 
L 743.81438 221.572521 
L 744.651694 172.58238 
L 745.489008 160.22384 
L 746.326322 182.165799 
L 747.163636 171.546334 
L 747.163636 171.546334 
" style="fill:none;stroke:#1f77b4;stroke-linecap:square;stroke-width:1.5;"/>
   </g>
   <g id="line2d_18">
    <path clip-path="url(#pf01421be97)" d="M 138.436364 357.492828 
L 139.273678 359.02021 
L 140.948306 347.750337 
L 141.78562 358.064531 
L 142.622934 371.14933 
L 143.460248 347.158123 
L 144.297562 366.412319 
L 145.134876 362.688886 
L 145.97219 333.622788 
L 146.809504 362.278804 
L 148.484132 379.023034 
L 149.321446 379.895311 
L 150.15876 322.510854 
L 150.996074 354.479169 
L 151.833388 320.10684 
L 152.670702 343.655187 
L 153.508016 364.011883 
L 154.345329 354.775069 
L 155.182643 387.831861 
L 156.019957 391.373073 
L 156.857271 376.667414 
L 157.694585 353.073562 
L 158.531899 358.966705 
L 159.369213 357.370268 
L 160.206527 364.445543 
L 161.043841 346.961589 
L 161.881155 390.569177 
L 162.718469 386.916939 
L 163.555783 376.686948 
L 164.393097 381.48914 
L 165.230411 371.086172 
L 166.067725 380.680769 
L 166.905039 364.651365 
L 167.742353 374.307461 
L 168.579667 371.982798 
L 169.416981 348.281142 
L 170.254295 358.96149 
L 171.091609 366.782333 
L 171.928923 375.868815 
L 172.766237 363.708331 
L 173.603551 364.343465 
L 174.440865 366.195148 
L 175.278179 317.7241 
L 176.115493 332.436048 
L 176.952807 366.78777 
L 177.790121 310.405535 
L 178.627435 370.531107 
L 179.464749 337.25447 
L 180.302063 350.524157 
L 181.139377 350.195108 
L 181.976691 339.963058 
L 182.814005 369.734671 
L 183.651319 373.120388 
L 184.488633 372.793998 
L 185.325947 363.564259 
L 186.163261 368.894306 
L 187.000575 368.218593 
L 187.837889 367.014519 
L 188.675203 359.503176 
L 189.512517 372.878682 
L 190.349831 359.595409 
L 191.187145 327.690304 
L 192.024459 314.988918 
L 192.861773 288.347466 
L 193.699087 276.633183 
L 194.536401 338.263937 
L 195.373715 343.797399 
L 196.211029 356.355127 
L 197.048343 357.70551 
L 197.885657 356.996766 
L 198.722971 359.013929 
L 199.560285 364.35411 
L 200.397599 365.743998 
L 201.234913 359.120673 
L 202.072227 341.294152 
L 202.909541 339.993926 
L 203.746855 319.986287 
L 205.421483 356.440604 
L 206.258797 365.582318 
L 207.096111 377.781129 
L 207.933425 364.889263 
L 208.770739 357.976128 
L 210.445367 318.141479 
L 211.282681 301.580218 
L 212.119995 307.224381 
L 212.957309 301.777796 
L 213.794623 329.883525 
L 214.631937 347.484446 
L 215.469251 331.558609 
L 216.306565 325.839332 
L 217.143879 328.979025 
L 217.981193 329.930327 
L 218.818507 325.375804 
L 219.655821 342.584169 
L 220.493135 377.895059 
L 222.167763 294.961975 
L 223.005077 295.389695 
L 223.842391 301.180441 
L 224.679705 351.711786 
L 225.517019 345.025244 
L 226.354333 349.234414 
L 227.191647 313.711212 
L 228.028961 311.314783 
L 228.866275 313.955325 
L 229.703589 339.3892 
L 230.540903 323.615976 
L 231.378217 319.798503 
L 232.215531 296.279935 
L 233.052845 265.501071 
L 233.890159 270.135537 
L 234.727473 296.367701 
L 235.564787 341.769517 
L 236.402101 331.065457 
L 237.239415 341.470091 
L 238.076729 330.012219 
L 238.914043 309.925044 
L 239.751357 306.217974 
L 240.588671 294.487158 
L 241.425985 291.440987 
L 242.263299 296.532314 
L 243.100613 308.676553 
L 243.937927 300.884163 
L 244.775241 305.984514 
L 245.612555 295.173124 
L 246.449869 302.789878 
L 247.287183 295.350819 
L 248.124497 290.371703 
L 248.961811 333.915095 
L 249.799125 349.756907 
L 250.636439 343.519389 
L 251.473753 338.75194 
L 252.311067 304.599174 
L 253.148381 321.904121 
L 253.985695 323.136996 
L 254.823009 319.897603 
L 255.660323 317.33616 
L 256.497637 299.175537 
L 257.334951 296.164508 
L 258.172265 306.070457 
L 259.009579 311.424773 
L 259.846893 304.238672 
L 260.684207 315.580407 
L 261.521521 322.973316 
L 262.358835 326.015131 
L 263.196149 289.27267 
L 264.033463 327.15181 
L 264.870777 312.782319 
L 265.708091 329.425293 
L 266.545405 330.277939 
L 267.382719 324.691379 
L 269.057347 287.208802 
L 269.89466 295.922899 
L 270.731974 297.304076 
L 271.569288 312.794601 
L 272.406602 284.427751 
L 273.243916 311.177253 
L 274.08123 306.091288 
L 274.918544 261.891575 
L 275.755858 283.35983 
L 276.593172 286.378252 
L 277.430486 280.705377 
L 278.2678 281.463731 
L 279.105114 290.749895 
L 279.942428 288.443632 
L 280.779742 242.521752 
L 281.617056 269.917781 
L 282.45437 254.443301 
L 283.291684 324.753899 
L 284.128998 377.093022 
L 284.966312 394.643941 
L 285.803626 399.91655 
L 286.64094 396.00854 
L 287.478254 400.330032 
L 288.315568 410.321295 
L 289.152882 407.284398 
L 289.990196 400.907046 
L 290.82751 397.555085 
L 291.664824 398.715617 
L 292.502138 390.402193 
L 294.176766 402.829613 
L 295.01408 399.394923 
L 295.851394 397.147374 
L 296.688708 393.493855 
L 297.526022 399.507616 
L 298.363336 393.727419 
L 299.20065 408.964282 
L 300.037964 415.490285 
L 300.875278 413.31662 
L 301.712592 404.138727 
L 302.549906 407.155401 
L 303.38722 412.440617 
L 304.224534 403.367469 
L 305.061848 400.957847 
L 305.899162 407.501088 
L 306.736476 405.175047 
L 307.57379 410.086664 
L 308.411104 407.869116 
L 309.248418 410.224314 
L 310.085732 404.281547 
L 310.923046 404.762409 
L 311.76036 409.854434 
L 312.597674 410.930547 
L 313.434988 408.751652 
L 314.272302 391.799037 
L 315.109616 380.62673 
L 315.94693 366.933353 
L 317.621558 373.576101 
L 318.458872 377.802286 
L 319.296186 383.916762 
L 320.1335 398.295135 
L 320.970814 409.504584 
L 321.808128 404.755387 
L 322.645442 404.467791 
L 323.482756 396.487676 
L 324.32007 389.668522 
L 325.157384 385.185505 
L 325.994698 394.235749 
L 326.832012 399.682045 
L 327.669326 399.141633 
L 328.50664 386.747992 
L 329.343954 388.048677 
L 330.181268 371.134552 
L 331.018582 371.21791 
L 331.855896 396.660527 
L 332.69321 402.628375 
L 333.530524 393.78991 
L 334.367838 390.797882 
L 335.205152 399.628517 
L 336.042466 401.904601 
L 336.87978 387.779837 
L 337.717094 390.118175 
L 338.554408 382.117459 
L 339.391722 375.679326 
L 340.229036 375.464711 
L 342.740978 375.483097 
L 343.578292 383.73783 
L 344.415606 373.595598 
L 345.25292 372.459934 
L 346.090234 364.869973 
L 346.927548 371.093528 
L 347.764862 374.348107 
L 348.602176 370.4344 
L 349.43949 363.316924 
L 350.276804 349.161841 
L 351.114118 351.399493 
L 351.951432 346.227948 
L 352.788746 347.571805 
L 353.62606 358.822322 
L 354.463374 338.726642 
L 355.300688 337.485397 
L 356.138002 343.724108 
L 356.975316 345.556145 
L 357.81263 341.834631 
L 358.649944 349.048022 
L 359.487258 353.084607 
L 360.324572 351.758047 
L 361.161886 361.168445 
L 361.9992 350.046236 
L 362.836514 336.619143 
L 363.673828 343.333656 
L 364.511142 339.736361 
L 365.348456 351.362988 
L 366.18577 339.010964 
L 367.023084 351.824731 
L 367.860398 360.038966 
L 368.697712 348.746403 
L 369.535026 356.755112 
L 370.37234 347.465452 
L 371.209654 321.728707 
L 372.046968 326.899949 
L 372.884282 286.405987 
L 373.721596 340.547517 
L 374.55891 346.911402 
L 375.396224 357.378135 
L 376.233538 343.373058 
L 377.070852 342.551146 
L 377.908166 346.140359 
L 378.74548 351.190256 
L 379.582794 311.17186 
L 380.420108 344.605155 
L 381.257422 303.42882 
L 382.094736 296.216984 
L 382.93205 285.886338 
L 383.769364 272.052052 
L 384.606678 278.195433 
L 385.443991 300.71952 
L 386.281305 335.196979 
L 387.118619 329.043835 
L 387.955933 319.903336 
L 388.793247 342.761872 
L 389.630561 341.031861 
L 391.305189 316.742938 
L 392.142503 287.73528 
L 392.979817 300.822413 
L 393.817131 331.70917 
L 394.654445 329.019197 
L 395.491759 294.440178 
L 396.329073 185.958415 
L 397.166387 234.926258 
L 398.003701 235.620625 
L 398.841015 285.832321 
L 399.678329 304.115319 
L 400.515643 286.9742 
L 401.352957 200.730039 
L 402.190271 304.173662 
L 403.027585 311.04784 
L 403.864899 292.402903 
L 404.702213 345.380628 
L 405.539527 281.071895 
L 406.376841 315.158836 
L 407.214155 310.815284 
L 408.051469 313.35231 
L 408.888783 280.138468 
L 409.726097 299.792671 
L 410.563411 273.906387 
L 411.400725 338.146858 
L 412.238039 310.672034 
L 413.075353 315.805586 
L 413.912667 298.679608 
L 414.749981 274.374552 
L 415.587295 278.538364 
L 416.424609 288.429928 
L 417.261923 264.56754 
L 418.099237 266.222001 
L 418.936551 299.29929 
L 419.773865 282.944156 
L 420.611179 258.862471 
L 421.448493 262.707753 
L 422.285807 238.404282 
L 423.123121 277.122283 
L 423.960435 240.156495 
L 424.797749 276.172692 
L 425.635063 283.93923 
L 426.472377 298.657415 
L 427.309691 295.596058 
L 428.147005 295.27295 
L 428.984319 282.395795 
L 429.821633 277.938179 
L 430.658947 268.069372 
L 431.496261 263.50922 
L 432.333575 219.647356 
L 433.170889 164.927746 
L 434.008203 188.742576 
L 434.845517 240.45815 
L 435.682831 276.532854 
L 436.520145 250.984359 
L 437.357459 298.394516 
L 438.194773 231.938623 
L 439.032087 248.884756 
L 439.869401 270.029281 
L 440.706715 257.304636 
L 442.381343 131.242419 
L 443.218657 206.822515 
L 444.055971 236.821424 
L 444.893285 159.60995 
L 445.730599 137.449373 
L 446.567913 254.153735 
L 447.405227 276.593478 
L 448.242541 264.103493 
L 449.079855 186.078656 
L 449.917169 262.361059 
L 451.591797 206.153794 
L 452.429111 234.449085 
L 453.266425 191.263262 
L 454.103739 264.506175 
L 454.941053 288.744325 
L 456.615681 234.056345 
L 457.452995 256.209277 
L 459.127623 319.096803 
L 459.964937 301.20699 
L 461.639565 285.730999 
L 462.476879 263.601371 
L 463.314193 276.07177 
L 464.151507 268.207407 
L 464.988821 275.331121 
L 465.826135 259.599935 
L 466.663449 283.214758 
L 467.500763 255.016922 
L 468.338077 270.503091 
L 469.175391 273.314958 
L 470.012705 263.195904 
L 471.687333 278.700044 
L 473.361961 240.020016 
L 474.199275 268.149316 
L 475.036589 311.882819 
L 475.873903 288.516879 
L 476.711217 284.238618 
L 477.548531 269.058046 
L 478.385845 268.864942 
L 479.223159 282.551386 
L 480.060473 268.209689 
L 480.897787 273.90892 
L 481.735101 270.775146 
L 482.572415 276.096127 
L 483.409729 286.596868 
L 484.247043 271.654274 
L 485.084357 247.750789 
L 485.921671 247.073594 
L 486.758985 280.208633 
L 487.596299 283.158164 
L 488.433613 310.479538 
L 489.270927 291.111063 
L 490.108241 281.552312 
L 490.945555 257.389365 
L 492.620183 239.573214 
L 493.457497 267.841097 
L 494.294811 277.907838 
L 495.132125 249.206902 
L 495.969439 245.303825 
L 496.806753 228.48857 
L 497.644067 241.818363 
L 498.481381 246.583101 
L 499.318695 256.86462 
L 500.156009 274.975285 
L 500.993322 255.550557 
L 501.830636 272.119447 
L 502.66795 246.018355 
L 503.505264 238.258677 
L 504.342578 267.516019 
L 505.179892 255.868139 
L 506.017206 267.693536 
L 506.85452 271.990376 
L 507.691834 265.368903 
L 508.529148 241.751739 
L 509.366462 227.838783 
L 510.203776 209.939563 
L 511.04109 187.743103 
L 511.878404 222.661067 
L 512.715718 332.50114 
L 513.553032 343.545523 
L 514.390346 332.124037 
L 515.22766 338.298819 
L 516.064974 339.317464 
L 516.902288 346.106543 
L 517.739602 344.738656 
L 518.576916 343.818793 
L 519.41423 336.797001 
L 520.251544 348.055044 
L 521.926172 322.980501 
L 522.763486 351.382322 
L 523.6008 362.733406 
L 524.438114 364.436491 
L 525.275428 324.563907 
L 526.112742 333.293391 
L 526.950056 357.121022 
L 527.78737 366.486796 
L 528.624684 366.619408 
L 529.461998 362.351962 
L 530.299312 340.806082 
L 531.136626 338.863292 
L 531.97394 305.750831 
L 532.811254 325.884356 
L 533.648568 331.727178 
L 534.485882 361.277671 
L 535.323196 349.965063 
L 536.16051 353.378447 
L 536.997824 362.486967 
L 538.672452 340.597178 
L 539.509766 327.393145 
L 540.34708 320.099462 
L 541.184394 340.545561 
L 542.021708 346.031503 
L 542.859022 342.045424 
L 543.696336 339.10116 
L 544.53365 350.659814 
L 545.370964 341.725567 
L 546.208278 353.599811 
L 547.045592 352.798893 
L 547.882906 346.98425 
L 548.72022 339.496034 
L 549.557534 339.964806 
L 550.394848 341.975503 
L 551.232162 348.204502 
L 552.069476 351.719705 
L 552.90679 352.46814 
L 553.744104 353.561676 
L 554.581418 331.172743 
L 555.418732 328.050828 
L 556.256046 339.009327 
L 557.09336 356.428545 
L 557.930674 347.935544 
L 558.767988 343.323582 
L 559.605302 358.648456 
L 560.442616 339.940302 
L 561.27993 334.775357 
L 562.117244 349.582004 
L 562.954558 367.073862 
L 563.791872 357.70314 
L 564.629186 344.451334 
L 565.4665 353.295726 
L 566.303814 341.257898 
L 567.141128 333.002936 
L 567.978442 336.310354 
L 568.815756 330.37478 
L 569.65307 334.860419 
L 570.490384 306.088977 
L 571.327698 343.45492 
L 572.165012 328.365425 
L 573.002326 335.479086 
L 573.83964 350.637799 
L 574.676954 351.02645 
L 575.514268 357.438686 
L 576.351582 352.536513 
L 577.188896 344.719766 
L 578.02621 292.980702 
L 578.863524 263.696678 
L 579.700838 267.791436 
L 580.538152 259.785424 
L 581.375466 285.258478 
L 582.21278 272.267275 
L 583.050094 274.580441 
L 583.887408 283.326733 
L 584.724722 276.394004 
L 585.562036 283.59735 
L 586.39935 286.298131 
L 587.236664 272.096054 
L 588.073978 265.926257 
L 588.911292 266.866617 
L 589.748606 237.424246 
L 590.58592 265.935442 
L 591.423234 265.436016 
L 592.260548 271.01997 
L 593.097862 266.572695 
L 593.935176 285.368526 
L 594.77249 274.406094 
L 595.609804 270.63237 
L 596.447118 251.305497 
L 597.284432 275.155677 
L 598.121746 287.355103 
L 598.95906 291.151969 
L 599.796374 296.419051 
L 600.633688 304.410796 
L 601.471002 285.142518 
L 602.308316 289.882796 
L 603.14563 307.06325 
L 603.982944 295.327085 
L 604.820258 293.848068 
L 605.657572 309.616528 
L 606.494886 297.878275 
L 607.3322 301.446925 
L 608.169514 276.79756 
L 609.006828 281.945364 
L 609.844142 261.302561 
L 610.681456 267.798636 
L 611.51877 245.722359 
L 612.356084 261.72585 
L 613.193398 275.451036 
L 614.030712 282.860731 
L 614.868026 280.312933 
L 615.70534 282.502777 
L 616.542653 291.460424 
L 617.379967 291.596118 
L 618.217281 282.65259 
L 619.054595 263.84698 
L 619.891909 262.767459 
L 620.729223 256.13923 
L 621.566537 264.922027 
L 622.403851 272.337559 
L 623.241165 273.325314 
L 624.078479 260.07896 
L 624.915793 254.884666 
L 625.753107 251.359855 
L 626.590421 266.280862 
L 627.427735 262.495242 
L 628.265049 268.794777 
L 629.102363 270.087447 
L 629.939677 273.146389 
L 630.776991 255.511948 
L 631.614305 227.175351 
L 632.451619 248.224095 
L 633.288933 255.451605 
L 634.126247 283.263116 
L 634.963561 292.385881 
L 635.800875 286.793097 
L 636.638189 269.304544 
L 637.475503 266.496752 
L 638.312817 281.991336 
L 639.150131 283.521733 
L 639.987445 285.579171 
L 640.824759 289.153791 
L 641.662073 295.567583 
L 642.499387 272.606132 
L 643.336701 264.826172 
L 644.174015 272.748522 
L 645.011329 294.10264 
L 645.848643 278.233301 
L 646.685957 272.352063 
L 647.523271 279.160372 
L 648.360585 281.519467 
L 649.197899 282.354682 
L 650.872527 298.759359 
L 651.709841 295.522337 
L 652.547155 302.535898 
L 653.384469 304.123541 
L 655.059097 277.953513 
L 655.896411 292.958642 
L 656.733725 268.021445 
L 657.571039 274.032569 
L 658.408353 298.210139 
L 659.245667 307.107325 
L 660.082981 271.261297 
L 660.920295 271.00391 
L 661.757609 272.285601 
L 662.594923 291.810437 
L 663.432237 297.190383 
L 664.269551 304.258569 
L 665.106865 299.096483 
L 665.944179 267.024727 
L 666.781493 269.063009 
L 668.456121 296.029437 
L 669.293435 298.134358 
L 670.130749 306.275398 
L 670.968063 311.822669 
L 671.805377 284.178883 
L 672.642691 282.355482 
L 673.480005 275.775478 
L 674.317319 305.364995 
L 675.154633 320.217362 
L 677.666575 295.622948 
L 678.503889 219.320752 
L 679.341203 262.569763 
L 680.178517 229.822604 
L 681.015831 270.11927 
L 681.853145 280.987477 
L 682.690459 286.938984 
L 683.527773 256.133808 
L 684.365087 279.009508 
L 685.202401 259.155119 
L 686.877029 297.544455 
L 687.714343 322.683512 
L 688.551657 301.14638 
L 689.388971 219.610244 
L 690.226285 233.219144 
L 691.063599 269.08818 
L 691.900913 278.326579 
L 692.738227 334.616914 
L 693.575541 335.213121 
L 694.412855 309.05396 
L 695.250169 292.307004 
L 696.087483 238.055692 
L 696.924797 284.832048 
L 697.762111 307.338163 
L 698.599425 287.524502 
L 699.436739 298.957189 
L 700.274053 293.922915 
L 701.111367 281.412589 
L 701.948681 292.76025 
L 702.785995 273.056326 
L 703.623309 270.336019 
L 704.460623 275.226687 
L 705.297937 294.674054 
L 706.135251 281.505348 
L 706.972565 211.607268 
L 707.809879 266.789059 
L 708.647193 289.361177 
L 709.484507 301.924646 
L 710.321821 307.039915 
L 711.159135 294.752856 
L 711.996449 268.64852 
L 712.833763 297.146959 
L 713.671077 290.736946 
L 714.508391 276.615997 
L 715.345705 273.933084 
L 716.183019 224.627999 
L 717.020333 222.143818 
L 717.857647 233.190195 
L 718.694961 250.676437 
L 719.532275 254.486399 
L 720.369589 286.295242 
L 721.206903 265.826727 
L 722.044217 259.946541 
L 722.881531 228.578484 
L 723.718845 247.057193 
L 724.556159 225.907068 
L 725.393473 251.640858 
L 726.230787 207.118614 
L 727.068101 261.182082 
L 727.905415 306.325208 
L 728.742729 308.886309 
L 729.580043 279.399596 
L 730.417357 286.756755 
L 731.254671 280.758046 
L 732.929298 240.054773 
L 733.766612 289.435135 
L 734.603926 278.821397 
L 735.44124 274.374478 
L 736.278554 201.572855 
L 737.115868 179.558031 
L 737.953182 191.593763 
L 738.790496 251.604367 
L 739.62781 237.981274 
L 740.465124 266.223927 
L 741.302438 251.543847 
L 742.977066 213.366103 
L 743.81438 239.509345 
L 744.651694 182.524748 
L 745.489008 195.441459 
L 746.326322 206.09997 
L 747.163636 179.413582 
L 747.163636 179.413582 
" style="fill:none;stroke:#ff0000;stroke-dasharray:5.55,2.4;stroke-dashoffset:0;stroke-width:1.5;"/>
   </g>
   <g id="patch_3">
    <path d="M 108 460.8 
L 108 69.12 
" style="fill:none;stroke:#000000;stroke-linecap:square;stroke-linejoin:miter;stroke-width:0.8;"/>
   </g>
   <g id="patch_4">
    <path d="M 777.6 460.8 
L 777.6 69.12 
" style="fill:none;stroke:#000000;stroke-linecap:square;stroke-linejoin:miter;stroke-width:0.8;"/>
   </g>
   <g id="patch_5">
    <path d="M 108 460.8 
L 777.6 460.8 
" style="fill:none;stroke:#000000;stroke-linecap:square;stroke-linejoin:miter;stroke-width:0.8;"/>
   </g>
   <g id="patch_6">
    <path d="M 108 69.12 
L 777.6 69.12 
" style="fill:none;stroke:#000000;stroke-linecap:square;stroke-linejoin:miter;stroke-width:0.8;"/>
   </g>
   <g id="text_19">
    <!-- Macau residential 2020-2021 | Forecast vs Monitored | LSTM -->
    <g transform="translate(216.121875 63.12)scale(0.15 -0.15)">
     <defs>
      <path d="M 9.8125 72.90625 
L 24.515625 72.90625 
L 43.109375 23.296875 
L 61.8125 72.90625 
L 76.515625 72.90625 
L 76.515625 0 
L 66.890625 0 
L 66.890625 64.015625 
L 48.09375 14.015625 
L 38.1875 14.015625 
L 19.390625 64.015625 
L 19.390625 0 
L 9.8125 0 
z
" id="DejaVuSans-77"/>
      <path d="M 48.78125 52.59375 
L 48.78125 44.1875 
Q 44.96875 46.296875 41.140625 47.34375 
Q 37.3125 48.390625 33.40625 48.390625 
Q 24.65625 48.390625 19.8125 42.84375 
Q 14.984375 37.3125 14.984375 27.296875 
Q 14.984375 17.28125 19.8125 11.734375 
Q 24.65625 6.203125 33.40625 6.203125 
Q 37.3125 6.203125 41.140625 7.25 
Q 44.96875 8.296875 48.78125 10.40625 
L 48.78125 2.09375 
Q 45.015625 0.34375 40.984375 -0.53125 
Q 36.96875 -1.421875 32.421875 -1.421875 
Q 20.0625 -1.421875 12.78125 6.34375 
Q 5.515625 14.109375 5.515625 27.296875 
Q 5.515625 40.671875 12.859375 48.328125 
Q 20.21875 56 33.015625 56 
Q 37.15625 56 41.109375 55.140625 
Q 45.0625 54.296875 48.78125 52.59375 
z
" id="DejaVuSans-99"/>
      <path d="M 8.5 21.578125 
L 8.5 54.6875 
L 17.484375 54.6875 
L 17.484375 21.921875 
Q 17.484375 14.15625 20.5 10.265625 
Q 23.53125 6.390625 29.59375 6.390625 
Q 36.859375 6.390625 41.078125 11.03125 
Q 45.3125 15.671875 45.3125 23.6875 
L 45.3125 54.6875 
L 54.296875 54.6875 
L 54.296875 0 
L 45.3125 0 
L 45.3125 8.40625 
Q 42.046875 3.421875 37.71875 1 
Q 33.40625 -1.421875 27.6875 -1.421875 
Q 18.265625 -1.421875 13.375 4.4375 
Q 8.5 10.296875 8.5 21.578125 
z
M 31.109375 56 
z
" id="DejaVuSans-117"/>
      <path id="DejaVuSans-32"/>
      <path d="M 41.109375 46.296875 
Q 39.59375 47.171875 37.8125 47.578125 
Q 36.03125 48 33.890625 48 
Q 26.265625 48 22.1875 43.046875 
Q 18.109375 38.09375 18.109375 28.8125 
L 18.109375 0 
L 9.078125 0 
L 9.078125 54.6875 
L 18.109375 54.6875 
L 18.109375 46.1875 
Q 20.953125 51.171875 25.484375 53.578125 
Q 30.03125 56 36.53125 56 
Q 37.453125 56 38.578125 55.875 
Q 39.703125 55.765625 41.0625 55.515625 
z
" id="DejaVuSans-114"/>
      <path d="M 44.28125 53.078125 
L 44.28125 44.578125 
Q 40.484375 46.53125 36.375 47.5 
Q 32.28125 48.484375 27.875 48.484375 
Q 21.1875 48.484375 17.84375 46.4375 
Q 14.5 44.390625 14.5 40.28125 
Q 14.5 37.15625 16.890625 35.375 
Q 19.28125 33.59375 26.515625 31.984375 
L 29.59375 31.296875 
Q 39.15625 29.25 43.1875 25.515625 
Q 47.21875 21.78125 47.21875 15.09375 
Q 47.21875 7.46875 41.1875 3.015625 
Q 35.15625 -1.421875 24.609375 -1.421875 
Q 20.21875 -1.421875 15.453125 -0.5625 
Q 10.6875 0.296875 5.421875 2 
L 5.421875 11.28125 
Q 10.40625 8.6875 15.234375 7.390625 
Q 20.0625 6.109375 24.8125 6.109375 
Q 31.15625 6.109375 34.5625 8.28125 
Q 37.984375 10.453125 37.984375 14.40625 
Q 37.984375 18.0625 35.515625 20.015625 
Q 33.0625 21.96875 24.703125 23.78125 
L 21.578125 24.515625 
Q 13.234375 26.265625 9.515625 29.90625 
Q 5.8125 33.546875 5.8125 39.890625 
Q 5.8125 47.609375 11.28125 51.796875 
Q 16.75 56 26.8125 56 
Q 31.78125 56 36.171875 55.265625 
Q 40.578125 54.546875 44.28125 53.078125 
z
" id="DejaVuSans-115"/>
      <path d="M 9.421875 54.6875 
L 18.40625 54.6875 
L 18.40625 0 
L 9.421875 0 
z
M 9.421875 75.984375 
L 18.40625 75.984375 
L 18.40625 64.59375 
L 9.421875 64.59375 
z
" id="DejaVuSans-105"/>
      <path d="M 45.40625 46.390625 
L 45.40625 75.984375 
L 54.390625 75.984375 
L 54.390625 0 
L 45.40625 0 
L 45.40625 8.203125 
Q 42.578125 3.328125 38.25 0.953125 
Q 33.9375 -1.421875 27.875 -1.421875 
Q 17.96875 -1.421875 11.734375 6.484375 
Q 5.515625 14.40625 5.515625 27.296875 
Q 5.515625 40.1875 11.734375 48.09375 
Q 17.96875 56 27.875 56 
Q 33.9375 56 38.25 53.625 
Q 42.578125 51.265625 45.40625 46.390625 
z
M 14.796875 27.296875 
Q 14.796875 17.390625 18.875 11.75 
Q 22.953125 6.109375 30.078125 6.109375 
Q 37.203125 6.109375 41.296875 11.75 
Q 45.40625 17.390625 45.40625 27.296875 
Q 45.40625 37.203125 41.296875 42.84375 
Q 37.203125 48.484375 30.078125 48.484375 
Q 22.953125 48.484375 18.875 42.84375 
Q 14.796875 37.203125 14.796875 27.296875 
z
" id="DejaVuSans-100"/>
      <path d="M 54.890625 33.015625 
L 54.890625 0 
L 45.90625 0 
L 45.90625 32.71875 
Q 45.90625 40.484375 42.875 44.328125 
Q 39.84375 48.1875 33.796875 48.1875 
Q 26.515625 48.1875 22.3125 43.546875 
Q 18.109375 38.921875 18.109375 30.90625 
L 18.109375 0 
L 9.078125 0 
L 9.078125 54.6875 
L 18.109375 54.6875 
L 18.109375 46.1875 
Q 21.34375 51.125 25.703125 53.5625 
Q 30.078125 56 35.796875 56 
Q 45.21875 56 50.046875 50.171875 
Q 54.890625 44.34375 54.890625 33.015625 
z
" id="DejaVuSans-110"/>
      <path d="M 9.421875 75.984375 
L 18.40625 75.984375 
L 18.40625 0 
L 9.421875 0 
z
" id="DejaVuSans-108"/>
      <path d="M 21 76.421875 
L 21 -23.578125 
L 12.703125 -23.578125 
L 12.703125 76.421875 
z
" id="DejaVuSans-124"/>
      <path d="M 9.8125 72.90625 
L 51.703125 72.90625 
L 51.703125 64.59375 
L 19.671875 64.59375 
L 19.671875 43.109375 
L 48.578125 43.109375 
L 48.578125 34.8125 
L 19.671875 34.8125 
L 19.671875 0 
L 9.8125 0 
z
" id="DejaVuSans-70"/>
      <path d="M 30.609375 48.390625 
Q 23.390625 48.390625 19.1875 42.75 
Q 14.984375 37.109375 14.984375 27.296875 
Q 14.984375 17.484375 19.15625 11.84375 
Q 23.34375 6.203125 30.609375 6.203125 
Q 37.796875 6.203125 41.984375 11.859375 
Q 46.1875 17.53125 46.1875 27.296875 
Q 46.1875 37.015625 41.984375 42.703125 
Q 37.796875 48.390625 30.609375 48.390625 
z
M 30.609375 56 
Q 42.328125 56 49.015625 48.375 
Q 55.71875 40.765625 55.71875 27.296875 
Q 55.71875 13.875 49.015625 6.21875 
Q 42.328125 -1.421875 30.609375 -1.421875 
Q 18.84375 -1.421875 12.171875 6.21875 
Q 5.515625 13.875 5.515625 27.296875 
Q 5.515625 40.765625 12.171875 48.375 
Q 18.84375 56 30.609375 56 
z
" id="DejaVuSans-111"/>
      <path d="M 2.984375 54.6875 
L 12.5 54.6875 
L 29.59375 8.796875 
L 46.6875 54.6875 
L 56.203125 54.6875 
L 35.6875 0 
L 23.484375 0 
z
" id="DejaVuSans-118"/>
      <path d="M 9.8125 72.90625 
L 19.671875 72.90625 
L 19.671875 8.296875 
L 55.171875 8.296875 
L 55.171875 0 
L 9.8125 0 
z
" id="DejaVuSans-76"/>
      <path d="M -0.296875 72.90625 
L 61.375 72.90625 
L 61.375 64.59375 
L 35.5 64.59375 
L 35.5 0 
L 25.59375 0 
L 25.59375 64.59375 
L -0.296875 64.59375 
z
" id="DejaVuSans-84"/>
     </defs>
     <use xlink:href="#DejaVuSans-77"/>
     <use x="86.279297" xlink:href="#DejaVuSans-97"/>
     <use x="147.558594" xlink:href="#DejaVuSans-99"/>
     <use x="202.539062" xlink:href="#DejaVuSans-97"/>
     <use x="263.818359" xlink:href="#DejaVuSans-117"/>
     <use x="327.197266" xlink:href="#DejaVuSans-32"/>
     <use x="358.984375" xlink:href="#DejaVuSans-114"/>
     <use x="397.847656" xlink:href="#DejaVuSans-101"/>
     <use x="459.371094" xlink:href="#DejaVuSans-115"/>
     <use x="511.470703" xlink:href="#DejaVuSans-105"/>
     <use x="539.253906" xlink:href="#DejaVuSans-100"/>
     <use x="602.730469" xlink:href="#DejaVuSans-101"/>
     <use x="664.253906" xlink:href="#DejaVuSans-110"/>
     <use x="727.632812" xlink:href="#DejaVuSans-116"/>
     <use x="766.841797" xlink:href="#DejaVuSans-105"/>
     <use x="794.625" xlink:href="#DejaVuSans-97"/>
     <use x="855.904297" xlink:href="#DejaVuSans-108"/>
     <use x="883.6875" xlink:href="#DejaVuSans-32"/>
     <use x="915.474609" xlink:href="#DejaVuSans-50"/>
     <use x="979.097656" xlink:href="#DejaVuSans-48"/>
     <use x="1042.720703" xlink:href="#DejaVuSans-50"/>
     <use x="1106.34375" xlink:href="#DejaVuSans-48"/>
     <use x="1169.966797" xlink:href="#DejaVuSans-45"/>
     <use x="1206.050781" xlink:href="#DejaVuSans-50"/>
     <use x="1269.673828" xlink:href="#DejaVuSans-48"/>
     <use x="1333.296875" xlink:href="#DejaVuSans-50"/>
     <use x="1396.919922" xlink:href="#DejaVuSans-49"/>
     <use x="1460.542969" xlink:href="#DejaVuSans-32"/>
     <use x="1492.330078" xlink:href="#DejaVuSans-124"/>
     <use x="1526.021484" xlink:href="#DejaVuSans-32"/>
     <use x="1557.808594" xlink:href="#DejaVuSans-70"/>
     <use x="1611.703125" xlink:href="#DejaVuSans-111"/>
     <use x="1672.884766" xlink:href="#DejaVuSans-114"/>
     <use x="1711.748047" xlink:href="#DejaVuSans-101"/>
     <use x="1773.271484" xlink:href="#DejaVuSans-99"/>
     <use x="1828.251953" xlink:href="#DejaVuSans-97"/>
     <use x="1889.53125" xlink:href="#DejaVuSans-115"/>
     <use x="1941.630859" xlink:href="#DejaVuSans-116"/>
     <use x="1980.839844" xlink:href="#DejaVuSans-32"/>
     <use x="2012.626953" xlink:href="#DejaVuSans-118"/>
     <use x="2071.806641" xlink:href="#DejaVuSans-115"/>
     <use x="2123.90625" xlink:href="#DejaVuSans-32"/>
     <use x="2155.693359" xlink:href="#DejaVuSans-77"/>
     <use x="2241.972656" xlink:href="#DejaVuSans-111"/>
     <use x="2303.154297" xlink:href="#DejaVuSans-110"/>
     <use x="2366.533203" xlink:href="#DejaVuSans-105"/>
     <use x="2394.316406" xlink:href="#DejaVuSans-116"/>
     <use x="2433.525391" xlink:href="#DejaVuSans-111"/>
     <use x="2494.707031" xlink:href="#DejaVuSans-114"/>
     <use x="2533.570312" xlink:href="#DejaVuSans-101"/>
     <use x="2595.09375" xlink:href="#DejaVuSans-100"/>
     <use x="2658.570312" xlink:href="#DejaVuSans-32"/>
     <use x="2690.357422" xlink:href="#DejaVuSans-124"/>
     <use x="2724.048828" xlink:href="#DejaVuSans-32"/>
     <use x="2755.835938" xlink:href="#DejaVuSans-76"/>
     <use x="2811.548828" xlink:href="#DejaVuSans-83"/>
     <use x="2875.025391" xlink:href="#DejaVuSans-84"/>
     <use x="2936.109375" xlink:href="#DejaVuSans-77"/>
    </g>
   </g>
   <g id="legend_1">
    <g id="patch_7">
     <path d="M 607.123125 114.615 
L 769.2 114.615 
Q 771.6 114.615 771.6 112.215 
L 771.6 77.52 
Q 771.6 75.12 769.2 75.12 
L 607.123125 75.12 
Q 604.723125 75.12 604.723125 77.52 
L 604.723125 112.215 
Q 604.723125 114.615 607.123125 114.615 
z
" style="fill:#ffffff;opacity:0.8;stroke:#cccccc;stroke-linejoin:miter;"/>
    </g>
    <g id="line2d_19">
     <path d="M 609.523125 84.838125 
L 633.523125 84.838125 
" style="fill:none;stroke:#1f77b4;stroke-linecap:square;stroke-width:1.5;"/>
    </g>
    <g id="line2d_20"/>
    <g id="text_20">
     <!-- measured_data_SO2 -->
     <g transform="translate(643.123125 89.038125)scale(0.12 -0.12)">
      <defs>
       <path d="M 50.984375 -16.609375 
L 50.984375 -23.578125 
L -0.984375 -23.578125 
L -0.984375 -16.609375 
z
" id="DejaVuSans-95"/>
      </defs>
      <use xlink:href="#DejaVuSans-109"/>
      <use x="97.412109" xlink:href="#DejaVuSans-101"/>
      <use x="158.935547" xlink:href="#DejaVuSans-97"/>
      <use x="220.214844" xlink:href="#DejaVuSans-115"/>
      <use x="272.314453" xlink:href="#DejaVuSans-117"/>
      <use x="335.693359" xlink:href="#DejaVuSans-114"/>
      <use x="374.556641" xlink:href="#DejaVuSans-101"/>
      <use x="436.080078" xlink:href="#DejaVuSans-100"/>
      <use x="499.556641" xlink:href="#DejaVuSans-95"/>
      <use x="549.556641" xlink:href="#DejaVuSans-100"/>
      <use x="613.033203" xlink:href="#DejaVuSans-97"/>
      <use x="674.3125" xlink:href="#DejaVuSans-116"/>
      <use x="713.521484" xlink:href="#DejaVuSans-97"/>
      <use x="774.800781" xlink:href="#DejaVuSans-95"/>
      <use x="824.800781" xlink:href="#DejaVuSans-83"/>
      <use x="888.277344" xlink:href="#DejaVuSans-79"/>
      <use x="966.988281" xlink:href="#DejaVuSans-50"/>
     </g>
    </g>
    <g id="line2d_21">
     <path d="M 609.523125 102.785625 
L 633.523125 102.785625 
" style="fill:none;stroke:#ff0000;stroke-dasharray:5.55,2.4;stroke-dashoffset:0;stroke-width:1.5;"/>
    </g>
    <g id="line2d_22"/>
    <g id="text_21">
     <!-- predicted_data_SO2 -->
     <g transform="translate(643.123125 106.985625)scale(0.12 -0.12)">
      <use xlink:href="#DejaVuSans-112"/>
      <use x="63.476562" xlink:href="#DejaVuSans-114"/>
      <use x="102.339844" xlink:href="#DejaVuSans-101"/>
      <use x="163.863281" xlink:href="#DejaVuSans-100"/>
      <use x="227.339844" xlink:href="#DejaVuSans-105"/>
      <use x="255.123047" xlink:href="#DejaVuSans-99"/>
      <use x="310.103516" xlink:href="#DejaVuSans-116"/>
      <use x="349.3125" xlink:href="#DejaVuSans-101"/>
      <use x="410.835938" xlink:href="#DejaVuSans-100"/>
      <use x="474.3125" xlink:href="#DejaVuSans-95"/>
      <use x="524.3125" xlink:href="#DejaVuSans-100"/>
      <use x="587.789062" xlink:href="#DejaVuSans-97"/>
      <use x="649.068359" xlink:href="#DejaVuSans-116"/>
      <use x="688.277344" xlink:href="#DejaVuSans-97"/>
      <use x="749.556641" xlink:href="#DejaVuSans-95"/>
      <use x="799.556641" xlink:href="#DejaVuSans-83"/>
      <use x="863.033203" xlink:href="#DejaVuSans-79"/>
      <use x="941.744141" xlink:href="#DejaVuSans-50"/>
     </g>
    </g>
   </g>
  </g>
 </g>
 <defs>
  <clipPath id="pf01421be97">
   <rect height="391.68" width="669.6" x="108" y="69.12"/>
  </clipPath>
 </defs>
</svg>
