<?xml version="1.0" encoding="utf-8" standalone="no"?>
<!DOCTYPE svg PUBLIC "-//W3C//DTD SVG 1.1//EN"
  "http://www.w3.org/Graphics/SVG/1.1/DTD/svg11.dtd">
<!-- Created with matplotlib (https://matplotlib.org/) -->
<svg height="576pt" version="1.1" viewBox="0 0 864 576" width="864pt" xmlns="http://www.w3.org/2000/svg" xmlns:xlink="http://www.w3.org/1999/xlink">
 <metadata>
  <rdf:RDF xmlns:cc="http://creativecommons.org/ns#" xmlns:dc="http://purl.org/dc/elements/1.1/" xmlns:rdf="http://www.w3.org/1999/02/22-rdf-syntax-ns#">
   <cc:Work>
    <dc:type rdf:resource="http://purl.org/dc/dcmitype/StillImage"/>
    <dc:date>2024-03-08T20:47:15.521618</dc:date>
    <dc:format>image/svg+xml</dc:format>
    <dc:creator>
     <cc:Agent>
      <dc:title>Matplotlib v3.3.4, https://matplotlib.org/</dc:title>
     </cc:Agent>
    </dc:creator>
   </cc:Work>
  </rdf:RDF>
 </metadata>
 <defs>
  <style type="text/css">*{stroke-linecap:butt;stroke-linejoin:round;}</style>
 </defs>
 <g id="figure_1">
  <g id="patch_1">
   <path d="M 0 576 
L 864 576 
L 864 0 
L 0 0 
z
" style="fill:#ffffff;"/>
  </g>
  <g id="axes_1">
   <g id="patch_2">
    <path d="M 108 460.8 
L 777.6 460.8 
L 777.6 69.12 
L 108 69.12 
z
" style="fill:#ffffff;"/>
   </g>
   <g id="matplotlib.axis_1">
    <g id="xtick_1">
     <g id="line2d_1">
      <defs>
       <path d="M 0 0 
L 0 3.5 
" id="m724005a577" style="stroke:#000000;stroke-width:0.8;"/>
      </defs>
      <g>
       <use style="stroke:#000000;stroke-width:0.8;" x="138.436364" xlink:href="#m724005a577" y="460.8"/>
      </g>
     </g>
     <g id="text_1">
      <!-- 2020-01 -->
      <g transform="translate(93.766579 500.766215)rotate(-30)scale(0.12 -0.12)">
       <defs>
        <path d="M 19.1875 8.296875 
L 53.609375 8.296875 
L 53.609375 0 
L 7.328125 0 
L 7.328125 8.296875 
Q 12.9375 14.109375 22.625 23.890625 
Q 32.328125 33.6875 34.8125 36.53125 
Q 39.546875 41.84375 41.421875 45.53125 
Q 43.3125 49.21875 43.3125 52.78125 
Q 43.3125 58.59375 39.234375 62.25 
Q 35.15625 65.921875 28.609375 65.921875 
Q 23.96875 65.921875 18.8125 64.3125 
Q 13.671875 62.703125 7.8125 59.421875 
L 7.8125 69.390625 
Q 13.765625 71.78125 18.9375 73 
Q 24.125 74.21875 28.421875 74.21875 
Q 39.75 74.21875 46.484375 68.546875 
Q 53.21875 62.890625 53.21875 53.421875 
Q 53.21875 48.921875 51.53125 44.890625 
Q 49.859375 40.875 45.40625 35.40625 
Q 44.1875 33.984375 37.640625 27.21875 
Q 31.109375 20.453125 19.1875 8.296875 
z
" id="DejaVuSans-50"/>
        <path d="M 31.78125 66.40625 
Q 24.171875 66.40625 20.328125 58.90625 
Q 16.5 51.421875 16.5 36.375 
Q 16.5 21.390625 20.328125 13.890625 
Q 24.171875 6.390625 31.78125 6.390625 
Q 39.453125 6.390625 43.28125 13.890625 
Q 47.125 21.390625 47.125 36.375 
Q 47.125 51.421875 43.28125 58.90625 
Q 39.453125 66.40625 31.78125 66.40625 
z
M 31.78125 74.21875 
Q 44.046875 74.21875 50.515625 64.515625 
Q 56.984375 54.828125 56.984375 36.375 
Q 56.984375 17.96875 50.515625 8.265625 
Q 44.046875 -1.421875 31.78125 -1.421875 
Q 19.53125 -1.421875 13.0625 8.265625 
Q 6.59375 17.96875 6.59375 36.375 
Q 6.59375 54.828125 13.0625 64.515625 
Q 19.53125 74.21875 31.78125 74.21875 
z
" id="DejaVuSans-48"/>
        <path d="M 4.890625 31.390625 
L 31.203125 31.390625 
L 31.203125 23.390625 
L 4.890625 23.390625 
z
" id="DejaVuSans-45"/>
        <path d="M 12.40625 8.296875 
L 28.515625 8.296875 
L 28.515625 63.921875 
L 10.984375 60.40625 
L 10.984375 69.390625 
L 28.421875 72.90625 
L 38.28125 72.90625 
L 38.28125 8.296875 
L 54.390625 8.296875 
L 54.390625 0 
L 12.40625 0 
z
" id="DejaVuSans-49"/>
       </defs>
       <use xlink:href="#DejaVuSans-50"/>
       <use x="63.623047" xlink:href="#DejaVuSans-48"/>
       <use x="127.246094" xlink:href="#DejaVuSans-50"/>
       <use x="190.869141" xlink:href="#DejaVuSans-48"/>
       <use x="254.492188" xlink:href="#DejaVuSans-45"/>
       <use x="290.576172" xlink:href="#DejaVuSans-48"/>
       <use x="354.199219" xlink:href="#DejaVuSans-49"/>
      </g>
     </g>
    </g>
    <g id="xtick_2">
     <g id="line2d_2">
      <g>
       <use style="stroke:#000000;stroke-width:0.8;" x="214.318804" xlink:href="#m724005a577" y="460.8"/>
      </g>
     </g>
     <g id="text_2">
      <!-- 2020-04 -->
      <g transform="translate(169.64902 500.766215)rotate(-30)scale(0.12 -0.12)">
       <defs>
        <path d="M 37.796875 64.3125 
L 12.890625 25.390625 
L 37.796875 25.390625 
z
M 35.203125 72.90625 
L 47.609375 72.90625 
L 47.609375 25.390625 
L 58.015625 25.390625 
L 58.015625 17.1875 
L 47.609375 17.1875 
L 47.609375 0 
L 37.796875 0 
L 37.796875 17.1875 
L 4.890625 17.1875 
L 4.890625 26.703125 
z
" id="DejaVuSans-52"/>
       </defs>
       <use xlink:href="#DejaVuSans-50"/>
       <use x="63.623047" xlink:href="#DejaVuSans-48"/>
       <use x="127.246094" xlink:href="#DejaVuSans-50"/>
       <use x="190.869141" xlink:href="#DejaVuSans-48"/>
       <use x="254.492188" xlink:href="#DejaVuSans-45"/>
       <use x="290.576172" xlink:href="#DejaVuSans-48"/>
       <use x="354.199219" xlink:href="#DejaVuSans-52"/>
      </g>
     </g>
    </g>
    <g id="xtick_3">
     <g id="line2d_3">
      <g>
       <use style="stroke:#000000;stroke-width:0.8;" x="290.201245" xlink:href="#m724005a577" y="460.8"/>
      </g>
     </g>
     <g id="text_3">
      <!-- 2020-07 -->
      <g transform="translate(245.53146 500.766215)rotate(-30)scale(0.12 -0.12)">
       <defs>
        <path d="M 8.203125 72.90625 
L 55.078125 72.90625 
L 55.078125 68.703125 
L 28.609375 0 
L 18.3125 0 
L 43.21875 64.59375 
L 8.203125 64.59375 
z
" id="DejaVuSans-55"/>
       </defs>
       <use xlink:href="#DejaVuSans-50"/>
       <use x="63.623047" xlink:href="#DejaVuSans-48"/>
       <use x="127.246094" xlink:href="#DejaVuSans-50"/>
       <use x="190.869141" xlink:href="#DejaVuSans-48"/>
       <use x="254.492188" xlink:href="#DejaVuSans-45"/>
       <use x="290.576172" xlink:href="#DejaVuSans-48"/>
       <use x="354.199219" xlink:href="#DejaVuSans-55"/>
      </g>
     </g>
    </g>
    <g id="xtick_4">
     <g id="line2d_4">
      <g>
       <use style="stroke:#000000;stroke-width:0.8;" x="366.917559" xlink:href="#m724005a577" y="460.8"/>
      </g>
     </g>
     <g id="text_4">
      <!-- 2020-10 -->
      <g transform="translate(322.247774 500.766215)rotate(-30)scale(0.12 -0.12)">
       <use xlink:href="#DejaVuSans-50"/>
       <use x="63.623047" xlink:href="#DejaVuSans-48"/>
       <use x="127.246094" xlink:href="#DejaVuSans-50"/>
       <use x="190.869141" xlink:href="#DejaVuSans-48"/>
       <use x="254.492188" xlink:href="#DejaVuSans-45"/>
       <use x="290.576172" xlink:href="#DejaVuSans-49"/>
       <use x="354.199219" xlink:href="#DejaVuSans-48"/>
      </g>
     </g>
    </g>
    <g id="xtick_5">
     <g id="line2d_5">
      <g>
       <use style="stroke:#000000;stroke-width:0.8;" x="443.633873" xlink:href="#m724005a577" y="460.8"/>
      </g>
     </g>
     <g id="text_5">
      <!-- 2021-01 -->
      <g transform="translate(398.964088 500.766215)rotate(-30)scale(0.12 -0.12)">
       <use xlink:href="#DejaVuSans-50"/>
       <use x="63.623047" xlink:href="#DejaVuSans-48"/>
       <use x="127.246094" xlink:href="#DejaVuSans-50"/>
       <use x="190.869141" xlink:href="#DejaVuSans-49"/>
       <use x="254.492188" xlink:href="#DejaVuSans-45"/>
       <use x="290.576172" xlink:href="#DejaVuSans-48"/>
       <use x="354.199219" xlink:href="#DejaVuSans-49"/>
      </g>
     </g>
    </g>
    <g id="xtick_6">
     <g id="line2d_6">
      <g>
       <use style="stroke:#000000;stroke-width:0.8;" x="518.682441" xlink:href="#m724005a577" y="460.8"/>
      </g>
     </g>
     <g id="text_6">
      <!-- 2021-04 -->
      <g transform="translate(474.012656 500.766215)rotate(-30)scale(0.12 -0.12)">
       <use xlink:href="#DejaVuSans-50"/>
       <use x="63.623047" xlink:href="#DejaVuSans-48"/>
       <use x="127.246094" xlink:href="#DejaVuSans-50"/>
       <use x="190.869141" xlink:href="#DejaVuSans-49"/>
       <use x="254.492188" xlink:href="#DejaVuSans-45"/>
       <use x="290.576172" xlink:href="#DejaVuSans-48"/>
       <use x="354.199219" xlink:href="#DejaVuSans-52"/>
      </g>
     </g>
    </g>
    <g id="xtick_7">
     <g id="line2d_7">
      <g>
       <use style="stroke:#000000;stroke-width:0.8;" x="594.564882" xlink:href="#m724005a577" y="460.8"/>
      </g>
     </g>
     <g id="text_7">
      <!-- 2021-07 -->
      <g transform="translate(549.895097 500.766215)rotate(-30)scale(0.12 -0.12)">
       <use xlink:href="#DejaVuSans-50"/>
       <use x="63.623047" xlink:href="#DejaVuSans-48"/>
       <use x="127.246094" xlink:href="#DejaVuSans-50"/>
       <use x="190.869141" xlink:href="#DejaVuSans-49"/>
       <use x="254.492188" xlink:href="#DejaVuSans-45"/>
       <use x="290.576172" xlink:href="#DejaVuSans-48"/>
       <use x="354.199219" xlink:href="#DejaVuSans-55"/>
      </g>
     </g>
    </g>
    <g id="xtick_8">
     <g id="line2d_8">
      <g>
       <use style="stroke:#000000;stroke-width:0.8;" x="671.281196" xlink:href="#m724005a577" y="460.8"/>
      </g>
     </g>
     <g id="text_8">
      <!-- 2021-10 -->
      <g transform="translate(626.611411 500.766215)rotate(-30)scale(0.12 -0.12)">
       <use xlink:href="#DejaVuSans-50"/>
       <use x="63.623047" xlink:href="#DejaVuSans-48"/>
       <use x="127.246094" xlink:href="#DejaVuSans-50"/>
       <use x="190.869141" xlink:href="#DejaVuSans-49"/>
       <use x="254.492188" xlink:href="#DejaVuSans-45"/>
       <use x="290.576172" xlink:href="#DejaVuSans-49"/>
       <use x="354.199219" xlink:href="#DejaVuSans-48"/>
      </g>
     </g>
    </g>
    <g id="xtick_9">
     <g id="line2d_9">
      <g>
       <use style="stroke:#000000;stroke-width:0.8;" x="747.997509" xlink:href="#m724005a577" y="460.8"/>
      </g>
     </g>
     <g id="text_9">
      <!-- 2022-01 -->
      <g transform="translate(703.327724 500.766215)rotate(-30)scale(0.12 -0.12)">
       <use xlink:href="#DejaVuSans-50"/>
       <use x="63.623047" xlink:href="#DejaVuSans-48"/>
       <use x="127.246094" xlink:href="#DejaVuSans-50"/>
       <use x="190.869141" xlink:href="#DejaVuSans-50"/>
       <use x="254.492188" xlink:href="#DejaVuSans-45"/>
       <use x="290.576172" xlink:href="#DejaVuSans-48"/>
       <use x="354.199219" xlink:href="#DejaVuSans-49"/>
      </g>
     </g>
    </g>
    <g id="text_10">
     <!-- Date -->
     <g transform="translate(424.873828 518.325146)scale(0.15 -0.15)">
      <defs>
       <path d="M 19.671875 64.796875 
L 19.671875 8.109375 
L 31.59375 8.109375 
Q 46.6875 8.109375 53.6875 14.9375 
Q 60.6875 21.78125 60.6875 36.53125 
Q 60.6875 51.171875 53.6875 57.984375 
Q 46.6875 64.796875 31.59375 64.796875 
z
M 9.8125 72.90625 
L 30.078125 72.90625 
Q 51.265625 72.90625 61.171875 64.09375 
Q 71.09375 55.28125 71.09375 36.53125 
Q 71.09375 17.671875 61.125 8.828125 
Q 51.171875 0 30.078125 0 
L 9.8125 0 
z
" id="DejaVuSans-68"/>
       <path d="M 34.28125 27.484375 
Q 23.390625 27.484375 19.1875 25 
Q 14.984375 22.515625 14.984375 16.5 
Q 14.984375 11.71875 18.140625 8.90625 
Q 21.296875 6.109375 26.703125 6.109375 
Q 34.1875 6.109375 38.703125 11.40625 
Q 43.21875 16.703125 43.21875 25.484375 
L 43.21875 27.484375 
z
M 52.203125 31.203125 
L 52.203125 0 
L 43.21875 0 
L 43.21875 8.296875 
Q 40.140625 3.328125 35.546875 0.953125 
Q 30.953125 -1.421875 24.3125 -1.421875 
Q 15.921875 -1.421875 10.953125 3.296875 
Q 6 8.015625 6 15.921875 
Q 6 25.140625 12.171875 29.828125 
Q 18.359375 34.515625 30.609375 34.515625 
L 43.21875 34.515625 
L 43.21875 35.40625 
Q 43.21875 41.609375 39.140625 45 
Q 35.0625 48.390625 27.6875 48.390625 
Q 23 48.390625 18.546875 47.265625 
Q 14.109375 46.140625 10.015625 43.890625 
L 10.015625 52.203125 
Q 14.9375 54.109375 19.578125 55.046875 
Q 24.21875 56 28.609375 56 
Q 40.484375 56 46.34375 49.84375 
Q 52.203125 43.703125 52.203125 31.203125 
z
" id="DejaVuSans-97"/>
       <path d="M 18.3125 70.21875 
L 18.3125 54.6875 
L 36.8125 54.6875 
L 36.8125 47.703125 
L 18.3125 47.703125 
L 18.3125 18.015625 
Q 18.3125 11.328125 20.140625 9.421875 
Q 21.96875 7.515625 27.59375 7.515625 
L 36.8125 7.515625 
L 36.8125 0 
L 27.59375 0 
Q 17.1875 0 13.234375 3.875 
Q 9.28125 7.765625 9.28125 18.015625 
L 9.28125 47.703125 
L 2.6875 47.703125 
L 2.6875 54.6875 
L 9.28125 54.6875 
L 9.28125 70.21875 
z
" id="DejaVuSans-116"/>
       <path d="M 56.203125 29.59375 
L 56.203125 25.203125 
L 14.890625 25.203125 
Q 15.484375 15.921875 20.484375 11.0625 
Q 25.484375 6.203125 34.421875 6.203125 
Q 39.59375 6.203125 44.453125 7.46875 
Q 49.3125 8.734375 54.109375 11.28125 
L 54.109375 2.78125 
Q 49.265625 0.734375 44.1875 -0.34375 
Q 39.109375 -1.421875 33.890625 -1.421875 
Q 20.796875 -1.421875 13.15625 6.1875 
Q 5.515625 13.8125 5.515625 26.8125 
Q 5.515625 40.234375 12.765625 48.109375 
Q 20.015625 56 32.328125 56 
Q 43.359375 56 49.78125 48.890625 
Q 56.203125 41.796875 56.203125 29.59375 
z
M 47.21875 32.234375 
Q 47.125 39.59375 43.09375 43.984375 
Q 39.0625 48.390625 32.421875 48.390625 
Q 24.90625 48.390625 20.390625 44.140625 
Q 15.875 39.890625 15.1875 32.171875 
z
" id="DejaVuSans-101"/>
      </defs>
      <use xlink:href="#DejaVuSans-68"/>
      <use x="77.001953" xlink:href="#DejaVuSans-97"/>
      <use x="138.28125" xlink:href="#DejaVuSans-116"/>
      <use x="177.490234" xlink:href="#DejaVuSans-101"/>
     </g>
    </g>
   </g>
   <g id="matplotlib.axis_2">
    <g id="ytick_1">
     <g id="line2d_10">
      <defs>
       <path d="M 0 0 
L -3.5 0 
" id="me7d2786bef" style="stroke:#000000;stroke-width:0.8;"/>
      </defs>
      <g>
       <use style="stroke:#000000;stroke-width:0.8;" x="108" xlink:href="#me7d2786bef" y="431.443094"/>
      </g>
     </g>
     <g id="text_11">
      <!-- −2 -->
      <g transform="translate(83.309375 436.002156)scale(0.12 -0.12)">
       <defs>
        <path d="M 10.59375 35.5 
L 73.1875 35.5 
L 73.1875 27.203125 
L 10.59375 27.203125 
z
" id="DejaVuSans-8722"/>
       </defs>
       <use xlink:href="#DejaVuSans-8722"/>
       <use x="83.789062" xlink:href="#DejaVuSans-50"/>
      </g>
     </g>
    </g>
    <g id="ytick_2">
     <g id="line2d_11">
      <g>
       <use style="stroke:#000000;stroke-width:0.8;" x="108" xlink:href="#me7d2786bef" y="386.572171"/>
      </g>
     </g>
     <g id="text_12">
      <!-- 0 -->
      <g transform="translate(93.365 391.131233)scale(0.12 -0.12)">
       <use xlink:href="#DejaVuSans-48"/>
      </g>
     </g>
    </g>
    <g id="ytick_3">
     <g id="line2d_12">
      <g>
       <use style="stroke:#000000;stroke-width:0.8;" x="108" xlink:href="#me7d2786bef" y="341.701248"/>
      </g>
     </g>
     <g id="text_13">
      <!-- 2 -->
      <g transform="translate(93.365 346.260311)scale(0.12 -0.12)">
       <use xlink:href="#DejaVuSans-50"/>
      </g>
     </g>
    </g>
    <g id="ytick_4">
     <g id="line2d_13">
      <g>
       <use style="stroke:#000000;stroke-width:0.8;" x="108" xlink:href="#me7d2786bef" y="296.830325"/>
      </g>
     </g>
     <g id="text_14">
      <!-- 4 -->
      <g transform="translate(93.365 301.389388)scale(0.12 -0.12)">
       <use xlink:href="#DejaVuSans-52"/>
      </g>
     </g>
    </g>
    <g id="ytick_5">
     <g id="line2d_14">
      <g>
       <use style="stroke:#000000;stroke-width:0.8;" x="108" xlink:href="#me7d2786bef" y="251.959403"/>
      </g>
     </g>
     <g id="text_15">
      <!-- 6 -->
      <g transform="translate(93.365 256.518465)scale(0.12 -0.12)">
       <defs>
        <path d="M 33.015625 40.375 
Q 26.375 40.375 22.484375 35.828125 
Q 18.609375 31.296875 18.609375 23.390625 
Q 18.609375 15.53125 22.484375 10.953125 
Q 26.375 6.390625 33.015625 6.390625 
Q 39.65625 6.390625 43.53125 10.953125 
Q 47.40625 15.53125 47.40625 23.390625 
Q 47.40625 31.296875 43.53125 35.828125 
Q 39.65625 40.375 33.015625 40.375 
z
M 52.59375 71.296875 
L 52.59375 62.3125 
Q 48.875 64.0625 45.09375 64.984375 
Q 41.3125 65.921875 37.59375 65.921875 
Q 27.828125 65.921875 22.671875 59.328125 
Q 17.53125 52.734375 16.796875 39.40625 
Q 19.671875 43.65625 24.015625 45.921875 
Q 28.375 48.1875 33.59375 48.1875 
Q 44.578125 48.1875 50.953125 41.515625 
Q 57.328125 34.859375 57.328125 23.390625 
Q 57.328125 12.15625 50.6875 5.359375 
Q 44.046875 -1.421875 33.015625 -1.421875 
Q 20.359375 -1.421875 13.671875 8.265625 
Q 6.984375 17.96875 6.984375 36.375 
Q 6.984375 53.65625 15.1875 63.9375 
Q 23.390625 74.21875 37.203125 74.21875 
Q 40.921875 74.21875 44.703125 73.484375 
Q 48.484375 72.75 52.59375 71.296875 
z
" id="DejaVuSans-54"/>
       </defs>
       <use xlink:href="#DejaVuSans-54"/>
      </g>
     </g>
    </g>
    <g id="ytick_6">
     <g id="line2d_15">
      <g>
       <use style="stroke:#000000;stroke-width:0.8;" x="108" xlink:href="#me7d2786bef" y="207.08848"/>
      </g>
     </g>
     <g id="text_16">
      <!-- 8 -->
      <g transform="translate(93.365 211.647542)scale(0.12 -0.12)">
       <defs>
        <path d="M 31.78125 34.625 
Q 24.75 34.625 20.71875 30.859375 
Q 16.703125 27.09375 16.703125 20.515625 
Q 16.703125 13.921875 20.71875 10.15625 
Q 24.75 6.390625 31.78125 6.390625 
Q 38.8125 6.390625 42.859375 10.171875 
Q 46.921875 13.96875 46.921875 20.515625 
Q 46.921875 27.09375 42.890625 30.859375 
Q 38.875 34.625 31.78125 34.625 
z
M 21.921875 38.8125 
Q 15.578125 40.375 12.03125 44.71875 
Q 8.5 49.078125 8.5 55.328125 
Q 8.5 64.0625 14.71875 69.140625 
Q 20.953125 74.21875 31.78125 74.21875 
Q 42.671875 74.21875 48.875 69.140625 
Q 55.078125 64.0625 55.078125 55.328125 
Q 55.078125 49.078125 51.53125 44.71875 
Q 48 40.375 41.703125 38.8125 
Q 48.828125 37.15625 52.796875 32.3125 
Q 56.78125 27.484375 56.78125 20.515625 
Q 56.78125 9.90625 50.3125 4.234375 
Q 43.84375 -1.421875 31.78125 -1.421875 
Q 19.734375 -1.421875 13.25 4.234375 
Q 6.78125 9.90625 6.78125 20.515625 
Q 6.78125 27.484375 10.78125 32.3125 
Q 14.796875 37.15625 21.921875 38.8125 
z
M 18.3125 54.390625 
Q 18.3125 48.734375 21.84375 45.5625 
Q 25.390625 42.390625 31.78125 42.390625 
Q 38.140625 42.390625 41.71875 45.5625 
Q 45.3125 48.734375 45.3125 54.390625 
Q 45.3125 60.0625 41.71875 63.234375 
Q 38.140625 66.40625 31.78125 66.40625 
Q 25.390625 66.40625 21.84375 63.234375 
Q 18.3125 60.0625 18.3125 54.390625 
z
" id="DejaVuSans-56"/>
       </defs>
       <use xlink:href="#DejaVuSans-56"/>
      </g>
     </g>
    </g>
    <g id="ytick_7">
     <g id="line2d_16">
      <g>
       <use style="stroke:#000000;stroke-width:0.8;" x="108" xlink:href="#me7d2786bef" y="162.217557"/>
      </g>
     </g>
     <g id="text_17">
      <!-- 10 -->
      <g transform="translate(85.73 166.77662)scale(0.12 -0.12)">
       <use xlink:href="#DejaVuSans-49"/>
       <use x="63.623047" xlink:href="#DejaVuSans-48"/>
      </g>
     </g>
    </g>
    <g id="ytick_8">
     <g id="line2d_17">
      <g>
       <use style="stroke:#000000;stroke-width:0.8;" x="108" xlink:href="#me7d2786bef" y="117.346634"/>
      </g>
     </g>
     <g id="text_18">
      <!-- 12 -->
      <g transform="translate(85.73 121.905697)scale(0.12 -0.12)">
       <use xlink:href="#DejaVuSans-49"/>
       <use x="63.623047" xlink:href="#DejaVuSans-50"/>
      </g>
     </g>
    </g>
    <g id="ytick_9">
     <g id="line2d_18">
      <g>
       <use style="stroke:#000000;stroke-width:0.8;" x="108" xlink:href="#me7d2786bef" y="72.475712"/>
      </g>
     </g>
     <g id="text_19">
      <!-- 14 -->
      <g transform="translate(85.73 77.034774)scale(0.12 -0.12)">
       <use xlink:href="#DejaVuSans-49"/>
       <use x="63.623047" xlink:href="#DejaVuSans-52"/>
      </g>
     </g>
    </g>
    <g id="text_20">
     <!-- SO2(ppm) -->
     <g transform="translate(76.189844 303.077578)rotate(-90)scale(0.15 -0.15)">
      <defs>
       <path d="M 53.515625 70.515625 
L 53.515625 60.890625 
Q 47.90625 63.578125 42.921875 64.890625 
Q 37.9375 66.21875 33.296875 66.21875 
Q 25.25 66.21875 20.875 63.09375 
Q 16.5 59.96875 16.5 54.203125 
Q 16.5 49.359375 19.40625 46.890625 
Q 22.3125 44.4375 30.421875 42.921875 
L 36.375 41.703125 
Q 47.40625 39.59375 52.65625 34.296875 
Q 57.90625 29 57.90625 20.125 
Q 57.90625 9.515625 50.796875 4.046875 
Q 43.703125 -1.421875 29.984375 -1.421875 
Q 24.8125 -1.421875 18.96875 -0.25 
Q 13.140625 0.921875 6.890625 3.21875 
L 6.890625 13.375 
Q 12.890625 10.015625 18.65625 8.296875 
Q 24.421875 6.59375 29.984375 6.59375 
Q 38.421875 6.59375 43.015625 9.90625 
Q 47.609375 13.234375 47.609375 19.390625 
Q 47.609375 24.75 44.3125 27.78125 
Q 41.015625 30.8125 33.5 32.328125 
L 27.484375 33.5 
Q 16.453125 35.6875 11.515625 40.375 
Q 6.59375 45.0625 6.59375 53.421875 
Q 6.59375 63.09375 13.40625 68.65625 
Q 20.21875 74.21875 32.171875 74.21875 
Q 37.3125 74.21875 42.625 73.28125 
Q 47.953125 72.359375 53.515625 70.515625 
z
" id="DejaVuSans-83"/>
       <path d="M 39.40625 66.21875 
Q 28.65625 66.21875 22.328125 58.203125 
Q 16.015625 50.203125 16.015625 36.375 
Q 16.015625 22.609375 22.328125 14.59375 
Q 28.65625 6.59375 39.40625 6.59375 
Q 50.140625 6.59375 56.421875 14.59375 
Q 62.703125 22.609375 62.703125 36.375 
Q 62.703125 50.203125 56.421875 58.203125 
Q 50.140625 66.21875 39.40625 66.21875 
z
M 39.40625 74.21875 
Q 54.734375 74.21875 63.90625 63.9375 
Q 73.09375 53.65625 73.09375 36.375 
Q 73.09375 19.140625 63.90625 8.859375 
Q 54.734375 -1.421875 39.40625 -1.421875 
Q 24.03125 -1.421875 14.8125 8.828125 
Q 5.609375 19.09375 5.609375 36.375 
Q 5.609375 53.65625 14.8125 63.9375 
Q 24.03125 74.21875 39.40625 74.21875 
z
" id="DejaVuSans-79"/>
       <path d="M 31 75.875 
Q 24.46875 64.65625 21.28125 53.65625 
Q 18.109375 42.671875 18.109375 31.390625 
Q 18.109375 20.125 21.3125 9.0625 
Q 24.515625 -2 31 -13.1875 
L 23.1875 -13.1875 
Q 15.875 -1.703125 12.234375 9.375 
Q 8.59375 20.453125 8.59375 31.390625 
Q 8.59375 42.28125 12.203125 53.3125 
Q 15.828125 64.359375 23.1875 75.875 
z
" id="DejaVuSans-40"/>
       <path d="M 18.109375 8.203125 
L 18.109375 -20.796875 
L 9.078125 -20.796875 
L 9.078125 54.6875 
L 18.109375 54.6875 
L 18.109375 46.390625 
Q 20.953125 51.265625 25.265625 53.625 
Q 29.59375 56 35.59375 56 
Q 45.5625 56 51.78125 48.09375 
Q 58.015625 40.1875 58.015625 27.296875 
Q 58.015625 14.40625 51.78125 6.484375 
Q 45.5625 -1.421875 35.59375 -1.421875 
Q 29.59375 -1.421875 25.265625 0.953125 
Q 20.953125 3.328125 18.109375 8.203125 
z
M 48.6875 27.296875 
Q 48.6875 37.203125 44.609375 42.84375 
Q 40.53125 48.484375 33.40625 48.484375 
Q 26.265625 48.484375 22.1875 42.84375 
Q 18.109375 37.203125 18.109375 27.296875 
Q 18.109375 17.390625 22.1875 11.75 
Q 26.265625 6.109375 33.40625 6.109375 
Q 40.53125 6.109375 44.609375 11.75 
Q 48.6875 17.390625 48.6875 27.296875 
z
" id="DejaVuSans-112"/>
       <path d="M 52 44.1875 
Q 55.375 50.25 60.0625 53.125 
Q 64.75 56 71.09375 56 
Q 79.640625 56 84.28125 50.015625 
Q 88.921875 44.046875 88.921875 33.015625 
L 88.921875 0 
L 79.890625 0 
L 79.890625 32.71875 
Q 79.890625 40.578125 77.09375 44.375 
Q 74.3125 48.1875 68.609375 48.1875 
Q 61.625 48.1875 57.5625 43.546875 
Q 53.515625 38.921875 53.515625 30.90625 
L 53.515625 0 
L 44.484375 0 
L 44.484375 32.71875 
Q 44.484375 40.625 41.703125 44.40625 
Q 38.921875 48.1875 33.109375 48.1875 
Q 26.21875 48.1875 22.15625 43.53125 
Q 18.109375 38.875 18.109375 30.90625 
L 18.109375 0 
L 9.078125 0 
L 9.078125 54.6875 
L 18.109375 54.6875 
L 18.109375 46.1875 
Q 21.1875 51.21875 25.484375 53.609375 
Q 29.78125 56 35.6875 56 
Q 41.65625 56 45.828125 52.96875 
Q 50 49.953125 52 44.1875 
z
" id="DejaVuSans-109"/>
       <path d="M 8.015625 75.875 
L 15.828125 75.875 
Q 23.140625 64.359375 26.78125 53.3125 
Q 30.421875 42.28125 30.421875 31.390625 
Q 30.421875 20.453125 26.78125 9.375 
Q 23.140625 -1.703125 15.828125 -13.1875 
L 8.015625 -13.1875 
Q 14.5 -2 17.703125 9.0625 
Q 20.90625 20.125 20.90625 31.390625 
Q 20.90625 42.671875 17.703125 53.65625 
Q 14.5 64.65625 8.015625 75.875 
z
" id="DejaVuSans-41"/>
      </defs>
      <use xlink:href="#DejaVuSans-83"/>
      <use x="63.476562" xlink:href="#DejaVuSans-79"/>
      <use x="142.1875" xlink:href="#DejaVuSans-50"/>
      <use x="205.810547" xlink:href="#DejaVuSans-40"/>
      <use x="244.824219" xlink:href="#DejaVuSans-112"/>
      <use x="308.300781" xlink:href="#DejaVuSans-112"/>
      <use x="371.777344" xlink:href="#DejaVuSans-109"/>
      <use x="469.189453" xlink:href="#DejaVuSans-41"/>
     </g>
    </g>
   </g>
   <g id="line2d_19">
    <path clip-path="url(#pf45a015e56)" d="M 138.436364 350.421912 
L 139.270237 350.936245 
L 140.10411 331.514053 
L 140.937983 328.746452 
L 141.771856 341.457823 
L 142.605729 336.838411 
L 143.439601 333.522401 
L 144.273474 321.374346 
L 145.107347 338.714714 
L 145.94122 337.441128 
L 146.775093 339.278031 
L 147.608966 305.25858 
L 148.442839 307.266928 
L 149.276712 334.918447 
L 150.110585 344.372377 
L 150.944458 343.980504 
L 151.778331 327.938214 
L 152.612204 303.323709 
L 153.446077 317.920968 
L 154.27995 314.71251 
L 155.113823 333.081544 
L 155.947696 339.694396 
L 156.781569 338.690222 
L 157.615442 345.13163 
L 158.449315 349.736135 
L 159.283188 352.111863 
L 160.117061 350.128007 
L 160.950934 340.894506 
L 161.784807 324.484836 
L 162.61868 317.774015 
L 164.286426 334.502082 
L 165.120299 342.461997 
L 165.954172 341.555792 
L 166.788045 349.858595 
L 167.621918 348.707469 
L 168.455791 349.246294 
L 169.289664 344.102964 
L 170.123537 348.315596 
L 170.95741 342.364029 
L 171.791283 343.613123 
L 172.625156 342.951838 
L 173.459029 345.841899 
L 175.126775 347.090994 
L 175.960648 347.090994 
L 176.794521 350.740309 
L 177.628394 335.359304 
L 178.462267 325.36655 
L 179.296139 326.615644 
L 180.130012 327.570834 
L 180.963885 332.126354 
L 181.797758 315.716684 
L 182.631631 337.073747 
L 183.465504 338.861667 
L 184.299377 337.637064 
L 185.13325 334.925127 
L 185.967123 338.42081 
L 186.800996 335.579732 
L 187.634869 323.431678 
L 188.468742 340.135253 
L 189.302615 339.816856 
L 190.970361 340.404665 
L 191.804234 336.951287 
L 192.638107 310.744798 
L 195.139726 253.849777 
L 196.807472 334.893955 
L 197.641345 338.714714 
L 198.475218 333.865289 
L 199.309091 335.31032 
L 200.142964 319.26803 
L 200.976837 333.054825 
L 201.81071 337.857493 
L 204.312329 324.729756 
L 205.146202 328.526023 
L 205.980075 333.473417 
L 206.813948 332.19983 
L 207.647821 337.58808 
L 208.481694 336.63289 
L 209.315567 329.603673 
L 210.14944 327.864738 
L 210.983313 326.395215 
L 211.817186 329.407737 
L 212.651059 320.615093 
L 213.484932 306.973023 
L 214.318804 315.202351 
L 215.152677 318.43743 
L 215.98655 320.786537 
L 216.820423 319.317014 
L 217.654296 319.219046 
L 218.488169 321.42333 
L 219.322042 312.042877 
L 220.155915 299.576426 
L 220.989788 300.850012 
L 221.823661 310.867259 
L 222.657534 314.981922 
L 223.491407 297.910967 
L 224.32528 268.691957 
L 225.159153 266.879545 
L 225.993026 265.899863 
L 226.826899 295.339302 
L 227.660772 302.417503 
L 228.494645 306.066818 
L 229.328518 304.05847 
L 230.162391 301.756218 
L 230.996264 304.229914 
L 231.830137 304.548311 
L 234.331756 296.123047 
L 235.165629 278.880647 
L 235.999502 250.151478 
L 236.833375 254.511062 
L 237.667248 292.351272 
L 238.501121 291.665495 
L 239.334994 297.886475 
L 240.168867 298.866156 
L 241.00274 294.996413 
L 241.836613 296.980269 
L 242.670486 296.39246 
L 243.504359 293.208494 
L 244.338232 292.032876 
L 245.172105 292.424749 
L 246.005978 289.534687 
L 246.839851 296.465936 
L 248.507597 274.00673 
L 249.341469 270.479876 
L 250.175342 287.403879 
L 251.009215 313.781812 
L 251.843088 316.133048 
L 252.676961 316.15754 
L 253.510834 312.80213 
L 254.344707 310.108005 
L 255.17858 310.230466 
L 256.012453 307.364896 
L 256.846326 309.642656 
L 257.680199 309.887577 
L 258.514072 310.597846 
L 259.347945 306.164786 
L 260.181818 303.943008 
L 261.015691 300.776536 
L 261.849564 299.87033 
L 262.683437 301.805202 
L 264.351183 308.099658 
L 265.185056 306.21377 
L 266.018929 305.454517 
L 266.852802 302.662424 
L 267.686675 300.654076 
L 268.520548 300.164235 
L 269.354421 297.102729 
L 270.188294 300.531616 
L 271.022167 300.629584 
L 271.85604 296.465936 
L 272.689913 300.139743 
L 273.523786 285.885372 
L 274.357659 280.619583 
L 275.191532 282.725899 
L 276.025405 280.791027 
L 276.859278 277.754013 
L 277.693151 273.659389 
L 278.527024 274.398603 
L 279.360897 271.067685 
L 280.19477 270.994209 
L 281.028643 272.145335 
L 281.862516 254.413094 
L 282.696389 263.524135 
L 283.530262 236.386949 
L 284.364134 256.51941 
L 285.198007 367.468375 
L 286.03188 379.004129 
L 287.699626 369.697152 
L 288.533499 377.755035 
L 289.367372 374.056736 
L 290.201245 380.939 
L 291.035118 375.256846 
L 291.868991 374.081228 
L 292.702864 376.799845 
L 293.536737 374.130212 
L 294.37061 373.003578 
L 295.204483 371.632023 
L 296.038356 372.391277 
L 296.872229 372.244324 
L 297.706102 373.419942 
L 298.539975 371.974912 
L 299.373848 373.248498 
L 300.207721 371.362611 
L 301.041594 370.946246 
L 301.875467 368.96239 
L 302.70934 369.427739 
L 303.543213 371.974912 
L 304.377086 370.970738 
L 305.210959 371.191166 
L 306.044832 368.222305 
L 306.878705 372.146356 
L 307.712578 372.097372 
L 308.546451 367.419391 
L 309.380324 364.994679 
L 310.214197 366.905058 
L 311.04807 369.991056 
L 311.881943 366.68463 
L 312.715816 364.186441 
L 313.549689 366.43971 
L 314.383562 365.974361 
L 315.217435 368.521533 
L 316.051308 366.105727 
L 316.885181 366.660138 
L 317.719054 362.594458 
L 318.552927 362.104618 
L 319.3868 363.598632 
L 320.220672 370.725818 
L 321.054545 370.799294 
L 321.888418 374.203688 
L 322.722291 368.301105 
L 323.556164 363.255744 
L 324.390037 363.133283 
L 325.22391 366.243773 
L 326.057783 363.157775 
L 326.891656 361.96086 
L 327.725529 363.6966 
L 328.559402 367.958216 
L 329.393275 364.749758 
L 330.227148 362.398522 
L 331.061021 360.610603 
L 331.894894 360.390174 
L 332.728767 359.26354 
L 333.56264 357.059256 
L 334.396513 360.880015 
L 335.230386 359.337016 
L 336.064259 358.233585 
L 336.898132 356.789844 
L 337.732005 350.39742 
L 338.565878 350.250468 
L 339.399751 349.123834 
L 340.233624 349.785119 
L 341.067497 349.834103 
L 343.569116 341.310871 
L 344.402989 344.911202 
L 345.236862 347.899231 
L 346.070735 350.323944 
L 346.904608 351.524054 
L 347.738481 350.39742 
L 348.572354 354.83048 
L 349.406227 352.332291 
L 350.2401 330.828276 
L 351.073973 322.770393 
L 351.907846 322.892853 
L 352.741719 325.391042 
L 353.575592 323.368698 
L 354.409465 325.342057 
L 355.243337 307.462864 
L 356.07721 318.386317 
L 356.911083 319.047602 
L 357.744956 323.21125 
L 358.578829 324.117455 
L 359.412702 322.451996 
L 360.246575 321.594775 
L 361.080448 318.533269 
L 361.914321 318.116904 
L 362.748194 321.937663 
L 363.582067 321.692743 
L 364.41594 320.394664 
L 365.249813 322.647933 
L 366.083686 320.590601 
L 366.917559 324.362376 
L 368.585305 321.153918 
L 369.419178 320.247712 
L 370.253051 326.787088 
L 371.086924 326.713612 
L 373.588543 297.910967 
L 374.422416 278.488775 
L 375.256289 299.404981 
L 376.090162 304.131946 
L 376.924035 317.94546 
L 377.757908 319.072094 
L 378.591781 314.614542 
L 379.425654 307.903721 
L 381.0934 287.942704 
L 381.927273 292.645177 
L 382.761146 290.538861 
L 383.595019 288.946878 
L 384.428892 276.406951 
L 385.262765 251.057684 
L 386.096638 242.803865 
L 386.930511 279.517441 
L 387.764384 290.416401 
L 388.598257 290.122496 
L 389.43213 294.286144 
L 390.266002 299.894822 
L 391.099875 295.682191 
L 391.933748 295.731175 
L 392.767621 294.629033 
L 393.601494 277.484601 
L 394.435367 280.423646 
L 395.26924 276.99476 
L 396.103113 279.345996 
L 396.936986 252.845603 
L 397.770859 222.377499 
L 398.604732 218.728184 
L 399.438605 218.875136 
L 400.272478 209.053826 
L 401.106351 253.972237 
L 401.940224 252.344237 
L 402.774097 223.651085 
L 403.60797 242.754881 
L 404.441843 281.599265 
L 405.275716 276.651871 
L 406.109589 287.692459 
L 406.943462 285.248579 
L 407.777335 284.29339 
L 408.611208 286.620134 
L 409.445081 285.787404 
L 410.278954 286.277245 
L 411.9467 279.468457 
L 412.780573 280.644075 
L 413.614446 285.934357 
L 414.448319 280.129742 
L 415.282192 276.357967 
L 416.116065 262.324025 
L 416.949938 254.290634 
L 417.783811 250.837256 
L 418.617684 246.477672 
L 419.451557 256.886791 
L 420.28543 252.674159 
L 421.953176 223.724561 
L 422.787049 190.008812 
L 423.620922 223.82253 
L 424.454795 235.872616 
L 425.288667 214.417584 
L 426.12254 266.525524 
L 426.956413 262.978921 
L 427.790286 283.427145 
L 429.458032 266.879545 
L 430.291905 245.204085 
L 431.125778 236.734291 
L 431.959651 234.72149 
L 432.793524 231.096667 
L 433.627397 209.494683 
L 434.46127 197.665025 
L 435.295143 201.951133 
L 436.129016 212.507205 
L 436.962889 255.588712 
L 437.796762 251.376081 
L 438.630635 273.467905 
L 439.464508 253.727317 
L 440.298381 253.702825 
L 441.132254 263.622103 
L 441.966127 251.645493 
L 442.8 221.397817 
L 443.633873 196.758819 
L 444.467746 195.191329 
L 445.301619 216.40144 
L 446.135492 179.687864 
L 446.969365 123.821508 
L 447.803238 226.124782 
L 448.637111 241.334342 
L 449.470984 234.84395 
L 450.304857 195.901598 
L 451.13873 174.25063 
L 451.972603 189.925539 
L 452.806476 156.665341 
L 453.640349 172.34025 
L 454.474222 177.067215 
L 455.308095 210.425381 
L 456.141968 232.198809 
L 456.975841 229.602652 
L 457.809714 188.896873 
L 458.643587 237.3221 
L 459.47746 243.661086 
L 460.311333 239.840327 
L 461.145205 249.147304 
L 461.979078 250.229853 
L 462.812951 258.160377 
L 463.646824 254.217158 
L 464.480697 255.44176 
L 465.31457 249.220781 
L 466.148443 253.017048 
L 466.982316 236.337965 
L 467.816189 245.228577 
L 468.650062 239.325994 
L 469.483935 248.118639 
L 470.317808 238.885137 
L 471.151681 246.330719 
L 471.985554 242.877341 
L 472.819427 248.339067 
L 473.6533 237.293155 
L 474.487173 239.913803 
L 475.321046 247.506337 
L 476.154919 249.049336 
L 476.988792 260.046265 
L 477.822665 257.254171 
L 478.656538 243.391674 
L 479.490411 240.036264 
L 480.324284 250.592335 
L 481.158157 239.350486 
L 481.99203 242.338516 
L 482.825903 244.910181 
L 483.659776 230.65581 
L 484.493649 230.65581 
L 485.327522 232.909078 
L 486.161395 242.460976 
L 486.995268 243.906007 
L 487.829141 237.170694 
L 488.663014 246.869544 
L 489.496887 245.571466 
L 490.33076 244.934673 
L 491.164633 240.085248 
L 491.998506 239.105566 
L 492.832379 233.913252 
L 493.666252 230.312922 
L 494.500125 243.489642 
L 495.333998 239.39947 
L 496.16787 236.337965 
L 497.001743 244.395848 
L 497.835616 237.268662 
L 498.669489 244.395848 
L 499.503362 238.762677 
L 500.337235 241.701723 
L 501.171108 240.35466 
L 502.004981 226.173766 
L 502.838854 236.215505 
L 503.672727 238.174868 
L 504.5066 237.513583 
L 505.340473 238.493265 
L 506.174346 239.693375 
L 507.008219 242.803865 
L 507.842092 244.640768 
L 508.675965 247.824734 
L 509.509838 234.72149 
L 510.343711 214.515552 
L 511.177584 198.056898 
L 512.011457 141.762464 
L 513.679203 304.303391 
L 514.513076 312.998067 
L 515.346949 311.3571 
L 516.180822 314.785986 
L 517.014695 311.332608 
L 517.848568 305.96885 
L 518.682441 309.054847 
L 519.516314 309.691641 
L 520.350187 311.308116 
L 521.18406 310.52437 
L 522.017933 313.022559 
L 522.851806 313.145019 
L 523.685679 315.128875 
L 524.519552 313.5124 
L 525.353425 313.242987 
L 526.187298 311.259131 
L 527.021171 314.883954 
L 527.855044 314.810478 
L 528.688917 313.242987 
L 529.52279 313.585876 
L 530.356663 313.340955 
L 531.190535 314.883954 
L 532.024408 311.087687 
L 532.858281 315.07989 
L 533.692154 311.699988 
L 534.526027 312.336781 
L 535.3599 313.610368 
L 536.193773 311.969401 
L 537.027646 309.401235 
L 537.861519 317.480111 
L 538.695392 315.863636 
L 539.529265 317.847492 
L 540.363138 312.532718 
L 541.197011 309.618164 
L 542.030884 310.769291 
L 542.864757 306.899547 
L 543.69863 312.067369 
L 544.532503 311.969401 
L 545.366376 311.699988 
L 546.200249 307.095484 
L 547.034122 306.899547 
L 547.867995 310.891751 
L 548.701868 308.565006 
L 549.535741 305.650453 
L 550.369614 307.144468 
L 551.203487 307.634309 
L 552.03736 306.924039 
L 552.871233 307.193452 
L 553.705106 306.042326 
L 554.538979 303.568629 
L 555.372852 305.405533 
L 556.206725 308.393562 
L 557.040598 307.29142 
L 557.874471 305.111628 
L 558.708344 306.679119 
L 559.542217 306.703611 
L 560.37609 306.409706 
L 561.209963 309.030355 
L 562.043836 310.867259 
L 562.877709 314.075717 
L 563.711582 311.822448 
L 564.545455 310.205973 
L 565.379328 305.332056 
L 566.2132 305.062644 
L 567.047073 306.409706 
L 567.880946 307.389388 
L 568.714819 304.376867 
L 569.548692 305.430025 
L 570.382565 303.152264 
L 572.050311 304.425851 
L 572.884184 304.401359 
L 573.718057 304.033978 
L 574.55193 306.605643 
L 575.385803 308.026181 
L 577.053549 313.63486 
L 578.721295 264.258896 
L 579.555168 258.037917 
L 580.389041 258.086901 
L 581.222914 257.768504 
L 582.056787 260.83001 
L 582.89066 256.39695 
L 583.724533 258.968615 
L 584.558406 260.168725 
L 585.392279 262.617929 
L 586.226152 258.870646 
L 587.060025 261.466803 
L 587.893898 255.784649 
L 588.727771 256.27449 
L 589.561644 256.543902 
L 590.395517 254.462078 
L 591.22939 258.307329 
L 592.063263 255.417268 
L 593.731009 256.054061 
L 594.564882 257.4746 
L 595.398755 255.735665 
L 596.232628 256.586207 
L 597.066501 258.846154 
L 598.734247 261.711724 
L 599.56812 256.64187 
L 600.401993 263.083278 
L 601.235866 264.06296 
L 602.069738 259.556424 
L 602.903611 261.197391 
L 603.737484 258.79717 
L 605.40523 255.44176 
L 606.239103 260.683058 
L 607.072976 256.813315 
L 607.906849 258.968615 
L 608.740722 261.7852 
L 609.574595 261.711724 
L 610.408468 259.580916 
L 611.242341 258.037917 
L 612.076214 257.180695 
L 612.910087 260.046265 
L 613.74396 258.625726 
L 614.577833 261.344343 
L 615.411706 259.556424 
L 616.245579 260.462629 
L 617.079452 257.156203 
L 617.913325 257.254171 
L 618.747198 259.50744 
L 619.581071 259.703376 
L 620.414944 257.499092 
L 621.248817 254.168174 
L 622.08269 262.005628 
L 622.916563 255.270316 
L 623.750436 256.715346 
L 624.584309 252.821111 
L 625.418182 253.335444 
L 626.252055 253.457904 
L 627.085928 256.005077 
L 627.919801 253.727317 
L 628.753674 253.310952 
L 629.587547 255.221332 
L 630.42142 254.535554 
L 631.255293 252.429239 
L 632.089166 254.021221 
L 632.923039 253.653841 
L 633.756912 251.547525 
L 634.590785 254.853951 
L 635.424658 256.201014 
L 636.258531 254.413094 
L 637.092403 254.682507 
L 637.926276 252.551699 
L 638.760149 253.066032 
L 639.594022 252.257794 
L 640.427895 252.159826 
L 641.261768 255.686681 
L 642.095641 253.776301 
L 642.929514 254.24165 
L 643.763387 256.127537 
L 644.59726 254.706999 
L 645.431133 257.009251 
L 646.265006 253.800793 
L 647.098879 253.506889 
L 647.932752 258.821662 
L 648.766625 255.711173 
L 649.600498 257.59706 
L 650.434371 254.413094 
L 651.268244 255.221332 
L 652.102117 256.837807 
L 652.93599 256.225506 
L 653.769863 260.389153 
L 655.437609 256.911283 
L 656.271482 257.695028 
L 657.105355 253.40892 
L 657.939228 255.931601 
L 658.773101 254.315126 
L 659.606974 254.217158 
L 660.440847 257.964441 
L 661.27472 255.907109 
L 662.108593 253.017048 
L 662.942466 258.67471 
L 663.776339 261.760708 
L 665.444085 257.915457 
L 666.277958 260.021773 
L 667.111831 257.450108 
L 667.945704 261.981136 
L 668.779577 259.776852 
L 669.61345 260.756534 
L 670.447323 261.001454 
L 671.281196 261.393327 
L 672.115068 259.678884 
L 672.948941 258.454282 
L 673.782814 258.233853 
L 674.616687 257.744012 
L 675.45056 258.846154 
L 676.284433 258.478774 
L 677.118306 259.238027 
L 677.952179 256.51941 
L 678.786052 221.177389 
L 679.619925 246.029817 
L 680.453798 258.282837 
L 681.287671 262.03012 
L 682.121544 258.699202 
L 682.955417 252.625175 
L 683.78929 253.04154 
L 684.623163 254.804967 
L 685.457036 252.992556 
L 686.290909 249.289358 
L 687.124782 251.792445 
L 687.958655 251.939398 
L 688.792528 250.788271 
L 689.626401 248.779924 
L 690.460274 249.024844 
L 691.294147 249.431789 
L 692.12802 251.795944 
L 692.961893 262.887342 
L 693.795766 265.532483 
L 694.629639 263.622103 
L 695.463512 262.373009 
L 696.297385 260.119741 
L 697.965131 265.924356 
L 698.799004 265.287562 
L 699.632877 266.267244 
L 700.46675 266.291736 
L 701.300623 262.715898 
L 702.134496 264.822213 
L 702.968369 264.381357 
L 704.636115 234.329617 
L 705.469988 227.54532 
L 706.303861 198.633574 
L 707.137733 195.92609 
L 707.971606 227.520828 
L 708.805479 251.645493 
L 709.639352 245.424514 
L 710.473225 243.293706 
L 711.307098 244.963618 
L 712.140971 242.07801 
L 712.974844 261.048212 
L 713.808717 260.674152 
L 714.64259 258.189322 
L 715.476463 234.356336 
L 717.144209 197.270926 
L 717.978082 191.472991 
L 718.811955 213.783018 
L 719.645828 228.451526 
L 720.479701 228.879024 
L 721.313574 231.123386 
L 722.147447 215.386133 
L 722.98132 191.660021 
L 723.815193 204.752132 
L 724.649066 188.213322 
L 725.482939 201.171841 
L 726.316812 198.393107 
L 727.150685 204.645258 
L 727.984558 245.604864 
L 728.818431 251.723422 
L 729.652304 250.81499 
L 730.486177 254.288407 
L 731.32005 249.185156 
L 732.153923 237.295381 
L 732.987796 231.978381 
L 733.821669 242.612381 
L 735.489415 230.508858 
L 737.157161 173.678407 
L 738.824907 238.203813 
L 739.65878 229.359958 
L 740.492653 218.912988 
L 741.326526 212.847867 
L 742.160399 217.14956 
L 742.994271 224.791079 
L 743.828144 221.050475 
L 744.662017 185.675056 
L 745.49589 176.751045 
L 746.329763 192.595172 
L 747.163636 184.926935 
L 747.163636 184.926935 
" style="fill:none;stroke:#1f77b4;stroke-linecap:square;stroke-width:1.5;"/>
   </g>
   <g id="line2d_20">
    <path clip-path="url(#pf45a015e56)" d="M 138.436364 332.65823 
L 139.270237 340.308526 
L 140.10411 317.002173 
L 140.937983 311.562139 
L 141.771856 314.660983 
L 142.605729 334.960036 
L 143.439601 298.071215 
L 144.273474 277.209599 
L 145.107347 348.415488 
L 145.94122 319.370965 
L 146.775093 301.703501 
L 147.608966 309.851829 
L 148.442839 306.809846 
L 149.276712 307.140994 
L 150.110585 339.343032 
L 150.944458 332.699953 
L 152.612204 293.238644 
L 153.446077 322.190915 
L 154.27995 363.366329 
L 155.113823 319.609521 
L 155.947696 330.795992 
L 156.781569 323.388509 
L 157.615442 356.423276 
L 158.449315 333.475252 
L 159.283188 355.819178 
L 160.117061 407.022186 
L 161.784807 365.834948 
L 162.61868 294.409996 
L 163.452553 317.336017 
L 164.286426 305.655675 
L 165.120299 320.867591 
L 165.954172 345.43327 
L 166.788045 342.211035 
L 167.621918 349.847177 
L 169.289664 320.672325 
L 170.123537 325.224329 
L 171.791283 347.312716 
L 172.625156 337.548004 
L 173.459029 329.740291 
L 174.292902 336.759145 
L 175.126775 324.117737 
L 175.960648 319.764734 
L 176.794521 320.222172 
L 177.628394 308.49814 
L 178.462267 333.174834 
L 179.296139 242.623482 
L 180.130012 323.116645 
L 180.963885 309.961495 
L 182.631631 287.505766 
L 183.465504 319.952811 
L 184.299377 307.042342 
L 185.13325 296.383285 
L 185.967123 323.818502 
L 186.800996 332.463563 
L 187.634869 301.739452 
L 188.468742 313.839174 
L 189.302615 308.600418 
L 190.136488 307.595335 
L 190.970361 328.129222 
L 191.804234 336.778482 
L 192.638107 303.363894 
L 193.47198 284.136134 
L 194.305853 230.900878 
L 195.139726 228.960431 
L 195.973599 280.53108 
L 196.807472 281.039024 
L 197.641345 276.62878 
L 198.475218 293.445448 
L 199.309091 295.92406 
L 200.142964 301.900495 
L 200.976837 313.734365 
L 201.81071 318.7693 
L 202.644583 291.15434 
L 203.478456 281.84278 
L 204.312329 329.194519 
L 205.146202 321.49982 
L 205.980075 315.54682 
L 206.813948 303.91525 
L 207.647821 307.039357 
L 208.481694 319.032778 
L 209.315567 290.500892 
L 210.14944 277.294659 
L 210.983313 289.872381 
L 211.817186 280.595856 
L 212.651059 278.018276 
L 213.484932 289.46318 
L 214.318804 318.024416 
L 215.152677 283.163102 
L 215.98655 333.790363 
L 216.820423 309.318799 
L 217.654296 298.659464 
L 218.488169 309.133064 
L 219.322042 299.356737 
L 220.155915 272.842639 
L 220.989788 294.702106 
L 221.823661 296.607891 
L 222.657534 357.315056 
L 223.491407 291.512051 
L 224.32528 278.041929 
L 225.159153 278.055912 
L 225.993026 269.781389 
L 226.826899 267.359348 
L 227.660772 299.016988 
L 228.494645 257.005903 
L 229.328518 296.443708 
L 230.162391 293.559072 
L 230.996264 323.51756 
L 231.830137 341.025425 
L 232.66401 328.119652 
L 233.497883 290.731307 
L 234.331756 294.608488 
L 235.999502 272.119076 
L 236.833375 253.674751 
L 237.667248 281.487369 
L 238.501121 282.811264 
L 239.334994 251.066393 
L 240.168867 266.475645 
L 241.00274 302.519004 
L 241.836613 268.289844 
L 242.670486 262.877577 
L 243.504359 214.915952 
L 244.338232 253.894746 
L 245.172105 220.951927 
L 246.005978 241.742486 
L 246.839851 277.998153 
L 247.673724 277.196194 
L 248.507597 195.391476 
L 249.341469 205.863958 
L 250.175342 265.910766 
L 251.009215 231.596423 
L 251.843088 231.791256 
L 253.510834 265.585385 
L 254.344707 230.917332 
L 255.17858 204.407246 
L 256.012453 342.589158 
L 256.846326 294.369482 
L 257.680199 212.231937 
L 258.514072 175.74057 
L 259.347945 302.448081 
L 260.181818 272.377894 
L 261.015691 256.48786 
L 261.849564 228.15353 
L 262.683437 208.043678 
L 263.51731 391.321967 
L 264.351183 277.34525 
L 265.185056 259.36183 
L 266.018929 252.395541 
L 266.852802 236.873948 
L 267.686675 232.515076 
L 268.520548 253.446701 
L 269.354421 304.763157 
L 270.188294 291.079122 
L 271.022167 321.585314 
L 271.85604 223.579178 
L 272.689913 279.527452 
L 273.523786 275.288494 
L 274.357659 273.761967 
L 275.191532 260.579355 
L 276.025405 216.299768 
L 276.859278 252.4559 
L 277.693151 248.489465 
L 278.527024 269.145956 
L 279.360897 261.114001 
L 280.19477 260.871615 
L 281.028643 272.787288 
L 281.862516 265.023972 
L 282.696389 248.664549 
L 283.530262 253.527717 
L 284.364134 198.451464 
L 285.198007 279.877257 
L 286.03188 324.303734 
L 286.865753 344.075113 
L 287.699626 345.193965 
L 288.533499 330.838163 
L 289.367372 326.706043 
L 290.201245 296.431908 
L 291.035118 328.666002 
L 291.868991 333.719735 
L 292.702864 361.590868 
L 293.536737 352.955029 
L 294.37061 333.540569 
L 295.204483 335.74131 
L 296.038356 321.578836 
L 297.706102 297.679152 
L 298.539975 352.068181 
L 299.373848 336.148628 
L 300.207721 344.404988 
L 301.041594 354.235201 
L 301.875467 317.607988 
L 302.70934 339.480855 
L 303.543213 337.01363 
L 304.377086 353.848691 
L 305.210959 361.043373 
L 306.044832 298.065973 
L 306.878705 350.502487 
L 307.712578 308.099813 
L 308.546451 340.602862 
L 309.380324 344.924962 
L 310.214197 341.327993 
L 311.04807 354.41954 
L 311.881943 343.231673 
L 312.715816 336.384333 
L 313.549689 348.651578 
L 314.383562 347.348832 
L 315.217435 315.647387 
L 316.051308 368.841852 
L 316.885181 341.244633 
L 317.719054 323.639951 
L 318.552927 275.99814 
L 319.3868 358.5784 
L 320.220672 297.509818 
L 321.054545 302.539902 
L 321.888418 354.59763 
L 322.722291 344.973595 
L 323.556164 338.702143 
L 324.390037 321.133968 
L 325.22391 333.900671 
L 326.057783 328.292426 
L 326.891656 330.465475 
L 327.725529 331.322395 
L 328.559402 368.191421 
L 329.393275 284.02313 
L 330.227148 268.323479 
L 331.061021 401.46833 
L 331.894894 296.361001 
L 333.56264 338.567834 
L 334.396513 335.940262 
L 335.230386 345.214296 
L 336.064259 308.633967 
L 336.898132 281.669268 
L 337.732005 263.595449 
L 338.565878 258.243551 
L 339.399751 326.45498 
L 340.233624 279.835684 
L 341.067497 252.211641 
L 343.569116 251.103654 
L 344.402989 269.865561 
L 345.236862 267.153314 
L 346.070735 296.655326 
L 346.904608 267.647072 
L 347.738481 304.167693 
L 348.572354 288.965239 
L 349.406227 288.712583 
L 350.2401 281.739661 
L 351.073973 222.20666 
L 351.907846 290.049487 
L 352.741719 255.980922 
L 353.575592 234.328505 
L 354.409465 296.66825 
L 356.07721 241.527701 
L 356.911083 255.235641 
L 357.744956 273.880383 
L 358.578829 273.259586 
L 359.412702 269.277938 
L 360.246575 289.873686 
L 361.080448 251.085307 
L 361.914321 300.87836 
L 362.748194 279.404563 
L 363.582067 307.527044 
L 364.41594 362.99026 
L 365.249813 241.208525 
L 366.083686 311.221326 
L 366.917559 269.450231 
L 367.751432 260.965309 
L 368.585305 292.871336 
L 369.419178 283.141471 
L 370.253051 271.731614 
L 371.086924 262.405086 
L 371.920797 298.280629 
L 372.75467 288.939435 
L 373.588543 268.573407 
L 374.422416 277.587465 
L 375.256289 292.077251 
L 376.090162 261.935377 
L 376.924035 284.334187 
L 377.757908 282.585493 
L 378.591781 300.698199 
L 379.425654 280.496311 
L 380.259527 305.635531 
L 381.0934 266.241957 
L 381.927273 263.36559 
L 382.761146 272.04052 
L 383.595019 255.716958 
L 384.428892 271.345628 
L 385.262765 212.003768 
L 386.096638 200.417211 
L 386.930511 228.986011 
L 387.764384 274.447349 
L 388.598257 249.735671 
L 389.43213 250.026541 
L 390.266002 258.035292 
L 391.099875 291.013019 
L 391.933748 306.072097 
L 392.767621 285.28778 
L 393.601494 286.979689 
L 394.435367 260.197135 
L 396.103113 291.092698 
L 396.936986 236.659998 
L 397.770859 227.968037 
L 398.604732 242.558053 
L 399.438605 228.375568 
L 400.272478 226.147002 
L 401.106351 260.912043 
L 401.940224 275.752362 
L 402.774097 219.444356 
L 403.60797 228.346513 
L 404.441843 257.06133 
L 405.275716 258.342572 
L 406.109589 267.746853 
L 406.943462 250.779503 
L 407.777335 244.257879 
L 408.611208 239.534727 
L 409.445081 256.289176 
L 410.278954 265.855618 
L 411.112827 284.634781 
L 411.9467 266.733362 
L 412.780573 268.542243 
L 413.614446 258.358245 
L 414.448319 284.797253 
L 415.282192 271.812363 
L 416.116065 271.060717 
L 416.949938 275.757487 
L 417.783811 239.518263 
L 418.617684 279.953352 
L 419.451557 294.380993 
L 420.28543 303.826243 
L 421.119303 268.648411 
L 421.953176 223.263446 
L 422.787049 244.184961 
L 423.620922 287.866847 
L 424.454795 235.422018 
L 425.288667 229.57113 
L 426.12254 222.142418 
L 426.956413 274.75556 
L 427.790286 248.151032 
L 428.624159 300.507335 
L 429.458032 300.885174 
L 430.291905 298.349942 
L 431.125778 277.774478 
L 431.959651 278.50078 
L 432.793524 292.883564 
L 434.46127 237.656223 
L 435.295143 246.936909 
L 436.129016 184.506904 
L 436.962889 273.965583 
L 437.796762 265.436329 
L 438.630635 251.361648 
L 439.464508 253.478517 
L 440.298381 253.341014 
L 441.132254 277.769781 
L 441.966127 282.734313 
L 442.8 292.121285 
L 443.633873 219.757381 
L 444.467746 137.100648 
L 445.301619 167.833119 
L 446.135492 187.423324 
L 446.969365 154.531577 
L 447.803238 206.830079 
L 448.637111 298.96837 
L 449.470984 296.558809 
L 450.304857 265.197248 
L 451.13873 268.644827 
L 451.972603 302.43949 
L 452.806476 120.400674 
L 453.640349 86.923636 
L 454.474222 87.946007 
L 455.308095 169.806484 
L 456.141968 210.623997 
L 456.975841 260.982683 
L 457.809714 178.372186 
L 459.47746 219.104286 
L 460.311333 225.573329 
L 461.145205 246.934908 
L 461.979078 247.675161 
L 462.812951 257.404652 
L 463.646824 229.171376 
L 464.480697 216.216216 
L 465.31457 264.407132 
L 466.148443 259.4357 
L 466.982316 224.177114 
L 467.816189 250.702498 
L 468.650062 253.456008 
L 469.483935 244.838655 
L 470.317808 242.700872 
L 471.151681 258.681583 
L 471.985554 225.100785 
L 472.819427 219.989133 
L 473.6533 217.043026 
L 475.321046 273.082854 
L 476.154919 241.189728 
L 476.988792 315.297897 
L 477.822665 265.785524 
L 478.656538 235.839895 
L 479.490411 246.598796 
L 481.158157 203.630053 
L 481.99203 222.039674 
L 482.825903 263.503991 
L 483.659776 210.015566 
L 484.493649 226.370998 
L 485.327522 211.674183 
L 486.161395 228.093803 
L 486.995268 241.909815 
L 487.829141 228.890327 
L 488.663014 252.014904 
L 489.496887 222.818407 
L 490.33076 242.856893 
L 491.164633 231.15316 
L 491.998506 231.568865 
L 492.832379 235.751069 
L 493.666252 261.489461 
L 494.500125 266.404353 
L 495.333998 239.205494 
L 496.16787 224.980068 
L 497.001743 258.231665 
L 497.835616 280.196166 
L 498.669489 268.702072 
L 499.503362 267.897065 
L 500.337235 263.016438 
L 501.171108 265.361528 
L 502.004981 252.96517 
L 502.838854 267.736572 
L 503.672727 251.920686 
L 504.5066 226.534047 
L 505.340473 232.837955 
L 506.174346 237.500619 
L 507.008219 189.715662 
L 507.842092 206.809367 
L 508.675965 229.437843 
L 509.509838 294.231156 
L 510.343711 275.3905 
L 512.011457 162.036332 
L 513.679203 247.577284 
L 514.513076 250.907323 
L 515.346949 264.196584 
L 516.180822 234.041305 
L 517.014695 265.150498 
L 517.848568 267.730111 
L 518.682441 288.943308 
L 519.516314 287.53095 
L 520.350187 283.866147 
L 521.18406 273.109396 
L 522.017933 299.951164 
L 522.851806 280.815937 
L 523.685679 294.797426 
L 524.519552 286.463411 
L 525.353425 301.862924 
L 526.187298 282.24263 
L 527.021171 290.167958 
L 527.855044 286.292114 
L 528.688917 300.99813 
L 529.52279 267.191998 
L 530.356663 262.36668 
L 531.190535 306.137746 
L 532.024408 297.052802 
L 532.858281 261.665775 
L 533.692154 253.65297 
L 534.526027 255.041782 
L 535.3599 278.114847 
L 537.027646 297.990225 
L 538.695392 263.786324 
L 539.529265 265.231396 
L 540.363138 318.764256 
L 541.197011 251.837445 
L 542.030884 282.219041 
L 542.864757 280.686886 
L 543.69863 288.797429 
L 544.532503 247.889025 
L 545.366376 321.739371 
L 546.200249 254.76805 
L 547.034122 270.455806 
L 547.867995 270.369825 
L 548.701868 292.341365 
L 549.535741 294.042967 
L 550.369614 279.942879 
L 551.203487 298.655901 
L 552.03736 303.278416 
L 552.871233 263.447227 
L 553.705106 285.077617 
L 554.538979 298.288739 
L 556.206725 299.748173 
L 557.040598 303.189868 
L 557.874471 292.894305 
L 558.708344 301.697548 
L 559.542217 259.41976 
L 560.37609 308.745045 
L 562.043836 302.093606 
L 562.877709 264.975595 
L 563.711582 317.540045 
L 564.545455 294.066588 
L 565.379328 307.405712 
L 566.2132 293.559265 
L 567.047073 264.096632 
L 567.880946 295.105028 
L 568.714819 219.568625 
L 569.548692 404.093816 
L 570.382565 206.693593 
L 571.216438 286.687964 
L 572.050311 251.866693 
L 572.884184 222.262792 
L 573.718057 292.945067 
L 574.55193 285.247566 
L 575.385803 274.499448 
L 576.219676 268.867849 
L 577.053549 303.356132 
L 577.887422 299.040737 
L 578.721295 215.532331 
L 579.555168 213.706354 
L 580.389041 217.719251 
L 581.222914 243.676386 
L 582.89066 265.041966 
L 583.724533 266.203069 
L 584.558406 276.022071 
L 585.392279 230.305017 
L 586.226152 220.990183 
L 587.060025 225.354586 
L 587.893898 272.244618 
L 588.727771 305.053 
L 589.561644 180.51167 
L 590.395517 175.965444 
L 591.22939 200.813403 
L 592.063263 357.73166 
L 592.897136 184.90637 
L 593.731009 195.449566 
L 594.564882 202.00367 
L 595.398755 243.968485 
L 596.232628 208.331905 
L 597.066501 248.83635 
L 597.900374 254.774961 
L 598.734247 258.858978 
L 599.56812 250.929233 
L 600.401993 259.061257 
L 601.235866 272.214888 
L 602.069738 262.669692 
L 602.903611 272.201012 
L 603.737484 254.503605 
L 604.571357 243.316674 
L 605.40523 248.178408 
L 606.239103 255.803056 
L 607.072976 196.183539 
L 607.906849 193.937716 
L 608.740722 178.142028 
L 609.574595 263.375283 
L 610.408468 238.436539 
L 611.242341 188.347081 
L 612.076214 199.430636 
L 612.910087 263.648276 
L 613.74396 238.192238 
L 614.577833 218.3413 
L 615.411706 248.54732 
L 616.245579 260.272791 
L 617.079452 222.680562 
L 617.913325 265.197195 
L 618.747198 165.658118 
L 619.581071 187.575344 
L 620.414944 347.297696 
L 621.248817 186.959285 
L 622.08269 235.334123 
L 622.916563 225.900155 
L 623.750436 177.072137 
L 624.584309 149.889582 
L 625.418182 183.412471 
L 626.252055 184.46929 
L 627.085928 213.908109 
L 627.919801 167.922234 
L 629.587547 224.462977 
L 630.42142 198.026259 
L 631.255293 222.91224 
L 632.089166 204.570798 
L 632.923039 198.036401 
L 633.756912 246.424429 
L 634.590785 212.591167 
L 635.424658 203.878612 
L 636.258531 246.184953 
L 637.092403 257.238928 
L 637.926276 270.059004 
L 638.760149 259.066959 
L 639.594022 225.552767 
L 640.427895 234.025183 
L 641.261768 247.101177 
L 642.095641 222.90458 
L 642.929514 245.42784 
L 643.763387 209.844589 
L 644.59726 257.516735 
L 645.431133 183.943352 
L 646.265006 189.293517 
L 647.098879 255.287056 
L 647.932752 257.334162 
L 648.766625 261.946664 
L 649.600498 224.952424 
L 650.434371 229.345358 
L 651.268244 259.014421 
L 652.102117 241.853072 
L 652.93599 252.659944 
L 653.769863 253.282293 
L 654.603736 212.64838 
L 655.437609 242.328697 
L 656.271482 238.581519 
L 657.105355 201.070135 
L 657.939228 246.267488 
L 658.773101 208.893018 
L 659.606974 215.549812 
L 660.440847 240.460816 
L 661.27472 218.60827 
L 662.108593 212.686016 
L 662.942466 212.297494 
L 663.776339 258.213992 
L 664.610212 242.768548 
L 665.444085 235.14772 
L 666.277958 272.321836 
L 667.111831 176.694345 
L 667.945704 231.629769 
L 668.779577 246.035843 
L 669.61345 221.030076 
L 670.447323 253.428172 
L 671.281196 253.087642 
L 672.115068 251.931641 
L 672.948941 225.820732 
L 673.782814 232.30395 
L 674.616687 254.481011 
L 675.45056 272.372588 
L 676.284433 186.540392 
L 677.118306 394.233338 
L 677.952179 257.097264 
L 678.786052 442.996364 
L 679.619925 251.272459 
L 680.453798 208.852654 
L 681.287671 317.422029 
L 682.121544 231.879654 
L 682.955417 273.118125 
L 683.78929 265.910745 
L 684.623163 240.465544 
L 685.457036 249.723893 
L 686.290909 249.327134 
L 687.124782 285.616574 
L 687.958655 273.799281 
L 688.792528 255.328179 
L 689.626401 254.832806 
L 690.460274 238.202391 
L 691.294147 236.924957 
L 692.12802 265.276029 
L 692.961893 267.215298 
L 693.795766 272.136418 
L 694.629639 288.255711 
L 695.463512 274.079549 
L 696.297385 249.845508 
L 697.131258 241.745214 
L 697.965131 237.443459 
L 698.799004 199.259103 
L 699.632877 236.085234 
L 700.46675 262.348718 
L 701.300623 280.807464 
L 702.134496 277.597468 
L 702.968369 222.096662 
L 703.802242 303.878695 
L 704.636115 215.333915 
L 705.469988 232.936826 
L 706.303861 241.587835 
L 707.137733 192.542882 
L 707.971606 220.299794 
L 708.805479 239.272454 
L 709.639352 244.869027 
L 710.473225 242.303546 
L 711.307098 249.99986 
L 712.140971 239.184023 
L 712.974844 270.654982 
L 713.808717 324.907185 
L 714.64259 297.038964 
L 715.476463 279.905189 
L 716.310336 240.963025 
L 717.144209 240.22809 
L 717.978082 218.337288 
L 718.811955 222.037545 
L 719.645828 195.436023 
L 720.479701 154.531513 
L 721.313574 170.570753 
L 722.147447 228.422512 
L 722.98132 177.013618 
L 723.815193 195.984448 
L 724.649066 208.360009 
L 725.482939 171.860854 
L 726.316812 190.903832 
L 727.150685 227.666865 
L 727.984558 222.79546 
L 728.818431 229.983155 
L 729.652304 260.273123 
L 730.486177 282.412227 
L 731.32005 242.363412 
L 732.153923 232.083634 
L 732.987796 206.317364 
L 733.821669 237.523278 
L 734.655542 231.7104 
L 735.489415 276.049212 
L 736.323288 198.328308 
L 737.157161 196.729547 
L 737.991034 246.217058 
L 738.824907 255.381627 
L 739.65878 224.285603 
L 740.492653 297.14173 
L 741.326526 297.418366 
L 742.160399 313.134187 
L 742.994271 266.510842 
L 743.828144 267.390426 
L 744.662017 263.720445 
L 745.49589 251.234641 
L 746.329763 212.356601 
L 747.163636 198.910625 
L 747.163636 198.910625 
" style="fill:none;stroke:#ff0000;stroke-dasharray:5.55,2.4;stroke-dashoffset:0;stroke-width:1.5;"/>
   </g>
   <g id="patch_3">
    <path d="M 108 460.8 
L 108 69.12 
" style="fill:none;stroke:#000000;stroke-linecap:square;stroke-linejoin:miter;stroke-width:0.8;"/>
   </g>
   <g id="patch_4">
    <path d="M 777.6 460.8 
L 777.6 69.12 
" style="fill:none;stroke:#000000;stroke-linecap:square;stroke-linejoin:miter;stroke-width:0.8;"/>
   </g>
   <g id="patch_5">
    <path d="M 108 460.8 
L 777.6 460.8 
" style="fill:none;stroke:#000000;stroke-linecap:square;stroke-linejoin:miter;stroke-width:0.8;"/>
   </g>
   <g id="patch_6">
    <path d="M 108 69.12 
L 777.6 69.12 
" style="fill:none;stroke:#000000;stroke-linecap:square;stroke-linejoin:miter;stroke-width:0.8;"/>
   </g>
   <g id="text_21">
    <!-- Macau residential 2020-2021 | Forecast vs Monitored | ANN -->
    <g transform="translate(219.761719 63.12)scale(0.15 -0.15)">
     <defs>
      <path d="M 9.8125 72.90625 
L 24.515625 72.90625 
L 43.109375 23.296875 
L 61.8125 72.90625 
L 76.515625 72.90625 
L 76.515625 0 
L 66.890625 0 
L 66.890625 64.015625 
L 48.09375 14.015625 
L 38.1875 14.015625 
L 19.390625 64.015625 
L 19.390625 0 
L 9.8125 0 
z
" id="DejaVuSans-77"/>
      <path d="M 48.78125 52.59375 
L 48.78125 44.1875 
Q 44.96875 46.296875 41.140625 47.34375 
Q 37.3125 48.390625 33.40625 48.390625 
Q 24.65625 48.390625 19.8125 42.84375 
Q 14.984375 37.3125 14.984375 27.296875 
Q 14.984375 17.28125 19.8125 11.734375 
Q 24.65625 6.203125 33.40625 6.203125 
Q 37.3125 6.203125 41.140625 7.25 
Q 44.96875 8.296875 48.78125 10.40625 
L 48.78125 2.09375 
Q 45.015625 0.34375 40.984375 -0.53125 
Q 36.96875 -1.421875 32.421875 -1.421875 
Q 20.0625 -1.421875 12.78125 6.34375 
Q 5.515625 14.109375 5.515625 27.296875 
Q 5.515625 40.671875 12.859375 48.328125 
Q 20.21875 56 33.015625 56 
Q 37.15625 56 41.109375 55.140625 
Q 45.0625 54.296875 48.78125 52.59375 
z
" id="DejaVuSans-99"/>
      <path d="M 8.5 21.578125 
L 8.5 54.6875 
L 17.484375 54.6875 
L 17.484375 21.921875 
Q 17.484375 14.15625 20.5 10.265625 
Q 23.53125 6.390625 29.59375 6.390625 
Q 36.859375 6.390625 41.078125 11.03125 
Q 45.3125 15.671875 45.3125 23.6875 
L 45.3125 54.6875 
L 54.296875 54.6875 
L 54.296875 0 
L 45.3125 0 
L 45.3125 8.40625 
Q 42.046875 3.421875 37.71875 1 
Q 33.40625 -1.421875 27.6875 -1.421875 
Q 18.265625 -1.421875 13.375 4.4375 
Q 8.5 10.296875 8.5 21.578125 
z
M 31.109375 56 
z
" id="DejaVuSans-117"/>
      <path id="DejaVuSans-32"/>
      <path d="M 41.109375 46.296875 
Q 39.59375 47.171875 37.8125 47.578125 
Q 36.03125 48 33.890625 48 
Q 26.265625 48 22.1875 43.046875 
Q 18.109375 38.09375 18.109375 28.8125 
L 18.109375 0 
L 9.078125 0 
L 9.078125 54.6875 
L 18.109375 54.6875 
L 18.109375 46.1875 
Q 20.953125 51.171875 25.484375 53.578125 
Q 30.03125 56 36.53125 56 
Q 37.453125 56 38.578125 55.875 
Q 39.703125 55.765625 41.0625 55.515625 
z
" id="DejaVuSans-114"/>
      <path d="M 44.28125 53.078125 
L 44.28125 44.578125 
Q 40.484375 46.53125 36.375 47.5 
Q 32.28125 48.484375 27.875 48.484375 
Q 21.1875 48.484375 17.84375 46.4375 
Q 14.5 44.390625 14.5 40.28125 
Q 14.5 37.15625 16.890625 35.375 
Q 19.28125 33.59375 26.515625 31.984375 
L 29.59375 31.296875 
Q 39.15625 29.25 43.1875 25.515625 
Q 47.21875 21.78125 47.21875 15.09375 
Q 47.21875 7.46875 41.1875 3.015625 
Q 35.15625 -1.421875 24.609375 -1.421875 
Q 20.21875 -1.421875 15.453125 -0.5625 
Q 10.6875 0.296875 5.421875 2 
L 5.421875 11.28125 
Q 10.40625 8.6875 15.234375 7.390625 
Q 20.0625 6.109375 24.8125 6.109375 
Q 31.15625 6.109375 34.5625 8.28125 
Q 37.984375 10.453125 37.984375 14.40625 
Q 37.984375 18.0625 35.515625 20.015625 
Q 33.0625 21.96875 24.703125 23.78125 
L 21.578125 24.515625 
Q 13.234375 26.265625 9.515625 29.90625 
Q 5.8125 33.546875 5.8125 39.890625 
Q 5.8125 47.609375 11.28125 51.796875 
Q 16.75 56 26.8125 56 
Q 31.78125 56 36.171875 55.265625 
Q 40.578125 54.546875 44.28125 53.078125 
z
" id="DejaVuSans-115"/>
      <path d="M 9.421875 54.6875 
L 18.40625 54.6875 
L 18.40625 0 
L 9.421875 0 
z
M 9.421875 75.984375 
L 18.40625 75.984375 
L 18.40625 64.59375 
L 9.421875 64.59375 
z
" id="DejaVuSans-105"/>
      <path d="M 45.40625 46.390625 
L 45.40625 75.984375 
L 54.390625 75.984375 
L 54.390625 0 
L 45.40625 0 
L 45.40625 8.203125 
Q 42.578125 3.328125 38.25 0.953125 
Q 33.9375 -1.421875 27.875 -1.421875 
Q 17.96875 -1.421875 11.734375 6.484375 
Q 5.515625 14.40625 5.515625 27.296875 
Q 5.515625 40.1875 11.734375 48.09375 
Q 17.96875 56 27.875 56 
Q 33.9375 56 38.25 53.625 
Q 42.578125 51.265625 45.40625 46.390625 
z
M 14.796875 27.296875 
Q 14.796875 17.390625 18.875 11.75 
Q 22.953125 6.109375 30.078125 6.109375 
Q 37.203125 6.109375 41.296875 11.75 
Q 45.40625 17.390625 45.40625 27.296875 
Q 45.40625 37.203125 41.296875 42.84375 
Q 37.203125 48.484375 30.078125 48.484375 
Q 22.953125 48.484375 18.875 42.84375 
Q 14.796875 37.203125 14.796875 27.296875 
z
" id="DejaVuSans-100"/>
      <path d="M 54.890625 33.015625 
L 54.890625 0 
L 45.90625 0 
L 45.90625 32.71875 
Q 45.90625 40.484375 42.875 44.328125 
Q 39.84375 48.1875 33.796875 48.1875 
Q 26.515625 48.1875 22.3125 43.546875 
Q 18.109375 38.921875 18.109375 30.90625 
L 18.109375 0 
L 9.078125 0 
L 9.078125 54.6875 
L 18.109375 54.6875 
L 18.109375 46.1875 
Q 21.34375 51.125 25.703125 53.5625 
Q 30.078125 56 35.796875 56 
Q 45.21875 56 50.046875 50.171875 
Q 54.890625 44.34375 54.890625 33.015625 
z
" id="DejaVuSans-110"/>
      <path d="M 9.421875 75.984375 
L 18.40625 75.984375 
L 18.40625 0 
L 9.421875 0 
z
" id="DejaVuSans-108"/>
      <path d="M 21 76.421875 
L 21 -23.578125 
L 12.703125 -23.578125 
L 12.703125 76.421875 
z
" id="DejaVuSans-124"/>
      <path d="M 9.8125 72.90625 
L 51.703125 72.90625 
L 51.703125 64.59375 
L 19.671875 64.59375 
L 19.671875 43.109375 
L 48.578125 43.109375 
L 48.578125 34.8125 
L 19.671875 34.8125 
L 19.671875 0 
L 9.8125 0 
z
" id="DejaVuSans-70"/>
      <path d="M 30.609375 48.390625 
Q 23.390625 48.390625 19.1875 42.75 
Q 14.984375 37.109375 14.984375 27.296875 
Q 14.984375 17.484375 19.15625 11.84375 
Q 23.34375 6.203125 30.609375 6.203125 
Q 37.796875 6.203125 41.984375 11.859375 
Q 46.1875 17.53125 46.1875 27.296875 
Q 46.1875 37.015625 41.984375 42.703125 
Q 37.796875 48.390625 30.609375 48.390625 
z
M 30.609375 56 
Q 42.328125 56 49.015625 48.375 
Q 55.71875 40.765625 55.71875 27.296875 
Q 55.71875 13.875 49.015625 6.21875 
Q 42.328125 -1.421875 30.609375 -1.421875 
Q 18.84375 -1.421875 12.171875 6.21875 
Q 5.515625 13.875 5.515625 27.296875 
Q 5.515625 40.765625 12.171875 48.375 
Q 18.84375 56 30.609375 56 
z
" id="DejaVuSans-111"/>
      <path d="M 2.984375 54.6875 
L 12.5 54.6875 
L 29.59375 8.796875 
L 46.6875 54.6875 
L 56.203125 54.6875 
L 35.6875 0 
L 23.484375 0 
z
" id="DejaVuSans-118"/>
      <path d="M 34.1875 63.1875 
L 20.796875 26.90625 
L 47.609375 26.90625 
z
M 28.609375 72.90625 
L 39.796875 72.90625 
L 67.578125 0 
L 57.328125 0 
L 50.6875 18.703125 
L 17.828125 18.703125 
L 11.1875 0 
L 0.78125 0 
z
" id="DejaVuSans-65"/>
      <path d="M 9.8125 72.90625 
L 23.09375 72.90625 
L 55.421875 11.921875 
L 55.421875 72.90625 
L 64.984375 72.90625 
L 64.984375 0 
L 51.703125 0 
L 19.390625 60.984375 
L 19.390625 0 
L 9.8125 0 
z
" id="DejaVuSans-78"/>
     </defs>
     <use xlink:href="#DejaVuSans-77"/>
     <use x="86.279297" xlink:href="#DejaVuSans-97"/>
     <use x="147.558594" xlink:href="#DejaVuSans-99"/>
     <use x="202.539062" xlink:href="#DejaVuSans-97"/>
     <use x="263.818359" xlink:href="#DejaVuSans-117"/>
     <use x="327.197266" xlink:href="#DejaVuSans-32"/>
     <use x="358.984375" xlink:href="#DejaVuSans-114"/>
     <use x="397.847656" xlink:href="#DejaVuSans-101"/>
     <use x="459.371094" xlink:href="#DejaVuSans-115"/>
     <use x="511.470703" xlink:href="#DejaVuSans-105"/>
     <use x="539.253906" xlink:href="#DejaVuSans-100"/>
     <use x="602.730469" xlink:href="#DejaVuSans-101"/>
     <use x="664.253906" xlink:href="#DejaVuSans-110"/>
     <use x="727.632812" xlink:href="#DejaVuSans-116"/>
     <use x="766.841797" xlink:href="#DejaVuSans-105"/>
     <use x="794.625" xlink:href="#DejaVuSans-97"/>
     <use x="855.904297" xlink:href="#DejaVuSans-108"/>
     <use x="883.6875" xlink:href="#DejaVuSans-32"/>
     <use x="915.474609" xlink:href="#DejaVuSans-50"/>
     <use x="979.097656" xlink:href="#DejaVuSans-48"/>
     <use x="1042.720703" xlink:href="#DejaVuSans-50"/>
     <use x="1106.34375" xlink:href="#DejaVuSans-48"/>
     <use x="1169.966797" xlink:href="#DejaVuSans-45"/>
     <use x="1206.050781" xlink:href="#DejaVuSans-50"/>
     <use x="1269.673828" xlink:href="#DejaVuSans-48"/>
     <use x="1333.296875" xlink:href="#DejaVuSans-50"/>
     <use x="1396.919922" xlink:href="#DejaVuSans-49"/>
     <use x="1460.542969" xlink:href="#DejaVuSans-32"/>
     <use x="1492.330078" xlink:href="#DejaVuSans-124"/>
     <use x="1526.021484" xlink:href="#DejaVuSans-32"/>
     <use x="1557.808594" xlink:href="#DejaVuSans-70"/>
     <use x="1611.703125" xlink:href="#DejaVuSans-111"/>
     <use x="1672.884766" xlink:href="#DejaVuSans-114"/>
     <use x="1711.748047" xlink:href="#DejaVuSans-101"/>
     <use x="1773.271484" xlink:href="#DejaVuSans-99"/>
     <use x="1828.251953" xlink:href="#DejaVuSans-97"/>
     <use x="1889.53125" xlink:href="#DejaVuSans-115"/>
     <use x="1941.630859" xlink:href="#DejaVuSans-116"/>
     <use x="1980.839844" xlink:href="#DejaVuSans-32"/>
     <use x="2012.626953" xlink:href="#DejaVuSans-118"/>
     <use x="2071.806641" xlink:href="#DejaVuSans-115"/>
     <use x="2123.90625" xlink:href="#DejaVuSans-32"/>
     <use x="2155.693359" xlink:href="#DejaVuSans-77"/>
     <use x="2241.972656" xlink:href="#DejaVuSans-111"/>
     <use x="2303.154297" xlink:href="#DejaVuSans-110"/>
     <use x="2366.533203" xlink:href="#DejaVuSans-105"/>
     <use x="2394.316406" xlink:href="#DejaVuSans-116"/>
     <use x="2433.525391" xlink:href="#DejaVuSans-111"/>
     <use x="2494.707031" xlink:href="#DejaVuSans-114"/>
     <use x="2533.570312" xlink:href="#DejaVuSans-101"/>
     <use x="2595.09375" xlink:href="#DejaVuSans-100"/>
     <use x="2658.570312" xlink:href="#DejaVuSans-32"/>
     <use x="2690.357422" xlink:href="#DejaVuSans-124"/>
     <use x="2724.048828" xlink:href="#DejaVuSans-32"/>
     <use x="2755.835938" xlink:href="#DejaVuSans-65"/>
     <use x="2824.244141" xlink:href="#DejaVuSans-78"/>
     <use x="2899.048828" xlink:href="#DejaVuSans-78"/>
    </g>
   </g>
   <g id="legend_1">
    <g id="patch_7">
     <path d="M 607.123125 114.615 
L 769.2 114.615 
Q 771.6 114.615 771.6 112.215 
L 771.6 77.52 
Q 771.6 75.12 769.2 75.12 
L 607.123125 75.12 
Q 604.723125 75.12 604.723125 77.52 
L 604.723125 112.215 
Q 604.723125 114.615 607.123125 114.615 
z
" style="fill:#ffffff;opacity:0.8;stroke:#cccccc;stroke-linejoin:miter;"/>
    </g>
    <g id="line2d_21">
     <path d="M 609.523125 84.838125 
L 633.523125 84.838125 
" style="fill:none;stroke:#1f77b4;stroke-linecap:square;stroke-width:1.5;"/>
    </g>
    <g id="line2d_22"/>
    <g id="text_22">
     <!-- measured_data_SO2 -->
     <g transform="translate(643.123125 89.038125)scale(0.12 -0.12)">
      <defs>
       <path d="M 50.984375 -16.609375 
L 50.984375 -23.578125 
L -0.984375 -23.578125 
L -0.984375 -16.609375 
z
" id="DejaVuSans-95"/>
      </defs>
      <use xlink:href="#DejaVuSans-109"/>
      <use x="97.412109" xlink:href="#DejaVuSans-101"/>
      <use x="158.935547" xlink:href="#DejaVuSans-97"/>
      <use x="220.214844" xlink:href="#DejaVuSans-115"/>
      <use x="272.314453" xlink:href="#DejaVuSans-117"/>
      <use x="335.693359" xlink:href="#DejaVuSans-114"/>
      <use x="374.556641" xlink:href="#DejaVuSans-101"/>
      <use x="436.080078" xlink:href="#DejaVuSans-100"/>
      <use x="499.556641" xlink:href="#DejaVuSans-95"/>
      <use x="549.556641" xlink:href="#DejaVuSans-100"/>
      <use x="613.033203" xlink:href="#DejaVuSans-97"/>
      <use x="674.3125" xlink:href="#DejaVuSans-116"/>
      <use x="713.521484" xlink:href="#DejaVuSans-97"/>
      <use x="774.800781" xlink:href="#DejaVuSans-95"/>
      <use x="824.800781" xlink:href="#DejaVuSans-83"/>
      <use x="888.277344" xlink:href="#DejaVuSans-79"/>
      <use x="966.988281" xlink:href="#DejaVuSans-50"/>
     </g>
    </g>
    <g id="line2d_23">
     <path d="M 609.523125 102.785625 
L 633.523125 102.785625 
" style="fill:none;stroke:#ff0000;stroke-dasharray:5.55,2.4;stroke-dashoffset:0;stroke-width:1.5;"/>
    </g>
    <g id="line2d_24"/>
    <g id="text_23">
     <!-- predicted_data_SO2 -->
     <g transform="translate(643.123125 106.985625)scale(0.12 -0.12)">
      <use xlink:href="#DejaVuSans-112"/>
      <use x="63.476562" xlink:href="#DejaVuSans-114"/>
      <use x="102.339844" xlink:href="#DejaVuSans-101"/>
      <use x="163.863281" xlink:href="#DejaVuSans-100"/>
      <use x="227.339844" xlink:href="#DejaVuSans-105"/>
      <use x="255.123047" xlink:href="#DejaVuSans-99"/>
      <use x="310.103516" xlink:href="#DejaVuSans-116"/>
      <use x="349.3125" xlink:href="#DejaVuSans-101"/>
      <use x="410.835938" xlink:href="#DejaVuSans-100"/>
      <use x="474.3125" xlink:href="#DejaVuSans-95"/>
      <use x="524.3125" xlink:href="#DejaVuSans-100"/>
      <use x="587.789062" xlink:href="#DejaVuSans-97"/>
      <use x="649.068359" xlink:href="#DejaVuSans-116"/>
      <use x="688.277344" xlink:href="#DejaVuSans-97"/>
      <use x="749.556641" xlink:href="#DejaVuSans-95"/>
      <use x="799.556641" xlink:href="#DejaVuSans-83"/>
      <use x="863.033203" xlink:href="#DejaVuSans-79"/>
      <use x="941.744141" xlink:href="#DejaVuSans-50"/>
     </g>
    </g>
   </g>
  </g>
 </g>
 <defs>
  <clipPath id="pf45a015e56">
   <rect height="391.68" width="669.6" x="108" y="69.12"/>
  </clipPath>
 </defs>
</svg>
