<?xml version="1.0" encoding="utf-8" standalone="no"?>
<!DOCTYPE svg PUBLIC "-//W3C//DTD SVG 1.1//EN"
  "http://www.w3.org/Graphics/SVG/1.1/DTD/svg11.dtd">
<!-- Created with matplotlib (https://matplotlib.org/) -->
<svg height="576pt" version="1.1" viewBox="0 0 864 576" width="864pt" xmlns="http://www.w3.org/2000/svg" xmlns:xlink="http://www.w3.org/1999/xlink">
 <metadata>
  <rdf:RDF xmlns:cc="http://creativecommons.org/ns#" xmlns:dc="http://purl.org/dc/elements/1.1/" xmlns:rdf="http://www.w3.org/1999/02/22-rdf-syntax-ns#">
   <cc:Work>
    <dc:type rdf:resource="http://purl.org/dc/dcmitype/StillImage"/>
    <dc:date>2024-03-08T21:08:17.619643</dc:date>
    <dc:format>image/svg+xml</dc:format>
    <dc:creator>
     <cc:Agent>
      <dc:title>Matplotlib v3.3.4, https://matplotlib.org/</dc:title>
     </cc:Agent>
    </dc:creator>
   </cc:Work>
  </rdf:RDF>
 </metadata>
 <defs>
  <style type="text/css">*{stroke-linecap:butt;stroke-linejoin:round;}</style>
 </defs>
 <g id="figure_1">
  <g id="patch_1">
   <path d="M 0 576 
L 864 576 
L 864 0 
L 0 0 
z
" style="fill:#ffffff;"/>
  </g>
  <g id="axes_1">
   <g id="patch_2">
    <path d="M 108 460.8 
L 777.6 460.8 
L 777.6 69.12 
L 108 69.12 
z
" style="fill:#ffffff;"/>
   </g>
   <g id="matplotlib.axis_1">
    <g id="xtick_1">
     <g id="line2d_1">
      <defs>
       <path d="M 0 0 
L 0 3.5 
" id="m9c2161a60a" style="stroke:#000000;stroke-width:0.8;"/>
      </defs>
      <g>
       <use style="stroke:#000000;stroke-width:0.8;" x="136.761736" xlink:href="#m9c2161a60a" y="460.8"/>
      </g>
     </g>
     <g id="text_1">
      <!-- 2020-01 -->
      <g transform="translate(92.091951 500.766215)rotate(-30)scale(0.12 -0.12)">
       <defs>
        <path d="M 19.1875 8.296875 
L 53.609375 8.296875 
L 53.609375 0 
L 7.328125 0 
L 7.328125 8.296875 
Q 12.9375 14.109375 22.625 23.890625 
Q 32.328125 33.6875 34.8125 36.53125 
Q 39.546875 41.84375 41.421875 45.53125 
Q 43.3125 49.21875 43.3125 52.78125 
Q 43.3125 58.59375 39.234375 62.25 
Q 35.15625 65.921875 28.609375 65.921875 
Q 23.96875 65.921875 18.8125 64.3125 
Q 13.671875 62.703125 7.8125 59.421875 
L 7.8125 69.390625 
Q 13.765625 71.78125 18.9375 73 
Q 24.125 74.21875 28.421875 74.21875 
Q 39.75 74.21875 46.484375 68.546875 
Q 53.21875 62.890625 53.21875 53.421875 
Q 53.21875 48.921875 51.53125 44.890625 
Q 49.859375 40.875 45.40625 35.40625 
Q 44.1875 33.984375 37.640625 27.21875 
Q 31.109375 20.453125 19.1875 8.296875 
z
" id="DejaVuSans-50"/>
        <path d="M 31.78125 66.40625 
Q 24.171875 66.40625 20.328125 58.90625 
Q 16.5 51.421875 16.5 36.375 
Q 16.5 21.390625 20.328125 13.890625 
Q 24.171875 6.390625 31.78125 6.390625 
Q 39.453125 6.390625 43.28125 13.890625 
Q 47.125 21.390625 47.125 36.375 
Q 47.125 51.421875 43.28125 58.90625 
Q 39.453125 66.40625 31.78125 66.40625 
z
M 31.78125 74.21875 
Q 44.046875 74.21875 50.515625 64.515625 
Q 56.984375 54.828125 56.984375 36.375 
Q 56.984375 17.96875 50.515625 8.265625 
Q 44.046875 -1.421875 31.78125 -1.421875 
Q 19.53125 -1.421875 13.0625 8.265625 
Q 6.59375 17.96875 6.59375 36.375 
Q 6.59375 54.828125 13.0625 64.515625 
Q 19.53125 74.21875 31.78125 74.21875 
z
" id="DejaVuSans-48"/>
        <path d="M 4.890625 31.390625 
L 31.203125 31.390625 
L 31.203125 23.390625 
L 4.890625 23.390625 
z
" id="DejaVuSans-45"/>
        <path d="M 12.40625 8.296875 
L 28.515625 8.296875 
L 28.515625 63.921875 
L 10.984375 60.40625 
L 10.984375 69.390625 
L 28.421875 72.90625 
L 38.28125 72.90625 
L 38.28125 8.296875 
L 54.390625 8.296875 
L 54.390625 0 
L 12.40625 0 
z
" id="DejaVuSans-49"/>
       </defs>
       <use xlink:href="#DejaVuSans-50"/>
       <use x="63.623047" xlink:href="#DejaVuSans-48"/>
       <use x="127.246094" xlink:href="#DejaVuSans-50"/>
       <use x="190.869141" xlink:href="#DejaVuSans-48"/>
       <use x="254.492188" xlink:href="#DejaVuSans-45"/>
       <use x="290.576172" xlink:href="#DejaVuSans-48"/>
       <use x="354.199219" xlink:href="#DejaVuSans-49"/>
      </g>
     </g>
    </g>
    <g id="xtick_2">
     <g id="line2d_2">
      <g>
       <use style="stroke:#000000;stroke-width:0.8;" x="212.957309" xlink:href="#m9c2161a60a" y="460.8"/>
      </g>
     </g>
     <g id="text_2">
      <!-- 2020-04 -->
      <g transform="translate(168.287524 500.766215)rotate(-30)scale(0.12 -0.12)">
       <defs>
        <path d="M 37.796875 64.3125 
L 12.890625 25.390625 
L 37.796875 25.390625 
z
M 35.203125 72.90625 
L 47.609375 72.90625 
L 47.609375 25.390625 
L 58.015625 25.390625 
L 58.015625 17.1875 
L 47.609375 17.1875 
L 47.609375 0 
L 37.796875 0 
L 37.796875 17.1875 
L 4.890625 17.1875 
L 4.890625 26.703125 
z
" id="DejaVuSans-52"/>
       </defs>
       <use xlink:href="#DejaVuSans-50"/>
       <use x="63.623047" xlink:href="#DejaVuSans-48"/>
       <use x="127.246094" xlink:href="#DejaVuSans-50"/>
       <use x="190.869141" xlink:href="#DejaVuSans-48"/>
       <use x="254.492188" xlink:href="#DejaVuSans-45"/>
       <use x="290.576172" xlink:href="#DejaVuSans-48"/>
       <use x="354.199219" xlink:href="#DejaVuSans-52"/>
      </g>
     </g>
    </g>
    <g id="xtick_3">
     <g id="line2d_3">
      <g>
       <use style="stroke:#000000;stroke-width:0.8;" x="289.152882" xlink:href="#m9c2161a60a" y="460.8"/>
      </g>
     </g>
     <g id="text_3">
      <!-- 2020-07 -->
      <g transform="translate(244.483097 500.766215)rotate(-30)scale(0.12 -0.12)">
       <defs>
        <path d="M 8.203125 72.90625 
L 55.078125 72.90625 
L 55.078125 68.703125 
L 28.609375 0 
L 18.3125 0 
L 43.21875 64.59375 
L 8.203125 64.59375 
z
" id="DejaVuSans-55"/>
       </defs>
       <use xlink:href="#DejaVuSans-50"/>
       <use x="63.623047" xlink:href="#DejaVuSans-48"/>
       <use x="127.246094" xlink:href="#DejaVuSans-50"/>
       <use x="190.869141" xlink:href="#DejaVuSans-48"/>
       <use x="254.492188" xlink:href="#DejaVuSans-45"/>
       <use x="290.576172" xlink:href="#DejaVuSans-48"/>
       <use x="354.199219" xlink:href="#DejaVuSans-55"/>
      </g>
     </g>
    </g>
    <g id="xtick_4">
     <g id="line2d_4">
      <g>
       <use style="stroke:#000000;stroke-width:0.8;" x="366.18577" xlink:href="#m9c2161a60a" y="460.8"/>
      </g>
     </g>
     <g id="text_4">
      <!-- 2020-10 -->
      <g transform="translate(321.515985 500.766215)rotate(-30)scale(0.12 -0.12)">
       <use xlink:href="#DejaVuSans-50"/>
       <use x="63.623047" xlink:href="#DejaVuSans-48"/>
       <use x="127.246094" xlink:href="#DejaVuSans-50"/>
       <use x="190.869141" xlink:href="#DejaVuSans-48"/>
       <use x="254.492188" xlink:href="#DejaVuSans-45"/>
       <use x="290.576172" xlink:href="#DejaVuSans-49"/>
       <use x="354.199219" xlink:href="#DejaVuSans-48"/>
      </g>
     </g>
    </g>
    <g id="xtick_5">
     <g id="line2d_5">
      <g>
       <use style="stroke:#000000;stroke-width:0.8;" x="443.218657" xlink:href="#m9c2161a60a" y="460.8"/>
      </g>
     </g>
     <g id="text_5">
      <!-- 2021-01 -->
      <g transform="translate(398.548872 500.766215)rotate(-30)scale(0.12 -0.12)">
       <use xlink:href="#DejaVuSans-50"/>
       <use x="63.623047" xlink:href="#DejaVuSans-48"/>
       <use x="127.246094" xlink:href="#DejaVuSans-50"/>
       <use x="190.869141" xlink:href="#DejaVuSans-49"/>
       <use x="254.492188" xlink:href="#DejaVuSans-45"/>
       <use x="290.576172" xlink:href="#DejaVuSans-48"/>
       <use x="354.199219" xlink:href="#DejaVuSans-49"/>
      </g>
     </g>
    </g>
    <g id="xtick_6">
     <g id="line2d_6">
      <g>
       <use style="stroke:#000000;stroke-width:0.8;" x="518.576916" xlink:href="#m9c2161a60a" y="460.8"/>
      </g>
     </g>
     <g id="text_6">
      <!-- 2021-04 -->
      <g transform="translate(473.907131 500.766215)rotate(-30)scale(0.12 -0.12)">
       <use xlink:href="#DejaVuSans-50"/>
       <use x="63.623047" xlink:href="#DejaVuSans-48"/>
       <use x="127.246094" xlink:href="#DejaVuSans-50"/>
       <use x="190.869141" xlink:href="#DejaVuSans-49"/>
       <use x="254.492188" xlink:href="#DejaVuSans-45"/>
       <use x="290.576172" xlink:href="#DejaVuSans-48"/>
       <use x="354.199219" xlink:href="#DejaVuSans-52"/>
      </g>
     </g>
    </g>
    <g id="xtick_7">
     <g id="line2d_7">
      <g>
       <use style="stroke:#000000;stroke-width:0.8;" x="594.77249" xlink:href="#m9c2161a60a" y="460.8"/>
      </g>
     </g>
     <g id="text_7">
      <!-- 2021-07 -->
      <g transform="translate(550.102705 500.766215)rotate(-30)scale(0.12 -0.12)">
       <use xlink:href="#DejaVuSans-50"/>
       <use x="63.623047" xlink:href="#DejaVuSans-48"/>
       <use x="127.246094" xlink:href="#DejaVuSans-50"/>
       <use x="190.869141" xlink:href="#DejaVuSans-49"/>
       <use x="254.492188" xlink:href="#DejaVuSans-45"/>
       <use x="290.576172" xlink:href="#DejaVuSans-48"/>
       <use x="354.199219" xlink:href="#DejaVuSans-55"/>
      </g>
     </g>
    </g>
    <g id="xtick_8">
     <g id="line2d_8">
      <g>
       <use style="stroke:#000000;stroke-width:0.8;" x="671.805377" xlink:href="#m9c2161a60a" y="460.8"/>
      </g>
     </g>
     <g id="text_8">
      <!-- 2021-10 -->
      <g transform="translate(627.135592 500.766215)rotate(-30)scale(0.12 -0.12)">
       <use xlink:href="#DejaVuSans-50"/>
       <use x="63.623047" xlink:href="#DejaVuSans-48"/>
       <use x="127.246094" xlink:href="#DejaVuSans-50"/>
       <use x="190.869141" xlink:href="#DejaVuSans-49"/>
       <use x="254.492188" xlink:href="#DejaVuSans-45"/>
       <use x="290.576172" xlink:href="#DejaVuSans-49"/>
       <use x="354.199219" xlink:href="#DejaVuSans-48"/>
      </g>
     </g>
    </g>
    <g id="xtick_9">
     <g id="line2d_9">
      <g>
       <use style="stroke:#000000;stroke-width:0.8;" x="748.838264" xlink:href="#m9c2161a60a" y="460.8"/>
      </g>
     </g>
     <g id="text_9">
      <!-- 2022-01 -->
      <g transform="translate(704.168479 500.766215)rotate(-30)scale(0.12 -0.12)">
       <use xlink:href="#DejaVuSans-50"/>
       <use x="63.623047" xlink:href="#DejaVuSans-48"/>
       <use x="127.246094" xlink:href="#DejaVuSans-50"/>
       <use x="190.869141" xlink:href="#DejaVuSans-50"/>
       <use x="254.492188" xlink:href="#DejaVuSans-45"/>
       <use x="290.576172" xlink:href="#DejaVuSans-48"/>
       <use x="354.199219" xlink:href="#DejaVuSans-49"/>
      </g>
     </g>
    </g>
    <g id="text_10">
     <!-- Date -->
     <g transform="translate(424.873828 518.325146)scale(0.15 -0.15)">
      <defs>
       <path d="M 19.671875 64.796875 
L 19.671875 8.109375 
L 31.59375 8.109375 
Q 46.6875 8.109375 53.6875 14.9375 
Q 60.6875 21.78125 60.6875 36.53125 
Q 60.6875 51.171875 53.6875 57.984375 
Q 46.6875 64.796875 31.59375 64.796875 
z
M 9.8125 72.90625 
L 30.078125 72.90625 
Q 51.265625 72.90625 61.171875 64.09375 
Q 71.09375 55.28125 71.09375 36.53125 
Q 71.09375 17.671875 61.125 8.828125 
Q 51.171875 0 30.078125 0 
L 9.8125 0 
z
" id="DejaVuSans-68"/>
       <path d="M 34.28125 27.484375 
Q 23.390625 27.484375 19.1875 25 
Q 14.984375 22.515625 14.984375 16.5 
Q 14.984375 11.71875 18.140625 8.90625 
Q 21.296875 6.109375 26.703125 6.109375 
Q 34.1875 6.109375 38.703125 11.40625 
Q 43.21875 16.703125 43.21875 25.484375 
L 43.21875 27.484375 
z
M 52.203125 31.203125 
L 52.203125 0 
L 43.21875 0 
L 43.21875 8.296875 
Q 40.140625 3.328125 35.546875 0.953125 
Q 30.953125 -1.421875 24.3125 -1.421875 
Q 15.921875 -1.421875 10.953125 3.296875 
Q 6 8.015625 6 15.921875 
Q 6 25.140625 12.171875 29.828125 
Q 18.359375 34.515625 30.609375 34.515625 
L 43.21875 34.515625 
L 43.21875 35.40625 
Q 43.21875 41.609375 39.140625 45 
Q 35.0625 48.390625 27.6875 48.390625 
Q 23 48.390625 18.546875 47.265625 
Q 14.109375 46.140625 10.015625 43.890625 
L 10.015625 52.203125 
Q 14.9375 54.109375 19.578125 55.046875 
Q 24.21875 56 28.609375 56 
Q 40.484375 56 46.34375 49.84375 
Q 52.203125 43.703125 52.203125 31.203125 
z
" id="DejaVuSans-97"/>
       <path d="M 18.3125 70.21875 
L 18.3125 54.6875 
L 36.8125 54.6875 
L 36.8125 47.703125 
L 18.3125 47.703125 
L 18.3125 18.015625 
Q 18.3125 11.328125 20.140625 9.421875 
Q 21.96875 7.515625 27.59375 7.515625 
L 36.8125 7.515625 
L 36.8125 0 
L 27.59375 0 
Q 17.1875 0 13.234375 3.875 
Q 9.28125 7.765625 9.28125 18.015625 
L 9.28125 47.703125 
L 2.6875 47.703125 
L 2.6875 54.6875 
L 9.28125 54.6875 
L 9.28125 70.21875 
z
" id="DejaVuSans-116"/>
       <path d="M 56.203125 29.59375 
L 56.203125 25.203125 
L 14.890625 25.203125 
Q 15.484375 15.921875 20.484375 11.0625 
Q 25.484375 6.203125 34.421875 6.203125 
Q 39.59375 6.203125 44.453125 7.46875 
Q 49.3125 8.734375 54.109375 11.28125 
L 54.109375 2.78125 
Q 49.265625 0.734375 44.1875 -0.34375 
Q 39.109375 -1.421875 33.890625 -1.421875 
Q 20.796875 -1.421875 13.15625 6.1875 
Q 5.515625 13.8125 5.515625 26.8125 
Q 5.515625 40.234375 12.765625 48.109375 
Q 20.015625 56 32.328125 56 
Q 43.359375 56 49.78125 48.890625 
Q 56.203125 41.796875 56.203125 29.59375 
z
M 47.21875 32.234375 
Q 47.125 39.59375 43.09375 43.984375 
Q 39.0625 48.390625 32.421875 48.390625 
Q 24.90625 48.390625 20.390625 44.140625 
Q 15.875 39.890625 15.1875 32.171875 
z
" id="DejaVuSans-101"/>
      </defs>
      <use xlink:href="#DejaVuSans-68"/>
      <use x="77.001953" xlink:href="#DejaVuSans-97"/>
      <use x="138.28125" xlink:href="#DejaVuSans-116"/>
      <use x="177.490234" xlink:href="#DejaVuSans-101"/>
     </g>
    </g>
   </g>
   <g id="matplotlib.axis_2">
    <g id="ytick_1">
     <g id="line2d_10">
      <defs>
       <path d="M 0 0 
L -3.5 0 
" id="m1c83694ecf" style="stroke:#000000;stroke-width:0.8;"/>
      </defs>
      <g>
       <use style="stroke:#000000;stroke-width:0.8;" x="108" xlink:href="#m1c83694ecf" y="450.796745"/>
      </g>
     </g>
     <g id="text_11">
      <!-- 0 -->
      <g transform="translate(93.365 455.355808)scale(0.12 -0.12)">
       <use xlink:href="#DejaVuSans-48"/>
      </g>
     </g>
    </g>
    <g id="ytick_2">
     <g id="line2d_11">
      <g>
       <use style="stroke:#000000;stroke-width:0.8;" x="108" xlink:href="#m1c83694ecf" y="388.662938"/>
      </g>
     </g>
     <g id="text_12">
      <!-- 2 -->
      <g transform="translate(93.365 393.222001)scale(0.12 -0.12)">
       <use xlink:href="#DejaVuSans-50"/>
      </g>
     </g>
    </g>
    <g id="ytick_3">
     <g id="line2d_12">
      <g>
       <use style="stroke:#000000;stroke-width:0.8;" x="108" xlink:href="#m1c83694ecf" y="326.529132"/>
      </g>
     </g>
     <g id="text_13">
      <!-- 4 -->
      <g transform="translate(93.365 331.088194)scale(0.12 -0.12)">
       <use xlink:href="#DejaVuSans-52"/>
      </g>
     </g>
    </g>
    <g id="ytick_4">
     <g id="line2d_13">
      <g>
       <use style="stroke:#000000;stroke-width:0.8;" x="108" xlink:href="#m1c83694ecf" y="264.395325"/>
      </g>
     </g>
     <g id="text_14">
      <!-- 6 -->
      <g transform="translate(93.365 268.954387)scale(0.12 -0.12)">
       <defs>
        <path d="M 33.015625 40.375 
Q 26.375 40.375 22.484375 35.828125 
Q 18.609375 31.296875 18.609375 23.390625 
Q 18.609375 15.53125 22.484375 10.953125 
Q 26.375 6.390625 33.015625 6.390625 
Q 39.65625 6.390625 43.53125 10.953125 
Q 47.40625 15.53125 47.40625 23.390625 
Q 47.40625 31.296875 43.53125 35.828125 
Q 39.65625 40.375 33.015625 40.375 
z
M 52.59375 71.296875 
L 52.59375 62.3125 
Q 48.875 64.0625 45.09375 64.984375 
Q 41.3125 65.921875 37.59375 65.921875 
Q 27.828125 65.921875 22.671875 59.328125 
Q 17.53125 52.734375 16.796875 39.40625 
Q 19.671875 43.65625 24.015625 45.921875 
Q 28.375 48.1875 33.59375 48.1875 
Q 44.578125 48.1875 50.953125 41.515625 
Q 57.328125 34.859375 57.328125 23.390625 
Q 57.328125 12.15625 50.6875 5.359375 
Q 44.046875 -1.421875 33.015625 -1.421875 
Q 20.359375 -1.421875 13.671875 8.265625 
Q 6.984375 17.96875 6.984375 36.375 
Q 6.984375 53.65625 15.1875 63.9375 
Q 23.390625 74.21875 37.203125 74.21875 
Q 40.921875 74.21875 44.703125 73.484375 
Q 48.484375 72.75 52.59375 71.296875 
z
" id="DejaVuSans-54"/>
       </defs>
       <use xlink:href="#DejaVuSans-54"/>
      </g>
     </g>
    </g>
    <g id="ytick_5">
     <g id="line2d_14">
      <g>
       <use style="stroke:#000000;stroke-width:0.8;" x="108" xlink:href="#m1c83694ecf" y="202.261518"/>
      </g>
     </g>
     <g id="text_15">
      <!-- 8 -->
      <g transform="translate(93.365 206.820581)scale(0.12 -0.12)">
       <defs>
        <path d="M 31.78125 34.625 
Q 24.75 34.625 20.71875 30.859375 
Q 16.703125 27.09375 16.703125 20.515625 
Q 16.703125 13.921875 20.71875 10.15625 
Q 24.75 6.390625 31.78125 6.390625 
Q 38.8125 6.390625 42.859375 10.171875 
Q 46.921875 13.96875 46.921875 20.515625 
Q 46.921875 27.09375 42.890625 30.859375 
Q 38.875 34.625 31.78125 34.625 
z
M 21.921875 38.8125 
Q 15.578125 40.375 12.03125 44.71875 
Q 8.5 49.078125 8.5 55.328125 
Q 8.5 64.0625 14.71875 69.140625 
Q 20.953125 74.21875 31.78125 74.21875 
Q 42.671875 74.21875 48.875 69.140625 
Q 55.078125 64.0625 55.078125 55.328125 
Q 55.078125 49.078125 51.53125 44.71875 
Q 48 40.375 41.703125 38.8125 
Q 48.828125 37.15625 52.796875 32.3125 
Q 56.78125 27.484375 56.78125 20.515625 
Q 56.78125 9.90625 50.3125 4.234375 
Q 43.84375 -1.421875 31.78125 -1.421875 
Q 19.734375 -1.421875 13.25 4.234375 
Q 6.78125 9.90625 6.78125 20.515625 
Q 6.78125 27.484375 10.78125 32.3125 
Q 14.796875 37.15625 21.921875 38.8125 
z
M 18.3125 54.390625 
Q 18.3125 48.734375 21.84375 45.5625 
Q 25.390625 42.390625 31.78125 42.390625 
Q 38.140625 42.390625 41.71875 45.5625 
Q 45.3125 48.734375 45.3125 54.390625 
Q 45.3125 60.0625 41.71875 63.234375 
Q 38.140625 66.40625 31.78125 66.40625 
Q 25.390625 66.40625 21.84375 63.234375 
Q 18.3125 60.0625 18.3125 54.390625 
z
" id="DejaVuSans-56"/>
       </defs>
       <use xlink:href="#DejaVuSans-56"/>
      </g>
     </g>
    </g>
    <g id="ytick_6">
     <g id="line2d_15">
      <g>
       <use style="stroke:#000000;stroke-width:0.8;" x="108" xlink:href="#m1c83694ecf" y="140.127711"/>
      </g>
     </g>
     <g id="text_16">
      <!-- 10 -->
      <g transform="translate(85.73 144.686774)scale(0.12 -0.12)">
       <use xlink:href="#DejaVuSans-49"/>
       <use x="63.623047" xlink:href="#DejaVuSans-48"/>
      </g>
     </g>
    </g>
    <g id="ytick_7">
     <g id="line2d_16">
      <g>
       <use style="stroke:#000000;stroke-width:0.8;" x="108" xlink:href="#m1c83694ecf" y="77.993904"/>
      </g>
     </g>
     <g id="text_17">
      <!-- 12 -->
      <g transform="translate(85.73 82.552967)scale(0.12 -0.12)">
       <use xlink:href="#DejaVuSans-49"/>
       <use x="63.623047" xlink:href="#DejaVuSans-50"/>
      </g>
     </g>
    </g>
    <g id="text_18">
     <!-- SO2(ppm) -->
     <g transform="translate(78.610469 303.077578)rotate(-90)scale(0.15 -0.15)">
      <defs>
       <path d="M 53.515625 70.515625 
L 53.515625 60.890625 
Q 47.90625 63.578125 42.921875 64.890625 
Q 37.9375 66.21875 33.296875 66.21875 
Q 25.25 66.21875 20.875 63.09375 
Q 16.5 59.96875 16.5 54.203125 
Q 16.5 49.359375 19.40625 46.890625 
Q 22.3125 44.4375 30.421875 42.921875 
L 36.375 41.703125 
Q 47.40625 39.59375 52.65625 34.296875 
Q 57.90625 29 57.90625 20.125 
Q 57.90625 9.515625 50.796875 4.046875 
Q 43.703125 -1.421875 29.984375 -1.421875 
Q 24.8125 -1.421875 18.96875 -0.25 
Q 13.140625 0.921875 6.890625 3.21875 
L 6.890625 13.375 
Q 12.890625 10.015625 18.65625 8.296875 
Q 24.421875 6.59375 29.984375 6.59375 
Q 38.421875 6.59375 43.015625 9.90625 
Q 47.609375 13.234375 47.609375 19.390625 
Q 47.609375 24.75 44.3125 27.78125 
Q 41.015625 30.8125 33.5 32.328125 
L 27.484375 33.5 
Q 16.453125 35.6875 11.515625 40.375 
Q 6.59375 45.0625 6.59375 53.421875 
Q 6.59375 63.09375 13.40625 68.65625 
Q 20.21875 74.21875 32.171875 74.21875 
Q 37.3125 74.21875 42.625 73.28125 
Q 47.953125 72.359375 53.515625 70.515625 
z
" id="DejaVuSans-83"/>
       <path d="M 39.40625 66.21875 
Q 28.65625 66.21875 22.328125 58.203125 
Q 16.015625 50.203125 16.015625 36.375 
Q 16.015625 22.609375 22.328125 14.59375 
Q 28.65625 6.59375 39.40625 6.59375 
Q 50.140625 6.59375 56.421875 14.59375 
Q 62.703125 22.609375 62.703125 36.375 
Q 62.703125 50.203125 56.421875 58.203125 
Q 50.140625 66.21875 39.40625 66.21875 
z
M 39.40625 74.21875 
Q 54.734375 74.21875 63.90625 63.9375 
Q 73.09375 53.65625 73.09375 36.375 
Q 73.09375 19.140625 63.90625 8.859375 
Q 54.734375 -1.421875 39.40625 -1.421875 
Q 24.03125 -1.421875 14.8125 8.828125 
Q 5.609375 19.09375 5.609375 36.375 
Q 5.609375 53.65625 14.8125 63.9375 
Q 24.03125 74.21875 39.40625 74.21875 
z
" id="DejaVuSans-79"/>
       <path d="M 31 75.875 
Q 24.46875 64.65625 21.28125 53.65625 
Q 18.109375 42.671875 18.109375 31.390625 
Q 18.109375 20.125 21.3125 9.0625 
Q 24.515625 -2 31 -13.1875 
L 23.1875 -13.1875 
Q 15.875 -1.703125 12.234375 9.375 
Q 8.59375 20.453125 8.59375 31.390625 
Q 8.59375 42.28125 12.203125 53.3125 
Q 15.828125 64.359375 23.1875 75.875 
z
" id="DejaVuSans-40"/>
       <path d="M 18.109375 8.203125 
L 18.109375 -20.796875 
L 9.078125 -20.796875 
L 9.078125 54.6875 
L 18.109375 54.6875 
L 18.109375 46.390625 
Q 20.953125 51.265625 25.265625 53.625 
Q 29.59375 56 35.59375 56 
Q 45.5625 56 51.78125 48.09375 
Q 58.015625 40.1875 58.015625 27.296875 
Q 58.015625 14.40625 51.78125 6.484375 
Q 45.5625 -1.421875 35.59375 -1.421875 
Q 29.59375 -1.421875 25.265625 0.953125 
Q 20.953125 3.328125 18.109375 8.203125 
z
M 48.6875 27.296875 
Q 48.6875 37.203125 44.609375 42.84375 
Q 40.53125 48.484375 33.40625 48.484375 
Q 26.265625 48.484375 22.1875 42.84375 
Q 18.109375 37.203125 18.109375 27.296875 
Q 18.109375 17.390625 22.1875 11.75 
Q 26.265625 6.109375 33.40625 6.109375 
Q 40.53125 6.109375 44.609375 11.75 
Q 48.6875 17.390625 48.6875 27.296875 
z
" id="DejaVuSans-112"/>
       <path d="M 52 44.1875 
Q 55.375 50.25 60.0625 53.125 
Q 64.75 56 71.09375 56 
Q 79.640625 56 84.28125 50.015625 
Q 88.921875 44.046875 88.921875 33.015625 
L 88.921875 0 
L 79.890625 0 
L 79.890625 32.71875 
Q 79.890625 40.578125 77.09375 44.375 
Q 74.3125 48.1875 68.609375 48.1875 
Q 61.625 48.1875 57.5625 43.546875 
Q 53.515625 38.921875 53.515625 30.90625 
L 53.515625 0 
L 44.484375 0 
L 44.484375 32.71875 
Q 44.484375 40.625 41.703125 44.40625 
Q 38.921875 48.1875 33.109375 48.1875 
Q 26.21875 48.1875 22.15625 43.53125 
Q 18.109375 38.875 18.109375 30.90625 
L 18.109375 0 
L 9.078125 0 
L 9.078125 54.6875 
L 18.109375 54.6875 
L 18.109375 46.1875 
Q 21.1875 51.21875 25.484375 53.609375 
Q 29.78125 56 35.6875 56 
Q 41.65625 56 45.828125 52.96875 
Q 50 49.953125 52 44.1875 
z
" id="DejaVuSans-109"/>
       <path d="M 8.015625 75.875 
L 15.828125 75.875 
Q 23.140625 64.359375 26.78125 53.3125 
Q 30.421875 42.28125 30.421875 31.390625 
Q 30.421875 20.453125 26.78125 9.375 
Q 23.140625 -1.703125 15.828125 -13.1875 
L 8.015625 -13.1875 
Q 14.5 -2 17.703125 9.0625 
Q 20.90625 20.125 20.90625 31.390625 
Q 20.90625 42.671875 17.703125 53.65625 
Q 14.5 64.65625 8.015625 75.875 
z
" id="DejaVuSans-41"/>
      </defs>
      <use xlink:href="#DejaVuSans-83"/>
      <use x="63.476562" xlink:href="#DejaVuSans-79"/>
      <use x="142.1875" xlink:href="#DejaVuSans-50"/>
      <use x="205.810547" xlink:href="#DejaVuSans-40"/>
      <use x="244.824219" xlink:href="#DejaVuSans-112"/>
      <use x="308.300781" xlink:href="#DejaVuSans-112"/>
      <use x="371.777344" xlink:href="#DejaVuSans-109"/>
      <use x="469.189453" xlink:href="#DejaVuSans-41"/>
     </g>
    </g>
   </g>
   <g id="line2d_17">
    <path clip-path="url(#p4387584327)" d="M 138.436364 370.724132 
L 139.273678 388.325863 
L 140.110992 381.929255 
L 140.948306 377.337499 
L 141.78562 360.515806 
L 142.622934 384.527416 
L 143.460248 382.763851 
L 144.297562 385.307454 
L 145.134876 338.199932 
L 145.97219 340.980937 
L 146.809504 379.270637 
L 147.646818 392.361712 
L 148.484132 391.819077 
L 149.321446 369.604947 
L 150.15876 335.52067 
L 150.996074 355.733833 
L 151.833388 351.291007 
L 152.670702 376.727034 
L 153.508016 385.884004 
L 154.345329 384.493501 
L 155.182643 393.413068 
L 156.019957 399.789032 
L 156.857271 403.078758 
L 157.694585 400.331667 
L 158.531899 387.545824 
L 159.369213 364.822973 
L 160.206527 355.530345 
L 161.881155 378.694087 
L 162.718469 389.716365 
L 163.555783 388.461521 
L 164.393097 399.958606 
L 165.230411 398.364615 
L 166.067725 399.110738 
L 166.905039 391.988651 
L 167.742353 397.821979 
L 168.579667 389.580707 
L 169.416981 391.310356 
L 170.254295 390.394659 
L 171.091609 394.396594 
L 171.928923 395.346206 
L 172.766237 396.126244 
L 173.603551 396.126244 
L 174.440865 401.179535 
L 175.278179 379.881102 
L 176.115493 366.043903 
L 176.952807 367.773553 
L 177.790121 369.096226 
L 178.627435 375.404361 
L 179.464749 352.68151 
L 180.302063 382.255131 
L 181.139377 384.730904 
L 181.976691 383.035169 
L 182.814005 379.279886 
L 183.651319 384.120439 
L 184.488633 380.186334 
L 185.325947 363.364641 
L 186.163261 386.494469 
L 187.000575 386.053577 
L 187.837889 386.528383 
L 188.675203 386.86753 
L 189.512517 382.085557 
L 190.349831 345.796825 
L 192.861773 267.01297 
L 194.536401 379.236722 
L 195.373715 384.527416 
L 196.211029 377.812305 
L 197.048343 379.813272 
L 197.885657 357.599142 
L 198.722971 376.690036 
L 199.560285 383.340401 
L 202.072227 365.162121 
L 202.909541 370.418899 
L 203.746855 377.269669 
L 204.584169 375.506105 
L 205.421483 382.96734 
L 206.258797 381.644666 
L 207.096111 371.911146 
L 207.933425 369.503202 
L 208.770739 367.46832 
L 209.608053 371.639829 
L 210.445367 359.46445 
L 211.282681 340.573961 
L 212.119995 351.969301 
L 212.957309 356.448991 
L 213.794623 359.701853 
L 214.631937 357.666971 
L 215.469251 357.531312 
L 216.306565 360.583636 
L 217.143879 347.594304 
L 217.981193 330.331721 
L 218.818507 332.095285 
L 219.655821 345.966399 
L 220.493135 351.664069 
L 221.330449 328.025521 
L 222.167763 287.56528 
L 223.005077 285.055592 
L 223.842391 283.699004 
L 224.679705 324.464477 
L 225.517019 334.265826 
L 226.354333 339.319117 
L 227.191647 336.538111 
L 228.028961 333.350129 
L 228.866275 336.775514 
L 229.703589 337.216405 
L 232.215531 325.549748 
L 233.052845 301.673797 
L 233.890159 261.89185 
L 234.727473 267.928667 
L 235.564787 320.326883 
L 236.402101 319.377272 
L 237.239415 327.991606 
L 238.076729 329.348194 
L 238.914043 323.989671 
L 239.751357 326.736762 
L 240.588671 325.922809 
L 241.425985 321.513898 
L 242.263299 319.885992 
L 243.100613 320.428627 
L 243.937927 316.426692 
L 244.775241 326.024553 
L 246.449869 294.924771 
L 247.287183 290.041054 
L 248.124497 313.476113 
L 248.961811 350.002248 
L 249.799125 353.25806 
L 250.636439 353.291975 
L 251.473753 348.64566 
L 252.311067 344.915043 
L 253.148381 345.084616 
L 253.985695 341.116596 
L 254.823009 344.270664 
L 255.660323 344.609811 
L 256.497637 345.593337 
L 257.334951 339.454776 
L 258.172265 336.378228 
L 259.009579 331.993541 
L 259.846893 330.738697 
L 260.684207 333.417959 
L 262.358835 342.134037 
L 263.196149 339.522605 
L 264.033463 338.471249 
L 264.870777 334.604973 
L 265.708091 331.823968 
L 266.545405 331.145674 
L 267.382719 326.906336 
L 268.220033 331.654394 
L 269.057347 331.790053 
L 269.89466 326.024553 
L 270.731974 331.111759 
L 271.569288 311.373402 
L 272.406602 304.081741 
L 273.243916 306.998405 
L 274.08123 304.319144 
L 274.918544 300.11372 
L 275.755858 294.443799 
L 276.593172 295.467406 
L 277.430486 290.855007 
L 278.2678 290.753262 
L 279.105114 292.347253 
L 279.942428 267.793009 
L 280.779742 280.409278 
L 281.617056 242.831787 
L 282.45437 270.709673 
L 283.291684 424.343277 
L 284.128998 440.317102 
L 285.803626 427.429515 
L 286.64094 438.587452 
L 287.478254 433.466332 
L 288.315568 442.996364 
L 289.152882 435.128153 
L 289.990196 433.500247 
L 290.82751 437.264779 
L 291.664824 433.568076 
L 292.502138 432.008 
L 293.339452 430.108777 
L 294.176766 431.160132 
L 295.01408 430.956644 
L 295.851394 432.58455 
L 296.688708 430.583582 
L 297.526022 432.347147 
L 298.363336 429.735715 
L 299.20065 429.159165 
L 300.037964 426.412074 
L 300.875278 427.056453 
L 301.712592 430.583582 
L 302.549906 429.19308 
L 303.38722 429.498312 
L 304.224534 425.38726 
L 305.061848 430.820985 
L 305.899162 430.753156 
L 306.736476 424.275448 
L 307.57379 420.917892 
L 308.411104 423.563239 
L 309.248418 427.836491 
L 310.085732 423.258007 
L 310.923046 419.798707 
L 311.76036 422.91886 
L 312.597674 422.27448 
L 313.434988 425.801609 
L 314.272302 422.456386 
L 315.109616 423.224092 
L 315.94693 417.594251 
L 316.784244 416.915957 
L 317.621558 418.984754 
L 318.458872 428.853933 
L 319.296186 428.955677 
L 320.1335 433.66982 
L 320.970814 425.496377 
L 321.808128 418.509948 
L 322.645442 418.340375 
L 323.482756 422.647542 
L 324.32007 418.374289 
L 325.157384 416.716893 
L 325.994698 419.120413 
L 326.832012 425.021571 
L 327.669326 420.578745 
L 328.50664 417.322934 
L 329.343954 414.84716 
L 330.181268 414.541928 
L 331.018582 412.981852 
L 331.855896 409.929528 
L 332.69321 415.220222 
L 333.530524 413.083596 
L 334.367838 411.555649 
L 335.205152 409.556467 
L 336.042466 400.704729 
L 336.87978 400.501241 
L 337.717094 398.941165 
L 338.554408 399.856862 
L 339.391722 399.924691 
L 340.229036 388.122374 
L 342.740978 393.107836 
L 343.578292 397.245429 
L 344.415606 400.602985 
L 345.25292 402.264805 
L 346.090234 400.704729 
L 346.927548 406.84329 
L 347.764862 403.383991 
L 348.602176 373.606882 
L 349.43949 362.448944 
L 350.276804 362.618518 
L 351.114118 366.077818 
L 351.951432 363.277432 
L 352.788746 366.009988 
L 353.62606 341.252255 
L 354.463374 356.378212 
L 355.300688 357.293909 
L 356.138002 363.059409 
L 356.975316 364.314253 
L 357.81263 362.008053 
L 358.649944 360.821039 
L 359.487258 356.581701 
L 360.324572 356.005151 
L 361.161886 361.295844 
L 361.9992 360.956697 
L 362.836514 359.159218 
L 363.673828 362.279371 
L 364.511142 359.430536 
L 365.348456 364.6534 
L 367.023084 360.210574 
L 367.860398 358.95573 
L 368.697712 368.010956 
L 369.535026 367.909211 
L 372.046968 328.025521 
L 372.884282 301.131161 
L 373.721596 330.094318 
L 374.55891 336.639855 
L 375.396224 355.767748 
L 376.233538 357.327824 
L 377.070852 351.155348 
L 377.908166 341.86272 
L 379.582794 314.222237 
L 380.420108 320.73386 
L 381.257422 317.817195 
L 382.094736 315.61274 
L 382.93205 298.248412 
L 383.769364 263.146694 
L 384.606678 251.717439 
L 385.443991 302.555579 
L 386.281305 317.647622 
L 387.118619 317.240645 
L 387.955933 323.006145 
L 388.793247 330.772612 
L 389.630561 324.939283 
L 390.467875 325.007112 
L 391.305189 323.480951 
L 392.142503 299.740659 
L 392.979817 303.810423 
L 393.817131 299.062365 
L 394.654445 302.318176 
L 395.491759 265.622468 
L 396.329073 223.432577 
L 397.166387 218.379286 
L 398.003701 218.582775 
L 398.841015 204.982979 
L 399.678329 267.182544 
L 400.515643 264.928214 
L 401.352957 225.196142 
L 402.190271 251.64961 
L 403.027585 305.438329 
L 403.864899 298.587559 
L 404.702213 313.875717 
L 405.539527 310.491619 
L 406.376841 309.168946 
L 407.214155 312.390843 
L 408.051469 311.237743 
L 408.888783 311.916037 
L 410.563411 302.48775 
L 411.400725 304.115655 
L 412.238039 311.441231 
L 413.075353 303.403447 
L 413.912667 298.180582 
L 414.749981 278.747458 
L 415.587295 267.623435 
L 416.424609 262.841462 
L 417.261923 256.804645 
L 418.099237 271.218394 
L 418.936551 265.385065 
L 420.611179 225.297886 
L 421.448493 178.610906 
L 422.285807 225.433545 
L 423.123121 242.119578 
L 423.960435 212.410299 
L 424.797749 284.565371 
L 425.635063 279.654307 
L 426.472377 307.969437 
L 428.147005 285.055592 
L 428.984319 255.04108 
L 429.821633 243.312759 
L 430.658947 240.525587 
L 431.496261 235.506211 
L 432.333575 205.593443 
L 433.170889 189.212642 
L 434.008203 195.147715 
L 434.845517 209.764952 
L 435.682831 269.420914 
L 436.520145 263.587585 
L 437.357459 294.178647 
L 438.194773 266.843397 
L 439.032087 266.809482 
L 439.869401 280.544937 
L 440.706715 263.960647 
L 441.544029 222.075989 
L 442.381343 187.957798 
L 443.218657 185.787257 
L 444.055971 215.15739 
L 444.893285 164.31925 
L 445.730599 86.959813 
L 446.567913 228.621527 
L 447.405227 249.682557 
L 448.242541 240.695161 
L 449.079855 186.770783 
L 449.917169 156.790186 
L 450.754483 178.495596 
L 451.591797 132.439429 
L 452.429111 154.144839 
L 453.266425 160.690377 
L 454.103739 206.882202 
L 454.941053 237.032373 
L 455.778367 233.437415 
L 456.615681 177.071178 
L 457.452995 244.126712 
L 458.290309 252.904454 
L 459.127623 247.61376 
L 459.964937 260.501347 
L 460.802251 262.000377 
L 461.639565 272.981958 
L 462.476879 267.521691 
L 463.314193 269.217426 
L 464.151507 260.603092 
L 464.988821 265.85987 
L 465.826135 242.763958 
L 466.663449 255.074995 
L 467.500763 246.901552 
L 468.338077 259.07693 
L 469.175391 246.291087 
L 470.012705 256.601157 
L 470.850019 251.819183 
L 471.687333 259.382162 
L 472.524647 244.086631 
L 473.361961 247.715504 
L 474.199275 258.229062 
L 475.036589 260.365689 
L 475.873903 275.59339 
L 476.711217 271.727114 
L 477.548531 252.531392 
L 478.385845 247.885078 
L 479.223159 262.502315 
L 480.060473 246.935466 
L 480.897787 251.07306 
L 481.735101 254.634104 
L 482.572415 234.895747 
L 483.409729 234.895747 
L 484.247043 238.015899 
L 485.084357 251.242634 
L 485.921671 253.243601 
L 486.758985 243.917058 
L 487.596299 257.34728 
L 488.433613 255.549801 
L 489.270927 254.668019 
L 490.108241 247.952907 
L 490.945555 246.596319 
L 491.782869 239.406402 
L 492.620183 234.420941 
L 493.457497 252.667051 
L 494.294811 247.003296 
L 495.132125 242.763958 
L 495.969439 253.921895 
L 496.806753 244.052717 
L 497.644067 253.921895 
L 498.481381 246.121513 
L 499.318695 250.191278 
L 500.156009 248.325969 
L 500.993322 228.689356 
L 501.830636 242.594384 
L 502.66795 245.307561 
L 503.505264 244.391864 
L 504.342578 245.748452 
L 505.179892 247.410272 
L 506.017206 251.717439 
L 506.85452 254.261042 
L 507.691834 258.669953 
L 508.529148 240.525587 
L 509.366462 212.545958 
L 510.203776 189.755277 
L 511.04109 111.80307 
L 512.715718 336.877258 
L 513.553032 348.916978 
L 514.390346 346.644693 
L 515.22766 351.392751 
L 516.064974 346.610778 
L 516.902288 339.183458 
L 517.739602 343.456711 
L 518.576916 344.338493 
L 519.41423 346.576863 
L 520.251544 345.491593 
L 521.088858 348.950893 
L 521.926172 349.120466 
L 522.763486 351.867557 
L 523.6008 349.629187 
L 524.438114 349.256125 
L 525.275428 346.509034 
L 526.112742 351.52841 
L 526.950056 351.426666 
L 527.78737 349.256125 
L 528.624684 349.730931 
L 529.461998 349.391784 
L 530.299312 351.52841 
L 531.136626 346.271631 
L 531.97394 351.799728 
L 532.811254 347.119499 
L 533.648568 348.001281 
L 534.485882 349.764845 
L 535.323196 347.49256 
L 536.16051 343.936361 
L 536.997824 355.123368 
L 537.835138 352.884998 
L 538.672452 355.632089 
L 539.509766 348.272598 
L 540.34708 344.236749 
L 541.184394 345.83074 
L 542.021708 340.472217 
L 542.859022 347.628219 
L 543.696336 347.49256 
L 544.53365 347.119499 
L 545.370964 340.743534 
L 546.208278 340.472217 
L 547.045592 346.000313 
L 547.882906 342.778417 
L 548.72022 338.742567 
L 549.557534 340.811364 
L 550.394848 341.489658 
L 551.232162 340.506132 
L 552.069476 340.879193 
L 552.90679 339.285202 
L 553.744104 335.859817 
L 554.581418 338.40342 
L 555.418732 342.541014 
L 556.256046 341.014852 
L 557.09336 337.996444 
L 557.930674 340.166985 
L 558.767988 340.200899 
L 559.605302 339.793923 
L 560.442616 343.422796 
L 561.27993 345.966399 
L 562.117244 350.409225 
L 562.954558 347.289072 
L 563.791872 345.050702 
L 564.629186 338.301676 
L 565.4665 337.928614 
L 566.303814 339.793923 
L 567.141128 341.150511 
L 567.978442 336.979002 
L 568.815756 338.437335 
L 569.65307 335.283267 
L 571.327698 337.046832 
L 572.165012 337.012917 
L 573.002326 336.504197 
L 573.83964 340.06524 
L 574.676954 342.032293 
L 576.351582 349.79876 
L 578.02621 281.426719 
L 578.863524 272.812385 
L 579.700838 272.880214 
L 580.538152 272.439323 
L 581.375466 276.678661 
L 582.21278 270.540099 
L 583.050094 274.101143 
L 583.887408 275.762964 
L 584.724722 279.154434 
L 585.562036 273.965484 
L 586.39935 277.560443 
L 587.236664 269.692232 
L 588.073978 270.370526 
L 588.911292 270.743588 
L 589.748606 267.860838 
L 590.58592 273.185446 
L 591.423234 269.183511 
L 592.260548 269.692232 
L 593.097862 270.065294 
L 593.935176 272.032346 
L 594.77249 269.624403 
L 595.609804 270.802168 
L 596.447118 273.93157 
L 598.121746 277.89959 
L 598.95906 270.879247 
L 599.796374 279.798813 
L 600.633688 281.155401 
L 601.471002 274.915096 
L 602.308316 277.187381 
L 603.14563 273.86374 
L 604.820258 269.217426 
L 605.657572 276.475172 
L 606.494886 271.116649 
L 607.3322 274.101143 
L 608.169514 278.001334 
L 609.006828 277.89959 
L 609.844142 274.949011 
L 610.681456 272.812385 
L 611.51877 271.62537 
L 612.356084 275.59339 
L 613.193398 273.626337 
L 614.030712 277.390869 
L 614.868026 274.915096 
L 615.70534 276.16994 
L 616.542653 271.591455 
L 617.379967 271.727114 
L 618.217281 274.847267 
L 619.054595 275.118584 
L 619.891909 272.066261 
L 620.729223 267.453862 
L 621.566537 278.306566 
L 622.403851 268.980023 
L 623.241165 270.980991 
L 624.078479 265.588553 
L 624.915793 266.300762 
L 625.753107 266.470335 
L 626.590421 269.997464 
L 627.427735 266.843397 
L 628.265049 266.266847 
L 629.102363 268.912194 
L 629.939677 267.962582 
L 630.776991 265.045918 
L 631.614305 267.250373 
L 632.451619 266.741653 
L 633.288933 263.824988 
L 634.126247 268.403473 
L 634.963561 270.268782 
L 635.800875 267.793009 
L 636.638189 268.16607 
L 637.475503 265.215491 
L 638.312817 265.9277 
L 639.150131 264.808515 
L 639.987445 264.672856 
L 640.824759 269.556573 
L 641.662073 266.911226 
L 642.499387 267.555606 
L 643.336701 270.167038 
L 644.174015 268.199985 
L 645.011329 271.387967 
L 645.848643 266.945141 
L 646.685957 266.538165 
L 647.523271 273.897655 
L 648.360585 269.590488 
L 649.197899 272.20192 
L 650.035213 267.793009 
L 650.872527 268.912194 
L 651.709841 271.150564 
L 652.547155 270.302697 
L 653.384469 276.068196 
L 655.059097 271.252308 
L 655.896411 272.337579 
L 656.733725 266.402506 
L 657.571039 269.89572 
L 658.408353 267.65735 
L 659.245667 267.521691 
L 660.082981 272.71064 
L 660.920295 269.861805 
L 661.757609 265.85987 
L 662.594923 273.694167 
L 663.432237 277.967419 
L 665.106865 272.642811 
L 665.944179 275.559476 
L 666.781493 271.998432 
L 667.618807 278.272652 
L 668.456121 275.220328 
L 669.293435 276.576917 
L 670.130749 276.916064 
L 670.968063 277.458699 
L 671.805377 275.08467 
L 672.642691 273.388935 
L 673.480005 273.083702 
L 674.317319 272.405408 
L 675.154633 273.93157 
L 675.991947 273.422849 
L 676.829261 274.474205 
L 677.666575 270.709673 
L 678.503889 221.770757 
L 679.341203 256.18449 
L 680.178517 273.151532 
L 681.015831 278.340481 
L 681.853145 273.728082 
L 682.690459 265.317235 
L 683.527773 265.893785 
L 684.365087 268.335644 
L 685.202401 265.825956 
L 686.039715 260.698053 
L 686.877029 264.164135 
L 687.714343 264.367624 
L 688.551657 262.773633 
L 689.388971 259.992627 
L 690.226285 260.331774 
L 691.063599 260.89528 
L 691.900913 264.16898 
L 692.738227 279.527496 
L 693.575541 283.190284 
L 694.412855 280.544937 
L 695.250169 278.815287 
L 696.087483 275.695134 
L 697.762111 283.732919 
L 698.599425 282.851137 
L 699.436739 284.207725 
L 700.274053 284.241639 
L 701.111367 279.290093 
L 701.948681 282.206757 
L 702.785995 281.596293 
L 704.460623 239.982952 
L 705.297937 230.588579 
L 706.135251 190.553814 
L 706.972565 186.804698 
L 707.809879 230.554665 
L 708.647193 263.960647 
L 709.484507 255.346313 
L 710.321821 252.395733 
L 711.159135 254.7081 
L 711.996449 250.712331 
L 712.833763 276.98081 
L 713.671077 276.46284 
L 714.508391 273.022039 
L 715.345705 240.01995 
L 717.020333 188.666924 
L 717.857647 180.638388 
L 718.694961 211.5316 
L 719.532275 231.843423 
L 720.369589 232.435389 
L 721.206903 235.543209 
L 722.044217 213.751471 
L 722.881531 180.897373 
L 723.718845 199.026324 
L 724.556159 176.12465 
L 725.393473 194.068611 
L 726.230787 190.220834 
L 727.068101 198.878332 
L 727.905415 255.596048 
L 728.742729 264.068558 
L 729.580043 262.81063 
L 730.417357 267.620352 
L 731.254671 260.553761 
L 732.091984 244.089714 
L 732.929298 236.727141 
L 733.766612 251.452288 
L 735.44124 234.692259 
L 737.115868 155.997815 
L 738.790496 245.347642 
L 739.62781 233.101351 
L 740.465124 218.635188 
L 741.302438 210.236675 
L 742.139752 216.19333 
L 742.977066 226.774717 
L 743.81438 221.595017 
L 744.651694 172.609853 
L 745.489008 160.252569 
L 746.326322 182.192298 
L 747.163636 171.573913 
L 747.163636 171.573913 
" style="fill:none;stroke:#1f77b4;stroke-linecap:square;stroke-width:1.5;"/>
   </g>
   <g id="line2d_18">
    <path clip-path="url(#p4387584327)" d="M 138.436364 320.817547 
L 139.273678 270.793977 
L 140.110992 267.216757 
L 140.948306 239.501606 
L 141.78562 341.35123 
L 143.460248 226.255843 
L 144.297562 250.539113 
L 145.134876 270.992364 
L 145.97219 267.3522 
L 146.809504 250.598679 
L 147.646818 349.759803 
L 148.484132 255.165435 
L 149.321446 334.608208 
L 150.15876 239.431759 
L 150.996074 294.915686 
L 151.833388 180.828716 
L 152.670702 252.553086 
L 153.508016 335.139484 
L 154.345329 239.86459 
L 155.182643 356.486114 
L 156.019957 273.960616 
L 156.857271 211.575314 
L 157.694585 229.926583 
L 158.531899 286.238249 
L 160.206527 276.871982 
L 161.043841 277.843519 
L 161.881155 352.375907 
L 162.718469 342.492563 
L 163.555783 201.820154 
L 164.393097 285.417561 
L 165.230411 236.163097 
L 166.067725 250.023339 
L 166.905039 286.207377 
L 167.742353 265.574004 
L 168.579667 277.439945 
L 169.416981 221.379152 
L 170.254295 258.386248 
L 171.091609 278.72844 
L 171.928923 238.125829 
L 172.766237 312.318453 
L 173.603551 212.886251 
L 174.440865 253.003753 
L 175.278179 275.417914 
L 176.115493 322.765257 
L 176.952807 263.383553 
L 177.790121 240.723646 
L 178.627435 291.963626 
L 179.464749 308.326846 
L 180.302063 338.5581 
L 181.139377 360.942203 
L 181.976691 277.214627 
L 182.814005 333.603658 
L 183.651319 326.460321 
L 184.488633 247.650633 
L 186.163261 276.702067 
L 187.000575 254.67357 
L 187.837889 189.477844 
L 188.675203 298.400067 
L 189.512517 242.960804 
L 190.349831 251.059879 
L 192.024459 204.260603 
L 192.861773 206.610258 
L 193.699087 248.36355 
L 194.536401 284.462053 
L 195.373715 272.824956 
L 196.211029 233.443955 
L 197.048343 278.04398 
L 197.885657 297.240291 
L 198.722971 262.322022 
L 199.560285 198.680358 
L 200.397599 205.279515 
L 201.234913 254.668519 
L 202.072227 236.88268 
L 202.909541 234.007177 
L 203.746855 234.126073 
L 204.584169 314.349003 
L 205.421483 346.96608 
L 206.258797 203.066014 
L 207.096111 210.4746 
L 207.933425 254.146834 
L 208.770739 254.125961 
L 209.608053 240.488431 
L 210.445367 235.277643 
L 211.282681 275.555223 
L 212.119995 222.122852 
L 212.957309 224.41891 
L 213.794623 232.108338 
L 214.631937 240.837209 
L 215.469251 234.772194 
L 216.306565 255.374458 
L 217.143879 264.646553 
L 217.981193 249.577219 
L 218.818507 324.037279 
L 219.655821 338.994212 
L 220.493135 252.483475 
L 221.330449 206.649915 
L 222.167763 249.090525 
L 223.005077 257.014322 
L 223.842391 157.927416 
L 224.679705 377.359183 
L 225.517019 250.121436 
L 226.354333 299.743936 
L 227.191647 165.054213 
L 228.028961 236.148624 
L 228.866275 291.102793 
L 230.540903 199.798093 
L 231.378217 211.247809 
L 232.215531 211.713927 
L 233.890159 268.689476 
L 235.564787 309.257867 
L 236.402101 264.670463 
L 237.239415 311.830692 
L 238.076729 300.45983 
L 238.914043 320.544438 
L 239.751357 328.382589 
L 240.588671 253.11456 
L 241.425985 328.571355 
L 242.263299 187.98674 
L 243.100613 294.860993 
L 243.937927 203.416658 
L 244.775241 252.223433 
L 245.612555 286.756571 
L 246.449869 348.935241 
L 247.287183 145.257097 
L 248.124497 240.142261 
L 248.961811 405.56999 
L 249.799125 159.068231 
L 250.636439 221.011769 
L 251.473753 261.97523 
L 252.311067 258.020968 
L 253.148381 242.987588 
L 253.985695 279.147524 
L 254.823009 301.766856 
L 255.660323 254.264115 
L 256.497637 254.443096 
L 257.334951 280.544322 
L 258.172265 283.954027 
L 259.009579 299.640209 
L 259.846893 254.439363 
L 260.684207 250.458318 
L 261.521521 314.511615 
L 262.358835 304.664654 
L 263.196149 260.00398 
L 264.033463 295.221518 
L 264.870777 215.379956 
L 265.708091 347.384912 
L 266.545405 341.761144 
L 267.382719 261.736757 
L 269.057347 212.162091 
L 269.89466 291.002873 
L 270.731974 235.580349 
L 271.569288 394.755988 
L 272.406602 320.806881 
L 273.243916 277.779627 
L 274.08123 248.086812 
L 274.918544 172.184625 
L 275.755858 336.029441 
L 276.593172 267.758929 
L 277.430486 304.890402 
L 278.2678 258.329822 
L 279.105114 294.165705 
L 279.942428 292.284849 
L 280.779742 231.195641 
L 281.617056 249.974616 
L 282.45437 160.099275 
L 283.291684 249.498973 
L 284.128998 382.394834 
L 284.966312 316.60102 
L 285.803626 393.454776 
L 286.64094 386.324483 
L 287.478254 355.005929 
L 288.315568 348.019886 
L 289.152882 349.381331 
L 289.990196 380.172037 
L 290.82751 317.629028 
L 291.664824 371.291613 
L 292.502138 343.445501 
L 293.339452 395.388613 
L 294.176766 372.419259 
L 295.01408 325.736176 
L 295.851394 338.759287 
L 296.688708 343.449456 
L 297.526022 414.184513 
L 298.363336 386.013362 
L 299.20065 407.762455 
L 300.037964 418.763771 
L 300.875278 385.491522 
L 301.712592 427.622619 
L 302.549906 382.259635 
L 303.38722 417.587581 
L 304.224534 383.33678 
L 305.061848 297.826638 
L 305.899162 425.245055 
L 306.736476 361.432231 
L 307.57379 408.147497 
L 308.411104 408.406147 
L 309.248418 404.04917 
L 310.085732 411.921341 
L 310.923046 403.38662 
L 311.76036 425.985214 
L 312.597674 377.676444 
L 313.434988 415.120941 
L 314.272302 227.258786 
L 315.109616 268.579735 
L 315.94693 257.669317 
L 316.784244 296.007748 
L 317.621558 364.122893 
L 318.458872 323.66714 
L 319.296186 340.269826 
L 320.1335 336.400188 
L 320.970814 420.423397 
L 321.808128 369.215807 
L 322.645442 349.735738 
L 323.482756 264.197382 
L 324.32007 270.716915 
L 325.157384 352.867542 
L 325.994698 401.996274 
L 326.832012 325.901913 
L 327.669326 419.101601 
L 328.50664 199.598195 
L 329.343954 300.79329 
L 330.181268 341.88615 
L 331.855896 390.903867 
L 332.69321 405.828121 
L 333.530524 411.269161 
L 334.367838 407.588304 
L 335.205152 360.629261 
L 336.042466 352.453606 
L 336.87978 214.558572 
L 337.717094 367.967036 
L 338.554408 398.289759 
L 339.391722 346.712741 
L 340.229036 356.960158 
L 342.740978 340.660934 
L 343.578292 337.460349 
L 344.415606 255.417359 
L 345.25292 378.42698 
L 346.090234 245.304356 
L 346.927548 262.956218 
L 347.764862 290.064475 
L 348.602176 321.207447 
L 349.43949 327.150943 
L 350.276804 309.32284 
L 351.114118 352.665281 
L 351.951432 325.679009 
L 352.788746 212.780688 
L 353.62606 358.351371 
L 354.463374 258.275737 
L 355.300688 230.098942 
L 356.138002 335.685597 
L 356.975316 355.419436 
L 357.81263 299.277966 
L 358.649944 338.01395 
L 359.487258 366.105742 
L 360.324572 280.283168 
L 361.161886 367.46084 
L 361.9992 236.5707 
L 362.836514 320.791563 
L 363.673828 284.736524 
L 364.511142 231.451506 
L 365.348456 362.883263 
L 366.18577 222.531018 
L 367.023084 364.668754 
L 367.860398 340.107236 
L 368.697712 326.525591 
L 369.535026 187.958564 
L 370.37234 229.429089 
L 371.209654 279.576918 
L 372.046968 309.364764 
L 372.884282 254.988261 
L 373.721596 327.262929 
L 374.55891 323.059075 
L 375.396224 369.114406 
L 376.233538 153.430848 
L 377.070852 268.253475 
L 377.908166 357.792437 
L 378.74548 243.890181 
L 379.582794 255.082403 
L 380.420108 301.216699 
L 381.257422 149.81292 
L 382.094736 277.129329 
L 382.93205 198.51145 
L 383.769364 227.327596 
L 384.606678 280.799653 
L 385.443991 235.694312 
L 386.281305 275.827754 
L 387.118619 282.935633 
L 387.955933 252.021772 
L 388.793247 162.764287 
L 389.630561 269.316339 
L 390.467875 298.173282 
L 391.305189 193.866863 
L 392.142503 285.223248 
L 392.979817 195.937662 
L 393.817131 212.089725 
L 394.654445 204.962676 
L 395.491759 259.398479 
L 396.329073 133.133854 
L 397.166387 163.063794 
L 398.003701 164.203098 
L 398.841015 190.466994 
L 399.678329 182.452521 
L 400.515643 249.581989 
L 401.352957 140.958472 
L 402.190271 97.86189 
L 403.027585 231.796936 
L 403.864899 253.644822 
L 404.702213 327.192978 
L 405.539527 162.478439 
L 406.376841 198.684091 
L 407.214155 271.978966 
L 408.051469 324.033886 
L 408.888783 163.064238 
L 409.726097 302.860326 
L 410.563411 220.206858 
L 411.400725 314.384482 
L 412.238039 293.641339 
L 413.075353 291.446459 
L 413.912667 282.369196 
L 414.749981 215.489742 
L 415.587295 216.624305 
L 416.424609 210.714585 
L 417.261923 171.120249 
L 418.099237 210.132637 
L 418.936551 270.429911 
L 419.773865 259.850523 
L 420.611179 303.282669 
L 421.448493 307.537386 
L 422.285807 113.687411 
L 423.123121 262.809961 
L 423.960435 147.329496 
L 424.797749 183.9814 
L 425.635063 258.575228 
L 426.472377 199.415095 
L 427.309691 207.51294 
L 428.147005 234.911148 
L 428.984319 224.800619 
L 429.821633 196.092555 
L 430.658947 200.624913 
L 431.496261 197.736686 
L 432.333575 164.942161 
L 433.170889 167.469582 
L 434.008203 151.348465 
L 434.845517 113.923011 
L 435.682831 230.858226 
L 437.357459 207.898575 
L 438.194773 233.540645 
L 439.032087 209.768409 
L 439.869401 251.189589 
L 440.706715 215.934883 
L 441.544029 292.388294 
L 442.381343 171.270195 
L 443.218657 143.855381 
L 444.055971 156.419306 
L 444.893285 238.286292 
L 445.730599 86.923636 
L 446.567913 234.568608 
L 447.405227 240.938135 
L 448.242541 168.217593 
L 449.079855 156.863781 
L 449.917169 184.030878 
L 450.754483 247.182382 
L 451.591797 160.685222 
L 452.429111 165.499784 
L 453.266425 246.196224 
L 454.103739 180.227303 
L 454.941053 241.664444 
L 455.778367 237.801198 
L 456.615681 197.294285 
L 457.452995 185.804482 
L 458.290309 194.755783 
L 459.127623 219.925158 
L 459.964937 249.26478 
L 460.802251 238.026665 
L 461.639565 258.874187 
L 462.476879 165.753575 
L 463.314193 244.55713 
L 464.151507 255.480155 
L 464.988821 257.71644 
L 465.826135 201.959138 
L 466.663449 289.767709 
L 467.500763 186.825453 
L 468.338077 288.4211 
L 469.175391 251.273243 
L 470.012705 254.623203 
L 470.850019 221.50544 
L 471.687333 238.331208 
L 472.524647 233.7229 
L 473.361961 216.526222 
L 474.199275 244.883139 
L 475.873903 175.738498 
L 476.711217 202.326462 
L 477.548531 219.92335 
L 478.385845 245.659948 
L 479.223159 221.439415 
L 480.060473 252.498763 
L 480.897787 226.805956 
L 481.735101 254.943582 
L 482.572415 182.332174 
L 483.409729 235.488622 
L 484.247043 190.914817 
L 485.084357 231.941534 
L 485.921671 185.361874 
L 486.758985 207.119351 
L 487.596299 249.73515 
L 488.433613 226.326342 
L 489.270927 217.382345 
L 490.108241 179.759481 
L 490.945555 227.848807 
L 491.782869 234.003504 
L 492.620183 214.859397 
L 493.457497 242.933547 
L 494.294811 181.46666 
L 495.132125 191.273697 
L 495.969439 209.877794 
L 496.806753 212.783443 
L 497.644067 239.385184 
L 499.318695 263.752655 
L 500.156009 158.728845 
L 500.993322 251.069597 
L 501.830636 277.303614 
L 502.66795 151.752676 
L 503.505264 254.080112 
L 504.342578 176.287647 
L 505.179892 250.099156 
L 506.017206 288.68449 
L 506.85452 172.010473 
L 507.691834 196.11048 
L 508.529148 297.923002 
L 509.366462 137.770738 
L 510.203776 232.276208 
L 511.04109 220.5911 
L 511.878404 211.457944 
L 512.715718 271.062285 
L 513.553032 296.169116 
L 514.390346 144.969975 
L 515.22766 346.567832 
L 516.064974 239.775781 
L 516.902288 298.441694 
L 517.739602 239.274302 
L 518.576916 321.858457 
L 519.41423 258.262804 
L 520.251544 252.845319 
L 521.088858 240.829135 
L 521.926172 240.977925 
L 522.763486 341.518463 
L 523.6008 259.094558 
L 524.438114 236.649184 
L 526.112742 298.363492 
L 526.950056 365.978291 
L 527.78737 304.62636 
L 528.624684 369.146241 
L 529.461998 254.186387 
L 530.299312 248.026609 
L 531.136626 249.605662 
L 531.97394 286.618357 
L 532.811254 293.122069 
L 533.648568 234.930347 
L 534.485882 303.603522 
L 535.323196 381.988994 
L 536.16051 339.165734 
L 536.997824 376.360018 
L 537.835138 233.672977 
L 538.672452 249.329724 
L 539.509766 290.09191 
L 540.34708 284.118386 
L 541.184394 246.629825 
L 542.021708 322.127773 
L 542.859022 337.5866 
L 543.696336 185.59771 
L 544.53365 273.116478 
L 545.370964 249.608328 
L 546.208278 371.145453 
L 547.045592 346.496896 
L 547.882906 325.65104 
L 548.72022 325.696001 
L 549.557534 330.735518 
L 550.394848 270.342139 
L 551.232162 348.252278 
L 552.069476 378.698163 
L 552.90679 276.260985 
L 553.744104 351.220189 
L 554.581418 330.166599 
L 555.418732 349.790038 
L 556.256046 319.817123 
L 557.09336 325.748145 
L 557.930674 385.631083 
L 558.767988 373.161914 
L 559.605302 296.771062 
L 560.442616 395.979345 
L 561.27993 329.848465 
L 562.117244 355.192198 
L 562.954558 273.64711 
L 563.791872 362.149695 
L 564.629186 373.009072 
L 565.4665 350.052813 
L 566.303814 330.95326 
L 567.141128 306.6835 
L 567.978442 360.291616 
L 568.815756 174.206005 
L 569.65307 295.007221 
L 570.490384 191.126981 
L 571.327698 374.519034 
L 572.165012 193.608598 
L 573.002326 265.252988 
L 573.83964 395.91272 
L 574.676954 312.625604 
L 575.514268 363.437656 
L 576.351582 308.581851 
L 577.188896 370.280235 
L 578.02621 297.954304 
L 578.863524 173.22592 
L 579.700838 214.825636 
L 580.538152 350.479519 
L 581.375466 336.224303 
L 583.050094 315.305549 
L 583.887408 314.913041 
L 584.724722 300.125452 
L 585.562036 275.201676 
L 586.39935 301.63131 
L 587.236664 223.676025 
L 588.073978 265.728127 
L 588.911292 298.821077 
L 589.748606 235.940726 
L 590.58592 238.847426 
L 591.423234 318.927536 
L 592.260548 291.681955 
L 593.097862 247.520094 
L 593.935176 349.395115 
L 594.77249 332.179054 
L 595.609804 307.999178 
L 596.447118 225.089815 
L 597.284432 357.262442 
L 598.121746 210.409523 
L 598.95906 303.86829 
L 599.796374 298.955409 
L 600.633688 319.221932 
L 601.471002 283.453274 
L 602.308316 258.026479 
L 603.14563 319.894377 
L 603.982944 268.22518 
L 604.820258 270.195052 
L 605.657572 302.831439 
L 606.494886 287.09643 
L 607.3322 195.013455 
L 608.169514 281.608445 
L 609.006828 213.104059 
L 609.844142 258.194527 
L 610.681456 253.993688 
L 611.51877 262.298335 
L 612.356084 298.310518 
L 613.193398 350.629013 
L 614.030712 327.146314 
L 614.868026 275.728871 
L 615.70534 290.083259 
L 616.542653 325.868656 
L 617.379967 242.758343 
L 618.217281 248.117018 
L 619.054595 246.593561 
L 620.729223 305.826134 
L 621.566537 301.742932 
L 622.403851 224.416688 
L 623.241165 264.583535 
L 624.078479 230.970367 
L 624.915793 231.651123 
L 625.753107 295.092119 
L 626.590421 302.988051 
L 627.427735 255.974449 
L 628.265049 258.623255 
L 629.102363 329.59254 
L 629.939677 319.409653 
L 630.776991 195.085509 
L 631.614305 269.299555 
L 632.451619 256.111655 
L 633.288933 322.59238 
L 634.126247 342.624125 
L 634.963561 227.861843 
L 635.800875 245.855076 
L 636.638189 333.098039 
L 637.475503 304.559579 
L 638.312817 303.43457 
L 639.150131 271.847449 
L 639.987445 266.99326 
L 640.824759 324.92411 
L 641.662073 315.081089 
L 642.499387 189.306418 
L 643.336701 273.183436 
L 644.174015 182.337625 
L 645.011329 357.022117 
L 645.848643 214.456209 
L 646.685957 271.142176 
L 647.523271 360.495047 
L 648.360585 258.414142 
L 649.197899 287.199075 
L 650.035213 273.224797 
L 650.872527 314.802885 
L 651.709841 311.958595 
L 652.547155 314.244966 
L 653.384469 311.241531 
L 654.221783 312.899349 
L 655.059097 308.758344 
L 655.896411 303.458539 
L 656.733725 267.979285 
L 657.571039 257.710321 
L 658.408353 323.263432 
L 659.245667 229.050166 
L 660.082981 305.411583 
L 660.920295 323.017937 
L 661.757609 237.018227 
L 662.594923 333.313469 
L 663.432237 329.317847 
L 664.269551 358.743731 
L 665.106865 214.672209 
L 666.781493 325.052368 
L 667.618807 158.67593 
L 668.456121 352.464435 
L 669.293435 320.516396 
L 670.130749 299.094689 
L 670.968063 344.744291 
L 671.805377 284.98079 
L 672.642691 312.717065 
L 673.480005 200.679221 
L 674.317319 342.683499 
L 675.154633 325.80192 
L 675.991947 282.553925 
L 676.829261 201.956945 
L 677.666575 307.878815 
L 678.503889 213.673133 
L 679.341203 263.439254 
L 680.178517 295.759779 
L 681.015831 243.634509 
L 681.853145 266.253649 
L 682.690459 306.595269 
L 683.527773 230.139606 
L 684.365087 324.688184 
L 685.202401 207.347322 
L 686.039715 305.569647 
L 686.877029 273.140313 
L 687.714343 287.221741 
L 688.551657 228.513712 
L 690.226285 192.918835 
L 691.063599 297.224632 
L 691.900913 275.523181 
L 692.738227 308.658928 
L 693.575541 250.992728 
L 694.412855 259.526767 
L 695.250169 291.970766 
L 696.087483 192.601611 
L 696.924797 286.000812 
L 697.762111 335.271535 
L 698.599425 245.730521 
L 699.436739 237.632572 
L 700.274053 310.990999 
L 701.111367 203.383208 
L 701.948681 282.748668 
L 702.785995 236.311369 
L 703.623309 235.405116 
L 704.460623 198.576898 
L 706.135251 168.880187 
L 706.972565 205.926199 
L 707.809879 307.481078 
L 708.647193 313.196322 
L 709.484507 235.518709 
L 710.321821 279.665727 
L 711.159135 189.851834 
L 711.996449 218.411937 
L 712.833763 208.490966 
L 713.671077 270.41049 
L 714.508391 141.33267 
L 715.345705 200.653148 
L 716.183019 202.565084 
L 717.020333 247.426307 
L 717.857647 159.502306 
L 718.694961 250.59102 
L 719.532275 206.549314 
L 720.369589 233.23782 
L 721.206903 111.163309 
L 722.044217 210.300819 
L 722.881531 232.384794 
L 723.718845 181.714555 
L 724.556159 165.377392 
L 725.393473 105.108827 
L 726.230787 240.889161 
L 727.068101 171.442717 
L 727.905415 141.387126 
L 728.742729 304.30447 
L 729.580043 253.120012 
L 730.417357 251.115209 
L 731.254671 216.742638 
L 732.091984 219.64959 
L 732.929298 179.870585 
L 733.766612 211.500726 
L 734.603926 253.704596 
L 735.44124 269.972045 
L 736.278554 148.576023 
L 737.115868 205.139998 
L 737.953182 121.530429 
L 738.790496 196.599604 
L 739.62781 211.121343 
L 740.465124 267.331697 
L 741.302438 166.559123 
L 742.139752 251.656566 
L 742.977066 188.647971 
L 743.81438 161.280324 
L 744.651694 197.484287 
L 745.489008 202.106565 
L 746.326322 228.362121 
L 747.163636 172.60282 
L 747.163636 172.60282 
" style="fill:none;stroke:#ff0000;stroke-dasharray:5.55,2.4;stroke-dashoffset:0;stroke-width:1.5;"/>
   </g>
   <g id="patch_3">
    <path d="M 108 460.8 
L 108 69.12 
" style="fill:none;stroke:#000000;stroke-linecap:square;stroke-linejoin:miter;stroke-width:0.8;"/>
   </g>
   <g id="patch_4">
    <path d="M 777.6 460.8 
L 777.6 69.12 
" style="fill:none;stroke:#000000;stroke-linecap:square;stroke-linejoin:miter;stroke-width:0.8;"/>
   </g>
   <g id="patch_5">
    <path d="M 108 460.8 
L 777.6 460.8 
" style="fill:none;stroke:#000000;stroke-linecap:square;stroke-linejoin:miter;stroke-width:0.8;"/>
   </g>
   <g id="patch_6">
    <path d="M 108 69.12 
L 777.6 69.12 
" style="fill:none;stroke:#000000;stroke-linecap:square;stroke-linejoin:miter;stroke-width:0.8;"/>
   </g>
   <g id="text_19">
    <!-- Macau residential 2020-2021 | Forecast vs Monitored | RNN -->
    <g transform="translate(219.680859 63.12)scale(0.15 -0.15)">
     <defs>
      <path d="M 9.8125 72.90625 
L 24.515625 72.90625 
L 43.109375 23.296875 
L 61.8125 72.90625 
L 76.515625 72.90625 
L 76.515625 0 
L 66.890625 0 
L 66.890625 64.015625 
L 48.09375 14.015625 
L 38.1875 14.015625 
L 19.390625 64.015625 
L 19.390625 0 
L 9.8125 0 
z
" id="DejaVuSans-77"/>
      <path d="M 48.78125 52.59375 
L 48.78125 44.1875 
Q 44.96875 46.296875 41.140625 47.34375 
Q 37.3125 48.390625 33.40625 48.390625 
Q 24.65625 48.390625 19.8125 42.84375 
Q 14.984375 37.3125 14.984375 27.296875 
Q 14.984375 17.28125 19.8125 11.734375 
Q 24.65625 6.203125 33.40625 6.203125 
Q 37.3125 6.203125 41.140625 7.25 
Q 44.96875 8.296875 48.78125 10.40625 
L 48.78125 2.09375 
Q 45.015625 0.34375 40.984375 -0.53125 
Q 36.96875 -1.421875 32.421875 -1.421875 
Q 20.0625 -1.421875 12.78125 6.34375 
Q 5.515625 14.109375 5.515625 27.296875 
Q 5.515625 40.671875 12.859375 48.328125 
Q 20.21875 56 33.015625 56 
Q 37.15625 56 41.109375 55.140625 
Q 45.0625 54.296875 48.78125 52.59375 
z
" id="DejaVuSans-99"/>
      <path d="M 8.5 21.578125 
L 8.5 54.6875 
L 17.484375 54.6875 
L 17.484375 21.921875 
Q 17.484375 14.15625 20.5 10.265625 
Q 23.53125 6.390625 29.59375 6.390625 
Q 36.859375 6.390625 41.078125 11.03125 
Q 45.3125 15.671875 45.3125 23.6875 
L 45.3125 54.6875 
L 54.296875 54.6875 
L 54.296875 0 
L 45.3125 0 
L 45.3125 8.40625 
Q 42.046875 3.421875 37.71875 1 
Q 33.40625 -1.421875 27.6875 -1.421875 
Q 18.265625 -1.421875 13.375 4.4375 
Q 8.5 10.296875 8.5 21.578125 
z
M 31.109375 56 
z
" id="DejaVuSans-117"/>
      <path id="DejaVuSans-32"/>
      <path d="M 41.109375 46.296875 
Q 39.59375 47.171875 37.8125 47.578125 
Q 36.03125 48 33.890625 48 
Q 26.265625 48 22.1875 43.046875 
Q 18.109375 38.09375 18.109375 28.8125 
L 18.109375 0 
L 9.078125 0 
L 9.078125 54.6875 
L 18.109375 54.6875 
L 18.109375 46.1875 
Q 20.953125 51.171875 25.484375 53.578125 
Q 30.03125 56 36.53125 56 
Q 37.453125 56 38.578125 55.875 
Q 39.703125 55.765625 41.0625 55.515625 
z
" id="DejaVuSans-114"/>
      <path d="M 44.28125 53.078125 
L 44.28125 44.578125 
Q 40.484375 46.53125 36.375 47.5 
Q 32.28125 48.484375 27.875 48.484375 
Q 21.1875 48.484375 17.84375 46.4375 
Q 14.5 44.390625 14.5 40.28125 
Q 14.5 37.15625 16.890625 35.375 
Q 19.28125 33.59375 26.515625 31.984375 
L 29.59375 31.296875 
Q 39.15625 29.25 43.1875 25.515625 
Q 47.21875 21.78125 47.21875 15.09375 
Q 47.21875 7.46875 41.1875 3.015625 
Q 35.15625 -1.421875 24.609375 -1.421875 
Q 20.21875 -1.421875 15.453125 -0.5625 
Q 10.6875 0.296875 5.421875 2 
L 5.421875 11.28125 
Q 10.40625 8.6875 15.234375 7.390625 
Q 20.0625 6.109375 24.8125 6.109375 
Q 31.15625 6.109375 34.5625 8.28125 
Q 37.984375 10.453125 37.984375 14.40625 
Q 37.984375 18.0625 35.515625 20.015625 
Q 33.0625 21.96875 24.703125 23.78125 
L 21.578125 24.515625 
Q 13.234375 26.265625 9.515625 29.90625 
Q 5.8125 33.546875 5.8125 39.890625 
Q 5.8125 47.609375 11.28125 51.796875 
Q 16.75 56 26.8125 56 
Q 31.78125 56 36.171875 55.265625 
Q 40.578125 54.546875 44.28125 53.078125 
z
" id="DejaVuSans-115"/>
      <path d="M 9.421875 54.6875 
L 18.40625 54.6875 
L 18.40625 0 
L 9.421875 0 
z
M 9.421875 75.984375 
L 18.40625 75.984375 
L 18.40625 64.59375 
L 9.421875 64.59375 
z
" id="DejaVuSans-105"/>
      <path d="M 45.40625 46.390625 
L 45.40625 75.984375 
L 54.390625 75.984375 
L 54.390625 0 
L 45.40625 0 
L 45.40625 8.203125 
Q 42.578125 3.328125 38.25 0.953125 
Q 33.9375 -1.421875 27.875 -1.421875 
Q 17.96875 -1.421875 11.734375 6.484375 
Q 5.515625 14.40625 5.515625 27.296875 
Q 5.515625 40.1875 11.734375 48.09375 
Q 17.96875 56 27.875 56 
Q 33.9375 56 38.25 53.625 
Q 42.578125 51.265625 45.40625 46.390625 
z
M 14.796875 27.296875 
Q 14.796875 17.390625 18.875 11.75 
Q 22.953125 6.109375 30.078125 6.109375 
Q 37.203125 6.109375 41.296875 11.75 
Q 45.40625 17.390625 45.40625 27.296875 
Q 45.40625 37.203125 41.296875 42.84375 
Q 37.203125 48.484375 30.078125 48.484375 
Q 22.953125 48.484375 18.875 42.84375 
Q 14.796875 37.203125 14.796875 27.296875 
z
" id="DejaVuSans-100"/>
      <path d="M 54.890625 33.015625 
L 54.890625 0 
L 45.90625 0 
L 45.90625 32.71875 
Q 45.90625 40.484375 42.875 44.328125 
Q 39.84375 48.1875 33.796875 48.1875 
Q 26.515625 48.1875 22.3125 43.546875 
Q 18.109375 38.921875 18.109375 30.90625 
L 18.109375 0 
L 9.078125 0 
L 9.078125 54.6875 
L 18.109375 54.6875 
L 18.109375 46.1875 
Q 21.34375 51.125 25.703125 53.5625 
Q 30.078125 56 35.796875 56 
Q 45.21875 56 50.046875 50.171875 
Q 54.890625 44.34375 54.890625 33.015625 
z
" id="DejaVuSans-110"/>
      <path d="M 9.421875 75.984375 
L 18.40625 75.984375 
L 18.40625 0 
L 9.421875 0 
z
" id="DejaVuSans-108"/>
      <path d="M 21 76.421875 
L 21 -23.578125 
L 12.703125 -23.578125 
L 12.703125 76.421875 
z
" id="DejaVuSans-124"/>
      <path d="M 9.8125 72.90625 
L 51.703125 72.90625 
L 51.703125 64.59375 
L 19.671875 64.59375 
L 19.671875 43.109375 
L 48.578125 43.109375 
L 48.578125 34.8125 
L 19.671875 34.8125 
L 19.671875 0 
L 9.8125 0 
z
" id="DejaVuSans-70"/>
      <path d="M 30.609375 48.390625 
Q 23.390625 48.390625 19.1875 42.75 
Q 14.984375 37.109375 14.984375 27.296875 
Q 14.984375 17.484375 19.15625 11.84375 
Q 23.34375 6.203125 30.609375 6.203125 
Q 37.796875 6.203125 41.984375 11.859375 
Q 46.1875 17.53125 46.1875 27.296875 
Q 46.1875 37.015625 41.984375 42.703125 
Q 37.796875 48.390625 30.609375 48.390625 
z
M 30.609375 56 
Q 42.328125 56 49.015625 48.375 
Q 55.71875 40.765625 55.71875 27.296875 
Q 55.71875 13.875 49.015625 6.21875 
Q 42.328125 -1.421875 30.609375 -1.421875 
Q 18.84375 -1.421875 12.171875 6.21875 
Q 5.515625 13.875 5.515625 27.296875 
Q 5.515625 40.765625 12.171875 48.375 
Q 18.84375 56 30.609375 56 
z
" id="DejaVuSans-111"/>
      <path d="M 2.984375 54.6875 
L 12.5 54.6875 
L 29.59375 8.796875 
L 46.6875 54.6875 
L 56.203125 54.6875 
L 35.6875 0 
L 23.484375 0 
z
" id="DejaVuSans-118"/>
      <path d="M 44.390625 34.1875 
Q 47.5625 33.109375 50.5625 29.59375 
Q 53.5625 26.078125 56.59375 19.921875 
L 66.609375 0 
L 56 0 
L 46.6875 18.703125 
Q 43.0625 26.03125 39.671875 28.421875 
Q 36.28125 30.8125 30.421875 30.8125 
L 19.671875 30.8125 
L 19.671875 0 
L 9.8125 0 
L 9.8125 72.90625 
L 32.078125 72.90625 
Q 44.578125 72.90625 50.734375 67.671875 
Q 56.890625 62.453125 56.890625 51.90625 
Q 56.890625 45.015625 53.6875 40.46875 
Q 50.484375 35.9375 44.390625 34.1875 
z
M 19.671875 64.796875 
L 19.671875 38.921875 
L 32.078125 38.921875 
Q 39.203125 38.921875 42.84375 42.21875 
Q 46.484375 45.515625 46.484375 51.90625 
Q 46.484375 58.296875 42.84375 61.546875 
Q 39.203125 64.796875 32.078125 64.796875 
z
" id="DejaVuSans-82"/>
      <path d="M 9.8125 72.90625 
L 23.09375 72.90625 
L 55.421875 11.921875 
L 55.421875 72.90625 
L 64.984375 72.90625 
L 64.984375 0 
L 51.703125 0 
L 19.390625 60.984375 
L 19.390625 0 
L 9.8125 0 
z
" id="DejaVuSans-78"/>
     </defs>
     <use xlink:href="#DejaVuSans-77"/>
     <use x="86.279297" xlink:href="#DejaVuSans-97"/>
     <use x="147.558594" xlink:href="#DejaVuSans-99"/>
     <use x="202.539062" xlink:href="#DejaVuSans-97"/>
     <use x="263.818359" xlink:href="#DejaVuSans-117"/>
     <use x="327.197266" xlink:href="#DejaVuSans-32"/>
     <use x="358.984375" xlink:href="#DejaVuSans-114"/>
     <use x="397.847656" xlink:href="#DejaVuSans-101"/>
     <use x="459.371094" xlink:href="#DejaVuSans-115"/>
     <use x="511.470703" xlink:href="#DejaVuSans-105"/>
     <use x="539.253906" xlink:href="#DejaVuSans-100"/>
     <use x="602.730469" xlink:href="#DejaVuSans-101"/>
     <use x="664.253906" xlink:href="#DejaVuSans-110"/>
     <use x="727.632812" xlink:href="#DejaVuSans-116"/>
     <use x="766.841797" xlink:href="#DejaVuSans-105"/>
     <use x="794.625" xlink:href="#DejaVuSans-97"/>
     <use x="855.904297" xlink:href="#DejaVuSans-108"/>
     <use x="883.6875" xlink:href="#DejaVuSans-32"/>
     <use x="915.474609" xlink:href="#DejaVuSans-50"/>
     <use x="979.097656" xlink:href="#DejaVuSans-48"/>
     <use x="1042.720703" xlink:href="#DejaVuSans-50"/>
     <use x="1106.34375" xlink:href="#DejaVuSans-48"/>
     <use x="1169.966797" xlink:href="#DejaVuSans-45"/>
     <use x="1206.050781" xlink:href="#DejaVuSans-50"/>
     <use x="1269.673828" xlink:href="#DejaVuSans-48"/>
     <use x="1333.296875" xlink:href="#DejaVuSans-50"/>
     <use x="1396.919922" xlink:href="#DejaVuSans-49"/>
     <use x="1460.542969" xlink:href="#DejaVuSans-32"/>
     <use x="1492.330078" xlink:href="#DejaVuSans-124"/>
     <use x="1526.021484" xlink:href="#DejaVuSans-32"/>
     <use x="1557.808594" xlink:href="#DejaVuSans-70"/>
     <use x="1611.703125" xlink:href="#DejaVuSans-111"/>
     <use x="1672.884766" xlink:href="#DejaVuSans-114"/>
     <use x="1711.748047" xlink:href="#DejaVuSans-101"/>
     <use x="1773.271484" xlink:href="#DejaVuSans-99"/>
     <use x="1828.251953" xlink:href="#DejaVuSans-97"/>
     <use x="1889.53125" xlink:href="#DejaVuSans-115"/>
     <use x="1941.630859" xlink:href="#DejaVuSans-116"/>
     <use x="1980.839844" xlink:href="#DejaVuSans-32"/>
     <use x="2012.626953" xlink:href="#DejaVuSans-118"/>
     <use x="2071.806641" xlink:href="#DejaVuSans-115"/>
     <use x="2123.90625" xlink:href="#DejaVuSans-32"/>
     <use x="2155.693359" xlink:href="#DejaVuSans-77"/>
     <use x="2241.972656" xlink:href="#DejaVuSans-111"/>
     <use x="2303.154297" xlink:href="#DejaVuSans-110"/>
     <use x="2366.533203" xlink:href="#DejaVuSans-105"/>
     <use x="2394.316406" xlink:href="#DejaVuSans-116"/>
     <use x="2433.525391" xlink:href="#DejaVuSans-111"/>
     <use x="2494.707031" xlink:href="#DejaVuSans-114"/>
     <use x="2533.570312" xlink:href="#DejaVuSans-101"/>
     <use x="2595.09375" xlink:href="#DejaVuSans-100"/>
     <use x="2658.570312" xlink:href="#DejaVuSans-32"/>
     <use x="2690.357422" xlink:href="#DejaVuSans-124"/>
     <use x="2724.048828" xlink:href="#DejaVuSans-32"/>
     <use x="2755.835938" xlink:href="#DejaVuSans-82"/>
     <use x="2825.318359" xlink:href="#DejaVuSans-78"/>
     <use x="2900.123047" xlink:href="#DejaVuSans-78"/>
    </g>
   </g>
   <g id="legend_1">
    <g id="patch_7">
     <path d="M 116.4 114.615 
L 278.476875 114.615 
Q 280.876875 114.615 280.876875 112.215 
L 280.876875 77.52 
Q 280.876875 75.12 278.476875 75.12 
L 116.4 75.12 
Q 114 75.12 114 77.52 
L 114 112.215 
Q 114 114.615 116.4 114.615 
z
" style="fill:#ffffff;opacity:0.8;stroke:#cccccc;stroke-linejoin:miter;"/>
    </g>
    <g id="line2d_19">
     <path d="M 118.8 84.838125 
L 142.8 84.838125 
" style="fill:none;stroke:#1f77b4;stroke-linecap:square;stroke-width:1.5;"/>
    </g>
    <g id="line2d_20"/>
    <g id="text_20">
     <!-- measured_data_SO2 -->
     <g transform="translate(152.4 89.038125)scale(0.12 -0.12)">
      <defs>
       <path d="M 50.984375 -16.609375 
L 50.984375 -23.578125 
L -0.984375 -23.578125 
L -0.984375 -16.609375 
z
" id="DejaVuSans-95"/>
      </defs>
      <use xlink:href="#DejaVuSans-109"/>
      <use x="97.412109" xlink:href="#DejaVuSans-101"/>
      <use x="158.935547" xlink:href="#DejaVuSans-97"/>
      <use x="220.214844" xlink:href="#DejaVuSans-115"/>
      <use x="272.314453" xlink:href="#DejaVuSans-117"/>
      <use x="335.693359" xlink:href="#DejaVuSans-114"/>
      <use x="374.556641" xlink:href="#DejaVuSans-101"/>
      <use x="436.080078" xlink:href="#DejaVuSans-100"/>
      <use x="499.556641" xlink:href="#DejaVuSans-95"/>
      <use x="549.556641" xlink:href="#DejaVuSans-100"/>
      <use x="613.033203" xlink:href="#DejaVuSans-97"/>
      <use x="674.3125" xlink:href="#DejaVuSans-116"/>
      <use x="713.521484" xlink:href="#DejaVuSans-97"/>
      <use x="774.800781" xlink:href="#DejaVuSans-95"/>
      <use x="824.800781" xlink:href="#DejaVuSans-83"/>
      <use x="888.277344" xlink:href="#DejaVuSans-79"/>
      <use x="966.988281" xlink:href="#DejaVuSans-50"/>
     </g>
    </g>
    <g id="line2d_21">
     <path d="M 118.8 102.785625 
L 142.8 102.785625 
" style="fill:none;stroke:#ff0000;stroke-dasharray:5.55,2.4;stroke-dashoffset:0;stroke-width:1.5;"/>
    </g>
    <g id="line2d_22"/>
    <g id="text_21">
     <!-- predicted_data_SO2 -->
     <g transform="translate(152.4 106.985625)scale(0.12 -0.12)">
      <use xlink:href="#DejaVuSans-112"/>
      <use x="63.476562" xlink:href="#DejaVuSans-114"/>
      <use x="102.339844" xlink:href="#DejaVuSans-101"/>
      <use x="163.863281" xlink:href="#DejaVuSans-100"/>
      <use x="227.339844" xlink:href="#DejaVuSans-105"/>
      <use x="255.123047" xlink:href="#DejaVuSans-99"/>
      <use x="310.103516" xlink:href="#DejaVuSans-116"/>
      <use x="349.3125" xlink:href="#DejaVuSans-101"/>
      <use x="410.835938" xlink:href="#DejaVuSans-100"/>
      <use x="474.3125" xlink:href="#DejaVuSans-95"/>
      <use x="524.3125" xlink:href="#DejaVuSans-100"/>
      <use x="587.789062" xlink:href="#DejaVuSans-97"/>
      <use x="649.068359" xlink:href="#DejaVuSans-116"/>
      <use x="688.277344" xlink:href="#DejaVuSans-97"/>
      <use x="749.556641" xlink:href="#DejaVuSans-95"/>
      <use x="799.556641" xlink:href="#DejaVuSans-83"/>
      <use x="863.033203" xlink:href="#DejaVuSans-79"/>
      <use x="941.744141" xlink:href="#DejaVuSans-50"/>
     </g>
    </g>
   </g>
  </g>
 </g>
 <defs>
  <clipPath id="p4387584327">
   <rect height="391.68" width="669.6" x="108" y="69.12"/>
  </clipPath>
 </defs>
</svg>
