<?xml version="1.0" encoding="utf-8" standalone="no"?>
<!DOCTYPE svg PUBLIC "-//W3C//DTD SVG 1.1//EN"
  "http://www.w3.org/Graphics/SVG/1.1/DTD/svg11.dtd">
<!-- Created with matplotlib (https://matplotlib.org/) -->
<svg height="576pt" version="1.1" viewBox="0 0 864 576" width="864pt" xmlns="http://www.w3.org/2000/svg" xmlns:xlink="http://www.w3.org/1999/xlink">
 <metadata>
  <rdf:RDF xmlns:cc="http://creativecommons.org/ns#" xmlns:dc="http://purl.org/dc/elements/1.1/" xmlns:rdf="http://www.w3.org/1999/02/22-rdf-syntax-ns#">
   <cc:Work>
    <dc:type rdf:resource="http://purl.org/dc/dcmitype/StillImage"/>
    <dc:date>2024-03-08T17:27:38.504638</dc:date>
    <dc:format>image/svg+xml</dc:format>
    <dc:creator>
     <cc:Agent>
      <dc:title>Matplotlib v3.3.4, https://matplotlib.org/</dc:title>
     </cc:Agent>
    </dc:creator>
   </cc:Work>
  </rdf:RDF>
 </metadata>
 <defs>
  <style type="text/css">*{stroke-linecap:butt;stroke-linejoin:round;}</style>
 </defs>
 <g id="figure_1">
  <g id="patch_1">
   <path d="M 0 576 
L 864 576 
L 864 0 
L 0 0 
z
" style="fill:#ffffff;"/>
  </g>
  <g id="axes_1">
   <g id="patch_2">
    <path d="M 108 460.8 
L 777.6 460.8 
L 777.6 69.12 
L 108 69.12 
z
" style="fill:#ffffff;"/>
   </g>
   <g id="matplotlib.axis_1">
    <g id="xtick_1">
     <g id="line2d_1">
      <defs>
       <path d="M 0 0 
L 0 3.5 
" id="mca84f55089" style="stroke:#000000;stroke-width:0.8;"/>
      </defs>
      <g>
       <use style="stroke:#000000;stroke-width:0.8;" x="136.761736" xlink:href="#mca84f55089" y="460.8"/>
      </g>
     </g>
     <g id="text_1">
      <!-- 2020-01 -->
      <g transform="translate(92.091951 500.766215)rotate(-30)scale(0.12 -0.12)">
       <defs>
        <path d="M 19.1875 8.296875 
L 53.609375 8.296875 
L 53.609375 0 
L 7.328125 0 
L 7.328125 8.296875 
Q 12.9375 14.109375 22.625 23.890625 
Q 32.328125 33.6875 34.8125 36.53125 
Q 39.546875 41.84375 41.421875 45.53125 
Q 43.3125 49.21875 43.3125 52.78125 
Q 43.3125 58.59375 39.234375 62.25 
Q 35.15625 65.921875 28.609375 65.921875 
Q 23.96875 65.921875 18.8125 64.3125 
Q 13.671875 62.703125 7.8125 59.421875 
L 7.8125 69.390625 
Q 13.765625 71.78125 18.9375 73 
Q 24.125 74.21875 28.421875 74.21875 
Q 39.75 74.21875 46.484375 68.546875 
Q 53.21875 62.890625 53.21875 53.421875 
Q 53.21875 48.921875 51.53125 44.890625 
Q 49.859375 40.875 45.40625 35.40625 
Q 44.1875 33.984375 37.640625 27.21875 
Q 31.109375 20.453125 19.1875 8.296875 
z
" id="DejaVuSans-50"/>
        <path d="M 31.78125 66.40625 
Q 24.171875 66.40625 20.328125 58.90625 
Q 16.5 51.421875 16.5 36.375 
Q 16.5 21.390625 20.328125 13.890625 
Q 24.171875 6.390625 31.78125 6.390625 
Q 39.453125 6.390625 43.28125 13.890625 
Q 47.125 21.390625 47.125 36.375 
Q 47.125 51.421875 43.28125 58.90625 
Q 39.453125 66.40625 31.78125 66.40625 
z
M 31.78125 74.21875 
Q 44.046875 74.21875 50.515625 64.515625 
Q 56.984375 54.828125 56.984375 36.375 
Q 56.984375 17.96875 50.515625 8.265625 
Q 44.046875 -1.421875 31.78125 -1.421875 
Q 19.53125 -1.421875 13.0625 8.265625 
Q 6.59375 17.96875 6.59375 36.375 
Q 6.59375 54.828125 13.0625 64.515625 
Q 19.53125 74.21875 31.78125 74.21875 
z
" id="DejaVuSans-48"/>
        <path d="M 4.890625 31.390625 
L 31.203125 31.390625 
L 31.203125 23.390625 
L 4.890625 23.390625 
z
" id="DejaVuSans-45"/>
        <path d="M 12.40625 8.296875 
L 28.515625 8.296875 
L 28.515625 63.921875 
L 10.984375 60.40625 
L 10.984375 69.390625 
L 28.421875 72.90625 
L 38.28125 72.90625 
L 38.28125 8.296875 
L 54.390625 8.296875 
L 54.390625 0 
L 12.40625 0 
z
" id="DejaVuSans-49"/>
       </defs>
       <use xlink:href="#DejaVuSans-50"/>
       <use x="63.623047" xlink:href="#DejaVuSans-48"/>
       <use x="127.246094" xlink:href="#DejaVuSans-50"/>
       <use x="190.869141" xlink:href="#DejaVuSans-48"/>
       <use x="254.492188" xlink:href="#DejaVuSans-45"/>
       <use x="290.576172" xlink:href="#DejaVuSans-48"/>
       <use x="354.199219" xlink:href="#DejaVuSans-49"/>
      </g>
     </g>
    </g>
    <g id="xtick_2">
     <g id="line2d_2">
      <g>
       <use style="stroke:#000000;stroke-width:0.8;" x="212.957309" xlink:href="#mca84f55089" y="460.8"/>
      </g>
     </g>
     <g id="text_2">
      <!-- 2020-04 -->
      <g transform="translate(168.287524 500.766215)rotate(-30)scale(0.12 -0.12)">
       <defs>
        <path d="M 37.796875 64.3125 
L 12.890625 25.390625 
L 37.796875 25.390625 
z
M 35.203125 72.90625 
L 47.609375 72.90625 
L 47.609375 25.390625 
L 58.015625 25.390625 
L 58.015625 17.1875 
L 47.609375 17.1875 
L 47.609375 0 
L 37.796875 0 
L 37.796875 17.1875 
L 4.890625 17.1875 
L 4.890625 26.703125 
z
" id="DejaVuSans-52"/>
       </defs>
       <use xlink:href="#DejaVuSans-50"/>
       <use x="63.623047" xlink:href="#DejaVuSans-48"/>
       <use x="127.246094" xlink:href="#DejaVuSans-50"/>
       <use x="190.869141" xlink:href="#DejaVuSans-48"/>
       <use x="254.492188" xlink:href="#DejaVuSans-45"/>
       <use x="290.576172" xlink:href="#DejaVuSans-48"/>
       <use x="354.199219" xlink:href="#DejaVuSans-52"/>
      </g>
     </g>
    </g>
    <g id="xtick_3">
     <g id="line2d_3">
      <g>
       <use style="stroke:#000000;stroke-width:0.8;" x="289.152882" xlink:href="#mca84f55089" y="460.8"/>
      </g>
     </g>
     <g id="text_3">
      <!-- 2020-07 -->
      <g transform="translate(244.483097 500.766215)rotate(-30)scale(0.12 -0.12)">
       <defs>
        <path d="M 8.203125 72.90625 
L 55.078125 72.90625 
L 55.078125 68.703125 
L 28.609375 0 
L 18.3125 0 
L 43.21875 64.59375 
L 8.203125 64.59375 
z
" id="DejaVuSans-55"/>
       </defs>
       <use xlink:href="#DejaVuSans-50"/>
       <use x="63.623047" xlink:href="#DejaVuSans-48"/>
       <use x="127.246094" xlink:href="#DejaVuSans-50"/>
       <use x="190.869141" xlink:href="#DejaVuSans-48"/>
       <use x="254.492188" xlink:href="#DejaVuSans-45"/>
       <use x="290.576172" xlink:href="#DejaVuSans-48"/>
       <use x="354.199219" xlink:href="#DejaVuSans-55"/>
      </g>
     </g>
    </g>
    <g id="xtick_4">
     <g id="line2d_4">
      <g>
       <use style="stroke:#000000;stroke-width:0.8;" x="366.18577" xlink:href="#mca84f55089" y="460.8"/>
      </g>
     </g>
     <g id="text_4">
      <!-- 2020-10 -->
      <g transform="translate(321.515985 500.766215)rotate(-30)scale(0.12 -0.12)">
       <use xlink:href="#DejaVuSans-50"/>
       <use x="63.623047" xlink:href="#DejaVuSans-48"/>
       <use x="127.246094" xlink:href="#DejaVuSans-50"/>
       <use x="190.869141" xlink:href="#DejaVuSans-48"/>
       <use x="254.492188" xlink:href="#DejaVuSans-45"/>
       <use x="290.576172" xlink:href="#DejaVuSans-49"/>
       <use x="354.199219" xlink:href="#DejaVuSans-48"/>
      </g>
     </g>
    </g>
    <g id="xtick_5">
     <g id="line2d_5">
      <g>
       <use style="stroke:#000000;stroke-width:0.8;" x="443.218657" xlink:href="#mca84f55089" y="460.8"/>
      </g>
     </g>
     <g id="text_5">
      <!-- 2021-01 -->
      <g transform="translate(398.548872 500.766215)rotate(-30)scale(0.12 -0.12)">
       <use xlink:href="#DejaVuSans-50"/>
       <use x="63.623047" xlink:href="#DejaVuSans-48"/>
       <use x="127.246094" xlink:href="#DejaVuSans-50"/>
       <use x="190.869141" xlink:href="#DejaVuSans-49"/>
       <use x="254.492188" xlink:href="#DejaVuSans-45"/>
       <use x="290.576172" xlink:href="#DejaVuSans-48"/>
       <use x="354.199219" xlink:href="#DejaVuSans-49"/>
      </g>
     </g>
    </g>
    <g id="xtick_6">
     <g id="line2d_6">
      <g>
       <use style="stroke:#000000;stroke-width:0.8;" x="518.576916" xlink:href="#mca84f55089" y="460.8"/>
      </g>
     </g>
     <g id="text_6">
      <!-- 2021-04 -->
      <g transform="translate(473.907131 500.766215)rotate(-30)scale(0.12 -0.12)">
       <use xlink:href="#DejaVuSans-50"/>
       <use x="63.623047" xlink:href="#DejaVuSans-48"/>
       <use x="127.246094" xlink:href="#DejaVuSans-50"/>
       <use x="190.869141" xlink:href="#DejaVuSans-49"/>
       <use x="254.492188" xlink:href="#DejaVuSans-45"/>
       <use x="290.576172" xlink:href="#DejaVuSans-48"/>
       <use x="354.199219" xlink:href="#DejaVuSans-52"/>
      </g>
     </g>
    </g>
    <g id="xtick_7">
     <g id="line2d_7">
      <g>
       <use style="stroke:#000000;stroke-width:0.8;" x="594.77249" xlink:href="#mca84f55089" y="460.8"/>
      </g>
     </g>
     <g id="text_7">
      <!-- 2021-07 -->
      <g transform="translate(550.102705 500.766215)rotate(-30)scale(0.12 -0.12)">
       <use xlink:href="#DejaVuSans-50"/>
       <use x="63.623047" xlink:href="#DejaVuSans-48"/>
       <use x="127.246094" xlink:href="#DejaVuSans-50"/>
       <use x="190.869141" xlink:href="#DejaVuSans-49"/>
       <use x="254.492188" xlink:href="#DejaVuSans-45"/>
       <use x="290.576172" xlink:href="#DejaVuSans-48"/>
       <use x="354.199219" xlink:href="#DejaVuSans-55"/>
      </g>
     </g>
    </g>
    <g id="xtick_8">
     <g id="line2d_8">
      <g>
       <use style="stroke:#000000;stroke-width:0.8;" x="671.805377" xlink:href="#mca84f55089" y="460.8"/>
      </g>
     </g>
     <g id="text_8">
      <!-- 2021-10 -->
      <g transform="translate(627.135592 500.766215)rotate(-30)scale(0.12 -0.12)">
       <use xlink:href="#DejaVuSans-50"/>
       <use x="63.623047" xlink:href="#DejaVuSans-48"/>
       <use x="127.246094" xlink:href="#DejaVuSans-50"/>
       <use x="190.869141" xlink:href="#DejaVuSans-49"/>
       <use x="254.492188" xlink:href="#DejaVuSans-45"/>
       <use x="290.576172" xlink:href="#DejaVuSans-49"/>
       <use x="354.199219" xlink:href="#DejaVuSans-48"/>
      </g>
     </g>
    </g>
    <g id="xtick_9">
     <g id="line2d_9">
      <g>
       <use style="stroke:#000000;stroke-width:0.8;" x="748.838264" xlink:href="#mca84f55089" y="460.8"/>
      </g>
     </g>
     <g id="text_9">
      <!-- 2022-01 -->
      <g transform="translate(704.168479 500.766215)rotate(-30)scale(0.12 -0.12)">
       <use xlink:href="#DejaVuSans-50"/>
       <use x="63.623047" xlink:href="#DejaVuSans-48"/>
       <use x="127.246094" xlink:href="#DejaVuSans-50"/>
       <use x="190.869141" xlink:href="#DejaVuSans-50"/>
       <use x="254.492188" xlink:href="#DejaVuSans-45"/>
       <use x="290.576172" xlink:href="#DejaVuSans-48"/>
       <use x="354.199219" xlink:href="#DejaVuSans-49"/>
      </g>
     </g>
    </g>
    <g id="text_10">
     <!-- Date -->
     <g transform="translate(424.873828 518.325146)scale(0.15 -0.15)">
      <defs>
       <path d="M 19.671875 64.796875 
L 19.671875 8.109375 
L 31.59375 8.109375 
Q 46.6875 8.109375 53.6875 14.9375 
Q 60.6875 21.78125 60.6875 36.53125 
Q 60.6875 51.171875 53.6875 57.984375 
Q 46.6875 64.796875 31.59375 64.796875 
z
M 9.8125 72.90625 
L 30.078125 72.90625 
Q 51.265625 72.90625 61.171875 64.09375 
Q 71.09375 55.28125 71.09375 36.53125 
Q 71.09375 17.671875 61.125 8.828125 
Q 51.171875 0 30.078125 0 
L 9.8125 0 
z
" id="DejaVuSans-68"/>
       <path d="M 34.28125 27.484375 
Q 23.390625 27.484375 19.1875 25 
Q 14.984375 22.515625 14.984375 16.5 
Q 14.984375 11.71875 18.140625 8.90625 
Q 21.296875 6.109375 26.703125 6.109375 
Q 34.1875 6.109375 38.703125 11.40625 
Q 43.21875 16.703125 43.21875 25.484375 
L 43.21875 27.484375 
z
M 52.203125 31.203125 
L 52.203125 0 
L 43.21875 0 
L 43.21875 8.296875 
Q 40.140625 3.328125 35.546875 0.953125 
Q 30.953125 -1.421875 24.3125 -1.421875 
Q 15.921875 -1.421875 10.953125 3.296875 
Q 6 8.015625 6 15.921875 
Q 6 25.140625 12.171875 29.828125 
Q 18.359375 34.515625 30.609375 34.515625 
L 43.21875 34.515625 
L 43.21875 35.40625 
Q 43.21875 41.609375 39.140625 45 
Q 35.0625 48.390625 27.6875 48.390625 
Q 23 48.390625 18.546875 47.265625 
Q 14.109375 46.140625 10.015625 43.890625 
L 10.015625 52.203125 
Q 14.9375 54.109375 19.578125 55.046875 
Q 24.21875 56 28.609375 56 
Q 40.484375 56 46.34375 49.84375 
Q 52.203125 43.703125 52.203125 31.203125 
z
" id="DejaVuSans-97"/>
       <path d="M 18.3125 70.21875 
L 18.3125 54.6875 
L 36.8125 54.6875 
L 36.8125 47.703125 
L 18.3125 47.703125 
L 18.3125 18.015625 
Q 18.3125 11.328125 20.140625 9.421875 
Q 21.96875 7.515625 27.59375 7.515625 
L 36.8125 7.515625 
L 36.8125 0 
L 27.59375 0 
Q 17.1875 0 13.234375 3.875 
Q 9.28125 7.765625 9.28125 18.015625 
L 9.28125 47.703125 
L 2.6875 47.703125 
L 2.6875 54.6875 
L 9.28125 54.6875 
L 9.28125 70.21875 
z
" id="DejaVuSans-116"/>
       <path d="M 56.203125 29.59375 
L 56.203125 25.203125 
L 14.890625 25.203125 
Q 15.484375 15.921875 20.484375 11.0625 
Q 25.484375 6.203125 34.421875 6.203125 
Q 39.59375 6.203125 44.453125 7.46875 
Q 49.3125 8.734375 54.109375 11.28125 
L 54.109375 2.78125 
Q 49.265625 0.734375 44.1875 -0.34375 
Q 39.109375 -1.421875 33.890625 -1.421875 
Q 20.796875 -1.421875 13.15625 6.1875 
Q 5.515625 13.8125 5.515625 26.8125 
Q 5.515625 40.234375 12.765625 48.109375 
Q 20.015625 56 32.328125 56 
Q 43.359375 56 49.78125 48.890625 
Q 56.203125 41.796875 56.203125 29.59375 
z
M 47.21875 32.234375 
Q 47.125 39.59375 43.09375 43.984375 
Q 39.0625 48.390625 32.421875 48.390625 
Q 24.90625 48.390625 20.390625 44.140625 
Q 15.875 39.890625 15.1875 32.171875 
z
" id="DejaVuSans-101"/>
      </defs>
      <use xlink:href="#DejaVuSans-68"/>
      <use x="77.001953" xlink:href="#DejaVuSans-97"/>
      <use x="138.28125" xlink:href="#DejaVuSans-116"/>
      <use x="177.490234" xlink:href="#DejaVuSans-101"/>
     </g>
    </g>
   </g>
   <g id="matplotlib.axis_2">
    <g id="ytick_1">
     <g id="line2d_10">
      <defs>
       <path d="M 0 0 
L -3.5 0 
" id="mefd0f1ed1e" style="stroke:#000000;stroke-width:0.8;"/>
      </defs>
      <g>
       <use style="stroke:#000000;stroke-width:0.8;" x="108" xlink:href="#mefd0f1ed1e" y="409.882826"/>
      </g>
     </g>
     <g id="text_11">
      <!-- 20 -->
      <g transform="translate(85.73 414.441889)scale(0.12 -0.12)">
       <use xlink:href="#DejaVuSans-50"/>
       <use x="63.623047" xlink:href="#DejaVuSans-48"/>
      </g>
     </g>
    </g>
    <g id="ytick_2">
     <g id="line2d_11">
      <g>
       <use style="stroke:#000000;stroke-width:0.8;" x="108" xlink:href="#mefd0f1ed1e" y="351.014316"/>
      </g>
     </g>
     <g id="text_12">
      <!-- 40 -->
      <g transform="translate(85.73 355.573378)scale(0.12 -0.12)">
       <use xlink:href="#DejaVuSans-52"/>
       <use x="63.623047" xlink:href="#DejaVuSans-48"/>
      </g>
     </g>
    </g>
    <g id="ytick_3">
     <g id="line2d_12">
      <g>
       <use style="stroke:#000000;stroke-width:0.8;" x="108" xlink:href="#mefd0f1ed1e" y="292.145805"/>
      </g>
     </g>
     <g id="text_13">
      <!-- 60 -->
      <g transform="translate(85.73 296.704868)scale(0.12 -0.12)">
       <defs>
        <path d="M 33.015625 40.375 
Q 26.375 40.375 22.484375 35.828125 
Q 18.609375 31.296875 18.609375 23.390625 
Q 18.609375 15.53125 22.484375 10.953125 
Q 26.375 6.390625 33.015625 6.390625 
Q 39.65625 6.390625 43.53125 10.953125 
Q 47.40625 15.53125 47.40625 23.390625 
Q 47.40625 31.296875 43.53125 35.828125 
Q 39.65625 40.375 33.015625 40.375 
z
M 52.59375 71.296875 
L 52.59375 62.3125 
Q 48.875 64.0625 45.09375 64.984375 
Q 41.3125 65.921875 37.59375 65.921875 
Q 27.828125 65.921875 22.671875 59.328125 
Q 17.53125 52.734375 16.796875 39.40625 
Q 19.671875 43.65625 24.015625 45.921875 
Q 28.375 48.1875 33.59375 48.1875 
Q 44.578125 48.1875 50.953125 41.515625 
Q 57.328125 34.859375 57.328125 23.390625 
Q 57.328125 12.15625 50.6875 5.359375 
Q 44.046875 -1.421875 33.015625 -1.421875 
Q 20.359375 -1.421875 13.671875 8.265625 
Q 6.984375 17.96875 6.984375 36.375 
Q 6.984375 53.65625 15.1875 63.9375 
Q 23.390625 74.21875 37.203125 74.21875 
Q 40.921875 74.21875 44.703125 73.484375 
Q 48.484375 72.75 52.59375 71.296875 
z
" id="DejaVuSans-54"/>
       </defs>
       <use xlink:href="#DejaVuSans-54"/>
       <use x="63.623047" xlink:href="#DejaVuSans-48"/>
      </g>
     </g>
    </g>
    <g id="ytick_4">
     <g id="line2d_13">
      <g>
       <use style="stroke:#000000;stroke-width:0.8;" x="108" xlink:href="#mefd0f1ed1e" y="233.277295"/>
      </g>
     </g>
     <g id="text_14">
      <!-- 80 -->
      <g transform="translate(85.73 237.836357)scale(0.12 -0.12)">
       <defs>
        <path d="M 31.78125 34.625 
Q 24.75 34.625 20.71875 30.859375 
Q 16.703125 27.09375 16.703125 20.515625 
Q 16.703125 13.921875 20.71875 10.15625 
Q 24.75 6.390625 31.78125 6.390625 
Q 38.8125 6.390625 42.859375 10.171875 
Q 46.921875 13.96875 46.921875 20.515625 
Q 46.921875 27.09375 42.890625 30.859375 
Q 38.875 34.625 31.78125 34.625 
z
M 21.921875 38.8125 
Q 15.578125 40.375 12.03125 44.71875 
Q 8.5 49.078125 8.5 55.328125 
Q 8.5 64.0625 14.71875 69.140625 
Q 20.953125 74.21875 31.78125 74.21875 
Q 42.671875 74.21875 48.875 69.140625 
Q 55.078125 64.0625 55.078125 55.328125 
Q 55.078125 49.078125 51.53125 44.71875 
Q 48 40.375 41.703125 38.8125 
Q 48.828125 37.15625 52.796875 32.3125 
Q 56.78125 27.484375 56.78125 20.515625 
Q 56.78125 9.90625 50.3125 4.234375 
Q 43.84375 -1.421875 31.78125 -1.421875 
Q 19.734375 -1.421875 13.25 4.234375 
Q 6.78125 9.90625 6.78125 20.515625 
Q 6.78125 27.484375 10.78125 32.3125 
Q 14.796875 37.15625 21.921875 38.8125 
z
M 18.3125 54.390625 
Q 18.3125 48.734375 21.84375 45.5625 
Q 25.390625 42.390625 31.78125 42.390625 
Q 38.140625 42.390625 41.71875 45.5625 
Q 45.3125 48.734375 45.3125 54.390625 
Q 45.3125 60.0625 41.71875 63.234375 
Q 38.140625 66.40625 31.78125 66.40625 
Q 25.390625 66.40625 21.84375 63.234375 
Q 18.3125 60.0625 18.3125 54.390625 
z
" id="DejaVuSans-56"/>
       </defs>
       <use xlink:href="#DejaVuSans-56"/>
       <use x="63.623047" xlink:href="#DejaVuSans-48"/>
      </g>
     </g>
    </g>
    <g id="ytick_5">
     <g id="line2d_14">
      <g>
       <use style="stroke:#000000;stroke-width:0.8;" x="108" xlink:href="#mefd0f1ed1e" y="174.408784"/>
      </g>
     </g>
     <g id="text_15">
      <!-- 100 -->
      <g transform="translate(78.095 178.967847)scale(0.12 -0.12)">
       <use xlink:href="#DejaVuSans-49"/>
       <use x="63.623047" xlink:href="#DejaVuSans-48"/>
       <use x="127.246094" xlink:href="#DejaVuSans-48"/>
      </g>
     </g>
    </g>
    <g id="ytick_6">
     <g id="line2d_15">
      <g>
       <use style="stroke:#000000;stroke-width:0.8;" x="108" xlink:href="#mefd0f1ed1e" y="115.540273"/>
      </g>
     </g>
     <g id="text_16">
      <!-- 120 -->
      <g transform="translate(78.095 120.099336)scale(0.12 -0.12)">
       <use xlink:href="#DejaVuSans-49"/>
       <use x="63.623047" xlink:href="#DejaVuSans-50"/>
       <use x="127.246094" xlink:href="#DejaVuSans-48"/>
      </g>
     </g>
    </g>
    <g id="text_17">
     <!-- PM10(micro-gram/m3) -->
     <g transform="translate(70.975469 349.562344)rotate(-90)scale(0.15 -0.15)">
      <defs>
       <path d="M 19.671875 64.796875 
L 19.671875 37.40625 
L 32.078125 37.40625 
Q 38.96875 37.40625 42.71875 40.96875 
Q 46.484375 44.53125 46.484375 51.125 
Q 46.484375 57.671875 42.71875 61.234375 
Q 38.96875 64.796875 32.078125 64.796875 
z
M 9.8125 72.90625 
L 32.078125 72.90625 
Q 44.34375 72.90625 50.609375 67.359375 
Q 56.890625 61.8125 56.890625 51.125 
Q 56.890625 40.328125 50.609375 34.8125 
Q 44.34375 29.296875 32.078125 29.296875 
L 19.671875 29.296875 
L 19.671875 0 
L 9.8125 0 
z
" id="DejaVuSans-80"/>
       <path d="M 9.8125 72.90625 
L 24.515625 72.90625 
L 43.109375 23.296875 
L 61.8125 72.90625 
L 76.515625 72.90625 
L 76.515625 0 
L 66.890625 0 
L 66.890625 64.015625 
L 48.09375 14.015625 
L 38.1875 14.015625 
L 19.390625 64.015625 
L 19.390625 0 
L 9.8125 0 
z
" id="DejaVuSans-77"/>
       <path d="M 31 75.875 
Q 24.46875 64.65625 21.28125 53.65625 
Q 18.109375 42.671875 18.109375 31.390625 
Q 18.109375 20.125 21.3125 9.0625 
Q 24.515625 -2 31 -13.1875 
L 23.1875 -13.1875 
Q 15.875 -1.703125 12.234375 9.375 
Q 8.59375 20.453125 8.59375 31.390625 
Q 8.59375 42.28125 12.203125 53.3125 
Q 15.828125 64.359375 23.1875 75.875 
z
" id="DejaVuSans-40"/>
       <path d="M 52 44.1875 
Q 55.375 50.25 60.0625 53.125 
Q 64.75 56 71.09375 56 
Q 79.640625 56 84.28125 50.015625 
Q 88.921875 44.046875 88.921875 33.015625 
L 88.921875 0 
L 79.890625 0 
L 79.890625 32.71875 
Q 79.890625 40.578125 77.09375 44.375 
Q 74.3125 48.1875 68.609375 48.1875 
Q 61.625 48.1875 57.5625 43.546875 
Q 53.515625 38.921875 53.515625 30.90625 
L 53.515625 0 
L 44.484375 0 
L 44.484375 32.71875 
Q 44.484375 40.625 41.703125 44.40625 
Q 38.921875 48.1875 33.109375 48.1875 
Q 26.21875 48.1875 22.15625 43.53125 
Q 18.109375 38.875 18.109375 30.90625 
L 18.109375 0 
L 9.078125 0 
L 9.078125 54.6875 
L 18.109375 54.6875 
L 18.109375 46.1875 
Q 21.1875 51.21875 25.484375 53.609375 
Q 29.78125 56 35.6875 56 
Q 41.65625 56 45.828125 52.96875 
Q 50 49.953125 52 44.1875 
z
" id="DejaVuSans-109"/>
       <path d="M 9.421875 54.6875 
L 18.40625 54.6875 
L 18.40625 0 
L 9.421875 0 
z
M 9.421875 75.984375 
L 18.40625 75.984375 
L 18.40625 64.59375 
L 9.421875 64.59375 
z
" id="DejaVuSans-105"/>
       <path d="M 48.78125 52.59375 
L 48.78125 44.1875 
Q 44.96875 46.296875 41.140625 47.34375 
Q 37.3125 48.390625 33.40625 48.390625 
Q 24.65625 48.390625 19.8125 42.84375 
Q 14.984375 37.3125 14.984375 27.296875 
Q 14.984375 17.28125 19.8125 11.734375 
Q 24.65625 6.203125 33.40625 6.203125 
Q 37.3125 6.203125 41.140625 7.25 
Q 44.96875 8.296875 48.78125 10.40625 
L 48.78125 2.09375 
Q 45.015625 0.34375 40.984375 -0.53125 
Q 36.96875 -1.421875 32.421875 -1.421875 
Q 20.0625 -1.421875 12.78125 6.34375 
Q 5.515625 14.109375 5.515625 27.296875 
Q 5.515625 40.671875 12.859375 48.328125 
Q 20.21875 56 33.015625 56 
Q 37.15625 56 41.109375 55.140625 
Q 45.0625 54.296875 48.78125 52.59375 
z
" id="DejaVuSans-99"/>
       <path d="M 41.109375 46.296875 
Q 39.59375 47.171875 37.8125 47.578125 
Q 36.03125 48 33.890625 48 
Q 26.265625 48 22.1875 43.046875 
Q 18.109375 38.09375 18.109375 28.8125 
L 18.109375 0 
L 9.078125 0 
L 9.078125 54.6875 
L 18.109375 54.6875 
L 18.109375 46.1875 
Q 20.953125 51.171875 25.484375 53.578125 
Q 30.03125 56 36.53125 56 
Q 37.453125 56 38.578125 55.875 
Q 39.703125 55.765625 41.0625 55.515625 
z
" id="DejaVuSans-114"/>
       <path d="M 30.609375 48.390625 
Q 23.390625 48.390625 19.1875 42.75 
Q 14.984375 37.109375 14.984375 27.296875 
Q 14.984375 17.484375 19.15625 11.84375 
Q 23.34375 6.203125 30.609375 6.203125 
Q 37.796875 6.203125 41.984375 11.859375 
Q 46.1875 17.53125 46.1875 27.296875 
Q 46.1875 37.015625 41.984375 42.703125 
Q 37.796875 48.390625 30.609375 48.390625 
z
M 30.609375 56 
Q 42.328125 56 49.015625 48.375 
Q 55.71875 40.765625 55.71875 27.296875 
Q 55.71875 13.875 49.015625 6.21875 
Q 42.328125 -1.421875 30.609375 -1.421875 
Q 18.84375 -1.421875 12.171875 6.21875 
Q 5.515625 13.875 5.515625 27.296875 
Q 5.515625 40.765625 12.171875 48.375 
Q 18.84375 56 30.609375 56 
z
" id="DejaVuSans-111"/>
       <path d="M 45.40625 27.984375 
Q 45.40625 37.75 41.375 43.109375 
Q 37.359375 48.484375 30.078125 48.484375 
Q 22.859375 48.484375 18.828125 43.109375 
Q 14.796875 37.75 14.796875 27.984375 
Q 14.796875 18.265625 18.828125 12.890625 
Q 22.859375 7.515625 30.078125 7.515625 
Q 37.359375 7.515625 41.375 12.890625 
Q 45.40625 18.265625 45.40625 27.984375 
z
M 54.390625 6.78125 
Q 54.390625 -7.171875 48.1875 -13.984375 
Q 42 -20.796875 29.203125 -20.796875 
Q 24.46875 -20.796875 20.265625 -20.09375 
Q 16.0625 -19.390625 12.109375 -17.921875 
L 12.109375 -9.1875 
Q 16.0625 -11.328125 19.921875 -12.34375 
Q 23.78125 -13.375 27.78125 -13.375 
Q 36.625 -13.375 41.015625 -8.765625 
Q 45.40625 -4.15625 45.40625 5.171875 
L 45.40625 9.625 
Q 42.625 4.78125 38.28125 2.390625 
Q 33.9375 0 27.875 0 
Q 17.828125 0 11.671875 7.65625 
Q 5.515625 15.328125 5.515625 27.984375 
Q 5.515625 40.671875 11.671875 48.328125 
Q 17.828125 56 27.875 56 
Q 33.9375 56 38.28125 53.609375 
Q 42.625 51.21875 45.40625 46.390625 
L 45.40625 54.6875 
L 54.390625 54.6875 
z
" id="DejaVuSans-103"/>
       <path d="M 25.390625 72.90625 
L 33.6875 72.90625 
L 8.296875 -9.28125 
L 0 -9.28125 
z
" id="DejaVuSans-47"/>
       <path d="M 40.578125 39.3125 
Q 47.65625 37.796875 51.625 33 
Q 55.609375 28.21875 55.609375 21.1875 
Q 55.609375 10.40625 48.1875 4.484375 
Q 40.765625 -1.421875 27.09375 -1.421875 
Q 22.515625 -1.421875 17.65625 -0.515625 
Q 12.796875 0.390625 7.625 2.203125 
L 7.625 11.71875 
Q 11.71875 9.328125 16.59375 8.109375 
Q 21.484375 6.890625 26.8125 6.890625 
Q 36.078125 6.890625 40.9375 10.546875 
Q 45.796875 14.203125 45.796875 21.1875 
Q 45.796875 27.640625 41.28125 31.265625 
Q 36.765625 34.90625 28.71875 34.90625 
L 20.21875 34.90625 
L 20.21875 43.015625 
L 29.109375 43.015625 
Q 36.375 43.015625 40.234375 45.921875 
Q 44.09375 48.828125 44.09375 54.296875 
Q 44.09375 59.90625 40.109375 62.90625 
Q 36.140625 65.921875 28.71875 65.921875 
Q 24.65625 65.921875 20.015625 65.03125 
Q 15.375 64.15625 9.8125 62.3125 
L 9.8125 71.09375 
Q 15.4375 72.65625 20.34375 73.4375 
Q 25.25 74.21875 29.59375 74.21875 
Q 40.828125 74.21875 47.359375 69.109375 
Q 53.90625 64.015625 53.90625 55.328125 
Q 53.90625 49.265625 50.4375 45.09375 
Q 46.96875 40.921875 40.578125 39.3125 
z
" id="DejaVuSans-51"/>
       <path d="M 8.015625 75.875 
L 15.828125 75.875 
Q 23.140625 64.359375 26.78125 53.3125 
Q 30.421875 42.28125 30.421875 31.390625 
Q 30.421875 20.453125 26.78125 9.375 
Q 23.140625 -1.703125 15.828125 -13.1875 
L 8.015625 -13.1875 
Q 14.5 -2 17.703125 9.0625 
Q 20.90625 20.125 20.90625 31.390625 
Q 20.90625 42.671875 17.703125 53.65625 
Q 14.5 64.65625 8.015625 75.875 
z
" id="DejaVuSans-41"/>
      </defs>
      <use xlink:href="#DejaVuSans-80"/>
      <use x="60.302734" xlink:href="#DejaVuSans-77"/>
      <use x="146.582031" xlink:href="#DejaVuSans-49"/>
      <use x="210.205078" xlink:href="#DejaVuSans-48"/>
      <use x="273.828125" xlink:href="#DejaVuSans-40"/>
      <use x="312.841797" xlink:href="#DejaVuSans-109"/>
      <use x="410.253906" xlink:href="#DejaVuSans-105"/>
      <use x="438.037109" xlink:href="#DejaVuSans-99"/>
      <use x="493.017578" xlink:href="#DejaVuSans-114"/>
      <use x="531.880859" xlink:href="#DejaVuSans-111"/>
      <use x="594.9375" xlink:href="#DejaVuSans-45"/>
      <use x="631.021484" xlink:href="#DejaVuSans-103"/>
      <use x="694.498047" xlink:href="#DejaVuSans-114"/>
      <use x="735.611328" xlink:href="#DejaVuSans-97"/>
      <use x="796.890625" xlink:href="#DejaVuSans-109"/>
      <use x="894.302734" xlink:href="#DejaVuSans-47"/>
      <use x="927.994141" xlink:href="#DejaVuSans-109"/>
      <use x="1025.40625" xlink:href="#DejaVuSans-51"/>
      <use x="1089.029297" xlink:href="#DejaVuSans-41"/>
     </g>
    </g>
   </g>
   <g id="line2d_16">
    <path clip-path="url(#p3d79495e9e)" d="M 138.436364 291.655234 
L 139.273678 354.570955 
L 140.110992 354.32567 
L 140.948306 314.098854 
L 141.78562 295.334516 
L 142.622934 318.759278 
L 143.460248 319.127206 
L 144.297562 276.570178 
L 145.134876 312.627141 
L 145.97219 292.391091 
L 146.809504 326.48577 
L 147.646818 304.187091 
L 148.484132 303.183651 
L 149.321446 328.938624 
L 150.15876 334.948118 
L 150.996074 289.447665 
L 151.833388 341.938754 
L 152.670702 302.202509 
L 154.345329 336.174545 
L 155.182643 359.844592 
L 156.019957 375.91079 
L 156.857271 413.316823 
L 157.694585 420.184816 
L 158.531899 408.656399 
L 159.369213 380.693857 
L 160.206527 366.099372 
L 161.043841 353.823949 
L 161.881155 349.052032 
L 162.718469 334.334904 
L 163.555783 335.070761 
L 164.393097 390.137347 
L 165.230411 391.582398 
L 166.067725 362.42009 
L 166.905039 338.382115 
L 167.742353 418.467818 
L 168.579667 397.127982 
L 169.416981 369.288083 
L 170.254295 347.089748 
L 171.091609 314.344139 
L 171.928923 387.561849 
L 172.766237 391.486417 
L 173.603551 370.146582 
L 174.440865 435.515157 
L 175.278179 385.844851 
L 176.115493 394.653799 
L 176.952807 363.891803 
L 178.627435 369.288083 
L 179.464749 317.04228 
L 180.302063 336.174545 
L 181.139377 305.636506 
L 181.976691 316.796994 
L 182.814005 340.846119 
L 183.651319 368.552226 
L 184.488633 352.275784 
L 185.325947 359.476664 
L 186.163261 342.429325 
L 187.000575 346.407215 
L 187.837889 354.448312 
L 188.675203 391.820897 
L 189.512517 404.977117 
L 190.349831 362.297447 
L 191.187145 285.645741 
L 192.024459 359.844592 
L 192.861773 363.401232 
L 193.699087 362.174804 
L 194.536401 358.740808 
L 195.373715 260.871909 
L 196.211029 236.711291 
L 197.048343 365.731443 
L 197.885657 294.108089 
L 198.722971 281.10796 
L 199.560285 273.281123 
L 200.397599 300.117583 
L 201.234913 351.627529 
L 202.072227 272.400326 
L 202.909541 291.042021 
L 203.746855 332.740549 
L 204.584169 359.599307 
L 205.421483 336.041238 
L 206.258797 341.816111 
L 207.096111 341.32554 
L 207.933425 363.523874 
L 208.770739 351.627529 
L 209.608053 371.986223 
L 210.445367 358.004951 
L 211.282681 361.684233 
L 212.119995 333.721691 
L 212.957309 323.419701 
L 213.794623 369.656011 
L 214.631937 382.778783 
L 215.469251 406.939401 
L 216.306565 399.335552 
L 217.981193 324.768772 
L 218.818507 350.155817 
L 219.655821 329.797123 
L 220.493135 276.938107 
L 221.330449 383.759925 
L 222.167763 350.033174 
L 223.005077 306.617647 
L 223.842391 256.088843 
L 224.679705 325.504628 
L 225.517019 353.589813 
L 226.354333 320.230991 
L 227.191647 348.929389 
L 228.028961 371.083126 
L 228.866275 388.665634 
L 229.703589 392.344916 
L 230.540903 379.835357 
L 231.378217 347.457677 
L 232.215531 293.985446 
L 233.052845 155.276518 
L 233.890159 210.220461 
L 234.727473 311.891285 
L 235.564787 305.145935 
L 236.402101 321.212132 
L 237.239415 368.061655 
L 238.076729 367.571084 
L 238.914043 371.986223 
L 240.588671 399.580837 
L 241.425985 391.854345 
L 242.263299 404.731832 
L 243.100613 407.920543 
L 243.937927 407.7979 
L 244.775241 405.712974 
L 245.612555 382.288212 
L 246.449869 332.740549 
L 247.287183 290.428807 
L 248.961811 377.627788 
L 249.799125 395.165699 
L 250.636439 401.543121 
L 251.473753 396.637412 
L 252.311067 398.477052 
L 253.148381 398.911877 
L 253.985695 374.807006 
L 254.823009 360.212521 
L 255.660323 414.665893 
L 256.497637 415.156464 
L 257.334951 401.911049 
L 258.172265 380.448571 
L 259.009579 317.410208 
L 259.846893 323.78763 
L 260.684207 383.514639 
L 261.521521 404.609189 
L 262.358835 402.3323 
L 263.196149 401.297835 
L 264.033463 400.02875 
L 264.870777 403.014834 
L 265.708091 410.819371 
L 266.545405 402.646905 
L 267.382719 409.514898 
L 268.220033 389.892061 
L 269.057347 389.769419 
L 269.89466 384.127853 
L 270.731974 410.128112 
L 271.569288 418.980687 
L 272.406602 421.656529 
L 273.243916 408.411114 
L 274.08123 426.19431 
L 274.918544 408.779042 
L 276.593172 416.628177 
L 277.430486 416.750819 
L 278.2678 419.571602 
L 279.105114 425.826381 
L 279.942428 426.19431 
L 280.779742 405.835616 
L 281.617056 404.486546 
L 282.45437 405.590331 
L 283.291684 407.429972 
L 284.128998 415.647035 
L 284.966312 414.788536 
L 285.803626 422.269742 
L 286.64094 427.159455 
L 287.478254 429.750949 
L 288.315568 440.052938 
L 289.152882 424.599954 
L 289.990196 412.826252 
L 290.82751 410.005469 
L 291.664824 420.920672 
L 292.502138 413.19418 
L 293.339452 408.779042 
L 294.176766 394.552485 
L 295.01408 387.807135 
L 295.851394 386.70335 
L 296.688708 396.637412 
L 297.526022 417.854604 
L 298.363336 389.524133 
L 299.20065 396.514769 
L 300.037964 397.495911 
L 300.875278 413.082202 
L 301.712592 417.731961 
L 302.549906 421.656529 
L 303.38722 420.307459 
L 304.224534 424.471979 
L 305.061848 422.024457 
L 305.899162 426.439595 
L 306.736476 423.741455 
L 307.57379 410.741326 
L 308.411104 403.628047 
L 309.248418 413.439466 
L 310.923046 420.307459 
L 311.76036 414.54325 
L 312.597674 422.325489 
L 313.434988 423.741455 
L 314.272302 419.974571 
L 315.109616 439.737571 
L 315.94693 442.996364 
L 317.621558 429.505663 
L 318.458872 424.232026 
L 319.296186 416.382891 
L 320.1335 415.89232 
L 320.970814 425.703739 
L 321.808128 418.222532 
L 322.645442 426.439595 
L 323.482756 423.576154 
L 324.32007 416.873462 
L 325.157384 416.382891 
L 325.994698 424.599954 
L 326.832012 427.54338 
L 327.669326 421.165958 
L 328.50664 390.25999 
L 329.343954 401.05255 
L 331.018582 348.561461 
L 331.855896 345.004822 
L 332.69321 391.363774 
L 333.530524 385.108995 
L 334.367838 385.108995 
L 335.205152 386.212779 
L 336.042466 371.618295 
L 336.87978 330.900908 
L 337.717094 337.033045 
L 338.554408 340.957612 
L 339.391722 361.193662 
L 340.229036 283.070243 
L 342.740978 361.316305 
L 343.578292 400.249797 
L 344.415606 399.458194 
L 345.25292 422.760313 
L 346.090234 430.364162 
L 346.927548 414.175322 
L 347.764862 402.40162 
L 348.602176 422.024457 
L 349.43949 407.7979 
L 350.276804 405.958259 
L 351.114118 407.062044 
L 351.951432 427.420737 
L 352.788746 423.741455 
L 353.62606 419.225003 
L 354.463374 418.958388 
L 355.300688 419.694245 
L 356.975316 431.958518 
L 357.81263 388.788277 
L 358.649944 387.231247 
L 359.487258 362.542732 
L 360.324572 352.294066 
L 361.161886 363.76916 
L 362.836514 380.816499 
L 363.673828 421.533886 
L 364.511142 418.713103 
L 365.348456 385.108995 
L 366.18577 360.212521 
L 367.023084 363.646517 
L 367.860398 345.37275 
L 368.697712 356.410596 
L 369.535026 334.457547 
L 370.37234 359.204717 
L 371.209654 349.787889 
L 372.046968 303.061008 
L 372.884282 275.589037 
L 373.721596 293.24959 
L 374.55891 293.617518 
L 375.396224 410.741326 
L 376.233538 366.01177 
L 377.070852 359.599307 
L 377.908166 317.287565 
L 379.582794 328.325411 
L 380.420108 340.099113 
L 381.257422 324.011586 
L 382.094736 324.155558 
L 382.93205 315.815852 
L 383.769364 266.268189 
L 384.606678 231.928225 
L 385.443991 258.296412 
L 386.281305 308.579931 
L 387.118619 322.070631 
L 387.955933 337.646258 
L 388.793247 329.18391 
L 389.630561 289.97023 
L 390.467875 300.240225 
L 391.305189 297.2968 
L 392.142503 227.145158 
L 392.979817 307.721432 
L 393.817131 270.80597 
L 394.654445 323.627661 
L 395.491759 205.192109 
L 396.329073 232.909366 
L 398.003701 212.673316 
L 398.841015 190.352339 
L 399.678329 254.739772 
L 400.515643 283.192886 
L 401.352957 287.85331 
L 402.190271 282.45703 
L 403.027585 318.759278 
L 403.864899 318.759278 
L 404.702213 370.391867 
L 405.539527 376.60932 
L 406.376841 393.571343 
L 407.214155 393.203415 
L 408.051469 384.495781 
L 408.888783 384.00521 
L 410.563411 269.702186 
L 411.400725 312.13657 
L 412.238039 287.485381 
L 413.075353 293.617518 
L 413.912667 315.693209 
L 414.749981 328.693339 
L 415.587295 321.720224 
L 416.424609 291.90052 
L 417.261923 296.438301 
L 418.099237 304.175457 
L 418.936551 302.815723 
L 419.773865 266.513475 
L 420.611179 213.899743 
L 421.448493 176.281873 
L 422.285807 239.041503 
L 423.123121 211.324246 
L 423.960435 197.58826 
L 424.797749 233.890508 
L 425.635063 217.536367 
L 426.472377 345.282382 
L 427.309691 277.428678 
L 428.147005 348.316176 
L 428.984319 313.773584 
L 429.821633 305.759148 
L 430.658947 303.674222 
L 431.496261 284.787241 
L 432.333575 256.211485 
L 433.170889 212.305388 
L 434.008203 199.673187 
L 434.845517 174.531427 
L 435.682831 284.909884 
L 436.520145 253.022774 
L 437.357459 306.249719 
L 438.194773 215.862027 
L 439.032087 308.08936 
L 439.869401 299.236785 
L 440.706715 252.777489 
L 441.544029 306.74029 
L 442.381343 323.378821 
L 443.218657 315.938495 
L 444.055971 258.541697 
L 444.893285 248.975564 
L 445.730599 181.522062 
L 446.567913 260.871909 
L 447.405227 194.89012 
L 448.242541 277.428678 
L 449.079855 301.834581 
L 449.917169 284.29667 
L 450.754483 293.004304 
L 451.591797 240.758501 
L 452.429111 230.088584 
L 453.266425 207.17039 
L 454.103739 252.777489 
L 454.941053 263.692692 
L 455.778367 86.923636 
L 456.615681 121.171174 
L 457.452995 220.522451 
L 458.290309 299.136441 
L 459.127623 220.890379 
L 459.964937 250.324634 
L 460.802251 220.433256 
L 462.476879 307.353504 
L 463.314193 243.824569 
L 464.151507 269.824828 
L 464.988821 251.449748 
L 465.826135 323.419701 
L 466.663449 239.409431 
L 467.500763 338.014186 
L 468.338077 340.712326 
L 469.175391 276.938107 
L 470.012705 285.15517 
L 470.850019 295.211873 
L 471.687333 322.070631 
L 472.524647 310.174287 
L 473.361961 319.372491 
L 474.199275 324.032915 
L 475.036589 308.782558 
L 475.873903 413.562108 
L 476.711217 402.033692 
L 477.548531 380.325928 
L 478.385845 371.127724 
L 480.060473 344.268966 
L 480.897787 340.957612 
L 481.735101 357.514381 
L 482.572415 312.995069 
L 483.409729 319.863062 
L 484.247043 312.627141 
L 485.084357 311.032786 
L 486.758985 333.23112 
L 487.596299 333.23112 
L 488.433613 368.802844 
L 489.270927 377.014575 
L 490.108241 336.910402 
L 490.945555 354.570955 
L 491.782869 357.146452 
L 492.620183 359.108736 
L 493.457497 350.646388 
L 494.294811 299.136441 
L 495.132125 289.938236 
L 495.969439 343.042538 
L 496.806753 350.646388 
L 497.644067 376.278718 
L 498.481381 323.499686 
L 499.318695 340.467041 
L 500.156009 377.889071 
L 500.993322 323.297059 
L 501.830636 341.080255 
L 502.66795 326.363127 
L 503.505264 362.297447 
L 504.342578 336.665116 
L 505.179892 354.81624 
L 506.017206 368.797512 
L 506.85452 391.241131 
L 507.691834 372.599436 
L 508.529148 303.674222 
L 509.366462 281.966459 
L 510.203776 149.144382 
L 511.04109 93.912495 
L 511.878404 193.173122 
L 512.715718 351.627529 
L 513.553032 337.27833 
L 514.390346 350.155817 
L 515.22766 391.731702 
L 516.064974 396.146841 
L 516.902288 398.722338 
L 517.739602 400.316693 
L 518.576916 394.3072 
L 519.41423 394.920413 
L 520.251544 291.164663 
L 521.088858 319.249849 
L 521.926172 299.627012 
L 522.763486 346.919115 
L 523.6008 329.674481 
L 524.438114 376.278718 
L 525.275428 335.92926 
L 526.112742 362.174804 
L 526.950056 379.835357 
L 527.78737 385.476923 
L 528.624684 371.618295 
L 529.461998 376.891932 
L 530.299312 363.891803 
L 531.136626 355.429454 
L 531.97394 140.55939 
L 532.811254 205.250765 
L 533.648568 308.702574 
L 534.485882 296.315658 
L 535.323196 296.806229 
L 536.16051 302.938366 
L 536.997824 368.429584 
L 537.835138 361.316305 
L 538.672452 371.618295 
L 539.509766 403.628047 
L 541.184394 322.561202 
L 543.696336 367.325799 
L 544.53365 361.806876 
L 545.370964 373.703221 
L 547.045592 315.94916 
L 547.882906 351.627529 
L 548.72022 367.080514 
L 550.394848 407.920543 
L 551.232162 402.646905 
L 552.069476 394.184557 
L 552.90679 393.816629 
L 553.744104 392.467559 
L 554.581418 386.825993 
L 555.418732 400.071408 
L 556.256046 403.137476 
L 557.09336 393.571343 
L 557.930674 396.024198 
L 558.767988 392.862148 
L 559.605302 405.915601 
L 560.442616 414.665893 
L 561.27993 431.345304 
L 562.117244 405.958259 
L 562.954558 425.581096 
L 563.791872 416.382891 
L 564.629186 412.335681 
L 565.4665 412.213038 
L 566.303814 402.033692 
L 567.141128 385.722209 
L 567.978442 384.127853 
L 568.815756 416.382891 
L 569.65307 399.948765 
L 570.490384 402.8442 
L 571.327698 376.646646 
L 572.165012 331.514122 
L 573.002326 302.938366 
L 573.83964 377.25986 
L 574.676954 391.60906 
L 575.514268 426.930166 
L 576.351582 427.052809 
L 577.188896 420.184816 
L 578.02621 414.665893 
L 578.863524 419.93953 
L 579.700838 405.835616 
L 580.538152 393.816629 
L 581.375466 377.137217 
L 582.21278 387.316564 
L 583.050094 385.311622 
L 583.887408 373.825864 
L 584.724722 368.674869 
L 585.562036 358.740808 
L 586.39935 400.194051 
L 587.236664 414.665893 
L 588.073978 420.430101 
L 588.911292 408.603076 
L 589.748606 378.363645 
L 590.58592 360.580449 
L 591.423234 371.250366 
L 592.260548 363.891803 
L 593.097862 365.363515 
L 593.935176 372.77007 
L 594.77249 361.806876 
L 595.609804 376.033433 
L 596.447118 393.816629 
L 597.284432 418.958388 
L 598.121746 420.920672 
L 598.95906 414.175322 
L 599.796374 422.515028 
L 600.633688 409.760184 
L 601.471002 424.477311 
L 602.308316 421.043315 
L 603.14563 423.250884 
L 603.982944 414.175322 
L 604.820258 417.24139 
L 605.657572 424.727929 
L 606.494886 404.363904 
L 607.3322 371.986223 
L 608.169514 422.147099 
L 609.006828 433.675516 
L 609.844142 427.175451 
L 610.681456 418.099889 
L 611.51877 400.316693 
L 612.356084 354.203027 
L 613.193398 325.872556 
L 614.030712 361.07102 
L 614.868026 388.297706 
L 615.70534 312.381856 
L 616.542653 354.448312 
L 617.379967 383.391997 
L 618.217281 408.165828 
L 619.054595 378.854216 
L 619.891909 384.741067 
L 620.729223 372.722079 
L 621.566537 417.854604 
L 622.403851 349.665246 
L 623.241165 362.910661 
L 624.078479 347.335034 
L 624.915793 349.052032 
L 626.590421 373.21265 
L 627.427735 370.146582 
L 628.265049 397.495911 
L 629.102363 408.859026 
L 629.939677 395.043056 
L 631.614305 417.731961 
L 632.451619 418.59046 
L 633.288933 395.778912 
L 634.963561 401.297835 
L 635.800875 412.458324 
L 636.638189 404.363904 
L 637.475503 417.364033 
L 638.312817 416.873462 
L 639.150131 419.081031 
L 639.987445 424.477311 
L 640.824759 426.391604 
L 641.662073 417.118748 
L 642.499387 411.191016 
L 643.336701 414.788536 
L 644.174015 409.514898 
L 645.011329 389.278848 
L 645.848643 422.515028 
L 646.685957 439.562367 
L 647.523271 434.901943 
L 648.360585 433.184945 
L 649.197899 436.618942 
L 650.872527 409.749034 
L 651.709841 412.335681 
L 652.547155 364.137088 
L 653.384469 386.580708 
L 654.221783 361.806876 
L 655.059097 342.429325 
L 655.896411 358.740808 
L 656.733725 399.212909 
L 657.571039 372.722079 
L 658.408353 382.042927 
L 659.245667 341.080255 
L 660.082981 363.76916 
L 660.920295 424.599954 
L 661.757609 422.882956 
L 662.594923 415.033821 
L 663.432237 435.024586 
L 665.106865 405.467688 
L 666.781493 345.740678 
L 667.618807 330.410337 
L 668.456121 319.004563 
L 669.293435 312.627141 
L 670.130749 300.853439 
L 670.968063 310.174287 
L 671.805377 376.278718 
L 672.642691 395.901555 
L 673.480005 356.778524 
L 674.317319 349.174675 
L 675.154633 323.78763 
L 675.991947 365.486158 
L 676.829261 429.974905 
L 677.666575 402.033692 
L 678.503889 417.854604 
L 679.341203 342.551967 
L 681.015831 418.222532 
L 682.690459 367.325799 
L 683.527773 376.646646 
L 684.365087 398.967623 
L 685.202401 351.995458 
L 686.039715 327.734496 
L 686.877029 373.703221 
L 687.714343 391.070498 
L 688.551657 400.561979 
L 689.388971 335.193404 
L 690.226285 372.722079 
L 691.063599 305.268577 
L 691.900913 286.136311 
L 692.738227 305.39122 
L 693.575541 309.929001 
L 694.412855 325.014057 
L 695.250169 300.976082 
L 696.087483 312.995069 
L 696.924797 296.438301 
L 697.762111 348.316176 
L 698.599425 307.598789 
L 699.436739 343.865997 
L 700.274053 349.41996 
L 701.111367 362.788018 
L 701.948681 385.844851 
L 702.785995 379.344787 
L 703.623309 322.806488 
L 704.460623 332.79311 
L 705.297937 328.325411 
L 706.135251 293.126947 
L 706.972565 304.655364 
L 707.809879 332.863192 
L 708.647193 322.929131 
L 709.484507 237.24452 
L 710.321821 219.173381 
L 711.159135 302.69308 
L 711.996449 220.522451 
L 712.833763 345.495393 
L 713.671077 340.344398 
L 714.508391 348.316176 
L 715.345705 207.154393 
L 716.183019 192.437265 
L 717.020333 100.332575 
L 717.857647 221.258307 
L 718.694961 204.824181 
L 719.532275 249.098207 
L 720.369589 237.079219 
L 721.206903 207.03175 
L 722.044217 254.739772 
L 722.881531 247.87178 
L 723.718845 258.296412 
L 724.556159 263.570049 
L 725.393473 270.315399 
L 726.230787 239.654717 
L 727.068101 245.418925 
L 727.905415 308.825217 
L 728.742729 196.852404 
L 729.580043 255.843557 
L 730.417357 284.541956 
L 731.254671 233.032009 
L 732.091984 159.323728 
L 732.929298 209.090015 
L 733.766612 308.947859 
L 734.603926 318.146064 
L 735.44124 312.381856 
L 736.278554 235.730149 
L 737.115868 244.069855 
L 737.953182 317.164922 
L 738.790496 409.024327 
L 739.62781 347.212391 
L 740.465124 301.589295 
L 741.302438 190.229696 
L 742.139752 279.145676 
L 742.977066 316.18378 
L 743.81438 363.76916 
L 745.489008 209.607248 
L 746.326322 287.282754 
L 747.163636 277.673963 
L 747.163636 277.673963 
" style="fill:none;stroke:#1f77b4;stroke-linecap:square;stroke-width:1.5;"/>
   </g>
   <g id="line2d_17">
    <path clip-path="url(#p3d79495e9e)" d="M 138.436364 267.144249 
L 140.110992 322.404261 
L 140.948306 303.29572 
L 141.78562 280.594951 
L 142.622934 284.50028 
L 143.460248 292.035443 
L 144.297562 269.82646 
L 145.134876 272.524099 
L 145.97219 228.544463 
L 146.809504 301.827039 
L 147.646818 278.478342 
L 148.484132 305.664763 
L 149.321446 301.265929 
L 150.15876 294.010553 
L 150.996074 282.253356 
L 151.833388 303.096082 
L 152.670702 272.389112 
L 153.508016 292.120429 
L 154.345329 306.141101 
L 155.182643 309.72245 
L 156.019957 331.911704 
L 156.857271 343.395604 
L 157.694585 320.603301 
L 158.531899 281.9743 
L 159.369213 279.913495 
L 160.206527 251.190417 
L 161.043841 248.246205 
L 161.881155 272.302385 
L 162.718469 271.67194 
L 163.555783 313.493141 
L 164.393097 307.81527 
L 165.230411 314.294604 
L 166.067725 313.770345 
L 166.905039 297.963569 
L 167.742353 312.193176 
L 168.579667 322.150693 
L 169.416981 305.038136 
L 170.254295 310.718914 
L 171.091609 297.582133 
L 171.928923 298.63082 
L 172.766237 314.928597 
L 173.603551 309.510673 
L 174.440865 330.27068 
L 175.278179 288.131191 
L 176.115493 262.745729 
L 176.952807 272.599306 
L 177.790121 316.968854 
L 178.627435 299.59296 
L 179.464749 291.356704 
L 180.302063 317.822012 
L 181.139377 275.936529 
L 181.976691 274.156713 
L 182.814005 283.684175 
L 183.651319 316.168267 
L 184.488633 325.906495 
L 185.325947 323.994746 
L 186.163261 309.375563 
L 187.000575 312.956384 
L 187.837889 308.851337 
L 188.675203 309.399547 
L 189.512517 311.647976 
L 190.349831 316.731151 
L 191.187145 299.05334 
L 192.024459 300.902896 
L 192.861773 300.590424 
L 193.699087 299.465497 
L 194.536401 293.89361 
L 195.373715 299.241493 
L 196.211029 263.923171 
L 197.048343 273.092946 
L 197.885657 251.661286 
L 198.722971 266.541178 
L 199.560285 272.62174 
L 200.397599 263.809069 
L 201.234913 289.686711 
L 202.072227 283.212913 
L 202.909541 290.281563 
L 203.746855 247.917419 
L 204.584169 275.696559 
L 205.421483 286.088531 
L 206.258797 321.245256 
L 207.096111 326.08909 
L 207.933425 312.550403 
L 208.770739 319.807935 
L 209.608053 329.449848 
L 210.445367 312.323446 
L 211.282681 307.324168 
L 212.119995 315.007532 
L 212.957309 284.724857 
L 213.794623 285.544185 
L 214.631937 298.900625 
L 215.469251 325.552749 
L 216.306565 333.225816 
L 217.143879 330.987684 
L 217.981193 283.056739 
L 218.818507 277.897256 
L 219.655821 286.358751 
L 220.493135 287.591055 
L 221.330449 286.392661 
L 222.167763 257.564014 
L 223.005077 285.230601 
L 223.842391 262.590846 
L 224.679705 311.537377 
L 225.517019 319.701929 
L 226.354333 306.908688 
L 227.191647 312.396228 
L 228.028961 325.680459 
L 228.866275 333.876529 
L 229.703589 352.366481 
L 230.540903 356.378558 
L 231.378217 328.257742 
L 233.052845 210.82348 
L 233.890159 181.430926 
L 234.727473 252.947126 
L 235.564787 272.563959 
L 237.239415 327.974486 
L 238.076729 339.22367 
L 238.914043 328.77239 
L 240.588671 370.561803 
L 241.425985 359.41044 
L 242.263299 356.880024 
L 243.100613 367.709911 
L 243.937927 346.512922 
L 244.775241 344.198886 
L 245.612555 340.669524 
L 246.449869 353.226477 
L 247.287183 289.188928 
L 249.799125 330.493438 
L 250.636439 315.502183 
L 251.473753 325.424016 
L 252.311067 329.437036 
L 253.148381 335.638133 
L 253.985695 324.625731 
L 254.823009 327.314881 
L 255.660323 320.276907 
L 256.497637 338.998487 
L 257.334951 325.328666 
L 258.172265 332.100283 
L 259.009579 325.84666 
L 259.846893 289.717151 
L 260.684207 323.110194 
L 261.521521 334.031434 
L 262.358835 334.893463 
L 263.196149 356.690693 
L 264.870777 339.84401 
L 266.545405 350.220207 
L 267.382719 360.701613 
L 268.220033 348.854096 
L 269.057347 338.608877 
L 269.89466 318.815838 
L 270.731974 325.132643 
L 271.569288 335.817707 
L 272.406602 383.427107 
L 273.243916 386.620604 
L 274.08123 397.181523 
L 274.918544 359.556273 
L 275.755858 348.918345 
L 277.430486 382.266867 
L 278.2678 387.709398 
L 279.105114 396.400776 
L 279.942428 401.722395 
L 281.617056 378.76516 
L 282.45437 383.733617 
L 284.128998 367.462788 
L 284.966312 361.698403 
L 285.803626 367.714077 
L 287.478254 390.902311 
L 288.315568 395.582695 
L 289.990196 367.173064 
L 290.82751 363.635079 
L 291.664824 379.465569 
L 292.502138 382.477268 
L 293.339452 374.815462 
L 294.176766 374.827847 
L 295.01408 357.584374 
L 295.851394 347.594048 
L 296.688708 333.053047 
L 297.526022 360.049329 
L 298.363336 355.112974 
L 299.20065 369.986534 
L 300.037964 379.724409 
L 300.875278 384.099232 
L 301.712592 389.388009 
L 302.549906 392.929262 
L 303.38722 395.004887 
L 304.224534 395.354008 
L 305.061848 375.782964 
L 305.899162 385.066195 
L 306.736476 389.888375 
L 307.57379 385.618637 
L 308.411104 380.387495 
L 310.085732 387.469613 
L 310.923046 390.672894 
L 311.76036 395.550582 
L 312.597674 397.771052 
L 313.434988 388.395659 
L 314.272302 376.40359 
L 315.109616 355.308043 
L 315.94693 352.623306 
L 316.784244 349.313715 
L 317.621558 355.687693 
L 318.458872 355.026123 
L 319.296186 346.611675 
L 320.1335 351.939088 
L 321.808128 391.633608 
L 322.645442 389.46261 
L 323.482756 372.700117 
L 324.32007 359.023008 
L 325.157384 343.130302 
L 325.994698 365.269187 
L 326.832012 392.54521 
L 327.669326 388.155223 
L 328.50664 351.869125 
L 329.343954 353.472916 
L 331.855896 319.261118 
L 332.69321 356.992442 
L 333.530524 355.838332 
L 334.367838 366.183786 
L 335.205152 346.8047 
L 336.042466 343.669282 
L 336.87978 319.650773 
L 337.717094 308.49631 
L 338.554408 324.459328 
L 339.391722 328.401104 
L 340.229036 304.739834 
L 342.740978 302.906346 
L 344.415606 350.097179 
L 345.25292 361.149857 
L 346.090234 363.033951 
L 346.927548 362.10809 
L 347.764862 339.064296 
L 348.602176 339.638162 
L 349.43949 352.574631 
L 350.276804 359.615165 
L 351.114118 369.824746 
L 351.951432 367.940461 
L 352.788746 362.063671 
L 353.62606 364.040207 
L 354.463374 369.816976 
L 355.300688 361.390816 
L 356.138002 356.470944 
L 356.975316 370.15342 
L 357.81263 363.961856 
L 358.649944 353.730402 
L 359.487258 363.695981 
L 360.324572 331.365515 
L 361.161886 342.73116 
L 361.9992 336.297402 
L 362.836514 340.861932 
L 363.673828 350.353307 
L 364.511142 346.498572 
L 365.348456 351.560336 
L 366.18577 333.608678 
L 367.023084 322.634149 
L 367.860398 321.163873 
L 368.697712 310.180406 
L 369.535026 320.639243 
L 370.37234 313.95313 
L 371.209654 316.399412 
L 372.046968 302.408215 
L 372.884282 264.781573 
L 373.721596 284.70084 
L 374.55891 297.881299 
L 375.396224 341.320607 
L 376.233538 340.093603 
L 377.070852 325.289008 
L 377.908166 308.310685 
L 378.74548 316.930285 
L 379.582794 320.548193 
L 380.420108 316.43249 
L 381.257422 313.757859 
L 382.094736 301.039746 
L 382.93205 268.970753 
L 383.769364 255.518715 
L 384.606678 239.860007 
L 385.443991 258.461961 
L 386.281305 286.289057 
L 387.118619 282.105334 
L 387.955933 300.385721 
L 388.793247 296.923516 
L 389.630561 290.681728 
L 390.467875 281.676604 
L 391.305189 280.021781 
L 392.142503 195.959239 
L 392.979817 270.169731 
L 393.817131 261.80024 
L 394.654445 283.737487 
L 395.491759 272.589649 
L 396.329073 181.39915 
L 397.166387 226.164877 
L 398.841015 182.35791 
L 399.678329 258.257337 
L 400.515643 250.215555 
L 401.352957 284.314733 
L 402.190271 284.615191 
L 403.027585 305.442735 
L 403.864899 286.481993 
L 404.702213 309.627425 
L 405.539527 323.092768 
L 406.376841 339.103281 
L 407.214155 329.683093 
L 408.051469 327.539581 
L 408.888783 338.612616 
L 409.726097 336.642132 
L 410.563411 275.525574 
L 411.400725 298.096062 
L 412.238039 294.385757 
L 413.075353 285.286653 
L 413.912667 282.311799 
L 414.749981 276.920531 
L 415.587295 263.805701 
L 416.424609 261.47462 
L 417.261923 263.51911 
L 418.099237 241.66356 
L 418.936551 284.474388 
L 419.773865 262.583727 
L 420.611179 248.941775 
L 421.448493 200.416484 
L 422.285807 280.565241 
L 423.123121 224.546051 
L 423.960435 210.705785 
L 424.797749 226.672081 
L 425.635063 246.602228 
L 426.472377 285.365981 
L 427.309691 286.586056 
L 428.147005 293.078493 
L 428.984319 289.607406 
L 429.821633 286.771222 
L 430.658947 282.491171 
L 431.496261 276.431449 
L 432.333575 265.206743 
L 433.170889 206.788284 
L 434.008203 210.171409 
L 434.845517 157.907798 
L 435.682831 252.843825 
L 436.520145 238.537114 
L 437.357459 295.160586 
L 438.194773 215.780921 
L 439.032087 259.812566 
L 439.869401 281.868473 
L 440.706715 237.888366 
L 441.544029 260.801889 
L 442.381343 243.64726 
L 443.218657 263.931435 
L 444.055971 268.810436 
L 444.893285 275.70855 
L 445.730599 257.626802 
L 446.567913 269.265271 
L 447.405227 225.099426 
L 448.242541 279.363961 
L 449.079855 242.236472 
L 449.917169 242.292074 
L 450.754483 226.88589 
L 451.591797 229.255483 
L 452.429111 224.122296 
L 453.266425 216.495713 
L 454.103739 228.072225 
L 454.941053 233.947196 
L 455.778367 194.920399 
L 456.615681 173.894866 
L 457.452995 174.818212 
L 459.127623 280.997305 
L 459.964937 254.821462 
L 460.802251 235.332137 
L 461.639565 180.378163 
L 462.476879 300.234802 
L 463.314193 275.483626 
L 464.151507 229.687502 
L 464.988821 291.007146 
L 465.826135 300.576928 
L 466.663449 247.75142 
L 467.500763 299.550023 
L 468.338077 296.457385 
L 469.175391 282.563088 
L 470.012705 262.750984 
L 470.850019 250.837063 
L 471.687333 288.345831 
L 472.524647 284.424456 
L 473.361961 289.901441 
L 474.199275 277.352707 
L 475.873903 305.229297 
L 476.711217 305.593868 
L 477.548531 305.518605 
L 478.385845 299.26496 
L 479.223159 317.522801 
L 480.060473 318.668602 
L 480.897787 311.552704 
L 481.735101 299.409782 
L 482.572415 299.724668 
L 483.409729 276.675956 
L 484.247043 282.856786 
L 485.084357 275.460158 
L 485.921671 281.339262 
L 486.758985 301.754707 
L 487.596299 300.729217 
L 488.433613 316.643627 
L 489.270927 325.681099 
L 490.108241 325.023852 
L 490.945555 320.980762 
L 491.782869 329.221891 
L 492.620183 310.290353 
L 493.457497 300.95934 
L 494.294811 314.386912 
L 495.132125 280.440405 
L 496.806753 311.122088 
L 497.644067 328.647251 
L 498.481381 304.413967 
L 499.318695 301.369285 
L 500.156009 323.004749 
L 500.993322 321.285318 
L 501.830636 314.933167 
L 502.66795 318.159995 
L 503.505264 329.060709 
L 504.342578 319.664505 
L 505.179892 323.277293 
L 506.017206 335.367801 
L 506.85452 350.783676 
L 507.691834 322.852269 
L 508.529148 284.021495 
L 509.366462 296.871787 
L 510.203776 215.96904 
L 511.04109 190.214336 
L 511.878404 189.6902 
L 512.715718 273.643288 
L 513.553032 314.537079 
L 514.390346 313.425681 
L 515.22766 331.338534 
L 516.064974 337.542719 
L 516.902288 351.01198 
L 517.739602 348.918345 
L 518.576916 348.234082 
L 519.41423 350.549544 
L 521.926172 297.823092 
L 522.763486 304.385211 
L 523.6008 315.257227 
L 524.438114 334.079727 
L 525.275428 302.460595 
L 526.112742 300.950156 
L 526.950056 321.200073 
L 527.78737 347.148532 
L 528.624684 356.552304 
L 529.461998 352.502006 
L 531.136626 336.359775 
L 532.811254 178.749254 
L 533.648568 244.940892 
L 534.485882 280.362582 
L 535.323196 286.900908 
L 536.16051 286.382229 
L 536.997824 324.467693 
L 537.835138 345.743179 
L 538.672452 336.636462 
L 539.509766 336.240721 
L 540.34708 324.102841 
L 541.184394 317.583995 
L 542.021708 273.031145 
L 542.859022 294.844331 
L 543.696336 305.717525 
L 544.53365 335.642748 
L 545.370964 311.041065 
L 546.208278 332.124671 
L 547.045592 308.443841 
L 547.882906 327.746979 
L 549.557534 356.380141 
L 550.394848 377.597762 
L 551.232162 370.242718 
L 552.069476 377.383229 
L 552.90679 377.857321 
L 553.744104 358.024163 
L 554.581418 373.243644 
L 556.256046 374.745662 
L 557.09336 379.430026 
L 557.930674 380.015019 
L 558.767988 372.979555 
L 559.605302 377.433369 
L 560.442616 388.685793 
L 561.27993 397.658567 
L 562.117244 382.515877 
L 562.954558 387.017315 
L 563.791872 393.41228 
L 564.629186 387.460535 
L 565.4665 390.441221 
L 566.303814 398.435755 
L 567.141128 367.596865 
L 567.978442 351.585015 
L 568.815756 360.752343 
L 569.65307 345.617051 
L 570.490384 351.203164 
L 571.327698 367.992493 
L 572.165012 327.738299 
L 573.002326 293.033288 
L 573.83964 313.341436 
L 574.676954 348.159829 
L 575.514268 376.698225 
L 576.351582 394.571802 
L 577.188896 388.294846 
L 578.02621 391.74716 
L 578.863524 385.255138 
L 579.700838 347.200384 
L 580.538152 347.884434 
L 581.375466 356.563993 
L 582.21278 368.451505 
L 583.050094 375.102277 
L 583.887408 369.664743 
L 584.724722 361.834737 
L 585.562036 344.348256 
L 587.236664 365.414784 
L 588.073978 356.749843 
L 588.911292 349.615093 
L 589.748606 346.53201 
L 590.58592 323.148909 
L 591.423234 323.718913 
L 592.260548 342.662296 
L 593.097862 337.166504 
L 593.935176 336.523011 
L 594.77249 338.959469 
L 595.609804 359.678964 
L 596.447118 366.302065 
L 597.284432 370.615183 
L 598.121746 381.806609 
L 598.95906 386.487419 
L 599.796374 392.956996 
L 600.633688 388.933982 
L 601.471002 395.74729 
L 602.308316 397.530565 
L 603.14563 386.682696 
L 603.982944 390.641074 
L 604.820258 389.421379 
L 605.657572 385.711484 
L 606.494886 374.97153 
L 607.3322 356.65648 
L 608.169514 375.291749 
L 609.006828 362.953107 
L 609.844142 366.92794 
L 610.681456 351.308182 
L 611.51877 331.981342 
L 612.356084 307.969379 
L 613.193398 305.801232 
L 614.030712 314.290079 
L 614.868026 341.275964 
L 615.70534 300.431454 
L 616.542653 313.251879 
L 617.379967 344.882857 
L 618.217281 368.114657 
L 619.054595 342.997674 
L 619.891909 326.007426 
L 620.729223 318.288053 
L 621.566537 342.022902 
L 622.403851 318.614358 
L 623.241165 326.365238 
L 624.078479 312.357389 
L 624.915793 319.59306 
L 625.753107 320.191684 
L 626.590421 323.600937 
L 627.427735 345.473644 
L 628.265049 347.531461 
L 629.102363 338.780906 
L 630.776991 370.219116 
L 631.614305 367.396002 
L 632.451619 347.692273 
L 633.288933 336.866069 
L 634.126247 350.555147 
L 634.963561 367.320952 
L 635.800875 371.980485 
L 636.638189 373.705272 
L 637.475503 374.889642 
L 638.312817 384.120409 
L 639.150131 383.044178 
L 639.987445 393.597636 
L 640.824759 392.549241 
L 641.662073 385.54937 
L 642.499387 380.743066 
L 643.336701 378.186028 
L 644.174015 352.384132 
L 645.011329 360.940596 
L 645.848643 364.414176 
L 646.685957 373.859346 
L 647.523271 378.810837 
L 648.360585 400.801104 
L 649.197899 407.260137 
L 650.035213 392.087534 
L 650.872527 381.244375 
L 651.709841 378.563871 
L 652.547155 360.753297 
L 653.384469 351.676953 
L 654.221783 360.738723 
L 655.059097 330.071412 
L 655.896411 327.302193 
L 656.733725 347.889228 
L 657.571039 336.798991 
L 658.408353 341.286305 
L 659.245667 340.459353 
L 660.082981 342.80676 
L 660.920295 374.559272 
L 661.757609 374.361329 
L 662.594923 382.75884 
L 663.432237 381.367886 
L 664.269551 378.604927 
L 665.106865 378.118586 
L 665.944179 365.767172 
L 666.781493 345.313203 
L 667.618807 334.947358 
L 668.456121 309.992624 
L 669.293435 300.855614 
L 670.130749 310.325397 
L 670.968063 296.62344 
L 671.805377 339.985273 
L 672.642691 361.237965 
L 673.480005 347.066757 
L 674.317319 335.633631 
L 675.154633 317.053414 
L 675.991947 323.673618 
L 676.829261 356.033423 
L 677.666575 360.781177 
L 678.503889 375.750183 
L 679.341203 281.672776 
L 680.178517 349.780047 
L 681.015831 375.574921 
L 681.853145 354.355829 
L 682.690459 341.585437 
L 683.527773 351.552341 
L 684.365087 349.700349 
L 685.202401 339.699401 
L 686.039715 296.654071 
L 686.877029 326.357053 
L 687.714343 342.035478 
L 688.551657 353.696325 
L 689.388971 336.886201 
L 691.063599 310.62755 
L 691.900913 281.08365 
L 692.738227 284.934994 
L 693.575541 308.545928 
L 694.412855 308.456315 
L 695.250169 317.550838 
L 696.087483 299.724073 
L 696.924797 287.309786 
L 697.762111 313.582058 
L 698.599425 303.218784 
L 699.436739 322.148818 
L 700.274053 323.306779 
L 701.111367 335.475683 
L 701.948681 337.199088 
L 702.785995 331.662604 
L 703.623309 273.263324 
L 704.460623 263.87855 
L 705.297937 274.356239 
L 706.135251 275.002494 
L 706.972565 281.208756 
L 707.809879 281.243002 
L 708.647193 302.685284 
L 709.484507 277.848144 
L 710.321821 244.360503 
L 711.159135 284.831593 
L 711.996449 226.450188 
L 712.833763 298.683032 
L 713.671077 308.850922 
L 714.508391 306.425266 
L 715.345705 274.531266 
L 716.183019 219.45277 
L 717.020333 133.331793 
L 717.857647 211.664388 
L 718.694961 199.746515 
L 720.369589 254.076668 
L 721.206903 216.128302 
L 722.881531 243.309199 
L 723.718845 246.551342 
L 724.556159 247.635095 
L 725.393473 255.894324 
L 726.230787 256.32531 
L 727.068101 259.685507 
L 727.905415 269.064464 
L 729.580043 212.215584 
L 730.417357 272.275123 
L 731.254671 256.034745 
L 732.091984 161.378705 
L 732.929298 215.823207 
L 733.766612 296.533266 
L 734.603926 303.656754 
L 735.44124 304.805104 
L 736.278554 249.777271 
L 737.115868 266.774614 
L 737.953182 261.709067 
L 738.790496 314.725175 
L 739.62781 307.644376 
L 740.465124 305.180892 
L 741.302438 273.324203 
L 742.139752 275.128273 
L 742.977066 244.949785 
L 743.81438 282.199135 
L 744.651694 269.431876 
L 745.489008 236.498777 
L 746.326322 247.284593 
L 747.163636 235.137102 
L 747.163636 235.137102 
" style="fill:none;stroke:#ff0000;stroke-dasharray:5.55,2.4;stroke-dashoffset:0;stroke-width:1.5;"/>
   </g>
   <g id="patch_3">
    <path d="M 108 460.8 
L 108 69.12 
" style="fill:none;stroke:#000000;stroke-linecap:square;stroke-linejoin:miter;stroke-width:0.8;"/>
   </g>
   <g id="patch_4">
    <path d="M 777.6 460.8 
L 777.6 69.12 
" style="fill:none;stroke:#000000;stroke-linecap:square;stroke-linejoin:miter;stroke-width:0.8;"/>
   </g>
   <g id="patch_5">
    <path d="M 108 460.8 
L 777.6 460.8 
" style="fill:none;stroke:#000000;stroke-linecap:square;stroke-linejoin:miter;stroke-width:0.8;"/>
   </g>
   <g id="patch_6">
    <path d="M 108 69.12 
L 777.6 69.12 
" style="fill:none;stroke:#000000;stroke-linecap:square;stroke-linejoin:miter;stroke-width:0.8;"/>
   </g>
   <g id="text_18">
    <!-- Macau roadside 2020-2021 | Forecast vs Monitored | LSTM -->
    <g transform="translate(223.246875 63.12)scale(0.15 -0.15)">
     <defs>
      <path d="M 8.5 21.578125 
L 8.5 54.6875 
L 17.484375 54.6875 
L 17.484375 21.921875 
Q 17.484375 14.15625 20.5 10.265625 
Q 23.53125 6.390625 29.59375 6.390625 
Q 36.859375 6.390625 41.078125 11.03125 
Q 45.3125 15.671875 45.3125 23.6875 
L 45.3125 54.6875 
L 54.296875 54.6875 
L 54.296875 0 
L 45.3125 0 
L 45.3125 8.40625 
Q 42.046875 3.421875 37.71875 1 
Q 33.40625 -1.421875 27.6875 -1.421875 
Q 18.265625 -1.421875 13.375 4.4375 
Q 8.5 10.296875 8.5 21.578125 
z
M 31.109375 56 
z
" id="DejaVuSans-117"/>
      <path id="DejaVuSans-32"/>
      <path d="M 45.40625 46.390625 
L 45.40625 75.984375 
L 54.390625 75.984375 
L 54.390625 0 
L 45.40625 0 
L 45.40625 8.203125 
Q 42.578125 3.328125 38.25 0.953125 
Q 33.9375 -1.421875 27.875 -1.421875 
Q 17.96875 -1.421875 11.734375 6.484375 
Q 5.515625 14.40625 5.515625 27.296875 
Q 5.515625 40.1875 11.734375 48.09375 
Q 17.96875 56 27.875 56 
Q 33.9375 56 38.25 53.625 
Q 42.578125 51.265625 45.40625 46.390625 
z
M 14.796875 27.296875 
Q 14.796875 17.390625 18.875 11.75 
Q 22.953125 6.109375 30.078125 6.109375 
Q 37.203125 6.109375 41.296875 11.75 
Q 45.40625 17.390625 45.40625 27.296875 
Q 45.40625 37.203125 41.296875 42.84375 
Q 37.203125 48.484375 30.078125 48.484375 
Q 22.953125 48.484375 18.875 42.84375 
Q 14.796875 37.203125 14.796875 27.296875 
z
" id="DejaVuSans-100"/>
      <path d="M 44.28125 53.078125 
L 44.28125 44.578125 
Q 40.484375 46.53125 36.375 47.5 
Q 32.28125 48.484375 27.875 48.484375 
Q 21.1875 48.484375 17.84375 46.4375 
Q 14.5 44.390625 14.5 40.28125 
Q 14.5 37.15625 16.890625 35.375 
Q 19.28125 33.59375 26.515625 31.984375 
L 29.59375 31.296875 
Q 39.15625 29.25 43.1875 25.515625 
Q 47.21875 21.78125 47.21875 15.09375 
Q 47.21875 7.46875 41.1875 3.015625 
Q 35.15625 -1.421875 24.609375 -1.421875 
Q 20.21875 -1.421875 15.453125 -0.5625 
Q 10.6875 0.296875 5.421875 2 
L 5.421875 11.28125 
Q 10.40625 8.6875 15.234375 7.390625 
Q 20.0625 6.109375 24.8125 6.109375 
Q 31.15625 6.109375 34.5625 8.28125 
Q 37.984375 10.453125 37.984375 14.40625 
Q 37.984375 18.0625 35.515625 20.015625 
Q 33.0625 21.96875 24.703125 23.78125 
L 21.578125 24.515625 
Q 13.234375 26.265625 9.515625 29.90625 
Q 5.8125 33.546875 5.8125 39.890625 
Q 5.8125 47.609375 11.28125 51.796875 
Q 16.75 56 26.8125 56 
Q 31.78125 56 36.171875 55.265625 
Q 40.578125 54.546875 44.28125 53.078125 
z
" id="DejaVuSans-115"/>
      <path d="M 21 76.421875 
L 21 -23.578125 
L 12.703125 -23.578125 
L 12.703125 76.421875 
z
" id="DejaVuSans-124"/>
      <path d="M 9.8125 72.90625 
L 51.703125 72.90625 
L 51.703125 64.59375 
L 19.671875 64.59375 
L 19.671875 43.109375 
L 48.578125 43.109375 
L 48.578125 34.8125 
L 19.671875 34.8125 
L 19.671875 0 
L 9.8125 0 
z
" id="DejaVuSans-70"/>
      <path d="M 2.984375 54.6875 
L 12.5 54.6875 
L 29.59375 8.796875 
L 46.6875 54.6875 
L 56.203125 54.6875 
L 35.6875 0 
L 23.484375 0 
z
" id="DejaVuSans-118"/>
      <path d="M 54.890625 33.015625 
L 54.890625 0 
L 45.90625 0 
L 45.90625 32.71875 
Q 45.90625 40.484375 42.875 44.328125 
Q 39.84375 48.1875 33.796875 48.1875 
Q 26.515625 48.1875 22.3125 43.546875 
Q 18.109375 38.921875 18.109375 30.90625 
L 18.109375 0 
L 9.078125 0 
L 9.078125 54.6875 
L 18.109375 54.6875 
L 18.109375 46.1875 
Q 21.34375 51.125 25.703125 53.5625 
Q 30.078125 56 35.796875 56 
Q 45.21875 56 50.046875 50.171875 
Q 54.890625 44.34375 54.890625 33.015625 
z
" id="DejaVuSans-110"/>
      <path d="M 9.8125 72.90625 
L 19.671875 72.90625 
L 19.671875 8.296875 
L 55.171875 8.296875 
L 55.171875 0 
L 9.8125 0 
z
" id="DejaVuSans-76"/>
      <path d="M 53.515625 70.515625 
L 53.515625 60.890625 
Q 47.90625 63.578125 42.921875 64.890625 
Q 37.9375 66.21875 33.296875 66.21875 
Q 25.25 66.21875 20.875 63.09375 
Q 16.5 59.96875 16.5 54.203125 
Q 16.5 49.359375 19.40625 46.890625 
Q 22.3125 44.4375 30.421875 42.921875 
L 36.375 41.703125 
Q 47.40625 39.59375 52.65625 34.296875 
Q 57.90625 29 57.90625 20.125 
Q 57.90625 9.515625 50.796875 4.046875 
Q 43.703125 -1.421875 29.984375 -1.421875 
Q 24.8125 -1.421875 18.96875 -0.25 
Q 13.140625 0.921875 6.890625 3.21875 
L 6.890625 13.375 
Q 12.890625 10.015625 18.65625 8.296875 
Q 24.421875 6.59375 29.984375 6.59375 
Q 38.421875 6.59375 43.015625 9.90625 
Q 47.609375 13.234375 47.609375 19.390625 
Q 47.609375 24.75 44.3125 27.78125 
Q 41.015625 30.8125 33.5 32.328125 
L 27.484375 33.5 
Q 16.453125 35.6875 11.515625 40.375 
Q 6.59375 45.0625 6.59375 53.421875 
Q 6.59375 63.09375 13.40625 68.65625 
Q 20.21875 74.21875 32.171875 74.21875 
Q 37.3125 74.21875 42.625 73.28125 
Q 47.953125 72.359375 53.515625 70.515625 
z
" id="DejaVuSans-83"/>
      <path d="M -0.296875 72.90625 
L 61.375 72.90625 
L 61.375 64.59375 
L 35.5 64.59375 
L 35.5 0 
L 25.59375 0 
L 25.59375 64.59375 
L -0.296875 64.59375 
z
" id="DejaVuSans-84"/>
     </defs>
     <use xlink:href="#DejaVuSans-77"/>
     <use x="86.279297" xlink:href="#DejaVuSans-97"/>
     <use x="147.558594" xlink:href="#DejaVuSans-99"/>
     <use x="202.539062" xlink:href="#DejaVuSans-97"/>
     <use x="263.818359" xlink:href="#DejaVuSans-117"/>
     <use x="327.197266" xlink:href="#DejaVuSans-32"/>
     <use x="358.984375" xlink:href="#DejaVuSans-114"/>
     <use x="397.847656" xlink:href="#DejaVuSans-111"/>
     <use x="459.029297" xlink:href="#DejaVuSans-97"/>
     <use x="520.308594" xlink:href="#DejaVuSans-100"/>
     <use x="583.785156" xlink:href="#DejaVuSans-115"/>
     <use x="635.884766" xlink:href="#DejaVuSans-105"/>
     <use x="663.667969" xlink:href="#DejaVuSans-100"/>
     <use x="727.144531" xlink:href="#DejaVuSans-101"/>
     <use x="788.667969" xlink:href="#DejaVuSans-32"/>
     <use x="820.455078" xlink:href="#DejaVuSans-50"/>
     <use x="884.078125" xlink:href="#DejaVuSans-48"/>
     <use x="947.701172" xlink:href="#DejaVuSans-50"/>
     <use x="1011.324219" xlink:href="#DejaVuSans-48"/>
     <use x="1074.947266" xlink:href="#DejaVuSans-45"/>
     <use x="1111.03125" xlink:href="#DejaVuSans-50"/>
     <use x="1174.654297" xlink:href="#DejaVuSans-48"/>
     <use x="1238.277344" xlink:href="#DejaVuSans-50"/>
     <use x="1301.900391" xlink:href="#DejaVuSans-49"/>
     <use x="1365.523438" xlink:href="#DejaVuSans-32"/>
     <use x="1397.310547" xlink:href="#DejaVuSans-124"/>
     <use x="1431.001953" xlink:href="#DejaVuSans-32"/>
     <use x="1462.789062" xlink:href="#DejaVuSans-70"/>
     <use x="1516.683594" xlink:href="#DejaVuSans-111"/>
     <use x="1577.865234" xlink:href="#DejaVuSans-114"/>
     <use x="1616.728516" xlink:href="#DejaVuSans-101"/>
     <use x="1678.251953" xlink:href="#DejaVuSans-99"/>
     <use x="1733.232422" xlink:href="#DejaVuSans-97"/>
     <use x="1794.511719" xlink:href="#DejaVuSans-115"/>
     <use x="1846.611328" xlink:href="#DejaVuSans-116"/>
     <use x="1885.820312" xlink:href="#DejaVuSans-32"/>
     <use x="1917.607422" xlink:href="#DejaVuSans-118"/>
     <use x="1976.787109" xlink:href="#DejaVuSans-115"/>
     <use x="2028.886719" xlink:href="#DejaVuSans-32"/>
     <use x="2060.673828" xlink:href="#DejaVuSans-77"/>
     <use x="2146.953125" xlink:href="#DejaVuSans-111"/>
     <use x="2208.134766" xlink:href="#DejaVuSans-110"/>
     <use x="2271.513672" xlink:href="#DejaVuSans-105"/>
     <use x="2299.296875" xlink:href="#DejaVuSans-116"/>
     <use x="2338.505859" xlink:href="#DejaVuSans-111"/>
     <use x="2399.6875" xlink:href="#DejaVuSans-114"/>
     <use x="2438.550781" xlink:href="#DejaVuSans-101"/>
     <use x="2500.074219" xlink:href="#DejaVuSans-100"/>
     <use x="2563.550781" xlink:href="#DejaVuSans-32"/>
     <use x="2595.337891" xlink:href="#DejaVuSans-124"/>
     <use x="2629.029297" xlink:href="#DejaVuSans-32"/>
     <use x="2660.816406" xlink:href="#DejaVuSans-76"/>
     <use x="2716.529297" xlink:href="#DejaVuSans-83"/>
     <use x="2780.005859" xlink:href="#DejaVuSans-84"/>
     <use x="2841.089844" xlink:href="#DejaVuSans-77"/>
    </g>
   </g>
   <g id="legend_1">
    <g id="patch_7">
     <path d="M 116.4 114.615 
L 286.636875 114.615 
Q 289.036875 114.615 289.036875 112.215 
L 289.036875 77.52 
Q 289.036875 75.12 286.636875 75.12 
L 116.4 75.12 
Q 114 75.12 114 77.52 
L 114 112.215 
Q 114 114.615 116.4 114.615 
z
" style="fill:#ffffff;opacity:0.8;stroke:#cccccc;stroke-linejoin:miter;"/>
    </g>
    <g id="line2d_18">
     <path d="M 118.8 84.838125 
L 142.8 84.838125 
" style="fill:none;stroke:#1f77b4;stroke-linecap:square;stroke-width:1.5;"/>
    </g>
    <g id="line2d_19"/>
    <g id="text_19">
     <!-- measured_data_PM10 -->
     <g transform="translate(152.4 89.038125)scale(0.12 -0.12)">
      <defs>
       <path d="M 50.984375 -16.609375 
L 50.984375 -23.578125 
L -0.984375 -23.578125 
L -0.984375 -16.609375 
z
" id="DejaVuSans-95"/>
      </defs>
      <use xlink:href="#DejaVuSans-109"/>
      <use x="97.412109" xlink:href="#DejaVuSans-101"/>
      <use x="158.935547" xlink:href="#DejaVuSans-97"/>
      <use x="220.214844" xlink:href="#DejaVuSans-115"/>
      <use x="272.314453" xlink:href="#DejaVuSans-117"/>
      <use x="335.693359" xlink:href="#DejaVuSans-114"/>
      <use x="374.556641" xlink:href="#DejaVuSans-101"/>
      <use x="436.080078" xlink:href="#DejaVuSans-100"/>
      <use x="499.556641" xlink:href="#DejaVuSans-95"/>
      <use x="549.556641" xlink:href="#DejaVuSans-100"/>
      <use x="613.033203" xlink:href="#DejaVuSans-97"/>
      <use x="674.3125" xlink:href="#DejaVuSans-116"/>
      <use x="713.521484" xlink:href="#DejaVuSans-97"/>
      <use x="774.800781" xlink:href="#DejaVuSans-95"/>
      <use x="824.800781" xlink:href="#DejaVuSans-80"/>
      <use x="885.103516" xlink:href="#DejaVuSans-77"/>
      <use x="971.382812" xlink:href="#DejaVuSans-49"/>
      <use x="1035.005859" xlink:href="#DejaVuSans-48"/>
     </g>
    </g>
    <g id="line2d_20">
     <path d="M 118.8 102.785625 
L 142.8 102.785625 
" style="fill:none;stroke:#ff0000;stroke-dasharray:5.55,2.4;stroke-dashoffset:0;stroke-width:1.5;"/>
    </g>
    <g id="line2d_21"/>
    <g id="text_20">
     <!-- predicted_data_PM10 -->
     <g transform="translate(152.4 106.985625)scale(0.12 -0.12)">
      <defs>
       <path d="M 18.109375 8.203125 
L 18.109375 -20.796875 
L 9.078125 -20.796875 
L 9.078125 54.6875 
L 18.109375 54.6875 
L 18.109375 46.390625 
Q 20.953125 51.265625 25.265625 53.625 
Q 29.59375 56 35.59375 56 
Q 45.5625 56 51.78125 48.09375 
Q 58.015625 40.1875 58.015625 27.296875 
Q 58.015625 14.40625 51.78125 6.484375 
Q 45.5625 -1.421875 35.59375 -1.421875 
Q 29.59375 -1.421875 25.265625 0.953125 
Q 20.953125 3.328125 18.109375 8.203125 
z
M 48.6875 27.296875 
Q 48.6875 37.203125 44.609375 42.84375 
Q 40.53125 48.484375 33.40625 48.484375 
Q 26.265625 48.484375 22.1875 42.84375 
Q 18.109375 37.203125 18.109375 27.296875 
Q 18.109375 17.390625 22.1875 11.75 
Q 26.265625 6.109375 33.40625 6.109375 
Q 40.53125 6.109375 44.609375 11.75 
Q 48.6875 17.390625 48.6875 27.296875 
z
" id="DejaVuSans-112"/>
      </defs>
      <use xlink:href="#DejaVuSans-112"/>
      <use x="63.476562" xlink:href="#DejaVuSans-114"/>
      <use x="102.339844" xlink:href="#DejaVuSans-101"/>
      <use x="163.863281" xlink:href="#DejaVuSans-100"/>
      <use x="227.339844" xlink:href="#DejaVuSans-105"/>
      <use x="255.123047" xlink:href="#DejaVuSans-99"/>
      <use x="310.103516" xlink:href="#DejaVuSans-116"/>
      <use x="349.3125" xlink:href="#DejaVuSans-101"/>
      <use x="410.835938" xlink:href="#DejaVuSans-100"/>
      <use x="474.3125" xlink:href="#DejaVuSans-95"/>
      <use x="524.3125" xlink:href="#DejaVuSans-100"/>
      <use x="587.789062" xlink:href="#DejaVuSans-97"/>
      <use x="649.068359" xlink:href="#DejaVuSans-116"/>
      <use x="688.277344" xlink:href="#DejaVuSans-97"/>
      <use x="749.556641" xlink:href="#DejaVuSans-95"/>
      <use x="799.556641" xlink:href="#DejaVuSans-80"/>
      <use x="859.859375" xlink:href="#DejaVuSans-77"/>
      <use x="946.138672" xlink:href="#DejaVuSans-49"/>
      <use x="1009.761719" xlink:href="#DejaVuSans-48"/>
     </g>
    </g>
   </g>
  </g>
 </g>
 <defs>
  <clipPath id="p3d79495e9e">
   <rect height="391.68" width="669.6" x="108" y="69.12"/>
  </clipPath>
 </defs>
</svg>
