<?xml version="1.0" encoding="utf-8" standalone="no"?>
<!DOCTYPE svg PUBLIC "-//W3C//DTD SVG 1.1//EN"
  "http://www.w3.org/Graphics/SVG/1.1/DTD/svg11.dtd">
<!-- Created with matplotlib (https://matplotlib.org/) -->
<svg height="576pt" version="1.1" viewBox="0 0 864 576" width="864pt" xmlns="http://www.w3.org/2000/svg" xmlns:xlink="http://www.w3.org/1999/xlink">
 <metadata>
  <rdf:RDF xmlns:cc="http://creativecommons.org/ns#" xmlns:dc="http://purl.org/dc/elements/1.1/" xmlns:rdf="http://www.w3.org/1999/02/22-rdf-syntax-ns#">
   <cc:Work>
    <dc:type rdf:resource="http://purl.org/dc/dcmitype/StillImage"/>
    <dc:date>2024-03-08T17:02:02.814247</dc:date>
    <dc:format>image/svg+xml</dc:format>
    <dc:creator>
     <cc:Agent>
      <dc:title>Matplotlib v3.3.4, https://matplotlib.org/</dc:title>
     </cc:Agent>
    </dc:creator>
   </cc:Work>
  </rdf:RDF>
 </metadata>
 <defs>
  <style type="text/css">*{stroke-linecap:butt;stroke-linejoin:round;}</style>
 </defs>
 <g id="figure_1">
  <g id="patch_1">
   <path d="M 0 576 
L 864 576 
L 864 0 
L 0 0 
z
" style="fill:#ffffff;"/>
  </g>
  <g id="axes_1">
   <g id="patch_2">
    <path d="M 108 460.8 
L 777.6 460.8 
L 777.6 69.12 
L 108 69.12 
z
" style="fill:#ffffff;"/>
   </g>
   <g id="matplotlib.axis_1">
    <g id="xtick_1">
     <g id="line2d_1">
      <defs>
       <path d="M 0 0 
L 0 3.5 
" id="m951e3848e5" style="stroke:#000000;stroke-width:0.8;"/>
      </defs>
      <g>
       <use style="stroke:#000000;stroke-width:0.8;" x="138.436364" xlink:href="#m951e3848e5" y="460.8"/>
      </g>
     </g>
     <g id="text_1">
      <!-- 2020-01 -->
      <g transform="translate(93.766579 500.766215)rotate(-30)scale(0.12 -0.12)">
       <defs>
        <path d="M 19.1875 8.296875 
L 53.609375 8.296875 
L 53.609375 0 
L 7.328125 0 
L 7.328125 8.296875 
Q 12.9375 14.109375 22.625 23.890625 
Q 32.328125 33.6875 34.8125 36.53125 
Q 39.546875 41.84375 41.421875 45.53125 
Q 43.3125 49.21875 43.3125 52.78125 
Q 43.3125 58.59375 39.234375 62.25 
Q 35.15625 65.921875 28.609375 65.921875 
Q 23.96875 65.921875 18.8125 64.3125 
Q 13.671875 62.703125 7.8125 59.421875 
L 7.8125 69.390625 
Q 13.765625 71.78125 18.9375 73 
Q 24.125 74.21875 28.421875 74.21875 
Q 39.75 74.21875 46.484375 68.546875 
Q 53.21875 62.890625 53.21875 53.421875 
Q 53.21875 48.921875 51.53125 44.890625 
Q 49.859375 40.875 45.40625 35.40625 
Q 44.1875 33.984375 37.640625 27.21875 
Q 31.109375 20.453125 19.1875 8.296875 
z
" id="DejaVuSans-50"/>
        <path d="M 31.78125 66.40625 
Q 24.171875 66.40625 20.328125 58.90625 
Q 16.5 51.421875 16.5 36.375 
Q 16.5 21.390625 20.328125 13.890625 
Q 24.171875 6.390625 31.78125 6.390625 
Q 39.453125 6.390625 43.28125 13.890625 
Q 47.125 21.390625 47.125 36.375 
Q 47.125 51.421875 43.28125 58.90625 
Q 39.453125 66.40625 31.78125 66.40625 
z
M 31.78125 74.21875 
Q 44.046875 74.21875 50.515625 64.515625 
Q 56.984375 54.828125 56.984375 36.375 
Q 56.984375 17.96875 50.515625 8.265625 
Q 44.046875 -1.421875 31.78125 -1.421875 
Q 19.53125 -1.421875 13.0625 8.265625 
Q 6.59375 17.96875 6.59375 36.375 
Q 6.59375 54.828125 13.0625 64.515625 
Q 19.53125 74.21875 31.78125 74.21875 
z
" id="DejaVuSans-48"/>
        <path d="M 4.890625 31.390625 
L 31.203125 31.390625 
L 31.203125 23.390625 
L 4.890625 23.390625 
z
" id="DejaVuSans-45"/>
        <path d="M 12.40625 8.296875 
L 28.515625 8.296875 
L 28.515625 63.921875 
L 10.984375 60.40625 
L 10.984375 69.390625 
L 28.421875 72.90625 
L 38.28125 72.90625 
L 38.28125 8.296875 
L 54.390625 8.296875 
L 54.390625 0 
L 12.40625 0 
z
" id="DejaVuSans-49"/>
       </defs>
       <use xlink:href="#DejaVuSans-50"/>
       <use x="63.623047" xlink:href="#DejaVuSans-48"/>
       <use x="127.246094" xlink:href="#DejaVuSans-50"/>
       <use x="190.869141" xlink:href="#DejaVuSans-48"/>
       <use x="254.492188" xlink:href="#DejaVuSans-45"/>
       <use x="290.576172" xlink:href="#DejaVuSans-48"/>
       <use x="354.199219" xlink:href="#DejaVuSans-49"/>
      </g>
     </g>
    </g>
    <g id="xtick_2">
     <g id="line2d_2">
      <g>
       <use style="stroke:#000000;stroke-width:0.8;" x="214.318804" xlink:href="#m951e3848e5" y="460.8"/>
      </g>
     </g>
     <g id="text_2">
      <!-- 2020-04 -->
      <g transform="translate(169.64902 500.766215)rotate(-30)scale(0.12 -0.12)">
       <defs>
        <path d="M 37.796875 64.3125 
L 12.890625 25.390625 
L 37.796875 25.390625 
z
M 35.203125 72.90625 
L 47.609375 72.90625 
L 47.609375 25.390625 
L 58.015625 25.390625 
L 58.015625 17.1875 
L 47.609375 17.1875 
L 47.609375 0 
L 37.796875 0 
L 37.796875 17.1875 
L 4.890625 17.1875 
L 4.890625 26.703125 
z
" id="DejaVuSans-52"/>
       </defs>
       <use xlink:href="#DejaVuSans-50"/>
       <use x="63.623047" xlink:href="#DejaVuSans-48"/>
       <use x="127.246094" xlink:href="#DejaVuSans-50"/>
       <use x="190.869141" xlink:href="#DejaVuSans-48"/>
       <use x="254.492188" xlink:href="#DejaVuSans-45"/>
       <use x="290.576172" xlink:href="#DejaVuSans-48"/>
       <use x="354.199219" xlink:href="#DejaVuSans-52"/>
      </g>
     </g>
    </g>
    <g id="xtick_3">
     <g id="line2d_3">
      <g>
       <use style="stroke:#000000;stroke-width:0.8;" x="290.201245" xlink:href="#m951e3848e5" y="460.8"/>
      </g>
     </g>
     <g id="text_3">
      <!-- 2020-07 -->
      <g transform="translate(245.53146 500.766215)rotate(-30)scale(0.12 -0.12)">
       <defs>
        <path d="M 8.203125 72.90625 
L 55.078125 72.90625 
L 55.078125 68.703125 
L 28.609375 0 
L 18.3125 0 
L 43.21875 64.59375 
L 8.203125 64.59375 
z
" id="DejaVuSans-55"/>
       </defs>
       <use xlink:href="#DejaVuSans-50"/>
       <use x="63.623047" xlink:href="#DejaVuSans-48"/>
       <use x="127.246094" xlink:href="#DejaVuSans-50"/>
       <use x="190.869141" xlink:href="#DejaVuSans-48"/>
       <use x="254.492188" xlink:href="#DejaVuSans-45"/>
       <use x="290.576172" xlink:href="#DejaVuSans-48"/>
       <use x="354.199219" xlink:href="#DejaVuSans-55"/>
      </g>
     </g>
    </g>
    <g id="xtick_4">
     <g id="line2d_4">
      <g>
       <use style="stroke:#000000;stroke-width:0.8;" x="366.917559" xlink:href="#m951e3848e5" y="460.8"/>
      </g>
     </g>
     <g id="text_4">
      <!-- 2020-10 -->
      <g transform="translate(322.247774 500.766215)rotate(-30)scale(0.12 -0.12)">
       <use xlink:href="#DejaVuSans-50"/>
       <use x="63.623047" xlink:href="#DejaVuSans-48"/>
       <use x="127.246094" xlink:href="#DejaVuSans-50"/>
       <use x="190.869141" xlink:href="#DejaVuSans-48"/>
       <use x="254.492188" xlink:href="#DejaVuSans-45"/>
       <use x="290.576172" xlink:href="#DejaVuSans-49"/>
       <use x="354.199219" xlink:href="#DejaVuSans-48"/>
      </g>
     </g>
    </g>
    <g id="xtick_5">
     <g id="line2d_5">
      <g>
       <use style="stroke:#000000;stroke-width:0.8;" x="443.633873" xlink:href="#m951e3848e5" y="460.8"/>
      </g>
     </g>
     <g id="text_5">
      <!-- 2021-01 -->
      <g transform="translate(398.964088 500.766215)rotate(-30)scale(0.12 -0.12)">
       <use xlink:href="#DejaVuSans-50"/>
       <use x="63.623047" xlink:href="#DejaVuSans-48"/>
       <use x="127.246094" xlink:href="#DejaVuSans-50"/>
       <use x="190.869141" xlink:href="#DejaVuSans-49"/>
       <use x="254.492188" xlink:href="#DejaVuSans-45"/>
       <use x="290.576172" xlink:href="#DejaVuSans-48"/>
       <use x="354.199219" xlink:href="#DejaVuSans-49"/>
      </g>
     </g>
    </g>
    <g id="xtick_6">
     <g id="line2d_6">
      <g>
       <use style="stroke:#000000;stroke-width:0.8;" x="518.682441" xlink:href="#m951e3848e5" y="460.8"/>
      </g>
     </g>
     <g id="text_6">
      <!-- 2021-04 -->
      <g transform="translate(474.012656 500.766215)rotate(-30)scale(0.12 -0.12)">
       <use xlink:href="#DejaVuSans-50"/>
       <use x="63.623047" xlink:href="#DejaVuSans-48"/>
       <use x="127.246094" xlink:href="#DejaVuSans-50"/>
       <use x="190.869141" xlink:href="#DejaVuSans-49"/>
       <use x="254.492188" xlink:href="#DejaVuSans-45"/>
       <use x="290.576172" xlink:href="#DejaVuSans-48"/>
       <use x="354.199219" xlink:href="#DejaVuSans-52"/>
      </g>
     </g>
    </g>
    <g id="xtick_7">
     <g id="line2d_7">
      <g>
       <use style="stroke:#000000;stroke-width:0.8;" x="594.564882" xlink:href="#m951e3848e5" y="460.8"/>
      </g>
     </g>
     <g id="text_7">
      <!-- 2021-07 -->
      <g transform="translate(549.895097 500.766215)rotate(-30)scale(0.12 -0.12)">
       <use xlink:href="#DejaVuSans-50"/>
       <use x="63.623047" xlink:href="#DejaVuSans-48"/>
       <use x="127.246094" xlink:href="#DejaVuSans-50"/>
       <use x="190.869141" xlink:href="#DejaVuSans-49"/>
       <use x="254.492188" xlink:href="#DejaVuSans-45"/>
       <use x="290.576172" xlink:href="#DejaVuSans-48"/>
       <use x="354.199219" xlink:href="#DejaVuSans-55"/>
      </g>
     </g>
    </g>
    <g id="xtick_8">
     <g id="line2d_8">
      <g>
       <use style="stroke:#000000;stroke-width:0.8;" x="671.281196" xlink:href="#m951e3848e5" y="460.8"/>
      </g>
     </g>
     <g id="text_8">
      <!-- 2021-10 -->
      <g transform="translate(626.611411 500.766215)rotate(-30)scale(0.12 -0.12)">
       <use xlink:href="#DejaVuSans-50"/>
       <use x="63.623047" xlink:href="#DejaVuSans-48"/>
       <use x="127.246094" xlink:href="#DejaVuSans-50"/>
       <use x="190.869141" xlink:href="#DejaVuSans-49"/>
       <use x="254.492188" xlink:href="#DejaVuSans-45"/>
       <use x="290.576172" xlink:href="#DejaVuSans-49"/>
       <use x="354.199219" xlink:href="#DejaVuSans-48"/>
      </g>
     </g>
    </g>
    <g id="xtick_9">
     <g id="line2d_9">
      <g>
       <use style="stroke:#000000;stroke-width:0.8;" x="747.997509" xlink:href="#m951e3848e5" y="460.8"/>
      </g>
     </g>
     <g id="text_9">
      <!-- 2022-01 -->
      <g transform="translate(703.327724 500.766215)rotate(-30)scale(0.12 -0.12)">
       <use xlink:href="#DejaVuSans-50"/>
       <use x="63.623047" xlink:href="#DejaVuSans-48"/>
       <use x="127.246094" xlink:href="#DejaVuSans-50"/>
       <use x="190.869141" xlink:href="#DejaVuSans-50"/>
       <use x="254.492188" xlink:href="#DejaVuSans-45"/>
       <use x="290.576172" xlink:href="#DejaVuSans-48"/>
       <use x="354.199219" xlink:href="#DejaVuSans-49"/>
      </g>
     </g>
    </g>
    <g id="text_10">
     <!-- Date -->
     <g transform="translate(424.873828 518.325146)scale(0.15 -0.15)">
      <defs>
       <path d="M 19.671875 64.796875 
L 19.671875 8.109375 
L 31.59375 8.109375 
Q 46.6875 8.109375 53.6875 14.9375 
Q 60.6875 21.78125 60.6875 36.53125 
Q 60.6875 51.171875 53.6875 57.984375 
Q 46.6875 64.796875 31.59375 64.796875 
z
M 9.8125 72.90625 
L 30.078125 72.90625 
Q 51.265625 72.90625 61.171875 64.09375 
Q 71.09375 55.28125 71.09375 36.53125 
Q 71.09375 17.671875 61.125 8.828125 
Q 51.171875 0 30.078125 0 
L 9.8125 0 
z
" id="DejaVuSans-68"/>
       <path d="M 34.28125 27.484375 
Q 23.390625 27.484375 19.1875 25 
Q 14.984375 22.515625 14.984375 16.5 
Q 14.984375 11.71875 18.140625 8.90625 
Q 21.296875 6.109375 26.703125 6.109375 
Q 34.1875 6.109375 38.703125 11.40625 
Q 43.21875 16.703125 43.21875 25.484375 
L 43.21875 27.484375 
z
M 52.203125 31.203125 
L 52.203125 0 
L 43.21875 0 
L 43.21875 8.296875 
Q 40.140625 3.328125 35.546875 0.953125 
Q 30.953125 -1.421875 24.3125 -1.421875 
Q 15.921875 -1.421875 10.953125 3.296875 
Q 6 8.015625 6 15.921875 
Q 6 25.140625 12.171875 29.828125 
Q 18.359375 34.515625 30.609375 34.515625 
L 43.21875 34.515625 
L 43.21875 35.40625 
Q 43.21875 41.609375 39.140625 45 
Q 35.0625 48.390625 27.6875 48.390625 
Q 23 48.390625 18.546875 47.265625 
Q 14.109375 46.140625 10.015625 43.890625 
L 10.015625 52.203125 
Q 14.9375 54.109375 19.578125 55.046875 
Q 24.21875 56 28.609375 56 
Q 40.484375 56 46.34375 49.84375 
Q 52.203125 43.703125 52.203125 31.203125 
z
" id="DejaVuSans-97"/>
       <path d="M 18.3125 70.21875 
L 18.3125 54.6875 
L 36.8125 54.6875 
L 36.8125 47.703125 
L 18.3125 47.703125 
L 18.3125 18.015625 
Q 18.3125 11.328125 20.140625 9.421875 
Q 21.96875 7.515625 27.59375 7.515625 
L 36.8125 7.515625 
L 36.8125 0 
L 27.59375 0 
Q 17.1875 0 13.234375 3.875 
Q 9.28125 7.765625 9.28125 18.015625 
L 9.28125 47.703125 
L 2.6875 47.703125 
L 2.6875 54.6875 
L 9.28125 54.6875 
L 9.28125 70.21875 
z
" id="DejaVuSans-116"/>
       <path d="M 56.203125 29.59375 
L 56.203125 25.203125 
L 14.890625 25.203125 
Q 15.484375 15.921875 20.484375 11.0625 
Q 25.484375 6.203125 34.421875 6.203125 
Q 39.59375 6.203125 44.453125 7.46875 
Q 49.3125 8.734375 54.109375 11.28125 
L 54.109375 2.78125 
Q 49.265625 0.734375 44.1875 -0.34375 
Q 39.109375 -1.421875 33.890625 -1.421875 
Q 20.796875 -1.421875 13.15625 6.1875 
Q 5.515625 13.8125 5.515625 26.8125 
Q 5.515625 40.234375 12.765625 48.109375 
Q 20.015625 56 32.328125 56 
Q 43.359375 56 49.78125 48.890625 
Q 56.203125 41.796875 56.203125 29.59375 
z
M 47.21875 32.234375 
Q 47.125 39.59375 43.09375 43.984375 
Q 39.0625 48.390625 32.421875 48.390625 
Q 24.90625 48.390625 20.390625 44.140625 
Q 15.875 39.890625 15.1875 32.171875 
z
" id="DejaVuSans-101"/>
      </defs>
      <use xlink:href="#DejaVuSans-68"/>
      <use x="77.001953" xlink:href="#DejaVuSans-97"/>
      <use x="138.28125" xlink:href="#DejaVuSans-116"/>
      <use x="177.490234" xlink:href="#DejaVuSans-101"/>
     </g>
    </g>
   </g>
   <g id="matplotlib.axis_2">
    <g id="ytick_1">
     <g id="line2d_10">
      <defs>
       <path d="M 0 0 
L -3.5 0 
" id="ma7d72890d0" style="stroke:#000000;stroke-width:0.8;"/>
      </defs>
      <g>
       <use style="stroke:#000000;stroke-width:0.8;" x="108" xlink:href="#ma7d72890d0" y="390.646675"/>
      </g>
     </g>
     <g id="text_11">
      <!-- −50 -->
      <g transform="translate(75.674375 395.205738)scale(0.12 -0.12)">
       <defs>
        <path d="M 10.59375 35.5 
L 73.1875 35.5 
L 73.1875 27.203125 
L 10.59375 27.203125 
z
" id="DejaVuSans-8722"/>
        <path d="M 10.796875 72.90625 
L 49.515625 72.90625 
L 49.515625 64.59375 
L 19.828125 64.59375 
L 19.828125 46.734375 
Q 21.96875 47.46875 24.109375 47.828125 
Q 26.265625 48.1875 28.421875 48.1875 
Q 40.625 48.1875 47.75 41.5 
Q 54.890625 34.8125 54.890625 23.390625 
Q 54.890625 11.625 47.5625 5.09375 
Q 40.234375 -1.421875 26.90625 -1.421875 
Q 22.3125 -1.421875 17.546875 -0.640625 
Q 12.796875 0.140625 7.71875 1.703125 
L 7.71875 11.625 
Q 12.109375 9.234375 16.796875 8.0625 
Q 21.484375 6.890625 26.703125 6.890625 
Q 35.15625 6.890625 40.078125 11.328125 
Q 45.015625 15.765625 45.015625 23.390625 
Q 45.015625 31 40.078125 35.4375 
Q 35.15625 39.890625 26.703125 39.890625 
Q 22.75 39.890625 18.8125 39.015625 
Q 14.890625 38.140625 10.796875 36.28125 
z
" id="DejaVuSans-53"/>
       </defs>
       <use xlink:href="#DejaVuSans-8722"/>
       <use x="83.789062" xlink:href="#DejaVuSans-53"/>
       <use x="147.412109" xlink:href="#DejaVuSans-48"/>
      </g>
     </g>
    </g>
    <g id="ytick_2">
     <g id="line2d_11">
      <g>
       <use style="stroke:#000000;stroke-width:0.8;" x="108" xlink:href="#ma7d72890d0" y="306.148767"/>
      </g>
     </g>
     <g id="text_12">
      <!-- 0 -->
      <g transform="translate(93.365 310.707829)scale(0.12 -0.12)">
       <use xlink:href="#DejaVuSans-48"/>
      </g>
     </g>
    </g>
    <g id="ytick_3">
     <g id="line2d_12">
      <g>
       <use style="stroke:#000000;stroke-width:0.8;" x="108" xlink:href="#ma7d72890d0" y="221.650858"/>
      </g>
     </g>
     <g id="text_13">
      <!-- 50 -->
      <g transform="translate(85.73 226.20992)scale(0.12 -0.12)">
       <use xlink:href="#DejaVuSans-53"/>
       <use x="63.623047" xlink:href="#DejaVuSans-48"/>
      </g>
     </g>
    </g>
    <g id="ytick_4">
     <g id="line2d_13">
      <g>
       <use style="stroke:#000000;stroke-width:0.8;" x="108" xlink:href="#ma7d72890d0" y="137.152949"/>
      </g>
     </g>
     <g id="text_14">
      <!-- 100 -->
      <g transform="translate(78.095 141.712011)scale(0.12 -0.12)">
       <use xlink:href="#DejaVuSans-49"/>
       <use x="63.623047" xlink:href="#DejaVuSans-48"/>
       <use x="127.246094" xlink:href="#DejaVuSans-48"/>
      </g>
     </g>
    </g>
    <g id="text_15">
     <!-- PM10(micro-gram/m3) -->
     <g transform="translate(68.554844 349.562344)rotate(-90)scale(0.15 -0.15)">
      <defs>
       <path d="M 19.671875 64.796875 
L 19.671875 37.40625 
L 32.078125 37.40625 
Q 38.96875 37.40625 42.71875 40.96875 
Q 46.484375 44.53125 46.484375 51.125 
Q 46.484375 57.671875 42.71875 61.234375 
Q 38.96875 64.796875 32.078125 64.796875 
z
M 9.8125 72.90625 
L 32.078125 72.90625 
Q 44.34375 72.90625 50.609375 67.359375 
Q 56.890625 61.8125 56.890625 51.125 
Q 56.890625 40.328125 50.609375 34.8125 
Q 44.34375 29.296875 32.078125 29.296875 
L 19.671875 29.296875 
L 19.671875 0 
L 9.8125 0 
z
" id="DejaVuSans-80"/>
       <path d="M 9.8125 72.90625 
L 24.515625 72.90625 
L 43.109375 23.296875 
L 61.8125 72.90625 
L 76.515625 72.90625 
L 76.515625 0 
L 66.890625 0 
L 66.890625 64.015625 
L 48.09375 14.015625 
L 38.1875 14.015625 
L 19.390625 64.015625 
L 19.390625 0 
L 9.8125 0 
z
" id="DejaVuSans-77"/>
       <path d="M 31 75.875 
Q 24.46875 64.65625 21.28125 53.65625 
Q 18.109375 42.671875 18.109375 31.390625 
Q 18.109375 20.125 21.3125 9.0625 
Q 24.515625 -2 31 -13.1875 
L 23.1875 -13.1875 
Q 15.875 -1.703125 12.234375 9.375 
Q 8.59375 20.453125 8.59375 31.390625 
Q 8.59375 42.28125 12.203125 53.3125 
Q 15.828125 64.359375 23.1875 75.875 
z
" id="DejaVuSans-40"/>
       <path d="M 52 44.1875 
Q 55.375 50.25 60.0625 53.125 
Q 64.75 56 71.09375 56 
Q 79.640625 56 84.28125 50.015625 
Q 88.921875 44.046875 88.921875 33.015625 
L 88.921875 0 
L 79.890625 0 
L 79.890625 32.71875 
Q 79.890625 40.578125 77.09375 44.375 
Q 74.3125 48.1875 68.609375 48.1875 
Q 61.625 48.1875 57.5625 43.546875 
Q 53.515625 38.921875 53.515625 30.90625 
L 53.515625 0 
L 44.484375 0 
L 44.484375 32.71875 
Q 44.484375 40.625 41.703125 44.40625 
Q 38.921875 48.1875 33.109375 48.1875 
Q 26.21875 48.1875 22.15625 43.53125 
Q 18.109375 38.875 18.109375 30.90625 
L 18.109375 0 
L 9.078125 0 
L 9.078125 54.6875 
L 18.109375 54.6875 
L 18.109375 46.1875 
Q 21.1875 51.21875 25.484375 53.609375 
Q 29.78125 56 35.6875 56 
Q 41.65625 56 45.828125 52.96875 
Q 50 49.953125 52 44.1875 
z
" id="DejaVuSans-109"/>
       <path d="M 9.421875 54.6875 
L 18.40625 54.6875 
L 18.40625 0 
L 9.421875 0 
z
M 9.421875 75.984375 
L 18.40625 75.984375 
L 18.40625 64.59375 
L 9.421875 64.59375 
z
" id="DejaVuSans-105"/>
       <path d="M 48.78125 52.59375 
L 48.78125 44.1875 
Q 44.96875 46.296875 41.140625 47.34375 
Q 37.3125 48.390625 33.40625 48.390625 
Q 24.65625 48.390625 19.8125 42.84375 
Q 14.984375 37.3125 14.984375 27.296875 
Q 14.984375 17.28125 19.8125 11.734375 
Q 24.65625 6.203125 33.40625 6.203125 
Q 37.3125 6.203125 41.140625 7.25 
Q 44.96875 8.296875 48.78125 10.40625 
L 48.78125 2.09375 
Q 45.015625 0.34375 40.984375 -0.53125 
Q 36.96875 -1.421875 32.421875 -1.421875 
Q 20.0625 -1.421875 12.78125 6.34375 
Q 5.515625 14.109375 5.515625 27.296875 
Q 5.515625 40.671875 12.859375 48.328125 
Q 20.21875 56 33.015625 56 
Q 37.15625 56 41.109375 55.140625 
Q 45.0625 54.296875 48.78125 52.59375 
z
" id="DejaVuSans-99"/>
       <path d="M 41.109375 46.296875 
Q 39.59375 47.171875 37.8125 47.578125 
Q 36.03125 48 33.890625 48 
Q 26.265625 48 22.1875 43.046875 
Q 18.109375 38.09375 18.109375 28.8125 
L 18.109375 0 
L 9.078125 0 
L 9.078125 54.6875 
L 18.109375 54.6875 
L 18.109375 46.1875 
Q 20.953125 51.171875 25.484375 53.578125 
Q 30.03125 56 36.53125 56 
Q 37.453125 56 38.578125 55.875 
Q 39.703125 55.765625 41.0625 55.515625 
z
" id="DejaVuSans-114"/>
       <path d="M 30.609375 48.390625 
Q 23.390625 48.390625 19.1875 42.75 
Q 14.984375 37.109375 14.984375 27.296875 
Q 14.984375 17.484375 19.15625 11.84375 
Q 23.34375 6.203125 30.609375 6.203125 
Q 37.796875 6.203125 41.984375 11.859375 
Q 46.1875 17.53125 46.1875 27.296875 
Q 46.1875 37.015625 41.984375 42.703125 
Q 37.796875 48.390625 30.609375 48.390625 
z
M 30.609375 56 
Q 42.328125 56 49.015625 48.375 
Q 55.71875 40.765625 55.71875 27.296875 
Q 55.71875 13.875 49.015625 6.21875 
Q 42.328125 -1.421875 30.609375 -1.421875 
Q 18.84375 -1.421875 12.171875 6.21875 
Q 5.515625 13.875 5.515625 27.296875 
Q 5.515625 40.765625 12.171875 48.375 
Q 18.84375 56 30.609375 56 
z
" id="DejaVuSans-111"/>
       <path d="M 45.40625 27.984375 
Q 45.40625 37.75 41.375 43.109375 
Q 37.359375 48.484375 30.078125 48.484375 
Q 22.859375 48.484375 18.828125 43.109375 
Q 14.796875 37.75 14.796875 27.984375 
Q 14.796875 18.265625 18.828125 12.890625 
Q 22.859375 7.515625 30.078125 7.515625 
Q 37.359375 7.515625 41.375 12.890625 
Q 45.40625 18.265625 45.40625 27.984375 
z
M 54.390625 6.78125 
Q 54.390625 -7.171875 48.1875 -13.984375 
Q 42 -20.796875 29.203125 -20.796875 
Q 24.46875 -20.796875 20.265625 -20.09375 
Q 16.0625 -19.390625 12.109375 -17.921875 
L 12.109375 -9.1875 
Q 16.0625 -11.328125 19.921875 -12.34375 
Q 23.78125 -13.375 27.78125 -13.375 
Q 36.625 -13.375 41.015625 -8.765625 
Q 45.40625 -4.15625 45.40625 5.171875 
L 45.40625 9.625 
Q 42.625 4.78125 38.28125 2.390625 
Q 33.9375 0 27.875 0 
Q 17.828125 0 11.671875 7.65625 
Q 5.515625 15.328125 5.515625 27.984375 
Q 5.515625 40.671875 11.671875 48.328125 
Q 17.828125 56 27.875 56 
Q 33.9375 56 38.28125 53.609375 
Q 42.625 51.21875 45.40625 46.390625 
L 45.40625 54.6875 
L 54.390625 54.6875 
z
" id="DejaVuSans-103"/>
       <path d="M 25.390625 72.90625 
L 33.6875 72.90625 
L 8.296875 -9.28125 
L 0 -9.28125 
z
" id="DejaVuSans-47"/>
       <path d="M 40.578125 39.3125 
Q 47.65625 37.796875 51.625 33 
Q 55.609375 28.21875 55.609375 21.1875 
Q 55.609375 10.40625 48.1875 4.484375 
Q 40.765625 -1.421875 27.09375 -1.421875 
Q 22.515625 -1.421875 17.65625 -0.515625 
Q 12.796875 0.390625 7.625 2.203125 
L 7.625 11.71875 
Q 11.71875 9.328125 16.59375 8.109375 
Q 21.484375 6.890625 26.8125 6.890625 
Q 36.078125 6.890625 40.9375 10.546875 
Q 45.796875 14.203125 45.796875 21.1875 
Q 45.796875 27.640625 41.28125 31.265625 
Q 36.765625 34.90625 28.71875 34.90625 
L 20.21875 34.90625 
L 20.21875 43.015625 
L 29.109375 43.015625 
Q 36.375 43.015625 40.234375 45.921875 
Q 44.09375 48.828125 44.09375 54.296875 
Q 44.09375 59.90625 40.109375 62.90625 
Q 36.140625 65.921875 28.71875 65.921875 
Q 24.65625 65.921875 20.015625 65.03125 
Q 15.375 64.15625 9.8125 62.3125 
L 9.8125 71.09375 
Q 15.4375 72.65625 20.34375 73.4375 
Q 25.25 74.21875 29.59375 74.21875 
Q 40.828125 74.21875 47.359375 69.109375 
Q 53.90625 64.015625 53.90625 55.328125 
Q 53.90625 49.265625 50.4375 45.09375 
Q 46.96875 40.921875 40.578125 39.3125 
z
" id="DejaVuSans-51"/>
       <path d="M 8.015625 75.875 
L 15.828125 75.875 
Q 23.140625 64.359375 26.78125 53.3125 
Q 30.421875 42.28125 30.421875 31.390625 
Q 30.421875 20.453125 26.78125 9.375 
Q 23.140625 -1.703125 15.828125 -13.1875 
L 8.015625 -13.1875 
Q 14.5 -2 17.703125 9.0625 
Q 20.90625 20.125 20.90625 31.390625 
Q 20.90625 42.671875 17.703125 53.65625 
Q 14.5 64.65625 8.015625 75.875 
z
" id="DejaVuSans-41"/>
      </defs>
      <use xlink:href="#DejaVuSans-80"/>
      <use x="60.302734" xlink:href="#DejaVuSans-77"/>
      <use x="146.582031" xlink:href="#DejaVuSans-49"/>
      <use x="210.205078" xlink:href="#DejaVuSans-48"/>
      <use x="273.828125" xlink:href="#DejaVuSans-40"/>
      <use x="312.841797" xlink:href="#DejaVuSans-109"/>
      <use x="410.253906" xlink:href="#DejaVuSans-105"/>
      <use x="438.037109" xlink:href="#DejaVuSans-99"/>
      <use x="493.017578" xlink:href="#DejaVuSans-114"/>
      <use x="531.880859" xlink:href="#DejaVuSans-111"/>
      <use x="594.9375" xlink:href="#DejaVuSans-45"/>
      <use x="631.021484" xlink:href="#DejaVuSans-103"/>
      <use x="694.498047" xlink:href="#DejaVuSans-114"/>
      <use x="735.611328" xlink:href="#DejaVuSans-97"/>
      <use x="796.890625" xlink:href="#DejaVuSans-109"/>
      <use x="894.302734" xlink:href="#DejaVuSans-47"/>
      <use x="927.994141" xlink:href="#DejaVuSans-109"/>
      <use x="1025.40625" xlink:href="#DejaVuSans-51"/>
      <use x="1089.029297" xlink:href="#DejaVuSans-41"/>
     </g>
    </g>
   </g>
   <g id="line2d_14">
    <path clip-path="url(#p72dec5f138)" d="M 138.436364 228.69235 
L 139.270237 216.504167 
L 140.10411 206.722894 
L 140.937983 204.469616 
L 141.771856 240.592472 
L 142.605729 240.451642 
L 143.439601 217.355547 
L 144.273474 206.582064 
L 145.107347 220.031314 
L 145.94122 220.242559 
L 146.775093 195.808581 
L 147.608966 216.510568 
L 148.442839 204.892106 
L 149.276712 224.467455 
L 150.110585 211.664741 
L 150.944458 211.088619 
L 151.778331 225.875753 
L 152.612204 229.326084 
L 153.446077 203.202148 
L 154.27995 233.339735 
L 155.113823 210.5253 
L 156.781569 230.030234 
L 157.615442 243.620314 
L 158.449315 252.844669 
L 159.283188 274.321221 
L 160.117061 278.264457 
L 160.950934 271.645454 
L 161.784807 255.590851 
L 162.61868 247.211475 
L 163.452553 240.163581 
L 164.286426 237.423801 
L 165.120299 228.97401 
L 165.954172 229.396499 
L 166.788045 261.0128 
L 167.621918 261.842472 
L 168.455791 245.099027 
L 169.289664 231.297702 
L 170.123537 277.278648 
L 170.95741 265.026451 
L 171.791283 249.042263 
L 172.625156 236.297162 
L 173.459029 217.496377 
L 174.292902 259.534087 
L 175.126775 261.787364 
L 175.960648 249.535168 
L 176.794521 287.066322 
L 177.628394 258.548278 
L 178.462267 263.605906 
L 179.296139 245.944007 
L 180.963885 249.042263 
L 181.797758 219.045506 
L 182.631631 230.030234 
L 183.465504 212.496918 
L 184.299377 218.904676 
L 185.13325 232.712402 
L 185.967123 248.619774 
L 186.800996 239.274707 
L 187.634869 243.409069 
L 188.468742 233.621395 
L 189.302615 235.905288 
L 190.136488 240.522057 
L 190.970361 261.979405 
L 191.804234 269.533006 
L 192.638107 245.028613 
L 193.47198 201.019285 
L 194.305853 243.620314 
L 195.139726 245.662347 
L 195.973599 244.958198 
L 196.807472 242.98658 
L 197.641345 186.79547 
L 198.475218 172.92373 
L 199.309091 247.00023 
L 200.142964 205.877915 
L 200.976837 198.413933 
L 201.81071 193.92018 
L 202.644583 209.328246 
L 203.478456 238.902514 
L 204.312329 193.414473 
L 205.146202 204.117542 
L 205.980075 228.058616 
L 206.813948 243.479484 
L 207.647821 229.953696 
L 208.481694 233.26932 
L 209.315567 232.98766 
L 210.14944 245.732762 
L 210.983313 238.902514 
L 211.817186 250.591392 
L 212.651059 242.56409 
L 213.484932 244.676538 
L 214.318804 228.621935 
L 215.152677 222.707082 
L 215.98655 249.253508 
L 216.820423 256.787905 
L 217.654296 270.659645 
L 218.488169 266.29392 
L 220.155915 223.481646 
L 220.989788 238.057535 
L 221.823661 226.368658 
L 222.657534 196.019825 
L 223.491407 257.351224 
L 224.32528 237.98712 
L 225.159153 213.060237 
L 225.993026 184.049288 
L 226.826899 223.904135 
L 227.660772 240.029153 
L 228.494645 220.876294 
L 229.328518 237.353386 
L 230.162391 250.072882 
L 230.996264 260.167821 
L 231.830137 262.280269 
L 232.66401 255.097947 
L 233.497883 236.508407 
L 234.331756 205.8075 
L 235.165629 126.168221 
L 235.999502 157.714107 
L 236.833375 216.088079 
L 237.667248 212.215258 
L 238.501121 221.439613 
L 239.334994 248.338114 
L 240.168867 248.056454 
L 241.00274 250.591392 
L 242.670486 266.434749 
L 243.504359 261.998609 
L 244.338232 269.392176 
L 245.172105 271.222964 
L 246.005978 271.152549 
L 246.839851 269.955496 
L 247.673724 256.506245 
L 248.507597 228.058616 
L 249.341469 203.765467 
L 251.009215 253.830478 
L 251.843088 263.899812 
L 252.676961 267.561388 
L 253.510834 264.744791 
L 254.344707 265.801015 
L 255.17858 266.050668 
L 256.012453 252.210935 
L 256.846326 243.831559 
L 257.680199 275.095785 
L 258.514072 275.377445 
L 259.347945 267.772633 
L 260.181818 255.450021 
L 261.015691 219.25675 
L 261.849564 222.918326 
L 262.683437 257.210394 
L 263.51731 269.321761 
L 264.351183 268.014493 
L 266.018929 266.691917 
L 266.852802 268.406367 
L 267.686675 272.887317 
L 268.520548 268.195123 
L 269.354421 272.138358 
L 270.188294 260.87197 
L 271.022167 260.801555 
L 271.85604 257.562469 
L 272.689913 272.490433 
L 273.523786 277.57311 
L 274.357659 279.109436 
L 275.191532 271.504624 
L 276.025405 281.714788 
L 276.859278 271.715869 
L 278.527024 276.222424 
L 279.360897 276.292839 
L 280.19477 277.912382 
L 281.028643 281.503543 
L 281.862516 281.714788 
L 282.696389 270.025911 
L 283.530262 269.251346 
L 284.364134 269.885081 
L 285.198007 270.941305 
L 286.03188 275.659104 
L 286.865753 275.1662 
L 287.699626 279.46151 
L 288.533499 282.268923 
L 289.367372 283.756821 
L 290.201245 289.671674 
L 291.035118 280.799394 
L 291.868991 274.039561 
L 292.702864 272.420018 
L 293.536737 278.686946 
L 294.37061 274.250806 
L 295.204483 271.715869 
L 296.038356 263.547738 
L 296.872229 259.674917 
L 297.706102 259.041182 
L 298.539975 264.744791 
L 299.373848 276.926573 
L 300.207721 260.660726 
L 301.041594 264.674376 
L 301.875467 265.237696 
L 302.70934 274.186514 
L 303.543213 276.856158 
L 304.377086 279.109436 
L 305.210959 278.334872 
L 306.044832 280.725917 
L 306.878705 279.320681 
L 307.712578 281.855618 
L 308.546451 280.306489 
L 309.380324 272.842508 
L 310.214197 268.758442 
L 311.04807 274.391636 
L 312.715816 278.334872 
L 313.549689 275.02537 
L 314.383562 279.493517 
L 315.217435 280.306489 
L 316.051308 278.143745 
L 316.885181 289.490607 
L 317.719054 291.361633 
L 319.3868 283.615991 
L 320.220672 280.588149 
L 321.054545 276.081594 
L 321.888418 275.799934 
L 322.722291 281.433128 
L 323.556164 277.137818 
L 324.390037 281.855618 
L 325.22391 280.211582 
L 326.057783 276.363254 
L 326.891656 276.081594 
L 327.725529 280.799394 
L 328.559402 282.489352 
L 329.393275 278.827776 
L 330.227148 261.083215 
L 331.061021 290.601151 
L 332.728767 237.142141 
L 333.56264 235.100108 
L 334.396513 261.71695 
L 335.230386 258.125788 
L 336.064259 258.125788 
L 336.898132 258.759523 
L 337.732005 250.380147 
L 338.565878 227.002392 
L 339.399751 230.523138 
L 340.233624 232.776416 
L 341.067497 244.394878 
L 343.569116 199.540572 
L 344.402989 244.465293 
L 345.236862 266.818831 
L 346.070735 266.364334 
L 346.904608 279.74317 
L 347.738481 284.108895 
L 348.572354 274.814125 
L 349.406227 268.054293 
L 350.2401 279.320681 
L 351.073973 271.152549 
L 351.907846 270.096325 
L 352.741719 270.73006 
L 353.575592 282.418937 
L 354.409465 280.306489 
L 355.243337 277.713383 
L 356.07721 277.560307 
L 356.911083 277.982797 
L 358.578829 285.024289 
L 359.412702 260.238236 
L 360.246575 259.344273 
L 361.080448 245.169442 
L 361.914321 239.285204 
L 362.748194 245.873592 
L 364.41594 255.661266 
L 365.249813 279.039021 
L 366.083686 277.419478 
L 366.917559 258.125788 
L 367.751432 243.831559 
L 368.585305 245.803177 
L 369.419178 235.311353 
L 370.253051 241.648696 
L 371.086924 229.044425 
L 371.920797 243.252932 
L 372.75467 237.84629 
L 373.588543 211.018204 
L 374.422416 195.245261 
L 375.256289 205.38501 
L 376.090162 205.596255 
L 376.924035 272.842508 
L 377.757908 247.161179 
L 378.591781 243.479484 
L 379.425654 219.186335 
L 381.0934 225.523679 
L 381.927273 232.283511 
L 382.761146 223.04691 
L 383.595019 223.129571 
L 384.428892 218.341356 
L 385.262765 189.893727 
L 386.096638 170.177548 
L 386.930511 185.316757 
L 387.764384 214.186876 
L 388.598257 221.932517 
L 389.43213 230.875213 
L 390.266002 226.016583 
L 391.099875 203.502176 
L 391.933748 209.398661 
L 392.767621 207.708703 
L 393.601494 167.431366 
L 394.435367 213.693971 
L 395.26924 192.499079 
L 396.103113 222.826481 
L 396.936986 154.827095 
L 397.770859 170.740868 
L 399.438605 159.122405 
L 400.272478 146.306889 
L 401.106351 183.274724 
L 401.940224 199.610986 
L 402.774097 202.286754 
L 403.60797 199.188497 
L 404.441843 220.031314 
L 405.275716 220.031314 
L 406.109589 249.675997 
L 406.943462 253.245728 
L 407.777335 262.984418 
L 408.611208 262.773173 
L 409.445081 257.773714 
L 410.278954 257.492054 
L 411.9467 191.865345 
L 412.780573 216.228909 
L 413.614446 202.075509 
L 414.448319 205.596255 
L 415.282192 218.270941 
L 416.116065 225.734923 
L 416.949938 221.731332 
L 417.783811 204.610446 
L 418.617684 207.215798 
L 419.451557 211.658062 
L 420.28543 210.877374 
L 421.119303 190.034557 
L 421.953176 159.826554 
L 422.787049 138.228377 
L 423.620922 174.261614 
L 424.454795 158.347841 
L 425.288667 150.46137 
L 426.12254 171.304187 
L 426.956413 161.91451 
L 427.790286 235.259468 
L 428.624159 196.301485 
L 429.458032 237.001311 
L 430.291905 217.168795 
L 431.125778 212.567333 
L 431.959651 211.370279 
L 432.793524 200.526381 
L 433.627397 184.119703 
L 434.46127 158.91116 
L 435.295143 151.658423 
L 436.129016 137.223364 
L 436.962889 200.596795 
L 437.796762 182.288915 
L 438.630635 212.848992 
L 439.464508 160.953193 
L 440.298381 213.905216 
L 441.132254 208.822539 
L 441.966127 182.148085 
L 442.8 213.130652 
L 443.633873 222.68361 
L 444.467746 218.411771 
L 445.301619 185.457587 
L 446.135492 179.965223 
L 446.969365 141.237014 
L 447.803238 186.79547 
L 448.637111 148.912241 
L 449.470984 196.301485 
L 450.304857 210.314055 
L 451.13873 200.244721 
L 451.972603 205.24418 
L 452.806476 175.247423 
L 453.640349 169.121324 
L 454.474222 155.962918 
L 455.308095 182.148085 
L 456.141968 188.415014 
L 456.975841 86.923636 
L 457.809714 106.586749 
L 458.643587 163.62896 
L 459.47746 208.764927 
L 460.311333 163.840205 
L 461.145205 180.739787 
L 461.979078 163.577749 
L 463.646824 213.482727 
L 464.480697 177.007796 
L 465.31457 191.93576 
L 466.148443 181.385767 
L 466.982316 222.707082 
L 467.816189 174.472859 
L 468.650062 231.086458 
L 469.483935 232.635586 
L 470.317808 196.019825 
L 471.151681 200.737625 
L 471.985554 206.511649 
L 472.819427 221.932517 
L 473.6533 215.10227 
L 474.487173 220.383389 
L 475.321046 223.059156 
L 476.154919 214.303213 
L 476.988792 274.462051 
L 477.822665 267.843048 
L 478.656538 255.379606 
L 479.490411 250.098487 
L 481.158157 234.677619 
L 481.99203 232.776416 
L 482.825903 242.28243 
L 483.659776 216.721813 
L 484.493649 220.665049 
L 485.327522 216.510568 
L 486.161395 215.595174 
L 487.829141 228.340276 
L 488.663014 228.340276 
L 489.496887 248.763665 
L 490.33076 253.478403 
L 491.164633 230.452723 
L 491.998506 240.592472 
L 492.832379 242.071186 
L 493.666252 243.197824 
L 494.500125 238.339195 
L 495.333998 208.764927 
L 496.16787 203.483807 
L 497.001743 233.973469 
L 497.835616 238.339195 
L 498.669489 253.055914 
L 499.503362 222.753004 
L 500.337235 232.494756 
L 501.171108 253.980492 
L 502.004981 222.636667 
L 502.838854 232.846831 
L 503.672727 224.39704 
L 504.5066 245.028613 
L 505.340473 230.311893 
L 506.174346 240.733302 
L 507.008219 248.760603 
L 507.842092 261.646535 
L 508.675965 250.943466 
L 509.509838 211.370279 
L 510.343711 198.906837 
L 511.177584 122.647474 
L 512.011457 90.936267 
L 512.84533 147.926432 
L 513.679203 238.902514 
L 514.513076 230.663968 
L 515.346949 238.057535 
L 516.180822 261.928194 
L 517.014695 264.463132 
L 517.848568 265.941845 
L 518.682441 266.857239 
L 519.516314 263.406908 
L 520.350187 263.758982 
L 521.18406 204.187957 
L 522.017933 220.312974 
L 522.851806 209.046586 
L 523.685679 236.199193 
L 524.519552 226.298243 
L 525.353425 253.055914 
L 526.187298 229.889404 
L 527.021171 244.958198 
L 527.855044 255.097947 
L 528.688917 258.337033 
L 529.52279 250.380147 
L 530.356663 253.407988 
L 531.190535 245.944007 
L 532.024408 241.085377 
L 532.858281 117.71843 
L 533.692154 154.860771 
L 534.526027 214.257291 
L 535.3599 207.145383 
L 536.193773 207.427043 
L 537.027646 210.947789 
L 537.861519 248.549359 
L 538.695392 244.465293 
L 539.529265 250.380147 
L 540.363138 268.758442 
L 542.030884 222.214177 
L 544.532503 247.915624 
L 545.366376 244.746953 
L 546.200249 251.5772 
L 547.867995 218.417894 
L 548.701868 238.902514 
L 549.535741 247.774795 
L 551.203487 271.222964 
L 552.03736 268.195123 
L 552.871233 263.336493 
L 553.705106 263.125248 
L 554.538979 262.350684 
L 555.372852 259.111597 
L 556.206725 266.716409 
L 557.040598 268.476782 
L 557.874471 262.984418 
L 558.708344 264.392717 
L 559.542217 262.577236 
L 560.37609 270.071833 
L 561.209963 275.095785 
L 562.043836 284.672215 
L 562.877709 270.096325 
L 563.711582 281.362713 
L 564.545455 276.081594 
L 565.379328 273.757902 
L 566.2132 273.687487 
L 567.047073 267.843048 
L 567.880946 258.477863 
L 568.714819 257.562469 
L 569.548692 276.081594 
L 570.382565 266.645994 
L 571.216438 268.308399 
L 572.050311 253.267159 
L 572.884184 227.354467 
L 573.718057 210.947789 
L 574.55193 253.619233 
L 575.385803 261.857779 
L 576.219676 282.137277 
L 577.053549 282.207692 
L 577.887422 278.264457 
L 578.721295 275.095785 
L 579.555168 278.123627 
L 580.389041 270.025911 
L 581.222914 263.125248 
L 582.056787 253.548818 
L 582.89066 259.393257 
L 583.724533 258.242126 
L 584.558406 251.647615 
L 585.392279 248.690189 
L 586.226152 242.98658 
L 587.060025 266.786824 
L 587.893898 275.095785 
L 588.727771 278.405287 
L 589.561644 271.614839 
L 590.395517 254.252968 
L 591.22939 244.042804 
L 592.063263 250.168902 
L 592.897136 245.944007 
L 593.731009 246.788986 
L 594.564882 251.041435 
L 595.398755 244.746953 
L 596.232628 252.915084 
L 597.066501 263.125248 
L 597.900374 277.560307 
L 598.734247 278.686946 
L 599.56812 274.814125 
L 600.401993 279.60234 
L 601.235866 272.279188 
L 602.069738 280.728979 
L 602.903611 278.757361 
L 603.737484 280.02483 
L 604.571357 274.814125 
L 605.40523 276.574498 
L 606.239103 280.87287 
L 607.072976 269.180931 
L 607.906849 250.591392 
L 608.740722 279.391095 
L 609.574595 286.010098 
L 610.408468 282.278107 
L 611.242341 277.067403 
L 612.076214 266.857239 
L 612.910087 240.381228 
L 613.74396 224.11538 
L 614.577833 244.324463 
L 615.411706 259.956576 
L 616.245579 216.369738 
L 617.079452 240.522057 
L 617.913325 257.139979 
L 618.747198 271.363794 
L 619.581071 254.534627 
L 620.414944 257.914544 
L 621.248817 251.013881 
L 622.08269 276.926573 
L 622.916563 237.775875 
L 623.750436 245.380687 
L 624.584309 236.437992 
L 625.418182 237.423801 
L 627.085928 251.295541 
L 627.919801 249.535168 
L 628.753674 265.237696 
L 629.587547 271.761791 
L 630.42142 263.829397 
L 632.089166 276.856158 
L 632.923039 277.349063 
L 633.756912 264.251887 
L 635.424658 267.420558 
L 636.258531 273.828316 
L 637.092403 269.180931 
L 637.926276 276.644913 
L 638.760149 276.363254 
L 639.594022 277.630722 
L 640.427895 280.728979 
L 641.261768 281.828064 
L 642.095641 276.504084 
L 642.929514 273.100696 
L 643.763387 275.1662 
L 644.59726 272.138358 
L 645.431133 260.519896 
L 646.265006 279.60234 
L 647.098879 289.390015 
L 647.932752 286.714248 
L 648.766625 285.728439 
L 649.600498 287.700056 
L 651.268244 272.272787 
L 652.102117 273.757902 
L 652.93599 246.084836 
L 653.769863 258.970767 
L 654.603736 244.746953 
L 655.437609 233.621395 
L 656.271482 242.98658 
L 657.105355 266.223505 
L 657.939228 251.013881 
L 658.773101 256.365415 
L 659.606974 232.846831 
L 660.440847 245.873592 
L 661.27472 280.799394 
L 662.108593 279.813585 
L 662.942466 275.30703 
L 663.776339 286.784662 
L 665.444085 269.814666 
L 667.111831 235.522598 
L 667.945704 226.720732 
L 668.779577 220.172144 
L 669.61345 216.510568 
L 670.447323 209.750736 
L 671.281196 215.10227 
L 672.115068 253.055914 
L 672.948941 264.322302 
L 673.782814 241.859941 
L 674.616687 237.494216 
L 675.45056 222.918326 
L 676.284433 246.859401 
L 677.118306 283.885405 
L 677.952179 267.843048 
L 678.786052 276.926573 
L 679.619925 233.69181 
L 681.287671 277.137818 
L 682.955417 247.915624 
L 683.78929 253.267159 
L 684.623163 266.082675 
L 685.457036 239.113759 
L 686.290909 225.184407 
L 687.124782 251.5772 
L 687.958655 261.548566 
L 688.792528 266.998069 
L 689.626401 229.466914 
L 690.460274 251.013881 
L 691.294147 212.285673 
L 692.12802 201.300945 
L 692.961893 212.356088 
L 693.795766 214.96144 
L 694.629639 223.622476 
L 695.463512 209.82115 
L 696.297385 216.721813 
L 697.131258 207.215798 
L 697.965131 237.001311 
L 698.799004 213.623556 
L 699.632877 234.446255 
L 700.46675 237.635045 
L 701.300623 245.310272 
L 702.134496 258.548278 
L 702.968369 254.816287 
L 703.802242 222.355007 
L 704.636115 228.088794 
L 705.469988 225.523679 
L 706.303861 205.314595 
L 707.137733 211.933598 
L 707.971606 228.129031 
L 708.805479 222.425422 
L 709.639352 173.229882 
L 710.473225 162.854396 
L 711.307098 210.806959 
L 712.140971 163.62896 
L 712.974844 235.381768 
L 713.808717 232.424341 
L 714.64259 237.001311 
L 715.476463 155.953734 
L 716.310336 147.503943 
L 717.144209 94.622335 
L 717.978082 164.05145 
L 718.811955 154.61585 
L 719.645828 180.035638 
L 720.479701 173.134975 
L 721.313574 155.883319 
L 722.147447 183.274724 
L 722.98132 179.331488 
L 723.815193 185.316757 
L 724.649066 188.344599 
L 725.482939 192.217419 
L 726.316812 174.613688 
L 727.150685 177.92319 
L 727.984558 214.327706 
L 728.818431 150.03888 
L 729.652304 183.908458 
L 730.486177 200.385551 
L 731.32005 170.811283 
L 732.153923 128.491913 
L 732.987796 157.065065 
L 733.821669 214.398121 
L 734.655542 219.67924 
L 735.489415 216.369738 
L 736.323288 172.360411 
L 737.157161 177.148626 
L 737.991034 219.11592 
L 738.824907 271.856699 
L 739.65878 236.367577 
L 740.492653 210.173225 
L 741.326526 146.236474 
L 742.160399 197.287294 
L 742.994271 218.552601 
L 743.828144 245.873592 
L 745.49589 157.362032 
L 746.329763 201.959171 
L 747.163636 196.442315 
L 747.163636 196.442315 
" style="fill:none;stroke:#1f77b4;stroke-linecap:square;stroke-width:1.5;"/>
   </g>
   <g id="line2d_15">
    <path clip-path="url(#p72dec5f138)" d="M 138.436364 208.25912 
L 139.270237 214.210037 
L 140.10411 181.869266 
L 140.937983 199.560397 
L 141.771856 210.497491 
L 142.605729 216.100132 
L 143.439601 196.497503 
L 144.273474 170.047476 
L 145.107347 212.594293 
L 145.94122 215.313373 
L 146.775093 168.448119 
L 147.608966 179.939195 
L 148.442839 166.451931 
L 149.276712 205.756023 
L 150.944458 182.139369 
L 151.778331 206.608338 
L 152.612204 210.494867 
L 153.446077 193.42254 
L 154.27995 215.281462 
L 155.113823 202.107306 
L 155.947696 200.953712 
L 156.781569 210.977427 
L 157.615442 209.495123 
L 158.449315 207.366494 
L 159.283188 219.567788 
L 160.117061 229.401158 
L 160.950934 229.163978 
L 161.784807 230.894009 
L 162.61868 236.07095 
L 163.452553 229.504434 
L 164.286426 221.008285 
L 165.120299 187.620877 
L 165.954172 192.361069 
L 166.788045 214.662458 
L 167.621918 222.229331 
L 168.455791 219.377746 
L 169.289664 205.501489 
L 170.123537 226.952671 
L 170.95741 223.798259 
L 171.791283 222.738342 
L 172.625156 204.257654 
L 173.459029 194.36957 
L 174.292902 247.277341 
L 175.126775 246.989213 
L 175.960648 211.621392 
L 176.794521 252.958341 
L 177.628394 210.85922 
L 178.462267 237.490103 
L 179.296139 143.467858 
L 180.130012 213.562951 
L 180.963885 211.582448 
L 181.797758 186.565427 
L 182.631631 202.259003 
L 183.465504 186.715867 
L 184.299377 197.151003 
L 185.13325 201.241498 
L 185.967123 220.288739 
L 186.800996 201.238867 
L 187.634869 206.841341 
L 188.468742 191.224068 
L 189.302615 214.692938 
L 190.136488 209.868108 
L 190.970361 208.414266 
L 191.804234 227.442812 
L 192.638107 219.450819 
L 193.47198 196.71259 
L 194.305853 209.715464 
L 195.139726 215.08117 
L 195.973599 215.314088 
L 196.807472 207.311645 
L 197.641345 209.744512 
L 198.475218 182.217026 
L 199.309091 210.758923 
L 200.142964 186.935312 
L 200.976837 207.29284 
L 201.81071 200.917887 
L 202.644583 208.866372 
L 203.478456 223.352588 
L 204.312329 215.842065 
L 205.146202 210.754817 
L 205.980075 180.877845 
L 206.813948 208.522938 
L 207.647821 196.825175 
L 208.481694 212.863048 
L 209.315567 214.716185 
L 210.14944 211.2738 
L 210.983313 239.263603 
L 211.817186 238.006043 
L 212.651059 248.531046 
L 214.318804 229.7551 
L 215.152677 192.569374 
L 215.98655 222.27712 
L 216.820423 232.418481 
L 217.654296 221.497698 
L 218.488169 243.564241 
L 219.322042 233.734893 
L 220.155915 193.203456 
L 220.989788 221.242435 
L 221.823661 222.208805 
L 222.657534 196.696847 
L 223.491407 204.252013 
L 224.32528 213.645817 
L 225.159153 193.35699 
L 225.993026 195.791824 
L 226.826899 210.41233 
L 227.660772 229.55662 
L 228.494645 203.979776 
L 229.328518 211.666461 
L 230.162391 223.697356 
L 230.996264 213.605403 
L 231.830137 239.053667 
L 232.66401 243.246026 
L 233.497883 214.220158 
L 234.331756 195.017087 
L 235.165629 137.235763 
L 235.999502 172.839739 
L 236.833375 188.869032 
L 237.667248 201.748742 
L 238.501121 203.910713 
L 239.334994 216.031552 
L 240.168867 242.276323 
L 241.00274 242.777881 
L 241.836613 247.197918 
L 242.670486 267.486786 
L 243.504359 233.832128 
L 244.338232 244.250793 
L 245.172105 229.217653 
L 246.005978 222.949612 
L 246.839851 243.143634 
L 247.673724 247.775444 
L 248.507597 230.37921 
L 249.341469 186.243789 
L 250.175342 225.639708 
L 251.009215 212.193187 
L 251.843088 222.655018 
L 252.676961 215.420517 
L 253.510834 246.46094 
L 254.344707 233.175308 
L 255.17858 234.557018 
L 256.012453 284.792871 
L 256.846326 254.221881 
L 257.680199 234.815421 
L 258.514072 237.539052 
L 259.347945 271.596499 
L 260.181818 234.229321 
L 261.015691 212.719152 
L 261.849564 211.000551 
L 262.683437 228.249588 
L 263.51731 343.397899 
L 264.351183 216.350469 
L 265.185056 221.331638 
L 266.018929 235.211221 
L 266.852802 230.604192 
L 267.686675 242.623496 
L 268.520548 235.088019 
L 269.354421 277.899862 
L 270.188294 243.148037 
L 271.022167 275.551149 
L 271.85604 214.30392 
L 272.689913 265.859754 
L 273.523786 267.396765 
L 274.357659 266.374025 
L 275.191532 248.412337 
L 276.025405 239.551815 
L 276.859278 257.37117 
L 277.693151 250.237746 
L 278.527024 271.836889 
L 279.360897 278.325259 
L 280.19477 270.387282 
L 281.028643 271.593159 
L 281.862516 279.492025 
L 282.696389 270.583732 
L 283.530262 256.662616 
L 284.364134 220.943773 
L 285.198007 247.53876 
L 286.03188 238.293468 
L 286.865753 265.491765 
L 287.699626 280.394476 
L 288.533499 262.333898 
L 289.367372 249.319062 
L 290.201245 248.186413 
L 291.035118 252.184131 
L 291.868991 234.178257 
L 292.702864 259.04712 
L 293.536737 263.371065 
L 294.37061 272.318024 
L 295.204483 259.413352 
L 296.038356 227.051808 
L 296.872229 222.456235 
L 297.706102 221.237336 
L 298.539975 263.410248 
L 299.373848 263.143678 
L 300.207721 260.700954 
L 301.041594 264.210249 
L 301.875467 234.070462 
L 302.70934 272.24352 
L 303.543213 266.785014 
L 304.377086 274.231817 
L 305.210959 270.35327 
L 306.044832 240.395904 
L 306.878705 273.343768 
L 307.712578 269.459702 
L 308.546451 273.474242 
L 309.380324 268.664278 
L 310.214197 262.017134 
L 311.04807 271.819986 
L 311.881943 266.305381 
L 312.715816 266.791454 
L 313.549689 259.086931 
L 314.383562 261.013073 
L 315.217435 244.606843 
L 316.051308 270.883973 
L 316.885181 276.629788 
L 317.719054 301.219589 
L 318.552927 241.634357 
L 319.3868 299.522972 
L 320.220672 260.438829 
L 321.054545 249.864877 
L 321.888418 281.576817 
L 322.722291 272.518961 
L 323.556164 253.892294 
L 324.390037 243.642768 
L 325.22391 248.779681 
L 326.057783 249.374916 
L 326.891656 262.90165 
L 327.725529 254.44199 
L 328.559402 264.912002 
L 329.393275 240.108447 
L 330.227148 231.62436 
L 331.061021 315.053343 
L 332.728767 241.152184 
L 333.56264 225.189478 
L 334.396513 248.407689 
L 335.230386 242.525655 
L 336.064259 252.015024 
L 337.732005 225.549119 
L 338.565878 222.798418 
L 339.399751 230.726866 
L 340.233624 224.242893 
L 341.067497 219.574402 
L 343.569116 181.214761 
L 344.402989 217.091425 
L 345.236862 228.631799 
L 346.070735 244.212235 
L 346.904608 233.554553 
L 347.738481 266.203652 
L 348.572354 248.655389 
L 349.406227 221.587474 
L 350.2401 236.292161 
L 351.907846 234.729848 
L 352.741719 242.530258 
L 353.575592 237.867311 
L 354.409465 268.991544 
L 355.243337 250.091748 
L 356.07721 247.059334 
L 356.911083 248.689744 
L 357.744956 252.767532 
L 358.578829 259.970262 
L 359.412702 234.430941 
L 360.246575 239.245056 
L 361.080448 239.927192 
L 361.914321 208.06563 
L 362.748194 223.806943 
L 363.582067 215.860296 
L 364.41594 303.38499 
L 365.249813 244.125566 
L 366.083686 270.677544 
L 366.917559 232.787063 
L 367.751432 217.984818 
L 368.585305 229.100814 
L 369.419178 230.72078 
L 370.253051 203.78849 
L 371.086924 217.377496 
L 371.920797 203.079543 
L 372.75467 217.573346 
L 373.588543 219.063251 
L 374.422416 190.106575 
L 375.256289 178.639467 
L 376.090162 182.986321 
L 376.924035 236.278507 
L 377.757908 228.387869 
L 378.591781 217.194024 
L 379.425654 192.485554 
L 380.259527 194.186781 
L 381.0934 200.750828 
L 382.761146 219.587598 
L 383.595019 228.37749 
L 384.428892 214.082425 
L 386.096638 156.712405 
L 386.930511 170.77314 
L 387.764384 213.076872 
L 388.598257 194.044438 
L 389.43213 221.278195 
L 390.266002 226.307706 
L 391.099875 195.890509 
L 391.933748 198.016998 
L 392.767621 198.056368 
L 393.601494 174.856144 
L 394.435367 205.897541 
L 395.26924 182.139743 
L 396.103113 197.263562 
L 397.770859 154.099424 
L 398.604732 161.932409 
L 399.438605 150.40166 
L 400.272478 149.452864 
L 401.106351 177.669139 
L 401.940224 179.482487 
L 402.774097 179.457809 
L 403.60797 189.588558 
L 404.441843 195.508234 
L 405.275716 203.218771 
L 406.109589 223.239158 
L 406.943462 220.077887 
L 407.777335 230.263247 
L 408.611208 213.340676 
L 409.445081 226.228831 
L 410.278954 211.172503 
L 411.112827 213.344783 
L 411.9467 169.329651 
L 412.780573 196.798705 
L 413.614446 190.752661 
L 414.448319 179.465055 
L 415.282192 197.748906 
L 416.116065 201.908374 
L 416.949938 211.94987 
L 417.783811 190.077707 
L 418.617684 189.495455 
L 419.451557 184.859894 
L 420.28543 214.50483 
L 421.119303 181.279782 
L 421.953176 160.410181 
L 422.787049 116.166005 
L 423.620922 151.662682 
L 424.454795 157.229132 
L 425.288667 147.969741 
L 426.12254 149.842643 
L 426.956413 142.644952 
L 427.790286 202.150808 
L 428.624159 195.066469 
L 429.458032 215.090969 
L 430.291905 203.227416 
L 431.125778 208.527702 
L 431.959651 195.638083 
L 432.793524 190.714522 
L 433.627397 192.653593 
L 434.46127 177.051921 
L 435.295143 179.268831 
L 436.129016 158.073543 
L 436.962889 197.911453 
L 437.796762 162.079445 
L 438.630635 171.170436 
L 439.464508 141.621335 
L 440.298381 177.123054 
L 441.132254 195.607797 
L 441.966127 163.714155 
L 442.8 183.45163 
L 443.633873 211.629109 
L 444.467746 177.001186 
L 445.301619 205.74195 
L 446.135492 170.649944 
L 446.969365 156.106662 
L 448.637111 187.951205 
L 449.470984 199.480903 
L 450.304857 185.322727 
L 451.13873 209.354224 
L 451.972603 189.922561 
L 452.806476 208.990818 
L 453.640349 216.927466 
L 454.474222 243.725079 
L 456.141968 222.151578 
L 456.975841 186.967558 
L 457.809714 145.288735 
L 458.643587 179.468188 
L 459.47746 188.604873 
L 460.311333 193.073697 
L 461.145205 180.955437 
L 461.979078 195.16041 
L 462.812951 189.779599 
L 463.646824 229.08901 
L 464.480697 203.8437 
L 465.31457 186.094368 
L 466.148443 222.239381 
L 466.982316 211.633808 
L 467.816189 217.978681 
L 468.650062 243.310751 
L 469.483935 240.209035 
L 470.317808 239.349531 
L 471.151681 212.448901 
L 471.985554 201.690812 
L 472.819427 208.229556 
L 473.6533 213.093349 
L 474.487173 212.064066 
L 475.321046 216.288098 
L 476.154919 213.493346 
L 476.988792 257.777043 
L 477.822665 237.986497 
L 478.656538 210.35774 
L 479.490411 227.044865 
L 480.324284 248.040518 
L 481.158157 238.539983 
L 481.99203 234.913333 
L 482.825903 208.221813 
L 483.659776 228.362153 
L 484.493649 230.013509 
L 486.161395 204.840401 
L 486.995268 229.519074 
L 487.829141 227.342624 
L 488.663014 226.165989 
L 489.496887 217.186552 
L 490.33076 239.719377 
L 491.164633 222.847419 
L 491.998506 210.162154 
L 492.832379 225.27939 
L 493.666252 215.64597 
L 494.500125 216.730888 
L 495.333998 219.803207 
L 496.16787 203.758081 
L 497.001743 213.25576 
L 497.835616 202.552868 
L 498.669489 218.936825 
L 499.503362 220.046911 
L 500.337235 207.843535 
L 501.171108 226.022492 
L 502.004981 230.14388 
L 502.838854 196.255494 
L 503.672727 224.950984 
L 504.5066 234.068953 
L 505.340473 241.314479 
L 506.174346 251.262568 
L 507.008219 218.431889 
L 507.842092 241.257103 
L 508.675965 240.410977 
L 509.509838 214.620593 
L 510.343711 222.584537 
L 511.177584 139.559971 
L 512.011457 115.426584 
L 512.84533 160.45924 
L 513.679203 222.446313 
L 514.513076 209.007895 
L 515.346949 221.585733 
L 516.180822 226.967344 
L 517.014695 247.217638 
L 517.848568 236.45454 
L 518.682441 266.18027 
L 519.516314 231.231673 
L 520.350187 237.091156 
L 521.18406 211.162034 
L 522.017933 217.324472 
L 522.851806 214.318141 
L 523.685679 213.246774 
L 524.519552 223.59292 
L 525.353425 220.695737 
L 526.187298 203.968224 
L 527.021171 247.253308 
L 527.855044 247.3227 
L 528.688917 252.954802 
L 529.52279 234.715697 
L 530.356663 234.262392 
L 531.190535 223.819069 
L 532.024408 228.968418 
L 532.858281 189.621901 
L 533.692154 133.775779 
L 534.526027 212.13554 
L 535.3599 212.202502 
L 536.193773 215.746357 
L 537.027646 234.69675 
L 537.861519 220.822447 
L 538.695392 233.8898 
L 539.529265 227.523763 
L 540.363138 293.303377 
L 541.197011 234.630272 
L 542.030884 267.433098 
L 542.864757 197.828716 
L 543.69863 222.525685 
L 544.532503 222.847555 
L 545.366376 229.026812 
L 546.200249 237.038912 
L 547.034122 238.353751 
L 547.867995 211.004432 
L 548.701868 226.744269 
L 549.535741 244.665295 
L 550.369614 241.178647 
L 551.203487 263.037965 
L 552.03736 266.810465 
L 552.871233 246.541156 
L 553.705106 245.911296 
L 554.538979 248.088468 
L 555.372852 260.501281 
L 556.206725 267.048709 
L 557.040598 259.595229 
L 557.874471 259.144523 
L 558.708344 264.537663 
L 559.542217 243.029108 
L 560.37609 275.128383 
L 561.209963 270.765806 
L 562.043836 277.958945 
L 562.877709 253.102334 
L 563.711582 279.066246 
L 564.545455 275.21921 
L 565.379328 278.261662 
L 566.2132 264.555559 
L 567.047073 248.223256 
L 567.880946 258.945804 
L 568.714819 229.492585 
L 569.548692 424.708863 
L 570.382565 241.725519 
L 571.216438 255.868511 
L 572.050311 228.993638 
L 572.884184 227.056894 
L 573.718057 227.722694 
L 574.55193 244.353076 
L 575.385803 251.176524 
L 576.219676 256.485384 
L 577.053549 267.633126 
L 577.887422 267.714025 
L 578.721295 250.654015 
L 579.555168 261.297124 
L 580.389041 247.101843 
L 581.222914 260.015514 
L 582.056787 255.522224 
L 582.89066 265.954159 
L 583.724533 262.412612 
L 584.558406 255.677041 
L 585.392279 239.560376 
L 586.226152 235.020232 
L 587.060025 275.065141 
L 587.893898 308.420246 
L 588.727771 325.226841 
L 589.561644 237.672814 
L 590.395517 237.524154 
L 591.22939 229.265655 
L 592.063263 322.121437 
L 592.897136 225.19755 
L 593.731009 226.123215 
L 594.564882 240.372116 
L 595.398755 236.596857 
L 596.232628 229.086618 
L 597.066501 258.264316 
L 597.900374 269.363827 
L 598.734247 269.389833 
L 599.56812 264.818125 
L 600.401993 279.567058 
L 601.235866 273.329611 
L 602.069738 268.742805 
L 602.903611 278.531591 
L 603.737484 277.486384 
L 604.571357 277.208217 
L 605.40523 280.844506 
L 606.239103 282.063115 
L 607.072976 246.160318 
L 607.906849 235.108003 
L 608.740722 258.90488 
L 609.574595 301.735614 
L 610.408468 304.473492 
L 611.242341 264.424704 
L 612.076214 249.267605 
L 612.910087 266.709787 
L 613.74396 247.332731 
L 614.577833 240.497659 
L 615.411706 257.470759 
L 617.079452 236.106794 
L 617.913325 298.181998 
L 618.747198 238.166308 
L 619.581071 241.936654 
L 620.414944 331.379164 
L 621.248817 247.837641 
L 622.08269 259.122265 
L 622.916563 246.241198 
L 623.750436 244.867714 
L 624.584309 219.683931 
L 625.418182 219.885525 
L 626.252055 234.144263 
L 627.085928 254.347262 
L 627.919801 228.841129 
L 628.753674 254.496316 
L 629.587547 252.465979 
L 630.42142 237.19656 
L 631.255293 249.732146 
L 632.089166 242.388296 
L 633.756912 261.233566 
L 635.424658 247.338984 
L 636.258531 256.675155 
L 637.092403 271.153109 
L 637.926276 274.450263 
L 638.760149 275.197046 
L 639.594022 265.503278 
L 640.427895 268.250743 
L 641.261768 278.347931 
L 642.095641 264.599938 
L 642.929514 257.513639 
L 643.763387 246.908642 
L 644.59726 268.509571 
L 645.431133 246.80489 
L 646.265006 236.357802 
L 647.098879 272.114457 
L 647.932752 276.882408 
L 648.766625 274.707743 
L 649.600498 273.409524 
L 650.434371 271.864507 
L 651.268244 274.672022 
L 652.102117 277.892661 
L 652.93599 266.442199 
L 653.769863 266.059711 
L 654.603736 240.750517 
L 655.437609 250.706968 
L 656.271482 217.437076 
L 657.105355 254.296498 
L 657.939228 246.993423 
L 658.773101 260.989559 
L 659.606974 231.411587 
L 660.440847 233.23864 
L 661.27472 266.6127 
L 662.108593 253.259076 
L 662.942466 253.409754 
L 663.776339 280.424847 
L 664.610212 289.372276 
L 665.444085 249.329789 
L 666.277958 262.514437 
L 667.111831 217.3518 
L 667.945704 241.553709 
L 668.779577 236.103873 
L 669.61345 220.165027 
L 670.447323 226.802199 
L 671.281196 209.302844 
L 672.115068 242.314733 
L 672.948941 270.652028 
L 673.782814 260.303262 
L 674.616687 260.450578 
L 675.45056 245.044811 
L 676.284433 232.132552 
L 677.118306 372.917941 
L 677.952179 271.726129 
L 678.786052 442.996364 
L 679.619925 243.321388 
L 680.453798 230.347988 
L 681.287671 316.973506 
L 682.121544 238.487868 
L 682.955417 210.784026 
L 683.78929 242.69871 
L 684.623163 234.356327 
L 685.457036 248.662268 
L 686.290909 228.157175 
L 687.958655 248.171495 
L 688.792528 236.98741 
L 689.626401 224.191384 
L 690.460274 224.434824 
L 691.294147 237.400436 
L 692.12802 213.360345 
L 692.961893 197.553727 
L 693.795766 204.90851 
L 694.629639 203.965123 
L 695.463512 210.630699 
L 696.297385 208.14874 
L 697.131258 198.086345 
L 697.965131 226.754796 
L 698.799004 205.561862 
L 699.632877 221.626631 
L 700.46675 212.43994 
L 701.300623 231.506031 
L 702.134496 227.794762 
L 702.968369 248.406741 
L 703.802242 232.239225 
L 704.636115 219.925346 
L 705.469988 234.58648 
L 706.303861 218.040473 
L 707.137733 219.301823 
L 707.971606 209.382551 
L 708.805479 222.687742 
L 709.639352 216.241166 
L 710.473225 188.834826 
L 711.307098 222.111615 
L 712.140971 191.063404 
L 712.974844 217.075469 
L 713.808717 210.955953 
L 714.64259 213.79106 
L 716.310336 184.18062 
L 717.144209 147.303838 
L 717.978082 184.613463 
L 718.811955 161.421781 
L 719.645828 227.616595 
L 720.479701 244.005987 
L 721.313574 209.25452 
L 722.147447 211.685762 
L 722.98132 220.548927 
L 723.815193 207.554298 
L 724.649066 198.953629 
L 725.482939 199.49254 
L 726.316812 196.39834 
L 727.150685 200.4467 
L 727.984558 203.631243 
L 728.818431 184.426612 
L 729.652304 201.19162 
L 730.486177 223.863783 
L 731.32005 194.163212 
L 732.153923 140.051634 
L 732.987796 161.31073 
L 733.821669 197.935383 
L 734.655542 202.627282 
L 735.489415 215.950711 
L 736.323288 185.895398 
L 737.157161 173.277004 
L 737.991034 199.496117 
L 738.824907 247.642391 
L 739.65878 233.687484 
L 740.492653 202.16307 
L 741.326526 184.594858 
L 742.160399 200.463912 
L 742.994271 210.232068 
L 743.828144 230.909984 
L 744.662017 214.729297 
L 745.49589 201.982737 
L 746.329763 244.688838 
L 747.163636 206.474441 
L 747.163636 206.474441 
" style="fill:none;stroke:#ff0000;stroke-dasharray:5.55,2.4;stroke-dashoffset:0;stroke-width:1.5;"/>
   </g>
   <g id="patch_3">
    <path d="M 108 460.8 
L 108 69.12 
" style="fill:none;stroke:#000000;stroke-linecap:square;stroke-linejoin:miter;stroke-width:0.8;"/>
   </g>
   <g id="patch_4">
    <path d="M 777.6 460.8 
L 777.6 69.12 
" style="fill:none;stroke:#000000;stroke-linecap:square;stroke-linejoin:miter;stroke-width:0.8;"/>
   </g>
   <g id="patch_5">
    <path d="M 108 460.8 
L 777.6 460.8 
" style="fill:none;stroke:#000000;stroke-linecap:square;stroke-linejoin:miter;stroke-width:0.8;"/>
   </g>
   <g id="patch_6">
    <path d="M 108 69.12 
L 777.6 69.12 
" style="fill:none;stroke:#000000;stroke-linecap:square;stroke-linejoin:miter;stroke-width:0.8;"/>
   </g>
   <g id="text_16">
    <!-- Macau roadside 2020-2021 | Forecast vs Monitored | ANN -->
    <g transform="translate(226.886719 63.12)scale(0.15 -0.15)">
     <defs>
      <path d="M 8.5 21.578125 
L 8.5 54.6875 
L 17.484375 54.6875 
L 17.484375 21.921875 
Q 17.484375 14.15625 20.5 10.265625 
Q 23.53125 6.390625 29.59375 6.390625 
Q 36.859375 6.390625 41.078125 11.03125 
Q 45.3125 15.671875 45.3125 23.6875 
L 45.3125 54.6875 
L 54.296875 54.6875 
L 54.296875 0 
L 45.3125 0 
L 45.3125 8.40625 
Q 42.046875 3.421875 37.71875 1 
Q 33.40625 -1.421875 27.6875 -1.421875 
Q 18.265625 -1.421875 13.375 4.4375 
Q 8.5 10.296875 8.5 21.578125 
z
M 31.109375 56 
z
" id="DejaVuSans-117"/>
      <path id="DejaVuSans-32"/>
      <path d="M 45.40625 46.390625 
L 45.40625 75.984375 
L 54.390625 75.984375 
L 54.390625 0 
L 45.40625 0 
L 45.40625 8.203125 
Q 42.578125 3.328125 38.25 0.953125 
Q 33.9375 -1.421875 27.875 -1.421875 
Q 17.96875 -1.421875 11.734375 6.484375 
Q 5.515625 14.40625 5.515625 27.296875 
Q 5.515625 40.1875 11.734375 48.09375 
Q 17.96875 56 27.875 56 
Q 33.9375 56 38.25 53.625 
Q 42.578125 51.265625 45.40625 46.390625 
z
M 14.796875 27.296875 
Q 14.796875 17.390625 18.875 11.75 
Q 22.953125 6.109375 30.078125 6.109375 
Q 37.203125 6.109375 41.296875 11.75 
Q 45.40625 17.390625 45.40625 27.296875 
Q 45.40625 37.203125 41.296875 42.84375 
Q 37.203125 48.484375 30.078125 48.484375 
Q 22.953125 48.484375 18.875 42.84375 
Q 14.796875 37.203125 14.796875 27.296875 
z
" id="DejaVuSans-100"/>
      <path d="M 44.28125 53.078125 
L 44.28125 44.578125 
Q 40.484375 46.53125 36.375 47.5 
Q 32.28125 48.484375 27.875 48.484375 
Q 21.1875 48.484375 17.84375 46.4375 
Q 14.5 44.390625 14.5 40.28125 
Q 14.5 37.15625 16.890625 35.375 
Q 19.28125 33.59375 26.515625 31.984375 
L 29.59375 31.296875 
Q 39.15625 29.25 43.1875 25.515625 
Q 47.21875 21.78125 47.21875 15.09375 
Q 47.21875 7.46875 41.1875 3.015625 
Q 35.15625 -1.421875 24.609375 -1.421875 
Q 20.21875 -1.421875 15.453125 -0.5625 
Q 10.6875 0.296875 5.421875 2 
L 5.421875 11.28125 
Q 10.40625 8.6875 15.234375 7.390625 
Q 20.0625 6.109375 24.8125 6.109375 
Q 31.15625 6.109375 34.5625 8.28125 
Q 37.984375 10.453125 37.984375 14.40625 
Q 37.984375 18.0625 35.515625 20.015625 
Q 33.0625 21.96875 24.703125 23.78125 
L 21.578125 24.515625 
Q 13.234375 26.265625 9.515625 29.90625 
Q 5.8125 33.546875 5.8125 39.890625 
Q 5.8125 47.609375 11.28125 51.796875 
Q 16.75 56 26.8125 56 
Q 31.78125 56 36.171875 55.265625 
Q 40.578125 54.546875 44.28125 53.078125 
z
" id="DejaVuSans-115"/>
      <path d="M 21 76.421875 
L 21 -23.578125 
L 12.703125 -23.578125 
L 12.703125 76.421875 
z
" id="DejaVuSans-124"/>
      <path d="M 9.8125 72.90625 
L 51.703125 72.90625 
L 51.703125 64.59375 
L 19.671875 64.59375 
L 19.671875 43.109375 
L 48.578125 43.109375 
L 48.578125 34.8125 
L 19.671875 34.8125 
L 19.671875 0 
L 9.8125 0 
z
" id="DejaVuSans-70"/>
      <path d="M 2.984375 54.6875 
L 12.5 54.6875 
L 29.59375 8.796875 
L 46.6875 54.6875 
L 56.203125 54.6875 
L 35.6875 0 
L 23.484375 0 
z
" id="DejaVuSans-118"/>
      <path d="M 54.890625 33.015625 
L 54.890625 0 
L 45.90625 0 
L 45.90625 32.71875 
Q 45.90625 40.484375 42.875 44.328125 
Q 39.84375 48.1875 33.796875 48.1875 
Q 26.515625 48.1875 22.3125 43.546875 
Q 18.109375 38.921875 18.109375 30.90625 
L 18.109375 0 
L 9.078125 0 
L 9.078125 54.6875 
L 18.109375 54.6875 
L 18.109375 46.1875 
Q 21.34375 51.125 25.703125 53.5625 
Q 30.078125 56 35.796875 56 
Q 45.21875 56 50.046875 50.171875 
Q 54.890625 44.34375 54.890625 33.015625 
z
" id="DejaVuSans-110"/>
      <path d="M 34.1875 63.1875 
L 20.796875 26.90625 
L 47.609375 26.90625 
z
M 28.609375 72.90625 
L 39.796875 72.90625 
L 67.578125 0 
L 57.328125 0 
L 50.6875 18.703125 
L 17.828125 18.703125 
L 11.1875 0 
L 0.78125 0 
z
" id="DejaVuSans-65"/>
      <path d="M 9.8125 72.90625 
L 23.09375 72.90625 
L 55.421875 11.921875 
L 55.421875 72.90625 
L 64.984375 72.90625 
L 64.984375 0 
L 51.703125 0 
L 19.390625 60.984375 
L 19.390625 0 
L 9.8125 0 
z
" id="DejaVuSans-78"/>
     </defs>
     <use xlink:href="#DejaVuSans-77"/>
     <use x="86.279297" xlink:href="#DejaVuSans-97"/>
     <use x="147.558594" xlink:href="#DejaVuSans-99"/>
     <use x="202.539062" xlink:href="#DejaVuSans-97"/>
     <use x="263.818359" xlink:href="#DejaVuSans-117"/>
     <use x="327.197266" xlink:href="#DejaVuSans-32"/>
     <use x="358.984375" xlink:href="#DejaVuSans-114"/>
     <use x="397.847656" xlink:href="#DejaVuSans-111"/>
     <use x="459.029297" xlink:href="#DejaVuSans-97"/>
     <use x="520.308594" xlink:href="#DejaVuSans-100"/>
     <use x="583.785156" xlink:href="#DejaVuSans-115"/>
     <use x="635.884766" xlink:href="#DejaVuSans-105"/>
     <use x="663.667969" xlink:href="#DejaVuSans-100"/>
     <use x="727.144531" xlink:href="#DejaVuSans-101"/>
     <use x="788.667969" xlink:href="#DejaVuSans-32"/>
     <use x="820.455078" xlink:href="#DejaVuSans-50"/>
     <use x="884.078125" xlink:href="#DejaVuSans-48"/>
     <use x="947.701172" xlink:href="#DejaVuSans-50"/>
     <use x="1011.324219" xlink:href="#DejaVuSans-48"/>
     <use x="1074.947266" xlink:href="#DejaVuSans-45"/>
     <use x="1111.03125" xlink:href="#DejaVuSans-50"/>
     <use x="1174.654297" xlink:href="#DejaVuSans-48"/>
     <use x="1238.277344" xlink:href="#DejaVuSans-50"/>
     <use x="1301.900391" xlink:href="#DejaVuSans-49"/>
     <use x="1365.523438" xlink:href="#DejaVuSans-32"/>
     <use x="1397.310547" xlink:href="#DejaVuSans-124"/>
     <use x="1431.001953" xlink:href="#DejaVuSans-32"/>
     <use x="1462.789062" xlink:href="#DejaVuSans-70"/>
     <use x="1516.683594" xlink:href="#DejaVuSans-111"/>
     <use x="1577.865234" xlink:href="#DejaVuSans-114"/>
     <use x="1616.728516" xlink:href="#DejaVuSans-101"/>
     <use x="1678.251953" xlink:href="#DejaVuSans-99"/>
     <use x="1733.232422" xlink:href="#DejaVuSans-97"/>
     <use x="1794.511719" xlink:href="#DejaVuSans-115"/>
     <use x="1846.611328" xlink:href="#DejaVuSans-116"/>
     <use x="1885.820312" xlink:href="#DejaVuSans-32"/>
     <use x="1917.607422" xlink:href="#DejaVuSans-118"/>
     <use x="1976.787109" xlink:href="#DejaVuSans-115"/>
     <use x="2028.886719" xlink:href="#DejaVuSans-32"/>
     <use x="2060.673828" xlink:href="#DejaVuSans-77"/>
     <use x="2146.953125" xlink:href="#DejaVuSans-111"/>
     <use x="2208.134766" xlink:href="#DejaVuSans-110"/>
     <use x="2271.513672" xlink:href="#DejaVuSans-105"/>
     <use x="2299.296875" xlink:href="#DejaVuSans-116"/>
     <use x="2338.505859" xlink:href="#DejaVuSans-111"/>
     <use x="2399.6875" xlink:href="#DejaVuSans-114"/>
     <use x="2438.550781" xlink:href="#DejaVuSans-101"/>
     <use x="2500.074219" xlink:href="#DejaVuSans-100"/>
     <use x="2563.550781" xlink:href="#DejaVuSans-32"/>
     <use x="2595.337891" xlink:href="#DejaVuSans-124"/>
     <use x="2629.029297" xlink:href="#DejaVuSans-32"/>
     <use x="2660.816406" xlink:href="#DejaVuSans-65"/>
     <use x="2729.224609" xlink:href="#DejaVuSans-78"/>
     <use x="2804.029297" xlink:href="#DejaVuSans-78"/>
    </g>
   </g>
   <g id="legend_1">
    <g id="patch_7">
     <path d="M 116.4 114.615 
L 286.636875 114.615 
Q 289.036875 114.615 289.036875 112.215 
L 289.036875 77.52 
Q 289.036875 75.12 286.636875 75.12 
L 116.4 75.12 
Q 114 75.12 114 77.52 
L 114 112.215 
Q 114 114.615 116.4 114.615 
z
" style="fill:#ffffff;opacity:0.8;stroke:#cccccc;stroke-linejoin:miter;"/>
    </g>
    <g id="line2d_16">
     <path d="M 118.8 84.838125 
L 142.8 84.838125 
" style="fill:none;stroke:#1f77b4;stroke-linecap:square;stroke-width:1.5;"/>
    </g>
    <g id="line2d_17"/>
    <g id="text_17">
     <!-- measured_data_PM10 -->
     <g transform="translate(152.4 89.038125)scale(0.12 -0.12)">
      <defs>
       <path d="M 50.984375 -16.609375 
L 50.984375 -23.578125 
L -0.984375 -23.578125 
L -0.984375 -16.609375 
z
" id="DejaVuSans-95"/>
      </defs>
      <use xlink:href="#DejaVuSans-109"/>
      <use x="97.412109" xlink:href="#DejaVuSans-101"/>
      <use x="158.935547" xlink:href="#DejaVuSans-97"/>
      <use x="220.214844" xlink:href="#DejaVuSans-115"/>
      <use x="272.314453" xlink:href="#DejaVuSans-117"/>
      <use x="335.693359" xlink:href="#DejaVuSans-114"/>
      <use x="374.556641" xlink:href="#DejaVuSans-101"/>
      <use x="436.080078" xlink:href="#DejaVuSans-100"/>
      <use x="499.556641" xlink:href="#DejaVuSans-95"/>
      <use x="549.556641" xlink:href="#DejaVuSans-100"/>
      <use x="613.033203" xlink:href="#DejaVuSans-97"/>
      <use x="674.3125" xlink:href="#DejaVuSans-116"/>
      <use x="713.521484" xlink:href="#DejaVuSans-97"/>
      <use x="774.800781" xlink:href="#DejaVuSans-95"/>
      <use x="824.800781" xlink:href="#DejaVuSans-80"/>
      <use x="885.103516" xlink:href="#DejaVuSans-77"/>
      <use x="971.382812" xlink:href="#DejaVuSans-49"/>
      <use x="1035.005859" xlink:href="#DejaVuSans-48"/>
     </g>
    </g>
    <g id="line2d_18">
     <path d="M 118.8 102.785625 
L 142.8 102.785625 
" style="fill:none;stroke:#ff0000;stroke-dasharray:5.55,2.4;stroke-dashoffset:0;stroke-width:1.5;"/>
    </g>
    <g id="line2d_19"/>
    <g id="text_18">
     <!-- predicted_data_PM10 -->
     <g transform="translate(152.4 106.985625)scale(0.12 -0.12)">
      <defs>
       <path d="M 18.109375 8.203125 
L 18.109375 -20.796875 
L 9.078125 -20.796875 
L 9.078125 54.6875 
L 18.109375 54.6875 
L 18.109375 46.390625 
Q 20.953125 51.265625 25.265625 53.625 
Q 29.59375 56 35.59375 56 
Q 45.5625 56 51.78125 48.09375 
Q 58.015625 40.1875 58.015625 27.296875 
Q 58.015625 14.40625 51.78125 6.484375 
Q 45.5625 -1.421875 35.59375 -1.421875 
Q 29.59375 -1.421875 25.265625 0.953125 
Q 20.953125 3.328125 18.109375 8.203125 
z
M 48.6875 27.296875 
Q 48.6875 37.203125 44.609375 42.84375 
Q 40.53125 48.484375 33.40625 48.484375 
Q 26.265625 48.484375 22.1875 42.84375 
Q 18.109375 37.203125 18.109375 27.296875 
Q 18.109375 17.390625 22.1875 11.75 
Q 26.265625 6.109375 33.40625 6.109375 
Q 40.53125 6.109375 44.609375 11.75 
Q 48.6875 17.390625 48.6875 27.296875 
z
" id="DejaVuSans-112"/>
      </defs>
      <use xlink:href="#DejaVuSans-112"/>
      <use x="63.476562" xlink:href="#DejaVuSans-114"/>
      <use x="102.339844" xlink:href="#DejaVuSans-101"/>
      <use x="163.863281" xlink:href="#DejaVuSans-100"/>
      <use x="227.339844" xlink:href="#DejaVuSans-105"/>
      <use x="255.123047" xlink:href="#DejaVuSans-99"/>
      <use x="310.103516" xlink:href="#DejaVuSans-116"/>
      <use x="349.3125" xlink:href="#DejaVuSans-101"/>
      <use x="410.835938" xlink:href="#DejaVuSans-100"/>
      <use x="474.3125" xlink:href="#DejaVuSans-95"/>
      <use x="524.3125" xlink:href="#DejaVuSans-100"/>
      <use x="587.789062" xlink:href="#DejaVuSans-97"/>
      <use x="649.068359" xlink:href="#DejaVuSans-116"/>
      <use x="688.277344" xlink:href="#DejaVuSans-97"/>
      <use x="749.556641" xlink:href="#DejaVuSans-95"/>
      <use x="799.556641" xlink:href="#DejaVuSans-80"/>
      <use x="859.859375" xlink:href="#DejaVuSans-77"/>
      <use x="946.138672" xlink:href="#DejaVuSans-49"/>
      <use x="1009.761719" xlink:href="#DejaVuSans-48"/>
     </g>
    </g>
   </g>
  </g>
 </g>
 <defs>
  <clipPath id="p72dec5f138">
   <rect height="391.68" width="669.6" x="108" y="69.12"/>
  </clipPath>
 </defs>
</svg>
