<?xml version="1.0" encoding="utf-8" standalone="no"?>
<!DOCTYPE svg PUBLIC "-//W3C//DTD SVG 1.1//EN"
  "http://www.w3.org/Graphics/SVG/1.1/DTD/svg11.dtd">
<!-- Created with matplotlib (https://matplotlib.org/) -->
<svg height="576pt" version="1.1" viewBox="0 0 864 576" width="864pt" xmlns="http://www.w3.org/2000/svg" xmlns:xlink="http://www.w3.org/1999/xlink">
 <metadata>
  <rdf:RDF xmlns:cc="http://creativecommons.org/ns#" xmlns:dc="http://purl.org/dc/elements/1.1/" xmlns:rdf="http://www.w3.org/1999/02/22-rdf-syntax-ns#">
   <cc:Work>
    <dc:type rdf:resource="http://purl.org/dc/dcmitype/StillImage"/>
    <dc:date>2024-03-08T17:27:11.204993</dc:date>
    <dc:format>image/svg+xml</dc:format>
    <dc:creator>
     <cc:Agent>
      <dc:title>Matplotlib v3.3.4, https://matplotlib.org/</dc:title>
     </cc:Agent>
    </dc:creator>
   </cc:Work>
  </rdf:RDF>
 </metadata>
 <defs>
  <style type="text/css">*{stroke-linecap:butt;stroke-linejoin:round;}</style>
 </defs>
 <g id="figure_1">
  <g id="patch_1">
   <path d="M 0 576 
L 864 576 
L 864 0 
L 0 0 
z
" style="fill:#ffffff;"/>
  </g>
  <g id="axes_1">
   <g id="patch_2">
    <path d="M 108 460.8 
L 777.6 460.8 
L 777.6 69.12 
L 108 69.12 
z
" style="fill:#ffffff;"/>
   </g>
   <g id="matplotlib.axis_1">
    <g id="xtick_1">
     <g id="line2d_1">
      <defs>
       <path d="M 0 0 
L 0 3.5 
" id="m48aa111ecc" style="stroke:#000000;stroke-width:0.8;"/>
      </defs>
      <g>
       <use style="stroke:#000000;stroke-width:0.8;" x="136.761736" xlink:href="#m48aa111ecc" y="460.8"/>
      </g>
     </g>
     <g id="text_1">
      <!-- 2020-01 -->
      <g transform="translate(92.091951 500.766215)rotate(-30)scale(0.12 -0.12)">
       <defs>
        <path d="M 19.1875 8.296875 
L 53.609375 8.296875 
L 53.609375 0 
L 7.328125 0 
L 7.328125 8.296875 
Q 12.9375 14.109375 22.625 23.890625 
Q 32.328125 33.6875 34.8125 36.53125 
Q 39.546875 41.84375 41.421875 45.53125 
Q 43.3125 49.21875 43.3125 52.78125 
Q 43.3125 58.59375 39.234375 62.25 
Q 35.15625 65.921875 28.609375 65.921875 
Q 23.96875 65.921875 18.8125 64.3125 
Q 13.671875 62.703125 7.8125 59.421875 
L 7.8125 69.390625 
Q 13.765625 71.78125 18.9375 73 
Q 24.125 74.21875 28.421875 74.21875 
Q 39.75 74.21875 46.484375 68.546875 
Q 53.21875 62.890625 53.21875 53.421875 
Q 53.21875 48.921875 51.53125 44.890625 
Q 49.859375 40.875 45.40625 35.40625 
Q 44.1875 33.984375 37.640625 27.21875 
Q 31.109375 20.453125 19.1875 8.296875 
z
" id="DejaVuSans-50"/>
        <path d="M 31.78125 66.40625 
Q 24.171875 66.40625 20.328125 58.90625 
Q 16.5 51.421875 16.5 36.375 
Q 16.5 21.390625 20.328125 13.890625 
Q 24.171875 6.390625 31.78125 6.390625 
Q 39.453125 6.390625 43.28125 13.890625 
Q 47.125 21.390625 47.125 36.375 
Q 47.125 51.421875 43.28125 58.90625 
Q 39.453125 66.40625 31.78125 66.40625 
z
M 31.78125 74.21875 
Q 44.046875 74.21875 50.515625 64.515625 
Q 56.984375 54.828125 56.984375 36.375 
Q 56.984375 17.96875 50.515625 8.265625 
Q 44.046875 -1.421875 31.78125 -1.421875 
Q 19.53125 -1.421875 13.0625 8.265625 
Q 6.59375 17.96875 6.59375 36.375 
Q 6.59375 54.828125 13.0625 64.515625 
Q 19.53125 74.21875 31.78125 74.21875 
z
" id="DejaVuSans-48"/>
        <path d="M 4.890625 31.390625 
L 31.203125 31.390625 
L 31.203125 23.390625 
L 4.890625 23.390625 
z
" id="DejaVuSans-45"/>
        <path d="M 12.40625 8.296875 
L 28.515625 8.296875 
L 28.515625 63.921875 
L 10.984375 60.40625 
L 10.984375 69.390625 
L 28.421875 72.90625 
L 38.28125 72.90625 
L 38.28125 8.296875 
L 54.390625 8.296875 
L 54.390625 0 
L 12.40625 0 
z
" id="DejaVuSans-49"/>
       </defs>
       <use xlink:href="#DejaVuSans-50"/>
       <use x="63.623047" xlink:href="#DejaVuSans-48"/>
       <use x="127.246094" xlink:href="#DejaVuSans-50"/>
       <use x="190.869141" xlink:href="#DejaVuSans-48"/>
       <use x="254.492188" xlink:href="#DejaVuSans-45"/>
       <use x="290.576172" xlink:href="#DejaVuSans-48"/>
       <use x="354.199219" xlink:href="#DejaVuSans-49"/>
      </g>
     </g>
    </g>
    <g id="xtick_2">
     <g id="line2d_2">
      <g>
       <use style="stroke:#000000;stroke-width:0.8;" x="212.957309" xlink:href="#m48aa111ecc" y="460.8"/>
      </g>
     </g>
     <g id="text_2">
      <!-- 2020-04 -->
      <g transform="translate(168.287524 500.766215)rotate(-30)scale(0.12 -0.12)">
       <defs>
        <path d="M 37.796875 64.3125 
L 12.890625 25.390625 
L 37.796875 25.390625 
z
M 35.203125 72.90625 
L 47.609375 72.90625 
L 47.609375 25.390625 
L 58.015625 25.390625 
L 58.015625 17.1875 
L 47.609375 17.1875 
L 47.609375 0 
L 37.796875 0 
L 37.796875 17.1875 
L 4.890625 17.1875 
L 4.890625 26.703125 
z
" id="DejaVuSans-52"/>
       </defs>
       <use xlink:href="#DejaVuSans-50"/>
       <use x="63.623047" xlink:href="#DejaVuSans-48"/>
       <use x="127.246094" xlink:href="#DejaVuSans-50"/>
       <use x="190.869141" xlink:href="#DejaVuSans-48"/>
       <use x="254.492188" xlink:href="#DejaVuSans-45"/>
       <use x="290.576172" xlink:href="#DejaVuSans-48"/>
       <use x="354.199219" xlink:href="#DejaVuSans-52"/>
      </g>
     </g>
    </g>
    <g id="xtick_3">
     <g id="line2d_3">
      <g>
       <use style="stroke:#000000;stroke-width:0.8;" x="289.152882" xlink:href="#m48aa111ecc" y="460.8"/>
      </g>
     </g>
     <g id="text_3">
      <!-- 2020-07 -->
      <g transform="translate(244.483097 500.766215)rotate(-30)scale(0.12 -0.12)">
       <defs>
        <path d="M 8.203125 72.90625 
L 55.078125 72.90625 
L 55.078125 68.703125 
L 28.609375 0 
L 18.3125 0 
L 43.21875 64.59375 
L 8.203125 64.59375 
z
" id="DejaVuSans-55"/>
       </defs>
       <use xlink:href="#DejaVuSans-50"/>
       <use x="63.623047" xlink:href="#DejaVuSans-48"/>
       <use x="127.246094" xlink:href="#DejaVuSans-50"/>
       <use x="190.869141" xlink:href="#DejaVuSans-48"/>
       <use x="254.492188" xlink:href="#DejaVuSans-45"/>
       <use x="290.576172" xlink:href="#DejaVuSans-48"/>
       <use x="354.199219" xlink:href="#DejaVuSans-55"/>
      </g>
     </g>
    </g>
    <g id="xtick_4">
     <g id="line2d_4">
      <g>
       <use style="stroke:#000000;stroke-width:0.8;" x="366.18577" xlink:href="#m48aa111ecc" y="460.8"/>
      </g>
     </g>
     <g id="text_4">
      <!-- 2020-10 -->
      <g transform="translate(321.515985 500.766215)rotate(-30)scale(0.12 -0.12)">
       <use xlink:href="#DejaVuSans-50"/>
       <use x="63.623047" xlink:href="#DejaVuSans-48"/>
       <use x="127.246094" xlink:href="#DejaVuSans-50"/>
       <use x="190.869141" xlink:href="#DejaVuSans-48"/>
       <use x="254.492188" xlink:href="#DejaVuSans-45"/>
       <use x="290.576172" xlink:href="#DejaVuSans-49"/>
       <use x="354.199219" xlink:href="#DejaVuSans-48"/>
      </g>
     </g>
    </g>
    <g id="xtick_5">
     <g id="line2d_5">
      <g>
       <use style="stroke:#000000;stroke-width:0.8;" x="443.218657" xlink:href="#m48aa111ecc" y="460.8"/>
      </g>
     </g>
     <g id="text_5">
      <!-- 2021-01 -->
      <g transform="translate(398.548872 500.766215)rotate(-30)scale(0.12 -0.12)">
       <use xlink:href="#DejaVuSans-50"/>
       <use x="63.623047" xlink:href="#DejaVuSans-48"/>
       <use x="127.246094" xlink:href="#DejaVuSans-50"/>
       <use x="190.869141" xlink:href="#DejaVuSans-49"/>
       <use x="254.492188" xlink:href="#DejaVuSans-45"/>
       <use x="290.576172" xlink:href="#DejaVuSans-48"/>
       <use x="354.199219" xlink:href="#DejaVuSans-49"/>
      </g>
     </g>
    </g>
    <g id="xtick_6">
     <g id="line2d_6">
      <g>
       <use style="stroke:#000000;stroke-width:0.8;" x="518.576916" xlink:href="#m48aa111ecc" y="460.8"/>
      </g>
     </g>
     <g id="text_6">
      <!-- 2021-04 -->
      <g transform="translate(473.907131 500.766215)rotate(-30)scale(0.12 -0.12)">
       <use xlink:href="#DejaVuSans-50"/>
       <use x="63.623047" xlink:href="#DejaVuSans-48"/>
       <use x="127.246094" xlink:href="#DejaVuSans-50"/>
       <use x="190.869141" xlink:href="#DejaVuSans-49"/>
       <use x="254.492188" xlink:href="#DejaVuSans-45"/>
       <use x="290.576172" xlink:href="#DejaVuSans-48"/>
       <use x="354.199219" xlink:href="#DejaVuSans-52"/>
      </g>
     </g>
    </g>
    <g id="xtick_7">
     <g id="line2d_7">
      <g>
       <use style="stroke:#000000;stroke-width:0.8;" x="594.77249" xlink:href="#m48aa111ecc" y="460.8"/>
      </g>
     </g>
     <g id="text_7">
      <!-- 2021-07 -->
      <g transform="translate(550.102705 500.766215)rotate(-30)scale(0.12 -0.12)">
       <use xlink:href="#DejaVuSans-50"/>
       <use x="63.623047" xlink:href="#DejaVuSans-48"/>
       <use x="127.246094" xlink:href="#DejaVuSans-50"/>
       <use x="190.869141" xlink:href="#DejaVuSans-49"/>
       <use x="254.492188" xlink:href="#DejaVuSans-45"/>
       <use x="290.576172" xlink:href="#DejaVuSans-48"/>
       <use x="354.199219" xlink:href="#DejaVuSans-55"/>
      </g>
     </g>
    </g>
    <g id="xtick_8">
     <g id="line2d_8">
      <g>
       <use style="stroke:#000000;stroke-width:0.8;" x="671.805377" xlink:href="#m48aa111ecc" y="460.8"/>
      </g>
     </g>
     <g id="text_8">
      <!-- 2021-10 -->
      <g transform="translate(627.135592 500.766215)rotate(-30)scale(0.12 -0.12)">
       <use xlink:href="#DejaVuSans-50"/>
       <use x="63.623047" xlink:href="#DejaVuSans-48"/>
       <use x="127.246094" xlink:href="#DejaVuSans-50"/>
       <use x="190.869141" xlink:href="#DejaVuSans-49"/>
       <use x="254.492188" xlink:href="#DejaVuSans-45"/>
       <use x="290.576172" xlink:href="#DejaVuSans-49"/>
       <use x="354.199219" xlink:href="#DejaVuSans-48"/>
      </g>
     </g>
    </g>
    <g id="xtick_9">
     <g id="line2d_9">
      <g>
       <use style="stroke:#000000;stroke-width:0.8;" x="748.838264" xlink:href="#m48aa111ecc" y="460.8"/>
      </g>
     </g>
     <g id="text_9">
      <!-- 2022-01 -->
      <g transform="translate(704.168479 500.766215)rotate(-30)scale(0.12 -0.12)">
       <use xlink:href="#DejaVuSans-50"/>
       <use x="63.623047" xlink:href="#DejaVuSans-48"/>
       <use x="127.246094" xlink:href="#DejaVuSans-50"/>
       <use x="190.869141" xlink:href="#DejaVuSans-50"/>
       <use x="254.492188" xlink:href="#DejaVuSans-45"/>
       <use x="290.576172" xlink:href="#DejaVuSans-48"/>
       <use x="354.199219" xlink:href="#DejaVuSans-49"/>
      </g>
     </g>
    </g>
    <g id="text_10">
     <!-- Date -->
     <g transform="translate(424.873828 518.325146)scale(0.15 -0.15)">
      <defs>
       <path d="M 19.671875 64.796875 
L 19.671875 8.109375 
L 31.59375 8.109375 
Q 46.6875 8.109375 53.6875 14.9375 
Q 60.6875 21.78125 60.6875 36.53125 
Q 60.6875 51.171875 53.6875 57.984375 
Q 46.6875 64.796875 31.59375 64.796875 
z
M 9.8125 72.90625 
L 30.078125 72.90625 
Q 51.265625 72.90625 61.171875 64.09375 
Q 71.09375 55.28125 71.09375 36.53125 
Q 71.09375 17.671875 61.125 8.828125 
Q 51.171875 0 30.078125 0 
L 9.8125 0 
z
" id="DejaVuSans-68"/>
       <path d="M 34.28125 27.484375 
Q 23.390625 27.484375 19.1875 25 
Q 14.984375 22.515625 14.984375 16.5 
Q 14.984375 11.71875 18.140625 8.90625 
Q 21.296875 6.109375 26.703125 6.109375 
Q 34.1875 6.109375 38.703125 11.40625 
Q 43.21875 16.703125 43.21875 25.484375 
L 43.21875 27.484375 
z
M 52.203125 31.203125 
L 52.203125 0 
L 43.21875 0 
L 43.21875 8.296875 
Q 40.140625 3.328125 35.546875 0.953125 
Q 30.953125 -1.421875 24.3125 -1.421875 
Q 15.921875 -1.421875 10.953125 3.296875 
Q 6 8.015625 6 15.921875 
Q 6 25.140625 12.171875 29.828125 
Q 18.359375 34.515625 30.609375 34.515625 
L 43.21875 34.515625 
L 43.21875 35.40625 
Q 43.21875 41.609375 39.140625 45 
Q 35.0625 48.390625 27.6875 48.390625 
Q 23 48.390625 18.546875 47.265625 
Q 14.109375 46.140625 10.015625 43.890625 
L 10.015625 52.203125 
Q 14.9375 54.109375 19.578125 55.046875 
Q 24.21875 56 28.609375 56 
Q 40.484375 56 46.34375 49.84375 
Q 52.203125 43.703125 52.203125 31.203125 
z
" id="DejaVuSans-97"/>
       <path d="M 18.3125 70.21875 
L 18.3125 54.6875 
L 36.8125 54.6875 
L 36.8125 47.703125 
L 18.3125 47.703125 
L 18.3125 18.015625 
Q 18.3125 11.328125 20.140625 9.421875 
Q 21.96875 7.515625 27.59375 7.515625 
L 36.8125 7.515625 
L 36.8125 0 
L 27.59375 0 
Q 17.1875 0 13.234375 3.875 
Q 9.28125 7.765625 9.28125 18.015625 
L 9.28125 47.703125 
L 2.6875 47.703125 
L 2.6875 54.6875 
L 9.28125 54.6875 
L 9.28125 70.21875 
z
" id="DejaVuSans-116"/>
       <path d="M 56.203125 29.59375 
L 56.203125 25.203125 
L 14.890625 25.203125 
Q 15.484375 15.921875 20.484375 11.0625 
Q 25.484375 6.203125 34.421875 6.203125 
Q 39.59375 6.203125 44.453125 7.46875 
Q 49.3125 8.734375 54.109375 11.28125 
L 54.109375 2.78125 
Q 49.265625 0.734375 44.1875 -0.34375 
Q 39.109375 -1.421875 33.890625 -1.421875 
Q 20.796875 -1.421875 13.15625 6.1875 
Q 5.515625 13.8125 5.515625 26.8125 
Q 5.515625 40.234375 12.765625 48.109375 
Q 20.015625 56 32.328125 56 
Q 43.359375 56 49.78125 48.890625 
Q 56.203125 41.796875 56.203125 29.59375 
z
M 47.21875 32.234375 
Q 47.125 39.59375 43.09375 43.984375 
Q 39.0625 48.390625 32.421875 48.390625 
Q 24.90625 48.390625 20.390625 44.140625 
Q 15.875 39.890625 15.1875 32.171875 
z
" id="DejaVuSans-101"/>
      </defs>
      <use xlink:href="#DejaVuSans-68"/>
      <use x="77.001953" xlink:href="#DejaVuSans-97"/>
      <use x="138.28125" xlink:href="#DejaVuSans-116"/>
      <use x="177.490234" xlink:href="#DejaVuSans-101"/>
     </g>
    </g>
   </g>
   <g id="matplotlib.axis_2">
    <g id="ytick_1">
     <g id="line2d_10">
      <defs>
       <path d="M 0 0 
L -3.5 0 
" id="me3786693a3" style="stroke:#000000;stroke-width:0.8;"/>
      </defs>
      <g>
       <use style="stroke:#000000;stroke-width:0.8;" x="108" xlink:href="#me3786693a3" y="409.882826"/>
      </g>
     </g>
     <g id="text_11">
      <!-- 20 -->
      <g transform="translate(85.73 414.441889)scale(0.12 -0.12)">
       <use xlink:href="#DejaVuSans-50"/>
       <use x="63.623047" xlink:href="#DejaVuSans-48"/>
      </g>
     </g>
    </g>
    <g id="ytick_2">
     <g id="line2d_11">
      <g>
       <use style="stroke:#000000;stroke-width:0.8;" x="108" xlink:href="#me3786693a3" y="351.014316"/>
      </g>
     </g>
     <g id="text_12">
      <!-- 40 -->
      <g transform="translate(85.73 355.573378)scale(0.12 -0.12)">
       <use xlink:href="#DejaVuSans-52"/>
       <use x="63.623047" xlink:href="#DejaVuSans-48"/>
      </g>
     </g>
    </g>
    <g id="ytick_3">
     <g id="line2d_12">
      <g>
       <use style="stroke:#000000;stroke-width:0.8;" x="108" xlink:href="#me3786693a3" y="292.145805"/>
      </g>
     </g>
     <g id="text_13">
      <!-- 60 -->
      <g transform="translate(85.73 296.704868)scale(0.12 -0.12)">
       <defs>
        <path d="M 33.015625 40.375 
Q 26.375 40.375 22.484375 35.828125 
Q 18.609375 31.296875 18.609375 23.390625 
Q 18.609375 15.53125 22.484375 10.953125 
Q 26.375 6.390625 33.015625 6.390625 
Q 39.65625 6.390625 43.53125 10.953125 
Q 47.40625 15.53125 47.40625 23.390625 
Q 47.40625 31.296875 43.53125 35.828125 
Q 39.65625 40.375 33.015625 40.375 
z
M 52.59375 71.296875 
L 52.59375 62.3125 
Q 48.875 64.0625 45.09375 64.984375 
Q 41.3125 65.921875 37.59375 65.921875 
Q 27.828125 65.921875 22.671875 59.328125 
Q 17.53125 52.734375 16.796875 39.40625 
Q 19.671875 43.65625 24.015625 45.921875 
Q 28.375 48.1875 33.59375 48.1875 
Q 44.578125 48.1875 50.953125 41.515625 
Q 57.328125 34.859375 57.328125 23.390625 
Q 57.328125 12.15625 50.6875 5.359375 
Q 44.046875 -1.421875 33.015625 -1.421875 
Q 20.359375 -1.421875 13.671875 8.265625 
Q 6.984375 17.96875 6.984375 36.375 
Q 6.984375 53.65625 15.1875 63.9375 
Q 23.390625 74.21875 37.203125 74.21875 
Q 40.921875 74.21875 44.703125 73.484375 
Q 48.484375 72.75 52.59375 71.296875 
z
" id="DejaVuSans-54"/>
       </defs>
       <use xlink:href="#DejaVuSans-54"/>
       <use x="63.623047" xlink:href="#DejaVuSans-48"/>
      </g>
     </g>
    </g>
    <g id="ytick_4">
     <g id="line2d_13">
      <g>
       <use style="stroke:#000000;stroke-width:0.8;" x="108" xlink:href="#me3786693a3" y="233.277295"/>
      </g>
     </g>
     <g id="text_14">
      <!-- 80 -->
      <g transform="translate(85.73 237.836357)scale(0.12 -0.12)">
       <defs>
        <path d="M 31.78125 34.625 
Q 24.75 34.625 20.71875 30.859375 
Q 16.703125 27.09375 16.703125 20.515625 
Q 16.703125 13.921875 20.71875 10.15625 
Q 24.75 6.390625 31.78125 6.390625 
Q 38.8125 6.390625 42.859375 10.171875 
Q 46.921875 13.96875 46.921875 20.515625 
Q 46.921875 27.09375 42.890625 30.859375 
Q 38.875 34.625 31.78125 34.625 
z
M 21.921875 38.8125 
Q 15.578125 40.375 12.03125 44.71875 
Q 8.5 49.078125 8.5 55.328125 
Q 8.5 64.0625 14.71875 69.140625 
Q 20.953125 74.21875 31.78125 74.21875 
Q 42.671875 74.21875 48.875 69.140625 
Q 55.078125 64.0625 55.078125 55.328125 
Q 55.078125 49.078125 51.53125 44.71875 
Q 48 40.375 41.703125 38.8125 
Q 48.828125 37.15625 52.796875 32.3125 
Q 56.78125 27.484375 56.78125 20.515625 
Q 56.78125 9.90625 50.3125 4.234375 
Q 43.84375 -1.421875 31.78125 -1.421875 
Q 19.734375 -1.421875 13.25 4.234375 
Q 6.78125 9.90625 6.78125 20.515625 
Q 6.78125 27.484375 10.78125 32.3125 
Q 14.796875 37.15625 21.921875 38.8125 
z
M 18.3125 54.390625 
Q 18.3125 48.734375 21.84375 45.5625 
Q 25.390625 42.390625 31.78125 42.390625 
Q 38.140625 42.390625 41.71875 45.5625 
Q 45.3125 48.734375 45.3125 54.390625 
Q 45.3125 60.0625 41.71875 63.234375 
Q 38.140625 66.40625 31.78125 66.40625 
Q 25.390625 66.40625 21.84375 63.234375 
Q 18.3125 60.0625 18.3125 54.390625 
z
" id="DejaVuSans-56"/>
       </defs>
       <use xlink:href="#DejaVuSans-56"/>
       <use x="63.623047" xlink:href="#DejaVuSans-48"/>
      </g>
     </g>
    </g>
    <g id="ytick_5">
     <g id="line2d_14">
      <g>
       <use style="stroke:#000000;stroke-width:0.8;" x="108" xlink:href="#me3786693a3" y="174.408784"/>
      </g>
     </g>
     <g id="text_15">
      <!-- 100 -->
      <g transform="translate(78.095 178.967847)scale(0.12 -0.12)">
       <use xlink:href="#DejaVuSans-49"/>
       <use x="63.623047" xlink:href="#DejaVuSans-48"/>
       <use x="127.246094" xlink:href="#DejaVuSans-48"/>
      </g>
     </g>
    </g>
    <g id="ytick_6">
     <g id="line2d_15">
      <g>
       <use style="stroke:#000000;stroke-width:0.8;" x="108" xlink:href="#me3786693a3" y="115.540273"/>
      </g>
     </g>
     <g id="text_16">
      <!-- 120 -->
      <g transform="translate(78.095 120.099336)scale(0.12 -0.12)">
       <use xlink:href="#DejaVuSans-49"/>
       <use x="63.623047" xlink:href="#DejaVuSans-50"/>
       <use x="127.246094" xlink:href="#DejaVuSans-48"/>
      </g>
     </g>
    </g>
    <g id="text_17">
     <!-- PM10(micro-gram/m3) -->
     <g transform="translate(70.975469 349.562344)rotate(-90)scale(0.15 -0.15)">
      <defs>
       <path d="M 19.671875 64.796875 
L 19.671875 37.40625 
L 32.078125 37.40625 
Q 38.96875 37.40625 42.71875 40.96875 
Q 46.484375 44.53125 46.484375 51.125 
Q 46.484375 57.671875 42.71875 61.234375 
Q 38.96875 64.796875 32.078125 64.796875 
z
M 9.8125 72.90625 
L 32.078125 72.90625 
Q 44.34375 72.90625 50.609375 67.359375 
Q 56.890625 61.8125 56.890625 51.125 
Q 56.890625 40.328125 50.609375 34.8125 
Q 44.34375 29.296875 32.078125 29.296875 
L 19.671875 29.296875 
L 19.671875 0 
L 9.8125 0 
z
" id="DejaVuSans-80"/>
       <path d="M 9.8125 72.90625 
L 24.515625 72.90625 
L 43.109375 23.296875 
L 61.8125 72.90625 
L 76.515625 72.90625 
L 76.515625 0 
L 66.890625 0 
L 66.890625 64.015625 
L 48.09375 14.015625 
L 38.1875 14.015625 
L 19.390625 64.015625 
L 19.390625 0 
L 9.8125 0 
z
" id="DejaVuSans-77"/>
       <path d="M 31 75.875 
Q 24.46875 64.65625 21.28125 53.65625 
Q 18.109375 42.671875 18.109375 31.390625 
Q 18.109375 20.125 21.3125 9.0625 
Q 24.515625 -2 31 -13.1875 
L 23.1875 -13.1875 
Q 15.875 -1.703125 12.234375 9.375 
Q 8.59375 20.453125 8.59375 31.390625 
Q 8.59375 42.28125 12.203125 53.3125 
Q 15.828125 64.359375 23.1875 75.875 
z
" id="DejaVuSans-40"/>
       <path d="M 52 44.1875 
Q 55.375 50.25 60.0625 53.125 
Q 64.75 56 71.09375 56 
Q 79.640625 56 84.28125 50.015625 
Q 88.921875 44.046875 88.921875 33.015625 
L 88.921875 0 
L 79.890625 0 
L 79.890625 32.71875 
Q 79.890625 40.578125 77.09375 44.375 
Q 74.3125 48.1875 68.609375 48.1875 
Q 61.625 48.1875 57.5625 43.546875 
Q 53.515625 38.921875 53.515625 30.90625 
L 53.515625 0 
L 44.484375 0 
L 44.484375 32.71875 
Q 44.484375 40.625 41.703125 44.40625 
Q 38.921875 48.1875 33.109375 48.1875 
Q 26.21875 48.1875 22.15625 43.53125 
Q 18.109375 38.875 18.109375 30.90625 
L 18.109375 0 
L 9.078125 0 
L 9.078125 54.6875 
L 18.109375 54.6875 
L 18.109375 46.1875 
Q 21.1875 51.21875 25.484375 53.609375 
Q 29.78125 56 35.6875 56 
Q 41.65625 56 45.828125 52.96875 
Q 50 49.953125 52 44.1875 
z
" id="DejaVuSans-109"/>
       <path d="M 9.421875 54.6875 
L 18.40625 54.6875 
L 18.40625 0 
L 9.421875 0 
z
M 9.421875 75.984375 
L 18.40625 75.984375 
L 18.40625 64.59375 
L 9.421875 64.59375 
z
" id="DejaVuSans-105"/>
       <path d="M 48.78125 52.59375 
L 48.78125 44.1875 
Q 44.96875 46.296875 41.140625 47.34375 
Q 37.3125 48.390625 33.40625 48.390625 
Q 24.65625 48.390625 19.8125 42.84375 
Q 14.984375 37.3125 14.984375 27.296875 
Q 14.984375 17.28125 19.8125 11.734375 
Q 24.65625 6.203125 33.40625 6.203125 
Q 37.3125 6.203125 41.140625 7.25 
Q 44.96875 8.296875 48.78125 10.40625 
L 48.78125 2.09375 
Q 45.015625 0.34375 40.984375 -0.53125 
Q 36.96875 -1.421875 32.421875 -1.421875 
Q 20.0625 -1.421875 12.78125 6.34375 
Q 5.515625 14.109375 5.515625 27.296875 
Q 5.515625 40.671875 12.859375 48.328125 
Q 20.21875 56 33.015625 56 
Q 37.15625 56 41.109375 55.140625 
Q 45.0625 54.296875 48.78125 52.59375 
z
" id="DejaVuSans-99"/>
       <path d="M 41.109375 46.296875 
Q 39.59375 47.171875 37.8125 47.578125 
Q 36.03125 48 33.890625 48 
Q 26.265625 48 22.1875 43.046875 
Q 18.109375 38.09375 18.109375 28.8125 
L 18.109375 0 
L 9.078125 0 
L 9.078125 54.6875 
L 18.109375 54.6875 
L 18.109375 46.1875 
Q 20.953125 51.171875 25.484375 53.578125 
Q 30.03125 56 36.53125 56 
Q 37.453125 56 38.578125 55.875 
Q 39.703125 55.765625 41.0625 55.515625 
z
" id="DejaVuSans-114"/>
       <path d="M 30.609375 48.390625 
Q 23.390625 48.390625 19.1875 42.75 
Q 14.984375 37.109375 14.984375 27.296875 
Q 14.984375 17.484375 19.15625 11.84375 
Q 23.34375 6.203125 30.609375 6.203125 
Q 37.796875 6.203125 41.984375 11.859375 
Q 46.1875 17.53125 46.1875 27.296875 
Q 46.1875 37.015625 41.984375 42.703125 
Q 37.796875 48.390625 30.609375 48.390625 
z
M 30.609375 56 
Q 42.328125 56 49.015625 48.375 
Q 55.71875 40.765625 55.71875 27.296875 
Q 55.71875 13.875 49.015625 6.21875 
Q 42.328125 -1.421875 30.609375 -1.421875 
Q 18.84375 -1.421875 12.171875 6.21875 
Q 5.515625 13.875 5.515625 27.296875 
Q 5.515625 40.765625 12.171875 48.375 
Q 18.84375 56 30.609375 56 
z
" id="DejaVuSans-111"/>
       <path d="M 45.40625 27.984375 
Q 45.40625 37.75 41.375 43.109375 
Q 37.359375 48.484375 30.078125 48.484375 
Q 22.859375 48.484375 18.828125 43.109375 
Q 14.796875 37.75 14.796875 27.984375 
Q 14.796875 18.265625 18.828125 12.890625 
Q 22.859375 7.515625 30.078125 7.515625 
Q 37.359375 7.515625 41.375 12.890625 
Q 45.40625 18.265625 45.40625 27.984375 
z
M 54.390625 6.78125 
Q 54.390625 -7.171875 48.1875 -13.984375 
Q 42 -20.796875 29.203125 -20.796875 
Q 24.46875 -20.796875 20.265625 -20.09375 
Q 16.0625 -19.390625 12.109375 -17.921875 
L 12.109375 -9.1875 
Q 16.0625 -11.328125 19.921875 -12.34375 
Q 23.78125 -13.375 27.78125 -13.375 
Q 36.625 -13.375 41.015625 -8.765625 
Q 45.40625 -4.15625 45.40625 5.171875 
L 45.40625 9.625 
Q 42.625 4.78125 38.28125 2.390625 
Q 33.9375 0 27.875 0 
Q 17.828125 0 11.671875 7.65625 
Q 5.515625 15.328125 5.515625 27.984375 
Q 5.515625 40.671875 11.671875 48.328125 
Q 17.828125 56 27.875 56 
Q 33.9375 56 38.28125 53.609375 
Q 42.625 51.21875 45.40625 46.390625 
L 45.40625 54.6875 
L 54.390625 54.6875 
z
" id="DejaVuSans-103"/>
       <path d="M 25.390625 72.90625 
L 33.6875 72.90625 
L 8.296875 -9.28125 
L 0 -9.28125 
z
" id="DejaVuSans-47"/>
       <path d="M 40.578125 39.3125 
Q 47.65625 37.796875 51.625 33 
Q 55.609375 28.21875 55.609375 21.1875 
Q 55.609375 10.40625 48.1875 4.484375 
Q 40.765625 -1.421875 27.09375 -1.421875 
Q 22.515625 -1.421875 17.65625 -0.515625 
Q 12.796875 0.390625 7.625 2.203125 
L 7.625 11.71875 
Q 11.71875 9.328125 16.59375 8.109375 
Q 21.484375 6.890625 26.8125 6.890625 
Q 36.078125 6.890625 40.9375 10.546875 
Q 45.796875 14.203125 45.796875 21.1875 
Q 45.796875 27.640625 41.28125 31.265625 
Q 36.765625 34.90625 28.71875 34.90625 
L 20.21875 34.90625 
L 20.21875 43.015625 
L 29.109375 43.015625 
Q 36.375 43.015625 40.234375 45.921875 
Q 44.09375 48.828125 44.09375 54.296875 
Q 44.09375 59.90625 40.109375 62.90625 
Q 36.140625 65.921875 28.71875 65.921875 
Q 24.65625 65.921875 20.015625 65.03125 
Q 15.375 64.15625 9.8125 62.3125 
L 9.8125 71.09375 
Q 15.4375 72.65625 20.34375 73.4375 
Q 25.25 74.21875 29.59375 74.21875 
Q 40.828125 74.21875 47.359375 69.109375 
Q 53.90625 64.015625 53.90625 55.328125 
Q 53.90625 49.265625 50.4375 45.09375 
Q 46.96875 40.921875 40.578125 39.3125 
z
" id="DejaVuSans-51"/>
       <path d="M 8.015625 75.875 
L 15.828125 75.875 
Q 23.140625 64.359375 26.78125 53.3125 
Q 30.421875 42.28125 30.421875 31.390625 
Q 30.421875 20.453125 26.78125 9.375 
Q 23.140625 -1.703125 15.828125 -13.1875 
L 8.015625 -13.1875 
Q 14.5 -2 17.703125 9.0625 
Q 20.90625 20.125 20.90625 31.390625 
Q 20.90625 42.671875 17.703125 53.65625 
Q 14.5 64.65625 8.015625 75.875 
z
" id="DejaVuSans-41"/>
      </defs>
      <use xlink:href="#DejaVuSans-80"/>
      <use x="60.302734" xlink:href="#DejaVuSans-77"/>
      <use x="146.582031" xlink:href="#DejaVuSans-49"/>
      <use x="210.205078" xlink:href="#DejaVuSans-48"/>
      <use x="273.828125" xlink:href="#DejaVuSans-40"/>
      <use x="312.841797" xlink:href="#DejaVuSans-109"/>
      <use x="410.253906" xlink:href="#DejaVuSans-105"/>
      <use x="438.037109" xlink:href="#DejaVuSans-99"/>
      <use x="493.017578" xlink:href="#DejaVuSans-114"/>
      <use x="531.880859" xlink:href="#DejaVuSans-111"/>
      <use x="594.9375" xlink:href="#DejaVuSans-45"/>
      <use x="631.021484" xlink:href="#DejaVuSans-103"/>
      <use x="694.498047" xlink:href="#DejaVuSans-114"/>
      <use x="735.611328" xlink:href="#DejaVuSans-97"/>
      <use x="796.890625" xlink:href="#DejaVuSans-109"/>
      <use x="894.302734" xlink:href="#DejaVuSans-47"/>
      <use x="927.994141" xlink:href="#DejaVuSans-109"/>
      <use x="1025.40625" xlink:href="#DejaVuSans-51"/>
      <use x="1089.029297" xlink:href="#DejaVuSans-41"/>
     </g>
    </g>
   </g>
   <g id="line2d_16">
    <path clip-path="url(#pb55c76b608)" d="M 138.436364 291.655234 
L 139.273678 354.570955 
L 140.110992 354.32567 
L 140.948306 314.098854 
L 141.78562 295.334516 
L 142.622934 318.759278 
L 143.460248 319.127206 
L 144.297562 276.570178 
L 145.134876 312.627141 
L 145.97219 292.391091 
L 146.809504 326.48577 
L 147.646818 304.187091 
L 148.484132 303.183651 
L 149.321446 328.938624 
L 150.15876 334.948118 
L 150.996074 289.447665 
L 151.833388 341.938754 
L 152.670702 302.202509 
L 154.345329 336.174545 
L 155.182643 359.844592 
L 156.019957 375.91079 
L 156.857271 413.316823 
L 157.694585 420.184816 
L 158.531899 408.656399 
L 159.369213 380.693857 
L 160.206527 366.099372 
L 161.043841 353.823949 
L 161.881155 349.052032 
L 162.718469 334.334904 
L 163.555783 335.070761 
L 164.393097 390.137347 
L 165.230411 391.582398 
L 166.067725 362.42009 
L 166.905039 338.382115 
L 167.742353 418.467818 
L 168.579667 397.127982 
L 169.416981 369.288083 
L 170.254295 347.089748 
L 171.091609 314.344139 
L 171.928923 387.561849 
L 172.766237 391.486417 
L 173.603551 370.146582 
L 174.440865 435.515157 
L 175.278179 385.844851 
L 176.115493 394.653799 
L 176.952807 363.891803 
L 178.627435 369.288083 
L 179.464749 317.04228 
L 180.302063 336.174545 
L 181.139377 305.636506 
L 181.976691 316.796994 
L 182.814005 340.846119 
L 183.651319 368.552226 
L 184.488633 352.275784 
L 185.325947 359.476664 
L 186.163261 342.429325 
L 187.000575 346.407215 
L 187.837889 354.448312 
L 188.675203 391.820897 
L 189.512517 404.977117 
L 190.349831 362.297447 
L 191.187145 285.645741 
L 192.024459 359.844592 
L 192.861773 363.401232 
L 193.699087 362.174804 
L 194.536401 358.740808 
L 195.373715 260.871909 
L 196.211029 236.711291 
L 197.048343 365.731443 
L 197.885657 294.108089 
L 198.722971 281.10796 
L 199.560285 273.281123 
L 200.397599 300.117583 
L 201.234913 351.627529 
L 202.072227 272.400326 
L 202.909541 291.042021 
L 203.746855 332.740549 
L 204.584169 359.599307 
L 205.421483 336.041238 
L 206.258797 341.816111 
L 207.096111 341.32554 
L 207.933425 363.523874 
L 208.770739 351.627529 
L 209.608053 371.986223 
L 210.445367 358.004951 
L 211.282681 361.684233 
L 212.119995 333.721691 
L 212.957309 323.419701 
L 213.794623 369.656011 
L 214.631937 382.778783 
L 215.469251 406.939401 
L 216.306565 399.335552 
L 217.981193 324.768772 
L 218.818507 350.155817 
L 219.655821 329.797123 
L 220.493135 276.938107 
L 221.330449 383.759925 
L 222.167763 350.033174 
L 223.005077 306.617647 
L 223.842391 256.088843 
L 224.679705 325.504628 
L 225.517019 353.589813 
L 226.354333 320.230991 
L 227.191647 348.929389 
L 228.028961 371.083126 
L 228.866275 388.665634 
L 229.703589 392.344916 
L 230.540903 379.835357 
L 231.378217 347.457677 
L 232.215531 293.985446 
L 233.052845 155.276518 
L 233.890159 210.220461 
L 234.727473 311.891285 
L 235.564787 305.145935 
L 236.402101 321.212132 
L 237.239415 368.061655 
L 238.076729 367.571084 
L 238.914043 371.986223 
L 240.588671 399.580837 
L 241.425985 391.854345 
L 242.263299 404.731832 
L 243.100613 407.920543 
L 243.937927 407.7979 
L 244.775241 405.712974 
L 245.612555 382.288212 
L 246.449869 332.740549 
L 247.287183 290.428807 
L 248.961811 377.627788 
L 249.799125 395.165699 
L 250.636439 401.543121 
L 251.473753 396.637412 
L 252.311067 398.477052 
L 253.148381 398.911877 
L 253.985695 374.807006 
L 254.823009 360.212521 
L 255.660323 414.665893 
L 256.497637 415.156464 
L 257.334951 401.911049 
L 258.172265 380.448571 
L 259.009579 317.410208 
L 259.846893 323.78763 
L 260.684207 383.514639 
L 261.521521 404.609189 
L 262.358835 402.3323 
L 263.196149 401.297835 
L 264.033463 400.02875 
L 264.870777 403.014834 
L 265.708091 410.819371 
L 266.545405 402.646905 
L 267.382719 409.514898 
L 268.220033 389.892061 
L 269.057347 389.769419 
L 269.89466 384.127853 
L 270.731974 410.128112 
L 271.569288 418.980687 
L 272.406602 421.656529 
L 273.243916 408.411114 
L 274.08123 426.19431 
L 274.918544 408.779042 
L 276.593172 416.628177 
L 277.430486 416.750819 
L 278.2678 419.571602 
L 279.105114 425.826381 
L 279.942428 426.19431 
L 280.779742 405.835616 
L 281.617056 404.486546 
L 282.45437 405.590331 
L 283.291684 407.429972 
L 284.128998 415.647035 
L 284.966312 414.788536 
L 285.803626 422.269742 
L 286.64094 427.159455 
L 287.478254 429.750949 
L 288.315568 440.052938 
L 289.152882 424.599954 
L 289.990196 412.826252 
L 290.82751 410.005469 
L 291.664824 420.920672 
L 292.502138 413.19418 
L 293.339452 408.779042 
L 294.176766 394.552485 
L 295.01408 387.807135 
L 295.851394 386.70335 
L 296.688708 396.637412 
L 297.526022 417.854604 
L 298.363336 389.524133 
L 299.20065 396.514769 
L 300.037964 397.495911 
L 300.875278 413.082202 
L 301.712592 417.731961 
L 302.549906 421.656529 
L 303.38722 420.307459 
L 304.224534 424.471979 
L 305.061848 422.024457 
L 305.899162 426.439595 
L 306.736476 423.741455 
L 307.57379 410.741326 
L 308.411104 403.628047 
L 309.248418 413.439466 
L 310.923046 420.307459 
L 311.76036 414.54325 
L 312.597674 422.325489 
L 313.434988 423.741455 
L 314.272302 419.974571 
L 315.109616 439.737571 
L 315.94693 442.996364 
L 317.621558 429.505663 
L 318.458872 424.232026 
L 319.296186 416.382891 
L 320.1335 415.89232 
L 320.970814 425.703739 
L 321.808128 418.222532 
L 322.645442 426.439595 
L 323.482756 423.576154 
L 324.32007 416.873462 
L 325.157384 416.382891 
L 325.994698 424.599954 
L 326.832012 427.54338 
L 327.669326 421.165958 
L 328.50664 390.25999 
L 329.343954 401.05255 
L 331.018582 348.561461 
L 331.855896 345.004822 
L 332.69321 391.363774 
L 333.530524 385.108995 
L 334.367838 385.108995 
L 335.205152 386.212779 
L 336.042466 371.618295 
L 336.87978 330.900908 
L 337.717094 337.033045 
L 338.554408 340.957612 
L 339.391722 361.193662 
L 340.229036 283.070243 
L 342.740978 361.316305 
L 343.578292 400.249797 
L 344.415606 399.458194 
L 345.25292 422.760313 
L 346.090234 430.364162 
L 346.927548 414.175322 
L 347.764862 402.40162 
L 348.602176 422.024457 
L 349.43949 407.7979 
L 350.276804 405.958259 
L 351.114118 407.062044 
L 351.951432 427.420737 
L 352.788746 423.741455 
L 353.62606 419.225003 
L 354.463374 418.958388 
L 355.300688 419.694245 
L 356.975316 431.958518 
L 357.81263 388.788277 
L 358.649944 387.231247 
L 359.487258 362.542732 
L 360.324572 352.294066 
L 361.161886 363.76916 
L 362.836514 380.816499 
L 363.673828 421.533886 
L 364.511142 418.713103 
L 365.348456 385.108995 
L 366.18577 360.212521 
L 367.023084 363.646517 
L 367.860398 345.37275 
L 368.697712 356.410596 
L 369.535026 334.457547 
L 370.37234 359.204717 
L 371.209654 349.787889 
L 372.046968 303.061008 
L 372.884282 275.589037 
L 373.721596 293.24959 
L 374.55891 293.617518 
L 375.396224 410.741326 
L 376.233538 366.01177 
L 377.070852 359.599307 
L 377.908166 317.287565 
L 379.582794 328.325411 
L 380.420108 340.099113 
L 381.257422 324.011586 
L 382.094736 324.155558 
L 382.93205 315.815852 
L 383.769364 266.268189 
L 384.606678 231.928225 
L 385.443991 258.296412 
L 386.281305 308.579931 
L 387.118619 322.070631 
L 387.955933 337.646258 
L 388.793247 329.18391 
L 389.630561 289.97023 
L 390.467875 300.240225 
L 391.305189 297.2968 
L 392.142503 227.145158 
L 392.979817 307.721432 
L 393.817131 270.80597 
L 394.654445 323.627661 
L 395.491759 205.192109 
L 396.329073 232.909366 
L 398.003701 212.673316 
L 398.841015 190.352339 
L 399.678329 254.739772 
L 400.515643 283.192886 
L 401.352957 287.85331 
L 402.190271 282.45703 
L 403.027585 318.759278 
L 403.864899 318.759278 
L 404.702213 370.391867 
L 405.539527 376.60932 
L 406.376841 393.571343 
L 407.214155 393.203415 
L 408.051469 384.495781 
L 408.888783 384.00521 
L 410.563411 269.702186 
L 411.400725 312.13657 
L 412.238039 287.485381 
L 413.075353 293.617518 
L 413.912667 315.693209 
L 414.749981 328.693339 
L 415.587295 321.720224 
L 416.424609 291.90052 
L 417.261923 296.438301 
L 418.099237 304.175457 
L 418.936551 302.815723 
L 419.773865 266.513475 
L 420.611179 213.899743 
L 421.448493 176.281873 
L 422.285807 239.041503 
L 423.123121 211.324246 
L 423.960435 197.58826 
L 424.797749 233.890508 
L 425.635063 217.536367 
L 426.472377 345.282382 
L 427.309691 277.428678 
L 428.147005 348.316176 
L 428.984319 313.773584 
L 429.821633 305.759148 
L 430.658947 303.674222 
L 431.496261 284.787241 
L 432.333575 256.211485 
L 433.170889 212.305388 
L 434.008203 199.673187 
L 434.845517 174.531427 
L 435.682831 284.909884 
L 436.520145 253.022774 
L 437.357459 306.249719 
L 438.194773 215.862027 
L 439.032087 308.08936 
L 439.869401 299.236785 
L 440.706715 252.777489 
L 441.544029 306.74029 
L 442.381343 323.378821 
L 443.218657 315.938495 
L 444.055971 258.541697 
L 444.893285 248.975564 
L 445.730599 181.522062 
L 446.567913 260.871909 
L 447.405227 194.89012 
L 448.242541 277.428678 
L 449.079855 301.834581 
L 449.917169 284.29667 
L 450.754483 293.004304 
L 451.591797 240.758501 
L 452.429111 230.088584 
L 453.266425 207.17039 
L 454.103739 252.777489 
L 454.941053 263.692692 
L 455.778367 86.923636 
L 456.615681 121.171174 
L 457.452995 220.522451 
L 458.290309 299.136441 
L 459.127623 220.890379 
L 459.964937 250.324634 
L 460.802251 220.433256 
L 462.476879 307.353504 
L 463.314193 243.824569 
L 464.151507 269.824828 
L 464.988821 251.449748 
L 465.826135 323.419701 
L 466.663449 239.409431 
L 467.500763 338.014186 
L 468.338077 340.712326 
L 469.175391 276.938107 
L 470.012705 285.15517 
L 470.850019 295.211873 
L 471.687333 322.070631 
L 472.524647 310.174287 
L 473.361961 319.372491 
L 474.199275 324.032915 
L 475.036589 308.782558 
L 475.873903 413.562108 
L 476.711217 402.033692 
L 477.548531 380.325928 
L 478.385845 371.127724 
L 480.060473 344.268966 
L 480.897787 340.957612 
L 481.735101 357.514381 
L 482.572415 312.995069 
L 483.409729 319.863062 
L 484.247043 312.627141 
L 485.084357 311.032786 
L 486.758985 333.23112 
L 487.596299 333.23112 
L 488.433613 368.802844 
L 489.270927 377.014575 
L 490.108241 336.910402 
L 490.945555 354.570955 
L 491.782869 357.146452 
L 492.620183 359.108736 
L 493.457497 350.646388 
L 494.294811 299.136441 
L 495.132125 289.938236 
L 495.969439 343.042538 
L 496.806753 350.646388 
L 497.644067 376.278718 
L 498.481381 323.499686 
L 499.318695 340.467041 
L 500.156009 377.889071 
L 500.993322 323.297059 
L 501.830636 341.080255 
L 502.66795 326.363127 
L 503.505264 362.297447 
L 504.342578 336.665116 
L 505.179892 354.81624 
L 506.017206 368.797512 
L 506.85452 391.241131 
L 507.691834 372.599436 
L 508.529148 303.674222 
L 509.366462 281.966459 
L 510.203776 149.144382 
L 511.04109 93.912495 
L 511.878404 193.173122 
L 512.715718 351.627529 
L 513.553032 337.27833 
L 514.390346 350.155817 
L 515.22766 391.731702 
L 516.064974 396.146841 
L 516.902288 398.722338 
L 517.739602 400.316693 
L 518.576916 394.3072 
L 519.41423 394.920413 
L 520.251544 291.164663 
L 521.088858 319.249849 
L 521.926172 299.627012 
L 522.763486 346.919115 
L 523.6008 329.674481 
L 524.438114 376.278718 
L 525.275428 335.92926 
L 526.112742 362.174804 
L 526.950056 379.835357 
L 527.78737 385.476923 
L 528.624684 371.618295 
L 529.461998 376.891932 
L 530.299312 363.891803 
L 531.136626 355.429454 
L 531.97394 140.55939 
L 532.811254 205.250765 
L 533.648568 308.702574 
L 534.485882 296.315658 
L 535.323196 296.806229 
L 536.16051 302.938366 
L 536.997824 368.429584 
L 537.835138 361.316305 
L 538.672452 371.618295 
L 539.509766 403.628047 
L 541.184394 322.561202 
L 543.696336 367.325799 
L 544.53365 361.806876 
L 545.370964 373.703221 
L 547.045592 315.94916 
L 547.882906 351.627529 
L 548.72022 367.080514 
L 550.394848 407.920543 
L 551.232162 402.646905 
L 552.069476 394.184557 
L 552.90679 393.816629 
L 553.744104 392.467559 
L 554.581418 386.825993 
L 555.418732 400.071408 
L 556.256046 403.137476 
L 557.09336 393.571343 
L 557.930674 396.024198 
L 558.767988 392.862148 
L 559.605302 405.915601 
L 560.442616 414.665893 
L 561.27993 431.345304 
L 562.117244 405.958259 
L 562.954558 425.581096 
L 563.791872 416.382891 
L 564.629186 412.335681 
L 565.4665 412.213038 
L 566.303814 402.033692 
L 567.141128 385.722209 
L 567.978442 384.127853 
L 568.815756 416.382891 
L 569.65307 399.948765 
L 570.490384 402.8442 
L 571.327698 376.646646 
L 572.165012 331.514122 
L 573.002326 302.938366 
L 573.83964 377.25986 
L 574.676954 391.60906 
L 575.514268 426.930166 
L 576.351582 427.052809 
L 577.188896 420.184816 
L 578.02621 414.665893 
L 578.863524 419.93953 
L 579.700838 405.835616 
L 580.538152 393.816629 
L 581.375466 377.137217 
L 582.21278 387.316564 
L 583.050094 385.311622 
L 583.887408 373.825864 
L 584.724722 368.674869 
L 585.562036 358.740808 
L 586.39935 400.194051 
L 587.236664 414.665893 
L 588.073978 420.430101 
L 588.911292 408.603076 
L 589.748606 378.363645 
L 590.58592 360.580449 
L 591.423234 371.250366 
L 592.260548 363.891803 
L 593.097862 365.363515 
L 593.935176 372.77007 
L 594.77249 361.806876 
L 595.609804 376.033433 
L 596.447118 393.816629 
L 597.284432 418.958388 
L 598.121746 420.920672 
L 598.95906 414.175322 
L 599.796374 422.515028 
L 600.633688 409.760184 
L 601.471002 424.477311 
L 602.308316 421.043315 
L 603.14563 423.250884 
L 603.982944 414.175322 
L 604.820258 417.24139 
L 605.657572 424.727929 
L 606.494886 404.363904 
L 607.3322 371.986223 
L 608.169514 422.147099 
L 609.006828 433.675516 
L 609.844142 427.175451 
L 610.681456 418.099889 
L 611.51877 400.316693 
L 612.356084 354.203027 
L 613.193398 325.872556 
L 614.030712 361.07102 
L 614.868026 388.297706 
L 615.70534 312.381856 
L 616.542653 354.448312 
L 617.379967 383.391997 
L 618.217281 408.165828 
L 619.054595 378.854216 
L 619.891909 384.741067 
L 620.729223 372.722079 
L 621.566537 417.854604 
L 622.403851 349.665246 
L 623.241165 362.910661 
L 624.078479 347.335034 
L 624.915793 349.052032 
L 626.590421 373.21265 
L 627.427735 370.146582 
L 628.265049 397.495911 
L 629.102363 408.859026 
L 629.939677 395.043056 
L 631.614305 417.731961 
L 632.451619 418.59046 
L 633.288933 395.778912 
L 634.963561 401.297835 
L 635.800875 412.458324 
L 636.638189 404.363904 
L 637.475503 417.364033 
L 638.312817 416.873462 
L 639.150131 419.081031 
L 639.987445 424.477311 
L 640.824759 426.391604 
L 641.662073 417.118748 
L 642.499387 411.191016 
L 643.336701 414.788536 
L 644.174015 409.514898 
L 645.011329 389.278848 
L 645.848643 422.515028 
L 646.685957 439.562367 
L 647.523271 434.901943 
L 648.360585 433.184945 
L 649.197899 436.618942 
L 650.872527 409.749034 
L 651.709841 412.335681 
L 652.547155 364.137088 
L 653.384469 386.580708 
L 654.221783 361.806876 
L 655.059097 342.429325 
L 655.896411 358.740808 
L 656.733725 399.212909 
L 657.571039 372.722079 
L 658.408353 382.042927 
L 659.245667 341.080255 
L 660.082981 363.76916 
L 660.920295 424.599954 
L 661.757609 422.882956 
L 662.594923 415.033821 
L 663.432237 435.024586 
L 665.106865 405.467688 
L 666.781493 345.740678 
L 667.618807 330.410337 
L 668.456121 319.004563 
L 669.293435 312.627141 
L 670.130749 300.853439 
L 670.968063 310.174287 
L 671.805377 376.278718 
L 672.642691 395.901555 
L 673.480005 356.778524 
L 674.317319 349.174675 
L 675.154633 323.78763 
L 675.991947 365.486158 
L 676.829261 429.974905 
L 677.666575 402.033692 
L 678.503889 417.854604 
L 679.341203 342.551967 
L 681.015831 418.222532 
L 682.690459 367.325799 
L 683.527773 376.646646 
L 684.365087 398.967623 
L 685.202401 351.995458 
L 686.039715 327.734496 
L 686.877029 373.703221 
L 687.714343 391.070498 
L 688.551657 400.561979 
L 689.388971 335.193404 
L 690.226285 372.722079 
L 691.063599 305.268577 
L 691.900913 286.136311 
L 692.738227 305.39122 
L 693.575541 309.929001 
L 694.412855 325.014057 
L 695.250169 300.976082 
L 696.087483 312.995069 
L 696.924797 296.438301 
L 697.762111 348.316176 
L 698.599425 307.598789 
L 699.436739 343.865997 
L 700.274053 349.41996 
L 701.111367 362.788018 
L 701.948681 385.844851 
L 702.785995 379.344787 
L 703.623309 322.806488 
L 704.460623 332.79311 
L 705.297937 328.325411 
L 706.135251 293.126947 
L 706.972565 304.655364 
L 707.809879 332.863192 
L 708.647193 322.929131 
L 709.484507 237.24452 
L 710.321821 219.173381 
L 711.159135 302.69308 
L 711.996449 220.522451 
L 712.833763 345.495393 
L 713.671077 340.344398 
L 714.508391 348.316176 
L 715.345705 207.154393 
L 716.183019 192.437265 
L 717.020333 100.332575 
L 717.857647 221.258307 
L 718.694961 204.824181 
L 719.532275 249.098207 
L 720.369589 237.079219 
L 721.206903 207.03175 
L 722.044217 254.739772 
L 722.881531 247.87178 
L 723.718845 258.296412 
L 724.556159 263.570049 
L 725.393473 270.315399 
L 726.230787 239.654717 
L 727.068101 245.418925 
L 727.905415 308.825217 
L 728.742729 196.852404 
L 729.580043 255.843557 
L 730.417357 284.541956 
L 731.254671 233.032009 
L 732.091984 159.323728 
L 732.929298 209.090015 
L 733.766612 308.947859 
L 734.603926 318.146064 
L 735.44124 312.381856 
L 736.278554 235.730149 
L 737.115868 244.069855 
L 737.953182 317.164922 
L 738.790496 409.024327 
L 739.62781 347.212391 
L 740.465124 301.589295 
L 741.302438 190.229696 
L 742.139752 279.145676 
L 742.977066 316.18378 
L 743.81438 363.76916 
L 745.489008 209.607248 
L 746.326322 287.282754 
L 747.163636 277.673963 
L 747.163636 277.673963 
" style="fill:none;stroke:#1f77b4;stroke-linecap:square;stroke-width:1.5;"/>
   </g>
   <g id="line2d_17">
    <path clip-path="url(#pb55c76b608)" d="M 138.436364 255.943189 
L 139.273678 280.485419 
L 140.110992 312.373794 
L 141.78562 214.577946 
L 142.622934 290.888743 
L 143.460248 238.805806 
L 144.297562 242.284776 
L 145.134876 225.514221 
L 145.97219 173.539132 
L 146.809504 307.866415 
L 147.646818 187.025662 
L 148.484132 271.843171 
L 149.321446 279.676601 
L 150.15876 239.266929 
L 150.996074 228.659576 
L 152.670702 200.754544 
L 153.508016 266.038736 
L 154.345329 250.927967 
L 155.182643 335.597554 
L 156.019957 289.730019 
L 156.857271 307.235678 
L 157.694585 311.919172 
L 158.531899 306.627903 
L 159.369213 314.035624 
L 160.206527 253.124869 
L 161.043841 237.10324 
L 162.718469 302.002122 
L 163.555783 219.96451 
L 164.393097 280.2845 
L 165.230411 263.119608 
L 166.067725 262.39388 
L 166.905039 202.821221 
L 167.742353 261.477315 
L 168.579667 272.274988 
L 169.416981 245.501228 
L 170.254295 180.199813 
L 171.091609 208.57742 
L 171.928923 256.911651 
L 172.766237 283.208871 
L 173.603551 273.16319 
L 174.440865 310.075096 
L 175.278179 234.248047 
L 176.115493 283.40549 
L 176.952807 256.91951 
L 177.790121 337.345797 
L 178.627435 268.775606 
L 179.464749 251.793151 
L 180.302063 303.866106 
L 181.139377 258.814889 
L 181.976691 258.654436 
L 182.814005 245.556157 
L 183.651319 316.721271 
L 184.488633 271.554874 
L 185.325947 305.222156 
L 186.163261 284.880661 
L 187.000575 313.203148 
L 187.837889 262.78148 
L 188.675203 266.97331 
L 190.349831 240.728469 
L 191.187145 213.789317 
L 192.024459 251.184825 
L 192.861773 297.880423 
L 193.699087 280.16703 
L 194.536401 273.310325 
L 195.373715 215.877754 
L 196.211029 191.020189 
L 197.048343 237.373168 
L 197.885657 209.560725 
L 198.722971 273.965091 
L 199.560285 206.35878 
L 200.397599 221.735838 
L 201.234913 268.076511 
L 202.072227 225.768676 
L 202.909541 259.350724 
L 203.746855 245.141744 
L 204.584169 314.865641 
L 205.421483 284.506164 
L 206.258797 320.674859 
L 207.096111 313.107899 
L 207.933425 263.614483 
L 208.770739 291.971239 
L 209.608053 311.468772 
L 210.445367 263.999501 
L 211.282681 258.214625 
L 212.119995 250.932818 
L 212.957309 203.556179 
L 213.794623 219.839494 
L 214.631937 270.058459 
L 215.469251 289.039895 
L 216.306565 292.676397 
L 217.143879 289.3449 
L 217.981193 198.200246 
L 218.818507 276.983813 
L 219.655821 328.070667 
L 220.493135 237.715675 
L 221.330449 258.542019 
L 222.167763 273.839312 
L 223.005077 286.328918 
L 223.842391 159.128963 
L 224.679705 284.048791 
L 225.517019 353.336694 
L 227.191647 273.83756 
L 228.028961 367.713122 
L 228.866275 346.513068 
L 229.703589 321.263996 
L 230.540903 308.240059 
L 232.215531 201.09813 
L 233.052845 168.475942 
L 233.890159 166.662867 
L 234.727473 264.65997 
L 235.564787 265.90979 
L 236.402101 322.954132 
L 237.239415 342.314793 
L 238.076729 352.633748 
L 238.914043 370.652932 
L 239.751357 373.615872 
L 240.588671 357.813756 
L 241.425985 370.20352 
L 242.263299 323.850104 
L 243.100613 370.594961 
L 243.937927 302.925401 
L 244.775241 365.03264 
L 245.612555 338.780412 
L 246.449869 351.764612 
L 247.287183 288.835743 
L 248.124497 309.90949 
L 248.961811 336.760287 
L 249.799125 340.37412 
L 250.636439 336.976128 
L 251.473753 346.332113 
L 252.311067 331.936092 
L 253.148381 294.446951 
L 253.985695 327.291178 
L 254.823009 341.103071 
L 255.660323 271.79224 
L 256.497637 319.707521 
L 257.334951 333.940968 
L 258.172265 309.244754 
L 259.009579 328.988545 
L 259.846893 258.001759 
L 260.684207 293.324011 
L 261.521521 347.536211 
L 262.358835 288.91278 
L 263.196149 335.709758 
L 264.033463 315.457315 
L 264.870777 331.391385 
L 265.708091 340.882794 
L 266.545405 360.117271 
L 267.382719 351.252984 
L 268.220033 290.216394 
L 269.057347 294.969526 
L 269.89466 275.692404 
L 270.731974 301.062034 
L 271.569288 377.898394 
L 272.406602 384.938142 
L 273.243916 375.944011 
L 274.08123 374.336346 
L 274.918544 310.107826 
L 275.755858 397.992721 
L 276.593172 388.911279 
L 277.430486 401.977176 
L 278.2678 404.854445 
L 279.105114 402.959257 
L 279.942428 412.238474 
L 280.779742 390.686065 
L 281.617056 378.469705 
L 282.45437 378.861016 
L 283.291684 341.277064 
L 284.128998 380.092051 
L 284.966312 362.108763 
L 285.803626 403.865851 
L 286.64094 393.569655 
L 287.478254 400.64237 
L 288.315568 372.203176 
L 289.152882 365.943557 
L 289.990196 382.992422 
L 290.82751 363.058013 
L 291.664824 399.984786 
L 292.502138 387.526086 
L 293.339452 400.950271 
L 294.176766 394.734297 
L 295.01408 350.438406 
L 295.851394 343.908388 
L 296.688708 356.286363 
L 297.526022 396.280229 
L 298.363336 377.934245 
L 299.20065 394.233988 
L 300.037964 399.946553 
L 300.875278 381.300949 
L 301.712592 403.060211 
L 302.549906 376.660409 
L 303.38722 393.87 
L 304.224534 405.385789 
L 305.061848 351.785968 
L 305.899162 415.621543 
L 306.736476 378.086821 
L 307.57379 406.618912 
L 308.411104 393.236355 
L 309.248418 399.672224 
L 310.923046 408.637622 
L 311.76036 388.756789 
L 312.597674 382.625886 
L 313.434988 393.73452 
L 314.272302 321.297714 
L 315.109616 331.188255 
L 315.94693 354.466944 
L 316.784244 320.074461 
L 317.621558 343.839447 
L 318.458872 290.471793 
L 319.296186 360.793427 
L 320.1335 393.126767 
L 320.970814 397.533956 
L 321.808128 397.41269 
L 322.645442 329.736539 
L 323.482756 324.933386 
L 324.32007 338.43549 
L 325.157384 370.287216 
L 325.994698 386.690387 
L 326.832012 383.454454 
L 327.669326 399.391281 
L 328.50664 321.931551 
L 329.343954 327.58638 
L 331.018582 368.444981 
L 331.855896 357.548084 
L 332.69321 380.190265 
L 333.530524 353.442678 
L 334.367838 353.102147 
L 335.205152 338.43412 
L 336.042466 331.377822 
L 336.87978 300.879193 
L 337.717094 326.044154 
L 338.554408 361.051969 
L 339.391722 348.395724 
L 340.229036 302.096585 
L 342.740978 328.136072 
L 343.578292 341.832684 
L 344.415606 346.522646 
L 345.25292 394.481706 
L 346.090234 364.151266 
L 346.927548 302.418522 
L 347.764862 297.787083 
L 348.602176 354.249609 
L 349.43949 377.558587 
L 350.276804 360.973214 
L 351.114118 397.801402 
L 351.951432 391.366196 
L 352.788746 346.914894 
L 353.62606 392.281682 
L 354.463374 349.645735 
L 355.300688 324.6451 
L 356.138002 371.566701 
L 356.975316 379.337836 
L 357.81263 318.400156 
L 358.649944 375.390221 
L 359.487258 373.892369 
L 360.324572 309.951147 
L 361.161886 383.237557 
L 361.9992 350.022376 
L 362.836514 363.107294 
L 363.673828 273.368645 
L 364.511142 321.325987 
L 365.348456 377.380714 
L 366.18577 318.256187 
L 367.023084 336.962677 
L 367.860398 366.015429 
L 368.697712 346.23391 
L 369.535026 298.426578 
L 370.37234 285.964863 
L 371.209654 277.958495 
L 372.046968 298.966793 
L 372.884282 227.983589 
L 373.721596 284.69947 
L 374.55891 317.763883 
L 375.396224 375.687563 
L 376.233538 323.320926 
L 377.070852 278.403225 
L 377.908166 317.44472 
L 378.74548 275.731007 
L 379.582794 294.192046 
L 380.420108 286.567799 
L 381.257422 292.005171 
L 382.094736 292.151026 
L 382.93205 237.783854 
L 383.769364 212.775134 
L 384.606678 155.783183 
L 385.443991 188.532767 
L 386.281305 287.300107 
L 387.118619 242.72607 
L 387.955933 327.098108 
L 388.793247 283.624194 
L 389.630561 231.597881 
L 390.467875 246.966271 
L 391.305189 250.67066 
L 392.142503 195.94846 
L 392.979817 307.192258 
L 393.817131 250.49588 
L 394.654445 252.97048 
L 395.491759 274.932879 
L 397.166387 236.023439 
L 398.003701 150.197474 
L 398.841015 205.700533 
L 399.678329 225.678536 
L 400.515643 172.796987 
L 401.352957 230.452956 
L 402.190271 279.480758 
L 403.027585 290.931231 
L 403.864899 228.151586 
L 404.702213 351.485387 
L 405.539527 330.456957 
L 406.376841 321.526064 
L 407.214155 324.261542 
L 408.051469 339.60158 
L 408.888783 304.468963 
L 409.726097 364.40727 
L 410.563411 178.967487 
L 411.400725 297.565987 
L 412.238039 272.161515 
L 413.075353 251.561444 
L 413.912667 273.301387 
L 414.749981 229.824083 
L 415.587295 209.439258 
L 416.424609 173.598686 
L 417.261923 188.095605 
L 418.936551 279.038992 
L 419.773865 245.9862 
L 420.611179 285.498508 
L 421.448493 219.101078 
L 422.285807 182.289553 
L 423.123121 177.366447 
L 423.960435 157.598054 
L 424.797749 175.209225 
L 425.635063 183.076947 
L 426.472377 274.303601 
L 427.309691 205.475047 
L 428.147005 240.112778 
L 428.984319 203.951325 
L 429.821633 235.07703 
L 430.658947 243.370169 
L 431.496261 224.208327 
L 433.170889 195.443255 
L 434.008203 179.538782 
L 434.845517 144.750929 
L 435.682831 169.88929 
L 436.520145 270.710642 
L 437.357459 232.474608 
L 438.194773 218.832206 
L 439.032087 242.379004 
L 439.869401 299.899122 
L 440.706715 243.616405 
L 441.544029 278.945303 
L 442.381343 249.283137 
L 443.218657 245.425258 
L 444.055971 265.439617 
L 444.893285 204.87539 
L 445.730599 171.161679 
L 446.567913 193.869544 
L 447.405227 144.21287 
L 448.242541 185.423994 
L 449.079855 199.534592 
L 449.917169 193.483965 
L 450.754483 178.212071 
L 451.591797 122.694123 
L 452.429111 238.651799 
L 453.266425 171.656711 
L 454.103739 148.901529 
L 454.941053 194.80203 
L 455.778367 196.957276 
L 456.615681 200.382484 
L 457.452995 231.881957 
L 458.290309 189.211404 
L 459.127623 218.916508 
L 459.964937 231.749598 
L 460.802251 238.389889 
L 461.639565 125.470068 
L 462.476879 281.732364 
L 463.314193 219.8741 
L 464.151507 198.908167 
L 464.988821 234.444923 
L 465.826135 224.96417 
L 466.663449 197.464008 
L 467.500763 288.701262 
L 468.338077 276.490555 
L 469.175391 281.934978 
L 470.012705 223.046874 
L 470.850019 238.690896 
L 471.687333 221.242153 
L 473.361961 311.473881 
L 474.199275 311.319481 
L 475.036589 276.338973 
L 475.873903 278.410141 
L 476.711217 300.654133 
L 477.548531 288.956671 
L 478.385845 244.892611 
L 479.223159 343.601733 
L 480.060473 320.561903 
L 480.897787 334.924026 
L 481.735101 334.153867 
L 482.572415 307.985289 
L 483.409729 246.08045 
L 484.247043 257.821276 
L 485.084357 300.20681 
L 485.921671 295.165033 
L 486.758985 307.304496 
L 487.596299 313.336675 
L 488.433613 340.585514 
L 489.270927 311.560474 
L 490.108241 321.508862 
L 490.945555 255.345149 
L 491.782869 289.821518 
L 492.620183 273.173003 
L 493.457497 264.366912 
L 494.294811 238.272688 
L 495.132125 197.044632 
L 495.969439 246.564658 
L 496.806753 249.200182 
L 498.481381 287.632633 
L 499.318695 258.866898 
L 500.156009 281.55224 
L 500.993322 273.076193 
L 501.830636 272.535282 
L 502.66795 298.746326 
L 503.505264 317.415245 
L 504.342578 339.305423 
L 505.179892 331.879321 
L 506.017206 348.138327 
L 506.85452 299.324144 
L 507.691834 336.498657 
L 508.529148 250.209537 
L 509.366462 312.557017 
L 510.203776 156.225375 
L 511.04109 150.666637 
L 511.878404 182.92011 
L 512.715718 275.372937 
L 515.22766 339.141333 
L 516.064974 349.781047 
L 516.902288 294.983561 
L 517.739602 340.136136 
L 518.576916 336.347188 
L 519.41423 377.917302 
L 520.251544 332.76265 
L 521.088858 265.70584 
L 521.926172 256.874103 
L 522.763486 287.650306 
L 523.6008 299.894125 
L 524.438114 294.896071 
L 525.275428 242.697168 
L 526.112742 306.751852 
L 526.950056 333.399608 
L 527.78737 355.596127 
L 528.624684 355.971185 
L 529.461998 338.712817 
L 530.299312 282.714501 
L 531.136626 285.176447 
L 531.97394 177.069347 
L 532.811254 176.516826 
L 533.648568 264.332801 
L 534.485882 263.71967 
L 535.323196 277.213274 
L 536.16051 285.565743 
L 536.997824 317.147283 
L 537.835138 281.988009 
L 538.672452 263.578126 
L 539.509766 306.559152 
L 540.34708 274.79888 
L 541.184394 257.064063 
L 542.021708 201.548204 
L 542.859022 355.507962 
L 543.696336 341.828462 
L 545.370964 284.115128 
L 546.208278 347.288751 
L 547.045592 307.042338 
L 547.882906 333.042818 
L 548.72022 351.291531 
L 549.557534 336.197301 
L 550.394848 381.906372 
L 551.232162 367.379025 
L 552.069476 384.831574 
L 552.90679 350.870684 
L 553.744104 345.812367 
L 554.581418 377.375296 
L 555.418732 372.367894 
L 556.256046 374.146296 
L 557.09336 338.353793 
L 557.930674 387.92264 
L 558.767988 383.324004 
L 559.605302 333.975978 
L 560.442616 400.463178 
L 561.27993 388.10076 
L 562.117244 364.287723 
L 562.954558 308.56706 
L 563.791872 379.993714 
L 564.629186 379.104406 
L 565.4665 389.309838 
L 566.303814 406.623763 
L 567.141128 350.022982 
L 567.978442 349.683888 
L 568.815756 333.405503 
L 569.65307 279.344424 
L 570.490384 296.743459 
L 571.327698 338.45487 
L 572.165012 276.822193 
L 573.002326 303.333335 
L 573.83964 361.628856 
L 574.676954 366.685578 
L 575.514268 377.329861 
L 576.351582 384.775365 
L 577.188896 381.307523 
L 578.02621 383.159813 
L 578.863524 316.372689 
L 579.700838 308.829083 
L 581.375466 369.659364 
L 582.21278 367.957708 
L 583.050094 386.632051 
L 583.887408 378.924355 
L 584.724722 350.518509 
L 585.562036 338.088211 
L 586.39935 299.457311 
L 587.236664 335.451901 
L 588.073978 259.884472 
L 588.911292 291.524522 
L 589.748606 297.105852 
L 590.58592 315.690279 
L 591.423234 327.583562 
L 592.260548 281.543561 
L 593.097862 298.226625 
L 593.935176 332.889563 
L 594.77249 310.910828 
L 595.609804 360.252785 
L 596.447118 364.930014 
L 597.284432 392.644367 
L 598.121746 380.415824 
L 598.95906 362.519011 
L 599.796374 389.641274 
L 600.633688 381.445592 
L 601.471002 386.443719 
L 602.308316 371.091262 
L 603.14563 386.394438 
L 603.982944 393.472205 
L 604.820258 393.599242 
L 605.657572 395.90206 
L 606.494886 383.73063 
L 607.3322 285.310928 
L 608.169514 370.584047 
L 609.006828 364.470777 
L 609.844142 320.304854 
L 610.681456 304.780952 
L 611.51877 306.419854 
L 612.356084 303.105199 
L 613.193398 319.371672 
L 614.030712 269.581594 
L 614.868026 325.215081 
L 615.70534 293.037128 
L 616.542653 317.304714 
L 617.379967 293.959767 
L 618.217281 310.643887 
L 619.054595 278.920242 
L 619.891909 305.632112 
L 620.729223 291.431103 
L 621.566537 339.230093 
L 622.403851 268.952473 
L 623.241165 291.861528 
L 624.078479 290.230924 
L 624.915793 297.005246 
L 625.753107 346.409218 
L 626.590421 322.062147 
L 627.427735 340.277758 
L 628.265049 295.728109 
L 629.102363 349.401407 
L 629.939677 313.99683 
L 630.776991 367.605241 
L 631.614305 313.380476 
L 632.451619 284.922553 
L 633.288933 349.276167 
L 634.126247 347.771039 
L 634.963561 346.541532 
L 635.800875 305.998524 
L 636.638189 395.797548 
L 637.475503 379.222904 
L 638.312817 396.599269 
L 639.150131 378.232171 
L 639.987445 363.850269 
L 640.824759 365.574012 
L 641.662073 388.746521 
L 642.499387 326.296139 
L 643.336701 389.313094 
L 644.174015 305.837297 
L 645.011329 382.127434 
L 645.848643 356.610321 
L 646.685957 347.702962 
L 647.523271 377.270896 
L 648.360585 371.807435 
L 649.197899 393.322352 
L 650.035213 364.090622 
L 652.547155 385.175856 
L 653.384469 365.468859 
L 654.221783 362.999065 
L 655.896411 308.618249 
L 656.733725 290.45879 
L 657.571039 298.38354 
L 658.408353 349.647262 
L 659.245667 326.040247 
L 660.082981 319.757049 
L 660.920295 389.269528 
L 661.757609 363.587348 
L 662.594923 374.08079 
L 663.432237 361.200272 
L 664.269551 351.664253 
L 665.106865 310.511876 
L 665.944179 361.262061 
L 666.781493 327.557052 
L 667.618807 280.513186 
L 668.456121 345.907897 
L 669.293435 289.074186 
L 670.130749 316.548512 
L 670.968063 309.003997 
L 671.805377 338.682681 
L 672.642691 355.25152 
L 673.480005 328.956073 
L 674.317319 320.507288 
L 675.154633 317.536196 
L 675.991947 338.242689 
L 676.829261 346.946985 
L 677.666575 298.991012 
L 678.503889 320.621503 
L 679.341203 219.825437 
L 680.178517 356.699361 
L 681.015831 344.058319 
L 681.853145 264.649596 
L 682.690459 333.899704 
L 683.527773 299.659039 
L 684.365087 333.267181 
L 685.202401 303.277654 
L 686.039715 307.589896 
L 686.877029 316.329931 
L 687.714343 321.61004 
L 688.551657 319.832559 
L 689.388971 277.250687 
L 690.226285 248.997152 
L 691.063599 295.835047 
L 691.900913 282.1905 
L 692.738227 260.775054 
L 693.575541 265.265017 
L 694.412855 258.600361 
L 695.250169 295.370297 
L 696.087483 250.960349 
L 696.924797 253.124083 
L 697.762111 317.993805 
L 698.599425 285.504481 
L 699.436739 287.776916 
L 700.274053 347.170955 
L 701.111367 332.122526 
L 701.948681 291.910528 
L 702.785995 306.272561 
L 703.623309 308.900966 
L 704.460623 293.053937 
L 705.297937 342.432341 
L 706.135251 256.067958 
L 706.972565 236.841936 
L 707.809879 265.760005 
L 708.647193 335.742107 
L 709.484507 253.262371 
L 710.321821 224.326606 
L 711.159135 266.088522 
L 711.996449 212.824696 
L 712.833763 290.710528 
L 713.671077 243.401204 
L 714.508391 315.670113 
L 715.345705 209.493176 
L 716.183019 158.500291 
L 717.020333 189.929183 
L 717.857647 198.947286 
L 718.694961 162.80254 
L 719.532275 210.635676 
L 720.369589 213.480966 
L 721.206903 122.766052 
L 722.044217 161.897115 
L 722.881531 221.781627 
L 723.718845 205.773989 
L 724.556159 253.404633 
L 725.393473 245.165188 
L 726.230787 282.397943 
L 727.068101 234.067698 
L 727.905415 154.583172 
L 728.742729 185.959627 
L 729.580043 211.65938 
L 730.417357 244.568675 
L 731.254671 250.916806 
L 732.091984 124.213916 
L 732.929298 210.615712 
L 733.766612 276.540341 
L 734.603926 192.667917 
L 735.44124 248.029769 
L 736.278554 247.696873 
L 737.115868 228.282126 
L 737.953182 201.189663 
L 738.790496 270.732874 
L 739.62781 262.554601 
L 740.465124 233.658719 
L 741.302438 208.621525 
L 742.139752 223.500564 
L 742.977066 225.860434 
L 743.81438 244.068051 
L 744.651694 195.158259 
L 745.489008 153.944305 
L 746.326322 237.79479 
L 747.163636 200.429396 
L 747.163636 200.429396 
" style="fill:none;stroke:#ff0000;stroke-dasharray:5.55,2.4;stroke-dashoffset:0;stroke-width:1.5;"/>
   </g>
   <g id="patch_3">
    <path d="M 108 460.8 
L 108 69.12 
" style="fill:none;stroke:#000000;stroke-linecap:square;stroke-linejoin:miter;stroke-width:0.8;"/>
   </g>
   <g id="patch_4">
    <path d="M 777.6 460.8 
L 777.6 69.12 
" style="fill:none;stroke:#000000;stroke-linecap:square;stroke-linejoin:miter;stroke-width:0.8;"/>
   </g>
   <g id="patch_5">
    <path d="M 108 460.8 
L 777.6 460.8 
" style="fill:none;stroke:#000000;stroke-linecap:square;stroke-linejoin:miter;stroke-width:0.8;"/>
   </g>
   <g id="patch_6">
    <path d="M 108 69.12 
L 777.6 69.12 
" style="fill:none;stroke:#000000;stroke-linecap:square;stroke-linejoin:miter;stroke-width:0.8;"/>
   </g>
   <g id="text_18">
    <!-- Macau roadside 2020-2021 | Forecast vs Monitored | RNN -->
    <g transform="translate(226.805859 63.12)scale(0.15 -0.15)">
     <defs>
      <path d="M 8.5 21.578125 
L 8.5 54.6875 
L 17.484375 54.6875 
L 17.484375 21.921875 
Q 17.484375 14.15625 20.5 10.265625 
Q 23.53125 6.390625 29.59375 6.390625 
Q 36.859375 6.390625 41.078125 11.03125 
Q 45.3125 15.671875 45.3125 23.6875 
L 45.3125 54.6875 
L 54.296875 54.6875 
L 54.296875 0 
L 45.3125 0 
L 45.3125 8.40625 
Q 42.046875 3.421875 37.71875 1 
Q 33.40625 -1.421875 27.6875 -1.421875 
Q 18.265625 -1.421875 13.375 4.4375 
Q 8.5 10.296875 8.5 21.578125 
z
M 31.109375 56 
z
" id="DejaVuSans-117"/>
      <path id="DejaVuSans-32"/>
      <path d="M 45.40625 46.390625 
L 45.40625 75.984375 
L 54.390625 75.984375 
L 54.390625 0 
L 45.40625 0 
L 45.40625 8.203125 
Q 42.578125 3.328125 38.25 0.953125 
Q 33.9375 -1.421875 27.875 -1.421875 
Q 17.96875 -1.421875 11.734375 6.484375 
Q 5.515625 14.40625 5.515625 27.296875 
Q 5.515625 40.1875 11.734375 48.09375 
Q 17.96875 56 27.875 56 
Q 33.9375 56 38.25 53.625 
Q 42.578125 51.265625 45.40625 46.390625 
z
M 14.796875 27.296875 
Q 14.796875 17.390625 18.875 11.75 
Q 22.953125 6.109375 30.078125 6.109375 
Q 37.203125 6.109375 41.296875 11.75 
Q 45.40625 17.390625 45.40625 27.296875 
Q 45.40625 37.203125 41.296875 42.84375 
Q 37.203125 48.484375 30.078125 48.484375 
Q 22.953125 48.484375 18.875 42.84375 
Q 14.796875 37.203125 14.796875 27.296875 
z
" id="DejaVuSans-100"/>
      <path d="M 44.28125 53.078125 
L 44.28125 44.578125 
Q 40.484375 46.53125 36.375 47.5 
Q 32.28125 48.484375 27.875 48.484375 
Q 21.1875 48.484375 17.84375 46.4375 
Q 14.5 44.390625 14.5 40.28125 
Q 14.5 37.15625 16.890625 35.375 
Q 19.28125 33.59375 26.515625 31.984375 
L 29.59375 31.296875 
Q 39.15625 29.25 43.1875 25.515625 
Q 47.21875 21.78125 47.21875 15.09375 
Q 47.21875 7.46875 41.1875 3.015625 
Q 35.15625 -1.421875 24.609375 -1.421875 
Q 20.21875 -1.421875 15.453125 -0.5625 
Q 10.6875 0.296875 5.421875 2 
L 5.421875 11.28125 
Q 10.40625 8.6875 15.234375 7.390625 
Q 20.0625 6.109375 24.8125 6.109375 
Q 31.15625 6.109375 34.5625 8.28125 
Q 37.984375 10.453125 37.984375 14.40625 
Q 37.984375 18.0625 35.515625 20.015625 
Q 33.0625 21.96875 24.703125 23.78125 
L 21.578125 24.515625 
Q 13.234375 26.265625 9.515625 29.90625 
Q 5.8125 33.546875 5.8125 39.890625 
Q 5.8125 47.609375 11.28125 51.796875 
Q 16.75 56 26.8125 56 
Q 31.78125 56 36.171875 55.265625 
Q 40.578125 54.546875 44.28125 53.078125 
z
" id="DejaVuSans-115"/>
      <path d="M 21 76.421875 
L 21 -23.578125 
L 12.703125 -23.578125 
L 12.703125 76.421875 
z
" id="DejaVuSans-124"/>
      <path d="M 9.8125 72.90625 
L 51.703125 72.90625 
L 51.703125 64.59375 
L 19.671875 64.59375 
L 19.671875 43.109375 
L 48.578125 43.109375 
L 48.578125 34.8125 
L 19.671875 34.8125 
L 19.671875 0 
L 9.8125 0 
z
" id="DejaVuSans-70"/>
      <path d="M 2.984375 54.6875 
L 12.5 54.6875 
L 29.59375 8.796875 
L 46.6875 54.6875 
L 56.203125 54.6875 
L 35.6875 0 
L 23.484375 0 
z
" id="DejaVuSans-118"/>
      <path d="M 54.890625 33.015625 
L 54.890625 0 
L 45.90625 0 
L 45.90625 32.71875 
Q 45.90625 40.484375 42.875 44.328125 
Q 39.84375 48.1875 33.796875 48.1875 
Q 26.515625 48.1875 22.3125 43.546875 
Q 18.109375 38.921875 18.109375 30.90625 
L 18.109375 0 
L 9.078125 0 
L 9.078125 54.6875 
L 18.109375 54.6875 
L 18.109375 46.1875 
Q 21.34375 51.125 25.703125 53.5625 
Q 30.078125 56 35.796875 56 
Q 45.21875 56 50.046875 50.171875 
Q 54.890625 44.34375 54.890625 33.015625 
z
" id="DejaVuSans-110"/>
      <path d="M 44.390625 34.1875 
Q 47.5625 33.109375 50.5625 29.59375 
Q 53.5625 26.078125 56.59375 19.921875 
L 66.609375 0 
L 56 0 
L 46.6875 18.703125 
Q 43.0625 26.03125 39.671875 28.421875 
Q 36.28125 30.8125 30.421875 30.8125 
L 19.671875 30.8125 
L 19.671875 0 
L 9.8125 0 
L 9.8125 72.90625 
L 32.078125 72.90625 
Q 44.578125 72.90625 50.734375 67.671875 
Q 56.890625 62.453125 56.890625 51.90625 
Q 56.890625 45.015625 53.6875 40.46875 
Q 50.484375 35.9375 44.390625 34.1875 
z
M 19.671875 64.796875 
L 19.671875 38.921875 
L 32.078125 38.921875 
Q 39.203125 38.921875 42.84375 42.21875 
Q 46.484375 45.515625 46.484375 51.90625 
Q 46.484375 58.296875 42.84375 61.546875 
Q 39.203125 64.796875 32.078125 64.796875 
z
" id="DejaVuSans-82"/>
      <path d="M 9.8125 72.90625 
L 23.09375 72.90625 
L 55.421875 11.921875 
L 55.421875 72.90625 
L 64.984375 72.90625 
L 64.984375 0 
L 51.703125 0 
L 19.390625 60.984375 
L 19.390625 0 
L 9.8125 0 
z
" id="DejaVuSans-78"/>
     </defs>
     <use xlink:href="#DejaVuSans-77"/>
     <use x="86.279297" xlink:href="#DejaVuSans-97"/>
     <use x="147.558594" xlink:href="#DejaVuSans-99"/>
     <use x="202.539062" xlink:href="#DejaVuSans-97"/>
     <use x="263.818359" xlink:href="#DejaVuSans-117"/>
     <use x="327.197266" xlink:href="#DejaVuSans-32"/>
     <use x="358.984375" xlink:href="#DejaVuSans-114"/>
     <use x="397.847656" xlink:href="#DejaVuSans-111"/>
     <use x="459.029297" xlink:href="#DejaVuSans-97"/>
     <use x="520.308594" xlink:href="#DejaVuSans-100"/>
     <use x="583.785156" xlink:href="#DejaVuSans-115"/>
     <use x="635.884766" xlink:href="#DejaVuSans-105"/>
     <use x="663.667969" xlink:href="#DejaVuSans-100"/>
     <use x="727.144531" xlink:href="#DejaVuSans-101"/>
     <use x="788.667969" xlink:href="#DejaVuSans-32"/>
     <use x="820.455078" xlink:href="#DejaVuSans-50"/>
     <use x="884.078125" xlink:href="#DejaVuSans-48"/>
     <use x="947.701172" xlink:href="#DejaVuSans-50"/>
     <use x="1011.324219" xlink:href="#DejaVuSans-48"/>
     <use x="1074.947266" xlink:href="#DejaVuSans-45"/>
     <use x="1111.03125" xlink:href="#DejaVuSans-50"/>
     <use x="1174.654297" xlink:href="#DejaVuSans-48"/>
     <use x="1238.277344" xlink:href="#DejaVuSans-50"/>
     <use x="1301.900391" xlink:href="#DejaVuSans-49"/>
     <use x="1365.523438" xlink:href="#DejaVuSans-32"/>
     <use x="1397.310547" xlink:href="#DejaVuSans-124"/>
     <use x="1431.001953" xlink:href="#DejaVuSans-32"/>
     <use x="1462.789062" xlink:href="#DejaVuSans-70"/>
     <use x="1516.683594" xlink:href="#DejaVuSans-111"/>
     <use x="1577.865234" xlink:href="#DejaVuSans-114"/>
     <use x="1616.728516" xlink:href="#DejaVuSans-101"/>
     <use x="1678.251953" xlink:href="#DejaVuSans-99"/>
     <use x="1733.232422" xlink:href="#DejaVuSans-97"/>
     <use x="1794.511719" xlink:href="#DejaVuSans-115"/>
     <use x="1846.611328" xlink:href="#DejaVuSans-116"/>
     <use x="1885.820312" xlink:href="#DejaVuSans-32"/>
     <use x="1917.607422" xlink:href="#DejaVuSans-118"/>
     <use x="1976.787109" xlink:href="#DejaVuSans-115"/>
     <use x="2028.886719" xlink:href="#DejaVuSans-32"/>
     <use x="2060.673828" xlink:href="#DejaVuSans-77"/>
     <use x="2146.953125" xlink:href="#DejaVuSans-111"/>
     <use x="2208.134766" xlink:href="#DejaVuSans-110"/>
     <use x="2271.513672" xlink:href="#DejaVuSans-105"/>
     <use x="2299.296875" xlink:href="#DejaVuSans-116"/>
     <use x="2338.505859" xlink:href="#DejaVuSans-111"/>
     <use x="2399.6875" xlink:href="#DejaVuSans-114"/>
     <use x="2438.550781" xlink:href="#DejaVuSans-101"/>
     <use x="2500.074219" xlink:href="#DejaVuSans-100"/>
     <use x="2563.550781" xlink:href="#DejaVuSans-32"/>
     <use x="2595.337891" xlink:href="#DejaVuSans-124"/>
     <use x="2629.029297" xlink:href="#DejaVuSans-32"/>
     <use x="2660.816406" xlink:href="#DejaVuSans-82"/>
     <use x="2730.298828" xlink:href="#DejaVuSans-78"/>
     <use x="2805.103516" xlink:href="#DejaVuSans-78"/>
    </g>
   </g>
   <g id="legend_1">
    <g id="patch_7">
     <path d="M 116.4 114.615 
L 286.636875 114.615 
Q 289.036875 114.615 289.036875 112.215 
L 289.036875 77.52 
Q 289.036875 75.12 286.636875 75.12 
L 116.4 75.12 
Q 114 75.12 114 77.52 
L 114 112.215 
Q 114 114.615 116.4 114.615 
z
" style="fill:#ffffff;opacity:0.8;stroke:#cccccc;stroke-linejoin:miter;"/>
    </g>
    <g id="line2d_18">
     <path d="M 118.8 84.838125 
L 142.8 84.838125 
" style="fill:none;stroke:#1f77b4;stroke-linecap:square;stroke-width:1.5;"/>
    </g>
    <g id="line2d_19"/>
    <g id="text_19">
     <!-- measured_data_PM10 -->
     <g transform="translate(152.4 89.038125)scale(0.12 -0.12)">
      <defs>
       <path d="M 50.984375 -16.609375 
L 50.984375 -23.578125 
L -0.984375 -23.578125 
L -0.984375 -16.609375 
z
" id="DejaVuSans-95"/>
      </defs>
      <use xlink:href="#DejaVuSans-109"/>
      <use x="97.412109" xlink:href="#DejaVuSans-101"/>
      <use x="158.935547" xlink:href="#DejaVuSans-97"/>
      <use x="220.214844" xlink:href="#DejaVuSans-115"/>
      <use x="272.314453" xlink:href="#DejaVuSans-117"/>
      <use x="335.693359" xlink:href="#DejaVuSans-114"/>
      <use x="374.556641" xlink:href="#DejaVuSans-101"/>
      <use x="436.080078" xlink:href="#DejaVuSans-100"/>
      <use x="499.556641" xlink:href="#DejaVuSans-95"/>
      <use x="549.556641" xlink:href="#DejaVuSans-100"/>
      <use x="613.033203" xlink:href="#DejaVuSans-97"/>
      <use x="674.3125" xlink:href="#DejaVuSans-116"/>
      <use x="713.521484" xlink:href="#DejaVuSans-97"/>
      <use x="774.800781" xlink:href="#DejaVuSans-95"/>
      <use x="824.800781" xlink:href="#DejaVuSans-80"/>
      <use x="885.103516" xlink:href="#DejaVuSans-77"/>
      <use x="971.382812" xlink:href="#DejaVuSans-49"/>
      <use x="1035.005859" xlink:href="#DejaVuSans-48"/>
     </g>
    </g>
    <g id="line2d_20">
     <path d="M 118.8 102.785625 
L 142.8 102.785625 
" style="fill:none;stroke:#ff0000;stroke-dasharray:5.55,2.4;stroke-dashoffset:0;stroke-width:1.5;"/>
    </g>
    <g id="line2d_21"/>
    <g id="text_20">
     <!-- predicted_data_PM10 -->
     <g transform="translate(152.4 106.985625)scale(0.12 -0.12)">
      <defs>
       <path d="M 18.109375 8.203125 
L 18.109375 -20.796875 
L 9.078125 -20.796875 
L 9.078125 54.6875 
L 18.109375 54.6875 
L 18.109375 46.390625 
Q 20.953125 51.265625 25.265625 53.625 
Q 29.59375 56 35.59375 56 
Q 45.5625 56 51.78125 48.09375 
Q 58.015625 40.1875 58.015625 27.296875 
Q 58.015625 14.40625 51.78125 6.484375 
Q 45.5625 -1.421875 35.59375 -1.421875 
Q 29.59375 -1.421875 25.265625 0.953125 
Q 20.953125 3.328125 18.109375 8.203125 
z
M 48.6875 27.296875 
Q 48.6875 37.203125 44.609375 42.84375 
Q 40.53125 48.484375 33.40625 48.484375 
Q 26.265625 48.484375 22.1875 42.84375 
Q 18.109375 37.203125 18.109375 27.296875 
Q 18.109375 17.390625 22.1875 11.75 
Q 26.265625 6.109375 33.40625 6.109375 
Q 40.53125 6.109375 44.609375 11.75 
Q 48.6875 17.390625 48.6875 27.296875 
z
" id="DejaVuSans-112"/>
      </defs>
      <use xlink:href="#DejaVuSans-112"/>
      <use x="63.476562" xlink:href="#DejaVuSans-114"/>
      <use x="102.339844" xlink:href="#DejaVuSans-101"/>
      <use x="163.863281" xlink:href="#DejaVuSans-100"/>
      <use x="227.339844" xlink:href="#DejaVuSans-105"/>
      <use x="255.123047" xlink:href="#DejaVuSans-99"/>
      <use x="310.103516" xlink:href="#DejaVuSans-116"/>
      <use x="349.3125" xlink:href="#DejaVuSans-101"/>
      <use x="410.835938" xlink:href="#DejaVuSans-100"/>
      <use x="474.3125" xlink:href="#DejaVuSans-95"/>
      <use x="524.3125" xlink:href="#DejaVuSans-100"/>
      <use x="587.789062" xlink:href="#DejaVuSans-97"/>
      <use x="649.068359" xlink:href="#DejaVuSans-116"/>
      <use x="688.277344" xlink:href="#DejaVuSans-97"/>
      <use x="749.556641" xlink:href="#DejaVuSans-95"/>
      <use x="799.556641" xlink:href="#DejaVuSans-80"/>
      <use x="859.859375" xlink:href="#DejaVuSans-77"/>
      <use x="946.138672" xlink:href="#DejaVuSans-49"/>
      <use x="1009.761719" xlink:href="#DejaVuSans-48"/>
     </g>
    </g>
   </g>
  </g>
 </g>
 <defs>
  <clipPath id="pb55c76b608">
   <rect height="391.68" width="669.6" x="108" y="69.12"/>
  </clipPath>
 </defs>
</svg>
