<?xml version="1.0" encoding="utf-8" standalone="no"?>
<!DOCTYPE svg PUBLIC "-//W3C//DTD SVG 1.1//EN"
  "http://www.w3.org/Graphics/SVG/1.1/DTD/svg11.dtd">
<!-- Created with matplotlib (https://matplotlib.org/) -->
<svg height="576pt" version="1.1" viewBox="0 0 864 576" width="864pt" xmlns="http://www.w3.org/2000/svg" xmlns:xlink="http://www.w3.org/1999/xlink">
 <metadata>
  <rdf:RDF xmlns:cc="http://creativecommons.org/ns#" xmlns:dc="http://purl.org/dc/elements/1.1/" xmlns:rdf="http://www.w3.org/1999/02/22-rdf-syntax-ns#">
   <cc:Work>
    <dc:type rdf:resource="http://purl.org/dc/dcmitype/StillImage"/>
    <dc:date>2024-03-08T17:01:33.893760</dc:date>
    <dc:format>image/svg+xml</dc:format>
    <dc:creator>
     <cc:Agent>
      <dc:title>Matplotlib v3.3.4, https://matplotlib.org/</dc:title>
     </cc:Agent>
    </dc:creator>
   </cc:Work>
  </rdf:RDF>
 </metadata>
 <defs>
  <style type="text/css">*{stroke-linecap:butt;stroke-linejoin:round;}</style>
 </defs>
 <g id="figure_1">
  <g id="patch_1">
   <path d="M 0 576 
L 864 576 
L 864 0 
L 0 0 
z
" style="fill:#ffffff;"/>
  </g>
  <g id="axes_1">
   <g id="patch_2">
    <path d="M 108 460.8 
L 777.6 460.8 
L 777.6 69.12 
L 108 69.12 
z
" style="fill:#ffffff;"/>
   </g>
   <g id="matplotlib.axis_1">
    <g id="xtick_1">
     <g id="line2d_1">
      <defs>
       <path d="M 0 0 
L 0 3.5 
" id="m68e03dc483" style="stroke:#000000;stroke-width:0.8;"/>
      </defs>
      <g>
       <use style="stroke:#000000;stroke-width:0.8;" x="138.436364" xlink:href="#m68e03dc483" y="460.8"/>
      </g>
     </g>
     <g id="text_1">
      <!-- 2020-01 -->
      <g transform="translate(93.766579 500.766215)rotate(-30)scale(0.12 -0.12)">
       <defs>
        <path d="M 19.1875 8.296875 
L 53.609375 8.296875 
L 53.609375 0 
L 7.328125 0 
L 7.328125 8.296875 
Q 12.9375 14.109375 22.625 23.890625 
Q 32.328125 33.6875 34.8125 36.53125 
Q 39.546875 41.84375 41.421875 45.53125 
Q 43.3125 49.21875 43.3125 52.78125 
Q 43.3125 58.59375 39.234375 62.25 
Q 35.15625 65.921875 28.609375 65.921875 
Q 23.96875 65.921875 18.8125 64.3125 
Q 13.671875 62.703125 7.8125 59.421875 
L 7.8125 69.390625 
Q 13.765625 71.78125 18.9375 73 
Q 24.125 74.21875 28.421875 74.21875 
Q 39.75 74.21875 46.484375 68.546875 
Q 53.21875 62.890625 53.21875 53.421875 
Q 53.21875 48.921875 51.53125 44.890625 
Q 49.859375 40.875 45.40625 35.40625 
Q 44.1875 33.984375 37.640625 27.21875 
Q 31.109375 20.453125 19.1875 8.296875 
z
" id="DejaVuSans-50"/>
        <path d="M 31.78125 66.40625 
Q 24.171875 66.40625 20.328125 58.90625 
Q 16.5 51.421875 16.5 36.375 
Q 16.5 21.390625 20.328125 13.890625 
Q 24.171875 6.390625 31.78125 6.390625 
Q 39.453125 6.390625 43.28125 13.890625 
Q 47.125 21.390625 47.125 36.375 
Q 47.125 51.421875 43.28125 58.90625 
Q 39.453125 66.40625 31.78125 66.40625 
z
M 31.78125 74.21875 
Q 44.046875 74.21875 50.515625 64.515625 
Q 56.984375 54.828125 56.984375 36.375 
Q 56.984375 17.96875 50.515625 8.265625 
Q 44.046875 -1.421875 31.78125 -1.421875 
Q 19.53125 -1.421875 13.0625 8.265625 
Q 6.59375 17.96875 6.59375 36.375 
Q 6.59375 54.828125 13.0625 64.515625 
Q 19.53125 74.21875 31.78125 74.21875 
z
" id="DejaVuSans-48"/>
        <path d="M 4.890625 31.390625 
L 31.203125 31.390625 
L 31.203125 23.390625 
L 4.890625 23.390625 
z
" id="DejaVuSans-45"/>
        <path d="M 12.40625 8.296875 
L 28.515625 8.296875 
L 28.515625 63.921875 
L 10.984375 60.40625 
L 10.984375 69.390625 
L 28.421875 72.90625 
L 38.28125 72.90625 
L 38.28125 8.296875 
L 54.390625 8.296875 
L 54.390625 0 
L 12.40625 0 
z
" id="DejaVuSans-49"/>
       </defs>
       <use xlink:href="#DejaVuSans-50"/>
       <use x="63.623047" xlink:href="#DejaVuSans-48"/>
       <use x="127.246094" xlink:href="#DejaVuSans-50"/>
       <use x="190.869141" xlink:href="#DejaVuSans-48"/>
       <use x="254.492188" xlink:href="#DejaVuSans-45"/>
       <use x="290.576172" xlink:href="#DejaVuSans-48"/>
       <use x="354.199219" xlink:href="#DejaVuSans-49"/>
      </g>
     </g>
    </g>
    <g id="xtick_2">
     <g id="line2d_2">
      <g>
       <use style="stroke:#000000;stroke-width:0.8;" x="214.318804" xlink:href="#m68e03dc483" y="460.8"/>
      </g>
     </g>
     <g id="text_2">
      <!-- 2020-04 -->
      <g transform="translate(169.64902 500.766215)rotate(-30)scale(0.12 -0.12)">
       <defs>
        <path d="M 37.796875 64.3125 
L 12.890625 25.390625 
L 37.796875 25.390625 
z
M 35.203125 72.90625 
L 47.609375 72.90625 
L 47.609375 25.390625 
L 58.015625 25.390625 
L 58.015625 17.1875 
L 47.609375 17.1875 
L 47.609375 0 
L 37.796875 0 
L 37.796875 17.1875 
L 4.890625 17.1875 
L 4.890625 26.703125 
z
" id="DejaVuSans-52"/>
       </defs>
       <use xlink:href="#DejaVuSans-50"/>
       <use x="63.623047" xlink:href="#DejaVuSans-48"/>
       <use x="127.246094" xlink:href="#DejaVuSans-50"/>
       <use x="190.869141" xlink:href="#DejaVuSans-48"/>
       <use x="254.492188" xlink:href="#DejaVuSans-45"/>
       <use x="290.576172" xlink:href="#DejaVuSans-48"/>
       <use x="354.199219" xlink:href="#DejaVuSans-52"/>
      </g>
     </g>
    </g>
    <g id="xtick_3">
     <g id="line2d_3">
      <g>
       <use style="stroke:#000000;stroke-width:0.8;" x="290.201245" xlink:href="#m68e03dc483" y="460.8"/>
      </g>
     </g>
     <g id="text_3">
      <!-- 2020-07 -->
      <g transform="translate(245.53146 500.766215)rotate(-30)scale(0.12 -0.12)">
       <defs>
        <path d="M 8.203125 72.90625 
L 55.078125 72.90625 
L 55.078125 68.703125 
L 28.609375 0 
L 18.3125 0 
L 43.21875 64.59375 
L 8.203125 64.59375 
z
" id="DejaVuSans-55"/>
       </defs>
       <use xlink:href="#DejaVuSans-50"/>
       <use x="63.623047" xlink:href="#DejaVuSans-48"/>
       <use x="127.246094" xlink:href="#DejaVuSans-50"/>
       <use x="190.869141" xlink:href="#DejaVuSans-48"/>
       <use x="254.492188" xlink:href="#DejaVuSans-45"/>
       <use x="290.576172" xlink:href="#DejaVuSans-48"/>
       <use x="354.199219" xlink:href="#DejaVuSans-55"/>
      </g>
     </g>
    </g>
    <g id="xtick_4">
     <g id="line2d_4">
      <g>
       <use style="stroke:#000000;stroke-width:0.8;" x="366.917559" xlink:href="#m68e03dc483" y="460.8"/>
      </g>
     </g>
     <g id="text_4">
      <!-- 2020-10 -->
      <g transform="translate(322.247774 500.766215)rotate(-30)scale(0.12 -0.12)">
       <use xlink:href="#DejaVuSans-50"/>
       <use x="63.623047" xlink:href="#DejaVuSans-48"/>
       <use x="127.246094" xlink:href="#DejaVuSans-50"/>
       <use x="190.869141" xlink:href="#DejaVuSans-48"/>
       <use x="254.492188" xlink:href="#DejaVuSans-45"/>
       <use x="290.576172" xlink:href="#DejaVuSans-49"/>
       <use x="354.199219" xlink:href="#DejaVuSans-48"/>
      </g>
     </g>
    </g>
    <g id="xtick_5">
     <g id="line2d_5">
      <g>
       <use style="stroke:#000000;stroke-width:0.8;" x="443.633873" xlink:href="#m68e03dc483" y="460.8"/>
      </g>
     </g>
     <g id="text_5">
      <!-- 2021-01 -->
      <g transform="translate(398.964088 500.766215)rotate(-30)scale(0.12 -0.12)">
       <use xlink:href="#DejaVuSans-50"/>
       <use x="63.623047" xlink:href="#DejaVuSans-48"/>
       <use x="127.246094" xlink:href="#DejaVuSans-50"/>
       <use x="190.869141" xlink:href="#DejaVuSans-49"/>
       <use x="254.492188" xlink:href="#DejaVuSans-45"/>
       <use x="290.576172" xlink:href="#DejaVuSans-48"/>
       <use x="354.199219" xlink:href="#DejaVuSans-49"/>
      </g>
     </g>
    </g>
    <g id="xtick_6">
     <g id="line2d_6">
      <g>
       <use style="stroke:#000000;stroke-width:0.8;" x="518.682441" xlink:href="#m68e03dc483" y="460.8"/>
      </g>
     </g>
     <g id="text_6">
      <!-- 2021-04 -->
      <g transform="translate(474.012656 500.766215)rotate(-30)scale(0.12 -0.12)">
       <use xlink:href="#DejaVuSans-50"/>
       <use x="63.623047" xlink:href="#DejaVuSans-48"/>
       <use x="127.246094" xlink:href="#DejaVuSans-50"/>
       <use x="190.869141" xlink:href="#DejaVuSans-49"/>
       <use x="254.492188" xlink:href="#DejaVuSans-45"/>
       <use x="290.576172" xlink:href="#DejaVuSans-48"/>
       <use x="354.199219" xlink:href="#DejaVuSans-52"/>
      </g>
     </g>
    </g>
    <g id="xtick_7">
     <g id="line2d_7">
      <g>
       <use style="stroke:#000000;stroke-width:0.8;" x="594.564882" xlink:href="#m68e03dc483" y="460.8"/>
      </g>
     </g>
     <g id="text_7">
      <!-- 2021-07 -->
      <g transform="translate(549.895097 500.766215)rotate(-30)scale(0.12 -0.12)">
       <use xlink:href="#DejaVuSans-50"/>
       <use x="63.623047" xlink:href="#DejaVuSans-48"/>
       <use x="127.246094" xlink:href="#DejaVuSans-50"/>
       <use x="190.869141" xlink:href="#DejaVuSans-49"/>
       <use x="254.492188" xlink:href="#DejaVuSans-45"/>
       <use x="290.576172" xlink:href="#DejaVuSans-48"/>
       <use x="354.199219" xlink:href="#DejaVuSans-55"/>
      </g>
     </g>
    </g>
    <g id="xtick_8">
     <g id="line2d_8">
      <g>
       <use style="stroke:#000000;stroke-width:0.8;" x="671.281196" xlink:href="#m68e03dc483" y="460.8"/>
      </g>
     </g>
     <g id="text_8">
      <!-- 2021-10 -->
      <g transform="translate(626.611411 500.766215)rotate(-30)scale(0.12 -0.12)">
       <use xlink:href="#DejaVuSans-50"/>
       <use x="63.623047" xlink:href="#DejaVuSans-48"/>
       <use x="127.246094" xlink:href="#DejaVuSans-50"/>
       <use x="190.869141" xlink:href="#DejaVuSans-49"/>
       <use x="254.492188" xlink:href="#DejaVuSans-45"/>
       <use x="290.576172" xlink:href="#DejaVuSans-49"/>
       <use x="354.199219" xlink:href="#DejaVuSans-48"/>
      </g>
     </g>
    </g>
    <g id="xtick_9">
     <g id="line2d_9">
      <g>
       <use style="stroke:#000000;stroke-width:0.8;" x="747.997509" xlink:href="#m68e03dc483" y="460.8"/>
      </g>
     </g>
     <g id="text_9">
      <!-- 2022-01 -->
      <g transform="translate(703.327724 500.766215)rotate(-30)scale(0.12 -0.12)">
       <use xlink:href="#DejaVuSans-50"/>
       <use x="63.623047" xlink:href="#DejaVuSans-48"/>
       <use x="127.246094" xlink:href="#DejaVuSans-50"/>
       <use x="190.869141" xlink:href="#DejaVuSans-50"/>
       <use x="254.492188" xlink:href="#DejaVuSans-45"/>
       <use x="290.576172" xlink:href="#DejaVuSans-48"/>
       <use x="354.199219" xlink:href="#DejaVuSans-49"/>
      </g>
     </g>
    </g>
    <g id="text_10">
     <!-- Date -->
     <g transform="translate(424.873828 518.325146)scale(0.15 -0.15)">
      <defs>
       <path d="M 19.671875 64.796875 
L 19.671875 8.109375 
L 31.59375 8.109375 
Q 46.6875 8.109375 53.6875 14.9375 
Q 60.6875 21.78125 60.6875 36.53125 
Q 60.6875 51.171875 53.6875 57.984375 
Q 46.6875 64.796875 31.59375 64.796875 
z
M 9.8125 72.90625 
L 30.078125 72.90625 
Q 51.265625 72.90625 61.171875 64.09375 
Q 71.09375 55.28125 71.09375 36.53125 
Q 71.09375 17.671875 61.125 8.828125 
Q 51.171875 0 30.078125 0 
L 9.8125 0 
z
" id="DejaVuSans-68"/>
       <path d="M 34.28125 27.484375 
Q 23.390625 27.484375 19.1875 25 
Q 14.984375 22.515625 14.984375 16.5 
Q 14.984375 11.71875 18.140625 8.90625 
Q 21.296875 6.109375 26.703125 6.109375 
Q 34.1875 6.109375 38.703125 11.40625 
Q 43.21875 16.703125 43.21875 25.484375 
L 43.21875 27.484375 
z
M 52.203125 31.203125 
L 52.203125 0 
L 43.21875 0 
L 43.21875 8.296875 
Q 40.140625 3.328125 35.546875 0.953125 
Q 30.953125 -1.421875 24.3125 -1.421875 
Q 15.921875 -1.421875 10.953125 3.296875 
Q 6 8.015625 6 15.921875 
Q 6 25.140625 12.171875 29.828125 
Q 18.359375 34.515625 30.609375 34.515625 
L 43.21875 34.515625 
L 43.21875 35.40625 
Q 43.21875 41.609375 39.140625 45 
Q 35.0625 48.390625 27.6875 48.390625 
Q 23 48.390625 18.546875 47.265625 
Q 14.109375 46.140625 10.015625 43.890625 
L 10.015625 52.203125 
Q 14.9375 54.109375 19.578125 55.046875 
Q 24.21875 56 28.609375 56 
Q 40.484375 56 46.34375 49.84375 
Q 52.203125 43.703125 52.203125 31.203125 
z
" id="DejaVuSans-97"/>
       <path d="M 18.3125 70.21875 
L 18.3125 54.6875 
L 36.8125 54.6875 
L 36.8125 47.703125 
L 18.3125 47.703125 
L 18.3125 18.015625 
Q 18.3125 11.328125 20.140625 9.421875 
Q 21.96875 7.515625 27.59375 7.515625 
L 36.8125 7.515625 
L 36.8125 0 
L 27.59375 0 
Q 17.1875 0 13.234375 3.875 
Q 9.28125 7.765625 9.28125 18.015625 
L 9.28125 47.703125 
L 2.6875 47.703125 
L 2.6875 54.6875 
L 9.28125 54.6875 
L 9.28125 70.21875 
z
" id="DejaVuSans-116"/>
       <path d="M 56.203125 29.59375 
L 56.203125 25.203125 
L 14.890625 25.203125 
Q 15.484375 15.921875 20.484375 11.0625 
Q 25.484375 6.203125 34.421875 6.203125 
Q 39.59375 6.203125 44.453125 7.46875 
Q 49.3125 8.734375 54.109375 11.28125 
L 54.109375 2.78125 
Q 49.265625 0.734375 44.1875 -0.34375 
Q 39.109375 -1.421875 33.890625 -1.421875 
Q 20.796875 -1.421875 13.15625 6.1875 
Q 5.515625 13.8125 5.515625 26.8125 
Q 5.515625 40.234375 12.765625 48.109375 
Q 20.015625 56 32.328125 56 
Q 43.359375 56 49.78125 48.890625 
Q 56.203125 41.796875 56.203125 29.59375 
z
M 47.21875 32.234375 
Q 47.125 39.59375 43.09375 43.984375 
Q 39.0625 48.390625 32.421875 48.390625 
Q 24.90625 48.390625 20.390625 44.140625 
Q 15.875 39.890625 15.1875 32.171875 
z
" id="DejaVuSans-101"/>
      </defs>
      <use xlink:href="#DejaVuSans-68"/>
      <use x="77.001953" xlink:href="#DejaVuSans-97"/>
      <use x="138.28125" xlink:href="#DejaVuSans-116"/>
      <use x="177.490234" xlink:href="#DejaVuSans-101"/>
     </g>
    </g>
   </g>
   <g id="matplotlib.axis_2">
    <g id="ytick_1">
     <g id="line2d_10">
      <defs>
       <path d="M 0 0 
L -3.5 0 
" id="m068407cb57" style="stroke:#000000;stroke-width:0.8;"/>
      </defs>
      <g>
       <use style="stroke:#000000;stroke-width:0.8;" x="108" xlink:href="#m068407cb57" y="437.365997"/>
      </g>
     </g>
     <g id="text_11">
      <!-- 0 -->
      <g transform="translate(93.365 441.925059)scale(0.12 -0.12)">
       <use xlink:href="#DejaVuSans-48"/>
      </g>
     </g>
    </g>
    <g id="ytick_2">
     <g id="line2d_11">
      <g>
       <use style="stroke:#000000;stroke-width:0.8;" x="108" xlink:href="#m068407cb57" y="384.665113"/>
      </g>
     </g>
     <g id="text_12">
      <!-- 20 -->
      <g transform="translate(85.73 389.224176)scale(0.12 -0.12)">
       <use xlink:href="#DejaVuSans-50"/>
       <use x="63.623047" xlink:href="#DejaVuSans-48"/>
      </g>
     </g>
    </g>
    <g id="ytick_3">
     <g id="line2d_12">
      <g>
       <use style="stroke:#000000;stroke-width:0.8;" x="108" xlink:href="#m068407cb57" y="331.964229"/>
      </g>
     </g>
     <g id="text_13">
      <!-- 40 -->
      <g transform="translate(85.73 336.523292)scale(0.12 -0.12)">
       <use xlink:href="#DejaVuSans-52"/>
       <use x="63.623047" xlink:href="#DejaVuSans-48"/>
      </g>
     </g>
    </g>
    <g id="ytick_4">
     <g id="line2d_13">
      <g>
       <use style="stroke:#000000;stroke-width:0.8;" x="108" xlink:href="#m068407cb57" y="279.263345"/>
      </g>
     </g>
     <g id="text_14">
      <!-- 60 -->
      <g transform="translate(85.73 283.822408)scale(0.12 -0.12)">
       <defs>
        <path d="M 33.015625 40.375 
Q 26.375 40.375 22.484375 35.828125 
Q 18.609375 31.296875 18.609375 23.390625 
Q 18.609375 15.53125 22.484375 10.953125 
Q 26.375 6.390625 33.015625 6.390625 
Q 39.65625 6.390625 43.53125 10.953125 
Q 47.40625 15.53125 47.40625 23.390625 
Q 47.40625 31.296875 43.53125 35.828125 
Q 39.65625 40.375 33.015625 40.375 
z
M 52.59375 71.296875 
L 52.59375 62.3125 
Q 48.875 64.0625 45.09375 64.984375 
Q 41.3125 65.921875 37.59375 65.921875 
Q 27.828125 65.921875 22.671875 59.328125 
Q 17.53125 52.734375 16.796875 39.40625 
Q 19.671875 43.65625 24.015625 45.921875 
Q 28.375 48.1875 33.59375 48.1875 
Q 44.578125 48.1875 50.953125 41.515625 
Q 57.328125 34.859375 57.328125 23.390625 
Q 57.328125 12.15625 50.6875 5.359375 
Q 44.046875 -1.421875 33.015625 -1.421875 
Q 20.359375 -1.421875 13.671875 8.265625 
Q 6.984375 17.96875 6.984375 36.375 
Q 6.984375 53.65625 15.1875 63.9375 
Q 23.390625 74.21875 37.203125 74.21875 
Q 40.921875 74.21875 44.703125 73.484375 
Q 48.484375 72.75 52.59375 71.296875 
z
" id="DejaVuSans-54"/>
       </defs>
       <use xlink:href="#DejaVuSans-54"/>
       <use x="63.623047" xlink:href="#DejaVuSans-48"/>
      </g>
     </g>
    </g>
    <g id="ytick_5">
     <g id="line2d_14">
      <g>
       <use style="stroke:#000000;stroke-width:0.8;" x="108" xlink:href="#m068407cb57" y="226.562461"/>
      </g>
     </g>
     <g id="text_15">
      <!-- 80 -->
      <g transform="translate(85.73 231.121524)scale(0.12 -0.12)">
       <defs>
        <path d="M 31.78125 34.625 
Q 24.75 34.625 20.71875 30.859375 
Q 16.703125 27.09375 16.703125 20.515625 
Q 16.703125 13.921875 20.71875 10.15625 
Q 24.75 6.390625 31.78125 6.390625 
Q 38.8125 6.390625 42.859375 10.171875 
Q 46.921875 13.96875 46.921875 20.515625 
Q 46.921875 27.09375 42.890625 30.859375 
Q 38.875 34.625 31.78125 34.625 
z
M 21.921875 38.8125 
Q 15.578125 40.375 12.03125 44.71875 
Q 8.5 49.078125 8.5 55.328125 
Q 8.5 64.0625 14.71875 69.140625 
Q 20.953125 74.21875 31.78125 74.21875 
Q 42.671875 74.21875 48.875 69.140625 
Q 55.078125 64.0625 55.078125 55.328125 
Q 55.078125 49.078125 51.53125 44.71875 
Q 48 40.375 41.703125 38.8125 
Q 48.828125 37.15625 52.796875 32.3125 
Q 56.78125 27.484375 56.78125 20.515625 
Q 56.78125 9.90625 50.3125 4.234375 
Q 43.84375 -1.421875 31.78125 -1.421875 
Q 19.734375 -1.421875 13.25 4.234375 
Q 6.78125 9.90625 6.78125 20.515625 
Q 6.78125 27.484375 10.78125 32.3125 
Q 14.796875 37.15625 21.921875 38.8125 
z
M 18.3125 54.390625 
Q 18.3125 48.734375 21.84375 45.5625 
Q 25.390625 42.390625 31.78125 42.390625 
Q 38.140625 42.390625 41.71875 45.5625 
Q 45.3125 48.734375 45.3125 54.390625 
Q 45.3125 60.0625 41.71875 63.234375 
Q 38.140625 66.40625 31.78125 66.40625 
Q 25.390625 66.40625 21.84375 63.234375 
Q 18.3125 60.0625 18.3125 54.390625 
z
" id="DejaVuSans-56"/>
       </defs>
       <use xlink:href="#DejaVuSans-56"/>
       <use x="63.623047" xlink:href="#DejaVuSans-48"/>
      </g>
     </g>
    </g>
    <g id="ytick_6">
     <g id="line2d_15">
      <g>
       <use style="stroke:#000000;stroke-width:0.8;" x="108" xlink:href="#m068407cb57" y="173.861578"/>
      </g>
     </g>
     <g id="text_16">
      <!-- 100 -->
      <g transform="translate(78.095 178.42064)scale(0.12 -0.12)">
       <use xlink:href="#DejaVuSans-49"/>
       <use x="63.623047" xlink:href="#DejaVuSans-48"/>
       <use x="127.246094" xlink:href="#DejaVuSans-48"/>
      </g>
     </g>
    </g>
    <g id="ytick_7">
     <g id="line2d_16">
      <g>
       <use style="stroke:#000000;stroke-width:0.8;" x="108" xlink:href="#m068407cb57" y="121.160694"/>
      </g>
     </g>
     <g id="text_17">
      <!-- 120 -->
      <g transform="translate(78.095 125.719756)scale(0.12 -0.12)">
       <use xlink:href="#DejaVuSans-49"/>
       <use x="63.623047" xlink:href="#DejaVuSans-50"/>
       <use x="127.246094" xlink:href="#DejaVuSans-48"/>
      </g>
     </g>
    </g>
    <g id="text_18">
     <!-- PM10(micro-gram/m3) -->
     <g transform="translate(70.975469 349.562344)rotate(-90)scale(0.15 -0.15)">
      <defs>
       <path d="M 19.671875 64.796875 
L 19.671875 37.40625 
L 32.078125 37.40625 
Q 38.96875 37.40625 42.71875 40.96875 
Q 46.484375 44.53125 46.484375 51.125 
Q 46.484375 57.671875 42.71875 61.234375 
Q 38.96875 64.796875 32.078125 64.796875 
z
M 9.8125 72.90625 
L 32.078125 72.90625 
Q 44.34375 72.90625 50.609375 67.359375 
Q 56.890625 61.8125 56.890625 51.125 
Q 56.890625 40.328125 50.609375 34.8125 
Q 44.34375 29.296875 32.078125 29.296875 
L 19.671875 29.296875 
L 19.671875 0 
L 9.8125 0 
z
" id="DejaVuSans-80"/>
       <path d="M 9.8125 72.90625 
L 24.515625 72.90625 
L 43.109375 23.296875 
L 61.8125 72.90625 
L 76.515625 72.90625 
L 76.515625 0 
L 66.890625 0 
L 66.890625 64.015625 
L 48.09375 14.015625 
L 38.1875 14.015625 
L 19.390625 64.015625 
L 19.390625 0 
L 9.8125 0 
z
" id="DejaVuSans-77"/>
       <path d="M 31 75.875 
Q 24.46875 64.65625 21.28125 53.65625 
Q 18.109375 42.671875 18.109375 31.390625 
Q 18.109375 20.125 21.3125 9.0625 
Q 24.515625 -2 31 -13.1875 
L 23.1875 -13.1875 
Q 15.875 -1.703125 12.234375 9.375 
Q 8.59375 20.453125 8.59375 31.390625 
Q 8.59375 42.28125 12.203125 53.3125 
Q 15.828125 64.359375 23.1875 75.875 
z
" id="DejaVuSans-40"/>
       <path d="M 52 44.1875 
Q 55.375 50.25 60.0625 53.125 
Q 64.75 56 71.09375 56 
Q 79.640625 56 84.28125 50.015625 
Q 88.921875 44.046875 88.921875 33.015625 
L 88.921875 0 
L 79.890625 0 
L 79.890625 32.71875 
Q 79.890625 40.578125 77.09375 44.375 
Q 74.3125 48.1875 68.609375 48.1875 
Q 61.625 48.1875 57.5625 43.546875 
Q 53.515625 38.921875 53.515625 30.90625 
L 53.515625 0 
L 44.484375 0 
L 44.484375 32.71875 
Q 44.484375 40.625 41.703125 44.40625 
Q 38.921875 48.1875 33.109375 48.1875 
Q 26.21875 48.1875 22.15625 43.53125 
Q 18.109375 38.875 18.109375 30.90625 
L 18.109375 0 
L 9.078125 0 
L 9.078125 54.6875 
L 18.109375 54.6875 
L 18.109375 46.1875 
Q 21.1875 51.21875 25.484375 53.609375 
Q 29.78125 56 35.6875 56 
Q 41.65625 56 45.828125 52.96875 
Q 50 49.953125 52 44.1875 
z
" id="DejaVuSans-109"/>
       <path d="M 9.421875 54.6875 
L 18.40625 54.6875 
L 18.40625 0 
L 9.421875 0 
z
M 9.421875 75.984375 
L 18.40625 75.984375 
L 18.40625 64.59375 
L 9.421875 64.59375 
z
" id="DejaVuSans-105"/>
       <path d="M 48.78125 52.59375 
L 48.78125 44.1875 
Q 44.96875 46.296875 41.140625 47.34375 
Q 37.3125 48.390625 33.40625 48.390625 
Q 24.65625 48.390625 19.8125 42.84375 
Q 14.984375 37.3125 14.984375 27.296875 
Q 14.984375 17.28125 19.8125 11.734375 
Q 24.65625 6.203125 33.40625 6.203125 
Q 37.3125 6.203125 41.140625 7.25 
Q 44.96875 8.296875 48.78125 10.40625 
L 48.78125 2.09375 
Q 45.015625 0.34375 40.984375 -0.53125 
Q 36.96875 -1.421875 32.421875 -1.421875 
Q 20.0625 -1.421875 12.78125 6.34375 
Q 5.515625 14.109375 5.515625 27.296875 
Q 5.515625 40.671875 12.859375 48.328125 
Q 20.21875 56 33.015625 56 
Q 37.15625 56 41.109375 55.140625 
Q 45.0625 54.296875 48.78125 52.59375 
z
" id="DejaVuSans-99"/>
       <path d="M 41.109375 46.296875 
Q 39.59375 47.171875 37.8125 47.578125 
Q 36.03125 48 33.890625 48 
Q 26.265625 48 22.1875 43.046875 
Q 18.109375 38.09375 18.109375 28.8125 
L 18.109375 0 
L 9.078125 0 
L 9.078125 54.6875 
L 18.109375 54.6875 
L 18.109375 46.1875 
Q 20.953125 51.171875 25.484375 53.578125 
Q 30.03125 56 36.53125 56 
Q 37.453125 56 38.578125 55.875 
Q 39.703125 55.765625 41.0625 55.515625 
z
" id="DejaVuSans-114"/>
       <path d="M 30.609375 48.390625 
Q 23.390625 48.390625 19.1875 42.75 
Q 14.984375 37.109375 14.984375 27.296875 
Q 14.984375 17.484375 19.15625 11.84375 
Q 23.34375 6.203125 30.609375 6.203125 
Q 37.796875 6.203125 41.984375 11.859375 
Q 46.1875 17.53125 46.1875 27.296875 
Q 46.1875 37.015625 41.984375 42.703125 
Q 37.796875 48.390625 30.609375 48.390625 
z
M 30.609375 56 
Q 42.328125 56 49.015625 48.375 
Q 55.71875 40.765625 55.71875 27.296875 
Q 55.71875 13.875 49.015625 6.21875 
Q 42.328125 -1.421875 30.609375 -1.421875 
Q 18.84375 -1.421875 12.171875 6.21875 
Q 5.515625 13.875 5.515625 27.296875 
Q 5.515625 40.765625 12.171875 48.375 
Q 18.84375 56 30.609375 56 
z
" id="DejaVuSans-111"/>
       <path d="M 45.40625 27.984375 
Q 45.40625 37.75 41.375 43.109375 
Q 37.359375 48.484375 30.078125 48.484375 
Q 22.859375 48.484375 18.828125 43.109375 
Q 14.796875 37.75 14.796875 27.984375 
Q 14.796875 18.265625 18.828125 12.890625 
Q 22.859375 7.515625 30.078125 7.515625 
Q 37.359375 7.515625 41.375 12.890625 
Q 45.40625 18.265625 45.40625 27.984375 
z
M 54.390625 6.78125 
Q 54.390625 -7.171875 48.1875 -13.984375 
Q 42 -20.796875 29.203125 -20.796875 
Q 24.46875 -20.796875 20.265625 -20.09375 
Q 16.0625 -19.390625 12.109375 -17.921875 
L 12.109375 -9.1875 
Q 16.0625 -11.328125 19.921875 -12.34375 
Q 23.78125 -13.375 27.78125 -13.375 
Q 36.625 -13.375 41.015625 -8.765625 
Q 45.40625 -4.15625 45.40625 5.171875 
L 45.40625 9.625 
Q 42.625 4.78125 38.28125 2.390625 
Q 33.9375 0 27.875 0 
Q 17.828125 0 11.671875 7.65625 
Q 5.515625 15.328125 5.515625 27.984375 
Q 5.515625 40.671875 11.671875 48.328125 
Q 17.828125 56 27.875 56 
Q 33.9375 56 38.28125 53.609375 
Q 42.625 51.21875 45.40625 46.390625 
L 45.40625 54.6875 
L 54.390625 54.6875 
z
" id="DejaVuSans-103"/>
       <path d="M 25.390625 72.90625 
L 33.6875 72.90625 
L 8.296875 -9.28125 
L 0 -9.28125 
z
" id="DejaVuSans-47"/>
       <path d="M 40.578125 39.3125 
Q 47.65625 37.796875 51.625 33 
Q 55.609375 28.21875 55.609375 21.1875 
Q 55.609375 10.40625 48.1875 4.484375 
Q 40.765625 -1.421875 27.09375 -1.421875 
Q 22.515625 -1.421875 17.65625 -0.515625 
Q 12.796875 0.390625 7.625 2.203125 
L 7.625 11.71875 
Q 11.71875 9.328125 16.59375 8.109375 
Q 21.484375 6.890625 26.8125 6.890625 
Q 36.078125 6.890625 40.9375 10.546875 
Q 45.796875 14.203125 45.796875 21.1875 
Q 45.796875 27.640625 41.28125 31.265625 
Q 36.765625 34.90625 28.71875 34.90625 
L 20.21875 34.90625 
L 20.21875 43.015625 
L 29.109375 43.015625 
Q 36.375 43.015625 40.234375 45.921875 
Q 44.09375 48.828125 44.09375 54.296875 
Q 44.09375 59.90625 40.109375 62.90625 
Q 36.140625 65.921875 28.71875 65.921875 
Q 24.65625 65.921875 20.015625 65.03125 
Q 15.375 64.15625 9.8125 62.3125 
L 9.8125 71.09375 
Q 15.4375 72.65625 20.34375 73.4375 
Q 25.25 74.21875 29.59375 74.21875 
Q 40.828125 74.21875 47.359375 69.109375 
Q 53.90625 64.015625 53.90625 55.328125 
Q 53.90625 49.265625 50.4375 45.09375 
Q 46.96875 40.921875 40.578125 39.3125 
z
" id="DejaVuSans-51"/>
       <path d="M 8.015625 75.875 
L 15.828125 75.875 
Q 23.140625 64.359375 26.78125 53.3125 
Q 30.421875 42.28125 30.421875 31.390625 
Q 30.421875 20.453125 26.78125 9.375 
Q 23.140625 -1.703125 15.828125 -13.1875 
L 8.015625 -13.1875 
Q 14.5 -2 17.703125 9.0625 
Q 20.90625 20.125 20.90625 31.390625 
Q 20.90625 42.671875 17.703125 53.65625 
Q 14.5 64.65625 8.015625 75.875 
z
" id="DejaVuSans-41"/>
      </defs>
      <use xlink:href="#DejaVuSans-80"/>
      <use x="60.302734" xlink:href="#DejaVuSans-77"/>
      <use x="146.582031" xlink:href="#DejaVuSans-49"/>
      <use x="210.205078" xlink:href="#DejaVuSans-48"/>
      <use x="273.828125" xlink:href="#DejaVuSans-40"/>
      <use x="312.841797" xlink:href="#DejaVuSans-109"/>
      <use x="410.253906" xlink:href="#DejaVuSans-105"/>
      <use x="438.037109" xlink:href="#DejaVuSans-99"/>
      <use x="493.017578" xlink:href="#DejaVuSans-114"/>
      <use x="531.880859" xlink:href="#DejaVuSans-111"/>
      <use x="594.9375" xlink:href="#DejaVuSans-45"/>
      <use x="631.021484" xlink:href="#DejaVuSans-103"/>
      <use x="694.498047" xlink:href="#DejaVuSans-114"/>
      <use x="735.611328" xlink:href="#DejaVuSans-97"/>
      <use x="796.890625" xlink:href="#DejaVuSans-109"/>
      <use x="894.302734" xlink:href="#DejaVuSans-47"/>
      <use x="927.994141" xlink:href="#DejaVuSans-109"/>
      <use x="1025.40625" xlink:href="#DejaVuSans-51"/>
      <use x="1089.029297" xlink:href="#DejaVuSans-41"/>
     </g>
    </g>
   </g>
   <g id="line2d_17">
    <path clip-path="url(#pedbd7b6103)" d="M 138.436364 316.593138 
L 139.270237 297.58888 
L 140.10411 282.337564 
L 140.937983 278.824171 
L 141.771856 335.148241 
L 142.605729 334.928654 
L 143.439601 298.916383 
L 144.273474 282.117977 
L 145.107347 303.088537 
L 145.94122 303.417917 
L 146.775093 265.31957 
L 147.608966 297.598861 
L 148.442839 279.482932 
L 149.276712 310.005528 
L 150.110585 290.043072 
L 150.944458 289.144761 
L 151.778331 312.201398 
L 152.612204 317.58128 
L 153.446077 276.847888 
L 154.27995 323.83951 
L 155.113823 288.266413 
L 156.781569 318.679215 
L 157.615442 339.869362 
L 158.449315 354.252311 
L 159.283188 387.739331 
L 160.117061 393.887768 
L 160.950934 383.567178 
L 161.784807 358.534258 
L 162.61868 345.468831 
L 163.452553 334.479499 
L 164.286426 330.207533 
L 165.120299 317.032312 
L 165.954172 317.691073 
L 166.788045 366.988358 
L 167.621918 368.282012 
L 168.455791 342.175025 
L 169.289664 320.655498 
L 170.123537 392.350659 
L 170.95741 373.246588 
L 171.791283 348.323462 
L 172.625156 328.450837 
L 173.459029 299.13597 
L 174.292902 364.682695 
L 175.126775 368.196087 
L 175.960648 349.092016 
L 176.794521 407.611956 
L 177.628394 363.145586 
L 178.462267 371.031624 
L 179.296139 343.492548 
L 180.963885 348.323462 
L 181.797758 301.551427 
L 182.631631 318.679215 
L 183.465504 291.340631 
L 184.299377 301.33184 
L 185.13325 322.861349 
L 185.967123 347.664701 
L 186.800996 333.093534 
L 187.634869 339.539981 
L 188.468742 324.278684 
L 189.302615 327.839812 
L 190.136488 335.038447 
L 190.970361 368.495524 
L 191.804234 380.273373 
L 192.638107 342.065232 
L 193.47198 273.444289 
L 194.305853 339.869362 
L 195.139726 343.053374 
L 195.973599 341.955438 
L 196.807472 338.88122 
L 197.641345 251.266001 
L 198.475218 229.63668 
L 199.309091 345.13945 
L 200.142964 281.020041 
L 200.976837 269.38193 
L 201.81071 262.375108 
L 202.644583 286.399923 
L 203.478456 332.513197 
L 204.312329 261.586591 
L 205.146202 278.275204 
L 205.980075 315.604997 
L 206.813948 339.649775 
L 207.647821 318.559874 
L 208.481694 323.729716 
L 209.315567 323.290542 
L 210.14944 343.163167 
L 210.983313 332.513197 
L 211.817186 350.738919 
L 212.651059 338.222459 
L 213.484932 341.516264 
L 214.318804 316.483345 
L 215.152677 307.26069 
L 215.98655 348.652842 
L 216.820423 360.400748 
L 217.654296 382.030069 
L 218.488169 375.222871 
L 220.155915 308.468418 
L 220.989788 331.195675 
L 221.823661 312.969952 
L 222.657534 265.64895 
L 223.491407 361.279096 
L 224.32528 331.085881 
L 225.159153 292.218979 
L 225.993026 246.984054 
L 226.826899 309.12718 
L 227.660772 334.269893 
L 228.494645 304.406059 
L 229.328518 330.09774 
L 230.162391 349.93044 
L 230.996264 365.670836 
L 231.830137 368.964641 
L 232.66401 357.765704 
L 233.497883 328.780217 
L 234.331756 280.910248 
L 235.165629 156.73379 
L 235.999502 205.921282 
L 236.833375 296.9401 
L 237.667248 290.901457 
L 238.501121 305.284407 
L 239.334994 347.225527 
L 240.168867 346.786353 
L 241.00274 350.738919 
L 242.670486 375.442458 
L 243.504359 368.525467 
L 244.338232 380.053786 
L 245.172105 382.908417 
L 246.005978 382.798623 
L 246.839851 380.932134 
L 247.673724 359.961574 
L 248.507597 315.604997 
L 249.341469 277.726236 
L 251.009215 355.78942 
L 251.843088 371.489892 
L 252.676961 377.199155 
L 253.510834 372.807414 
L 254.344707 374.454317 
L 255.17858 374.843585 
L 256.012453 353.26417 
L 256.846326 340.198742 
L 257.680199 388.94706 
L 258.514072 389.386234 
L 259.347945 377.528535 
L 260.181818 358.314671 
L 261.015691 301.880808 
L 261.849564 307.59007 
L 262.683437 361.059509 
L 263.51731 379.943992 
L 264.351183 377.905652 
L 265.185056 376.979568 
L 266.018929 375.843443 
L 266.852802 378.516677 
L 267.686675 385.503536 
L 268.520548 378.187296 
L 269.354421 384.335733 
L 270.188294 366.768771 
L 271.022167 366.658978 
L 271.85604 361.608476 
L 272.689913 384.8847 
L 273.523786 392.809795 
L 274.357659 395.20529 
L 275.191532 383.347591 
L 276.025405 399.26765 
L 276.859278 383.676972 
L 278.527024 390.703756 
L 279.360897 390.81355 
L 280.19477 393.3388 
L 281.028643 398.938269 
L 281.862516 399.26765 
L 282.696389 381.041927 
L 283.530262 379.834199 
L 284.364134 380.82234 
L 285.198007 382.469243 
L 286.03188 389.825408 
L 286.865753 389.056853 
L 287.699626 395.754257 
L 288.533499 400.131677 
L 289.367372 402.451661 
L 290.201245 411.674316 
L 291.035118 397.840334 
L 291.868991 387.300157 
L 292.702864 384.774907 
L 293.536737 394.546529 
L 294.37061 387.629538 
L 295.204483 383.676972 
L 296.038356 370.940925 
L 296.872229 364.902282 
L 297.706102 363.91414 
L 298.539975 372.807414 
L 299.373848 391.801691 
L 300.207721 366.439391 
L 301.041594 372.697621 
L 301.875467 373.575969 
L 302.70934 387.529292 
L 303.543213 391.691898 
L 304.377086 395.20529 
L 305.210959 393.997561 
L 306.044832 397.725767 
L 306.878705 395.53467 
L 307.712578 399.487237 
L 308.546451 397.07178 
L 309.380324 385.433668 
L 310.214197 379.065644 
L 311.04807 387.849125 
L 312.715816 393.997561 
L 313.549689 388.837266 
L 314.383562 395.804164 
L 315.217435 397.07178 
L 316.051308 393.69955 
L 316.885181 411.39199 
L 317.719054 414.30936 
L 319.3868 402.232074 
L 320.220672 397.510954 
L 321.054545 390.484169 
L 321.888418 390.044995 
L 322.722291 398.828476 
L 323.556164 392.131072 
L 324.390037 399.487237 
L 325.22391 396.923797 
L 326.057783 390.923343 
L 326.891656 390.484169 
L 327.725529 397.840334 
L 328.559402 400.475378 
L 329.393275 394.766116 
L 330.227148 367.098152 
L 331.061021 413.12359 
L 332.728767 329.768359 
L 333.56264 326.584347 
L 334.396513 368.086293 
L 335.230386 362.486824 
L 336.064259 362.486824 
L 336.898132 363.474966 
L 337.732005 350.409539 
L 338.565878 313.958094 
L 339.399751 319.447769 
L 340.233624 322.961162 
L 341.067497 341.07709 
L 343.569116 271.138626 
L 344.402989 341.186884 
L 345.236862 376.041332 
L 346.070735 375.332665 
L 346.904608 396.193431 
L 347.738481 403.000629 
L 348.572354 388.507886 
L 349.406227 377.967709 
L 350.2401 395.53467 
L 351.073973 382.798623 
L 351.907846 381.151721 
L 352.741719 382.139862 
L 353.575592 400.365585 
L 354.409465 397.07178 
L 355.243337 393.028514 
L 356.07721 392.789833 
L 356.911083 393.448594 
L 358.578829 404.427945 
L 359.412702 365.78063 
L 360.246575 364.38673 
L 361.080448 342.284819 
L 361.914321 333.109901 
L 362.748194 343.382754 
L 364.41594 358.644052 
L 365.249813 395.095496 
L 366.083686 392.570246 
L 366.917559 362.486824 
L 367.751432 340.198742 
L 368.585305 343.272961 
L 369.419178 326.913728 
L 370.253051 336.795144 
L 371.086924 317.142106 
L 371.920797 339.296526 
L 372.75467 330.866294 
L 373.588543 289.034968 
L 374.422416 264.441222 
L 375.256289 280.251487 
L 376.090162 280.580867 
L 376.924035 385.433668 
L 377.757908 345.390407 
L 378.591781 339.649775 
L 379.425654 301.771014 
L 381.0934 311.65243 
L 381.927273 322.192607 
L 382.761146 307.790563 
L 383.595019 307.919451 
L 384.428892 300.453492 
L 385.262765 256.096915 
L 386.096638 225.354733 
L 386.930511 248.960337 
L 387.764384 293.975675 
L 388.598257 306.052961 
L 389.43213 319.996737 
L 390.266002 312.420985 
L 391.099875 277.315704 
L 391.933748 286.509717 
L 392.767621 283.874673 
L 393.601494 221.072786 
L 394.435367 293.207121 
L 395.26924 260.159275 
L 396.103113 307.446861 
L 396.936986 201.419748 
L 397.770859 226.233081 
L 399.438605 208.117152 
L 400.272478 188.134734 
L 401.106351 245.776325 
L 401.940224 271.248419 
L 402.774097 275.420573 
L 403.60797 270.589658 
L 404.441843 303.088537 
L 405.275716 303.088537 
L 406.109589 349.311603 
L 406.943462 354.877657 
L 407.777335 370.062577 
L 408.611208 369.733196 
L 409.445081 361.937857 
L 410.278954 361.498683 
L 411.9467 259.171133 
L 412.780573 297.159687 
L 413.614446 275.091192 
L 414.448319 280.580867 
L 415.282192 300.343699 
L 416.116065 311.981811 
L 416.949938 305.739266 
L 417.783811 279.043758 
L 418.617684 283.106118 
L 419.451557 290.032656 
L 420.28543 288.815381 
L 421.119303 256.316502 
L 421.953176 209.215087 
L 422.787049 175.538424 
L 423.620922 231.722756 
L 424.454795 206.909423 
L 425.288667 194.612551 
L 426.12254 227.111429 
L 426.956413 212.470703 
L 427.790286 326.832827 
L 428.624159 266.088124 
L 429.458032 329.548772 
L 430.291905 298.625192 
L 431.125778 291.450425 
L 431.959651 289.583935 
L 432.793524 272.675735 
L 433.627397 247.093847 
L 434.46127 207.787772 
L 435.295143 196.47904 
L 436.129016 173.971371 
L 436.962889 272.785528 
L 437.796762 244.239216 
L 438.630635 291.889599 
L 439.464508 210.971783 
L 440.298381 293.536501 
L 441.132254 285.611406 
L 441.966127 244.019629 
L 442.8 292.328773 
L 443.633873 307.224092 
L 444.467746 300.563286 
L 445.301619 249.179924 
L 446.135492 240.61603 
L 446.969365 180.229601 
L 447.803238 251.266001 
L 448.637111 192.197093 
L 449.470984 266.088124 
L 450.304857 287.937032 
L 451.13873 272.236561 
L 451.972603 280.0319 
L 452.806476 233.259865 
L 453.640349 223.70783 
L 454.474222 203.190765 
L 455.308095 244.019629 
L 456.141968 253.791251 
L 456.975841 95.542208 
L 457.809714 126.201648 
L 458.643587 215.143937 
L 459.47746 285.521575 
L 460.311333 215.473317 
L 461.145205 241.823759 
L 461.979078 215.064087 
L 463.646824 292.87774 
L 464.480697 236.004703 
L 465.31457 259.280927 
L 466.148443 242.830995 
L 466.982316 307.26069 
L 467.816189 232.052137 
L 468.650062 320.326117 
L 469.483935 322.741575 
L 470.317808 265.64895 
L 471.151681 273.005115 
L 471.985554 282.008183 
L 472.819427 306.052961 
L 473.6533 295.402991 
L 474.487173 303.637504 
L 475.321046 307.809657 
L 476.154919 294.157073 
L 476.988792 387.958918 
L 477.822665 377.638329 
L 478.656538 358.204878 
L 479.490411 349.970365 
L 481.158157 325.925586 
L 481.99203 322.961162 
L 482.825903 337.783285 
L 483.659776 297.928242 
L 484.493649 304.076678 
L 485.327522 297.598861 
L 486.161395 296.171546 
L 487.829141 316.044171 
L 488.663014 316.044171 
L 489.496887 347.889062 
L 490.33076 355.240453 
L 491.164633 319.337976 
L 491.998506 335.148241 
L 492.832379 337.453905 
L 493.666252 339.210601 
L 494.500125 331.634849 
L 495.333998 285.521575 
L 496.16787 277.287062 
L 497.001743 324.827651 
L 497.835616 331.634849 
L 498.669489 354.581692 
L 499.503362 307.332294 
L 500.337235 322.521988 
L 501.171108 356.023328 
L 502.004981 307.150896 
L 502.838854 323.070955 
L 503.672727 309.895734 
L 504.5066 342.065232 
L 505.340473 319.118389 
L 506.174346 335.367828 
L 507.008219 347.884288 
L 507.842092 367.9765 
L 508.675965 351.287887 
L 509.509838 289.583935 
L 510.343711 270.150484 
L 511.177584 151.244115 
L 512.011457 101.798847 
L 512.84533 190.659984 
L 513.679203 332.513197 
L 514.513076 319.667356 
L 515.346949 331.195675 
L 516.180822 368.415674 
L 517.014695 372.36824 
L 517.848568 374.673904 
L 518.682441 376.101219 
L 519.516314 370.721338 
L 520.350187 371.270305 
L 521.18406 278.384997 
L 522.017933 303.527711 
L 522.851806 285.960749 
L 523.685679 328.298081 
L 524.519552 312.860159 
L 525.353425 354.581692 
L 526.187298 318.459628 
L 527.021171 341.955438 
L 527.855044 357.765704 
L 528.688917 362.816205 
L 529.52279 350.409539 
L 530.356663 355.130659 
L 531.190535 343.492548 
L 532.024408 335.916796 
L 532.858281 143.558569 
L 533.692154 201.472258 
L 534.526027 294.085469 
L 535.3599 282.996325 
L 536.193773 283.435499 
L 537.027646 288.925174 
L 537.861519 347.554907 
L 538.695392 341.186884 
L 539.529265 350.409539 
L 540.363138 379.065644 
L 542.030884 306.492135 
L 544.532503 346.566766 
L 545.366376 341.626058 
L 546.200249 352.276028 
L 547.867995 300.572833 
L 548.701868 332.513197 
L 549.535741 346.347179 
L 551.203487 382.908417 
L 552.03736 378.187296 
L 552.871233 370.611544 
L 553.705106 370.282164 
L 554.538979 369.074435 
L 555.372852 364.023934 
L 556.206725 375.881632 
L 557.040598 378.62647 
L 557.874471 370.062577 
L 558.708344 372.258447 
L 559.542217 369.427684 
L 560.37609 381.113532 
L 561.209963 388.94706 
L 562.043836 403.878977 
L 562.877709 381.151721 
L 563.711582 398.718682 
L 564.545455 390.484169 
L 565.379328 386.860983 
L 566.2132 386.75119 
L 567.047073 377.638329 
L 567.880946 363.035792 
L 568.714819 361.608476 
L 569.548692 390.484169 
L 570.382565 375.771839 
L 571.216438 378.36392 
L 572.050311 354.911072 
L 572.884184 314.507061 
L 573.718057 288.925174 
L 574.55193 355.46004 
L 575.385803 368.30588 
L 576.219676 399.926411 
L 577.053549 400.036204 
L 577.887422 393.887768 
L 578.721295 388.94706 
L 579.555168 393.668181 
L 580.389041 381.041927 
L 581.222914 370.282164 
L 582.056787 355.350246 
L 582.89066 364.463108 
L 583.724533 362.668222 
L 584.558406 352.385822 
L 585.392279 347.774494 
L 586.226152 338.88122 
L 587.060025 375.991426 
L 587.893898 388.94706 
L 588.727771 394.107355 
L 589.561644 383.519442 
L 590.395517 356.448182 
L 591.22939 340.528123 
L 592.063263 350.080158 
L 592.897136 343.492548 
L 593.731009 344.81007 
L 594.564882 351.440643 
L 595.398755 341.626058 
L 596.232628 354.362105 
L 597.066501 370.282164 
L 597.900374 392.789833 
L 598.734247 394.546529 
L 599.56812 388.507886 
L 600.401993 395.973844 
L 601.235866 384.55532 
L 602.069738 397.730541 
L 602.903611 394.656322 
L 603.737484 396.632605 
L 604.571357 388.507886 
L 605.40523 391.252724 
L 606.239103 397.954901 
L 607.072976 379.724405 
L 607.906849 350.738919 
L 608.740722 395.644464 
L 609.574595 405.965054 
L 610.408468 400.145998 
L 611.242341 392.021278 
L 612.076214 376.101219 
L 612.910087 334.81886 
L 613.74396 309.45656 
L 614.577833 340.967297 
L 615.411706 365.341456 
L 616.245579 297.379274 
L 617.079452 335.038447 
L 617.913325 360.949715 
L 618.747198 383.128004 
L 619.581071 356.887356 
L 620.414944 362.157444 
L 621.248817 351.39768 
L 622.08269 391.801691 
L 622.916563 330.756501 
L 623.750436 342.614199 
L 624.584309 328.670424 
L 625.418182 330.207533 
L 627.085928 351.836854 
L 627.919801 349.092016 
L 628.753674 373.575969 
L 629.587547 383.748576 
L 630.42142 371.380099 
L 632.089166 391.691898 
L 632.923039 392.460452 
L 633.756912 372.03886 
L 635.424658 376.979568 
L 636.258531 386.970777 
L 637.092403 379.724405 
L 637.926276 391.362517 
L 638.760149 390.923343 
L 639.594022 392.899626 
L 640.427895 397.730541 
L 641.261768 399.444274 
L 642.095641 391.14293 
L 642.929514 385.836244 
L 643.763387 389.056853 
L 644.59726 384.335733 
L 645.431133 366.219804 
L 646.265006 395.973844 
L 647.098879 411.235142 
L 647.932752 407.062989 
L 648.766625 405.52588 
L 649.600498 408.600098 
L 651.268244 384.545338 
L 652.102117 386.860983 
L 652.93599 343.712135 
L 653.769863 363.804347 
L 654.603736 341.626058 
L 655.437609 324.278684 
L 656.271482 338.88122 
L 657.105355 375.113078 
L 657.939228 351.39768 
L 658.773101 359.741987 
L 659.606974 323.070955 
L 660.440847 343.382754 
L 661.27472 397.840334 
L 662.108593 396.303225 
L 662.942466 389.27644 
L 663.776339 407.172782 
L 665.444085 380.712547 
L 667.111831 327.243108 
L 667.945704 313.51892 
L 668.779577 303.308124 
L 669.61345 297.598861 
L 670.447323 287.058684 
L 671.281196 295.402991 
L 672.115068 354.581692 
L 672.948941 372.148653 
L 673.782814 337.124524 
L 674.616687 330.317327 
L 675.45056 307.59007 
L 676.284433 344.919863 
L 677.118306 402.652154 
L 677.952179 377.638329 
L 678.786052 391.801691 
L 679.619925 324.388477 
L 681.287671 392.131072 
L 682.955417 346.566766 
L 683.78929 354.911072 
L 684.623163 374.893491 
L 685.457036 332.842577 
L 686.290909 311.123425 
L 687.124782 352.276028 
L 687.958655 367.823744 
L 688.792528 376.320806 
L 689.626401 317.800867 
L 690.460274 351.39768 
L 691.294147 291.011251 
L 692.12802 273.883463 
L 692.961893 291.121044 
L 693.795766 295.183404 
L 694.629639 308.688005 
L 695.463512 287.168478 
L 696.297385 297.928242 
L 697.131258 283.106118 
L 697.965131 329.548772 
L 698.799004 293.097327 
L 699.632877 325.564836 
L 700.46675 330.536914 
L 701.300623 342.504406 
L 702.134496 363.145586 
L 702.968369 357.32653 
L 703.802242 306.711722 
L 704.636115 315.652051 
L 705.469988 311.65243 
L 706.303861 280.141693 
L 707.137733 290.462283 
L 707.971606 315.71479 
L 708.805479 306.821516 
L 709.639352 230.114043 
L 710.473225 213.936208 
L 711.307098 288.705587 
L 712.140971 215.143937 
L 712.974844 327.023521 
L 713.808717 322.412194 
L 714.64259 329.548772 
L 715.476463 203.176444 
L 716.310336 190.001223 
L 717.144209 107.546299 
L 717.978082 215.802698 
L 718.811955 201.090368 
L 719.645828 240.725824 
L 720.479701 229.96606 
L 721.313574 203.066651 
L 722.147447 245.776325 
L 722.98132 239.627889 
L 723.815193 248.960337 
L 724.649066 253.681458 
L 725.482939 259.720101 
L 726.316812 232.271724 
L 727.150685 237.432019 
L 727.984558 294.195262 
L 728.818431 193.95379 
L 729.652304 246.764467 
L 730.486177 272.456148 
L 731.32005 226.342874 
L 732.153923 160.356976 
L 732.987796 204.909272 
L 733.821669 294.305056 
L 734.655542 302.539569 
L 735.489415 297.379274 
L 736.323288 228.758332 
L 737.157161 236.22429 
L 737.991034 301.661221 
L 738.824907 383.896559 
L 739.65878 328.56063 
L 740.492653 287.717445 
L 741.326526 188.02494 
L 742.160399 267.625233 
L 742.994271 300.782873 
L 743.828144 343.382754 
L 745.49589 205.372314 
L 746.329763 274.909794 
L 747.163636 266.307711 
L 747.163636 266.307711 
" style="fill:none;stroke:#1f77b4;stroke-linecap:square;stroke-width:1.5;"/>
   </g>
   <g id="line2d_18">
    <path clip-path="url(#pedbd7b6103)" d="M 138.436364 266.955239 
L 139.270237 312.259075 
L 140.10411 254.605988 
L 140.937983 292.155635 
L 141.771856 307.536726 
L 142.605729 314.40461 
L 143.439601 310.576565 
L 144.273474 252.873405 
L 145.107347 300.130849 
L 145.94122 295.17194 
L 148.442839 243.343202 
L 149.276712 304.170485 
L 150.944458 277.788599 
L 151.778331 291.542511 
L 152.612204 310.384294 
L 153.446077 253.132431 
L 154.27995 309.984628 
L 155.113823 265.895729 
L 155.947696 292.065213 
L 156.781569 309.813426 
L 157.615442 332.156999 
L 158.449315 345.283202 
L 159.283188 339.952902 
L 160.117061 352.857635 
L 160.950934 334.747284 
L 161.784807 330.6975 
L 162.61868 312.404535 
L 163.452553 301.691467 
L 164.286426 323.45023 
L 165.120299 299.396756 
L 166.788045 322.283833 
L 167.621918 344.818526 
L 169.289664 302.497503 
L 170.123537 369.206965 
L 170.95741 351.506916 
L 172.625156 301.59168 
L 173.459029 285.150195 
L 174.292902 350.982597 
L 175.126775 358.687929 
L 175.960648 323.451498 
L 176.794521 373.71406 
L 177.628394 330.368005 
L 178.462267 337.725922 
L 179.296139 301.191787 
L 180.130012 327.686431 
L 180.963885 342.824607 
L 181.797758 297.87909 
L 182.631631 329.061661 
L 183.465504 268.890872 
L 184.299377 299.817788 
L 185.13325 302.941179 
L 185.967123 349.853061 
L 186.800996 304.597767 
L 187.634869 331.419134 
L 188.468742 317.684418 
L 189.302615 319.563064 
L 190.136488 297.271103 
L 190.970361 343.102622 
L 191.804234 362.246418 
L 192.638107 314.307675 
L 193.47198 289.279318 
L 194.305853 306.874166 
L 195.139726 344.472285 
L 195.973599 330.005713 
L 196.807472 286.55639 
L 197.641345 273.387614 
L 198.475218 230.261333 
L 199.309091 336.274621 
L 200.142964 262.189872 
L 200.976837 277.628646 
L 201.81071 250.188477 
L 202.644583 256.910025 
L 203.478456 308.360063 
L 204.312329 265.364153 
L 205.146202 306.568077 
L 205.980075 278.040668 
L 206.813948 341.173666 
L 207.647821 302.514719 
L 208.481694 317.880038 
L 209.315567 311.816634 
L 210.983313 340.905416 
L 211.817186 336.584753 
L 212.651059 318.555274 
L 213.484932 313.805415 
L 214.318804 332.275961 
L 215.152677 248.765822 
L 215.98655 341.311789 
L 216.820423 368.29739 
L 217.654296 350.329938 
L 218.488169 346.076987 
L 219.322042 353.960124 
L 220.155915 268.360717 
L 220.989788 325.75601 
L 221.823661 315.223059 
L 222.657534 313.726016 
L 223.491407 316.542482 
L 224.32528 288.586106 
L 225.159153 277.195588 
L 225.993026 241.247626 
L 226.826899 303.012099 
L 227.660772 330.211871 
L 228.494645 299.094642 
L 229.328518 321.571056 
L 230.162391 348.622577 
L 230.996264 368.364885 
L 231.830137 354.341014 
L 232.66401 386.465087 
L 233.497883 303.216288 
L 234.331756 281.9111 
L 235.165629 188.030722 
L 235.999502 168.886136 
L 236.833375 315.965328 
L 237.667248 277.2414 
L 238.501121 281.967032 
L 239.334994 323.42423 
L 240.168867 344.775351 
L 241.00274 347.633406 
L 241.836613 349.441743 
L 242.670486 368.317753 
L 243.504359 349.993114 
L 244.338232 372.092674 
L 245.172105 366.650071 
L 246.005978 370.962835 
L 246.839851 377.065739 
L 247.673724 354.655068 
L 248.507597 352.846535 
L 249.341469 242.021664 
L 250.175342 320.339459 
L 251.009215 326.718679 
L 251.843088 361.775684 
L 252.676961 359.227965 
L 253.510834 350.37274 
L 254.344707 352.20769 
L 255.17858 363.455734 
L 256.012453 367.282487 
L 256.846326 355.082595 
L 257.680199 345.589539 
L 258.514072 365.329014 
L 259.347945 374.828071 
L 260.181818 354.803395 
L 261.015691 328.20657 
L 261.849564 279.201309 
L 262.683437 344.543352 
L 263.51731 396.899161 
L 264.351183 358.391027 
L 265.185056 364.731633 
L 266.018929 362.791913 
L 266.852802 359.66012 
L 267.686675 374.550133 
L 268.520548 369.749896 
L 269.354421 379.514789 
L 270.188294 360.444108 
L 271.022167 375.138295 
L 271.85604 338.749429 
L 272.689913 372.532603 
L 273.523786 378.862412 
L 274.357659 387.989934 
L 275.191532 378.414124 
L 276.025405 383.620135 
L 277.693151 368.416228 
L 278.527024 382.996571 
L 279.360897 381.701221 
L 280.19477 379.274417 
L 281.028643 388.536576 
L 281.862516 391.933187 
L 282.696389 374.091854 
L 283.530262 367.67367 
L 284.364134 354.512591 
L 285.198007 371.742329 
L 286.03188 373.033453 
L 287.699626 387.914382 
L 289.367372 384.306541 
L 290.201245 397.131551 
L 291.868991 374.44113 
L 292.702864 380.738767 
L 293.536737 382.457469 
L 294.37061 383.734599 
L 296.038356 361.662487 
L 296.872229 358.504402 
L 297.706102 350.324634 
L 298.539975 366.754821 
L 299.373848 375.039268 
L 300.207721 352.351912 
L 301.041594 369.380293 
L 301.875467 358.54798 
L 302.70934 378.579547 
L 303.543213 378.313419 
L 304.377086 386.614423 
L 306.044832 381.060516 
L 306.878705 384.536494 
L 307.712578 382.901099 
L 308.546451 382.313171 
L 309.380324 375.719865 
L 310.214197 370.865779 
L 311.04807 381.358192 
L 311.881943 377.964237 
L 312.715816 379.484536 
L 313.549689 386.277589 
L 314.383562 390.319591 
L 315.217435 369.487325 
L 316.051308 380.388086 
L 317.719054 411.191816 
L 318.552927 391.472397 
L 319.3868 397.134409 
L 320.220672 393.285587 
L 321.054545 379.38043 
L 321.888418 384.634361 
L 322.722291 388.124889 
L 323.556164 386.352983 
L 324.390037 384.314384 
L 325.22391 377.746969 
L 326.057783 381.721305 
L 326.891656 380.490756 
L 327.725529 387.804556 
L 328.559402 400.173439 
L 329.393275 374.978818 
L 330.227148 343.227818 
L 331.061021 399.228012 
L 333.56264 312.439541 
L 334.396513 368.192023 
L 335.230386 345.919171 
L 336.064259 358.133103 
L 336.898132 344.62464 
L 337.732005 343.596326 
L 338.565878 320.948682 
L 339.399751 317.057353 
L 340.233624 317.349436 
L 341.067497 321.824505 
L 343.569116 253.677012 
L 344.402989 316.470828 
L 345.236862 355.316404 
L 346.070735 370.013912 
L 346.904608 374.809841 
L 347.738481 388.818203 
L 348.572354 379.405534 
L 349.406227 354.982044 
L 350.2401 379.004037 
L 351.073973 372.30978 
L 351.907846 360.52493 
L 352.741719 376.650805 
L 353.575592 371.154169 
L 354.409465 391.533807 
L 355.243337 373.919022 
L 356.07721 374.473185 
L 356.911083 386.459903 
L 357.744956 390.506395 
L 358.578829 392.579115 
L 359.412702 363.979629 
L 360.246575 355.892928 
L 361.080448 359.207152 
L 361.914321 290.982532 
L 362.748194 348.743501 
L 363.582067 332.615658 
L 364.41594 352.48678 
L 365.249813 377.869088 
L 366.083686 380.493184 
L 367.751432 324.292171 
L 368.585305 341.576289 
L 369.419178 333.134294 
L 370.253051 302.481663 
L 371.086924 310.385085 
L 371.920797 316.543836 
L 372.75467 313.474055 
L 373.588543 296.371075 
L 374.422416 260.143715 
L 375.256289 270.652628 
L 376.090162 268.30724 
L 376.924035 334.408354 
L 377.757908 334.761031 
L 378.591781 332.456418 
L 379.425654 286.5371 
L 380.259527 302.184455 
L 381.0934 312.301634 
L 381.927273 299.449416 
L 382.761146 301.737956 
L 383.595019 301.298621 
L 384.428892 280.470884 
L 385.262765 262.607862 
L 386.096638 200.305749 
L 386.930511 220.165327 
L 387.764384 302.932194 
L 388.598257 288.859425 
L 389.43213 293.026426 
L 390.266002 321.469885 
L 391.099875 271.904169 
L 391.933748 273.375402 
L 392.767621 294.602037 
L 393.601494 219.026584 
L 394.435367 296.830183 
L 395.26924 241.555931 
L 396.103113 282.820385 
L 396.936986 257.237852 
L 397.770859 200.395938 
L 398.604732 219.817226 
L 399.438605 194.769907 
L 400.272478 164.813368 
L 401.106351 228.176726 
L 401.940224 262.80994 
L 402.774097 239.569759 
L 403.60797 260.247776 
L 404.441843 289.54221 
L 405.275716 280.84548 
L 406.109589 327.892703 
L 406.943462 316.97618 
L 407.777335 363.81662 
L 408.611208 348.311322 
L 409.445081 345.301172 
L 410.278954 353.077208 
L 411.112827 329.587304 
L 411.9467 222.924178 
L 412.780573 299.664551 
L 413.614446 278.61104 
L 414.448319 275.817465 
L 416.116065 290.195757 
L 416.949938 283.649667 
L 417.783811 280.098465 
L 418.617684 263.773311 
L 419.451557 240.843462 
L 420.28543 278.297299 
L 421.119303 244.412459 
L 421.953176 205.734955 
L 422.787049 131.69547 
L 423.620922 208.206315 
L 424.454795 177.435597 
L 425.288667 127.56571 
L 426.12254 201.415478 
L 426.956413 185.141234 
L 427.790286 308.702405 
L 428.624159 259.911321 
L 429.458032 335.328233 
L 430.291905 297.895481 
L 431.125778 303.836025 
L 431.959651 281.807045 
L 432.793524 292.162162 
L 433.627397 262.098768 
L 434.46127 207.745911 
L 435.295143 220.974721 
L 436.129016 143.768388 
L 436.962889 276.457453 
L 437.796762 248.778365 
L 438.630635 258.106233 
L 439.464508 213.076792 
L 440.298381 254.954217 
L 441.132254 285.662332 
L 441.966127 207.776113 
L 442.8 276.859125 
L 443.633873 269.813749 
L 444.467746 253.41665 
L 445.301619 281.13449 
L 446.135492 219.734107 
L 446.969365 173.873334 
L 447.803238 205.633632 
L 448.637111 206.480188 
L 449.470984 247.671122 
L 450.304857 237.89597 
L 451.13873 246.028711 
L 451.972603 260.610907 
L 452.806476 206.360211 
L 453.640349 178.645675 
L 454.474222 216.583657 
L 455.308095 223.257328 
L 456.141968 237.389481 
L 456.975841 210.687771 
L 457.809714 102.443176 
L 458.643587 159.137327 
L 459.47746 253.576183 
L 460.311333 235.336296 
L 461.145205 207.981399 
L 461.979078 251.302897 
L 462.812951 214.468222 
L 463.646824 319.23841 
L 465.31457 211.316532 
L 466.148443 292.077628 
L 466.982316 284.981544 
L 467.816189 226.836966 
L 468.650062 310.393604 
L 469.483935 316.298727 
L 471.151681 262.75239 
L 471.985554 274.717014 
L 472.819427 307.662842 
L 473.6533 296.975401 
L 474.487173 305.380663 
L 476.154919 282.599836 
L 476.988792 359.886419 
L 477.822665 373.306451 
L 478.656538 340.416293 
L 479.490411 340.859954 
L 480.324284 344.058438 
L 481.158157 325.851768 
L 481.99203 333.733131 
L 482.825903 304.396372 
L 483.659776 292.88248 
L 484.493649 290.806984 
L 485.327522 307.755964 
L 486.161395 298.078774 
L 486.995268 290.927644 
L 487.829141 314.642611 
L 488.663014 313.799481 
L 490.33076 338.699971 
L 491.164633 329.363649 
L 491.998506 304.902064 
L 492.832379 337.180423 
L 493.666252 319.396116 
L 494.500125 314.985766 
L 495.333998 301.979053 
L 496.16787 248.274807 
L 497.001743 314.689723 
L 498.669489 338.229039 
L 499.503362 304.338014 
L 500.337235 301.616021 
L 501.171108 339.720391 
L 502.004981 316.289357 
L 502.838854 309.057882 
L 504.5066 329.747329 
L 505.340473 321.458441 
L 506.174346 335.235289 
L 507.008219 334.230072 
L 507.842092 362.982388 
L 508.675965 349.807767 
L 509.509838 291.81142 
L 510.343711 305.790374 
L 511.177584 156.800061 
L 512.011457 98.965649 
L 512.84533 169.311077 
L 513.679203 317.486575 
L 514.513076 302.682143 
L 515.346949 309.548782 
L 516.180822 359.126154 
L 517.014695 371.220486 
L 517.848568 361.42779 
L 518.682441 372.938308 
L 519.516314 363.443331 
L 520.350187 375.190222 
L 521.18406 299.438738 
L 522.017933 287.163985 
L 522.851806 296.906508 
L 523.685679 311.571102 
L 524.519552 336.824366 
L 525.353425 328.239135 
L 526.187298 297.341282 
L 527.021171 327.299093 
L 527.855044 352.037795 
L 528.688917 353.512074 
L 529.52279 363.635918 
L 530.356663 328.492464 
L 531.190535 351.075895 
L 532.024408 342.008639 
L 533.692154 127.056047 
L 534.526027 290.085471 
L 535.3599 275.28487 
L 536.193773 277.49886 
L 537.027646 290.408471 
L 537.861519 344.887684 
L 538.695392 336.312651 
L 539.529265 337.789442 
L 540.363138 365.132878 
L 541.197011 323.07131 
L 542.030884 339.632532 
L 542.864757 271.398416 
L 543.69863 348.019465 
L 544.532503 320.952021 
L 545.366376 348.113664 
L 546.200249 326.510351 
L 547.034122 357.736071 
L 547.867995 285.011308 
L 548.701868 329.128243 
L 549.535741 344.439487 
L 550.369614 355.877552 
L 551.203487 374.592998 
L 552.03736 369.313143 
L 552.871233 369.244808 
L 553.705106 365.477494 
L 554.538979 368.467529 
L 555.372852 370.529555 
L 556.206725 371.685856 
L 557.040598 372.291397 
L 557.874471 372.412112 
L 558.708344 368.047454 
L 559.542217 356.742451 
L 560.37609 376.488955 
L 561.209963 384.462469 
L 562.043836 394.254638 
L 562.877709 378.134895 
L 563.711582 393.885241 
L 564.545455 387.545468 
L 565.379328 385.942609 
L 566.2132 381.577567 
L 567.047073 379.376068 
L 567.880946 368.14521 
L 568.714819 353.843667 
L 569.548692 420.324911 
L 570.382565 376.318062 
L 571.216438 371.088536 
L 572.050311 367.436253 
L 572.884184 333.235983 
L 573.718057 274.158819 
L 574.55193 352.275822 
L 575.385803 356.836506 
L 576.219676 381.535124 
L 577.053549 393.50055 
L 578.721295 382.67649 
L 579.555168 386.43238 
L 580.389041 374.077172 
L 581.222914 370.036919 
L 582.056787 355.063329 
L 582.89066 362.433287 
L 583.724533 365.382934 
L 584.558406 357.271028 
L 586.226152 344.082696 
L 587.060025 363.503117 
L 587.893898 379.09076 
L 588.727771 390.285965 
L 589.561644 370.37729 
L 590.395517 361.537123 
L 591.22939 340.303083 
L 592.063263 364.339444 
L 592.897136 337.13722 
L 593.731009 340.248527 
L 594.564882 346.030443 
L 595.398755 342.784688 
L 596.232628 357.471945 
L 597.066501 362.759858 
L 597.900374 386.282574 
L 598.734247 382.392485 
L 599.56812 386.171866 
L 600.401993 394.01381 
L 601.235866 386.193061 
L 602.069738 393.684669 
L 602.903611 387.763115 
L 603.737484 387.461327 
L 604.571357 384.103237 
L 605.40523 384.18106 
L 606.239103 398.933996 
L 607.072976 380.784817 
L 607.906849 340.299875 
L 608.740722 395.509569 
L 609.574595 395.702234 
L 610.408468 393.80712 
L 611.242341 384.394907 
L 612.076214 364.768558 
L 612.910087 362.98812 
L 613.74396 334.275544 
L 614.577833 319.056236 
L 615.411706 361.741353 
L 616.245579 312.444531 
L 617.079452 324.379675 
L 617.913325 368.184921 
L 618.747198 365.827413 
L 619.581071 357.818484 
L 620.414944 366.895257 
L 621.248817 349.318072 
L 622.08269 385.920169 
L 622.916563 327.222153 
L 623.750436 357.241047 
L 624.584309 322.344114 
L 625.418182 321.300929 
L 626.252055 342.366416 
L 627.085928 341.335411 
L 627.919801 351.216447 
L 628.753674 366.826037 
L 629.587547 372.792534 
L 630.42142 374.659525 
L 631.255293 370.474329 
L 632.089166 378.008263 
L 632.923039 383.512801 
L 633.756912 366.648834 
L 634.590785 373.498174 
L 635.424658 366.936951 
L 636.258531 386.491562 
L 637.092403 382.751485 
L 637.926276 381.060944 
L 638.760149 387.487573 
L 639.594022 384.872013 
L 640.427895 390.311227 
L 641.261768 401.217944 
L 642.095641 379.324146 
L 643.763387 374.452776 
L 644.59726 377.901501 
L 645.431133 364.831948 
L 646.265006 380.44321 
L 647.098879 400.218415 
L 647.932752 403.920235 
L 648.766625 399.597873 
L 649.600498 399.351546 
L 650.434371 387.514937 
L 651.268244 382.588966 
L 652.102117 390.145231 
L 652.93599 353.696044 
L 653.769863 355.495815 
L 654.603736 355.858782 
L 655.437609 332.494969 
L 656.271482 326.177732 
L 657.105355 369.824016 
L 657.939228 340.814044 
L 658.773101 348.791718 
L 659.606974 333.594243 
L 660.440847 336.935157 
L 661.27472 389.987235 
L 662.108593 377.797239 
L 662.942466 384.64099 
L 663.776339 399.243647 
L 664.610212 394.577672 
L 665.444085 388.132184 
L 666.277958 366.311387 
L 667.111831 324.772302 
L 667.945704 325.817889 
L 668.779577 308.424775 
L 669.61345 298.117671 
L 670.447323 309.534606 
L 671.281196 286.763833 
L 672.115068 356.748772 
L 672.948941 363.248293 
L 673.782814 332.964625 
L 674.616687 338.874943 
L 675.45056 310.835046 
L 676.284433 322.941889 
L 677.118306 424.14652 
L 677.952179 370.401033 
L 678.786052 442.996364 
L 679.619925 291.945838 
L 680.453798 344.958386 
L 681.287671 375.401147 
L 682.121544 367.06336 
L 682.955417 343.95421 
L 683.78929 372.908181 
L 684.623163 347.911336 
L 685.457036 339.179428 
L 686.290909 295.144446 
L 687.124782 371.36936 
L 687.958655 367.22033 
L 688.792528 354.531381 
L 689.626401 313.312406 
L 690.460274 322.34162 
L 691.294147 321.219054 
L 692.12802 265.836909 
L 692.961893 268.274956 
L 693.795766 301.713145 
L 694.629639 301.885872 
L 695.463512 295.787475 
L 696.297385 277.381763 
L 697.131258 280.792768 
L 697.965131 332.586632 
L 698.799004 281.286323 
L 699.632877 313.036937 
L 700.46675 334.679246 
L 701.300623 359.737729 
L 702.134496 378.801467 
L 702.968369 342.5954 
L 703.802242 294.511944 
L 704.636115 289.841331 
L 705.469988 298.081973 
L 706.303861 268.872349 
L 707.137733 283.427406 
L 707.971606 286.625074 
L 708.805479 299.811872 
L 710.473225 218.196982 
L 711.307098 290.380655 
L 712.140971 226.635883 
L 712.974844 308.107304 
L 713.808717 332.648344 
L 714.64259 303.435856 
L 715.476463 238.778926 
L 716.310336 203.987314 
L 717.144209 86.923636 
L 717.978082 225.294571 
L 718.811955 190.5966 
L 719.645828 235.093775 
L 720.479701 257.408752 
L 721.313574 212.304083 
L 722.147447 232.727459 
L 722.98132 231.224428 
L 723.815193 239.024938 
L 724.649066 225.337111 
L 725.482939 247.44408 
L 726.316812 217.582221 
L 727.150685 242.375771 
L 727.984558 275.59837 
L 728.818431 226.749322 
L 729.652304 223.717328 
L 730.486177 291.838545 
L 731.32005 256.893825 
L 732.153923 145.121437 
L 732.987796 177.644877 
L 733.821669 301.433194 
L 734.655542 319.449023 
L 735.489415 298.563324 
L 736.323288 240.191626 
L 737.157161 206.603639 
L 737.991034 240.626672 
L 738.824907 372.394375 
L 739.65878 318.061144 
L 740.492653 303.790938 
L 741.326526 254.9948 
L 742.160399 248.571252 
L 742.994271 237.093036 
L 743.828144 328.909801 
L 745.49589 196.467373 
L 746.329763 284.743173 
L 747.163636 225.359283 
L 747.163636 225.359283 
" style="fill:none;stroke:#ff0000;stroke-dasharray:5.55,2.4;stroke-dashoffset:0;stroke-width:1.5;"/>
   </g>
   <g id="patch_3">
    <path d="M 108 460.8 
L 108 69.12 
" style="fill:none;stroke:#000000;stroke-linecap:square;stroke-linejoin:miter;stroke-width:0.8;"/>
   </g>
   <g id="patch_4">
    <path d="M 777.6 460.8 
L 777.6 69.12 
" style="fill:none;stroke:#000000;stroke-linecap:square;stroke-linejoin:miter;stroke-width:0.8;"/>
   </g>
   <g id="patch_5">
    <path d="M 108 460.8 
L 777.6 460.8 
" style="fill:none;stroke:#000000;stroke-linecap:square;stroke-linejoin:miter;stroke-width:0.8;"/>
   </g>
   <g id="patch_6">
    <path d="M 108 69.12 
L 777.6 69.12 
" style="fill:none;stroke:#000000;stroke-linecap:square;stroke-linejoin:miter;stroke-width:0.8;"/>
   </g>
   <g id="text_19">
    <!-- Macau roadside 2020-2021 | Forecast vs Monitored | Support vector machine -->
    <g transform="translate(94.802344 63.12)scale(0.18 -0.18)">
     <defs>
      <path d="M 8.5 21.578125 
L 8.5 54.6875 
L 17.484375 54.6875 
L 17.484375 21.921875 
Q 17.484375 14.15625 20.5 10.265625 
Q 23.53125 6.390625 29.59375 6.390625 
Q 36.859375 6.390625 41.078125 11.03125 
Q 45.3125 15.671875 45.3125 23.6875 
L 45.3125 54.6875 
L 54.296875 54.6875 
L 54.296875 0 
L 45.3125 0 
L 45.3125 8.40625 
Q 42.046875 3.421875 37.71875 1 
Q 33.40625 -1.421875 27.6875 -1.421875 
Q 18.265625 -1.421875 13.375 4.4375 
Q 8.5 10.296875 8.5 21.578125 
z
M 31.109375 56 
z
" id="DejaVuSans-117"/>
      <path id="DejaVuSans-32"/>
      <path d="M 45.40625 46.390625 
L 45.40625 75.984375 
L 54.390625 75.984375 
L 54.390625 0 
L 45.40625 0 
L 45.40625 8.203125 
Q 42.578125 3.328125 38.25 0.953125 
Q 33.9375 -1.421875 27.875 -1.421875 
Q 17.96875 -1.421875 11.734375 6.484375 
Q 5.515625 14.40625 5.515625 27.296875 
Q 5.515625 40.1875 11.734375 48.09375 
Q 17.96875 56 27.875 56 
Q 33.9375 56 38.25 53.625 
Q 42.578125 51.265625 45.40625 46.390625 
z
M 14.796875 27.296875 
Q 14.796875 17.390625 18.875 11.75 
Q 22.953125 6.109375 30.078125 6.109375 
Q 37.203125 6.109375 41.296875 11.75 
Q 45.40625 17.390625 45.40625 27.296875 
Q 45.40625 37.203125 41.296875 42.84375 
Q 37.203125 48.484375 30.078125 48.484375 
Q 22.953125 48.484375 18.875 42.84375 
Q 14.796875 37.203125 14.796875 27.296875 
z
" id="DejaVuSans-100"/>
      <path d="M 44.28125 53.078125 
L 44.28125 44.578125 
Q 40.484375 46.53125 36.375 47.5 
Q 32.28125 48.484375 27.875 48.484375 
Q 21.1875 48.484375 17.84375 46.4375 
Q 14.5 44.390625 14.5 40.28125 
Q 14.5 37.15625 16.890625 35.375 
Q 19.28125 33.59375 26.515625 31.984375 
L 29.59375 31.296875 
Q 39.15625 29.25 43.1875 25.515625 
Q 47.21875 21.78125 47.21875 15.09375 
Q 47.21875 7.46875 41.1875 3.015625 
Q 35.15625 -1.421875 24.609375 -1.421875 
Q 20.21875 -1.421875 15.453125 -0.5625 
Q 10.6875 0.296875 5.421875 2 
L 5.421875 11.28125 
Q 10.40625 8.6875 15.234375 7.390625 
Q 20.0625 6.109375 24.8125 6.109375 
Q 31.15625 6.109375 34.5625 8.28125 
Q 37.984375 10.453125 37.984375 14.40625 
Q 37.984375 18.0625 35.515625 20.015625 
Q 33.0625 21.96875 24.703125 23.78125 
L 21.578125 24.515625 
Q 13.234375 26.265625 9.515625 29.90625 
Q 5.8125 33.546875 5.8125 39.890625 
Q 5.8125 47.609375 11.28125 51.796875 
Q 16.75 56 26.8125 56 
Q 31.78125 56 36.171875 55.265625 
Q 40.578125 54.546875 44.28125 53.078125 
z
" id="DejaVuSans-115"/>
      <path d="M 21 76.421875 
L 21 -23.578125 
L 12.703125 -23.578125 
L 12.703125 76.421875 
z
" id="DejaVuSans-124"/>
      <path d="M 9.8125 72.90625 
L 51.703125 72.90625 
L 51.703125 64.59375 
L 19.671875 64.59375 
L 19.671875 43.109375 
L 48.578125 43.109375 
L 48.578125 34.8125 
L 19.671875 34.8125 
L 19.671875 0 
L 9.8125 0 
z
" id="DejaVuSans-70"/>
      <path d="M 2.984375 54.6875 
L 12.5 54.6875 
L 29.59375 8.796875 
L 46.6875 54.6875 
L 56.203125 54.6875 
L 35.6875 0 
L 23.484375 0 
z
" id="DejaVuSans-118"/>
      <path d="M 54.890625 33.015625 
L 54.890625 0 
L 45.90625 0 
L 45.90625 32.71875 
Q 45.90625 40.484375 42.875 44.328125 
Q 39.84375 48.1875 33.796875 48.1875 
Q 26.515625 48.1875 22.3125 43.546875 
Q 18.109375 38.921875 18.109375 30.90625 
L 18.109375 0 
L 9.078125 0 
L 9.078125 54.6875 
L 18.109375 54.6875 
L 18.109375 46.1875 
Q 21.34375 51.125 25.703125 53.5625 
Q 30.078125 56 35.796875 56 
Q 45.21875 56 50.046875 50.171875 
Q 54.890625 44.34375 54.890625 33.015625 
z
" id="DejaVuSans-110"/>
      <path d="M 53.515625 70.515625 
L 53.515625 60.890625 
Q 47.90625 63.578125 42.921875 64.890625 
Q 37.9375 66.21875 33.296875 66.21875 
Q 25.25 66.21875 20.875 63.09375 
Q 16.5 59.96875 16.5 54.203125 
Q 16.5 49.359375 19.40625 46.890625 
Q 22.3125 44.4375 30.421875 42.921875 
L 36.375 41.703125 
Q 47.40625 39.59375 52.65625 34.296875 
Q 57.90625 29 57.90625 20.125 
Q 57.90625 9.515625 50.796875 4.046875 
Q 43.703125 -1.421875 29.984375 -1.421875 
Q 24.8125 -1.421875 18.96875 -0.25 
Q 13.140625 0.921875 6.890625 3.21875 
L 6.890625 13.375 
Q 12.890625 10.015625 18.65625 8.296875 
Q 24.421875 6.59375 29.984375 6.59375 
Q 38.421875 6.59375 43.015625 9.90625 
Q 47.609375 13.234375 47.609375 19.390625 
Q 47.609375 24.75 44.3125 27.78125 
Q 41.015625 30.8125 33.5 32.328125 
L 27.484375 33.5 
Q 16.453125 35.6875 11.515625 40.375 
Q 6.59375 45.0625 6.59375 53.421875 
Q 6.59375 63.09375 13.40625 68.65625 
Q 20.21875 74.21875 32.171875 74.21875 
Q 37.3125 74.21875 42.625 73.28125 
Q 47.953125 72.359375 53.515625 70.515625 
z
" id="DejaVuSans-83"/>
      <path d="M 18.109375 8.203125 
L 18.109375 -20.796875 
L 9.078125 -20.796875 
L 9.078125 54.6875 
L 18.109375 54.6875 
L 18.109375 46.390625 
Q 20.953125 51.265625 25.265625 53.625 
Q 29.59375 56 35.59375 56 
Q 45.5625 56 51.78125 48.09375 
Q 58.015625 40.1875 58.015625 27.296875 
Q 58.015625 14.40625 51.78125 6.484375 
Q 45.5625 -1.421875 35.59375 -1.421875 
Q 29.59375 -1.421875 25.265625 0.953125 
Q 20.953125 3.328125 18.109375 8.203125 
z
M 48.6875 27.296875 
Q 48.6875 37.203125 44.609375 42.84375 
Q 40.53125 48.484375 33.40625 48.484375 
Q 26.265625 48.484375 22.1875 42.84375 
Q 18.109375 37.203125 18.109375 27.296875 
Q 18.109375 17.390625 22.1875 11.75 
Q 26.265625 6.109375 33.40625 6.109375 
Q 40.53125 6.109375 44.609375 11.75 
Q 48.6875 17.390625 48.6875 27.296875 
z
" id="DejaVuSans-112"/>
      <path d="M 54.890625 33.015625 
L 54.890625 0 
L 45.90625 0 
L 45.90625 32.71875 
Q 45.90625 40.484375 42.875 44.328125 
Q 39.84375 48.1875 33.796875 48.1875 
Q 26.515625 48.1875 22.3125 43.546875 
Q 18.109375 38.921875 18.109375 30.90625 
L 18.109375 0 
L 9.078125 0 
L 9.078125 75.984375 
L 18.109375 75.984375 
L 18.109375 46.1875 
Q 21.34375 51.125 25.703125 53.5625 
Q 30.078125 56 35.796875 56 
Q 45.21875 56 50.046875 50.171875 
Q 54.890625 44.34375 54.890625 33.015625 
z
" id="DejaVuSans-104"/>
     </defs>
     <use xlink:href="#DejaVuSans-77"/>
     <use x="86.279297" xlink:href="#DejaVuSans-97"/>
     <use x="147.558594" xlink:href="#DejaVuSans-99"/>
     <use x="202.539062" xlink:href="#DejaVuSans-97"/>
     <use x="263.818359" xlink:href="#DejaVuSans-117"/>
     <use x="327.197266" xlink:href="#DejaVuSans-32"/>
     <use x="358.984375" xlink:href="#DejaVuSans-114"/>
     <use x="397.847656" xlink:href="#DejaVuSans-111"/>
     <use x="459.029297" xlink:href="#DejaVuSans-97"/>
     <use x="520.308594" xlink:href="#DejaVuSans-100"/>
     <use x="583.785156" xlink:href="#DejaVuSans-115"/>
     <use x="635.884766" xlink:href="#DejaVuSans-105"/>
     <use x="663.667969" xlink:href="#DejaVuSans-100"/>
     <use x="727.144531" xlink:href="#DejaVuSans-101"/>
     <use x="788.667969" xlink:href="#DejaVuSans-32"/>
     <use x="820.455078" xlink:href="#DejaVuSans-50"/>
     <use x="884.078125" xlink:href="#DejaVuSans-48"/>
     <use x="947.701172" xlink:href="#DejaVuSans-50"/>
     <use x="1011.324219" xlink:href="#DejaVuSans-48"/>
     <use x="1074.947266" xlink:href="#DejaVuSans-45"/>
     <use x="1111.03125" xlink:href="#DejaVuSans-50"/>
     <use x="1174.654297" xlink:href="#DejaVuSans-48"/>
     <use x="1238.277344" xlink:href="#DejaVuSans-50"/>
     <use x="1301.900391" xlink:href="#DejaVuSans-49"/>
     <use x="1365.523438" xlink:href="#DejaVuSans-32"/>
     <use x="1397.310547" xlink:href="#DejaVuSans-124"/>
     <use x="1431.001953" xlink:href="#DejaVuSans-32"/>
     <use x="1462.789062" xlink:href="#DejaVuSans-70"/>
     <use x="1516.683594" xlink:href="#DejaVuSans-111"/>
     <use x="1577.865234" xlink:href="#DejaVuSans-114"/>
     <use x="1616.728516" xlink:href="#DejaVuSans-101"/>
     <use x="1678.251953" xlink:href="#DejaVuSans-99"/>
     <use x="1733.232422" xlink:href="#DejaVuSans-97"/>
     <use x="1794.511719" xlink:href="#DejaVuSans-115"/>
     <use x="1846.611328" xlink:href="#DejaVuSans-116"/>
     <use x="1885.820312" xlink:href="#DejaVuSans-32"/>
     <use x="1917.607422" xlink:href="#DejaVuSans-118"/>
     <use x="1976.787109" xlink:href="#DejaVuSans-115"/>
     <use x="2028.886719" xlink:href="#DejaVuSans-32"/>
     <use x="2060.673828" xlink:href="#DejaVuSans-77"/>
     <use x="2146.953125" xlink:href="#DejaVuSans-111"/>
     <use x="2208.134766" xlink:href="#DejaVuSans-110"/>
     <use x="2271.513672" xlink:href="#DejaVuSans-105"/>
     <use x="2299.296875" xlink:href="#DejaVuSans-116"/>
     <use x="2338.505859" xlink:href="#DejaVuSans-111"/>
     <use x="2399.6875" xlink:href="#DejaVuSans-114"/>
     <use x="2438.550781" xlink:href="#DejaVuSans-101"/>
     <use x="2500.074219" xlink:href="#DejaVuSans-100"/>
     <use x="2563.550781" xlink:href="#DejaVuSans-32"/>
     <use x="2595.337891" xlink:href="#DejaVuSans-124"/>
     <use x="2629.029297" xlink:href="#DejaVuSans-32"/>
     <use x="2660.816406" xlink:href="#DejaVuSans-83"/>
     <use x="2724.292969" xlink:href="#DejaVuSans-117"/>
     <use x="2787.671875" xlink:href="#DejaVuSans-112"/>
     <use x="2851.148438" xlink:href="#DejaVuSans-112"/>
     <use x="2914.625" xlink:href="#DejaVuSans-111"/>
     <use x="2975.806641" xlink:href="#DejaVuSans-114"/>
     <use x="3016.919922" xlink:href="#DejaVuSans-116"/>
     <use x="3056.128906" xlink:href="#DejaVuSans-32"/>
     <use x="3087.916016" xlink:href="#DejaVuSans-118"/>
     <use x="3147.095703" xlink:href="#DejaVuSans-101"/>
     <use x="3208.619141" xlink:href="#DejaVuSans-99"/>
     <use x="3263.599609" xlink:href="#DejaVuSans-116"/>
     <use x="3302.808594" xlink:href="#DejaVuSans-111"/>
     <use x="3363.990234" xlink:href="#DejaVuSans-114"/>
     <use x="3405.103516" xlink:href="#DejaVuSans-32"/>
     <use x="3436.890625" xlink:href="#DejaVuSans-109"/>
     <use x="3534.302734" xlink:href="#DejaVuSans-97"/>
     <use x="3595.582031" xlink:href="#DejaVuSans-99"/>
     <use x="3650.5625" xlink:href="#DejaVuSans-104"/>
     <use x="3713.941406" xlink:href="#DejaVuSans-105"/>
     <use x="3741.724609" xlink:href="#DejaVuSans-110"/>
     <use x="3805.103516" xlink:href="#DejaVuSans-101"/>
    </g>
   </g>
   <g id="legend_1">
    <g id="patch_7">
     <path d="M 116.4 114.615 
L 286.636875 114.615 
Q 289.036875 114.615 289.036875 112.215 
L 289.036875 77.52 
Q 289.036875 75.12 286.636875 75.12 
L 116.4 75.12 
Q 114 75.12 114 77.52 
L 114 112.215 
Q 114 114.615 116.4 114.615 
z
" style="fill:#ffffff;opacity:0.8;stroke:#cccccc;stroke-linejoin:miter;"/>
    </g>
    <g id="line2d_19">
     <path d="M 118.8 84.838125 
L 142.8 84.838125 
" style="fill:none;stroke:#1f77b4;stroke-linecap:square;stroke-width:1.5;"/>
    </g>
    <g id="line2d_20"/>
    <g id="text_20">
     <!-- measured_data_PM10 -->
     <g transform="translate(152.4 89.038125)scale(0.12 -0.12)">
      <defs>
       <path d="M 50.984375 -16.609375 
L 50.984375 -23.578125 
L -0.984375 -23.578125 
L -0.984375 -16.609375 
z
" id="DejaVuSans-95"/>
      </defs>
      <use xlink:href="#DejaVuSans-109"/>
      <use x="97.412109" xlink:href="#DejaVuSans-101"/>
      <use x="158.935547" xlink:href="#DejaVuSans-97"/>
      <use x="220.214844" xlink:href="#DejaVuSans-115"/>
      <use x="272.314453" xlink:href="#DejaVuSans-117"/>
      <use x="335.693359" xlink:href="#DejaVuSans-114"/>
      <use x="374.556641" xlink:href="#DejaVuSans-101"/>
      <use x="436.080078" xlink:href="#DejaVuSans-100"/>
      <use x="499.556641" xlink:href="#DejaVuSans-95"/>
      <use x="549.556641" xlink:href="#DejaVuSans-100"/>
      <use x="613.033203" xlink:href="#DejaVuSans-97"/>
      <use x="674.3125" xlink:href="#DejaVuSans-116"/>
      <use x="713.521484" xlink:href="#DejaVuSans-97"/>
      <use x="774.800781" xlink:href="#DejaVuSans-95"/>
      <use x="824.800781" xlink:href="#DejaVuSans-80"/>
      <use x="885.103516" xlink:href="#DejaVuSans-77"/>
      <use x="971.382812" xlink:href="#DejaVuSans-49"/>
      <use x="1035.005859" xlink:href="#DejaVuSans-48"/>
     </g>
    </g>
    <g id="line2d_21">
     <path d="M 118.8 102.785625 
L 142.8 102.785625 
" style="fill:none;stroke:#ff0000;stroke-dasharray:5.55,2.4;stroke-dashoffset:0;stroke-width:1.5;"/>
    </g>
    <g id="line2d_22"/>
    <g id="text_21">
     <!-- predicted_data_PM10 -->
     <g transform="translate(152.4 106.985625)scale(0.12 -0.12)">
      <use xlink:href="#DejaVuSans-112"/>
      <use x="63.476562" xlink:href="#DejaVuSans-114"/>
      <use x="102.339844" xlink:href="#DejaVuSans-101"/>
      <use x="163.863281" xlink:href="#DejaVuSans-100"/>
      <use x="227.339844" xlink:href="#DejaVuSans-105"/>
      <use x="255.123047" xlink:href="#DejaVuSans-99"/>
      <use x="310.103516" xlink:href="#DejaVuSans-116"/>
      <use x="349.3125" xlink:href="#DejaVuSans-101"/>
      <use x="410.835938" xlink:href="#DejaVuSans-100"/>
      <use x="474.3125" xlink:href="#DejaVuSans-95"/>
      <use x="524.3125" xlink:href="#DejaVuSans-100"/>
      <use x="587.789062" xlink:href="#DejaVuSans-97"/>
      <use x="649.068359" xlink:href="#DejaVuSans-116"/>
      <use x="688.277344" xlink:href="#DejaVuSans-97"/>
      <use x="749.556641" xlink:href="#DejaVuSans-95"/>
      <use x="799.556641" xlink:href="#DejaVuSans-80"/>
      <use x="859.859375" xlink:href="#DejaVuSans-77"/>
      <use x="946.138672" xlink:href="#DejaVuSans-49"/>
      <use x="1009.761719" xlink:href="#DejaVuSans-48"/>
     </g>
    </g>
   </g>
  </g>
 </g>
 <defs>
  <clipPath id="pedbd7b6103">
   <rect height="391.68" width="669.6" x="108" y="69.12"/>
  </clipPath>
 </defs>
</svg>
