<?xml version="1.0" encoding="utf-8" standalone="no"?>
<!DOCTYPE svg PUBLIC "-//W3C//DTD SVG 1.1//EN"
  "http://www.w3.org/Graphics/SVG/1.1/DTD/svg11.dtd">
<!-- Created with matplotlib (https://matplotlib.org/) -->
<svg height="576pt" version="1.1" viewBox="0 0 864 576" width="864pt" xmlns="http://www.w3.org/2000/svg" xmlns:xlink="http://www.w3.org/1999/xlink">
 <metadata>
  <rdf:RDF xmlns:cc="http://creativecommons.org/ns#" xmlns:dc="http://purl.org/dc/elements/1.1/" xmlns:rdf="http://www.w3.org/1999/02/22-rdf-syntax-ns#">
   <cc:Work>
    <dc:type rdf:resource="http://purl.org/dc/dcmitype/StillImage"/>
    <dc:date>2024-03-08T17:01:32.086818</dc:date>
    <dc:format>image/svg+xml</dc:format>
    <dc:creator>
     <cc:Agent>
      <dc:title>Matplotlib v3.3.4, https://matplotlib.org/</dc:title>
     </cc:Agent>
    </dc:creator>
   </cc:Work>
  </rdf:RDF>
 </metadata>
 <defs>
  <style type="text/css">*{stroke-linecap:butt;stroke-linejoin:round;}</style>
 </defs>
 <g id="figure_1">
  <g id="patch_1">
   <path d="M 0 576 
L 864 576 
L 864 0 
L 0 0 
z
" style="fill:#ffffff;"/>
  </g>
  <g id="axes_1">
   <g id="patch_2">
    <path d="M 108 460.8 
L 777.6 460.8 
L 777.6 69.12 
L 108 69.12 
z
" style="fill:#ffffff;"/>
   </g>
   <g id="matplotlib.axis_1">
    <g id="xtick_1">
     <g id="line2d_1">
      <defs>
       <path d="M 0 0 
L 0 3.5 
" id="m3faa31faef" style="stroke:#000000;stroke-width:0.8;"/>
      </defs>
      <g>
       <use style="stroke:#000000;stroke-width:0.8;" x="138.436364" xlink:href="#m3faa31faef" y="460.8"/>
      </g>
     </g>
     <g id="text_1">
      <!-- 2020-01 -->
      <g transform="translate(93.766579 500.766215)rotate(-30)scale(0.12 -0.12)">
       <defs>
        <path d="M 19.1875 8.296875 
L 53.609375 8.296875 
L 53.609375 0 
L 7.328125 0 
L 7.328125 8.296875 
Q 12.9375 14.109375 22.625 23.890625 
Q 32.328125 33.6875 34.8125 36.53125 
Q 39.546875 41.84375 41.421875 45.53125 
Q 43.3125 49.21875 43.3125 52.78125 
Q 43.3125 58.59375 39.234375 62.25 
Q 35.15625 65.921875 28.609375 65.921875 
Q 23.96875 65.921875 18.8125 64.3125 
Q 13.671875 62.703125 7.8125 59.421875 
L 7.8125 69.390625 
Q 13.765625 71.78125 18.9375 73 
Q 24.125 74.21875 28.421875 74.21875 
Q 39.75 74.21875 46.484375 68.546875 
Q 53.21875 62.890625 53.21875 53.421875 
Q 53.21875 48.921875 51.53125 44.890625 
Q 49.859375 40.875 45.40625 35.40625 
Q 44.1875 33.984375 37.640625 27.21875 
Q 31.109375 20.453125 19.1875 8.296875 
z
" id="DejaVuSans-50"/>
        <path d="M 31.78125 66.40625 
Q 24.171875 66.40625 20.328125 58.90625 
Q 16.5 51.421875 16.5 36.375 
Q 16.5 21.390625 20.328125 13.890625 
Q 24.171875 6.390625 31.78125 6.390625 
Q 39.453125 6.390625 43.28125 13.890625 
Q 47.125 21.390625 47.125 36.375 
Q 47.125 51.421875 43.28125 58.90625 
Q 39.453125 66.40625 31.78125 66.40625 
z
M 31.78125 74.21875 
Q 44.046875 74.21875 50.515625 64.515625 
Q 56.984375 54.828125 56.984375 36.375 
Q 56.984375 17.96875 50.515625 8.265625 
Q 44.046875 -1.421875 31.78125 -1.421875 
Q 19.53125 -1.421875 13.0625 8.265625 
Q 6.59375 17.96875 6.59375 36.375 
Q 6.59375 54.828125 13.0625 64.515625 
Q 19.53125 74.21875 31.78125 74.21875 
z
" id="DejaVuSans-48"/>
        <path d="M 4.890625 31.390625 
L 31.203125 31.390625 
L 31.203125 23.390625 
L 4.890625 23.390625 
z
" id="DejaVuSans-45"/>
        <path d="M 12.40625 8.296875 
L 28.515625 8.296875 
L 28.515625 63.921875 
L 10.984375 60.40625 
L 10.984375 69.390625 
L 28.421875 72.90625 
L 38.28125 72.90625 
L 38.28125 8.296875 
L 54.390625 8.296875 
L 54.390625 0 
L 12.40625 0 
z
" id="DejaVuSans-49"/>
       </defs>
       <use xlink:href="#DejaVuSans-50"/>
       <use x="63.623047" xlink:href="#DejaVuSans-48"/>
       <use x="127.246094" xlink:href="#DejaVuSans-50"/>
       <use x="190.869141" xlink:href="#DejaVuSans-48"/>
       <use x="254.492188" xlink:href="#DejaVuSans-45"/>
       <use x="290.576172" xlink:href="#DejaVuSans-48"/>
       <use x="354.199219" xlink:href="#DejaVuSans-49"/>
      </g>
     </g>
    </g>
    <g id="xtick_2">
     <g id="line2d_2">
      <g>
       <use style="stroke:#000000;stroke-width:0.8;" x="214.318804" xlink:href="#m3faa31faef" y="460.8"/>
      </g>
     </g>
     <g id="text_2">
      <!-- 2020-04 -->
      <g transform="translate(169.64902 500.766215)rotate(-30)scale(0.12 -0.12)">
       <defs>
        <path d="M 37.796875 64.3125 
L 12.890625 25.390625 
L 37.796875 25.390625 
z
M 35.203125 72.90625 
L 47.609375 72.90625 
L 47.609375 25.390625 
L 58.015625 25.390625 
L 58.015625 17.1875 
L 47.609375 17.1875 
L 47.609375 0 
L 37.796875 0 
L 37.796875 17.1875 
L 4.890625 17.1875 
L 4.890625 26.703125 
z
" id="DejaVuSans-52"/>
       </defs>
       <use xlink:href="#DejaVuSans-50"/>
       <use x="63.623047" xlink:href="#DejaVuSans-48"/>
       <use x="127.246094" xlink:href="#DejaVuSans-50"/>
       <use x="190.869141" xlink:href="#DejaVuSans-48"/>
       <use x="254.492188" xlink:href="#DejaVuSans-45"/>
       <use x="290.576172" xlink:href="#DejaVuSans-48"/>
       <use x="354.199219" xlink:href="#DejaVuSans-52"/>
      </g>
     </g>
    </g>
    <g id="xtick_3">
     <g id="line2d_3">
      <g>
       <use style="stroke:#000000;stroke-width:0.8;" x="290.201245" xlink:href="#m3faa31faef" y="460.8"/>
      </g>
     </g>
     <g id="text_3">
      <!-- 2020-07 -->
      <g transform="translate(245.53146 500.766215)rotate(-30)scale(0.12 -0.12)">
       <defs>
        <path d="M 8.203125 72.90625 
L 55.078125 72.90625 
L 55.078125 68.703125 
L 28.609375 0 
L 18.3125 0 
L 43.21875 64.59375 
L 8.203125 64.59375 
z
" id="DejaVuSans-55"/>
       </defs>
       <use xlink:href="#DejaVuSans-50"/>
       <use x="63.623047" xlink:href="#DejaVuSans-48"/>
       <use x="127.246094" xlink:href="#DejaVuSans-50"/>
       <use x="190.869141" xlink:href="#DejaVuSans-48"/>
       <use x="254.492188" xlink:href="#DejaVuSans-45"/>
       <use x="290.576172" xlink:href="#DejaVuSans-48"/>
       <use x="354.199219" xlink:href="#DejaVuSans-55"/>
      </g>
     </g>
    </g>
    <g id="xtick_4">
     <g id="line2d_4">
      <g>
       <use style="stroke:#000000;stroke-width:0.8;" x="366.917559" xlink:href="#m3faa31faef" y="460.8"/>
      </g>
     </g>
     <g id="text_4">
      <!-- 2020-10 -->
      <g transform="translate(322.247774 500.766215)rotate(-30)scale(0.12 -0.12)">
       <use xlink:href="#DejaVuSans-50"/>
       <use x="63.623047" xlink:href="#DejaVuSans-48"/>
       <use x="127.246094" xlink:href="#DejaVuSans-50"/>
       <use x="190.869141" xlink:href="#DejaVuSans-48"/>
       <use x="254.492188" xlink:href="#DejaVuSans-45"/>
       <use x="290.576172" xlink:href="#DejaVuSans-49"/>
       <use x="354.199219" xlink:href="#DejaVuSans-48"/>
      </g>
     </g>
    </g>
    <g id="xtick_5">
     <g id="line2d_5">
      <g>
       <use style="stroke:#000000;stroke-width:0.8;" x="443.633873" xlink:href="#m3faa31faef" y="460.8"/>
      </g>
     </g>
     <g id="text_5">
      <!-- 2021-01 -->
      <g transform="translate(398.964088 500.766215)rotate(-30)scale(0.12 -0.12)">
       <use xlink:href="#DejaVuSans-50"/>
       <use x="63.623047" xlink:href="#DejaVuSans-48"/>
       <use x="127.246094" xlink:href="#DejaVuSans-50"/>
       <use x="190.869141" xlink:href="#DejaVuSans-49"/>
       <use x="254.492188" xlink:href="#DejaVuSans-45"/>
       <use x="290.576172" xlink:href="#DejaVuSans-48"/>
       <use x="354.199219" xlink:href="#DejaVuSans-49"/>
      </g>
     </g>
    </g>
    <g id="xtick_6">
     <g id="line2d_6">
      <g>
       <use style="stroke:#000000;stroke-width:0.8;" x="518.682441" xlink:href="#m3faa31faef" y="460.8"/>
      </g>
     </g>
     <g id="text_6">
      <!-- 2021-04 -->
      <g transform="translate(474.012656 500.766215)rotate(-30)scale(0.12 -0.12)">
       <use xlink:href="#DejaVuSans-50"/>
       <use x="63.623047" xlink:href="#DejaVuSans-48"/>
       <use x="127.246094" xlink:href="#DejaVuSans-50"/>
       <use x="190.869141" xlink:href="#DejaVuSans-49"/>
       <use x="254.492188" xlink:href="#DejaVuSans-45"/>
       <use x="290.576172" xlink:href="#DejaVuSans-48"/>
       <use x="354.199219" xlink:href="#DejaVuSans-52"/>
      </g>
     </g>
    </g>
    <g id="xtick_7">
     <g id="line2d_7">
      <g>
       <use style="stroke:#000000;stroke-width:0.8;" x="594.564882" xlink:href="#m3faa31faef" y="460.8"/>
      </g>
     </g>
     <g id="text_7">
      <!-- 2021-07 -->
      <g transform="translate(549.895097 500.766215)rotate(-30)scale(0.12 -0.12)">
       <use xlink:href="#DejaVuSans-50"/>
       <use x="63.623047" xlink:href="#DejaVuSans-48"/>
       <use x="127.246094" xlink:href="#DejaVuSans-50"/>
       <use x="190.869141" xlink:href="#DejaVuSans-49"/>
       <use x="254.492188" xlink:href="#DejaVuSans-45"/>
       <use x="290.576172" xlink:href="#DejaVuSans-48"/>
       <use x="354.199219" xlink:href="#DejaVuSans-55"/>
      </g>
     </g>
    </g>
    <g id="xtick_8">
     <g id="line2d_8">
      <g>
       <use style="stroke:#000000;stroke-width:0.8;" x="671.281196" xlink:href="#m3faa31faef" y="460.8"/>
      </g>
     </g>
     <g id="text_8">
      <!-- 2021-10 -->
      <g transform="translate(626.611411 500.766215)rotate(-30)scale(0.12 -0.12)">
       <use xlink:href="#DejaVuSans-50"/>
       <use x="63.623047" xlink:href="#DejaVuSans-48"/>
       <use x="127.246094" xlink:href="#DejaVuSans-50"/>
       <use x="190.869141" xlink:href="#DejaVuSans-49"/>
       <use x="254.492188" xlink:href="#DejaVuSans-45"/>
       <use x="290.576172" xlink:href="#DejaVuSans-49"/>
       <use x="354.199219" xlink:href="#DejaVuSans-48"/>
      </g>
     </g>
    </g>
    <g id="xtick_9">
     <g id="line2d_9">
      <g>
       <use style="stroke:#000000;stroke-width:0.8;" x="747.997509" xlink:href="#m3faa31faef" y="460.8"/>
      </g>
     </g>
     <g id="text_9">
      <!-- 2022-01 -->
      <g transform="translate(703.327724 500.766215)rotate(-30)scale(0.12 -0.12)">
       <use xlink:href="#DejaVuSans-50"/>
       <use x="63.623047" xlink:href="#DejaVuSans-48"/>
       <use x="127.246094" xlink:href="#DejaVuSans-50"/>
       <use x="190.869141" xlink:href="#DejaVuSans-50"/>
       <use x="254.492188" xlink:href="#DejaVuSans-45"/>
       <use x="290.576172" xlink:href="#DejaVuSans-48"/>
       <use x="354.199219" xlink:href="#DejaVuSans-49"/>
      </g>
     </g>
    </g>
    <g id="text_10">
     <!-- Date -->
     <g transform="translate(424.873828 518.325146)scale(0.15 -0.15)">
      <defs>
       <path d="M 19.671875 64.796875 
L 19.671875 8.109375 
L 31.59375 8.109375 
Q 46.6875 8.109375 53.6875 14.9375 
Q 60.6875 21.78125 60.6875 36.53125 
Q 60.6875 51.171875 53.6875 57.984375 
Q 46.6875 64.796875 31.59375 64.796875 
z
M 9.8125 72.90625 
L 30.078125 72.90625 
Q 51.265625 72.90625 61.171875 64.09375 
Q 71.09375 55.28125 71.09375 36.53125 
Q 71.09375 17.671875 61.125 8.828125 
Q 51.171875 0 30.078125 0 
L 9.8125 0 
z
" id="DejaVuSans-68"/>
       <path d="M 34.28125 27.484375 
Q 23.390625 27.484375 19.1875 25 
Q 14.984375 22.515625 14.984375 16.5 
Q 14.984375 11.71875 18.140625 8.90625 
Q 21.296875 6.109375 26.703125 6.109375 
Q 34.1875 6.109375 38.703125 11.40625 
Q 43.21875 16.703125 43.21875 25.484375 
L 43.21875 27.484375 
z
M 52.203125 31.203125 
L 52.203125 0 
L 43.21875 0 
L 43.21875 8.296875 
Q 40.140625 3.328125 35.546875 0.953125 
Q 30.953125 -1.421875 24.3125 -1.421875 
Q 15.921875 -1.421875 10.953125 3.296875 
Q 6 8.015625 6 15.921875 
Q 6 25.140625 12.171875 29.828125 
Q 18.359375 34.515625 30.609375 34.515625 
L 43.21875 34.515625 
L 43.21875 35.40625 
Q 43.21875 41.609375 39.140625 45 
Q 35.0625 48.390625 27.6875 48.390625 
Q 23 48.390625 18.546875 47.265625 
Q 14.109375 46.140625 10.015625 43.890625 
L 10.015625 52.203125 
Q 14.9375 54.109375 19.578125 55.046875 
Q 24.21875 56 28.609375 56 
Q 40.484375 56 46.34375 49.84375 
Q 52.203125 43.703125 52.203125 31.203125 
z
" id="DejaVuSans-97"/>
       <path d="M 18.3125 70.21875 
L 18.3125 54.6875 
L 36.8125 54.6875 
L 36.8125 47.703125 
L 18.3125 47.703125 
L 18.3125 18.015625 
Q 18.3125 11.328125 20.140625 9.421875 
Q 21.96875 7.515625 27.59375 7.515625 
L 36.8125 7.515625 
L 36.8125 0 
L 27.59375 0 
Q 17.1875 0 13.234375 3.875 
Q 9.28125 7.765625 9.28125 18.015625 
L 9.28125 47.703125 
L 2.6875 47.703125 
L 2.6875 54.6875 
L 9.28125 54.6875 
L 9.28125 70.21875 
z
" id="DejaVuSans-116"/>
       <path d="M 56.203125 29.59375 
L 56.203125 25.203125 
L 14.890625 25.203125 
Q 15.484375 15.921875 20.484375 11.0625 
Q 25.484375 6.203125 34.421875 6.203125 
Q 39.59375 6.203125 44.453125 7.46875 
Q 49.3125 8.734375 54.109375 11.28125 
L 54.109375 2.78125 
Q 49.265625 0.734375 44.1875 -0.34375 
Q 39.109375 -1.421875 33.890625 -1.421875 
Q 20.796875 -1.421875 13.15625 6.1875 
Q 5.515625 13.8125 5.515625 26.8125 
Q 5.515625 40.234375 12.765625 48.109375 
Q 20.015625 56 32.328125 56 
Q 43.359375 56 49.78125 48.890625 
Q 56.203125 41.796875 56.203125 29.59375 
z
M 47.21875 32.234375 
Q 47.125 39.59375 43.09375 43.984375 
Q 39.0625 48.390625 32.421875 48.390625 
Q 24.90625 48.390625 20.390625 44.140625 
Q 15.875 39.890625 15.1875 32.171875 
z
" id="DejaVuSans-101"/>
      </defs>
      <use xlink:href="#DejaVuSans-68"/>
      <use x="77.001953" xlink:href="#DejaVuSans-97"/>
      <use x="138.28125" xlink:href="#DejaVuSans-116"/>
      <use x="177.490234" xlink:href="#DejaVuSans-101"/>
     </g>
    </g>
   </g>
   <g id="matplotlib.axis_2">
    <g id="ytick_1">
     <g id="line2d_10">
      <defs>
       <path d="M 0 0 
L -3.5 0 
" id="mf55602de05" style="stroke:#000000;stroke-width:0.8;"/>
      </defs>
      <g>
       <use style="stroke:#000000;stroke-width:0.8;" x="108" xlink:href="#mf55602de05" y="410.473752"/>
      </g>
     </g>
     <g id="text_11">
      <!-- 20 -->
      <g transform="translate(85.73 415.032815)scale(0.12 -0.12)">
       <use xlink:href="#DejaVuSans-50"/>
       <use x="63.623047" xlink:href="#DejaVuSans-48"/>
      </g>
     </g>
    </g>
    <g id="ytick_2">
     <g id="line2d_11">
      <g>
       <use style="stroke:#000000;stroke-width:0.8;" x="108" xlink:href="#mf55602de05" y="352.655776"/>
      </g>
     </g>
     <g id="text_12">
      <!-- 40 -->
      <g transform="translate(85.73 357.214839)scale(0.12 -0.12)">
       <use xlink:href="#DejaVuSans-52"/>
       <use x="63.623047" xlink:href="#DejaVuSans-48"/>
      </g>
     </g>
    </g>
    <g id="ytick_3">
     <g id="line2d_12">
      <g>
       <use style="stroke:#000000;stroke-width:0.8;" x="108" xlink:href="#mf55602de05" y="294.8378"/>
      </g>
     </g>
     <g id="text_13">
      <!-- 60 -->
      <g transform="translate(85.73 299.396863)scale(0.12 -0.12)">
       <defs>
        <path d="M 33.015625 40.375 
Q 26.375 40.375 22.484375 35.828125 
Q 18.609375 31.296875 18.609375 23.390625 
Q 18.609375 15.53125 22.484375 10.953125 
Q 26.375 6.390625 33.015625 6.390625 
Q 39.65625 6.390625 43.53125 10.953125 
Q 47.40625 15.53125 47.40625 23.390625 
Q 47.40625 31.296875 43.53125 35.828125 
Q 39.65625 40.375 33.015625 40.375 
z
M 52.59375 71.296875 
L 52.59375 62.3125 
Q 48.875 64.0625 45.09375 64.984375 
Q 41.3125 65.921875 37.59375 65.921875 
Q 27.828125 65.921875 22.671875 59.328125 
Q 17.53125 52.734375 16.796875 39.40625 
Q 19.671875 43.65625 24.015625 45.921875 
Q 28.375 48.1875 33.59375 48.1875 
Q 44.578125 48.1875 50.953125 41.515625 
Q 57.328125 34.859375 57.328125 23.390625 
Q 57.328125 12.15625 50.6875 5.359375 
Q 44.046875 -1.421875 33.015625 -1.421875 
Q 20.359375 -1.421875 13.671875 8.265625 
Q 6.984375 17.96875 6.984375 36.375 
Q 6.984375 53.65625 15.1875 63.9375 
Q 23.390625 74.21875 37.203125 74.21875 
Q 40.921875 74.21875 44.703125 73.484375 
Q 48.484375 72.75 52.59375 71.296875 
z
" id="DejaVuSans-54"/>
       </defs>
       <use xlink:href="#DejaVuSans-54"/>
       <use x="63.623047" xlink:href="#DejaVuSans-48"/>
      </g>
     </g>
    </g>
    <g id="ytick_4">
     <g id="line2d_13">
      <g>
       <use style="stroke:#000000;stroke-width:0.8;" x="108" xlink:href="#mf55602de05" y="237.019825"/>
      </g>
     </g>
     <g id="text_14">
      <!-- 80 -->
      <g transform="translate(85.73 241.578887)scale(0.12 -0.12)">
       <defs>
        <path d="M 31.78125 34.625 
Q 24.75 34.625 20.71875 30.859375 
Q 16.703125 27.09375 16.703125 20.515625 
Q 16.703125 13.921875 20.71875 10.15625 
Q 24.75 6.390625 31.78125 6.390625 
Q 38.8125 6.390625 42.859375 10.171875 
Q 46.921875 13.96875 46.921875 20.515625 
Q 46.921875 27.09375 42.890625 30.859375 
Q 38.875 34.625 31.78125 34.625 
z
M 21.921875 38.8125 
Q 15.578125 40.375 12.03125 44.71875 
Q 8.5 49.078125 8.5 55.328125 
Q 8.5 64.0625 14.71875 69.140625 
Q 20.953125 74.21875 31.78125 74.21875 
Q 42.671875 74.21875 48.875 69.140625 
Q 55.078125 64.0625 55.078125 55.328125 
Q 55.078125 49.078125 51.53125 44.71875 
Q 48 40.375 41.703125 38.8125 
Q 48.828125 37.15625 52.796875 32.3125 
Q 56.78125 27.484375 56.78125 20.515625 
Q 56.78125 9.90625 50.3125 4.234375 
Q 43.84375 -1.421875 31.78125 -1.421875 
Q 19.734375 -1.421875 13.25 4.234375 
Q 6.78125 9.90625 6.78125 20.515625 
Q 6.78125 27.484375 10.78125 32.3125 
Q 14.796875 37.15625 21.921875 38.8125 
z
M 18.3125 54.390625 
Q 18.3125 48.734375 21.84375 45.5625 
Q 25.390625 42.390625 31.78125 42.390625 
Q 38.140625 42.390625 41.71875 45.5625 
Q 45.3125 48.734375 45.3125 54.390625 
Q 45.3125 60.0625 41.71875 63.234375 
Q 38.140625 66.40625 31.78125 66.40625 
Q 25.390625 66.40625 21.84375 63.234375 
Q 18.3125 60.0625 18.3125 54.390625 
z
" id="DejaVuSans-56"/>
       </defs>
       <use xlink:href="#DejaVuSans-56"/>
       <use x="63.623047" xlink:href="#DejaVuSans-48"/>
      </g>
     </g>
    </g>
    <g id="ytick_5">
     <g id="line2d_14">
      <g>
       <use style="stroke:#000000;stroke-width:0.8;" x="108" xlink:href="#mf55602de05" y="179.201849"/>
      </g>
     </g>
     <g id="text_15">
      <!-- 100 -->
      <g transform="translate(78.095 183.760911)scale(0.12 -0.12)">
       <use xlink:href="#DejaVuSans-49"/>
       <use x="63.623047" xlink:href="#DejaVuSans-48"/>
       <use x="127.246094" xlink:href="#DejaVuSans-48"/>
      </g>
     </g>
    </g>
    <g id="ytick_6">
     <g id="line2d_15">
      <g>
       <use style="stroke:#000000;stroke-width:0.8;" x="108" xlink:href="#mf55602de05" y="121.383873"/>
      </g>
     </g>
     <g id="text_16">
      <!-- 120 -->
      <g transform="translate(78.095 125.942935)scale(0.12 -0.12)">
       <use xlink:href="#DejaVuSans-49"/>
       <use x="63.623047" xlink:href="#DejaVuSans-50"/>
       <use x="127.246094" xlink:href="#DejaVuSans-48"/>
      </g>
     </g>
    </g>
    <g id="text_17">
     <!-- PM10(micro-gram/m3) -->
     <g transform="translate(70.975469 349.562344)rotate(-90)scale(0.15 -0.15)">
      <defs>
       <path d="M 19.671875 64.796875 
L 19.671875 37.40625 
L 32.078125 37.40625 
Q 38.96875 37.40625 42.71875 40.96875 
Q 46.484375 44.53125 46.484375 51.125 
Q 46.484375 57.671875 42.71875 61.234375 
Q 38.96875 64.796875 32.078125 64.796875 
z
M 9.8125 72.90625 
L 32.078125 72.90625 
Q 44.34375 72.90625 50.609375 67.359375 
Q 56.890625 61.8125 56.890625 51.125 
Q 56.890625 40.328125 50.609375 34.8125 
Q 44.34375 29.296875 32.078125 29.296875 
L 19.671875 29.296875 
L 19.671875 0 
L 9.8125 0 
z
" id="DejaVuSans-80"/>
       <path d="M 9.8125 72.90625 
L 24.515625 72.90625 
L 43.109375 23.296875 
L 61.8125 72.90625 
L 76.515625 72.90625 
L 76.515625 0 
L 66.890625 0 
L 66.890625 64.015625 
L 48.09375 14.015625 
L 38.1875 14.015625 
L 19.390625 64.015625 
L 19.390625 0 
L 9.8125 0 
z
" id="DejaVuSans-77"/>
       <path d="M 31 75.875 
Q 24.46875 64.65625 21.28125 53.65625 
Q 18.109375 42.671875 18.109375 31.390625 
Q 18.109375 20.125 21.3125 9.0625 
Q 24.515625 -2 31 -13.1875 
L 23.1875 -13.1875 
Q 15.875 -1.703125 12.234375 9.375 
Q 8.59375 20.453125 8.59375 31.390625 
Q 8.59375 42.28125 12.203125 53.3125 
Q 15.828125 64.359375 23.1875 75.875 
z
" id="DejaVuSans-40"/>
       <path d="M 52 44.1875 
Q 55.375 50.25 60.0625 53.125 
Q 64.75 56 71.09375 56 
Q 79.640625 56 84.28125 50.015625 
Q 88.921875 44.046875 88.921875 33.015625 
L 88.921875 0 
L 79.890625 0 
L 79.890625 32.71875 
Q 79.890625 40.578125 77.09375 44.375 
Q 74.3125 48.1875 68.609375 48.1875 
Q 61.625 48.1875 57.5625 43.546875 
Q 53.515625 38.921875 53.515625 30.90625 
L 53.515625 0 
L 44.484375 0 
L 44.484375 32.71875 
Q 44.484375 40.625 41.703125 44.40625 
Q 38.921875 48.1875 33.109375 48.1875 
Q 26.21875 48.1875 22.15625 43.53125 
Q 18.109375 38.875 18.109375 30.90625 
L 18.109375 0 
L 9.078125 0 
L 9.078125 54.6875 
L 18.109375 54.6875 
L 18.109375 46.1875 
Q 21.1875 51.21875 25.484375 53.609375 
Q 29.78125 56 35.6875 56 
Q 41.65625 56 45.828125 52.96875 
Q 50 49.953125 52 44.1875 
z
" id="DejaVuSans-109"/>
       <path d="M 9.421875 54.6875 
L 18.40625 54.6875 
L 18.40625 0 
L 9.421875 0 
z
M 9.421875 75.984375 
L 18.40625 75.984375 
L 18.40625 64.59375 
L 9.421875 64.59375 
z
" id="DejaVuSans-105"/>
       <path d="M 48.78125 52.59375 
L 48.78125 44.1875 
Q 44.96875 46.296875 41.140625 47.34375 
Q 37.3125 48.390625 33.40625 48.390625 
Q 24.65625 48.390625 19.8125 42.84375 
Q 14.984375 37.3125 14.984375 27.296875 
Q 14.984375 17.28125 19.8125 11.734375 
Q 24.65625 6.203125 33.40625 6.203125 
Q 37.3125 6.203125 41.140625 7.25 
Q 44.96875 8.296875 48.78125 10.40625 
L 48.78125 2.09375 
Q 45.015625 0.34375 40.984375 -0.53125 
Q 36.96875 -1.421875 32.421875 -1.421875 
Q 20.0625 -1.421875 12.78125 6.34375 
Q 5.515625 14.109375 5.515625 27.296875 
Q 5.515625 40.671875 12.859375 48.328125 
Q 20.21875 56 33.015625 56 
Q 37.15625 56 41.109375 55.140625 
Q 45.0625 54.296875 48.78125 52.59375 
z
" id="DejaVuSans-99"/>
       <path d="M 41.109375 46.296875 
Q 39.59375 47.171875 37.8125 47.578125 
Q 36.03125 48 33.890625 48 
Q 26.265625 48 22.1875 43.046875 
Q 18.109375 38.09375 18.109375 28.8125 
L 18.109375 0 
L 9.078125 0 
L 9.078125 54.6875 
L 18.109375 54.6875 
L 18.109375 46.1875 
Q 20.953125 51.171875 25.484375 53.578125 
Q 30.03125 56 36.53125 56 
Q 37.453125 56 38.578125 55.875 
Q 39.703125 55.765625 41.0625 55.515625 
z
" id="DejaVuSans-114"/>
       <path d="M 30.609375 48.390625 
Q 23.390625 48.390625 19.1875 42.75 
Q 14.984375 37.109375 14.984375 27.296875 
Q 14.984375 17.484375 19.15625 11.84375 
Q 23.34375 6.203125 30.609375 6.203125 
Q 37.796875 6.203125 41.984375 11.859375 
Q 46.1875 17.53125 46.1875 27.296875 
Q 46.1875 37.015625 41.984375 42.703125 
Q 37.796875 48.390625 30.609375 48.390625 
z
M 30.609375 56 
Q 42.328125 56 49.015625 48.375 
Q 55.71875 40.765625 55.71875 27.296875 
Q 55.71875 13.875 49.015625 6.21875 
Q 42.328125 -1.421875 30.609375 -1.421875 
Q 18.84375 -1.421875 12.171875 6.21875 
Q 5.515625 13.875 5.515625 27.296875 
Q 5.515625 40.765625 12.171875 48.375 
Q 18.84375 56 30.609375 56 
z
" id="DejaVuSans-111"/>
       <path d="M 45.40625 27.984375 
Q 45.40625 37.75 41.375 43.109375 
Q 37.359375 48.484375 30.078125 48.484375 
Q 22.859375 48.484375 18.828125 43.109375 
Q 14.796875 37.75 14.796875 27.984375 
Q 14.796875 18.265625 18.828125 12.890625 
Q 22.859375 7.515625 30.078125 7.515625 
Q 37.359375 7.515625 41.375 12.890625 
Q 45.40625 18.265625 45.40625 27.984375 
z
M 54.390625 6.78125 
Q 54.390625 -7.171875 48.1875 -13.984375 
Q 42 -20.796875 29.203125 -20.796875 
Q 24.46875 -20.796875 20.265625 -20.09375 
Q 16.0625 -19.390625 12.109375 -17.921875 
L 12.109375 -9.1875 
Q 16.0625 -11.328125 19.921875 -12.34375 
Q 23.78125 -13.375 27.78125 -13.375 
Q 36.625 -13.375 41.015625 -8.765625 
Q 45.40625 -4.15625 45.40625 5.171875 
L 45.40625 9.625 
Q 42.625 4.78125 38.28125 2.390625 
Q 33.9375 0 27.875 0 
Q 17.828125 0 11.671875 7.65625 
Q 5.515625 15.328125 5.515625 27.984375 
Q 5.515625 40.671875 11.671875 48.328125 
Q 17.828125 56 27.875 56 
Q 33.9375 56 38.28125 53.609375 
Q 42.625 51.21875 45.40625 46.390625 
L 45.40625 54.6875 
L 54.390625 54.6875 
z
" id="DejaVuSans-103"/>
       <path d="M 25.390625 72.90625 
L 33.6875 72.90625 
L 8.296875 -9.28125 
L 0 -9.28125 
z
" id="DejaVuSans-47"/>
       <path d="M 40.578125 39.3125 
Q 47.65625 37.796875 51.625 33 
Q 55.609375 28.21875 55.609375 21.1875 
Q 55.609375 10.40625 48.1875 4.484375 
Q 40.765625 -1.421875 27.09375 -1.421875 
Q 22.515625 -1.421875 17.65625 -0.515625 
Q 12.796875 0.390625 7.625 2.203125 
L 7.625 11.71875 
Q 11.71875 9.328125 16.59375 8.109375 
Q 21.484375 6.890625 26.8125 6.890625 
Q 36.078125 6.890625 40.9375 10.546875 
Q 45.796875 14.203125 45.796875 21.1875 
Q 45.796875 27.640625 41.28125 31.265625 
Q 36.765625 34.90625 28.71875 34.90625 
L 20.21875 34.90625 
L 20.21875 43.015625 
L 29.109375 43.015625 
Q 36.375 43.015625 40.234375 45.921875 
Q 44.09375 48.828125 44.09375 54.296875 
Q 44.09375 59.90625 40.109375 62.90625 
Q 36.140625 65.921875 28.71875 65.921875 
Q 24.65625 65.921875 20.015625 65.03125 
Q 15.375 64.15625 9.8125 62.3125 
L 9.8125 71.09375 
Q 15.4375 72.65625 20.34375 73.4375 
Q 25.25 74.21875 29.59375 74.21875 
Q 40.828125 74.21875 47.359375 69.109375 
Q 53.90625 64.015625 53.90625 55.328125 
Q 53.90625 49.265625 50.4375 45.09375 
Q 46.96875 40.921875 40.578125 39.3125 
z
" id="DejaVuSans-51"/>
       <path d="M 8.015625 75.875 
L 15.828125 75.875 
Q 23.140625 64.359375 26.78125 53.3125 
Q 30.421875 42.28125 30.421875 31.390625 
Q 30.421875 20.453125 26.78125 9.375 
Q 23.140625 -1.703125 15.828125 -13.1875 
L 8.015625 -13.1875 
Q 14.5 -2 17.703125 9.0625 
Q 20.90625 20.125 20.90625 31.390625 
Q 20.90625 42.671875 17.703125 53.65625 
Q 14.5 64.65625 8.015625 75.875 
z
" id="DejaVuSans-41"/>
      </defs>
      <use xlink:href="#DejaVuSans-80"/>
      <use x="60.302734" xlink:href="#DejaVuSans-77"/>
      <use x="146.582031" xlink:href="#DejaVuSans-49"/>
      <use x="210.205078" xlink:href="#DejaVuSans-48"/>
      <use x="273.828125" xlink:href="#DejaVuSans-40"/>
      <use x="312.841797" xlink:href="#DejaVuSans-109"/>
      <use x="410.253906" xlink:href="#DejaVuSans-105"/>
      <use x="438.037109" xlink:href="#DejaVuSans-99"/>
      <use x="493.017578" xlink:href="#DejaVuSans-114"/>
      <use x="531.880859" xlink:href="#DejaVuSans-111"/>
      <use x="594.9375" xlink:href="#DejaVuSans-45"/>
      <use x="631.021484" xlink:href="#DejaVuSans-103"/>
      <use x="694.498047" xlink:href="#DejaVuSans-114"/>
      <use x="735.611328" xlink:href="#DejaVuSans-97"/>
      <use x="796.890625" xlink:href="#DejaVuSans-109"/>
      <use x="894.302734" xlink:href="#DejaVuSans-47"/>
      <use x="927.994141" xlink:href="#DejaVuSans-109"/>
      <use x="1025.40625" xlink:href="#DejaVuSans-51"/>
      <use x="1089.029297" xlink:href="#DejaVuSans-41"/>
     </g>
    </g>
   </g>
   <g id="line2d_16">
    <path clip-path="url(#p1dba95e3a0)" d="M 138.436364 335.7922 
L 139.270237 314.942687 
L 140.10411 298.210516 
L 140.937983 294.355984 
L 141.771856 356.148946 
L 142.605729 355.908037 
L 143.439601 316.399087 
L 144.273474 297.969607 
L 145.107347 320.976344 
L 145.94122 321.337706 
L 146.775093 279.540128 
L 147.608966 314.953638 
L 148.442839 295.078709 
L 149.276712 328.564953 
L 150.110585 306.664205 
L 150.944458 305.678671 
L 151.778331 330.974035 
L 152.612204 336.876287 
L 153.446077 292.18781 
L 154.27995 343.742172 
L 155.113823 304.715038 
L 156.781569 338.080828 
L 157.615442 361.328473 
L 158.449315 377.107962 
L 159.283188 413.846467 
L 160.117061 420.591898 
L 160.950934 409.269211 
L 161.784807 381.805672 
L 162.61868 367.471633 
L 163.452553 355.415271 
L 164.286426 350.72851 
L 165.120299 336.274016 
L 165.954172 336.996741 
L 166.788045 391.080639 
L 167.621918 392.499903 
L 168.455791 363.858009 
L 169.289664 340.249002 
L 170.123537 418.90554 
L 170.95741 397.946524 
L 171.791283 370.60344 
L 172.625156 348.801245 
L 173.459029 316.639995 
L 174.292902 388.551103 
L 175.126775 392.405635 
L 175.960648 371.446618 
L 176.794521 435.648663 
L 177.628394 386.864745 
L 178.462267 395.516493 
L 179.296139 365.303459 
L 180.963885 370.60344 
L 181.797758 319.289986 
L 182.631631 338.080828 
L 183.465504 308.087753 
L 184.299377 319.049078 
L 185.13325 342.669035 
L 185.967123 369.880715 
L 186.800996 353.894733 
L 187.634869 360.96711 
L 188.468742 344.223988 
L 189.302615 348.130891 
L 190.136488 356.028492 
L 190.970361 392.734146 
L 191.804234 405.655588 
L 192.638107 363.737555 
L 193.47198 288.453732 
L 194.305853 361.328473 
L 195.139726 364.821642 
L 195.973599 363.617101 
L 196.807472 360.244386 
L 197.641345 264.122001 
L 198.475218 240.39254 
L 199.309091 367.11027 
L 200.142964 296.765066 
L 200.976837 283.99693 
L 201.81071 276.309767 
L 202.644583 302.667318 
L 203.478456 353.258047 
L 204.312329 275.444688 
L 205.146202 293.753713 
L 205.980075 334.708113 
L 206.813948 361.087564 
L 207.647821 337.9499 
L 208.481694 343.621718 
L 209.315567 343.139901 
L 210.14944 364.942096 
L 210.983313 353.258047 
L 211.817186 373.25343 
L 212.651059 359.521661 
L 213.484932 363.135284 
L 214.318804 335.671746 
L 215.152677 325.5536 
L 215.98655 370.964802 
L 216.820423 383.853392 
L 217.654296 407.582853 
L 218.488169 400.114698 
L 220.155915 326.878595 
L 220.989788 351.812597 
L 221.823661 331.817214 
L 222.657534 279.90149 
L 223.491407 384.817025 
L 224.32528 351.692143 
L 225.159153 309.051386 
L 225.993026 259.42429 
L 226.826899 327.60132 
L 227.660772 355.185313 
L 228.494645 322.421793 
L 229.328518 350.608056 
L 230.162391 372.36645 
L 230.996264 389.63519 
L 231.830137 393.248814 
L 232.66401 380.962494 
L 233.497883 349.162607 
L 234.331756 296.644612 
L 235.165629 160.411006 
L 235.999502 214.374451 
L 236.833375 314.230913 
L 237.667248 307.605937 
L 238.501121 323.385426 
L 239.334994 369.398898 
L 240.168867 368.917082 
L 241.00274 373.25343 
L 242.670486 400.355606 
L 243.504359 392.766997 
L 244.338232 405.414679 
L 245.172105 408.546486 
L 246.005978 408.426032 
L 246.839851 406.378312 
L 247.673724 383.371576 
L 248.507597 334.708113 
L 249.341469 293.151443 
L 251.009215 378.79432 
L 251.843088 396.019258 
L 252.676961 402.282872 
L 253.510834 397.464708 
L 254.344707 399.271519 
L 255.17858 399.698584 
L 256.012453 376.023875 
L 256.846326 361.689835 
L 257.680199 415.171463 
L 258.514072 415.653279 
L 259.347945 402.644235 
L 260.181818 381.564764 
L 261.015691 319.651348 
L 261.849564 325.914962 
L 262.683437 384.576117 
L 263.51731 405.294225 
L 264.351183 403.057968 
L 265.185056 402.041964 
L 266.018929 400.795526 
L 266.852802 403.728322 
L 267.686675 411.393584 
L 268.520548 403.366959 
L 269.354421 410.11239 
L 270.188294 390.839731 
L 271.022167 390.719277 
L 271.85604 385.178388 
L 272.689913 410.71466 
L 273.523786 419.409258 
L 274.357659 422.037347 
L 275.191532 409.028303 
L 276.025405 426.49415 
L 276.859278 409.389665 
L 278.527024 417.098729 
L 279.360897 417.219183 
L 280.19477 419.989627 
L 281.028643 426.132787 
L 281.862516 426.49415 
L 282.696389 406.498766 
L 283.530262 405.173771 
L 284.364134 406.257858 
L 285.198007 408.06467 
L 286.03188 416.135096 
L 286.865753 415.291917 
L 287.699626 422.639618 
L 288.533499 427.442071 
L 289.367372 429.987319 
L 290.201245 440.105465 
L 291.035118 424.928246 
L 291.868991 413.364651 
L 292.702864 410.594206 
L 293.536737 421.314623 
L 294.37061 413.726013 
L 295.204483 409.389665 
L 296.038356 395.416988 
L 296.872229 388.792011 
L 297.706102 387.707924 
L 298.539975 397.464708 
L 299.373848 418.30327 
L 300.207721 390.478369 
L 301.041594 397.344254 
L 301.875467 398.307886 
L 302.70934 413.616033 
L 303.543213 418.182816 
L 304.377086 422.037347 
L 305.210959 420.712352 
L 306.044832 424.802555 
L 306.878705 422.39871 
L 307.712578 426.735058 
L 308.546451 424.085067 
L 309.380324 411.316931 
L 310.214197 404.330592 
L 311.04807 413.966922 
L 312.715816 420.712352 
L 313.549689 415.051009 
L 314.383562 422.69437 
L 315.217435 424.085067 
L 316.051308 420.385405 
L 316.885181 439.795726 
L 317.719054 442.996364 
L 319.3868 429.746411 
L 320.220672 424.566884 
L 321.054545 416.85782 
L 321.888418 416.376004 
L 322.722291 426.012333 
L 323.556164 418.664632 
L 324.390037 426.735058 
L 325.22391 423.922716 
L 326.057783 417.339637 
L 326.891656 416.85782 
L 327.725529 424.928246 
L 328.559402 427.819145 
L 329.393275 421.555531 
L 330.227148 391.201094 
L 331.061021 441.695459 
L 332.728767 350.246694 
L 333.56264 346.753525 
L 334.396513 392.285181 
L 335.230386 386.142021 
L 336.064259 386.142021 
L 336.898132 387.226108 
L 337.732005 372.892068 
L 338.565878 332.901301 
L 339.399751 338.924007 
L 340.233624 342.778539 
L 341.067497 362.653468 
L 343.569116 285.924196 
L 344.402989 362.773922 
L 345.236862 401.012629 
L 346.070735 400.235152 
L 346.904608 423.121434 
L 347.738481 430.58959 
L 348.572354 414.689646 
L 349.406227 403.126051 
L 350.2401 422.39871 
L 351.073973 408.426032 
L 351.907846 406.61922 
L 352.741719 407.703308 
L 353.575592 427.698691 
L 354.409465 424.085067 
L 355.243337 419.649214 
L 356.07721 419.387357 
L 356.911083 420.110082 
L 358.578829 432.155493 
L 359.412702 389.755644 
L 360.246575 388.226401 
L 361.080448 363.978463 
L 361.914321 353.912689 
L 362.748194 365.183004 
L 364.41594 381.926127 
L 365.249813 421.916893 
L 366.083686 419.146449 
L 366.917559 386.142021 
L 367.751432 361.689835 
L 368.585305 365.06255 
L 369.419178 347.114887 
L 370.253051 357.955757 
L 371.086924 336.394471 
L 371.920797 360.700016 
L 372.75467 351.451235 
L 373.588543 305.558217 
L 374.422416 278.576495 
L 375.256289 295.921887 
L 376.090162 296.28325 
L 376.924035 411.316931 
L 377.757908 367.385594 
L 378.591781 361.087564 
L 379.425654 319.530894 
L 381.0934 330.371765 
L 381.927273 341.93536 
L 382.761146 326.134922 
L 383.595019 326.276325 
L 384.428892 318.085445 
L 385.262765 269.421982 
L 386.096638 235.694829 
L 386.930511 261.592464 
L 387.764384 310.978652 
L 388.598257 324.228605 
L 389.43213 339.526278 
L 390.266002 331.214944 
L 391.099875 292.701049 
L 391.933748 302.787772 
L 392.767621 299.896873 
L 393.601494 230.997119 
L 394.435367 310.135473 
L 395.26924 273.878784 
L 396.103113 325.757848 
L 396.936986 209.435832 
L 397.770859 236.658462 
L 399.438605 216.783533 
L 400.272478 194.860884 
L 401.106351 258.099295 
L 401.940224 286.04465 
L 402.774097 290.621906 
L 403.60797 285.321925 
L 404.441843 320.976344 
L 405.275716 320.976344 
L 406.109589 371.687527 
L 406.943462 377.794027 
L 407.777335 394.453355 
L 408.611208 394.091992 
L 409.445081 385.53975 
L 410.278954 385.057934 
L 411.9467 272.794697 
L 412.780573 314.471821 
L 413.614446 290.260544 
L 414.448319 296.28325 
L 415.282192 317.964991 
L 416.116065 330.733127 
L 416.949938 323.88445 
L 417.783811 294.596892 
L 418.617684 299.053694 
L 419.451557 306.652778 
L 420.28543 305.317309 
L 421.119303 269.66289 
L 421.953176 217.988074 
L 422.787049 181.041511 
L 423.620922 242.681168 
L 424.454795 215.458538 
L 425.288667 201.967677 
L 426.12254 237.622095 
L 426.956413 221.559801 
L 427.790286 347.026131 
L 428.624159 280.383306 
L 429.458032 350.005786 
L 430.291905 316.079622 
L 431.125778 308.208207 
L 431.959651 306.160487 
L 432.793524 287.610553 
L 433.627397 259.544744 
L 434.46127 216.422171 
L 435.295143 204.015397 
L 436.129016 179.322303 
L 436.962889 287.731008 
L 437.796762 256.412937 
L 438.630635 308.690024 
L 439.464508 219.91534 
L 440.298381 310.496836 
L 441.132254 301.802238 
L 441.966127 256.172029 
L 442.8 309.17184 
L 443.633873 325.513449 
L 444.467746 318.205899 
L 445.301619 261.833372 
L 446.135492 252.437951 
L 446.969365 186.188187 
L 447.803238 264.122001 
L 448.637111 199.317686 
L 449.470984 280.383306 
L 450.304857 304.353676 
L 451.13873 287.128737 
L 451.972603 295.680979 
L 452.806476 244.367526 
L 453.640349 233.888017 
L 454.474222 211.378809 
L 455.308095 256.172029 
L 456.141968 266.892445 
L 456.975841 93.277912 
L 457.809714 126.914288 
L 458.643587 224.492596 
L 459.47746 301.703685 
L 460.311333 224.853959 
L 461.145205 253.762947 
L 461.979078 224.404993 
L 463.646824 309.774111 
L 464.480697 247.378879 
L 465.31457 272.915151 
L 466.148443 254.867982 
L 466.982316 325.5536 
L 467.816189 243.04253 
L 468.650062 339.88764 
L 469.483935 342.537631 
L 470.317808 279.90149 
L 471.151681 287.971916 
L 471.985554 297.849153 
L 472.819427 324.228605 
L 473.6533 312.544556 
L 474.487173 321.578614 
L 475.321046 326.155871 
L 476.154919 311.177663 
L 476.988792 414.087376 
L 477.822665 402.764689 
L 478.656538 381.44431 
L 479.490411 372.410251 
L 481.158157 346.0308 
L 481.99203 342.778539 
L 482.825903 359.039844 
L 483.659776 315.315 
L 484.493649 322.060431 
L 485.327522 314.953638 
L 486.161395 313.387734 
L 487.829141 335.189929 
L 488.663014 335.189929 
L 489.496887 370.12686 
L 490.33076 378.192049 
L 491.164633 338.803553 
L 491.998506 356.148946 
L 492.832379 358.678482 
L 493.666252 360.605748 
L 494.500125 352.294414 
L 495.333998 301.703685 
L 496.16787 292.669626 
L 497.001743 344.826259 
L 497.835616 352.294414 
L 498.669489 377.469324 
L 499.503362 325.632157 
L 500.337235 342.296722 
L 501.171108 379.050939 
L 502.004981 325.433146 
L 502.838854 342.898993 
L 503.672727 328.444499 
L 504.5066 363.737555 
L 505.340473 338.562645 
L 506.174346 356.389854 
L 507.008219 370.121623 
L 507.842092 392.164726 
L 508.675965 373.855701 
L 509.509838 306.160487 
L 510.343711 284.840109 
L 511.177584 154.388301 
L 512.011457 100.142051 
L 512.84533 197.631328 
L 513.679203 353.258047 
L 514.513076 339.164915 
L 515.346949 351.812597 
L 516.180822 392.646543 
L 517.014695 396.982891 
L 517.848568 399.512428 
L 518.682441 401.078331 
L 519.516314 395.176079 
L 520.350187 395.77835 
L 521.18406 293.874167 
L 522.017933 321.45816 
L 522.851806 302.185502 
L 523.685679 348.633656 
L 524.519552 331.69676 
L 525.353425 377.469324 
L 526.187298 337.83992 
L 527.021171 363.617101 
L 527.855044 380.962494 
L 528.688917 386.503383 
L 529.52279 372.892068 
L 530.356663 378.071595 
L 531.190535 365.303459 
L 532.024408 356.992124 
L 532.858281 145.956512 
L 533.692154 209.49344 
L 534.526027 311.099106 
L 535.3599 298.93324 
L 536.193773 299.415057 
L 537.027646 305.437763 
L 537.861519 369.760261 
L 538.695392 362.773922 
L 539.529265 372.892068 
L 540.363138 404.330592 
L 542.030884 324.710421 
L 544.532503 368.676174 
L 545.366376 363.255739 
L 546.200249 374.939788 
L 547.867995 318.216373 
L 548.701868 353.258047 
L 549.535741 368.435266 
L 551.203487 408.546486 
L 552.03736 403.366959 
L 552.871233 395.055625 
L 553.705106 394.694263 
L 554.538979 393.369268 
L 555.372852 387.828378 
L 556.206725 400.837423 
L 557.040598 403.848776 
L 557.874471 394.453355 
L 558.708344 396.862437 
L 559.542217 393.756816 
L 560.37609 406.577323 
L 561.209963 415.171463 
L 562.043836 431.553223 
L 562.877709 406.61922 
L 563.711582 425.891879 
L 564.545455 416.85782 
L 565.379328 412.882835 
L 566.2132 412.76238 
L 567.047073 402.764689 
L 567.880946 386.744291 
L 568.714819 385.178388 
L 569.548692 416.85782 
L 570.382565 400.716969 
L 571.216438 403.560733 
L 572.050311 377.830687 
L 572.884184 333.503572 
L 573.718057 305.437763 
L 574.55193 378.432957 
L 575.385803 392.526089 
L 576.219676 427.216874 
L 577.053549 427.337328 
L 577.887422 420.591898 
L 578.721295 415.171463 
L 579.555168 420.35099 
L 580.389041 406.498766 
L 581.222914 394.694263 
L 582.056787 378.312503 
L 582.89066 388.310195 
L 583.724533 386.341032 
L 584.558406 375.060242 
L 585.392279 370.001169 
L 586.226152 360.244386 
L 587.060025 400.957877 
L 587.893898 415.171463 
L 588.727771 420.832806 
L 589.561644 409.21684 
L 590.395517 379.517044 
L 591.22939 362.051197 
L 592.063263 372.530706 
L 592.897136 365.303459 
L 593.731009 366.748908 
L 594.564882 374.023289 
L 595.398755 363.255739 
L 596.232628 377.228416 
L 597.066501 394.694263 
L 597.900374 419.387357 
L 598.734247 421.314623 
L 599.56812 414.689646 
L 600.401993 422.880526 
L 601.235866 410.353298 
L 602.069738 424.807792 
L 602.903611 421.435077 
L 603.737484 423.603251 
L 604.571357 414.689646 
L 605.40523 417.700999 
L 606.239103 425.053937 
L 607.072976 405.053317 
L 607.906849 373.25343 
L 608.740722 422.519164 
L 609.574595 433.841851 
L 610.408468 427.457783 
L 611.242341 418.544178 
L 612.076214 401.078331 
L 612.910087 355.787583 
L 613.74396 327.962682 
L 614.577833 362.533014 
L 615.411706 389.273828 
L 616.245579 314.71273 
L 617.079452 356.028492 
L 617.913325 384.455663 
L 618.747198 408.787395 
L 619.581071 379.998861 
L 620.414944 385.780658 
L 621.248817 373.976155 
L 622.08269 418.30327 
L 622.916563 351.330781 
L 623.750436 364.339826 
L 624.584309 349.042153 
L 625.418182 350.72851 
L 627.085928 374.457971 
L 627.919801 371.446618 
L 628.753674 398.307886 
L 629.587547 409.468222 
L 630.42142 395.898804 
L 632.089166 418.182816 
L 632.923039 419.025994 
L 633.756912 396.621529 
L 635.424658 402.041964 
L 636.258531 413.003289 
L 637.092403 405.053317 
L 637.926276 417.821453 
L 638.760149 417.339637 
L 639.594022 419.507811 
L 640.427895 424.807792 
L 641.261768 426.687924 
L 642.095641 417.580545 
L 642.929514 411.758596 
L 643.763387 415.291917 
L 644.59726 410.11239 
L 645.431133 390.237461 
L 646.265006 422.880526 
L 647.098879 439.623648 
L 647.932752 435.046392 
L 648.766625 433.360034 
L 649.600498 436.73275 
L 651.268244 410.342348 
L 652.102117 412.882835 
L 652.93599 365.544367 
L 653.769863 387.58747 
L 654.603736 363.255739 
L 655.437609 344.223988 
L 656.271482 360.244386 
L 657.105355 399.994244 
L 657.939228 373.976155 
L 658.773101 383.130668 
L 659.606974 342.898993 
L 660.440847 365.183004 
L 661.27472 424.928246 
L 662.108593 423.241889 
L 662.942466 415.532825 
L 663.776339 435.166846 
L 665.444085 406.137404 
L 667.111831 347.476249 
L 667.945704 332.419485 
L 668.779577 321.217252 
L 669.61345 314.953638 
L 670.447323 303.390043 
L 671.281196 312.544556 
L 672.115068 377.469324 
L 672.948941 396.741983 
L 673.782814 358.31712 
L 674.616687 350.848965 
L 675.45056 325.914962 
L 676.284433 366.869362 
L 677.118306 430.207279 
L 677.952179 402.764689 
L 678.786052 418.30327 
L 679.619925 344.344442 
L 681.287671 418.664632 
L 682.955417 368.676174 
L 683.78929 377.830687 
L 684.623163 399.753336 
L 685.457036 353.619409 
L 686.290909 329.791395 
L 687.124782 374.939788 
L 687.958655 391.997138 
L 688.792528 401.319239 
L 689.626401 337.117195 
L 690.460274 373.976155 
L 691.294147 307.726391 
L 692.12802 288.935549 
L 692.961893 307.846845 
L 693.795766 312.303647 
L 694.629639 327.119504 
L 695.463512 303.510497 
L 696.297385 315.315 
L 697.131258 299.053694 
L 697.965131 350.005786 
L 698.799004 310.015019 
L 699.632877 345.635022 
L 700.46675 351.089873 
L 701.300623 364.219371 
L 702.134496 386.864745 
L 702.968369 380.480677 
L 703.802242 324.95133 
L 704.636115 334.759736 
L 705.469988 330.371765 
L 706.303861 295.801433 
L 707.137733 307.12412 
L 707.971606 334.828567 
L 708.805479 325.071784 
L 709.639352 240.916253 
L 710.473225 223.167601 
L 711.307098 305.196854 
L 712.140971 224.492596 
L 712.974844 347.235341 
L 713.808717 342.176268 
L 714.64259 350.005786 
L 715.476463 211.363098 
L 716.310336 196.908604 
L 717.144209 106.447562 
L 717.978082 225.215321 
L 718.811955 209.074469 
L 719.645828 252.558406 
L 720.479701 240.753902 
L 721.313574 211.242644 
L 722.147447 258.099295 
L 722.98132 251.353864 
L 723.815193 261.592464 
L 724.649066 266.771991 
L 725.482939 273.396968 
L 726.316812 243.283439 
L 727.150685 248.944782 
L 727.984558 311.21956 
L 728.818431 201.244952 
L 729.652304 259.183382 
L 730.486177 287.369645 
L 731.32005 236.778916 
L 732.153923 164.385992 
L 732.987796 213.264178 
L 733.821669 311.340014 
L 734.655542 320.374073 
L 735.489415 314.71273 
L 736.323288 239.428907 
L 737.157161 247.619787 
L 737.991034 319.41044 
L 738.824907 409.630573 
L 739.65878 348.921699 
L 740.492653 304.112767 
L 741.326526 194.74043 
L 742.160399 282.069664 
L 742.994271 318.446807 
L 743.828144 365.183004 
L 745.49589 213.77218 
L 746.329763 290.061533 
L 747.163636 280.624215 
L 747.163636 280.624215 
" style="fill:none;stroke:#1f77b4;stroke-linecap:square;stroke-width:1.5;"/>
   </g>
   <g id="line2d_17">
    <path clip-path="url(#p1dba95e3a0)" d="M 138.436364 295.592218 
L 139.270237 342.281145 
L 140.10411 255.58632 
L 140.937983 303.368642 
L 142.605729 347.462396 
L 143.439601 320.43305 
L 144.273474 261.210944 
L 145.107347 319.064049 
L 145.94122 323.248338 
L 146.775093 304.003113 
L 147.608966 294.338494 
L 148.442839 257.934342 
L 149.276712 319.945592 
L 150.110585 318.310317 
L 150.944458 291.23356 
L 151.778331 314.5525 
L 152.612204 321.494656 
L 153.446077 273.112528 
L 154.27995 322.953811 
L 155.113823 281.714547 
L 155.947696 321.037495 
L 156.781569 323.497071 
L 158.449315 374.999644 
L 159.283188 376.94979 
L 160.117061 414.266397 
L 160.950934 398.44032 
L 161.784807 385.33752 
L 162.61868 347.547378 
L 163.452553 323.682407 
L 164.286426 338.495919 
L 165.120299 317.71533 
L 165.954172 331.508263 
L 166.788045 347.815119 
L 167.621918 378.945067 
L 168.455791 369.467155 
L 169.289664 318.898486 
L 170.123537 385.266337 
L 170.95741 392.600272 
L 171.791283 376.150243 
L 172.625156 324.992322 
L 173.459029 303.521088 
L 174.292902 357.922181 
L 175.126775 394.393079 
L 175.960648 351.514401 
L 176.794521 402.328417 
L 177.628394 392.422787 
L 178.462267 379.21253 
L 179.296139 356.848824 
L 180.130012 348.681607 
L 180.963885 369.047371 
L 181.797758 300.882184 
L 182.631631 333.660402 
L 183.465504 286.809713 
L 184.299377 320.436324 
L 185.13325 318.120302 
L 185.967123 378.038301 
L 186.800996 335.216928 
L 187.634869 347.833671 
L 189.302615 333.896483 
L 190.136488 321.894017 
L 190.970361 376.338618 
L 191.804234 392.787555 
L 192.638107 367.88718 
L 193.47198 302.578659 
L 194.305853 324.062916 
L 195.139726 372.644893 
L 195.973599 366.719701 
L 196.807472 334.850885 
L 197.641345 289.391466 
L 198.475218 257.528467 
L 199.309091 329.144798 
L 200.142964 284.421122 
L 200.976837 291.12444 
L 201.81071 280.966186 
L 202.644583 288.485773 
L 203.478456 330.948451 
L 204.312329 281.925978 
L 205.146202 319.704878 
L 205.980075 294.440639 
L 206.813948 351.632076 
L 207.647821 323.949637 
L 208.481694 337.435507 
L 209.315567 334.585182 
L 210.14944 342.291547 
L 210.983313 358.993179 
L 211.817186 358.87665 
L 212.651059 346.249405 
L 213.484932 336.551856 
L 214.318804 374.46341 
L 215.152677 271.08049 
L 215.98655 349.631555 
L 216.820423 385.366274 
L 217.654296 375.738386 
L 218.488169 383.719264 
L 219.322042 383.595958 
L 220.155915 281.413583 
L 220.989788 344.525506 
L 222.657534 294.064272 
L 223.491407 331.839763 
L 224.32528 327.423557 
L 225.159153 305.788831 
L 225.993026 235.327208 
L 226.826899 313.976268 
L 227.660772 348.490063 
L 228.494645 314.988762 
L 229.328518 322.718977 
L 230.162391 364.960857 
L 230.996264 377.508435 
L 231.830137 377.093212 
L 232.66401 405.187196 
L 233.497883 328.182583 
L 234.331756 288.465387 
L 235.165629 168.272228 
L 235.999502 158.482707 
L 236.833375 317.588351 
L 237.667248 312.264662 
L 238.501121 305.040098 
L 239.334994 349.622934 
L 240.168867 367.851208 
L 241.00274 361.4202 
L 241.836613 375.805874 
L 242.670486 394.130913 
L 243.504359 376.737273 
L 245.172105 410.604163 
L 246.005978 413.719829 
L 246.839851 405.791105 
L 247.673724 376.860426 
L 248.507597 378.428491 
L 249.341469 262.680765 
L 250.175342 341.425743 
L 251.009215 363.507343 
L 251.843088 392.502848 
L 252.676961 400.816351 
L 253.510834 382.832719 
L 254.344707 394.412485 
L 255.17858 392.274721 
L 256.012453 378.537092 
L 256.846326 375.224081 
L 257.680199 370.143112 
L 258.514072 413.073626 
L 259.347945 411.433079 
L 260.181818 377.082612 
L 261.015691 355.154247 
L 261.849564 298.375989 
L 262.683437 367.155433 
L 263.51731 411.000868 
L 264.351183 390.196973 
L 265.185056 391.924751 
L 266.018929 410.035273 
L 266.852802 393.21406 
L 267.686675 414.104379 
L 268.520548 413.258478 
L 269.354421 414.116396 
L 270.188294 386.53568 
L 271.022167 390.296042 
L 271.85604 371.884156 
L 272.689913 400.606284 
L 273.523786 413.924325 
L 274.357659 414.619814 
L 275.191532 412.034067 
L 276.025405 417.570475 
L 276.859278 418.95144 
L 277.693151 412.1133 
L 278.527024 418.715928 
L 279.360897 420.058251 
L 280.19477 420.132127 
L 281.028643 415.197656 
L 281.862516 417.486687 
L 282.696389 418.980958 
L 283.530262 412.599364 
L 284.364134 412.121811 
L 286.03188 413.294092 
L 286.865753 419.43383 
L 287.699626 420.460564 
L 288.533499 417.614079 
L 289.367372 418.436251 
L 290.201245 420.71505 
L 291.035118 417.866937 
L 291.868991 419.174376 
L 292.702864 419.856742 
L 293.536737 420.697271 
L 294.37061 419.980679 
L 295.204483 412.202515 
L 296.872229 378.398095 
L 297.706102 378.195973 
L 298.539975 384.965575 
L 299.373848 411.954639 
L 300.207721 380.806019 
L 301.041594 399.813732 
L 301.875467 393.962281 
L 302.70934 411.646778 
L 303.543213 416.82038 
L 305.210959 419.043805 
L 306.044832 418.70443 
L 307.712578 422.06086 
L 308.546451 420.010249 
L 309.380324 420.371287 
L 310.214197 412.44708 
L 311.04807 419.883001 
L 311.881943 416.697936 
L 312.715816 420.357814 
L 313.549689 417.361397 
L 314.383562 420.015935 
L 315.217435 419.859467 
L 316.051308 420.805531 
L 316.885181 418.891357 
L 317.719054 423.70374 
L 318.552927 419.266982 
L 319.3868 417.012339 
L 320.220672 419.280683 
L 321.054545 421.221212 
L 321.888418 420.046736 
L 322.722291 419.133921 
L 323.556164 418.538637 
L 324.390037 419.40952 
L 325.22391 421.708652 
L 326.057783 419.712053 
L 326.891656 420.985749 
L 327.725529 420.354122 
L 328.559402 421.306721 
L 329.393275 420.906875 
L 330.227148 377.760679 
L 331.061021 415.732538 
L 332.728767 372.305745 
L 333.56264 327.339212 
L 334.396513 389.978987 
L 335.230386 376.138568 
L 336.064259 379.450478 
L 336.898132 374.063257 
L 337.732005 377.033618 
L 338.565878 337.484154 
L 339.399751 333.22248 
L 340.233624 333.695693 
L 341.067497 345.334713 
L 343.569116 260.695138 
L 344.402989 335.833973 
L 345.236862 380.56879 
L 346.070735 410.030229 
L 346.904608 418.097306 
L 347.738481 420.226388 
L 348.572354 422.67614 
L 349.406227 391.051653 
L 350.2401 420.053854 
L 351.073973 418.735507 
L 351.907846 387.06821 
L 352.741719 421.30497 
L 354.409465 420.344533 
L 355.243337 424.3799 
L 356.07721 424.402326 
L 356.911083 416.76748 
L 357.744956 422.447132 
L 358.578829 420.942949 
L 359.412702 411.928195 
L 360.246575 379.66607 
L 361.080448 387.27701 
L 361.914321 300.001222 
L 362.748194 371.500004 
L 363.582067 357.174637 
L 364.41594 370.197104 
L 365.249813 413.974604 
L 366.083686 412.474491 
L 366.917559 401.425296 
L 367.751432 352.548536 
L 368.585305 364.596799 
L 369.419178 357.388946 
L 370.253051 328.096579 
L 371.086924 344.220633 
L 371.920797 340.604789 
L 372.75467 338.608861 
L 373.588543 319.259168 
L 374.422416 266.155695 
L 375.256289 293.075798 
L 376.090162 293.439064 
L 376.924035 352.183167 
L 377.757908 385.932363 
L 378.591781 350.489302 
L 379.425654 294.300015 
L 380.259527 320.677305 
L 381.0934 327.343978 
L 381.927273 324.399744 
L 382.761146 316.411183 
L 383.595019 319.024847 
L 384.428892 295.341987 
L 385.262765 297.51924 
L 386.096638 229.725727 
L 386.930511 230.014085 
L 387.764384 317.943467 
L 388.598257 321.770036 
L 389.43213 315.74293 
L 390.266002 348.370627 
L 391.099875 283.9148 
L 391.933748 284.368441 
L 392.767621 314.4543 
L 393.601494 222.518785 
L 394.435367 302.79245 
L 395.26924 254.733509 
L 396.103113 298.079005 
L 396.936986 279.380231 
L 397.770859 186.607127 
L 398.604732 228.763851 
L 399.438605 220.257198 
L 400.272478 176.537198 
L 401.940224 280.463673 
L 402.774097 288.762914 
L 403.60797 299.261149 
L 404.441843 302.216683 
L 405.275716 291.992084 
L 406.109589 346.530258 
L 406.943462 354.047694 
L 407.777335 391.577159 
L 408.611208 374.102246 
L 409.445081 374.716432 
L 410.278954 377.546601 
L 411.112827 371.956873 
L 411.9467 225.606298 
L 412.780573 308.429432 
L 413.614446 306.742018 
L 414.448319 286.230174 
L 415.282192 301.358859 
L 416.116065 320.439153 
L 416.949938 317.833146 
L 417.783811 298.711554 
L 418.617684 290.401764 
L 419.451557 262.341641 
L 420.28543 311.106849 
L 421.119303 251.537485 
L 421.953176 243.640775 
L 422.787049 177.222796 
L 423.620922 240.80547 
L 424.454795 224.631556 
L 425.288667 170.123712 
L 426.12254 236.357791 
L 426.956413 198.93868 
L 427.790286 326.309411 
L 428.624159 287.255027 
L 429.458032 320.441002 
L 430.291905 296.482788 
L 431.125778 312.193901 
L 431.959651 297.122855 
L 432.793524 294.890265 
L 433.627397 280.601955 
L 434.46127 243.671746 
L 435.295143 242.595315 
L 436.129016 159.159199 
L 436.962889 286.684406 
L 437.796762 268.963293 
L 438.630635 284.046509 
L 439.464508 226.134338 
L 440.298381 268.679744 
L 441.132254 321.684502 
L 441.966127 224.572015 
L 442.8 297.790065 
L 443.633873 312.607873 
L 444.467746 292.412975 
L 445.301619 268.333525 
L 446.135492 266.485407 
L 446.969365 192.75599 
L 447.803238 232.54896 
L 448.637111 237.611872 
L 450.304857 292.917373 
L 451.13873 269.354308 
L 451.972603 274.657785 
L 452.806476 260.80826 
L 453.640349 192.310327 
L 454.474222 234.997027 
L 455.308095 228.85833 
L 456.141968 234.35558 
L 456.975841 187.133222 
L 457.809714 99.852796 
L 458.643587 179.407825 
L 459.47746 286.571686 
L 460.311333 274.121838 
L 461.145205 226.404561 
L 461.979078 265.193387 
L 462.812951 192.00447 
L 463.646824 327.485757 
L 464.480697 283.175978 
L 465.31457 201.76456 
L 466.148443 289.19703 
L 466.982316 296.55146 
L 467.816189 226.046935 
L 468.650062 309.886349 
L 469.483935 336.385702 
L 470.317808 295.802685 
L 471.151681 289.219676 
L 471.985554 281.652026 
L 472.819427 323.216379 
L 473.6533 301.647564 
L 474.487173 322.258565 
L 475.321046 319.096273 
L 476.154919 308.171974 
L 476.988792 374.808046 
L 477.822665 404.916012 
L 478.656538 371.622417 
L 479.490411 361.961651 
L 480.324284 357.732616 
L 481.158157 324.659349 
L 481.99203 350.34623 
L 482.825903 317.051551 
L 483.659776 306.805351 
L 484.493649 306.007421 
L 485.327522 317.975829 
L 486.161395 305.411829 
L 486.995268 312.379314 
L 487.829141 322.637244 
L 488.663014 328.482904 
L 489.496887 349.285753 
L 490.33076 375.216015 
L 491.164633 354.382066 
L 491.998506 322.695928 
L 492.832379 370.111212 
L 493.666252 346.689931 
L 494.500125 332.696718 
L 495.333998 320.737002 
L 496.16787 263.801724 
L 497.001743 327.912452 
L 497.835616 339.453214 
L 498.669489 372.911866 
L 499.503362 318.853102 
L 500.337235 320.727516 
L 501.171108 358.432772 
L 502.004981 343.198965 
L 502.838854 319.596467 
L 503.672727 329.899758 
L 504.5066 344.886389 
L 505.340473 339.491539 
L 506.174346 329.068478 
L 507.008219 346.632356 
L 507.842092 377.031063 
L 508.675965 374.787266 
L 509.509838 286.291073 
L 510.343711 321.107337 
L 511.177584 174.362869 
L 512.011457 94.592902 
L 512.84533 161.33513 
L 513.679203 334.258216 
L 514.513076 324.394175 
L 515.346949 330.70135 
L 516.180822 379.49875 
L 517.014695 389.265158 
L 517.848568 387.875478 
L 518.682441 389.973067 
L 519.516314 390.340236 
L 520.350187 387.349102 
L 521.18406 307.614271 
L 522.017933 303.688342 
L 522.851806 302.744378 
L 523.685679 324.316149 
L 524.519552 351.288754 
L 525.353425 347.312927 
L 526.187298 309.227924 
L 527.855044 375.892574 
L 528.688917 375.12907 
L 529.52279 377.381326 
L 530.356663 347.842331 
L 531.190535 374.644235 
L 532.024408 349.548126 
L 532.858281 255.662293 
L 533.692154 99.843545 
L 534.526027 299.293888 
L 535.3599 304.737277 
L 536.193773 292.925453 
L 537.027646 272.303077 
L 537.861519 352.290299 
L 538.695392 361.002782 
L 539.529265 375.00247 
L 540.363138 378.285481 
L 541.197011 354.740389 
L 542.030884 373.223535 
L 542.864757 274.02318 
L 543.69863 364.562762 
L 544.532503 335.796922 
L 545.366376 376.825599 
L 546.200249 335.158099 
L 547.034122 378.070281 
L 547.867995 291.419805 
L 548.701868 336.939742 
L 549.535741 361.242709 
L 550.369614 378.783307 
L 551.203487 405.446956 
L 552.03736 403.937749 
L 552.871233 392.349821 
L 553.705106 382.616692 
L 554.538979 377.443472 
L 555.372852 392.448115 
L 556.206725 395.815415 
L 557.040598 393.539836 
L 557.874471 410.382609 
L 558.708344 390.55267 
L 559.542217 378.235963 
L 560.37609 399.100501 
L 561.209963 412.975085 
L 562.043836 431.308346 
L 562.877709 420.010346 
L 563.711582 423.1144 
L 564.545455 421.009103 
L 565.379328 418.537849 
L 566.2132 414.317185 
L 567.047073 414.080449 
L 567.880946 376.00867 
L 568.714819 377.859857 
L 569.548692 409.235831 
L 570.382565 416.540461 
L 571.216438 385.100884 
L 572.050311 390.631711 
L 572.884184 348.473329 
L 573.718057 271.523122 
L 574.55193 361.287378 
L 575.385803 379.959228 
L 576.219676 413.187772 
L 577.053549 426.374896 
L 577.887422 418.371912 
L 578.721295 420.454081 
L 579.555168 421.91766 
L 580.389041 413.306592 
L 581.222914 394.411397 
L 582.056787 379.371632 
L 582.89066 385.882583 
L 583.724533 384.896305 
L 584.558406 380.996414 
L 585.392279 372.083167 
L 586.226152 356.722263 
L 587.060025 379.947761 
L 587.893898 411.81382 
L 588.727771 421.999179 
L 589.561644 419.162313 
L 590.395517 377.395435 
L 591.22939 359.148892 
L 592.063263 373.835995 
L 592.897136 361.874819 
L 593.731009 363.079071 
L 594.564882 366.868237 
L 595.398755 364.402235 
L 596.232628 375.219049 
L 597.066501 379.226193 
L 597.900374 418.618568 
L 598.734247 415.270411 
L 599.56812 420.233747 
L 600.401993 418.988844 
L 601.235866 417.038357 
L 602.069738 422.034601 
L 602.903611 421.811713 
L 603.737484 420.867931 
L 604.571357 418.448104 
L 605.40523 418.995881 
L 606.239103 426.142231 
L 607.072976 409.113392 
L 607.906849 352.757584 
L 608.740722 421.365411 
L 609.574595 418.713725 
L 610.408468 422.476856 
L 611.242341 417.952096 
L 612.076214 397.727269 
L 612.910087 388.193643 
L 613.74396 329.280003 
L 614.577833 332.737821 
L 615.411706 378.702892 
L 616.245579 318.167003 
L 617.079452 334.998648 
L 617.913325 381.870401 
L 618.747198 398.326947 
L 619.581071 379.170639 
L 620.414944 372.474863 
L 621.248817 377.057633 
L 622.08269 409.46659 
L 622.916563 355.818279 
L 623.750436 379.247613 
L 624.584309 327.363199 
L 625.418182 337.130438 
L 626.252055 358.384984 
L 627.085928 365.500426 
L 627.919801 377.78985 
L 628.753674 376.840719 
L 629.587547 406.640496 
L 630.42142 407.664147 
L 631.255293 393.274615 
L 632.089166 416.177526 
L 632.923039 417.380044 
L 633.756912 395.017654 
L 634.590785 395.580492 
L 635.424658 391.953472 
L 636.258531 410.75759 
L 637.092403 409.136613 
L 637.926276 411.243791 
L 638.760149 417.521763 
L 639.594022 418.135051 
L 640.427895 424.996953 
L 641.261768 426.911271 
L 642.929514 404.46102 
L 643.763387 412.527105 
L 644.59726 410.930546 
L 645.431133 391.382886 
L 646.265006 412.268292 
L 647.098879 425.862777 
L 647.932752 423.80359 
L 648.766625 428.172365 
L 649.600498 429.166816 
L 650.434371 427.312708 
L 651.268244 416.706048 
L 652.102117 420.011324 
L 652.93599 380.615345 
L 653.769863 371.967795 
L 654.603736 378.525663 
L 655.437609 341.198653 
L 656.271482 346.561156 
L 657.105355 394.541246 
L 657.939228 362.462235 
L 658.773101 379.983822 
L 659.606974 354.048496 
L 660.440847 343.118095 
L 661.27472 413.490017 
L 662.108593 416.692461 
L 662.942466 425.880618 
L 663.776339 429.063484 
L 664.610212 423.869757 
L 665.444085 413.197974 
L 667.111831 347.771377 
L 667.945704 329.983662 
L 668.779577 321.286425 
L 669.61345 307.784783 
L 670.447323 318.861397 
L 671.281196 290.905191 
L 672.115068 361.332107 
L 672.948941 389.021422 
L 673.782814 350.642843 
L 674.616687 357.69601 
L 675.45056 314.207161 
L 676.284433 339.467448 
L 677.118306 422.099291 
L 677.952179 408.5513 
L 678.786052 408.198571 
L 679.619925 335.689284 
L 680.453798 378.745656 
L 681.287671 390.565313 
L 682.121544 385.259138 
L 682.955417 359.221717 
L 683.78929 378.059193 
L 684.623163 378.822679 
L 685.457036 377.78738 
L 686.290909 291.762067 
L 687.124782 354.05202 
L 687.958655 376.921405 
L 688.792528 391.23903 
L 689.626401 349.161174 
L 690.460274 343.191159 
L 691.294147 347.56429 
L 692.12802 276.623677 
L 692.961893 284.434419 
L 693.795766 327.568684 
L 694.629639 314.864365 
L 695.463512 322.453786 
L 696.297385 292.383551 
L 697.131258 287.45966 
L 697.965131 343.824345 
L 698.799004 307.68744 
L 700.46675 351.175362 
L 701.300623 356.123059 
L 702.134496 376.929891 
L 702.968369 377.412987 
L 703.802242 326.200487 
L 704.636115 313.984374 
L 705.469988 319.951046 
L 706.303861 286.657907 
L 707.137733 299.239492 
L 707.971606 305.771018 
L 708.805479 324.274741 
L 709.639352 259.751083 
L 710.473225 232.959619 
L 711.307098 291.294618 
L 712.140971 235.580454 
L 712.974844 295.697361 
L 713.808717 326.953996 
L 714.64259 319.891964 
L 715.476463 277.632385 
L 716.310336 198.57614 
L 717.144209 86.923636 
L 717.978082 201.68203 
L 718.811955 219.62906 
L 719.645828 233.994113 
L 720.479701 260.633161 
L 721.313574 192.633849 
L 722.147447 240.314701 
L 722.98132 268.31143 
L 723.815193 266.992525 
L 724.649066 264.000281 
L 725.482939 277.18631 
L 726.316812 240.104634 
L 727.150685 274.80013 
L 727.984558 282.954273 
L 728.818431 235.179906 
L 729.652304 205.571572 
L 730.486177 292.307952 
L 731.32005 280.484922 
L 732.153923 161.525978 
L 732.987796 175.640292 
L 733.821669 289.213277 
L 734.655542 316.403631 
L 735.489415 314.869649 
L 736.323288 267.655656 
L 737.157161 240.652071 
L 737.991034 282.86071 
L 738.824907 390.497063 
L 739.65878 367.721429 
L 740.492653 288.314939 
L 741.326526 230.808796 
L 742.160399 236.097802 
L 742.994271 281.826106 
L 743.828144 368.457306 
L 745.49589 184.826373 
L 746.329763 294.530716 
L 747.163636 244.198039 
L 747.163636 244.198039 
" style="fill:none;stroke:#ff0000;stroke-dasharray:5.55,2.4;stroke-dashoffset:0;stroke-width:1.5;"/>
   </g>
   <g id="patch_3">
    <path d="M 108 460.8 
L 108 69.12 
" style="fill:none;stroke:#000000;stroke-linecap:square;stroke-linejoin:miter;stroke-width:0.8;"/>
   </g>
   <g id="patch_4">
    <path d="M 777.6 460.8 
L 777.6 69.12 
" style="fill:none;stroke:#000000;stroke-linecap:square;stroke-linejoin:miter;stroke-width:0.8;"/>
   </g>
   <g id="patch_5">
    <path d="M 108 460.8 
L 777.6 460.8 
" style="fill:none;stroke:#000000;stroke-linecap:square;stroke-linejoin:miter;stroke-width:0.8;"/>
   </g>
   <g id="patch_6">
    <path d="M 108 69.12 
L 777.6 69.12 
" style="fill:none;stroke:#000000;stroke-linecap:square;stroke-linejoin:miter;stroke-width:0.8;"/>
   </g>
   <g id="text_18">
    <!-- Macau roadside 2020-2021 | Forecast vs Monitored | Random forest -->
    <g transform="translate(188.201953 63.12)scale(0.15 -0.15)">
     <defs>
      <path d="M 8.5 21.578125 
L 8.5 54.6875 
L 17.484375 54.6875 
L 17.484375 21.921875 
Q 17.484375 14.15625 20.5 10.265625 
Q 23.53125 6.390625 29.59375 6.390625 
Q 36.859375 6.390625 41.078125 11.03125 
Q 45.3125 15.671875 45.3125 23.6875 
L 45.3125 54.6875 
L 54.296875 54.6875 
L 54.296875 0 
L 45.3125 0 
L 45.3125 8.40625 
Q 42.046875 3.421875 37.71875 1 
Q 33.40625 -1.421875 27.6875 -1.421875 
Q 18.265625 -1.421875 13.375 4.4375 
Q 8.5 10.296875 8.5 21.578125 
z
M 31.109375 56 
z
" id="DejaVuSans-117"/>
      <path id="DejaVuSans-32"/>
      <path d="M 45.40625 46.390625 
L 45.40625 75.984375 
L 54.390625 75.984375 
L 54.390625 0 
L 45.40625 0 
L 45.40625 8.203125 
Q 42.578125 3.328125 38.25 0.953125 
Q 33.9375 -1.421875 27.875 -1.421875 
Q 17.96875 -1.421875 11.734375 6.484375 
Q 5.515625 14.40625 5.515625 27.296875 
Q 5.515625 40.1875 11.734375 48.09375 
Q 17.96875 56 27.875 56 
Q 33.9375 56 38.25 53.625 
Q 42.578125 51.265625 45.40625 46.390625 
z
M 14.796875 27.296875 
Q 14.796875 17.390625 18.875 11.75 
Q 22.953125 6.109375 30.078125 6.109375 
Q 37.203125 6.109375 41.296875 11.75 
Q 45.40625 17.390625 45.40625 27.296875 
Q 45.40625 37.203125 41.296875 42.84375 
Q 37.203125 48.484375 30.078125 48.484375 
Q 22.953125 48.484375 18.875 42.84375 
Q 14.796875 37.203125 14.796875 27.296875 
z
" id="DejaVuSans-100"/>
      <path d="M 44.28125 53.078125 
L 44.28125 44.578125 
Q 40.484375 46.53125 36.375 47.5 
Q 32.28125 48.484375 27.875 48.484375 
Q 21.1875 48.484375 17.84375 46.4375 
Q 14.5 44.390625 14.5 40.28125 
Q 14.5 37.15625 16.890625 35.375 
Q 19.28125 33.59375 26.515625 31.984375 
L 29.59375 31.296875 
Q 39.15625 29.25 43.1875 25.515625 
Q 47.21875 21.78125 47.21875 15.09375 
Q 47.21875 7.46875 41.1875 3.015625 
Q 35.15625 -1.421875 24.609375 -1.421875 
Q 20.21875 -1.421875 15.453125 -0.5625 
Q 10.6875 0.296875 5.421875 2 
L 5.421875 11.28125 
Q 10.40625 8.6875 15.234375 7.390625 
Q 20.0625 6.109375 24.8125 6.109375 
Q 31.15625 6.109375 34.5625 8.28125 
Q 37.984375 10.453125 37.984375 14.40625 
Q 37.984375 18.0625 35.515625 20.015625 
Q 33.0625 21.96875 24.703125 23.78125 
L 21.578125 24.515625 
Q 13.234375 26.265625 9.515625 29.90625 
Q 5.8125 33.546875 5.8125 39.890625 
Q 5.8125 47.609375 11.28125 51.796875 
Q 16.75 56 26.8125 56 
Q 31.78125 56 36.171875 55.265625 
Q 40.578125 54.546875 44.28125 53.078125 
z
" id="DejaVuSans-115"/>
      <path d="M 21 76.421875 
L 21 -23.578125 
L 12.703125 -23.578125 
L 12.703125 76.421875 
z
" id="DejaVuSans-124"/>
      <path d="M 9.8125 72.90625 
L 51.703125 72.90625 
L 51.703125 64.59375 
L 19.671875 64.59375 
L 19.671875 43.109375 
L 48.578125 43.109375 
L 48.578125 34.8125 
L 19.671875 34.8125 
L 19.671875 0 
L 9.8125 0 
z
" id="DejaVuSans-70"/>
      <path d="M 2.984375 54.6875 
L 12.5 54.6875 
L 29.59375 8.796875 
L 46.6875 54.6875 
L 56.203125 54.6875 
L 35.6875 0 
L 23.484375 0 
z
" id="DejaVuSans-118"/>
      <path d="M 54.890625 33.015625 
L 54.890625 0 
L 45.90625 0 
L 45.90625 32.71875 
Q 45.90625 40.484375 42.875 44.328125 
Q 39.84375 48.1875 33.796875 48.1875 
Q 26.515625 48.1875 22.3125 43.546875 
Q 18.109375 38.921875 18.109375 30.90625 
L 18.109375 0 
L 9.078125 0 
L 9.078125 54.6875 
L 18.109375 54.6875 
L 18.109375 46.1875 
Q 21.34375 51.125 25.703125 53.5625 
Q 30.078125 56 35.796875 56 
Q 45.21875 56 50.046875 50.171875 
Q 54.890625 44.34375 54.890625 33.015625 
z
" id="DejaVuSans-110"/>
      <path d="M 44.390625 34.1875 
Q 47.5625 33.109375 50.5625 29.59375 
Q 53.5625 26.078125 56.59375 19.921875 
L 66.609375 0 
L 56 0 
L 46.6875 18.703125 
Q 43.0625 26.03125 39.671875 28.421875 
Q 36.28125 30.8125 30.421875 30.8125 
L 19.671875 30.8125 
L 19.671875 0 
L 9.8125 0 
L 9.8125 72.90625 
L 32.078125 72.90625 
Q 44.578125 72.90625 50.734375 67.671875 
Q 56.890625 62.453125 56.890625 51.90625 
Q 56.890625 45.015625 53.6875 40.46875 
Q 50.484375 35.9375 44.390625 34.1875 
z
M 19.671875 64.796875 
L 19.671875 38.921875 
L 32.078125 38.921875 
Q 39.203125 38.921875 42.84375 42.21875 
Q 46.484375 45.515625 46.484375 51.90625 
Q 46.484375 58.296875 42.84375 61.546875 
Q 39.203125 64.796875 32.078125 64.796875 
z
" id="DejaVuSans-82"/>
      <path d="M 37.109375 75.984375 
L 37.109375 68.5 
L 28.515625 68.5 
Q 23.6875 68.5 21.796875 66.546875 
Q 19.921875 64.59375 19.921875 59.515625 
L 19.921875 54.6875 
L 34.71875 54.6875 
L 34.71875 47.703125 
L 19.921875 47.703125 
L 19.921875 0 
L 10.890625 0 
L 10.890625 47.703125 
L 2.296875 47.703125 
L 2.296875 54.6875 
L 10.890625 54.6875 
L 10.890625 58.5 
Q 10.890625 67.625 15.140625 71.796875 
Q 19.390625 75.984375 28.609375 75.984375 
z
" id="DejaVuSans-102"/>
     </defs>
     <use xlink:href="#DejaVuSans-77"/>
     <use x="86.279297" xlink:href="#DejaVuSans-97"/>
     <use x="147.558594" xlink:href="#DejaVuSans-99"/>
     <use x="202.539062" xlink:href="#DejaVuSans-97"/>
     <use x="263.818359" xlink:href="#DejaVuSans-117"/>
     <use x="327.197266" xlink:href="#DejaVuSans-32"/>
     <use x="358.984375" xlink:href="#DejaVuSans-114"/>
     <use x="397.847656" xlink:href="#DejaVuSans-111"/>
     <use x="459.029297" xlink:href="#DejaVuSans-97"/>
     <use x="520.308594" xlink:href="#DejaVuSans-100"/>
     <use x="583.785156" xlink:href="#DejaVuSans-115"/>
     <use x="635.884766" xlink:href="#DejaVuSans-105"/>
     <use x="663.667969" xlink:href="#DejaVuSans-100"/>
     <use x="727.144531" xlink:href="#DejaVuSans-101"/>
     <use x="788.667969" xlink:href="#DejaVuSans-32"/>
     <use x="820.455078" xlink:href="#DejaVuSans-50"/>
     <use x="884.078125" xlink:href="#DejaVuSans-48"/>
     <use x="947.701172" xlink:href="#DejaVuSans-50"/>
     <use x="1011.324219" xlink:href="#DejaVuSans-48"/>
     <use x="1074.947266" xlink:href="#DejaVuSans-45"/>
     <use x="1111.03125" xlink:href="#DejaVuSans-50"/>
     <use x="1174.654297" xlink:href="#DejaVuSans-48"/>
     <use x="1238.277344" xlink:href="#DejaVuSans-50"/>
     <use x="1301.900391" xlink:href="#DejaVuSans-49"/>
     <use x="1365.523438" xlink:href="#DejaVuSans-32"/>
     <use x="1397.310547" xlink:href="#DejaVuSans-124"/>
     <use x="1431.001953" xlink:href="#DejaVuSans-32"/>
     <use x="1462.789062" xlink:href="#DejaVuSans-70"/>
     <use x="1516.683594" xlink:href="#DejaVuSans-111"/>
     <use x="1577.865234" xlink:href="#DejaVuSans-114"/>
     <use x="1616.728516" xlink:href="#DejaVuSans-101"/>
     <use x="1678.251953" xlink:href="#DejaVuSans-99"/>
     <use x="1733.232422" xlink:href="#DejaVuSans-97"/>
     <use x="1794.511719" xlink:href="#DejaVuSans-115"/>
     <use x="1846.611328" xlink:href="#DejaVuSans-116"/>
     <use x="1885.820312" xlink:href="#DejaVuSans-32"/>
     <use x="1917.607422" xlink:href="#DejaVuSans-118"/>
     <use x="1976.787109" xlink:href="#DejaVuSans-115"/>
     <use x="2028.886719" xlink:href="#DejaVuSans-32"/>
     <use x="2060.673828" xlink:href="#DejaVuSans-77"/>
     <use x="2146.953125" xlink:href="#DejaVuSans-111"/>
     <use x="2208.134766" xlink:href="#DejaVuSans-110"/>
     <use x="2271.513672" xlink:href="#DejaVuSans-105"/>
     <use x="2299.296875" xlink:href="#DejaVuSans-116"/>
     <use x="2338.505859" xlink:href="#DejaVuSans-111"/>
     <use x="2399.6875" xlink:href="#DejaVuSans-114"/>
     <use x="2438.550781" xlink:href="#DejaVuSans-101"/>
     <use x="2500.074219" xlink:href="#DejaVuSans-100"/>
     <use x="2563.550781" xlink:href="#DejaVuSans-32"/>
     <use x="2595.337891" xlink:href="#DejaVuSans-124"/>
     <use x="2629.029297" xlink:href="#DejaVuSans-32"/>
     <use x="2660.816406" xlink:href="#DejaVuSans-82"/>
     <use x="2728.048828" xlink:href="#DejaVuSans-97"/>
     <use x="2789.328125" xlink:href="#DejaVuSans-110"/>
     <use x="2852.707031" xlink:href="#DejaVuSans-100"/>
     <use x="2916.183594" xlink:href="#DejaVuSans-111"/>
     <use x="2977.365234" xlink:href="#DejaVuSans-109"/>
     <use x="3074.777344" xlink:href="#DejaVuSans-32"/>
     <use x="3106.564453" xlink:href="#DejaVuSans-102"/>
     <use x="3141.769531" xlink:href="#DejaVuSans-111"/>
     <use x="3202.951172" xlink:href="#DejaVuSans-114"/>
     <use x="3241.814453" xlink:href="#DejaVuSans-101"/>
     <use x="3303.337891" xlink:href="#DejaVuSans-115"/>
     <use x="3355.4375" xlink:href="#DejaVuSans-116"/>
    </g>
   </g>
   <g id="legend_1">
    <g id="patch_7">
     <path d="M 116.4 114.615 
L 286.636875 114.615 
Q 289.036875 114.615 289.036875 112.215 
L 289.036875 77.52 
Q 289.036875 75.12 286.636875 75.12 
L 116.4 75.12 
Q 114 75.12 114 77.52 
L 114 112.215 
Q 114 114.615 116.4 114.615 
z
" style="fill:#ffffff;opacity:0.8;stroke:#cccccc;stroke-linejoin:miter;"/>
    </g>
    <g id="line2d_18">
     <path d="M 118.8 84.838125 
L 142.8 84.838125 
" style="fill:none;stroke:#1f77b4;stroke-linecap:square;stroke-width:1.5;"/>
    </g>
    <g id="line2d_19"/>
    <g id="text_19">
     <!-- measured_data_PM10 -->
     <g transform="translate(152.4 89.038125)scale(0.12 -0.12)">
      <defs>
       <path d="M 50.984375 -16.609375 
L 50.984375 -23.578125 
L -0.984375 -23.578125 
L -0.984375 -16.609375 
z
" id="DejaVuSans-95"/>
      </defs>
      <use xlink:href="#DejaVuSans-109"/>
      <use x="97.412109" xlink:href="#DejaVuSans-101"/>
      <use x="158.935547" xlink:href="#DejaVuSans-97"/>
      <use x="220.214844" xlink:href="#DejaVuSans-115"/>
      <use x="272.314453" xlink:href="#DejaVuSans-117"/>
      <use x="335.693359" xlink:href="#DejaVuSans-114"/>
      <use x="374.556641" xlink:href="#DejaVuSans-101"/>
      <use x="436.080078" xlink:href="#DejaVuSans-100"/>
      <use x="499.556641" xlink:href="#DejaVuSans-95"/>
      <use x="549.556641" xlink:href="#DejaVuSans-100"/>
      <use x="613.033203" xlink:href="#DejaVuSans-97"/>
      <use x="674.3125" xlink:href="#DejaVuSans-116"/>
      <use x="713.521484" xlink:href="#DejaVuSans-97"/>
      <use x="774.800781" xlink:href="#DejaVuSans-95"/>
      <use x="824.800781" xlink:href="#DejaVuSans-80"/>
      <use x="885.103516" xlink:href="#DejaVuSans-77"/>
      <use x="971.382812" xlink:href="#DejaVuSans-49"/>
      <use x="1035.005859" xlink:href="#DejaVuSans-48"/>
     </g>
    </g>
    <g id="line2d_20">
     <path d="M 118.8 102.785625 
L 142.8 102.785625 
" style="fill:none;stroke:#ff0000;stroke-dasharray:5.55,2.4;stroke-dashoffset:0;stroke-width:1.5;"/>
    </g>
    <g id="line2d_21"/>
    <g id="text_20">
     <!-- predicted_data_PM10 -->
     <g transform="translate(152.4 106.985625)scale(0.12 -0.12)">
      <defs>
       <path d="M 18.109375 8.203125 
L 18.109375 -20.796875 
L 9.078125 -20.796875 
L 9.078125 54.6875 
L 18.109375 54.6875 
L 18.109375 46.390625 
Q 20.953125 51.265625 25.265625 53.625 
Q 29.59375 56 35.59375 56 
Q 45.5625 56 51.78125 48.09375 
Q 58.015625 40.1875 58.015625 27.296875 
Q 58.015625 14.40625 51.78125 6.484375 
Q 45.5625 -1.421875 35.59375 -1.421875 
Q 29.59375 -1.421875 25.265625 0.953125 
Q 20.953125 3.328125 18.109375 8.203125 
z
M 48.6875 27.296875 
Q 48.6875 37.203125 44.609375 42.84375 
Q 40.53125 48.484375 33.40625 48.484375 
Q 26.265625 48.484375 22.1875 42.84375 
Q 18.109375 37.203125 18.109375 27.296875 
Q 18.109375 17.390625 22.1875 11.75 
Q 26.265625 6.109375 33.40625 6.109375 
Q 40.53125 6.109375 44.609375 11.75 
Q 48.6875 17.390625 48.6875 27.296875 
z
" id="DejaVuSans-112"/>
      </defs>
      <use xlink:href="#DejaVuSans-112"/>
      <use x="63.476562" xlink:href="#DejaVuSans-114"/>
      <use x="102.339844" xlink:href="#DejaVuSans-101"/>
      <use x="163.863281" xlink:href="#DejaVuSans-100"/>
      <use x="227.339844" xlink:href="#DejaVuSans-105"/>
      <use x="255.123047" xlink:href="#DejaVuSans-99"/>
      <use x="310.103516" xlink:href="#DejaVuSans-116"/>
      <use x="349.3125" xlink:href="#DejaVuSans-101"/>
      <use x="410.835938" xlink:href="#DejaVuSans-100"/>
      <use x="474.3125" xlink:href="#DejaVuSans-95"/>
      <use x="524.3125" xlink:href="#DejaVuSans-100"/>
      <use x="587.789062" xlink:href="#DejaVuSans-97"/>
      <use x="649.068359" xlink:href="#DejaVuSans-116"/>
      <use x="688.277344" xlink:href="#DejaVuSans-97"/>
      <use x="749.556641" xlink:href="#DejaVuSans-95"/>
      <use x="799.556641" xlink:href="#DejaVuSans-80"/>
      <use x="859.859375" xlink:href="#DejaVuSans-77"/>
      <use x="946.138672" xlink:href="#DejaVuSans-49"/>
      <use x="1009.761719" xlink:href="#DejaVuSans-48"/>
     </g>
    </g>
   </g>
  </g>
 </g>
 <defs>
  <clipPath id="p1dba95e3a0">
   <rect height="391.68" width="669.6" x="108" y="69.12"/>
  </clipPath>
 </defs>
</svg>
