<?xml version="1.0" encoding="utf-8" standalone="no"?>
<!DOCTYPE svg PUBLIC "-//W3C//DTD SVG 1.1//EN"
  "http://www.w3.org/Graphics/SVG/1.1/DTD/svg11.dtd">
<!-- Created with matplotlib (https://matplotlib.org/) -->
<svg height="576pt" version="1.1" viewBox="0 0 864 576" width="864pt" xmlns="http://www.w3.org/2000/svg" xmlns:xlink="http://www.w3.org/1999/xlink">
 <metadata>
  <rdf:RDF xmlns:cc="http://creativecommons.org/ns#" xmlns:dc="http://purl.org/dc/elements/1.1/" xmlns:rdf="http://www.w3.org/1999/02/22-rdf-syntax-ns#">
   <cc:Work>
    <dc:type rdf:resource="http://purl.org/dc/dcmitype/StillImage"/>
    <dc:date>2024-03-08T17:29:08.112198</dc:date>
    <dc:format>image/svg+xml</dc:format>
    <dc:creator>
     <cc:Agent>
      <dc:title>Matplotlib v3.3.4, https://matplotlib.org/</dc:title>
     </cc:Agent>
    </dc:creator>
   </cc:Work>
  </rdf:RDF>
 </metadata>
 <defs>
  <style type="text/css">*{stroke-linecap:butt;stroke-linejoin:round;}</style>
 </defs>
 <g id="figure_1">
  <g id="patch_1">
   <path d="M 0 576 
L 864 576 
L 864 0 
L 0 0 
z
" style="fill:#ffffff;"/>
  </g>
  <g id="axes_1">
   <g id="patch_2">
    <path d="M 108 460.8 
L 777.6 460.8 
L 777.6 69.12 
L 108 69.12 
z
" style="fill:#ffffff;"/>
   </g>
   <g id="matplotlib.axis_1">
    <g id="xtick_1">
     <g id="line2d_1">
      <defs>
       <path d="M 0 0 
L 0 3.5 
" id="m315dcbef1c" style="stroke:#000000;stroke-width:0.8;"/>
      </defs>
      <g>
       <use style="stroke:#000000;stroke-width:0.8;" x="136.761736" xlink:href="#m315dcbef1c" y="460.8"/>
      </g>
     </g>
     <g id="text_1">
      <!-- 2020-01 -->
      <g transform="translate(92.091951 500.766215)rotate(-30)scale(0.12 -0.12)">
       <defs>
        <path d="M 19.1875 8.296875 
L 53.609375 8.296875 
L 53.609375 0 
L 7.328125 0 
L 7.328125 8.296875 
Q 12.9375 14.109375 22.625 23.890625 
Q 32.328125 33.6875 34.8125 36.53125 
Q 39.546875 41.84375 41.421875 45.53125 
Q 43.3125 49.21875 43.3125 52.78125 
Q 43.3125 58.59375 39.234375 62.25 
Q 35.15625 65.921875 28.609375 65.921875 
Q 23.96875 65.921875 18.8125 64.3125 
Q 13.671875 62.703125 7.8125 59.421875 
L 7.8125 69.390625 
Q 13.765625 71.78125 18.9375 73 
Q 24.125 74.21875 28.421875 74.21875 
Q 39.75 74.21875 46.484375 68.546875 
Q 53.21875 62.890625 53.21875 53.421875 
Q 53.21875 48.921875 51.53125 44.890625 
Q 49.859375 40.875 45.40625 35.40625 
Q 44.1875 33.984375 37.640625 27.21875 
Q 31.109375 20.453125 19.1875 8.296875 
z
" id="DejaVuSans-50"/>
        <path d="M 31.78125 66.40625 
Q 24.171875 66.40625 20.328125 58.90625 
Q 16.5 51.421875 16.5 36.375 
Q 16.5 21.390625 20.328125 13.890625 
Q 24.171875 6.390625 31.78125 6.390625 
Q 39.453125 6.390625 43.28125 13.890625 
Q 47.125 21.390625 47.125 36.375 
Q 47.125 51.421875 43.28125 58.90625 
Q 39.453125 66.40625 31.78125 66.40625 
z
M 31.78125 74.21875 
Q 44.046875 74.21875 50.515625 64.515625 
Q 56.984375 54.828125 56.984375 36.375 
Q 56.984375 17.96875 50.515625 8.265625 
Q 44.046875 -1.421875 31.78125 -1.421875 
Q 19.53125 -1.421875 13.0625 8.265625 
Q 6.59375 17.96875 6.59375 36.375 
Q 6.59375 54.828125 13.0625 64.515625 
Q 19.53125 74.21875 31.78125 74.21875 
z
" id="DejaVuSans-48"/>
        <path d="M 4.890625 31.390625 
L 31.203125 31.390625 
L 31.203125 23.390625 
L 4.890625 23.390625 
z
" id="DejaVuSans-45"/>
        <path d="M 12.40625 8.296875 
L 28.515625 8.296875 
L 28.515625 63.921875 
L 10.984375 60.40625 
L 10.984375 69.390625 
L 28.421875 72.90625 
L 38.28125 72.90625 
L 38.28125 8.296875 
L 54.390625 8.296875 
L 54.390625 0 
L 12.40625 0 
z
" id="DejaVuSans-49"/>
       </defs>
       <use xlink:href="#DejaVuSans-50"/>
       <use x="63.623047" xlink:href="#DejaVuSans-48"/>
       <use x="127.246094" xlink:href="#DejaVuSans-50"/>
       <use x="190.869141" xlink:href="#DejaVuSans-48"/>
       <use x="254.492188" xlink:href="#DejaVuSans-45"/>
       <use x="290.576172" xlink:href="#DejaVuSans-48"/>
       <use x="354.199219" xlink:href="#DejaVuSans-49"/>
      </g>
     </g>
    </g>
    <g id="xtick_2">
     <g id="line2d_2">
      <g>
       <use style="stroke:#000000;stroke-width:0.8;" x="212.957309" xlink:href="#m315dcbef1c" y="460.8"/>
      </g>
     </g>
     <g id="text_2">
      <!-- 2020-04 -->
      <g transform="translate(168.287524 500.766215)rotate(-30)scale(0.12 -0.12)">
       <defs>
        <path d="M 37.796875 64.3125 
L 12.890625 25.390625 
L 37.796875 25.390625 
z
M 35.203125 72.90625 
L 47.609375 72.90625 
L 47.609375 25.390625 
L 58.015625 25.390625 
L 58.015625 17.1875 
L 47.609375 17.1875 
L 47.609375 0 
L 37.796875 0 
L 37.796875 17.1875 
L 4.890625 17.1875 
L 4.890625 26.703125 
z
" id="DejaVuSans-52"/>
       </defs>
       <use xlink:href="#DejaVuSans-50"/>
       <use x="63.623047" xlink:href="#DejaVuSans-48"/>
       <use x="127.246094" xlink:href="#DejaVuSans-50"/>
       <use x="190.869141" xlink:href="#DejaVuSans-48"/>
       <use x="254.492188" xlink:href="#DejaVuSans-45"/>
       <use x="290.576172" xlink:href="#DejaVuSans-48"/>
       <use x="354.199219" xlink:href="#DejaVuSans-52"/>
      </g>
     </g>
    </g>
    <g id="xtick_3">
     <g id="line2d_3">
      <g>
       <use style="stroke:#000000;stroke-width:0.8;" x="289.152882" xlink:href="#m315dcbef1c" y="460.8"/>
      </g>
     </g>
     <g id="text_3">
      <!-- 2020-07 -->
      <g transform="translate(244.483097 500.766215)rotate(-30)scale(0.12 -0.12)">
       <defs>
        <path d="M 8.203125 72.90625 
L 55.078125 72.90625 
L 55.078125 68.703125 
L 28.609375 0 
L 18.3125 0 
L 43.21875 64.59375 
L 8.203125 64.59375 
z
" id="DejaVuSans-55"/>
       </defs>
       <use xlink:href="#DejaVuSans-50"/>
       <use x="63.623047" xlink:href="#DejaVuSans-48"/>
       <use x="127.246094" xlink:href="#DejaVuSans-50"/>
       <use x="190.869141" xlink:href="#DejaVuSans-48"/>
       <use x="254.492188" xlink:href="#DejaVuSans-45"/>
       <use x="290.576172" xlink:href="#DejaVuSans-48"/>
       <use x="354.199219" xlink:href="#DejaVuSans-55"/>
      </g>
     </g>
    </g>
    <g id="xtick_4">
     <g id="line2d_4">
      <g>
       <use style="stroke:#000000;stroke-width:0.8;" x="366.18577" xlink:href="#m315dcbef1c" y="460.8"/>
      </g>
     </g>
     <g id="text_4">
      <!-- 2020-10 -->
      <g transform="translate(321.515985 500.766215)rotate(-30)scale(0.12 -0.12)">
       <use xlink:href="#DejaVuSans-50"/>
       <use x="63.623047" xlink:href="#DejaVuSans-48"/>
       <use x="127.246094" xlink:href="#DejaVuSans-50"/>
       <use x="190.869141" xlink:href="#DejaVuSans-48"/>
       <use x="254.492188" xlink:href="#DejaVuSans-45"/>
       <use x="290.576172" xlink:href="#DejaVuSans-49"/>
       <use x="354.199219" xlink:href="#DejaVuSans-48"/>
      </g>
     </g>
    </g>
    <g id="xtick_5">
     <g id="line2d_5">
      <g>
       <use style="stroke:#000000;stroke-width:0.8;" x="443.218657" xlink:href="#m315dcbef1c" y="460.8"/>
      </g>
     </g>
     <g id="text_5">
      <!-- 2021-01 -->
      <g transform="translate(398.548872 500.766215)rotate(-30)scale(0.12 -0.12)">
       <use xlink:href="#DejaVuSans-50"/>
       <use x="63.623047" xlink:href="#DejaVuSans-48"/>
       <use x="127.246094" xlink:href="#DejaVuSans-50"/>
       <use x="190.869141" xlink:href="#DejaVuSans-49"/>
       <use x="254.492188" xlink:href="#DejaVuSans-45"/>
       <use x="290.576172" xlink:href="#DejaVuSans-48"/>
       <use x="354.199219" xlink:href="#DejaVuSans-49"/>
      </g>
     </g>
    </g>
    <g id="xtick_6">
     <g id="line2d_6">
      <g>
       <use style="stroke:#000000;stroke-width:0.8;" x="518.576916" xlink:href="#m315dcbef1c" y="460.8"/>
      </g>
     </g>
     <g id="text_6">
      <!-- 2021-04 -->
      <g transform="translate(473.907131 500.766215)rotate(-30)scale(0.12 -0.12)">
       <use xlink:href="#DejaVuSans-50"/>
       <use x="63.623047" xlink:href="#DejaVuSans-48"/>
       <use x="127.246094" xlink:href="#DejaVuSans-50"/>
       <use x="190.869141" xlink:href="#DejaVuSans-49"/>
       <use x="254.492188" xlink:href="#DejaVuSans-45"/>
       <use x="290.576172" xlink:href="#DejaVuSans-48"/>
       <use x="354.199219" xlink:href="#DejaVuSans-52"/>
      </g>
     </g>
    </g>
    <g id="xtick_7">
     <g id="line2d_7">
      <g>
       <use style="stroke:#000000;stroke-width:0.8;" x="594.77249" xlink:href="#m315dcbef1c" y="460.8"/>
      </g>
     </g>
     <g id="text_7">
      <!-- 2021-07 -->
      <g transform="translate(550.102705 500.766215)rotate(-30)scale(0.12 -0.12)">
       <use xlink:href="#DejaVuSans-50"/>
       <use x="63.623047" xlink:href="#DejaVuSans-48"/>
       <use x="127.246094" xlink:href="#DejaVuSans-50"/>
       <use x="190.869141" xlink:href="#DejaVuSans-49"/>
       <use x="254.492188" xlink:href="#DejaVuSans-45"/>
       <use x="290.576172" xlink:href="#DejaVuSans-48"/>
       <use x="354.199219" xlink:href="#DejaVuSans-55"/>
      </g>
     </g>
    </g>
    <g id="xtick_8">
     <g id="line2d_8">
      <g>
       <use style="stroke:#000000;stroke-width:0.8;" x="671.805377" xlink:href="#m315dcbef1c" y="460.8"/>
      </g>
     </g>
     <g id="text_8">
      <!-- 2021-10 -->
      <g transform="translate(627.135592 500.766215)rotate(-30)scale(0.12 -0.12)">
       <use xlink:href="#DejaVuSans-50"/>
       <use x="63.623047" xlink:href="#DejaVuSans-48"/>
       <use x="127.246094" xlink:href="#DejaVuSans-50"/>
       <use x="190.869141" xlink:href="#DejaVuSans-49"/>
       <use x="254.492188" xlink:href="#DejaVuSans-45"/>
       <use x="290.576172" xlink:href="#DejaVuSans-49"/>
       <use x="354.199219" xlink:href="#DejaVuSans-48"/>
      </g>
     </g>
    </g>
    <g id="xtick_9">
     <g id="line2d_9">
      <g>
       <use style="stroke:#000000;stroke-width:0.8;" x="748.838264" xlink:href="#m315dcbef1c" y="460.8"/>
      </g>
     </g>
     <g id="text_9">
      <!-- 2022-01 -->
      <g transform="translate(704.168479 500.766215)rotate(-30)scale(0.12 -0.12)">
       <use xlink:href="#DejaVuSans-50"/>
       <use x="63.623047" xlink:href="#DejaVuSans-48"/>
       <use x="127.246094" xlink:href="#DejaVuSans-50"/>
       <use x="190.869141" xlink:href="#DejaVuSans-50"/>
       <use x="254.492188" xlink:href="#DejaVuSans-45"/>
       <use x="290.576172" xlink:href="#DejaVuSans-48"/>
       <use x="354.199219" xlink:href="#DejaVuSans-49"/>
      </g>
     </g>
    </g>
    <g id="text_10">
     <!-- Date -->
     <g transform="translate(424.873828 518.325146)scale(0.15 -0.15)">
      <defs>
       <path d="M 19.671875 64.796875 
L 19.671875 8.109375 
L 31.59375 8.109375 
Q 46.6875 8.109375 53.6875 14.9375 
Q 60.6875 21.78125 60.6875 36.53125 
Q 60.6875 51.171875 53.6875 57.984375 
Q 46.6875 64.796875 31.59375 64.796875 
z
M 9.8125 72.90625 
L 30.078125 72.90625 
Q 51.265625 72.90625 61.171875 64.09375 
Q 71.09375 55.28125 71.09375 36.53125 
Q 71.09375 17.671875 61.125 8.828125 
Q 51.171875 0 30.078125 0 
L 9.8125 0 
z
" id="DejaVuSans-68"/>
       <path d="M 34.28125 27.484375 
Q 23.390625 27.484375 19.1875 25 
Q 14.984375 22.515625 14.984375 16.5 
Q 14.984375 11.71875 18.140625 8.90625 
Q 21.296875 6.109375 26.703125 6.109375 
Q 34.1875 6.109375 38.703125 11.40625 
Q 43.21875 16.703125 43.21875 25.484375 
L 43.21875 27.484375 
z
M 52.203125 31.203125 
L 52.203125 0 
L 43.21875 0 
L 43.21875 8.296875 
Q 40.140625 3.328125 35.546875 0.953125 
Q 30.953125 -1.421875 24.3125 -1.421875 
Q 15.921875 -1.421875 10.953125 3.296875 
Q 6 8.015625 6 15.921875 
Q 6 25.140625 12.171875 29.828125 
Q 18.359375 34.515625 30.609375 34.515625 
L 43.21875 34.515625 
L 43.21875 35.40625 
Q 43.21875 41.609375 39.140625 45 
Q 35.0625 48.390625 27.6875 48.390625 
Q 23 48.390625 18.546875 47.265625 
Q 14.109375 46.140625 10.015625 43.890625 
L 10.015625 52.203125 
Q 14.9375 54.109375 19.578125 55.046875 
Q 24.21875 56 28.609375 56 
Q 40.484375 56 46.34375 49.84375 
Q 52.203125 43.703125 52.203125 31.203125 
z
" id="DejaVuSans-97"/>
       <path d="M 18.3125 70.21875 
L 18.3125 54.6875 
L 36.8125 54.6875 
L 36.8125 47.703125 
L 18.3125 47.703125 
L 18.3125 18.015625 
Q 18.3125 11.328125 20.140625 9.421875 
Q 21.96875 7.515625 27.59375 7.515625 
L 36.8125 7.515625 
L 36.8125 0 
L 27.59375 0 
Q 17.1875 0 13.234375 3.875 
Q 9.28125 7.765625 9.28125 18.015625 
L 9.28125 47.703125 
L 2.6875 47.703125 
L 2.6875 54.6875 
L 9.28125 54.6875 
L 9.28125 70.21875 
z
" id="DejaVuSans-116"/>
       <path d="M 56.203125 29.59375 
L 56.203125 25.203125 
L 14.890625 25.203125 
Q 15.484375 15.921875 20.484375 11.0625 
Q 25.484375 6.203125 34.421875 6.203125 
Q 39.59375 6.203125 44.453125 7.46875 
Q 49.3125 8.734375 54.109375 11.28125 
L 54.109375 2.78125 
Q 49.265625 0.734375 44.1875 -0.34375 
Q 39.109375 -1.421875 33.890625 -1.421875 
Q 20.796875 -1.421875 13.15625 6.1875 
Q 5.515625 13.8125 5.515625 26.8125 
Q 5.515625 40.234375 12.765625 48.109375 
Q 20.015625 56 32.328125 56 
Q 43.359375 56 49.78125 48.890625 
Q 56.203125 41.796875 56.203125 29.59375 
z
M 47.21875 32.234375 
Q 47.125 39.59375 43.09375 43.984375 
Q 39.0625 48.390625 32.421875 48.390625 
Q 24.90625 48.390625 20.390625 44.140625 
Q 15.875 39.890625 15.1875 32.171875 
z
" id="DejaVuSans-101"/>
      </defs>
      <use xlink:href="#DejaVuSans-68"/>
      <use x="77.001953" xlink:href="#DejaVuSans-97"/>
      <use x="138.28125" xlink:href="#DejaVuSans-116"/>
      <use x="177.490234" xlink:href="#DejaVuSans-101"/>
     </g>
    </g>
   </g>
   <g id="matplotlib.axis_2">
    <g id="ytick_1">
     <g id="line2d_10">
      <defs>
       <path d="M 0 0 
L -3.5 0 
" id="m10ad7fbe05" style="stroke:#000000;stroke-width:0.8;"/>
      </defs>
      <g>
       <use style="stroke:#000000;stroke-width:0.8;" x="108" xlink:href="#m10ad7fbe05" y="410.299082"/>
      </g>
     </g>
     <g id="text_11">
      <!-- 20 -->
      <g transform="translate(85.73 414.858144)scale(0.12 -0.12)">
       <use xlink:href="#DejaVuSans-50"/>
       <use x="63.623047" xlink:href="#DejaVuSans-48"/>
      </g>
     </g>
    </g>
    <g id="ytick_2">
     <g id="line2d_11">
      <g>
       <use style="stroke:#000000;stroke-width:0.8;" x="108" xlink:href="#m10ad7fbe05" y="352.17058"/>
      </g>
     </g>
     <g id="text_12">
      <!-- 40 -->
      <g transform="translate(85.73 356.729643)scale(0.12 -0.12)">
       <use xlink:href="#DejaVuSans-52"/>
       <use x="63.623047" xlink:href="#DejaVuSans-48"/>
      </g>
     </g>
    </g>
    <g id="ytick_3">
     <g id="line2d_12">
      <g>
       <use style="stroke:#000000;stroke-width:0.8;" x="108" xlink:href="#m10ad7fbe05" y="294.042079"/>
      </g>
     </g>
     <g id="text_13">
      <!-- 60 -->
      <g transform="translate(85.73 298.601141)scale(0.12 -0.12)">
       <defs>
        <path d="M 33.015625 40.375 
Q 26.375 40.375 22.484375 35.828125 
Q 18.609375 31.296875 18.609375 23.390625 
Q 18.609375 15.53125 22.484375 10.953125 
Q 26.375 6.390625 33.015625 6.390625 
Q 39.65625 6.390625 43.53125 10.953125 
Q 47.40625 15.53125 47.40625 23.390625 
Q 47.40625 31.296875 43.53125 35.828125 
Q 39.65625 40.375 33.015625 40.375 
z
M 52.59375 71.296875 
L 52.59375 62.3125 
Q 48.875 64.0625 45.09375 64.984375 
Q 41.3125 65.921875 37.59375 65.921875 
Q 27.828125 65.921875 22.671875 59.328125 
Q 17.53125 52.734375 16.796875 39.40625 
Q 19.671875 43.65625 24.015625 45.921875 
Q 28.375 48.1875 33.59375 48.1875 
Q 44.578125 48.1875 50.953125 41.515625 
Q 57.328125 34.859375 57.328125 23.390625 
Q 57.328125 12.15625 50.6875 5.359375 
Q 44.046875 -1.421875 33.015625 -1.421875 
Q 20.359375 -1.421875 13.671875 8.265625 
Q 6.984375 17.96875 6.984375 36.375 
Q 6.984375 53.65625 15.1875 63.9375 
Q 23.390625 74.21875 37.203125 74.21875 
Q 40.921875 74.21875 44.703125 73.484375 
Q 48.484375 72.75 52.59375 71.296875 
z
" id="DejaVuSans-54"/>
       </defs>
       <use xlink:href="#DejaVuSans-54"/>
       <use x="63.623047" xlink:href="#DejaVuSans-48"/>
      </g>
     </g>
    </g>
    <g id="ytick_4">
     <g id="line2d_13">
      <g>
       <use style="stroke:#000000;stroke-width:0.8;" x="108" xlink:href="#m10ad7fbe05" y="235.913577"/>
      </g>
     </g>
     <g id="text_14">
      <!-- 80 -->
      <g transform="translate(85.73 240.47264)scale(0.12 -0.12)">
       <defs>
        <path d="M 31.78125 34.625 
Q 24.75 34.625 20.71875 30.859375 
Q 16.703125 27.09375 16.703125 20.515625 
Q 16.703125 13.921875 20.71875 10.15625 
Q 24.75 6.390625 31.78125 6.390625 
Q 38.8125 6.390625 42.859375 10.171875 
Q 46.921875 13.96875 46.921875 20.515625 
Q 46.921875 27.09375 42.890625 30.859375 
Q 38.875 34.625 31.78125 34.625 
z
M 21.921875 38.8125 
Q 15.578125 40.375 12.03125 44.71875 
Q 8.5 49.078125 8.5 55.328125 
Q 8.5 64.0625 14.71875 69.140625 
Q 20.953125 74.21875 31.78125 74.21875 
Q 42.671875 74.21875 48.875 69.140625 
Q 55.078125 64.0625 55.078125 55.328125 
Q 55.078125 49.078125 51.53125 44.71875 
Q 48 40.375 41.703125 38.8125 
Q 48.828125 37.15625 52.796875 32.3125 
Q 56.78125 27.484375 56.78125 20.515625 
Q 56.78125 9.90625 50.3125 4.234375 
Q 43.84375 -1.421875 31.78125 -1.421875 
Q 19.734375 -1.421875 13.25 4.234375 
Q 6.78125 9.90625 6.78125 20.515625 
Q 6.78125 27.484375 10.78125 32.3125 
Q 14.796875 37.15625 21.921875 38.8125 
z
M 18.3125 54.390625 
Q 18.3125 48.734375 21.84375 45.5625 
Q 25.390625 42.390625 31.78125 42.390625 
Q 38.140625 42.390625 41.71875 45.5625 
Q 45.3125 48.734375 45.3125 54.390625 
Q 45.3125 60.0625 41.71875 63.234375 
Q 38.140625 66.40625 31.78125 66.40625 
Q 25.390625 66.40625 21.84375 63.234375 
Q 18.3125 60.0625 18.3125 54.390625 
z
" id="DejaVuSans-56"/>
       </defs>
       <use xlink:href="#DejaVuSans-56"/>
       <use x="63.623047" xlink:href="#DejaVuSans-48"/>
      </g>
     </g>
    </g>
    <g id="ytick_5">
     <g id="line2d_14">
      <g>
       <use style="stroke:#000000;stroke-width:0.8;" x="108" xlink:href="#m10ad7fbe05" y="177.785076"/>
      </g>
     </g>
     <g id="text_15">
      <!-- 100 -->
      <g transform="translate(78.095 182.344139)scale(0.12 -0.12)">
       <use xlink:href="#DejaVuSans-49"/>
       <use x="63.623047" xlink:href="#DejaVuSans-48"/>
       <use x="127.246094" xlink:href="#DejaVuSans-48"/>
      </g>
     </g>
    </g>
    <g id="ytick_6">
     <g id="line2d_15">
      <g>
       <use style="stroke:#000000;stroke-width:0.8;" x="108" xlink:href="#m10ad7fbe05" y="119.656575"/>
      </g>
     </g>
     <g id="text_16">
      <!-- 120 -->
      <g transform="translate(78.095 124.215637)scale(0.12 -0.12)">
       <use xlink:href="#DejaVuSans-49"/>
       <use x="63.623047" xlink:href="#DejaVuSans-50"/>
       <use x="127.246094" xlink:href="#DejaVuSans-48"/>
      </g>
     </g>
    </g>
    <g id="text_17">
     <!-- PM10(micro-gram/m3) -->
     <g transform="translate(70.975469 349.562344)rotate(-90)scale(0.15 -0.15)">
      <defs>
       <path d="M 19.671875 64.796875 
L 19.671875 37.40625 
L 32.078125 37.40625 
Q 38.96875 37.40625 42.71875 40.96875 
Q 46.484375 44.53125 46.484375 51.125 
Q 46.484375 57.671875 42.71875 61.234375 
Q 38.96875 64.796875 32.078125 64.796875 
z
M 9.8125 72.90625 
L 32.078125 72.90625 
Q 44.34375 72.90625 50.609375 67.359375 
Q 56.890625 61.8125 56.890625 51.125 
Q 56.890625 40.328125 50.609375 34.8125 
Q 44.34375 29.296875 32.078125 29.296875 
L 19.671875 29.296875 
L 19.671875 0 
L 9.8125 0 
z
" id="DejaVuSans-80"/>
       <path d="M 9.8125 72.90625 
L 24.515625 72.90625 
L 43.109375 23.296875 
L 61.8125 72.90625 
L 76.515625 72.90625 
L 76.515625 0 
L 66.890625 0 
L 66.890625 64.015625 
L 48.09375 14.015625 
L 38.1875 14.015625 
L 19.390625 64.015625 
L 19.390625 0 
L 9.8125 0 
z
" id="DejaVuSans-77"/>
       <path d="M 31 75.875 
Q 24.46875 64.65625 21.28125 53.65625 
Q 18.109375 42.671875 18.109375 31.390625 
Q 18.109375 20.125 21.3125 9.0625 
Q 24.515625 -2 31 -13.1875 
L 23.1875 -13.1875 
Q 15.875 -1.703125 12.234375 9.375 
Q 8.59375 20.453125 8.59375 31.390625 
Q 8.59375 42.28125 12.203125 53.3125 
Q 15.828125 64.359375 23.1875 75.875 
z
" id="DejaVuSans-40"/>
       <path d="M 52 44.1875 
Q 55.375 50.25 60.0625 53.125 
Q 64.75 56 71.09375 56 
Q 79.640625 56 84.28125 50.015625 
Q 88.921875 44.046875 88.921875 33.015625 
L 88.921875 0 
L 79.890625 0 
L 79.890625 32.71875 
Q 79.890625 40.578125 77.09375 44.375 
Q 74.3125 48.1875 68.609375 48.1875 
Q 61.625 48.1875 57.5625 43.546875 
Q 53.515625 38.921875 53.515625 30.90625 
L 53.515625 0 
L 44.484375 0 
L 44.484375 32.71875 
Q 44.484375 40.625 41.703125 44.40625 
Q 38.921875 48.1875 33.109375 48.1875 
Q 26.21875 48.1875 22.15625 43.53125 
Q 18.109375 38.875 18.109375 30.90625 
L 18.109375 0 
L 9.078125 0 
L 9.078125 54.6875 
L 18.109375 54.6875 
L 18.109375 46.1875 
Q 21.1875 51.21875 25.484375 53.609375 
Q 29.78125 56 35.6875 56 
Q 41.65625 56 45.828125 52.96875 
Q 50 49.953125 52 44.1875 
z
" id="DejaVuSans-109"/>
       <path d="M 9.421875 54.6875 
L 18.40625 54.6875 
L 18.40625 0 
L 9.421875 0 
z
M 9.421875 75.984375 
L 18.40625 75.984375 
L 18.40625 64.59375 
L 9.421875 64.59375 
z
" id="DejaVuSans-105"/>
       <path d="M 48.78125 52.59375 
L 48.78125 44.1875 
Q 44.96875 46.296875 41.140625 47.34375 
Q 37.3125 48.390625 33.40625 48.390625 
Q 24.65625 48.390625 19.8125 42.84375 
Q 14.984375 37.3125 14.984375 27.296875 
Q 14.984375 17.28125 19.8125 11.734375 
Q 24.65625 6.203125 33.40625 6.203125 
Q 37.3125 6.203125 41.140625 7.25 
Q 44.96875 8.296875 48.78125 10.40625 
L 48.78125 2.09375 
Q 45.015625 0.34375 40.984375 -0.53125 
Q 36.96875 -1.421875 32.421875 -1.421875 
Q 20.0625 -1.421875 12.78125 6.34375 
Q 5.515625 14.109375 5.515625 27.296875 
Q 5.515625 40.671875 12.859375 48.328125 
Q 20.21875 56 33.015625 56 
Q 37.15625 56 41.109375 55.140625 
Q 45.0625 54.296875 48.78125 52.59375 
z
" id="DejaVuSans-99"/>
       <path d="M 41.109375 46.296875 
Q 39.59375 47.171875 37.8125 47.578125 
Q 36.03125 48 33.890625 48 
Q 26.265625 48 22.1875 43.046875 
Q 18.109375 38.09375 18.109375 28.8125 
L 18.109375 0 
L 9.078125 0 
L 9.078125 54.6875 
L 18.109375 54.6875 
L 18.109375 46.1875 
Q 20.953125 51.171875 25.484375 53.578125 
Q 30.03125 56 36.53125 56 
Q 37.453125 56 38.578125 55.875 
Q 39.703125 55.765625 41.0625 55.515625 
z
" id="DejaVuSans-114"/>
       <path d="M 30.609375 48.390625 
Q 23.390625 48.390625 19.1875 42.75 
Q 14.984375 37.109375 14.984375 27.296875 
Q 14.984375 17.484375 19.15625 11.84375 
Q 23.34375 6.203125 30.609375 6.203125 
Q 37.796875 6.203125 41.984375 11.859375 
Q 46.1875 17.53125 46.1875 27.296875 
Q 46.1875 37.015625 41.984375 42.703125 
Q 37.796875 48.390625 30.609375 48.390625 
z
M 30.609375 56 
Q 42.328125 56 49.015625 48.375 
Q 55.71875 40.765625 55.71875 27.296875 
Q 55.71875 13.875 49.015625 6.21875 
Q 42.328125 -1.421875 30.609375 -1.421875 
Q 18.84375 -1.421875 12.171875 6.21875 
Q 5.515625 13.875 5.515625 27.296875 
Q 5.515625 40.765625 12.171875 48.375 
Q 18.84375 56 30.609375 56 
z
" id="DejaVuSans-111"/>
       <path d="M 45.40625 27.984375 
Q 45.40625 37.75 41.375 43.109375 
Q 37.359375 48.484375 30.078125 48.484375 
Q 22.859375 48.484375 18.828125 43.109375 
Q 14.796875 37.75 14.796875 27.984375 
Q 14.796875 18.265625 18.828125 12.890625 
Q 22.859375 7.515625 30.078125 7.515625 
Q 37.359375 7.515625 41.375 12.890625 
Q 45.40625 18.265625 45.40625 27.984375 
z
M 54.390625 6.78125 
Q 54.390625 -7.171875 48.1875 -13.984375 
Q 42 -20.796875 29.203125 -20.796875 
Q 24.46875 -20.796875 20.265625 -20.09375 
Q 16.0625 -19.390625 12.109375 -17.921875 
L 12.109375 -9.1875 
Q 16.0625 -11.328125 19.921875 -12.34375 
Q 23.78125 -13.375 27.78125 -13.375 
Q 36.625 -13.375 41.015625 -8.765625 
Q 45.40625 -4.15625 45.40625 5.171875 
L 45.40625 9.625 
Q 42.625 4.78125 38.28125 2.390625 
Q 33.9375 0 27.875 0 
Q 17.828125 0 11.671875 7.65625 
Q 5.515625 15.328125 5.515625 27.984375 
Q 5.515625 40.671875 11.671875 48.328125 
Q 17.828125 56 27.875 56 
Q 33.9375 56 38.28125 53.609375 
Q 42.625 51.21875 45.40625 46.390625 
L 45.40625 54.6875 
L 54.390625 54.6875 
z
" id="DejaVuSans-103"/>
       <path d="M 25.390625 72.90625 
L 33.6875 72.90625 
L 8.296875 -9.28125 
L 0 -9.28125 
z
" id="DejaVuSans-47"/>
       <path d="M 40.578125 39.3125 
Q 47.65625 37.796875 51.625 33 
Q 55.609375 28.21875 55.609375 21.1875 
Q 55.609375 10.40625 48.1875 4.484375 
Q 40.765625 -1.421875 27.09375 -1.421875 
Q 22.515625 -1.421875 17.65625 -0.515625 
Q 12.796875 0.390625 7.625 2.203125 
L 7.625 11.71875 
Q 11.71875 9.328125 16.59375 8.109375 
Q 21.484375 6.890625 26.8125 6.890625 
Q 36.078125 6.890625 40.9375 10.546875 
Q 45.796875 14.203125 45.796875 21.1875 
Q 45.796875 27.640625 41.28125 31.265625 
Q 36.765625 34.90625 28.71875 34.90625 
L 20.21875 34.90625 
L 20.21875 43.015625 
L 29.109375 43.015625 
Q 36.375 43.015625 40.234375 45.921875 
Q 44.09375 48.828125 44.09375 54.296875 
Q 44.09375 59.90625 40.109375 62.90625 
Q 36.140625 65.921875 28.71875 65.921875 
Q 24.65625 65.921875 20.015625 65.03125 
Q 15.375 64.15625 9.8125 62.3125 
L 9.8125 71.09375 
Q 15.4375 72.65625 20.34375 73.4375 
Q 25.25 74.21875 29.59375 74.21875 
Q 40.828125 74.21875 47.359375 69.109375 
Q 53.90625 64.015625 53.90625 55.328125 
Q 53.90625 49.265625 50.4375 45.09375 
Q 46.96875 40.921875 40.578125 39.3125 
z
" id="DejaVuSans-51"/>
       <path d="M 8.015625 75.875 
L 15.828125 75.875 
Q 23.140625 64.359375 26.78125 53.3125 
Q 30.421875 42.28125 30.421875 31.390625 
Q 30.421875 20.453125 26.78125 9.375 
Q 23.140625 -1.703125 15.828125 -13.1875 
L 8.015625 -13.1875 
Q 14.5 -2 17.703125 9.0625 
Q 20.90625 20.125 20.90625 31.390625 
Q 20.90625 42.671875 17.703125 53.65625 
Q 14.5 64.65625 8.015625 75.875 
z
" id="DejaVuSans-41"/>
      </defs>
      <use xlink:href="#DejaVuSans-80"/>
      <use x="60.302734" xlink:href="#DejaVuSans-77"/>
      <use x="146.582031" xlink:href="#DejaVuSans-49"/>
      <use x="210.205078" xlink:href="#DejaVuSans-48"/>
      <use x="273.828125" xlink:href="#DejaVuSans-40"/>
      <use x="312.841797" xlink:href="#DejaVuSans-109"/>
      <use x="410.253906" xlink:href="#DejaVuSans-105"/>
      <use x="438.037109" xlink:href="#DejaVuSans-99"/>
      <use x="493.017578" xlink:href="#DejaVuSans-114"/>
      <use x="531.880859" xlink:href="#DejaVuSans-111"/>
      <use x="594.9375" xlink:href="#DejaVuSans-45"/>
      <use x="631.021484" xlink:href="#DejaVuSans-103"/>
      <use x="694.498047" xlink:href="#DejaVuSans-114"/>
      <use x="735.611328" xlink:href="#DejaVuSans-97"/>
      <use x="796.890625" xlink:href="#DejaVuSans-109"/>
      <use x="894.302734" xlink:href="#DejaVuSans-47"/>
      <use x="927.994141" xlink:href="#DejaVuSans-109"/>
      <use x="1025.40625" xlink:href="#DejaVuSans-51"/>
      <use x="1089.029297" xlink:href="#DejaVuSans-41"/>
     </g>
    </g>
   </g>
   <g id="line2d_16">
    <path clip-path="url(#p35499a8d18)" d="M 138.436364 293.557675 
L 139.273678 355.68251 
L 140.110992 355.440308 
L 140.948306 315.719166 
L 141.78562 297.190706 
L 142.622934 320.321005 
L 143.460248 320.684309 
L 144.297562 278.662246 
L 145.134876 314.265953 
L 145.97219 294.284281 
L 146.809504 327.950371 
L 147.646818 305.932 
L 148.484132 304.941173 
L 149.321446 330.372392 
L 150.15876 336.306343 
L 150.996074 291.377856 
L 151.833388 343.209103 
L 152.670702 303.972364 
L 154.345329 337.517354 
L 155.182643 360.889855 
L 156.019957 376.754092 
L 156.857271 413.689911 
L 157.694585 420.471569 
L 158.531899 409.088071 
L 159.369213 381.477033 
L 160.206527 367.066009 
L 161.043841 354.944895 
L 161.881155 350.232963 
L 162.718469 335.700838 
L 163.555783 336.427444 
L 164.393097 390.801813 
L 165.230411 392.2287 
L 166.067725 363.432977 
L 166.905039 339.697173 
L 167.742353 418.776155 
L 168.579667 397.704573 
L 169.416981 370.214636 
L 170.254295 348.295347 
L 171.091609 315.961368 
L 171.928923 388.258691 
L 172.766237 392.133925 
L 173.603551 371.062343 
L 174.440865 435.6092 
L 175.278179 386.563277 
L 176.115493 395.261491 
L 176.952807 364.88619 
L 178.627435 370.214636 
L 179.464749 318.625591 
L 180.302063 337.517354 
L 181.139377 307.363194 
L 181.976691 318.383389 
L 182.814005 342.130203 
L 183.651319 369.48803 
L 184.488633 353.416191 
L 185.325947 360.526552 
L 186.163261 343.693507 
L 187.000575 347.621393 
L 187.837889 355.561409 
L 188.675203 392.4642 
L 189.512517 405.45504 
L 190.349831 363.311876 
L 191.187145 287.623723 
L 192.024459 360.889855 
L 192.861773 364.401786 
L 193.699087 363.190775 
L 194.536401 359.799946 
L 195.373715 263.161312 
L 196.211029 239.304407 
L 197.048343 366.702706 
L 197.885657 295.979696 
L 198.722971 283.142985 
L 199.560285 275.414536 
L 200.397599 301.913647 
L 201.234913 352.776085 
L 202.072227 274.544811 
L 202.909541 292.952169 
L 203.746855 334.126525 
L 204.584169 360.647653 
L 205.421483 337.385722 
L 206.258797 343.088002 
L 207.096111 342.603598 
L 207.933425 364.522887 
L 208.770739 352.776085 
L 209.608053 372.878859 
L 210.445367 359.07334 
L 211.282681 362.706371 
L 212.119995 335.095333 
L 212.957309 324.922845 
L 213.794623 370.577939 
L 214.631937 383.535751 
L 215.469251 407.392657 
L 216.306565 399.884392 
L 217.981193 326.254957 
L 218.818507 351.322873 
L 219.655821 331.220099 
L 220.493135 279.025549 
L 221.330449 384.504559 
L 222.167763 351.201772 
L 223.005077 308.332002 
L 223.842391 258.438372 
L 224.679705 326.981563 
L 225.517019 354.713702 
L 226.354333 321.774218 
L 227.191647 350.111862 
L 228.028961 371.987115 
L 228.866275 389.348601 
L 229.703589 392.981632 
L 230.540903 380.629326 
L 231.378217 348.65865 
L 232.215531 295.858594 
L 233.052845 158.893313 
L 233.890159 213.146581 
L 234.727473 313.539347 
L 235.564787 306.87879 
L 236.402101 322.743026 
L 237.239415 369.003625 
L 238.076729 368.519221 
L 238.914043 372.878859 
L 240.588671 400.126594 
L 241.425985 392.497228 
L 242.263299 405.212838 
L 243.100613 408.361465 
L 243.937927 408.240364 
L 244.775241 406.181646 
L 245.612555 383.051347 
L 246.449869 334.126525 
L 247.287183 292.346664 
L 248.961811 378.449507 
L 249.799125 395.766956 
L 250.636439 402.064211 
L 251.473753 397.220169 
L 252.311067 399.036684 
L 253.148381 399.466043 
L 253.985695 375.664183 
L 254.823009 361.253159 
L 255.660323 415.022022 
L 256.497637 415.506427 
L 257.334951 402.427514 
L 258.172265 381.234831 
L 259.009579 318.988894 
L 259.846893 325.286148 
L 260.684207 384.262357 
L 261.521521 405.091737 
L 262.358835 402.843469 
L 263.196149 401.822008 
L 264.033463 400.568876 
L 264.870777 403.517423 
L 265.708091 411.223853 
L 266.545405 403.15412 
L 267.382719 409.935778 
L 268.220033 390.559611 
L 269.057347 390.43851 
L 269.89466 384.867862 
L 270.731974 410.541284 
L 271.569288 419.282577 
L 272.406602 421.924782 
L 273.243916 408.845869 
L 274.08123 426.405521 
L 274.918544 409.209172 
L 276.593172 416.959639 
L 277.430486 417.08074 
L 278.2678 419.866064 
L 279.105114 426.042217 
L 279.942428 426.405521 
L 280.779742 406.302747 
L 281.617056 404.970636 
L 282.45437 406.060545 
L 283.291684 407.877061 
L 284.128998 415.990831 
L 284.966312 415.143123 
L 285.803626 422.530287 
L 286.64094 427.358533 
L 287.478254 429.917451 
L 288.315568 440.089939 
L 289.152882 424.831207 
L 289.990196 413.205507 
L 290.82751 410.420183 
L 291.664824 421.198176 
L 292.502138 413.56881 
L 293.339452 409.209172 
L 294.176766 395.161451 
L 295.01408 388.500894 
L 295.851394 387.410984 
L 296.688708 397.220169 
L 297.526022 418.170649 
L 298.363336 390.196308 
L 299.20065 397.099068 
L 300.037964 398.067876 
L 300.875278 413.458239 
L 301.712592 418.049548 
L 302.549906 421.924782 
L 303.38722 420.59267 
L 304.224534 424.704841 
L 305.061848 422.288085 
L 305.899162 426.647723 
L 306.736476 423.9835 
L 307.57379 411.146789 
L 308.411104 404.122928 
L 309.248418 413.811012 
L 310.923046 420.59267 
L 311.76036 414.900921 
L 312.597674 422.585333 
L 313.434988 423.9835 
L 314.272302 420.263968 
L 315.109616 439.778536 
L 315.94693 442.996364 
L 317.621558 429.675249 
L 318.458872 424.467904 
L 319.296186 416.717437 
L 320.1335 416.233033 
L 320.970814 425.921116 
L 321.808128 418.533953 
L 322.645442 426.647723 
L 323.482756 423.820276 
L 324.32007 417.201841 
L 325.157384 416.717437 
L 325.994698 424.831207 
L 326.832012 427.737632 
L 327.669326 421.440378 
L 328.50664 390.922914 
L 329.343954 401.579806 
L 331.018582 349.748559 
L 331.855896 346.236629 
L 332.69321 392.012824 
L 333.530524 385.836671 
L 334.367838 385.836671 
L 335.205152 386.92658 
L 336.042466 372.515556 
L 336.87978 332.310009 
L 337.717094 338.365061 
L 338.554408 342.240295 
L 339.391722 362.221967 
L 340.229036 285.080602 
L 342.740978 362.343068 
L 343.578292 400.787145 
L 344.415606 400.005493 
L 345.25292 423.014691 
L 346.090234 430.522956 
L 346.927548 414.537618 
L 347.764862 402.911918 
L 348.602176 422.288085 
L 349.43949 408.240364 
L 350.276804 406.423848 
L 351.114118 407.513758 
L 351.951432 427.616531 
L 352.788746 423.9835 
L 353.62606 419.523822 
L 354.463374 419.260559 
L 355.300688 419.987165 
L 356.975316 432.09727 
L 357.81263 389.469702 
L 358.649944 387.932245 
L 359.487258 363.554078 
L 360.324572 353.434243 
L 361.161886 364.765089 
L 362.836514 381.598134 
L 363.673828 421.803681 
L 364.511142 419.018357 
L 365.348456 385.836671 
L 366.18577 361.253159 
L 367.023084 364.643988 
L 367.860398 346.599932 
L 368.697712 357.499026 
L 369.535026 335.821939 
L 370.37234 360.258024 
L 371.209654 350.95957 
L 372.046968 304.820072 
L 372.884282 277.693438 
L 373.721596 295.131988 
L 374.55891 295.495291 
L 375.396224 411.146789 
L 376.233538 366.979508 
L 377.070852 360.647653 
L 377.908166 318.867793 
L 379.582794 329.766887 
L 380.420108 341.392587 
L 381.257422 325.507289 
L 382.094736 325.649451 
L 382.93205 317.41458 
L 383.769364 268.489758 
L 384.606678 234.581466 
L 385.443991 260.618191 
L 386.281305 310.269619 
L 387.118619 323.590734 
L 387.955933 338.970566 
L 388.793247 330.614594 
L 389.630561 291.893852 
L 390.467875 302.034748 
L 391.305189 299.128323 
L 392.142503 229.858525 
L 392.979817 309.421911 
L 393.817131 272.970497 
L 394.654445 325.12819 
L 395.491759 208.181438 
L 396.329073 235.550274 
L 398.003701 215.568602 
L 398.841015 193.528212 
L 399.678329 257.10626 
L 400.515643 285.201703 
L 401.352957 289.803542 
L 402.190271 284.475096 
L 403.027585 320.321005 
L 403.864899 320.321005 
L 404.702213 371.304545 
L 405.539527 377.443842 
L 406.376841 394.192643 
L 407.214155 393.82934 
L 408.051469 385.231165 
L 408.888783 384.746761 
L 410.563411 271.880588 
L 411.400725 313.781549 
L 412.238039 289.440239 
L 413.075353 295.495291 
L 413.912667 317.293479 
L 414.749981 330.13019 
L 415.587295 323.244731 
L 416.424609 293.799877 
L 417.261923 298.280615 
L 418.099237 305.920512 
L 418.936551 304.57787 
L 419.773865 268.73196 
L 420.611179 216.779612 
L 421.448493 179.634619 
L 422.285807 241.605327 
L 423.123121 214.23649 
L 423.960435 200.673173 
L 424.797749 236.519083 
L 425.635063 220.370522 
L 426.472377 346.5107 
L 427.309691 279.509953 
L 428.147005 349.506357 
L 428.984319 315.397985 
L 429.821633 307.484295 
L 430.658947 305.425577 
L 431.496261 286.776016 
L 432.333575 258.559473 
L 433.170889 215.205299 
L 434.008203 202.731891 
L 434.845517 177.906177 
L 435.682831 286.897117 
L 436.520145 255.410846 
L 437.357459 307.968699 
L 438.194773 218.717229 
L 439.032087 309.785215 
L 439.869401 301.043921 
L 440.706715 255.168643 
L 441.544029 308.453103 
L 442.381343 324.882478 
L 443.218657 317.535681 
L 444.055971 260.860393 
L 444.893285 251.414511 
L 445.730599 184.808937 
L 446.567913 263.161312 
L 447.405227 198.00895 
L 448.242541 279.509953 
L 449.079855 303.609061 
L 449.917169 286.291612 
L 450.754483 294.889786 
L 451.591797 243.300741 
L 452.429111 232.76495 
L 453.266425 210.134851 
L 454.103739 255.168643 
L 454.941053 265.946636 
L 455.778367 91.399664 
L 456.615681 125.216692 
L 457.452995 223.319069 
L 458.290309 300.944838 
L 459.127623 223.682372 
L 459.964937 252.746623 
L 460.802251 223.230995 
L 462.476879 309.058608 
L 463.314193 246.328267 
L 464.151507 272.001689 
L 464.988821 253.857593 
L 465.826135 324.922845 
L 466.663449 241.96863 
L 467.500763 339.333869 
L 468.338077 341.998092 
L 469.175391 279.025549 
L 470.012705 287.139319 
L 470.850019 297.069605 
L 471.687333 323.590734 
L 472.524647 311.843932 
L 473.361961 320.926511 
L 474.199275 325.52835 
L 475.036589 310.469699 
L 475.873903 413.932113 
L 476.711217 402.548615 
L 477.548531 381.11373 
L 478.385845 372.031152 
L 480.060473 345.510023 
L 480.897787 342.240295 
L 481.735101 358.588936 
L 482.572415 314.629256 
L 483.409729 321.410915 
L 484.247043 314.265953 
L 485.084357 312.69164 
L 486.758985 334.610929 
L 487.596299 334.610929 
L 488.433613 369.735497 
L 489.270927 377.844002 
L 490.108241 338.24396 
L 490.945555 355.68251 
L 491.782869 358.225632 
L 492.620183 360.163249 
L 493.457497 351.807277 
L 494.294811 300.944838 
L 495.132125 291.86226 
L 495.969439 344.299012 
L 496.806753 351.807277 
L 497.644067 377.117395 
L 498.481381 325.001824 
L 499.318695 341.75589 
L 500.156009 378.707505 
L 500.993322 324.801744 
L 501.830636 342.361396 
L 502.66795 327.82927 
L 503.505264 363.311876 
L 504.342578 338.001758 
L 505.179892 355.924713 
L 506.017206 369.730232 
L 506.85452 391.891723 
L 507.691834 373.484364 
L 508.529148 305.425577 
L 509.366462 283.990692 
L 510.203776 152.838261 
L 511.04109 98.300669 
L 511.878404 196.313536 
L 512.715718 352.776085 
L 513.553032 338.607263 
L 514.390346 351.322873 
L 515.22766 392.376127 
L 516.064974 396.735765 
L 516.902288 399.278887 
L 517.739602 400.8532 
L 518.576916 394.919249 
L 519.41423 395.524754 
L 520.251544 293.07327 
L 521.088858 320.80541 
L 521.926172 301.429243 
L 522.763486 348.126858 
L 523.6008 331.098998 
L 524.438114 377.117395 
L 525.275428 337.275152 
L 526.112742 363.190775 
L 526.950056 380.629326 
L 527.78737 386.199974 
L 528.624684 372.515556 
L 529.461998 377.722901 
L 530.299312 364.88619 
L 531.136626 356.530218 
L 531.97394 144.361188 
L 532.811254 208.239356 
L 533.648568 310.39072 
L 534.485882 298.159514 
L 535.323196 298.643919 
L 536.16051 304.698971 
L 536.997824 369.366929 
L 537.835138 362.343068 
L 538.672452 372.515556 
L 539.509766 404.122928 
L 541.184394 324.075138 
L 543.696336 368.277019 
L 544.53365 362.827472 
L 545.370964 374.574273 
L 547.045592 317.546212 
L 547.882906 352.776085 
L 548.72022 368.034817 
L 550.394848 408.361465 
L 551.232162 403.15412 
L 552.069476 394.798148 
L 552.90679 394.434845 
L 553.744104 393.102733 
L 554.581418 387.532085 
L 555.418732 400.610998 
L 556.256046 403.638524 
L 557.09336 394.192643 
L 557.930674 396.614664 
L 558.767988 393.492363 
L 559.605302 406.381726 
L 560.442616 415.022022 
L 561.27993 431.491764 
L 562.117244 406.423848 
L 562.954558 425.800015 
L 563.791872 416.717437 
L 564.629186 412.721102 
L 565.4665 412.600001 
L 566.303814 402.548615 
L 567.141128 386.442176 
L 567.978442 384.867862 
L 568.815756 416.717437 
L 569.65307 400.489897 
L 570.490384 403.348935 
L 571.327698 377.480699 
L 572.165012 332.915514 
L 573.002326 304.698971 
L 573.83964 378.086204 
L 574.676954 392.255026 
L 575.514268 427.132127 
L 576.351582 427.253228 
L 577.188896 420.471569 
L 578.02621 415.022022 
L 578.863524 420.229367 
L 579.700838 406.302747 
L 580.538152 394.434845 
L 581.375466 377.965103 
L 582.21278 388.016489 
L 583.050094 386.036751 
L 583.887408 374.695374 
L 584.724722 369.609131 
L 585.562036 359.799946 
L 586.39935 400.732099 
L 587.236664 415.022022 
L 588.073978 420.713771 
L 588.911292 409.035419 
L 589.748606 379.176113 
L 590.58592 361.616462 
L 591.423234 372.152253 
L 592.260548 364.88619 
L 593.097862 366.339402 
L 593.935176 373.652852 
L 594.77249 362.827472 
L 595.609804 376.875193 
L 596.447118 394.434845 
L 597.284432 419.260559 
L 598.121746 421.198176 
L 598.95906 414.537618 
L 599.796374 422.772489 
L 600.633688 410.177981 
L 601.471002 424.710106 
L 602.308316 421.319277 
L 603.14563 423.499095 
L 603.982944 414.537618 
L 604.820258 417.565144 
L 605.657572 424.957573 
L 606.494886 404.849535 
L 607.3322 372.878859 
L 608.169514 422.409186 
L 609.006828 433.792684 
L 609.844142 427.374329 
L 610.681456 418.412852 
L 611.51877 400.8532 
L 612.356084 355.319207 
L 613.193398 327.344866 
L 614.030712 362.100866 
L 614.868026 388.985298 
L 615.70534 314.023751 
L 616.542653 355.561409 
L 617.379967 384.141256 
L 618.217281 408.603667 
L 619.054595 379.660517 
L 619.891909 385.473367 
L 620.729223 373.605465 
L 621.566537 418.170649 
L 622.403851 350.838469 
L 623.241165 363.917382 
L 624.078479 348.537549 
L 624.915793 350.232963 
L 626.590421 374.089869 
L 627.427735 371.062343 
L 628.265049 398.067876 
L 629.102363 409.288151 
L 629.939677 395.645855 
L 631.614305 418.049548 
L 632.451619 418.897256 
L 633.288933 396.372461 
L 634.963561 401.822008 
L 635.800875 412.842204 
L 636.638189 404.849535 
L 637.475503 417.686245 
L 638.312817 417.201841 
L 639.150131 419.38166 
L 639.987445 424.710106 
L 640.824759 426.600335 
L 641.662073 417.444043 
L 642.499387 411.590826 
L 643.336701 415.143123 
L 644.174015 409.935778 
L 645.011329 389.954106 
L 645.848643 422.772489 
L 646.685957 439.605534 
L 647.523271 435.003695 
L 648.360585 433.30828 
L 649.197899 436.699109 
L 650.872527 410.166971 
L 651.709841 412.721102 
L 652.547155 365.128392 
L 653.384469 387.289883 
L 654.221783 362.827472 
L 655.059097 343.693507 
L 655.896411 359.799946 
L 656.733725 399.763291 
L 657.571039 373.605465 
L 658.408353 382.809144 
L 659.245667 342.361396 
L 660.082981 364.765089 
L 660.920295 424.831207 
L 661.757609 423.135792 
L 662.594923 415.385325 
L 663.432237 435.124796 
L 665.106865 405.939444 
L 666.781493 346.963235 
L 667.618807 331.825605 
L 668.456121 320.563208 
L 669.293435 314.265953 
L 670.130749 302.640253 
L 670.968063 311.843932 
L 671.805377 377.117395 
L 672.642691 396.493563 
L 673.480005 357.862329 
L 674.317319 350.354065 
L 675.154633 325.286148 
L 675.991947 366.460503 
L 676.829261 430.138592 
L 677.666575 402.548615 
L 678.503889 418.170649 
L 679.341203 343.814608 
L 681.015831 418.533953 
L 682.690459 368.277019 
L 683.527773 377.480699 
L 684.365087 399.521089 
L 685.202401 353.139389 
L 686.039715 329.1834 
L 686.877029 374.574273 
L 687.714343 391.723234 
L 688.551657 401.095402 
L 689.388971 336.548545 
L 690.226285 373.605465 
L 691.063599 306.999891 
L 691.900913 288.108128 
L 692.738227 307.120992 
L 693.575541 311.60173 
L 694.412855 326.497159 
L 695.250169 302.761354 
L 696.087483 314.629256 
L 696.924797 298.280615 
L 697.762111 349.506357 
L 698.599425 309.30081 
L 699.436739 345.112119 
L 700.274053 350.596267 
L 701.111367 363.79628 
L 701.948681 386.563277 
L 702.785995 380.144922 
L 703.623309 324.31734 
L 704.460623 334.178425 
L 705.297937 329.766887 
L 706.135251 295.010887 
L 706.972565 306.394385 
L 707.809879 334.247626 
L 708.647193 324.438441 
L 709.484507 239.830933 
L 710.321821 221.986957 
L 711.159135 304.456769 
L 711.996449 223.319069 
L 712.833763 346.721033 
L 713.671077 341.634789 
L 714.508391 349.506357 
L 715.345705 210.119055 
L 716.183019 195.58693 
L 717.020333 104.640045 
L 717.857647 224.045675 
L 718.694961 207.818135 
L 719.532275 251.535612 
L 720.369589 239.66771 
L 721.206903 209.997954 
L 722.044217 257.10626 
L 722.881531 250.324602 
L 723.718845 260.618191 
L 724.556159 265.825535 
L 725.393473 272.486093 
L 726.230787 242.210832 
L 727.068101 247.902581 
L 727.905415 310.511821 
L 728.742729 199.946567 
L 729.580043 258.19617 
L 730.417357 286.533814 
L 731.254671 235.671375 
L 732.091984 162.889648 
L 732.929298 212.030345 
L 733.766612 310.632922 
L 734.603926 319.7155 
L 735.44124 314.023751 
L 736.278554 238.335598 
L 737.115868 246.570469 
L 737.953182 318.746692 
L 738.790496 409.451374 
L 739.62781 348.416448 
L 740.465124 303.366859 
L 741.302438 193.407111 
L 742.139752 281.205368 
L 742.977066 317.777884 
L 743.81438 364.765089 
L 745.489008 212.541076 
L 746.326322 289.240159 
L 747.163636 279.752156 
L 747.163636 279.752156 
" style="fill:none;stroke:#1f77b4;stroke-linecap:square;stroke-width:1.5;"/>
   </g>
   <g id="line2d_17">
    <path clip-path="url(#p35499a8d18)" d="M 138.436364 249.966561 
L 140.110992 323.753995 
L 140.948306 340.524602 
L 141.78562 164.497082 
L 142.622934 229.768823 
L 143.460248 274.80708 
L 144.297562 175.439305 
L 145.134876 189.638173 
L 145.97219 155.240879 
L 146.809504 258.658651 
L 147.646818 152.631101 
L 148.484132 210.488944 
L 149.321446 281.257263 
L 150.15876 230.786799 
L 150.996074 193.539802 
L 151.833388 339.27364 
L 152.670702 224.099573 
L 153.508016 238.10486 
L 154.345329 329.262992 
L 155.182643 183.516924 
L 156.019957 267.143478 
L 156.857271 364.367013 
L 158.531899 150.166144 
L 159.369213 229.504661 
L 160.206527 216.036568 
L 161.043841 262.346852 
L 161.881155 319.414858 
L 162.718469 291.039684 
L 163.555783 350.418658 
L 164.393097 244.998484 
L 165.230411 312.616683 
L 166.067725 264.369854 
L 166.905039 242.615482 
L 167.742353 326.562255 
L 168.579667 306.032213 
L 169.416981 275.372502 
L 170.254295 299.763105 
L 171.091609 246.815687 
L 171.928923 265.779716 
L 172.766237 317.878004 
L 173.603551 217.208145 
L 174.440865 310.60316 
L 175.278179 158.822555 
L 176.115493 239.955258 
L 176.952807 261.614569 
L 177.790121 323.829277 
L 178.627435 370.483063 
L 179.464749 257.386735 
L 180.302063 282.473599 
L 181.139377 264.512213 
L 181.976691 325.883046 
L 182.814005 240.876776 
L 183.651319 268.263588 
L 184.488633 322.496648 
L 185.325947 342.94531 
L 186.163261 195.154598 
L 187.000575 202.028753 
L 187.837889 303.31479 
L 188.675203 333.641078 
L 189.512517 263.06226 
L 190.349831 291.577199 
L 191.187145 245.916277 
L 192.024459 234.653148 
L 192.861773 213.363748 
L 193.699087 227.459085 
L 194.536401 197.158952 
L 195.373715 291.375856 
L 196.211029 180.001638 
L 197.048343 283.173097 
L 197.885657 161.510674 
L 198.722971 249.655545 
L 199.560285 277.905269 
L 200.397599 243.796683 
L 201.234913 289.590451 
L 202.072227 205.106696 
L 202.909541 296.364622 
L 203.746855 205.268324 
L 204.584169 257.45379 
L 205.421483 231.055462 
L 206.258797 315.062881 
L 207.096111 303.501819 
L 207.933425 298.130847 
L 208.770739 260.301808 
L 209.608053 303.014628 
L 210.445367 218.889353 
L 211.282681 239.892749 
L 212.119995 324.487731 
L 212.957309 187.753738 
L 213.794623 277.182365 
L 214.631937 324.837485 
L 215.469251 316.360664 
L 216.306565 268.808676 
L 217.143879 264.696769 
L 217.981193 198.232585 
L 218.818507 225.634675 
L 219.655821 125.256818 
L 220.493135 191.925582 
L 221.330449 294.381301 
L 222.167763 158.840383 
L 223.005077 297.549903 
L 223.842391 264.178845 
L 224.679705 296.602918 
L 225.517019 275.354696 
L 226.354333 329.168008 
L 227.191647 353.761107 
L 228.028961 336.162469 
L 228.866275 315.065021 
L 229.703589 344.629679 
L 230.540903 388.098314 
L 232.215531 213.696251 
L 233.052845 126.890839 
L 233.890159 193.846915 
L 234.727473 278.271388 
L 235.564787 261.050966 
L 236.402101 320.487582 
L 237.239415 349.418333 
L 238.076729 364.73311 
L 238.914043 267.559201 
L 239.751357 338.166335 
L 240.588671 392.791015 
L 241.425985 358.259023 
L 242.263299 374.323767 
L 243.100613 376.493303 
L 243.937927 363.413231 
L 244.775241 331.934026 
L 245.612555 306.7834 
L 246.449869 332.076673 
L 247.287183 268.256448 
L 248.124497 316.354133 
L 248.961811 219.216601 
L 249.799125 341.244567 
L 250.636439 255.945341 
L 251.473753 274.128858 
L 252.311067 339.775533 
L 253.148381 279.001453 
L 253.985695 178.083697 
L 254.823009 344.076253 
L 255.660323 353.731981 
L 256.497637 207.632411 
L 257.334951 244.874619 
L 258.172265 341.930561 
L 259.009579 264.789524 
L 259.846893 205.972955 
L 260.684207 310.868919 
L 261.521521 308.01375 
L 262.358835 386.567486 
L 263.196149 265.390646 
L 264.033463 294.783231 
L 264.870777 272.672675 
L 265.708091 265.630949 
L 266.545405 255.164918 
L 268.220033 367.890814 
L 269.057347 343.357342 
L 269.89466 287.793881 
L 270.731974 242.771434 
L 271.569288 218.603527 
L 273.243916 380.868734 
L 274.08123 413.934851 
L 274.918544 414.300993 
L 275.755858 278.111068 
L 276.593172 362.459716 
L 277.430486 360.195579 
L 278.2678 375.263767 
L 279.105114 393.8922 
L 279.942428 407.245785 
L 280.779742 402.810456 
L 281.617056 392.891764 
L 282.45437 390.939597 
L 283.291684 416.702654 
L 284.128998 334.879311 
L 284.966312 343.410937 
L 285.803626 308.773351 
L 286.64094 378.319082 
L 287.478254 389.216662 
L 288.315568 379.583064 
L 289.152882 403.319433 
L 289.990196 326.023354 
L 290.82751 349.088058 
L 291.664824 283.351013 
L 292.502138 347.321324 
L 293.339452 360.631647 
L 294.176766 366.746988 
L 295.01408 330.330084 
L 295.851394 282.314288 
L 296.688708 292.646187 
L 297.526022 301.572947 
L 298.363336 313.546517 
L 299.20065 361.19504 
L 300.037964 373.997273 
L 300.875278 405.051331 
L 301.712592 391.496049 
L 302.549906 375.412623 
L 303.38722 409.05372 
L 304.224534 402.102376 
L 305.061848 412.608043 
L 305.899162 360.142583 
L 306.736476 384.315147 
L 308.411104 338.420475 
L 309.248418 368.784647 
L 310.085732 393.132144 
L 310.923046 398.622425 
L 311.76036 405.707335 
L 312.597674 409.570635 
L 313.434988 391.077299 
L 314.272302 401.524737 
L 315.109616 332.444001 
L 315.94693 362.948159 
L 316.784244 360.050759 
L 317.621558 224.198604 
L 318.458872 378.180115 
L 319.296186 225.77597 
L 320.1335 269.645644 
L 320.970814 296.56367 
L 321.808128 361.832284 
L 322.645442 400.742495 
L 323.482756 422.770819 
L 324.32007 390.274114 
L 325.157384 272.043968 
L 325.994698 279.81159 
L 326.832012 342.402263 
L 329.343954 361.871222 
L 331.018582 189.948746 
L 331.855896 221.563392 
L 332.69321 348.973329 
L 333.530524 303.819931 
L 334.367838 350.814868 
L 335.205152 321.869172 
L 336.042466 326.042424 
L 336.87978 349.226536 
L 337.717094 225.819986 
L 338.554408 294.69694 
L 339.391722 330.324751 
L 340.229036 263.42716 
L 342.740978 291.625018 
L 343.578292 329.345014 
L 344.415606 348.945389 
L 345.25292 258.726859 
L 346.090234 366.86521 
L 346.927548 407.59248 
L 347.764862 298.814867 
L 348.602176 260.738308 
L 349.43949 299.763028 
L 350.276804 325.838764 
L 351.114118 383.904529 
L 351.951432 380.9152 
L 352.788746 384.647228 
L 353.62606 265.569814 
L 354.463374 377.287812 
L 355.300688 363.055982 
L 356.138002 303.346732 
L 356.975316 347.028779 
L 357.81263 369.63982 
L 358.649944 314.070982 
L 359.487258 335.122119 
L 360.324572 316.506515 
L 361.161886 288.840096 
L 361.9992 314.259996 
L 362.836514 319.677179 
L 363.673828 397.282545 
L 364.511142 291.761301 
L 365.348456 256.84198 
L 366.18577 332.861387 
L 367.023084 247.439715 
L 367.860398 271.706874 
L 368.697712 313.325606 
L 369.535026 346.534381 
L 370.37234 323.245151 
L 371.209654 293.539621 
L 372.884282 186.567614 
L 373.721596 221.12902 
L 374.55891 308.715787 
L 375.396224 353.106656 
L 376.233538 371.383249 
L 377.070852 336.941429 
L 377.908166 192.39459 
L 378.74548 325.296482 
L 379.582794 311.438687 
L 380.420108 253.046877 
L 381.257422 367.451852 
L 382.094736 249.47212 
L 382.93205 183.582249 
L 383.769364 211.01647 
L 384.606678 275.318995 
L 385.443991 276.90705 
L 386.281305 314.341098 
L 387.118619 248.508293 
L 387.955933 263.458647 
L 388.793247 367.055487 
L 389.630561 312.825532 
L 390.467875 300.314302 
L 391.305189 314.843755 
L 392.142503 158.659951 
L 392.979817 278.573512 
L 393.817131 297.749172 
L 394.654445 270.317302 
L 395.491759 214.712831 
L 396.329073 193.935346 
L 397.166387 190.239007 
L 398.003701 197.313373 
L 398.841015 113.405384 
L 399.678329 272.423458 
L 400.515643 198.982585 
L 401.352957 212.407816 
L 402.190271 361.729406 
L 403.864899 274.672837 
L 404.702213 300.536167 
L 405.539527 374.118622 
L 406.376841 371.88584 
L 407.214155 222.03699 
L 408.051469 203.839348 
L 408.888783 347.149385 
L 409.726097 324.362102 
L 410.563411 237.275255 
L 411.400725 293.30719 
L 412.238039 264.438528 
L 413.075353 243.379763 
L 413.912667 272.346314 
L 414.749981 307.237894 
L 415.587295 250.562872 
L 416.424609 259.588019 
L 417.261923 243.856177 
L 418.099237 198.304319 
L 418.936551 254.159515 
L 419.773865 241.349088 
L 420.611179 242.846516 
L 421.448493 231.76668 
L 422.285807 331.78374 
L 423.123121 125.440332 
L 424.797749 289.431994 
L 425.635063 208.593532 
L 426.472377 326.073312 
L 427.309691 191.757235 
L 428.147005 281.312056 
L 428.984319 278.384898 
L 429.821633 288.188982 
L 430.658947 300.972889 
L 431.496261 266.187878 
L 432.333575 247.971454 
L 433.170889 162.566369 
L 434.008203 174.977193 
L 434.845517 189.794191 
L 435.682831 303.37231 
L 436.520145 160.038791 
L 437.357459 253.789338 
L 438.194773 168.744784 
L 439.032087 125.442882 
L 439.869401 154.272795 
L 440.706715 258.870238 
L 441.544029 187.104985 
L 442.381343 200.370672 
L 443.218657 249.419855 
L 444.055971 265.155843 
L 444.893285 215.479772 
L 445.730599 275.266642 
L 446.567913 270.724178 
L 447.405227 197.951881 
L 448.242541 268.396989 
L 449.079855 234.999066 
L 449.917169 276.605613 
L 450.754483 248.964772 
L 451.591797 217.2546 
L 452.429111 222.520766 
L 453.266425 158.993164 
L 454.103739 175.219758 
L 454.941053 206.094448 
L 455.778367 135.460682 
L 456.615681 156.984597 
L 457.452995 219.204693 
L 458.290309 228.935958 
L 459.127623 240.75994 
L 459.964937 214.429909 
L 460.802251 229.375939 
L 461.639565 123.319608 
L 462.476879 234.780761 
L 463.314193 215.615545 
L 464.151507 217.038356 
L 464.988821 272.837363 
L 465.826135 279.341518 
L 466.663449 214.823281 
L 467.500763 291.979506 
L 468.338077 286.222724 
L 469.175391 244.52768 
L 470.012705 231.099567 
L 470.850019 239.647435 
L 471.687333 240.03584 
L 472.524647 277.764196 
L 473.361961 304.283839 
L 474.199275 303.118204 
L 475.036589 329.113537 
L 475.873903 362.569367 
L 476.711217 287.252341 
L 477.548531 187.121993 
L 478.385845 216.711042 
L 479.223159 311.880243 
L 480.060473 307.434148 
L 480.897787 283.325157 
L 481.735101 275.995421 
L 482.572415 282.661382 
L 483.409729 244.128854 
L 484.247043 284.724608 
L 485.084357 269.791949 
L 485.921671 296.022052 
L 486.758985 334.550023 
L 487.596299 308.55733 
L 488.433613 315.93698 
L 489.270927 332.060031 
L 490.108241 275.068249 
L 490.945555 306.146732 
L 491.782869 275.406894 
L 492.620183 268.154092 
L 493.457497 224.684065 
L 494.294811 318.828859 
L 495.132125 246.052604 
L 495.969439 274.148904 
L 496.806753 284.109317 
L 497.644067 309.77616 
L 498.481381 240.719317 
L 499.318695 248.532286 
L 500.156009 335.593966 
L 500.993322 276.756442 
L 501.830636 253.610236 
L 502.66795 318.613935 
L 503.505264 235.932647 
L 504.342578 252.085312 
L 506.017206 292.878994 
L 506.85452 360.093888 
L 507.691834 287.158777 
L 508.529148 192.168035 
L 509.366462 292.592226 
L 510.203776 178.676814 
L 511.04109 183.682188 
L 512.715718 287.599557 
L 513.553032 181.98905 
L 514.390346 322.316416 
L 515.22766 276.897227 
L 516.064974 322.189934 
L 516.902288 289.403544 
L 517.739602 309.208998 
L 518.576916 318.451863 
L 519.41423 347.092774 
L 520.251544 258.108441 
L 521.088858 340.330045 
L 521.926172 290.443262 
L 522.763486 297.38986 
L 523.6008 338.211294 
L 524.438114 331.597443 
L 525.275428 278.624668 
L 526.112742 316.78305 
L 526.950056 349.413698 
L 527.78737 355.34538 
L 528.624684 352.117584 
L 529.461998 364.72658 
L 530.299312 382.033343 
L 531.136626 306.374905 
L 531.97394 188.26042 
L 532.811254 188.597025 
L 533.648568 304.167491 
L 534.485882 263.113483 
L 535.323196 201.253851 
L 536.16051 199.299943 
L 536.997824 306.640475 
L 537.835138 358.647139 
L 538.672452 372.122849 
L 539.509766 335.801306 
L 540.34708 360.706907 
L 541.184394 323.4795 
L 542.021708 219.332262 
L 542.859022 328.76916 
L 543.696336 316.704697 
L 544.53365 371.327414 
L 545.370964 297.464588 
L 546.208278 305.590391 
L 547.045592 256.707316 
L 547.882906 333.990046 
L 548.72022 337.803709 
L 549.557534 338.515835 
L 550.394848 381.405656 
L 551.232162 369.603266 
L 552.069476 368.092389 
L 552.90679 402.168766 
L 553.744104 347.333375 
L 554.581418 357.167905 
L 555.418732 347.789223 
L 556.256046 389.383474 
L 557.09336 401.493005 
L 558.767988 371.104308 
L 559.605302 405.036087 
L 560.442616 391.901882 
L 561.27993 399.000596 
L 562.117244 403.380678 
L 562.954558 406.994263 
L 563.791872 417.500351 
L 564.629186 363.618332 
L 565.4665 394.112701 
L 566.303814 402.630811 
L 567.141128 371.621556 
L 567.978442 293.428439 
L 568.815756 366.718782 
L 569.65307 407.036405 
L 570.490384 328.758671 
L 571.327698 277.617934 
L 572.165012 324.717079 
L 573.002326 221.775023 
L 573.83964 323.922165 
L 574.676954 362.40816 
L 575.514268 386.14158 
L 576.351582 388.687124 
L 577.188896 334.118357 
L 578.863524 422.631453 
L 579.700838 337.12542 
L 580.538152 222.291439 
L 581.375466 307.29262 
L 582.21278 360.946012 
L 583.050094 381.922006 
L 583.887408 358.654656 
L 584.724722 362.26038 
L 585.562036 332.546213 
L 586.39935 343.324213 
L 587.236664 394.089529 
L 588.073978 393.845811 
L 588.911292 378.093652 
L 589.748606 274.174781 
L 590.58592 198.14595 
L 592.260548 371.718169 
L 593.097862 262.088145 
L 593.935176 214.856852 
L 594.77249 299.198061 
L 596.447118 366.309079 
L 597.284432 362.085447 
L 598.121746 371.178359 
L 598.95906 395.149902 
L 599.796374 411.825525 
L 600.633688 392.233399 
L 601.471002 393.643937 
L 602.308316 401.748686 
L 603.14563 403.129178 
L 603.982944 401.938098 
L 604.820258 396.839592 
L 605.657572 392.495155 
L 607.3322 374.098976 
L 608.169514 382.744189 
L 609.006828 354.157161 
L 609.844142 371.551374 
L 610.681456 345.349677 
L 611.51877 234.024419 
L 612.356084 163.095358 
L 613.193398 228.877972 
L 614.030712 326.798189 
L 614.868026 328.14073 
L 615.70534 193.333714 
L 617.379967 353.91157 
L 618.217281 391.527448 
L 619.054595 222.927686 
L 619.891909 191.421827 
L 620.729223 352.8962 
L 621.566537 292.961305 
L 622.403851 174.09723 
L 623.241165 269.578234 
L 624.078479 247.022795 
L 624.915793 232.841289 
L 625.753107 294.78995 
L 626.590421 304.706503 
L 627.427735 363.885122 
L 628.265049 351.751476 
L 629.102363 323.211402 
L 629.939677 302.626845 
L 630.776991 372.44248 
L 631.614305 408.413804 
L 633.288933 322.565056 
L 634.126247 302.356995 
L 634.963561 342.908767 
L 635.800875 412.543428 
L 636.638189 338.005151 
L 637.475503 340.029916 
L 638.312817 396.838816 
L 639.987445 412.572077 
L 640.824759 405.458118 
L 641.662073 389.042694 
L 642.499387 418.857915 
L 643.336701 378.39535 
L 644.174015 386.273001 
L 645.011329 317.597089 
L 645.848643 393.665723 
L 646.685957 384.908641 
L 647.523271 342.834073 
L 649.197899 414.979337 
L 650.035213 414.007616 
L 651.709841 368.174722 
L 652.547155 353.996986 
L 653.384469 352.604264 
L 654.221783 375.38699 
L 655.059097 305.074207 
L 655.896411 308.037931 
L 656.733725 371.493666 
L 657.571039 359.333466 
L 658.408353 295.764587 
L 659.245667 293.599514 
L 660.082981 359.406863 
L 660.920295 384.328939 
L 661.757609 393.507809 
L 662.594923 357.241236 
L 663.432237 390.268925 
L 664.269551 376.433382 
L 665.106865 401.877784 
L 666.781493 310.49709 
L 667.618807 352.650076 
L 668.456121 221.062342 
L 669.293435 250.152226 
L 670.130749 305.825006 
L 670.968063 251.399063 
L 671.805377 341.097573 
L 672.642691 352.641406 
L 673.480005 381.947534 
L 674.317319 306.76984 
L 675.154633 295.872376 
L 675.991947 309.28102 
L 676.829261 380.659852 
L 677.666575 400.430725 
L 678.503889 362.10485 
L 679.341203 371.742716 
L 680.178517 387.554041 
L 681.015831 390.408523 
L 681.853145 375.018587 
L 682.690459 269.767159 
L 683.527773 355.024286 
L 684.365087 324.599034 
L 685.202401 377.417288 
L 686.039715 285.404216 
L 686.877029 354.070837 
L 687.714343 313.635081 
L 688.551657 372.510167 
L 689.388971 355.401359 
L 690.226285 346.127694 
L 691.063599 278.400043 
L 691.900913 237.415507 
L 692.738227 296.304929 
L 693.575541 311.154801 
L 694.412855 285.42149 
L 695.250169 276.138091 
L 696.087483 324.490414 
L 696.924797 284.058039 
L 697.762111 330.990478 
L 698.599425 294.905888 
L 699.436739 317.638278 
L 700.274053 275.330859 
L 701.111367 297.865011 
L 701.948681 294.262646 
L 702.785995 295.978579 
L 703.623309 250.235513 
L 704.460623 266.867364 
L 705.297937 332.248324 
L 706.972565 259.038806 
L 707.809879 267.196895 
L 708.647193 339.246654 
L 709.484507 244.800157 
L 710.321821 252.188245 
L 711.159135 263.795164 
L 711.996449 160.226075 
L 712.833763 261.204678 
L 713.671077 247.96356 
L 714.508391 278.443216 
L 715.345705 280.924073 
L 716.183019 220.129781 
L 717.020333 86.923636 
L 717.857647 232.761661 
L 718.694961 217.217702 
L 719.532275 255.898399 
L 720.369589 231.420761 
L 721.206903 153.049663 
L 722.044217 176.418631 
L 722.881531 252.471765 
L 723.718845 277.125444 
L 724.556159 274.022333 
L 725.393473 296.800502 
L 726.230787 231.846973 
L 727.068101 238.547703 
L 727.905415 317.073921 
L 728.742729 203.731404 
L 729.580043 201.669729 
L 730.417357 243.008322 
L 731.254671 219.194205 
L 732.091984 103.443285 
L 732.929298 235.696824 
L 733.766612 314.482559 
L 734.603926 254.866275 
L 735.44124 267.451567 
L 736.278554 282.810238 
L 737.115868 309.712487 
L 737.953182 276.368149 
L 738.790496 338.450698 
L 739.62781 211.553486 
L 740.465124 227.142947 
L 741.302438 250.691438 
L 742.139752 262.254474 
L 742.977066 237.762357 
L 743.81438 309.984232 
L 744.651694 202.442458 
L 745.489008 212.621908 
L 746.326322 267.479174 
L 747.163636 246.739053 
L 747.163636 246.739053 
" style="fill:none;stroke:#ff0000;stroke-dasharray:5.55,2.4;stroke-dashoffset:0;stroke-width:1.5;"/>
   </g>
   <g id="patch_3">
    <path d="M 108 460.8 
L 108 69.12 
" style="fill:none;stroke:#000000;stroke-linecap:square;stroke-linejoin:miter;stroke-width:0.8;"/>
   </g>
   <g id="patch_4">
    <path d="M 777.6 460.8 
L 777.6 69.12 
" style="fill:none;stroke:#000000;stroke-linecap:square;stroke-linejoin:miter;stroke-width:0.8;"/>
   </g>
   <g id="patch_5">
    <path d="M 108 460.8 
L 777.6 460.8 
" style="fill:none;stroke:#000000;stroke-linecap:square;stroke-linejoin:miter;stroke-width:0.8;"/>
   </g>
   <g id="patch_6">
    <path d="M 108 69.12 
L 777.6 69.12 
" style="fill:none;stroke:#000000;stroke-linecap:square;stroke-linejoin:miter;stroke-width:0.8;"/>
   </g>
   <g id="text_18">
    <!-- Macau roadside 2020-2021 | Forecast vs Monitored | GRU -->
    <g transform="translate(226.727344 63.12)scale(0.15 -0.15)">
     <defs>
      <path d="M 8.5 21.578125 
L 8.5 54.6875 
L 17.484375 54.6875 
L 17.484375 21.921875 
Q 17.484375 14.15625 20.5 10.265625 
Q 23.53125 6.390625 29.59375 6.390625 
Q 36.859375 6.390625 41.078125 11.03125 
Q 45.3125 15.671875 45.3125 23.6875 
L 45.3125 54.6875 
L 54.296875 54.6875 
L 54.296875 0 
L 45.3125 0 
L 45.3125 8.40625 
Q 42.046875 3.421875 37.71875 1 
Q 33.40625 -1.421875 27.6875 -1.421875 
Q 18.265625 -1.421875 13.375 4.4375 
Q 8.5 10.296875 8.5 21.578125 
z
M 31.109375 56 
z
" id="DejaVuSans-117"/>
      <path id="DejaVuSans-32"/>
      <path d="M 45.40625 46.390625 
L 45.40625 75.984375 
L 54.390625 75.984375 
L 54.390625 0 
L 45.40625 0 
L 45.40625 8.203125 
Q 42.578125 3.328125 38.25 0.953125 
Q 33.9375 -1.421875 27.875 -1.421875 
Q 17.96875 -1.421875 11.734375 6.484375 
Q 5.515625 14.40625 5.515625 27.296875 
Q 5.515625 40.1875 11.734375 48.09375 
Q 17.96875 56 27.875 56 
Q 33.9375 56 38.25 53.625 
Q 42.578125 51.265625 45.40625 46.390625 
z
M 14.796875 27.296875 
Q 14.796875 17.390625 18.875 11.75 
Q 22.953125 6.109375 30.078125 6.109375 
Q 37.203125 6.109375 41.296875 11.75 
Q 45.40625 17.390625 45.40625 27.296875 
Q 45.40625 37.203125 41.296875 42.84375 
Q 37.203125 48.484375 30.078125 48.484375 
Q 22.953125 48.484375 18.875 42.84375 
Q 14.796875 37.203125 14.796875 27.296875 
z
" id="DejaVuSans-100"/>
      <path d="M 44.28125 53.078125 
L 44.28125 44.578125 
Q 40.484375 46.53125 36.375 47.5 
Q 32.28125 48.484375 27.875 48.484375 
Q 21.1875 48.484375 17.84375 46.4375 
Q 14.5 44.390625 14.5 40.28125 
Q 14.5 37.15625 16.890625 35.375 
Q 19.28125 33.59375 26.515625 31.984375 
L 29.59375 31.296875 
Q 39.15625 29.25 43.1875 25.515625 
Q 47.21875 21.78125 47.21875 15.09375 
Q 47.21875 7.46875 41.1875 3.015625 
Q 35.15625 -1.421875 24.609375 -1.421875 
Q 20.21875 -1.421875 15.453125 -0.5625 
Q 10.6875 0.296875 5.421875 2 
L 5.421875 11.28125 
Q 10.40625 8.6875 15.234375 7.390625 
Q 20.0625 6.109375 24.8125 6.109375 
Q 31.15625 6.109375 34.5625 8.28125 
Q 37.984375 10.453125 37.984375 14.40625 
Q 37.984375 18.0625 35.515625 20.015625 
Q 33.0625 21.96875 24.703125 23.78125 
L 21.578125 24.515625 
Q 13.234375 26.265625 9.515625 29.90625 
Q 5.8125 33.546875 5.8125 39.890625 
Q 5.8125 47.609375 11.28125 51.796875 
Q 16.75 56 26.8125 56 
Q 31.78125 56 36.171875 55.265625 
Q 40.578125 54.546875 44.28125 53.078125 
z
" id="DejaVuSans-115"/>
      <path d="M 21 76.421875 
L 21 -23.578125 
L 12.703125 -23.578125 
L 12.703125 76.421875 
z
" id="DejaVuSans-124"/>
      <path d="M 9.8125 72.90625 
L 51.703125 72.90625 
L 51.703125 64.59375 
L 19.671875 64.59375 
L 19.671875 43.109375 
L 48.578125 43.109375 
L 48.578125 34.8125 
L 19.671875 34.8125 
L 19.671875 0 
L 9.8125 0 
z
" id="DejaVuSans-70"/>
      <path d="M 2.984375 54.6875 
L 12.5 54.6875 
L 29.59375 8.796875 
L 46.6875 54.6875 
L 56.203125 54.6875 
L 35.6875 0 
L 23.484375 0 
z
" id="DejaVuSans-118"/>
      <path d="M 54.890625 33.015625 
L 54.890625 0 
L 45.90625 0 
L 45.90625 32.71875 
Q 45.90625 40.484375 42.875 44.328125 
Q 39.84375 48.1875 33.796875 48.1875 
Q 26.515625 48.1875 22.3125 43.546875 
Q 18.109375 38.921875 18.109375 30.90625 
L 18.109375 0 
L 9.078125 0 
L 9.078125 54.6875 
L 18.109375 54.6875 
L 18.109375 46.1875 
Q 21.34375 51.125 25.703125 53.5625 
Q 30.078125 56 35.796875 56 
Q 45.21875 56 50.046875 50.171875 
Q 54.890625 44.34375 54.890625 33.015625 
z
" id="DejaVuSans-110"/>
      <path d="M 59.515625 10.40625 
L 59.515625 29.984375 
L 43.40625 29.984375 
L 43.40625 38.09375 
L 69.28125 38.09375 
L 69.28125 6.78125 
Q 63.578125 2.734375 56.6875 0.65625 
Q 49.8125 -1.421875 42 -1.421875 
Q 24.90625 -1.421875 15.25 8.5625 
Q 5.609375 18.5625 5.609375 36.375 
Q 5.609375 54.25 15.25 64.234375 
Q 24.90625 74.21875 42 74.21875 
Q 49.125 74.21875 55.546875 72.453125 
Q 61.96875 70.703125 67.390625 67.28125 
L 67.390625 56.78125 
Q 61.921875 61.421875 55.765625 63.765625 
Q 49.609375 66.109375 42.828125 66.109375 
Q 29.4375 66.109375 22.71875 58.640625 
Q 16.015625 51.171875 16.015625 36.375 
Q 16.015625 21.625 22.71875 14.15625 
Q 29.4375 6.6875 42.828125 6.6875 
Q 48.046875 6.6875 52.140625 7.59375 
Q 56.25 8.5 59.515625 10.40625 
z
" id="DejaVuSans-71"/>
      <path d="M 44.390625 34.1875 
Q 47.5625 33.109375 50.5625 29.59375 
Q 53.5625 26.078125 56.59375 19.921875 
L 66.609375 0 
L 56 0 
L 46.6875 18.703125 
Q 43.0625 26.03125 39.671875 28.421875 
Q 36.28125 30.8125 30.421875 30.8125 
L 19.671875 30.8125 
L 19.671875 0 
L 9.8125 0 
L 9.8125 72.90625 
L 32.078125 72.90625 
Q 44.578125 72.90625 50.734375 67.671875 
Q 56.890625 62.453125 56.890625 51.90625 
Q 56.890625 45.015625 53.6875 40.46875 
Q 50.484375 35.9375 44.390625 34.1875 
z
M 19.671875 64.796875 
L 19.671875 38.921875 
L 32.078125 38.921875 
Q 39.203125 38.921875 42.84375 42.21875 
Q 46.484375 45.515625 46.484375 51.90625 
Q 46.484375 58.296875 42.84375 61.546875 
Q 39.203125 64.796875 32.078125 64.796875 
z
" id="DejaVuSans-82"/>
      <path d="M 8.6875 72.90625 
L 18.609375 72.90625 
L 18.609375 28.609375 
Q 18.609375 16.890625 22.84375 11.734375 
Q 27.09375 6.59375 36.625 6.59375 
Q 46.09375 6.59375 50.34375 11.734375 
Q 54.59375 16.890625 54.59375 28.609375 
L 54.59375 72.90625 
L 64.5 72.90625 
L 64.5 27.390625 
Q 64.5 13.140625 57.4375 5.859375 
Q 50.390625 -1.421875 36.625 -1.421875 
Q 22.796875 -1.421875 15.734375 5.859375 
Q 8.6875 13.140625 8.6875 27.390625 
z
" id="DejaVuSans-85"/>
     </defs>
     <use xlink:href="#DejaVuSans-77"/>
     <use x="86.279297" xlink:href="#DejaVuSans-97"/>
     <use x="147.558594" xlink:href="#DejaVuSans-99"/>
     <use x="202.539062" xlink:href="#DejaVuSans-97"/>
     <use x="263.818359" xlink:href="#DejaVuSans-117"/>
     <use x="327.197266" xlink:href="#DejaVuSans-32"/>
     <use x="358.984375" xlink:href="#DejaVuSans-114"/>
     <use x="397.847656" xlink:href="#DejaVuSans-111"/>
     <use x="459.029297" xlink:href="#DejaVuSans-97"/>
     <use x="520.308594" xlink:href="#DejaVuSans-100"/>
     <use x="583.785156" xlink:href="#DejaVuSans-115"/>
     <use x="635.884766" xlink:href="#DejaVuSans-105"/>
     <use x="663.667969" xlink:href="#DejaVuSans-100"/>
     <use x="727.144531" xlink:href="#DejaVuSans-101"/>
     <use x="788.667969" xlink:href="#DejaVuSans-32"/>
     <use x="820.455078" xlink:href="#DejaVuSans-50"/>
     <use x="884.078125" xlink:href="#DejaVuSans-48"/>
     <use x="947.701172" xlink:href="#DejaVuSans-50"/>
     <use x="1011.324219" xlink:href="#DejaVuSans-48"/>
     <use x="1074.947266" xlink:href="#DejaVuSans-45"/>
     <use x="1111.03125" xlink:href="#DejaVuSans-50"/>
     <use x="1174.654297" xlink:href="#DejaVuSans-48"/>
     <use x="1238.277344" xlink:href="#DejaVuSans-50"/>
     <use x="1301.900391" xlink:href="#DejaVuSans-49"/>
     <use x="1365.523438" xlink:href="#DejaVuSans-32"/>
     <use x="1397.310547" xlink:href="#DejaVuSans-124"/>
     <use x="1431.001953" xlink:href="#DejaVuSans-32"/>
     <use x="1462.789062" xlink:href="#DejaVuSans-70"/>
     <use x="1516.683594" xlink:href="#DejaVuSans-111"/>
     <use x="1577.865234" xlink:href="#DejaVuSans-114"/>
     <use x="1616.728516" xlink:href="#DejaVuSans-101"/>
     <use x="1678.251953" xlink:href="#DejaVuSans-99"/>
     <use x="1733.232422" xlink:href="#DejaVuSans-97"/>
     <use x="1794.511719" xlink:href="#DejaVuSans-115"/>
     <use x="1846.611328" xlink:href="#DejaVuSans-116"/>
     <use x="1885.820312" xlink:href="#DejaVuSans-32"/>
     <use x="1917.607422" xlink:href="#DejaVuSans-118"/>
     <use x="1976.787109" xlink:href="#DejaVuSans-115"/>
     <use x="2028.886719" xlink:href="#DejaVuSans-32"/>
     <use x="2060.673828" xlink:href="#DejaVuSans-77"/>
     <use x="2146.953125" xlink:href="#DejaVuSans-111"/>
     <use x="2208.134766" xlink:href="#DejaVuSans-110"/>
     <use x="2271.513672" xlink:href="#DejaVuSans-105"/>
     <use x="2299.296875" xlink:href="#DejaVuSans-116"/>
     <use x="2338.505859" xlink:href="#DejaVuSans-111"/>
     <use x="2399.6875" xlink:href="#DejaVuSans-114"/>
     <use x="2438.550781" xlink:href="#DejaVuSans-101"/>
     <use x="2500.074219" xlink:href="#DejaVuSans-100"/>
     <use x="2563.550781" xlink:href="#DejaVuSans-32"/>
     <use x="2595.337891" xlink:href="#DejaVuSans-124"/>
     <use x="2629.029297" xlink:href="#DejaVuSans-32"/>
     <use x="2660.816406" xlink:href="#DejaVuSans-71"/>
     <use x="2738.306641" xlink:href="#DejaVuSans-82"/>
     <use x="2807.789062" xlink:href="#DejaVuSans-85"/>
    </g>
   </g>
   <g id="legend_1">
    <g id="patch_7">
     <path d="M 116.4 114.615 
L 286.636875 114.615 
Q 289.036875 114.615 289.036875 112.215 
L 289.036875 77.52 
Q 289.036875 75.12 286.636875 75.12 
L 116.4 75.12 
Q 114 75.12 114 77.52 
L 114 112.215 
Q 114 114.615 116.4 114.615 
z
" style="fill:#ffffff;opacity:0.8;stroke:#cccccc;stroke-linejoin:miter;"/>
    </g>
    <g id="line2d_18">
     <path d="M 118.8 84.838125 
L 142.8 84.838125 
" style="fill:none;stroke:#1f77b4;stroke-linecap:square;stroke-width:1.5;"/>
    </g>
    <g id="line2d_19"/>
    <g id="text_19">
     <!-- measured_data_PM10 -->
     <g transform="translate(152.4 89.038125)scale(0.12 -0.12)">
      <defs>
       <path d="M 50.984375 -16.609375 
L 50.984375 -23.578125 
L -0.984375 -23.578125 
L -0.984375 -16.609375 
z
" id="DejaVuSans-95"/>
      </defs>
      <use xlink:href="#DejaVuSans-109"/>
      <use x="97.412109" xlink:href="#DejaVuSans-101"/>
      <use x="158.935547" xlink:href="#DejaVuSans-97"/>
      <use x="220.214844" xlink:href="#DejaVuSans-115"/>
      <use x="272.314453" xlink:href="#DejaVuSans-117"/>
      <use x="335.693359" xlink:href="#DejaVuSans-114"/>
      <use x="374.556641" xlink:href="#DejaVuSans-101"/>
      <use x="436.080078" xlink:href="#DejaVuSans-100"/>
      <use x="499.556641" xlink:href="#DejaVuSans-95"/>
      <use x="549.556641" xlink:href="#DejaVuSans-100"/>
      <use x="613.033203" xlink:href="#DejaVuSans-97"/>
      <use x="674.3125" xlink:href="#DejaVuSans-116"/>
      <use x="713.521484" xlink:href="#DejaVuSans-97"/>
      <use x="774.800781" xlink:href="#DejaVuSans-95"/>
      <use x="824.800781" xlink:href="#DejaVuSans-80"/>
      <use x="885.103516" xlink:href="#DejaVuSans-77"/>
      <use x="971.382812" xlink:href="#DejaVuSans-49"/>
      <use x="1035.005859" xlink:href="#DejaVuSans-48"/>
     </g>
    </g>
    <g id="line2d_20">
     <path d="M 118.8 102.785625 
L 142.8 102.785625 
" style="fill:none;stroke:#ff0000;stroke-dasharray:5.55,2.4;stroke-dashoffset:0;stroke-width:1.5;"/>
    </g>
    <g id="line2d_21"/>
    <g id="text_20">
     <!-- predicted_data_PM10 -->
     <g transform="translate(152.4 106.985625)scale(0.12 -0.12)">
      <defs>
       <path d="M 18.109375 8.203125 
L 18.109375 -20.796875 
L 9.078125 -20.796875 
L 9.078125 54.6875 
L 18.109375 54.6875 
L 18.109375 46.390625 
Q 20.953125 51.265625 25.265625 53.625 
Q 29.59375 56 35.59375 56 
Q 45.5625 56 51.78125 48.09375 
Q 58.015625 40.1875 58.015625 27.296875 
Q 58.015625 14.40625 51.78125 6.484375 
Q 45.5625 -1.421875 35.59375 -1.421875 
Q 29.59375 -1.421875 25.265625 0.953125 
Q 20.953125 3.328125 18.109375 8.203125 
z
M 48.6875 27.296875 
Q 48.6875 37.203125 44.609375 42.84375 
Q 40.53125 48.484375 33.40625 48.484375 
Q 26.265625 48.484375 22.1875 42.84375 
Q 18.109375 37.203125 18.109375 27.296875 
Q 18.109375 17.390625 22.1875 11.75 
Q 26.265625 6.109375 33.40625 6.109375 
Q 40.53125 6.109375 44.609375 11.75 
Q 48.6875 17.390625 48.6875 27.296875 
z
" id="DejaVuSans-112"/>
      </defs>
      <use xlink:href="#DejaVuSans-112"/>
      <use x="63.476562" xlink:href="#DejaVuSans-114"/>
      <use x="102.339844" xlink:href="#DejaVuSans-101"/>
      <use x="163.863281" xlink:href="#DejaVuSans-100"/>
      <use x="227.339844" xlink:href="#DejaVuSans-105"/>
      <use x="255.123047" xlink:href="#DejaVuSans-99"/>
      <use x="310.103516" xlink:href="#DejaVuSans-116"/>
      <use x="349.3125" xlink:href="#DejaVuSans-101"/>
      <use x="410.835938" xlink:href="#DejaVuSans-100"/>
      <use x="474.3125" xlink:href="#DejaVuSans-95"/>
      <use x="524.3125" xlink:href="#DejaVuSans-100"/>
      <use x="587.789062" xlink:href="#DejaVuSans-97"/>
      <use x="649.068359" xlink:href="#DejaVuSans-116"/>
      <use x="688.277344" xlink:href="#DejaVuSans-97"/>
      <use x="749.556641" xlink:href="#DejaVuSans-95"/>
      <use x="799.556641" xlink:href="#DejaVuSans-80"/>
      <use x="859.859375" xlink:href="#DejaVuSans-77"/>
      <use x="946.138672" xlink:href="#DejaVuSans-49"/>
      <use x="1009.761719" xlink:href="#DejaVuSans-48"/>
     </g>
    </g>
   </g>
  </g>
 </g>
 <defs>
  <clipPath id="p35499a8d18">
   <rect height="391.68" width="669.6" x="108" y="69.12"/>
  </clipPath>
 </defs>
</svg>
