<?xml version="1.0" encoding="utf-8" standalone="no"?>
<!DOCTYPE svg PUBLIC "-//W3C//DTD SVG 1.1//EN"
  "http://www.w3.org/Graphics/SVG/1.1/DTD/svg11.dtd">
<!-- Created with matplotlib (https://matplotlib.org/) -->
<svg height="576pt" version="1.1" viewBox="0 0 864 576" width="864pt" xmlns="http://www.w3.org/2000/svg" xmlns:xlink="http://www.w3.org/1999/xlink">
 <metadata>
  <rdf:RDF xmlns:cc="http://creativecommons.org/ns#" xmlns:dc="http://purl.org/dc/elements/1.1/" xmlns:rdf="http://www.w3.org/1999/02/22-rdf-syntax-ns#">
   <cc:Work>
    <dc:type rdf:resource="http://purl.org/dc/dcmitype/StillImage"/>
    <dc:date>2024-03-08T15:24:50.870795</dc:date>
    <dc:format>image/svg+xml</dc:format>
    <dc:creator>
     <cc:Agent>
      <dc:title>Matplotlib v3.3.4, https://matplotlib.org/</dc:title>
     </cc:Agent>
    </dc:creator>
   </cc:Work>
  </rdf:RDF>
 </metadata>
 <defs>
  <style type="text/css">*{stroke-linecap:butt;stroke-linejoin:round;}</style>
 </defs>
 <g id="figure_1">
  <g id="patch_1">
   <path d="M 0 576 
L 864 576 
L 864 0 
L 0 0 
z
" style="fill:#ffffff;"/>
  </g>
  <g id="axes_1">
   <g id="patch_2">
    <path d="M 108 460.8 
L 777.6 460.8 
L 777.6 69.12 
L 108 69.12 
z
" style="fill:#ffffff;"/>
   </g>
   <g id="matplotlib.axis_1">
    <g id="xtick_1">
     <g id="line2d_1">
      <defs>
       <path d="M 0 0 
L 0 3.5 
" id="m532ffdd52a" style="stroke:#000000;stroke-width:0.8;"/>
      </defs>
      <g>
       <use style="stroke:#000000;stroke-width:0.8;" x="138.436364" xlink:href="#m532ffdd52a" y="460.8"/>
      </g>
     </g>
     <g id="text_1">
      <!-- 2020-01 -->
      <g transform="translate(93.766579 500.766215)rotate(-30)scale(0.12 -0.12)">
       <defs>
        <path d="M 19.1875 8.296875 
L 53.609375 8.296875 
L 53.609375 0 
L 7.328125 0 
L 7.328125 8.296875 
Q 12.9375 14.109375 22.625 23.890625 
Q 32.328125 33.6875 34.8125 36.53125 
Q 39.546875 41.84375 41.421875 45.53125 
Q 43.3125 49.21875 43.3125 52.78125 
Q 43.3125 58.59375 39.234375 62.25 
Q 35.15625 65.921875 28.609375 65.921875 
Q 23.96875 65.921875 18.8125 64.3125 
Q 13.671875 62.703125 7.8125 59.421875 
L 7.8125 69.390625 
Q 13.765625 71.78125 18.9375 73 
Q 24.125 74.21875 28.421875 74.21875 
Q 39.75 74.21875 46.484375 68.546875 
Q 53.21875 62.890625 53.21875 53.421875 
Q 53.21875 48.921875 51.53125 44.890625 
Q 49.859375 40.875 45.40625 35.40625 
Q 44.1875 33.984375 37.640625 27.21875 
Q 31.109375 20.453125 19.1875 8.296875 
z
" id="DejaVuSans-50"/>
        <path d="M 31.78125 66.40625 
Q 24.171875 66.40625 20.328125 58.90625 
Q 16.5 51.421875 16.5 36.375 
Q 16.5 21.390625 20.328125 13.890625 
Q 24.171875 6.390625 31.78125 6.390625 
Q 39.453125 6.390625 43.28125 13.890625 
Q 47.125 21.390625 47.125 36.375 
Q 47.125 51.421875 43.28125 58.90625 
Q 39.453125 66.40625 31.78125 66.40625 
z
M 31.78125 74.21875 
Q 44.046875 74.21875 50.515625 64.515625 
Q 56.984375 54.828125 56.984375 36.375 
Q 56.984375 17.96875 50.515625 8.265625 
Q 44.046875 -1.421875 31.78125 -1.421875 
Q 19.53125 -1.421875 13.0625 8.265625 
Q 6.59375 17.96875 6.59375 36.375 
Q 6.59375 54.828125 13.0625 64.515625 
Q 19.53125 74.21875 31.78125 74.21875 
z
" id="DejaVuSans-48"/>
        <path d="M 4.890625 31.390625 
L 31.203125 31.390625 
L 31.203125 23.390625 
L 4.890625 23.390625 
z
" id="DejaVuSans-45"/>
        <path d="M 12.40625 8.296875 
L 28.515625 8.296875 
L 28.515625 63.921875 
L 10.984375 60.40625 
L 10.984375 69.390625 
L 28.421875 72.90625 
L 38.28125 72.90625 
L 38.28125 8.296875 
L 54.390625 8.296875 
L 54.390625 0 
L 12.40625 0 
z
" id="DejaVuSans-49"/>
       </defs>
       <use xlink:href="#DejaVuSans-50"/>
       <use x="63.623047" xlink:href="#DejaVuSans-48"/>
       <use x="127.246094" xlink:href="#DejaVuSans-50"/>
       <use x="190.869141" xlink:href="#DejaVuSans-48"/>
       <use x="254.492188" xlink:href="#DejaVuSans-45"/>
       <use x="290.576172" xlink:href="#DejaVuSans-48"/>
       <use x="354.199219" xlink:href="#DejaVuSans-49"/>
      </g>
     </g>
    </g>
    <g id="xtick_2">
     <g id="line2d_2">
      <g>
       <use style="stroke:#000000;stroke-width:0.8;" x="214.318804" xlink:href="#m532ffdd52a" y="460.8"/>
      </g>
     </g>
     <g id="text_2">
      <!-- 2020-04 -->
      <g transform="translate(169.64902 500.766215)rotate(-30)scale(0.12 -0.12)">
       <defs>
        <path d="M 37.796875 64.3125 
L 12.890625 25.390625 
L 37.796875 25.390625 
z
M 35.203125 72.90625 
L 47.609375 72.90625 
L 47.609375 25.390625 
L 58.015625 25.390625 
L 58.015625 17.1875 
L 47.609375 17.1875 
L 47.609375 0 
L 37.796875 0 
L 37.796875 17.1875 
L 4.890625 17.1875 
L 4.890625 26.703125 
z
" id="DejaVuSans-52"/>
       </defs>
       <use xlink:href="#DejaVuSans-50"/>
       <use x="63.623047" xlink:href="#DejaVuSans-48"/>
       <use x="127.246094" xlink:href="#DejaVuSans-50"/>
       <use x="190.869141" xlink:href="#DejaVuSans-48"/>
       <use x="254.492188" xlink:href="#DejaVuSans-45"/>
       <use x="290.576172" xlink:href="#DejaVuSans-48"/>
       <use x="354.199219" xlink:href="#DejaVuSans-52"/>
      </g>
     </g>
    </g>
    <g id="xtick_3">
     <g id="line2d_3">
      <g>
       <use style="stroke:#000000;stroke-width:0.8;" x="290.201245" xlink:href="#m532ffdd52a" y="460.8"/>
      </g>
     </g>
     <g id="text_3">
      <!-- 2020-07 -->
      <g transform="translate(245.53146 500.766215)rotate(-30)scale(0.12 -0.12)">
       <defs>
        <path d="M 8.203125 72.90625 
L 55.078125 72.90625 
L 55.078125 68.703125 
L 28.609375 0 
L 18.3125 0 
L 43.21875 64.59375 
L 8.203125 64.59375 
z
" id="DejaVuSans-55"/>
       </defs>
       <use xlink:href="#DejaVuSans-50"/>
       <use x="63.623047" xlink:href="#DejaVuSans-48"/>
       <use x="127.246094" xlink:href="#DejaVuSans-50"/>
       <use x="190.869141" xlink:href="#DejaVuSans-48"/>
       <use x="254.492188" xlink:href="#DejaVuSans-45"/>
       <use x="290.576172" xlink:href="#DejaVuSans-48"/>
       <use x="354.199219" xlink:href="#DejaVuSans-55"/>
      </g>
     </g>
    </g>
    <g id="xtick_4">
     <g id="line2d_4">
      <g>
       <use style="stroke:#000000;stroke-width:0.8;" x="366.917559" xlink:href="#m532ffdd52a" y="460.8"/>
      </g>
     </g>
     <g id="text_4">
      <!-- 2020-10 -->
      <g transform="translate(322.247774 500.766215)rotate(-30)scale(0.12 -0.12)">
       <use xlink:href="#DejaVuSans-50"/>
       <use x="63.623047" xlink:href="#DejaVuSans-48"/>
       <use x="127.246094" xlink:href="#DejaVuSans-50"/>
       <use x="190.869141" xlink:href="#DejaVuSans-48"/>
       <use x="254.492188" xlink:href="#DejaVuSans-45"/>
       <use x="290.576172" xlink:href="#DejaVuSans-49"/>
       <use x="354.199219" xlink:href="#DejaVuSans-48"/>
      </g>
     </g>
    </g>
    <g id="xtick_5">
     <g id="line2d_5">
      <g>
       <use style="stroke:#000000;stroke-width:0.8;" x="443.633873" xlink:href="#m532ffdd52a" y="460.8"/>
      </g>
     </g>
     <g id="text_5">
      <!-- 2021-01 -->
      <g transform="translate(398.964088 500.766215)rotate(-30)scale(0.12 -0.12)">
       <use xlink:href="#DejaVuSans-50"/>
       <use x="63.623047" xlink:href="#DejaVuSans-48"/>
       <use x="127.246094" xlink:href="#DejaVuSans-50"/>
       <use x="190.869141" xlink:href="#DejaVuSans-49"/>
       <use x="254.492188" xlink:href="#DejaVuSans-45"/>
       <use x="290.576172" xlink:href="#DejaVuSans-48"/>
       <use x="354.199219" xlink:href="#DejaVuSans-49"/>
      </g>
     </g>
    </g>
    <g id="xtick_6">
     <g id="line2d_6">
      <g>
       <use style="stroke:#000000;stroke-width:0.8;" x="518.682441" xlink:href="#m532ffdd52a" y="460.8"/>
      </g>
     </g>
     <g id="text_6">
      <!-- 2021-04 -->
      <g transform="translate(474.012656 500.766215)rotate(-30)scale(0.12 -0.12)">
       <use xlink:href="#DejaVuSans-50"/>
       <use x="63.623047" xlink:href="#DejaVuSans-48"/>
       <use x="127.246094" xlink:href="#DejaVuSans-50"/>
       <use x="190.869141" xlink:href="#DejaVuSans-49"/>
       <use x="254.492188" xlink:href="#DejaVuSans-45"/>
       <use x="290.576172" xlink:href="#DejaVuSans-48"/>
       <use x="354.199219" xlink:href="#DejaVuSans-52"/>
      </g>
     </g>
    </g>
    <g id="xtick_7">
     <g id="line2d_7">
      <g>
       <use style="stroke:#000000;stroke-width:0.8;" x="594.564882" xlink:href="#m532ffdd52a" y="460.8"/>
      </g>
     </g>
     <g id="text_7">
      <!-- 2021-07 -->
      <g transform="translate(549.895097 500.766215)rotate(-30)scale(0.12 -0.12)">
       <use xlink:href="#DejaVuSans-50"/>
       <use x="63.623047" xlink:href="#DejaVuSans-48"/>
       <use x="127.246094" xlink:href="#DejaVuSans-50"/>
       <use x="190.869141" xlink:href="#DejaVuSans-49"/>
       <use x="254.492188" xlink:href="#DejaVuSans-45"/>
       <use x="290.576172" xlink:href="#DejaVuSans-48"/>
       <use x="354.199219" xlink:href="#DejaVuSans-55"/>
      </g>
     </g>
    </g>
    <g id="xtick_8">
     <g id="line2d_8">
      <g>
       <use style="stroke:#000000;stroke-width:0.8;" x="671.281196" xlink:href="#m532ffdd52a" y="460.8"/>
      </g>
     </g>
     <g id="text_8">
      <!-- 2021-10 -->
      <g transform="translate(626.611411 500.766215)rotate(-30)scale(0.12 -0.12)">
       <use xlink:href="#DejaVuSans-50"/>
       <use x="63.623047" xlink:href="#DejaVuSans-48"/>
       <use x="127.246094" xlink:href="#DejaVuSans-50"/>
       <use x="190.869141" xlink:href="#DejaVuSans-49"/>
       <use x="254.492188" xlink:href="#DejaVuSans-45"/>
       <use x="290.576172" xlink:href="#DejaVuSans-49"/>
       <use x="354.199219" xlink:href="#DejaVuSans-48"/>
      </g>
     </g>
    </g>
    <g id="xtick_9">
     <g id="line2d_9">
      <g>
       <use style="stroke:#000000;stroke-width:0.8;" x="747.997509" xlink:href="#m532ffdd52a" y="460.8"/>
      </g>
     </g>
     <g id="text_9">
      <!-- 2022-01 -->
      <g transform="translate(703.327724 500.766215)rotate(-30)scale(0.12 -0.12)">
       <use xlink:href="#DejaVuSans-50"/>
       <use x="63.623047" xlink:href="#DejaVuSans-48"/>
       <use x="127.246094" xlink:href="#DejaVuSans-50"/>
       <use x="190.869141" xlink:href="#DejaVuSans-50"/>
       <use x="254.492188" xlink:href="#DejaVuSans-45"/>
       <use x="290.576172" xlink:href="#DejaVuSans-48"/>
       <use x="354.199219" xlink:href="#DejaVuSans-49"/>
      </g>
     </g>
    </g>
    <g id="text_10">
     <!-- Date -->
     <g transform="translate(424.873828 518.325146)scale(0.15 -0.15)">
      <defs>
       <path d="M 19.671875 64.796875 
L 19.671875 8.109375 
L 31.59375 8.109375 
Q 46.6875 8.109375 53.6875 14.9375 
Q 60.6875 21.78125 60.6875 36.53125 
Q 60.6875 51.171875 53.6875 57.984375 
Q 46.6875 64.796875 31.59375 64.796875 
z
M 9.8125 72.90625 
L 30.078125 72.90625 
Q 51.265625 72.90625 61.171875 64.09375 
Q 71.09375 55.28125 71.09375 36.53125 
Q 71.09375 17.671875 61.125 8.828125 
Q 51.171875 0 30.078125 0 
L 9.8125 0 
z
" id="DejaVuSans-68"/>
       <path d="M 34.28125 27.484375 
Q 23.390625 27.484375 19.1875 25 
Q 14.984375 22.515625 14.984375 16.5 
Q 14.984375 11.71875 18.140625 8.90625 
Q 21.296875 6.109375 26.703125 6.109375 
Q 34.1875 6.109375 38.703125 11.40625 
Q 43.21875 16.703125 43.21875 25.484375 
L 43.21875 27.484375 
z
M 52.203125 31.203125 
L 52.203125 0 
L 43.21875 0 
L 43.21875 8.296875 
Q 40.140625 3.328125 35.546875 0.953125 
Q 30.953125 -1.421875 24.3125 -1.421875 
Q 15.921875 -1.421875 10.953125 3.296875 
Q 6 8.015625 6 15.921875 
Q 6 25.140625 12.171875 29.828125 
Q 18.359375 34.515625 30.609375 34.515625 
L 43.21875 34.515625 
L 43.21875 35.40625 
Q 43.21875 41.609375 39.140625 45 
Q 35.0625 48.390625 27.6875 48.390625 
Q 23 48.390625 18.546875 47.265625 
Q 14.109375 46.140625 10.015625 43.890625 
L 10.015625 52.203125 
Q 14.9375 54.109375 19.578125 55.046875 
Q 24.21875 56 28.609375 56 
Q 40.484375 56 46.34375 49.84375 
Q 52.203125 43.703125 52.203125 31.203125 
z
" id="DejaVuSans-97"/>
       <path d="M 18.3125 70.21875 
L 18.3125 54.6875 
L 36.8125 54.6875 
L 36.8125 47.703125 
L 18.3125 47.703125 
L 18.3125 18.015625 
Q 18.3125 11.328125 20.140625 9.421875 
Q 21.96875 7.515625 27.59375 7.515625 
L 36.8125 7.515625 
L 36.8125 0 
L 27.59375 0 
Q 17.1875 0 13.234375 3.875 
Q 9.28125 7.765625 9.28125 18.015625 
L 9.28125 47.703125 
L 2.6875 47.703125 
L 2.6875 54.6875 
L 9.28125 54.6875 
L 9.28125 70.21875 
z
" id="DejaVuSans-116"/>
       <path d="M 56.203125 29.59375 
L 56.203125 25.203125 
L 14.890625 25.203125 
Q 15.484375 15.921875 20.484375 11.0625 
Q 25.484375 6.203125 34.421875 6.203125 
Q 39.59375 6.203125 44.453125 7.46875 
Q 49.3125 8.734375 54.109375 11.28125 
L 54.109375 2.78125 
Q 49.265625 0.734375 44.1875 -0.34375 
Q 39.109375 -1.421875 33.890625 -1.421875 
Q 20.796875 -1.421875 13.15625 6.1875 
Q 5.515625 13.8125 5.515625 26.8125 
Q 5.515625 40.234375 12.765625 48.109375 
Q 20.015625 56 32.328125 56 
Q 43.359375 56 49.78125 48.890625 
Q 56.203125 41.796875 56.203125 29.59375 
z
M 47.21875 32.234375 
Q 47.125 39.59375 43.09375 43.984375 
Q 39.0625 48.390625 32.421875 48.390625 
Q 24.90625 48.390625 20.390625 44.140625 
Q 15.875 39.890625 15.1875 32.171875 
z
" id="DejaVuSans-101"/>
      </defs>
      <use xlink:href="#DejaVuSans-68"/>
      <use x="77.001953" xlink:href="#DejaVuSans-97"/>
      <use x="138.28125" xlink:href="#DejaVuSans-116"/>
      <use x="177.490234" xlink:href="#DejaVuSans-101"/>
     </g>
    </g>
   </g>
   <g id="matplotlib.axis_2">
    <g id="ytick_1">
     <g id="line2d_10">
      <defs>
       <path d="M 0 0 
L -3.5 0 
" id="m4650018233" style="stroke:#000000;stroke-width:0.8;"/>
      </defs>
      <g>
       <use style="stroke:#000000;stroke-width:0.8;" x="108" xlink:href="#m4650018233" y="445.427914"/>
      </g>
     </g>
     <g id="text_11">
      <!-- 0.0 -->
      <g transform="translate(81.91625 449.986976)scale(0.12 -0.12)">
       <defs>
        <path d="M 10.6875 12.40625 
L 21 12.40625 
L 21 0 
L 10.6875 0 
z
" id="DejaVuSans-46"/>
       </defs>
       <use xlink:href="#DejaVuSans-48"/>
       <use x="63.623047" xlink:href="#DejaVuSans-46"/>
       <use x="95.410156" xlink:href="#DejaVuSans-48"/>
      </g>
     </g>
    </g>
    <g id="ytick_2">
     <g id="line2d_11">
      <g>
       <use style="stroke:#000000;stroke-width:0.8;" x="108" xlink:href="#m4650018233" y="385.530806"/>
      </g>
     </g>
     <g id="text_12">
      <!-- 0.5 -->
      <g transform="translate(81.91625 390.089869)scale(0.12 -0.12)">
       <defs>
        <path d="M 10.796875 72.90625 
L 49.515625 72.90625 
L 49.515625 64.59375 
L 19.828125 64.59375 
L 19.828125 46.734375 
Q 21.96875 47.46875 24.109375 47.828125 
Q 26.265625 48.1875 28.421875 48.1875 
Q 40.625 48.1875 47.75 41.5 
Q 54.890625 34.8125 54.890625 23.390625 
Q 54.890625 11.625 47.5625 5.09375 
Q 40.234375 -1.421875 26.90625 -1.421875 
Q 22.3125 -1.421875 17.546875 -0.640625 
Q 12.796875 0.140625 7.71875 1.703125 
L 7.71875 11.625 
Q 12.109375 9.234375 16.796875 8.0625 
Q 21.484375 6.890625 26.703125 6.890625 
Q 35.15625 6.890625 40.078125 11.328125 
Q 45.015625 15.765625 45.015625 23.390625 
Q 45.015625 31 40.078125 35.4375 
Q 35.15625 39.890625 26.703125 39.890625 
Q 22.75 39.890625 18.8125 39.015625 
Q 14.890625 38.140625 10.796875 36.28125 
z
" id="DejaVuSans-53"/>
       </defs>
       <use xlink:href="#DejaVuSans-48"/>
       <use x="63.623047" xlink:href="#DejaVuSans-46"/>
       <use x="95.410156" xlink:href="#DejaVuSans-53"/>
      </g>
     </g>
    </g>
    <g id="ytick_3">
     <g id="line2d_12">
      <g>
       <use style="stroke:#000000;stroke-width:0.8;" x="108" xlink:href="#m4650018233" y="325.633698"/>
      </g>
     </g>
     <g id="text_13">
      <!-- 1.0 -->
      <g transform="translate(81.91625 330.192761)scale(0.12 -0.12)">
       <use xlink:href="#DejaVuSans-49"/>
       <use x="63.623047" xlink:href="#DejaVuSans-46"/>
       <use x="95.410156" xlink:href="#DejaVuSans-48"/>
      </g>
     </g>
    </g>
    <g id="ytick_4">
     <g id="line2d_13">
      <g>
       <use style="stroke:#000000;stroke-width:0.8;" x="108" xlink:href="#m4650018233" y="265.73659"/>
      </g>
     </g>
     <g id="text_14">
      <!-- 1.5 -->
      <g transform="translate(81.91625 270.295653)scale(0.12 -0.12)">
       <use xlink:href="#DejaVuSans-49"/>
       <use x="63.623047" xlink:href="#DejaVuSans-46"/>
       <use x="95.410156" xlink:href="#DejaVuSans-53"/>
      </g>
     </g>
    </g>
    <g id="ytick_5">
     <g id="line2d_14">
      <g>
       <use style="stroke:#000000;stroke-width:0.8;" x="108" xlink:href="#m4650018233" y="205.839482"/>
      </g>
     </g>
     <g id="text_15">
      <!-- 2.0 -->
      <g transform="translate(81.91625 210.398545)scale(0.12 -0.12)">
       <use xlink:href="#DejaVuSans-50"/>
       <use x="63.623047" xlink:href="#DejaVuSans-46"/>
       <use x="95.410156" xlink:href="#DejaVuSans-48"/>
      </g>
     </g>
    </g>
    <g id="ytick_6">
     <g id="line2d_15">
      <g>
       <use style="stroke:#000000;stroke-width:0.8;" x="108" xlink:href="#m4650018233" y="145.942374"/>
      </g>
     </g>
     <g id="text_16">
      <!-- 2.5 -->
      <g transform="translate(81.91625 150.501437)scale(0.12 -0.12)">
       <use xlink:href="#DejaVuSans-50"/>
       <use x="63.623047" xlink:href="#DejaVuSans-46"/>
       <use x="95.410156" xlink:href="#DejaVuSans-53"/>
      </g>
     </g>
    </g>
    <g id="ytick_7">
     <g id="line2d_16">
      <g>
       <use style="stroke:#000000;stroke-width:0.8;" x="108" xlink:href="#m4650018233" y="86.045266"/>
      </g>
     </g>
     <g id="text_17">
      <!-- 3.0 -->
      <g transform="translate(81.91625 90.604329)scale(0.12 -0.12)">
       <defs>
        <path d="M 40.578125 39.3125 
Q 47.65625 37.796875 51.625 33 
Q 55.609375 28.21875 55.609375 21.1875 
Q 55.609375 10.40625 48.1875 4.484375 
Q 40.765625 -1.421875 27.09375 -1.421875 
Q 22.515625 -1.421875 17.65625 -0.515625 
Q 12.796875 0.390625 7.625 2.203125 
L 7.625 11.71875 
Q 11.71875 9.328125 16.59375 8.109375 
Q 21.484375 6.890625 26.8125 6.890625 
Q 36.078125 6.890625 40.9375 10.546875 
Q 45.796875 14.203125 45.796875 21.1875 
Q 45.796875 27.640625 41.28125 31.265625 
Q 36.765625 34.90625 28.71875 34.90625 
L 20.21875 34.90625 
L 20.21875 43.015625 
L 29.109375 43.015625 
Q 36.375 43.015625 40.234375 45.921875 
Q 44.09375 48.828125 44.09375 54.296875 
Q 44.09375 59.90625 40.109375 62.90625 
Q 36.140625 65.921875 28.71875 65.921875 
Q 24.65625 65.921875 20.015625 65.03125 
Q 15.375 64.15625 9.8125 62.3125 
L 9.8125 71.09375 
Q 15.4375 72.65625 20.34375 73.4375 
Q 25.25 74.21875 29.59375 74.21875 
Q 40.828125 74.21875 47.359375 69.109375 
Q 53.90625 64.015625 53.90625 55.328125 
Q 53.90625 49.265625 50.4375 45.09375 
Q 46.96875 40.921875 40.578125 39.3125 
z
" id="DejaVuSans-51"/>
       </defs>
       <use xlink:href="#DejaVuSans-51"/>
       <use x="63.623047" xlink:href="#DejaVuSans-46"/>
       <use x="95.410156" xlink:href="#DejaVuSans-48"/>
      </g>
     </g>
    </g>
    <g id="text_18">
     <!-- CO(ppm) -->
     <g transform="translate(74.796719 298.781484)rotate(-90)scale(0.15 -0.15)">
      <defs>
       <path d="M 64.40625 67.28125 
L 64.40625 56.890625 
Q 59.421875 61.53125 53.78125 63.8125 
Q 48.140625 66.109375 41.796875 66.109375 
Q 29.296875 66.109375 22.65625 58.46875 
Q 16.015625 50.828125 16.015625 36.375 
Q 16.015625 21.96875 22.65625 14.328125 
Q 29.296875 6.6875 41.796875 6.6875 
Q 48.140625 6.6875 53.78125 8.984375 
Q 59.421875 11.28125 64.40625 15.921875 
L 64.40625 5.609375 
Q 59.234375 2.09375 53.4375 0.328125 
Q 47.65625 -1.421875 41.21875 -1.421875 
Q 24.65625 -1.421875 15.125 8.703125 
Q 5.609375 18.84375 5.609375 36.375 
Q 5.609375 53.953125 15.125 64.078125 
Q 24.65625 74.21875 41.21875 74.21875 
Q 47.75 74.21875 53.53125 72.484375 
Q 59.328125 70.75 64.40625 67.28125 
z
" id="DejaVuSans-67"/>
       <path d="M 39.40625 66.21875 
Q 28.65625 66.21875 22.328125 58.203125 
Q 16.015625 50.203125 16.015625 36.375 
Q 16.015625 22.609375 22.328125 14.59375 
Q 28.65625 6.59375 39.40625 6.59375 
Q 50.140625 6.59375 56.421875 14.59375 
Q 62.703125 22.609375 62.703125 36.375 
Q 62.703125 50.203125 56.421875 58.203125 
Q 50.140625 66.21875 39.40625 66.21875 
z
M 39.40625 74.21875 
Q 54.734375 74.21875 63.90625 63.9375 
Q 73.09375 53.65625 73.09375 36.375 
Q 73.09375 19.140625 63.90625 8.859375 
Q 54.734375 -1.421875 39.40625 -1.421875 
Q 24.03125 -1.421875 14.8125 8.828125 
Q 5.609375 19.09375 5.609375 36.375 
Q 5.609375 53.65625 14.8125 63.9375 
Q 24.03125 74.21875 39.40625 74.21875 
z
" id="DejaVuSans-79"/>
       <path d="M 31 75.875 
Q 24.46875 64.65625 21.28125 53.65625 
Q 18.109375 42.671875 18.109375 31.390625 
Q 18.109375 20.125 21.3125 9.0625 
Q 24.515625 -2 31 -13.1875 
L 23.1875 -13.1875 
Q 15.875 -1.703125 12.234375 9.375 
Q 8.59375 20.453125 8.59375 31.390625 
Q 8.59375 42.28125 12.203125 53.3125 
Q 15.828125 64.359375 23.1875 75.875 
z
" id="DejaVuSans-40"/>
       <path d="M 18.109375 8.203125 
L 18.109375 -20.796875 
L 9.078125 -20.796875 
L 9.078125 54.6875 
L 18.109375 54.6875 
L 18.109375 46.390625 
Q 20.953125 51.265625 25.265625 53.625 
Q 29.59375 56 35.59375 56 
Q 45.5625 56 51.78125 48.09375 
Q 58.015625 40.1875 58.015625 27.296875 
Q 58.015625 14.40625 51.78125 6.484375 
Q 45.5625 -1.421875 35.59375 -1.421875 
Q 29.59375 -1.421875 25.265625 0.953125 
Q 20.953125 3.328125 18.109375 8.203125 
z
M 48.6875 27.296875 
Q 48.6875 37.203125 44.609375 42.84375 
Q 40.53125 48.484375 33.40625 48.484375 
Q 26.265625 48.484375 22.1875 42.84375 
Q 18.109375 37.203125 18.109375 27.296875 
Q 18.109375 17.390625 22.1875 11.75 
Q 26.265625 6.109375 33.40625 6.109375 
Q 40.53125 6.109375 44.609375 11.75 
Q 48.6875 17.390625 48.6875 27.296875 
z
" id="DejaVuSans-112"/>
       <path d="M 52 44.1875 
Q 55.375 50.25 60.0625 53.125 
Q 64.75 56 71.09375 56 
Q 79.640625 56 84.28125 50.015625 
Q 88.921875 44.046875 88.921875 33.015625 
L 88.921875 0 
L 79.890625 0 
L 79.890625 32.71875 
Q 79.890625 40.578125 77.09375 44.375 
Q 74.3125 48.1875 68.609375 48.1875 
Q 61.625 48.1875 57.5625 43.546875 
Q 53.515625 38.921875 53.515625 30.90625 
L 53.515625 0 
L 44.484375 0 
L 44.484375 32.71875 
Q 44.484375 40.625 41.703125 44.40625 
Q 38.921875 48.1875 33.109375 48.1875 
Q 26.21875 48.1875 22.15625 43.53125 
Q 18.109375 38.875 18.109375 30.90625 
L 18.109375 0 
L 9.078125 0 
L 9.078125 54.6875 
L 18.109375 54.6875 
L 18.109375 46.1875 
Q 21.1875 51.21875 25.484375 53.609375 
Q 29.78125 56 35.6875 56 
Q 41.65625 56 45.828125 52.96875 
Q 50 49.953125 52 44.1875 
z
" id="DejaVuSans-109"/>
       <path d="M 8.015625 75.875 
L 15.828125 75.875 
Q 23.140625 64.359375 26.78125 53.3125 
Q 30.421875 42.28125 30.421875 31.390625 
Q 30.421875 20.453125 26.78125 9.375 
Q 23.140625 -1.703125 15.828125 -13.1875 
L 8.015625 -13.1875 
Q 14.5 -2 17.703125 9.0625 
Q 20.90625 20.125 20.90625 31.390625 
Q 20.90625 42.671875 17.703125 53.65625 
Q 14.5 64.65625 8.015625 75.875 
z
" id="DejaVuSans-41"/>
      </defs>
      <use xlink:href="#DejaVuSans-67"/>
      <use x="69.824219" xlink:href="#DejaVuSans-79"/>
      <use x="148.535156" xlink:href="#DejaVuSans-40"/>
      <use x="187.548828" xlink:href="#DejaVuSans-112"/>
      <use x="251.025391" xlink:href="#DejaVuSans-112"/>
      <use x="314.501953" xlink:href="#DejaVuSans-109"/>
      <use x="411.914062" xlink:href="#DejaVuSans-41"/>
     </g>
    </g>
   </g>
   <g id="line2d_17">
    <path clip-path="url(#pf60816ae9e)" d="M 138.436364 341.719717 
L 139.270237 368.138769 
L 140.10411 388.415242 
L 141.771856 402.66841 
L 142.605729 398.293246 
L 143.439601 388.594152 
L 144.273474 369.987506 
L 145.107347 346.16422 
L 145.94122 362.443466 
L 146.775093 361.10164 
L 147.608966 325.558176 
L 148.442839 329.79238 
L 149.276712 359.252903 
L 150.110585 362.711831 
L 150.944458 352.454321 
L 151.778331 304.566062 
L 152.612204 318.521047 
L 153.446077 315.300666 
L 154.27995 332.08026 
L 155.113823 333.264862 
L 155.947696 352.59257 
L 156.781569 376.195999 
L 157.615442 375.037649 
L 158.449315 366.683092 
L 159.283188 340.2288 
L 160.117061 361.508254 
L 160.950934 375.175898 
L 161.784807 369.138394 
L 162.61868 384.240674 
L 163.452553 382.3323 
L 164.286426 380.960657 
L 165.120299 373.684981 
L 165.954172 375.175898 
L 166.788045 350.724857 
L 167.621918 354.660878 
L 168.455791 374.818078 
L 169.289664 366.111122 
L 170.123537 365.872575 
L 171.791283 359.729997 
L 172.625156 358.952009 
L 174.292902 368.854409 
L 175.126775 370.444721 
L 175.960648 371.776607 
L 176.794521 344.403368 
L 177.628394 378.903191 
L 178.462267 396.585468 
L 179.296139 391.33744 
L 180.130012 388.355606 
L 180.963885 389.190519 
L 181.797758 368.198406 
L 182.631631 366.051485 
L 183.465504 383.346124 
L 184.299377 394.801789 
L 185.13325 397.658929 
L 185.967123 397.480019 
L 186.800996 393.603634 
L 187.634869 394.021091 
L 188.468742 390.97962 
L 189.302615 381.139567 
L 190.136488 381.855207 
L 190.970361 374.877715 
L 191.804234 360.20709 
L 192.638107 384.598495 
L 193.47198 385.015951 
L 194.305853 386.387595 
L 195.139726 389.727249 
L 195.973599 352.221454 
L 196.807472 365.335845 
L 197.641345 373.446434 
L 198.475218 375.593355 
L 199.309091 361.340187 
L 200.142964 366.767125 
L 200.976837 386.506868 
L 201.81071 388.653789 
L 202.644583 381.199203 
L 203.478456 375.414445 
L 204.312329 361.042004 
L 205.146202 376.786089 
L 205.980075 382.093754 
L 206.813948 384.419584 
L 207.647821 384.749006 
L 208.481694 388.94113 
L 209.315567 384.419584 
L 210.14944 387.520692 
L 210.983313 366.528579 
L 211.817186 379.410103 
L 212.651059 352.275411 
L 213.484932 335.696412 
L 214.318804 343.389545 
L 215.152677 360.982367 
L 215.98655 367.482766 
L 216.820423 360.624547 
L 217.654296 366.588215 
L 218.488169 375.712628 
L 219.322042 367.309535 
L 220.989788 402.4895 
L 221.823661 397.301109 
L 223.491407 375.235535 
L 224.32528 402.012407 
L 225.993026 383.047941 
L 226.826899 389.548339 
L 227.660772 390.383253 
L 228.494645 389.011609 
L 229.328518 386.685779 
L 230.162391 389.011609 
L 230.996264 388.468602 
L 231.830137 375.652992 
L 232.66401 351.894872 
L 233.497883 362.115464 
L 234.331756 365.216572 
L 235.165629 345.536465 
L 235.999502 359.968543 
L 236.833375 386.268322 
L 237.667248 387.759239 
L 238.501121 385.791228 
L 239.334994 386.327958 
L 240.168867 385.373771 
L 241.00274 381.43775 
L 241.836613 384.419584 
L 242.670486 386.268322 
L 243.504359 383.226851 
L 244.338232 384.046855 
L 245.172105 385.075588 
L 246.005978 382.749757 
L 246.839851 376.010812 
L 247.673724 383.107577 
L 248.507597 372.969341 
L 249.341469 370.166417 
L 250.175342 387.699602 
L 251.009215 395.631281 
L 251.843088 405.650245 
L 252.676961 404.576784 
L 253.510834 397.897475 
L 254.344707 395.989101 
L 255.17858 395.134309 
L 256.012453 396.525832 
L 256.846326 383.405761 
L 257.680199 387.639965 
L 258.514072 391.218167 
L 259.347945 388.236332 
L 260.181818 401.77386 
L 261.015691 384.956315 
L 261.849564 384.300311 
L 262.683437 398.434206 
L 263.51731 403.264777 
L 264.351183 403.264777 
L 265.185056 404.040054 
L 266.018929 400.998583 
L 266.852802 400.555568 
L 267.686675 395.113527 
L 268.520548 387.195401 
L 269.354421 385.075588 
L 270.188294 387.750293 
L 271.022167 400.033037 
L 271.85604 399.306392 
L 272.689913 392.276718 
L 273.523786 390.125731 
L 274.357659 390.250426 
L 275.191532 384.950893 
L 276.025405 389.626951 
L 276.859278 391.559722 
L 278.527024 388.27609 
L 280.19477 387.753559 
L 281.028643 387.382443 
L 281.862516 388.44235 
L 282.696389 384.487741 
L 283.530262 385.725314 
L 285.198007 398.255296 
L 286.03188 397.480019 
L 286.865753 396.287285 
L 287.699626 393.126541 
L 288.533499 392.05308 
L 289.367372 392.505325 
L 290.201245 395.65684 
L 291.035118 409.466992 
L 291.868991 412.645628 
L 292.702864 429.529316 
L 293.536737 442.996364 
L 294.37061 418.93025 
L 295.204483 411.068237 
L 296.038356 416.74809 
L 296.872229 409.204049 
L 297.706102 409.204049 
L 298.539975 410.139261 
L 299.373848 411.510904 
L 300.207721 409.702828 
L 301.041594 407.520668 
L 301.875467 409.204049 
L 302.70934 411.323862 
L 304.377086 407.021888 
L 306.044832 399.066354 
L 306.878705 394.749286 
L 308.546451 388.317655 
L 311.04807 373.229574 
L 311.881943 371.795582 
L 312.715816 369.925159 
L 313.549689 364.304982 
L 315.217435 390.562163 
L 316.051308 392.276718 
L 316.885181 387.195401 
L 317.719054 381.023004 
L 318.552927 377.564205 
L 320.220672 369.426379 
L 321.054545 367.057177 
L 321.888418 363.441025 
L 322.722291 360.822432 
L 324.390037 350.909189 
L 325.22391 344.238012 
L 326.891656 335.50937 
L 327.725529 333.638947 
L 328.559402 330.459227 
L 331.061021 357.829755 
L 331.894894 353.340739 
L 332.728767 352.467875 
L 333.56264 359.014356 
L 334.396513 359.201399 
L 335.230386 351.158578 
L 336.064259 355.398205 
L 336.898132 365.872575 
L 337.732005 351.158578 
L 338.565878 342.679326 
L 340.233624 336.132844 
L 341.067497 344.487402 
L 343.569116 299.43358 
L 344.402989 324.03744 
L 345.236862 321.481195 
L 346.070735 319.984856 
L 346.904608 341.432377 
L 347.738481 350.659799 
L 348.572354 357.20628 
L 349.406227 372.297643 
L 350.2401 373.728353 
L 351.073973 359.201399 
L 351.907846 352.031443 
L 352.741719 351.8444 
L 353.575592 358.753091 
L 354.409465 358.889661 
L 355.243337 353.839518 
L 356.07721 363.129288 
L 356.911083 377.21981 
L 357.744956 374.227133 
L 358.578829 368.42882 
L 359.412702 357.70506 
L 360.246575 355.647594 
L 361.080448 329.8981 
L 361.914321 321.294153 
L 362.748194 338.938479 
L 363.582067 343.988622 
L 364.41594 345.921393 
L 365.249813 365.598246 
L 366.083686 375.598776 
L 366.917559 387.320096 
L 367.751432 383.361033 
L 368.585305 380.39953 
L 370.253051 370.985066 
L 371.086924 342.866368 
L 371.920797 350.846841 
L 372.75467 348.165901 
L 373.588543 343.3028 
L 375.256289 351.407968 
L 376.090162 356.146374 
L 376.924035 373.603658 
L 377.757908 368.740558 
L 378.591781 382.822173 
L 379.425654 392.139553 
L 380.259527 383.018122 
L 381.0934 376.409293 
L 381.927273 381.085352 
L 382.761146 378.529106 
L 383.595019 377.600129 
L 384.428892 375.656967 
L 385.262765 387.453104 
L 386.096638 372.936541 
L 386.930511 367.992388 
L 387.764384 373.167226 
L 388.598257 369.738117 
L 389.43213 364.500931 
L 390.266002 337.068056 
L 391.099875 329.835752 
L 391.933748 352.717264 
L 392.767621 345.048529 
L 393.601494 324.473872 
L 394.435367 323.78805 
L 395.26924 345.235571 
L 396.103113 379.393064 
L 396.936986 347.667121 
L 397.770859 344.674444 
L 398.604732 344.986181 
L 399.438605 361.445907 
L 400.272478 363.877457 
L 401.106351 385.76141 
L 401.940224 386.135495 
L 402.774097 379.214928 
L 403.60797 373.853048 
L 404.441843 370.049854 
L 405.275716 369.007761 
L 406.109589 387.024766 
L 406.943462 387.818876 
L 407.777335 382.207606 
L 408.611208 384.202724 
L 409.445081 356.146374 
L 410.278954 359.949568 
L 411.112827 345.173224 
L 411.9467 334.075379 
L 412.780573 369.301685 
L 413.614446 386.512548 
L 414.448319 361.82296 
L 415.282192 366.184312 
L 416.116065 353.216044 
L 416.949938 358.016797 
L 418.617684 380.337182 
L 419.451557 382.920148 
L 420.28543 374.886234 
L 421.119303 359.139051 
L 421.953176 350.784494 
L 422.787049 335.162995 
L 423.620922 357.642713 
L 424.454795 348.228248 
L 425.288667 335.883455 
L 426.12254 347.766877 
L 426.956413 339.680711 
L 427.790286 365.872575 
L 428.624159 317.241569 
L 429.458032 335.75876 
L 430.291905 347.480079 
L 431.125778 351.437657 
L 431.959651 352.405527 
L 432.793524 359.201399 
L 433.627397 353.854363 
L 434.46127 350.971536 
L 435.295143 326.157253 
L 436.129016 312.56551 
L 436.962889 319.361382 
L 437.796762 312.253773 
L 438.630635 337.566836 
L 439.464508 319.299034 
L 440.298381 358.827314 
L 441.132254 374.463397 
L 441.966127 333.576599 
L 442.8 395.737001 
L 443.633873 395.612306 
L 444.467746 391.746765 
L 445.301619 374.42902 
L 446.135492 371.172108 
L 446.969365 360.660329 
L 447.803238 378.404411 
L 448.637111 358.079145 
L 449.470984 385.387325 
L 450.304857 401.84705 
L 451.13873 391.933807 
L 451.972603 387.694181 
L 452.806476 379.152581 
L 453.640349 377.406852 
L 454.474222 371.421498 
L 455.308095 373.229574 
L 456.141968 373.790701 
L 456.975841 349.020952 
L 457.809714 366.620745 
L 458.643587 372.356709 
L 459.47746 375.536429 
L 460.311333 365.685533 
L 461.145205 361.383559 
L 461.979078 392.002389 
L 462.812951 399.103763 
L 463.646824 392.619629 
L 464.480697 382.58169 
L 465.31457 367.129915 
L 466.148443 340.933598 
L 466.982316 363.752762 
L 467.816189 380.586572 
L 468.650062 393.492493 
L 469.483935 390.063384 
L 470.317808 376.268191 
L 471.151681 376.519144 
L 471.985554 387.382443 
L 472.819427 390.001036 
L 473.6533 381.708826 
L 474.487173 376.533988 
L 475.321046 373.666006 
L 476.154919 378.155022 
L 476.988792 369.987506 
L 477.822665 363.253983 
L 478.656538 378.591454 
L 479.490411 378.591454 
L 480.324284 382.58169 
L 481.158157 368.989947 
L 481.99203 376.471641 
L 482.825903 361.953593 
L 483.659776 372.294362 
L 484.493649 379.027886 
L 485.327522 374.975302 
L 486.161395 369.738117 
L 486.995268 374.912955 
L 487.829141 376.035209 
L 488.663014 380.087792 
L 489.496887 377.344505 
L 490.33076 365.872575 
L 491.164633 342.429936 
L 491.998506 358.764967 
L 492.832379 359.824873 
L 493.666252 323.663355 
L 494.500125 371.070383 
L 495.333998 364.262385 
L 496.16787 365.514755 
L 497.001743 375.162344 
L 497.835616 344.105185 
L 498.669489 377.344505 
L 499.503362 382.630484 
L 500.337235 379.464318 
L 501.171108 379.713708 
L 502.004981 372.980184 
L 502.838854 362.568161 
L 503.672727 361.819991 
L 504.5066 373.603658 
L 505.340473 387.407382 
L 506.174346 392.978869 
L 507.008219 397.108645 
L 507.842092 400.163669 
L 508.675965 399.103763 
L 509.509838 352.405527 
L 510.343711 359.326094 
L 511.177584 367.867693 
L 512.011457 351.532663 
L 512.84533 365.807259 
L 513.679203 395.487611 
L 514.513076 389.252867 
L 515.346949 392.494934 
L 516.180822 398.542636 
L 517.014695 400.038975 
L 517.848568 402.657567 
L 518.682441 401.274048 
L 519.516314 399.16611 
L 520.350187 397.919161 
L 521.18406 344.612097 
L 522.017933 342.242894 
L 523.685679 379.339623 
L 524.519552 383.08047 
L 525.353425 354.462993 
L 526.187298 382.082911 
L 527.021171 384.826198 
L 527.855044 383.890987 
L 528.688917 386.883664 
L 529.52279 379.65136 
L 530.356663 381.61382 
L 531.190535 379.65136 
L 532.024408 361.632949 
L 532.858281 368.615863 
L 533.692154 379.963098 
L 534.526027 382.145258 
L 535.3599 382.768733 
L 536.193773 381.147699 
L 537.027646 368.802905 
L 537.861519 378.903191 
L 538.695392 376.346946 
L 539.529265 384.576808 
L 540.363138 381.459436 
L 541.197011 361.071822 
L 542.030884 333.701294 
L 542.864757 344.549749 
L 543.69863 341.307682 
L 544.532503 339.624301 
L 545.366376 370.486286 
L 546.200249 374.363703 
L 547.034122 356.021679 
L 547.867995 367.374852 
L 548.701868 386.260189 
L 549.535741 394.677094 
L 550.369614 399.851932 
L 551.203487 403.717474 
L 552.871233 399.602542 
L 553.705106 401.161229 
L 555.372852 398.979068 
L 556.206725 398.854373 
L 557.040598 399.4155 
L 557.874471 398.604983 
L 558.708344 396.859255 
L 559.542217 396.244687 
L 560.37609 398.293246 
L 561.209963 397.545077 
L 562.043836 398.480288 
L 562.877709 396.859255 
L 563.711582 395.852789 
L 564.545455 396.921602 
L 565.379328 396.98395 
L 566.2132 396.048738 
L 567.047073 396.360475 
L 567.880946 393.617188 
L 568.714819 389.564604 
L 569.548692 389.813994 
L 570.382565 388.324218 
L 571.216438 389.517101 
L 572.050311 370.486286 
L 572.884184 354.275951 
L 573.718057 354.338298 
L 574.55193 371.35915 
L 575.385803 374.351828 
L 576.219676 380.686328 
L 577.053549 384.452114 
L 577.887422 392.494934 
L 578.721295 310.009265 
L 579.555168 263.872156 
L 580.389041 267.571438 
L 581.222914 387.544547 
L 582.056787 388.005918 
L 582.89066 386.904446 
L 583.724533 386.12065 
L 584.558406 383.454554 
L 585.392279 382.082911 
L 586.226152 386.302848 
L 587.060025 396.98395 
L 587.893898 394.334183 
L 588.727771 404.216253 
L 589.561644 406.273719 
L 590.395517 409.453439 
L 591.22939 411.635599 
L 592.063263 413.131938 
L 592.897136 410.825082 
L 595.398755 402.123161 
L 596.232628 401.861895 
L 597.066501 405.400855 
L 597.900374 405.463202 
L 598.734247 397.358034 
L 599.56812 391.871459 
L 600.401993 391.871459 
L 601.235866 391.310332 
L 602.069738 391.247985 
L 602.903611 388.255308 
L 603.737484 387.94357 
L 604.571357 388.629392 
L 605.40523 390.499816 
L 606.239103 391.871459 
L 607.072976 388.537356 
L 607.906849 384.015681 
L 608.740722 391.247985 
L 609.574595 393.617188 
L 610.408468 391.185638 
L 611.242341 390.312773 
L 612.076214 391.110821 
L 612.910087 374.102438 
L 613.74396 366.994829 
L 614.577833 373.478963 
L 615.411706 378.840844 
L 616.245579 348.727028 
L 617.079452 360.011915 
L 617.913325 385.007006 
L 618.747198 421.922928 
L 620.414944 403.156347 
L 621.248817 388.754087 
L 622.08269 396.832535 
L 622.916563 370.673328 
L 623.750436 355.398205 
L 624.584309 351.283273 
L 625.418182 354.338298 
L 627.085928 370.049854 
L 627.919801 380.711267 
L 628.753674 384.327419 
L 629.587547 381.210046 
L 630.42142 375.411734 
L 631.255293 372.169667 
L 632.089166 372.793141 
L 632.923039 376.097556 
L 633.756912 378.867095 
L 634.590785 371.483845 
L 635.424658 373.569021 
L 636.258531 370.759056 
L 637.092403 364.189194 
L 637.926276 361.944686 
L 638.760149 368.42882 
L 639.594022 369.426379 
L 640.427895 369.738117 
L 641.261768 374.102438 
L 642.095641 368.9276 
L 642.929514 362.942245 
L 643.763387 358.827314 
L 644.59726 356.271069 
L 645.431133 363.628067 
L 646.265006 380.648919 
L 647.098879 381.352555 
L 647.932752 386.260189 
L 648.766625 390.250426 
L 649.600498 385.324978 
L 650.434371 377.344505 
L 651.268244 367.805346 
L 652.102117 372.58641 
L 652.93599 360.386 
L 653.769863 363.81511 
L 654.603736 360.087817 
L 655.437609 345.119009 
L 656.271482 358.000533 
L 657.105355 368.973683 
L 657.939228 359.13363 
L 658.773101 360.777898 
L 659.606974 354.720515 
L 660.440847 362.771468 
L 661.27472 374.519895 
L 662.108593 376.471641 
L 662.942466 375.175898 
L 663.776339 374.162074 
L 664.610212 371.00133 
L 665.444085 366.051485 
L 666.277958 354.362695 
L 667.945704 340.40771 
L 668.779577 337.783696 
L 669.61345 335.756049 
L 670.447323 332.516693 
L 671.281196 328.420737 
L 672.115068 345.417192 
L 672.948941 344.164822 
L 673.782814 339.632433 
L 674.616687 338.320426 
L 675.45056 336.233142 
L 676.284433 335.517502 
L 677.118306 346.788836 
L 677.952179 356.009803 
L 678.786052 348.976418 
L 679.619925 325.346736 
L 680.453798 344.710071 
L 681.287671 357.284892 
L 682.121544 349.174303 
L 682.955417 317.268676 
L 683.78929 308.2039 
L 684.623163 324.663625 
L 685.457036 336.471689 
L 686.290909 342.077538 
L 687.124782 354.541605 
L 687.958655 341.779354 
L 688.792528 342.554631 
L 689.626401 338.141516 
L 690.460274 331.283297 
L 691.294147 335.934959 
L 692.12802 328.119713 
L 692.961893 329.852017 
L 693.795766 341.838991 
L 694.629639 351.082677 
L 695.463512 344.999735 
L 696.297385 344.582278 
L 697.131258 351.380861 
L 697.965131 368.553515 
L 698.799004 359.076704 
L 699.632877 367.618304 
L 700.46675 371.751048 
L 701.300623 375.175898 
L 702.134496 372.015154 
L 702.968369 372.232014 
L 703.802242 395.264942 
L 704.636115 400.402216 
L 705.469988 394.796368 
L 706.303861 383.882854 
L 707.137733 381.79557 
L 707.971606 380.662473 
L 708.805479 374.877715 
L 709.639352 365.753302 
L 710.473225 360.266727 
L 711.307098 367.04827 
L 712.140971 360.843215 
L 712.974844 379.410103 
L 713.808717 379.767923 
L 714.64259 351.619407 
L 715.476463 368.675499 
L 716.310336 364.322021 
L 717.144209 351.738681 
L 717.978082 356.867436 
L 718.811955 360.74382 
L 719.645828 351.20195 
L 720.479701 345.417192 
L 721.313574 337.485513 
L 722.147447 372.671157 
L 722.98132 374.400621 
L 723.815193 377.433573 
L 724.649066 374.340985 
L 725.482939 359.67036 
L 726.316812 358.453229 
L 727.984558 371.597697 
L 728.818431 381.920807 
L 729.652304 387.209256 
L 730.486177 388.298951 
L 731.32005 368.258043 
L 732.153923 336.292779 
L 732.987796 346.013559 
L 733.821669 375.474082 
L 734.655542 379.529376 
L 735.489415 359.968543 
L 736.323288 364.441295 
L 737.157161 385.015951 
L 737.991034 386.089412 
L 738.824907 381.25884 
L 739.65878 382.690121 
L 740.492653 369.450776 
L 741.326526 350.545947 
L 742.160399 364.918388 
L 742.994271 357.761986 
L 743.828144 369.21223 
L 744.662017 359.84927 
L 745.49589 344.999735 
L 746.329763 354.303058 
L 747.163636 349.59176 
L 747.163636 349.59176 
" style="fill:none;stroke:#1f77b4;stroke-linecap:square;stroke-width:1.5;"/>
   </g>
   <g id="line2d_18">
    <path clip-path="url(#pf60816ae9e)" d="M 138.436364 193.460416 
L 139.270237 196.566814 
L 140.10411 276.428077 
L 140.937983 306.596481 
L 141.771856 303.467905 
L 142.605729 243.192262 
L 143.439601 273.72015 
L 144.273474 272.490478 
L 145.94122 198.691765 
L 146.775093 267.630581 
L 147.608966 290.138151 
L 148.442839 218.639212 
L 149.276712 297.468046 
L 150.110585 285.105731 
L 150.944458 270.087741 
L 151.778331 250.712003 
L 152.612204 277.836557 
L 153.446077 259.757481 
L 154.27995 167.155524 
L 155.113823 258.47627 
L 155.947696 198.528023 
L 156.781569 303.923941 
L 157.615442 280.73493 
L 158.449315 228.754535 
L 159.283188 219.526907 
L 160.117061 237.960227 
L 160.950934 302.080489 
L 161.784807 308.084689 
L 162.61868 357.079543 
L 163.452553 351.330772 
L 164.286426 330.298886 
L 165.120299 269.87706 
L 165.954172 246.576074 
L 166.788045 185.739961 
L 168.455791 235.793377 
L 169.289664 235.644288 
L 170.123537 257.445655 
L 170.95741 271.691893 
L 171.791283 248.478505 
L 172.625156 202.929385 
L 173.459029 189.226223 
L 174.292902 86.923636 
L 175.126775 214.86781 
L 175.960648 234.02327 
L 176.794521 249.528771 
L 177.628394 304.251481 
L 178.462267 340.702234 
L 179.296139 154.270982 
L 180.130012 274.645675 
L 180.963885 298.703602 
L 181.797758 278.494663 
L 182.631631 270.101479 
L 183.465504 218.677812 
L 184.299377 270.403199 
L 185.13325 292.96982 
L 186.800996 265.008637 
L 187.634869 317.242499 
L 188.468742 311.215364 
L 189.302615 243.258452 
L 190.136488 200.590597 
L 190.970361 232.164995 
L 191.804234 227.733344 
L 192.638107 228.064226 
L 193.47198 238.566566 
L 194.305853 268.861267 
L 195.139726 245.721424 
L 195.973599 241.923432 
L 196.807472 225.495877 
L 197.641345 190.034989 
L 198.475218 230.284085 
L 199.309091 297.050396 
L 200.142964 287.381228 
L 201.81071 203.35249 
L 202.644583 200.489462 
L 203.478456 226.111356 
L 204.312329 110.65928 
L 205.146202 118.938933 
L 205.980075 283.22098 
L 206.813948 311.070074 
L 207.647821 264.763925 
L 208.481694 248.399933 
L 209.315567 169.649828 
L 210.14944 245.590414 
L 210.983313 207.208619 
L 211.817186 251.515314 
L 212.651059 178.386003 
L 213.484932 172.148701 
L 214.318804 204.572852 
L 215.152677 193.629898 
L 215.98655 246.709584 
L 217.654296 197.00657 
L 218.488169 188.674764 
L 219.322042 163.196661 
L 220.155915 170.580807 
L 220.989788 315.134685 
L 221.823661 316.781878 
L 222.657534 260.969988 
L 223.491407 300.890288 
L 224.32528 317.766667 
L 225.159153 278.903231 
L 225.993026 319.200652 
L 226.826899 284.458778 
L 227.660772 315.627622 
L 228.494645 258.168652 
L 229.328518 311.662261 
L 230.162391 321.355806 
L 230.996264 287.696029 
L 231.830137 233.502914 
L 232.66401 240.947083 
L 233.497883 225.502032 
L 234.331756 222.842073 
L 235.165629 247.397579 
L 236.833375 361.793292 
L 237.667248 336.616452 
L 238.501121 325.458118 
L 239.334994 274.660584 
L 240.168867 324.20007 
L 241.00274 318.371836 
L 241.836613 311.517084 
L 242.670486 327.930687 
L 243.504359 308.125546 
L 244.338232 292.326479 
L 245.172105 269.759687 
L 246.005978 279.638067 
L 246.839851 269.368999 
L 247.673724 325.576476 
L 248.507597 203.700079 
L 249.341469 250.190904 
L 250.175342 321.769843 
L 251.009215 222.060111 
L 251.843088 233.014747 
L 252.676961 234.69233 
L 253.510834 191.816835 
L 254.344707 231.882682 
L 255.17858 235.074978 
L 256.012453 261.498613 
L 256.846326 170.799243 
L 257.680199 223.263879 
L 258.514072 230.440943 
L 259.347945 211.772936 
L 260.181818 280.653988 
L 261.015691 235.619682 
L 261.849564 213.037296 
L 262.683437 272.686365 
L 263.51731 238.311044 
L 264.351183 286.613018 
L 265.185056 278.201026 
L 266.018929 225.125339 
L 266.852802 303.21254 
L 267.686675 333.046949 
L 268.520548 295.33924 
L 269.354421 194.692944 
L 270.188294 212.082025 
L 271.022167 177.613852 
L 271.85604 224.971665 
L 272.689913 337.298571 
L 273.523786 349.082516 
L 274.357659 347.538978 
L 275.191532 329.331555 
L 276.025405 272.724494 
L 276.859278 340.716615 
L 277.693151 318.61719 
L 278.527024 328.152693 
L 279.360897 326.941335 
L 280.19477 342.731391 
L 281.862516 322.017483 
L 282.696389 341.967722 
L 283.530262 326.988875 
L 284.364134 270.465762 
L 285.198007 322.739181 
L 286.03188 310.777707 
L 286.865753 349.631669 
L 287.699626 347.380156 
L 288.533499 336.812774 
L 290.201245 283.444085 
L 291.035118 324.41565 
L 291.868991 275.631378 
L 292.702864 343.09059 
L 293.536737 362.388114 
L 294.37061 363.589454 
L 295.204483 336.711839 
L 296.038356 293.559736 
L 296.872229 294.242719 
L 297.706102 306.766577 
L 298.539975 332.124266 
L 299.373848 322.428364 
L 300.207721 342.744343 
L 301.041594 336.914673 
L 301.875467 321.267295 
L 302.70934 349.746377 
L 303.543213 338.126281 
L 304.377086 329.666985 
L 305.210959 329.21017 
L 306.044832 296.075789 
L 306.878705 333.751796 
L 307.712578 310.646854 
L 308.546451 319.379417 
L 310.214197 332.088393 
L 311.04807 328.208601 
L 311.881943 317.927838 
L 312.715816 334.158335 
L 313.549689 330.443741 
L 314.383562 337.711973 
L 315.217435 232.747329 
L 316.051308 221.163305 
L 316.885181 194.066969 
L 317.719054 231.703961 
L 318.552927 279.880751 
L 319.3868 146.610763 
L 320.220672 307.576243 
L 321.054545 298.34316 
L 321.888418 330.374045 
L 322.722291 300.734858 
L 323.556164 309.487028 
L 324.390037 230.353432 
L 325.22391 189.101982 
L 326.057783 241.757106 
L 326.891656 306.740158 
L 327.725529 310.537379 
L 328.559402 296.310262 
L 329.393275 201.712251 
L 330.227148 193.238724 
L 331.061021 143.43399 
L 331.894894 301.72069 
L 332.728767 304.57982 
L 333.56264 296.901336 
L 334.396513 313.508055 
L 335.230386 319.526521 
L 336.064259 321.770072 
L 336.898132 335.375119 
L 337.732005 157.885712 
L 338.565878 268.068181 
L 339.399751 301.284389 
L 340.233624 308.117192 
L 341.067497 254.565946 
L 343.569116 219.707828 
L 344.402989 254.228939 
L 345.236862 240.139573 
L 346.070735 302.657725 
L 346.904608 231.325382 
L 347.738481 185.349101 
L 348.572354 195.413 
L 349.406227 244.923297 
L 350.2401 272.859445 
L 351.073973 264.833415 
L 351.907846 292.579817 
L 352.741719 284.79053 
L 353.575592 193.019831 
L 354.409465 322.03462 
L 355.243337 266.500601 
L 356.07721 220.828954 
L 356.911083 279.570934 
L 357.744956 317.161799 
L 358.578829 262.668878 
L 359.412702 289.793461 
L 360.246575 300.288433 
L 361.080448 220.115981 
L 361.914321 263.498766 
L 362.748194 259.860073 
L 363.582067 277.496194 
L 364.41594 188.841447 
L 365.249813 203.853738 
L 366.083686 282.195762 
L 366.917559 210.25561 
L 367.751432 310.94349 
L 368.585305 319.429499 
L 369.419178 306.066 
L 370.253051 218.742403 
L 371.086924 208.716234 
L 371.920797 202.062068 
L 372.75467 272.894633 
L 373.588543 264.059364 
L 374.422416 276.667234 
L 375.256289 280.100858 
L 376.090162 313.577773 
L 376.924035 237.482042 
L 377.757908 241.27118 
L 378.591781 286.952353 
L 379.425654 263.957244 
L 380.259527 254.279792 
L 381.0934 309.345693 
L 381.927273 267.914008 
L 382.761146 304.383876 
L 383.595019 307.871994 
L 384.428892 328.625759 
L 385.262765 243.429205 
L 386.096638 231.011338 
L 387.764384 312.283081 
L 388.598257 289.042545 
L 389.43213 212.97399 
L 390.266002 210.763256 
L 391.099875 213.839051 
L 391.933748 280.917364 
L 392.767621 306.472183 
L 393.601494 242.465566 
L 394.435367 236.808512 
L 395.26924 265.111158 
L 396.103113 305.475341 
L 396.936986 279.254904 
L 397.770859 268.734399 
L 398.604732 285.662131 
L 399.438605 287.801134 
L 400.272478 181.299499 
L 401.106351 291.989672 
L 401.940224 316.973724 
L 402.774097 194.126233 
L 403.60797 226.223258 
L 404.441843 238.326667 
L 405.275716 272.685251 
L 406.109589 274.016215 
L 406.943462 231.168296 
L 407.777335 243.202201 
L 408.611208 301.855399 
L 409.445081 240.387155 
L 410.278954 275.555034 
L 411.112827 219.20011 
L 411.9467 239.971119 
L 412.780573 273.451047 
L 413.614446 291.962767 
L 414.448319 281.089003 
L 415.282192 279.649163 
L 416.116065 266.729576 
L 416.949938 268.351408 
L 417.783811 296.198945 
L 418.617684 337.340799 
L 419.451557 334.930479 
L 420.28543 340.480178 
L 421.119303 309.808498 
L 421.953176 288.807344 
L 422.787049 221.472223 
L 423.620922 278.422932 
L 424.454795 195.872635 
L 425.288667 140.752182 
L 426.12254 193.611447 
L 426.956413 217.099322 
L 427.790286 257.235659 
L 428.624159 198.953299 
L 429.458032 228.525003 
L 430.291905 233.656016 
L 431.125778 216.845285 
L 431.959651 222.576397 
L 433.627397 280.831724 
L 434.46127 281.247317 
L 435.295143 181.437078 
L 436.129016 190.732024 
L 436.962889 259.606307 
L 437.796762 199.071342 
L 438.630635 252.834511 
L 439.464508 281.253901 
L 440.298381 292.507057 
L 441.132254 292.735175 
L 441.966127 315.387722 
L 442.8 371.405688 
L 443.633873 349.13524 
L 444.467746 331.296728 
L 445.301619 330.806804 
L 446.135492 255.684987 
L 446.969365 266.298688 
L 447.803238 266.818473 
L 448.637111 260.172903 
L 449.470984 293.134732 
L 450.304857 301.084904 
L 451.13873 315.816968 
L 451.972603 266.063987 
L 452.806476 316.580565 
L 453.640349 384.122134 
L 454.474222 368.175892 
L 455.308095 335.14683 
L 456.141968 326.966069 
L 456.975841 321.621183 
L 457.809714 299.895617 
L 458.643587 321.809958 
L 459.47746 239.055219 
L 460.311333 267.608975 
L 461.145205 285.356112 
L 461.979078 307.514094 
L 462.812951 302.604372 
L 463.646824 310.975265 
L 464.480697 296.349405 
L 465.31457 306.211076 
L 466.148443 281.988451 
L 466.982316 296.621308 
L 467.816189 326.675617 
L 468.650062 326.20997 
L 469.483935 331.80351 
L 470.317808 308.898582 
L 471.151681 305.49649 
L 471.985554 326.119945 
L 472.819427 330.608896 
L 473.6533 340.28035 
L 474.487173 354.763889 
L 476.154919 217.9174 
L 476.988792 240.618943 
L 477.822665 276.345564 
L 478.656538 328.326381 
L 479.490411 327.132552 
L 480.324284 341.396692 
L 481.99203 326.325542 
L 482.825903 333.195267 
L 483.659776 356.287963 
L 484.493649 335.352478 
L 485.327522 348.829592 
L 486.161395 356.41863 
L 486.995268 318.139134 
L 487.829141 325.917318 
L 489.496887 269.280531 
L 490.33076 200.144785 
L 491.164633 207.848118 
L 491.998506 258.173293 
L 492.832379 206.581601 
L 493.666252 283.008827 
L 494.500125 192.558311 
L 495.333998 202.273335 
L 496.16787 161.815985 
L 497.001743 238.812792 
L 497.835616 247.930402 
L 498.669489 229.429178 
L 499.503362 279.885921 
L 500.337235 228.638062 
L 502.004981 305.444595 
L 502.838854 282.490756 
L 503.672727 324.607395 
L 504.5066 303.802242 
L 505.340473 335.305766 
L 506.174346 343.210983 
L 507.008219 265.82463 
L 507.842092 296.712004 
L 508.675965 343.526434 
L 509.509838 242.141111 
L 510.343711 203.608769 
L 512.011457 227.558479 
L 512.84533 273.858629 
L 513.679203 297.858392 
L 514.513076 271.854049 
L 515.346949 293.890646 
L 516.180822 268.883388 
L 517.014695 299.815075 
L 517.848568 288.983338 
L 518.682441 327.36262 
L 519.516314 326.85713 
L 520.350187 281.038778 
L 521.18406 223.174125 
L 522.017933 183.382865 
L 522.851806 272.103917 
L 523.685679 277.212024 
L 524.519552 225.290536 
L 525.353425 225.89015 
L 526.187298 281.674978 
L 527.021171 318.814591 
L 527.855044 333.07229 
L 528.688917 360.035402 
L 529.52279 286.581472 
L 530.356663 194.96656 
L 531.190535 256.560059 
L 532.024408 207.489318 
L 532.858281 229.42248 
L 533.692154 204.17211 
L 535.3599 324.10142 
L 536.193773 328.375527 
L 537.027646 346.770354 
L 538.695392 231.645967 
L 539.529265 195.657083 
L 540.363138 206.193841 
L 541.197011 214.907396 
L 542.864757 276.468791 
L 543.69863 263.297695 
L 545.366376 144.814122 
L 546.200249 296.638759 
L 547.034122 274.338128 
L 547.867995 276.602629 
L 548.701868 304.516128 
L 549.535741 326.198417 
L 550.369614 294.163534 
L 551.203487 333.13938 
L 552.03736 354.051016 
L 552.871233 299.585143 
L 553.705106 323.327784 
L 554.538979 309.302894 
L 555.372852 371.914091 
L 556.206725 366.412347 
L 557.040598 334.223419 
L 557.874471 335.976753 
L 558.708344 354.929494 
L 559.542217 309.311705 
L 560.37609 361.334935 
L 561.209963 376.693588 
L 562.043836 375.169593 
L 562.877709 293.7399 
L 563.711582 306.618287 
L 564.545455 359.050913 
L 565.379328 370.613002 
L 566.2132 337.044541 
L 567.047073 331.924402 
L 567.880946 343.923912 
L 568.714819 254.283819 
L 569.548692 228.424967 
L 570.382565 232.707586 
L 571.216438 351.222269 
L 572.050311 226.678066 
L 572.884184 252.544459 
L 573.718057 326.077489 
L 574.55193 328.789921 
L 575.385803 333.992859 
L 576.219676 280.34417 
L 577.053549 350.998435 
L 577.887422 356.235989 
L 578.721295 239.686236 
L 579.555168 169.048472 
L 580.389041 260.911038 
L 581.222914 319.904628 
L 582.056787 354.346967 
L 582.89066 356.087385 
L 583.724533 345.997189 
L 584.558406 344.458306 
L 585.392279 329.598202 
L 586.226152 339.248185 
L 587.060025 225.344446 
L 587.893898 179.914254 
L 588.727771 219.479667 
L 589.561644 253.380558 
L 590.395517 259.599467 
L 591.22939 312.90997 
L 592.063263 248.440904 
L 592.897136 251.473186 
L 593.731009 303.100951 
L 594.564882 346.545706 
L 595.398755 341.198049 
L 596.232628 305.232485 
L 597.066501 365.099554 
L 597.900374 375.440124 
L 598.734247 330.823705 
L 599.56812 325.037398 
L 600.401993 357.632937 
L 601.235866 377.424319 
L 602.069738 367.786688 
L 602.903611 361.479862 
L 603.737484 359.582429 
L 604.571357 362.80043 
L 605.40523 373.788361 
L 606.239103 370.307197 
L 607.072976 255.698525 
L 607.906849 300.382057 
L 608.740722 237.202371 
L 609.574595 193.862985 
L 610.408468 203.372854 
L 611.242341 140.855716 
L 612.076214 336.813795 
L 612.910087 347.236036 
L 613.74396 304.978734 
L 615.411706 320.190825 
L 616.245579 336.713032 
L 617.079452 305.335562 
L 617.913325 239.203623 
L 618.747198 258.051037 
L 619.581071 334.564304 
L 620.414944 273.145985 
L 621.248817 313.621571 
L 622.08269 292.399667 
L 622.916563 319.537688 
L 623.750436 234.165705 
L 624.584309 228.770486 
L 625.418182 265.488536 
L 626.252055 284.408353 
L 627.085928 245.37819 
L 627.919801 234.61927 
L 628.753674 302.10151 
L 629.587547 338.982173 
L 630.42142 271.517827 
L 632.089166 218.207438 
L 632.923039 243.297981 
L 633.756912 345.921295 
L 634.590785 319.395482 
L 635.424658 233.613475 
L 636.258531 307.097701 
L 637.092403 340.568311 
L 637.926276 349.07574 
L 638.760149 351.2726 
L 639.594022 327.882711 
L 640.427895 340.495758 
L 641.261768 367.807131 
L 642.095641 227.630324 
L 642.929514 286.7819 
L 643.763387 182.631421 
L 644.59726 329.020453 
L 645.431133 247.062171 
L 646.265006 254.184584 
L 647.098879 337.872658 
L 647.932752 352.760859 
L 648.766625 374.699519 
L 649.600498 332.4663 
L 650.434371 334.536549 
L 651.268244 333.348162 
L 652.102117 358.001654 
L 652.93599 339.755517 
L 653.769863 314.920919 
L 654.603736 306.737516 
L 655.437609 332.113341 
L 656.271482 254.796364 
L 657.105355 257.286769 
L 657.939228 336.366206 
L 658.773101 269.484344 
L 659.606974 273.984455 
L 660.440847 300.438094 
L 661.27472 272.489721 
L 662.108593 285.533192 
L 662.942466 277.363898 
L 663.776339 349.158838 
L 664.610212 248.600918 
L 665.444085 275.721688 
L 666.277958 308.081819 
L 667.111831 228.369359 
L 667.945704 286.097146 
L 668.779577 299.526507 
L 669.61345 277.103549 
L 670.447323 285.44331 
L 671.281196 276.912218 
L 672.115068 288.829393 
L 672.948941 254.433094 
L 673.782814 303.385463 
L 674.616687 335.375684 
L 675.45056 324.486653 
L 676.284433 214.364005 
L 677.118306 234.54801 
L 677.952179 185.509072 
L 678.786052 220.745369 
L 679.619925 283.25451 
L 680.453798 211.581076 
L 681.287671 236.212055 
L 682.121544 266.91738 
L 682.955417 246.149442 
L 683.78929 295.301925 
L 684.623163 206.498017 
L 685.457036 265.614277 
L 686.290909 311.378677 
L 687.124782 319.540616 
L 687.958655 239.631412 
L 688.792528 229.958302 
L 689.626401 236.247928 
L 690.460274 256.478416 
L 691.294147 261.38751 
L 692.12802 256.541408 
L 692.961893 240.455959 
L 693.795766 209.366458 
L 694.629639 280.287262 
L 695.463512 238.280783 
L 696.297385 225.120083 
L 697.131258 274.49213 
L 697.965131 278.636755 
L 698.799004 253.522436 
L 699.632877 294.52439 
L 700.46675 277.305176 
L 701.300623 345.801159 
L 702.134496 341.153493 
L 702.968369 319.596653 
L 703.802242 288.022212 
L 704.636115 304.076715 
L 705.469988 303.710975 
L 706.303861 298.869828 
L 707.137733 310.358643 
L 707.971606 287.666211 
L 708.805479 272.403223 
L 709.639352 267.568917 
L 711.307098 292.529978 
L 712.140971 284.004184 
L 712.974844 336.438109 
L 713.808717 275.125702 
L 714.64259 228.982738 
L 715.476463 167.293474 
L 716.310336 270.917957 
L 717.144209 276.369555 
L 717.978082 294.799919 
L 718.811955 299.249992 
L 719.645828 315.82825 
L 720.479701 353.580136 
L 721.313574 337.52761 
L 722.147447 344.628773 
L 722.98132 326.940771 
L 723.815193 327.61348 
L 724.649066 292.511884 
L 725.482939 283.213911 
L 726.316812 289.857595 
L 727.150685 267.821884 
L 727.984558 294.824696 
L 729.652304 315.741766 
L 730.486177 334.916106 
L 731.32005 293.308812 
L 732.153923 271.76551 
L 732.987796 244.189732 
L 733.821669 223.950489 
L 734.655542 322.689456 
L 735.489415 298.938075 
L 736.323288 279.246136 
L 737.157161 221.305054 
L 737.991034 234.210117 
L 738.824907 216.73214 
L 739.65878 298.527209 
L 740.492653 260.745141 
L 741.326526 264.453851 
L 742.160399 261.625296 
L 742.994271 247.971716 
L 743.828144 174.764504 
L 744.662017 237.373152 
L 745.49589 282.869849 
L 746.329763 269.727185 
L 747.163636 234.427268 
L 747.163636 234.427268 
" style="fill:none;stroke:#ff0000;stroke-dasharray:5.55,2.4;stroke-dashoffset:0;stroke-width:1.5;"/>
   </g>
   <g id="patch_3">
    <path d="M 108 460.8 
L 108 69.12 
" style="fill:none;stroke:#000000;stroke-linecap:square;stroke-linejoin:miter;stroke-width:0.8;"/>
   </g>
   <g id="patch_4">
    <path d="M 777.6 460.8 
L 777.6 69.12 
" style="fill:none;stroke:#000000;stroke-linecap:square;stroke-linejoin:miter;stroke-width:0.8;"/>
   </g>
   <g id="patch_5">
    <path d="M 108 460.8 
L 777.6 460.8 
" style="fill:none;stroke:#000000;stroke-linecap:square;stroke-linejoin:miter;stroke-width:0.8;"/>
   </g>
   <g id="patch_6">
    <path d="M 108 69.12 
L 777.6 69.12 
" style="fill:none;stroke:#000000;stroke-linecap:square;stroke-linejoin:miter;stroke-width:0.8;"/>
   </g>
   <g id="text_19">
    <!-- Macau roadside 2020-2021 | Forecast vs Monitored | ANN -->
    <g transform="translate(226.886719 63.12)scale(0.15 -0.15)">
     <defs>
      <path d="M 9.8125 72.90625 
L 24.515625 72.90625 
L 43.109375 23.296875 
L 61.8125 72.90625 
L 76.515625 72.90625 
L 76.515625 0 
L 66.890625 0 
L 66.890625 64.015625 
L 48.09375 14.015625 
L 38.1875 14.015625 
L 19.390625 64.015625 
L 19.390625 0 
L 9.8125 0 
z
" id="DejaVuSans-77"/>
      <path d="M 48.78125 52.59375 
L 48.78125 44.1875 
Q 44.96875 46.296875 41.140625 47.34375 
Q 37.3125 48.390625 33.40625 48.390625 
Q 24.65625 48.390625 19.8125 42.84375 
Q 14.984375 37.3125 14.984375 27.296875 
Q 14.984375 17.28125 19.8125 11.734375 
Q 24.65625 6.203125 33.40625 6.203125 
Q 37.3125 6.203125 41.140625 7.25 
Q 44.96875 8.296875 48.78125 10.40625 
L 48.78125 2.09375 
Q 45.015625 0.34375 40.984375 -0.53125 
Q 36.96875 -1.421875 32.421875 -1.421875 
Q 20.0625 -1.421875 12.78125 6.34375 
Q 5.515625 14.109375 5.515625 27.296875 
Q 5.515625 40.671875 12.859375 48.328125 
Q 20.21875 56 33.015625 56 
Q 37.15625 56 41.109375 55.140625 
Q 45.0625 54.296875 48.78125 52.59375 
z
" id="DejaVuSans-99"/>
      <path d="M 8.5 21.578125 
L 8.5 54.6875 
L 17.484375 54.6875 
L 17.484375 21.921875 
Q 17.484375 14.15625 20.5 10.265625 
Q 23.53125 6.390625 29.59375 6.390625 
Q 36.859375 6.390625 41.078125 11.03125 
Q 45.3125 15.671875 45.3125 23.6875 
L 45.3125 54.6875 
L 54.296875 54.6875 
L 54.296875 0 
L 45.3125 0 
L 45.3125 8.40625 
Q 42.046875 3.421875 37.71875 1 
Q 33.40625 -1.421875 27.6875 -1.421875 
Q 18.265625 -1.421875 13.375 4.4375 
Q 8.5 10.296875 8.5 21.578125 
z
M 31.109375 56 
z
" id="DejaVuSans-117"/>
      <path id="DejaVuSans-32"/>
      <path d="M 41.109375 46.296875 
Q 39.59375 47.171875 37.8125 47.578125 
Q 36.03125 48 33.890625 48 
Q 26.265625 48 22.1875 43.046875 
Q 18.109375 38.09375 18.109375 28.8125 
L 18.109375 0 
L 9.078125 0 
L 9.078125 54.6875 
L 18.109375 54.6875 
L 18.109375 46.1875 
Q 20.953125 51.171875 25.484375 53.578125 
Q 30.03125 56 36.53125 56 
Q 37.453125 56 38.578125 55.875 
Q 39.703125 55.765625 41.0625 55.515625 
z
" id="DejaVuSans-114"/>
      <path d="M 30.609375 48.390625 
Q 23.390625 48.390625 19.1875 42.75 
Q 14.984375 37.109375 14.984375 27.296875 
Q 14.984375 17.484375 19.15625 11.84375 
Q 23.34375 6.203125 30.609375 6.203125 
Q 37.796875 6.203125 41.984375 11.859375 
Q 46.1875 17.53125 46.1875 27.296875 
Q 46.1875 37.015625 41.984375 42.703125 
Q 37.796875 48.390625 30.609375 48.390625 
z
M 30.609375 56 
Q 42.328125 56 49.015625 48.375 
Q 55.71875 40.765625 55.71875 27.296875 
Q 55.71875 13.875 49.015625 6.21875 
Q 42.328125 -1.421875 30.609375 -1.421875 
Q 18.84375 -1.421875 12.171875 6.21875 
Q 5.515625 13.875 5.515625 27.296875 
Q 5.515625 40.765625 12.171875 48.375 
Q 18.84375 56 30.609375 56 
z
" id="DejaVuSans-111"/>
      <path d="M 45.40625 46.390625 
L 45.40625 75.984375 
L 54.390625 75.984375 
L 54.390625 0 
L 45.40625 0 
L 45.40625 8.203125 
Q 42.578125 3.328125 38.25 0.953125 
Q 33.9375 -1.421875 27.875 -1.421875 
Q 17.96875 -1.421875 11.734375 6.484375 
Q 5.515625 14.40625 5.515625 27.296875 
Q 5.515625 40.1875 11.734375 48.09375 
Q 17.96875 56 27.875 56 
Q 33.9375 56 38.25 53.625 
Q 42.578125 51.265625 45.40625 46.390625 
z
M 14.796875 27.296875 
Q 14.796875 17.390625 18.875 11.75 
Q 22.953125 6.109375 30.078125 6.109375 
Q 37.203125 6.109375 41.296875 11.75 
Q 45.40625 17.390625 45.40625 27.296875 
Q 45.40625 37.203125 41.296875 42.84375 
Q 37.203125 48.484375 30.078125 48.484375 
Q 22.953125 48.484375 18.875 42.84375 
Q 14.796875 37.203125 14.796875 27.296875 
z
" id="DejaVuSans-100"/>
      <path d="M 44.28125 53.078125 
L 44.28125 44.578125 
Q 40.484375 46.53125 36.375 47.5 
Q 32.28125 48.484375 27.875 48.484375 
Q 21.1875 48.484375 17.84375 46.4375 
Q 14.5 44.390625 14.5 40.28125 
Q 14.5 37.15625 16.890625 35.375 
Q 19.28125 33.59375 26.515625 31.984375 
L 29.59375 31.296875 
Q 39.15625 29.25 43.1875 25.515625 
Q 47.21875 21.78125 47.21875 15.09375 
Q 47.21875 7.46875 41.1875 3.015625 
Q 35.15625 -1.421875 24.609375 -1.421875 
Q 20.21875 -1.421875 15.453125 -0.5625 
Q 10.6875 0.296875 5.421875 2 
L 5.421875 11.28125 
Q 10.40625 8.6875 15.234375 7.390625 
Q 20.0625 6.109375 24.8125 6.109375 
Q 31.15625 6.109375 34.5625 8.28125 
Q 37.984375 10.453125 37.984375 14.40625 
Q 37.984375 18.0625 35.515625 20.015625 
Q 33.0625 21.96875 24.703125 23.78125 
L 21.578125 24.515625 
Q 13.234375 26.265625 9.515625 29.90625 
Q 5.8125 33.546875 5.8125 39.890625 
Q 5.8125 47.609375 11.28125 51.796875 
Q 16.75 56 26.8125 56 
Q 31.78125 56 36.171875 55.265625 
Q 40.578125 54.546875 44.28125 53.078125 
z
" id="DejaVuSans-115"/>
      <path d="M 9.421875 54.6875 
L 18.40625 54.6875 
L 18.40625 0 
L 9.421875 0 
z
M 9.421875 75.984375 
L 18.40625 75.984375 
L 18.40625 64.59375 
L 9.421875 64.59375 
z
" id="DejaVuSans-105"/>
      <path d="M 21 76.421875 
L 21 -23.578125 
L 12.703125 -23.578125 
L 12.703125 76.421875 
z
" id="DejaVuSans-124"/>
      <path d="M 9.8125 72.90625 
L 51.703125 72.90625 
L 51.703125 64.59375 
L 19.671875 64.59375 
L 19.671875 43.109375 
L 48.578125 43.109375 
L 48.578125 34.8125 
L 19.671875 34.8125 
L 19.671875 0 
L 9.8125 0 
z
" id="DejaVuSans-70"/>
      <path d="M 2.984375 54.6875 
L 12.5 54.6875 
L 29.59375 8.796875 
L 46.6875 54.6875 
L 56.203125 54.6875 
L 35.6875 0 
L 23.484375 0 
z
" id="DejaVuSans-118"/>
      <path d="M 54.890625 33.015625 
L 54.890625 0 
L 45.90625 0 
L 45.90625 32.71875 
Q 45.90625 40.484375 42.875 44.328125 
Q 39.84375 48.1875 33.796875 48.1875 
Q 26.515625 48.1875 22.3125 43.546875 
Q 18.109375 38.921875 18.109375 30.90625 
L 18.109375 0 
L 9.078125 0 
L 9.078125 54.6875 
L 18.109375 54.6875 
L 18.109375 46.1875 
Q 21.34375 51.125 25.703125 53.5625 
Q 30.078125 56 35.796875 56 
Q 45.21875 56 50.046875 50.171875 
Q 54.890625 44.34375 54.890625 33.015625 
z
" id="DejaVuSans-110"/>
      <path d="M 34.1875 63.1875 
L 20.796875 26.90625 
L 47.609375 26.90625 
z
M 28.609375 72.90625 
L 39.796875 72.90625 
L 67.578125 0 
L 57.328125 0 
L 50.6875 18.703125 
L 17.828125 18.703125 
L 11.1875 0 
L 0.78125 0 
z
" id="DejaVuSans-65"/>
      <path d="M 9.8125 72.90625 
L 23.09375 72.90625 
L 55.421875 11.921875 
L 55.421875 72.90625 
L 64.984375 72.90625 
L 64.984375 0 
L 51.703125 0 
L 19.390625 60.984375 
L 19.390625 0 
L 9.8125 0 
z
" id="DejaVuSans-78"/>
     </defs>
     <use xlink:href="#DejaVuSans-77"/>
     <use x="86.279297" xlink:href="#DejaVuSans-97"/>
     <use x="147.558594" xlink:href="#DejaVuSans-99"/>
     <use x="202.539062" xlink:href="#DejaVuSans-97"/>
     <use x="263.818359" xlink:href="#DejaVuSans-117"/>
     <use x="327.197266" xlink:href="#DejaVuSans-32"/>
     <use x="358.984375" xlink:href="#DejaVuSans-114"/>
     <use x="397.847656" xlink:href="#DejaVuSans-111"/>
     <use x="459.029297" xlink:href="#DejaVuSans-97"/>
     <use x="520.308594" xlink:href="#DejaVuSans-100"/>
     <use x="583.785156" xlink:href="#DejaVuSans-115"/>
     <use x="635.884766" xlink:href="#DejaVuSans-105"/>
     <use x="663.667969" xlink:href="#DejaVuSans-100"/>
     <use x="727.144531" xlink:href="#DejaVuSans-101"/>
     <use x="788.667969" xlink:href="#DejaVuSans-32"/>
     <use x="820.455078" xlink:href="#DejaVuSans-50"/>
     <use x="884.078125" xlink:href="#DejaVuSans-48"/>
     <use x="947.701172" xlink:href="#DejaVuSans-50"/>
     <use x="1011.324219" xlink:href="#DejaVuSans-48"/>
     <use x="1074.947266" xlink:href="#DejaVuSans-45"/>
     <use x="1111.03125" xlink:href="#DejaVuSans-50"/>
     <use x="1174.654297" xlink:href="#DejaVuSans-48"/>
     <use x="1238.277344" xlink:href="#DejaVuSans-50"/>
     <use x="1301.900391" xlink:href="#DejaVuSans-49"/>
     <use x="1365.523438" xlink:href="#DejaVuSans-32"/>
     <use x="1397.310547" xlink:href="#DejaVuSans-124"/>
     <use x="1431.001953" xlink:href="#DejaVuSans-32"/>
     <use x="1462.789062" xlink:href="#DejaVuSans-70"/>
     <use x="1516.683594" xlink:href="#DejaVuSans-111"/>
     <use x="1577.865234" xlink:href="#DejaVuSans-114"/>
     <use x="1616.728516" xlink:href="#DejaVuSans-101"/>
     <use x="1678.251953" xlink:href="#DejaVuSans-99"/>
     <use x="1733.232422" xlink:href="#DejaVuSans-97"/>
     <use x="1794.511719" xlink:href="#DejaVuSans-115"/>
     <use x="1846.611328" xlink:href="#DejaVuSans-116"/>
     <use x="1885.820312" xlink:href="#DejaVuSans-32"/>
     <use x="1917.607422" xlink:href="#DejaVuSans-118"/>
     <use x="1976.787109" xlink:href="#DejaVuSans-115"/>
     <use x="2028.886719" xlink:href="#DejaVuSans-32"/>
     <use x="2060.673828" xlink:href="#DejaVuSans-77"/>
     <use x="2146.953125" xlink:href="#DejaVuSans-111"/>
     <use x="2208.134766" xlink:href="#DejaVuSans-110"/>
     <use x="2271.513672" xlink:href="#DejaVuSans-105"/>
     <use x="2299.296875" xlink:href="#DejaVuSans-116"/>
     <use x="2338.505859" xlink:href="#DejaVuSans-111"/>
     <use x="2399.6875" xlink:href="#DejaVuSans-114"/>
     <use x="2438.550781" xlink:href="#DejaVuSans-101"/>
     <use x="2500.074219" xlink:href="#DejaVuSans-100"/>
     <use x="2563.550781" xlink:href="#DejaVuSans-32"/>
     <use x="2595.337891" xlink:href="#DejaVuSans-124"/>
     <use x="2629.029297" xlink:href="#DejaVuSans-32"/>
     <use x="2660.816406" xlink:href="#DejaVuSans-65"/>
     <use x="2729.224609" xlink:href="#DejaVuSans-78"/>
     <use x="2804.029297" xlink:href="#DejaVuSans-78"/>
    </g>
   </g>
   <g id="legend_1">
    <g id="patch_7">
     <path d="M 613.996875 114.615 
L 769.2 114.615 
Q 771.6 114.615 771.6 112.215 
L 771.6 77.52 
Q 771.6 75.12 769.2 75.12 
L 613.996875 75.12 
Q 611.596875 75.12 611.596875 77.52 
L 611.596875 112.215 
Q 611.596875 114.615 613.996875 114.615 
z
" style="fill:#ffffff;opacity:0.8;stroke:#cccccc;stroke-linejoin:miter;"/>
    </g>
    <g id="line2d_19">
     <path d="M 616.396875 84.838125 
L 640.396875 84.838125 
" style="fill:none;stroke:#1f77b4;stroke-linecap:square;stroke-width:1.5;"/>
    </g>
    <g id="line2d_20"/>
    <g id="text_20">
     <!-- measured_data_CO -->
     <g transform="translate(649.996875 89.038125)scale(0.12 -0.12)">
      <defs>
       <path d="M 50.984375 -16.609375 
L 50.984375 -23.578125 
L -0.984375 -23.578125 
L -0.984375 -16.609375 
z
" id="DejaVuSans-95"/>
      </defs>
      <use xlink:href="#DejaVuSans-109"/>
      <use x="97.412109" xlink:href="#DejaVuSans-101"/>
      <use x="158.935547" xlink:href="#DejaVuSans-97"/>
      <use x="220.214844" xlink:href="#DejaVuSans-115"/>
      <use x="272.314453" xlink:href="#DejaVuSans-117"/>
      <use x="335.693359" xlink:href="#DejaVuSans-114"/>
      <use x="374.556641" xlink:href="#DejaVuSans-101"/>
      <use x="436.080078" xlink:href="#DejaVuSans-100"/>
      <use x="499.556641" xlink:href="#DejaVuSans-95"/>
      <use x="549.556641" xlink:href="#DejaVuSans-100"/>
      <use x="613.033203" xlink:href="#DejaVuSans-97"/>
      <use x="674.3125" xlink:href="#DejaVuSans-116"/>
      <use x="713.521484" xlink:href="#DejaVuSans-97"/>
      <use x="774.800781" xlink:href="#DejaVuSans-95"/>
      <use x="824.800781" xlink:href="#DejaVuSans-67"/>
      <use x="894.625" xlink:href="#DejaVuSans-79"/>
     </g>
    </g>
    <g id="line2d_21">
     <path d="M 616.396875 102.785625 
L 640.396875 102.785625 
" style="fill:none;stroke:#ff0000;stroke-dasharray:5.55,2.4;stroke-dashoffset:0;stroke-width:1.5;"/>
    </g>
    <g id="line2d_22"/>
    <g id="text_21">
     <!-- predicted_data_CO -->
     <g transform="translate(649.996875 106.985625)scale(0.12 -0.12)">
      <use xlink:href="#DejaVuSans-112"/>
      <use x="63.476562" xlink:href="#DejaVuSans-114"/>
      <use x="102.339844" xlink:href="#DejaVuSans-101"/>
      <use x="163.863281" xlink:href="#DejaVuSans-100"/>
      <use x="227.339844" xlink:href="#DejaVuSans-105"/>
      <use x="255.123047" xlink:href="#DejaVuSans-99"/>
      <use x="310.103516" xlink:href="#DejaVuSans-116"/>
      <use x="349.3125" xlink:href="#DejaVuSans-101"/>
      <use x="410.835938" xlink:href="#DejaVuSans-100"/>
      <use x="474.3125" xlink:href="#DejaVuSans-95"/>
      <use x="524.3125" xlink:href="#DejaVuSans-100"/>
      <use x="587.789062" xlink:href="#DejaVuSans-97"/>
      <use x="649.068359" xlink:href="#DejaVuSans-116"/>
      <use x="688.277344" xlink:href="#DejaVuSans-97"/>
      <use x="749.556641" xlink:href="#DejaVuSans-95"/>
      <use x="799.556641" xlink:href="#DejaVuSans-67"/>
      <use x="869.380859" xlink:href="#DejaVuSans-79"/>
     </g>
    </g>
   </g>
  </g>
 </g>
 <defs>
  <clipPath id="pf60816ae9e">
   <rect height="391.68" width="669.6" x="108" y="69.12"/>
  </clipPath>
 </defs>
</svg>
