<?xml version="1.0" encoding="utf-8" standalone="no"?>
<!DOCTYPE svg PUBLIC "-//W3C//DTD SVG 1.1//EN"
  "http://www.w3.org/Graphics/SVG/1.1/DTD/svg11.dtd">
<!-- Created with matplotlib (https://matplotlib.org/) -->
<svg height="576pt" version="1.1" viewBox="0 0 864 576" width="864pt" xmlns="http://www.w3.org/2000/svg" xmlns:xlink="http://www.w3.org/1999/xlink">
 <metadata>
  <rdf:RDF xmlns:cc="http://creativecommons.org/ns#" xmlns:dc="http://purl.org/dc/elements/1.1/" xmlns:rdf="http://www.w3.org/1999/02/22-rdf-syntax-ns#">
   <cc:Work>
    <dc:type rdf:resource="http://purl.org/dc/dcmitype/StillImage"/>
    <dc:date>2024-03-08T15:37:15.403692</dc:date>
    <dc:format>image/svg+xml</dc:format>
    <dc:creator>
     <cc:Agent>
      <dc:title>Matplotlib v3.3.4, https://matplotlib.org/</dc:title>
     </cc:Agent>
    </dc:creator>
   </cc:Work>
  </rdf:RDF>
 </metadata>
 <defs>
  <style type="text/css">*{stroke-linecap:butt;stroke-linejoin:round;}</style>
 </defs>
 <g id="figure_1">
  <g id="patch_1">
   <path d="M 0 576 
L 864 576 
L 864 0 
L 0 0 
z
" style="fill:#ffffff;"/>
  </g>
  <g id="axes_1">
   <g id="patch_2">
    <path d="M 108 460.8 
L 777.6 460.8 
L 777.6 69.12 
L 108 69.12 
z
" style="fill:#ffffff;"/>
   </g>
   <g id="matplotlib.axis_1">
    <g id="xtick_1">
     <g id="line2d_1">
      <defs>
       <path d="M 0 0 
L 0 3.5 
" id="m829a5a695f" style="stroke:#000000;stroke-width:0.8;"/>
      </defs>
      <g>
       <use style="stroke:#000000;stroke-width:0.8;" x="136.761736" xlink:href="#m829a5a695f" y="460.8"/>
      </g>
     </g>
     <g id="text_1">
      <!-- 2020-01 -->
      <g transform="translate(92.091951 500.766215)rotate(-30)scale(0.12 -0.12)">
       <defs>
        <path d="M 19.1875 8.296875 
L 53.609375 8.296875 
L 53.609375 0 
L 7.328125 0 
L 7.328125 8.296875 
Q 12.9375 14.109375 22.625 23.890625 
Q 32.328125 33.6875 34.8125 36.53125 
Q 39.546875 41.84375 41.421875 45.53125 
Q 43.3125 49.21875 43.3125 52.78125 
Q 43.3125 58.59375 39.234375 62.25 
Q 35.15625 65.921875 28.609375 65.921875 
Q 23.96875 65.921875 18.8125 64.3125 
Q 13.671875 62.703125 7.8125 59.421875 
L 7.8125 69.390625 
Q 13.765625 71.78125 18.9375 73 
Q 24.125 74.21875 28.421875 74.21875 
Q 39.75 74.21875 46.484375 68.546875 
Q 53.21875 62.890625 53.21875 53.421875 
Q 53.21875 48.921875 51.53125 44.890625 
Q 49.859375 40.875 45.40625 35.40625 
Q 44.1875 33.984375 37.640625 27.21875 
Q 31.109375 20.453125 19.1875 8.296875 
z
" id="DejaVuSans-50"/>
        <path d="M 31.78125 66.40625 
Q 24.171875 66.40625 20.328125 58.90625 
Q 16.5 51.421875 16.5 36.375 
Q 16.5 21.390625 20.328125 13.890625 
Q 24.171875 6.390625 31.78125 6.390625 
Q 39.453125 6.390625 43.28125 13.890625 
Q 47.125 21.390625 47.125 36.375 
Q 47.125 51.421875 43.28125 58.90625 
Q 39.453125 66.40625 31.78125 66.40625 
z
M 31.78125 74.21875 
Q 44.046875 74.21875 50.515625 64.515625 
Q 56.984375 54.828125 56.984375 36.375 
Q 56.984375 17.96875 50.515625 8.265625 
Q 44.046875 -1.421875 31.78125 -1.421875 
Q 19.53125 -1.421875 13.0625 8.265625 
Q 6.59375 17.96875 6.59375 36.375 
Q 6.59375 54.828125 13.0625 64.515625 
Q 19.53125 74.21875 31.78125 74.21875 
z
" id="DejaVuSans-48"/>
        <path d="M 4.890625 31.390625 
L 31.203125 31.390625 
L 31.203125 23.390625 
L 4.890625 23.390625 
z
" id="DejaVuSans-45"/>
        <path d="M 12.40625 8.296875 
L 28.515625 8.296875 
L 28.515625 63.921875 
L 10.984375 60.40625 
L 10.984375 69.390625 
L 28.421875 72.90625 
L 38.28125 72.90625 
L 38.28125 8.296875 
L 54.390625 8.296875 
L 54.390625 0 
L 12.40625 0 
z
" id="DejaVuSans-49"/>
       </defs>
       <use xlink:href="#DejaVuSans-50"/>
       <use x="63.623047" xlink:href="#DejaVuSans-48"/>
       <use x="127.246094" xlink:href="#DejaVuSans-50"/>
       <use x="190.869141" xlink:href="#DejaVuSans-48"/>
       <use x="254.492188" xlink:href="#DejaVuSans-45"/>
       <use x="290.576172" xlink:href="#DejaVuSans-48"/>
       <use x="354.199219" xlink:href="#DejaVuSans-49"/>
      </g>
     </g>
    </g>
    <g id="xtick_2">
     <g id="line2d_2">
      <g>
       <use style="stroke:#000000;stroke-width:0.8;" x="212.957309" xlink:href="#m829a5a695f" y="460.8"/>
      </g>
     </g>
     <g id="text_2">
      <!-- 2020-04 -->
      <g transform="translate(168.287524 500.766215)rotate(-30)scale(0.12 -0.12)">
       <defs>
        <path d="M 37.796875 64.3125 
L 12.890625 25.390625 
L 37.796875 25.390625 
z
M 35.203125 72.90625 
L 47.609375 72.90625 
L 47.609375 25.390625 
L 58.015625 25.390625 
L 58.015625 17.1875 
L 47.609375 17.1875 
L 47.609375 0 
L 37.796875 0 
L 37.796875 17.1875 
L 4.890625 17.1875 
L 4.890625 26.703125 
z
" id="DejaVuSans-52"/>
       </defs>
       <use xlink:href="#DejaVuSans-50"/>
       <use x="63.623047" xlink:href="#DejaVuSans-48"/>
       <use x="127.246094" xlink:href="#DejaVuSans-50"/>
       <use x="190.869141" xlink:href="#DejaVuSans-48"/>
       <use x="254.492188" xlink:href="#DejaVuSans-45"/>
       <use x="290.576172" xlink:href="#DejaVuSans-48"/>
       <use x="354.199219" xlink:href="#DejaVuSans-52"/>
      </g>
     </g>
    </g>
    <g id="xtick_3">
     <g id="line2d_3">
      <g>
       <use style="stroke:#000000;stroke-width:0.8;" x="289.152882" xlink:href="#m829a5a695f" y="460.8"/>
      </g>
     </g>
     <g id="text_3">
      <!-- 2020-07 -->
      <g transform="translate(244.483097 500.766215)rotate(-30)scale(0.12 -0.12)">
       <defs>
        <path d="M 8.203125 72.90625 
L 55.078125 72.90625 
L 55.078125 68.703125 
L 28.609375 0 
L 18.3125 0 
L 43.21875 64.59375 
L 8.203125 64.59375 
z
" id="DejaVuSans-55"/>
       </defs>
       <use xlink:href="#DejaVuSans-50"/>
       <use x="63.623047" xlink:href="#DejaVuSans-48"/>
       <use x="127.246094" xlink:href="#DejaVuSans-50"/>
       <use x="190.869141" xlink:href="#DejaVuSans-48"/>
       <use x="254.492188" xlink:href="#DejaVuSans-45"/>
       <use x="290.576172" xlink:href="#DejaVuSans-48"/>
       <use x="354.199219" xlink:href="#DejaVuSans-55"/>
      </g>
     </g>
    </g>
    <g id="xtick_4">
     <g id="line2d_4">
      <g>
       <use style="stroke:#000000;stroke-width:0.8;" x="366.18577" xlink:href="#m829a5a695f" y="460.8"/>
      </g>
     </g>
     <g id="text_4">
      <!-- 2020-10 -->
      <g transform="translate(321.515985 500.766215)rotate(-30)scale(0.12 -0.12)">
       <use xlink:href="#DejaVuSans-50"/>
       <use x="63.623047" xlink:href="#DejaVuSans-48"/>
       <use x="127.246094" xlink:href="#DejaVuSans-50"/>
       <use x="190.869141" xlink:href="#DejaVuSans-48"/>
       <use x="254.492188" xlink:href="#DejaVuSans-45"/>
       <use x="290.576172" xlink:href="#DejaVuSans-49"/>
       <use x="354.199219" xlink:href="#DejaVuSans-48"/>
      </g>
     </g>
    </g>
    <g id="xtick_5">
     <g id="line2d_5">
      <g>
       <use style="stroke:#000000;stroke-width:0.8;" x="443.218657" xlink:href="#m829a5a695f" y="460.8"/>
      </g>
     </g>
     <g id="text_5">
      <!-- 2021-01 -->
      <g transform="translate(398.548872 500.766215)rotate(-30)scale(0.12 -0.12)">
       <use xlink:href="#DejaVuSans-50"/>
       <use x="63.623047" xlink:href="#DejaVuSans-48"/>
       <use x="127.246094" xlink:href="#DejaVuSans-50"/>
       <use x="190.869141" xlink:href="#DejaVuSans-49"/>
       <use x="254.492188" xlink:href="#DejaVuSans-45"/>
       <use x="290.576172" xlink:href="#DejaVuSans-48"/>
       <use x="354.199219" xlink:href="#DejaVuSans-49"/>
      </g>
     </g>
    </g>
    <g id="xtick_6">
     <g id="line2d_6">
      <g>
       <use style="stroke:#000000;stroke-width:0.8;" x="518.576916" xlink:href="#m829a5a695f" y="460.8"/>
      </g>
     </g>
     <g id="text_6">
      <!-- 2021-04 -->
      <g transform="translate(473.907131 500.766215)rotate(-30)scale(0.12 -0.12)">
       <use xlink:href="#DejaVuSans-50"/>
       <use x="63.623047" xlink:href="#DejaVuSans-48"/>
       <use x="127.246094" xlink:href="#DejaVuSans-50"/>
       <use x="190.869141" xlink:href="#DejaVuSans-49"/>
       <use x="254.492188" xlink:href="#DejaVuSans-45"/>
       <use x="290.576172" xlink:href="#DejaVuSans-48"/>
       <use x="354.199219" xlink:href="#DejaVuSans-52"/>
      </g>
     </g>
    </g>
    <g id="xtick_7">
     <g id="line2d_7">
      <g>
       <use style="stroke:#000000;stroke-width:0.8;" x="594.77249" xlink:href="#m829a5a695f" y="460.8"/>
      </g>
     </g>
     <g id="text_7">
      <!-- 2021-07 -->
      <g transform="translate(550.102705 500.766215)rotate(-30)scale(0.12 -0.12)">
       <use xlink:href="#DejaVuSans-50"/>
       <use x="63.623047" xlink:href="#DejaVuSans-48"/>
       <use x="127.246094" xlink:href="#DejaVuSans-50"/>
       <use x="190.869141" xlink:href="#DejaVuSans-49"/>
       <use x="254.492188" xlink:href="#DejaVuSans-45"/>
       <use x="290.576172" xlink:href="#DejaVuSans-48"/>
       <use x="354.199219" xlink:href="#DejaVuSans-55"/>
      </g>
     </g>
    </g>
    <g id="xtick_8">
     <g id="line2d_8">
      <g>
       <use style="stroke:#000000;stroke-width:0.8;" x="671.805377" xlink:href="#m829a5a695f" y="460.8"/>
      </g>
     </g>
     <g id="text_8">
      <!-- 2021-10 -->
      <g transform="translate(627.135592 500.766215)rotate(-30)scale(0.12 -0.12)">
       <use xlink:href="#DejaVuSans-50"/>
       <use x="63.623047" xlink:href="#DejaVuSans-48"/>
       <use x="127.246094" xlink:href="#DejaVuSans-50"/>
       <use x="190.869141" xlink:href="#DejaVuSans-49"/>
       <use x="254.492188" xlink:href="#DejaVuSans-45"/>
       <use x="290.576172" xlink:href="#DejaVuSans-49"/>
       <use x="354.199219" xlink:href="#DejaVuSans-48"/>
      </g>
     </g>
    </g>
    <g id="xtick_9">
     <g id="line2d_9">
      <g>
       <use style="stroke:#000000;stroke-width:0.8;" x="748.838264" xlink:href="#m829a5a695f" y="460.8"/>
      </g>
     </g>
     <g id="text_9">
      <!-- 2022-01 -->
      <g transform="translate(704.168479 500.766215)rotate(-30)scale(0.12 -0.12)">
       <use xlink:href="#DejaVuSans-50"/>
       <use x="63.623047" xlink:href="#DejaVuSans-48"/>
       <use x="127.246094" xlink:href="#DejaVuSans-50"/>
       <use x="190.869141" xlink:href="#DejaVuSans-50"/>
       <use x="254.492188" xlink:href="#DejaVuSans-45"/>
       <use x="290.576172" xlink:href="#DejaVuSans-48"/>
       <use x="354.199219" xlink:href="#DejaVuSans-49"/>
      </g>
     </g>
    </g>
    <g id="text_10">
     <!-- Date -->
     <g transform="translate(424.873828 518.325146)scale(0.15 -0.15)">
      <defs>
       <path d="M 19.671875 64.796875 
L 19.671875 8.109375 
L 31.59375 8.109375 
Q 46.6875 8.109375 53.6875 14.9375 
Q 60.6875 21.78125 60.6875 36.53125 
Q 60.6875 51.171875 53.6875 57.984375 
Q 46.6875 64.796875 31.59375 64.796875 
z
M 9.8125 72.90625 
L 30.078125 72.90625 
Q 51.265625 72.90625 61.171875 64.09375 
Q 71.09375 55.28125 71.09375 36.53125 
Q 71.09375 17.671875 61.125 8.828125 
Q 51.171875 0 30.078125 0 
L 9.8125 0 
z
" id="DejaVuSans-68"/>
       <path d="M 34.28125 27.484375 
Q 23.390625 27.484375 19.1875 25 
Q 14.984375 22.515625 14.984375 16.5 
Q 14.984375 11.71875 18.140625 8.90625 
Q 21.296875 6.109375 26.703125 6.109375 
Q 34.1875 6.109375 38.703125 11.40625 
Q 43.21875 16.703125 43.21875 25.484375 
L 43.21875 27.484375 
z
M 52.203125 31.203125 
L 52.203125 0 
L 43.21875 0 
L 43.21875 8.296875 
Q 40.140625 3.328125 35.546875 0.953125 
Q 30.953125 -1.421875 24.3125 -1.421875 
Q 15.921875 -1.421875 10.953125 3.296875 
Q 6 8.015625 6 15.921875 
Q 6 25.140625 12.171875 29.828125 
Q 18.359375 34.515625 30.609375 34.515625 
L 43.21875 34.515625 
L 43.21875 35.40625 
Q 43.21875 41.609375 39.140625 45 
Q 35.0625 48.390625 27.6875 48.390625 
Q 23 48.390625 18.546875 47.265625 
Q 14.109375 46.140625 10.015625 43.890625 
L 10.015625 52.203125 
Q 14.9375 54.109375 19.578125 55.046875 
Q 24.21875 56 28.609375 56 
Q 40.484375 56 46.34375 49.84375 
Q 52.203125 43.703125 52.203125 31.203125 
z
" id="DejaVuSans-97"/>
       <path d="M 18.3125 70.21875 
L 18.3125 54.6875 
L 36.8125 54.6875 
L 36.8125 47.703125 
L 18.3125 47.703125 
L 18.3125 18.015625 
Q 18.3125 11.328125 20.140625 9.421875 
Q 21.96875 7.515625 27.59375 7.515625 
L 36.8125 7.515625 
L 36.8125 0 
L 27.59375 0 
Q 17.1875 0 13.234375 3.875 
Q 9.28125 7.765625 9.28125 18.015625 
L 9.28125 47.703125 
L 2.6875 47.703125 
L 2.6875 54.6875 
L 9.28125 54.6875 
L 9.28125 70.21875 
z
" id="DejaVuSans-116"/>
       <path d="M 56.203125 29.59375 
L 56.203125 25.203125 
L 14.890625 25.203125 
Q 15.484375 15.921875 20.484375 11.0625 
Q 25.484375 6.203125 34.421875 6.203125 
Q 39.59375 6.203125 44.453125 7.46875 
Q 49.3125 8.734375 54.109375 11.28125 
L 54.109375 2.78125 
Q 49.265625 0.734375 44.1875 -0.34375 
Q 39.109375 -1.421875 33.890625 -1.421875 
Q 20.796875 -1.421875 13.15625 6.1875 
Q 5.515625 13.8125 5.515625 26.8125 
Q 5.515625 40.234375 12.765625 48.109375 
Q 20.015625 56 32.328125 56 
Q 43.359375 56 49.78125 48.890625 
Q 56.203125 41.796875 56.203125 29.59375 
z
M 47.21875 32.234375 
Q 47.125 39.59375 43.09375 43.984375 
Q 39.0625 48.390625 32.421875 48.390625 
Q 24.90625 48.390625 20.390625 44.140625 
Q 15.875 39.890625 15.1875 32.171875 
z
" id="DejaVuSans-101"/>
      </defs>
      <use xlink:href="#DejaVuSans-68"/>
      <use x="77.001953" xlink:href="#DejaVuSans-97"/>
      <use x="138.28125" xlink:href="#DejaVuSans-116"/>
      <use x="177.490234" xlink:href="#DejaVuSans-101"/>
     </g>
    </g>
   </g>
   <g id="matplotlib.axis_2">
    <g id="ytick_1">
     <g id="line2d_10">
      <defs>
       <path d="M 0 0 
L -3.5 0 
" id="m87059987df" style="stroke:#000000;stroke-width:0.8;"/>
      </defs>
      <g>
       <use style="stroke:#000000;stroke-width:0.8;" x="108" xlink:href="#m87059987df" y="450.347598"/>
      </g>
     </g>
     <g id="text_11">
      <!-- 0.5 -->
      <g transform="translate(81.91625 454.90666)scale(0.12 -0.12)">
       <defs>
        <path d="M 10.6875 12.40625 
L 21 12.40625 
L 21 0 
L 10.6875 0 
z
" id="DejaVuSans-46"/>
        <path d="M 10.796875 72.90625 
L 49.515625 72.90625 
L 49.515625 64.59375 
L 19.828125 64.59375 
L 19.828125 46.734375 
Q 21.96875 47.46875 24.109375 47.828125 
Q 26.265625 48.1875 28.421875 48.1875 
Q 40.625 48.1875 47.75 41.5 
Q 54.890625 34.8125 54.890625 23.390625 
Q 54.890625 11.625 47.5625 5.09375 
Q 40.234375 -1.421875 26.90625 -1.421875 
Q 22.3125 -1.421875 17.546875 -0.640625 
Q 12.796875 0.140625 7.71875 1.703125 
L 7.71875 11.625 
Q 12.109375 9.234375 16.796875 8.0625 
Q 21.484375 6.890625 26.703125 6.890625 
Q 35.15625 6.890625 40.078125 11.328125 
Q 45.015625 15.765625 45.015625 23.390625 
Q 45.015625 31 40.078125 35.4375 
Q 35.15625 39.890625 26.703125 39.890625 
Q 22.75 39.890625 18.8125 39.015625 
Q 14.890625 38.140625 10.796875 36.28125 
z
" id="DejaVuSans-53"/>
       </defs>
       <use xlink:href="#DejaVuSans-48"/>
       <use x="63.623047" xlink:href="#DejaVuSans-46"/>
       <use x="95.410156" xlink:href="#DejaVuSans-53"/>
      </g>
     </g>
    </g>
    <g id="ytick_2">
     <g id="line2d_11">
      <g>
       <use style="stroke:#000000;stroke-width:0.8;" x="108" xlink:href="#m87059987df" y="369.23053"/>
      </g>
     </g>
     <g id="text_12">
      <!-- 1.0 -->
      <g transform="translate(81.91625 373.789592)scale(0.12 -0.12)">
       <use xlink:href="#DejaVuSans-49"/>
       <use x="63.623047" xlink:href="#DejaVuSans-46"/>
       <use x="95.410156" xlink:href="#DejaVuSans-48"/>
      </g>
     </g>
    </g>
    <g id="ytick_3">
     <g id="line2d_12">
      <g>
       <use style="stroke:#000000;stroke-width:0.8;" x="108" xlink:href="#m87059987df" y="288.113462"/>
      </g>
     </g>
     <g id="text_13">
      <!-- 1.5 -->
      <g transform="translate(81.91625 292.672524)scale(0.12 -0.12)">
       <use xlink:href="#DejaVuSans-49"/>
       <use x="63.623047" xlink:href="#DejaVuSans-46"/>
       <use x="95.410156" xlink:href="#DejaVuSans-53"/>
      </g>
     </g>
    </g>
    <g id="ytick_4">
     <g id="line2d_13">
      <g>
       <use style="stroke:#000000;stroke-width:0.8;" x="108" xlink:href="#m87059987df" y="206.996393"/>
      </g>
     </g>
     <g id="text_14">
      <!-- 2.0 -->
      <g transform="translate(81.91625 211.555456)scale(0.12 -0.12)">
       <use xlink:href="#DejaVuSans-50"/>
       <use x="63.623047" xlink:href="#DejaVuSans-46"/>
       <use x="95.410156" xlink:href="#DejaVuSans-48"/>
      </g>
     </g>
    </g>
    <g id="ytick_5">
     <g id="line2d_14">
      <g>
       <use style="stroke:#000000;stroke-width:0.8;" x="108" xlink:href="#m87059987df" y="125.879325"/>
      </g>
     </g>
     <g id="text_15">
      <!-- 2.5 -->
      <g transform="translate(81.91625 130.438388)scale(0.12 -0.12)">
       <use xlink:href="#DejaVuSans-50"/>
       <use x="63.623047" xlink:href="#DejaVuSans-46"/>
       <use x="95.410156" xlink:href="#DejaVuSans-53"/>
      </g>
     </g>
    </g>
    <g id="text_16">
     <!-- CO(ppm) -->
     <g transform="translate(74.796719 298.781484)rotate(-90)scale(0.15 -0.15)">
      <defs>
       <path d="M 64.40625 67.28125 
L 64.40625 56.890625 
Q 59.421875 61.53125 53.78125 63.8125 
Q 48.140625 66.109375 41.796875 66.109375 
Q 29.296875 66.109375 22.65625 58.46875 
Q 16.015625 50.828125 16.015625 36.375 
Q 16.015625 21.96875 22.65625 14.328125 
Q 29.296875 6.6875 41.796875 6.6875 
Q 48.140625 6.6875 53.78125 8.984375 
Q 59.421875 11.28125 64.40625 15.921875 
L 64.40625 5.609375 
Q 59.234375 2.09375 53.4375 0.328125 
Q 47.65625 -1.421875 41.21875 -1.421875 
Q 24.65625 -1.421875 15.125 8.703125 
Q 5.609375 18.84375 5.609375 36.375 
Q 5.609375 53.953125 15.125 64.078125 
Q 24.65625 74.21875 41.21875 74.21875 
Q 47.75 74.21875 53.53125 72.484375 
Q 59.328125 70.75 64.40625 67.28125 
z
" id="DejaVuSans-67"/>
       <path d="M 39.40625 66.21875 
Q 28.65625 66.21875 22.328125 58.203125 
Q 16.015625 50.203125 16.015625 36.375 
Q 16.015625 22.609375 22.328125 14.59375 
Q 28.65625 6.59375 39.40625 6.59375 
Q 50.140625 6.59375 56.421875 14.59375 
Q 62.703125 22.609375 62.703125 36.375 
Q 62.703125 50.203125 56.421875 58.203125 
Q 50.140625 66.21875 39.40625 66.21875 
z
M 39.40625 74.21875 
Q 54.734375 74.21875 63.90625 63.9375 
Q 73.09375 53.65625 73.09375 36.375 
Q 73.09375 19.140625 63.90625 8.859375 
Q 54.734375 -1.421875 39.40625 -1.421875 
Q 24.03125 -1.421875 14.8125 8.828125 
Q 5.609375 19.09375 5.609375 36.375 
Q 5.609375 53.65625 14.8125 63.9375 
Q 24.03125 74.21875 39.40625 74.21875 
z
" id="DejaVuSans-79"/>
       <path d="M 31 75.875 
Q 24.46875 64.65625 21.28125 53.65625 
Q 18.109375 42.671875 18.109375 31.390625 
Q 18.109375 20.125 21.3125 9.0625 
Q 24.515625 -2 31 -13.1875 
L 23.1875 -13.1875 
Q 15.875 -1.703125 12.234375 9.375 
Q 8.59375 20.453125 8.59375 31.390625 
Q 8.59375 42.28125 12.203125 53.3125 
Q 15.828125 64.359375 23.1875 75.875 
z
" id="DejaVuSans-40"/>
       <path d="M 18.109375 8.203125 
L 18.109375 -20.796875 
L 9.078125 -20.796875 
L 9.078125 54.6875 
L 18.109375 54.6875 
L 18.109375 46.390625 
Q 20.953125 51.265625 25.265625 53.625 
Q 29.59375 56 35.59375 56 
Q 45.5625 56 51.78125 48.09375 
Q 58.015625 40.1875 58.015625 27.296875 
Q 58.015625 14.40625 51.78125 6.484375 
Q 45.5625 -1.421875 35.59375 -1.421875 
Q 29.59375 -1.421875 25.265625 0.953125 
Q 20.953125 3.328125 18.109375 8.203125 
z
M 48.6875 27.296875 
Q 48.6875 37.203125 44.609375 42.84375 
Q 40.53125 48.484375 33.40625 48.484375 
Q 26.265625 48.484375 22.1875 42.84375 
Q 18.109375 37.203125 18.109375 27.296875 
Q 18.109375 17.390625 22.1875 11.75 
Q 26.265625 6.109375 33.40625 6.109375 
Q 40.53125 6.109375 44.609375 11.75 
Q 48.6875 17.390625 48.6875 27.296875 
z
" id="DejaVuSans-112"/>
       <path d="M 52 44.1875 
Q 55.375 50.25 60.0625 53.125 
Q 64.75 56 71.09375 56 
Q 79.640625 56 84.28125 50.015625 
Q 88.921875 44.046875 88.921875 33.015625 
L 88.921875 0 
L 79.890625 0 
L 79.890625 32.71875 
Q 79.890625 40.578125 77.09375 44.375 
Q 74.3125 48.1875 68.609375 48.1875 
Q 61.625 48.1875 57.5625 43.546875 
Q 53.515625 38.921875 53.515625 30.90625 
L 53.515625 0 
L 44.484375 0 
L 44.484375 32.71875 
Q 44.484375 40.625 41.703125 44.40625 
Q 38.921875 48.1875 33.109375 48.1875 
Q 26.21875 48.1875 22.15625 43.53125 
Q 18.109375 38.875 18.109375 30.90625 
L 18.109375 0 
L 9.078125 0 
L 9.078125 54.6875 
L 18.109375 54.6875 
L 18.109375 46.1875 
Q 21.1875 51.21875 25.484375 53.609375 
Q 29.78125 56 35.6875 56 
Q 41.65625 56 45.828125 52.96875 
Q 50 49.953125 52 44.1875 
z
" id="DejaVuSans-109"/>
       <path d="M 8.015625 75.875 
L 15.828125 75.875 
Q 23.140625 64.359375 26.78125 53.3125 
Q 30.421875 42.28125 30.421875 31.390625 
Q 30.421875 20.453125 26.78125 9.375 
Q 23.140625 -1.703125 15.828125 -13.1875 
L 8.015625 -13.1875 
Q 14.5 -2 17.703125 9.0625 
Q 20.90625 20.125 20.90625 31.390625 
Q 20.90625 42.671875 17.703125 53.65625 
Q 14.5 64.65625 8.015625 75.875 
z
" id="DejaVuSans-41"/>
      </defs>
      <use xlink:href="#DejaVuSans-67"/>
      <use x="69.824219" xlink:href="#DejaVuSans-79"/>
      <use x="148.535156" xlink:href="#DejaVuSans-40"/>
      <use x="187.548828" xlink:href="#DejaVuSans-112"/>
      <use x="251.025391" xlink:href="#DejaVuSans-112"/>
      <use x="314.501953" xlink:href="#DejaVuSans-109"/>
      <use x="411.914062" xlink:href="#DejaVuSans-41"/>
     </g>
    </g>
   </g>
   <g id="line2d_15">
    <path clip-path="url(#pe7e75428d5)" d="M 138.436364 365.174676 
L 139.273678 399.902921 
L 140.110992 387.570041 
L 140.948306 327.404541 
L 141.78562 341.346538 
L 142.622934 335.854236 
L 143.460248 345.571385 
L 144.297562 328.756493 
L 145.134876 280.508736 
L 145.97219 285.071572 
L 146.809504 331.798383 
L 147.646818 349.965226 
L 148.484132 330.082727 
L 149.321446 236.823815 
L 150.15876 268.594667 
L 150.996074 264.285323 
L 151.833388 282.62116 
L 152.670702 307.378765 
L 153.508016 321.574252 
L 154.345329 367.878579 
L 155.182643 374.891825 
L 156.019957 386.214416 
L 156.857271 341.853519 
L 157.694585 361.625805 
L 158.531899 378.440697 
L 159.369213 368.808045 
L 160.206527 390.777251 
L 161.043841 383.595011 
L 161.881155 398.466473 
L 162.718469 394.579614 
L 163.555783 364.329707 
L 164.393097 349.28925 
L 165.230411 370.497984 
L 166.067725 406.155695 
L 166.905039 364.921186 
L 167.742353 371.004966 
L 168.579667 369.315027 
L 169.416981 352.500134 
L 170.254295 357.06297 
L 171.091609 345.824876 
L 171.928923 375.652298 
L 172.766237 382.919035 
L 173.603551 386.298913 
L 174.440865 352.669128 
L 175.278179 362.724265 
L 176.115493 383.595011 
L 176.952807 387.868142 
L 177.790121 413.675923 
L 178.627435 405.817707 
L 179.464749 385.369446 
L 180.302063 433.363712 
L 181.139377 416.295329 
L 181.976691 389.087312 
L 182.814005 379.646699 
L 183.651319 411.732494 
L 184.488633 396.269552 
L 185.325947 385.707434 
L 186.163261 380.806611 
L 187.000575 392.805178 
L 187.837889 402.184339 
L 188.675203 370.244493 
L 189.512517 358.752908 
L 190.349831 391.791214 
L 192.024459 419.675207 
L 192.861773 381.989569 
L 193.699087 315.997454 
L 194.536401 377.680224 
L 195.373715 369.484021 
L 196.211029 353.800653 
L 197.048343 344.190043 
L 197.885657 371.849935 
L 198.722971 407.085162 
L 200.397599 368.470057 
L 201.234913 355.204037 
L 202.072227 352.415637 
L 202.909541 381.651581 
L 203.746855 375.229813 
L 204.584169 343.120973 
L 205.421483 431.882792 
L 206.258797 416.379826 
L 207.096111 391.875711 
L 207.933425 405.986701 
L 208.770739 369.315027 
L 209.608053 422.6326 
L 210.445367 344.895409 
L 211.282681 307.125274 
L 212.119995 331.206904 
L 212.957309 396.438546 
L 213.794623 374.46934 
L 214.631937 335.769739 
L 215.469251 365.259173 
L 216.306565 363.991719 
L 217.143879 324.439801 
L 218.818507 408.014628 
L 219.655821 423.815557 
L 220.493135 379.032175 
L 221.330449 370.835972 
L 222.167763 399.987418 
L 223.005077 379.708151 
L 223.842391 352.07765 
L 224.679705 368.892542 
L 225.517019 390.777251 
L 226.354333 375.990285 
L 227.191647 388.32684 
L 228.028961 370.413487 
L 229.703589 392.805178 
L 230.540903 328.080517 
L 231.378217 328.165014 
L 232.215531 335.516248 
L 233.052845 307.632256 
L 233.890159 312.955564 
L 234.727473 394.072632 
L 235.564787 388.664827 
L 236.402101 391.115239 
L 237.239415 387.143882 
L 238.076729 377.51123 
L 238.914043 381.144599 
L 239.751357 374.891825 
L 240.588671 394.917601 
L 241.425985 392.889675 
L 242.263299 392.213699 
L 243.100613 395.931565 
L 243.937927 396.100559 
L 244.775241 387.904355 
L 245.612555 362.30178 
L 246.449869 313.631539 
L 248.124497 392.46719 
L 248.961811 389.509797 
L 250.636439 403.451793 
L 251.473753 354.443564 
L 252.311067 373.539874 
L 253.148381 418.638199 
L 253.985695 388.62809 
L 254.823009 350.725699 
L 255.660323 410.887524 
L 256.497637 442.996364 
L 257.334951 428.631883 
L 258.172265 378.3562 
L 259.009579 340.670562 
L 259.846893 393.312159 
L 260.684207 415.696503 
L 261.521521 373.117389 
L 262.358835 402.783499 
L 263.196149 386.265114 
L 264.033463 374.722831 
L 264.870777 414.351899 
L 265.708091 399.64943 
L 266.545405 380.468624 
L 267.382719 388.495833 
L 268.220033 382.49655 
L 269.057347 384.017495 
L 269.89466 368.723548 
L 270.731974 382.327556 
L 271.569288 388.930389 
L 272.406602 372.27242 
L 273.243916 400.156412 
L 274.08123 411.901487 
L 275.755858 362.00053 
L 276.593172 364.583198 
L 277.430486 362.386277 
L 278.2678 361.963792 
L 279.105114 367.202603 
L 279.942428 369.737511 
L 280.779742 349.627238 
L 281.617056 342.782986 
L 282.45437 359.344387 
L 283.291684 403.705284 
L 284.128998 386.38341 
L 284.966312 380.722114 
L 285.803626 382.327556 
L 286.64094 371.065321 
L 287.478254 347.430318 
L 288.315568 368.301063 
L 289.152882 363.653731 
L 289.990196 352.246644 
L 290.82751 358.921902 
L 291.664824 353.345104 
L 292.502138 328.334008 
L 293.339452 332.98134 
L 294.176766 332.051873 
L 295.01408 323.179694 
L 295.851394 346.669845 
L 296.688708 397.874994 
L 297.526022 403.198302 
L 298.363336 196.85676 
L 299.20065 356.218 
L 300.037964 339.234114 
L 300.875278 366.442131 
L 301.712592 355.795515 
L 302.549906 360.696338 
L 303.38722 359.175393 
L 304.224534 333.521386 
L 305.061848 318.194374 
L 305.899162 354.27457 
L 306.736476 383.088029 
L 307.57379 376.835255 
L 308.411104 380.975605 
L 309.248418 393.903638 
L 310.923046 369.822008 
L 311.76036 364.24521 
L 312.597674 378.525194 
L 313.434988 397.959491 
L 314.272302 412.46224 
L 315.109616 404.465756 
L 315.94693 357.992436 
L 316.784244 351.739662 
L 317.621558 352.753625 
L 318.458872 364.836689 
L 319.296186 362.132786 
L 320.1335 348.359784 
L 320.970814 344.05044 
L 321.808128 315.659466 
L 322.645442 313.969527 
L 323.482756 322.503719 
L 324.32007 301.463979 
L 325.157384 290.04482 
L 325.994698 293.605763 
L 326.832012 321.827743 
L 327.669326 332.474358 
L 328.50664 314.307515 
L 329.343954 357.31646 
L 330.181268 341.093047 
L 331.018582 302.055458 
L 331.855896 306.787287 
L 332.69321 315.405975 
L 333.530524 274.509453 
L 334.367838 275.354423 
L 335.205152 314.307515 
L 336.87978 283.635123 
L 338.554408 303.829894 
L 339.391722 290.394879 
L 340.229036 206.235921 
L 342.740978 274.762944 
L 343.578292 281.438203 
L 344.415606 273.073005 
L 345.25292 287.859971 
L 346.090234 311.603613 
L 346.927548 293.859254 
L 347.764862 309.74468 
L 348.602176 317.433902 
L 349.43949 314.645503 
L 350.276804 336.107727 
L 351.114118 340.332574 
L 351.951432 345.655882 
L 352.788746 356.471491 
L 353.62606 328.249511 
L 354.463374 341.262041 
L 355.300688 359.513381 
L 356.138002 353.852086 
L 356.975316 343.965943 
L 357.81263 332.13637 
L 358.649944 325.123124 
L 359.487258 267.41171 
L 360.324572 265.46828 
L 361.161886 310.420655 
L 361.9992 325.461112 
L 362.836514 285.66305 
L 363.673828 340.670562 
L 364.511142 337.797666 
L 365.348456 388.242343 
L 366.18577 388.495833 
L 367.023084 373.286383 
L 367.860398 334.333291 
L 368.697712 347.599312 
L 369.535026 291.408842 
L 370.37234 297.83061 
L 371.209654 308.392729 
L 372.046968 296.309665 
L 372.884282 323.771173 
L 373.721596 335.431751 
L 374.55891 301.801967 
L 375.396224 390.861748 
L 376.233538 362.30178 
L 377.070852 353.936583 
L 377.908166 350.894692 
L 378.74548 364.836689 
L 379.582794 367.118106 
L 380.420108 368.892542 
L 381.257422 370.075499 
L 382.094736 371.511947 
L 382.93205 369.822008 
L 384.606678 422.041121 
L 385.443991 432.85673 
L 386.281305 441.390922 
L 387.118619 416.464323 
L 387.955933 405.564217 
L 388.793247 379.792648 
L 389.630561 363.315744 
L 390.467875 422.548103 
L 391.305189 423.393072 
L 392.142503 367.456094 
L 392.979817 358.921902 
L 393.817131 380.046139 
L 394.654445 418.999231 
L 395.491759 352.246644 
L 396.329073 348.613275 
L 397.166387 352.415637 
L 398.003701 375.567801 
L 398.841015 358.668411 
L 399.678329 376.243776 
L 400.515643 371.004966 
L 401.352957 355.711018 
L 402.190271 361.456811 
L 403.027585 351.317177 
L 403.864899 344.454556 
L 404.702213 364.910164 
L 405.539527 342.782986 
L 406.376841 310.420655 
L 407.214155 316.250945 
L 408.051469 315.82846 
L 408.888783 302.562439 
L 409.726097 296.985641 
L 410.563411 267.158219 
L 411.400725 298.760077 
L 412.238039 289.465413 
L 413.075353 257.018585 
L 413.912667 284.987075 
L 414.749981 285.494056 
L 415.587295 279.089188 
L 416.424609 315.490472 
L 417.261923 338.811629 
L 418.099237 351.401674 
L 418.936551 347.007833 
L 419.773865 343.289967 
L 420.611179 338.220151 
L 421.448493 283.145041 
L 422.285807 324.785136 
L 423.123121 290.563873 
L 423.960435 299.122207 
L 424.797749 309.775406 
L 425.635063 274.976023 
L 426.472377 311.487985 
L 427.309691 214.516622 
L 428.147005 253.216223 
L 428.984319 277.551343 
L 429.821633 284.979393 
L 430.658947 309.406692 
L 431.496261 344.303931 
L 432.333575 362.048289 
L 433.170889 353.17611 
L 434.008203 335.516248 
L 434.845517 302.393445 
L 436.520145 307.378765 
L 437.357459 325.123124 
L 438.194773 259.722488 
L 439.032087 302.900427 
L 439.869401 307.040777 
L 440.706715 265.045795 
L 441.544029 386.298913 
L 442.381343 416.833441 
L 443.218657 386.890391 
L 444.055971 346.24736 
L 444.893285 317.011417 
L 445.730599 280.931221 
L 446.567913 320.560289 
L 447.405227 254.230186 
L 449.079855 399.902921 
L 449.917169 379.116672 
L 450.754483 346.669845 
L 451.591797 336.107727 
L 453.266425 300.534513 
L 454.103739 258.117046 
L 454.941053 276.621877 
L 455.778367 245.803536 
L 456.615681 251.426424 
L 457.452995 258.677798 
L 458.290309 239.274227 
L 459.127623 262.764378 
L 459.964937 278.649804 
L 460.802251 261.547622 
L 461.639565 318.109877 
L 462.476879 274.678447 
L 463.314193 245.695995 
L 464.151507 246.456467 
L 464.988821 202.94054 
L 465.826135 260.820948 
L 466.663449 296.73215 
L 467.500763 299.351555 
L 469.175391 235.049379 
L 470.012705 264.623311 
L 470.850019 315.321478 
L 471.687333 392.213699 
L 472.524647 364.667695 
L 473.361961 388.073349 
L 474.199275 375.567801 
L 475.036589 399.64943 
L 475.873903 368.892542 
L 476.711217 325.968093 
L 477.548531 382.158562 
L 478.385845 400.240909 
L 479.223159 370.32899 
L 480.060473 370.244493 
L 480.897787 382.412053 
L 481.735101 353.091613 
L 482.572415 386.552404 
L 483.409729 393.227662 
L 484.247043 363.991719 
L 485.084357 362.132786 
L 485.921671 343.289967 
L 486.758985 376.328273 
L 487.596299 393.903638 
L 488.433613 389.340803 
L 489.270927 361.794798 
L 490.108241 321.320761 
L 490.945555 358.837405 
L 491.782869 330.277438 
L 492.620183 287.944468 
L 493.457497 385.707434 
L 494.294811 374.891825 
L 495.132125 372.610408 
L 495.969439 364.076216 
L 496.806753 330.361935 
L 497.644067 400.832388 
L 498.481381 392.551687 
L 499.318695 392.044705 
L 500.156009 387.904355 
L 500.993322 339.572102 
L 501.830636 365.512664 
L 502.66795 370.413487 
L 503.505264 370.666978 
L 504.342578 363.40024 
L 505.179892 373.793365 
L 506.017206 412.66196 
L 506.85452 397.030025 
L 507.691834 374.976322 
L 508.529148 320.81378 
L 509.366462 326.475075 
L 510.203776 350.641202 
L 511.04109 299.858537 
L 511.878404 363.991719 
L 512.715718 415.619353 
L 513.553032 383.426017 
L 514.390346 361.794798 
L 515.22766 373.624371 
L 516.064974 383.257023 
L 516.902288 377.595727 
L 517.739602 371.004966 
L 518.576916 370.666978 
L 519.41423 364.160713 
L 520.251544 303.069421 
L 521.088858 299.858537 
L 521.926172 333.910806 
L 522.763486 375.398807 
L 523.6008 358.330424 
L 524.438114 315.236981 
L 525.275428 375.229813 
L 526.112742 383.257023 
L 526.950056 347.09233 
L 527.78737 342.191507 
L 528.624684 355.795515 
L 529.461998 371.511947 
L 530.299312 361.541308 
L 531.136626 319.039344 
L 531.97394 354.950546 
L 532.811254 369.315027 
L 533.648568 378.271703 
L 534.485882 372.610408 
L 535.323196 340.248077 
L 536.16051 301.71747 
L 536.997824 371.004966 
L 537.835138 371.17396 
L 538.672452 383.848501 
L 539.509766 373.962359 
L 540.34708 316.419938 
L 541.184394 282.536663 
L 542.021708 286.930504 
L 542.859022 305.435335 
L 543.696336 309.998171 
L 544.53365 371.342953 
L 545.370964 352.07765 
L 546.208278 308.984207 
L 547.045592 360.527344 
L 547.882906 365.174676 
L 549.557534 407.000665 
L 550.394848 403.874278 
L 551.232162 408.014628 
L 552.069476 395.340086 
L 552.90679 397.368013 
L 553.744104 397.199019 
L 555.418732 405.395223 
L 556.256046 385.453943 
L 557.09336 385.960925 
L 557.930674 398.804461 
L 558.767988 385.53844 
L 559.605302 397.621504 
L 560.442616 398.043988 
L 561.27993 403.958775 
L 562.117244 372.694905 
L 562.954558 376.243776 
L 563.791872 368.301063 
L 564.629186 376.919752 
L 567.141128 382.665544 
L 567.978442 362.555271 
L 568.815756 365.850652 
L 569.65307 341.346538 
L 570.490384 341.484805 
L 571.327698 300.027531 
L 572.165012 318.109877 
L 573.002326 346.078367 
L 573.83964 386.805895 
L 574.676954 381.784362 
L 575.514268 388.918318 
L 576.351582 429.561349 
L 577.188896 433.870693 
L 578.02621 431.335785 
L 578.863524 433.786197 
L 579.700838 418.323255 
L 580.538152 396.861031 
L 581.375466 381.820575 
L 582.21278 399.480436 
L 583.050094 401.677357 
L 583.887408 396.100559 
L 584.724722 392.805178 
L 585.562036 372.187923 
L 586.39935 370.075499 
L 587.236664 326.982057 
L 588.073978 361.710302 
L 588.911292 334.333291 
L 589.748606 336.868199 
L 590.58592 375.229813 
L 591.423234 352.162147 
L 592.260548 360.780835 
L 593.097862 360.696338 
L 593.935176 358.16143 
L 594.77249 350.641202 
L 595.609804 353.007116 
L 596.447118 363.569234 
L 597.284432 381.820575 
L 598.121746 381.567084 
L 598.95906 371.004966 
L 600.633688 335.685242 
L 601.471002 348.613275 
L 602.308316 352.838122 
L 603.14563 320.475792 
L 603.982944 304.083384 
L 604.820258 312.026097 
L 605.657572 321.489755 
L 606.494886 275.43892 
L 607.3322 302.224452 
L 608.169514 321.405258 
L 609.006828 319.630822 
L 609.844142 314.814497 
L 610.681456 307.716753 
L 611.51877 276.621877 
L 612.356084 251.610781 
L 613.193398 255.075156 
L 614.030712 286.001038 
L 614.868026 272.988508 
L 615.70534 222.290341 
L 616.542653 239.696711 
L 617.379967 226.430691 
L 618.217281 271.890048 
L 619.054595 296.309665 
L 619.891909 299.351555 
L 620.729223 270.115612 
L 621.566537 333.488322 
L 622.403851 254.652671 
L 623.241165 245.611498 
L 624.078479 261.496924 
L 624.915793 294.028248 
L 625.753107 319.96881 
L 626.590421 320.729283 
L 627.427735 337.12169 
L 628.265049 356.809479 
L 629.102363 356.218 
L 629.939677 327.742529 
L 630.776991 329.263474 
L 631.614305 347.937299 
L 632.451619 327.404541 
L 633.288933 319.208338 
L 634.126247 318.109877 
L 634.963561 292.929787 
L 635.800875 307.294268 
L 636.638189 313.378048 
L 637.475503 327.320045 
L 638.312817 334.417788 
L 639.150131 338.473641 
L 639.987445 341.684525 
L 640.824759 340.670562 
L 641.662073 335.347254 
L 642.499387 334.755776 
L 643.336701 334.586782 
L 644.174015 320.560289 
L 645.011329 310.589649 
L 645.848643 350.641202 
L 646.685957 357.147466 
L 647.523271 338.051157 
L 648.360585 356.640485 
L 649.197899 357.31646 
L 650.035213 335.685242 
L 650.872527 343.965943 
L 651.709841 333.910806 
L 652.547155 321.574252 
L 653.384469 351.570668 
L 655.059097 299.77404 
L 655.896411 282.790154 
L 656.733725 305.266342 
L 657.571039 285.578553 
L 658.408353 292.422806 
L 659.245667 318.278871 
L 660.082981 354.359067 
L 660.920295 377.25774 
L 661.757609 343.627955 
L 662.594923 326.644069 
L 663.432237 387.988852 
L 664.269551 373.032892 
L 665.106865 375.483304 
L 665.944179 367.118106 
L 666.781493 333.065837 
L 667.618807 323.0107 
L 668.456121 303.829894 
L 669.293435 290.901861 
L 670.130749 266.397746 
L 670.968063 296.140671 
L 671.805377 333.319328 
L 672.642691 360.865332 
L 673.480005 355.373031 
L 674.317319 356.893976 
L 675.154633 355.373031 
L 675.991947 363.062253 
L 676.829261 369.061536 
L 677.666575 390.861748 
L 678.503889 337.290684 
L 679.341203 256.427107 
L 680.178517 304.590366 
L 681.015831 386.045422 
L 681.853145 346.162863 
L 682.690459 280.001755 
L 683.527773 275.861404 
L 684.365087 322.588216 
L 685.202401 329.263474 
L 686.039715 319.377332 
L 686.877029 330.615425 
L 687.714343 292.422806 
L 688.551657 292.084818 
L 689.388971 299.182561 
L 690.226285 304.167881 
L 691.063599 309.998171 
L 691.900913 283.550626 
L 692.738227 305.097348 
L 693.575541 320.306798 
L 694.412855 322.250228 
L 695.250169 292.845291 
L 696.087483 328.925486 
L 696.924797 316.673429 
L 697.762111 339.149617 
L 698.599425 321.067271 
L 699.436739 339.572102 
L 701.111367 323.517682 
L 701.948681 355.964509 
L 702.785995 329.770456 
L 703.623309 366.611124 
L 704.460623 336.699206 
L 705.297937 300.281022 
L 706.135251 320.644786 
L 706.972565 325.545609 
L 707.809879 333.741812 
L 708.647193 314.898993 
L 709.484507 326.306081 
L 710.321821 361.287817 
L 711.159135 374.344432 
L 711.996449 359.267238 
L 712.833763 407.408454 
L 713.671077 399.296747 
L 714.508391 324.704313 
L 715.345705 349.215775 
L 716.183019 360.942481 
L 717.020333 337.577239 
L 717.857647 348.157726 
L 718.694961 370.553091 
L 720.369589 343.043824 
L 721.206903 323.910776 
L 722.044217 384.307724 
L 722.881531 382.015285 
L 723.718845 387.658212 
L 724.556159 397.709674 
L 725.393473 375.31431 
L 726.230787 357.591994 
L 727.068101 371.258456 
L 727.905415 404.322479 
L 729.580043 373.286383 
L 730.417357 379.105651 
L 731.254671 355.123214 
L 732.091984 286.526388 
L 732.929298 297.106876 
L 734.603926 363.23492 
L 735.44124 311.03785 
L 736.278554 330.699922 
L 737.115868 372.051993 
L 737.953182 382.227696 
L 738.790496 352.389921 
L 739.62781 353.095287 
L 740.465124 312.360411 
L 741.302438 300.01651 
L 742.139752 344.807239 
L 742.977066 344.719068 
L 743.81438 348.510409 
L 745.489008 291.55212 
L 746.326322 313.771143 
L 747.163636 317.826996 
L 747.163636 317.826996 
" style="fill:none;stroke:#1f77b4;stroke-linecap:square;stroke-width:1.5;"/>
   </g>
   <g id="line2d_16">
    <path clip-path="url(#pe7e75428d5)" d="M 138.436364 370.520041 
L 139.273678 368.456009 
L 140.110992 365.400511 
L 140.948306 330.775994 
L 141.78562 278.425896 
L 142.622934 353.721119 
L 143.460248 252.170104 
L 144.297562 335.827438 
L 145.134876 294.635737 
L 145.97219 319.757656 
L 146.809504 329.742358 
L 147.646818 278.384935 
L 148.484132 264.068558 
L 149.321446 284.745587 
L 150.15876 161.843067 
L 150.996074 266.266451 
L 151.833388 238.06575 
L 152.670702 257.138735 
L 153.508016 296.919634 
L 155.182643 385.001415 
L 156.019957 366.204738 
L 156.857271 332.039793 
L 157.694585 342.325403 
L 158.531899 345.829314 
L 159.369213 330.950245 
L 160.206527 342.145968 
L 161.043841 301.002966 
L 161.881155 375.025387 
L 162.718469 292.642905 
L 163.555783 332.243673 
L 164.393097 303.149685 
L 165.230411 290.730371 
L 166.067725 396.241813 
L 166.905039 268.813099 
L 167.742353 383.496236 
L 168.579667 338.54443 
L 169.416981 356.230402 
L 170.254295 347.086073 
L 171.091609 324.427119 
L 171.928923 348.583284 
L 172.766237 337.708834 
L 173.603551 324.722302 
L 174.440865 353.271526 
L 175.278179 342.693575 
L 176.115493 412.543305 
L 176.952807 303.351748 
L 177.790121 311.670073 
L 178.627435 424.310229 
L 179.464749 351.311068 
L 180.302063 415.045229 
L 181.139377 374.266831 
L 181.976691 350.824885 
L 182.814005 396.981841 
L 183.651319 401.680362 
L 184.488633 354.311254 
L 185.325947 364.236448 
L 186.163261 388.267339 
L 187.000575 322.114425 
L 187.837889 376.784817 
L 188.675203 333.922543 
L 189.512517 332.235956 
L 190.349831 365.345702 
L 191.187145 316.39069 
L 192.024459 374.375598 
L 192.861773 290.338759 
L 193.699087 352.367893 
L 194.536401 327.40928 
L 195.373715 374.374176 
L 196.211029 334.496916 
L 197.048343 311.685661 
L 197.885657 413.018726 
L 198.722971 343.945519 
L 199.560285 321.490522 
L 200.397599 365.432441 
L 201.234913 283.695223 
L 202.072227 350.686296 
L 202.909541 396.813101 
L 203.746855 316.696917 
L 204.584169 298.888157 
L 205.421483 401.768823 
L 206.258797 360.288166 
L 207.096111 332.174707 
L 207.933425 383.086319 
L 208.770739 309.099135 
L 209.608053 391.067532 
L 210.445367 275.201137 
L 211.282681 364.776435 
L 212.119995 317.342905 
L 212.957309 355.917232 
L 213.794623 388.18676 
L 214.631937 320.109331 
L 215.469251 384.321446 
L 216.306565 335.209724 
L 217.143879 320.491234 
L 217.981193 367.642325 
L 218.818507 388.341217 
L 219.655821 380.272501 
L 220.493135 385.606993 
L 221.330449 332.913952 
L 222.167763 365.855055 
L 223.005077 373.596358 
L 223.842391 362.615152 
L 224.679705 327.643988 
L 225.517019 385.127211 
L 226.354333 354.296865 
L 227.191647 386.279187 
L 228.028961 342.103382 
L 228.866275 342.418544 
L 229.703589 336.032768 
L 230.540903 328.585392 
L 231.378217 260.074055 
L 232.215531 292.229864 
L 233.052845 345.269387 
L 233.890159 329.112151 
L 234.727473 393.796631 
L 235.564787 394.019175 
L 236.402101 337.516519 
L 237.239415 377.537745 
L 238.076729 328.514473 
L 238.914043 252.839842 
L 239.751357 355.105579 
L 240.588671 372.945525 
L 241.425985 351.996143 
L 242.263299 381.397372 
L 243.937927 311.084231 
L 244.775241 377.0311 
L 245.612555 342.717363 
L 246.449869 352.818066 
L 247.287183 231.214214 
L 248.124497 328.621848 
L 248.961811 405.520409 
L 249.799125 369.575078 
L 250.636439 338.657317 
L 252.311067 386.04884 
L 253.148381 349.134623 
L 253.985695 389.542191 
L 254.823009 328.065112 
L 255.660323 373.201013 
L 256.497637 336.681639 
L 257.334951 394.939005 
L 258.172265 395.658069 
L 259.009579 354.046569 
L 259.846893 326.307587 
L 260.684207 396.907489 
L 261.521521 313.385998 
L 262.358835 319.542017 
L 263.196149 314.582475 
L 264.033463 319.617403 
L 264.870777 303.100485 
L 265.708091 384.784587 
L 267.382719 334.428782 
L 268.220033 354.794962 
L 269.057347 352.069015 
L 269.89466 345.125634 
L 271.569288 363.486121 
L 272.406602 324.410409 
L 273.243916 364.001024 
L 274.08123 410.563546 
L 274.918544 335.471411 
L 275.755858 338.335135 
L 276.593172 282.522069 
L 277.430486 318.426554 
L 278.2678 308.150401 
L 279.105114 362.514334 
L 279.942428 356.928473 
L 280.779742 292.926542 
L 281.617056 339.440367 
L 282.45437 312.98725 
L 283.291684 400.059763 
L 284.128998 301.173813 
L 284.966312 378.195086 
L 285.803626 314.17133 
L 286.64094 299.734351 
L 287.478254 325.795546 
L 288.315568 337.145833 
L 289.152882 389.582824 
L 289.990196 285.779939 
L 290.82751 353.629255 
L 291.664824 287.724654 
L 292.502138 311.879098 
L 293.339452 280.751896 
L 294.176766 282.790003 
L 295.01408 325.62553 
L 295.851394 313.367935 
L 296.688708 365.834767 
L 297.526022 349.502351 
L 298.363336 86.923636 
L 299.20065 292.343795 
L 300.037964 363.261044 
L 300.875278 371.666834 
L 301.712592 314.483456 
L 302.549906 330.243143 
L 303.38722 308.231725 
L 304.224534 246.760428 
L 305.061848 271.530594 
L 306.736476 361.456465 
L 307.57379 352.701891 
L 308.411104 356.77768 
L 309.248418 355.091422 
L 310.085732 344.162086 
L 310.923046 361.980071 
L 311.76036 350.855519 
L 312.597674 374.882243 
L 313.434988 339.716152 
L 314.272302 392.715671 
L 315.109616 341.673767 
L 315.94693 348.163939 
L 316.784244 303.686694 
L 317.621558 303.727965 
L 318.458872 345.933633 
L 319.296186 332.369266 
L 320.1335 272.898074 
L 320.970814 352.852316 
L 321.808128 266.18006 
L 322.645442 267.114657 
L 323.482756 342.118312 
L 324.32007 288.975437 
L 325.157384 260.179379 
L 325.994698 266.598786 
L 326.832012 294.17543 
L 327.669326 302.365398 
L 328.50664 260.061909 
L 329.343954 299.333611 
L 330.181268 235.719966 
L 331.018582 282.559879 
L 331.855896 219.940532 
L 332.69321 331.302617 
L 333.530524 270.10496 
L 334.367838 260.989427 
L 335.205152 268.276129 
L 336.042466 302.562606 
L 336.87978 320.083396 
L 337.717094 285.519277 
L 338.554408 343.333646 
L 339.391722 332.097889 
L 340.229036 248.712899 
L 342.740978 270.947595 
L 343.578292 301.162654 
L 344.415606 341.182168 
L 345.25292 276.146738 
L 346.090234 307.635323 
L 346.927548 333.532536 
L 347.764862 331.378139 
L 348.602176 305.424067 
L 349.43949 345.341099 
L 350.276804 326.900004 
L 351.114118 359.015529 
L 351.951432 298.003515 
L 352.788746 306.992197 
L 353.62606 264.70273 
L 354.463374 333.872008 
L 355.300688 351.209032 
L 356.138002 318.814008 
L 356.975316 315.553083 
L 357.81263 273.225826 
L 358.649944 311.660887 
L 359.487258 238.872704 
L 360.324572 259.885743 
L 361.161886 356.001148 
L 361.9992 329.845536 
L 362.836514 190.841613 
L 363.673828 279.828497 
L 364.511142 229.813392 
L 365.348456 310.928024 
L 366.18577 374.759309 
L 367.023084 343.906762 
L 367.860398 235.144045 
L 368.697712 184.640997 
L 369.535026 256.984944 
L 370.37234 267.636503 
L 371.209654 253.978647 
L 372.046968 281.812279 
L 372.884282 273.260463 
L 373.721596 284.432418 
L 374.55891 234.133501 
L 375.396224 321.925533 
L 376.233538 299.352119 
L 377.070852 334.013634 
L 377.908166 337.579625 
L 378.74548 299.893866 
L 379.582794 287.660755 
L 380.420108 330.373474 
L 381.257422 346.380189 
L 382.094736 304.167675 
L 382.93205 243.653661 
L 383.769364 358.983406 
L 384.606678 311.301882 
L 385.443991 373.492223 
L 386.281305 414.967996 
L 387.118619 352.926098 
L 387.955933 361.384308 
L 388.793247 355.755726 
L 389.630561 355.684652 
L 390.467875 408.303021 
L 391.305189 399.75782 
L 392.142503 344.175044 
L 392.979817 314.058328 
L 393.817131 369.695614 
L 394.654445 390.41753 
L 395.491759 353.710966 
L 396.329073 332.131618 
L 397.166387 329.789644 
L 398.003701 314.937709 
L 398.841015 302.30527 
L 399.678329 355.951309 
L 400.515643 373.398918 
L 401.352957 319.276152 
L 402.190271 350.093666 
L 403.027585 375.217083 
L 403.864899 357.733705 
L 404.702213 355.76791 
L 405.539527 300.0165 
L 406.376841 304.022278 
L 407.214155 265.579404 
L 408.051469 314.225578 
L 408.888783 309.76454 
L 409.726097 330.98262 
L 410.563411 186.939612 
L 411.400725 343.618502 
L 412.238039 245.309846 
L 413.075353 215.098094 
L 413.912667 250.957265 
L 415.587295 295.084479 
L 416.424609 364.208753 
L 417.261923 326.169772 
L 418.099237 300.171276 
L 418.936551 345.157796 
L 419.773865 298.677507 
L 420.611179 300.082294 
L 421.448493 304.400778 
L 422.285807 333.443457 
L 423.123121 243.399613 
L 423.960435 316.497291 
L 424.797749 324.411821 
L 425.635063 296.373246 
L 426.472377 332.092455 
L 427.309691 224.700235 
L 428.147005 294.679329 
L 428.984319 311.428055 
L 429.821633 310.888455 
L 430.658947 352.010957 
L 431.496261 328.668437 
L 432.333575 337.638283 
L 433.170889 375.614729 
L 434.008203 349.767094 
L 434.845517 309.861588 
L 435.682831 321.941643 
L 437.357459 336.981232 
L 438.194773 190.170792 
L 439.032087 204.296439 
L 439.869401 348.749916 
L 440.706715 175.71896 
L 441.544029 259.23724 
L 442.381343 285.010446 
L 443.218657 385.655874 
L 444.055971 339.465199 
L 444.893285 323.519656 
L 445.730599 296.910448 
L 446.567913 298.265608 
L 447.405227 282.964622 
L 448.242541 303.35753 
L 449.079855 338.561469 
L 449.917169 392.62606 
L 450.754483 326.632341 
L 451.591797 289.636994 
L 452.429111 394.057999 
L 453.266425 282.208706 
L 454.103739 227.339559 
L 454.941053 210.243239 
L 455.778367 244.107431 
L 456.615681 286.509437 
L 457.452995 311.868828 
L 458.290309 235.585631 
L 459.127623 192.283241 
L 459.964937 296.964483 
L 460.802251 287.082224 
L 461.639565 325.884896 
L 462.476879 281.559004 
L 463.314193 222.693903 
L 464.151507 241.718558 
L 464.988821 231.543474 
L 465.826135 239.573675 
L 466.663449 342.891247 
L 467.500763 311.815876 
L 468.338077 304.172974 
L 469.175391 202.571908 
L 470.012705 271.569661 
L 470.850019 195.319399 
L 471.687333 318.80368 
L 472.524647 365.925723 
L 473.361961 387.311305 
L 474.199275 362.710478 
L 475.036589 387.385328 
L 475.873903 345.519316 
L 476.711217 352.219344 
L 477.548531 414.276211 
L 478.385845 412.800544 
L 479.223159 402.383403 
L 480.060473 367.244234 
L 480.897787 396.81225 
L 481.735101 340.808601 
L 482.572415 369.663916 
L 483.409729 350.475085 
L 484.247043 341.459076 
L 485.084357 345.61352 
L 485.921671 344.837181 
L 487.596299 393.181944 
L 488.433613 375.477774 
L 489.270927 354.399521 
L 490.108241 320.489513 
L 490.945555 352.444362 
L 491.782869 350.338024 
L 492.620183 263.739066 
L 493.457497 401.504747 
L 494.294811 346.735287 
L 495.132125 321.034451 
L 495.969439 369.352989 
L 496.806753 338.385631 
L 497.644067 414.546755 
L 498.481381 396.340775 
L 499.318695 391.485707 
L 500.156009 348.297306 
L 500.993322 379.390393 
L 501.830636 383.193558 
L 502.66795 327.470471 
L 503.505264 383.784428 
L 504.342578 372.84431 
L 505.179892 349.121608 
L 506.017206 396.568046 
L 506.85452 388.784254 
L 507.691834 341.474722 
L 508.529148 370.545589 
L 509.366462 329.940881 
L 510.203776 371.037342 
L 511.04109 337.647759 
L 511.878404 366.95874 
L 512.715718 405.501108 
L 513.553032 365.386664 
L 514.390346 368.279243 
L 515.22766 312.04105 
L 516.064974 393.928742 
L 516.902288 368.771809 
L 517.739602 394.215822 
L 518.576916 395.541383 
L 519.41423 385.032436 
L 520.251544 311.118231 
L 521.088858 311.589929 
L 521.926172 245.130121 
L 522.763486 387.603104 
L 523.6008 342.367022 
L 524.438114 326.690922 
L 525.275428 361.891244 
L 526.112742 415.187106 
L 526.950056 362.23205 
L 527.78737 318.347725 
L 528.624684 373.423412 
L 529.461998 356.653016 
L 530.299312 337.003124 
L 531.136626 339.161332 
L 531.97394 354.822173 
L 532.811254 352.579122 
L 533.648568 356.666921 
L 534.485882 392.503243 
L 535.323196 391.40388 
L 536.16051 349.600075 
L 536.997824 333.657336 
L 537.835138 314.415766 
L 538.672452 341.781683 
L 539.509766 305.038373 
L 540.34708 359.588645 
L 541.184394 279.853639 
L 542.021708 301.652861 
L 542.859022 367.653793 
L 543.696336 283.258259 
L 544.53365 371.197631 
L 545.370964 325.215584 
L 546.208278 354.802311 
L 547.045592 342.13595 
L 547.882906 341.686067 
L 548.72022 397.135718 
L 549.557534 407.567093 
L 550.394848 385.353129 
L 551.232162 408.787464 
L 552.069476 402.109204 
L 552.90679 385.001047 
L 553.744104 374.311186 
L 554.581418 370.164237 
L 555.418732 407.395355 
L 556.256046 373.221572 
L 557.09336 366.488705 
L 557.930674 381.669929 
L 558.767988 400.063496 
L 559.605302 374.075463 
L 560.442616 404.965598 
L 561.27993 407.632781 
L 562.117244 363.53741 
L 562.954558 358.812906 
L 563.791872 380.830136 
L 564.629186 384.203232 
L 565.4665 370.042638 
L 566.303814 381.997661 
L 567.141128 380.270731 
L 567.978442 349.901544 
L 568.815756 374.875329 
L 569.65307 312.369169 
L 570.490384 195.670842 
L 571.327698 248.74274 
L 572.165012 309.88671 
L 573.002326 342.678567 
L 573.83964 398.372558 
L 574.676954 373.40528 
L 575.514268 391.588585 
L 576.351582 402.441297 
L 577.188896 398.893911 
L 578.02621 415.796891 
L 578.863524 398.110068 
L 579.700838 360.598396 
L 580.538152 377.411233 
L 581.375466 365.609961 
L 582.21278 409.272662 
L 583.050094 405.75678 
L 583.887408 409.578937 
L 584.724722 379.183776 
L 585.562036 326.165575 
L 586.39935 374.787652 
L 587.236664 359.310268 
L 588.073978 312.33925 
L 588.911292 271.982662 
L 589.748606 296.553744 
L 590.58592 356.552913 
L 591.423234 347.895947 
L 592.260548 325.357557 
L 593.097862 298.027922 
L 593.935176 302.17666 
L 594.77249 383.867173 
L 595.609804 364.166805 
L 596.447118 334.508191 
L 597.284432 376.904037 
L 598.121746 312.148037 
L 598.95906 373.062511 
L 599.796374 350.753676 
L 600.633688 354.511827 
L 601.471002 336.67251 
L 602.308316 335.484891 
L 603.14563 305.911179 
L 603.982944 283.157111 
L 604.820258 316.073111 
L 605.657572 325.56372 
L 606.494886 310.650072 
L 607.3322 321.356033 
L 608.169514 299.369621 
L 609.006828 298.730692 
L 609.844142 271.459095 
L 610.681456 257.678954 
L 611.51877 270.033983 
L 612.356084 205.462939 
L 613.193398 241.204757 
L 614.030712 210.065854 
L 614.868026 212.410227 
L 615.70534 269.471368 
L 616.542653 252.055013 
L 617.379967 218.189293 
L 619.054595 289.81465 
L 619.891909 278.459025 
L 620.729223 271.221621 
L 621.566537 252.004168 
L 622.403851 259.363781 
L 623.241165 273.433632 
L 624.078479 276.141574 
L 624.915793 332.547211 
L 625.753107 351.947793 
L 626.590421 358.935772 
L 627.427735 358.867386 
L 628.265049 327.727536 
L 629.102363 352.969728 
L 629.939677 317.738115 
L 630.776991 385.333605 
L 631.614305 347.583686 
L 632.451619 318.068574 
L 633.288933 308.911326 
L 634.126247 319.901002 
L 634.963561 287.513985 
L 635.800875 349.680528 
L 636.638189 314.661401 
L 637.475503 288.420288 
L 638.312817 272.00589 
L 639.150131 299.787226 
L 639.987445 341.407091 
L 640.824759 330.276524 
L 641.662073 342.654837 
L 642.499387 342.835703 
L 643.336701 329.774945 
L 644.174015 259.509351 
L 645.011329 308.45976 
L 645.848643 305.997473 
L 646.685957 307.613469 
L 647.523271 370.722693 
L 649.197899 336.638685 
L 650.035213 296.425018 
L 650.872527 309.69542 
L 651.709841 315.615899 
L 652.547155 325.636128 
L 653.384469 324.643299 
L 654.221783 358.758909 
L 655.059097 300.259311 
L 655.896411 220.534613 
L 656.733725 282.490816 
L 657.571039 241.328648 
L 658.408353 304.282283 
L 659.245667 303.347899 
L 660.082981 346.394887 
L 660.920295 369.79942 
L 661.757609 303.358207 
L 662.594923 328.267948 
L 663.432237 346.760564 
L 664.269551 376.462287 
L 665.106865 385.923296 
L 665.944179 365.449634 
L 666.781493 326.281788 
L 667.618807 240.806685 
L 669.293435 292.964332 
L 670.130749 294.591874 
L 670.968063 302.703864 
L 671.805377 303.465852 
L 672.642691 335.782763 
L 673.480005 324.180671 
L 674.317319 376.223653 
L 675.154633 356.123317 
L 675.991947 351.302269 
L 676.829261 364.26217 
L 677.666575 293.109323 
L 678.503889 250.340944 
L 679.341203 261.048743 
L 680.178517 262.918903 
L 681.015831 324.19771 
L 681.853145 313.378378 
L 682.690459 312.477897 
L 683.527773 188.978415 
L 684.365087 318.246926 
L 685.202401 257.46608 
L 686.039715 310.104863 
L 686.877029 327.683364 
L 687.714343 285.515215 
L 688.551657 314.976737 
L 689.388971 232.465732 
L 690.226285 285.268691 
L 691.063599 355.227362 
L 691.900913 338.575703 
L 692.738227 318.95809 
L 693.575541 343.912235 
L 694.412855 273.533348 
L 695.250169 315.721803 
L 696.087483 255.354114 
L 696.924797 324.886536 
L 697.762111 382.159245 
L 698.599425 268.674393 
L 700.274053 354.004389 
L 701.111367 323.787087 
L 701.948681 384.860669 
L 702.785995 278.513873 
L 703.623309 309.737194 
L 704.460623 332.585678 
L 705.297937 372.009294 
L 706.135251 291.098349 
L 706.972565 337.811993 
L 707.809879 332.587438 
L 708.647193 351.934352 
L 709.484507 317.848951 
L 710.321821 378.298873 
L 711.159135 360.562405 
L 711.996449 374.156719 
L 712.833763 406.356024 
L 713.671077 397.754099 
L 714.508391 328.595545 
L 715.345705 363.522016 
L 716.183019 305.462418 
L 717.020333 425.390561 
L 717.857647 366.968429 
L 718.694961 377.226596 
L 719.532275 365.679894 
L 720.369589 333.938711 
L 721.206903 309.614502 
L 722.044217 308.957316 
L 722.881531 346.168824 
L 723.718845 371.403668 
L 724.556159 368.045173 
L 725.393473 363.83623 
L 726.230787 377.455473 
L 727.068101 380.731773 
L 727.905415 373.154124 
L 728.742729 391.900807 
L 729.580043 392.33604 
L 731.254671 378.13958 
L 732.091984 283.757768 
L 732.929298 288.851488 
L 733.766612 372.831168 
L 734.603926 298.300381 
L 735.44124 387.402269 
L 736.278554 315.097572 
L 737.115868 377.107153 
L 737.953182 393.572831 
L 738.790496 338.168503 
L 739.62781 344.460557 
L 740.465124 418.51984 
L 741.302438 331.422059 
L 742.139752 358.061999 
L 742.977066 337.411426 
L 743.81438 333.098783 
L 744.651694 318.170746 
L 745.489008 378.176365 
L 746.326322 373.916209 
L 747.163636 331.430047 
L 747.163636 331.430047 
" style="fill:none;stroke:#ff0000;stroke-dasharray:5.55,2.4;stroke-dashoffset:0;stroke-width:1.5;"/>
   </g>
   <g id="patch_3">
    <path d="M 108 460.8 
L 108 69.12 
" style="fill:none;stroke:#000000;stroke-linecap:square;stroke-linejoin:miter;stroke-width:0.8;"/>
   </g>
   <g id="patch_4">
    <path d="M 777.6 460.8 
L 777.6 69.12 
" style="fill:none;stroke:#000000;stroke-linecap:square;stroke-linejoin:miter;stroke-width:0.8;"/>
   </g>
   <g id="patch_5">
    <path d="M 108 460.8 
L 777.6 460.8 
" style="fill:none;stroke:#000000;stroke-linecap:square;stroke-linejoin:miter;stroke-width:0.8;"/>
   </g>
   <g id="patch_6">
    <path d="M 108 69.12 
L 777.6 69.12 
" style="fill:none;stroke:#000000;stroke-linecap:square;stroke-linejoin:miter;stroke-width:0.8;"/>
   </g>
   <g id="text_17">
    <!-- Macau roadside 2020-2021 | Forecast vs Monitored | GRU -->
    <g transform="translate(226.727344 63.12)scale(0.15 -0.15)">
     <defs>
      <path d="M 9.8125 72.90625 
L 24.515625 72.90625 
L 43.109375 23.296875 
L 61.8125 72.90625 
L 76.515625 72.90625 
L 76.515625 0 
L 66.890625 0 
L 66.890625 64.015625 
L 48.09375 14.015625 
L 38.1875 14.015625 
L 19.390625 64.015625 
L 19.390625 0 
L 9.8125 0 
z
" id="DejaVuSans-77"/>
      <path d="M 48.78125 52.59375 
L 48.78125 44.1875 
Q 44.96875 46.296875 41.140625 47.34375 
Q 37.3125 48.390625 33.40625 48.390625 
Q 24.65625 48.390625 19.8125 42.84375 
Q 14.984375 37.3125 14.984375 27.296875 
Q 14.984375 17.28125 19.8125 11.734375 
Q 24.65625 6.203125 33.40625 6.203125 
Q 37.3125 6.203125 41.140625 7.25 
Q 44.96875 8.296875 48.78125 10.40625 
L 48.78125 2.09375 
Q 45.015625 0.34375 40.984375 -0.53125 
Q 36.96875 -1.421875 32.421875 -1.421875 
Q 20.0625 -1.421875 12.78125 6.34375 
Q 5.515625 14.109375 5.515625 27.296875 
Q 5.515625 40.671875 12.859375 48.328125 
Q 20.21875 56 33.015625 56 
Q 37.15625 56 41.109375 55.140625 
Q 45.0625 54.296875 48.78125 52.59375 
z
" id="DejaVuSans-99"/>
      <path d="M 8.5 21.578125 
L 8.5 54.6875 
L 17.484375 54.6875 
L 17.484375 21.921875 
Q 17.484375 14.15625 20.5 10.265625 
Q 23.53125 6.390625 29.59375 6.390625 
Q 36.859375 6.390625 41.078125 11.03125 
Q 45.3125 15.671875 45.3125 23.6875 
L 45.3125 54.6875 
L 54.296875 54.6875 
L 54.296875 0 
L 45.3125 0 
L 45.3125 8.40625 
Q 42.046875 3.421875 37.71875 1 
Q 33.40625 -1.421875 27.6875 -1.421875 
Q 18.265625 -1.421875 13.375 4.4375 
Q 8.5 10.296875 8.5 21.578125 
z
M 31.109375 56 
z
" id="DejaVuSans-117"/>
      <path id="DejaVuSans-32"/>
      <path d="M 41.109375 46.296875 
Q 39.59375 47.171875 37.8125 47.578125 
Q 36.03125 48 33.890625 48 
Q 26.265625 48 22.1875 43.046875 
Q 18.109375 38.09375 18.109375 28.8125 
L 18.109375 0 
L 9.078125 0 
L 9.078125 54.6875 
L 18.109375 54.6875 
L 18.109375 46.1875 
Q 20.953125 51.171875 25.484375 53.578125 
Q 30.03125 56 36.53125 56 
Q 37.453125 56 38.578125 55.875 
Q 39.703125 55.765625 41.0625 55.515625 
z
" id="DejaVuSans-114"/>
      <path d="M 30.609375 48.390625 
Q 23.390625 48.390625 19.1875 42.75 
Q 14.984375 37.109375 14.984375 27.296875 
Q 14.984375 17.484375 19.15625 11.84375 
Q 23.34375 6.203125 30.609375 6.203125 
Q 37.796875 6.203125 41.984375 11.859375 
Q 46.1875 17.53125 46.1875 27.296875 
Q 46.1875 37.015625 41.984375 42.703125 
Q 37.796875 48.390625 30.609375 48.390625 
z
M 30.609375 56 
Q 42.328125 56 49.015625 48.375 
Q 55.71875 40.765625 55.71875 27.296875 
Q 55.71875 13.875 49.015625 6.21875 
Q 42.328125 -1.421875 30.609375 -1.421875 
Q 18.84375 -1.421875 12.171875 6.21875 
Q 5.515625 13.875 5.515625 27.296875 
Q 5.515625 40.765625 12.171875 48.375 
Q 18.84375 56 30.609375 56 
z
" id="DejaVuSans-111"/>
      <path d="M 45.40625 46.390625 
L 45.40625 75.984375 
L 54.390625 75.984375 
L 54.390625 0 
L 45.40625 0 
L 45.40625 8.203125 
Q 42.578125 3.328125 38.25 0.953125 
Q 33.9375 -1.421875 27.875 -1.421875 
Q 17.96875 -1.421875 11.734375 6.484375 
Q 5.515625 14.40625 5.515625 27.296875 
Q 5.515625 40.1875 11.734375 48.09375 
Q 17.96875 56 27.875 56 
Q 33.9375 56 38.25 53.625 
Q 42.578125 51.265625 45.40625 46.390625 
z
M 14.796875 27.296875 
Q 14.796875 17.390625 18.875 11.75 
Q 22.953125 6.109375 30.078125 6.109375 
Q 37.203125 6.109375 41.296875 11.75 
Q 45.40625 17.390625 45.40625 27.296875 
Q 45.40625 37.203125 41.296875 42.84375 
Q 37.203125 48.484375 30.078125 48.484375 
Q 22.953125 48.484375 18.875 42.84375 
Q 14.796875 37.203125 14.796875 27.296875 
z
" id="DejaVuSans-100"/>
      <path d="M 44.28125 53.078125 
L 44.28125 44.578125 
Q 40.484375 46.53125 36.375 47.5 
Q 32.28125 48.484375 27.875 48.484375 
Q 21.1875 48.484375 17.84375 46.4375 
Q 14.5 44.390625 14.5 40.28125 
Q 14.5 37.15625 16.890625 35.375 
Q 19.28125 33.59375 26.515625 31.984375 
L 29.59375 31.296875 
Q 39.15625 29.25 43.1875 25.515625 
Q 47.21875 21.78125 47.21875 15.09375 
Q 47.21875 7.46875 41.1875 3.015625 
Q 35.15625 -1.421875 24.609375 -1.421875 
Q 20.21875 -1.421875 15.453125 -0.5625 
Q 10.6875 0.296875 5.421875 2 
L 5.421875 11.28125 
Q 10.40625 8.6875 15.234375 7.390625 
Q 20.0625 6.109375 24.8125 6.109375 
Q 31.15625 6.109375 34.5625 8.28125 
Q 37.984375 10.453125 37.984375 14.40625 
Q 37.984375 18.0625 35.515625 20.015625 
Q 33.0625 21.96875 24.703125 23.78125 
L 21.578125 24.515625 
Q 13.234375 26.265625 9.515625 29.90625 
Q 5.8125 33.546875 5.8125 39.890625 
Q 5.8125 47.609375 11.28125 51.796875 
Q 16.75 56 26.8125 56 
Q 31.78125 56 36.171875 55.265625 
Q 40.578125 54.546875 44.28125 53.078125 
z
" id="DejaVuSans-115"/>
      <path d="M 9.421875 54.6875 
L 18.40625 54.6875 
L 18.40625 0 
L 9.421875 0 
z
M 9.421875 75.984375 
L 18.40625 75.984375 
L 18.40625 64.59375 
L 9.421875 64.59375 
z
" id="DejaVuSans-105"/>
      <path d="M 21 76.421875 
L 21 -23.578125 
L 12.703125 -23.578125 
L 12.703125 76.421875 
z
" id="DejaVuSans-124"/>
      <path d="M 9.8125 72.90625 
L 51.703125 72.90625 
L 51.703125 64.59375 
L 19.671875 64.59375 
L 19.671875 43.109375 
L 48.578125 43.109375 
L 48.578125 34.8125 
L 19.671875 34.8125 
L 19.671875 0 
L 9.8125 0 
z
" id="DejaVuSans-70"/>
      <path d="M 2.984375 54.6875 
L 12.5 54.6875 
L 29.59375 8.796875 
L 46.6875 54.6875 
L 56.203125 54.6875 
L 35.6875 0 
L 23.484375 0 
z
" id="DejaVuSans-118"/>
      <path d="M 54.890625 33.015625 
L 54.890625 0 
L 45.90625 0 
L 45.90625 32.71875 
Q 45.90625 40.484375 42.875 44.328125 
Q 39.84375 48.1875 33.796875 48.1875 
Q 26.515625 48.1875 22.3125 43.546875 
Q 18.109375 38.921875 18.109375 30.90625 
L 18.109375 0 
L 9.078125 0 
L 9.078125 54.6875 
L 18.109375 54.6875 
L 18.109375 46.1875 
Q 21.34375 51.125 25.703125 53.5625 
Q 30.078125 56 35.796875 56 
Q 45.21875 56 50.046875 50.171875 
Q 54.890625 44.34375 54.890625 33.015625 
z
" id="DejaVuSans-110"/>
      <path d="M 59.515625 10.40625 
L 59.515625 29.984375 
L 43.40625 29.984375 
L 43.40625 38.09375 
L 69.28125 38.09375 
L 69.28125 6.78125 
Q 63.578125 2.734375 56.6875 0.65625 
Q 49.8125 -1.421875 42 -1.421875 
Q 24.90625 -1.421875 15.25 8.5625 
Q 5.609375 18.5625 5.609375 36.375 
Q 5.609375 54.25 15.25 64.234375 
Q 24.90625 74.21875 42 74.21875 
Q 49.125 74.21875 55.546875 72.453125 
Q 61.96875 70.703125 67.390625 67.28125 
L 67.390625 56.78125 
Q 61.921875 61.421875 55.765625 63.765625 
Q 49.609375 66.109375 42.828125 66.109375 
Q 29.4375 66.109375 22.71875 58.640625 
Q 16.015625 51.171875 16.015625 36.375 
Q 16.015625 21.625 22.71875 14.15625 
Q 29.4375 6.6875 42.828125 6.6875 
Q 48.046875 6.6875 52.140625 7.59375 
Q 56.25 8.5 59.515625 10.40625 
z
" id="DejaVuSans-71"/>
      <path d="M 44.390625 34.1875 
Q 47.5625 33.109375 50.5625 29.59375 
Q 53.5625 26.078125 56.59375 19.921875 
L 66.609375 0 
L 56 0 
L 46.6875 18.703125 
Q 43.0625 26.03125 39.671875 28.421875 
Q 36.28125 30.8125 30.421875 30.8125 
L 19.671875 30.8125 
L 19.671875 0 
L 9.8125 0 
L 9.8125 72.90625 
L 32.078125 72.90625 
Q 44.578125 72.90625 50.734375 67.671875 
Q 56.890625 62.453125 56.890625 51.90625 
Q 56.890625 45.015625 53.6875 40.46875 
Q 50.484375 35.9375 44.390625 34.1875 
z
M 19.671875 64.796875 
L 19.671875 38.921875 
L 32.078125 38.921875 
Q 39.203125 38.921875 42.84375 42.21875 
Q 46.484375 45.515625 46.484375 51.90625 
Q 46.484375 58.296875 42.84375 61.546875 
Q 39.203125 64.796875 32.078125 64.796875 
z
" id="DejaVuSans-82"/>
      <path d="M 8.6875 72.90625 
L 18.609375 72.90625 
L 18.609375 28.609375 
Q 18.609375 16.890625 22.84375 11.734375 
Q 27.09375 6.59375 36.625 6.59375 
Q 46.09375 6.59375 50.34375 11.734375 
Q 54.59375 16.890625 54.59375 28.609375 
L 54.59375 72.90625 
L 64.5 72.90625 
L 64.5 27.390625 
Q 64.5 13.140625 57.4375 5.859375 
Q 50.390625 -1.421875 36.625 -1.421875 
Q 22.796875 -1.421875 15.734375 5.859375 
Q 8.6875 13.140625 8.6875 27.390625 
z
" id="DejaVuSans-85"/>
     </defs>
     <use xlink:href="#DejaVuSans-77"/>
     <use x="86.279297" xlink:href="#DejaVuSans-97"/>
     <use x="147.558594" xlink:href="#DejaVuSans-99"/>
     <use x="202.539062" xlink:href="#DejaVuSans-97"/>
     <use x="263.818359" xlink:href="#DejaVuSans-117"/>
     <use x="327.197266" xlink:href="#DejaVuSans-32"/>
     <use x="358.984375" xlink:href="#DejaVuSans-114"/>
     <use x="397.847656" xlink:href="#DejaVuSans-111"/>
     <use x="459.029297" xlink:href="#DejaVuSans-97"/>
     <use x="520.308594" xlink:href="#DejaVuSans-100"/>
     <use x="583.785156" xlink:href="#DejaVuSans-115"/>
     <use x="635.884766" xlink:href="#DejaVuSans-105"/>
     <use x="663.667969" xlink:href="#DejaVuSans-100"/>
     <use x="727.144531" xlink:href="#DejaVuSans-101"/>
     <use x="788.667969" xlink:href="#DejaVuSans-32"/>
     <use x="820.455078" xlink:href="#DejaVuSans-50"/>
     <use x="884.078125" xlink:href="#DejaVuSans-48"/>
     <use x="947.701172" xlink:href="#DejaVuSans-50"/>
     <use x="1011.324219" xlink:href="#DejaVuSans-48"/>
     <use x="1074.947266" xlink:href="#DejaVuSans-45"/>
     <use x="1111.03125" xlink:href="#DejaVuSans-50"/>
     <use x="1174.654297" xlink:href="#DejaVuSans-48"/>
     <use x="1238.277344" xlink:href="#DejaVuSans-50"/>
     <use x="1301.900391" xlink:href="#DejaVuSans-49"/>
     <use x="1365.523438" xlink:href="#DejaVuSans-32"/>
     <use x="1397.310547" xlink:href="#DejaVuSans-124"/>
     <use x="1431.001953" xlink:href="#DejaVuSans-32"/>
     <use x="1462.789062" xlink:href="#DejaVuSans-70"/>
     <use x="1516.683594" xlink:href="#DejaVuSans-111"/>
     <use x="1577.865234" xlink:href="#DejaVuSans-114"/>
     <use x="1616.728516" xlink:href="#DejaVuSans-101"/>
     <use x="1678.251953" xlink:href="#DejaVuSans-99"/>
     <use x="1733.232422" xlink:href="#DejaVuSans-97"/>
     <use x="1794.511719" xlink:href="#DejaVuSans-115"/>
     <use x="1846.611328" xlink:href="#DejaVuSans-116"/>
     <use x="1885.820312" xlink:href="#DejaVuSans-32"/>
     <use x="1917.607422" xlink:href="#DejaVuSans-118"/>
     <use x="1976.787109" xlink:href="#DejaVuSans-115"/>
     <use x="2028.886719" xlink:href="#DejaVuSans-32"/>
     <use x="2060.673828" xlink:href="#DejaVuSans-77"/>
     <use x="2146.953125" xlink:href="#DejaVuSans-111"/>
     <use x="2208.134766" xlink:href="#DejaVuSans-110"/>
     <use x="2271.513672" xlink:href="#DejaVuSans-105"/>
     <use x="2299.296875" xlink:href="#DejaVuSans-116"/>
     <use x="2338.505859" xlink:href="#DejaVuSans-111"/>
     <use x="2399.6875" xlink:href="#DejaVuSans-114"/>
     <use x="2438.550781" xlink:href="#DejaVuSans-101"/>
     <use x="2500.074219" xlink:href="#DejaVuSans-100"/>
     <use x="2563.550781" xlink:href="#DejaVuSans-32"/>
     <use x="2595.337891" xlink:href="#DejaVuSans-124"/>
     <use x="2629.029297" xlink:href="#DejaVuSans-32"/>
     <use x="2660.816406" xlink:href="#DejaVuSans-71"/>
     <use x="2738.306641" xlink:href="#DejaVuSans-82"/>
     <use x="2807.789062" xlink:href="#DejaVuSans-85"/>
    </g>
   </g>
   <g id="legend_1">
    <g id="patch_7">
     <path d="M 613.996875 114.615 
L 769.2 114.615 
Q 771.6 114.615 771.6 112.215 
L 771.6 77.52 
Q 771.6 75.12 769.2 75.12 
L 613.996875 75.12 
Q 611.596875 75.12 611.596875 77.52 
L 611.596875 112.215 
Q 611.596875 114.615 613.996875 114.615 
z
" style="fill:#ffffff;opacity:0.8;stroke:#cccccc;stroke-linejoin:miter;"/>
    </g>
    <g id="line2d_17">
     <path d="M 616.396875 84.838125 
L 640.396875 84.838125 
" style="fill:none;stroke:#1f77b4;stroke-linecap:square;stroke-width:1.5;"/>
    </g>
    <g id="line2d_18"/>
    <g id="text_18">
     <!-- measured_data_CO -->
     <g transform="translate(649.996875 89.038125)scale(0.12 -0.12)">
      <defs>
       <path d="M 50.984375 -16.609375 
L 50.984375 -23.578125 
L -0.984375 -23.578125 
L -0.984375 -16.609375 
z
" id="DejaVuSans-95"/>
      </defs>
      <use xlink:href="#DejaVuSans-109"/>
      <use x="97.412109" xlink:href="#DejaVuSans-101"/>
      <use x="158.935547" xlink:href="#DejaVuSans-97"/>
      <use x="220.214844" xlink:href="#DejaVuSans-115"/>
      <use x="272.314453" xlink:href="#DejaVuSans-117"/>
      <use x="335.693359" xlink:href="#DejaVuSans-114"/>
      <use x="374.556641" xlink:href="#DejaVuSans-101"/>
      <use x="436.080078" xlink:href="#DejaVuSans-100"/>
      <use x="499.556641" xlink:href="#DejaVuSans-95"/>
      <use x="549.556641" xlink:href="#DejaVuSans-100"/>
      <use x="613.033203" xlink:href="#DejaVuSans-97"/>
      <use x="674.3125" xlink:href="#DejaVuSans-116"/>
      <use x="713.521484" xlink:href="#DejaVuSans-97"/>
      <use x="774.800781" xlink:href="#DejaVuSans-95"/>
      <use x="824.800781" xlink:href="#DejaVuSans-67"/>
      <use x="894.625" xlink:href="#DejaVuSans-79"/>
     </g>
    </g>
    <g id="line2d_19">
     <path d="M 616.396875 102.785625 
L 640.396875 102.785625 
" style="fill:none;stroke:#ff0000;stroke-dasharray:5.55,2.4;stroke-dashoffset:0;stroke-width:1.5;"/>
    </g>
    <g id="line2d_20"/>
    <g id="text_19">
     <!-- predicted_data_CO -->
     <g transform="translate(649.996875 106.985625)scale(0.12 -0.12)">
      <use xlink:href="#DejaVuSans-112"/>
      <use x="63.476562" xlink:href="#DejaVuSans-114"/>
      <use x="102.339844" xlink:href="#DejaVuSans-101"/>
      <use x="163.863281" xlink:href="#DejaVuSans-100"/>
      <use x="227.339844" xlink:href="#DejaVuSans-105"/>
      <use x="255.123047" xlink:href="#DejaVuSans-99"/>
      <use x="310.103516" xlink:href="#DejaVuSans-116"/>
      <use x="349.3125" xlink:href="#DejaVuSans-101"/>
      <use x="410.835938" xlink:href="#DejaVuSans-100"/>
      <use x="474.3125" xlink:href="#DejaVuSans-95"/>
      <use x="524.3125" xlink:href="#DejaVuSans-100"/>
      <use x="587.789062" xlink:href="#DejaVuSans-97"/>
      <use x="649.068359" xlink:href="#DejaVuSans-116"/>
      <use x="688.277344" xlink:href="#DejaVuSans-97"/>
      <use x="749.556641" xlink:href="#DejaVuSans-95"/>
      <use x="799.556641" xlink:href="#DejaVuSans-67"/>
      <use x="869.380859" xlink:href="#DejaVuSans-79"/>
     </g>
    </g>
   </g>
  </g>
 </g>
 <defs>
  <clipPath id="pe7e75428d5">
   <rect height="391.68" width="669.6" x="108" y="69.12"/>
  </clipPath>
 </defs>
</svg>
