<?xml version="1.0" encoding="utf-8" standalone="no"?>
<!DOCTYPE svg PUBLIC "-//W3C//DTD SVG 1.1//EN"
  "http://www.w3.org/Graphics/SVG/1.1/DTD/svg11.dtd">
<!-- Created with matplotlib (https://matplotlib.org/) -->
<svg height="576pt" version="1.1" viewBox="0 0 864 576" width="864pt" xmlns="http://www.w3.org/2000/svg" xmlns:xlink="http://www.w3.org/1999/xlink">
 <metadata>
  <rdf:RDF xmlns:cc="http://creativecommons.org/ns#" xmlns:dc="http://purl.org/dc/elements/1.1/" xmlns:rdf="http://www.w3.org/1999/02/22-rdf-syntax-ns#">
   <cc:Work>
    <dc:type rdf:resource="http://purl.org/dc/dcmitype/StillImage"/>
    <dc:date>2024-03-08T15:38:55.123629</dc:date>
    <dc:format>image/svg+xml</dc:format>
    <dc:creator>
     <cc:Agent>
      <dc:title>Matplotlib v3.3.4, https://matplotlib.org/</dc:title>
     </cc:Agent>
    </dc:creator>
   </cc:Work>
  </rdf:RDF>
 </metadata>
 <defs>
  <style type="text/css">*{stroke-linecap:butt;stroke-linejoin:round;}</style>
 </defs>
 <g id="figure_1">
  <g id="patch_1">
   <path d="M 0 576 
L 864 576 
L 864 0 
L 0 0 
z
" style="fill:#ffffff;"/>
  </g>
  <g id="axes_1">
   <g id="patch_2">
    <path d="M 108 460.8 
L 777.6 460.8 
L 777.6 69.12 
L 108 69.12 
z
" style="fill:#ffffff;"/>
   </g>
   <g id="matplotlib.axis_1">
    <g id="xtick_1">
     <g id="line2d_1">
      <defs>
       <path d="M 0 0 
L 0 3.5 
" id="ma81eb1cff0" style="stroke:#000000;stroke-width:0.8;"/>
      </defs>
      <g>
       <use style="stroke:#000000;stroke-width:0.8;" x="136.761736" xlink:href="#ma81eb1cff0" y="460.8"/>
      </g>
     </g>
     <g id="text_1">
      <!-- 2020-01 -->
      <g transform="translate(92.091951 500.766215)rotate(-30)scale(0.12 -0.12)">
       <defs>
        <path d="M 19.1875 8.296875 
L 53.609375 8.296875 
L 53.609375 0 
L 7.328125 0 
L 7.328125 8.296875 
Q 12.9375 14.109375 22.625 23.890625 
Q 32.328125 33.6875 34.8125 36.53125 
Q 39.546875 41.84375 41.421875 45.53125 
Q 43.3125 49.21875 43.3125 52.78125 
Q 43.3125 58.59375 39.234375 62.25 
Q 35.15625 65.921875 28.609375 65.921875 
Q 23.96875 65.921875 18.8125 64.3125 
Q 13.671875 62.703125 7.8125 59.421875 
L 7.8125 69.390625 
Q 13.765625 71.78125 18.9375 73 
Q 24.125 74.21875 28.421875 74.21875 
Q 39.75 74.21875 46.484375 68.546875 
Q 53.21875 62.890625 53.21875 53.421875 
Q 53.21875 48.921875 51.53125 44.890625 
Q 49.859375 40.875 45.40625 35.40625 
Q 44.1875 33.984375 37.640625 27.21875 
Q 31.109375 20.453125 19.1875 8.296875 
z
" id="DejaVuSans-50"/>
        <path d="M 31.78125 66.40625 
Q 24.171875 66.40625 20.328125 58.90625 
Q 16.5 51.421875 16.5 36.375 
Q 16.5 21.390625 20.328125 13.890625 
Q 24.171875 6.390625 31.78125 6.390625 
Q 39.453125 6.390625 43.28125 13.890625 
Q 47.125 21.390625 47.125 36.375 
Q 47.125 51.421875 43.28125 58.90625 
Q 39.453125 66.40625 31.78125 66.40625 
z
M 31.78125 74.21875 
Q 44.046875 74.21875 50.515625 64.515625 
Q 56.984375 54.828125 56.984375 36.375 
Q 56.984375 17.96875 50.515625 8.265625 
Q 44.046875 -1.421875 31.78125 -1.421875 
Q 19.53125 -1.421875 13.0625 8.265625 
Q 6.59375 17.96875 6.59375 36.375 
Q 6.59375 54.828125 13.0625 64.515625 
Q 19.53125 74.21875 31.78125 74.21875 
z
" id="DejaVuSans-48"/>
        <path d="M 4.890625 31.390625 
L 31.203125 31.390625 
L 31.203125 23.390625 
L 4.890625 23.390625 
z
" id="DejaVuSans-45"/>
        <path d="M 12.40625 8.296875 
L 28.515625 8.296875 
L 28.515625 63.921875 
L 10.984375 60.40625 
L 10.984375 69.390625 
L 28.421875 72.90625 
L 38.28125 72.90625 
L 38.28125 8.296875 
L 54.390625 8.296875 
L 54.390625 0 
L 12.40625 0 
z
" id="DejaVuSans-49"/>
       </defs>
       <use xlink:href="#DejaVuSans-50"/>
       <use x="63.623047" xlink:href="#DejaVuSans-48"/>
       <use x="127.246094" xlink:href="#DejaVuSans-50"/>
       <use x="190.869141" xlink:href="#DejaVuSans-48"/>
       <use x="254.492188" xlink:href="#DejaVuSans-45"/>
       <use x="290.576172" xlink:href="#DejaVuSans-48"/>
       <use x="354.199219" xlink:href="#DejaVuSans-49"/>
      </g>
     </g>
    </g>
    <g id="xtick_2">
     <g id="line2d_2">
      <g>
       <use style="stroke:#000000;stroke-width:0.8;" x="212.957309" xlink:href="#ma81eb1cff0" y="460.8"/>
      </g>
     </g>
     <g id="text_2">
      <!-- 2020-04 -->
      <g transform="translate(168.287524 500.766215)rotate(-30)scale(0.12 -0.12)">
       <defs>
        <path d="M 37.796875 64.3125 
L 12.890625 25.390625 
L 37.796875 25.390625 
z
M 35.203125 72.90625 
L 47.609375 72.90625 
L 47.609375 25.390625 
L 58.015625 25.390625 
L 58.015625 17.1875 
L 47.609375 17.1875 
L 47.609375 0 
L 37.796875 0 
L 37.796875 17.1875 
L 4.890625 17.1875 
L 4.890625 26.703125 
z
" id="DejaVuSans-52"/>
       </defs>
       <use xlink:href="#DejaVuSans-50"/>
       <use x="63.623047" xlink:href="#DejaVuSans-48"/>
       <use x="127.246094" xlink:href="#DejaVuSans-50"/>
       <use x="190.869141" xlink:href="#DejaVuSans-48"/>
       <use x="254.492188" xlink:href="#DejaVuSans-45"/>
       <use x="290.576172" xlink:href="#DejaVuSans-48"/>
       <use x="354.199219" xlink:href="#DejaVuSans-52"/>
      </g>
     </g>
    </g>
    <g id="xtick_3">
     <g id="line2d_3">
      <g>
       <use style="stroke:#000000;stroke-width:0.8;" x="289.152882" xlink:href="#ma81eb1cff0" y="460.8"/>
      </g>
     </g>
     <g id="text_3">
      <!-- 2020-07 -->
      <g transform="translate(244.483097 500.766215)rotate(-30)scale(0.12 -0.12)">
       <defs>
        <path d="M 8.203125 72.90625 
L 55.078125 72.90625 
L 55.078125 68.703125 
L 28.609375 0 
L 18.3125 0 
L 43.21875 64.59375 
L 8.203125 64.59375 
z
" id="DejaVuSans-55"/>
       </defs>
       <use xlink:href="#DejaVuSans-50"/>
       <use x="63.623047" xlink:href="#DejaVuSans-48"/>
       <use x="127.246094" xlink:href="#DejaVuSans-50"/>
       <use x="190.869141" xlink:href="#DejaVuSans-48"/>
       <use x="254.492188" xlink:href="#DejaVuSans-45"/>
       <use x="290.576172" xlink:href="#DejaVuSans-48"/>
       <use x="354.199219" xlink:href="#DejaVuSans-55"/>
      </g>
     </g>
    </g>
    <g id="xtick_4">
     <g id="line2d_4">
      <g>
       <use style="stroke:#000000;stroke-width:0.8;" x="366.18577" xlink:href="#ma81eb1cff0" y="460.8"/>
      </g>
     </g>
     <g id="text_4">
      <!-- 2020-10 -->
      <g transform="translate(321.515985 500.766215)rotate(-30)scale(0.12 -0.12)">
       <use xlink:href="#DejaVuSans-50"/>
       <use x="63.623047" xlink:href="#DejaVuSans-48"/>
       <use x="127.246094" xlink:href="#DejaVuSans-50"/>
       <use x="190.869141" xlink:href="#DejaVuSans-48"/>
       <use x="254.492188" xlink:href="#DejaVuSans-45"/>
       <use x="290.576172" xlink:href="#DejaVuSans-49"/>
       <use x="354.199219" xlink:href="#DejaVuSans-48"/>
      </g>
     </g>
    </g>
    <g id="xtick_5">
     <g id="line2d_5">
      <g>
       <use style="stroke:#000000;stroke-width:0.8;" x="443.218657" xlink:href="#ma81eb1cff0" y="460.8"/>
      </g>
     </g>
     <g id="text_5">
      <!-- 2021-01 -->
      <g transform="translate(398.548872 500.766215)rotate(-30)scale(0.12 -0.12)">
       <use xlink:href="#DejaVuSans-50"/>
       <use x="63.623047" xlink:href="#DejaVuSans-48"/>
       <use x="127.246094" xlink:href="#DejaVuSans-50"/>
       <use x="190.869141" xlink:href="#DejaVuSans-49"/>
       <use x="254.492188" xlink:href="#DejaVuSans-45"/>
       <use x="290.576172" xlink:href="#DejaVuSans-48"/>
       <use x="354.199219" xlink:href="#DejaVuSans-49"/>
      </g>
     </g>
    </g>
    <g id="xtick_6">
     <g id="line2d_6">
      <g>
       <use style="stroke:#000000;stroke-width:0.8;" x="518.576916" xlink:href="#ma81eb1cff0" y="460.8"/>
      </g>
     </g>
     <g id="text_6">
      <!-- 2021-04 -->
      <g transform="translate(473.907131 500.766215)rotate(-30)scale(0.12 -0.12)">
       <use xlink:href="#DejaVuSans-50"/>
       <use x="63.623047" xlink:href="#DejaVuSans-48"/>
       <use x="127.246094" xlink:href="#DejaVuSans-50"/>
       <use x="190.869141" xlink:href="#DejaVuSans-49"/>
       <use x="254.492188" xlink:href="#DejaVuSans-45"/>
       <use x="290.576172" xlink:href="#DejaVuSans-48"/>
       <use x="354.199219" xlink:href="#DejaVuSans-52"/>
      </g>
     </g>
    </g>
    <g id="xtick_7">
     <g id="line2d_7">
      <g>
       <use style="stroke:#000000;stroke-width:0.8;" x="594.77249" xlink:href="#ma81eb1cff0" y="460.8"/>
      </g>
     </g>
     <g id="text_7">
      <!-- 2021-07 -->
      <g transform="translate(550.102705 500.766215)rotate(-30)scale(0.12 -0.12)">
       <use xlink:href="#DejaVuSans-50"/>
       <use x="63.623047" xlink:href="#DejaVuSans-48"/>
       <use x="127.246094" xlink:href="#DejaVuSans-50"/>
       <use x="190.869141" xlink:href="#DejaVuSans-49"/>
       <use x="254.492188" xlink:href="#DejaVuSans-45"/>
       <use x="290.576172" xlink:href="#DejaVuSans-48"/>
       <use x="354.199219" xlink:href="#DejaVuSans-55"/>
      </g>
     </g>
    </g>
    <g id="xtick_8">
     <g id="line2d_8">
      <g>
       <use style="stroke:#000000;stroke-width:0.8;" x="671.805377" xlink:href="#ma81eb1cff0" y="460.8"/>
      </g>
     </g>
     <g id="text_8">
      <!-- 2021-10 -->
      <g transform="translate(627.135592 500.766215)rotate(-30)scale(0.12 -0.12)">
       <use xlink:href="#DejaVuSans-50"/>
       <use x="63.623047" xlink:href="#DejaVuSans-48"/>
       <use x="127.246094" xlink:href="#DejaVuSans-50"/>
       <use x="190.869141" xlink:href="#DejaVuSans-49"/>
       <use x="254.492188" xlink:href="#DejaVuSans-45"/>
       <use x="290.576172" xlink:href="#DejaVuSans-49"/>
       <use x="354.199219" xlink:href="#DejaVuSans-48"/>
      </g>
     </g>
    </g>
    <g id="xtick_9">
     <g id="line2d_9">
      <g>
       <use style="stroke:#000000;stroke-width:0.8;" x="748.838264" xlink:href="#ma81eb1cff0" y="460.8"/>
      </g>
     </g>
     <g id="text_9">
      <!-- 2022-01 -->
      <g transform="translate(704.168479 500.766215)rotate(-30)scale(0.12 -0.12)">
       <use xlink:href="#DejaVuSans-50"/>
       <use x="63.623047" xlink:href="#DejaVuSans-48"/>
       <use x="127.246094" xlink:href="#DejaVuSans-50"/>
       <use x="190.869141" xlink:href="#DejaVuSans-50"/>
       <use x="254.492188" xlink:href="#DejaVuSans-45"/>
       <use x="290.576172" xlink:href="#DejaVuSans-48"/>
       <use x="354.199219" xlink:href="#DejaVuSans-49"/>
      </g>
     </g>
    </g>
    <g id="text_10">
     <!-- Date -->
     <g transform="translate(424.873828 518.325146)scale(0.15 -0.15)">
      <defs>
       <path d="M 19.671875 64.796875 
L 19.671875 8.109375 
L 31.59375 8.109375 
Q 46.6875 8.109375 53.6875 14.9375 
Q 60.6875 21.78125 60.6875 36.53125 
Q 60.6875 51.171875 53.6875 57.984375 
Q 46.6875 64.796875 31.59375 64.796875 
z
M 9.8125 72.90625 
L 30.078125 72.90625 
Q 51.265625 72.90625 61.171875 64.09375 
Q 71.09375 55.28125 71.09375 36.53125 
Q 71.09375 17.671875 61.125 8.828125 
Q 51.171875 0 30.078125 0 
L 9.8125 0 
z
" id="DejaVuSans-68"/>
       <path d="M 34.28125 27.484375 
Q 23.390625 27.484375 19.1875 25 
Q 14.984375 22.515625 14.984375 16.5 
Q 14.984375 11.71875 18.140625 8.90625 
Q 21.296875 6.109375 26.703125 6.109375 
Q 34.1875 6.109375 38.703125 11.40625 
Q 43.21875 16.703125 43.21875 25.484375 
L 43.21875 27.484375 
z
M 52.203125 31.203125 
L 52.203125 0 
L 43.21875 0 
L 43.21875 8.296875 
Q 40.140625 3.328125 35.546875 0.953125 
Q 30.953125 -1.421875 24.3125 -1.421875 
Q 15.921875 -1.421875 10.953125 3.296875 
Q 6 8.015625 6 15.921875 
Q 6 25.140625 12.171875 29.828125 
Q 18.359375 34.515625 30.609375 34.515625 
L 43.21875 34.515625 
L 43.21875 35.40625 
Q 43.21875 41.609375 39.140625 45 
Q 35.0625 48.390625 27.6875 48.390625 
Q 23 48.390625 18.546875 47.265625 
Q 14.109375 46.140625 10.015625 43.890625 
L 10.015625 52.203125 
Q 14.9375 54.109375 19.578125 55.046875 
Q 24.21875 56 28.609375 56 
Q 40.484375 56 46.34375 49.84375 
Q 52.203125 43.703125 52.203125 31.203125 
z
" id="DejaVuSans-97"/>
       <path d="M 18.3125 70.21875 
L 18.3125 54.6875 
L 36.8125 54.6875 
L 36.8125 47.703125 
L 18.3125 47.703125 
L 18.3125 18.015625 
Q 18.3125 11.328125 20.140625 9.421875 
Q 21.96875 7.515625 27.59375 7.515625 
L 36.8125 7.515625 
L 36.8125 0 
L 27.59375 0 
Q 17.1875 0 13.234375 3.875 
Q 9.28125 7.765625 9.28125 18.015625 
L 9.28125 47.703125 
L 2.6875 47.703125 
L 2.6875 54.6875 
L 9.28125 54.6875 
L 9.28125 70.21875 
z
" id="DejaVuSans-116"/>
       <path d="M 56.203125 29.59375 
L 56.203125 25.203125 
L 14.890625 25.203125 
Q 15.484375 15.921875 20.484375 11.0625 
Q 25.484375 6.203125 34.421875 6.203125 
Q 39.59375 6.203125 44.453125 7.46875 
Q 49.3125 8.734375 54.109375 11.28125 
L 54.109375 2.78125 
Q 49.265625 0.734375 44.1875 -0.34375 
Q 39.109375 -1.421875 33.890625 -1.421875 
Q 20.796875 -1.421875 13.15625 6.1875 
Q 5.515625 13.8125 5.515625 26.8125 
Q 5.515625 40.234375 12.765625 48.109375 
Q 20.015625 56 32.328125 56 
Q 43.359375 56 49.78125 48.890625 
Q 56.203125 41.796875 56.203125 29.59375 
z
M 47.21875 32.234375 
Q 47.125 39.59375 43.09375 43.984375 
Q 39.0625 48.390625 32.421875 48.390625 
Q 24.90625 48.390625 20.390625 44.140625 
Q 15.875 39.890625 15.1875 32.171875 
z
" id="DejaVuSans-101"/>
      </defs>
      <use xlink:href="#DejaVuSans-68"/>
      <use x="77.001953" xlink:href="#DejaVuSans-97"/>
      <use x="138.28125" xlink:href="#DejaVuSans-116"/>
      <use x="177.490234" xlink:href="#DejaVuSans-101"/>
     </g>
    </g>
   </g>
   <g id="matplotlib.axis_2">
    <g id="ytick_1">
     <g id="line2d_10">
      <defs>
       <path d="M 0 0 
L -3.5 0 
" id="m9b0d1700ee" style="stroke:#000000;stroke-width:0.8;"/>
      </defs>
      <g>
       <use style="stroke:#000000;stroke-width:0.8;" x="108" xlink:href="#m9b0d1700ee" y="452.55696"/>
      </g>
     </g>
     <g id="text_11">
      <!-- 0.50 -->
      <g transform="translate(74.28125 457.116023)scale(0.12 -0.12)">
       <defs>
        <path d="M 10.6875 12.40625 
L 21 12.40625 
L 21 0 
L 10.6875 0 
z
" id="DejaVuSans-46"/>
        <path d="M 10.796875 72.90625 
L 49.515625 72.90625 
L 49.515625 64.59375 
L 19.828125 64.59375 
L 19.828125 46.734375 
Q 21.96875 47.46875 24.109375 47.828125 
Q 26.265625 48.1875 28.421875 48.1875 
Q 40.625 48.1875 47.75 41.5 
Q 54.890625 34.8125 54.890625 23.390625 
Q 54.890625 11.625 47.5625 5.09375 
Q 40.234375 -1.421875 26.90625 -1.421875 
Q 22.3125 -1.421875 17.546875 -0.640625 
Q 12.796875 0.140625 7.71875 1.703125 
L 7.71875 11.625 
Q 12.109375 9.234375 16.796875 8.0625 
Q 21.484375 6.890625 26.703125 6.890625 
Q 35.15625 6.890625 40.078125 11.328125 
Q 45.015625 15.765625 45.015625 23.390625 
Q 45.015625 31 40.078125 35.4375 
Q 35.15625 39.890625 26.703125 39.890625 
Q 22.75 39.890625 18.8125 39.015625 
Q 14.890625 38.140625 10.796875 36.28125 
z
" id="DejaVuSans-53"/>
       </defs>
       <use xlink:href="#DejaVuSans-48"/>
       <use x="63.623047" xlink:href="#DejaVuSans-46"/>
       <use x="95.410156" xlink:href="#DejaVuSans-53"/>
       <use x="159.033203" xlink:href="#DejaVuSans-48"/>
      </g>
     </g>
    </g>
    <g id="ytick_2">
     <g id="line2d_11">
      <g>
       <use style="stroke:#000000;stroke-width:0.8;" x="108" xlink:href="#m9b0d1700ee" y="399.808841"/>
      </g>
     </g>
     <g id="text_12">
      <!-- 0.75 -->
      <g transform="translate(74.28125 404.367903)scale(0.12 -0.12)">
       <use xlink:href="#DejaVuSans-48"/>
       <use x="63.623047" xlink:href="#DejaVuSans-46"/>
       <use x="95.410156" xlink:href="#DejaVuSans-55"/>
       <use x="159.033203" xlink:href="#DejaVuSans-53"/>
      </g>
     </g>
    </g>
    <g id="ytick_3">
     <g id="line2d_12">
      <g>
       <use style="stroke:#000000;stroke-width:0.8;" x="108" xlink:href="#m9b0d1700ee" y="347.060721"/>
      </g>
     </g>
     <g id="text_13">
      <!-- 1.00 -->
      <g transform="translate(74.28125 351.619783)scale(0.12 -0.12)">
       <use xlink:href="#DejaVuSans-49"/>
       <use x="63.623047" xlink:href="#DejaVuSans-46"/>
       <use x="95.410156" xlink:href="#DejaVuSans-48"/>
       <use x="159.033203" xlink:href="#DejaVuSans-48"/>
      </g>
     </g>
    </g>
    <g id="ytick_4">
     <g id="line2d_13">
      <g>
       <use style="stroke:#000000;stroke-width:0.8;" x="108" xlink:href="#m9b0d1700ee" y="294.312601"/>
      </g>
     </g>
     <g id="text_14">
      <!-- 1.25 -->
      <g transform="translate(74.28125 298.871664)scale(0.12 -0.12)">
       <use xlink:href="#DejaVuSans-49"/>
       <use x="63.623047" xlink:href="#DejaVuSans-46"/>
       <use x="95.410156" xlink:href="#DejaVuSans-50"/>
       <use x="159.033203" xlink:href="#DejaVuSans-53"/>
      </g>
     </g>
    </g>
    <g id="ytick_5">
     <g id="line2d_14">
      <g>
       <use style="stroke:#000000;stroke-width:0.8;" x="108" xlink:href="#m9b0d1700ee" y="241.564481"/>
      </g>
     </g>
     <g id="text_15">
      <!-- 1.50 -->
      <g transform="translate(74.28125 246.123544)scale(0.12 -0.12)">
       <use xlink:href="#DejaVuSans-49"/>
       <use x="63.623047" xlink:href="#DejaVuSans-46"/>
       <use x="95.410156" xlink:href="#DejaVuSans-53"/>
       <use x="159.033203" xlink:href="#DejaVuSans-48"/>
      </g>
     </g>
    </g>
    <g id="ytick_6">
     <g id="line2d_15">
      <g>
       <use style="stroke:#000000;stroke-width:0.8;" x="108" xlink:href="#m9b0d1700ee" y="188.816361"/>
      </g>
     </g>
     <g id="text_16">
      <!-- 1.75 -->
      <g transform="translate(74.28125 193.375424)scale(0.12 -0.12)">
       <use xlink:href="#DejaVuSans-49"/>
       <use x="63.623047" xlink:href="#DejaVuSans-46"/>
       <use x="95.410156" xlink:href="#DejaVuSans-55"/>
       <use x="159.033203" xlink:href="#DejaVuSans-53"/>
      </g>
     </g>
    </g>
    <g id="ytick_7">
     <g id="line2d_16">
      <g>
       <use style="stroke:#000000;stroke-width:0.8;" x="108" xlink:href="#m9b0d1700ee" y="136.068242"/>
      </g>
     </g>
     <g id="text_17">
      <!-- 2.00 -->
      <g transform="translate(74.28125 140.627304)scale(0.12 -0.12)">
       <use xlink:href="#DejaVuSans-50"/>
       <use x="63.623047" xlink:href="#DejaVuSans-46"/>
       <use x="95.410156" xlink:href="#DejaVuSans-48"/>
       <use x="159.033203" xlink:href="#DejaVuSans-48"/>
      </g>
     </g>
    </g>
    <g id="ytick_8">
     <g id="line2d_17">
      <g>
       <use style="stroke:#000000;stroke-width:0.8;" x="108" xlink:href="#m9b0d1700ee" y="83.320122"/>
      </g>
     </g>
     <g id="text_18">
      <!-- 2.25 -->
      <g transform="translate(74.28125 87.879184)scale(0.12 -0.12)">
       <use xlink:href="#DejaVuSans-50"/>
       <use x="63.623047" xlink:href="#DejaVuSans-46"/>
       <use x="95.410156" xlink:href="#DejaVuSans-50"/>
       <use x="159.033203" xlink:href="#DejaVuSans-53"/>
      </g>
     </g>
    </g>
    <g id="text_19">
     <!-- CO(ppm) -->
     <g transform="translate(67.161719 298.781484)rotate(-90)scale(0.15 -0.15)">
      <defs>
       <path d="M 64.40625 67.28125 
L 64.40625 56.890625 
Q 59.421875 61.53125 53.78125 63.8125 
Q 48.140625 66.109375 41.796875 66.109375 
Q 29.296875 66.109375 22.65625 58.46875 
Q 16.015625 50.828125 16.015625 36.375 
Q 16.015625 21.96875 22.65625 14.328125 
Q 29.296875 6.6875 41.796875 6.6875 
Q 48.140625 6.6875 53.78125 8.984375 
Q 59.421875 11.28125 64.40625 15.921875 
L 64.40625 5.609375 
Q 59.234375 2.09375 53.4375 0.328125 
Q 47.65625 -1.421875 41.21875 -1.421875 
Q 24.65625 -1.421875 15.125 8.703125 
Q 5.609375 18.84375 5.609375 36.375 
Q 5.609375 53.953125 15.125 64.078125 
Q 24.65625 74.21875 41.21875 74.21875 
Q 47.75 74.21875 53.53125 72.484375 
Q 59.328125 70.75 64.40625 67.28125 
z
" id="DejaVuSans-67"/>
       <path d="M 39.40625 66.21875 
Q 28.65625 66.21875 22.328125 58.203125 
Q 16.015625 50.203125 16.015625 36.375 
Q 16.015625 22.609375 22.328125 14.59375 
Q 28.65625 6.59375 39.40625 6.59375 
Q 50.140625 6.59375 56.421875 14.59375 
Q 62.703125 22.609375 62.703125 36.375 
Q 62.703125 50.203125 56.421875 58.203125 
Q 50.140625 66.21875 39.40625 66.21875 
z
M 39.40625 74.21875 
Q 54.734375 74.21875 63.90625 63.9375 
Q 73.09375 53.65625 73.09375 36.375 
Q 73.09375 19.140625 63.90625 8.859375 
Q 54.734375 -1.421875 39.40625 -1.421875 
Q 24.03125 -1.421875 14.8125 8.828125 
Q 5.609375 19.09375 5.609375 36.375 
Q 5.609375 53.65625 14.8125 63.9375 
Q 24.03125 74.21875 39.40625 74.21875 
z
" id="DejaVuSans-79"/>
       <path d="M 31 75.875 
Q 24.46875 64.65625 21.28125 53.65625 
Q 18.109375 42.671875 18.109375 31.390625 
Q 18.109375 20.125 21.3125 9.0625 
Q 24.515625 -2 31 -13.1875 
L 23.1875 -13.1875 
Q 15.875 -1.703125 12.234375 9.375 
Q 8.59375 20.453125 8.59375 31.390625 
Q 8.59375 42.28125 12.203125 53.3125 
Q 15.828125 64.359375 23.1875 75.875 
z
" id="DejaVuSans-40"/>
       <path d="M 18.109375 8.203125 
L 18.109375 -20.796875 
L 9.078125 -20.796875 
L 9.078125 54.6875 
L 18.109375 54.6875 
L 18.109375 46.390625 
Q 20.953125 51.265625 25.265625 53.625 
Q 29.59375 56 35.59375 56 
Q 45.5625 56 51.78125 48.09375 
Q 58.015625 40.1875 58.015625 27.296875 
Q 58.015625 14.40625 51.78125 6.484375 
Q 45.5625 -1.421875 35.59375 -1.421875 
Q 29.59375 -1.421875 25.265625 0.953125 
Q 20.953125 3.328125 18.109375 8.203125 
z
M 48.6875 27.296875 
Q 48.6875 37.203125 44.609375 42.84375 
Q 40.53125 48.484375 33.40625 48.484375 
Q 26.265625 48.484375 22.1875 42.84375 
Q 18.109375 37.203125 18.109375 27.296875 
Q 18.109375 17.390625 22.1875 11.75 
Q 26.265625 6.109375 33.40625 6.109375 
Q 40.53125 6.109375 44.609375 11.75 
Q 48.6875 17.390625 48.6875 27.296875 
z
" id="DejaVuSans-112"/>
       <path d="M 52 44.1875 
Q 55.375 50.25 60.0625 53.125 
Q 64.75 56 71.09375 56 
Q 79.640625 56 84.28125 50.015625 
Q 88.921875 44.046875 88.921875 33.015625 
L 88.921875 0 
L 79.890625 0 
L 79.890625 32.71875 
Q 79.890625 40.578125 77.09375 44.375 
Q 74.3125 48.1875 68.609375 48.1875 
Q 61.625 48.1875 57.5625 43.546875 
Q 53.515625 38.921875 53.515625 30.90625 
L 53.515625 0 
L 44.484375 0 
L 44.484375 32.71875 
Q 44.484375 40.625 41.703125 44.40625 
Q 38.921875 48.1875 33.109375 48.1875 
Q 26.21875 48.1875 22.15625 43.53125 
Q 18.109375 38.875 18.109375 30.90625 
L 18.109375 0 
L 9.078125 0 
L 9.078125 54.6875 
L 18.109375 54.6875 
L 18.109375 46.1875 
Q 21.1875 51.21875 25.484375 53.609375 
Q 29.78125 56 35.6875 56 
Q 41.65625 56 45.828125 52.96875 
Q 50 49.953125 52 44.1875 
z
" id="DejaVuSans-109"/>
       <path d="M 8.015625 75.875 
L 15.828125 75.875 
Q 23.140625 64.359375 26.78125 53.3125 
Q 30.421875 42.28125 30.421875 31.390625 
Q 30.421875 20.453125 26.78125 9.375 
Q 23.140625 -1.703125 15.828125 -13.1875 
L 8.015625 -13.1875 
Q 14.5 -2 17.703125 9.0625 
Q 20.90625 20.125 20.90625 31.390625 
Q 20.90625 42.671875 17.703125 53.65625 
Q 14.5 64.65625 8.015625 75.875 
z
" id="DejaVuSans-41"/>
      </defs>
      <use xlink:href="#DejaVuSans-67"/>
      <use x="69.824219" xlink:href="#DejaVuSans-79"/>
      <use x="148.535156" xlink:href="#DejaVuSans-40"/>
      <use x="187.548828" xlink:href="#DejaVuSans-112"/>
      <use x="251.025391" xlink:href="#DejaVuSans-112"/>
      <use x="314.501953" xlink:href="#DejaVuSans-109"/>
      <use x="411.914062" xlink:href="#DejaVuSans-41"/>
     </g>
    </g>
   </g>
   <g id="line2d_18">
    <path clip-path="url(#p151e37a17b)" d="M 138.436364 341.785909 
L 139.273678 386.951486 
L 140.110992 370.912045 
L 140.948306 292.664222 
L 141.78562 310.796388 
L 142.622934 303.653414 
L 143.460248 316.290984 
L 144.297562 294.422493 
L 145.134876 231.674209 
L 145.97219 237.608372 
L 146.809504 298.378602 
L 147.646818 322.005364 
L 148.484132 296.147318 
L 149.321446 174.860088 
L 150.15876 216.179449 
L 150.996074 210.574961 
L 151.833388 234.421507 
L 152.670702 266.619838 
L 153.508016 285.08168 
L 154.345329 345.30245 
L 155.182643 354.423479 
L 156.019957 369.148996 
L 156.857271 311.45574 
L 157.694585 337.170448 
L 158.531899 359.03894 
L 159.369213 346.511261 
L 160.206527 375.083159 
L 161.043841 365.742347 
L 161.881155 385.083324 
L 162.718469 380.028296 
L 163.555783 340.68699 
L 164.393097 321.126229 
L 165.230411 348.7091 
L 166.067725 395.083488 
L 166.905039 341.456233 
L 167.742353 349.368451 
L 168.579667 347.170613 
L 169.416981 325.302121 
L 170.254295 331.236285 
L 171.091609 316.62066 
L 171.928923 355.412506 
L 172.766237 364.863211 
L 173.603551 369.258888 
L 174.440865 325.521905 
L 175.278179 338.599043 
L 176.115493 365.742347 
L 176.952807 371.299738 
L 177.790121 404.863869 
L 178.627435 394.643921 
L 179.464749 368.050077 
L 180.302063 430.468685 
L 181.139377 408.270518 
L 181.976691 372.885321 
L 182.814005 360.607397 
L 183.651319 402.336355 
L 184.488633 382.226134 
L 185.325947 368.489644 
L 186.163261 362.115913 
L 187.000575 377.720565 
L 187.837889 389.918568 
L 188.675203 348.379424 
L 189.512517 333.434123 
L 190.349831 376.401862 
L 192.024459 412.666195 
L 192.861773 363.6544 
L 193.699087 277.828814 
L 194.536401 358.049912 
L 195.373715 347.390397 
L 196.211029 326.993501 
L 197.048343 314.49449 
L 197.885657 350.46737 
L 198.722971 396.292299 
L 200.397599 346.071694 
L 201.234913 328.818663 
L 202.072227 325.192229 
L 202.909541 363.214832 
L 203.746855 354.863047 
L 204.584169 313.104119 
L 205.421483 428.542685 
L 206.258797 408.38041 
L 207.096111 376.511754 
L 207.933425 394.863704 
L 208.770739 347.170613 
L 209.608053 416.512412 
L 210.445367 315.411849 
L 211.282681 266.290162 
L 212.119995 297.609358 
L 212.957309 382.445918 
L 213.794623 353.87402 
L 214.631937 303.543522 
L 215.469251 341.895801 
L 216.306565 340.247422 
L 217.143879 288.808449 
L 218.818507 397.50111 
L 219.655821 418.050899 
L 220.493135 359.808183 
L 221.330449 349.148667 
L 222.167763 387.061378 
L 223.005077 360.687318 
L 223.842391 324.752662 
L 224.679705 346.621153 
L 225.517019 375.083159 
L 226.354333 355.852074 
L 227.191647 371.896294 
L 228.028961 348.599208 
L 229.703589 377.720565 
L 230.540903 293.543358 
L 231.378217 293.65325 
L 232.215531 303.213846 
L 233.052845 266.949514 
L 233.890159 273.872705 
L 234.727473 379.368944 
L 235.564787 372.335862 
L 236.402101 375.522727 
L 237.239415 370.357807 
L 238.076729 357.830129 
L 238.914043 362.555481 
L 239.751357 354.423479 
L 240.588671 380.467863 
L 241.425985 377.830457 
L 242.263299 376.951322 
L 243.100613 381.786566 
L 243.937927 382.00635 
L 244.775241 371.346834 
L 245.612555 338.049584 
L 246.449869 274.75184 
L 248.124497 377.280998 
L 248.961811 373.434781 
L 250.636439 391.566947 
L 251.473753 327.829635 
L 252.311067 352.665209 
L 253.148381 411.317521 
L 253.985695 372.288082 
L 254.823009 322.994391 
L 255.660323 401.237435 
L 256.497637 442.996364 
L 257.334951 424.314738 
L 258.172265 358.929048 
L 259.009579 309.917253 
L 259.846893 378.379917 
L 260.684207 407.491719 
L 261.521521 352.115749 
L 262.358835 390.697802 
L 263.196149 369.214931 
L 264.033463 354.203695 
L 264.870777 405.743004 
L 265.708091 386.621811 
L 266.545405 361.676346 
L 267.382719 372.116078 
L 268.220033 364.313752 
L 269.057347 366.291806 
L 269.89466 346.401369 
L 270.731974 364.093968 
L 271.569288 372.681236 
L 272.406602 351.01683 
L 273.243916 387.281162 
L 274.08123 402.556138 
L 275.755858 337.657795 
L 276.593172 341.016665 
L 277.430486 338.159476 
L 278.2678 337.610016 
L 279.105114 344.423315 
L 279.942428 347.720072 
L 280.779742 321.565796 
L 281.617056 312.664551 
L 282.45437 334.203367 
L 283.291684 391.896623 
L 284.128998 369.36878 
L 284.966312 362.006021 
L 285.803626 364.093968 
L 286.64094 349.446945 
L 287.478254 318.708606 
L 288.315568 345.85191 
L 289.152882 339.807854 
L 289.990196 324.972446 
L 290.82751 333.653907 
L 291.664824 326.401041 
L 292.502138 293.873033 
L 293.339452 299.917089 
L 294.176766 298.708278 
L 295.01408 287.169626 
L 295.851394 317.719579 
L 296.688708 384.31408 
L 297.526022 391.237271 
L 298.363336 122.881212 
L 299.20065 330.137366 
L 300.037964 308.049091 
L 300.875278 343.434288 
L 301.712592 329.587906 
L 302.549906 335.961637 
L 303.38722 333.983583 
L 304.224534 300.619441 
L 305.061848 280.686003 
L 305.899162 327.609852 
L 306.736476 365.082995 
L 307.57379 356.950993 
L 308.411104 362.335697 
L 309.248418 379.14916 
L 310.923046 347.829964 
L 311.76036 340.577098 
L 312.597674 359.148832 
L 313.434988 384.423972 
L 314.272302 403.285421 
L 315.109616 392.88565 
L 315.94693 332.445096 
L 316.784244 324.313094 
L 317.621558 325.631797 
L 318.458872 341.346341 
L 319.296186 337.8298 
L 320.1335 319.917417 
L 320.970814 314.31293 
L 321.808128 277.389246 
L 322.645442 275.191408 
L 323.482756 286.290491 
L 324.32007 258.927404 
L 325.157384 244.076296 
L 325.994698 248.707456 
L 326.832012 285.411356 
L 327.669326 299.257737 
L 328.50664 275.630975 
L 329.343954 331.565961 
L 330.181268 310.466713 
L 331.018582 259.696647 
L 331.855896 265.850595 
L 332.69321 277.05957 
L 333.530524 223.871883 
L 334.367838 224.970802 
L 335.205152 275.630975 
L 336.87978 235.74021 
L 338.554408 262.004378 
L 339.391722 244.531563 
L 340.229036 135.079214 
L 342.740978 224.201558 
L 343.578292 232.88302 
L 344.415606 222.00372 
L 345.25292 241.234805 
L 346.090234 272.114434 
L 346.927548 249.037132 
L 347.764862 269.696812 
L 348.602176 279.696976 
L 349.43949 276.070543 
L 350.276804 303.98309 
L 351.114118 309.477685 
L 351.951432 316.400876 
L 352.788746 330.467041 
L 353.62606 293.763141 
L 354.463374 310.686497 
L 355.300688 334.42315 
L 356.138002 327.060392 
L 356.975316 314.203038 
L 357.81263 298.81817 
L 358.649944 289.697141 
L 359.487258 214.640962 
L 360.324572 212.113448 
L 361.161886 270.575947 
L 361.9992 290.136708 
L 362.836514 238.377616 
L 363.673828 309.917253 
L 364.511142 306.180928 
L 365.348456 371.786402 
L 366.18577 372.116078 
L 367.023084 352.335533 
L 367.860398 301.675359 
L 368.697712 318.92839 
L 369.535026 245.850266 
L 370.37234 254.202052 
L 371.209654 267.938541 
L 372.046968 252.223997 
L 372.884282 287.93887 
L 373.721596 303.103954 
L 374.55891 259.366972 
L 375.396224 375.193051 
L 376.233538 338.049584 
L 377.070852 327.170284 
L 377.908166 323.214175 
L 378.74548 341.346341 
L 379.582794 344.313423 
L 380.420108 346.621153 
L 381.257422 348.15964 
L 382.094736 350.027803 
L 382.93205 347.829964 
L 384.606678 415.743168 
L 385.443991 429.809334 
L 386.281305 440.908417 
L 387.118619 408.490302 
L 387.955933 394.314245 
L 388.793247 360.79721 
L 389.630561 339.368287 
L 390.467875 416.40252 
L 391.305189 417.501439 
L 392.142503 344.752991 
L 392.979817 333.653907 
L 393.817131 361.126886 
L 394.654445 411.787059 
L 395.491759 324.972446 
L 396.329073 320.247093 
L 397.166387 325.192229 
L 398.003701 355.302614 
L 398.841015 333.324231 
L 399.678329 356.18175 
L 400.515643 349.368451 
L 401.352957 329.478014 
L 402.190271 336.950664 
L 403.027585 323.763635 
L 403.864899 314.8385 
L 404.702213 341.441899 
L 405.539527 312.664551 
L 406.376841 270.575947 
L 407.214155 278.158489 
L 408.051469 277.60903 
L 408.888783 260.355999 
L 409.726097 253.103132 
L 410.563411 214.311286 
L 411.400725 255.410863 
L 412.238039 243.322752 
L 413.075353 201.124256 
L 413.912667 237.49848 
L 414.749981 238.157832 
L 415.587295 229.828025 
L 416.424609 277.169462 
L 417.261923 307.499631 
L 418.099237 323.873526 
L 418.936551 318.159147 
L 419.773865 313.323903 
L 420.611179 306.730388 
L 421.448493 235.102837 
L 422.285807 289.257573 
L 423.123121 244.751347 
L 423.960435 255.881828 
L 424.797749 269.736772 
L 425.635063 224.478677 
L 426.472377 271.964056 
L 427.309691 145.848622 
L 428.147005 196.17912 
L 428.984319 227.827992 
L 429.821633 237.48849 
L 430.658947 269.257244 
L 431.496261 314.642605 
L 432.333575 337.719908 
L 433.170889 326.181257 
L 434.008203 303.213846 
L 434.845517 260.136215 
L 436.520145 266.619838 
L 437.357459 289.697141 
L 438.194773 204.640797 
L 439.032087 260.795567 
L 439.869401 266.18027 
L 440.706715 211.563988 
L 441.544029 369.258888 
L 442.381343 408.970356 
L 443.218657 370.028131 
L 444.055971 317.17012 
L 444.893285 279.147517 
L 445.730599 232.223668 
L 446.567913 283.762977 
L 447.405227 197.497823 
L 449.079855 386.951486 
L 449.917169 359.918075 
L 450.754483 317.719579 
L 451.591797 303.98309 
L 453.266425 257.718593 
L 454.103739 202.552851 
L 454.941053 226.619181 
L 455.778367 186.538602 
L 456.615681 193.851409 
L 457.452995 203.282134 
L 458.290309 178.046954 
L 459.127623 208.596906 
L 459.964937 229.256587 
L 460.802251 207.014463 
L 461.639565 280.576111 
L 462.476879 224.091667 
L 463.314193 186.398739 
L 464.151507 187.387767 
L 464.988821 130.79343 
L 465.826135 206.069392 
L 466.663449 252.773457 
L 467.500763 256.180106 
L 469.175391 172.552358 
L 470.012705 211.014529 
L 470.850019 276.949678 
L 471.687333 376.951322 
L 472.524647 341.126557 
L 473.361961 371.566618 
L 474.199275 355.302614 
L 475.036589 386.621811 
L 475.873903 346.621153 
L 476.711217 290.79606 
L 477.548531 363.874184 
L 478.385845 387.391054 
L 479.223159 348.489316 
L 480.060473 348.379424 
L 480.897787 364.20386 
L 481.735101 326.071365 
L 482.572415 369.588564 
L 483.409729 378.270025 
L 484.247043 340.247422 
L 485.084357 337.8298 
L 485.921671 313.323903 
L 486.758985 356.291642 
L 487.596299 379.14916 
L 488.433613 373.214997 
L 489.270927 337.390232 
L 490.108241 284.752004 
L 490.945555 333.544015 
L 491.782869 296.400547 
L 492.620183 241.344697 
L 493.457497 368.489644 
L 494.294811 354.423479 
L 495.132125 351.456397 
L 495.969439 340.357314 
L 496.806753 296.510439 
L 497.644067 388.160297 
L 498.481381 377.39089 
L 499.318695 376.731538 
L 500.156009 371.346834 
L 500.993322 308.488658 
L 501.830636 342.225476 
L 502.66795 348.599208 
L 503.505264 348.928883 
L 504.342578 339.478179 
L 505.179892 352.994884 
L 506.017206 403.545166 
L 506.85452 383.215161 
L 507.691834 354.533371 
L 508.529148 284.092653 
L 509.366462 291.455411 
L 510.203776 322.884499 
L 511.04109 256.839458 
L 511.878404 340.247422 
L 512.715718 407.391383 
L 513.553032 365.522563 
L 514.390346 337.390232 
L 515.22766 352.7751 
L 516.064974 365.302779 
L 516.902288 357.94002 
L 517.739602 349.368451 
L 518.576916 348.928883 
L 519.41423 340.467206 
L 520.251544 261.01535 
L 521.088858 256.839458 
L 521.926172 301.1259 
L 522.763486 355.082831 
L 523.6008 332.884664 
L 524.438114 276.839786 
L 525.275428 354.863047 
L 526.112742 365.302779 
L 526.950056 318.269039 
L 527.78737 311.895308 
L 528.624684 329.587906 
L 529.461998 350.027803 
L 530.299312 337.060556 
L 531.136626 281.784923 
L 531.97394 328.488987 
L 532.811254 347.170613 
L 533.648568 358.819156 
L 534.485882 351.456397 
L 535.323196 309.367794 
L 536.16051 259.25708 
L 536.997824 349.368451 
L 537.835138 349.588235 
L 538.672452 366.072022 
L 539.509766 353.214668 
L 540.34708 278.378273 
L 541.184394 234.311615 
L 542.021708 240.025994 
L 542.859022 264.092324 
L 543.696336 270.026488 
L 544.53365 349.808019 
L 545.370964 324.752662 
L 546.208278 268.707785 
L 547.045592 335.741853 
L 547.882906 341.785909 
L 549.557534 396.182407 
L 550.394848 392.116406 
L 551.232162 397.50111 
L 552.069476 381.017323 
L 552.90679 383.654729 
L 553.744104 383.434945 
L 554.581418 389.149325 
L 555.418732 394.094461 
L 556.256046 368.159969 
L 557.09336 368.81932 
L 557.930674 385.522891 
L 558.767988 368.269861 
L 559.605302 383.984405 
L 560.442616 384.533864 
L 561.27993 392.226298 
L 562.117244 351.566289 
L 562.954558 356.18175 
L 563.791872 345.85191 
L 564.629186 357.060885 
L 567.141128 364.533535 
L 567.978442 338.379259 
L 568.815756 342.665044 
L 569.65307 310.796388 
L 570.490384 310.976212 
L 571.327698 257.059241 
L 572.165012 280.576111 
L 573.002326 316.950336 
L 573.83964 369.918239 
L 574.676954 363.38752 
L 575.514268 372.665537 
L 576.351582 425.523549 
L 577.188896 431.128037 
L 578.02621 427.831279 
L 578.863524 431.018145 
L 579.700838 410.907924 
L 580.538152 382.995377 
L 581.375466 363.434616 
L 582.21278 386.402027 
L 583.050094 389.259217 
L 583.887408 382.00635 
L 584.724722 377.720565 
L 585.562036 350.906938 
L 586.39935 348.15964 
L 587.236664 292.114763 
L 588.073978 337.28034 
L 588.911292 301.675359 
L 589.748606 304.972117 
L 590.58592 354.863047 
L 591.423234 324.862554 
L 592.260548 336.071529 
L 593.097862 335.961637 
L 593.935176 332.66488 
L 594.77249 322.884499 
L 595.609804 325.961473 
L 596.447118 339.697962 
L 597.284432 363.434616 
L 598.121746 363.104941 
L 598.95906 349.368451 
L 600.633688 303.43363 
L 601.471002 320.247093 
L 602.308316 325.741689 
L 603.14563 283.653085 
L 603.982944 262.334053 
L 604.820258 272.663894 
L 605.657572 284.971788 
L 606.494886 225.080694 
L 607.3322 259.916431 
L 608.169514 284.861896 
L 609.006828 282.554166 
L 609.844142 276.290327 
L 610.681456 267.059406 
L 611.51877 226.619181 
L 612.356084 194.091173 
L 613.193398 198.596742 
L 614.030712 238.817183 
L 614.868026 221.893828 
L 615.70534 155.958678 
L 616.542653 178.596413 
L 617.379967 161.343382 
L 618.217281 220.465233 
L 619.054595 252.223997 
L 619.891909 256.180106 
L 620.729223 218.157503 
L 621.566537 300.57644 
L 622.403851 198.047282 
L 623.241165 186.288847 
L 624.078479 206.948528 
L 624.915793 249.256915 
L 625.753107 282.993734 
L 626.590421 283.982761 
L 627.427735 305.301793 
L 628.265049 330.906609 
L 629.102363 330.137366 
L 629.939677 293.10379 
L 630.776991 295.081844 
L 631.614305 319.367958 
L 632.451619 292.664222 
L 633.288933 282.004706 
L 634.126247 280.576111 
L 634.963561 247.82832 
L 635.800875 266.509946 
L 636.638189 274.422164 
L 637.475503 292.55433 
L 638.312817 301.785251 
L 639.150131 307.060063 
L 639.987445 311.235956 
L 640.824759 309.917253 
L 641.662073 302.994062 
L 642.499387 302.224819 
L 643.336701 302.005035 
L 644.174015 283.762977 
L 645.011329 270.795731 
L 645.848643 322.884499 
L 646.685957 331.346177 
L 647.523271 306.510604 
L 648.360585 330.686825 
L 649.197899 331.565961 
L 650.035213 303.43363 
L 650.872527 314.203038 
L 651.709841 301.1259 
L 652.547155 285.08168 
L 653.384469 324.09331 
L 655.059097 256.729566 
L 655.896411 234.64129 
L 656.733725 263.87254 
L 657.571039 238.267724 
L 658.408353 247.168969 
L 659.245667 280.795895 
L 660.082981 327.719744 
L 660.920295 357.500453 
L 661.757609 313.76347 
L 662.594923 291.675195 
L 663.432237 371.456726 
L 664.269551 352.005857 
L 665.106865 355.192723 
L 665.944179 344.313423 
L 666.781493 300.026981 
L 667.618807 286.949843 
L 668.456121 262.004378 
L 669.293435 245.190914 
L 670.130749 213.322259 
L 670.968063 252.004213 
L 671.805377 300.356656 
L 672.642691 336.181421 
L 673.480005 329.038447 
L 674.317319 331.016501 
L 675.154633 329.038447 
L 675.991947 339.038611 
L 676.829261 346.840937 
L 677.666575 375.193051 
L 678.503889 305.521576 
L 679.341203 200.355013 
L 680.178517 262.993405 
L 681.015831 368.929212 
L 681.853145 317.060228 
L 682.690459 231.014857 
L 683.527773 225.630153 
L 684.365087 286.400383 
L 685.202401 295.081844 
L 686.039715 282.22449 
L 686.877029 296.840115 
L 687.714343 247.168969 
L 688.551657 246.729401 
L 689.388971 255.960322 
L 690.226285 262.443945 
L 691.063599 270.026488 
L 691.900913 235.630318 
L 692.738227 263.652756 
L 693.575541 283.433301 
L 694.412855 285.960815 
L 695.250169 247.718429 
L 696.087483 294.642277 
L 696.924797 278.707949 
L 697.762111 307.939199 
L 698.599425 284.422329 
L 699.436739 308.488658 
L 701.111367 287.609194 
L 701.948681 329.80769 
L 702.785995 295.741196 
L 703.623309 343.654071 
L 704.460623 304.752333 
L 705.297937 257.388917 
L 706.135251 283.872869 
L 706.972565 290.2466 
L 707.809879 300.906116 
L 708.647193 276.400219 
L 709.484507 291.235627 
L 710.321821 336.730881 
L 711.159135 353.711571 
L 711.996449 334.10303 
L 712.833763 396.712755 
L 713.671077 386.163131 
L 714.508391 289.152459 
L 715.345705 321.03067 
L 716.183019 336.281757 
L 717.020333 305.894253 
L 717.857647 319.654632 
L 718.694961 348.780768 
L 720.369589 313.003783 
L 721.206903 288.12043 
L 722.044217 366.669261 
L 722.881531 363.687845 
L 723.718845 371.026714 
L 724.556159 384.099074 
L 725.393473 354.972939 
L 726.230787 331.924304 
L 727.068101 349.698127 
L 727.905415 392.699311 
L 729.580043 352.335533 
L 730.417357 359.903741 
L 731.254671 328.713549 
L 732.091984 239.500424 
L 732.929298 253.260803 
L 734.603926 339.263173 
L 735.44124 271.378636 
L 736.278554 296.950007 
L 737.115868 350.730155 
L 737.953182 363.964096 
L 738.790496 325.158784 
L 739.62781 326.076143 
L 740.465124 273.098683 
L 741.302438 257.044908 
L 742.139752 315.297179 
L 742.977066 315.182509 
L 743.81438 320.113312 
L 745.489008 246.036604 
L 746.326322 274.9334 
L 747.163636 280.208212 
L 747.163636 280.208212 
" style="fill:none;stroke:#1f77b4;stroke-linecap:square;stroke-width:1.5;"/>
   </g>
   <g id="line2d_19">
    <path clip-path="url(#p151e37a17b)" d="M 138.436364 285.718802 
L 139.273678 318.177899 
L 140.110992 271.492833 
L 140.948306 137.402821 
L 141.78562 198.646922 
L 142.622934 272.971107 
L 143.460248 180.90439 
L 144.297562 189.700187 
L 145.134876 167.152063 
L 145.97219 239.099484 
L 146.809504 224.30867 
L 147.646818 275.741704 
L 148.484132 248.8152 
L 149.321446 128.941851 
L 150.15876 171.235533 
L 150.996074 205.772433 
L 151.833388 108.881412 
L 152.670702 192.331591 
L 153.508016 205.697882 
L 154.345329 187.769474 
L 155.182643 319.665982 
L 156.019957 317.920239 
L 156.857271 279.413607 
L 157.694585 276.459399 
L 158.531899 308.864041 
L 159.369213 326.558054 
L 160.206527 330.82989 
L 161.043841 315.988344 
L 161.881155 310.95364 
L 162.718469 296.219369 
L 163.555783 275.920637 
L 164.393097 223.850321 
L 165.230411 252.455411 
L 166.067725 300.744865 
L 166.905039 261.051021 
L 167.742353 261.654047 
L 168.579667 287.25397 
L 169.416981 293.634521 
L 170.254295 201.291331 
L 171.091609 198.779374 
L 171.928923 262.687402 
L 172.766237 270.890687 
L 173.603551 249.029748 
L 174.440865 217.282863 
L 175.278179 238.929429 
L 176.115493 286.013536 
L 176.952807 290.745029 
L 177.790121 308.42292 
L 178.627435 313.867128 
L 179.464749 329.999186 
L 180.302063 395.961638 
L 181.139377 354.099406 
L 181.976691 188.705088 
L 182.814005 298.110844 
L 183.651319 345.133479 
L 184.488633 309.352925 
L 185.325947 281.471767 
L 186.163261 335.973276 
L 187.000575 300.243278 
L 187.837889 284.605663 
L 188.675203 251.192868 
L 189.512517 232.838004 
L 190.349831 274.400812 
L 191.187145 278.419741 
L 192.024459 309.141797 
L 192.861773 250.725439 
L 193.699087 181.708231 
L 194.536401 274.346785 
L 196.211029 247.951496 
L 197.048343 185.450662 
L 197.885657 286.821653 
L 198.722971 296.898229 
L 199.560285 265.106824 
L 200.397599 265.494697 
L 201.234913 230.978472 
L 202.072227 222.502084 
L 202.909541 267.832776 
L 203.746855 233.919174 
L 204.584169 194.767815 
L 205.421483 323.277545 
L 206.258797 334.212945 
L 207.096111 303.490712 
L 207.933425 280.407474 
L 208.770739 278.085266 
L 209.608053 254.295601 
L 210.445367 209.569092 
L 211.282681 152.12771 
L 212.119995 185.546165 
L 212.957309 264.568113 
L 213.794623 250.776196 
L 214.631937 203.937248 
L 215.469251 226.815974 
L 216.306565 252.885037 
L 217.143879 190.740862 
L 217.981193 211.470276 
L 218.818507 278.751323 
L 219.655821 367.410763 
L 220.493135 346.892226 
L 221.330449 244.635673 
L 222.167763 326.713873 
L 223.005077 328.007428 
L 223.842391 304.918782 
L 224.679705 333.075459 
L 225.517019 334.968016 
L 226.354333 338.021903 
L 227.191647 319.117738 
L 228.028961 310.475747 
L 228.866275 288.183472 
L 229.703589 301.993423 
L 230.540903 254.195923 
L 231.378217 186.74628 
L 232.215531 243.08574 
L 233.052845 189.60413 
L 233.890159 167.126558 
L 234.727473 276.459927 
L 235.564787 337.204681 
L 236.402101 308.739512 
L 237.239415 344.745958 
L 238.076729 316.506003 
L 238.914043 304.714244 
L 239.751357 334.934613 
L 240.588671 352.71876 
L 241.425985 337.405647 
L 242.263299 300.410164 
L 243.100613 316.20742 
L 243.937927 269.445564 
L 244.775241 298.432366 
L 245.612555 248.292234 
L 246.449869 267.91447 
L 247.287183 177.308346 
L 248.124497 297.051456 
L 248.961811 333.443939 
L 249.799125 283.017072 
L 250.636439 288.604924 
L 251.473753 258.610698 
L 252.311067 234.463846 
L 253.985695 253.550893 
L 254.823009 252.228186 
L 255.660323 249.648092 
L 256.497637 265.104107 
L 257.334951 235.153521 
L 258.172265 264.982697 
L 259.009579 243.697116 
L 259.846893 245.846151 
L 260.684207 299.037856 
L 261.521521 241.759663 
L 262.358835 297.831252 
L 263.196149 252.795797 
L 264.033463 264.024899 
L 264.870777 231.945878 
L 265.708091 303.860576 
L 267.382719 292.788751 
L 268.220033 253.236087 
L 269.057347 229.886939 
L 269.89466 223.925199 
L 270.731974 220.184781 
L 271.569288 284.002361 
L 272.406602 331.141551 
L 273.243916 346.469366 
L 274.08123 357.064694 
L 274.918544 239.608842 
L 275.755858 245.45199 
L 276.593172 272.181954 
L 277.430486 312.433549 
L 278.2678 309.760065 
L 279.105114 315.132287 
L 279.942428 322.27734 
L 280.779742 272.856337 
L 281.617056 255.744497 
L 282.45437 267.388763 
L 283.291684 301.493245 
L 284.128998 307.717626 
L 284.966312 297.29913 
L 285.803626 297.507668 
L 286.64094 271.649808 
L 287.478254 263.7153 
L 288.315568 257.496453 
L 289.152882 273.471888 
L 289.990196 274.360266 
L 290.82751 262.976176 
L 291.664824 270.716433 
L 292.502138 230.453544 
L 293.339452 241.086236 
L 294.176766 263.152845 
L 295.01408 243.295058 
L 295.851394 237.525279 
L 297.526022 311.341513 
L 298.363336 148.829293 
L 299.20065 257.002387 
L 300.037964 299.216513 
L 300.875278 300.566787 
L 301.712592 304.887493 
L 302.549906 297.02985 
L 303.38722 294.379531 
L 304.224534 221.851319 
L 305.061848 181.939154 
L 305.899162 260.914168 
L 306.736476 311.197743 
L 307.57379 333.489012 
L 308.411104 334.993973 
L 309.248418 334.343912 
L 310.085732 325.832286 
L 310.923046 322.699446 
L 311.76036 313.656528 
L 312.597674 328.982154 
L 313.434988 327.188345 
L 314.272302 290.435204 
L 315.109616 262.835071 
L 315.94693 200.983316 
L 316.784244 180.837083 
L 317.621558 225.038966 
L 318.458872 247.7829 
L 319.296186 246.801057 
L 320.1335 255.850665 
L 320.970814 281.674896 
L 321.808128 248.669794 
L 322.645442 207.010201 
L 324.32007 234.00522 
L 325.157384 188.641981 
L 325.994698 240.404358 
L 326.832012 248.433313 
L 327.669326 245.538765 
L 328.50664 179.854761 
L 329.343954 212.423044 
L 330.181268 219.637316 
L 331.018582 163.373313 
L 331.855896 228.249351 
L 332.69321 278.350371 
L 333.530524 236.274281 
L 334.367838 211.4082 
L 335.205152 242.303505 
L 336.042466 268.801691 
L 336.87978 220.923679 
L 337.717094 213.598057 
L 338.554408 269.504823 
L 340.229036 177.98713 
L 342.740978 175.778384 
L 343.578292 209.038505 
L 344.415606 220.824604 
L 345.25292 220.654474 
L 346.090234 192.187972 
L 346.927548 187.559075 
L 347.764862 204.984136 
L 348.602176 228.658201 
L 349.43949 258.906866 
L 350.276804 220.293514 
L 351.114118 262.610638 
L 351.951432 227.508994 
L 352.788746 201.01209 
L 353.62606 259.092415 
L 354.463374 224.484208 
L 355.300688 234.186216 
L 356.138002 228.542978 
L 356.975316 218.821754 
L 357.81263 193.889825 
L 358.649944 246.857624 
L 359.487258 224.644277 
L 360.324572 170.284199 
L 361.161886 253.944652 
L 361.9992 229.135691 
L 362.836514 164.068672 
L 363.673828 204.857645 
L 364.511142 161.277676 
L 365.348456 273.749494 
L 366.18577 222.693467 
L 367.023084 291.74287 
L 367.860398 249.048864 
L 368.697712 215.822045 
L 369.535026 160.029747 
L 370.37234 168.923009 
L 371.209654 205.152958 
L 372.046968 165.98701 
L 372.884282 223.010587 
L 373.721596 242.631113 
L 374.55891 208.479672 
L 375.396224 242.833488 
L 376.233538 217.070729 
L 377.070852 209.383644 
L 377.908166 253.2671 
L 378.74548 256.732353 
L 379.582794 273.408655 
L 380.420108 267.860795 
L 381.257422 229.386686 
L 382.93205 307.749846 
L 383.769364 314.523426 
L 384.606678 283.871771 
L 385.443991 272.184319 
L 386.281305 319.624531 
L 387.118619 319.431714 
L 387.955933 346.706979 
L 388.793247 215.267513 
L 389.630561 226.210961 
L 391.305189 310.600327 
L 392.142503 271.706577 
L 392.979817 285.854951 
L 393.817131 268.757272 
L 394.654445 325.546833 
L 395.491759 324.001704 
L 396.329073 239.199062 
L 397.166387 298.645607 
L 398.003701 237.883422 
L 398.841015 239.460796 
L 399.678329 243.95289 
L 400.515643 273.122473 
L 401.352957 272.41992 
L 402.190271 199.39241 
L 403.027585 223.50083 
L 403.864899 180.854588 
L 404.702213 297.069465 
L 405.539527 200.629097 
L 406.376841 199.834512 
L 407.214155 200.919832 
L 408.051469 250.063708 
L 408.888783 196.888679 
L 409.726097 237.774362 
L 410.563411 86.923636 
L 411.400725 238.768832 
L 412.238039 205.092743 
L 413.075353 182.129381 
L 413.912667 230.580463 
L 414.749981 215.764396 
L 415.587295 193.151203 
L 416.424609 271.615073 
L 417.261923 300.30221 
L 418.099237 301.87722 
L 418.936551 301.570941 
L 419.773865 306.749188 
L 420.611179 315.584977 
L 421.448493 265.168774 
L 422.285807 248.809616 
L 423.123121 279.795972 
L 423.960435 233.601803 
L 424.797749 265.14576 
L 425.635063 184.127149 
L 426.472377 258.798536 
L 427.309691 144.100818 
L 428.147005 156.839761 
L 428.984319 219.045484 
L 429.821633 226.92521 
L 430.658947 262.564634 
L 431.496261 266.331462 
L 432.333575 287.228038 
L 433.170889 286.390518 
L 434.008203 296.234485 
L 434.845517 262.105304 
L 435.682831 211.30661 
L 436.520145 266.329023 
L 437.357459 208.000219 
L 438.194773 138.693082 
L 439.032087 213.608143 
L 439.869401 272.568067 
L 440.706715 109.475961 
L 441.544029 271.966752 
L 442.381343 283.197765 
L 443.218657 289.713786 
L 444.055971 301.196222 
L 444.893285 230.12991 
L 445.730599 120.598946 
L 446.567913 161.921373 
L 447.405227 153.681844 
L 448.242541 176.619752 
L 449.079855 274.134273 
L 449.917169 308.135857 
L 450.754483 275.266552 
L 451.591797 268.450842 
L 452.429111 285.860007 
L 453.266425 265.774843 
L 454.103739 237.231652 
L 454.941053 219.654068 
L 455.778367 211.389562 
L 456.615681 231.010214 
L 457.452995 231.495452 
L 458.290309 217.246694 
L 459.127623 151.683194 
L 459.964937 213.870732 
L 461.639565 289.997328 
L 462.476879 159.903558 
L 463.314193 149.440292 
L 464.151507 96.622349 
L 464.988821 172.432881 
L 465.826135 107.711781 
L 466.663449 250.609109 
L 467.500763 227.12517 
L 468.338077 240.953457 
L 469.175391 163.776151 
L 470.012705 226.392485 
L 470.850019 188.367897 
L 471.687333 331.755744 
L 472.524647 277.266962 
L 473.361961 285.276348 
L 474.199275 321.518522 
L 475.036589 298.761106 
L 475.873903 283.557694 
L 476.711217 276.457889 
L 477.548531 322.060452 
L 478.385845 355.676528 
L 479.223159 354.792602 
L 480.060473 311.033977 
L 480.897787 351.690963 
L 481.735101 307.02707 
L 482.572415 348.287988 
L 483.409729 353.6937 
L 484.247043 331.994867 
L 485.084357 338.547837 
L 485.921671 283.236097 
L 486.758985 313.563112 
L 487.596299 361.768394 
L 489.270927 315.646852 
L 490.108241 250.499571 
L 490.945555 281.284382 
L 491.782869 281.24927 
L 492.620183 170.694055 
L 493.457497 292.524753 
L 494.294811 290.600152 
L 495.132125 245.689427 
L 495.969439 268.280285 
L 496.806753 224.509536 
L 497.644067 263.671183 
L 498.481381 314.15829 
L 499.318695 324.782606 
L 500.156009 302.137269 
L 500.993322 289.07424 
L 501.830636 319.485615 
L 502.66795 309.81452 
L 503.505264 333.744182 
L 504.342578 319.588689 
L 505.179892 315.915603 
L 506.017206 358.871582 
L 506.85452 315.518223 
L 507.691834 306.1276 
L 508.529148 291.574727 
L 509.366462 243.75464 
L 510.203776 262.130984 
L 511.04109 244.698252 
L 511.878404 233.297938 
L 512.715718 326.94057 
L 513.553032 356.240593 
L 514.390346 251.840212 
L 515.22766 309.741855 
L 516.064974 320.080743 
L 516.902288 341.379252 
L 517.739602 336.79739 
L 518.576916 342.927047 
L 519.41423 316.719168 
L 520.251544 227.910424 
L 521.088858 192.420304 
L 521.926172 219.924882 
L 522.763486 299.971156 
L 523.6008 300.311994 
L 524.438114 258.618596 
L 525.275428 256.697114 
L 526.112742 324.368952 
L 526.950056 313.401811 
L 527.78737 286.64428 
L 528.624684 325.105964 
L 529.461998 306.345268 
L 530.299312 269.052434 
L 531.136626 242.562699 
L 531.97394 190.043641 
L 532.811254 243.755042 
L 533.648568 257.010008 
L 534.485882 300.497995 
L 535.323196 336.633196 
L 536.16051 303.697967 
L 536.997824 304.570323 
L 537.835138 298.85671 
L 538.672452 262.379036 
L 539.509766 258.688042 
L 540.34708 282.104095 
L 541.184394 142.510139 
L 542.021708 228.498182 
L 542.859022 279.809353 
L 543.696336 179.664182 
L 544.53365 248.609555 
L 545.370964 279.606576 
L 546.208278 262.384519 
L 547.045592 277.09145 
L 548.72022 355.157888 
L 549.557534 370.244417 
L 550.394848 354.917571 
L 552.069476 372.852292 
L 552.90679 327.763552 
L 553.744104 330.922349 
L 554.581418 346.58064 
L 555.418732 349.783114 
L 556.256046 349.522297 
L 557.09336 344.736199 
L 558.767988 363.482357 
L 559.605302 324.706395 
L 560.442616 366.375634 
L 561.27993 370.97665 
L 562.117244 359.291147 
L 562.954558 300.198004 
L 563.791872 331.252246 
L 564.629186 334.686813 
L 565.4665 347.143447 
L 566.303814 352.628011 
L 567.141128 317.701892 
L 567.978442 305.158483 
L 568.815756 274.388386 
L 569.65307 282.662198 
L 570.490384 211.947792 
L 571.327698 259.667798 
L 572.165012 240.752591 
L 573.002326 213.60691 
L 573.83964 286.038286 
L 574.676954 344.871241 
L 575.514268 334.113895 
L 576.351582 338.294453 
L 577.188896 371.172184 
L 578.02621 392.221044 
L 579.700838 278.237311 
L 580.538152 314.483761 
L 581.375466 321.554741 
L 582.21278 362.141917 
L 583.050094 366.817912 
L 583.887408 368.041997 
L 584.724722 358.038615 
L 585.562036 316.905571 
L 586.39935 304.944941 
L 587.236664 259.740689 
L 588.073978 259.76486 
L 588.911292 217.650765 
L 589.748606 212.441732 
L 590.58592 248.286424 
L 591.423234 250.670154 
L 592.260548 264.440867 
L 593.097862 234.187599 
L 594.77249 290.229332 
L 595.609804 306.554459 
L 596.447118 273.168879 
L 597.284432 292.165553 
L 598.121746 323.374784 
L 598.95906 332.742417 
L 599.796374 318.160946 
L 600.633688 307.957 
L 601.471002 304.588407 
L 602.308316 314.149412 
L 603.14563 279.98552 
L 603.982944 275.274853 
L 604.820258 278.499423 
L 605.657572 299.647094 
L 606.494886 290.754637 
L 607.3322 241.310066 
L 608.169514 253.801737 
L 609.006828 220.711821 
L 609.844142 226.927398 
L 610.681456 208.279787 
L 611.51877 178.648911 
L 612.356084 197.170837 
L 613.193398 218.830029 
L 614.030712 210.62858 
L 615.70534 241.074666 
L 616.542653 238.925355 
L 617.379967 216.751748 
L 618.217281 201.661975 
L 619.054595 241.784538 
L 619.891909 231.373891 
L 620.729223 200.836452 
L 622.403851 245.263851 
L 623.241165 237.325847 
L 624.078479 206.555825 
L 624.915793 243.046126 
L 625.753107 210.046482 
L 626.590421 230.346018 
L 627.427735 247.761521 
L 628.265049 250.31923 
L 629.102363 277.492226 
L 629.939677 278.800269 
L 630.776991 277.413675 
L 631.614305 249.219673 
L 632.451619 192.523076 
L 633.288933 226.472595 
L 634.126247 270.438223 
L 634.963561 253.231007 
L 635.800875 250.819961 
L 636.638189 283.570774 
L 637.475503 246.198333 
L 638.312817 265.274338 
L 639.150131 300.429128 
L 639.987445 311.18655 
L 640.824759 304.056311 
L 641.662073 312.725944 
L 642.499387 264.61233 
L 643.336701 274.866053 
L 644.174015 184.384407 
L 645.011329 262.704154 
L 645.848643 243.782886 
L 646.685957 262.557692 
L 647.523271 294.187594 
L 648.360585 313.935064 
L 649.197899 324.282328 
L 650.035213 277.226744 
L 650.872527 277.781905 
L 651.709841 308.932203 
L 652.547155 301.670896 
L 653.384469 309.419805 
L 654.221783 326.59699 
L 655.059097 259.055592 
L 655.896411 224.709019 
L 656.733725 221.837033 
L 657.571039 226.772963 
L 658.408353 255.27337 
L 659.245667 272.918035 
L 660.082981 284.902133 
L 660.920295 315.211214 
L 661.757609 238.951765 
L 662.594923 277.931334 
L 663.432237 284.280143 
L 664.269551 334.231733 
L 665.106865 321.279651 
L 665.944179 314.405411 
L 666.781493 289.060406 
L 667.618807 206.372566 
L 668.456121 242.334694 
L 669.293435 253.18123 
L 670.130749 243.439834 
L 670.968063 241.962692 
L 671.805377 262.868096 
L 672.642691 276.049568 
L 673.480005 246.706082 
L 674.317319 294.564073 
L 675.154633 312.116304 
L 675.991947 308.956978 
L 676.829261 282.241854 
L 677.666575 301.614806 
L 678.503889 222.911462 
L 679.341203 187.873252 
L 680.178517 244.216033 
L 681.015831 242.300311 
L 681.853145 247.020611 
L 682.690459 167.950069 
L 683.527773 181.76344 
L 684.365087 228.972353 
L 685.202401 192.718358 
L 686.039715 254.970311 
L 686.877029 282.389799 
L 687.714343 276.435957 
L 688.551657 221.403257 
L 689.388971 197.090702 
L 690.226285 157.972719 
L 691.063599 233.590032 
L 691.900913 254.138249 
L 692.738227 240.19977 
L 693.575541 243.467979 
L 694.412855 223.597088 
L 695.250169 256.550653 
L 696.087483 189.741562 
L 696.924797 213.171751 
L 697.762111 277.841591 
L 698.599425 225.519928 
L 699.436739 263.207124 
L 700.274053 276.502811 
L 701.111367 252.05461 
L 701.948681 250.507318 
L 703.623309 285.678382 
L 704.460623 307.551092 
L 705.297937 298.947031 
L 706.135251 249.922729 
L 706.972565 297.404368 
L 707.809879 292.98109 
L 708.647193 276.738916 
L 709.484507 243.401653 
L 710.321821 303.048888 
L 711.996449 337.759489 
L 712.833763 345.359422 
L 713.671077 356.982698 
L 714.508391 270.315933 
L 715.345705 275.37179 
L 717.020333 314.944676 
L 717.857647 323.065134 
L 718.694961 326.856964 
L 719.532275 297.687104 
L 720.369589 276.545168 
L 721.206903 262.710593 
L 722.044217 295.932784 
L 722.881531 284.64231 
L 723.718845 297.433695 
L 724.556159 319.317623 
L 725.393473 308.308528 
L 726.230787 310.545344 
L 727.068101 338.566902 
L 727.905415 329.95356 
L 728.742729 349.269517 
L 729.580043 325.73135 
L 730.417357 355.284404 
L 731.254671 324.580533 
L 732.091984 248.42627 
L 732.929298 195.983826 
L 733.766612 255.463647 
L 734.603926 197.22343 
L 735.44124 245.32067 
L 736.278554 247.891508 
L 737.115868 299.269257 
L 737.953182 260.334408 
L 738.790496 284.336786 
L 739.62781 226.677007 
L 740.465124 296.287104 
L 741.302438 251.297653 
L 742.139752 254.024938 
L 742.977066 265.841345 
L 743.81438 265.776176 
L 744.651694 248.564256 
L 745.489008 249.728805 
L 746.326322 262.359065 
L 747.163636 285.616005 
L 747.163636 285.616005 
" style="fill:none;stroke:#ff0000;stroke-dasharray:5.55,2.4;stroke-dashoffset:0;stroke-width:1.5;"/>
   </g>
   <g id="patch_3">
    <path d="M 108 460.8 
L 108 69.12 
" style="fill:none;stroke:#000000;stroke-linecap:square;stroke-linejoin:miter;stroke-width:0.8;"/>
   </g>
   <g id="patch_4">
    <path d="M 777.6 460.8 
L 777.6 69.12 
" style="fill:none;stroke:#000000;stroke-linecap:square;stroke-linejoin:miter;stroke-width:0.8;"/>
   </g>
   <g id="patch_5">
    <path d="M 108 460.8 
L 777.6 460.8 
" style="fill:none;stroke:#000000;stroke-linecap:square;stroke-linejoin:miter;stroke-width:0.8;"/>
   </g>
   <g id="patch_6">
    <path d="M 108 69.12 
L 777.6 69.12 
" style="fill:none;stroke:#000000;stroke-linecap:square;stroke-linejoin:miter;stroke-width:0.8;"/>
   </g>
   <g id="text_20">
    <!-- Macau roadside 2020-2021 | Forecast vs Monitored | LSTM -->
    <g transform="translate(223.246875 63.12)scale(0.15 -0.15)">
     <defs>
      <path d="M 9.8125 72.90625 
L 24.515625 72.90625 
L 43.109375 23.296875 
L 61.8125 72.90625 
L 76.515625 72.90625 
L 76.515625 0 
L 66.890625 0 
L 66.890625 64.015625 
L 48.09375 14.015625 
L 38.1875 14.015625 
L 19.390625 64.015625 
L 19.390625 0 
L 9.8125 0 
z
" id="DejaVuSans-77"/>
      <path d="M 48.78125 52.59375 
L 48.78125 44.1875 
Q 44.96875 46.296875 41.140625 47.34375 
Q 37.3125 48.390625 33.40625 48.390625 
Q 24.65625 48.390625 19.8125 42.84375 
Q 14.984375 37.3125 14.984375 27.296875 
Q 14.984375 17.28125 19.8125 11.734375 
Q 24.65625 6.203125 33.40625 6.203125 
Q 37.3125 6.203125 41.140625 7.25 
Q 44.96875 8.296875 48.78125 10.40625 
L 48.78125 2.09375 
Q 45.015625 0.34375 40.984375 -0.53125 
Q 36.96875 -1.421875 32.421875 -1.421875 
Q 20.0625 -1.421875 12.78125 6.34375 
Q 5.515625 14.109375 5.515625 27.296875 
Q 5.515625 40.671875 12.859375 48.328125 
Q 20.21875 56 33.015625 56 
Q 37.15625 56 41.109375 55.140625 
Q 45.0625 54.296875 48.78125 52.59375 
z
" id="DejaVuSans-99"/>
      <path d="M 8.5 21.578125 
L 8.5 54.6875 
L 17.484375 54.6875 
L 17.484375 21.921875 
Q 17.484375 14.15625 20.5 10.265625 
Q 23.53125 6.390625 29.59375 6.390625 
Q 36.859375 6.390625 41.078125 11.03125 
Q 45.3125 15.671875 45.3125 23.6875 
L 45.3125 54.6875 
L 54.296875 54.6875 
L 54.296875 0 
L 45.3125 0 
L 45.3125 8.40625 
Q 42.046875 3.421875 37.71875 1 
Q 33.40625 -1.421875 27.6875 -1.421875 
Q 18.265625 -1.421875 13.375 4.4375 
Q 8.5 10.296875 8.5 21.578125 
z
M 31.109375 56 
z
" id="DejaVuSans-117"/>
      <path id="DejaVuSans-32"/>
      <path d="M 41.109375 46.296875 
Q 39.59375 47.171875 37.8125 47.578125 
Q 36.03125 48 33.890625 48 
Q 26.265625 48 22.1875 43.046875 
Q 18.109375 38.09375 18.109375 28.8125 
L 18.109375 0 
L 9.078125 0 
L 9.078125 54.6875 
L 18.109375 54.6875 
L 18.109375 46.1875 
Q 20.953125 51.171875 25.484375 53.578125 
Q 30.03125 56 36.53125 56 
Q 37.453125 56 38.578125 55.875 
Q 39.703125 55.765625 41.0625 55.515625 
z
" id="DejaVuSans-114"/>
      <path d="M 30.609375 48.390625 
Q 23.390625 48.390625 19.1875 42.75 
Q 14.984375 37.109375 14.984375 27.296875 
Q 14.984375 17.484375 19.15625 11.84375 
Q 23.34375 6.203125 30.609375 6.203125 
Q 37.796875 6.203125 41.984375 11.859375 
Q 46.1875 17.53125 46.1875 27.296875 
Q 46.1875 37.015625 41.984375 42.703125 
Q 37.796875 48.390625 30.609375 48.390625 
z
M 30.609375 56 
Q 42.328125 56 49.015625 48.375 
Q 55.71875 40.765625 55.71875 27.296875 
Q 55.71875 13.875 49.015625 6.21875 
Q 42.328125 -1.421875 30.609375 -1.421875 
Q 18.84375 -1.421875 12.171875 6.21875 
Q 5.515625 13.875 5.515625 27.296875 
Q 5.515625 40.765625 12.171875 48.375 
Q 18.84375 56 30.609375 56 
z
" id="DejaVuSans-111"/>
      <path d="M 45.40625 46.390625 
L 45.40625 75.984375 
L 54.390625 75.984375 
L 54.390625 0 
L 45.40625 0 
L 45.40625 8.203125 
Q 42.578125 3.328125 38.25 0.953125 
Q 33.9375 -1.421875 27.875 -1.421875 
Q 17.96875 -1.421875 11.734375 6.484375 
Q 5.515625 14.40625 5.515625 27.296875 
Q 5.515625 40.1875 11.734375 48.09375 
Q 17.96875 56 27.875 56 
Q 33.9375 56 38.25 53.625 
Q 42.578125 51.265625 45.40625 46.390625 
z
M 14.796875 27.296875 
Q 14.796875 17.390625 18.875 11.75 
Q 22.953125 6.109375 30.078125 6.109375 
Q 37.203125 6.109375 41.296875 11.75 
Q 45.40625 17.390625 45.40625 27.296875 
Q 45.40625 37.203125 41.296875 42.84375 
Q 37.203125 48.484375 30.078125 48.484375 
Q 22.953125 48.484375 18.875 42.84375 
Q 14.796875 37.203125 14.796875 27.296875 
z
" id="DejaVuSans-100"/>
      <path d="M 44.28125 53.078125 
L 44.28125 44.578125 
Q 40.484375 46.53125 36.375 47.5 
Q 32.28125 48.484375 27.875 48.484375 
Q 21.1875 48.484375 17.84375 46.4375 
Q 14.5 44.390625 14.5 40.28125 
Q 14.5 37.15625 16.890625 35.375 
Q 19.28125 33.59375 26.515625 31.984375 
L 29.59375 31.296875 
Q 39.15625 29.25 43.1875 25.515625 
Q 47.21875 21.78125 47.21875 15.09375 
Q 47.21875 7.46875 41.1875 3.015625 
Q 35.15625 -1.421875 24.609375 -1.421875 
Q 20.21875 -1.421875 15.453125 -0.5625 
Q 10.6875 0.296875 5.421875 2 
L 5.421875 11.28125 
Q 10.40625 8.6875 15.234375 7.390625 
Q 20.0625 6.109375 24.8125 6.109375 
Q 31.15625 6.109375 34.5625 8.28125 
Q 37.984375 10.453125 37.984375 14.40625 
Q 37.984375 18.0625 35.515625 20.015625 
Q 33.0625 21.96875 24.703125 23.78125 
L 21.578125 24.515625 
Q 13.234375 26.265625 9.515625 29.90625 
Q 5.8125 33.546875 5.8125 39.890625 
Q 5.8125 47.609375 11.28125 51.796875 
Q 16.75 56 26.8125 56 
Q 31.78125 56 36.171875 55.265625 
Q 40.578125 54.546875 44.28125 53.078125 
z
" id="DejaVuSans-115"/>
      <path d="M 9.421875 54.6875 
L 18.40625 54.6875 
L 18.40625 0 
L 9.421875 0 
z
M 9.421875 75.984375 
L 18.40625 75.984375 
L 18.40625 64.59375 
L 9.421875 64.59375 
z
" id="DejaVuSans-105"/>
      <path d="M 21 76.421875 
L 21 -23.578125 
L 12.703125 -23.578125 
L 12.703125 76.421875 
z
" id="DejaVuSans-124"/>
      <path d="M 9.8125 72.90625 
L 51.703125 72.90625 
L 51.703125 64.59375 
L 19.671875 64.59375 
L 19.671875 43.109375 
L 48.578125 43.109375 
L 48.578125 34.8125 
L 19.671875 34.8125 
L 19.671875 0 
L 9.8125 0 
z
" id="DejaVuSans-70"/>
      <path d="M 2.984375 54.6875 
L 12.5 54.6875 
L 29.59375 8.796875 
L 46.6875 54.6875 
L 56.203125 54.6875 
L 35.6875 0 
L 23.484375 0 
z
" id="DejaVuSans-118"/>
      <path d="M 54.890625 33.015625 
L 54.890625 0 
L 45.90625 0 
L 45.90625 32.71875 
Q 45.90625 40.484375 42.875 44.328125 
Q 39.84375 48.1875 33.796875 48.1875 
Q 26.515625 48.1875 22.3125 43.546875 
Q 18.109375 38.921875 18.109375 30.90625 
L 18.109375 0 
L 9.078125 0 
L 9.078125 54.6875 
L 18.109375 54.6875 
L 18.109375 46.1875 
Q 21.34375 51.125 25.703125 53.5625 
Q 30.078125 56 35.796875 56 
Q 45.21875 56 50.046875 50.171875 
Q 54.890625 44.34375 54.890625 33.015625 
z
" id="DejaVuSans-110"/>
      <path d="M 9.8125 72.90625 
L 19.671875 72.90625 
L 19.671875 8.296875 
L 55.171875 8.296875 
L 55.171875 0 
L 9.8125 0 
z
" id="DejaVuSans-76"/>
      <path d="M 53.515625 70.515625 
L 53.515625 60.890625 
Q 47.90625 63.578125 42.921875 64.890625 
Q 37.9375 66.21875 33.296875 66.21875 
Q 25.25 66.21875 20.875 63.09375 
Q 16.5 59.96875 16.5 54.203125 
Q 16.5 49.359375 19.40625 46.890625 
Q 22.3125 44.4375 30.421875 42.921875 
L 36.375 41.703125 
Q 47.40625 39.59375 52.65625 34.296875 
Q 57.90625 29 57.90625 20.125 
Q 57.90625 9.515625 50.796875 4.046875 
Q 43.703125 -1.421875 29.984375 -1.421875 
Q 24.8125 -1.421875 18.96875 -0.25 
Q 13.140625 0.921875 6.890625 3.21875 
L 6.890625 13.375 
Q 12.890625 10.015625 18.65625 8.296875 
Q 24.421875 6.59375 29.984375 6.59375 
Q 38.421875 6.59375 43.015625 9.90625 
Q 47.609375 13.234375 47.609375 19.390625 
Q 47.609375 24.75 44.3125 27.78125 
Q 41.015625 30.8125 33.5 32.328125 
L 27.484375 33.5 
Q 16.453125 35.6875 11.515625 40.375 
Q 6.59375 45.0625 6.59375 53.421875 
Q 6.59375 63.09375 13.40625 68.65625 
Q 20.21875 74.21875 32.171875 74.21875 
Q 37.3125 74.21875 42.625 73.28125 
Q 47.953125 72.359375 53.515625 70.515625 
z
" id="DejaVuSans-83"/>
      <path d="M -0.296875 72.90625 
L 61.375 72.90625 
L 61.375 64.59375 
L 35.5 64.59375 
L 35.5 0 
L 25.59375 0 
L 25.59375 64.59375 
L -0.296875 64.59375 
z
" id="DejaVuSans-84"/>
     </defs>
     <use xlink:href="#DejaVuSans-77"/>
     <use x="86.279297" xlink:href="#DejaVuSans-97"/>
     <use x="147.558594" xlink:href="#DejaVuSans-99"/>
     <use x="202.539062" xlink:href="#DejaVuSans-97"/>
     <use x="263.818359" xlink:href="#DejaVuSans-117"/>
     <use x="327.197266" xlink:href="#DejaVuSans-32"/>
     <use x="358.984375" xlink:href="#DejaVuSans-114"/>
     <use x="397.847656" xlink:href="#DejaVuSans-111"/>
     <use x="459.029297" xlink:href="#DejaVuSans-97"/>
     <use x="520.308594" xlink:href="#DejaVuSans-100"/>
     <use x="583.785156" xlink:href="#DejaVuSans-115"/>
     <use x="635.884766" xlink:href="#DejaVuSans-105"/>
     <use x="663.667969" xlink:href="#DejaVuSans-100"/>
     <use x="727.144531" xlink:href="#DejaVuSans-101"/>
     <use x="788.667969" xlink:href="#DejaVuSans-32"/>
     <use x="820.455078" xlink:href="#DejaVuSans-50"/>
     <use x="884.078125" xlink:href="#DejaVuSans-48"/>
     <use x="947.701172" xlink:href="#DejaVuSans-50"/>
     <use x="1011.324219" xlink:href="#DejaVuSans-48"/>
     <use x="1074.947266" xlink:href="#DejaVuSans-45"/>
     <use x="1111.03125" xlink:href="#DejaVuSans-50"/>
     <use x="1174.654297" xlink:href="#DejaVuSans-48"/>
     <use x="1238.277344" xlink:href="#DejaVuSans-50"/>
     <use x="1301.900391" xlink:href="#DejaVuSans-49"/>
     <use x="1365.523438" xlink:href="#DejaVuSans-32"/>
     <use x="1397.310547" xlink:href="#DejaVuSans-124"/>
     <use x="1431.001953" xlink:href="#DejaVuSans-32"/>
     <use x="1462.789062" xlink:href="#DejaVuSans-70"/>
     <use x="1516.683594" xlink:href="#DejaVuSans-111"/>
     <use x="1577.865234" xlink:href="#DejaVuSans-114"/>
     <use x="1616.728516" xlink:href="#DejaVuSans-101"/>
     <use x="1678.251953" xlink:href="#DejaVuSans-99"/>
     <use x="1733.232422" xlink:href="#DejaVuSans-97"/>
     <use x="1794.511719" xlink:href="#DejaVuSans-115"/>
     <use x="1846.611328" xlink:href="#DejaVuSans-116"/>
     <use x="1885.820312" xlink:href="#DejaVuSans-32"/>
     <use x="1917.607422" xlink:href="#DejaVuSans-118"/>
     <use x="1976.787109" xlink:href="#DejaVuSans-115"/>
     <use x="2028.886719" xlink:href="#DejaVuSans-32"/>
     <use x="2060.673828" xlink:href="#DejaVuSans-77"/>
     <use x="2146.953125" xlink:href="#DejaVuSans-111"/>
     <use x="2208.134766" xlink:href="#DejaVuSans-110"/>
     <use x="2271.513672" xlink:href="#DejaVuSans-105"/>
     <use x="2299.296875" xlink:href="#DejaVuSans-116"/>
     <use x="2338.505859" xlink:href="#DejaVuSans-111"/>
     <use x="2399.6875" xlink:href="#DejaVuSans-114"/>
     <use x="2438.550781" xlink:href="#DejaVuSans-101"/>
     <use x="2500.074219" xlink:href="#DejaVuSans-100"/>
     <use x="2563.550781" xlink:href="#DejaVuSans-32"/>
     <use x="2595.337891" xlink:href="#DejaVuSans-124"/>
     <use x="2629.029297" xlink:href="#DejaVuSans-32"/>
     <use x="2660.816406" xlink:href="#DejaVuSans-76"/>
     <use x="2716.529297" xlink:href="#DejaVuSans-83"/>
     <use x="2780.005859" xlink:href="#DejaVuSans-84"/>
     <use x="2841.089844" xlink:href="#DejaVuSans-77"/>
    </g>
   </g>
   <g id="legend_1">
    <g id="patch_7">
     <path d="M 613.996875 114.615 
L 769.2 114.615 
Q 771.6 114.615 771.6 112.215 
L 771.6 77.52 
Q 771.6 75.12 769.2 75.12 
L 613.996875 75.12 
Q 611.596875 75.12 611.596875 77.52 
L 611.596875 112.215 
Q 611.596875 114.615 613.996875 114.615 
z
" style="fill:#ffffff;opacity:0.8;stroke:#cccccc;stroke-linejoin:miter;"/>
    </g>
    <g id="line2d_20">
     <path d="M 616.396875 84.838125 
L 640.396875 84.838125 
" style="fill:none;stroke:#1f77b4;stroke-linecap:square;stroke-width:1.5;"/>
    </g>
    <g id="line2d_21"/>
    <g id="text_21">
     <!-- measured_data_CO -->
     <g transform="translate(649.996875 89.038125)scale(0.12 -0.12)">
      <defs>
       <path d="M 50.984375 -16.609375 
L 50.984375 -23.578125 
L -0.984375 -23.578125 
L -0.984375 -16.609375 
z
" id="DejaVuSans-95"/>
      </defs>
      <use xlink:href="#DejaVuSans-109"/>
      <use x="97.412109" xlink:href="#DejaVuSans-101"/>
      <use x="158.935547" xlink:href="#DejaVuSans-97"/>
      <use x="220.214844" xlink:href="#DejaVuSans-115"/>
      <use x="272.314453" xlink:href="#DejaVuSans-117"/>
      <use x="335.693359" xlink:href="#DejaVuSans-114"/>
      <use x="374.556641" xlink:href="#DejaVuSans-101"/>
      <use x="436.080078" xlink:href="#DejaVuSans-100"/>
      <use x="499.556641" xlink:href="#DejaVuSans-95"/>
      <use x="549.556641" xlink:href="#DejaVuSans-100"/>
      <use x="613.033203" xlink:href="#DejaVuSans-97"/>
      <use x="674.3125" xlink:href="#DejaVuSans-116"/>
      <use x="713.521484" xlink:href="#DejaVuSans-97"/>
      <use x="774.800781" xlink:href="#DejaVuSans-95"/>
      <use x="824.800781" xlink:href="#DejaVuSans-67"/>
      <use x="894.625" xlink:href="#DejaVuSans-79"/>
     </g>
    </g>
    <g id="line2d_22">
     <path d="M 616.396875 102.785625 
L 640.396875 102.785625 
" style="fill:none;stroke:#ff0000;stroke-dasharray:5.55,2.4;stroke-dashoffset:0;stroke-width:1.5;"/>
    </g>
    <g id="line2d_23"/>
    <g id="text_22">
     <!-- predicted_data_CO -->
     <g transform="translate(649.996875 106.985625)scale(0.12 -0.12)">
      <use xlink:href="#DejaVuSans-112"/>
      <use x="63.476562" xlink:href="#DejaVuSans-114"/>
      <use x="102.339844" xlink:href="#DejaVuSans-101"/>
      <use x="163.863281" xlink:href="#DejaVuSans-100"/>
      <use x="227.339844" xlink:href="#DejaVuSans-105"/>
      <use x="255.123047" xlink:href="#DejaVuSans-99"/>
      <use x="310.103516" xlink:href="#DejaVuSans-116"/>
      <use x="349.3125" xlink:href="#DejaVuSans-101"/>
      <use x="410.835938" xlink:href="#DejaVuSans-100"/>
      <use x="474.3125" xlink:href="#DejaVuSans-95"/>
      <use x="524.3125" xlink:href="#DejaVuSans-100"/>
      <use x="587.789062" xlink:href="#DejaVuSans-97"/>
      <use x="649.068359" xlink:href="#DejaVuSans-116"/>
      <use x="688.277344" xlink:href="#DejaVuSans-97"/>
      <use x="749.556641" xlink:href="#DejaVuSans-95"/>
      <use x="799.556641" xlink:href="#DejaVuSans-67"/>
      <use x="869.380859" xlink:href="#DejaVuSans-79"/>
     </g>
    </g>
   </g>
  </g>
 </g>
 <defs>
  <clipPath id="p151e37a17b">
   <rect height="391.68" width="669.6" x="108" y="69.12"/>
  </clipPath>
 </defs>
</svg>
