<?xml version="1.0" encoding="utf-8" standalone="no"?>
<!DOCTYPE svg PUBLIC "-//W3C//DTD SVG 1.1//EN"
  "http://www.w3.org/Graphics/SVG/1.1/DTD/svg11.dtd">
<!-- Created with matplotlib (https://matplotlib.org/) -->
<svg height="576pt" version="1.1" viewBox="0 0 864 576" width="864pt" xmlns="http://www.w3.org/2000/svg" xmlns:xlink="http://www.w3.org/1999/xlink">
 <metadata>
  <rdf:RDF xmlns:cc="http://creativecommons.org/ns#" xmlns:dc="http://purl.org/dc/elements/1.1/" xmlns:rdf="http://www.w3.org/1999/02/22-rdf-syntax-ns#">
   <cc:Work>
    <dc:type rdf:resource="http://purl.org/dc/dcmitype/StillImage"/>
    <dc:date>2024-03-08T15:24:20.169576</dc:date>
    <dc:format>image/svg+xml</dc:format>
    <dc:creator>
     <cc:Agent>
      <dc:title>Matplotlib v3.3.4, https://matplotlib.org/</dc:title>
     </cc:Agent>
    </dc:creator>
   </cc:Work>
  </rdf:RDF>
 </metadata>
 <defs>
  <style type="text/css">*{stroke-linecap:butt;stroke-linejoin:round;}</style>
 </defs>
 <g id="figure_1">
  <g id="patch_1">
   <path d="M 0 576 
L 864 576 
L 864 0 
L 0 0 
z
" style="fill:#ffffff;"/>
  </g>
  <g id="axes_1">
   <g id="patch_2">
    <path d="M 108 460.8 
L 777.6 460.8 
L 777.6 69.12 
L 108 69.12 
z
" style="fill:#ffffff;"/>
   </g>
   <g id="matplotlib.axis_1">
    <g id="xtick_1">
     <g id="line2d_1">
      <defs>
       <path d="M 0 0 
L 0 3.5 
" id="m18b2c9232e" style="stroke:#000000;stroke-width:0.8;"/>
      </defs>
      <g>
       <use style="stroke:#000000;stroke-width:0.8;" x="138.436364" xlink:href="#m18b2c9232e" y="460.8"/>
      </g>
     </g>
     <g id="text_1">
      <!-- 2020-01 -->
      <g transform="translate(93.766579 500.766215)rotate(-30)scale(0.12 -0.12)">
       <defs>
        <path d="M 19.1875 8.296875 
L 53.609375 8.296875 
L 53.609375 0 
L 7.328125 0 
L 7.328125 8.296875 
Q 12.9375 14.109375 22.625 23.890625 
Q 32.328125 33.6875 34.8125 36.53125 
Q 39.546875 41.84375 41.421875 45.53125 
Q 43.3125 49.21875 43.3125 52.78125 
Q 43.3125 58.59375 39.234375 62.25 
Q 35.15625 65.921875 28.609375 65.921875 
Q 23.96875 65.921875 18.8125 64.3125 
Q 13.671875 62.703125 7.8125 59.421875 
L 7.8125 69.390625 
Q 13.765625 71.78125 18.9375 73 
Q 24.125 74.21875 28.421875 74.21875 
Q 39.75 74.21875 46.484375 68.546875 
Q 53.21875 62.890625 53.21875 53.421875 
Q 53.21875 48.921875 51.53125 44.890625 
Q 49.859375 40.875 45.40625 35.40625 
Q 44.1875 33.984375 37.640625 27.21875 
Q 31.109375 20.453125 19.1875 8.296875 
z
" id="DejaVuSans-50"/>
        <path d="M 31.78125 66.40625 
Q 24.171875 66.40625 20.328125 58.90625 
Q 16.5 51.421875 16.5 36.375 
Q 16.5 21.390625 20.328125 13.890625 
Q 24.171875 6.390625 31.78125 6.390625 
Q 39.453125 6.390625 43.28125 13.890625 
Q 47.125 21.390625 47.125 36.375 
Q 47.125 51.421875 43.28125 58.90625 
Q 39.453125 66.40625 31.78125 66.40625 
z
M 31.78125 74.21875 
Q 44.046875 74.21875 50.515625 64.515625 
Q 56.984375 54.828125 56.984375 36.375 
Q 56.984375 17.96875 50.515625 8.265625 
Q 44.046875 -1.421875 31.78125 -1.421875 
Q 19.53125 -1.421875 13.0625 8.265625 
Q 6.59375 17.96875 6.59375 36.375 
Q 6.59375 54.828125 13.0625 64.515625 
Q 19.53125 74.21875 31.78125 74.21875 
z
" id="DejaVuSans-48"/>
        <path d="M 4.890625 31.390625 
L 31.203125 31.390625 
L 31.203125 23.390625 
L 4.890625 23.390625 
z
" id="DejaVuSans-45"/>
        <path d="M 12.40625 8.296875 
L 28.515625 8.296875 
L 28.515625 63.921875 
L 10.984375 60.40625 
L 10.984375 69.390625 
L 28.421875 72.90625 
L 38.28125 72.90625 
L 38.28125 8.296875 
L 54.390625 8.296875 
L 54.390625 0 
L 12.40625 0 
z
" id="DejaVuSans-49"/>
       </defs>
       <use xlink:href="#DejaVuSans-50"/>
       <use x="63.623047" xlink:href="#DejaVuSans-48"/>
       <use x="127.246094" xlink:href="#DejaVuSans-50"/>
       <use x="190.869141" xlink:href="#DejaVuSans-48"/>
       <use x="254.492188" xlink:href="#DejaVuSans-45"/>
       <use x="290.576172" xlink:href="#DejaVuSans-48"/>
       <use x="354.199219" xlink:href="#DejaVuSans-49"/>
      </g>
     </g>
    </g>
    <g id="xtick_2">
     <g id="line2d_2">
      <g>
       <use style="stroke:#000000;stroke-width:0.8;" x="214.318804" xlink:href="#m18b2c9232e" y="460.8"/>
      </g>
     </g>
     <g id="text_2">
      <!-- 2020-04 -->
      <g transform="translate(169.64902 500.766215)rotate(-30)scale(0.12 -0.12)">
       <defs>
        <path d="M 37.796875 64.3125 
L 12.890625 25.390625 
L 37.796875 25.390625 
z
M 35.203125 72.90625 
L 47.609375 72.90625 
L 47.609375 25.390625 
L 58.015625 25.390625 
L 58.015625 17.1875 
L 47.609375 17.1875 
L 47.609375 0 
L 37.796875 0 
L 37.796875 17.1875 
L 4.890625 17.1875 
L 4.890625 26.703125 
z
" id="DejaVuSans-52"/>
       </defs>
       <use xlink:href="#DejaVuSans-50"/>
       <use x="63.623047" xlink:href="#DejaVuSans-48"/>
       <use x="127.246094" xlink:href="#DejaVuSans-50"/>
       <use x="190.869141" xlink:href="#DejaVuSans-48"/>
       <use x="254.492188" xlink:href="#DejaVuSans-45"/>
       <use x="290.576172" xlink:href="#DejaVuSans-48"/>
       <use x="354.199219" xlink:href="#DejaVuSans-52"/>
      </g>
     </g>
    </g>
    <g id="xtick_3">
     <g id="line2d_3">
      <g>
       <use style="stroke:#000000;stroke-width:0.8;" x="290.201245" xlink:href="#m18b2c9232e" y="460.8"/>
      </g>
     </g>
     <g id="text_3">
      <!-- 2020-07 -->
      <g transform="translate(245.53146 500.766215)rotate(-30)scale(0.12 -0.12)">
       <defs>
        <path d="M 8.203125 72.90625 
L 55.078125 72.90625 
L 55.078125 68.703125 
L 28.609375 0 
L 18.3125 0 
L 43.21875 64.59375 
L 8.203125 64.59375 
z
" id="DejaVuSans-55"/>
       </defs>
       <use xlink:href="#DejaVuSans-50"/>
       <use x="63.623047" xlink:href="#DejaVuSans-48"/>
       <use x="127.246094" xlink:href="#DejaVuSans-50"/>
       <use x="190.869141" xlink:href="#DejaVuSans-48"/>
       <use x="254.492188" xlink:href="#DejaVuSans-45"/>
       <use x="290.576172" xlink:href="#DejaVuSans-48"/>
       <use x="354.199219" xlink:href="#DejaVuSans-55"/>
      </g>
     </g>
    </g>
    <g id="xtick_4">
     <g id="line2d_4">
      <g>
       <use style="stroke:#000000;stroke-width:0.8;" x="366.917559" xlink:href="#m18b2c9232e" y="460.8"/>
      </g>
     </g>
     <g id="text_4">
      <!-- 2020-10 -->
      <g transform="translate(322.247774 500.766215)rotate(-30)scale(0.12 -0.12)">
       <use xlink:href="#DejaVuSans-50"/>
       <use x="63.623047" xlink:href="#DejaVuSans-48"/>
       <use x="127.246094" xlink:href="#DejaVuSans-50"/>
       <use x="190.869141" xlink:href="#DejaVuSans-48"/>
       <use x="254.492188" xlink:href="#DejaVuSans-45"/>
       <use x="290.576172" xlink:href="#DejaVuSans-49"/>
       <use x="354.199219" xlink:href="#DejaVuSans-48"/>
      </g>
     </g>
    </g>
    <g id="xtick_5">
     <g id="line2d_5">
      <g>
       <use style="stroke:#000000;stroke-width:0.8;" x="443.633873" xlink:href="#m18b2c9232e" y="460.8"/>
      </g>
     </g>
     <g id="text_5">
      <!-- 2021-01 -->
      <g transform="translate(398.964088 500.766215)rotate(-30)scale(0.12 -0.12)">
       <use xlink:href="#DejaVuSans-50"/>
       <use x="63.623047" xlink:href="#DejaVuSans-48"/>
       <use x="127.246094" xlink:href="#DejaVuSans-50"/>
       <use x="190.869141" xlink:href="#DejaVuSans-49"/>
       <use x="254.492188" xlink:href="#DejaVuSans-45"/>
       <use x="290.576172" xlink:href="#DejaVuSans-48"/>
       <use x="354.199219" xlink:href="#DejaVuSans-49"/>
      </g>
     </g>
    </g>
    <g id="xtick_6">
     <g id="line2d_6">
      <g>
       <use style="stroke:#000000;stroke-width:0.8;" x="518.682441" xlink:href="#m18b2c9232e" y="460.8"/>
      </g>
     </g>
     <g id="text_6">
      <!-- 2021-04 -->
      <g transform="translate(474.012656 500.766215)rotate(-30)scale(0.12 -0.12)">
       <use xlink:href="#DejaVuSans-50"/>
       <use x="63.623047" xlink:href="#DejaVuSans-48"/>
       <use x="127.246094" xlink:href="#DejaVuSans-50"/>
       <use x="190.869141" xlink:href="#DejaVuSans-49"/>
       <use x="254.492188" xlink:href="#DejaVuSans-45"/>
       <use x="290.576172" xlink:href="#DejaVuSans-48"/>
       <use x="354.199219" xlink:href="#DejaVuSans-52"/>
      </g>
     </g>
    </g>
    <g id="xtick_7">
     <g id="line2d_7">
      <g>
       <use style="stroke:#000000;stroke-width:0.8;" x="594.564882" xlink:href="#m18b2c9232e" y="460.8"/>
      </g>
     </g>
     <g id="text_7">
      <!-- 2021-07 -->
      <g transform="translate(549.895097 500.766215)rotate(-30)scale(0.12 -0.12)">
       <use xlink:href="#DejaVuSans-50"/>
       <use x="63.623047" xlink:href="#DejaVuSans-48"/>
       <use x="127.246094" xlink:href="#DejaVuSans-50"/>
       <use x="190.869141" xlink:href="#DejaVuSans-49"/>
       <use x="254.492188" xlink:href="#DejaVuSans-45"/>
       <use x="290.576172" xlink:href="#DejaVuSans-48"/>
       <use x="354.199219" xlink:href="#DejaVuSans-55"/>
      </g>
     </g>
    </g>
    <g id="xtick_8">
     <g id="line2d_8">
      <g>
       <use style="stroke:#000000;stroke-width:0.8;" x="671.281196" xlink:href="#m18b2c9232e" y="460.8"/>
      </g>
     </g>
     <g id="text_8">
      <!-- 2021-10 -->
      <g transform="translate(626.611411 500.766215)rotate(-30)scale(0.12 -0.12)">
       <use xlink:href="#DejaVuSans-50"/>
       <use x="63.623047" xlink:href="#DejaVuSans-48"/>
       <use x="127.246094" xlink:href="#DejaVuSans-50"/>
       <use x="190.869141" xlink:href="#DejaVuSans-49"/>
       <use x="254.492188" xlink:href="#DejaVuSans-45"/>
       <use x="290.576172" xlink:href="#DejaVuSans-49"/>
       <use x="354.199219" xlink:href="#DejaVuSans-48"/>
      </g>
     </g>
    </g>
    <g id="xtick_9">
     <g id="line2d_9">
      <g>
       <use style="stroke:#000000;stroke-width:0.8;" x="747.997509" xlink:href="#m18b2c9232e" y="460.8"/>
      </g>
     </g>
     <g id="text_9">
      <!-- 2022-01 -->
      <g transform="translate(703.327724 500.766215)rotate(-30)scale(0.12 -0.12)">
       <use xlink:href="#DejaVuSans-50"/>
       <use x="63.623047" xlink:href="#DejaVuSans-48"/>
       <use x="127.246094" xlink:href="#DejaVuSans-50"/>
       <use x="190.869141" xlink:href="#DejaVuSans-50"/>
       <use x="254.492188" xlink:href="#DejaVuSans-45"/>
       <use x="290.576172" xlink:href="#DejaVuSans-48"/>
       <use x="354.199219" xlink:href="#DejaVuSans-49"/>
      </g>
     </g>
    </g>
    <g id="text_10">
     <!-- Date -->
     <g transform="translate(424.873828 518.325146)scale(0.15 -0.15)">
      <defs>
       <path d="M 19.671875 64.796875 
L 19.671875 8.109375 
L 31.59375 8.109375 
Q 46.6875 8.109375 53.6875 14.9375 
Q 60.6875 21.78125 60.6875 36.53125 
Q 60.6875 51.171875 53.6875 57.984375 
Q 46.6875 64.796875 31.59375 64.796875 
z
M 9.8125 72.90625 
L 30.078125 72.90625 
Q 51.265625 72.90625 61.171875 64.09375 
Q 71.09375 55.28125 71.09375 36.53125 
Q 71.09375 17.671875 61.125 8.828125 
Q 51.171875 0 30.078125 0 
L 9.8125 0 
z
" id="DejaVuSans-68"/>
       <path d="M 34.28125 27.484375 
Q 23.390625 27.484375 19.1875 25 
Q 14.984375 22.515625 14.984375 16.5 
Q 14.984375 11.71875 18.140625 8.90625 
Q 21.296875 6.109375 26.703125 6.109375 
Q 34.1875 6.109375 38.703125 11.40625 
Q 43.21875 16.703125 43.21875 25.484375 
L 43.21875 27.484375 
z
M 52.203125 31.203125 
L 52.203125 0 
L 43.21875 0 
L 43.21875 8.296875 
Q 40.140625 3.328125 35.546875 0.953125 
Q 30.953125 -1.421875 24.3125 -1.421875 
Q 15.921875 -1.421875 10.953125 3.296875 
Q 6 8.015625 6 15.921875 
Q 6 25.140625 12.171875 29.828125 
Q 18.359375 34.515625 30.609375 34.515625 
L 43.21875 34.515625 
L 43.21875 35.40625 
Q 43.21875 41.609375 39.140625 45 
Q 35.0625 48.390625 27.6875 48.390625 
Q 23 48.390625 18.546875 47.265625 
Q 14.109375 46.140625 10.015625 43.890625 
L 10.015625 52.203125 
Q 14.9375 54.109375 19.578125 55.046875 
Q 24.21875 56 28.609375 56 
Q 40.484375 56 46.34375 49.84375 
Q 52.203125 43.703125 52.203125 31.203125 
z
" id="DejaVuSans-97"/>
       <path d="M 18.3125 70.21875 
L 18.3125 54.6875 
L 36.8125 54.6875 
L 36.8125 47.703125 
L 18.3125 47.703125 
L 18.3125 18.015625 
Q 18.3125 11.328125 20.140625 9.421875 
Q 21.96875 7.515625 27.59375 7.515625 
L 36.8125 7.515625 
L 36.8125 0 
L 27.59375 0 
Q 17.1875 0 13.234375 3.875 
Q 9.28125 7.765625 9.28125 18.015625 
L 9.28125 47.703125 
L 2.6875 47.703125 
L 2.6875 54.6875 
L 9.28125 54.6875 
L 9.28125 70.21875 
z
" id="DejaVuSans-116"/>
       <path d="M 56.203125 29.59375 
L 56.203125 25.203125 
L 14.890625 25.203125 
Q 15.484375 15.921875 20.484375 11.0625 
Q 25.484375 6.203125 34.421875 6.203125 
Q 39.59375 6.203125 44.453125 7.46875 
Q 49.3125 8.734375 54.109375 11.28125 
L 54.109375 2.78125 
Q 49.265625 0.734375 44.1875 -0.34375 
Q 39.109375 -1.421875 33.890625 -1.421875 
Q 20.796875 -1.421875 13.15625 6.1875 
Q 5.515625 13.8125 5.515625 26.8125 
Q 5.515625 40.234375 12.765625 48.109375 
Q 20.015625 56 32.328125 56 
Q 43.359375 56 49.78125 48.890625 
Q 56.203125 41.796875 56.203125 29.59375 
z
M 47.21875 32.234375 
Q 47.125 39.59375 43.09375 43.984375 
Q 39.0625 48.390625 32.421875 48.390625 
Q 24.90625 48.390625 20.390625 44.140625 
Q 15.875 39.890625 15.1875 32.171875 
z
" id="DejaVuSans-101"/>
      </defs>
      <use xlink:href="#DejaVuSans-68"/>
      <use x="77.001953" xlink:href="#DejaVuSans-97"/>
      <use x="138.28125" xlink:href="#DejaVuSans-116"/>
      <use x="177.490234" xlink:href="#DejaVuSans-101"/>
     </g>
    </g>
   </g>
   <g id="matplotlib.axis_2">
    <g id="ytick_1">
     <g id="line2d_10">
      <defs>
       <path d="M 0 0 
L -3.5 0 
" id="m7d25eee741" style="stroke:#000000;stroke-width:0.8;"/>
      </defs>
      <g>
       <use style="stroke:#000000;stroke-width:0.8;" x="108" xlink:href="#m7d25eee741" y="447.82993"/>
      </g>
     </g>
     <g id="text_11">
      <!-- 0.0 -->
      <g transform="translate(81.91625 452.388993)scale(0.12 -0.12)">
       <defs>
        <path d="M 10.6875 12.40625 
L 21 12.40625 
L 21 0 
L 10.6875 0 
z
" id="DejaVuSans-46"/>
       </defs>
       <use xlink:href="#DejaVuSans-48"/>
       <use x="63.623047" xlink:href="#DejaVuSans-46"/>
       <use x="95.410156" xlink:href="#DejaVuSans-48"/>
      </g>
     </g>
    </g>
    <g id="ytick_2">
     <g id="line2d_11">
      <g>
       <use style="stroke:#000000;stroke-width:0.8;" x="108" xlink:href="#m7d25eee741" y="400.203254"/>
      </g>
     </g>
     <g id="text_12">
      <!-- 0.2 -->
      <g transform="translate(81.91625 404.762316)scale(0.12 -0.12)">
       <use xlink:href="#DejaVuSans-48"/>
       <use x="63.623047" xlink:href="#DejaVuSans-46"/>
       <use x="95.410156" xlink:href="#DejaVuSans-50"/>
      </g>
     </g>
    </g>
    <g id="ytick_3">
     <g id="line2d_12">
      <g>
       <use style="stroke:#000000;stroke-width:0.8;" x="108" xlink:href="#m7d25eee741" y="352.576577"/>
      </g>
     </g>
     <g id="text_13">
      <!-- 0.4 -->
      <g transform="translate(81.91625 357.13564)scale(0.12 -0.12)">
       <use xlink:href="#DejaVuSans-48"/>
       <use x="63.623047" xlink:href="#DejaVuSans-46"/>
       <use x="95.410156" xlink:href="#DejaVuSans-52"/>
      </g>
     </g>
    </g>
    <g id="ytick_4">
     <g id="line2d_13">
      <g>
       <use style="stroke:#000000;stroke-width:0.8;" x="108" xlink:href="#m7d25eee741" y="304.949901"/>
      </g>
     </g>
     <g id="text_14">
      <!-- 0.6 -->
      <g transform="translate(81.91625 309.508964)scale(0.12 -0.12)">
       <defs>
        <path d="M 33.015625 40.375 
Q 26.375 40.375 22.484375 35.828125 
Q 18.609375 31.296875 18.609375 23.390625 
Q 18.609375 15.53125 22.484375 10.953125 
Q 26.375 6.390625 33.015625 6.390625 
Q 39.65625 6.390625 43.53125 10.953125 
Q 47.40625 15.53125 47.40625 23.390625 
Q 47.40625 31.296875 43.53125 35.828125 
Q 39.65625 40.375 33.015625 40.375 
z
M 52.59375 71.296875 
L 52.59375 62.3125 
Q 48.875 64.0625 45.09375 64.984375 
Q 41.3125 65.921875 37.59375 65.921875 
Q 27.828125 65.921875 22.671875 59.328125 
Q 17.53125 52.734375 16.796875 39.40625 
Q 19.671875 43.65625 24.015625 45.921875 
Q 28.375 48.1875 33.59375 48.1875 
Q 44.578125 48.1875 50.953125 41.515625 
Q 57.328125 34.859375 57.328125 23.390625 
Q 57.328125 12.15625 50.6875 5.359375 
Q 44.046875 -1.421875 33.015625 -1.421875 
Q 20.359375 -1.421875 13.671875 8.265625 
Q 6.984375 17.96875 6.984375 36.375 
Q 6.984375 53.65625 15.1875 63.9375 
Q 23.390625 74.21875 37.203125 74.21875 
Q 40.921875 74.21875 44.703125 73.484375 
Q 48.484375 72.75 52.59375 71.296875 
z
" id="DejaVuSans-54"/>
       </defs>
       <use xlink:href="#DejaVuSans-48"/>
       <use x="63.623047" xlink:href="#DejaVuSans-46"/>
       <use x="95.410156" xlink:href="#DejaVuSans-54"/>
      </g>
     </g>
    </g>
    <g id="ytick_5">
     <g id="line2d_14">
      <g>
       <use style="stroke:#000000;stroke-width:0.8;" x="108" xlink:href="#m7d25eee741" y="257.323225"/>
      </g>
     </g>
     <g id="text_15">
      <!-- 0.8 -->
      <g transform="translate(81.91625 261.882287)scale(0.12 -0.12)">
       <defs>
        <path d="M 31.78125 34.625 
Q 24.75 34.625 20.71875 30.859375 
Q 16.703125 27.09375 16.703125 20.515625 
Q 16.703125 13.921875 20.71875 10.15625 
Q 24.75 6.390625 31.78125 6.390625 
Q 38.8125 6.390625 42.859375 10.171875 
Q 46.921875 13.96875 46.921875 20.515625 
Q 46.921875 27.09375 42.890625 30.859375 
Q 38.875 34.625 31.78125 34.625 
z
M 21.921875 38.8125 
Q 15.578125 40.375 12.03125 44.71875 
Q 8.5 49.078125 8.5 55.328125 
Q 8.5 64.0625 14.71875 69.140625 
Q 20.953125 74.21875 31.78125 74.21875 
Q 42.671875 74.21875 48.875 69.140625 
Q 55.078125 64.0625 55.078125 55.328125 
Q 55.078125 49.078125 51.53125 44.71875 
Q 48 40.375 41.703125 38.8125 
Q 48.828125 37.15625 52.796875 32.3125 
Q 56.78125 27.484375 56.78125 20.515625 
Q 56.78125 9.90625 50.3125 4.234375 
Q 43.84375 -1.421875 31.78125 -1.421875 
Q 19.734375 -1.421875 13.25 4.234375 
Q 6.78125 9.90625 6.78125 20.515625 
Q 6.78125 27.484375 10.78125 32.3125 
Q 14.796875 37.15625 21.921875 38.8125 
z
M 18.3125 54.390625 
Q 18.3125 48.734375 21.84375 45.5625 
Q 25.390625 42.390625 31.78125 42.390625 
Q 38.140625 42.390625 41.71875 45.5625 
Q 45.3125 48.734375 45.3125 54.390625 
Q 45.3125 60.0625 41.71875 63.234375 
Q 38.140625 66.40625 31.78125 66.40625 
Q 25.390625 66.40625 21.84375 63.234375 
Q 18.3125 60.0625 18.3125 54.390625 
z
" id="DejaVuSans-56"/>
       </defs>
       <use xlink:href="#DejaVuSans-48"/>
       <use x="63.623047" xlink:href="#DejaVuSans-46"/>
       <use x="95.410156" xlink:href="#DejaVuSans-56"/>
      </g>
     </g>
    </g>
    <g id="ytick_6">
     <g id="line2d_15">
      <g>
       <use style="stroke:#000000;stroke-width:0.8;" x="108" xlink:href="#m7d25eee741" y="209.696549"/>
      </g>
     </g>
     <g id="text_16">
      <!-- 1.0 -->
      <g transform="translate(81.91625 214.255611)scale(0.12 -0.12)">
       <use xlink:href="#DejaVuSans-49"/>
       <use x="63.623047" xlink:href="#DejaVuSans-46"/>
       <use x="95.410156" xlink:href="#DejaVuSans-48"/>
      </g>
     </g>
    </g>
    <g id="ytick_7">
     <g id="line2d_16">
      <g>
       <use style="stroke:#000000;stroke-width:0.8;" x="108" xlink:href="#m7d25eee741" y="162.069872"/>
      </g>
     </g>
     <g id="text_17">
      <!-- 1.2 -->
      <g transform="translate(81.91625 166.628935)scale(0.12 -0.12)">
       <use xlink:href="#DejaVuSans-49"/>
       <use x="63.623047" xlink:href="#DejaVuSans-46"/>
       <use x="95.410156" xlink:href="#DejaVuSans-50"/>
      </g>
     </g>
    </g>
    <g id="ytick_8">
     <g id="line2d_17">
      <g>
       <use style="stroke:#000000;stroke-width:0.8;" x="108" xlink:href="#m7d25eee741" y="114.443196"/>
      </g>
     </g>
     <g id="text_18">
      <!-- 1.4 -->
      <g transform="translate(81.91625 119.002258)scale(0.12 -0.12)">
       <use xlink:href="#DejaVuSans-49"/>
       <use x="63.623047" xlink:href="#DejaVuSans-46"/>
       <use x="95.410156" xlink:href="#DejaVuSans-52"/>
      </g>
     </g>
    </g>
    <g id="text_19">
     <!-- CO(ppm) -->
     <g transform="translate(74.796719 298.781484)rotate(-90)scale(0.15 -0.15)">
      <defs>
       <path d="M 64.40625 67.28125 
L 64.40625 56.890625 
Q 59.421875 61.53125 53.78125 63.8125 
Q 48.140625 66.109375 41.796875 66.109375 
Q 29.296875 66.109375 22.65625 58.46875 
Q 16.015625 50.828125 16.015625 36.375 
Q 16.015625 21.96875 22.65625 14.328125 
Q 29.296875 6.6875 41.796875 6.6875 
Q 48.140625 6.6875 53.78125 8.984375 
Q 59.421875 11.28125 64.40625 15.921875 
L 64.40625 5.609375 
Q 59.234375 2.09375 53.4375 0.328125 
Q 47.65625 -1.421875 41.21875 -1.421875 
Q 24.65625 -1.421875 15.125 8.703125 
Q 5.609375 18.84375 5.609375 36.375 
Q 5.609375 53.953125 15.125 64.078125 
Q 24.65625 74.21875 41.21875 74.21875 
Q 47.75 74.21875 53.53125 72.484375 
Q 59.328125 70.75 64.40625 67.28125 
z
" id="DejaVuSans-67"/>
       <path d="M 39.40625 66.21875 
Q 28.65625 66.21875 22.328125 58.203125 
Q 16.015625 50.203125 16.015625 36.375 
Q 16.015625 22.609375 22.328125 14.59375 
Q 28.65625 6.59375 39.40625 6.59375 
Q 50.140625 6.59375 56.421875 14.59375 
Q 62.703125 22.609375 62.703125 36.375 
Q 62.703125 50.203125 56.421875 58.203125 
Q 50.140625 66.21875 39.40625 66.21875 
z
M 39.40625 74.21875 
Q 54.734375 74.21875 63.90625 63.9375 
Q 73.09375 53.65625 73.09375 36.375 
Q 73.09375 19.140625 63.90625 8.859375 
Q 54.734375 -1.421875 39.40625 -1.421875 
Q 24.03125 -1.421875 14.8125 8.828125 
Q 5.609375 19.09375 5.609375 36.375 
Q 5.609375 53.65625 14.8125 63.9375 
Q 24.03125 74.21875 39.40625 74.21875 
z
" id="DejaVuSans-79"/>
       <path d="M 31 75.875 
Q 24.46875 64.65625 21.28125 53.65625 
Q 18.109375 42.671875 18.109375 31.390625 
Q 18.109375 20.125 21.3125 9.0625 
Q 24.515625 -2 31 -13.1875 
L 23.1875 -13.1875 
Q 15.875 -1.703125 12.234375 9.375 
Q 8.59375 20.453125 8.59375 31.390625 
Q 8.59375 42.28125 12.203125 53.3125 
Q 15.828125 64.359375 23.1875 75.875 
z
" id="DejaVuSans-40"/>
       <path d="M 18.109375 8.203125 
L 18.109375 -20.796875 
L 9.078125 -20.796875 
L 9.078125 54.6875 
L 18.109375 54.6875 
L 18.109375 46.390625 
Q 20.953125 51.265625 25.265625 53.625 
Q 29.59375 56 35.59375 56 
Q 45.5625 56 51.78125 48.09375 
Q 58.015625 40.1875 58.015625 27.296875 
Q 58.015625 14.40625 51.78125 6.484375 
Q 45.5625 -1.421875 35.59375 -1.421875 
Q 29.59375 -1.421875 25.265625 0.953125 
Q 20.953125 3.328125 18.109375 8.203125 
z
M 48.6875 27.296875 
Q 48.6875 37.203125 44.609375 42.84375 
Q 40.53125 48.484375 33.40625 48.484375 
Q 26.265625 48.484375 22.1875 42.84375 
Q 18.109375 37.203125 18.109375 27.296875 
Q 18.109375 17.390625 22.1875 11.75 
Q 26.265625 6.109375 33.40625 6.109375 
Q 40.53125 6.109375 44.609375 11.75 
Q 48.6875 17.390625 48.6875 27.296875 
z
" id="DejaVuSans-112"/>
       <path d="M 52 44.1875 
Q 55.375 50.25 60.0625 53.125 
Q 64.75 56 71.09375 56 
Q 79.640625 56 84.28125 50.015625 
Q 88.921875 44.046875 88.921875 33.015625 
L 88.921875 0 
L 79.890625 0 
L 79.890625 32.71875 
Q 79.890625 40.578125 77.09375 44.375 
Q 74.3125 48.1875 68.609375 48.1875 
Q 61.625 48.1875 57.5625 43.546875 
Q 53.515625 38.921875 53.515625 30.90625 
L 53.515625 0 
L 44.484375 0 
L 44.484375 32.71875 
Q 44.484375 40.625 41.703125 44.40625 
Q 38.921875 48.1875 33.109375 48.1875 
Q 26.21875 48.1875 22.15625 43.53125 
Q 18.109375 38.875 18.109375 30.90625 
L 18.109375 0 
L 9.078125 0 
L 9.078125 54.6875 
L 18.109375 54.6875 
L 18.109375 46.1875 
Q 21.1875 51.21875 25.484375 53.609375 
Q 29.78125 56 35.6875 56 
Q 41.65625 56 45.828125 52.96875 
Q 50 49.953125 52 44.1875 
z
" id="DejaVuSans-109"/>
       <path d="M 8.015625 75.875 
L 15.828125 75.875 
Q 23.140625 64.359375 26.78125 53.3125 
Q 30.421875 42.28125 30.421875 31.390625 
Q 30.421875 20.453125 26.78125 9.375 
Q 23.140625 -1.703125 15.828125 -13.1875 
L 8.015625 -13.1875 
Q 14.5 -2 17.703125 9.0625 
Q 20.90625 20.125 20.90625 31.390625 
Q 20.90625 42.671875 17.703125 53.65625 
Q 14.5 64.65625 8.015625 75.875 
z
" id="DejaVuSans-41"/>
      </defs>
      <use xlink:href="#DejaVuSans-67"/>
      <use x="69.824219" xlink:href="#DejaVuSans-79"/>
      <use x="148.535156" xlink:href="#DejaVuSans-40"/>
      <use x="187.548828" xlink:href="#DejaVuSans-112"/>
      <use x="251.025391" xlink:href="#DejaVuSans-112"/>
      <use x="314.501953" xlink:href="#DejaVuSans-109"/>
      <use x="411.914062" xlink:href="#DejaVuSans-41"/>
     </g>
    </g>
   </g>
   <g id="line2d_18">
    <path clip-path="url(#p3753ab0765)" d="M 138.436364 241.673203 
L 139.270237 294.190414 
L 140.10411 334.497077 
L 141.771856 362.83029 
L 142.605729 354.133104 
L 143.439601 334.852724 
L 144.273474 297.865433 
L 145.107347 250.508223 
L 145.94122 282.868983 
L 146.775093 280.201631 
L 147.608966 209.546421 
L 148.442839 217.963401 
L 149.276712 276.526611 
L 150.110585 283.402454 
L 150.944458 263.012024 
L 151.778331 167.81717 
L 152.612204 195.557638 
L 153.446077 189.155991 
L 154.27995 222.511372 
L 155.113823 224.866186 
L 155.947696 263.286842 
L 156.781569 310.207009 
L 157.615442 307.904379 
L 158.449315 291.29674 
L 159.283188 238.709477 
L 160.117061 281.009919 
L 160.950934 308.179197 
L 161.784807 296.177521 
L 162.61868 326.198646 
L 163.452553 322.405078 
L 164.286426 319.678451 
L 165.120299 305.215472 
L 165.954172 308.179197 
L 166.788045 259.574103 
L 167.621918 267.398338 
L 168.455791 307.467903 
L 169.289664 290.159747 
L 170.123537 289.685551 
L 171.791283 277.475003 
L 172.625156 275.928478 
L 174.292902 295.613002 
L 175.126775 298.774309 
L 175.960648 301.421903 
L 176.794521 247.007908 
L 177.628394 315.58851 
L 178.462267 350.738291 
L 179.296139 340.305978 
L 180.130012 334.378528 
L 180.963885 336.038214 
L 181.797758 294.308963 
L 182.631631 290.041198 
L 183.465504 324.420411 
L 184.299377 347.192598 
L 185.13325 352.872173 
L 185.967123 352.516526 
L 186.800996 344.810841 
L 187.634869 345.640684 
L 188.468742 339.594684 
L 189.302615 320.034098 
L 190.136488 321.456686 
L 190.970361 307.586452 
L 191.804234 278.423395 
L 192.638107 326.90994 
L 193.47198 327.739783 
L 194.305853 330.466411 
L 195.139726 337.105155 
L 195.973599 262.549119 
L 196.807472 288.61861 
L 197.641345 304.741276 
L 198.475218 309.00904 
L 199.309091 280.675827 
L 200.142964 291.463787 
L 200.976837 330.703509 
L 201.81071 334.971273 
L 202.644583 320.152647 
L 203.478456 308.653393 
L 204.312329 280.083082 
L 205.146202 311.38002 
L 205.980075 321.930882 
L 206.813948 326.554293 
L 207.647821 327.209135 
L 208.481694 335.542464 
L 209.315567 326.554293 
L 210.14944 332.718842 
L 210.983313 290.98959 
L 211.817186 316.596177 
L 212.651059 262.656377 
L 213.484932 229.699753 
L 214.318804 244.992575 
L 215.152677 279.964533 
L 215.98655 292.886375 
L 216.820423 279.253239 
L 217.654296 291.108139 
L 218.488169 309.246138 
L 219.322042 292.542018 
L 220.989788 362.474643 
L 221.823661 352.160879 
L 223.491407 308.297746 
L 224.32528 361.526251 
L 225.993026 323.827666 
L 226.826899 336.749508 
L 227.660772 338.409194 
L 228.494645 335.682567 
L 229.328518 331.059156 
L 230.162391 335.682567 
L 230.996264 334.603147 
L 231.830137 309.127589 
L 232.66401 261.899922 
L 233.497883 282.216964 
L 234.331756 288.381512 
L 235.165629 249.260339 
L 235.999502 277.949199 
L 236.833375 330.229313 
L 237.667248 333.193038 
L 238.501121 329.280921 
L 239.334994 330.347862 
L 240.168867 328.451077 
L 241.00274 320.626843 
L 241.836613 326.554293 
L 242.670486 330.229313 
L 243.504359 324.183313 
L 244.338232 325.813362 
L 245.172105 327.858332 
L 246.005978 323.234921 
L 246.839851 309.838883 
L 247.673724 323.946215 
L 248.507597 303.792884 
L 249.341469 298.22108 
L 250.175342 333.074489 
L 251.009215 348.841507 
L 251.843088 368.757741 
L 252.676961 366.623859 
L 253.510834 353.346369 
L 254.344707 349.552801 
L 255.17858 347.853599 
L 256.012453 350.619742 
L 256.846326 324.53896 
L 257.680199 332.95594 
L 258.514072 340.06888 
L 259.347945 334.14143 
L 260.181818 361.052055 
L 261.015691 327.621234 
L 261.849564 326.317195 
L 262.683437 354.413311 
L 263.51731 364.01578 
L 264.351183 364.01578 
L 265.185056 365.556917 
L 266.018929 359.510918 
L 266.852802 358.630268 
L 267.686675 347.812286 
L 268.520548 332.072211 
L 269.354421 327.858332 
L 270.188294 333.175256 
L 271.022167 357.591553 
L 271.85604 356.14709 
L 272.689913 342.173125 
L 273.523786 337.897278 
L 274.357659 338.145153 
L 275.191532 327.610457 
L 276.025405 336.905777 
L 276.859278 340.747843 
L 278.527024 334.220463 
L 279.360897 333.807337 
L 281.028643 332.444024 
L 281.862516 334.550963 
L 282.696389 326.689778 
L 283.530262 329.149893 
L 285.198007 354.057664 
L 286.03188 352.516526 
L 286.865753 350.145546 
L 287.699626 343.862449 
L 288.533499 341.728567 
L 289.367372 342.627563 
L 290.201245 348.892314 
L 291.035118 376.344877 
L 291.868991 382.66354 
L 292.702864 416.225842 
L 293.536737 442.996364 
L 294.37061 395.15645 
L 295.204483 379.527918 
L 296.038356 390.818634 
L 296.872229 375.822184 
L 297.706102 375.822184 
L 298.539975 377.681248 
L 299.373848 380.407875 
L 300.207721 376.813685 
L 301.041594 372.475869 
L 301.875467 375.822184 
L 302.70934 380.036062 
L 304.377086 371.484368 
L 306.044832 355.66993 
L 306.878705 347.08823 
L 308.546451 334.303088 
L 311.04807 304.310188 
L 311.881943 301.459623 
L 312.715816 297.741495 
L 313.549689 286.569406 
L 315.217435 338.764841 
L 316.051308 342.173125 
L 316.885181 332.072211 
L 317.719054 319.802388 
L 318.552927 312.926802 
L 320.220672 296.749995 
L 321.054545 292.040366 
L 321.888418 284.851985 
L 322.722291 279.646606 
L 324.390037 259.940527 
L 325.22391 246.679204 
L 326.891656 229.32794 
L 327.725529 225.609812 
L 328.559402 219.288994 
L 331.061021 273.697601 
L 331.894894 264.774094 
L 332.728767 263.038967 
L 333.56264 276.052415 
L 334.396513 276.424228 
L 335.230386 260.436278 
L 336.064259 268.864034 
L 336.898132 289.685551 
L 337.732005 260.436278 
L 338.565878 243.580764 
L 340.233624 230.567316 
L 341.067497 247.174954 
L 343.569116 157.614545 
L 344.402989 206.523421 
L 345.236862 201.44198 
L 346.070735 198.467477 
L 346.904608 241.102012 
L 347.738481 259.444777 
L 348.572354 272.458225 
L 349.406227 302.457647 
L 350.2401 305.301689 
L 351.073973 276.424228 
L 351.907846 262.171404 
L 352.741719 261.799591 
L 353.575592 275.533058 
L 354.409465 275.80454 
L 355.243337 265.765594 
L 356.07721 284.232297 
L 356.911083 312.242195 
L 357.744956 306.29319 
L 358.578829 294.766993 
L 359.412702 273.449726 
L 360.246575 269.359785 
L 361.080448 218.173556 
L 361.914321 201.070167 
L 362.748194 236.144508 
L 363.582067 246.183453 
L 364.41594 250.025519 
L 365.249813 289.140226 
L 366.083686 309.019817 
L 366.917559 332.320086 
L 367.751432 324.450048 
L 368.585305 318.563012 
L 370.253051 299.848435 
L 371.086924 243.952577 
L 371.920797 259.81659 
L 372.75467 254.487273 
L 373.588543 244.82014 
L 375.256289 260.932028 
L 376.090162 270.351286 
L 376.924035 305.053814 
L 377.757908 295.386681 
L 378.591781 323.378873 
L 379.425654 341.900463 
L 380.259527 323.768392 
L 381.0934 310.631006 
L 381.927273 319.926326 
L 382.761146 314.844884 
L 383.595019 312.998214 
L 384.428892 309.135492 
L 385.262765 332.584486 
L 386.096638 303.727682 
L 386.930511 293.89943 
L 387.764384 304.186251 
L 388.598257 297.369683 
L 389.43213 286.958924 
L 390.266002 232.42638 
L 391.099875 218.049618 
L 391.933748 263.534718 
L 392.767621 248.290393 
L 393.601494 207.390984 
L 394.435367 206.027671 
L 395.26924 248.662205 
L 396.103113 316.562305 
L 396.936986 253.495772 
L 397.770859 247.546767 
L 398.604732 248.166455 
L 399.438605 280.885982 
L 400.272478 285.719548 
L 401.106351 329.221646 
L 401.940224 329.965272 
L 402.774097 316.208198 
L 403.60797 305.549564 
L 404.441843 297.989371 
L 405.275716 295.917842 
L 406.109589 331.733013 
L 406.943462 333.311587 
L 407.777335 322.157203 
L 408.611208 326.123206 
L 409.445081 270.351286 
L 410.278954 277.911479 
L 411.112827 248.538268 
L 411.9467 226.477375 
L 412.780573 296.502119 
L 413.614446 330.714799 
L 414.448319 281.635509 
L 415.282192 290.305239 
L 416.116065 264.526218 
L 416.949938 274.069414 
L 418.617684 318.439075 
L 419.451557 323.573633 
L 420.28543 307.603387 
L 421.119303 276.30029 
L 421.953176 259.692652 
L 422.787049 228.639398 
L 423.620922 273.325788 
L 424.454795 254.61121 
L 425.288667 230.071565 
L 426.12254 253.694072 
L 426.956413 237.619955 
L 427.790286 289.685551 
L 428.624159 193.014223 
L 429.458032 229.82369 
L 430.291905 253.123959 
L 431.125778 260.991046 
L 431.959651 262.91503 
L 432.793524 276.424228 
L 433.627397 265.795103 
L 434.46127 260.064465 
L 435.295143 210.7373 
L 436.129016 183.718903 
L 436.962889 197.228101 
L 437.796762 183.099215 
L 438.630635 233.417881 
L 439.464508 197.104164 
L 440.298381 275.680602 
L 441.132254 306.762848 
L 441.966127 225.485874 
L 442.8 349.051662 
L 443.633873 348.803787 
L 444.467746 341.119656 
L 445.301619 306.694512 
L 446.135492 300.220247 
L 446.969365 279.324368 
L 447.803238 314.597009 
L 448.637111 274.193351 
L 449.470984 328.47802 
L 450.304857 361.197547 
L 451.13873 341.491469 
L 451.972603 333.063712 
L 452.806476 316.08426 
L 453.640349 312.614008 
L 454.474222 300.715998 
L 455.308095 304.310188 
L 456.141968 305.425627 
L 456.975841 256.186988 
L 457.809714 291.172803 
L 458.643587 302.575062 
L 459.47746 308.89588 
L 460.311333 289.313739 
L 461.145205 280.762044 
L 461.979078 341.6278 
L 462.812951 355.744293 
L 463.646824 342.854782 
L 464.480697 322.900828 
L 465.31457 292.18496 
L 466.148443 240.110511 
L 466.982316 285.471673 
L 467.816189 318.934825 
L 468.650062 344.589909 
L 469.483935 337.773341 
L 470.317808 310.350516 
L 471.151681 310.849372 
L 471.985554 332.444024 
L 472.819427 337.649403 
L 473.6533 321.165702 
L 474.487173 310.878881 
L 475.321046 305.177751 
L 476.154919 314.101259 
L 476.988792 297.865433 
L 477.822665 284.480172 
L 478.656538 314.968822 
L 479.490411 314.968822 
L 480.324284 322.900828 
L 481.158157 295.882431 
L 481.99203 310.754944 
L 482.825903 281.895188 
L 483.659776 302.451124 
L 484.493649 315.836385 
L 485.327522 307.780441 
L 486.161395 297.369683 
L 486.995268 307.656503 
L 487.829141 309.88738 
L 488.663014 317.943324 
L 489.496887 312.49007 
L 490.33076 289.685551 
L 491.164633 243.085013 
L 491.998506 275.556665 
L 492.832379 277.663604 
L 493.666252 205.779796 
L 494.500125 300.018033 
L 495.333998 286.484728 
L 496.16787 288.974257 
L 497.001743 308.152254 
L 497.835616 246.415163 
L 498.669489 312.49007 
L 499.503362 322.997823 
L 500.337235 316.703948 
L 501.171108 317.199699 
L 502.004981 303.814438 
L 502.838854 283.116859 
L 503.672727 281.629607 
L 504.5066 305.053814 
L 505.340473 332.493599 
L 506.174346 343.568899 
L 507.008219 351.778289 
L 507.842092 357.851232 
L 508.675965 355.744293 
L 509.509838 262.91503 
L 510.343711 276.672103 
L 511.177584 293.651555 
L 512.011457 261.179903 
L 512.84533 289.555712 
L 513.679203 348.555912 
L 514.513076 336.162152 
L 515.346949 342.606907 
L 516.180822 354.628854 
L 517.014695 357.603357 
L 517.848568 362.808736 
L 518.682441 360.058501 
L 519.516314 355.86823 
L 520.350187 353.389478 
L 521.18406 247.422829 
L 522.017933 242.713201 
L 523.685679 316.456073 
L 524.519552 323.892329 
L 525.353425 267.00497 
L 526.187298 321.909328 
L 527.021171 327.362582 
L 527.855044 325.503518 
L 528.688917 331.452523 
L 529.52279 317.075761 
L 530.356663 320.976845 
L 531.190535 317.075761 
L 532.024408 281.257795 
L 532.858281 295.138806 
L 533.692154 317.695449 
L 534.526027 322.033265 
L 535.3599 323.272641 
L 536.193773 320.050264 
L 537.027646 295.510619 
L 537.861519 315.58851 
L 538.695392 310.507068 
L 539.529265 326.866832 
L 540.363138 320.669952 
L 541.197011 280.142356 
L 542.030884 225.733749 
L 542.864757 247.298892 
L 543.69863 240.854137 
L 544.532503 237.507821 
L 545.366376 298.856934 
L 546.200249 306.564672 
L 547.034122 270.10341 
L 547.867995 292.671857 
L 548.701868 330.213147 
L 549.535741 346.944723 
L 550.369614 357.231544 
L 551.203487 364.915675 
L 552.871233 356.735793 
L 553.705106 359.834233 
L 555.372852 355.496417 
L 556.206725 355.248542 
L 557.040598 356.363981 
L 557.874471 354.752792 
L 558.708344 351.282539 
L 559.542217 350.060868 
L 560.37609 354.133104 
L 561.209963 352.645853 
L 562.043836 354.504917 
L 562.877709 351.282539 
L 563.711582 349.281832 
L 564.545455 351.406477 
L 565.379328 351.530414 
L 566.2132 349.67135 
L 567.047073 350.291038 
L 567.880946 344.837784 
L 568.714819 336.78184 
L 569.548692 337.27759 
L 570.382565 334.316134 
L 571.216438 336.687411 
L 572.050311 298.856934 
L 572.884184 266.633158 
L 573.718057 266.757095 
L 574.55193 300.59206 
L 575.385803 306.541065 
L 576.219676 319.133125 
L 577.053549 326.618956 
L 577.887422 342.606907 
L 578.721295 178.637461 
L 579.555168 86.923636 
L 580.389041 94.277267 
L 581.222914 332.766261 
L 582.056787 333.6834 
L 582.89066 331.493835 
L 583.724533 329.935763 
L 584.558406 324.635955 
L 585.392279 321.909328 
L 586.226152 330.297946 
L 587.060025 351.530414 
L 587.893898 346.263066 
L 588.727771 365.907176 
L 589.561644 369.997117 
L 590.395517 376.317934 
L 591.22939 380.65575 
L 592.063263 383.630253 
L 592.897136 379.044562 
L 595.398755 361.746414 
L 596.232628 361.227056 
L 597.066501 368.26199 
L 597.900374 368.385928 
L 598.734247 352.27404 
L 599.56812 341.367531 
L 600.401993 341.367531 
L 601.235866 340.252093 
L 602.069738 340.128155 
L 602.903611 334.17915 
L 603.737484 333.559462 
L 604.571357 334.922776 
L 605.40523 338.640904 
L 606.239103 341.367531 
L 607.072976 334.73982 
L 607.906849 325.751393 
L 608.740722 340.128155 
L 609.574595 344.837784 
L 610.408468 340.004217 
L 611.242341 338.269091 
L 612.076214 339.855492 
L 612.910087 306.045315 
L 613.74396 291.916428 
L 614.577833 304.805939 
L 615.411706 315.464572 
L 616.245579 255.602711 
L 617.079452 278.035417 
L 617.913325 327.722001 
L 618.747198 401.105455 
L 620.414944 363.800237 
L 621.248817 335.170651 
L 622.08269 351.229423 
L 622.916563 299.228747 
L 623.750436 268.864034 
L 624.584309 260.684153 
L 625.418182 266.757095 
L 627.085928 297.989371 
L 627.919801 319.1827 
L 628.753674 326.371081 
L 629.587547 320.174201 
L 630.42142 308.648004 
L 631.255293 302.203249 
L 632.089166 303.442625 
L 632.923039 310.011318 
L 633.756912 315.516757 
L 634.590785 300.839935 
L 635.424658 304.98496 
L 636.258531 299.399161 
L 637.092403 286.339236 
L 637.926276 281.877483 
L 638.760149 294.766993 
L 639.594022 296.749995 
L 640.427895 297.369683 
L 641.261768 306.045315 
L 642.095641 295.758494 
L 642.929514 283.860484 
L 643.763387 275.680602 
L 644.59726 270.599161 
L 645.431133 285.223798 
L 646.265006 319.058763 
L 647.098879 320.457487 
L 647.932752 330.213147 
L 648.766625 338.145153 
L 649.600498 328.354083 
L 650.434371 312.49007 
L 651.268244 293.527617 
L 652.102117 303.031674 
L 652.93599 278.779042 
L 653.769863 285.595611 
L 654.603736 278.186297 
L 655.437609 248.430496 
L 656.271482 274.037082 
L 657.105355 295.8501 
L 657.939228 276.289513 
L 658.773101 279.558079 
L 659.606974 267.516887 
L 660.440847 283.521003 
L 661.27472 306.875158 
L 662.108593 310.754944 
L 662.942466 308.179197 
L 663.776339 306.163864 
L 664.610212 299.880766 
L 665.444085 290.041198 
L 666.277958 266.805593 
L 667.945704 239.065124 
L 668.779577 233.848968 
L 669.61345 229.818302 
L 670.447323 223.378935 
L 671.281196 215.236773 
L 672.115068 249.023241 
L 672.948941 246.533712 
L 673.782814 237.523987 
L 674.616687 234.915909 
L 675.45056 230.766694 
L 676.284433 229.344106 
L 677.118306 251.749868 
L 677.952179 270.079803 
L 678.786052 256.098462 
L 679.619925 209.126111 
L 680.453798 247.617589 
L 681.287671 272.614494 
L 682.121544 256.491829 
L 682.955417 193.068109 
L 683.78929 175.048659 
L 684.623163 207.768186 
L 685.457036 231.24089 
L 686.290909 242.384497 
L 687.124782 267.16124 
L 687.958655 241.791752 
L 688.792528 243.332889 
L 689.626401 234.560262 
L 690.460274 220.927126 
L 691.294147 230.173949 
L 692.12802 214.638383 
L 692.961893 218.08195 
L 693.795766 241.910301 
L 694.629639 260.285397 
L 695.463512 248.193398 
L 696.297385 247.363555 
L 697.131258 260.878142 
L 697.965131 295.014868 
L 698.799004 276.176353 
L 699.632877 293.155804 
L 700.46675 301.371097 
L 701.300623 308.179197 
L 702.134496 301.896099 
L 702.968369 302.327187 
L 703.802242 348.113277 
L 704.636115 358.325428 
L 705.469988 347.181821 
L 706.303861 325.487352 
L 707.137733 321.338137 
L 707.971606 319.085706 
L 708.805479 307.586452 
L 709.639352 289.448453 
L 710.473225 278.541944 
L 711.307098 292.02266 
L 712.140971 279.687918 
L 712.974844 316.596177 
L 713.808717 317.307471 
L 714.64259 261.352338 
L 715.476463 295.257355 
L 716.310336 286.603277 
L 717.144209 261.589436 
L 717.978082 271.784651 
L 718.811955 279.490337 
L 719.645828 260.522495 
L 720.479701 249.023241 
L 721.313574 233.256223 
L 722.147447 303.200138 
L 722.98132 306.63806 
L 723.815193 312.667124 
L 724.649066 306.519511 
L 725.482939 277.356454 
L 726.316812 274.936977 
L 727.984558 301.066256 
L 728.818431 321.58709 
L 729.652304 332.099753 
L 730.486177 334.265906 
L 731.32005 294.427512 
L 732.153923 230.885243 
L 732.987796 250.208731 
L 733.821669 308.771942 
L 734.655542 316.833275 
L 735.489415 277.949199 
L 736.323288 286.840375 
L 737.157161 327.739783 
L 737.991034 329.873666 
L 738.824907 320.271196 
L 739.65878 323.116372 
L 740.492653 296.798492 
L 741.326526 259.218456 
L 742.160399 287.788767 
L 742.994271 273.562886 
L 743.828144 296.324296 
L 744.662017 277.712101 
L 745.49589 248.193398 
L 746.329763 266.687044 
L 747.163636 257.321672 
L 747.163636 257.321672 
" style="fill:none;stroke:#1f77b4;stroke-linecap:square;stroke-width:1.5;"/>
   </g>
   <g id="line2d_19">
    <path clip-path="url(#p3753ab0765)" d="M 138.436364 224.347971 
L 139.270237 218.624983 
L 140.10411 292.974547 
L 140.937983 330.365849 
L 141.771856 320.156814 
L 142.605729 334.74495 
L 143.439601 345.080836 
L 144.273474 262.155034 
L 145.107347 213.694448 
L 145.94122 258.318407 
L 146.775093 286.500346 
L 147.608966 193.354183 
L 148.442839 197.224596 
L 150.110585 249.810203 
L 150.944458 228.197711 
L 151.778331 167.933727 
L 152.612204 166.433625 
L 153.446077 179.148085 
L 154.27995 162.701975 
L 155.113823 205.247383 
L 155.947696 229.133653 
L 156.781569 292.701054 
L 157.615442 335.098819 
L 158.449315 267.576727 
L 159.283188 186.202155 
L 160.117061 200.883032 
L 160.950934 256.912998 
L 161.784807 257.925025 
L 162.61868 264.029537 
L 163.452553 313.285706 
L 164.286426 315.590652 
L 165.120299 268.460488 
L 165.954172 288.829852 
L 166.788045 224.476268 
L 167.621918 204.971439 
L 168.455791 264.40154 
L 169.289664 268.631021 
L 170.123537 254.432627 
L 170.95741 256.240192 
L 171.791283 277.151066 
L 172.625156 256.221801 
L 173.459029 284.472549 
L 174.292902 279.056179 
L 175.126775 252.699599 
L 175.960648 256.370632 
L 176.794521 215.575573 
L 177.628394 223.452902 
L 178.462267 323.217149 
L 179.296139 333.8743 
L 180.130012 335.822341 
L 180.963885 333.839954 
L 182.631631 244.651962 
L 183.465504 253.030676 
L 184.299377 341.035055 
L 185.13325 344.166492 
L 185.967123 318.723363 
L 186.800996 314.666912 
L 187.634869 333.885364 
L 188.468742 328.260129 
L 189.302615 318.146177 
L 190.136488 268.434387 
L 190.970361 315.498176 
L 191.804234 244.954082 
L 192.638107 264.254641 
L 193.47198 328.63669 
L 194.305853 312.360055 
L 195.139726 320.843274 
L 195.973599 248.4169 
L 196.807472 250.263243 
L 197.641345 254.092944 
L 198.475218 289.312216 
L 199.309091 252.156438 
L 200.142964 253.769924 
L 200.976837 273.425461 
L 201.81071 333.651066 
L 202.644583 324.415225 
L 203.478456 308.822149 
L 204.312329 279.568343 
L 205.146202 294.506046 
L 205.980075 305.49462 
L 206.813948 340.1175 
L 207.647821 313.074985 
L 208.481694 323.307004 
L 209.315567 330.049069 
L 210.14944 337.7171 
L 210.983313 300.916323 
L 211.817186 253.571134 
L 212.651059 274.5403 
L 213.484932 198.229383 
L 214.318804 206.196097 
L 215.152677 221.441256 
L 215.98655 265.245421 
L 217.654296 253.375504 
L 220.155915 284.374417 
L 220.989788 328.965834 
L 221.823661 322.71623 
L 222.657534 346.816888 
L 223.491407 255.701456 
L 224.32528 331.46984 
L 225.159153 330.484885 
L 225.993026 327.631622 
L 226.826899 330.778343 
L 227.660772 334.458104 
L 228.494645 337.022813 
L 229.328518 334.847799 
L 230.162391 342.550479 
L 230.996264 327.411326 
L 231.830137 324.168813 
L 232.66401 248.434879 
L 233.497883 217.487637 
L 234.331756 292.674251 
L 235.165629 258.491372 
L 235.999502 243.032883 
L 236.833375 321.37929 
L 237.667248 342.282437 
L 238.501121 332.865102 
L 239.334994 328.186036 
L 240.168867 329.977714 
L 241.00274 322.617705 
L 241.836613 322.638169 
L 242.670486 320.84727 
L 243.504359 321.706831 
L 244.338232 317.334614 
L 245.172105 315.905357 
L 246.005978 314.802638 
L 246.839851 284.117637 
L 247.673724 276.867898 
L 248.507597 344.036321 
L 249.341469 249.253667 
L 250.175342 311.387872 
L 251.009215 334.354726 
L 251.843088 331.740368 
L 252.676961 346.950058 
L 253.510834 331.034176 
L 254.344707 329.64737 
L 255.17858 335.890161 
L 256.012453 329.394432 
L 256.846326 334.582546 
L 257.680199 284.065267 
L 258.514072 330.607837 
L 261.015691 342.868973 
L 261.849564 290.964948 
L 262.683437 339.556882 
L 263.51731 331.193632 
L 264.351183 328.649919 
L 265.185056 327.435442 
L 266.018929 336.269895 
L 266.852802 326.300014 
L 267.686675 324.644376 
L 268.520548 326.547886 
L 269.354421 316.297686 
L 270.188294 315.345243 
L 271.022167 319.50392 
L 271.85604 324.916762 
L 272.689913 327.014574 
L 273.523786 340.713243 
L 274.357659 344.901037 
L 275.191532 329.351259 
L 276.025405 329.708462 
L 276.859278 327.482919 
L 277.693151 320.106727 
L 278.527024 318.487906 
L 279.360897 328.970997 
L 280.19477 327.43888 
L 281.028643 339.778528 
L 281.862516 329.926268 
L 282.696389 329.114268 
L 283.530262 325.073674 
L 284.364134 329.981669 
L 285.198007 326.872778 
L 286.03188 327.20027 
L 286.865753 327.064235 
L 287.699626 328.370154 
L 288.533499 343.852307 
L 289.367372 344.6023 
L 290.201245 343.165084 
L 291.035118 327.05072 
L 291.868991 327.128279 
L 292.702864 331.702462 
L 293.536737 331.312804 
L 294.37061 329.255613 
L 295.204483 328.802038 
L 296.038356 329.108341 
L 296.872229 328.856153 
L 297.706102 325.161573 
L 298.539975 322.265018 
L 299.373848 318.361516 
L 300.207721 337.992219 
L 301.041594 341.255753 
L 301.875467 327.638795 
L 302.70934 330.249128 
L 303.543213 326.837343 
L 304.377086 328.724818 
L 305.210959 327.545453 
L 306.878705 342.750064 
L 307.712578 332.960138 
L 308.546451 334.970885 
L 309.380324 334.874939 
L 310.214197 283.525068 
L 311.04807 267.379665 
L 311.881943 260.198764 
L 312.715816 268.449051 
L 313.549689 284.897392 
L 314.383562 256.689436 
L 315.217435 327.555771 
L 316.051308 322.713761 
L 316.885181 318.798248 
L 317.719054 328.147747 
L 318.552927 291.657766 
L 319.3868 273.715602 
L 320.220672 281.091616 
L 321.054545 283.385637 
L 321.888418 291.995332 
L 322.722291 293.364733 
L 323.556164 253.724822 
L 324.390037 229.352269 
L 325.22391 220.643425 
L 326.057783 190.896916 
L 327.725529 210.804931 
L 328.559402 227.892012 
L 329.393275 208.531657 
L 330.227148 213.198214 
L 331.894894 248.599828 
L 332.728767 244.999421 
L 333.56264 269.463613 
L 334.396513 281.373858 
L 335.230386 257.776156 
L 336.064259 220.610725 
L 336.898132 272.182158 
L 337.732005 263.75851 
L 338.565878 245.695202 
L 339.399751 199.727033 
L 340.233624 195.177941 
L 341.067497 197.606417 
L 343.569116 132.049569 
L 344.402989 156.915782 
L 345.236862 161.835049 
L 346.070735 161.906305 
L 346.904608 193.569981 
L 347.738481 265.121949 
L 348.572354 245.055209 
L 349.406227 290.704346 
L 350.2401 290.767443 
L 351.073973 283.841007 
L 351.907846 236.506743 
L 352.741719 224.956961 
L 353.575592 225.499395 
L 354.409465 232.957363 
L 355.243337 228.33405 
L 356.07721 225.876603 
L 356.911083 300.877958 
L 357.744956 300.485393 
L 358.578829 288.959183 
L 359.412702 254.170279 
L 360.246575 259.211059 
L 361.080448 221.663686 
L 361.914321 162.829939 
L 362.748194 218.42488 
L 363.582067 224.484741 
L 364.41594 194.387112 
L 365.249813 260.47296 
L 366.083686 290.242936 
L 366.917559 332.978851 
L 367.751432 326.372726 
L 368.585305 303.349051 
L 369.419178 294.692969 
L 370.253051 253.147861 
L 371.086924 219.535249 
L 371.920797 224.24773 
L 372.75467 227.498883 
L 373.588543 219.258333 
L 374.422416 225.514455 
L 375.256289 237.119278 
L 376.090162 230.567357 
L 376.924035 252.2421 
L 377.757908 262.457595 
L 378.591781 250.477234 
L 379.425654 330.791956 
L 380.259527 331.664663 
L 381.0934 271.965729 
L 381.927273 269.534919 
L 382.761146 310.355817 
L 383.595019 267.535707 
L 384.428892 246.831154 
L 385.262765 323.361912 
L 386.096638 318.867868 
L 386.930511 249.28899 
L 387.764384 270.676608 
L 388.598257 244.85519 
L 389.43213 242.474312 
L 390.266002 218.596065 
L 391.099875 173.579955 
L 391.933748 234.486105 
L 392.767621 254.766974 
L 393.601494 200.152433 
L 394.435367 182.064906 
L 395.26924 227.099286 
L 396.936986 285.350113 
L 397.770859 207.728244 
L 398.604732 214.09105 
L 399.438605 226.645052 
L 400.272478 222.862477 
L 401.106351 278.864182 
L 401.940224 320.691759 
L 402.774097 316.32732 
L 403.60797 269.182214 
L 404.441843 248.694011 
L 405.275716 277.268031 
L 406.109589 320.994405 
L 406.943462 331.069859 
L 407.777335 328.431961 
L 408.611208 319.239735 
L 409.445081 251.882549 
L 410.278954 258.026056 
L 411.112827 245.720945 
L 411.9467 166.349737 
L 412.780573 233.154057 
L 413.614446 317.079768 
L 414.448319 249.566017 
L 415.282192 252.920753 
L 416.116065 244.506732 
L 416.949938 216.770899 
L 417.783811 249.304691 
L 418.617684 265.237191 
L 419.451557 311.953446 
L 420.28543 263.639659 
L 421.119303 250.797812 
L 421.953176 227.863929 
L 422.787049 187.675598 
L 423.620922 222.451152 
L 424.454795 223.224294 
L 425.288667 188.225627 
L 426.12254 228.19512 
L 426.956413 202.151174 
L 427.790286 254.687605 
L 428.624159 188.66898 
L 429.458032 213.412649 
L 430.291905 222.288078 
L 431.125778 227.958022 
L 431.959651 228.215543 
L 432.793524 218.88181 
L 433.627397 220.730555 
L 434.46127 219.464517 
L 435.295143 201.678837 
L 436.129016 156.888292 
L 436.962889 173.097336 
L 437.796762 161.320352 
L 438.630635 205.566888 
L 439.464508 174.305658 
L 440.298381 208.787386 
L 441.132254 296.684802 
L 441.966127 190.602866 
L 442.8 325.036732 
L 443.633873 351.50639 
L 444.467746 352.87983 
L 445.301619 350.315318 
L 446.135492 329.336692 
L 446.969365 281.253771 
L 447.803238 342.692321 
L 448.637111 303.668927 
L 449.470984 293.101156 
L 450.304857 349.310482 
L 451.13873 350.675658 
L 451.972603 336.031807 
L 452.806476 346.346658 
L 453.640349 327.177762 
L 454.474222 347.003849 
L 455.308095 301.968513 
L 456.141968 304.720781 
L 456.975841 286.603627 
L 457.809714 287.491489 
L 458.643587 292.568696 
L 459.47746 350.429866 
L 460.311333 292.677644 
L 461.145205 288.37269 
L 461.979078 345.732179 
L 462.812951 331.362048 
L 463.646824 346.866135 
L 464.480697 345.392176 
L 465.31457 291.266143 
L 466.148443 290.798776 
L 466.982316 254.714941 
L 467.816189 343.021739 
L 468.650062 351.684806 
L 469.483935 346.594756 
L 470.317808 346.250619 
L 471.151681 326.852987 
L 471.985554 347.976346 
L 472.819427 346.958356 
L 473.6533 348.725477 
L 474.487173 344.723263 
L 475.321046 336.772625 
L 476.154919 330.047982 
L 476.988792 335.168721 
L 477.822665 284.4889 
L 478.656538 338.680192 
L 479.490411 346.352338 
L 480.324284 346.394804 
L 481.158157 286.942284 
L 481.99203 347.493062 
L 482.825903 287.348274 
L 483.659776 292.575346 
L 484.493649 343.263332 
L 485.327522 347.098244 
L 486.161395 304.94227 
L 486.995268 326.403948 
L 487.829141 342.524228 
L 488.663014 346.016781 
L 489.496887 345.906036 
L 490.33076 328.286655 
L 491.164633 264.820558 
L 491.998506 294.718506 
L 492.832379 301.335278 
L 493.666252 232.878575 
L 494.500125 260.772223 
L 495.333998 332.426125 
L 496.16787 283.849462 
L 497.001743 326.355576 
L 497.835616 289.564187 
L 498.669489 293.403997 
L 499.503362 346.494039 
L 500.337235 348.841754 
L 501.171108 348.771761 
L 502.004981 341.375587 
L 502.838854 302.160694 
L 503.672727 294.126827 
L 504.5066 300.654755 
L 505.340473 346.363141 
L 506.174346 344.36485 
L 507.008219 335.749053 
L 507.842092 341.653288 
L 508.675965 345.277726 
L 509.509838 339.084346 
L 510.343711 288.510419 
L 511.177584 295.584628 
L 512.011457 287.184467 
L 512.84533 292.575621 
L 513.679203 349.479548 
L 514.513076 334.187135 
L 515.346949 339.186248 
L 516.180822 338.247538 
L 517.014695 339.955814 
L 517.848568 338.78496 
L 518.682441 341.15069 
L 519.516314 346.067524 
L 520.350187 345.473135 
L 521.18406 294.267567 
L 522.017933 252.646376 
L 522.851806 290.780854 
L 523.685679 338.275815 
L 524.519552 347.238922 
L 525.353425 285.174884 
L 526.187298 343.925527 
L 527.021171 345.914384 
L 527.855044 345.9417 
L 528.688917 343.664719 
L 529.52279 343.956596 
L 530.356663 332.105943 
L 531.190535 344.792614 
L 532.024408 323.249709 
L 532.858281 294.640173 
L 533.692154 329.415572 
L 534.526027 341.099417 
L 535.3599 334.780903 
L 536.193773 339.903766 
L 537.027646 301.761767 
L 537.861519 342.125261 
L 538.695392 343.751951 
L 539.529265 339.492683 
L 540.363138 336.652249 
L 541.197011 337.932775 
L 542.030884 234.973215 
L 542.864757 259.637791 
L 543.69863 269.744677 
L 544.532503 252.150591 
L 546.200249 339.956065 
L 547.034122 289.527746 
L 547.867995 297.74998 
L 548.701868 340.531533 
L 549.535741 339.165799 
L 550.369614 343.792322 
L 551.203487 342.138316 
L 552.871233 345.686226 
L 553.705106 343.678895 
L 554.538979 344.679414 
L 555.372852 344.765955 
L 556.206725 343.569499 
L 557.040598 344.052339 
L 557.874471 342.949191 
L 558.708344 344.03189 
L 559.542217 343.366138 
L 560.37609 346.125055 
L 561.209963 346.026907 
L 562.043836 342.864429 
L 562.877709 345.414552 
L 563.711582 344.473831 
L 564.545455 344.105044 
L 565.379328 342.975766 
L 566.2132 346.170909 
L 567.880946 343.152552 
L 568.714819 343.762783 
L 569.548692 337.508928 
L 570.382565 343.681676 
L 571.216438 342.694558 
L 572.050311 344.349799 
L 572.884184 286.433653 
L 573.718057 289.668866 
L 574.55193 300.721465 
L 575.385803 338.474829 
L 576.219676 345.494276 
L 577.053549 344.557492 
L 577.887422 346.384776 
L 578.721295 296.02597 
L 579.555168 117.05221 
L 580.389041 175.505761 
L 581.222914 348.742435 
L 582.056787 333.340367 
L 582.89066 332.489877 
L 583.724533 344.16017 
L 585.392279 343.078114 
L 586.226152 343.018345 
L 587.060025 343.390688 
L 587.893898 330.975988 
L 589.561644 336.096812 
L 590.395517 344.008526 
L 591.22939 343.589257 
L 592.063263 344.362493 
L 592.897136 344.075209 
L 593.731009 344.335375 
L 594.564882 343.736653 
L 595.398755 345.26969 
L 596.232628 344.602802 
L 597.066501 345.092493 
L 597.900374 345.064783 
L 598.734247 345.636238 
L 600.401993 344.018143 
L 601.235866 346.125747 
L 602.069738 346.218907 
L 602.903611 343.604605 
L 603.737484 342.165138 
L 604.571357 343.763806 
L 605.40523 343.989444 
L 606.239103 343.8583 
L 607.072976 345.78072 
L 607.906849 345.087258 
L 608.740722 343.787516 
L 609.574595 334.249507 
L 610.408468 343.086694 
L 611.242341 331.731477 
L 612.076214 341.77521 
L 612.910087 344.690923 
L 613.74396 294.001817 
L 614.577833 294.084068 
L 615.411706 345.2566 
L 616.245579 291.515382 
L 617.079452 286.998601 
L 617.913325 290.012063 
L 618.747198 345.300364 
L 619.581071 346.158214 
L 620.414944 344.358393 
L 621.248817 345.107263 
L 622.08269 344.086175 
L 622.916563 344.765659 
L 624.584309 261.016483 
L 625.418182 294.246971 
L 626.252055 288.862451 
L 627.085928 320.535551 
L 627.919801 337.863542 
L 628.753674 344.775192 
L 629.587547 344.525646 
L 630.42142 340.639713 
L 631.255293 338.547426 
L 632.089166 337.479637 
L 632.923039 338.022546 
L 633.756912 345.131778 
L 634.590785 337.922071 
L 635.424658 336.256462 
L 636.258531 320.582173 
L 637.092403 298.587047 
L 637.926276 296.280877 
L 638.760149 298.595757 
L 639.594022 309.262296 
L 640.427895 301.823284 
L 641.261768 340.167622 
L 642.095641 312.41734 
L 642.929514 295.978063 
L 644.59726 289.595332 
L 645.431133 289.228684 
L 646.265006 341.276549 
L 647.098879 346.353806 
L 647.932752 347.212446 
L 648.766625 346.772876 
L 649.600498 344.642007 
L 650.434371 344.41138 
L 651.268244 295.231087 
L 652.102117 336.896524 
L 652.93599 296.274525 
L 653.769863 291.1562 
L 654.603736 299.792034 
L 655.437609 274.685016 
L 656.271482 262.115401 
L 657.105355 298.485414 
L 657.939228 284.265698 
L 658.773101 293.989168 
L 659.606974 291.322973 
L 660.440847 292.110316 
L 661.27472 338.659889 
L 662.108593 340.139228 
L 662.942466 344.77009 
L 663.776339 340.689978 
L 664.610212 327.539605 
L 665.444085 300.898931 
L 666.277958 291.914069 
L 667.111831 284.154241 
L 667.945704 264.005178 
L 668.779577 262.261119 
L 669.61345 257.139779 
L 670.447323 261.605091 
L 671.281196 239.966131 
L 672.115068 268.164485 
L 672.948941 268.430981 
L 673.782814 266.186684 
L 674.616687 260.268561 
L 675.45056 263.551839 
L 676.284433 254.998208 
L 677.118306 269.931471 
L 677.952179 278.70438 
L 678.786052 281.543348 
L 679.619925 237.13233 
L 680.453798 265.30579 
L 681.287671 281.856658 
L 682.121544 286.52205 
L 682.955417 249.332867 
L 683.78929 190.965969 
L 684.623163 214.489526 
L 685.457036 259.320475 
L 686.290909 262.930124 
L 687.124782 289.200427 
L 687.958655 283.936506 
L 688.792528 260.052369 
L 689.626401 267.755062 
L 690.460274 243.259614 
L 691.294147 261.883604 
L 692.12802 253.926806 
L 692.961893 236.348914 
L 693.795766 261.590627 
L 694.629639 271.633861 
L 695.463512 287.933747 
L 696.297385 263.966604 
L 697.131258 265.754588 
L 697.965131 300.999216 
L 698.799004 285.408952 
L 699.632877 302.463167 
L 700.46675 325.564846 
L 701.300623 338.873709 
L 702.134496 337.480871 
L 702.968369 292.164668 
L 703.802242 345.47305 
L 704.636115 347.891781 
L 705.469988 344.870263 
L 706.303861 343.828776 
L 707.137733 347.994178 
L 707.971606 346.941315 
L 708.805479 342.138697 
L 709.639352 296.154099 
L 710.473225 297.743222 
L 711.307098 298.94473 
L 712.140971 290.427969 
L 712.974844 339.312295 
L 713.808717 345.027454 
L 714.64259 281.065327 
L 715.476463 293.353453 
L 716.310336 291.946917 
L 717.144209 286.54237 
L 717.978082 290.916767 
L 718.811955 288.934719 
L 719.645828 283.295362 
L 720.479701 287.373907 
L 721.313574 262.260413 
L 722.147447 282.598317 
L 722.98132 340.980092 
L 723.815193 345.082269 
L 724.649066 345.629585 
L 725.482939 282.629022 
L 726.316812 280.908961 
L 727.150685 288.404418 
L 727.984558 320.276584 
L 728.818431 341.021969 
L 729.652304 348.228312 
L 731.32005 345.93307 
L 732.153923 253.692397 
L 732.987796 260.223193 
L 733.821669 286.391133 
L 734.655542 343.123561 
L 735.489415 339.704608 
L 736.323288 295.497434 
L 737.157161 333.959507 
L 737.991034 336.632752 
L 738.824907 330.738382 
L 740.492653 347.695301 
L 741.326526 287.896724 
L 742.160399 292.548944 
L 742.994271 287.991554 
L 743.828144 292.94353 
L 744.662017 292.007054 
L 745.49589 264.635947 
L 746.329763 290.807229 
L 747.163636 263.138325 
L 747.163636 263.138325 
" style="fill:none;stroke:#ff0000;stroke-dasharray:5.55,2.4;stroke-dashoffset:0;stroke-width:1.5;"/>
   </g>
   <g id="patch_3">
    <path d="M 108 460.8 
L 108 69.12 
" style="fill:none;stroke:#000000;stroke-linecap:square;stroke-linejoin:miter;stroke-width:0.8;"/>
   </g>
   <g id="patch_4">
    <path d="M 777.6 460.8 
L 777.6 69.12 
" style="fill:none;stroke:#000000;stroke-linecap:square;stroke-linejoin:miter;stroke-width:0.8;"/>
   </g>
   <g id="patch_5">
    <path d="M 108 460.8 
L 777.6 460.8 
" style="fill:none;stroke:#000000;stroke-linecap:square;stroke-linejoin:miter;stroke-width:0.8;"/>
   </g>
   <g id="patch_6">
    <path d="M 108 69.12 
L 777.6 69.12 
" style="fill:none;stroke:#000000;stroke-linecap:square;stroke-linejoin:miter;stroke-width:0.8;"/>
   </g>
   <g id="text_20">
    <!-- Macau roadside 2020-2021 | Forecast vs Monitored | Random forest -->
    <g transform="translate(188.201953 63.12)scale(0.15 -0.15)">
     <defs>
      <path d="M 9.8125 72.90625 
L 24.515625 72.90625 
L 43.109375 23.296875 
L 61.8125 72.90625 
L 76.515625 72.90625 
L 76.515625 0 
L 66.890625 0 
L 66.890625 64.015625 
L 48.09375 14.015625 
L 38.1875 14.015625 
L 19.390625 64.015625 
L 19.390625 0 
L 9.8125 0 
z
" id="DejaVuSans-77"/>
      <path d="M 48.78125 52.59375 
L 48.78125 44.1875 
Q 44.96875 46.296875 41.140625 47.34375 
Q 37.3125 48.390625 33.40625 48.390625 
Q 24.65625 48.390625 19.8125 42.84375 
Q 14.984375 37.3125 14.984375 27.296875 
Q 14.984375 17.28125 19.8125 11.734375 
Q 24.65625 6.203125 33.40625 6.203125 
Q 37.3125 6.203125 41.140625 7.25 
Q 44.96875 8.296875 48.78125 10.40625 
L 48.78125 2.09375 
Q 45.015625 0.34375 40.984375 -0.53125 
Q 36.96875 -1.421875 32.421875 -1.421875 
Q 20.0625 -1.421875 12.78125 6.34375 
Q 5.515625 14.109375 5.515625 27.296875 
Q 5.515625 40.671875 12.859375 48.328125 
Q 20.21875 56 33.015625 56 
Q 37.15625 56 41.109375 55.140625 
Q 45.0625 54.296875 48.78125 52.59375 
z
" id="DejaVuSans-99"/>
      <path d="M 8.5 21.578125 
L 8.5 54.6875 
L 17.484375 54.6875 
L 17.484375 21.921875 
Q 17.484375 14.15625 20.5 10.265625 
Q 23.53125 6.390625 29.59375 6.390625 
Q 36.859375 6.390625 41.078125 11.03125 
Q 45.3125 15.671875 45.3125 23.6875 
L 45.3125 54.6875 
L 54.296875 54.6875 
L 54.296875 0 
L 45.3125 0 
L 45.3125 8.40625 
Q 42.046875 3.421875 37.71875 1 
Q 33.40625 -1.421875 27.6875 -1.421875 
Q 18.265625 -1.421875 13.375 4.4375 
Q 8.5 10.296875 8.5 21.578125 
z
M 31.109375 56 
z
" id="DejaVuSans-117"/>
      <path id="DejaVuSans-32"/>
      <path d="M 41.109375 46.296875 
Q 39.59375 47.171875 37.8125 47.578125 
Q 36.03125 48 33.890625 48 
Q 26.265625 48 22.1875 43.046875 
Q 18.109375 38.09375 18.109375 28.8125 
L 18.109375 0 
L 9.078125 0 
L 9.078125 54.6875 
L 18.109375 54.6875 
L 18.109375 46.1875 
Q 20.953125 51.171875 25.484375 53.578125 
Q 30.03125 56 36.53125 56 
Q 37.453125 56 38.578125 55.875 
Q 39.703125 55.765625 41.0625 55.515625 
z
" id="DejaVuSans-114"/>
      <path d="M 30.609375 48.390625 
Q 23.390625 48.390625 19.1875 42.75 
Q 14.984375 37.109375 14.984375 27.296875 
Q 14.984375 17.484375 19.15625 11.84375 
Q 23.34375 6.203125 30.609375 6.203125 
Q 37.796875 6.203125 41.984375 11.859375 
Q 46.1875 17.53125 46.1875 27.296875 
Q 46.1875 37.015625 41.984375 42.703125 
Q 37.796875 48.390625 30.609375 48.390625 
z
M 30.609375 56 
Q 42.328125 56 49.015625 48.375 
Q 55.71875 40.765625 55.71875 27.296875 
Q 55.71875 13.875 49.015625 6.21875 
Q 42.328125 -1.421875 30.609375 -1.421875 
Q 18.84375 -1.421875 12.171875 6.21875 
Q 5.515625 13.875 5.515625 27.296875 
Q 5.515625 40.765625 12.171875 48.375 
Q 18.84375 56 30.609375 56 
z
" id="DejaVuSans-111"/>
      <path d="M 45.40625 46.390625 
L 45.40625 75.984375 
L 54.390625 75.984375 
L 54.390625 0 
L 45.40625 0 
L 45.40625 8.203125 
Q 42.578125 3.328125 38.25 0.953125 
Q 33.9375 -1.421875 27.875 -1.421875 
Q 17.96875 -1.421875 11.734375 6.484375 
Q 5.515625 14.40625 5.515625 27.296875 
Q 5.515625 40.1875 11.734375 48.09375 
Q 17.96875 56 27.875 56 
Q 33.9375 56 38.25 53.625 
Q 42.578125 51.265625 45.40625 46.390625 
z
M 14.796875 27.296875 
Q 14.796875 17.390625 18.875 11.75 
Q 22.953125 6.109375 30.078125 6.109375 
Q 37.203125 6.109375 41.296875 11.75 
Q 45.40625 17.390625 45.40625 27.296875 
Q 45.40625 37.203125 41.296875 42.84375 
Q 37.203125 48.484375 30.078125 48.484375 
Q 22.953125 48.484375 18.875 42.84375 
Q 14.796875 37.203125 14.796875 27.296875 
z
" id="DejaVuSans-100"/>
      <path d="M 44.28125 53.078125 
L 44.28125 44.578125 
Q 40.484375 46.53125 36.375 47.5 
Q 32.28125 48.484375 27.875 48.484375 
Q 21.1875 48.484375 17.84375 46.4375 
Q 14.5 44.390625 14.5 40.28125 
Q 14.5 37.15625 16.890625 35.375 
Q 19.28125 33.59375 26.515625 31.984375 
L 29.59375 31.296875 
Q 39.15625 29.25 43.1875 25.515625 
Q 47.21875 21.78125 47.21875 15.09375 
Q 47.21875 7.46875 41.1875 3.015625 
Q 35.15625 -1.421875 24.609375 -1.421875 
Q 20.21875 -1.421875 15.453125 -0.5625 
Q 10.6875 0.296875 5.421875 2 
L 5.421875 11.28125 
Q 10.40625 8.6875 15.234375 7.390625 
Q 20.0625 6.109375 24.8125 6.109375 
Q 31.15625 6.109375 34.5625 8.28125 
Q 37.984375 10.453125 37.984375 14.40625 
Q 37.984375 18.0625 35.515625 20.015625 
Q 33.0625 21.96875 24.703125 23.78125 
L 21.578125 24.515625 
Q 13.234375 26.265625 9.515625 29.90625 
Q 5.8125 33.546875 5.8125 39.890625 
Q 5.8125 47.609375 11.28125 51.796875 
Q 16.75 56 26.8125 56 
Q 31.78125 56 36.171875 55.265625 
Q 40.578125 54.546875 44.28125 53.078125 
z
" id="DejaVuSans-115"/>
      <path d="M 9.421875 54.6875 
L 18.40625 54.6875 
L 18.40625 0 
L 9.421875 0 
z
M 9.421875 75.984375 
L 18.40625 75.984375 
L 18.40625 64.59375 
L 9.421875 64.59375 
z
" id="DejaVuSans-105"/>
      <path d="M 21 76.421875 
L 21 -23.578125 
L 12.703125 -23.578125 
L 12.703125 76.421875 
z
" id="DejaVuSans-124"/>
      <path d="M 9.8125 72.90625 
L 51.703125 72.90625 
L 51.703125 64.59375 
L 19.671875 64.59375 
L 19.671875 43.109375 
L 48.578125 43.109375 
L 48.578125 34.8125 
L 19.671875 34.8125 
L 19.671875 0 
L 9.8125 0 
z
" id="DejaVuSans-70"/>
      <path d="M 2.984375 54.6875 
L 12.5 54.6875 
L 29.59375 8.796875 
L 46.6875 54.6875 
L 56.203125 54.6875 
L 35.6875 0 
L 23.484375 0 
z
" id="DejaVuSans-118"/>
      <path d="M 54.890625 33.015625 
L 54.890625 0 
L 45.90625 0 
L 45.90625 32.71875 
Q 45.90625 40.484375 42.875 44.328125 
Q 39.84375 48.1875 33.796875 48.1875 
Q 26.515625 48.1875 22.3125 43.546875 
Q 18.109375 38.921875 18.109375 30.90625 
L 18.109375 0 
L 9.078125 0 
L 9.078125 54.6875 
L 18.109375 54.6875 
L 18.109375 46.1875 
Q 21.34375 51.125 25.703125 53.5625 
Q 30.078125 56 35.796875 56 
Q 45.21875 56 50.046875 50.171875 
Q 54.890625 44.34375 54.890625 33.015625 
z
" id="DejaVuSans-110"/>
      <path d="M 44.390625 34.1875 
Q 47.5625 33.109375 50.5625 29.59375 
Q 53.5625 26.078125 56.59375 19.921875 
L 66.609375 0 
L 56 0 
L 46.6875 18.703125 
Q 43.0625 26.03125 39.671875 28.421875 
Q 36.28125 30.8125 30.421875 30.8125 
L 19.671875 30.8125 
L 19.671875 0 
L 9.8125 0 
L 9.8125 72.90625 
L 32.078125 72.90625 
Q 44.578125 72.90625 50.734375 67.671875 
Q 56.890625 62.453125 56.890625 51.90625 
Q 56.890625 45.015625 53.6875 40.46875 
Q 50.484375 35.9375 44.390625 34.1875 
z
M 19.671875 64.796875 
L 19.671875 38.921875 
L 32.078125 38.921875 
Q 39.203125 38.921875 42.84375 42.21875 
Q 46.484375 45.515625 46.484375 51.90625 
Q 46.484375 58.296875 42.84375 61.546875 
Q 39.203125 64.796875 32.078125 64.796875 
z
" id="DejaVuSans-82"/>
      <path d="M 37.109375 75.984375 
L 37.109375 68.5 
L 28.515625 68.5 
Q 23.6875 68.5 21.796875 66.546875 
Q 19.921875 64.59375 19.921875 59.515625 
L 19.921875 54.6875 
L 34.71875 54.6875 
L 34.71875 47.703125 
L 19.921875 47.703125 
L 19.921875 0 
L 10.890625 0 
L 10.890625 47.703125 
L 2.296875 47.703125 
L 2.296875 54.6875 
L 10.890625 54.6875 
L 10.890625 58.5 
Q 10.890625 67.625 15.140625 71.796875 
Q 19.390625 75.984375 28.609375 75.984375 
z
" id="DejaVuSans-102"/>
     </defs>
     <use xlink:href="#DejaVuSans-77"/>
     <use x="86.279297" xlink:href="#DejaVuSans-97"/>
     <use x="147.558594" xlink:href="#DejaVuSans-99"/>
     <use x="202.539062" xlink:href="#DejaVuSans-97"/>
     <use x="263.818359" xlink:href="#DejaVuSans-117"/>
     <use x="327.197266" xlink:href="#DejaVuSans-32"/>
     <use x="358.984375" xlink:href="#DejaVuSans-114"/>
     <use x="397.847656" xlink:href="#DejaVuSans-111"/>
     <use x="459.029297" xlink:href="#DejaVuSans-97"/>
     <use x="520.308594" xlink:href="#DejaVuSans-100"/>
     <use x="583.785156" xlink:href="#DejaVuSans-115"/>
     <use x="635.884766" xlink:href="#DejaVuSans-105"/>
     <use x="663.667969" xlink:href="#DejaVuSans-100"/>
     <use x="727.144531" xlink:href="#DejaVuSans-101"/>
     <use x="788.667969" xlink:href="#DejaVuSans-32"/>
     <use x="820.455078" xlink:href="#DejaVuSans-50"/>
     <use x="884.078125" xlink:href="#DejaVuSans-48"/>
     <use x="947.701172" xlink:href="#DejaVuSans-50"/>
     <use x="1011.324219" xlink:href="#DejaVuSans-48"/>
     <use x="1074.947266" xlink:href="#DejaVuSans-45"/>
     <use x="1111.03125" xlink:href="#DejaVuSans-50"/>
     <use x="1174.654297" xlink:href="#DejaVuSans-48"/>
     <use x="1238.277344" xlink:href="#DejaVuSans-50"/>
     <use x="1301.900391" xlink:href="#DejaVuSans-49"/>
     <use x="1365.523438" xlink:href="#DejaVuSans-32"/>
     <use x="1397.310547" xlink:href="#DejaVuSans-124"/>
     <use x="1431.001953" xlink:href="#DejaVuSans-32"/>
     <use x="1462.789062" xlink:href="#DejaVuSans-70"/>
     <use x="1516.683594" xlink:href="#DejaVuSans-111"/>
     <use x="1577.865234" xlink:href="#DejaVuSans-114"/>
     <use x="1616.728516" xlink:href="#DejaVuSans-101"/>
     <use x="1678.251953" xlink:href="#DejaVuSans-99"/>
     <use x="1733.232422" xlink:href="#DejaVuSans-97"/>
     <use x="1794.511719" xlink:href="#DejaVuSans-115"/>
     <use x="1846.611328" xlink:href="#DejaVuSans-116"/>
     <use x="1885.820312" xlink:href="#DejaVuSans-32"/>
     <use x="1917.607422" xlink:href="#DejaVuSans-118"/>
     <use x="1976.787109" xlink:href="#DejaVuSans-115"/>
     <use x="2028.886719" xlink:href="#DejaVuSans-32"/>
     <use x="2060.673828" xlink:href="#DejaVuSans-77"/>
     <use x="2146.953125" xlink:href="#DejaVuSans-111"/>
     <use x="2208.134766" xlink:href="#DejaVuSans-110"/>
     <use x="2271.513672" xlink:href="#DejaVuSans-105"/>
     <use x="2299.296875" xlink:href="#DejaVuSans-116"/>
     <use x="2338.505859" xlink:href="#DejaVuSans-111"/>
     <use x="2399.6875" xlink:href="#DejaVuSans-114"/>
     <use x="2438.550781" xlink:href="#DejaVuSans-101"/>
     <use x="2500.074219" xlink:href="#DejaVuSans-100"/>
     <use x="2563.550781" xlink:href="#DejaVuSans-32"/>
     <use x="2595.337891" xlink:href="#DejaVuSans-124"/>
     <use x="2629.029297" xlink:href="#DejaVuSans-32"/>
     <use x="2660.816406" xlink:href="#DejaVuSans-82"/>
     <use x="2728.048828" xlink:href="#DejaVuSans-97"/>
     <use x="2789.328125" xlink:href="#DejaVuSans-110"/>
     <use x="2852.707031" xlink:href="#DejaVuSans-100"/>
     <use x="2916.183594" xlink:href="#DejaVuSans-111"/>
     <use x="2977.365234" xlink:href="#DejaVuSans-109"/>
     <use x="3074.777344" xlink:href="#DejaVuSans-32"/>
     <use x="3106.564453" xlink:href="#DejaVuSans-102"/>
     <use x="3141.769531" xlink:href="#DejaVuSans-111"/>
     <use x="3202.951172" xlink:href="#DejaVuSans-114"/>
     <use x="3241.814453" xlink:href="#DejaVuSans-101"/>
     <use x="3303.337891" xlink:href="#DejaVuSans-115"/>
     <use x="3355.4375" xlink:href="#DejaVuSans-116"/>
    </g>
   </g>
   <g id="legend_1">
    <g id="patch_7">
     <path d="M 613.996875 114.615 
L 769.2 114.615 
Q 771.6 114.615 771.6 112.215 
L 771.6 77.52 
Q 771.6 75.12 769.2 75.12 
L 613.996875 75.12 
Q 611.596875 75.12 611.596875 77.52 
L 611.596875 112.215 
Q 611.596875 114.615 613.996875 114.615 
z
" style="fill:#ffffff;opacity:0.8;stroke:#cccccc;stroke-linejoin:miter;"/>
    </g>
    <g id="line2d_20">
     <path d="M 616.396875 84.838125 
L 640.396875 84.838125 
" style="fill:none;stroke:#1f77b4;stroke-linecap:square;stroke-width:1.5;"/>
    </g>
    <g id="line2d_21"/>
    <g id="text_21">
     <!-- measured_data_CO -->
     <g transform="translate(649.996875 89.038125)scale(0.12 -0.12)">
      <defs>
       <path d="M 50.984375 -16.609375 
L 50.984375 -23.578125 
L -0.984375 -23.578125 
L -0.984375 -16.609375 
z
" id="DejaVuSans-95"/>
      </defs>
      <use xlink:href="#DejaVuSans-109"/>
      <use x="97.412109" xlink:href="#DejaVuSans-101"/>
      <use x="158.935547" xlink:href="#DejaVuSans-97"/>
      <use x="220.214844" xlink:href="#DejaVuSans-115"/>
      <use x="272.314453" xlink:href="#DejaVuSans-117"/>
      <use x="335.693359" xlink:href="#DejaVuSans-114"/>
      <use x="374.556641" xlink:href="#DejaVuSans-101"/>
      <use x="436.080078" xlink:href="#DejaVuSans-100"/>
      <use x="499.556641" xlink:href="#DejaVuSans-95"/>
      <use x="549.556641" xlink:href="#DejaVuSans-100"/>
      <use x="613.033203" xlink:href="#DejaVuSans-97"/>
      <use x="674.3125" xlink:href="#DejaVuSans-116"/>
      <use x="713.521484" xlink:href="#DejaVuSans-97"/>
      <use x="774.800781" xlink:href="#DejaVuSans-95"/>
      <use x="824.800781" xlink:href="#DejaVuSans-67"/>
      <use x="894.625" xlink:href="#DejaVuSans-79"/>
     </g>
    </g>
    <g id="line2d_22">
     <path d="M 616.396875 102.785625 
L 640.396875 102.785625 
" style="fill:none;stroke:#ff0000;stroke-dasharray:5.55,2.4;stroke-dashoffset:0;stroke-width:1.5;"/>
    </g>
    <g id="line2d_23"/>
    <g id="text_22">
     <!-- predicted_data_CO -->
     <g transform="translate(649.996875 106.985625)scale(0.12 -0.12)">
      <use xlink:href="#DejaVuSans-112"/>
      <use x="63.476562" xlink:href="#DejaVuSans-114"/>
      <use x="102.339844" xlink:href="#DejaVuSans-101"/>
      <use x="163.863281" xlink:href="#DejaVuSans-100"/>
      <use x="227.339844" xlink:href="#DejaVuSans-105"/>
      <use x="255.123047" xlink:href="#DejaVuSans-99"/>
      <use x="310.103516" xlink:href="#DejaVuSans-116"/>
      <use x="349.3125" xlink:href="#DejaVuSans-101"/>
      <use x="410.835938" xlink:href="#DejaVuSans-100"/>
      <use x="474.3125" xlink:href="#DejaVuSans-95"/>
      <use x="524.3125" xlink:href="#DejaVuSans-100"/>
      <use x="587.789062" xlink:href="#DejaVuSans-97"/>
      <use x="649.068359" xlink:href="#DejaVuSans-116"/>
      <use x="688.277344" xlink:href="#DejaVuSans-97"/>
      <use x="749.556641" xlink:href="#DejaVuSans-95"/>
      <use x="799.556641" xlink:href="#DejaVuSans-67"/>
      <use x="869.380859" xlink:href="#DejaVuSans-79"/>
     </g>
    </g>
   </g>
  </g>
 </g>
 <defs>
  <clipPath id="p3753ab0765">
   <rect height="391.68" width="669.6" x="108" y="69.12"/>
  </clipPath>
 </defs>
</svg>
