<?xml version="1.0" encoding="utf-8" standalone="no"?>
<!DOCTYPE svg PUBLIC "-//W3C//DTD SVG 1.1//EN"
  "http://www.w3.org/Graphics/SVG/1.1/DTD/svg11.dtd">
<!-- Created with matplotlib (https://matplotlib.org/) -->
<svg height="576pt" version="1.1" viewBox="0 0 864 576" width="864pt" xmlns="http://www.w3.org/2000/svg" xmlns:xlink="http://www.w3.org/1999/xlink">
 <metadata>
  <rdf:RDF xmlns:cc="http://creativecommons.org/ns#" xmlns:dc="http://purl.org/dc/elements/1.1/" xmlns:rdf="http://www.w3.org/1999/02/22-rdf-syntax-ns#">
   <cc:Work>
    <dc:type rdf:resource="http://purl.org/dc/dcmitype/StillImage"/>
    <dc:date>2024-03-08T15:32:19.717798</dc:date>
    <dc:format>image/svg+xml</dc:format>
    <dc:creator>
     <cc:Agent>
      <dc:title>Matplotlib v3.3.4, https://matplotlib.org/</dc:title>
     </cc:Agent>
    </dc:creator>
   </cc:Work>
  </rdf:RDF>
 </metadata>
 <defs>
  <style type="text/css">*{stroke-linecap:butt;stroke-linejoin:round;}</style>
 </defs>
 <g id="figure_1">
  <g id="patch_1">
   <path d="M 0 576 
L 864 576 
L 864 0 
L 0 0 
z
" style="fill:#ffffff;"/>
  </g>
  <g id="axes_1">
   <g id="patch_2">
    <path d="M 108 460.8 
L 777.6 460.8 
L 777.6 69.12 
L 108 69.12 
z
" style="fill:#ffffff;"/>
   </g>
   <g id="matplotlib.axis_1">
    <g id="xtick_1">
     <g id="line2d_1">
      <defs>
       <path d="M 0 0 
L 0 3.5 
" id="m7c85f3589b" style="stroke:#000000;stroke-width:0.8;"/>
      </defs>
      <g>
       <use style="stroke:#000000;stroke-width:0.8;" x="136.761736" xlink:href="#m7c85f3589b" y="460.8"/>
      </g>
     </g>
     <g id="text_1">
      <!-- 2020-01 -->
      <g transform="translate(92.091951 500.766215)rotate(-30)scale(0.12 -0.12)">
       <defs>
        <path d="M 19.1875 8.296875 
L 53.609375 8.296875 
L 53.609375 0 
L 7.328125 0 
L 7.328125 8.296875 
Q 12.9375 14.109375 22.625 23.890625 
Q 32.328125 33.6875 34.8125 36.53125 
Q 39.546875 41.84375 41.421875 45.53125 
Q 43.3125 49.21875 43.3125 52.78125 
Q 43.3125 58.59375 39.234375 62.25 
Q 35.15625 65.921875 28.609375 65.921875 
Q 23.96875 65.921875 18.8125 64.3125 
Q 13.671875 62.703125 7.8125 59.421875 
L 7.8125 69.390625 
Q 13.765625 71.78125 18.9375 73 
Q 24.125 74.21875 28.421875 74.21875 
Q 39.75 74.21875 46.484375 68.546875 
Q 53.21875 62.890625 53.21875 53.421875 
Q 53.21875 48.921875 51.53125 44.890625 
Q 49.859375 40.875 45.40625 35.40625 
Q 44.1875 33.984375 37.640625 27.21875 
Q 31.109375 20.453125 19.1875 8.296875 
z
" id="DejaVuSans-50"/>
        <path d="M 31.78125 66.40625 
Q 24.171875 66.40625 20.328125 58.90625 
Q 16.5 51.421875 16.5 36.375 
Q 16.5 21.390625 20.328125 13.890625 
Q 24.171875 6.390625 31.78125 6.390625 
Q 39.453125 6.390625 43.28125 13.890625 
Q 47.125 21.390625 47.125 36.375 
Q 47.125 51.421875 43.28125 58.90625 
Q 39.453125 66.40625 31.78125 66.40625 
z
M 31.78125 74.21875 
Q 44.046875 74.21875 50.515625 64.515625 
Q 56.984375 54.828125 56.984375 36.375 
Q 56.984375 17.96875 50.515625 8.265625 
Q 44.046875 -1.421875 31.78125 -1.421875 
Q 19.53125 -1.421875 13.0625 8.265625 
Q 6.59375 17.96875 6.59375 36.375 
Q 6.59375 54.828125 13.0625 64.515625 
Q 19.53125 74.21875 31.78125 74.21875 
z
" id="DejaVuSans-48"/>
        <path d="M 4.890625 31.390625 
L 31.203125 31.390625 
L 31.203125 23.390625 
L 4.890625 23.390625 
z
" id="DejaVuSans-45"/>
        <path d="M 12.40625 8.296875 
L 28.515625 8.296875 
L 28.515625 63.921875 
L 10.984375 60.40625 
L 10.984375 69.390625 
L 28.421875 72.90625 
L 38.28125 72.90625 
L 38.28125 8.296875 
L 54.390625 8.296875 
L 54.390625 0 
L 12.40625 0 
z
" id="DejaVuSans-49"/>
       </defs>
       <use xlink:href="#DejaVuSans-50"/>
       <use x="63.623047" xlink:href="#DejaVuSans-48"/>
       <use x="127.246094" xlink:href="#DejaVuSans-50"/>
       <use x="190.869141" xlink:href="#DejaVuSans-48"/>
       <use x="254.492188" xlink:href="#DejaVuSans-45"/>
       <use x="290.576172" xlink:href="#DejaVuSans-48"/>
       <use x="354.199219" xlink:href="#DejaVuSans-49"/>
      </g>
     </g>
    </g>
    <g id="xtick_2">
     <g id="line2d_2">
      <g>
       <use style="stroke:#000000;stroke-width:0.8;" x="212.957309" xlink:href="#m7c85f3589b" y="460.8"/>
      </g>
     </g>
     <g id="text_2">
      <!-- 2020-04 -->
      <g transform="translate(168.287524 500.766215)rotate(-30)scale(0.12 -0.12)">
       <defs>
        <path d="M 37.796875 64.3125 
L 12.890625 25.390625 
L 37.796875 25.390625 
z
M 35.203125 72.90625 
L 47.609375 72.90625 
L 47.609375 25.390625 
L 58.015625 25.390625 
L 58.015625 17.1875 
L 47.609375 17.1875 
L 47.609375 0 
L 37.796875 0 
L 37.796875 17.1875 
L 4.890625 17.1875 
L 4.890625 26.703125 
z
" id="DejaVuSans-52"/>
       </defs>
       <use xlink:href="#DejaVuSans-50"/>
       <use x="63.623047" xlink:href="#DejaVuSans-48"/>
       <use x="127.246094" xlink:href="#DejaVuSans-50"/>
       <use x="190.869141" xlink:href="#DejaVuSans-48"/>
       <use x="254.492188" xlink:href="#DejaVuSans-45"/>
       <use x="290.576172" xlink:href="#DejaVuSans-48"/>
       <use x="354.199219" xlink:href="#DejaVuSans-52"/>
      </g>
     </g>
    </g>
    <g id="xtick_3">
     <g id="line2d_3">
      <g>
       <use style="stroke:#000000;stroke-width:0.8;" x="289.152882" xlink:href="#m7c85f3589b" y="460.8"/>
      </g>
     </g>
     <g id="text_3">
      <!-- 2020-07 -->
      <g transform="translate(244.483097 500.766215)rotate(-30)scale(0.12 -0.12)">
       <defs>
        <path d="M 8.203125 72.90625 
L 55.078125 72.90625 
L 55.078125 68.703125 
L 28.609375 0 
L 18.3125 0 
L 43.21875 64.59375 
L 8.203125 64.59375 
z
" id="DejaVuSans-55"/>
       </defs>
       <use xlink:href="#DejaVuSans-50"/>
       <use x="63.623047" xlink:href="#DejaVuSans-48"/>
       <use x="127.246094" xlink:href="#DejaVuSans-50"/>
       <use x="190.869141" xlink:href="#DejaVuSans-48"/>
       <use x="254.492188" xlink:href="#DejaVuSans-45"/>
       <use x="290.576172" xlink:href="#DejaVuSans-48"/>
       <use x="354.199219" xlink:href="#DejaVuSans-55"/>
      </g>
     </g>
    </g>
    <g id="xtick_4">
     <g id="line2d_4">
      <g>
       <use style="stroke:#000000;stroke-width:0.8;" x="366.18577" xlink:href="#m7c85f3589b" y="460.8"/>
      </g>
     </g>
     <g id="text_4">
      <!-- 2020-10 -->
      <g transform="translate(321.515985 500.766215)rotate(-30)scale(0.12 -0.12)">
       <use xlink:href="#DejaVuSans-50"/>
       <use x="63.623047" xlink:href="#DejaVuSans-48"/>
       <use x="127.246094" xlink:href="#DejaVuSans-50"/>
       <use x="190.869141" xlink:href="#DejaVuSans-48"/>
       <use x="254.492188" xlink:href="#DejaVuSans-45"/>
       <use x="290.576172" xlink:href="#DejaVuSans-49"/>
       <use x="354.199219" xlink:href="#DejaVuSans-48"/>
      </g>
     </g>
    </g>
    <g id="xtick_5">
     <g id="line2d_5">
      <g>
       <use style="stroke:#000000;stroke-width:0.8;" x="443.218657" xlink:href="#m7c85f3589b" y="460.8"/>
      </g>
     </g>
     <g id="text_5">
      <!-- 2021-01 -->
      <g transform="translate(398.548872 500.766215)rotate(-30)scale(0.12 -0.12)">
       <use xlink:href="#DejaVuSans-50"/>
       <use x="63.623047" xlink:href="#DejaVuSans-48"/>
       <use x="127.246094" xlink:href="#DejaVuSans-50"/>
       <use x="190.869141" xlink:href="#DejaVuSans-49"/>
       <use x="254.492188" xlink:href="#DejaVuSans-45"/>
       <use x="290.576172" xlink:href="#DejaVuSans-48"/>
       <use x="354.199219" xlink:href="#DejaVuSans-49"/>
      </g>
     </g>
    </g>
    <g id="xtick_6">
     <g id="line2d_6">
      <g>
       <use style="stroke:#000000;stroke-width:0.8;" x="518.576916" xlink:href="#m7c85f3589b" y="460.8"/>
      </g>
     </g>
     <g id="text_6">
      <!-- 2021-04 -->
      <g transform="translate(473.907131 500.766215)rotate(-30)scale(0.12 -0.12)">
       <use xlink:href="#DejaVuSans-50"/>
       <use x="63.623047" xlink:href="#DejaVuSans-48"/>
       <use x="127.246094" xlink:href="#DejaVuSans-50"/>
       <use x="190.869141" xlink:href="#DejaVuSans-49"/>
       <use x="254.492188" xlink:href="#DejaVuSans-45"/>
       <use x="290.576172" xlink:href="#DejaVuSans-48"/>
       <use x="354.199219" xlink:href="#DejaVuSans-52"/>
      </g>
     </g>
    </g>
    <g id="xtick_7">
     <g id="line2d_7">
      <g>
       <use style="stroke:#000000;stroke-width:0.8;" x="594.77249" xlink:href="#m7c85f3589b" y="460.8"/>
      </g>
     </g>
     <g id="text_7">
      <!-- 2021-07 -->
      <g transform="translate(550.102705 500.766215)rotate(-30)scale(0.12 -0.12)">
       <use xlink:href="#DejaVuSans-50"/>
       <use x="63.623047" xlink:href="#DejaVuSans-48"/>
       <use x="127.246094" xlink:href="#DejaVuSans-50"/>
       <use x="190.869141" xlink:href="#DejaVuSans-49"/>
       <use x="254.492188" xlink:href="#DejaVuSans-45"/>
       <use x="290.576172" xlink:href="#DejaVuSans-48"/>
       <use x="354.199219" xlink:href="#DejaVuSans-55"/>
      </g>
     </g>
    </g>
    <g id="xtick_8">
     <g id="line2d_8">
      <g>
       <use style="stroke:#000000;stroke-width:0.8;" x="671.805377" xlink:href="#m7c85f3589b" y="460.8"/>
      </g>
     </g>
     <g id="text_8">
      <!-- 2021-10 -->
      <g transform="translate(627.135592 500.766215)rotate(-30)scale(0.12 -0.12)">
       <use xlink:href="#DejaVuSans-50"/>
       <use x="63.623047" xlink:href="#DejaVuSans-48"/>
       <use x="127.246094" xlink:href="#DejaVuSans-50"/>
       <use x="190.869141" xlink:href="#DejaVuSans-49"/>
       <use x="254.492188" xlink:href="#DejaVuSans-45"/>
       <use x="290.576172" xlink:href="#DejaVuSans-49"/>
       <use x="354.199219" xlink:href="#DejaVuSans-48"/>
      </g>
     </g>
    </g>
    <g id="xtick_9">
     <g id="line2d_9">
      <g>
       <use style="stroke:#000000;stroke-width:0.8;" x="748.838264" xlink:href="#m7c85f3589b" y="460.8"/>
      </g>
     </g>
     <g id="text_9">
      <!-- 2022-01 -->
      <g transform="translate(704.168479 500.766215)rotate(-30)scale(0.12 -0.12)">
       <use xlink:href="#DejaVuSans-50"/>
       <use x="63.623047" xlink:href="#DejaVuSans-48"/>
       <use x="127.246094" xlink:href="#DejaVuSans-50"/>
       <use x="190.869141" xlink:href="#DejaVuSans-50"/>
       <use x="254.492188" xlink:href="#DejaVuSans-45"/>
       <use x="290.576172" xlink:href="#DejaVuSans-48"/>
       <use x="354.199219" xlink:href="#DejaVuSans-49"/>
      </g>
     </g>
    </g>
    <g id="text_10">
     <!-- Date -->
     <g transform="translate(424.873828 518.325146)scale(0.15 -0.15)">
      <defs>
       <path d="M 19.671875 64.796875 
L 19.671875 8.109375 
L 31.59375 8.109375 
Q 46.6875 8.109375 53.6875 14.9375 
Q 60.6875 21.78125 60.6875 36.53125 
Q 60.6875 51.171875 53.6875 57.984375 
Q 46.6875 64.796875 31.59375 64.796875 
z
M 9.8125 72.90625 
L 30.078125 72.90625 
Q 51.265625 72.90625 61.171875 64.09375 
Q 71.09375 55.28125 71.09375 36.53125 
Q 71.09375 17.671875 61.125 8.828125 
Q 51.171875 0 30.078125 0 
L 9.8125 0 
z
" id="DejaVuSans-68"/>
       <path d="M 34.28125 27.484375 
Q 23.390625 27.484375 19.1875 25 
Q 14.984375 22.515625 14.984375 16.5 
Q 14.984375 11.71875 18.140625 8.90625 
Q 21.296875 6.109375 26.703125 6.109375 
Q 34.1875 6.109375 38.703125 11.40625 
Q 43.21875 16.703125 43.21875 25.484375 
L 43.21875 27.484375 
z
M 52.203125 31.203125 
L 52.203125 0 
L 43.21875 0 
L 43.21875 8.296875 
Q 40.140625 3.328125 35.546875 0.953125 
Q 30.953125 -1.421875 24.3125 -1.421875 
Q 15.921875 -1.421875 10.953125 3.296875 
Q 6 8.015625 6 15.921875 
Q 6 25.140625 12.171875 29.828125 
Q 18.359375 34.515625 30.609375 34.515625 
L 43.21875 34.515625 
L 43.21875 35.40625 
Q 43.21875 41.609375 39.140625 45 
Q 35.0625 48.390625 27.6875 48.390625 
Q 23 48.390625 18.546875 47.265625 
Q 14.109375 46.140625 10.015625 43.890625 
L 10.015625 52.203125 
Q 14.9375 54.109375 19.578125 55.046875 
Q 24.21875 56 28.609375 56 
Q 40.484375 56 46.34375 49.84375 
Q 52.203125 43.703125 52.203125 31.203125 
z
" id="DejaVuSans-97"/>
       <path d="M 18.3125 70.21875 
L 18.3125 54.6875 
L 36.8125 54.6875 
L 36.8125 47.703125 
L 18.3125 47.703125 
L 18.3125 18.015625 
Q 18.3125 11.328125 20.140625 9.421875 
Q 21.96875 7.515625 27.59375 7.515625 
L 36.8125 7.515625 
L 36.8125 0 
L 27.59375 0 
Q 17.1875 0 13.234375 3.875 
Q 9.28125 7.765625 9.28125 18.015625 
L 9.28125 47.703125 
L 2.6875 47.703125 
L 2.6875 54.6875 
L 9.28125 54.6875 
L 9.28125 70.21875 
z
" id="DejaVuSans-116"/>
       <path d="M 56.203125 29.59375 
L 56.203125 25.203125 
L 14.890625 25.203125 
Q 15.484375 15.921875 20.484375 11.0625 
Q 25.484375 6.203125 34.421875 6.203125 
Q 39.59375 6.203125 44.453125 7.46875 
Q 49.3125 8.734375 54.109375 11.28125 
L 54.109375 2.78125 
Q 49.265625 0.734375 44.1875 -0.34375 
Q 39.109375 -1.421875 33.890625 -1.421875 
Q 20.796875 -1.421875 13.15625 6.1875 
Q 5.515625 13.8125 5.515625 26.8125 
Q 5.515625 40.234375 12.765625 48.109375 
Q 20.015625 56 32.328125 56 
Q 43.359375 56 49.78125 48.890625 
Q 56.203125 41.796875 56.203125 29.59375 
z
M 47.21875 32.234375 
Q 47.125 39.59375 43.09375 43.984375 
Q 39.0625 48.390625 32.421875 48.390625 
Q 24.90625 48.390625 20.390625 44.140625 
Q 15.875 39.890625 15.1875 32.171875 
z
" id="DejaVuSans-101"/>
      </defs>
      <use xlink:href="#DejaVuSans-68"/>
      <use x="77.001953" xlink:href="#DejaVuSans-97"/>
      <use x="138.28125" xlink:href="#DejaVuSans-116"/>
      <use x="177.490234" xlink:href="#DejaVuSans-101"/>
     </g>
    </g>
   </g>
   <g id="matplotlib.axis_2">
    <g id="ytick_1">
     <g id="line2d_10">
      <defs>
       <path d="M 0 0 
L -3.5 0 
" id="maddb000f96" style="stroke:#000000;stroke-width:0.8;"/>
      </defs>
      <g>
       <use style="stroke:#000000;stroke-width:0.8;" x="108" xlink:href="#maddb000f96" y="451.66029"/>
      </g>
     </g>
     <g id="text_11">
      <!-- 0.50 -->
      <g transform="translate(74.28125 456.219352)scale(0.12 -0.12)">
       <defs>
        <path d="M 10.6875 12.40625 
L 21 12.40625 
L 21 0 
L 10.6875 0 
z
" id="DejaVuSans-46"/>
        <path d="M 10.796875 72.90625 
L 49.515625 72.90625 
L 49.515625 64.59375 
L 19.828125 64.59375 
L 19.828125 46.734375 
Q 21.96875 47.46875 24.109375 47.828125 
Q 26.265625 48.1875 28.421875 48.1875 
Q 40.625 48.1875 47.75 41.5 
Q 54.890625 34.8125 54.890625 23.390625 
Q 54.890625 11.625 47.5625 5.09375 
Q 40.234375 -1.421875 26.90625 -1.421875 
Q 22.3125 -1.421875 17.546875 -0.640625 
Q 12.796875 0.140625 7.71875 1.703125 
L 7.71875 11.625 
Q 12.109375 9.234375 16.796875 8.0625 
Q 21.484375 6.890625 26.703125 6.890625 
Q 35.15625 6.890625 40.078125 11.328125 
Q 45.015625 15.765625 45.015625 23.390625 
Q 45.015625 31 40.078125 35.4375 
Q 35.15625 39.890625 26.703125 39.890625 
Q 22.75 39.890625 18.8125 39.015625 
Q 14.890625 38.140625 10.796875 36.28125 
z
" id="DejaVuSans-53"/>
       </defs>
       <use xlink:href="#DejaVuSans-48"/>
       <use x="63.623047" xlink:href="#DejaVuSans-46"/>
       <use x="95.410156" xlink:href="#DejaVuSans-53"/>
       <use x="159.033203" xlink:href="#DejaVuSans-48"/>
      </g>
     </g>
    </g>
    <g id="ytick_2">
     <g id="line2d_11">
      <g>
       <use style="stroke:#000000;stroke-width:0.8;" x="108" xlink:href="#maddb000f96" y="403.859317"/>
      </g>
     </g>
     <g id="text_12">
      <!-- 0.75 -->
      <g transform="translate(74.28125 408.41838)scale(0.12 -0.12)">
       <use xlink:href="#DejaVuSans-48"/>
       <use x="63.623047" xlink:href="#DejaVuSans-46"/>
       <use x="95.410156" xlink:href="#DejaVuSans-55"/>
       <use x="159.033203" xlink:href="#DejaVuSans-53"/>
      </g>
     </g>
    </g>
    <g id="ytick_3">
     <g id="line2d_12">
      <g>
       <use style="stroke:#000000;stroke-width:0.8;" x="108" xlink:href="#maddb000f96" y="356.058344"/>
      </g>
     </g>
     <g id="text_13">
      <!-- 1.00 -->
      <g transform="translate(74.28125 360.617407)scale(0.12 -0.12)">
       <use xlink:href="#DejaVuSans-49"/>
       <use x="63.623047" xlink:href="#DejaVuSans-46"/>
       <use x="95.410156" xlink:href="#DejaVuSans-48"/>
       <use x="159.033203" xlink:href="#DejaVuSans-48"/>
      </g>
     </g>
    </g>
    <g id="ytick_4">
     <g id="line2d_13">
      <g>
       <use style="stroke:#000000;stroke-width:0.8;" x="108" xlink:href="#maddb000f96" y="308.257372"/>
      </g>
     </g>
     <g id="text_14">
      <!-- 1.25 -->
      <g transform="translate(74.28125 312.816434)scale(0.12 -0.12)">
       <use xlink:href="#DejaVuSans-49"/>
       <use x="63.623047" xlink:href="#DejaVuSans-46"/>
       <use x="95.410156" xlink:href="#DejaVuSans-50"/>
       <use x="159.033203" xlink:href="#DejaVuSans-53"/>
      </g>
     </g>
    </g>
    <g id="ytick_5">
     <g id="line2d_14">
      <g>
       <use style="stroke:#000000;stroke-width:0.8;" x="108" xlink:href="#maddb000f96" y="260.456399"/>
      </g>
     </g>
     <g id="text_15">
      <!-- 1.50 -->
      <g transform="translate(74.28125 265.015461)scale(0.12 -0.12)">
       <use xlink:href="#DejaVuSans-49"/>
       <use x="63.623047" xlink:href="#DejaVuSans-46"/>
       <use x="95.410156" xlink:href="#DejaVuSans-53"/>
       <use x="159.033203" xlink:href="#DejaVuSans-48"/>
      </g>
     </g>
    </g>
    <g id="ytick_6">
     <g id="line2d_15">
      <g>
       <use style="stroke:#000000;stroke-width:0.8;" x="108" xlink:href="#maddb000f96" y="212.655426"/>
      </g>
     </g>
     <g id="text_16">
      <!-- 1.75 -->
      <g transform="translate(74.28125 217.214489)scale(0.12 -0.12)">
       <use xlink:href="#DejaVuSans-49"/>
       <use x="63.623047" xlink:href="#DejaVuSans-46"/>
       <use x="95.410156" xlink:href="#DejaVuSans-55"/>
       <use x="159.033203" xlink:href="#DejaVuSans-53"/>
      </g>
     </g>
    </g>
    <g id="ytick_7">
     <g id="line2d_16">
      <g>
       <use style="stroke:#000000;stroke-width:0.8;" x="108" xlink:href="#maddb000f96" y="164.854453"/>
      </g>
     </g>
     <g id="text_17">
      <!-- 2.00 -->
      <g transform="translate(74.28125 169.413516)scale(0.12 -0.12)">
       <use xlink:href="#DejaVuSans-50"/>
       <use x="63.623047" xlink:href="#DejaVuSans-46"/>
       <use x="95.410156" xlink:href="#DejaVuSans-48"/>
       <use x="159.033203" xlink:href="#DejaVuSans-48"/>
      </g>
     </g>
    </g>
    <g id="ytick_8">
     <g id="line2d_17">
      <g>
       <use style="stroke:#000000;stroke-width:0.8;" x="108" xlink:href="#maddb000f96" y="117.053481"/>
      </g>
     </g>
     <g id="text_18">
      <!-- 2.25 -->
      <g transform="translate(74.28125 121.612543)scale(0.12 -0.12)">
       <use xlink:href="#DejaVuSans-50"/>
       <use x="63.623047" xlink:href="#DejaVuSans-46"/>
       <use x="95.410156" xlink:href="#DejaVuSans-50"/>
       <use x="159.033203" xlink:href="#DejaVuSans-53"/>
      </g>
     </g>
    </g>
    <g id="ytick_9">
     <g id="line2d_18">
      <g>
       <use style="stroke:#000000;stroke-width:0.8;" x="108" xlink:href="#maddb000f96" y="69.252508"/>
      </g>
     </g>
     <g id="text_19">
      <!-- 2.50 -->
      <g transform="translate(74.28125 73.81157)scale(0.12 -0.12)">
       <use xlink:href="#DejaVuSans-50"/>
       <use x="63.623047" xlink:href="#DejaVuSans-46"/>
       <use x="95.410156" xlink:href="#DejaVuSans-53"/>
       <use x="159.033203" xlink:href="#DejaVuSans-48"/>
      </g>
     </g>
    </g>
    <g id="text_20">
     <!-- CO(ppm) -->
     <g transform="translate(67.161719 298.781484)rotate(-90)scale(0.15 -0.15)">
      <defs>
       <path d="M 64.40625 67.28125 
L 64.40625 56.890625 
Q 59.421875 61.53125 53.78125 63.8125 
Q 48.140625 66.109375 41.796875 66.109375 
Q 29.296875 66.109375 22.65625 58.46875 
Q 16.015625 50.828125 16.015625 36.375 
Q 16.015625 21.96875 22.65625 14.328125 
Q 29.296875 6.6875 41.796875 6.6875 
Q 48.140625 6.6875 53.78125 8.984375 
Q 59.421875 11.28125 64.40625 15.921875 
L 64.40625 5.609375 
Q 59.234375 2.09375 53.4375 0.328125 
Q 47.65625 -1.421875 41.21875 -1.421875 
Q 24.65625 -1.421875 15.125 8.703125 
Q 5.609375 18.84375 5.609375 36.375 
Q 5.609375 53.953125 15.125 64.078125 
Q 24.65625 74.21875 41.21875 74.21875 
Q 47.75 74.21875 53.53125 72.484375 
Q 59.328125 70.75 64.40625 67.28125 
z
" id="DejaVuSans-67"/>
       <path d="M 39.40625 66.21875 
Q 28.65625 66.21875 22.328125 58.203125 
Q 16.015625 50.203125 16.015625 36.375 
Q 16.015625 22.609375 22.328125 14.59375 
Q 28.65625 6.59375 39.40625 6.59375 
Q 50.140625 6.59375 56.421875 14.59375 
Q 62.703125 22.609375 62.703125 36.375 
Q 62.703125 50.203125 56.421875 58.203125 
Q 50.140625 66.21875 39.40625 66.21875 
z
M 39.40625 74.21875 
Q 54.734375 74.21875 63.90625 63.9375 
Q 73.09375 53.65625 73.09375 36.375 
Q 73.09375 19.140625 63.90625 8.859375 
Q 54.734375 -1.421875 39.40625 -1.421875 
Q 24.03125 -1.421875 14.8125 8.828125 
Q 5.609375 19.09375 5.609375 36.375 
Q 5.609375 53.65625 14.8125 63.9375 
Q 24.03125 74.21875 39.40625 74.21875 
z
" id="DejaVuSans-79"/>
       <path d="M 31 75.875 
Q 24.46875 64.65625 21.28125 53.65625 
Q 18.109375 42.671875 18.109375 31.390625 
Q 18.109375 20.125 21.3125 9.0625 
Q 24.515625 -2 31 -13.1875 
L 23.1875 -13.1875 
Q 15.875 -1.703125 12.234375 9.375 
Q 8.59375 20.453125 8.59375 31.390625 
Q 8.59375 42.28125 12.203125 53.3125 
Q 15.828125 64.359375 23.1875 75.875 
z
" id="DejaVuSans-40"/>
       <path d="M 18.109375 8.203125 
L 18.109375 -20.796875 
L 9.078125 -20.796875 
L 9.078125 54.6875 
L 18.109375 54.6875 
L 18.109375 46.390625 
Q 20.953125 51.265625 25.265625 53.625 
Q 29.59375 56 35.59375 56 
Q 45.5625 56 51.78125 48.09375 
Q 58.015625 40.1875 58.015625 27.296875 
Q 58.015625 14.40625 51.78125 6.484375 
Q 45.5625 -1.421875 35.59375 -1.421875 
Q 29.59375 -1.421875 25.265625 0.953125 
Q 20.953125 3.328125 18.109375 8.203125 
z
M 48.6875 27.296875 
Q 48.6875 37.203125 44.609375 42.84375 
Q 40.53125 48.484375 33.40625 48.484375 
Q 26.265625 48.484375 22.1875 42.84375 
Q 18.109375 37.203125 18.109375 27.296875 
Q 18.109375 17.390625 22.1875 11.75 
Q 26.265625 6.109375 33.40625 6.109375 
Q 40.53125 6.109375 44.609375 11.75 
Q 48.6875 17.390625 48.6875 27.296875 
z
" id="DejaVuSans-112"/>
       <path d="M 52 44.1875 
Q 55.375 50.25 60.0625 53.125 
Q 64.75 56 71.09375 56 
Q 79.640625 56 84.28125 50.015625 
Q 88.921875 44.046875 88.921875 33.015625 
L 88.921875 0 
L 79.890625 0 
L 79.890625 32.71875 
Q 79.890625 40.578125 77.09375 44.375 
Q 74.3125 48.1875 68.609375 48.1875 
Q 61.625 48.1875 57.5625 43.546875 
Q 53.515625 38.921875 53.515625 30.90625 
L 53.515625 0 
L 44.484375 0 
L 44.484375 32.71875 
Q 44.484375 40.625 41.703125 44.40625 
Q 38.921875 48.1875 33.109375 48.1875 
Q 26.21875 48.1875 22.15625 43.53125 
Q 18.109375 38.875 18.109375 30.90625 
L 18.109375 0 
L 9.078125 0 
L 9.078125 54.6875 
L 18.109375 54.6875 
L 18.109375 46.1875 
Q 21.1875 51.21875 25.484375 53.609375 
Q 29.78125 56 35.6875 56 
Q 41.65625 56 45.828125 52.96875 
Q 50 49.953125 52 44.1875 
z
" id="DejaVuSans-109"/>
       <path d="M 8.015625 75.875 
L 15.828125 75.875 
Q 23.140625 64.359375 26.78125 53.3125 
Q 30.421875 42.28125 30.421875 31.390625 
Q 30.421875 20.453125 26.78125 9.375 
Q 23.140625 -1.703125 15.828125 -13.1875 
L 8.015625 -13.1875 
Q 14.5 -2 17.703125 9.0625 
Q 20.90625 20.125 20.90625 31.390625 
Q 20.90625 42.671875 17.703125 53.65625 
Q 14.5 64.65625 8.015625 75.875 
z
" id="DejaVuSans-41"/>
      </defs>
      <use xlink:href="#DejaVuSans-67"/>
      <use x="69.824219" xlink:href="#DejaVuSans-79"/>
      <use x="148.535156" xlink:href="#DejaVuSans-40"/>
      <use x="187.548828" xlink:href="#DejaVuSans-112"/>
      <use x="251.025391" xlink:href="#DejaVuSans-112"/>
      <use x="314.501953" xlink:href="#DejaVuSans-109"/>
      <use x="411.914062" xlink:href="#DejaVuSans-41"/>
     </g>
    </g>
   </g>
   <g id="line2d_19">
    <path clip-path="url(#p205a335b88)" d="M 138.436364 351.278247 
L 139.273678 392.20783 
L 140.110992 377.672697 
L 140.948306 306.763591 
L 141.78562 323.195176 
L 142.622934 316.722127 
L 143.460248 328.174444 
L 144.297562 308.356957 
L 145.134876 251.493716 
L 145.97219 256.871326 
L 146.809504 311.94203 
L 147.646818 333.352882 
L 148.484132 309.920014 
L 149.321446 200.008085 
L 150.15876 237.452181 
L 150.996074 232.373327 
L 151.833388 253.98335 
L 152.670702 283.161861 
L 153.508016 299.892201 
L 154.345329 354.464979 
L 155.182643 362.730564 
L 156.019957 376.075002 
L 156.857271 323.792688 
L 157.694585 347.095662 
L 158.531899 366.913149 
L 159.369213 355.560418 
L 160.206527 381.452611 
L 161.043841 372.987856 
L 161.881155 390.514879 
L 162.718469 385.933952 
L 163.555783 350.282394 
L 164.393097 332.556199 
L 165.230411 357.552125 
L 166.067725 399.577147 
L 166.905039 350.979491 
L 167.742353 358.149637 
L 168.579667 356.15793 
L 169.416981 336.340443 
L 170.254295 341.718053 
L 171.091609 328.4732 
L 171.928923 363.626832 
L 172.766237 372.191173 
L 173.603551 376.174587 
L 174.440865 336.539614 
L 175.278179 348.390272 
L 176.115493 372.987856 
L 176.952807 378.02403 
L 177.790121 408.440244 
L 178.627435 399.178805 
L 179.464749 375.079148 
L 180.302063 431.643633 
L 181.139377 411.52739 
L 181.976691 379.460904 
L 182.814005 368.334503 
L 183.651319 406.14978 
L 184.488633 387.92566 
L 185.325947 375.47749 
L 186.163261 369.701539 
L 187.000575 383.84266 
L 187.837889 394.896635 
L 188.675203 357.253369 
L 189.512517 343.70976 
L 190.349831 382.647636 
L 192.024459 415.510804 
L 192.861773 371.095734 
L 193.699087 293.319568 
L 194.536401 366.01688 
L 195.373715 356.3571 
L 196.211029 337.873192 
L 197.048343 326.546439 
L 197.885657 359.145491 
L 198.722971 400.672586 
L 200.397599 355.162076 
L 201.234913 339.527175 
L 202.072227 336.240858 
L 202.909541 370.697392 
L 203.746855 363.128905 
L 204.584169 325.286468 
L 205.421483 429.898268 
L 206.258797 411.626975 
L 207.096111 382.747221 
L 207.933425 399.377976 
L 208.770739 356.15793 
L 209.608053 418.996292 
L 210.445367 327.377761 
L 211.282681 282.863105 
L 212.119995 311.244932 
L 212.957309 388.12483 
L 213.794623 362.232637 
L 214.631937 316.622542 
L 215.469251 351.377833 
L 216.306565 349.884052 
L 217.143879 303.269444 
L 218.818507 401.768025 
L 219.655821 420.390487 
L 220.493135 367.610246 
L 221.330449 357.950466 
L 222.167763 392.307415 
L 223.005077 368.406929 
L 223.842391 335.842516 
L 224.679705 355.660003 
L 225.517019 381.452611 
L 226.354333 364.025173 
L 227.191647 378.564636 
L 228.028961 357.452539 
L 229.703589 383.84266 
L 230.540903 307.560274 
L 231.378217 307.659859 
L 232.215531 316.323786 
L 233.052845 283.460617 
L 233.890159 289.734495 
L 234.727473 385.33644 
L 235.564787 378.962977 
L 236.402101 381.850953 
L 237.239415 377.170441 
L 238.076729 365.81771 
L 238.914043 370.09988 
L 239.751357 362.730564 
L 240.588671 386.332294 
L 241.425985 383.942245 
L 242.263299 383.145562 
L 243.100613 387.527318 
L 243.937927 387.726489 
L 244.775241 378.066709 
L 245.612555 347.892345 
L 246.449869 290.531178 
L 248.124497 383.444318 
L 248.961811 379.958831 
L 250.636439 396.390415 
L 251.473753 338.630906 
L 252.311067 361.137198 
L 253.148381 414.28862 
L 253.985695 378.919679 
L 254.823009 334.249151 
L 255.660323 405.153927 
L 256.497637 442.996364 
L 257.334951 426.066852 
L 258.172265 366.813563 
L 259.009579 322.398493 
L 259.846893 384.440172 
L 260.684207 410.821633 
L 261.521521 360.639271 
L 262.358835 395.602786 
L 263.196149 376.134753 
L 264.033463 362.531393 
L 264.870777 409.236927 
L 265.708091 391.909074 
L 266.545405 369.303197 
L 267.382719 378.763806 
L 268.220033 371.693246 
L 269.057347 373.485782 
L 269.89466 355.460832 
L 270.731974 371.494075 
L 271.569288 379.27596 
L 272.406602 359.643417 
L 273.243916 392.506586 
L 274.08123 406.348951 
L 275.755858 347.537301 
L 276.593172 350.58115 
L 277.430486 347.99193 
L 278.2678 347.494003 
L 279.105114 353.668296 
L 279.942428 356.655857 
L 280.779742 332.954541 
L 281.617056 324.888127 
L 282.45437 344.406857 
L 283.291684 396.689171 
L 284.128998 376.274172 
L 284.966312 369.601953 
L 285.803626 371.494075 
L 286.64094 358.220769 
L 287.478254 330.365322 
L 288.315568 354.962905 
L 289.152882 349.485711 
L 289.990196 336.041687 
L 290.82751 343.908931 
L 291.664824 337.336297 
L 292.502138 307.85903 
L 293.339452 313.336225 
L 294.176766 312.240786 
L 295.01408 301.784323 
L 295.851394 329.469053 
L 296.688708 389.817781 
L 297.526022 396.091659 
L 298.363336 152.90421 
L 299.20065 340.722199 
L 300.037964 320.705542 
L 300.875278 352.772028 
L 301.712592 340.224272 
L 302.549906 346.000223 
L 303.38722 344.207687 
L 304.224534 313.972705 
L 305.061848 295.908787 
L 305.899162 338.431736 
L 306.736476 372.390343 
L 307.57379 365.021027 
L 308.411104 369.900709 
L 309.248418 385.13727 
L 310.923046 356.755442 
L 311.76036 350.182808 
L 312.597674 367.012734 
L 313.434988 389.917367 
L 314.272302 407.009836 
L 315.109616 397.58544 
L 315.94693 342.813492 
L 316.784244 335.444175 
L 317.621558 336.639199 
L 318.458872 350.879906 
L 319.296186 347.693174 
L 320.1335 331.460761 
L 320.970814 326.381907 
L 321.808128 292.921226 
L 322.645442 290.929519 
L 323.482756 300.98764 
L 324.32007 276.190886 
L 325.157384 262.732636 
L 325.994698 266.929447 
L 326.832012 300.190957 
L 327.669326 312.738713 
L 328.50664 291.32786 
L 329.343954 342.016809 
L 330.181268 322.89642 
L 331.018582 276.887983 
L 331.855896 282.464763 
L 332.69321 292.62247 
L 333.530524 244.423156 
L 334.367838 245.41901 
L 335.205152 291.32786 
L 336.87978 255.178375 
L 338.554408 278.979276 
L 339.391722 263.145204 
L 340.229036 163.958185 
L 342.740978 244.721912 
L 343.578292 252.589155 
L 344.415606 242.730205 
L 345.25292 260.157643 
L 346.090234 288.141129 
L 346.927548 267.228203 
L 347.764862 285.950251 
L 348.602176 295.012519 
L 349.43949 291.726202 
L 350.276804 317.020883 
L 351.114118 322.000151 
L 351.951432 328.274029 
L 352.788746 341.020955 
L 353.62606 307.759445 
L 354.463374 323.09559 
L 355.300688 344.606028 
L 356.138002 337.933809 
L 356.975316 326.282322 
L 357.81263 312.340371 
L 358.649944 304.074787 
L 359.487258 236.057986 
L 360.324572 233.767522 
L 361.161886 286.746934 
L 361.9992 304.473128 
L 362.836514 257.568423 
L 363.673828 322.398493 
L 364.511142 319.012591 
L 365.348456 378.46505 
L 366.18577 378.763806 
L 367.023084 360.838442 
L 367.860398 314.929591 
L 368.697712 330.564492 
L 369.535026 264.340228 
L 370.37234 271.908715 
L 371.209654 284.356885 
L 372.046968 270.116179 
L 372.884282 302.481421 
L 373.721596 316.2242 
L 374.55891 276.589227 
L 375.396224 381.552197 
L 376.233538 347.892345 
L 377.070852 338.033394 
L 377.908166 334.448321 
L 378.74548 350.879906 
L 379.582794 353.56871 
L 380.420108 355.660003 
L 381.257422 357.054198 
L 382.094736 358.747149 
L 382.93205 356.755442 
L 384.606678 418.299194 
L 385.443991 431.04612 
L 386.281305 441.104242 
L 387.118619 411.726561 
L 387.955933 398.880049 
L 388.793247 368.506514 
L 389.630561 349.087369 
L 390.467875 418.896707 
L 391.305189 419.89256 
L 392.142503 353.967052 
L 392.979817 343.908931 
L 393.817131 368.80527 
L 394.654445 414.714121 
L 395.491759 336.041687 
L 396.329073 331.759517 
L 397.166387 336.240858 
L 398.003701 363.527246 
L 398.841015 343.610174 
L 399.678329 364.323929 
L 400.515643 358.149637 
L 401.352957 340.124687 
L 402.190271 346.896491 
L 403.027585 334.946248 
L 403.864899 326.858185 
L 404.702213 350.966502 
L 405.539527 324.888127 
L 406.376841 286.746934 
L 407.214155 293.618324 
L 408.051469 293.120397 
L 408.888783 277.485495 
L 409.726097 270.912862 
L 410.563411 235.75923 
L 411.400725 273.004154 
L 412.238039 262.049765 
L 413.075353 223.808986 
L 413.912667 256.771741 
L 414.749981 257.369253 
L 415.587295 249.820682 
L 416.424609 292.722056 
L 417.261923 320.207615 
L 418.099237 335.045833 
L 418.936551 329.867395 
L 419.773865 325.485639 
L 420.611179 319.510517 
L 421.448493 254.60078 
L 422.285807 303.676445 
L 423.123121 263.344374 
L 423.960435 273.430949 
L 424.797749 285.986464 
L 425.635063 244.97304 
L 426.472377 288.004854 
L 427.309691 173.71755 
L 428.147005 219.327645 
L 428.984319 248.008229 
L 429.821633 256.762687 
L 430.658947 285.55191 
L 431.496261 326.680663 
L 432.333575 347.593589 
L 433.170889 337.137126 
L 434.008203 316.323786 
L 434.845517 277.286325 
L 436.520145 283.161861 
L 437.357459 304.074787 
L 438.194773 226.995718 
L 439.032087 277.883837 
L 439.869401 282.76352 
L 440.706715 233.269596 
L 441.544029 376.174587 
L 442.381343 412.161591 
L 443.218657 376.871685 
L 444.055971 328.971127 
L 444.893285 294.514592 
L 445.730599 251.991643 
L 446.567913 298.697177 
L 447.405227 220.52267 
L 449.079855 392.20783 
L 449.917169 367.709832 
L 450.754483 329.469053 
L 451.591797 317.020883 
L 453.266425 275.095447 
L 454.103739 225.103596 
L 454.941053 246.91279 
L 455.778367 210.591293 
L 456.615681 217.218246 
L 457.452995 225.764481 
L 458.290309 202.896061 
L 459.127623 230.580791 
L 459.964937 249.302839 
L 460.802251 229.146762 
L 461.639565 295.809202 
L 462.476879 244.622327 
L 463.314193 210.464548 
L 464.151507 211.360816 
L 464.988821 160.074356 
L 465.826135 228.290328 
L 466.663449 270.614106 
L 467.500763 273.701252 
L 469.175391 197.916793 
L 470.012705 232.771669 
L 470.850019 292.522885 
L 471.687333 383.145562 
L 472.524647 350.680735 
L 473.361961 378.26588 
L 474.199275 363.527246 
L 475.036589 391.909074 
L 475.873903 355.660003 
L 476.711217 305.07064 
L 477.548531 371.294904 
L 478.385845 392.606172 
L 479.223159 357.352954 
L 480.060473 357.253369 
L 480.897787 371.593661 
L 481.735101 337.037541 
L 482.572415 376.473343 
L 483.409729 384.340587 
L 484.247043 349.884052 
L 485.084357 347.693174 
L 485.921671 325.485639 
L 486.758985 364.423515 
L 487.596299 385.13727 
L 488.433613 379.75966 
L 489.270927 347.294833 
L 490.108241 299.593445 
L 490.945555 343.809345 
L 491.782869 310.149493 
L 492.620183 260.257228 
L 493.457497 375.47749 
L 494.294811 362.730564 
L 495.132125 360.041759 
L 495.969439 349.983637 
L 496.806753 310.249079 
L 497.644067 393.303269 
L 498.481381 383.543904 
L 499.318695 382.946392 
L 500.156009 378.066709 
L 500.993322 321.103883 
L 501.830636 351.676589 
L 502.66795 357.452539 
L 503.505264 357.751296 
L 504.342578 349.186955 
L 505.179892 361.435954 
L 506.017206 407.245219 
L 506.85452 388.821928 
L 507.691834 362.830149 
L 508.529148 298.995933 
L 509.366462 305.668152 
L 510.203776 334.149565 
L 511.04109 274.298764 
L 511.878404 349.884052 
L 512.715718 410.730707 
L 513.553032 372.788685 
L 514.390346 347.294833 
L 515.22766 361.236783 
L 516.064974 372.589514 
L 516.902288 365.917295 
L 517.739602 358.149637 
L 518.576916 357.751296 
L 519.41423 350.083223 
L 520.251544 278.083008 
L 521.088858 274.298764 
L 521.926172 314.431664 
L 522.763486 363.328076 
L 523.6008 343.211833 
L 524.438114 292.423299 
L 525.275428 363.128905 
L 526.112742 372.589514 
L 526.950056 329.96698 
L 527.78737 324.191029 
L 528.624684 340.224272 
L 529.461998 358.747149 
L 530.299312 346.996077 
L 531.136626 296.904641 
L 531.97394 339.228419 
L 532.811254 356.15793 
L 533.648568 366.713978 
L 534.485882 360.041759 
L 535.323196 321.900566 
L 536.16051 276.489642 
L 536.997824 358.149637 
L 537.835138 358.348808 
L 538.672452 373.286612 
L 539.509766 361.635125 
L 540.34708 293.817494 
L 541.184394 253.883765 
L 542.021708 259.062204 
L 542.859022 280.871398 
L 543.696336 286.249007 
L 544.53365 358.547978 
L 545.370964 335.842516 
L 546.208278 285.053983 
L 547.045592 345.801052 
L 547.882906 351.278247 
L 549.557534 400.573 
L 550.394848 396.888342 
L 551.232162 401.768025 
L 552.069476 386.830221 
L 552.90679 389.220269 
L 553.744104 389.021099 
L 554.581418 394.199537 
L 555.418732 398.680878 
L 556.256046 375.178734 
L 557.09336 375.776246 
L 557.930674 390.91322 
L 558.767988 375.278319 
L 559.605302 389.519025 
L 560.442616 390.016952 
L 561.27993 396.987927 
L 562.117244 360.141344 
L 562.954558 364.323929 
L 563.791872 354.962905 
L 564.629186 365.120612 
L 567.141128 371.892417 
L 567.978442 348.191101 
L 568.815756 352.07493 
L 569.65307 323.195176 
L 570.490384 323.358134 
L 571.327698 274.497935 
L 572.165012 295.809202 
L 573.002326 328.771956 
L 573.83964 376.772099 
L 574.676954 370.853884 
L 575.514268 379.261733 
L 576.351582 427.162291 
L 577.188896 432.241145 
L 578.02621 429.253584 
L 578.863524 432.141559 
L 579.700838 413.917439 
L 580.538152 388.622757 
L 581.375466 370.896563 
L 582.21278 391.709903 
L 583.050094 394.299123 
L 583.887408 387.726489 
L 584.724722 383.84266 
L 585.562036 359.543832 
L 586.39935 357.054198 
L 587.236664 306.265664 
L 588.073978 347.195247 
L 588.911292 314.929591 
L 589.748606 317.917152 
L 590.58592 363.128905 
L 591.423234 335.942102 
L 592.260548 346.099808 
L 593.097862 346.000223 
L 593.935176 343.012662 
L 594.77249 334.149565 
L 595.609804 336.937955 
L 596.447118 349.386125 
L 597.284432 370.896563 
L 598.121746 370.597807 
L 598.95906 358.149637 
L 600.633688 316.522957 
L 601.471002 331.759517 
L 602.308316 336.738785 
L 603.14563 298.597592 
L 603.982944 279.278032 
L 604.820258 288.639056 
L 605.657572 299.792616 
L 606.494886 245.518595 
L 607.3322 277.087154 
L 608.169514 299.693031 
L 609.006828 297.601738 
L 609.844142 291.925373 
L 610.681456 283.560202 
L 611.51877 246.91279 
L 612.356084 217.435523 
L 613.193398 221.518523 
L 614.030712 257.966765 
L 614.868026 242.630619 
L 615.70534 182.879404 
L 616.542653 203.393988 
L 617.379967 187.759086 
L 618.217281 241.33601 
L 619.054595 270.116179 
L 619.891909 273.701252 
L 620.729223 239.244717 
L 621.566537 313.933737 
L 622.403851 221.020596 
L 623.241165 210.364963 
L 624.078479 229.087011 
L 624.915793 267.427374 
L 625.753107 298.00008 
L 626.590421 298.896348 
L 627.427735 318.215908 
L 628.265049 341.419297 
L 629.102363 340.722199 
L 629.939677 307.161933 
L 630.776991 308.954469 
L 631.614305 330.962834 
L 632.451619 306.763591 
L 633.288933 297.103811 
L 634.126247 295.809202 
L 634.963561 266.132764 
L 635.800875 283.062276 
L 636.638189 290.232422 
L 637.475503 306.664006 
L 638.312817 315.029176 
L 639.150131 319.809273 
L 639.987445 323.593517 
L 640.824759 322.398493 
L 641.662073 316.124615 
L 642.499387 315.427518 
L 643.336701 315.228347 
L 644.174015 298.697177 
L 645.011329 286.946105 
L 645.848643 334.149565 
L 646.685957 341.817638 
L 647.523271 319.311347 
L 648.360585 341.220126 
L 649.197899 342.016809 
L 650.035213 316.522957 
L 650.872527 326.282322 
L 651.709841 314.431664 
L 652.547155 299.892201 
L 653.384469 335.245004 
L 655.059097 274.199179 
L 655.896411 254.182521 
L 656.733725 280.672227 
L 657.571039 257.468838 
L 658.408353 265.535252 
L 659.245667 296.008372 
L 660.082981 338.531321 
L 660.920295 365.518954 
L 661.757609 325.88398 
L 662.594923 305.867323 
L 663.432237 378.166294 
L 664.269551 360.539686 
L 665.106865 363.427661 
L 665.944179 353.56871 
L 666.781493 313.43581 
L 667.618807 301.585153 
L 668.456121 278.979276 
L 669.293435 263.742716 
L 670.130749 234.862961 
L 670.968063 269.917008 
L 671.805377 313.734566 
L 672.642691 346.199394 
L 673.480005 339.726345 
L 674.317319 341.518882 
L 675.154633 339.726345 
L 675.991947 348.788613 
L 676.829261 355.859174 
L 677.666575 381.552197 
L 678.503889 318.415078 
L 679.341203 223.111889 
L 680.178517 279.875544 
L 681.015831 375.875831 
L 681.853145 328.871541 
L 682.690459 250.896204 
L 683.527773 246.016522 
L 684.365087 301.087226 
L 685.202401 308.954469 
L 686.039715 297.302982 
L 686.877029 310.547835 
L 687.714343 265.535252 
L 688.551657 265.136911 
L 689.388971 273.502081 
L 690.226285 279.377617 
L 691.063599 286.249007 
L 691.900913 255.078789 
L 692.738227 280.473056 
L 693.575541 298.398421 
L 694.412855 300.688884 
L 695.250169 266.033179 
L 696.087483 308.556128 
L 696.924797 294.116251 
L 697.762111 320.605956 
L 698.599425 299.294689 
L 699.436739 321.103883 
L 701.111367 302.182665 
L 701.948681 340.423443 
L 702.785995 309.551981 
L 703.623309 352.971198 
L 704.460623 317.717981 
L 705.297937 274.796691 
L 706.135251 298.796762 
L 706.972565 304.572713 
L 707.809879 314.232493 
L 708.647193 292.024958 
L 709.484507 305.468982 
L 710.321821 346.697321 
L 711.159135 362.085424 
L 711.996449 344.315932 
L 712.833763 401.053608 
L 713.671077 391.493413 
L 714.508391 303.58119 
L 715.345705 332.469604 
L 716.183019 346.29032 
L 717.020333 318.752803 
L 717.857647 331.222622 
L 718.694961 357.617072 
L 720.369589 325.195542 
L 721.206903 302.645953 
L 722.044217 373.827836 
L 722.881531 371.126042 
L 723.718845 377.776612 
L 724.556159 389.622941 
L 725.393473 363.22849 
L 726.230787 342.341544 
L 727.068101 358.448393 
L 727.905415 397.416577 
L 729.580043 360.838442 
L 730.417357 367.696842 
L 731.254671 339.431919 
L 732.091984 258.585926 
L 732.929298 271.055745 
L 734.603926 348.992114 
L 735.44124 287.47434 
L 736.278554 310.64742 
L 737.115868 359.383629 
L 737.953182 371.376383 
L 738.790496 336.210549 
L 739.62781 337.04187 
L 740.465124 289.033067 
L 741.302438 274.484945 
L 742.139752 327.273846 
L 742.977066 327.16993 
L 743.81438 331.638282 
L 745.489008 264.50909 
L 746.326322 290.69571 
L 747.163636 295.475807 
L 747.163636 295.475807 
" style="fill:none;stroke:#1f77b4;stroke-linecap:square;stroke-width:1.5;"/>
   </g>
   <g id="line2d_20">
    <path clip-path="url(#p205a335b88)" d="M 138.436364 256.563329 
L 139.273678 225.951795 
L 140.110992 213.163602 
L 140.948306 226.506378 
L 141.78562 183.941911 
L 142.622934 263.04722 
L 143.460248 144.227401 
L 144.297562 107.585198 
L 145.134876 143.688659 
L 145.97219 238.769892 
L 146.809504 209.707503 
L 147.646818 188.532386 
L 148.484132 192.159344 
L 149.321446 172.85412 
L 150.15876 102.007363 
L 150.996074 193.375593 
L 151.833388 140.99308 
L 152.670702 112.206763 
L 153.508016 163.589791 
L 154.345329 150.51511 
L 155.182643 288.080487 
L 156.019957 278.845812 
L 156.857271 224.052932 
L 157.694585 127.116668 
L 158.531899 252.356328 
L 159.369213 256.136502 
L 160.206527 258.734275 
L 161.043841 332.028689 
L 161.881155 287.433135 
L 162.718469 250.835538 
L 164.393097 155.881423 
L 165.230411 159.901474 
L 166.067725 153.502579 
L 166.905039 161.671828 
L 167.742353 168.462379 
L 168.579667 182.199205 
L 169.416981 189.664665 
L 170.254295 194.406214 
L 171.091609 132.238637 
L 171.928923 144.555168 
L 172.766237 120.125377 
L 173.603551 132.915598 
L 174.440865 213.325708 
L 175.278179 208.640413 
L 176.115493 295.142346 
L 176.952807 314.191648 
L 177.790121 267.209501 
L 178.627435 201.84275 
L 179.464749 340.471798 
L 180.302063 375.86216 
L 181.139377 230.34545 
L 181.976691 206.472567 
L 182.814005 219.516933 
L 183.651319 361.40077 
L 184.488633 226.557002 
L 185.325947 152.37258 
L 186.163261 228.944188 
L 187.000575 258.309044 
L 187.837889 171.484358 
L 188.675203 224.359274 
L 189.512517 150.811924 
L 190.349831 191.48537 
L 191.187145 181.296249 
L 192.024459 156.371433 
L 192.861773 121.338526 
L 193.699087 126.149276 
L 194.536401 224.788426 
L 195.373715 164.089283 
L 197.048343 133.811556 
L 197.885657 284.960862 
L 198.722971 224.299966 
L 199.560285 227.507892 
L 200.397599 231.485616 
L 201.234913 177.596262 
L 202.072227 143.398136 
L 202.909541 172.867727 
L 203.746855 165.537887 
L 204.584169 190.66317 
L 205.421483 320.034728 
L 206.258797 293.134463 
L 207.096111 258.398394 
L 207.933425 180.885127 
L 208.770739 149.787685 
L 209.608053 161.441251 
L 210.445367 142.726099 
L 211.282681 143.961677 
L 212.119995 178.257996 
L 212.957309 196.00726 
L 213.794623 163.659402 
L 214.631937 199.817362 
L 215.469251 204.070656 
L 216.306565 142.798901 
L 217.143879 112.887553 
L 217.981193 147.55367 
L 218.818507 191.172646 
L 219.655821 300.889125 
L 220.493135 330.53566 
L 221.330449 221.847819 
L 222.167763 236.571913 
L 223.005077 331.55534 
L 223.842391 329.595643 
L 224.679705 301.840425 
L 225.517019 295.506765 
L 226.354333 320.437006 
L 227.191647 240.28601 
L 228.028961 218.312445 
L 228.866275 285.057801 
L 229.703589 311.844145 
L 230.540903 209.502546 
L 231.378217 213.898025 
L 232.215531 178.440023 
L 233.052845 151.031058 
L 233.890159 175.970622 
L 234.727473 286.897994 
L 235.564787 377.90837 
L 236.402101 353.685336 
L 237.239415 295.09815 
L 238.076729 278.394961 
L 238.914043 279.97139 
L 239.751357 338.949663 
L 240.588671 307.442626 
L 241.425985 310.325634 
L 242.263299 261.501243 
L 243.100613 284.347039 
L 243.937927 242.861468 
L 244.775241 245.288725 
L 245.612555 245.998667 
L 246.449869 349.131558 
L 247.287183 233.526025 
L 248.124497 191.801307 
L 248.961811 368.546566 
L 249.799125 238.402806 
L 250.636439 216.849663 
L 251.473753 192.252477 
L 252.311067 158.585116 
L 253.148381 256.117174 
L 253.985695 225.62152 
L 254.823009 180.319033 
L 255.660323 220.857428 
L 256.497637 253.511583 
L 257.334951 254.872433 
L 258.172265 227.691902 
L 259.009579 306.106643 
L 259.846893 228.688607 
L 260.684207 215.931185 
L 261.521521 213.335851 
L 262.358835 243.832416 
L 263.196149 190.985627 
L 264.033463 191.531138 
L 264.870777 242.987811 
L 265.708091 269.366725 
L 266.545405 263.045829 
L 267.382719 255.109278 
L 268.220033 215.754036 
L 269.057347 255.777691 
L 269.89466 177.144362 
L 272.406602 374.985428 
L 273.243916 368.155034 
L 274.08123 321.784819 
L 274.918544 246.870647 
L 275.755858 252.303425 
L 276.593172 285.301598 
L 277.430486 348.112926 
L 278.2678 309.699252 
L 279.105114 324.605327 
L 279.942428 363.129287 
L 280.779742 251.157538 
L 281.617056 232.45474 
L 282.45437 268.87341 
L 283.291684 249.381213 
L 284.128998 223.478496 
L 284.966312 242.494428 
L 285.803626 334.855899 
L 286.64094 364.419672 
L 287.478254 257.047687 
L 288.315568 238.332124 
L 289.152882 226.904303 
L 289.990196 230.717551 
L 290.82751 239.253224 
L 291.664824 250.433214 
L 292.502138 285.833252 
L 293.339452 291.976177 
L 294.176766 259.44864 
L 295.01408 244.737606 
L 295.851394 192.826936 
L 296.688708 233.917294 
L 297.526022 344.889067 
L 298.363336 180.79539 
L 299.20065 284.090067 
L 300.037964 322.302112 
L 300.875278 262.766817 
L 301.712592 269.77477 
L 302.549906 335.42377 
L 303.38722 358.664574 
L 304.224534 246.212536 
L 305.061848 198.679544 
L 305.899162 258.497043 
L 306.736476 335.522032 
L 307.57379 360.004101 
L 308.411104 326.188116 
L 309.248418 326.0948 
L 310.085732 328.243181 
L 310.923046 337.068625 
L 311.76036 301.015012 
L 312.597674 302.336908 
L 313.434988 310.885642 
L 314.272302 222.834472 
L 315.109616 222.593319 
L 315.94693 244.90427 
L 316.784244 185.245025 
L 317.621558 226.037498 
L 318.458872 217.410583 
L 319.296186 302.364579 
L 320.1335 263.617006 
L 320.970814 302.41142 
L 321.808128 280.471155 
L 322.645442 236.635119 
L 323.482756 234.36778 
L 324.32007 176.347121 
L 325.157384 173.448454 
L 325.994698 288.078321 
L 326.832012 268.304763 
L 328.50664 238.235253 
L 329.343954 218.995286 
L 330.181268 219.985996 
L 331.018582 258.199933 
L 331.855896 253.343163 
L 332.69321 299.021717 
L 333.530524 261.294417 
L 334.367838 240.413812 
L 335.205152 257.408071 
L 336.042466 228.447408 
L 336.87978 175.866753 
L 337.717094 203.864263 
L 338.554408 297.971539 
L 339.391722 252.328748 
L 340.229036 234.694796 
L 342.740978 202.185743 
L 343.578292 147.399314 
L 344.415606 209.614278 
L 345.25292 254.394708 
L 346.090234 200.806362 
L 346.927548 155.949119 
L 348.602176 244.267312 
L 349.43949 219.646216 
L 350.276804 176.16922 
L 351.114118 254.428146 
L 351.951432 238.144445 
L 352.788746 226.489443 
L 353.62606 223.057094 
L 354.463374 237.116149 
L 355.300688 248.981624 
L 356.138002 202.081578 
L 356.975316 264.946994 
L 357.81263 219.281524 
L 358.649944 251.470262 
L 359.487258 195.07734 
L 360.324572 184.947345 
L 361.161886 208.141399 
L 362.836514 166.057255 
L 363.673828 259.163427 
L 364.511142 162.605577 
L 365.348456 260.275466 
L 366.18577 272.472469 
L 367.023084 274.238151 
L 367.860398 315.608455 
L 368.697712 238.541891 
L 369.535026 243.289845 
L 370.37234 174.483133 
L 371.209654 140.085589 
L 372.046968 144.119407 
L 372.884282 239.455195 
L 373.721596 282.199365 
L 374.55891 282.071973 
L 375.396224 292.043873 
L 376.233538 213.451253 
L 377.070852 233.407705 
L 377.908166 239.99168 
L 378.74548 278.17471 
L 379.582794 210.154206 
L 380.420108 255.548162 
L 382.094736 297.260868 
L 382.93205 245.882581 
L 383.769364 298.473402 
L 384.606678 220.198338 
L 385.443991 249.102109 
L 387.118619 398.337782 
L 387.955933 362.23383 
L 388.793247 247.310808 
L 389.630561 238.065056 
L 390.467875 194.59182 
L 391.305189 279.09998 
L 392.142503 294.64404 
L 392.979817 302.210223 
L 393.817131 259.676025 
L 394.654445 294.412733 
L 395.491759 375.632404 
L 396.329073 280.479475 
L 397.166387 249.940788 
L 398.003701 277.364773 
L 398.841015 174.666732 
L 399.678329 216.349123 
L 400.515643 319.781973 
L 401.352957 313.914983 
L 402.190271 208.776648 
L 403.027585 163.162417 
L 403.864899 185.497279 
L 404.702213 294.721423 
L 405.539527 218.06393 
L 406.376841 112.670242 
L 407.214155 149.92563 
L 408.051469 211.160734 
L 408.888783 167.958214 
L 409.726097 203.57219 
L 410.563411 127.454692 
L 411.400725 204.154399 
L 412.238039 144.911291 
L 413.075353 206.412666 
L 413.912667 197.12192 
L 414.749981 159.556383 
L 415.587295 190.49548 
L 416.424609 198.874974 
L 417.261923 261.160164 
L 418.099237 287.470425 
L 418.936551 309.359997 
L 419.773865 279.800828 
L 420.611179 314.201016 
L 422.285807 269.615742 
L 423.123121 254.932607 
L 423.960435 178.295559 
L 424.797749 184.193959 
L 425.635063 149.303054 
L 426.472377 136.474404 
L 427.309691 94.974177 
L 428.147005 106.297924 
L 428.984319 172.543311 
L 429.821633 188.154109 
L 430.658947 224.829818 
L 431.496261 211.528481 
L 432.333575 203.315355 
L 433.170889 243.647381 
L 434.008203 258.905407 
L 434.845517 184.605218 
L 435.682831 139.309569 
L 436.520145 158.700678 
L 437.357459 164.754938 
L 438.194773 139.829529 
L 439.032087 189.332727 
L 439.869401 289.989264 
L 440.706715 167.751867 
L 442.381343 330.060238 
L 443.218657 337.469672 
L 444.055971 310.781636 
L 444.893285 236.253423 
L 445.730599 249.897936 
L 446.567913 124.232817 
L 447.405227 161.961393 
L 448.242541 145.632105 
L 449.079855 170.348249 
L 449.917169 244.751624 
L 450.754483 209.645938 
L 451.591797 225.94327 
L 452.429111 299.695144 
L 453.266425 326.648494 
L 454.103739 249.971627 
L 454.941053 233.595225 
L 455.778367 198.37767 
L 456.615681 143.209453 
L 457.452995 315.625391 
L 458.290309 202.649655 
L 459.127623 215.997286 
L 459.964937 126.137059 
L 460.802251 200.559283 
L 461.639565 202.729659 
L 462.476879 149.700296 
L 463.314193 135.713108 
L 464.151507 174.9333 
L 464.988821 119.463642 
L 465.826135 113.542586 
L 466.663449 228.804169 
L 468.338077 249.098462 
L 469.175391 207.961013 
L 470.012705 224.999811 
L 470.850019 172.401491 
L 471.687333 323.667316 
L 472.524647 313.660131 
L 473.361961 333.363326 
L 474.199275 295.224425 
L 475.036589 270.306105 
L 475.873903 236.559126 
L 476.711217 168.446082 
L 477.548531 197.846359 
L 478.385845 319.880691 
L 479.223159 305.345051 
L 480.897787 332.130734 
L 481.735101 277.343621 
L 482.572415 327.375235 
L 483.409729 319.550713 
L 484.247043 295.676302 
L 485.084357 293.436246 
L 485.921671 276.179409 
L 486.758985 315.507686 
L 487.596299 367.319627 
L 488.433613 264.685601 
L 489.270927 262.95395 
L 490.108241 121.724872 
L 490.945555 151.647708 
L 491.782869 166.702122 
L 492.620183 86.923636 
L 493.457497 231.682595 
L 494.294811 181.354987 
L 495.132125 180.25234 
L 495.969439 129.79114 
L 496.806753 122.610391 
L 497.644067 167.608474 
L 498.481381 182.8833 
L 499.318695 277.633985 
L 500.156009 186.505676 
L 500.993322 212.139591 
L 501.830636 329.1039 
L 502.66795 246.225437 
L 503.505264 288.382589 
L 504.342578 320.174656 
L 506.017206 362.1466 
L 506.85452 241.95482 
L 507.691834 222.717497 
L 508.529148 250.62552 
L 509.366462 210.066862 
L 510.203776 236.945085 
L 511.04109 182.894309 
L 511.878404 180.571127 
L 512.715718 237.910152 
L 513.553032 260.03682 
L 514.390346 228.754434 
L 515.22766 238.694902 
L 516.064974 229.794195 
L 516.902288 257.090675 
L 517.739602 217.959172 
L 518.576916 240.247261 
L 519.41423 244.693227 
L 520.251544 190.710011 
L 521.088858 189.634077 
L 521.926172 121.054339 
L 522.763486 233.683253 
L 523.6008 309.681974 
L 525.275428 183.176672 
L 526.112742 236.489903 
L 526.950056 371.23982 
L 527.78737 321.638189 
L 528.624684 322.43486 
L 529.461998 261.737404 
L 530.299312 155.992836 
L 531.136626 172.055352 
L 531.97394 151.642967 
L 532.811254 203.451842 
L 533.648568 207.912053 
L 534.485882 184.872652 
L 535.323196 325.447676 
L 536.16051 365.441631 
L 537.835138 248.094441 
L 538.672452 254.784268 
L 539.509766 231.014456 
L 540.34708 180.037285 
L 541.184394 166.413514 
L 542.021708 220.637884 
L 542.859022 194.168617 
L 543.696336 120.160113 
L 544.53365 235.165545 
L 545.370964 214.585584 
L 546.208278 214.618634 
L 547.045592 289.230453 
L 547.882906 248.209319 
L 548.72022 304.452991 
L 549.557534 391.619018 
L 550.394848 288.577243 
L 551.232162 310.547253 
L 552.069476 380.27315 
L 552.90679 312.976561 
L 553.744104 285.644045 
L 554.581418 302.990004 
L 555.418732 378.688003 
L 556.256046 357.316317 
L 557.09336 318.960116 
L 557.930674 323.426459 
L 558.767988 375.718494 
L 559.605302 289.846191 
L 560.442616 323.563652 
L 561.27993 382.100727 
L 562.117244 380.006275 
L 562.954558 299.618878 
L 563.791872 233.936828 
L 564.629186 366.576623 
L 565.4665 405.659154 
L 566.303814 351.029258 
L 567.141128 275.117333 
L 567.978442 237.444098 
L 568.815756 219.965322 
L 569.65307 257.498401 
L 570.490384 177.196194 
L 571.327698 227.780545 
L 572.165012 218.612951 
L 573.002326 184.233163 
L 573.83964 321.575895 
L 574.676954 335.579038 
L 575.514268 341.427429 
L 576.351582 310.418653 
L 577.188896 308.844846 
L 578.02621 367.380382 
L 578.863524 301.100236 
L 579.700838 215.674373 
L 580.538152 286.283442 
L 581.375466 286.649866 
L 582.21278 375.654844 
L 583.050094 373.758956 
L 583.887408 375.560115 
L 584.724722 347.429629 
L 585.562036 281.397816 
L 586.39935 248.236488 
L 587.236664 201.082184 
L 588.073978 201.307199 
L 588.911292 271.694671 
L 589.748606 190.899126 
L 590.58592 218.426457 
L 591.423234 223.540631 
L 592.260548 249.527523 
L 593.097862 204.826436 
L 593.935176 176.199945 
L 594.77249 239.490479 
L 595.609804 261.852966 
L 596.447118 246.904084 
L 597.284432 290.584989 
L 598.121746 353.533852 
L 598.95906 343.42991 
L 599.796374 316.283478 
L 600.633688 322.768258 
L 601.471002 357.363055 
L 602.308316 337.796505 
L 603.14563 296.661815 
L 603.982944 272.819109 
L 604.820258 315.190654 
L 605.657572 338.465967 
L 606.494886 314.794621 
L 607.3322 269.05644 
L 608.169514 170.918286 
L 609.006828 161.45634 
L 609.844142 170.885966 
L 610.681456 239.058615 
L 611.51877 217.641889 
L 612.356084 265.20335 
L 613.193398 251.053168 
L 614.868026 207.574234 
L 615.70534 266.604316 
L 616.542653 229.658233 
L 617.379967 160.232295 
L 618.217281 162.070619 
L 619.054595 183.963473 
L 619.891909 202.901293 
L 620.729223 253.866201 
L 621.566537 216.917724 
L 622.403851 218.564789 
L 623.241165 170.323131 
L 624.078479 170.811454 
L 624.915793 180.601715 
L 625.753107 181.372515 
L 626.590421 165.73245 
L 627.427735 188.001645 
L 628.265049 186.543627 
L 629.102363 192.566204 
L 629.939677 247.150617 
L 631.614305 158.217688 
L 632.451619 157.467881 
L 633.288933 187.697332 
L 634.126247 285.88579 
L 634.963561 240.638531 
L 635.800875 178.514945 
L 636.638189 246.732405 
L 637.475503 327.20971 
L 638.312817 294.537937 
L 639.150131 327.425449 
L 639.987445 314.015159 
L 640.824759 275.072134 
L 641.662073 336.51689 
L 642.499387 225.540171 
L 643.336701 196.437779 
L 644.174015 219.021247 
L 645.011329 227.777537 
L 645.848643 269.181119 
L 646.685957 187.039745 
L 648.360585 347.796373 
L 649.197899 353.656753 
L 650.872527 262.561176 
L 651.709841 307.658227 
L 652.547155 312.305002 
L 653.384469 312.315145 
L 654.221783 318.309573 
L 655.896411 195.466079 
L 656.733725 216.994628 
L 657.571039 136.137975 
L 658.408353 291.725862 
L 659.245667 205.03757 
L 660.082981 228.045813 
L 660.920295 275.34228 
L 661.757609 235.992691 
L 662.594923 256.324501 
L 663.432237 242.568005 
L 664.269551 328.033095 
L 665.106865 287.166066 
L 665.944179 234.281508 
L 666.781493 278.643134 
L 668.456121 224.079099 
L 669.293435 299.404781 
L 670.130749 226.519074 
L 670.968063 225.616483 
L 671.805377 201.958791 
L 672.642691 291.363129 
L 673.480005 231.597873 
L 674.317319 333.749011 
L 675.154633 367.356244 
L 675.991947 327.915846 
L 676.829261 279.42565 
L 677.666575 244.648872 
L 678.503889 184.777854 
L 679.341203 271.416183 
L 680.178517 309.659432 
L 681.015831 283.013814 
L 681.853145 165.161069 
L 682.690459 211.371184 
L 683.527773 127.393059 
L 684.365087 190.626428 
L 685.202401 206.400904 
L 686.039715 238.777209 
L 686.877029 342.434619 
L 687.714343 305.708673 
L 688.551657 233.017279 
L 689.388971 107.627776 
L 690.226285 127.581195 
L 691.063599 201.390805 
L 691.900913 290.922945 
L 692.738227 200.536969 
L 693.575541 176.841644 
L 694.412855 124.929334 
L 695.250169 183.628321 
L 696.087483 150.328934 
L 696.924797 146.613903 
L 697.762111 229.387449 
L 698.599425 213.125218 
L 699.436739 204.461652 
L 700.274053 259.191691 
L 701.111367 219.191764 
L 702.785995 312.133278 
L 703.623309 287.641215 
L 704.460623 253.957511 
L 705.297937 305.173281 
L 706.135251 226.341036 
L 706.972565 248.99359 
L 707.809879 289.759645 
L 708.647193 279.346261 
L 709.484507 243.908842 
L 710.321821 241.135538 
L 711.159135 261.664557 
L 711.996449 325.582863 
L 712.833763 280.822058 
L 713.671077 262.190398 
L 714.508391 238.980958 
L 715.345705 204.576325 
L 716.183019 183.932953 
L 717.020333 270.363225 
L 717.857647 294.993802 
L 718.694961 342.046609 
L 719.532275 294.925263 
L 720.369589 296.314513 
L 721.206903 266.493245 
L 722.044217 259.510751 
L 722.881531 330.390285 
L 723.718845 294.955783 
L 724.556159 320.504338 
L 725.393473 310.228876 
L 727.068101 320.988741 
L 727.905415 232.389825 
L 728.742729 390.014713 
L 729.580043 350.391639 
L 730.417357 364.762859 
L 731.254671 265.985388 
L 732.929298 179.301176 
L 733.766612 199.470995 
L 734.603926 171.437928 
L 735.44124 235.734374 
L 736.278554 198.015166 
L 737.115868 220.878125 
L 737.953182 283.209608 
L 738.790496 179.396976 
L 739.62781 193.395948 
L 740.465124 230.365714 
L 741.302438 177.364363 
L 742.139752 198.916754 
L 742.977066 171.461313 
L 743.81438 183.408662 
L 744.651694 176.02038 
L 745.489008 114.53186 
L 746.326322 218.287509 
L 747.163636 236.197784 
L 747.163636 236.197784 
" style="fill:none;stroke:#ff0000;stroke-dasharray:5.55,2.4;stroke-dashoffset:0;stroke-width:1.5;"/>
   </g>
   <g id="patch_3">
    <path d="M 108 460.8 
L 108 69.12 
" style="fill:none;stroke:#000000;stroke-linecap:square;stroke-linejoin:miter;stroke-width:0.8;"/>
   </g>
   <g id="patch_4">
    <path d="M 777.6 460.8 
L 777.6 69.12 
" style="fill:none;stroke:#000000;stroke-linecap:square;stroke-linejoin:miter;stroke-width:0.8;"/>
   </g>
   <g id="patch_5">
    <path d="M 108 460.8 
L 777.6 460.8 
" style="fill:none;stroke:#000000;stroke-linecap:square;stroke-linejoin:miter;stroke-width:0.8;"/>
   </g>
   <g id="patch_6">
    <path d="M 108 69.12 
L 777.6 69.12 
" style="fill:none;stroke:#000000;stroke-linecap:square;stroke-linejoin:miter;stroke-width:0.8;"/>
   </g>
   <g id="text_21">
    <!-- Macau roadside 2020-2021 | Forecast vs Monitored | RNN -->
    <g transform="translate(226.805859 63.12)scale(0.15 -0.15)">
     <defs>
      <path d="M 9.8125 72.90625 
L 24.515625 72.90625 
L 43.109375 23.296875 
L 61.8125 72.90625 
L 76.515625 72.90625 
L 76.515625 0 
L 66.890625 0 
L 66.890625 64.015625 
L 48.09375 14.015625 
L 38.1875 14.015625 
L 19.390625 64.015625 
L 19.390625 0 
L 9.8125 0 
z
" id="DejaVuSans-77"/>
      <path d="M 48.78125 52.59375 
L 48.78125 44.1875 
Q 44.96875 46.296875 41.140625 47.34375 
Q 37.3125 48.390625 33.40625 48.390625 
Q 24.65625 48.390625 19.8125 42.84375 
Q 14.984375 37.3125 14.984375 27.296875 
Q 14.984375 17.28125 19.8125 11.734375 
Q 24.65625 6.203125 33.40625 6.203125 
Q 37.3125 6.203125 41.140625 7.25 
Q 44.96875 8.296875 48.78125 10.40625 
L 48.78125 2.09375 
Q 45.015625 0.34375 40.984375 -0.53125 
Q 36.96875 -1.421875 32.421875 -1.421875 
Q 20.0625 -1.421875 12.78125 6.34375 
Q 5.515625 14.109375 5.515625 27.296875 
Q 5.515625 40.671875 12.859375 48.328125 
Q 20.21875 56 33.015625 56 
Q 37.15625 56 41.109375 55.140625 
Q 45.0625 54.296875 48.78125 52.59375 
z
" id="DejaVuSans-99"/>
      <path d="M 8.5 21.578125 
L 8.5 54.6875 
L 17.484375 54.6875 
L 17.484375 21.921875 
Q 17.484375 14.15625 20.5 10.265625 
Q 23.53125 6.390625 29.59375 6.390625 
Q 36.859375 6.390625 41.078125 11.03125 
Q 45.3125 15.671875 45.3125 23.6875 
L 45.3125 54.6875 
L 54.296875 54.6875 
L 54.296875 0 
L 45.3125 0 
L 45.3125 8.40625 
Q 42.046875 3.421875 37.71875 1 
Q 33.40625 -1.421875 27.6875 -1.421875 
Q 18.265625 -1.421875 13.375 4.4375 
Q 8.5 10.296875 8.5 21.578125 
z
M 31.109375 56 
z
" id="DejaVuSans-117"/>
      <path id="DejaVuSans-32"/>
      <path d="M 41.109375 46.296875 
Q 39.59375 47.171875 37.8125 47.578125 
Q 36.03125 48 33.890625 48 
Q 26.265625 48 22.1875 43.046875 
Q 18.109375 38.09375 18.109375 28.8125 
L 18.109375 0 
L 9.078125 0 
L 9.078125 54.6875 
L 18.109375 54.6875 
L 18.109375 46.1875 
Q 20.953125 51.171875 25.484375 53.578125 
Q 30.03125 56 36.53125 56 
Q 37.453125 56 38.578125 55.875 
Q 39.703125 55.765625 41.0625 55.515625 
z
" id="DejaVuSans-114"/>
      <path d="M 30.609375 48.390625 
Q 23.390625 48.390625 19.1875 42.75 
Q 14.984375 37.109375 14.984375 27.296875 
Q 14.984375 17.484375 19.15625 11.84375 
Q 23.34375 6.203125 30.609375 6.203125 
Q 37.796875 6.203125 41.984375 11.859375 
Q 46.1875 17.53125 46.1875 27.296875 
Q 46.1875 37.015625 41.984375 42.703125 
Q 37.796875 48.390625 30.609375 48.390625 
z
M 30.609375 56 
Q 42.328125 56 49.015625 48.375 
Q 55.71875 40.765625 55.71875 27.296875 
Q 55.71875 13.875 49.015625 6.21875 
Q 42.328125 -1.421875 30.609375 -1.421875 
Q 18.84375 -1.421875 12.171875 6.21875 
Q 5.515625 13.875 5.515625 27.296875 
Q 5.515625 40.765625 12.171875 48.375 
Q 18.84375 56 30.609375 56 
z
" id="DejaVuSans-111"/>
      <path d="M 45.40625 46.390625 
L 45.40625 75.984375 
L 54.390625 75.984375 
L 54.390625 0 
L 45.40625 0 
L 45.40625 8.203125 
Q 42.578125 3.328125 38.25 0.953125 
Q 33.9375 -1.421875 27.875 -1.421875 
Q 17.96875 -1.421875 11.734375 6.484375 
Q 5.515625 14.40625 5.515625 27.296875 
Q 5.515625 40.1875 11.734375 48.09375 
Q 17.96875 56 27.875 56 
Q 33.9375 56 38.25 53.625 
Q 42.578125 51.265625 45.40625 46.390625 
z
M 14.796875 27.296875 
Q 14.796875 17.390625 18.875 11.75 
Q 22.953125 6.109375 30.078125 6.109375 
Q 37.203125 6.109375 41.296875 11.75 
Q 45.40625 17.390625 45.40625 27.296875 
Q 45.40625 37.203125 41.296875 42.84375 
Q 37.203125 48.484375 30.078125 48.484375 
Q 22.953125 48.484375 18.875 42.84375 
Q 14.796875 37.203125 14.796875 27.296875 
z
" id="DejaVuSans-100"/>
      <path d="M 44.28125 53.078125 
L 44.28125 44.578125 
Q 40.484375 46.53125 36.375 47.5 
Q 32.28125 48.484375 27.875 48.484375 
Q 21.1875 48.484375 17.84375 46.4375 
Q 14.5 44.390625 14.5 40.28125 
Q 14.5 37.15625 16.890625 35.375 
Q 19.28125 33.59375 26.515625 31.984375 
L 29.59375 31.296875 
Q 39.15625 29.25 43.1875 25.515625 
Q 47.21875 21.78125 47.21875 15.09375 
Q 47.21875 7.46875 41.1875 3.015625 
Q 35.15625 -1.421875 24.609375 -1.421875 
Q 20.21875 -1.421875 15.453125 -0.5625 
Q 10.6875 0.296875 5.421875 2 
L 5.421875 11.28125 
Q 10.40625 8.6875 15.234375 7.390625 
Q 20.0625 6.109375 24.8125 6.109375 
Q 31.15625 6.109375 34.5625 8.28125 
Q 37.984375 10.453125 37.984375 14.40625 
Q 37.984375 18.0625 35.515625 20.015625 
Q 33.0625 21.96875 24.703125 23.78125 
L 21.578125 24.515625 
Q 13.234375 26.265625 9.515625 29.90625 
Q 5.8125 33.546875 5.8125 39.890625 
Q 5.8125 47.609375 11.28125 51.796875 
Q 16.75 56 26.8125 56 
Q 31.78125 56 36.171875 55.265625 
Q 40.578125 54.546875 44.28125 53.078125 
z
" id="DejaVuSans-115"/>
      <path d="M 9.421875 54.6875 
L 18.40625 54.6875 
L 18.40625 0 
L 9.421875 0 
z
M 9.421875 75.984375 
L 18.40625 75.984375 
L 18.40625 64.59375 
L 9.421875 64.59375 
z
" id="DejaVuSans-105"/>
      <path d="M 21 76.421875 
L 21 -23.578125 
L 12.703125 -23.578125 
L 12.703125 76.421875 
z
" id="DejaVuSans-124"/>
      <path d="M 9.8125 72.90625 
L 51.703125 72.90625 
L 51.703125 64.59375 
L 19.671875 64.59375 
L 19.671875 43.109375 
L 48.578125 43.109375 
L 48.578125 34.8125 
L 19.671875 34.8125 
L 19.671875 0 
L 9.8125 0 
z
" id="DejaVuSans-70"/>
      <path d="M 2.984375 54.6875 
L 12.5 54.6875 
L 29.59375 8.796875 
L 46.6875 54.6875 
L 56.203125 54.6875 
L 35.6875 0 
L 23.484375 0 
z
" id="DejaVuSans-118"/>
      <path d="M 54.890625 33.015625 
L 54.890625 0 
L 45.90625 0 
L 45.90625 32.71875 
Q 45.90625 40.484375 42.875 44.328125 
Q 39.84375 48.1875 33.796875 48.1875 
Q 26.515625 48.1875 22.3125 43.546875 
Q 18.109375 38.921875 18.109375 30.90625 
L 18.109375 0 
L 9.078125 0 
L 9.078125 54.6875 
L 18.109375 54.6875 
L 18.109375 46.1875 
Q 21.34375 51.125 25.703125 53.5625 
Q 30.078125 56 35.796875 56 
Q 45.21875 56 50.046875 50.171875 
Q 54.890625 44.34375 54.890625 33.015625 
z
" id="DejaVuSans-110"/>
      <path d="M 44.390625 34.1875 
Q 47.5625 33.109375 50.5625 29.59375 
Q 53.5625 26.078125 56.59375 19.921875 
L 66.609375 0 
L 56 0 
L 46.6875 18.703125 
Q 43.0625 26.03125 39.671875 28.421875 
Q 36.28125 30.8125 30.421875 30.8125 
L 19.671875 30.8125 
L 19.671875 0 
L 9.8125 0 
L 9.8125 72.90625 
L 32.078125 72.90625 
Q 44.578125 72.90625 50.734375 67.671875 
Q 56.890625 62.453125 56.890625 51.90625 
Q 56.890625 45.015625 53.6875 40.46875 
Q 50.484375 35.9375 44.390625 34.1875 
z
M 19.671875 64.796875 
L 19.671875 38.921875 
L 32.078125 38.921875 
Q 39.203125 38.921875 42.84375 42.21875 
Q 46.484375 45.515625 46.484375 51.90625 
Q 46.484375 58.296875 42.84375 61.546875 
Q 39.203125 64.796875 32.078125 64.796875 
z
" id="DejaVuSans-82"/>
      <path d="M 9.8125 72.90625 
L 23.09375 72.90625 
L 55.421875 11.921875 
L 55.421875 72.90625 
L 64.984375 72.90625 
L 64.984375 0 
L 51.703125 0 
L 19.390625 60.984375 
L 19.390625 0 
L 9.8125 0 
z
" id="DejaVuSans-78"/>
     </defs>
     <use xlink:href="#DejaVuSans-77"/>
     <use x="86.279297" xlink:href="#DejaVuSans-97"/>
     <use x="147.558594" xlink:href="#DejaVuSans-99"/>
     <use x="202.539062" xlink:href="#DejaVuSans-97"/>
     <use x="263.818359" xlink:href="#DejaVuSans-117"/>
     <use x="327.197266" xlink:href="#DejaVuSans-32"/>
     <use x="358.984375" xlink:href="#DejaVuSans-114"/>
     <use x="397.847656" xlink:href="#DejaVuSans-111"/>
     <use x="459.029297" xlink:href="#DejaVuSans-97"/>
     <use x="520.308594" xlink:href="#DejaVuSans-100"/>
     <use x="583.785156" xlink:href="#DejaVuSans-115"/>
     <use x="635.884766" xlink:href="#DejaVuSans-105"/>
     <use x="663.667969" xlink:href="#DejaVuSans-100"/>
     <use x="727.144531" xlink:href="#DejaVuSans-101"/>
     <use x="788.667969" xlink:href="#DejaVuSans-32"/>
     <use x="820.455078" xlink:href="#DejaVuSans-50"/>
     <use x="884.078125" xlink:href="#DejaVuSans-48"/>
     <use x="947.701172" xlink:href="#DejaVuSans-50"/>
     <use x="1011.324219" xlink:href="#DejaVuSans-48"/>
     <use x="1074.947266" xlink:href="#DejaVuSans-45"/>
     <use x="1111.03125" xlink:href="#DejaVuSans-50"/>
     <use x="1174.654297" xlink:href="#DejaVuSans-48"/>
     <use x="1238.277344" xlink:href="#DejaVuSans-50"/>
     <use x="1301.900391" xlink:href="#DejaVuSans-49"/>
     <use x="1365.523438" xlink:href="#DejaVuSans-32"/>
     <use x="1397.310547" xlink:href="#DejaVuSans-124"/>
     <use x="1431.001953" xlink:href="#DejaVuSans-32"/>
     <use x="1462.789062" xlink:href="#DejaVuSans-70"/>
     <use x="1516.683594" xlink:href="#DejaVuSans-111"/>
     <use x="1577.865234" xlink:href="#DejaVuSans-114"/>
     <use x="1616.728516" xlink:href="#DejaVuSans-101"/>
     <use x="1678.251953" xlink:href="#DejaVuSans-99"/>
     <use x="1733.232422" xlink:href="#DejaVuSans-97"/>
     <use x="1794.511719" xlink:href="#DejaVuSans-115"/>
     <use x="1846.611328" xlink:href="#DejaVuSans-116"/>
     <use x="1885.820312" xlink:href="#DejaVuSans-32"/>
     <use x="1917.607422" xlink:href="#DejaVuSans-118"/>
     <use x="1976.787109" xlink:href="#DejaVuSans-115"/>
     <use x="2028.886719" xlink:href="#DejaVuSans-32"/>
     <use x="2060.673828" xlink:href="#DejaVuSans-77"/>
     <use x="2146.953125" xlink:href="#DejaVuSans-111"/>
     <use x="2208.134766" xlink:href="#DejaVuSans-110"/>
     <use x="2271.513672" xlink:href="#DejaVuSans-105"/>
     <use x="2299.296875" xlink:href="#DejaVuSans-116"/>
     <use x="2338.505859" xlink:href="#DejaVuSans-111"/>
     <use x="2399.6875" xlink:href="#DejaVuSans-114"/>
     <use x="2438.550781" xlink:href="#DejaVuSans-101"/>
     <use x="2500.074219" xlink:href="#DejaVuSans-100"/>
     <use x="2563.550781" xlink:href="#DejaVuSans-32"/>
     <use x="2595.337891" xlink:href="#DejaVuSans-124"/>
     <use x="2629.029297" xlink:href="#DejaVuSans-32"/>
     <use x="2660.816406" xlink:href="#DejaVuSans-82"/>
     <use x="2730.298828" xlink:href="#DejaVuSans-78"/>
     <use x="2805.103516" xlink:href="#DejaVuSans-78"/>
    </g>
   </g>
   <g id="legend_1">
    <g id="patch_7">
     <path d="M 613.996875 454.8 
L 769.2 454.8 
Q 771.6 454.8 771.6 452.4 
L 771.6 417.705 
Q 771.6 415.305 769.2 415.305 
L 613.996875 415.305 
Q 611.596875 415.305 611.596875 417.705 
L 611.596875 452.4 
Q 611.596875 454.8 613.996875 454.8 
z
" style="fill:#ffffff;opacity:0.8;stroke:#cccccc;stroke-linejoin:miter;"/>
    </g>
    <g id="line2d_21">
     <path d="M 616.396875 425.023125 
L 640.396875 425.023125 
" style="fill:none;stroke:#1f77b4;stroke-linecap:square;stroke-width:1.5;"/>
    </g>
    <g id="line2d_22"/>
    <g id="text_22">
     <!-- measured_data_CO -->
     <g transform="translate(649.996875 429.223125)scale(0.12 -0.12)">
      <defs>
       <path d="M 50.984375 -16.609375 
L 50.984375 -23.578125 
L -0.984375 -23.578125 
L -0.984375 -16.609375 
z
" id="DejaVuSans-95"/>
      </defs>
      <use xlink:href="#DejaVuSans-109"/>
      <use x="97.412109" xlink:href="#DejaVuSans-101"/>
      <use x="158.935547" xlink:href="#DejaVuSans-97"/>
      <use x="220.214844" xlink:href="#DejaVuSans-115"/>
      <use x="272.314453" xlink:href="#DejaVuSans-117"/>
      <use x="335.693359" xlink:href="#DejaVuSans-114"/>
      <use x="374.556641" xlink:href="#DejaVuSans-101"/>
      <use x="436.080078" xlink:href="#DejaVuSans-100"/>
      <use x="499.556641" xlink:href="#DejaVuSans-95"/>
      <use x="549.556641" xlink:href="#DejaVuSans-100"/>
      <use x="613.033203" xlink:href="#DejaVuSans-97"/>
      <use x="674.3125" xlink:href="#DejaVuSans-116"/>
      <use x="713.521484" xlink:href="#DejaVuSans-97"/>
      <use x="774.800781" xlink:href="#DejaVuSans-95"/>
      <use x="824.800781" xlink:href="#DejaVuSans-67"/>
      <use x="894.625" xlink:href="#DejaVuSans-79"/>
     </g>
    </g>
    <g id="line2d_23">
     <path d="M 616.396875 442.970625 
L 640.396875 442.970625 
" style="fill:none;stroke:#ff0000;stroke-dasharray:5.55,2.4;stroke-dashoffset:0;stroke-width:1.5;"/>
    </g>
    <g id="line2d_24"/>
    <g id="text_23">
     <!-- predicted_data_CO -->
     <g transform="translate(649.996875 447.170625)scale(0.12 -0.12)">
      <use xlink:href="#DejaVuSans-112"/>
      <use x="63.476562" xlink:href="#DejaVuSans-114"/>
      <use x="102.339844" xlink:href="#DejaVuSans-101"/>
      <use x="163.863281" xlink:href="#DejaVuSans-100"/>
      <use x="227.339844" xlink:href="#DejaVuSans-105"/>
      <use x="255.123047" xlink:href="#DejaVuSans-99"/>
      <use x="310.103516" xlink:href="#DejaVuSans-116"/>
      <use x="349.3125" xlink:href="#DejaVuSans-101"/>
      <use x="410.835938" xlink:href="#DejaVuSans-100"/>
      <use x="474.3125" xlink:href="#DejaVuSans-95"/>
      <use x="524.3125" xlink:href="#DejaVuSans-100"/>
      <use x="587.789062" xlink:href="#DejaVuSans-97"/>
      <use x="649.068359" xlink:href="#DejaVuSans-116"/>
      <use x="688.277344" xlink:href="#DejaVuSans-97"/>
      <use x="749.556641" xlink:href="#DejaVuSans-95"/>
      <use x="799.556641" xlink:href="#DejaVuSans-67"/>
      <use x="869.380859" xlink:href="#DejaVuSans-79"/>
     </g>
    </g>
   </g>
  </g>
 </g>
 <defs>
  <clipPath id="p205a335b88">
   <rect height="391.68" width="669.6" x="108" y="69.12"/>
  </clipPath>
 </defs>
</svg>
