<?xml version="1.0" encoding="utf-8" standalone="no"?>
<!DOCTYPE svg PUBLIC "-//W3C//DTD SVG 1.1//EN"
  "http://www.w3.org/Graphics/SVG/1.1/DTD/svg11.dtd">
<!-- Created with matplotlib (https://matplotlib.org/) -->
<svg height="576pt" version="1.1" viewBox="0 0 864 576" width="864pt" xmlns="http://www.w3.org/2000/svg" xmlns:xlink="http://www.w3.org/1999/xlink">
 <metadata>
  <rdf:RDF xmlns:cc="http://creativecommons.org/ns#" xmlns:dc="http://purl.org/dc/elements/1.1/" xmlns:rdf="http://www.w3.org/1999/02/22-rdf-syntax-ns#">
   <cc:Work>
    <dc:type rdf:resource="http://purl.org/dc/dcmitype/StillImage"/>
    <dc:date>2024-03-08T20:14:54.343135</dc:date>
    <dc:format>image/svg+xml</dc:format>
    <dc:creator>
     <cc:Agent>
      <dc:title>Matplotlib v3.3.4, https://matplotlib.org/</dc:title>
     </cc:Agent>
    </dc:creator>
   </cc:Work>
  </rdf:RDF>
 </metadata>
 <defs>
  <style type="text/css">*{stroke-linecap:butt;stroke-linejoin:round;}</style>
 </defs>
 <g id="figure_1">
  <g id="patch_1">
   <path d="M 0 576 
L 864 576 
L 864 0 
L 0 0 
z
" style="fill:#ffffff;"/>
  </g>
  <g id="axes_1">
   <g id="patch_2">
    <path d="M 108 460.8 
L 777.6 460.8 
L 777.6 69.12 
L 108 69.12 
z
" style="fill:#ffffff;"/>
   </g>
   <g id="matplotlib.axis_1">
    <g id="xtick_1">
     <g id="line2d_1">
      <defs>
       <path d="M 0 0 
L 0 3.5 
" id="m6c3987a395" style="stroke:#000000;stroke-width:0.8;"/>
      </defs>
      <g>
       <use style="stroke:#000000;stroke-width:0.8;" x="136.761736" xlink:href="#m6c3987a395" y="460.8"/>
      </g>
     </g>
     <g id="text_1">
      <!-- 2020-01 -->
      <g transform="translate(92.091951 500.766215)rotate(-30)scale(0.12 -0.12)">
       <defs>
        <path d="M 19.1875 8.296875 
L 53.609375 8.296875 
L 53.609375 0 
L 7.328125 0 
L 7.328125 8.296875 
Q 12.9375 14.109375 22.625 23.890625 
Q 32.328125 33.6875 34.8125 36.53125 
Q 39.546875 41.84375 41.421875 45.53125 
Q 43.3125 49.21875 43.3125 52.78125 
Q 43.3125 58.59375 39.234375 62.25 
Q 35.15625 65.921875 28.609375 65.921875 
Q 23.96875 65.921875 18.8125 64.3125 
Q 13.671875 62.703125 7.8125 59.421875 
L 7.8125 69.390625 
Q 13.765625 71.78125 18.9375 73 
Q 24.125 74.21875 28.421875 74.21875 
Q 39.75 74.21875 46.484375 68.546875 
Q 53.21875 62.890625 53.21875 53.421875 
Q 53.21875 48.921875 51.53125 44.890625 
Q 49.859375 40.875 45.40625 35.40625 
Q 44.1875 33.984375 37.640625 27.21875 
Q 31.109375 20.453125 19.1875 8.296875 
z
" id="DejaVuSans-50"/>
        <path d="M 31.78125 66.40625 
Q 24.171875 66.40625 20.328125 58.90625 
Q 16.5 51.421875 16.5 36.375 
Q 16.5 21.390625 20.328125 13.890625 
Q 24.171875 6.390625 31.78125 6.390625 
Q 39.453125 6.390625 43.28125 13.890625 
Q 47.125 21.390625 47.125 36.375 
Q 47.125 51.421875 43.28125 58.90625 
Q 39.453125 66.40625 31.78125 66.40625 
z
M 31.78125 74.21875 
Q 44.046875 74.21875 50.515625 64.515625 
Q 56.984375 54.828125 56.984375 36.375 
Q 56.984375 17.96875 50.515625 8.265625 
Q 44.046875 -1.421875 31.78125 -1.421875 
Q 19.53125 -1.421875 13.0625 8.265625 
Q 6.59375 17.96875 6.59375 36.375 
Q 6.59375 54.828125 13.0625 64.515625 
Q 19.53125 74.21875 31.78125 74.21875 
z
" id="DejaVuSans-48"/>
        <path d="M 4.890625 31.390625 
L 31.203125 31.390625 
L 31.203125 23.390625 
L 4.890625 23.390625 
z
" id="DejaVuSans-45"/>
        <path d="M 12.40625 8.296875 
L 28.515625 8.296875 
L 28.515625 63.921875 
L 10.984375 60.40625 
L 10.984375 69.390625 
L 28.421875 72.90625 
L 38.28125 72.90625 
L 38.28125 8.296875 
L 54.390625 8.296875 
L 54.390625 0 
L 12.40625 0 
z
" id="DejaVuSans-49"/>
       </defs>
       <use xlink:href="#DejaVuSans-50"/>
       <use x="63.623047" xlink:href="#DejaVuSans-48"/>
       <use x="127.246094" xlink:href="#DejaVuSans-50"/>
       <use x="190.869141" xlink:href="#DejaVuSans-48"/>
       <use x="254.492188" xlink:href="#DejaVuSans-45"/>
       <use x="290.576172" xlink:href="#DejaVuSans-48"/>
       <use x="354.199219" xlink:href="#DejaVuSans-49"/>
      </g>
     </g>
    </g>
    <g id="xtick_2">
     <g id="line2d_2">
      <g>
       <use style="stroke:#000000;stroke-width:0.8;" x="212.957309" xlink:href="#m6c3987a395" y="460.8"/>
      </g>
     </g>
     <g id="text_2">
      <!-- 2020-04 -->
      <g transform="translate(168.287524 500.766215)rotate(-30)scale(0.12 -0.12)">
       <defs>
        <path d="M 37.796875 64.3125 
L 12.890625 25.390625 
L 37.796875 25.390625 
z
M 35.203125 72.90625 
L 47.609375 72.90625 
L 47.609375 25.390625 
L 58.015625 25.390625 
L 58.015625 17.1875 
L 47.609375 17.1875 
L 47.609375 0 
L 37.796875 0 
L 37.796875 17.1875 
L 4.890625 17.1875 
L 4.890625 26.703125 
z
" id="DejaVuSans-52"/>
       </defs>
       <use xlink:href="#DejaVuSans-50"/>
       <use x="63.623047" xlink:href="#DejaVuSans-48"/>
       <use x="127.246094" xlink:href="#DejaVuSans-50"/>
       <use x="190.869141" xlink:href="#DejaVuSans-48"/>
       <use x="254.492188" xlink:href="#DejaVuSans-45"/>
       <use x="290.576172" xlink:href="#DejaVuSans-48"/>
       <use x="354.199219" xlink:href="#DejaVuSans-52"/>
      </g>
     </g>
    </g>
    <g id="xtick_3">
     <g id="line2d_3">
      <g>
       <use style="stroke:#000000;stroke-width:0.8;" x="289.152882" xlink:href="#m6c3987a395" y="460.8"/>
      </g>
     </g>
     <g id="text_3">
      <!-- 2020-07 -->
      <g transform="translate(244.483097 500.766215)rotate(-30)scale(0.12 -0.12)">
       <defs>
        <path d="M 8.203125 72.90625 
L 55.078125 72.90625 
L 55.078125 68.703125 
L 28.609375 0 
L 18.3125 0 
L 43.21875 64.59375 
L 8.203125 64.59375 
z
" id="DejaVuSans-55"/>
       </defs>
       <use xlink:href="#DejaVuSans-50"/>
       <use x="63.623047" xlink:href="#DejaVuSans-48"/>
       <use x="127.246094" xlink:href="#DejaVuSans-50"/>
       <use x="190.869141" xlink:href="#DejaVuSans-48"/>
       <use x="254.492188" xlink:href="#DejaVuSans-45"/>
       <use x="290.576172" xlink:href="#DejaVuSans-48"/>
       <use x="354.199219" xlink:href="#DejaVuSans-55"/>
      </g>
     </g>
    </g>
    <g id="xtick_4">
     <g id="line2d_4">
      <g>
       <use style="stroke:#000000;stroke-width:0.8;" x="366.18577" xlink:href="#m6c3987a395" y="460.8"/>
      </g>
     </g>
     <g id="text_4">
      <!-- 2020-10 -->
      <g transform="translate(321.515985 500.766215)rotate(-30)scale(0.12 -0.12)">
       <use xlink:href="#DejaVuSans-50"/>
       <use x="63.623047" xlink:href="#DejaVuSans-48"/>
       <use x="127.246094" xlink:href="#DejaVuSans-50"/>
       <use x="190.869141" xlink:href="#DejaVuSans-48"/>
       <use x="254.492188" xlink:href="#DejaVuSans-45"/>
       <use x="290.576172" xlink:href="#DejaVuSans-49"/>
       <use x="354.199219" xlink:href="#DejaVuSans-48"/>
      </g>
     </g>
    </g>
    <g id="xtick_5">
     <g id="line2d_5">
      <g>
       <use style="stroke:#000000;stroke-width:0.8;" x="443.218657" xlink:href="#m6c3987a395" y="460.8"/>
      </g>
     </g>
     <g id="text_5">
      <!-- 2021-01 -->
      <g transform="translate(398.548872 500.766215)rotate(-30)scale(0.12 -0.12)">
       <use xlink:href="#DejaVuSans-50"/>
       <use x="63.623047" xlink:href="#DejaVuSans-48"/>
       <use x="127.246094" xlink:href="#DejaVuSans-50"/>
       <use x="190.869141" xlink:href="#DejaVuSans-49"/>
       <use x="254.492188" xlink:href="#DejaVuSans-45"/>
       <use x="290.576172" xlink:href="#DejaVuSans-48"/>
       <use x="354.199219" xlink:href="#DejaVuSans-49"/>
      </g>
     </g>
    </g>
    <g id="xtick_6">
     <g id="line2d_6">
      <g>
       <use style="stroke:#000000;stroke-width:0.8;" x="518.576916" xlink:href="#m6c3987a395" y="460.8"/>
      </g>
     </g>
     <g id="text_6">
      <!-- 2021-04 -->
      <g transform="translate(473.907131 500.766215)rotate(-30)scale(0.12 -0.12)">
       <use xlink:href="#DejaVuSans-50"/>
       <use x="63.623047" xlink:href="#DejaVuSans-48"/>
       <use x="127.246094" xlink:href="#DejaVuSans-50"/>
       <use x="190.869141" xlink:href="#DejaVuSans-49"/>
       <use x="254.492188" xlink:href="#DejaVuSans-45"/>
       <use x="290.576172" xlink:href="#DejaVuSans-48"/>
       <use x="354.199219" xlink:href="#DejaVuSans-52"/>
      </g>
     </g>
    </g>
    <g id="xtick_7">
     <g id="line2d_7">
      <g>
       <use style="stroke:#000000;stroke-width:0.8;" x="594.77249" xlink:href="#m6c3987a395" y="460.8"/>
      </g>
     </g>
     <g id="text_7">
      <!-- 2021-07 -->
      <g transform="translate(550.102705 500.766215)rotate(-30)scale(0.12 -0.12)">
       <use xlink:href="#DejaVuSans-50"/>
       <use x="63.623047" xlink:href="#DejaVuSans-48"/>
       <use x="127.246094" xlink:href="#DejaVuSans-50"/>
       <use x="190.869141" xlink:href="#DejaVuSans-49"/>
       <use x="254.492188" xlink:href="#DejaVuSans-45"/>
       <use x="290.576172" xlink:href="#DejaVuSans-48"/>
       <use x="354.199219" xlink:href="#DejaVuSans-55"/>
      </g>
     </g>
    </g>
    <g id="xtick_8">
     <g id="line2d_8">
      <g>
       <use style="stroke:#000000;stroke-width:0.8;" x="671.805377" xlink:href="#m6c3987a395" y="460.8"/>
      </g>
     </g>
     <g id="text_8">
      <!-- 2021-10 -->
      <g transform="translate(627.135592 500.766215)rotate(-30)scale(0.12 -0.12)">
       <use xlink:href="#DejaVuSans-50"/>
       <use x="63.623047" xlink:href="#DejaVuSans-48"/>
       <use x="127.246094" xlink:href="#DejaVuSans-50"/>
       <use x="190.869141" xlink:href="#DejaVuSans-49"/>
       <use x="254.492188" xlink:href="#DejaVuSans-45"/>
       <use x="290.576172" xlink:href="#DejaVuSans-49"/>
       <use x="354.199219" xlink:href="#DejaVuSans-48"/>
      </g>
     </g>
    </g>
    <g id="xtick_9">
     <g id="line2d_9">
      <g>
       <use style="stroke:#000000;stroke-width:0.8;" x="748.838264" xlink:href="#m6c3987a395" y="460.8"/>
      </g>
     </g>
     <g id="text_9">
      <!-- 2022-01 -->
      <g transform="translate(704.168479 500.766215)rotate(-30)scale(0.12 -0.12)">
       <use xlink:href="#DejaVuSans-50"/>
       <use x="63.623047" xlink:href="#DejaVuSans-48"/>
       <use x="127.246094" xlink:href="#DejaVuSans-50"/>
       <use x="190.869141" xlink:href="#DejaVuSans-50"/>
       <use x="254.492188" xlink:href="#DejaVuSans-45"/>
       <use x="290.576172" xlink:href="#DejaVuSans-48"/>
       <use x="354.199219" xlink:href="#DejaVuSans-49"/>
      </g>
     </g>
    </g>
    <g id="text_10">
     <!-- Date -->
     <g transform="translate(424.873828 518.325146)scale(0.15 -0.15)">
      <defs>
       <path d="M 19.671875 64.796875 
L 19.671875 8.109375 
L 31.59375 8.109375 
Q 46.6875 8.109375 53.6875 14.9375 
Q 60.6875 21.78125 60.6875 36.53125 
Q 60.6875 51.171875 53.6875 57.984375 
Q 46.6875 64.796875 31.59375 64.796875 
z
M 9.8125 72.90625 
L 30.078125 72.90625 
Q 51.265625 72.90625 61.171875 64.09375 
Q 71.09375 55.28125 71.09375 36.53125 
Q 71.09375 17.671875 61.125 8.828125 
Q 51.171875 0 30.078125 0 
L 9.8125 0 
z
" id="DejaVuSans-68"/>
       <path d="M 34.28125 27.484375 
Q 23.390625 27.484375 19.1875 25 
Q 14.984375 22.515625 14.984375 16.5 
Q 14.984375 11.71875 18.140625 8.90625 
Q 21.296875 6.109375 26.703125 6.109375 
Q 34.1875 6.109375 38.703125 11.40625 
Q 43.21875 16.703125 43.21875 25.484375 
L 43.21875 27.484375 
z
M 52.203125 31.203125 
L 52.203125 0 
L 43.21875 0 
L 43.21875 8.296875 
Q 40.140625 3.328125 35.546875 0.953125 
Q 30.953125 -1.421875 24.3125 -1.421875 
Q 15.921875 -1.421875 10.953125 3.296875 
Q 6 8.015625 6 15.921875 
Q 6 25.140625 12.171875 29.828125 
Q 18.359375 34.515625 30.609375 34.515625 
L 43.21875 34.515625 
L 43.21875 35.40625 
Q 43.21875 41.609375 39.140625 45 
Q 35.0625 48.390625 27.6875 48.390625 
Q 23 48.390625 18.546875 47.265625 
Q 14.109375 46.140625 10.015625 43.890625 
L 10.015625 52.203125 
Q 14.9375 54.109375 19.578125 55.046875 
Q 24.21875 56 28.609375 56 
Q 40.484375 56 46.34375 49.84375 
Q 52.203125 43.703125 52.203125 31.203125 
z
" id="DejaVuSans-97"/>
       <path d="M 18.3125 70.21875 
L 18.3125 54.6875 
L 36.8125 54.6875 
L 36.8125 47.703125 
L 18.3125 47.703125 
L 18.3125 18.015625 
Q 18.3125 11.328125 20.140625 9.421875 
Q 21.96875 7.515625 27.59375 7.515625 
L 36.8125 7.515625 
L 36.8125 0 
L 27.59375 0 
Q 17.1875 0 13.234375 3.875 
Q 9.28125 7.765625 9.28125 18.015625 
L 9.28125 47.703125 
L 2.6875 47.703125 
L 2.6875 54.6875 
L 9.28125 54.6875 
L 9.28125 70.21875 
z
" id="DejaVuSans-116"/>
       <path d="M 56.203125 29.59375 
L 56.203125 25.203125 
L 14.890625 25.203125 
Q 15.484375 15.921875 20.484375 11.0625 
Q 25.484375 6.203125 34.421875 6.203125 
Q 39.59375 6.203125 44.453125 7.46875 
Q 49.3125 8.734375 54.109375 11.28125 
L 54.109375 2.78125 
Q 49.265625 0.734375 44.1875 -0.34375 
Q 39.109375 -1.421875 33.890625 -1.421875 
Q 20.796875 -1.421875 13.15625 6.1875 
Q 5.515625 13.8125 5.515625 26.8125 
Q 5.515625 40.234375 12.765625 48.109375 
Q 20.015625 56 32.328125 56 
Q 43.359375 56 49.78125 48.890625 
Q 56.203125 41.796875 56.203125 29.59375 
z
M 47.21875 32.234375 
Q 47.125 39.59375 43.09375 43.984375 
Q 39.0625 48.390625 32.421875 48.390625 
Q 24.90625 48.390625 20.390625 44.140625 
Q 15.875 39.890625 15.1875 32.171875 
z
" id="DejaVuSans-101"/>
      </defs>
      <use xlink:href="#DejaVuSans-68"/>
      <use x="77.001953" xlink:href="#DejaVuSans-97"/>
      <use x="138.28125" xlink:href="#DejaVuSans-116"/>
      <use x="177.490234" xlink:href="#DejaVuSans-101"/>
     </g>
    </g>
   </g>
   <g id="matplotlib.axis_2">
    <g id="ytick_1">
     <g id="line2d_10">
      <defs>
       <path d="M 0 0 
L -3.5 0 
" id="me8492de6f1" style="stroke:#000000;stroke-width:0.8;"/>
      </defs>
      <g>
       <use style="stroke:#000000;stroke-width:0.8;" x="108" xlink:href="#me8492de6f1" y="423.27395"/>
      </g>
     </g>
     <g id="text_11">
      <!-- 20 -->
      <g transform="translate(85.73 427.833013)scale(0.12 -0.12)">
       <use xlink:href="#DejaVuSans-50"/>
       <use x="63.623047" xlink:href="#DejaVuSans-48"/>
      </g>
     </g>
    </g>
    <g id="ytick_2">
     <g id="line2d_11">
      <g>
       <use style="stroke:#000000;stroke-width:0.8;" x="108" xlink:href="#me8492de6f1" y="366.245285"/>
      </g>
     </g>
     <g id="text_12">
      <!-- 40 -->
      <g transform="translate(85.73 370.804348)scale(0.12 -0.12)">
       <use xlink:href="#DejaVuSans-52"/>
       <use x="63.623047" xlink:href="#DejaVuSans-48"/>
      </g>
     </g>
    </g>
    <g id="ytick_3">
     <g id="line2d_12">
      <g>
       <use style="stroke:#000000;stroke-width:0.8;" x="108" xlink:href="#me8492de6f1" y="309.21662"/>
      </g>
     </g>
     <g id="text_13">
      <!-- 60 -->
      <g transform="translate(85.73 313.775683)scale(0.12 -0.12)">
       <defs>
        <path d="M 33.015625 40.375 
Q 26.375 40.375 22.484375 35.828125 
Q 18.609375 31.296875 18.609375 23.390625 
Q 18.609375 15.53125 22.484375 10.953125 
Q 26.375 6.390625 33.015625 6.390625 
Q 39.65625 6.390625 43.53125 10.953125 
Q 47.40625 15.53125 47.40625 23.390625 
Q 47.40625 31.296875 43.53125 35.828125 
Q 39.65625 40.375 33.015625 40.375 
z
M 52.59375 71.296875 
L 52.59375 62.3125 
Q 48.875 64.0625 45.09375 64.984375 
Q 41.3125 65.921875 37.59375 65.921875 
Q 27.828125 65.921875 22.671875 59.328125 
Q 17.53125 52.734375 16.796875 39.40625 
Q 19.671875 43.65625 24.015625 45.921875 
Q 28.375 48.1875 33.59375 48.1875 
Q 44.578125 48.1875 50.953125 41.515625 
Q 57.328125 34.859375 57.328125 23.390625 
Q 57.328125 12.15625 50.6875 5.359375 
Q 44.046875 -1.421875 33.015625 -1.421875 
Q 20.359375 -1.421875 13.671875 8.265625 
Q 6.984375 17.96875 6.984375 36.375 
Q 6.984375 53.65625 15.1875 63.9375 
Q 23.390625 74.21875 37.203125 74.21875 
Q 40.921875 74.21875 44.703125 73.484375 
Q 48.484375 72.75 52.59375 71.296875 
z
" id="DejaVuSans-54"/>
       </defs>
       <use xlink:href="#DejaVuSans-54"/>
       <use x="63.623047" xlink:href="#DejaVuSans-48"/>
      </g>
     </g>
    </g>
    <g id="ytick_4">
     <g id="line2d_13">
      <g>
       <use style="stroke:#000000;stroke-width:0.8;" x="108" xlink:href="#me8492de6f1" y="252.187955"/>
      </g>
     </g>
     <g id="text_14">
      <!-- 80 -->
      <g transform="translate(85.73 256.747018)scale(0.12 -0.12)">
       <defs>
        <path d="M 31.78125 34.625 
Q 24.75 34.625 20.71875 30.859375 
Q 16.703125 27.09375 16.703125 20.515625 
Q 16.703125 13.921875 20.71875 10.15625 
Q 24.75 6.390625 31.78125 6.390625 
Q 38.8125 6.390625 42.859375 10.171875 
Q 46.921875 13.96875 46.921875 20.515625 
Q 46.921875 27.09375 42.890625 30.859375 
Q 38.875 34.625 31.78125 34.625 
z
M 21.921875 38.8125 
Q 15.578125 40.375 12.03125 44.71875 
Q 8.5 49.078125 8.5 55.328125 
Q 8.5 64.0625 14.71875 69.140625 
Q 20.953125 74.21875 31.78125 74.21875 
Q 42.671875 74.21875 48.875 69.140625 
Q 55.078125 64.0625 55.078125 55.328125 
Q 55.078125 49.078125 51.53125 44.71875 
Q 48 40.375 41.703125 38.8125 
Q 48.828125 37.15625 52.796875 32.3125 
Q 56.78125 27.484375 56.78125 20.515625 
Q 56.78125 9.90625 50.3125 4.234375 
Q 43.84375 -1.421875 31.78125 -1.421875 
Q 19.734375 -1.421875 13.25 4.234375 
Q 6.78125 9.90625 6.78125 20.515625 
Q 6.78125 27.484375 10.78125 32.3125 
Q 14.796875 37.15625 21.921875 38.8125 
z
M 18.3125 54.390625 
Q 18.3125 48.734375 21.84375 45.5625 
Q 25.390625 42.390625 31.78125 42.390625 
Q 38.140625 42.390625 41.71875 45.5625 
Q 45.3125 48.734375 45.3125 54.390625 
Q 45.3125 60.0625 41.71875 63.234375 
Q 38.140625 66.40625 31.78125 66.40625 
Q 25.390625 66.40625 21.84375 63.234375 
Q 18.3125 60.0625 18.3125 54.390625 
z
" id="DejaVuSans-56"/>
       </defs>
       <use xlink:href="#DejaVuSans-56"/>
       <use x="63.623047" xlink:href="#DejaVuSans-48"/>
      </g>
     </g>
    </g>
    <g id="ytick_5">
     <g id="line2d_14">
      <g>
       <use style="stroke:#000000;stroke-width:0.8;" x="108" xlink:href="#me8492de6f1" y="195.15929"/>
      </g>
     </g>
     <g id="text_15">
      <!-- 100 -->
      <g transform="translate(78.095 199.718353)scale(0.12 -0.12)">
       <use xlink:href="#DejaVuSans-49"/>
       <use x="63.623047" xlink:href="#DejaVuSans-48"/>
       <use x="127.246094" xlink:href="#DejaVuSans-48"/>
      </g>
     </g>
    </g>
    <g id="ytick_6">
     <g id="line2d_15">
      <g>
       <use style="stroke:#000000;stroke-width:0.8;" x="108" xlink:href="#me8492de6f1" y="138.130625"/>
      </g>
     </g>
     <g id="text_16">
      <!-- 120 -->
      <g transform="translate(78.095 142.689688)scale(0.12 -0.12)">
       <use xlink:href="#DejaVuSans-49"/>
       <use x="63.623047" xlink:href="#DejaVuSans-50"/>
       <use x="127.246094" xlink:href="#DejaVuSans-48"/>
      </g>
     </g>
    </g>
    <g id="ytick_7">
     <g id="line2d_16">
      <g>
       <use style="stroke:#000000;stroke-width:0.8;" x="108" xlink:href="#me8492de6f1" y="81.10196"/>
      </g>
     </g>
     <g id="text_17">
      <!-- 140 -->
      <g transform="translate(78.095 85.661023)scale(0.12 -0.12)">
       <use xlink:href="#DejaVuSans-49"/>
       <use x="63.623047" xlink:href="#DejaVuSans-52"/>
       <use x="127.246094" xlink:href="#DejaVuSans-48"/>
      </g>
     </g>
    </g>
    <g id="text_18">
     <!-- PM10(micro-gram/m3) -->
     <g transform="translate(70.975469 349.562344)rotate(-90)scale(0.15 -0.15)">
      <defs>
       <path d="M 19.671875 64.796875 
L 19.671875 37.40625 
L 32.078125 37.40625 
Q 38.96875 37.40625 42.71875 40.96875 
Q 46.484375 44.53125 46.484375 51.125 
Q 46.484375 57.671875 42.71875 61.234375 
Q 38.96875 64.796875 32.078125 64.796875 
z
M 9.8125 72.90625 
L 32.078125 72.90625 
Q 44.34375 72.90625 50.609375 67.359375 
Q 56.890625 61.8125 56.890625 51.125 
Q 56.890625 40.328125 50.609375 34.8125 
Q 44.34375 29.296875 32.078125 29.296875 
L 19.671875 29.296875 
L 19.671875 0 
L 9.8125 0 
z
" id="DejaVuSans-80"/>
       <path d="M 9.8125 72.90625 
L 24.515625 72.90625 
L 43.109375 23.296875 
L 61.8125 72.90625 
L 76.515625 72.90625 
L 76.515625 0 
L 66.890625 0 
L 66.890625 64.015625 
L 48.09375 14.015625 
L 38.1875 14.015625 
L 19.390625 64.015625 
L 19.390625 0 
L 9.8125 0 
z
" id="DejaVuSans-77"/>
       <path d="M 31 75.875 
Q 24.46875 64.65625 21.28125 53.65625 
Q 18.109375 42.671875 18.109375 31.390625 
Q 18.109375 20.125 21.3125 9.0625 
Q 24.515625 -2 31 -13.1875 
L 23.1875 -13.1875 
Q 15.875 -1.703125 12.234375 9.375 
Q 8.59375 20.453125 8.59375 31.390625 
Q 8.59375 42.28125 12.203125 53.3125 
Q 15.828125 64.359375 23.1875 75.875 
z
" id="DejaVuSans-40"/>
       <path d="M 52 44.1875 
Q 55.375 50.25 60.0625 53.125 
Q 64.75 56 71.09375 56 
Q 79.640625 56 84.28125 50.015625 
Q 88.921875 44.046875 88.921875 33.015625 
L 88.921875 0 
L 79.890625 0 
L 79.890625 32.71875 
Q 79.890625 40.578125 77.09375 44.375 
Q 74.3125 48.1875 68.609375 48.1875 
Q 61.625 48.1875 57.5625 43.546875 
Q 53.515625 38.921875 53.515625 30.90625 
L 53.515625 0 
L 44.484375 0 
L 44.484375 32.71875 
Q 44.484375 40.625 41.703125 44.40625 
Q 38.921875 48.1875 33.109375 48.1875 
Q 26.21875 48.1875 22.15625 43.53125 
Q 18.109375 38.875 18.109375 30.90625 
L 18.109375 0 
L 9.078125 0 
L 9.078125 54.6875 
L 18.109375 54.6875 
L 18.109375 46.1875 
Q 21.1875 51.21875 25.484375 53.609375 
Q 29.78125 56 35.6875 56 
Q 41.65625 56 45.828125 52.96875 
Q 50 49.953125 52 44.1875 
z
" id="DejaVuSans-109"/>
       <path d="M 9.421875 54.6875 
L 18.40625 54.6875 
L 18.40625 0 
L 9.421875 0 
z
M 9.421875 75.984375 
L 18.40625 75.984375 
L 18.40625 64.59375 
L 9.421875 64.59375 
z
" id="DejaVuSans-105"/>
       <path d="M 48.78125 52.59375 
L 48.78125 44.1875 
Q 44.96875 46.296875 41.140625 47.34375 
Q 37.3125 48.390625 33.40625 48.390625 
Q 24.65625 48.390625 19.8125 42.84375 
Q 14.984375 37.3125 14.984375 27.296875 
Q 14.984375 17.28125 19.8125 11.734375 
Q 24.65625 6.203125 33.40625 6.203125 
Q 37.3125 6.203125 41.140625 7.25 
Q 44.96875 8.296875 48.78125 10.40625 
L 48.78125 2.09375 
Q 45.015625 0.34375 40.984375 -0.53125 
Q 36.96875 -1.421875 32.421875 -1.421875 
Q 20.0625 -1.421875 12.78125 6.34375 
Q 5.515625 14.109375 5.515625 27.296875 
Q 5.515625 40.671875 12.859375 48.328125 
Q 20.21875 56 33.015625 56 
Q 37.15625 56 41.109375 55.140625 
Q 45.0625 54.296875 48.78125 52.59375 
z
" id="DejaVuSans-99"/>
       <path d="M 41.109375 46.296875 
Q 39.59375 47.171875 37.8125 47.578125 
Q 36.03125 48 33.890625 48 
Q 26.265625 48 22.1875 43.046875 
Q 18.109375 38.09375 18.109375 28.8125 
L 18.109375 0 
L 9.078125 0 
L 9.078125 54.6875 
L 18.109375 54.6875 
L 18.109375 46.1875 
Q 20.953125 51.171875 25.484375 53.578125 
Q 30.03125 56 36.53125 56 
Q 37.453125 56 38.578125 55.875 
Q 39.703125 55.765625 41.0625 55.515625 
z
" id="DejaVuSans-114"/>
       <path d="M 30.609375 48.390625 
Q 23.390625 48.390625 19.1875 42.75 
Q 14.984375 37.109375 14.984375 27.296875 
Q 14.984375 17.484375 19.15625 11.84375 
Q 23.34375 6.203125 30.609375 6.203125 
Q 37.796875 6.203125 41.984375 11.859375 
Q 46.1875 17.53125 46.1875 27.296875 
Q 46.1875 37.015625 41.984375 42.703125 
Q 37.796875 48.390625 30.609375 48.390625 
z
M 30.609375 56 
Q 42.328125 56 49.015625 48.375 
Q 55.71875 40.765625 55.71875 27.296875 
Q 55.71875 13.875 49.015625 6.21875 
Q 42.328125 -1.421875 30.609375 -1.421875 
Q 18.84375 -1.421875 12.171875 6.21875 
Q 5.515625 13.875 5.515625 27.296875 
Q 5.515625 40.765625 12.171875 48.375 
Q 18.84375 56 30.609375 56 
z
" id="DejaVuSans-111"/>
       <path d="M 45.40625 27.984375 
Q 45.40625 37.75 41.375 43.109375 
Q 37.359375 48.484375 30.078125 48.484375 
Q 22.859375 48.484375 18.828125 43.109375 
Q 14.796875 37.75 14.796875 27.984375 
Q 14.796875 18.265625 18.828125 12.890625 
Q 22.859375 7.515625 30.078125 7.515625 
Q 37.359375 7.515625 41.375 12.890625 
Q 45.40625 18.265625 45.40625 27.984375 
z
M 54.390625 6.78125 
Q 54.390625 -7.171875 48.1875 -13.984375 
Q 42 -20.796875 29.203125 -20.796875 
Q 24.46875 -20.796875 20.265625 -20.09375 
Q 16.0625 -19.390625 12.109375 -17.921875 
L 12.109375 -9.1875 
Q 16.0625 -11.328125 19.921875 -12.34375 
Q 23.78125 -13.375 27.78125 -13.375 
Q 36.625 -13.375 41.015625 -8.765625 
Q 45.40625 -4.15625 45.40625 5.171875 
L 45.40625 9.625 
Q 42.625 4.78125 38.28125 2.390625 
Q 33.9375 0 27.875 0 
Q 17.828125 0 11.671875 7.65625 
Q 5.515625 15.328125 5.515625 27.984375 
Q 5.515625 40.671875 11.671875 48.328125 
Q 17.828125 56 27.875 56 
Q 33.9375 56 38.28125 53.609375 
Q 42.625 51.21875 45.40625 46.390625 
L 45.40625 54.6875 
L 54.390625 54.6875 
z
" id="DejaVuSans-103"/>
       <path d="M 25.390625 72.90625 
L 33.6875 72.90625 
L 8.296875 -9.28125 
L 0 -9.28125 
z
" id="DejaVuSans-47"/>
       <path d="M 40.578125 39.3125 
Q 47.65625 37.796875 51.625 33 
Q 55.609375 28.21875 55.609375 21.1875 
Q 55.609375 10.40625 48.1875 4.484375 
Q 40.765625 -1.421875 27.09375 -1.421875 
Q 22.515625 -1.421875 17.65625 -0.515625 
Q 12.796875 0.390625 7.625 2.203125 
L 7.625 11.71875 
Q 11.71875 9.328125 16.59375 8.109375 
Q 21.484375 6.890625 26.8125 6.890625 
Q 36.078125 6.890625 40.9375 10.546875 
Q 45.796875 14.203125 45.796875 21.1875 
Q 45.796875 27.640625 41.28125 31.265625 
Q 36.765625 34.90625 28.71875 34.90625 
L 20.21875 34.90625 
L 20.21875 43.015625 
L 29.109375 43.015625 
Q 36.375 43.015625 40.234375 45.921875 
Q 44.09375 48.828125 44.09375 54.296875 
Q 44.09375 59.90625 40.109375 62.90625 
Q 36.140625 65.921875 28.71875 65.921875 
Q 24.65625 65.921875 20.015625 65.03125 
Q 15.375 64.15625 9.8125 62.3125 
L 9.8125 71.09375 
Q 15.4375 72.65625 20.34375 73.4375 
Q 25.25 74.21875 29.59375 74.21875 
Q 40.828125 74.21875 47.359375 69.109375 
Q 53.90625 64.015625 53.90625 55.328125 
Q 53.90625 49.265625 50.4375 45.09375 
Q 46.96875 40.921875 40.578125 39.3125 
z
" id="DejaVuSans-51"/>
       <path d="M 8.015625 75.875 
L 15.828125 75.875 
Q 23.140625 64.359375 26.78125 53.3125 
Q 30.421875 42.28125 30.421875 31.390625 
Q 30.421875 20.453125 26.78125 9.375 
Q 23.140625 -1.703125 15.828125 -13.1875 
L 8.015625 -13.1875 
Q 14.5 -2 17.703125 9.0625 
Q 20.90625 20.125 20.90625 31.390625 
Q 20.90625 42.671875 17.703125 53.65625 
Q 14.5 64.65625 8.015625 75.875 
z
" id="DejaVuSans-41"/>
      </defs>
      <use xlink:href="#DejaVuSans-80"/>
      <use x="60.302734" xlink:href="#DejaVuSans-77"/>
      <use x="146.582031" xlink:href="#DejaVuSans-49"/>
      <use x="210.205078" xlink:href="#DejaVuSans-48"/>
      <use x="273.828125" xlink:href="#DejaVuSans-40"/>
      <use x="312.841797" xlink:href="#DejaVuSans-109"/>
      <use x="410.253906" xlink:href="#DejaVuSans-105"/>
      <use x="438.037109" xlink:href="#DejaVuSans-99"/>
      <use x="493.017578" xlink:href="#DejaVuSans-114"/>
      <use x="531.880859" xlink:href="#DejaVuSans-111"/>
      <use x="594.9375" xlink:href="#DejaVuSans-45"/>
      <use x="631.021484" xlink:href="#DejaVuSans-103"/>
      <use x="694.498047" xlink:href="#DejaVuSans-114"/>
      <use x="735.611328" xlink:href="#DejaVuSans-97"/>
      <use x="796.890625" xlink:href="#DejaVuSans-109"/>
      <use x="894.302734" xlink:href="#DejaVuSans-47"/>
      <use x="927.994141" xlink:href="#DejaVuSans-109"/>
      <use x="1025.40625" xlink:href="#DejaVuSans-51"/>
      <use x="1089.029297" xlink:href="#DejaVuSans-41"/>
     </g>
    </g>
   </g>
   <g id="line2d_17">
    <path clip-path="url(#p036af409b4)" d="M 138.436364 294.127786 
L 139.273678 353.057406 
L 140.110992 349.493115 
L 140.948306 312.543292 
L 141.78562 293.652547 
L 142.622934 315.513535 
L 143.460248 314.563058 
L 144.297562 277.019186 
L 145.134876 309.45424 
L 145.97219 293.533737 
L 146.809504 323.592596 
L 147.646818 296.819084 
L 148.484132 296.147551 
L 149.321446 338.087382 
L 150.15876 335.354758 
L 150.996074 297.573268 
L 151.833388 340.938815 
L 152.670702 303.513754 
L 153.508016 317.533301 
L 154.345329 338.087382 
L 155.182643 369.928387 
L 156.019957 378.126257 
L 156.857271 413.175124 
L 157.694585 419.35323 
L 158.531899 409.373213 
L 159.369213 373.373868 
L 160.206527 363.393852 
L 161.043841 360.423609 
L 161.881155 342.602151 
L 162.718469 333.097374 
L 163.555783 338.443811 
L 164.393097 395.947715 
L 165.230411 387.890256 
L 166.067725 359.116702 
L 166.905039 344.027868 
L 167.742353 419.828468 
L 168.579667 398.323909 
L 169.416981 372.77982 
L 171.091609 331.196418 
L 171.928923 393.215091 
L 172.766237 392.502233 
L 173.603551 373.373868 
L 174.440865 430.640153 
L 175.278179 395.591286 
L 176.115493 393.463512 
L 176.952807 366.720524 
L 177.790121 364.938378 
L 178.627435 368.740289 
L 179.464749 324.899503 
L 180.302063 329.889511 
L 181.139377 304.93947 
L 181.976691 322.523309 
L 182.814005 363.264241 
L 183.651319 379.314354 
L 184.488633 359.710751 
L 185.325947 367.195763 
L 186.163261 357.572176 
L 187.000575 366.364095 
L 187.837889 357.809795 
L 188.675203 399.470681 
L 189.512517 407.353448 
L 190.349831 361.136467 
L 191.187145 300.305891 
L 192.024459 364.10671 
L 192.861773 370.641245 
L 193.699087 374.918395 
L 194.536401 352.463358 
L 195.373715 272.742037 
L 196.211029 262.286781 
L 197.048343 370.522435 
L 197.885657 296.147551 
L 198.722971 283.672531 
L 199.560285 284.421549 
L 200.397599 311.236385 
L 201.234913 362.205755 
L 202.072227 305.652329 
L 202.909541 299.949462 
L 203.746855 336.305236 
L 204.584169 352.700977 
L 205.421483 337.235051 
L 206.258797 344.740726 
L 207.096111 347.23573 
L 207.933425 366.364095 
L 208.770739 360.18599 
L 209.608053 365.175998 
L 210.445367 376.106492 
L 211.282681 365.175998 
L 212.119995 330.958799 
L 212.957309 305.414709 
L 213.794623 372.77982 
L 214.631937 385.25484 
L 215.469251 408.066306 
L 216.306565 402.601059 
L 217.143879 359.798567 
L 217.981193 311.236385 
L 218.818507 346.285253 
L 219.655821 335.235949 
L 220.493135 285.098247 
L 221.330449 370.760055 
L 222.167763 346.285253 
L 223.842391 254.682959 
L 224.679705 330.958799 
L 225.517019 358.522654 
L 226.354333 330.127131 
L 228.028961 352.23607 
L 228.866275 381.21531 
L 229.703589 397.84867 
L 230.540903 381.0965 
L 231.378217 353.651455 
L 232.215531 304.701851 
L 233.052845 179.951646 
L 233.890159 220.228141 
L 234.727473 301.375179 
L 236.402101 326.562839 
L 237.239415 372.568029 
L 238.076729 343.31501 
L 238.914043 354.720743 
L 239.751357 372.66101 
L 240.588671 370.460447 
L 241.425985 374.086727 
L 242.263299 385.136031 
L 243.100613 379.551974 
L 243.937927 367.433382 
L 244.775241 387.274606 
L 245.612555 373.492678 
L 246.449869 338.087382 
L 247.287183 294.127786 
L 249.799125 402.24463 
L 250.636439 391.314136 
L 251.473753 384.304363 
L 252.311067 383.472695 
L 253.148381 392.280111 
L 253.985695 350.128489 
L 254.823009 356.027649 
L 255.660323 414.363221 
L 256.497637 408.066306 
L 257.334951 412.224646 
L 258.172265 365.501433 
L 259.009579 334.76071 
L 259.846893 324.067835 
L 260.684207 375.156014 
L 261.521521 411.868217 
L 262.358835 392.502233 
L 263.196149 378.720306 
L 264.033463 394.015766 
L 264.870777 377.888638 
L 265.708091 379.014747 
L 266.545405 370.284816 
L 267.382719 407.472258 
L 268.220033 381.809358 
L 269.057347 375.987682 
L 269.89466 351.869309 
L 270.731974 378.482686 
L 271.569288 381.494254 
L 272.406602 412.818695 
L 273.243916 405.690112 
L 274.08123 412.462266 
L 274.918544 377.294589 
L 275.755858 412.38666 
L 276.593172 389.76961 
L 277.430486 388.937942 
L 278.2678 383.947933 
L 279.105114 380.858881 
L 279.942428 394.521998 
L 280.779742 367.314573 
L 281.617056 364.26168 
L 282.45437 349.493115 
L 283.291684 380.502452 
L 284.128998 368.265051 
L 284.966312 385.136031 
L 285.803626 406.046541 
L 286.64094 406.284161 
L 287.478254 395.710096 
L 288.315568 427.194671 
L 289.152882 389.924579 
L 289.990196 384.779601 
L 290.82751 373.373868 
L 291.664824 394.640808 
L 292.502138 379.195545 
L 293.339452 366.126476 
L 294.176766 344.027868 
L 295.01408 340.344767 
L 295.851394 356.978127 
L 296.688708 352.344548 
L 297.526022 399.868436 
L 298.363336 369.571957 
L 299.20065 349.849544 
L 300.037964 338.91905 
L 300.875278 355.583404 
L 301.712592 360.780038 
L 302.549906 369.571957 
L 303.38722 386.442937 
L 304.224534 372.568029 
L 305.061848 419.709659 
L 305.899162 417.927513 
L 306.736476 407.947497 
L 307.57379 367.314573 
L 308.411104 346.166443 
L 309.248418 360.06718 
L 310.085732 361.611706 
L 310.923046 367.671002 
L 311.76036 408.779165 
L 312.597674 414.843626 
L 313.434988 407.709877 
L 314.272302 409.535226 
L 315.109616 432.217082 
L 315.94693 438.956833 
L 316.784244 426.719432 
L 317.621558 409.135594 
L 318.458872 415.788938 
L 319.296186 405.808922 
L 320.1335 419.709659 
L 320.970814 407.709877 
L 321.808128 364.10671 
L 322.645442 377.413399 
L 323.482756 412.983996 
L 324.32007 412.818695 
L 325.157384 401.826213 
L 325.994698 366.958144 
L 326.832012 420.422517 
L 327.669326 408.541545 
L 328.50664 385.136031 
L 329.343954 413.412744 
L 330.181268 404.858444 
L 331.018582 350.562402 
L 331.855896 339.631908 
L 332.69321 377.175779 
L 333.530524 329.533082 
L 334.367838 366.381068 
L 335.205152 335.235949 
L 336.042466 355.087503 
L 336.87978 310.404717 
L 337.717094 324.424264 
L 338.554408 334.285471 
L 339.391722 359.591941 
L 340.229036 213.337177 
L 342.740978 304.93947 
L 343.578292 390.482468 
L 344.415606 389.175561 
L 345.25292 413.056314 
L 346.090234 426.719432 
L 347.764862 305.023336 
L 348.602176 320.978782 
L 349.43949 385.730079 
L 351.114118 400.818913 
L 351.951432 415.07608 
L 352.788746 413.293934 
L 353.62606 407.709877 
L 354.463374 418.521562 
L 355.300688 405.333683 
L 356.138002 425.768954 
L 356.975316 424.818477 
L 357.81263 381.928168 
L 358.649944 383.47786 
L 360.324572 338.80024 
L 361.161886 353.532645 
L 361.9992 364.46314 
L 362.836514 371.591723 
L 363.673828 408.066306 
L 364.511142 409.610833 
L 366.18577 352.819787 
L 367.023084 361.017658 
L 367.860398 333.097374 
L 368.697712 343.1962 
L 369.535026 324.424264 
L 370.37234 344.301647 
L 371.209654 330.721179 
L 372.046968 288.662539 
L 372.884282 258.009631 
L 373.721596 278.801332 
L 374.55891 282.722053 
L 375.396224 392.383423 
L 376.233538 352.938597 
L 377.070852 348.780257 
L 377.908166 311.949244 
L 378.74548 311.236385 
L 379.582794 317.77092 
L 380.420108 323.117357 
L 381.257422 313.803709 
L 382.094736 307.909713 
L 382.93205 295.553503 
L 383.769364 246.12866 
L 384.606678 224.98053 
L 385.443991 249.692951 
L 386.281305 294.484215 
L 387.118619 307.909713 
L 387.955933 330.721179 
L 388.793247 325.018313 
L 389.630561 291.632782 
L 390.467875 298.286126 
L 391.305189 297.335648 
L 392.142503 223.911242 
L 392.979817 303.394944 
L 393.817131 261.573923 
L 394.654445 312.43998 
L 395.491759 157.971848 
L 396.329073 230.326967 
L 397.166387 214.406465 
L 398.003701 201.218586 
L 398.841015 196.109768 
L 399.678329 251.712716 
L 400.515643 283.553721 
L 401.352957 274.642992 
L 402.190271 278.563713 
L 403.027585 308.622572 
L 403.864899 312.780912 
L 404.702213 360.542419 
L 405.539527 372.939955 
L 406.376841 378.482686 
L 407.214155 381.571739 
L 408.051469 372.77982 
L 408.888783 381.928168 
L 409.726097 313.61258 
L 410.563411 265.375834 
L 411.400725 297.810887 
L 412.238039 287.830871 
L 413.075353 279.87062 
L 414.749981 319.553066 
L 415.587295 309.21662 
L 416.424609 293.058498 
L 417.261923 282.840863 
L 418.099237 297.314986 
L 418.936551 290.444685 
L 419.773865 255.752247 
L 421.448493 154.850393 
L 422.285807 228.782441 
L 423.123121 211.792651 
L 423.960435 187.674278 
L 424.797749 225.336959 
L 425.635063 205.697196 
L 426.472377 339.982084 
L 427.309691 276.306328 
L 428.147005 341.182688 
L 428.984319 315.539364 
L 429.821633 261.573923 
L 430.658947 298.761365 
L 431.496261 282.840863 
L 432.333575 249.217712 
L 433.170889 220.346951 
L 434.008203 195.753339 
L 434.845517 164.625192 
L 435.682831 277.375616 
L 436.520145 245.296992 
L 437.357459 288.424919 
L 438.194773 183.397128 
L 439.032087 265.851073 
L 439.869401 293.223799 
L 440.706715 231.039825 
L 441.544029 296.266361 
L 442.381343 313.61258 
L 443.218657 313.49377 
L 444.055971 259.910587 
L 444.893285 242.683178 
L 445.730599 165.338051 
L 446.567913 254.920579 
L 447.405227 204.545258 
L 448.242541 288.781349 
L 449.079855 302.088037 
L 449.917169 283.79134 
L 450.754483 289.494207 
L 451.591797 228.426011 
L 452.429111 179.357598 
L 453.266425 150.404186 
L 454.103739 210.248124 
L 454.941053 222.247906 
L 455.778367 86.923636 
L 456.615681 145.140399 
L 458.290309 282.484434 
L 459.127623 207.040262 
L 459.964937 242.326749 
L 460.802251 218.618809 
L 461.639565 251.118668 
L 462.476879 306.959236 
L 463.314193 259.078919 
L 464.151507 272.395939 
L 464.988821 266.941023 
L 465.826135 318.008539 
L 466.663449 238.168408 
L 467.500763 338.562621 
L 468.338077 327.038078 
L 469.175391 279.395381 
L 470.012705 283.434911 
L 470.850019 294.365405 
L 471.687333 319.315446 
L 472.524647 313.37496 
L 473.361961 314.444248 
L 474.199275 314.800677 
L 475.036589 299.918468 
L 475.873903 412.937505 
L 476.711217 409.016784 
L 477.548531 387.631035 
L 478.385845 373.492678 
L 479.223159 365.413617 
L 480.060473 344.978346 
L 480.897787 341.889293 
L 481.735101 368.027431 
L 482.572415 324.543074 
L 483.409729 315.869965 
L 484.247043 321.335212 
L 485.084357 324.424264 
L 485.921671 337.493333 
L 486.758985 335.829997 
L 487.596299 335.829997 
L 488.433613 370.088521 
L 489.270927 383.235075 
L 490.108241 346.166443 
L 490.945555 347.829779 
L 491.782869 345.928823 
L 492.620183 359.710751 
L 493.457497 347.592159 
L 494.294811 307.315665 
L 495.132125 296.147551 
L 495.969439 301.731608 
L 496.806753 354.245504 
L 497.644067 368.848768 
L 498.481381 321.118255 
L 499.318695 334.76071 
L 500.156009 367.908621 
L 500.993322 325.255932 
L 501.830636 330.24594 
L 502.66795 324.61436 
L 503.505264 358.760273 
L 504.342578 338.562621 
L 505.179892 355.077172 
L 506.017206 363.275042 
L 506.85452 380.740071 
L 507.691834 371.948152 
L 508.529148 278.326093 
L 509.366462 269.415364 
L 510.203776 141.219678 
L 511.04109 95.483102 
L 511.878404 189.586034 
L 512.715718 333.097374 
L 513.553032 330.839989 
L 514.390346 265.732263 
L 515.22766 334.285471 
L 516.064974 339.750718 
L 516.902288 334.166661 
L 518.576916 369.571957 
L 519.41423 370.166006 
L 520.251544 287.118013 
L 521.088858 324.899503 
L 521.926172 296.86041 
L 522.763486 332.028086 
L 523.6008 311.830434 
L 524.438114 366.493236 
L 525.275428 324.224164 
L 526.112742 355.195981 
L 526.950056 368.62148 
L 527.78737 350.443593 
L 528.624684 354.245504 
L 529.461998 356.146459 
L 530.299312 354.720743 
L 531.136626 349.374305 
L 531.97394 129.695135 
L 532.811254 192.679783 
L 533.648568 295.078264 
L 534.485882 291.395162 
L 535.323196 277.137996 
L 536.16051 282.128004 
L 536.997824 349.255495 
L 537.835138 352.106929 
L 538.672452 361.968135 
L 539.509766 399.274387 
L 540.34708 360.661229 
L 541.184394 294.484215 
L 542.021708 301.01875 
L 542.859022 352.582168 
L 543.696336 368.027431 
L 544.53365 357.809795 
L 545.370964 364.46314 
L 546.208278 344.859536 
L 547.045592 306.241212 
L 547.882906 327.750936 
L 548.72022 326.919268 
L 549.557534 365.413617 
L 550.394848 385.611269 
L 551.232162 386.442937 
L 552.069476 378.839115 
L 552.90679 359.054714 
L 553.744104 371.591723 
L 554.581418 388.700322 
L 555.418732 397.135812 
L 556.256046 398.917958 
L 557.09336 395.828905 
L 557.930674 391.789375 
L 558.767988 396.962998 
L 559.605302 406.046541 
L 560.442616 417.214655 
L 561.27993 434.560874 
L 562.117244 422.442282 
L 562.954558 430.164914 
L 563.791872 413.887983 
L 564.629186 409.254403 
L 565.4665 408.185116 
L 566.303814 399.987245 
L 567.141128 384.541982 
L 567.978442 382.522217 
L 568.815756 429.214436 
L 569.65307 404.739634 
L 570.490384 406.537277 
L 571.327698 392.264614 
L 572.165012 344.859536 
L 573.002326 310.048288 
L 573.83964 373.967917 
L 574.676954 394.759618 
L 575.514268 425.768954 
L 576.351582 422.323473 
L 577.188896 415.07608 
L 578.02621 410.204881 
L 578.863524 417.808703 
L 579.700838 406.40297 
L 580.538152 393.215091 
L 581.375466 385.730079 
L 582.21278 385.848889 
L 583.050094 385.213515 
L 584.724722 369.928387 
L 585.562036 358.047415 
L 586.39935 409.140759 
L 587.236664 420.422517 
L 588.073978 420.778946 
L 588.911292 407.115829 
L 589.748606 379.314354 
L 590.58592 367.361064 
L 591.423234 384.304363 
L 592.260548 371.948152 
L 593.097862 367.908621 
L 593.935176 372.89863 
L 594.77249 372.89863 
L 595.609804 380.858881 
L 597.284432 422.561092 
L 598.121746 423.155141 
L 598.95906 410.323691 
L 599.796374 419.35323 
L 600.633688 418.402752 
L 601.471002 435.154922 
L 602.308316 427.43229 
L 603.14563 429.927295 
L 603.982944 419.11561 
L 604.820258 418.521562 
L 605.657572 433.383577 
L 607.3322 394.139741 
L 608.169514 429.570865 
L 609.006828 441.808266 
L 609.844142 433.729206 
L 610.681456 421.491805 
L 611.51877 406.046541 
L 612.356084 360.18599 
L 613.193398 343.909058 
L 614.030712 367.671002 
L 614.868026 397.135812 
L 615.70534 333.334993 
L 616.542653 374.680775 
L 617.379967 404.739634 
L 618.217281 418.759181 
L 619.054595 399.630816 
L 619.891909 409.729642 
L 620.729223 387.393415 
L 621.566537 430.402533 
L 622.403851 371.354103 
L 623.241165 378.126257 
L 624.078479 374.324346 
L 624.915793 361.017658 
L 625.753107 371.948152 
L 626.590421 392.739853 
L 627.427735 382.878646 
L 628.265049 410.442501 
L 629.102363 415.108482 
L 629.939677 402.719869 
L 630.776991 413.887983 
L 631.614305 427.075861 
L 632.451619 422.323473 
L 633.288933 387.631035 
L 634.126247 392.264614 
L 634.963561 409.373213 
L 635.800875 409.254403 
L 636.638189 419.709659 
L 637.475503 420.660137 
L 638.312817 421.848234 
L 639.150131 421.610614 
L 639.987445 426.125384 
L 640.824759 436.461829 
L 641.662073 418.9968 
L 642.499387 416.977035 
L 643.336701 427.907529 
L 644.174015 421.135375 
L 645.011329 408.779165 
L 645.848643 430.164914 
L 646.685957 438.243975 
L 647.523271 438.362785 
L 648.360585 441.214218 
L 649.197899 442.996364 
L 650.035213 425.412525 
L 650.872527 411.868217 
L 651.709841 418.877991 
L 652.547155 377.05697 
L 653.384469 391.551755 
L 654.221783 380.502452 
L 655.059097 359.354322 
L 656.733725 417.214655 
L 657.571039 392.739853 
L 658.408353 394.640808 
L 659.245667 362.562184 
L 660.082981 374.918395 
L 660.920295 437.412307 
L 661.757609 426.957052 
L 662.594923 427.907529 
L 663.432237 438.838023 
L 664.269551 433.124356 
L 665.944179 383.829124 
L 667.618807 336.067617 
L 668.456121 334.404281 
L 669.293435 335.592378 
L 670.130749 324.543074 
L 670.968063 336.424046 
L 671.805377 383.353885 
L 672.642691 409.254403 
L 673.480005 372.423391 
L 674.317319 359.473131 
L 675.154633 338.91905 
L 676.829261 431.439418 
L 677.666575 397.492241 
L 678.503889 416.620606 
L 679.341203 346.674084 
L 680.178517 374.799585 
L 681.015831 408.422735 
L 681.853145 395.591286 
L 682.690459 371.116484 
L 683.527773 379.670784 
L 684.365087 389.76961 
L 685.202401 346.879301 
L 686.039715 319.715079 
L 686.877029 362.918613 
L 687.714343 385.848889 
L 688.551657 397.729861 
L 689.388971 339.394289 
L 690.226285 367.956145 
L 691.063599 334.440837 
L 691.900913 291.513972 
L 692.738227 299.593033 
L 693.575541 318.364969 
L 694.412855 324.543074 
L 695.250169 314.919487 
L 696.087483 311.949244 
L 696.924797 298.642555 
L 697.762111 344.859536 
L 698.599425 309.33543 
L 699.436739 338.35083 
L 700.274053 356.859317 
L 701.111367 379.433164 
L 701.948681 385.25484 
L 702.785995 383.235075 
L 703.623309 339.750718 
L 704.460623 317.332238 
L 705.297937 321.691641 
L 706.135251 292.820879 
L 706.972565 309.097811 
L 707.809879 329.533082 
L 708.647193 317.176871 
L 709.484507 249.584473 
L 710.321821 228.544821 
L 711.159135 314.563058 
L 711.996449 288.662539 
L 712.833763 345.097155 
L 713.671077 340.582386 
L 714.508391 378.363877 
L 715.345705 303.988993 
L 716.183019 247.079137 
L 717.020333 220.46576 
L 717.857647 263.237259 
L 718.694961 284.02896 
L 719.532275 253.732482 
L 720.369589 267.395599 
L 721.206903 256.940344 
L 722.044217 298.048507 
L 722.881531 299.174616 
L 723.718845 320.978782 
L 724.556159 333.453803 
L 725.393473 265.969883 
L 726.230787 287.830871 
L 727.068101 281.890385 
L 727.905415 309.573049 
L 728.742729 291.038733 
L 730.417357 328.582604 
L 731.254671 253.732482 
L 732.091984 209.772886 
L 732.929298 233.591651 
L 733.766612 329.176653 
L 734.603926 333.929042 
L 735.44124 335.592378 
L 736.278554 268.346077 
L 737.115868 260.979874 
L 737.953182 321.097592 
L 738.790496 411.036549 
L 740.465124 302.919705 
L 741.302438 197.535485 
L 742.139752 284.623008 
L 742.977066 323.711406 
L 743.81438 368.977909 
L 745.489008 221.772667 
L 746.326322 299.794493 
L 747.163636 288.543729 
L 747.163636 288.543729 
" style="fill:none;stroke:#1f77b4;stroke-linecap:square;stroke-width:1.5;"/>
   </g>
   <g id="line2d_18">
    <path clip-path="url(#p036af409b4)" d="M 138.436364 295.516353 
L 139.273678 300.588681 
L 140.110992 320.833853 
L 140.948306 307.863521 
L 141.78562 272.636664 
L 142.622934 270.367865 
L 143.460248 292.878442 
L 144.297562 288.16622 
L 145.134876 290.994223 
L 145.97219 237.762843 
L 146.809504 272.259851 
L 147.646818 250.741528 
L 148.484132 283.162637 
L 149.321446 290.28911 
L 150.15876 284.418384 
L 150.996074 274.738887 
L 151.833388 287.199984 
L 152.670702 294.938395 
L 153.508016 285.775399 
L 154.345329 309.441401 
L 155.182643 310.662221 
L 156.019957 337.413388 
L 156.857271 345.716813 
L 158.531899 289.444135 
L 159.369213 285.925833 
L 160.206527 271.622677 
L 161.043841 270.429192 
L 161.881155 295.239154 
L 162.718469 290.638577 
L 163.555783 314.485654 
L 164.393097 306.029631 
L 165.230411 312.271775 
L 166.067725 327.143197 
L 166.905039 315.564971 
L 167.742353 327.173447 
L 168.579667 342.638967 
L 169.416981 321.110725 
L 170.254295 320.119406 
L 171.091609 317.193213 
L 171.928923 319.325381 
L 172.766237 328.355565 
L 173.603551 321.238914 
L 174.440865 325.080774 
L 175.278179 304.651025 
L 176.115493 274.130777 
L 177.790121 357.975341 
L 178.627435 365.000785 
L 179.464749 315.809309 
L 180.302063 323.219148 
L 181.139377 289.307972 
L 181.976691 269.133721 
L 182.814005 288.426384 
L 184.488633 341.888191 
L 185.325947 343.289575 
L 186.163261 330.432324 
L 187.000575 322.996597 
L 187.837889 323.920748 
L 188.675203 319.887534 
L 189.512517 320.652212 
L 190.349831 321.104318 
L 191.187145 313.505355 
L 192.024459 323.070574 
L 192.861773 320.25757 
L 193.699087 315.498325 
L 194.536401 308.681367 
L 195.373715 316.332357 
L 196.211029 306.710597 
L 197.048343 303.543144 
L 197.885657 269.417293 
L 198.722971 271.492475 
L 199.560285 298.313987 
L 200.397599 302.507544 
L 201.234913 316.192975 
L 202.072227 323.596711 
L 202.909541 327.113012 
L 203.746855 306.454882 
L 204.584169 314.870952 
L 205.421483 297.971132 
L 206.258797 319.119832 
L 207.096111 335.985692 
L 207.933425 335.159677 
L 208.770739 332.239401 
L 209.608053 324.56869 
L 210.445367 321.526936 
L 211.282681 332.977266 
L 212.119995 342.296287 
L 212.957309 319.537163 
L 213.794623 317.095839 
L 214.631937 309.74687 
L 216.306565 330.476551 
L 217.143879 334.038156 
L 217.981193 309.488978 
L 218.818507 303.492858 
L 219.655821 316.094698 
L 220.493135 306.043054 
L 221.330449 273.790316 
L 222.167763 255.928177 
L 223.005077 293.691938 
L 223.842391 279.090829 
L 224.679705 313.560209 
L 225.517019 338.809486 
L 227.191647 341.672253 
L 228.028961 329.442463 
L 228.866275 320.660109 
L 229.703589 334.018773 
L 230.540903 338.128052 
L 231.378217 317.997604 
L 232.215531 294.672857 
L 233.052845 249.539667 
L 233.890159 237.584476 
L 234.727473 270.430127 
L 235.564787 290.442872 
L 236.402101 319.793618 
L 237.239415 354.239895 
L 238.076729 345.496405 
L 238.914043 330.543915 
L 239.751357 367.388528 
L 240.588671 370.908266 
L 241.425985 359.99569 
L 242.263299 356.041304 
L 243.100613 356.798771 
L 243.937927 346.789668 
L 244.775241 350.193736 
L 246.449869 331.551571 
L 247.287183 302.215944 
L 248.124497 306.321536 
L 248.961811 313.777201 
L 249.799125 356.318057 
L 250.636439 353.143805 
L 251.473753 345.678525 
L 252.311067 340.930864 
L 253.148381 343.491622 
L 253.985695 338.339236 
L 254.823009 326.374418 
L 255.660323 326.438497 
L 256.497637 334.211019 
L 257.334951 349.636087 
L 258.172265 354.336409 
L 259.009579 336.877907 
L 259.846893 315.223183 
L 260.684207 330.234378 
L 261.521521 341.222627 
L 262.358835 358.548121 
L 263.196149 347.723369 
L 264.033463 342.853839 
L 264.870777 341.242576 
L 265.708091 338.78115 
L 266.545405 338.803852 
L 267.382719 357.511041 
L 268.220033 357.015012 
L 269.057347 345.989987 
L 269.89466 337.458943 
L 270.731974 336.567098 
L 271.569288 325.852969 
L 272.406602 371.208122 
L 273.243916 400.66979 
L 274.08123 400.549258 
L 274.918544 369.038166 
L 275.755858 348.823646 
L 276.593172 359.218199 
L 278.2678 383.464638 
L 279.105114 381.06976 
L 279.942428 390.132005 
L 281.617056 364.904401 
L 282.45437 344.831581 
L 283.291684 352.815962 
L 284.128998 340.25786 
L 284.966312 340.283596 
L 285.803626 358.184197 
L 286.64094 395.928504 
L 287.478254 391.707492 
L 288.315568 398.806527 
L 289.990196 356.835057 
L 290.82751 357.717113 
L 292.502138 356.675508 
L 293.339452 354.989736 
L 294.176766 350.053919 
L 295.01408 333.348271 
L 295.851394 333.118411 
L 296.688708 323.669873 
L 297.526022 350.816247 
L 298.363336 365.715025 
L 299.20065 372.605068 
L 300.037964 324.589335 
L 300.875278 335.299037 
L 301.712592 352.751894 
L 302.549906 343.720535 
L 303.38722 380.170453 
L 304.224534 370.189501 
L 305.061848 381.972058 
L 305.899162 396.035178 
L 306.736476 402.08067 
L 308.411104 356.644247 
L 309.248418 352.215162 
L 310.085732 353.51406 
L 310.923046 364.181275 
L 311.76036 386.933481 
L 312.597674 405.236321 
L 313.434988 393.401564 
L 314.272302 371.13644 
L 315.109616 352.39441 
L 315.94693 351.4177 
L 316.784244 351.309807 
L 317.621558 353.881997 
L 318.458872 371.130012 
L 319.296186 356.917562 
L 320.1335 372.009467 
L 320.970814 393.002501 
L 321.808128 378.742202 
L 322.645442 370.428694 
L 323.482756 352.482832 
L 324.32007 358.747024 
L 325.157384 351.893856 
L 325.994698 350.458273 
L 326.832012 384.361422 
L 327.669326 395.049543 
L 328.50664 360.877028 
L 329.343954 351.487336 
L 330.181268 364.398082 
L 331.018582 327.695919 
L 331.855896 333.588019 
L 332.69321 374.089533 
L 333.530524 354.255514 
L 334.367838 345.503454 
L 335.205152 341.245589 
L 336.042466 353.606789 
L 336.87978 343.025744 
L 337.717094 319.751806 
L 338.554408 316.807328 
L 339.391722 337.633731 
L 340.229036 327.547204 
L 342.740978 292.140109 
L 343.578292 321.714527 
L 344.415606 346.917553 
L 345.25292 366.603292 
L 346.090234 371.163372 
L 346.927548 368.634649 
L 347.764862 322.025597 
L 348.602176 310.538708 
L 350.276804 340.940904 
L 351.114118 365.453033 
L 351.951432 376.346671 
L 352.788746 379.745692 
L 354.463374 364.179523 
L 355.300688 360.160722 
L 356.138002 354.965751 
L 356.975316 379.846406 
L 357.81263 377.111262 
L 358.649944 351.740431 
L 359.487258 358.487719 
L 360.324572 332.28576 
L 361.161886 335.535402 
L 361.9992 324.666488 
L 362.836514 329.663186 
L 363.673828 343.313059 
L 364.511142 341.725215 
L 365.348456 347.469242 
L 367.023084 323.092709 
L 367.860398 323.591741 
L 368.697712 333.112689 
L 369.535026 332.329976 
L 370.37234 316.749145 
L 371.209654 316.388756 
L 372.046968 291.215621 
L 372.884282 253.10013 
L 373.721596 260.219468 
L 374.55891 278.873804 
L 375.396224 317.748143 
L 376.233538 340.70815 
L 377.070852 331.272175 
L 377.908166 310.112196 
L 378.74548 315.374443 
L 379.582794 308.241041 
L 380.420108 307.648117 
L 381.257422 311.950828 
L 382.094736 301.843025 
L 382.93205 289.761231 
L 383.769364 272.502677 
L 384.606678 267.59625 
L 385.443991 276.268613 
L 386.281305 289.964442 
L 387.118619 281.715187 
L 387.955933 307.048437 
L 388.793247 322.004789 
L 389.630561 318.48591 
L 390.467875 297.417279 
L 391.305189 289.465476 
L 392.142503 240.327679 
L 392.979817 262.507084 
L 393.817131 269.12665 
L 394.654445 266.779491 
L 395.491759 269.645283 
L 396.329073 207.599829 
L 398.003701 208.064706 
L 398.841015 208.960173 
L 399.678329 250.869837 
L 400.515643 252.800546 
L 401.352957 265.118193 
L 402.190271 301.383946 
L 403.027585 321.42495 
L 403.864899 298.3837 
L 404.702213 314.11242 
L 406.376841 355.719193 
L 407.214155 341.850142 
L 408.051469 333.698848 
L 408.888783 352.302572 
L 409.726097 338.339628 
L 410.563411 291.631353 
L 411.400725 302.007556 
L 412.238039 284.963861 
L 413.075353 274.83811 
L 413.912667 280.998478 
L 414.749981 271.478857 
L 415.587295 274.118356 
L 416.424609 271.487602 
L 417.261923 255.037082 
L 418.099237 226.858882 
L 418.936551 241.298636 
L 419.773865 244.995435 
L 420.611179 225.596108 
L 421.448493 198.269278 
L 422.285807 245.481544 
L 423.123121 239.417354 
L 423.960435 268.559222 
L 424.797749 267.099264 
L 425.635063 280.887094 
L 426.472377 287.240687 
L 427.309691 303.996425 
L 428.147005 296.353887 
L 428.984319 300.022253 
L 429.821633 282.928491 
L 430.658947 284.767394 
L 431.496261 274.313952 
L 432.333575 268.353401 
L 433.170889 220.7452 
L 434.008203 199.96967 
L 434.845517 204.005212 
L 435.682831 260.027504 
L 436.520145 267.078379 
L 437.357459 276.625825 
L 438.194773 229.398984 
L 439.032087 214.351839 
L 439.869401 258.461948 
L 440.706715 239.180379 
L 441.544029 228.958342 
L 442.381343 228.135035 
L 443.218657 271.163261 
L 444.055971 272.195022 
L 444.893285 245.757568 
L 445.730599 235.230399 
L 446.567913 236.102306 
L 447.405227 230.62645 
L 448.242541 260.398161 
L 449.079855 250.368696 
L 449.917169 242.075387 
L 450.754483 254.95733 
L 451.591797 242.05496 
L 452.429111 206.893672 
L 453.266425 183.057363 
L 454.103739 185.854562 
L 454.941053 219.272036 
L 455.778367 236.133545 
L 456.615681 242.994241 
L 457.452995 203.48423 
L 458.290309 233.866313 
L 459.127623 246.734224 
L 459.964937 264.175344 
L 460.802251 255.560566 
L 461.639565 221.992789 
L 462.476879 283.283984 
L 463.314193 297.765485 
L 464.151507 256.888191 
L 464.988821 277.2764 
L 465.826135 286.644913 
L 466.663449 247.523006 
L 467.500763 267.193353 
L 468.338077 289.945537 
L 469.175391 292.336946 
L 470.012705 275.650692 
L 470.850019 267.781492 
L 471.687333 296.396918 
L 472.524647 307.512596 
L 473.361961 310.885826 
L 474.199275 281.010117 
L 475.036589 278.747866 
L 476.711217 309.692265 
L 478.385845 292.651823 
L 479.223159 292.789792 
L 480.060473 306.516513 
L 480.897787 311.867791 
L 481.735101 316.089477 
L 482.572415 294.91812 
L 483.409729 290.313322 
L 484.247043 300.876028 
L 485.084357 297.5983 
L 485.921671 297.226795 
L 486.758985 301.678178 
L 487.596299 319.132874 
L 488.433613 333.311255 
L 489.270927 336.772342 
L 490.108241 333.553483 
L 490.945555 333.998704 
L 491.782869 330.546797 
L 492.620183 320.302059 
L 493.457497 297.322276 
L 494.294811 307.75689 
L 495.132125 309.879802 
L 495.969439 304.646554 
L 496.806753 309.448874 
L 497.644067 315.734919 
L 499.318695 294.974356 
L 500.156009 315.954728 
L 500.993322 320.873218 
L 501.830636 306.985577 
L 502.66795 306.067735 
L 503.505264 312.741775 
L 504.342578 304.887759 
L 505.179892 314.295529 
L 506.017206 327.410682 
L 506.85452 348.49726 
L 507.691834 336.499995 
L 508.529148 287.654288 
L 509.366462 280.450499 
L 510.203776 238.184623 
L 511.04109 234.765957 
L 511.878404 234.243997 
L 512.715718 253.614259 
L 513.553032 297.851677 
L 514.390346 306.260471 
L 515.22766 308.914632 
L 516.064974 325.95353 
L 516.902288 333.337274 
L 517.739602 328.478555 
L 518.576916 334.712704 
L 519.41423 333.496148 
L 520.251544 310.449199 
L 521.088858 297.018537 
L 521.926172 304.718443 
L 522.763486 294.124574 
L 523.6008 299.367632 
L 524.438114 319.923614 
L 525.275428 307.21485 
L 526.112742 308.190516 
L 526.950056 327.514126 
L 527.78737 350.262448 
L 529.461998 330.841889 
L 530.299312 334.07341 
L 531.136626 321.411745 
L 531.97394 274.875137 
L 532.811254 238.987219 
L 533.648568 250.09872 
L 534.485882 293.096751 
L 535.323196 299.243805 
L 536.16051 285.874883 
L 536.997824 300.696214 
L 537.835138 313.126235 
L 538.672452 322.732495 
L 539.509766 330.206782 
L 540.34708 327.878854 
L 541.184394 326.298211 
L 542.021708 285.467679 
L 542.859022 308.939705 
L 544.53365 332.926762 
L 545.370964 334.188633 
L 546.208278 329.022118 
L 547.045592 302.231629 
L 547.882906 314.00903 
L 548.72022 314.015753 
L 549.557534 327.811436 
L 550.394848 354.310717 
L 551.232162 361.07877 
L 552.069476 361.997744 
L 552.90679 343.881868 
L 553.744104 339.487569 
L 554.581418 359.344692 
L 555.418732 368.41101 
L 556.256046 379.878864 
L 557.09336 387.911823 
L 557.930674 378.71664 
L 558.767988 378.281307 
L 559.605302 377.656751 
L 560.442616 397.550426 
L 561.27993 410.023674 
L 562.117244 414.017186 
L 562.954558 401.758635 
L 563.791872 394.261723 
L 564.629186 385.410401 
L 566.303814 407.390239 
L 567.141128 388.247041 
L 567.978442 363.122854 
L 568.815756 363.592875 
L 569.65307 368.517173 
L 570.490384 346.869095 
L 571.327698 346.083739 
L 572.165012 329.566302 
L 573.002326 307.59324 
L 573.83964 308.410173 
L 575.514268 381.594364 
L 576.351582 391.754765 
L 577.188896 380.34399 
L 578.02621 380.390317 
L 578.863524 379.342273 
L 579.700838 353.164831 
L 580.538152 343.578836 
L 582.21278 366.615148 
L 583.050094 376.348901 
L 583.887408 380.119949 
L 585.562036 352.882499 
L 586.39935 358.03223 
L 587.236664 357.64331 
L 588.073978 362.375438 
L 588.911292 358.824297 
L 589.748606 353.148504 
L 590.58592 337.155552 
L 591.423234 332.937618 
L 592.260548 345.428802 
L 593.935176 326.556951 
L 594.77249 334.35633 
L 595.609804 353.683398 
L 596.447118 363.869747 
L 597.284432 369.813884 
L 598.121746 381.746266 
L 598.95906 400.946456 
L 599.796374 393.990311 
L 600.633688 400.066744 
L 601.471002 418.817977 
L 602.308316 419.029248 
L 603.14563 413.598701 
L 603.982944 409.465883 
L 604.820258 407.661319 
L 605.657572 409.595992 
L 606.494886 406.857558 
L 607.3322 374.955207 
L 608.169514 377.041723 
L 609.006828 368.466245 
L 609.844142 373.903617 
L 610.681456 361.177069 
L 611.51877 355.757416 
L 612.356084 353.600774 
L 614.030712 344.995068 
L 614.868026 363.128184 
L 615.70534 363.18306 
L 616.542653 356.329075 
L 618.217281 369.756028 
L 619.054595 366.753736 
L 619.891909 362.75038 
L 620.729223 359.443599 
L 621.566537 362.543896 
L 622.403851 359.687339 
L 623.241165 360.375604 
L 624.078479 344.597109 
L 624.915793 344.046225 
L 625.753107 329.06293 
L 626.590421 329.078267 
L 627.427735 343.002924 
L 628.265049 346.937861 
L 629.102363 343.09375 
L 629.939677 355.904239 
L 630.776991 371.981708 
L 631.614305 367.436377 
L 632.451619 358.103128 
L 633.288933 347.378612 
L 634.126247 348.255533 
L 634.963561 362.528091 
L 635.800875 370.726157 
L 636.638189 382.219931 
L 637.475503 389.08011 
L 638.312817 408.802881 
L 639.150131 410.55383 
L 639.987445 406.47219 
L 640.824759 408.375559 
L 641.662073 404.735936 
L 642.499387 388.23934 
L 643.336701 396.144175 
L 644.174015 372.936729 
L 645.011329 368.961611 
L 645.848643 369.66034 
L 646.685957 376.079186 
L 647.523271 385.496495 
L 648.360585 411.391626 
L 649.197899 419.971074 
L 650.035213 408.693177 
L 650.872527 394.445773 
L 651.709841 400.99734 
L 652.547155 378.906852 
L 653.384469 370.167616 
L 654.221783 395.642255 
L 655.059097 358.708345 
L 655.896411 351.864444 
L 656.733725 362.542862 
L 657.571039 362.766783 
L 659.245667 351.236635 
L 660.082981 352.902404 
L 660.920295 377.434211 
L 661.757609 386.398652 
L 662.594923 385.800104 
L 663.432237 381.705802 
L 664.269551 386.830864 
L 665.106865 391.077231 
L 665.944179 370.259312 
L 666.781493 342.350533 
L 667.618807 336.435079 
L 668.456121 315.162704 
L 669.293435 315.690017 
L 670.130749 314.402878 
L 670.968063 308.930774 
L 671.805377 323.561686 
L 672.642691 371.261464 
L 673.480005 348.990157 
L 674.317319 344.545093 
L 675.154633 326.119714 
L 676.829261 368.70248 
L 677.666575 366.783638 
L 678.503889 356.358803 
L 679.341203 326.713889 
L 680.178517 324.937552 
L 681.015831 354.96512 
L 681.853145 364.726371 
L 682.690459 328.959487 
L 683.527773 321.556957 
L 684.365087 318.162766 
L 685.202401 335.131657 
L 686.039715 315.251736 
L 686.877029 324.180586 
L 687.714343 340.823189 
L 688.551657 352.677221 
L 689.388971 351.001086 
L 690.226285 312.719716 
L 691.063599 310.906037 
L 691.900913 317.477264 
L 692.738227 298.468848 
L 693.575541 304.902346 
L 694.412855 307.215111 
L 695.250169 298.654274 
L 696.087483 293.90583 
L 696.924797 290.252039 
L 697.762111 303.933815 
L 698.599425 306.869374 
L 699.436739 314.823984 
L 701.111367 333.755758 
L 701.948681 316.766342 
L 702.785995 305.997511 
L 703.623309 310.941127 
L 704.460623 297.517438 
L 705.297937 318.506991 
L 706.135251 312.921871 
L 706.972565 302.827012 
L 707.809879 302.922308 
L 708.647193 329.535312 
L 709.484507 300.052384 
L 710.321821 257.363096 
L 711.159135 265.829398 
L 711.996449 262.989821 
L 712.833763 297.223358 
L 713.671077 303.676087 
L 714.508391 297.919704 
L 715.345705 300.046673 
L 716.183019 295.295782 
L 717.020333 234.204555 
L 717.857647 240.217252 
L 718.694961 269.325989 
L 719.532275 261.64129 
L 720.369589 265.725171 
L 721.206903 214.135836 
L 722.044217 243.338227 
L 722.881531 283.864987 
L 723.718845 284.415882 
L 724.556159 314.866329 
L 725.393473 262.15481 
L 726.230787 286.231747 
L 727.068101 275.507089 
L 727.905415 296.024456 
L 728.742729 297.855996 
L 729.580043 281.904388 
L 730.417357 300.450723 
L 731.254671 262.434902 
L 732.091984 219.067607 
L 732.929298 244.141193 
L 733.766612 293.747673 
L 734.603926 293.585492 
L 735.44124 286.494566 
L 736.278554 268.540579 
L 737.115868 299.326375 
L 737.953182 301.644263 
L 738.790496 323.478366 
L 739.62781 322.775199 
L 740.465124 308.117344 
L 741.302438 279.897625 
L 742.139752 273.177769 
L 742.977066 254.072827 
L 743.81438 288.445528 
L 744.651694 315.638273 
L 745.489008 283.382185 
L 746.326322 263.875194 
L 747.163636 265.980702 
L 747.163636 265.980702 
" style="fill:none;stroke:#ff0000;stroke-dasharray:5.55,2.4;stroke-dashoffset:0;stroke-width:1.5;"/>
   </g>
   <g id="patch_3">
    <path d="M 108 460.8 
L 108 69.12 
" style="fill:none;stroke:#000000;stroke-linecap:square;stroke-linejoin:miter;stroke-width:0.8;"/>
   </g>
   <g id="patch_4">
    <path d="M 777.6 460.8 
L 777.6 69.12 
" style="fill:none;stroke:#000000;stroke-linecap:square;stroke-linejoin:miter;stroke-width:0.8;"/>
   </g>
   <g id="patch_5">
    <path d="M 108 460.8 
L 777.6 460.8 
" style="fill:none;stroke:#000000;stroke-linecap:square;stroke-linejoin:miter;stroke-width:0.8;"/>
   </g>
   <g id="patch_6">
    <path d="M 108 69.12 
L 777.6 69.12 
" style="fill:none;stroke:#000000;stroke-linecap:square;stroke-linejoin:miter;stroke-width:0.8;"/>
   </g>
   <g id="text_19">
    <!-- Macau residential 2020-2021 | Forecast vs Monitored | LSTM -->
    <g transform="translate(216.121875 63.12)scale(0.15 -0.15)">
     <defs>
      <path d="M 8.5 21.578125 
L 8.5 54.6875 
L 17.484375 54.6875 
L 17.484375 21.921875 
Q 17.484375 14.15625 20.5 10.265625 
Q 23.53125 6.390625 29.59375 6.390625 
Q 36.859375 6.390625 41.078125 11.03125 
Q 45.3125 15.671875 45.3125 23.6875 
L 45.3125 54.6875 
L 54.296875 54.6875 
L 54.296875 0 
L 45.3125 0 
L 45.3125 8.40625 
Q 42.046875 3.421875 37.71875 1 
Q 33.40625 -1.421875 27.6875 -1.421875 
Q 18.265625 -1.421875 13.375 4.4375 
Q 8.5 10.296875 8.5 21.578125 
z
M 31.109375 56 
z
" id="DejaVuSans-117"/>
      <path id="DejaVuSans-32"/>
      <path d="M 44.28125 53.078125 
L 44.28125 44.578125 
Q 40.484375 46.53125 36.375 47.5 
Q 32.28125 48.484375 27.875 48.484375 
Q 21.1875 48.484375 17.84375 46.4375 
Q 14.5 44.390625 14.5 40.28125 
Q 14.5 37.15625 16.890625 35.375 
Q 19.28125 33.59375 26.515625 31.984375 
L 29.59375 31.296875 
Q 39.15625 29.25 43.1875 25.515625 
Q 47.21875 21.78125 47.21875 15.09375 
Q 47.21875 7.46875 41.1875 3.015625 
Q 35.15625 -1.421875 24.609375 -1.421875 
Q 20.21875 -1.421875 15.453125 -0.5625 
Q 10.6875 0.296875 5.421875 2 
L 5.421875 11.28125 
Q 10.40625 8.6875 15.234375 7.390625 
Q 20.0625 6.109375 24.8125 6.109375 
Q 31.15625 6.109375 34.5625 8.28125 
Q 37.984375 10.453125 37.984375 14.40625 
Q 37.984375 18.0625 35.515625 20.015625 
Q 33.0625 21.96875 24.703125 23.78125 
L 21.578125 24.515625 
Q 13.234375 26.265625 9.515625 29.90625 
Q 5.8125 33.546875 5.8125 39.890625 
Q 5.8125 47.609375 11.28125 51.796875 
Q 16.75 56 26.8125 56 
Q 31.78125 56 36.171875 55.265625 
Q 40.578125 54.546875 44.28125 53.078125 
z
" id="DejaVuSans-115"/>
      <path d="M 45.40625 46.390625 
L 45.40625 75.984375 
L 54.390625 75.984375 
L 54.390625 0 
L 45.40625 0 
L 45.40625 8.203125 
Q 42.578125 3.328125 38.25 0.953125 
Q 33.9375 -1.421875 27.875 -1.421875 
Q 17.96875 -1.421875 11.734375 6.484375 
Q 5.515625 14.40625 5.515625 27.296875 
Q 5.515625 40.1875 11.734375 48.09375 
Q 17.96875 56 27.875 56 
Q 33.9375 56 38.25 53.625 
Q 42.578125 51.265625 45.40625 46.390625 
z
M 14.796875 27.296875 
Q 14.796875 17.390625 18.875 11.75 
Q 22.953125 6.109375 30.078125 6.109375 
Q 37.203125 6.109375 41.296875 11.75 
Q 45.40625 17.390625 45.40625 27.296875 
Q 45.40625 37.203125 41.296875 42.84375 
Q 37.203125 48.484375 30.078125 48.484375 
Q 22.953125 48.484375 18.875 42.84375 
Q 14.796875 37.203125 14.796875 27.296875 
z
" id="DejaVuSans-100"/>
      <path d="M 54.890625 33.015625 
L 54.890625 0 
L 45.90625 0 
L 45.90625 32.71875 
Q 45.90625 40.484375 42.875 44.328125 
Q 39.84375 48.1875 33.796875 48.1875 
Q 26.515625 48.1875 22.3125 43.546875 
Q 18.109375 38.921875 18.109375 30.90625 
L 18.109375 0 
L 9.078125 0 
L 9.078125 54.6875 
L 18.109375 54.6875 
L 18.109375 46.1875 
Q 21.34375 51.125 25.703125 53.5625 
Q 30.078125 56 35.796875 56 
Q 45.21875 56 50.046875 50.171875 
Q 54.890625 44.34375 54.890625 33.015625 
z
" id="DejaVuSans-110"/>
      <path d="M 9.421875 75.984375 
L 18.40625 75.984375 
L 18.40625 0 
L 9.421875 0 
z
" id="DejaVuSans-108"/>
      <path d="M 21 76.421875 
L 21 -23.578125 
L 12.703125 -23.578125 
L 12.703125 76.421875 
z
" id="DejaVuSans-124"/>
      <path d="M 9.8125 72.90625 
L 51.703125 72.90625 
L 51.703125 64.59375 
L 19.671875 64.59375 
L 19.671875 43.109375 
L 48.578125 43.109375 
L 48.578125 34.8125 
L 19.671875 34.8125 
L 19.671875 0 
L 9.8125 0 
z
" id="DejaVuSans-70"/>
      <path d="M 2.984375 54.6875 
L 12.5 54.6875 
L 29.59375 8.796875 
L 46.6875 54.6875 
L 56.203125 54.6875 
L 35.6875 0 
L 23.484375 0 
z
" id="DejaVuSans-118"/>
      <path d="M 9.8125 72.90625 
L 19.671875 72.90625 
L 19.671875 8.296875 
L 55.171875 8.296875 
L 55.171875 0 
L 9.8125 0 
z
" id="DejaVuSans-76"/>
      <path d="M 53.515625 70.515625 
L 53.515625 60.890625 
Q 47.90625 63.578125 42.921875 64.890625 
Q 37.9375 66.21875 33.296875 66.21875 
Q 25.25 66.21875 20.875 63.09375 
Q 16.5 59.96875 16.5 54.203125 
Q 16.5 49.359375 19.40625 46.890625 
Q 22.3125 44.4375 30.421875 42.921875 
L 36.375 41.703125 
Q 47.40625 39.59375 52.65625 34.296875 
Q 57.90625 29 57.90625 20.125 
Q 57.90625 9.515625 50.796875 4.046875 
Q 43.703125 -1.421875 29.984375 -1.421875 
Q 24.8125 -1.421875 18.96875 -0.25 
Q 13.140625 0.921875 6.890625 3.21875 
L 6.890625 13.375 
Q 12.890625 10.015625 18.65625 8.296875 
Q 24.421875 6.59375 29.984375 6.59375 
Q 38.421875 6.59375 43.015625 9.90625 
Q 47.609375 13.234375 47.609375 19.390625 
Q 47.609375 24.75 44.3125 27.78125 
Q 41.015625 30.8125 33.5 32.328125 
L 27.484375 33.5 
Q 16.453125 35.6875 11.515625 40.375 
Q 6.59375 45.0625 6.59375 53.421875 
Q 6.59375 63.09375 13.40625 68.65625 
Q 20.21875 74.21875 32.171875 74.21875 
Q 37.3125 74.21875 42.625 73.28125 
Q 47.953125 72.359375 53.515625 70.515625 
z
" id="DejaVuSans-83"/>
      <path d="M -0.296875 72.90625 
L 61.375 72.90625 
L 61.375 64.59375 
L 35.5 64.59375 
L 35.5 0 
L 25.59375 0 
L 25.59375 64.59375 
L -0.296875 64.59375 
z
" id="DejaVuSans-84"/>
     </defs>
     <use xlink:href="#DejaVuSans-77"/>
     <use x="86.279297" xlink:href="#DejaVuSans-97"/>
     <use x="147.558594" xlink:href="#DejaVuSans-99"/>
     <use x="202.539062" xlink:href="#DejaVuSans-97"/>
     <use x="263.818359" xlink:href="#DejaVuSans-117"/>
     <use x="327.197266" xlink:href="#DejaVuSans-32"/>
     <use x="358.984375" xlink:href="#DejaVuSans-114"/>
     <use x="397.847656" xlink:href="#DejaVuSans-101"/>
     <use x="459.371094" xlink:href="#DejaVuSans-115"/>
     <use x="511.470703" xlink:href="#DejaVuSans-105"/>
     <use x="539.253906" xlink:href="#DejaVuSans-100"/>
     <use x="602.730469" xlink:href="#DejaVuSans-101"/>
     <use x="664.253906" xlink:href="#DejaVuSans-110"/>
     <use x="727.632812" xlink:href="#DejaVuSans-116"/>
     <use x="766.841797" xlink:href="#DejaVuSans-105"/>
     <use x="794.625" xlink:href="#DejaVuSans-97"/>
     <use x="855.904297" xlink:href="#DejaVuSans-108"/>
     <use x="883.6875" xlink:href="#DejaVuSans-32"/>
     <use x="915.474609" xlink:href="#DejaVuSans-50"/>
     <use x="979.097656" xlink:href="#DejaVuSans-48"/>
     <use x="1042.720703" xlink:href="#DejaVuSans-50"/>
     <use x="1106.34375" xlink:href="#DejaVuSans-48"/>
     <use x="1169.966797" xlink:href="#DejaVuSans-45"/>
     <use x="1206.050781" xlink:href="#DejaVuSans-50"/>
     <use x="1269.673828" xlink:href="#DejaVuSans-48"/>
     <use x="1333.296875" xlink:href="#DejaVuSans-50"/>
     <use x="1396.919922" xlink:href="#DejaVuSans-49"/>
     <use x="1460.542969" xlink:href="#DejaVuSans-32"/>
     <use x="1492.330078" xlink:href="#DejaVuSans-124"/>
     <use x="1526.021484" xlink:href="#DejaVuSans-32"/>
     <use x="1557.808594" xlink:href="#DejaVuSans-70"/>
     <use x="1611.703125" xlink:href="#DejaVuSans-111"/>
     <use x="1672.884766" xlink:href="#DejaVuSans-114"/>
     <use x="1711.748047" xlink:href="#DejaVuSans-101"/>
     <use x="1773.271484" xlink:href="#DejaVuSans-99"/>
     <use x="1828.251953" xlink:href="#DejaVuSans-97"/>
     <use x="1889.53125" xlink:href="#DejaVuSans-115"/>
     <use x="1941.630859" xlink:href="#DejaVuSans-116"/>
     <use x="1980.839844" xlink:href="#DejaVuSans-32"/>
     <use x="2012.626953" xlink:href="#DejaVuSans-118"/>
     <use x="2071.806641" xlink:href="#DejaVuSans-115"/>
     <use x="2123.90625" xlink:href="#DejaVuSans-32"/>
     <use x="2155.693359" xlink:href="#DejaVuSans-77"/>
     <use x="2241.972656" xlink:href="#DejaVuSans-111"/>
     <use x="2303.154297" xlink:href="#DejaVuSans-110"/>
     <use x="2366.533203" xlink:href="#DejaVuSans-105"/>
     <use x="2394.316406" xlink:href="#DejaVuSans-116"/>
     <use x="2433.525391" xlink:href="#DejaVuSans-111"/>
     <use x="2494.707031" xlink:href="#DejaVuSans-114"/>
     <use x="2533.570312" xlink:href="#DejaVuSans-101"/>
     <use x="2595.09375" xlink:href="#DejaVuSans-100"/>
     <use x="2658.570312" xlink:href="#DejaVuSans-32"/>
     <use x="2690.357422" xlink:href="#DejaVuSans-124"/>
     <use x="2724.048828" xlink:href="#DejaVuSans-32"/>
     <use x="2755.835938" xlink:href="#DejaVuSans-76"/>
     <use x="2811.548828" xlink:href="#DejaVuSans-83"/>
     <use x="2875.025391" xlink:href="#DejaVuSans-84"/>
     <use x="2936.109375" xlink:href="#DejaVuSans-77"/>
    </g>
   </g>
   <g id="legend_1">
    <g id="patch_7">
     <path d="M 598.963125 114.615 
L 769.2 114.615 
Q 771.6 114.615 771.6 112.215 
L 771.6 77.52 
Q 771.6 75.12 769.2 75.12 
L 598.963125 75.12 
Q 596.563125 75.12 596.563125 77.52 
L 596.563125 112.215 
Q 596.563125 114.615 598.963125 114.615 
z
" style="fill:#ffffff;opacity:0.8;stroke:#cccccc;stroke-linejoin:miter;"/>
    </g>
    <g id="line2d_19">
     <path d="M 601.363125 84.838125 
L 625.363125 84.838125 
" style="fill:none;stroke:#1f77b4;stroke-linecap:square;stroke-width:1.5;"/>
    </g>
    <g id="line2d_20"/>
    <g id="text_20">
     <!-- measured_data_PM10 -->
     <g transform="translate(634.963125 89.038125)scale(0.12 -0.12)">
      <defs>
       <path d="M 50.984375 -16.609375 
L 50.984375 -23.578125 
L -0.984375 -23.578125 
L -0.984375 -16.609375 
z
" id="DejaVuSans-95"/>
      </defs>
      <use xlink:href="#DejaVuSans-109"/>
      <use x="97.412109" xlink:href="#DejaVuSans-101"/>
      <use x="158.935547" xlink:href="#DejaVuSans-97"/>
      <use x="220.214844" xlink:href="#DejaVuSans-115"/>
      <use x="272.314453" xlink:href="#DejaVuSans-117"/>
      <use x="335.693359" xlink:href="#DejaVuSans-114"/>
      <use x="374.556641" xlink:href="#DejaVuSans-101"/>
      <use x="436.080078" xlink:href="#DejaVuSans-100"/>
      <use x="499.556641" xlink:href="#DejaVuSans-95"/>
      <use x="549.556641" xlink:href="#DejaVuSans-100"/>
      <use x="613.033203" xlink:href="#DejaVuSans-97"/>
      <use x="674.3125" xlink:href="#DejaVuSans-116"/>
      <use x="713.521484" xlink:href="#DejaVuSans-97"/>
      <use x="774.800781" xlink:href="#DejaVuSans-95"/>
      <use x="824.800781" xlink:href="#DejaVuSans-80"/>
      <use x="885.103516" xlink:href="#DejaVuSans-77"/>
      <use x="971.382812" xlink:href="#DejaVuSans-49"/>
      <use x="1035.005859" xlink:href="#DejaVuSans-48"/>
     </g>
    </g>
    <g id="line2d_21">
     <path d="M 601.363125 102.785625 
L 625.363125 102.785625 
" style="fill:none;stroke:#ff0000;stroke-dasharray:5.55,2.4;stroke-dashoffset:0;stroke-width:1.5;"/>
    </g>
    <g id="line2d_22"/>
    <g id="text_21">
     <!-- predicted_data_PM10 -->
     <g transform="translate(634.963125 106.985625)scale(0.12 -0.12)">
      <defs>
       <path d="M 18.109375 8.203125 
L 18.109375 -20.796875 
L 9.078125 -20.796875 
L 9.078125 54.6875 
L 18.109375 54.6875 
L 18.109375 46.390625 
Q 20.953125 51.265625 25.265625 53.625 
Q 29.59375 56 35.59375 56 
Q 45.5625 56 51.78125 48.09375 
Q 58.015625 40.1875 58.015625 27.296875 
Q 58.015625 14.40625 51.78125 6.484375 
Q 45.5625 -1.421875 35.59375 -1.421875 
Q 29.59375 -1.421875 25.265625 0.953125 
Q 20.953125 3.328125 18.109375 8.203125 
z
M 48.6875 27.296875 
Q 48.6875 37.203125 44.609375 42.84375 
Q 40.53125 48.484375 33.40625 48.484375 
Q 26.265625 48.484375 22.1875 42.84375 
Q 18.109375 37.203125 18.109375 27.296875 
Q 18.109375 17.390625 22.1875 11.75 
Q 26.265625 6.109375 33.40625 6.109375 
Q 40.53125 6.109375 44.609375 11.75 
Q 48.6875 17.390625 48.6875 27.296875 
z
" id="DejaVuSans-112"/>
      </defs>
      <use xlink:href="#DejaVuSans-112"/>
      <use x="63.476562" xlink:href="#DejaVuSans-114"/>
      <use x="102.339844" xlink:href="#DejaVuSans-101"/>
      <use x="163.863281" xlink:href="#DejaVuSans-100"/>
      <use x="227.339844" xlink:href="#DejaVuSans-105"/>
      <use x="255.123047" xlink:href="#DejaVuSans-99"/>
      <use x="310.103516" xlink:href="#DejaVuSans-116"/>
      <use x="349.3125" xlink:href="#DejaVuSans-101"/>
      <use x="410.835938" xlink:href="#DejaVuSans-100"/>
      <use x="474.3125" xlink:href="#DejaVuSans-95"/>
      <use x="524.3125" xlink:href="#DejaVuSans-100"/>
      <use x="587.789062" xlink:href="#DejaVuSans-97"/>
      <use x="649.068359" xlink:href="#DejaVuSans-116"/>
      <use x="688.277344" xlink:href="#DejaVuSans-97"/>
      <use x="749.556641" xlink:href="#DejaVuSans-95"/>
      <use x="799.556641" xlink:href="#DejaVuSans-80"/>
      <use x="859.859375" xlink:href="#DejaVuSans-77"/>
      <use x="946.138672" xlink:href="#DejaVuSans-49"/>
      <use x="1009.761719" xlink:href="#DejaVuSans-48"/>
     </g>
    </g>
   </g>
  </g>
 </g>
 <defs>
  <clipPath id="p036af409b4">
   <rect height="391.68" width="669.6" x="108" y="69.12"/>
  </clipPath>
 </defs>
</svg>
