<?xml version="1.0" encoding="utf-8" standalone="no"?>
<!DOCTYPE svg PUBLIC "-//W3C//DTD SVG 1.1//EN"
  "http://www.w3.org/Graphics/SVG/1.1/DTD/svg11.dtd">
<!-- Created with matplotlib (https://matplotlib.org/) -->
<svg height="576pt" version="1.1" viewBox="0 0 864 576" width="864pt" xmlns="http://www.w3.org/2000/svg" xmlns:xlink="http://www.w3.org/1999/xlink">
 <metadata>
  <rdf:RDF xmlns:cc="http://creativecommons.org/ns#" xmlns:dc="http://purl.org/dc/elements/1.1/" xmlns:rdf="http://www.w3.org/1999/02/22-rdf-syntax-ns#">
   <cc:Work>
    <dc:type rdf:resource="http://purl.org/dc/dcmitype/StillImage"/>
    <dc:date>2024-03-08T19:58:30.195825</dc:date>
    <dc:format>image/svg+xml</dc:format>
    <dc:creator>
     <cc:Agent>
      <dc:title>Matplotlib v3.3.4, https://matplotlib.org/</dc:title>
     </cc:Agent>
    </dc:creator>
   </cc:Work>
  </rdf:RDF>
 </metadata>
 <defs>
  <style type="text/css">*{stroke-linecap:butt;stroke-linejoin:round;}</style>
 </defs>
 <g id="figure_1">
  <g id="patch_1">
   <path d="M 0 576 
L 864 576 
L 864 0 
L 0 0 
z
" style="fill:#ffffff;"/>
  </g>
  <g id="axes_1">
   <g id="patch_2">
    <path d="M 108 460.8 
L 777.6 460.8 
L 777.6 69.12 
L 108 69.12 
z
" style="fill:#ffffff;"/>
   </g>
   <g id="matplotlib.axis_1">
    <g id="xtick_1">
     <g id="line2d_1">
      <defs>
       <path d="M 0 0 
L 0 3.5 
" id="m6ee7d81833" style="stroke:#000000;stroke-width:0.8;"/>
      </defs>
      <g>
       <use style="stroke:#000000;stroke-width:0.8;" x="138.436364" xlink:href="#m6ee7d81833" y="460.8"/>
      </g>
     </g>
     <g id="text_1">
      <!-- 2020-01 -->
      <g transform="translate(93.766579 500.766215)rotate(-30)scale(0.12 -0.12)">
       <defs>
        <path d="M 19.1875 8.296875 
L 53.609375 8.296875 
L 53.609375 0 
L 7.328125 0 
L 7.328125 8.296875 
Q 12.9375 14.109375 22.625 23.890625 
Q 32.328125 33.6875 34.8125 36.53125 
Q 39.546875 41.84375 41.421875 45.53125 
Q 43.3125 49.21875 43.3125 52.78125 
Q 43.3125 58.59375 39.234375 62.25 
Q 35.15625 65.921875 28.609375 65.921875 
Q 23.96875 65.921875 18.8125 64.3125 
Q 13.671875 62.703125 7.8125 59.421875 
L 7.8125 69.390625 
Q 13.765625 71.78125 18.9375 73 
Q 24.125 74.21875 28.421875 74.21875 
Q 39.75 74.21875 46.484375 68.546875 
Q 53.21875 62.890625 53.21875 53.421875 
Q 53.21875 48.921875 51.53125 44.890625 
Q 49.859375 40.875 45.40625 35.40625 
Q 44.1875 33.984375 37.640625 27.21875 
Q 31.109375 20.453125 19.1875 8.296875 
z
" id="DejaVuSans-50"/>
        <path d="M 31.78125 66.40625 
Q 24.171875 66.40625 20.328125 58.90625 
Q 16.5 51.421875 16.5 36.375 
Q 16.5 21.390625 20.328125 13.890625 
Q 24.171875 6.390625 31.78125 6.390625 
Q 39.453125 6.390625 43.28125 13.890625 
Q 47.125 21.390625 47.125 36.375 
Q 47.125 51.421875 43.28125 58.90625 
Q 39.453125 66.40625 31.78125 66.40625 
z
M 31.78125 74.21875 
Q 44.046875 74.21875 50.515625 64.515625 
Q 56.984375 54.828125 56.984375 36.375 
Q 56.984375 17.96875 50.515625 8.265625 
Q 44.046875 -1.421875 31.78125 -1.421875 
Q 19.53125 -1.421875 13.0625 8.265625 
Q 6.59375 17.96875 6.59375 36.375 
Q 6.59375 54.828125 13.0625 64.515625 
Q 19.53125 74.21875 31.78125 74.21875 
z
" id="DejaVuSans-48"/>
        <path d="M 4.890625 31.390625 
L 31.203125 31.390625 
L 31.203125 23.390625 
L 4.890625 23.390625 
z
" id="DejaVuSans-45"/>
        <path d="M 12.40625 8.296875 
L 28.515625 8.296875 
L 28.515625 63.921875 
L 10.984375 60.40625 
L 10.984375 69.390625 
L 28.421875 72.90625 
L 38.28125 72.90625 
L 38.28125 8.296875 
L 54.390625 8.296875 
L 54.390625 0 
L 12.40625 0 
z
" id="DejaVuSans-49"/>
       </defs>
       <use xlink:href="#DejaVuSans-50"/>
       <use x="63.623047" xlink:href="#DejaVuSans-48"/>
       <use x="127.246094" xlink:href="#DejaVuSans-50"/>
       <use x="190.869141" xlink:href="#DejaVuSans-48"/>
       <use x="254.492188" xlink:href="#DejaVuSans-45"/>
       <use x="290.576172" xlink:href="#DejaVuSans-48"/>
       <use x="354.199219" xlink:href="#DejaVuSans-49"/>
      </g>
     </g>
    </g>
    <g id="xtick_2">
     <g id="line2d_2">
      <g>
       <use style="stroke:#000000;stroke-width:0.8;" x="214.318804" xlink:href="#m6ee7d81833" y="460.8"/>
      </g>
     </g>
     <g id="text_2">
      <!-- 2020-04 -->
      <g transform="translate(169.64902 500.766215)rotate(-30)scale(0.12 -0.12)">
       <defs>
        <path d="M 37.796875 64.3125 
L 12.890625 25.390625 
L 37.796875 25.390625 
z
M 35.203125 72.90625 
L 47.609375 72.90625 
L 47.609375 25.390625 
L 58.015625 25.390625 
L 58.015625 17.1875 
L 47.609375 17.1875 
L 47.609375 0 
L 37.796875 0 
L 37.796875 17.1875 
L 4.890625 17.1875 
L 4.890625 26.703125 
z
" id="DejaVuSans-52"/>
       </defs>
       <use xlink:href="#DejaVuSans-50"/>
       <use x="63.623047" xlink:href="#DejaVuSans-48"/>
       <use x="127.246094" xlink:href="#DejaVuSans-50"/>
       <use x="190.869141" xlink:href="#DejaVuSans-48"/>
       <use x="254.492188" xlink:href="#DejaVuSans-45"/>
       <use x="290.576172" xlink:href="#DejaVuSans-48"/>
       <use x="354.199219" xlink:href="#DejaVuSans-52"/>
      </g>
     </g>
    </g>
    <g id="xtick_3">
     <g id="line2d_3">
      <g>
       <use style="stroke:#000000;stroke-width:0.8;" x="290.201245" xlink:href="#m6ee7d81833" y="460.8"/>
      </g>
     </g>
     <g id="text_3">
      <!-- 2020-07 -->
      <g transform="translate(245.53146 500.766215)rotate(-30)scale(0.12 -0.12)">
       <defs>
        <path d="M 8.203125 72.90625 
L 55.078125 72.90625 
L 55.078125 68.703125 
L 28.609375 0 
L 18.3125 0 
L 43.21875 64.59375 
L 8.203125 64.59375 
z
" id="DejaVuSans-55"/>
       </defs>
       <use xlink:href="#DejaVuSans-50"/>
       <use x="63.623047" xlink:href="#DejaVuSans-48"/>
       <use x="127.246094" xlink:href="#DejaVuSans-50"/>
       <use x="190.869141" xlink:href="#DejaVuSans-48"/>
       <use x="254.492188" xlink:href="#DejaVuSans-45"/>
       <use x="290.576172" xlink:href="#DejaVuSans-48"/>
       <use x="354.199219" xlink:href="#DejaVuSans-55"/>
      </g>
     </g>
    </g>
    <g id="xtick_4">
     <g id="line2d_4">
      <g>
       <use style="stroke:#000000;stroke-width:0.8;" x="366.917559" xlink:href="#m6ee7d81833" y="460.8"/>
      </g>
     </g>
     <g id="text_4">
      <!-- 2020-10 -->
      <g transform="translate(322.247774 500.766215)rotate(-30)scale(0.12 -0.12)">
       <use xlink:href="#DejaVuSans-50"/>
       <use x="63.623047" xlink:href="#DejaVuSans-48"/>
       <use x="127.246094" xlink:href="#DejaVuSans-50"/>
       <use x="190.869141" xlink:href="#DejaVuSans-48"/>
       <use x="254.492188" xlink:href="#DejaVuSans-45"/>
       <use x="290.576172" xlink:href="#DejaVuSans-49"/>
       <use x="354.199219" xlink:href="#DejaVuSans-48"/>
      </g>
     </g>
    </g>
    <g id="xtick_5">
     <g id="line2d_5">
      <g>
       <use style="stroke:#000000;stroke-width:0.8;" x="443.633873" xlink:href="#m6ee7d81833" y="460.8"/>
      </g>
     </g>
     <g id="text_5">
      <!-- 2021-01 -->
      <g transform="translate(398.964088 500.766215)rotate(-30)scale(0.12 -0.12)">
       <use xlink:href="#DejaVuSans-50"/>
       <use x="63.623047" xlink:href="#DejaVuSans-48"/>
       <use x="127.246094" xlink:href="#DejaVuSans-50"/>
       <use x="190.869141" xlink:href="#DejaVuSans-49"/>
       <use x="254.492188" xlink:href="#DejaVuSans-45"/>
       <use x="290.576172" xlink:href="#DejaVuSans-48"/>
       <use x="354.199219" xlink:href="#DejaVuSans-49"/>
      </g>
     </g>
    </g>
    <g id="xtick_6">
     <g id="line2d_6">
      <g>
       <use style="stroke:#000000;stroke-width:0.8;" x="518.682441" xlink:href="#m6ee7d81833" y="460.8"/>
      </g>
     </g>
     <g id="text_6">
      <!-- 2021-04 -->
      <g transform="translate(474.012656 500.766215)rotate(-30)scale(0.12 -0.12)">
       <use xlink:href="#DejaVuSans-50"/>
       <use x="63.623047" xlink:href="#DejaVuSans-48"/>
       <use x="127.246094" xlink:href="#DejaVuSans-50"/>
       <use x="190.869141" xlink:href="#DejaVuSans-49"/>
       <use x="254.492188" xlink:href="#DejaVuSans-45"/>
       <use x="290.576172" xlink:href="#DejaVuSans-48"/>
       <use x="354.199219" xlink:href="#DejaVuSans-52"/>
      </g>
     </g>
    </g>
    <g id="xtick_7">
     <g id="line2d_7">
      <g>
       <use style="stroke:#000000;stroke-width:0.8;" x="594.564882" xlink:href="#m6ee7d81833" y="460.8"/>
      </g>
     </g>
     <g id="text_7">
      <!-- 2021-07 -->
      <g transform="translate(549.895097 500.766215)rotate(-30)scale(0.12 -0.12)">
       <use xlink:href="#DejaVuSans-50"/>
       <use x="63.623047" xlink:href="#DejaVuSans-48"/>
       <use x="127.246094" xlink:href="#DejaVuSans-50"/>
       <use x="190.869141" xlink:href="#DejaVuSans-49"/>
       <use x="254.492188" xlink:href="#DejaVuSans-45"/>
       <use x="290.576172" xlink:href="#DejaVuSans-48"/>
       <use x="354.199219" xlink:href="#DejaVuSans-55"/>
      </g>
     </g>
    </g>
    <g id="xtick_8">
     <g id="line2d_8">
      <g>
       <use style="stroke:#000000;stroke-width:0.8;" x="671.281196" xlink:href="#m6ee7d81833" y="460.8"/>
      </g>
     </g>
     <g id="text_8">
      <!-- 2021-10 -->
      <g transform="translate(626.611411 500.766215)rotate(-30)scale(0.12 -0.12)">
       <use xlink:href="#DejaVuSans-50"/>
       <use x="63.623047" xlink:href="#DejaVuSans-48"/>
       <use x="127.246094" xlink:href="#DejaVuSans-50"/>
       <use x="190.869141" xlink:href="#DejaVuSans-49"/>
       <use x="254.492188" xlink:href="#DejaVuSans-45"/>
       <use x="290.576172" xlink:href="#DejaVuSans-49"/>
       <use x="354.199219" xlink:href="#DejaVuSans-48"/>
      </g>
     </g>
    </g>
    <g id="xtick_9">
     <g id="line2d_9">
      <g>
       <use style="stroke:#000000;stroke-width:0.8;" x="747.997509" xlink:href="#m6ee7d81833" y="460.8"/>
      </g>
     </g>
     <g id="text_9">
      <!-- 2022-01 -->
      <g transform="translate(703.327724 500.766215)rotate(-30)scale(0.12 -0.12)">
       <use xlink:href="#DejaVuSans-50"/>
       <use x="63.623047" xlink:href="#DejaVuSans-48"/>
       <use x="127.246094" xlink:href="#DejaVuSans-50"/>
       <use x="190.869141" xlink:href="#DejaVuSans-50"/>
       <use x="254.492188" xlink:href="#DejaVuSans-45"/>
       <use x="290.576172" xlink:href="#DejaVuSans-48"/>
       <use x="354.199219" xlink:href="#DejaVuSans-49"/>
      </g>
     </g>
    </g>
    <g id="text_10">
     <!-- Date -->
     <g transform="translate(424.873828 518.325146)scale(0.15 -0.15)">
      <defs>
       <path d="M 19.671875 64.796875 
L 19.671875 8.109375 
L 31.59375 8.109375 
Q 46.6875 8.109375 53.6875 14.9375 
Q 60.6875 21.78125 60.6875 36.53125 
Q 60.6875 51.171875 53.6875 57.984375 
Q 46.6875 64.796875 31.59375 64.796875 
z
M 9.8125 72.90625 
L 30.078125 72.90625 
Q 51.265625 72.90625 61.171875 64.09375 
Q 71.09375 55.28125 71.09375 36.53125 
Q 71.09375 17.671875 61.125 8.828125 
Q 51.171875 0 30.078125 0 
L 9.8125 0 
z
" id="DejaVuSans-68"/>
       <path d="M 34.28125 27.484375 
Q 23.390625 27.484375 19.1875 25 
Q 14.984375 22.515625 14.984375 16.5 
Q 14.984375 11.71875 18.140625 8.90625 
Q 21.296875 6.109375 26.703125 6.109375 
Q 34.1875 6.109375 38.703125 11.40625 
Q 43.21875 16.703125 43.21875 25.484375 
L 43.21875 27.484375 
z
M 52.203125 31.203125 
L 52.203125 0 
L 43.21875 0 
L 43.21875 8.296875 
Q 40.140625 3.328125 35.546875 0.953125 
Q 30.953125 -1.421875 24.3125 -1.421875 
Q 15.921875 -1.421875 10.953125 3.296875 
Q 6 8.015625 6 15.921875 
Q 6 25.140625 12.171875 29.828125 
Q 18.359375 34.515625 30.609375 34.515625 
L 43.21875 34.515625 
L 43.21875 35.40625 
Q 43.21875 41.609375 39.140625 45 
Q 35.0625 48.390625 27.6875 48.390625 
Q 23 48.390625 18.546875 47.265625 
Q 14.109375 46.140625 10.015625 43.890625 
L 10.015625 52.203125 
Q 14.9375 54.109375 19.578125 55.046875 
Q 24.21875 56 28.609375 56 
Q 40.484375 56 46.34375 49.84375 
Q 52.203125 43.703125 52.203125 31.203125 
z
" id="DejaVuSans-97"/>
       <path d="M 18.3125 70.21875 
L 18.3125 54.6875 
L 36.8125 54.6875 
L 36.8125 47.703125 
L 18.3125 47.703125 
L 18.3125 18.015625 
Q 18.3125 11.328125 20.140625 9.421875 
Q 21.96875 7.515625 27.59375 7.515625 
L 36.8125 7.515625 
L 36.8125 0 
L 27.59375 0 
Q 17.1875 0 13.234375 3.875 
Q 9.28125 7.765625 9.28125 18.015625 
L 9.28125 47.703125 
L 2.6875 47.703125 
L 2.6875 54.6875 
L 9.28125 54.6875 
L 9.28125 70.21875 
z
" id="DejaVuSans-116"/>
       <path d="M 56.203125 29.59375 
L 56.203125 25.203125 
L 14.890625 25.203125 
Q 15.484375 15.921875 20.484375 11.0625 
Q 25.484375 6.203125 34.421875 6.203125 
Q 39.59375 6.203125 44.453125 7.46875 
Q 49.3125 8.734375 54.109375 11.28125 
L 54.109375 2.78125 
Q 49.265625 0.734375 44.1875 -0.34375 
Q 39.109375 -1.421875 33.890625 -1.421875 
Q 20.796875 -1.421875 13.15625 6.1875 
Q 5.515625 13.8125 5.515625 26.8125 
Q 5.515625 40.234375 12.765625 48.109375 
Q 20.015625 56 32.328125 56 
Q 43.359375 56 49.78125 48.890625 
Q 56.203125 41.796875 56.203125 29.59375 
z
M 47.21875 32.234375 
Q 47.125 39.59375 43.09375 43.984375 
Q 39.0625 48.390625 32.421875 48.390625 
Q 24.90625 48.390625 20.390625 44.140625 
Q 15.875 39.890625 15.1875 32.171875 
z
" id="DejaVuSans-101"/>
      </defs>
      <use xlink:href="#DejaVuSans-68"/>
      <use x="77.001953" xlink:href="#DejaVuSans-97"/>
      <use x="138.28125" xlink:href="#DejaVuSans-116"/>
      <use x="177.490234" xlink:href="#DejaVuSans-101"/>
     </g>
    </g>
   </g>
   <g id="matplotlib.axis_2">
    <g id="ytick_1">
     <g id="line2d_10">
      <defs>
       <path d="M 0 0 
L -3.5 0 
" id="m63a4a9e0d4" style="stroke:#000000;stroke-width:0.8;"/>
      </defs>
      <g>
       <use style="stroke:#000000;stroke-width:0.8;" x="108" xlink:href="#m63a4a9e0d4" y="454.149558"/>
      </g>
     </g>
     <g id="text_11">
      <!-- 0 -->
      <g transform="translate(93.365 458.70862)scale(0.12 -0.12)">
       <use xlink:href="#DejaVuSans-48"/>
      </g>
     </g>
    </g>
    <g id="ytick_2">
     <g id="line2d_11">
      <g>
       <use style="stroke:#000000;stroke-width:0.8;" x="108" xlink:href="#m63a4a9e0d4" y="402.03554"/>
      </g>
     </g>
     <g id="text_12">
      <!-- 20 -->
      <g transform="translate(85.73 406.594602)scale(0.12 -0.12)">
       <use xlink:href="#DejaVuSans-50"/>
       <use x="63.623047" xlink:href="#DejaVuSans-48"/>
      </g>
     </g>
    </g>
    <g id="ytick_3">
     <g id="line2d_12">
      <g>
       <use style="stroke:#000000;stroke-width:0.8;" x="108" xlink:href="#m63a4a9e0d4" y="349.921522"/>
      </g>
     </g>
     <g id="text_13">
      <!-- 40 -->
      <g transform="translate(85.73 354.480584)scale(0.12 -0.12)">
       <use xlink:href="#DejaVuSans-52"/>
       <use x="63.623047" xlink:href="#DejaVuSans-48"/>
      </g>
     </g>
    </g>
    <g id="ytick_4">
     <g id="line2d_13">
      <g>
       <use style="stroke:#000000;stroke-width:0.8;" x="108" xlink:href="#m63a4a9e0d4" y="297.807504"/>
      </g>
     </g>
     <g id="text_14">
      <!-- 60 -->
      <g transform="translate(85.73 302.366566)scale(0.12 -0.12)">
       <defs>
        <path d="M 33.015625 40.375 
Q 26.375 40.375 22.484375 35.828125 
Q 18.609375 31.296875 18.609375 23.390625 
Q 18.609375 15.53125 22.484375 10.953125 
Q 26.375 6.390625 33.015625 6.390625 
Q 39.65625 6.390625 43.53125 10.953125 
Q 47.40625 15.53125 47.40625 23.390625 
Q 47.40625 31.296875 43.53125 35.828125 
Q 39.65625 40.375 33.015625 40.375 
z
M 52.59375 71.296875 
L 52.59375 62.3125 
Q 48.875 64.0625 45.09375 64.984375 
Q 41.3125 65.921875 37.59375 65.921875 
Q 27.828125 65.921875 22.671875 59.328125 
Q 17.53125 52.734375 16.796875 39.40625 
Q 19.671875 43.65625 24.015625 45.921875 
Q 28.375 48.1875 33.59375 48.1875 
Q 44.578125 48.1875 50.953125 41.515625 
Q 57.328125 34.859375 57.328125 23.390625 
Q 57.328125 12.15625 50.6875 5.359375 
Q 44.046875 -1.421875 33.015625 -1.421875 
Q 20.359375 -1.421875 13.671875 8.265625 
Q 6.984375 17.96875 6.984375 36.375 
Q 6.984375 53.65625 15.1875 63.9375 
Q 23.390625 74.21875 37.203125 74.21875 
Q 40.921875 74.21875 44.703125 73.484375 
Q 48.484375 72.75 52.59375 71.296875 
z
" id="DejaVuSans-54"/>
       </defs>
       <use xlink:href="#DejaVuSans-54"/>
       <use x="63.623047" xlink:href="#DejaVuSans-48"/>
      </g>
     </g>
    </g>
    <g id="ytick_5">
     <g id="line2d_14">
      <g>
       <use style="stroke:#000000;stroke-width:0.8;" x="108" xlink:href="#m63a4a9e0d4" y="245.693486"/>
      </g>
     </g>
     <g id="text_15">
      <!-- 80 -->
      <g transform="translate(85.73 250.252548)scale(0.12 -0.12)">
       <defs>
        <path d="M 31.78125 34.625 
Q 24.75 34.625 20.71875 30.859375 
Q 16.703125 27.09375 16.703125 20.515625 
Q 16.703125 13.921875 20.71875 10.15625 
Q 24.75 6.390625 31.78125 6.390625 
Q 38.8125 6.390625 42.859375 10.171875 
Q 46.921875 13.96875 46.921875 20.515625 
Q 46.921875 27.09375 42.890625 30.859375 
Q 38.875 34.625 31.78125 34.625 
z
M 21.921875 38.8125 
Q 15.578125 40.375 12.03125 44.71875 
Q 8.5 49.078125 8.5 55.328125 
Q 8.5 64.0625 14.71875 69.140625 
Q 20.953125 74.21875 31.78125 74.21875 
Q 42.671875 74.21875 48.875 69.140625 
Q 55.078125 64.0625 55.078125 55.328125 
Q 55.078125 49.078125 51.53125 44.71875 
Q 48 40.375 41.703125 38.8125 
Q 48.828125 37.15625 52.796875 32.3125 
Q 56.78125 27.484375 56.78125 20.515625 
Q 56.78125 9.90625 50.3125 4.234375 
Q 43.84375 -1.421875 31.78125 -1.421875 
Q 19.734375 -1.421875 13.25 4.234375 
Q 6.78125 9.90625 6.78125 20.515625 
Q 6.78125 27.484375 10.78125 32.3125 
Q 14.796875 37.15625 21.921875 38.8125 
z
M 18.3125 54.390625 
Q 18.3125 48.734375 21.84375 45.5625 
Q 25.390625 42.390625 31.78125 42.390625 
Q 38.140625 42.390625 41.71875 45.5625 
Q 45.3125 48.734375 45.3125 54.390625 
Q 45.3125 60.0625 41.71875 63.234375 
Q 38.140625 66.40625 31.78125 66.40625 
Q 25.390625 66.40625 21.84375 63.234375 
Q 18.3125 60.0625 18.3125 54.390625 
z
" id="DejaVuSans-56"/>
       </defs>
       <use xlink:href="#DejaVuSans-56"/>
       <use x="63.623047" xlink:href="#DejaVuSans-48"/>
      </g>
     </g>
    </g>
    <g id="ytick_6">
     <g id="line2d_15">
      <g>
       <use style="stroke:#000000;stroke-width:0.8;" x="108" xlink:href="#m63a4a9e0d4" y="193.579468"/>
      </g>
     </g>
     <g id="text_16">
      <!-- 100 -->
      <g transform="translate(78.095 198.13853)scale(0.12 -0.12)">
       <use xlink:href="#DejaVuSans-49"/>
       <use x="63.623047" xlink:href="#DejaVuSans-48"/>
       <use x="127.246094" xlink:href="#DejaVuSans-48"/>
      </g>
     </g>
    </g>
    <g id="ytick_7">
     <g id="line2d_16">
      <g>
       <use style="stroke:#000000;stroke-width:0.8;" x="108" xlink:href="#m63a4a9e0d4" y="141.46545"/>
      </g>
     </g>
     <g id="text_17">
      <!-- 120 -->
      <g transform="translate(78.095 146.024512)scale(0.12 -0.12)">
       <use xlink:href="#DejaVuSans-49"/>
       <use x="63.623047" xlink:href="#DejaVuSans-50"/>
       <use x="127.246094" xlink:href="#DejaVuSans-48"/>
      </g>
     </g>
    </g>
    <g id="ytick_8">
     <g id="line2d_17">
      <g>
       <use style="stroke:#000000;stroke-width:0.8;" x="108" xlink:href="#m63a4a9e0d4" y="89.351432"/>
      </g>
     </g>
     <g id="text_18">
      <!-- 140 -->
      <g transform="translate(78.095 93.910494)scale(0.12 -0.12)">
       <use xlink:href="#DejaVuSans-49"/>
       <use x="63.623047" xlink:href="#DejaVuSans-52"/>
       <use x="127.246094" xlink:href="#DejaVuSans-48"/>
      </g>
     </g>
    </g>
    <g id="text_19">
     <!-- PM10(micro-gram/m3) -->
     <g transform="translate(70.975469 349.562344)rotate(-90)scale(0.15 -0.15)">
      <defs>
       <path d="M 19.671875 64.796875 
L 19.671875 37.40625 
L 32.078125 37.40625 
Q 38.96875 37.40625 42.71875 40.96875 
Q 46.484375 44.53125 46.484375 51.125 
Q 46.484375 57.671875 42.71875 61.234375 
Q 38.96875 64.796875 32.078125 64.796875 
z
M 9.8125 72.90625 
L 32.078125 72.90625 
Q 44.34375 72.90625 50.609375 67.359375 
Q 56.890625 61.8125 56.890625 51.125 
Q 56.890625 40.328125 50.609375 34.8125 
Q 44.34375 29.296875 32.078125 29.296875 
L 19.671875 29.296875 
L 19.671875 0 
L 9.8125 0 
z
" id="DejaVuSans-80"/>
       <path d="M 9.8125 72.90625 
L 24.515625 72.90625 
L 43.109375 23.296875 
L 61.8125 72.90625 
L 76.515625 72.90625 
L 76.515625 0 
L 66.890625 0 
L 66.890625 64.015625 
L 48.09375 14.015625 
L 38.1875 14.015625 
L 19.390625 64.015625 
L 19.390625 0 
L 9.8125 0 
z
" id="DejaVuSans-77"/>
       <path d="M 31 75.875 
Q 24.46875 64.65625 21.28125 53.65625 
Q 18.109375 42.671875 18.109375 31.390625 
Q 18.109375 20.125 21.3125 9.0625 
Q 24.515625 -2 31 -13.1875 
L 23.1875 -13.1875 
Q 15.875 -1.703125 12.234375 9.375 
Q 8.59375 20.453125 8.59375 31.390625 
Q 8.59375 42.28125 12.203125 53.3125 
Q 15.828125 64.359375 23.1875 75.875 
z
" id="DejaVuSans-40"/>
       <path d="M 52 44.1875 
Q 55.375 50.25 60.0625 53.125 
Q 64.75 56 71.09375 56 
Q 79.640625 56 84.28125 50.015625 
Q 88.921875 44.046875 88.921875 33.015625 
L 88.921875 0 
L 79.890625 0 
L 79.890625 32.71875 
Q 79.890625 40.578125 77.09375 44.375 
Q 74.3125 48.1875 68.609375 48.1875 
Q 61.625 48.1875 57.5625 43.546875 
Q 53.515625 38.921875 53.515625 30.90625 
L 53.515625 0 
L 44.484375 0 
L 44.484375 32.71875 
Q 44.484375 40.625 41.703125 44.40625 
Q 38.921875 48.1875 33.109375 48.1875 
Q 26.21875 48.1875 22.15625 43.53125 
Q 18.109375 38.875 18.109375 30.90625 
L 18.109375 0 
L 9.078125 0 
L 9.078125 54.6875 
L 18.109375 54.6875 
L 18.109375 46.1875 
Q 21.1875 51.21875 25.484375 53.609375 
Q 29.78125 56 35.6875 56 
Q 41.65625 56 45.828125 52.96875 
Q 50 49.953125 52 44.1875 
z
" id="DejaVuSans-109"/>
       <path d="M 9.421875 54.6875 
L 18.40625 54.6875 
L 18.40625 0 
L 9.421875 0 
z
M 9.421875 75.984375 
L 18.40625 75.984375 
L 18.40625 64.59375 
L 9.421875 64.59375 
z
" id="DejaVuSans-105"/>
       <path d="M 48.78125 52.59375 
L 48.78125 44.1875 
Q 44.96875 46.296875 41.140625 47.34375 
Q 37.3125 48.390625 33.40625 48.390625 
Q 24.65625 48.390625 19.8125 42.84375 
Q 14.984375 37.3125 14.984375 27.296875 
Q 14.984375 17.28125 19.8125 11.734375 
Q 24.65625 6.203125 33.40625 6.203125 
Q 37.3125 6.203125 41.140625 7.25 
Q 44.96875 8.296875 48.78125 10.40625 
L 48.78125 2.09375 
Q 45.015625 0.34375 40.984375 -0.53125 
Q 36.96875 -1.421875 32.421875 -1.421875 
Q 20.0625 -1.421875 12.78125 6.34375 
Q 5.515625 14.109375 5.515625 27.296875 
Q 5.515625 40.671875 12.859375 48.328125 
Q 20.21875 56 33.015625 56 
Q 37.15625 56 41.109375 55.140625 
Q 45.0625 54.296875 48.78125 52.59375 
z
" id="DejaVuSans-99"/>
       <path d="M 41.109375 46.296875 
Q 39.59375 47.171875 37.8125 47.578125 
Q 36.03125 48 33.890625 48 
Q 26.265625 48 22.1875 43.046875 
Q 18.109375 38.09375 18.109375 28.8125 
L 18.109375 0 
L 9.078125 0 
L 9.078125 54.6875 
L 18.109375 54.6875 
L 18.109375 46.1875 
Q 20.953125 51.171875 25.484375 53.578125 
Q 30.03125 56 36.53125 56 
Q 37.453125 56 38.578125 55.875 
Q 39.703125 55.765625 41.0625 55.515625 
z
" id="DejaVuSans-114"/>
       <path d="M 30.609375 48.390625 
Q 23.390625 48.390625 19.1875 42.75 
Q 14.984375 37.109375 14.984375 27.296875 
Q 14.984375 17.484375 19.15625 11.84375 
Q 23.34375 6.203125 30.609375 6.203125 
Q 37.796875 6.203125 41.984375 11.859375 
Q 46.1875 17.53125 46.1875 27.296875 
Q 46.1875 37.015625 41.984375 42.703125 
Q 37.796875 48.390625 30.609375 48.390625 
z
M 30.609375 56 
Q 42.328125 56 49.015625 48.375 
Q 55.71875 40.765625 55.71875 27.296875 
Q 55.71875 13.875 49.015625 6.21875 
Q 42.328125 -1.421875 30.609375 -1.421875 
Q 18.84375 -1.421875 12.171875 6.21875 
Q 5.515625 13.875 5.515625 27.296875 
Q 5.515625 40.765625 12.171875 48.375 
Q 18.84375 56 30.609375 56 
z
" id="DejaVuSans-111"/>
       <path d="M 45.40625 27.984375 
Q 45.40625 37.75 41.375 43.109375 
Q 37.359375 48.484375 30.078125 48.484375 
Q 22.859375 48.484375 18.828125 43.109375 
Q 14.796875 37.75 14.796875 27.984375 
Q 14.796875 18.265625 18.828125 12.890625 
Q 22.859375 7.515625 30.078125 7.515625 
Q 37.359375 7.515625 41.375 12.890625 
Q 45.40625 18.265625 45.40625 27.984375 
z
M 54.390625 6.78125 
Q 54.390625 -7.171875 48.1875 -13.984375 
Q 42 -20.796875 29.203125 -20.796875 
Q 24.46875 -20.796875 20.265625 -20.09375 
Q 16.0625 -19.390625 12.109375 -17.921875 
L 12.109375 -9.1875 
Q 16.0625 -11.328125 19.921875 -12.34375 
Q 23.78125 -13.375 27.78125 -13.375 
Q 36.625 -13.375 41.015625 -8.765625 
Q 45.40625 -4.15625 45.40625 5.171875 
L 45.40625 9.625 
Q 42.625 4.78125 38.28125 2.390625 
Q 33.9375 0 27.875 0 
Q 17.828125 0 11.671875 7.65625 
Q 5.515625 15.328125 5.515625 27.984375 
Q 5.515625 40.671875 11.671875 48.328125 
Q 17.828125 56 27.875 56 
Q 33.9375 56 38.28125 53.609375 
Q 42.625 51.21875 45.40625 46.390625 
L 45.40625 54.6875 
L 54.390625 54.6875 
z
" id="DejaVuSans-103"/>
       <path d="M 25.390625 72.90625 
L 33.6875 72.90625 
L 8.296875 -9.28125 
L 0 -9.28125 
z
" id="DejaVuSans-47"/>
       <path d="M 40.578125 39.3125 
Q 47.65625 37.796875 51.625 33 
Q 55.609375 28.21875 55.609375 21.1875 
Q 55.609375 10.40625 48.1875 4.484375 
Q 40.765625 -1.421875 27.09375 -1.421875 
Q 22.515625 -1.421875 17.65625 -0.515625 
Q 12.796875 0.390625 7.625 2.203125 
L 7.625 11.71875 
Q 11.71875 9.328125 16.59375 8.109375 
Q 21.484375 6.890625 26.8125 6.890625 
Q 36.078125 6.890625 40.9375 10.546875 
Q 45.796875 14.203125 45.796875 21.1875 
Q 45.796875 27.640625 41.28125 31.265625 
Q 36.765625 34.90625 28.71875 34.90625 
L 20.21875 34.90625 
L 20.21875 43.015625 
L 29.109375 43.015625 
Q 36.375 43.015625 40.234375 45.921875 
Q 44.09375 48.828125 44.09375 54.296875 
Q 44.09375 59.90625 40.109375 62.90625 
Q 36.140625 65.921875 28.71875 65.921875 
Q 24.65625 65.921875 20.015625 65.03125 
Q 15.375 64.15625 9.8125 62.3125 
L 9.8125 71.09375 
Q 15.4375 72.65625 20.34375 73.4375 
Q 25.25 74.21875 29.59375 74.21875 
Q 40.828125 74.21875 47.359375 69.109375 
Q 53.90625 64.015625 53.90625 55.328125 
Q 53.90625 49.265625 50.4375 45.09375 
Q 46.96875 40.921875 40.578125 39.3125 
z
" id="DejaVuSans-51"/>
       <path d="M 8.015625 75.875 
L 15.828125 75.875 
Q 23.140625 64.359375 26.78125 53.3125 
Q 30.421875 42.28125 30.421875 31.390625 
Q 30.421875 20.453125 26.78125 9.375 
Q 23.140625 -1.703125 15.828125 -13.1875 
L 8.015625 -13.1875 
Q 14.5 -2 17.703125 9.0625 
Q 20.90625 20.125 20.90625 31.390625 
Q 20.90625 42.671875 17.703125 53.65625 
Q 14.5 64.65625 8.015625 75.875 
z
" id="DejaVuSans-41"/>
      </defs>
      <use xlink:href="#DejaVuSans-80"/>
      <use x="60.302734" xlink:href="#DejaVuSans-77"/>
      <use x="146.582031" xlink:href="#DejaVuSans-49"/>
      <use x="210.205078" xlink:href="#DejaVuSans-48"/>
      <use x="273.828125" xlink:href="#DejaVuSans-40"/>
      <use x="312.841797" xlink:href="#DejaVuSans-109"/>
      <use x="410.253906" xlink:href="#DejaVuSans-105"/>
      <use x="438.037109" xlink:href="#DejaVuSans-99"/>
      <use x="493.017578" xlink:href="#DejaVuSans-114"/>
      <use x="531.880859" xlink:href="#DejaVuSans-111"/>
      <use x="594.9375" xlink:href="#DejaVuSans-45"/>
      <use x="631.021484" xlink:href="#DejaVuSans-103"/>
      <use x="694.498047" xlink:href="#DejaVuSans-114"/>
      <use x="735.611328" xlink:href="#DejaVuSans-97"/>
      <use x="796.890625" xlink:href="#DejaVuSans-109"/>
      <use x="894.302734" xlink:href="#DejaVuSans-47"/>
      <use x="927.994141" xlink:href="#DejaVuSans-109"/>
      <use x="1025.40625" xlink:href="#DejaVuSans-51"/>
      <use x="1089.029297" xlink:href="#DejaVuSans-41"/>
     </g>
    </g>
   </g>
   <g id="line2d_18">
    <path clip-path="url(#pdd2ce2a435)" d="M 138.436364 323.321659 
L 139.270237 311.629048 
L 140.10411 278.264747 
L 140.937983 284.019003 
L 141.771856 337.870155 
L 142.605729 334.613029 
L 143.439601 300.847488 
L 144.273474 283.58472 
L 145.107347 303.56176 
L 145.94122 302.693193 
L 146.775093 268.384798 
L 147.608966 298.024646 
L 148.442839 283.476149 
L 149.276712 310.944579 
L 150.110585 286.47837 
L 150.944458 285.864708 
L 151.778331 324.190226 
L 152.612204 321.693096 
L 153.446077 287.167559 
L 154.27995 326.795926 
L 155.113823 292.596102 
L 155.947696 305.407465 
L 156.781569 324.190226 
L 157.615442 353.287219 
L 158.449315 360.778609 
L 159.283188 392.807016 
L 160.117061 398.452701 
L 160.950934 389.332748 
L 161.784807 356.435774 
L 162.61868 347.315821 
L 163.452553 344.601549 
L 164.286426 328.315919 
L 165.120299 319.630249 
L 165.954172 324.515938 
L 166.788045 377.06424 
L 167.621918 369.701161 
L 168.455791 343.40727 
L 169.289664 329.618769 
L 170.123537 398.886985 
L 170.95741 379.235657 
L 171.791283 355.89292 
L 173.459029 317.893115 
L 174.292902 374.56711 
L 175.126775 373.915684 
L 175.960648 356.435774 
L 176.794521 408.766934 
L 177.628394 376.738527 
L 178.462267 374.794121 
L 179.296139 350.355805 
L 180.130012 348.727242 
L 180.963885 352.20151 
L 181.797758 312.138859 
L 182.631631 316.698835 
L 183.465504 293.898953 
L 184.299377 309.967441 
L 185.13325 347.19738 
L 185.967123 361.864318 
L 186.800996 343.950124 
L 187.634869 350.790089 
L 188.468742 341.995848 
L 189.302615 350.030093 
L 190.136488 342.21299 
L 190.970361 380.283602 
L 191.804234 387.487043 
L 192.638107 345.252974 
L 193.47198 289.664689 
L 194.305853 347.967246 
L 195.139726 353.938644 
L 195.973599 357.847196 
L 196.807472 337.327301 
L 197.641345 264.476247 
L 198.475218 254.92201 
L 199.309091 353.830073 
L 200.142964 285.864708 
L 200.976837 274.464767 
L 201.81071 275.149235 
L 202.644583 299.653209 
L 203.478456 346.230112 
L 204.312329 294.550378 
L 205.146202 289.338976 
L 205.980075 322.561662 
L 206.813948 337.544443 
L 207.647821 323.411348 
L 208.481694 330.270194 
L 209.315567 332.550183 
L 210.14944 350.030093 
L 210.983313 344.384408 
L 211.817186 348.944384 
L 212.651059 358.932904 
L 213.484932 348.944384 
L 214.318804 317.675973 
L 215.152677 294.333236 
L 215.98655 355.89292 
L 216.820423 367.292861 
L 217.654296 388.138468 
L 218.488169 383.144208 
L 219.322042 344.030372 
L 220.155915 299.653209 
L 220.989788 331.681616 
L 221.823661 321.584525 
L 222.657534 275.767617 
L 223.491407 354.047215 
L 224.32528 331.681616 
L 225.993026 247.973474 
L 226.826899 317.675973 
L 227.660772 342.864415 
L 228.494645 316.915977 
L 230.162391 337.1196 
L 230.996264 363.601452 
L 231.830137 378.801374 
L 232.66401 363.492881 
L 233.497883 338.41301 
L 234.331756 293.681811 
L 235.165629 179.682396 
L 235.999502 216.487922 
L 236.833375 290.641826 
L 238.501121 313.658851 
L 239.334994 355.69938 
L 240.168867 328.967344 
L 241.00274 339.390147 
L 241.836613 355.784349 
L 242.670486 353.773428 
L 243.504359 357.087199 
L 244.338232 367.18429 
L 245.172105 362.081459 
L 246.005978 351.007231 
L 246.839851 369.138566 
L 247.673724 356.544345 
L 248.507597 324.190226 
L 249.341469 284.019003 
L 251.843088 382.818496 
L 252.676961 372.829976 
L 253.510834 366.424294 
L 254.344707 365.664298 
L 255.17858 373.712704 
L 256.012453 335.193647 
L 256.846326 340.584427 
L 257.680199 393.892725 
L 258.514072 388.138468 
L 259.347945 391.938449 
L 260.181818 349.241774 
L 261.015691 321.150241 
L 261.849564 311.378863 
L 262.683437 358.064337 
L 263.51731 391.612736 
L 264.351183 373.915684 
L 265.185056 361.321463 
L 266.018929 375.298783 
L 266.852802 360.561467 
L 267.686675 361.59053 
L 268.520548 353.612932 
L 269.354421 387.595614 
L 270.188294 364.144306 
L 271.022167 358.824333 
L 271.85604 336.784447 
L 272.689913 361.104322 
L 273.523786 363.856357 
L 274.357659 392.481303 
L 275.191532 385.967051 
L 276.025405 392.155591 
L 276.859278 360.018613 
L 277.693151 392.0865 
L 278.527024 371.418554 
L 279.360897 370.658558 
L 280.19477 366.098582 
L 281.028643 363.275739 
L 281.862516 375.761389 
L 282.696389 350.89866 
L 283.530262 348.10886 
L 284.364134 334.613029 
L 285.198007 362.950026 
L 286.03188 351.767227 
L 286.865753 367.18429 
L 287.699626 386.292764 
L 288.533499 386.509905 
L 289.367372 376.847098 
L 290.201245 405.618379 
L 291.035118 371.560169 
L 291.868991 366.858578 
L 292.702864 356.435774 
L 293.536737 375.86996 
L 294.37061 361.755747 
L 295.204483 349.812951 
L 296.038356 329.618769 
L 296.872229 326.253072 
L 297.706102 341.452994 
L 298.539975 337.21873 
L 299.373848 380.647078 
L 300.207721 352.961506 
L 301.041594 334.938742 
L 301.875467 324.950222 
L 302.70934 340.178466 
L 303.543213 344.927262 
L 304.377086 352.961506 
L 305.210959 368.37857 
L 306.044832 355.69938 
L 306.878705 398.778414 
L 307.712578 397.149851 
L 308.546451 388.029898 
L 309.380324 350.89866 
L 310.214197 331.573045 
L 311.04807 344.275837 
L 311.881943 345.687258 
L 312.715816 351.224372 
L 313.549689 388.789894 
L 314.383562 394.331729 
L 315.217435 387.812756 
L 316.051308 389.480799 
L 316.885181 410.207965 
L 317.719054 416.366895 
L 318.552927 405.184095 
L 319.3868 389.115606 
L 320.220672 395.195575 
L 321.054545 386.075622 
L 321.888418 398.778414 
L 322.722291 387.812756 
L 323.556164 347.967246 
L 324.390037 360.127184 
L 325.22391 392.632358 
L 326.057783 392.481303 
L 326.891656 382.436138 
L 327.725529 350.572947 
L 328.559402 399.429839 
L 329.393275 388.572752 
L 330.227148 367.18429 
L 331.061021 393.024158 
L 331.894894 385.207055 
L 332.728767 335.590167 
L 333.56264 325.601647 
L 334.396513 359.910042 
L 335.230386 316.373123 
L 336.064259 350.045603 
L 336.898132 321.584525 
L 337.732005 339.725301 
L 338.565878 298.893213 
L 339.399751 311.704575 
L 340.233624 320.715958 
L 341.067497 343.841553 
L 343.569116 210.190811 
L 345.236862 372.06998 
L 346.070735 370.8757 
L 346.904608 392.698445 
L 347.738481 405.184095 
L 349.406227 293.975591 
L 350.2401 308.55602 
L 351.073973 367.727145 
L 352.741719 381.515645 
L 353.575592 394.54415 
L 354.409465 392.915587 
L 355.243337 387.812756 
L 356.07721 397.692705 
L 356.911083 385.641338 
L 357.744956 404.315528 
L 358.578829 403.446961 
L 359.412702 364.252877 
L 360.246575 365.669019 
L 361.914321 324.841651 
L 362.748194 338.304439 
L 363.582067 348.292959 
L 364.41594 354.807211 
L 365.249813 388.138468 
L 366.083686 389.54989 
L 367.751432 337.653014 
L 368.585305 345.144404 
L 369.419178 319.630249 
L 370.253051 328.858773 
L 371.086924 311.704575 
L 371.920797 329.868954 
L 372.75467 317.458832 
L 373.588543 279.024743 
L 374.422416 251.013459 
L 375.256289 270.013361 
L 376.090162 273.5962 
L 376.924035 373.807114 
L 377.757908 337.761584 
L 378.591781 333.961604 
L 379.425654 300.304634 
L 380.259527 299.653209 
L 381.0934 305.624607 
L 381.927273 310.510296 
L 382.761146 301.999284 
L 383.595019 296.613224 
L 384.428892 285.321854 
L 385.262765 240.156372 
L 386.096638 220.830757 
L 386.930511 243.413498 
L 387.764384 284.344716 
L 388.598257 296.613224 
L 389.43213 317.458832 
L 390.266002 312.24743 
L 391.099875 281.739015 
L 391.933748 287.818984 
L 392.767621 286.950417 
L 393.601494 219.853619 
L 394.435367 292.487531 
L 395.26924 254.270585 
L 396.103113 300.753079 
L 396.936986 159.596785 
L 397.770859 225.716446 
L 398.604732 211.167949 
L 399.438605 199.116582 
L 400.272478 194.448035 
L 401.106351 245.259202 
L 401.940224 274.356196 
L 402.774097 266.213381 
L 403.60797 269.796219 
L 404.441843 297.26465 
L 405.275716 301.06463 
L 406.109589 344.71012 
L 406.943462 356.039254 
L 407.777335 361.104322 
L 408.611208 363.927164 
L 409.445081 355.89292 
L 410.278954 364.252877 
L 411.112827 301.824626 
L 411.9467 257.744853 
L 412.780573 287.3847 
L 413.614446 278.264747 
L 414.448319 270.990499 
L 416.116065 307.25317 
L 416.949938 297.807504 
L 417.783811 283.041866 
L 418.617684 273.704771 
L 419.451557 286.931535 
L 420.28543 280.653306 
L 421.119303 248.950612 
L 422.787049 156.744333 
L 423.620922 224.305024 
L 424.454795 208.77939 
L 425.288667 186.739503 
L 426.12254 221.156469 
L 426.956413 203.209232 
L 427.790286 325.921645 
L 428.624159 267.733373 
L 429.458032 327.018782 
L 430.291905 303.585362 
L 431.125778 254.270585 
L 431.959651 288.253267 
L 432.793524 273.704771 
L 433.627397 242.979214 
L 434.46127 216.596493 
L 435.295143 194.122322 
L 436.129016 165.676754 
L 436.962889 268.710511 
L 437.796762 239.396375 
L 438.630635 278.807602 
L 439.464508 182.830952 
L 440.298381 258.179136 
L 441.132254 283.192921 
L 441.966127 226.367871 
L 442.8 285.973279 
L 443.633873 301.824626 
L 444.467746 301.716055 
L 445.301619 252.750593 
L 446.135492 237.007816 
L 446.969365 166.328179 
L 447.803238 248.190616 
L 448.637111 202.156567 
L 449.470984 279.133314 
L 450.304857 291.293252 
L 451.13873 274.573338 
L 451.972603 279.784739 
L 452.806476 223.979312 
L 453.640349 179.139542 
L 454.474222 152.681293 
L 455.308095 207.367969 
L 456.141968 218.333627 
L 456.975841 94.671405 
L 457.809714 147.871131 
L 459.47746 273.379058 
L 460.311333 204.436555 
L 461.145205 236.682104 
L 461.979078 215.01728 
L 462.812951 244.716348 
L 463.646824 295.744657 
L 464.480697 251.990596 
L 465.31457 264.159975 
L 466.148443 259.175156 
L 466.982316 305.841748 
L 467.816189 232.882123 
L 468.650062 324.624509 
L 469.483935 314.093135 
L 470.317808 270.556215 
L 471.151681 274.247625 
L 471.985554 284.236145 
L 472.819427 307.036028 
L 473.6533 301.607484 
L 474.487173 302.584622 
L 475.321046 302.910335 
L 476.154919 289.310653 
L 476.988792 392.589874 
L 477.822665 389.007035 
L 478.656538 369.464279 
L 479.490411 356.544345 
L 480.324284 349.161526 
L 481.158157 330.487336 
L 481.99203 327.664493 
L 482.825903 351.550085 
L 483.659776 311.813146 
L 484.493649 303.887473 
L 485.327522 308.881733 
L 486.161395 311.704575 
L 486.995268 323.647371 
L 487.829141 322.127379 
L 488.663014 322.127379 
L 489.496887 353.433554 
L 490.33076 365.447156 
L 491.164633 331.573045 
L 491.998506 333.093037 
L 492.832379 331.355903 
L 493.666252 343.950124 
L 494.500125 332.875895 
L 495.333998 296.07037 
L 496.16787 285.864708 
L 497.001743 290.967539 
L 497.835616 338.955864 
L 498.669489 352.30064 
L 499.503362 308.683473 
L 500.337235 321.150241 
L 501.171108 351.441514 
L 502.004981 312.464572 
L 502.838854 317.024548 
L 503.672727 311.878289 
L 504.5066 343.081557 
L 505.340473 324.624509 
L 506.174346 339.71586 
L 507.008219 347.20725 
L 507.842092 363.167168 
L 508.675965 355.132924 
L 509.509838 269.579078 
L 510.343711 261.436262 
L 511.177584 144.288293 
L 512.011457 102.493228 
L 512.84533 188.486507 
L 513.679203 319.630249 
L 514.513076 317.567402 
L 515.346949 258.070565 
L 516.180822 320.715958 
L 517.014695 325.710218 
L 517.848568 320.607387 
L 519.516314 352.961506 
L 520.350187 353.504361 
L 521.18406 277.613322 
L 522.017933 312.138859 
L 522.851806 286.516133 
L 523.685679 318.653111 
L 524.519552 300.196063 
L 525.353425 350.148105 
L 526.187298 311.521719 
L 527.021171 339.824431 
L 527.855044 352.092939 
L 528.688917 335.481596 
L 529.52279 338.955864 
L 530.356663 340.692998 
L 531.190535 339.390147 
L 532.024408 334.504458 
L 532.858281 133.756918 
L 533.692154 191.313641 
L 534.526027 284.88757 
L 535.3599 281.521873 
L 536.193773 268.493369 
L 537.027646 273.053345 
L 537.861519 334.395887 
L 538.695392 337.001588 
L 539.529265 346.012971 
L 540.363138 380.104224 
L 541.197011 344.818691 
L 542.030884 284.344716 
L 542.864757 290.316114 
L 543.69863 337.435872 
L 544.532503 351.550085 
L 545.366376 342.21299 
L 546.200249 348.292959 
L 547.034122 330.378765 
L 547.867995 295.088512 
L 548.701868 314.74456 
L 549.535741 313.984564 
L 550.369614 349.161526 
L 551.203487 367.618574 
L 552.03736 368.37857 
L 552.871233 361.430034 
L 553.705106 343.350624 
L 554.538979 354.807211 
L 555.372852 370.441417 
L 556.206725 378.149948 
L 557.040598 379.778511 
L 557.874471 376.955669 
L 558.708344 373.264259 
L 559.542217 377.992027 
L 560.37609 386.292764 
L 561.209963 396.498426 
L 562.043836 412.349773 
L 562.877709 401.275544 
L 563.711582 408.33265 
L 564.545455 393.458441 
L 565.379328 389.224177 
L 566.2132 388.247039 
L 567.047073 380.755649 
L 567.880946 366.641436 
L 568.714819 364.795731 
L 569.548692 407.464083 
L 570.382565 385.098484 
L 571.216438 386.741209 
L 572.050311 373.698543 
L 572.884184 330.378765 
L 573.718057 298.5675 
L 574.55193 356.978629 
L 575.385803 375.978531 
L 576.219676 404.315528 
L 577.053549 401.166973 
L 577.887422 394.54415 
L 578.721295 390.092744 
L 579.555168 397.04128 
L 580.389041 386.618476 
L 581.222914 374.56711 
L 582.056787 367.727145 
L 582.89066 367.835716 
L 583.724533 367.255097 
L 585.392279 353.287219 
L 586.226152 342.430132 
L 587.060025 389.120327 
L 587.893898 399.429839 
L 588.727771 399.755552 
L 589.561644 387.269902 
L 590.395517 361.864318 
L 591.22939 350.941144 
L 592.063263 366.424294 
L 592.897136 355.132924 
L 593.731009 351.441514 
L 594.564882 356.001491 
L 595.398755 356.001491 
L 596.232628 363.275739 
L 597.900374 401.384115 
L 598.734247 401.926969 
L 599.56812 390.201315 
L 600.401993 398.452701 
L 601.235866 397.584134 
L 602.069738 412.892627 
L 602.903611 405.83552 
L 603.737484 408.115509 
L 604.571357 398.235559 
L 605.40523 397.692705 
L 606.239103 411.273934 
L 607.906849 375.412074 
L 608.740722 407.789796 
L 609.574595 418.972596 
L 610.408468 411.589777 
L 611.242341 400.406977 
L 612.076214 386.292764 
L 612.910087 344.384408 
L 613.74396 329.510198 
L 614.577833 351.224372 
L 615.411706 378.149948 
L 616.245579 319.847391 
L 617.079452 357.630054 
L 617.913325 385.098484 
L 618.747198 397.909847 
L 619.581071 380.429937 
L 620.414944 389.658461 
L 621.248817 369.247137 
L 622.08269 408.549792 
L 622.916563 354.590069 
L 623.750436 360.778609 
L 624.584309 357.304341 
L 625.418182 345.144404 
L 626.252055 355.132924 
L 627.085928 374.132826 
L 627.919801 365.121444 
L 628.753674 390.309886 
L 629.587547 394.57376 
L 630.42142 383.252779 
L 631.255293 393.458441 
L 632.089166 405.509808 
L 632.923039 401.166973 
L 633.756912 369.464279 
L 634.590785 373.698543 
L 635.424658 389.332748 
L 636.258531 389.224177 
L 637.092403 398.778414 
L 637.926276 399.646981 
L 638.760149 400.732689 
L 639.594022 400.515548 
L 640.427895 404.641241 
L 641.261768 414.086907 
L 642.095641 398.126989 
L 642.929514 396.281284 
L 643.763387 406.269804 
L 644.59726 400.081264 
L 645.431133 388.789894 
L 646.265006 408.33265 
L 647.098879 415.71547 
L 647.932752 415.824041 
L 648.766625 418.429741 
L 649.600498 420.058304 
L 650.434371 403.989816 
L 651.268244 391.612736 
L 652.102117 398.018418 
L 652.93599 359.801471 
L 653.769863 373.047117 
L 654.603736 362.950026 
L 655.437609 343.624411 
L 657.105355 396.498426 
L 657.939228 374.132826 
L 658.773101 375.86996 
L 659.606974 346.555825 
L 660.440847 357.847196 
L 661.27472 414.955474 
L 662.108593 405.401237 
L 662.942466 406.269804 
L 663.776339 416.258324 
L 664.610212 411.037052 
L 666.277958 365.990011 
L 667.945704 322.344521 
L 668.779577 320.824529 
L 669.61345 321.910237 
L 670.447323 311.813146 
L 671.281196 322.670233 
L 672.115068 365.555727 
L 672.948941 389.224177 
L 673.782814 355.567207 
L 674.616687 343.732982 
L 675.45056 324.950222 
L 677.118306 409.49732 
L 677.952179 378.475661 
L 678.786052 395.955571 
L 679.619925 332.036938 
L 680.453798 357.738625 
L 681.287671 388.464181 
L 682.121544 376.738527 
L 682.955417 354.372928 
L 683.78929 362.19003 
L 684.623163 371.418554 
L 685.457036 332.22447 
L 686.290909 307.401221 
L 687.124782 346.881538 
L 687.958655 367.835716 
L 688.792528 378.692803 
L 689.626401 325.384505 
L 690.460274 351.484942 
L 691.294147 320.857935 
L 692.12802 281.630444 
L 692.961893 289.013263 
L 693.795766 306.167461 
L 694.629639 311.813146 
L 695.463512 303.018906 
L 696.297385 300.304634 
L 697.131258 288.144696 
L 697.965131 330.378765 
L 698.799004 297.916075 
L 699.632877 324.43097 
L 700.46675 341.344423 
L 701.300623 361.972889 
L 702.134496 367.292861 
L 702.968369 365.447156 
L 703.802242 325.710218 
L 704.636115 305.22373 
L 705.469988 309.207445 
L 706.303861 282.824724 
L 707.137733 297.698933 
L 707.971606 316.373123 
L 708.805479 305.081752 
L 709.639352 243.314368 
L 710.473225 224.087883 
L 711.307098 302.693193 
L 712.140971 279.024743 
L 712.974844 330.595907 
L 713.808717 326.470214 
L 714.64259 360.995751 
L 715.476463 293.030386 
L 716.310336 241.024939 
L 717.144209 216.705063 
L 717.978082 255.790577 
L 718.811955 274.790479 
L 719.645828 247.104907 
L 720.479701 259.590557 
L 721.313574 250.036321 
L 722.147447 287.601842 
L 722.98132 288.630905 
L 723.815193 308.55602 
L 724.649066 319.955962 
L 725.482939 258.287707 
L 726.316812 278.264747 
L 727.150685 272.836204 
L 727.984558 298.133217 
L 728.818431 281.196161 
L 730.486177 315.504556 
L 731.32005 247.104907 
L 732.153923 206.933685 
L 732.987796 228.699784 
L 733.821669 316.04741 
L 734.655542 320.390245 
L 735.489415 321.910237 
L 736.323288 260.459124 
L 737.157161 253.72773 
L 737.991034 308.664591 
L 738.824907 390.85274 
L 740.492653 292.053248 
L 741.326526 195.750885 
L 742.160399 275.333334 
L 742.994271 311.05315 
L 743.828144 352.418652 
L 745.49589 217.899343 
L 746.329763 289.197362 
L 747.163636 278.916172 
L 747.163636 278.916172 
" style="fill:none;stroke:#1f77b4;stroke-linecap:square;stroke-width:1.5;"/>
   </g>
   <g id="line2d_19">
    <path clip-path="url(#pdd2ce2a435)" d="M 138.436364 263.315653 
L 139.270237 306.107862 
L 140.10411 252.268779 
L 140.937983 292.262507 
L 141.771856 305.614837 
L 142.605729 298.07602 
L 143.439601 310.619502 
L 144.273474 251.455754 
L 145.107347 279.41393 
L 145.94122 280.515353 
L 146.775093 271.243798 
L 147.608966 263.238701 
L 148.442839 236.923633 
L 149.276712 302.017781 
L 150.944458 271.223013 
L 151.778331 291.589474 
L 152.612204 308.96963 
L 153.446077 250.952798 
L 154.27995 294.763673 
L 155.113823 266.427441 
L 155.947696 278.238582 
L 156.781569 308.742789 
L 157.615442 332.746599 
L 158.449315 341.113155 
L 159.283188 337.738906 
L 160.117061 346.336273 
L 161.784807 328.484774 
L 162.61868 318.049987 
L 163.452553 311.438642 
L 164.286426 318.097212 
L 165.120299 289.575916 
L 165.954172 299.73378 
L 166.788045 317.578414 
L 167.621918 329.755813 
L 168.455791 307.10829 
L 169.289664 292.698911 
L 170.123537 359.343474 
L 170.95741 346.67714 
L 171.791283 313.689652 
L 172.625156 288.316775 
L 173.459029 289.157713 
L 174.292902 345.061199 
L 175.126775 342.418367 
L 175.960648 319.787033 
L 176.794521 368.533163 
L 177.628394 344.654917 
L 178.462267 341.549963 
L 179.296139 286.727053 
L 180.130012 323.605574 
L 180.963885 338.264116 
L 181.797758 314.709048 
L 182.631631 325.514858 
L 183.465504 252.725893 
L 184.299377 300.223929 
L 185.967123 344.564409 
L 186.800996 306.172411 
L 187.634869 339.623466 
L 188.468742 324.462646 
L 189.302615 327.126811 
L 190.136488 290.273813 
L 190.970361 337.564725 
L 191.804234 353.303037 
L 192.638107 302.437788 
L 193.47198 282.13503 
L 194.305853 300.809655 
L 195.139726 339.106914 
L 195.973599 339.393983 
L 196.807472 274.044641 
L 197.641345 265.291422 
L 198.475218 235.555008 
L 199.309091 347.596287 
L 200.142964 266.268406 
L 200.976837 273.407484 
L 201.81071 244.580307 
L 202.644583 252.072753 
L 203.478456 305.988657 
L 204.312329 280.481728 
L 205.146202 285.244136 
L 205.980075 286.567372 
L 206.813948 353.964272 
L 207.647821 293.786116 
L 208.481694 308.208759 
L 209.315567 298.295451 
L 210.14944 322.243657 
L 210.983313 332.670115 
L 211.817186 322.182195 
L 212.651059 316.088522 
L 213.484932 303.64379 
L 214.318804 314.490731 
L 215.152677 228.670943 
L 215.98655 328.860742 
L 216.820423 356.606474 
L 217.654296 341.806835 
L 218.488169 336.515621 
L 219.322042 341.377478 
L 220.155915 245.53287 
L 220.989788 322.197818 
L 221.823661 325.674862 
L 222.657534 284.8419 
L 223.491407 326.809015 
L 224.32528 290.780533 
L 225.159153 267.819832 
L 225.993026 251.588436 
L 226.826899 300.598608 
L 227.660772 333.568659 
L 228.494645 297.742083 
L 229.328518 321.898169 
L 230.162391 330.335681 
L 230.996264 366.443632 
L 231.830137 353.406662 
L 232.66401 365.595313 
L 233.497883 297.262174 
L 234.331756 277.968467 
L 235.165629 191.258649 
L 235.999502 184.094644 
L 236.833375 295.30778 
L 237.667248 286.593416 
L 238.501121 298.28658 
L 239.334994 326.876218 
L 240.168867 330.939814 
L 241.00274 344.100798 
L 241.836613 345.594271 
L 242.670486 349.90248 
L 243.504359 336.428328 
L 244.338232 358.756302 
L 245.172105 334.242829 
L 246.005978 343.981472 
L 246.839851 357.516923 
L 247.673724 359.264931 
L 248.507597 334.823775 
L 249.341469 244.115691 
L 250.175342 321.164859 
L 251.009215 312.987843 
L 251.843088 350.820949 
L 252.676961 348.313846 
L 253.510834 325.377662 
L 254.344707 326.805667 
L 255.17858 349.363469 
L 256.012453 349.406369 
L 256.846326 336.692734 
L 257.680199 331.629184 
L 258.514072 345.742484 
L 259.347945 373.580859 
L 260.181818 345.933103 
L 261.015691 323.319412 
L 261.849564 275.155267 
L 263.51731 391.414012 
L 264.351183 347.486756 
L 265.185056 351.481592 
L 266.018929 337.047837 
L 266.852802 348.819015 
L 267.686675 351.488084 
L 268.520548 340.903823 
L 269.354421 362.836801 
L 270.188294 350.224179 
L 271.022167 348.459086 
L 271.85604 306.955483 
L 272.689913 350.359742 
L 273.523786 367.234739 
L 274.357659 381.281484 
L 275.191532 381.926418 
L 276.025405 365.945358 
L 276.859278 365.153959 
L 277.693151 359.816953 
L 278.527024 369.532191 
L 279.360897 364.349418 
L 280.19477 365.451596 
L 281.028643 367.049073 
L 281.862516 370.953775 
L 282.696389 354.534434 
L 283.530262 344.62321 
L 284.364134 305.482285 
L 285.198007 349.032896 
L 286.03188 335.395328 
L 286.865753 361.131081 
L 287.699626 382.113846 
L 288.533499 373.481678 
L 289.367372 358.217143 
L 290.201245 377.236081 
L 291.035118 366.065122 
L 291.868991 346.496164 
L 292.702864 365.335919 
L 293.536737 363.236668 
L 294.37061 362.636593 
L 296.038356 322.277874 
L 296.872229 318.572807 
L 297.706102 323.02147 
L 298.539975 336.464751 
L 299.373848 366.932232 
L 300.207721 357.394172 
L 301.041594 358.876745 
L 301.875467 295.301775 
L 302.70934 334.54494 
L 303.543213 351.62767 
L 304.377086 348.632508 
L 305.210959 365.836432 
L 306.044832 339.88287 
L 306.878705 380.108196 
L 307.712578 374.937216 
L 308.546451 382.585906 
L 309.380324 354.170213 
L 310.214197 339.793695 
L 311.04807 338.937902 
L 311.881943 341.641732 
L 312.715816 356.047565 
L 314.383562 390.313044 
L 315.217435 350.645623 
L 316.885181 382.920264 
L 317.719054 395.0126 
L 318.552927 379.152599 
L 319.3868 374.315108 
L 320.220672 387.50316 
L 321.054545 369.670832 
L 321.888418 392.669135 
L 322.722291 384.920029 
L 323.556164 348.881472 
L 324.390037 351.671429 
L 325.22391 344.413526 
L 326.057783 374.296632 
L 326.891656 383.908839 
L 327.725529 349.123365 
L 328.559402 394.862696 
L 329.393275 356.060872 
L 330.227148 330.267482 
L 331.061021 383.321214 
L 331.894894 375.90629 
L 332.728767 333.96673 
L 333.56264 323.972624 
L 334.396513 365.204017 
L 335.230386 335.570431 
L 336.064259 323.31957 
L 336.898132 313.965929 
L 337.732005 317.980954 
L 338.565878 297.715319 
L 339.399751 311.99881 
L 340.233624 312.271935 
L 341.067497 319.360483 
L 343.569116 209.325421 
L 344.402989 235.616313 
L 345.236862 342.19813 
L 346.070735 360.527778 
L 346.904608 365.174862 
L 347.738481 374.532558 
L 348.572354 357.782624 
L 349.406227 264.597246 
L 350.2401 297.284218 
L 351.073973 351.882715 
L 351.907846 339.518135 
L 352.741719 368.536608 
L 353.575592 349.870774 
L 354.409465 387.899523 
L 355.243337 364.698301 
L 356.07721 366.202946 
L 357.744956 385.731878 
L 358.578829 384.408973 
L 359.412702 360.090438 
L 360.246575 354.194782 
L 361.080448 351.803057 
L 361.914321 288.146447 
L 362.748194 341.263301 
L 363.582067 328.1888 
L 364.41594 336.088521 
L 365.249813 356.888541 
L 366.083686 373.016198 
L 366.917559 342.926372 
L 367.751432 316.996608 
L 368.585305 343.912346 
L 369.419178 330.033601 
L 370.253051 291.062877 
L 371.086924 290.023586 
L 371.920797 295.480398 
L 372.75467 299.841799 
L 373.588543 287.455305 
L 374.422416 255.010199 
L 375.256289 257.571811 
L 376.090162 265.343101 
L 376.924035 316.706272 
L 377.757908 315.593504 
L 378.591781 329.376653 
L 379.425654 279.0048 
L 380.259527 289.376929 
L 381.0934 305.06957 
L 381.927273 286.63551 
L 382.761146 289.951287 
L 383.595019 297.070581 
L 384.428892 276.821031 
L 385.262765 235.847391 
L 386.096638 187.977787 
L 386.930511 212.673481 
L 387.764384 295.8164 
L 388.598257 288.474443 
L 389.43213 270.279512 
L 390.266002 309.271681 
L 391.099875 267.943561 
L 391.933748 265.481282 
L 392.767621 289.886113 
L 393.601494 229.440526 
L 394.435367 285.720999 
L 395.26924 237.346822 
L 396.103113 282.336146 
L 396.936986 252.566912 
L 397.770859 173.942351 
L 398.604732 209.512898 
L 399.438605 190.044339 
L 400.272478 160.68035 
L 401.106351 224.167459 
L 401.940224 267.262013 
L 402.774097 218.231455 
L 403.60797 249.382511 
L 404.441843 275.92779 
L 405.275716 281.049369 
L 406.109589 313.962382 
L 406.943462 308.037981 
L 407.777335 344.636315 
L 408.611208 338.527985 
L 409.445081 325.941801 
L 410.278954 349.602474 
L 411.112827 309.412239 
L 411.9467 219.967174 
L 412.780573 291.968843 
L 413.614446 273.564988 
L 414.448319 272.004228 
L 415.282192 269.193259 
L 416.116065 282.922239 
L 416.949938 282.089721 
L 417.783811 285.189925 
L 418.617684 253.957747 
L 419.451557 241.993542 
L 420.28543 271.181032 
L 421.119303 244.240546 
L 421.953176 201.066927 
L 422.787049 109.002559 
L 423.620922 198.590224 
L 425.288667 119.46131 
L 426.12254 177.537238 
L 426.956413 170.654702 
L 427.790286 280.345896 
L 428.624159 249.980816 
L 429.458032 311.26226 
L 430.291905 292.968361 
L 431.125778 254.379695 
L 431.959651 284.937899 
L 432.793524 280.789677 
L 433.627397 260.86487 
L 434.46127 221.346182 
L 435.295143 204.120903 
L 436.129016 128.240143 
L 436.962889 261.620351 
L 437.796762 237.682887 
L 438.630635 244.93322 
L 439.464508 188.669573 
L 440.298381 213.552781 
L 441.132254 291.042185 
L 441.966127 192.799634 
L 442.8 265.003503 
L 443.633873 260.384735 
L 444.467746 248.05593 
L 445.301619 276.783693 
L 446.135492 196.345481 
L 446.969365 153.199564 
L 447.803238 179.009688 
L 448.637111 186.957189 
L 449.470984 232.544989 
L 450.304857 229.437534 
L 451.13873 230.192027 
L 451.972603 238.433337 
L 452.806476 211.928677 
L 453.640349 126.100564 
L 454.474222 162.749392 
L 455.308095 175.143253 
L 456.141968 205.122547 
L 456.975841 209.950889 
L 457.809714 111.697817 
L 458.643587 143.513729 
L 459.47746 235.357738 
L 460.311333 216.194493 
L 461.145205 201.437795 
L 461.979078 248.833036 
L 462.812951 193.118264 
L 463.646824 311.08572 
L 464.480697 265.3352 
L 465.31457 213.282625 
L 466.148443 283.687764 
L 466.982316 289.377734 
L 467.816189 228.387239 
L 468.650062 307.715086 
L 469.483935 307.299342 
L 470.317808 291.682464 
L 471.151681 258.059623 
L 471.985554 275.11547 
L 472.819427 296.399265 
L 473.6533 294.573384 
L 474.487173 290.700397 
L 475.321046 281.630791 
L 476.154919 262.261942 
L 476.988792 342.647397 
L 477.822665 372.181798 
L 478.656538 348.078066 
L 479.490411 344.84734 
L 480.324284 346.372348 
L 481.158157 322.922019 
L 481.99203 330.619303 
L 483.659776 304.756716 
L 484.493649 287.171731 
L 485.327522 307.860804 
L 486.161395 298.949956 
L 486.995268 302.70494 
L 487.829141 315.707139 
L 488.663014 307.654584 
L 489.496887 318.804231 
L 490.33076 325.228236 
L 491.164633 322.241571 
L 491.998506 290.084878 
L 492.832379 312.166862 
L 493.666252 320.685141 
L 494.500125 292.757314 
L 495.333998 285.401547 
L 496.16787 243.416817 
L 497.001743 286.591093 
L 497.835616 290.269905 
L 498.669489 322.386359 
L 500.337235 280.914508 
L 501.171108 325.031429 
L 502.004981 313.074105 
L 502.838854 299.069582 
L 503.672727 320.000816 
L 504.5066 325.461043 
L 505.340473 316.672092 
L 506.174346 337.917013 
L 507.008219 321.102531 
L 507.842092 344.93233 
L 508.675965 349.858065 
L 509.509838 260.426344 
L 510.343711 278.124153 
L 511.177584 139.13207 
L 512.011457 86.923636 
L 512.84533 150.155072 
L 513.679203 294.56387 
L 514.513076 282.621382 
L 515.346949 260.480406 
L 516.180822 299.531125 
L 517.014695 321.466494 
L 517.848568 303.835533 
L 518.682441 327.245076 
L 519.516314 338.28875 
L 520.350187 351.923918 
L 521.18406 265.468077 
L 522.017933 273.295954 
L 522.851806 291.092439 
L 523.685679 298.148833 
L 524.519552 306.75474 
L 525.353425 305.557223 
L 526.187298 284.685737 
L 527.021171 322.326803 
L 527.855044 338.494218 
L 528.688917 347.575246 
L 529.52279 331.563298 
L 530.356663 299.736587 
L 531.190535 327.237057 
L 532.024408 319.840689 
L 532.858281 202.144953 
L 533.692154 107.2535 
L 534.526027 263.377838 
L 535.3599 272.132307 
L 536.193773 276.092958 
L 537.027646 281.993475 
L 537.861519 311.906476 
L 538.695392 311.533783 
L 539.529265 316.209055 
L 540.363138 351.799973 
L 541.197011 300.57657 
L 542.030884 328.967461 
L 542.864757 223.565692 
L 543.69863 336.808116 
L 544.532503 306.653664 
L 545.366376 325.87103 
L 546.200249 313.686962 
L 547.034122 348.681282 
L 547.867995 273.707571 
L 548.701868 318.764863 
L 549.535741 313.128153 
L 550.369614 329.003759 
L 551.203487 360.499868 
L 552.03736 360.783539 
L 553.705106 330.441862 
L 554.538979 357.686439 
L 555.372852 373.820776 
L 556.206725 374.898999 
L 557.040598 368.676106 
L 557.874471 374.551897 
L 558.708344 364.112226 
L 559.542217 359.00718 
L 560.37609 380.804069 
L 561.209963 390.648361 
L 562.043836 403.370026 
L 562.877709 384.44838 
L 563.711582 392.154965 
L 565.379328 385.522585 
L 566.2132 382.222438 
L 567.047073 372.900648 
L 567.880946 372.625455 
L 568.714819 336.307398 
L 569.548692 428.497869 
L 570.382565 358.975205 
L 571.216438 386.197559 
L 572.050311 364.637042 
L 572.884184 331.940582 
L 573.718057 280.072922 
L 574.55193 351.163321 
L 575.385803 358.214562 
L 576.219676 374.674008 
L 577.053549 393.493453 
L 577.887422 391.436531 
L 578.721295 365.766109 
L 579.555168 369.135966 
L 580.389041 371.168607 
L 581.222914 368.470938 
L 582.056787 362.093018 
L 582.89066 365.035083 
L 583.724533 372.224092 
L 584.558406 370.041178 
L 585.392279 347.197557 
L 586.226152 343.099665 
L 587.893898 373.80917 
L 588.727771 379.813908 
L 589.561644 355.187551 
L 590.395517 351.481016 
L 591.22939 333.065921 
L 592.063263 366.650285 
L 592.897136 327.532318 
L 593.731009 334.454625 
L 594.564882 347.553795 
L 595.398755 351.395362 
L 596.232628 353.442667 
L 597.900374 395.156577 
L 598.734247 383.880922 
L 599.56812 383.968251 
L 600.401993 389.283003 
L 601.235866 399.764627 
L 602.069738 404.454996 
L 602.903611 393.719246 
L 603.737484 397.443251 
L 604.571357 389.535249 
L 605.40523 392.080966 
L 606.239103 407.505037 
L 607.906849 355.275184 
L 608.740722 383.79843 
L 609.574595 389.527723 
L 610.408468 389.634704 
L 611.242341 368.498016 
L 612.076214 367.761543 
L 612.910087 380.621619 
L 613.74396 337.883267 
L 614.577833 321.574994 
L 615.411706 369.494006 
L 616.245579 334.446249 
L 617.079452 335.239247 
L 617.913325 369.529897 
L 618.747198 363.235503 
L 619.581071 365.143924 
L 620.414944 382.17684 
L 621.248817 358.853063 
L 622.08269 380.212236 
L 622.916563 337.907363 
L 623.750436 361.687886 
L 624.584309 326.233324 
L 625.418182 329.353323 
L 626.252055 333.529997 
L 627.085928 344.846527 
L 627.919801 351.205833 
L 628.753674 371.815759 
L 629.587547 382.110962 
L 630.42142 368.474996 
L 631.255293 360.773834 
L 632.089166 369.820481 
L 632.923039 381.211662 
L 633.756912 363.828701 
L 634.590785 366.163449 
L 635.424658 361.316067 
L 637.092403 399.095023 
L 637.926276 390.004605 
L 638.760149 396.353701 
L 639.594022 389.789636 
L 640.427895 390.028277 
L 641.261768 410.88138 
L 642.095641 371.383791 
L 642.929514 376.850269 
L 643.763387 368.712264 
L 644.59726 390.901561 
L 645.431133 369.069206 
L 646.265006 374.974918 
L 647.098879 404.091731 
L 647.932752 408.134632 
L 648.766625 409.509923 
L 650.434371 393.103769 
L 651.268244 386.660583 
L 652.102117 396.824658 
L 652.93599 366.629687 
L 653.769863 364.917924 
L 654.603736 367.559987 
L 655.437609 336.632185 
L 656.271482 342.408743 
L 657.105355 378.311148 
L 657.939228 356.511784 
L 658.773101 358.124924 
L 659.606974 352.339531 
L 660.440847 338.177804 
L 661.27472 389.688312 
L 662.108593 385.672842 
L 662.942466 379.205464 
L 663.776339 404.749086 
L 664.610212 395.174317 
L 665.444085 389.450516 
L 666.277958 372.287335 
L 667.111831 317.810392 
L 667.945704 329.951117 
L 668.779577 318.526817 
L 669.61345 315.99053 
L 670.447323 317.916568 
L 671.281196 310.09987 
L 672.115068 360.691125 
L 672.948941 368.552253 
L 673.782814 347.312032 
L 674.616687 352.080738 
L 675.45056 320.292034 
L 676.284433 331.622853 
L 677.118306 417.828992 
L 677.952179 360.505482 
L 678.786052 442.996364 
L 679.619925 309.135602 
L 680.453798 320.349692 
L 681.287671 361.539778 
L 682.121544 360.435077 
L 682.955417 333.876328 
L 683.78929 375.248376 
L 684.623163 330.754716 
L 685.457036 332.404861 
L 686.290909 291.110235 
L 687.124782 363.784627 
L 687.958655 349.992354 
L 688.792528 333.917614 
L 689.626401 296.899906 
L 690.460274 297.506948 
L 691.294147 326.212358 
L 692.12802 294.398385 
L 692.961893 255.951288 
L 693.795766 290.031249 
L 694.629639 303.340874 
L 695.463512 283.52668 
L 696.297385 269.1066 
L 697.131258 277.078783 
L 697.965131 322.560641 
L 698.799004 273.016022 
L 699.632877 305.955509 
L 700.46675 329.695127 
L 701.300623 369.610265 
L 702.134496 382.227625 
L 702.968369 347.884485 
L 703.802242 299.473871 
L 704.636115 280.704434 
L 705.469988 293.230424 
L 706.303861 269.743718 
L 707.137733 290.001942 
L 707.971606 283.113726 
L 708.805479 289.087406 
L 709.639352 257.916174 
L 710.473225 222.336267 
L 711.307098 300.534652 
L 712.140971 239.172974 
L 712.974844 341.733978 
L 713.808717 327.393238 
L 714.64259 316.276679 
L 715.476463 262.266326 
L 716.310336 243.008668 
L 717.144209 201.460856 
L 717.978082 246.871466 
L 718.811955 249.079588 
L 719.645828 257.228678 
L 720.479701 289.225124 
L 721.313574 232.67467 
L 722.147447 266.325751 
L 722.98132 262.834142 
L 723.815193 273.962202 
L 724.649066 292.239688 
L 725.482939 247.709376 
L 726.316812 263.99113 
L 727.150685 246.361098 
L 727.984558 288.592577 
L 728.818431 288.161789 
L 729.652304 270.865641 
L 730.486177 327.600762 
L 731.32005 268.337807 
L 732.153923 171.424709 
L 732.987796 195.358459 
L 733.821669 296.088391 
L 734.655542 333.572015 
L 735.489415 304.683437 
L 736.323288 254.587088 
L 737.157161 214.263828 
L 737.991034 224.363978 
L 738.824907 358.626877 
L 740.492653 285.351401 
L 741.326526 255.37623 
L 742.160399 249.129348 
L 742.994271 229.520672 
L 743.828144 311.041801 
L 745.49589 200.296542 
L 746.329763 284.141424 
L 747.163636 222.876026 
L 747.163636 222.876026 
" style="fill:none;stroke:#ff0000;stroke-dasharray:5.55,2.4;stroke-dashoffset:0;stroke-width:1.5;"/>
   </g>
   <g id="patch_3">
    <path d="M 108 460.8 
L 108 69.12 
" style="fill:none;stroke:#000000;stroke-linecap:square;stroke-linejoin:miter;stroke-width:0.8;"/>
   </g>
   <g id="patch_4">
    <path d="M 777.6 460.8 
L 777.6 69.12 
" style="fill:none;stroke:#000000;stroke-linecap:square;stroke-linejoin:miter;stroke-width:0.8;"/>
   </g>
   <g id="patch_5">
    <path d="M 108 460.8 
L 777.6 460.8 
" style="fill:none;stroke:#000000;stroke-linecap:square;stroke-linejoin:miter;stroke-width:0.8;"/>
   </g>
   <g id="patch_6">
    <path d="M 108 69.12 
L 777.6 69.12 
" style="fill:none;stroke:#000000;stroke-linecap:square;stroke-linejoin:miter;stroke-width:0.8;"/>
   </g>
   <g id="text_20">
    <!-- Macau residential 2020-2021 | Forecast vs Monitored | Support vector machine -->
    <g transform="translate(86.252344 63.12)scale(0.18 -0.18)">
     <defs>
      <path d="M 8.5 21.578125 
L 8.5 54.6875 
L 17.484375 54.6875 
L 17.484375 21.921875 
Q 17.484375 14.15625 20.5 10.265625 
Q 23.53125 6.390625 29.59375 6.390625 
Q 36.859375 6.390625 41.078125 11.03125 
Q 45.3125 15.671875 45.3125 23.6875 
L 45.3125 54.6875 
L 54.296875 54.6875 
L 54.296875 0 
L 45.3125 0 
L 45.3125 8.40625 
Q 42.046875 3.421875 37.71875 1 
Q 33.40625 -1.421875 27.6875 -1.421875 
Q 18.265625 -1.421875 13.375 4.4375 
Q 8.5 10.296875 8.5 21.578125 
z
M 31.109375 56 
z
" id="DejaVuSans-117"/>
      <path id="DejaVuSans-32"/>
      <path d="M 44.28125 53.078125 
L 44.28125 44.578125 
Q 40.484375 46.53125 36.375 47.5 
Q 32.28125 48.484375 27.875 48.484375 
Q 21.1875 48.484375 17.84375 46.4375 
Q 14.5 44.390625 14.5 40.28125 
Q 14.5 37.15625 16.890625 35.375 
Q 19.28125 33.59375 26.515625 31.984375 
L 29.59375 31.296875 
Q 39.15625 29.25 43.1875 25.515625 
Q 47.21875 21.78125 47.21875 15.09375 
Q 47.21875 7.46875 41.1875 3.015625 
Q 35.15625 -1.421875 24.609375 -1.421875 
Q 20.21875 -1.421875 15.453125 -0.5625 
Q 10.6875 0.296875 5.421875 2 
L 5.421875 11.28125 
Q 10.40625 8.6875 15.234375 7.390625 
Q 20.0625 6.109375 24.8125 6.109375 
Q 31.15625 6.109375 34.5625 8.28125 
Q 37.984375 10.453125 37.984375 14.40625 
Q 37.984375 18.0625 35.515625 20.015625 
Q 33.0625 21.96875 24.703125 23.78125 
L 21.578125 24.515625 
Q 13.234375 26.265625 9.515625 29.90625 
Q 5.8125 33.546875 5.8125 39.890625 
Q 5.8125 47.609375 11.28125 51.796875 
Q 16.75 56 26.8125 56 
Q 31.78125 56 36.171875 55.265625 
Q 40.578125 54.546875 44.28125 53.078125 
z
" id="DejaVuSans-115"/>
      <path d="M 45.40625 46.390625 
L 45.40625 75.984375 
L 54.390625 75.984375 
L 54.390625 0 
L 45.40625 0 
L 45.40625 8.203125 
Q 42.578125 3.328125 38.25 0.953125 
Q 33.9375 -1.421875 27.875 -1.421875 
Q 17.96875 -1.421875 11.734375 6.484375 
Q 5.515625 14.40625 5.515625 27.296875 
Q 5.515625 40.1875 11.734375 48.09375 
Q 17.96875 56 27.875 56 
Q 33.9375 56 38.25 53.625 
Q 42.578125 51.265625 45.40625 46.390625 
z
M 14.796875 27.296875 
Q 14.796875 17.390625 18.875 11.75 
Q 22.953125 6.109375 30.078125 6.109375 
Q 37.203125 6.109375 41.296875 11.75 
Q 45.40625 17.390625 45.40625 27.296875 
Q 45.40625 37.203125 41.296875 42.84375 
Q 37.203125 48.484375 30.078125 48.484375 
Q 22.953125 48.484375 18.875 42.84375 
Q 14.796875 37.203125 14.796875 27.296875 
z
" id="DejaVuSans-100"/>
      <path d="M 54.890625 33.015625 
L 54.890625 0 
L 45.90625 0 
L 45.90625 32.71875 
Q 45.90625 40.484375 42.875 44.328125 
Q 39.84375 48.1875 33.796875 48.1875 
Q 26.515625 48.1875 22.3125 43.546875 
Q 18.109375 38.921875 18.109375 30.90625 
L 18.109375 0 
L 9.078125 0 
L 9.078125 54.6875 
L 18.109375 54.6875 
L 18.109375 46.1875 
Q 21.34375 51.125 25.703125 53.5625 
Q 30.078125 56 35.796875 56 
Q 45.21875 56 50.046875 50.171875 
Q 54.890625 44.34375 54.890625 33.015625 
z
" id="DejaVuSans-110"/>
      <path d="M 9.421875 75.984375 
L 18.40625 75.984375 
L 18.40625 0 
L 9.421875 0 
z
" id="DejaVuSans-108"/>
      <path d="M 21 76.421875 
L 21 -23.578125 
L 12.703125 -23.578125 
L 12.703125 76.421875 
z
" id="DejaVuSans-124"/>
      <path d="M 9.8125 72.90625 
L 51.703125 72.90625 
L 51.703125 64.59375 
L 19.671875 64.59375 
L 19.671875 43.109375 
L 48.578125 43.109375 
L 48.578125 34.8125 
L 19.671875 34.8125 
L 19.671875 0 
L 9.8125 0 
z
" id="DejaVuSans-70"/>
      <path d="M 2.984375 54.6875 
L 12.5 54.6875 
L 29.59375 8.796875 
L 46.6875 54.6875 
L 56.203125 54.6875 
L 35.6875 0 
L 23.484375 0 
z
" id="DejaVuSans-118"/>
      <path d="M 53.515625 70.515625 
L 53.515625 60.890625 
Q 47.90625 63.578125 42.921875 64.890625 
Q 37.9375 66.21875 33.296875 66.21875 
Q 25.25 66.21875 20.875 63.09375 
Q 16.5 59.96875 16.5 54.203125 
Q 16.5 49.359375 19.40625 46.890625 
Q 22.3125 44.4375 30.421875 42.921875 
L 36.375 41.703125 
Q 47.40625 39.59375 52.65625 34.296875 
Q 57.90625 29 57.90625 20.125 
Q 57.90625 9.515625 50.796875 4.046875 
Q 43.703125 -1.421875 29.984375 -1.421875 
Q 24.8125 -1.421875 18.96875 -0.25 
Q 13.140625 0.921875 6.890625 3.21875 
L 6.890625 13.375 
Q 12.890625 10.015625 18.65625 8.296875 
Q 24.421875 6.59375 29.984375 6.59375 
Q 38.421875 6.59375 43.015625 9.90625 
Q 47.609375 13.234375 47.609375 19.390625 
Q 47.609375 24.75 44.3125 27.78125 
Q 41.015625 30.8125 33.5 32.328125 
L 27.484375 33.5 
Q 16.453125 35.6875 11.515625 40.375 
Q 6.59375 45.0625 6.59375 53.421875 
Q 6.59375 63.09375 13.40625 68.65625 
Q 20.21875 74.21875 32.171875 74.21875 
Q 37.3125 74.21875 42.625 73.28125 
Q 47.953125 72.359375 53.515625 70.515625 
z
" id="DejaVuSans-83"/>
      <path d="M 18.109375 8.203125 
L 18.109375 -20.796875 
L 9.078125 -20.796875 
L 9.078125 54.6875 
L 18.109375 54.6875 
L 18.109375 46.390625 
Q 20.953125 51.265625 25.265625 53.625 
Q 29.59375 56 35.59375 56 
Q 45.5625 56 51.78125 48.09375 
Q 58.015625 40.1875 58.015625 27.296875 
Q 58.015625 14.40625 51.78125 6.484375 
Q 45.5625 -1.421875 35.59375 -1.421875 
Q 29.59375 -1.421875 25.265625 0.953125 
Q 20.953125 3.328125 18.109375 8.203125 
z
M 48.6875 27.296875 
Q 48.6875 37.203125 44.609375 42.84375 
Q 40.53125 48.484375 33.40625 48.484375 
Q 26.265625 48.484375 22.1875 42.84375 
Q 18.109375 37.203125 18.109375 27.296875 
Q 18.109375 17.390625 22.1875 11.75 
Q 26.265625 6.109375 33.40625 6.109375 
Q 40.53125 6.109375 44.609375 11.75 
Q 48.6875 17.390625 48.6875 27.296875 
z
" id="DejaVuSans-112"/>
      <path d="M 54.890625 33.015625 
L 54.890625 0 
L 45.90625 0 
L 45.90625 32.71875 
Q 45.90625 40.484375 42.875 44.328125 
Q 39.84375 48.1875 33.796875 48.1875 
Q 26.515625 48.1875 22.3125 43.546875 
Q 18.109375 38.921875 18.109375 30.90625 
L 18.109375 0 
L 9.078125 0 
L 9.078125 75.984375 
L 18.109375 75.984375 
L 18.109375 46.1875 
Q 21.34375 51.125 25.703125 53.5625 
Q 30.078125 56 35.796875 56 
Q 45.21875 56 50.046875 50.171875 
Q 54.890625 44.34375 54.890625 33.015625 
z
" id="DejaVuSans-104"/>
     </defs>
     <use xlink:href="#DejaVuSans-77"/>
     <use x="86.279297" xlink:href="#DejaVuSans-97"/>
     <use x="147.558594" xlink:href="#DejaVuSans-99"/>
     <use x="202.539062" xlink:href="#DejaVuSans-97"/>
     <use x="263.818359" xlink:href="#DejaVuSans-117"/>
     <use x="327.197266" xlink:href="#DejaVuSans-32"/>
     <use x="358.984375" xlink:href="#DejaVuSans-114"/>
     <use x="397.847656" xlink:href="#DejaVuSans-101"/>
     <use x="459.371094" xlink:href="#DejaVuSans-115"/>
     <use x="511.470703" xlink:href="#DejaVuSans-105"/>
     <use x="539.253906" xlink:href="#DejaVuSans-100"/>
     <use x="602.730469" xlink:href="#DejaVuSans-101"/>
     <use x="664.253906" xlink:href="#DejaVuSans-110"/>
     <use x="727.632812" xlink:href="#DejaVuSans-116"/>
     <use x="766.841797" xlink:href="#DejaVuSans-105"/>
     <use x="794.625" xlink:href="#DejaVuSans-97"/>
     <use x="855.904297" xlink:href="#DejaVuSans-108"/>
     <use x="883.6875" xlink:href="#DejaVuSans-32"/>
     <use x="915.474609" xlink:href="#DejaVuSans-50"/>
     <use x="979.097656" xlink:href="#DejaVuSans-48"/>
     <use x="1042.720703" xlink:href="#DejaVuSans-50"/>
     <use x="1106.34375" xlink:href="#DejaVuSans-48"/>
     <use x="1169.966797" xlink:href="#DejaVuSans-45"/>
     <use x="1206.050781" xlink:href="#DejaVuSans-50"/>
     <use x="1269.673828" xlink:href="#DejaVuSans-48"/>
     <use x="1333.296875" xlink:href="#DejaVuSans-50"/>
     <use x="1396.919922" xlink:href="#DejaVuSans-49"/>
     <use x="1460.542969" xlink:href="#DejaVuSans-32"/>
     <use x="1492.330078" xlink:href="#DejaVuSans-124"/>
     <use x="1526.021484" xlink:href="#DejaVuSans-32"/>
     <use x="1557.808594" xlink:href="#DejaVuSans-70"/>
     <use x="1611.703125" xlink:href="#DejaVuSans-111"/>
     <use x="1672.884766" xlink:href="#DejaVuSans-114"/>
     <use x="1711.748047" xlink:href="#DejaVuSans-101"/>
     <use x="1773.271484" xlink:href="#DejaVuSans-99"/>
     <use x="1828.251953" xlink:href="#DejaVuSans-97"/>
     <use x="1889.53125" xlink:href="#DejaVuSans-115"/>
     <use x="1941.630859" xlink:href="#DejaVuSans-116"/>
     <use x="1980.839844" xlink:href="#DejaVuSans-32"/>
     <use x="2012.626953" xlink:href="#DejaVuSans-118"/>
     <use x="2071.806641" xlink:href="#DejaVuSans-115"/>
     <use x="2123.90625" xlink:href="#DejaVuSans-32"/>
     <use x="2155.693359" xlink:href="#DejaVuSans-77"/>
     <use x="2241.972656" xlink:href="#DejaVuSans-111"/>
     <use x="2303.154297" xlink:href="#DejaVuSans-110"/>
     <use x="2366.533203" xlink:href="#DejaVuSans-105"/>
     <use x="2394.316406" xlink:href="#DejaVuSans-116"/>
     <use x="2433.525391" xlink:href="#DejaVuSans-111"/>
     <use x="2494.707031" xlink:href="#DejaVuSans-114"/>
     <use x="2533.570312" xlink:href="#DejaVuSans-101"/>
     <use x="2595.09375" xlink:href="#DejaVuSans-100"/>
     <use x="2658.570312" xlink:href="#DejaVuSans-32"/>
     <use x="2690.357422" xlink:href="#DejaVuSans-124"/>
     <use x="2724.048828" xlink:href="#DejaVuSans-32"/>
     <use x="2755.835938" xlink:href="#DejaVuSans-83"/>
     <use x="2819.3125" xlink:href="#DejaVuSans-117"/>
     <use x="2882.691406" xlink:href="#DejaVuSans-112"/>
     <use x="2946.167969" xlink:href="#DejaVuSans-112"/>
     <use x="3009.644531" xlink:href="#DejaVuSans-111"/>
     <use x="3070.826172" xlink:href="#DejaVuSans-114"/>
     <use x="3111.939453" xlink:href="#DejaVuSans-116"/>
     <use x="3151.148438" xlink:href="#DejaVuSans-32"/>
     <use x="3182.935547" xlink:href="#DejaVuSans-118"/>
     <use x="3242.115234" xlink:href="#DejaVuSans-101"/>
     <use x="3303.638672" xlink:href="#DejaVuSans-99"/>
     <use x="3358.619141" xlink:href="#DejaVuSans-116"/>
     <use x="3397.828125" xlink:href="#DejaVuSans-111"/>
     <use x="3459.009766" xlink:href="#DejaVuSans-114"/>
     <use x="3500.123047" xlink:href="#DejaVuSans-32"/>
     <use x="3531.910156" xlink:href="#DejaVuSans-109"/>
     <use x="3629.322266" xlink:href="#DejaVuSans-97"/>
     <use x="3690.601562" xlink:href="#DejaVuSans-99"/>
     <use x="3745.582031" xlink:href="#DejaVuSans-104"/>
     <use x="3808.960938" xlink:href="#DejaVuSans-105"/>
     <use x="3836.744141" xlink:href="#DejaVuSans-110"/>
     <use x="3900.123047" xlink:href="#DejaVuSans-101"/>
    </g>
   </g>
   <g id="legend_1">
    <g id="patch_7">
     <path d="M 598.963125 114.615 
L 769.2 114.615 
Q 771.6 114.615 771.6 112.215 
L 771.6 77.52 
Q 771.6 75.12 769.2 75.12 
L 598.963125 75.12 
Q 596.563125 75.12 596.563125 77.52 
L 596.563125 112.215 
Q 596.563125 114.615 598.963125 114.615 
z
" style="fill:#ffffff;opacity:0.8;stroke:#cccccc;stroke-linejoin:miter;"/>
    </g>
    <g id="line2d_20">
     <path d="M 601.363125 84.838125 
L 625.363125 84.838125 
" style="fill:none;stroke:#1f77b4;stroke-linecap:square;stroke-width:1.5;"/>
    </g>
    <g id="line2d_21"/>
    <g id="text_21">
     <!-- measured_data_PM10 -->
     <g transform="translate(634.963125 89.038125)scale(0.12 -0.12)">
      <defs>
       <path d="M 50.984375 -16.609375 
L 50.984375 -23.578125 
L -0.984375 -23.578125 
L -0.984375 -16.609375 
z
" id="DejaVuSans-95"/>
      </defs>
      <use xlink:href="#DejaVuSans-109"/>
      <use x="97.412109" xlink:href="#DejaVuSans-101"/>
      <use x="158.935547" xlink:href="#DejaVuSans-97"/>
      <use x="220.214844" xlink:href="#DejaVuSans-115"/>
      <use x="272.314453" xlink:href="#DejaVuSans-117"/>
      <use x="335.693359" xlink:href="#DejaVuSans-114"/>
      <use x="374.556641" xlink:href="#DejaVuSans-101"/>
      <use x="436.080078" xlink:href="#DejaVuSans-100"/>
      <use x="499.556641" xlink:href="#DejaVuSans-95"/>
      <use x="549.556641" xlink:href="#DejaVuSans-100"/>
      <use x="613.033203" xlink:href="#DejaVuSans-97"/>
      <use x="674.3125" xlink:href="#DejaVuSans-116"/>
      <use x="713.521484" xlink:href="#DejaVuSans-97"/>
      <use x="774.800781" xlink:href="#DejaVuSans-95"/>
      <use x="824.800781" xlink:href="#DejaVuSans-80"/>
      <use x="885.103516" xlink:href="#DejaVuSans-77"/>
      <use x="971.382812" xlink:href="#DejaVuSans-49"/>
      <use x="1035.005859" xlink:href="#DejaVuSans-48"/>
     </g>
    </g>
    <g id="line2d_22">
     <path d="M 601.363125 102.785625 
L 625.363125 102.785625 
" style="fill:none;stroke:#ff0000;stroke-dasharray:5.55,2.4;stroke-dashoffset:0;stroke-width:1.5;"/>
    </g>
    <g id="line2d_23"/>
    <g id="text_22">
     <!-- predicted_data_PM10 -->
     <g transform="translate(634.963125 106.985625)scale(0.12 -0.12)">
      <use xlink:href="#DejaVuSans-112"/>
      <use x="63.476562" xlink:href="#DejaVuSans-114"/>
      <use x="102.339844" xlink:href="#DejaVuSans-101"/>
      <use x="163.863281" xlink:href="#DejaVuSans-100"/>
      <use x="227.339844" xlink:href="#DejaVuSans-105"/>
      <use x="255.123047" xlink:href="#DejaVuSans-99"/>
      <use x="310.103516" xlink:href="#DejaVuSans-116"/>
      <use x="349.3125" xlink:href="#DejaVuSans-101"/>
      <use x="410.835938" xlink:href="#DejaVuSans-100"/>
      <use x="474.3125" xlink:href="#DejaVuSans-95"/>
      <use x="524.3125" xlink:href="#DejaVuSans-100"/>
      <use x="587.789062" xlink:href="#DejaVuSans-97"/>
      <use x="649.068359" xlink:href="#DejaVuSans-116"/>
      <use x="688.277344" xlink:href="#DejaVuSans-97"/>
      <use x="749.556641" xlink:href="#DejaVuSans-95"/>
      <use x="799.556641" xlink:href="#DejaVuSans-80"/>
      <use x="859.859375" xlink:href="#DejaVuSans-77"/>
      <use x="946.138672" xlink:href="#DejaVuSans-49"/>
      <use x="1009.761719" xlink:href="#DejaVuSans-48"/>
     </g>
    </g>
   </g>
  </g>
 </g>
 <defs>
  <clipPath id="pdd2ce2a435">
   <rect height="391.68" width="669.6" x="108" y="69.12"/>
  </clipPath>
 </defs>
</svg>
