<?xml version="1.0" encoding="utf-8" standalone="no"?>
<!DOCTYPE svg PUBLIC "-//W3C//DTD SVG 1.1//EN"
  "http://www.w3.org/Graphics/SVG/1.1/DTD/svg11.dtd">
<!-- Created with matplotlib (https://matplotlib.org/) -->
<svg height="576pt" version="1.1" viewBox="0 0 864 576" width="864pt" xmlns="http://www.w3.org/2000/svg" xmlns:xlink="http://www.w3.org/1999/xlink">
 <metadata>
  <rdf:RDF xmlns:cc="http://creativecommons.org/ns#" xmlns:dc="http://purl.org/dc/elements/1.1/" xmlns:rdf="http://www.w3.org/1999/02/22-rdf-syntax-ns#">
   <cc:Work>
    <dc:type rdf:resource="http://purl.org/dc/dcmitype/StillImage"/>
    <dc:date>2024-03-08T20:14:26.944714</dc:date>
    <dc:format>image/svg+xml</dc:format>
    <dc:creator>
     <cc:Agent>
      <dc:title>Matplotlib v3.3.4, https://matplotlib.org/</dc:title>
     </cc:Agent>
    </dc:creator>
   </cc:Work>
  </rdf:RDF>
 </metadata>
 <defs>
  <style type="text/css">*{stroke-linecap:butt;stroke-linejoin:round;}</style>
 </defs>
 <g id="figure_1">
  <g id="patch_1">
   <path d="M 0 576 
L 864 576 
L 864 0 
L 0 0 
z
" style="fill:#ffffff;"/>
  </g>
  <g id="axes_1">
   <g id="patch_2">
    <path d="M 108 460.8 
L 777.6 460.8 
L 777.6 69.12 
L 108 69.12 
z
" style="fill:#ffffff;"/>
   </g>
   <g id="matplotlib.axis_1">
    <g id="xtick_1">
     <g id="line2d_1">
      <defs>
       <path d="M 0 0 
L 0 3.5 
" id="ma289b6f1c5" style="stroke:#000000;stroke-width:0.8;"/>
      </defs>
      <g>
       <use style="stroke:#000000;stroke-width:0.8;" x="136.761736" xlink:href="#ma289b6f1c5" y="460.8"/>
      </g>
     </g>
     <g id="text_1">
      <!-- 2020-01 -->
      <g transform="translate(92.091951 500.766215)rotate(-30)scale(0.12 -0.12)">
       <defs>
        <path d="M 19.1875 8.296875 
L 53.609375 8.296875 
L 53.609375 0 
L 7.328125 0 
L 7.328125 8.296875 
Q 12.9375 14.109375 22.625 23.890625 
Q 32.328125 33.6875 34.8125 36.53125 
Q 39.546875 41.84375 41.421875 45.53125 
Q 43.3125 49.21875 43.3125 52.78125 
Q 43.3125 58.59375 39.234375 62.25 
Q 35.15625 65.921875 28.609375 65.921875 
Q 23.96875 65.921875 18.8125 64.3125 
Q 13.671875 62.703125 7.8125 59.421875 
L 7.8125 69.390625 
Q 13.765625 71.78125 18.9375 73 
Q 24.125 74.21875 28.421875 74.21875 
Q 39.75 74.21875 46.484375 68.546875 
Q 53.21875 62.890625 53.21875 53.421875 
Q 53.21875 48.921875 51.53125 44.890625 
Q 49.859375 40.875 45.40625 35.40625 
Q 44.1875 33.984375 37.640625 27.21875 
Q 31.109375 20.453125 19.1875 8.296875 
z
" id="DejaVuSans-50"/>
        <path d="M 31.78125 66.40625 
Q 24.171875 66.40625 20.328125 58.90625 
Q 16.5 51.421875 16.5 36.375 
Q 16.5 21.390625 20.328125 13.890625 
Q 24.171875 6.390625 31.78125 6.390625 
Q 39.453125 6.390625 43.28125 13.890625 
Q 47.125 21.390625 47.125 36.375 
Q 47.125 51.421875 43.28125 58.90625 
Q 39.453125 66.40625 31.78125 66.40625 
z
M 31.78125 74.21875 
Q 44.046875 74.21875 50.515625 64.515625 
Q 56.984375 54.828125 56.984375 36.375 
Q 56.984375 17.96875 50.515625 8.265625 
Q 44.046875 -1.421875 31.78125 -1.421875 
Q 19.53125 -1.421875 13.0625 8.265625 
Q 6.59375 17.96875 6.59375 36.375 
Q 6.59375 54.828125 13.0625 64.515625 
Q 19.53125 74.21875 31.78125 74.21875 
z
" id="DejaVuSans-48"/>
        <path d="M 4.890625 31.390625 
L 31.203125 31.390625 
L 31.203125 23.390625 
L 4.890625 23.390625 
z
" id="DejaVuSans-45"/>
        <path d="M 12.40625 8.296875 
L 28.515625 8.296875 
L 28.515625 63.921875 
L 10.984375 60.40625 
L 10.984375 69.390625 
L 28.421875 72.90625 
L 38.28125 72.90625 
L 38.28125 8.296875 
L 54.390625 8.296875 
L 54.390625 0 
L 12.40625 0 
z
" id="DejaVuSans-49"/>
       </defs>
       <use xlink:href="#DejaVuSans-50"/>
       <use x="63.623047" xlink:href="#DejaVuSans-48"/>
       <use x="127.246094" xlink:href="#DejaVuSans-50"/>
       <use x="190.869141" xlink:href="#DejaVuSans-48"/>
       <use x="254.492188" xlink:href="#DejaVuSans-45"/>
       <use x="290.576172" xlink:href="#DejaVuSans-48"/>
       <use x="354.199219" xlink:href="#DejaVuSans-49"/>
      </g>
     </g>
    </g>
    <g id="xtick_2">
     <g id="line2d_2">
      <g>
       <use style="stroke:#000000;stroke-width:0.8;" x="212.957309" xlink:href="#ma289b6f1c5" y="460.8"/>
      </g>
     </g>
     <g id="text_2">
      <!-- 2020-04 -->
      <g transform="translate(168.287524 500.766215)rotate(-30)scale(0.12 -0.12)">
       <defs>
        <path d="M 37.796875 64.3125 
L 12.890625 25.390625 
L 37.796875 25.390625 
z
M 35.203125 72.90625 
L 47.609375 72.90625 
L 47.609375 25.390625 
L 58.015625 25.390625 
L 58.015625 17.1875 
L 47.609375 17.1875 
L 47.609375 0 
L 37.796875 0 
L 37.796875 17.1875 
L 4.890625 17.1875 
L 4.890625 26.703125 
z
" id="DejaVuSans-52"/>
       </defs>
       <use xlink:href="#DejaVuSans-50"/>
       <use x="63.623047" xlink:href="#DejaVuSans-48"/>
       <use x="127.246094" xlink:href="#DejaVuSans-50"/>
       <use x="190.869141" xlink:href="#DejaVuSans-48"/>
       <use x="254.492188" xlink:href="#DejaVuSans-45"/>
       <use x="290.576172" xlink:href="#DejaVuSans-48"/>
       <use x="354.199219" xlink:href="#DejaVuSans-52"/>
      </g>
     </g>
    </g>
    <g id="xtick_3">
     <g id="line2d_3">
      <g>
       <use style="stroke:#000000;stroke-width:0.8;" x="289.152882" xlink:href="#ma289b6f1c5" y="460.8"/>
      </g>
     </g>
     <g id="text_3">
      <!-- 2020-07 -->
      <g transform="translate(244.483097 500.766215)rotate(-30)scale(0.12 -0.12)">
       <defs>
        <path d="M 8.203125 72.90625 
L 55.078125 72.90625 
L 55.078125 68.703125 
L 28.609375 0 
L 18.3125 0 
L 43.21875 64.59375 
L 8.203125 64.59375 
z
" id="DejaVuSans-55"/>
       </defs>
       <use xlink:href="#DejaVuSans-50"/>
       <use x="63.623047" xlink:href="#DejaVuSans-48"/>
       <use x="127.246094" xlink:href="#DejaVuSans-50"/>
       <use x="190.869141" xlink:href="#DejaVuSans-48"/>
       <use x="254.492188" xlink:href="#DejaVuSans-45"/>
       <use x="290.576172" xlink:href="#DejaVuSans-48"/>
       <use x="354.199219" xlink:href="#DejaVuSans-55"/>
      </g>
     </g>
    </g>
    <g id="xtick_4">
     <g id="line2d_4">
      <g>
       <use style="stroke:#000000;stroke-width:0.8;" x="366.18577" xlink:href="#ma289b6f1c5" y="460.8"/>
      </g>
     </g>
     <g id="text_4">
      <!-- 2020-10 -->
      <g transform="translate(321.515985 500.766215)rotate(-30)scale(0.12 -0.12)">
       <use xlink:href="#DejaVuSans-50"/>
       <use x="63.623047" xlink:href="#DejaVuSans-48"/>
       <use x="127.246094" xlink:href="#DejaVuSans-50"/>
       <use x="190.869141" xlink:href="#DejaVuSans-48"/>
       <use x="254.492188" xlink:href="#DejaVuSans-45"/>
       <use x="290.576172" xlink:href="#DejaVuSans-49"/>
       <use x="354.199219" xlink:href="#DejaVuSans-48"/>
      </g>
     </g>
    </g>
    <g id="xtick_5">
     <g id="line2d_5">
      <g>
       <use style="stroke:#000000;stroke-width:0.8;" x="443.218657" xlink:href="#ma289b6f1c5" y="460.8"/>
      </g>
     </g>
     <g id="text_5">
      <!-- 2021-01 -->
      <g transform="translate(398.548872 500.766215)rotate(-30)scale(0.12 -0.12)">
       <use xlink:href="#DejaVuSans-50"/>
       <use x="63.623047" xlink:href="#DejaVuSans-48"/>
       <use x="127.246094" xlink:href="#DejaVuSans-50"/>
       <use x="190.869141" xlink:href="#DejaVuSans-49"/>
       <use x="254.492188" xlink:href="#DejaVuSans-45"/>
       <use x="290.576172" xlink:href="#DejaVuSans-48"/>
       <use x="354.199219" xlink:href="#DejaVuSans-49"/>
      </g>
     </g>
    </g>
    <g id="xtick_6">
     <g id="line2d_6">
      <g>
       <use style="stroke:#000000;stroke-width:0.8;" x="518.576916" xlink:href="#ma289b6f1c5" y="460.8"/>
      </g>
     </g>
     <g id="text_6">
      <!-- 2021-04 -->
      <g transform="translate(473.907131 500.766215)rotate(-30)scale(0.12 -0.12)">
       <use xlink:href="#DejaVuSans-50"/>
       <use x="63.623047" xlink:href="#DejaVuSans-48"/>
       <use x="127.246094" xlink:href="#DejaVuSans-50"/>
       <use x="190.869141" xlink:href="#DejaVuSans-49"/>
       <use x="254.492188" xlink:href="#DejaVuSans-45"/>
       <use x="290.576172" xlink:href="#DejaVuSans-48"/>
       <use x="354.199219" xlink:href="#DejaVuSans-52"/>
      </g>
     </g>
    </g>
    <g id="xtick_7">
     <g id="line2d_7">
      <g>
       <use style="stroke:#000000;stroke-width:0.8;" x="594.77249" xlink:href="#ma289b6f1c5" y="460.8"/>
      </g>
     </g>
     <g id="text_7">
      <!-- 2021-07 -->
      <g transform="translate(550.102705 500.766215)rotate(-30)scale(0.12 -0.12)">
       <use xlink:href="#DejaVuSans-50"/>
       <use x="63.623047" xlink:href="#DejaVuSans-48"/>
       <use x="127.246094" xlink:href="#DejaVuSans-50"/>
       <use x="190.869141" xlink:href="#DejaVuSans-49"/>
       <use x="254.492188" xlink:href="#DejaVuSans-45"/>
       <use x="290.576172" xlink:href="#DejaVuSans-48"/>
       <use x="354.199219" xlink:href="#DejaVuSans-55"/>
      </g>
     </g>
    </g>
    <g id="xtick_8">
     <g id="line2d_8">
      <g>
       <use style="stroke:#000000;stroke-width:0.8;" x="671.805377" xlink:href="#ma289b6f1c5" y="460.8"/>
      </g>
     </g>
     <g id="text_8">
      <!-- 2021-10 -->
      <g transform="translate(627.135592 500.766215)rotate(-30)scale(0.12 -0.12)">
       <use xlink:href="#DejaVuSans-50"/>
       <use x="63.623047" xlink:href="#DejaVuSans-48"/>
       <use x="127.246094" xlink:href="#DejaVuSans-50"/>
       <use x="190.869141" xlink:href="#DejaVuSans-49"/>
       <use x="254.492188" xlink:href="#DejaVuSans-45"/>
       <use x="290.576172" xlink:href="#DejaVuSans-49"/>
       <use x="354.199219" xlink:href="#DejaVuSans-48"/>
      </g>
     </g>
    </g>
    <g id="xtick_9">
     <g id="line2d_9">
      <g>
       <use style="stroke:#000000;stroke-width:0.8;" x="748.838264" xlink:href="#ma289b6f1c5" y="460.8"/>
      </g>
     </g>
     <g id="text_9">
      <!-- 2022-01 -->
      <g transform="translate(704.168479 500.766215)rotate(-30)scale(0.12 -0.12)">
       <use xlink:href="#DejaVuSans-50"/>
       <use x="63.623047" xlink:href="#DejaVuSans-48"/>
       <use x="127.246094" xlink:href="#DejaVuSans-50"/>
       <use x="190.869141" xlink:href="#DejaVuSans-50"/>
       <use x="254.492188" xlink:href="#DejaVuSans-45"/>
       <use x="290.576172" xlink:href="#DejaVuSans-48"/>
       <use x="354.199219" xlink:href="#DejaVuSans-49"/>
      </g>
     </g>
    </g>
    <g id="text_10">
     <!-- Date -->
     <g transform="translate(424.873828 518.325146)scale(0.15 -0.15)">
      <defs>
       <path d="M 19.671875 64.796875 
L 19.671875 8.109375 
L 31.59375 8.109375 
Q 46.6875 8.109375 53.6875 14.9375 
Q 60.6875 21.78125 60.6875 36.53125 
Q 60.6875 51.171875 53.6875 57.984375 
Q 46.6875 64.796875 31.59375 64.796875 
z
M 9.8125 72.90625 
L 30.078125 72.90625 
Q 51.265625 72.90625 61.171875 64.09375 
Q 71.09375 55.28125 71.09375 36.53125 
Q 71.09375 17.671875 61.125 8.828125 
Q 51.171875 0 30.078125 0 
L 9.8125 0 
z
" id="DejaVuSans-68"/>
       <path d="M 34.28125 27.484375 
Q 23.390625 27.484375 19.1875 25 
Q 14.984375 22.515625 14.984375 16.5 
Q 14.984375 11.71875 18.140625 8.90625 
Q 21.296875 6.109375 26.703125 6.109375 
Q 34.1875 6.109375 38.703125 11.40625 
Q 43.21875 16.703125 43.21875 25.484375 
L 43.21875 27.484375 
z
M 52.203125 31.203125 
L 52.203125 0 
L 43.21875 0 
L 43.21875 8.296875 
Q 40.140625 3.328125 35.546875 0.953125 
Q 30.953125 -1.421875 24.3125 -1.421875 
Q 15.921875 -1.421875 10.953125 3.296875 
Q 6 8.015625 6 15.921875 
Q 6 25.140625 12.171875 29.828125 
Q 18.359375 34.515625 30.609375 34.515625 
L 43.21875 34.515625 
L 43.21875 35.40625 
Q 43.21875 41.609375 39.140625 45 
Q 35.0625 48.390625 27.6875 48.390625 
Q 23 48.390625 18.546875 47.265625 
Q 14.109375 46.140625 10.015625 43.890625 
L 10.015625 52.203125 
Q 14.9375 54.109375 19.578125 55.046875 
Q 24.21875 56 28.609375 56 
Q 40.484375 56 46.34375 49.84375 
Q 52.203125 43.703125 52.203125 31.203125 
z
" id="DejaVuSans-97"/>
       <path d="M 18.3125 70.21875 
L 18.3125 54.6875 
L 36.8125 54.6875 
L 36.8125 47.703125 
L 18.3125 47.703125 
L 18.3125 18.015625 
Q 18.3125 11.328125 20.140625 9.421875 
Q 21.96875 7.515625 27.59375 7.515625 
L 36.8125 7.515625 
L 36.8125 0 
L 27.59375 0 
Q 17.1875 0 13.234375 3.875 
Q 9.28125 7.765625 9.28125 18.015625 
L 9.28125 47.703125 
L 2.6875 47.703125 
L 2.6875 54.6875 
L 9.28125 54.6875 
L 9.28125 70.21875 
z
" id="DejaVuSans-116"/>
       <path d="M 56.203125 29.59375 
L 56.203125 25.203125 
L 14.890625 25.203125 
Q 15.484375 15.921875 20.484375 11.0625 
Q 25.484375 6.203125 34.421875 6.203125 
Q 39.59375 6.203125 44.453125 7.46875 
Q 49.3125 8.734375 54.109375 11.28125 
L 54.109375 2.78125 
Q 49.265625 0.734375 44.1875 -0.34375 
Q 39.109375 -1.421875 33.890625 -1.421875 
Q 20.796875 -1.421875 13.15625 6.1875 
Q 5.515625 13.8125 5.515625 26.8125 
Q 5.515625 40.234375 12.765625 48.109375 
Q 20.015625 56 32.328125 56 
Q 43.359375 56 49.78125 48.890625 
Q 56.203125 41.796875 56.203125 29.59375 
z
M 47.21875 32.234375 
Q 47.125 39.59375 43.09375 43.984375 
Q 39.0625 48.390625 32.421875 48.390625 
Q 24.90625 48.390625 20.390625 44.140625 
Q 15.875 39.890625 15.1875 32.171875 
z
" id="DejaVuSans-101"/>
      </defs>
      <use xlink:href="#DejaVuSans-68"/>
      <use x="77.001953" xlink:href="#DejaVuSans-97"/>
      <use x="138.28125" xlink:href="#DejaVuSans-116"/>
      <use x="177.490234" xlink:href="#DejaVuSans-101"/>
     </g>
    </g>
   </g>
   <g id="matplotlib.axis_2">
    <g id="ytick_1">
     <g id="line2d_10">
      <defs>
       <path d="M 0 0 
L -3.5 0 
" id="m1a4a553373" style="stroke:#000000;stroke-width:0.8;"/>
      </defs>
      <g>
       <use style="stroke:#000000;stroke-width:0.8;" x="108" xlink:href="#m1a4a553373" y="423.27395"/>
      </g>
     </g>
     <g id="text_11">
      <!-- 20 -->
      <g transform="translate(85.73 427.833013)scale(0.12 -0.12)">
       <use xlink:href="#DejaVuSans-50"/>
       <use x="63.623047" xlink:href="#DejaVuSans-48"/>
      </g>
     </g>
    </g>
    <g id="ytick_2">
     <g id="line2d_11">
      <g>
       <use style="stroke:#000000;stroke-width:0.8;" x="108" xlink:href="#m1a4a553373" y="366.245285"/>
      </g>
     </g>
     <g id="text_12">
      <!-- 40 -->
      <g transform="translate(85.73 370.804348)scale(0.12 -0.12)">
       <use xlink:href="#DejaVuSans-52"/>
       <use x="63.623047" xlink:href="#DejaVuSans-48"/>
      </g>
     </g>
    </g>
    <g id="ytick_3">
     <g id="line2d_12">
      <g>
       <use style="stroke:#000000;stroke-width:0.8;" x="108" xlink:href="#m1a4a553373" y="309.21662"/>
      </g>
     </g>
     <g id="text_13">
      <!-- 60 -->
      <g transform="translate(85.73 313.775683)scale(0.12 -0.12)">
       <defs>
        <path d="M 33.015625 40.375 
Q 26.375 40.375 22.484375 35.828125 
Q 18.609375 31.296875 18.609375 23.390625 
Q 18.609375 15.53125 22.484375 10.953125 
Q 26.375 6.390625 33.015625 6.390625 
Q 39.65625 6.390625 43.53125 10.953125 
Q 47.40625 15.53125 47.40625 23.390625 
Q 47.40625 31.296875 43.53125 35.828125 
Q 39.65625 40.375 33.015625 40.375 
z
M 52.59375 71.296875 
L 52.59375 62.3125 
Q 48.875 64.0625 45.09375 64.984375 
Q 41.3125 65.921875 37.59375 65.921875 
Q 27.828125 65.921875 22.671875 59.328125 
Q 17.53125 52.734375 16.796875 39.40625 
Q 19.671875 43.65625 24.015625 45.921875 
Q 28.375 48.1875 33.59375 48.1875 
Q 44.578125 48.1875 50.953125 41.515625 
Q 57.328125 34.859375 57.328125 23.390625 
Q 57.328125 12.15625 50.6875 5.359375 
Q 44.046875 -1.421875 33.015625 -1.421875 
Q 20.359375 -1.421875 13.671875 8.265625 
Q 6.984375 17.96875 6.984375 36.375 
Q 6.984375 53.65625 15.1875 63.9375 
Q 23.390625 74.21875 37.203125 74.21875 
Q 40.921875 74.21875 44.703125 73.484375 
Q 48.484375 72.75 52.59375 71.296875 
z
" id="DejaVuSans-54"/>
       </defs>
       <use xlink:href="#DejaVuSans-54"/>
       <use x="63.623047" xlink:href="#DejaVuSans-48"/>
      </g>
     </g>
    </g>
    <g id="ytick_4">
     <g id="line2d_13">
      <g>
       <use style="stroke:#000000;stroke-width:0.8;" x="108" xlink:href="#m1a4a553373" y="252.187955"/>
      </g>
     </g>
     <g id="text_14">
      <!-- 80 -->
      <g transform="translate(85.73 256.747018)scale(0.12 -0.12)">
       <defs>
        <path d="M 31.78125 34.625 
Q 24.75 34.625 20.71875 30.859375 
Q 16.703125 27.09375 16.703125 20.515625 
Q 16.703125 13.921875 20.71875 10.15625 
Q 24.75 6.390625 31.78125 6.390625 
Q 38.8125 6.390625 42.859375 10.171875 
Q 46.921875 13.96875 46.921875 20.515625 
Q 46.921875 27.09375 42.890625 30.859375 
Q 38.875 34.625 31.78125 34.625 
z
M 21.921875 38.8125 
Q 15.578125 40.375 12.03125 44.71875 
Q 8.5 49.078125 8.5 55.328125 
Q 8.5 64.0625 14.71875 69.140625 
Q 20.953125 74.21875 31.78125 74.21875 
Q 42.671875 74.21875 48.875 69.140625 
Q 55.078125 64.0625 55.078125 55.328125 
Q 55.078125 49.078125 51.53125 44.71875 
Q 48 40.375 41.703125 38.8125 
Q 48.828125 37.15625 52.796875 32.3125 
Q 56.78125 27.484375 56.78125 20.515625 
Q 56.78125 9.90625 50.3125 4.234375 
Q 43.84375 -1.421875 31.78125 -1.421875 
Q 19.734375 -1.421875 13.25 4.234375 
Q 6.78125 9.90625 6.78125 20.515625 
Q 6.78125 27.484375 10.78125 32.3125 
Q 14.796875 37.15625 21.921875 38.8125 
z
M 18.3125 54.390625 
Q 18.3125 48.734375 21.84375 45.5625 
Q 25.390625 42.390625 31.78125 42.390625 
Q 38.140625 42.390625 41.71875 45.5625 
Q 45.3125 48.734375 45.3125 54.390625 
Q 45.3125 60.0625 41.71875 63.234375 
Q 38.140625 66.40625 31.78125 66.40625 
Q 25.390625 66.40625 21.84375 63.234375 
Q 18.3125 60.0625 18.3125 54.390625 
z
" id="DejaVuSans-56"/>
       </defs>
       <use xlink:href="#DejaVuSans-56"/>
       <use x="63.623047" xlink:href="#DejaVuSans-48"/>
      </g>
     </g>
    </g>
    <g id="ytick_5">
     <g id="line2d_14">
      <g>
       <use style="stroke:#000000;stroke-width:0.8;" x="108" xlink:href="#m1a4a553373" y="195.15929"/>
      </g>
     </g>
     <g id="text_15">
      <!-- 100 -->
      <g transform="translate(78.095 199.718353)scale(0.12 -0.12)">
       <use xlink:href="#DejaVuSans-49"/>
       <use x="63.623047" xlink:href="#DejaVuSans-48"/>
       <use x="127.246094" xlink:href="#DejaVuSans-48"/>
      </g>
     </g>
    </g>
    <g id="ytick_6">
     <g id="line2d_15">
      <g>
       <use style="stroke:#000000;stroke-width:0.8;" x="108" xlink:href="#m1a4a553373" y="138.130625"/>
      </g>
     </g>
     <g id="text_16">
      <!-- 120 -->
      <g transform="translate(78.095 142.689688)scale(0.12 -0.12)">
       <use xlink:href="#DejaVuSans-49"/>
       <use x="63.623047" xlink:href="#DejaVuSans-50"/>
       <use x="127.246094" xlink:href="#DejaVuSans-48"/>
      </g>
     </g>
    </g>
    <g id="ytick_7">
     <g id="line2d_16">
      <g>
       <use style="stroke:#000000;stroke-width:0.8;" x="108" xlink:href="#m1a4a553373" y="81.10196"/>
      </g>
     </g>
     <g id="text_17">
      <!-- 140 -->
      <g transform="translate(78.095 85.661023)scale(0.12 -0.12)">
       <use xlink:href="#DejaVuSans-49"/>
       <use x="63.623047" xlink:href="#DejaVuSans-52"/>
       <use x="127.246094" xlink:href="#DejaVuSans-48"/>
      </g>
     </g>
    </g>
    <g id="text_18">
     <!-- PM10(micro-gram/m3) -->
     <g transform="translate(70.975469 349.562344)rotate(-90)scale(0.15 -0.15)">
      <defs>
       <path d="M 19.671875 64.796875 
L 19.671875 37.40625 
L 32.078125 37.40625 
Q 38.96875 37.40625 42.71875 40.96875 
Q 46.484375 44.53125 46.484375 51.125 
Q 46.484375 57.671875 42.71875 61.234375 
Q 38.96875 64.796875 32.078125 64.796875 
z
M 9.8125 72.90625 
L 32.078125 72.90625 
Q 44.34375 72.90625 50.609375 67.359375 
Q 56.890625 61.8125 56.890625 51.125 
Q 56.890625 40.328125 50.609375 34.8125 
Q 44.34375 29.296875 32.078125 29.296875 
L 19.671875 29.296875 
L 19.671875 0 
L 9.8125 0 
z
" id="DejaVuSans-80"/>
       <path d="M 9.8125 72.90625 
L 24.515625 72.90625 
L 43.109375 23.296875 
L 61.8125 72.90625 
L 76.515625 72.90625 
L 76.515625 0 
L 66.890625 0 
L 66.890625 64.015625 
L 48.09375 14.015625 
L 38.1875 14.015625 
L 19.390625 64.015625 
L 19.390625 0 
L 9.8125 0 
z
" id="DejaVuSans-77"/>
       <path d="M 31 75.875 
Q 24.46875 64.65625 21.28125 53.65625 
Q 18.109375 42.671875 18.109375 31.390625 
Q 18.109375 20.125 21.3125 9.0625 
Q 24.515625 -2 31 -13.1875 
L 23.1875 -13.1875 
Q 15.875 -1.703125 12.234375 9.375 
Q 8.59375 20.453125 8.59375 31.390625 
Q 8.59375 42.28125 12.203125 53.3125 
Q 15.828125 64.359375 23.1875 75.875 
z
" id="DejaVuSans-40"/>
       <path d="M 52 44.1875 
Q 55.375 50.25 60.0625 53.125 
Q 64.75 56 71.09375 56 
Q 79.640625 56 84.28125 50.015625 
Q 88.921875 44.046875 88.921875 33.015625 
L 88.921875 0 
L 79.890625 0 
L 79.890625 32.71875 
Q 79.890625 40.578125 77.09375 44.375 
Q 74.3125 48.1875 68.609375 48.1875 
Q 61.625 48.1875 57.5625 43.546875 
Q 53.515625 38.921875 53.515625 30.90625 
L 53.515625 0 
L 44.484375 0 
L 44.484375 32.71875 
Q 44.484375 40.625 41.703125 44.40625 
Q 38.921875 48.1875 33.109375 48.1875 
Q 26.21875 48.1875 22.15625 43.53125 
Q 18.109375 38.875 18.109375 30.90625 
L 18.109375 0 
L 9.078125 0 
L 9.078125 54.6875 
L 18.109375 54.6875 
L 18.109375 46.1875 
Q 21.1875 51.21875 25.484375 53.609375 
Q 29.78125 56 35.6875 56 
Q 41.65625 56 45.828125 52.96875 
Q 50 49.953125 52 44.1875 
z
" id="DejaVuSans-109"/>
       <path d="M 9.421875 54.6875 
L 18.40625 54.6875 
L 18.40625 0 
L 9.421875 0 
z
M 9.421875 75.984375 
L 18.40625 75.984375 
L 18.40625 64.59375 
L 9.421875 64.59375 
z
" id="DejaVuSans-105"/>
       <path d="M 48.78125 52.59375 
L 48.78125 44.1875 
Q 44.96875 46.296875 41.140625 47.34375 
Q 37.3125 48.390625 33.40625 48.390625 
Q 24.65625 48.390625 19.8125 42.84375 
Q 14.984375 37.3125 14.984375 27.296875 
Q 14.984375 17.28125 19.8125 11.734375 
Q 24.65625 6.203125 33.40625 6.203125 
Q 37.3125 6.203125 41.140625 7.25 
Q 44.96875 8.296875 48.78125 10.40625 
L 48.78125 2.09375 
Q 45.015625 0.34375 40.984375 -0.53125 
Q 36.96875 -1.421875 32.421875 -1.421875 
Q 20.0625 -1.421875 12.78125 6.34375 
Q 5.515625 14.109375 5.515625 27.296875 
Q 5.515625 40.671875 12.859375 48.328125 
Q 20.21875 56 33.015625 56 
Q 37.15625 56 41.109375 55.140625 
Q 45.0625 54.296875 48.78125 52.59375 
z
" id="DejaVuSans-99"/>
       <path d="M 41.109375 46.296875 
Q 39.59375 47.171875 37.8125 47.578125 
Q 36.03125 48 33.890625 48 
Q 26.265625 48 22.1875 43.046875 
Q 18.109375 38.09375 18.109375 28.8125 
L 18.109375 0 
L 9.078125 0 
L 9.078125 54.6875 
L 18.109375 54.6875 
L 18.109375 46.1875 
Q 20.953125 51.171875 25.484375 53.578125 
Q 30.03125 56 36.53125 56 
Q 37.453125 56 38.578125 55.875 
Q 39.703125 55.765625 41.0625 55.515625 
z
" id="DejaVuSans-114"/>
       <path d="M 30.609375 48.390625 
Q 23.390625 48.390625 19.1875 42.75 
Q 14.984375 37.109375 14.984375 27.296875 
Q 14.984375 17.484375 19.15625 11.84375 
Q 23.34375 6.203125 30.609375 6.203125 
Q 37.796875 6.203125 41.984375 11.859375 
Q 46.1875 17.53125 46.1875 27.296875 
Q 46.1875 37.015625 41.984375 42.703125 
Q 37.796875 48.390625 30.609375 48.390625 
z
M 30.609375 56 
Q 42.328125 56 49.015625 48.375 
Q 55.71875 40.765625 55.71875 27.296875 
Q 55.71875 13.875 49.015625 6.21875 
Q 42.328125 -1.421875 30.609375 -1.421875 
Q 18.84375 -1.421875 12.171875 6.21875 
Q 5.515625 13.875 5.515625 27.296875 
Q 5.515625 40.765625 12.171875 48.375 
Q 18.84375 56 30.609375 56 
z
" id="DejaVuSans-111"/>
       <path d="M 45.40625 27.984375 
Q 45.40625 37.75 41.375 43.109375 
Q 37.359375 48.484375 30.078125 48.484375 
Q 22.859375 48.484375 18.828125 43.109375 
Q 14.796875 37.75 14.796875 27.984375 
Q 14.796875 18.265625 18.828125 12.890625 
Q 22.859375 7.515625 30.078125 7.515625 
Q 37.359375 7.515625 41.375 12.890625 
Q 45.40625 18.265625 45.40625 27.984375 
z
M 54.390625 6.78125 
Q 54.390625 -7.171875 48.1875 -13.984375 
Q 42 -20.796875 29.203125 -20.796875 
Q 24.46875 -20.796875 20.265625 -20.09375 
Q 16.0625 -19.390625 12.109375 -17.921875 
L 12.109375 -9.1875 
Q 16.0625 -11.328125 19.921875 -12.34375 
Q 23.78125 -13.375 27.78125 -13.375 
Q 36.625 -13.375 41.015625 -8.765625 
Q 45.40625 -4.15625 45.40625 5.171875 
L 45.40625 9.625 
Q 42.625 4.78125 38.28125 2.390625 
Q 33.9375 0 27.875 0 
Q 17.828125 0 11.671875 7.65625 
Q 5.515625 15.328125 5.515625 27.984375 
Q 5.515625 40.671875 11.671875 48.328125 
Q 17.828125 56 27.875 56 
Q 33.9375 56 38.28125 53.609375 
Q 42.625 51.21875 45.40625 46.390625 
L 45.40625 54.6875 
L 54.390625 54.6875 
z
" id="DejaVuSans-103"/>
       <path d="M 25.390625 72.90625 
L 33.6875 72.90625 
L 8.296875 -9.28125 
L 0 -9.28125 
z
" id="DejaVuSans-47"/>
       <path d="M 40.578125 39.3125 
Q 47.65625 37.796875 51.625 33 
Q 55.609375 28.21875 55.609375 21.1875 
Q 55.609375 10.40625 48.1875 4.484375 
Q 40.765625 -1.421875 27.09375 -1.421875 
Q 22.515625 -1.421875 17.65625 -0.515625 
Q 12.796875 0.390625 7.625 2.203125 
L 7.625 11.71875 
Q 11.71875 9.328125 16.59375 8.109375 
Q 21.484375 6.890625 26.8125 6.890625 
Q 36.078125 6.890625 40.9375 10.546875 
Q 45.796875 14.203125 45.796875 21.1875 
Q 45.796875 27.640625 41.28125 31.265625 
Q 36.765625 34.90625 28.71875 34.90625 
L 20.21875 34.90625 
L 20.21875 43.015625 
L 29.109375 43.015625 
Q 36.375 43.015625 40.234375 45.921875 
Q 44.09375 48.828125 44.09375 54.296875 
Q 44.09375 59.90625 40.109375 62.90625 
Q 36.140625 65.921875 28.71875 65.921875 
Q 24.65625 65.921875 20.015625 65.03125 
Q 15.375 64.15625 9.8125 62.3125 
L 9.8125 71.09375 
Q 15.4375 72.65625 20.34375 73.4375 
Q 25.25 74.21875 29.59375 74.21875 
Q 40.828125 74.21875 47.359375 69.109375 
Q 53.90625 64.015625 53.90625 55.328125 
Q 53.90625 49.265625 50.4375 45.09375 
Q 46.96875 40.921875 40.578125 39.3125 
z
" id="DejaVuSans-51"/>
       <path d="M 8.015625 75.875 
L 15.828125 75.875 
Q 23.140625 64.359375 26.78125 53.3125 
Q 30.421875 42.28125 30.421875 31.390625 
Q 30.421875 20.453125 26.78125 9.375 
Q 23.140625 -1.703125 15.828125 -13.1875 
L 8.015625 -13.1875 
Q 14.5 -2 17.703125 9.0625 
Q 20.90625 20.125 20.90625 31.390625 
Q 20.90625 42.671875 17.703125 53.65625 
Q 14.5 64.65625 8.015625 75.875 
z
" id="DejaVuSans-41"/>
      </defs>
      <use xlink:href="#DejaVuSans-80"/>
      <use x="60.302734" xlink:href="#DejaVuSans-77"/>
      <use x="146.582031" xlink:href="#DejaVuSans-49"/>
      <use x="210.205078" xlink:href="#DejaVuSans-48"/>
      <use x="273.828125" xlink:href="#DejaVuSans-40"/>
      <use x="312.841797" xlink:href="#DejaVuSans-109"/>
      <use x="410.253906" xlink:href="#DejaVuSans-105"/>
      <use x="438.037109" xlink:href="#DejaVuSans-99"/>
      <use x="493.017578" xlink:href="#DejaVuSans-114"/>
      <use x="531.880859" xlink:href="#DejaVuSans-111"/>
      <use x="594.9375" xlink:href="#DejaVuSans-45"/>
      <use x="631.021484" xlink:href="#DejaVuSans-103"/>
      <use x="694.498047" xlink:href="#DejaVuSans-114"/>
      <use x="735.611328" xlink:href="#DejaVuSans-97"/>
      <use x="796.890625" xlink:href="#DejaVuSans-109"/>
      <use x="894.302734" xlink:href="#DejaVuSans-47"/>
      <use x="927.994141" xlink:href="#DejaVuSans-109"/>
      <use x="1025.40625" xlink:href="#DejaVuSans-51"/>
      <use x="1089.029297" xlink:href="#DejaVuSans-41"/>
     </g>
    </g>
   </g>
   <g id="line2d_17">
    <path clip-path="url(#p8562227534)" d="M 138.436364 294.127786 
L 139.273678 353.057406 
L 140.110992 349.493115 
L 140.948306 312.543292 
L 141.78562 293.652547 
L 142.622934 315.513535 
L 143.460248 314.563058 
L 144.297562 277.019186 
L 145.134876 309.45424 
L 145.97219 293.533737 
L 146.809504 323.592596 
L 147.646818 296.819084 
L 148.484132 296.147551 
L 149.321446 338.087382 
L 150.15876 335.354758 
L 150.996074 297.573268 
L 151.833388 340.938815 
L 152.670702 303.513754 
L 153.508016 317.533301 
L 154.345329 338.087382 
L 155.182643 369.928387 
L 156.019957 378.126257 
L 156.857271 413.175124 
L 157.694585 419.35323 
L 158.531899 409.373213 
L 159.369213 373.373868 
L 160.206527 363.393852 
L 161.043841 360.423609 
L 161.881155 342.602151 
L 162.718469 333.097374 
L 163.555783 338.443811 
L 164.393097 395.947715 
L 165.230411 387.890256 
L 166.067725 359.116702 
L 166.905039 344.027868 
L 167.742353 419.828468 
L 168.579667 398.323909 
L 169.416981 372.77982 
L 171.091609 331.196418 
L 171.928923 393.215091 
L 172.766237 392.502233 
L 173.603551 373.373868 
L 174.440865 430.640153 
L 175.278179 395.591286 
L 176.115493 393.463512 
L 176.952807 366.720524 
L 177.790121 364.938378 
L 178.627435 368.740289 
L 179.464749 324.899503 
L 180.302063 329.889511 
L 181.139377 304.93947 
L 181.976691 322.523309 
L 182.814005 363.264241 
L 183.651319 379.314354 
L 184.488633 359.710751 
L 185.325947 367.195763 
L 186.163261 357.572176 
L 187.000575 366.364095 
L 187.837889 357.809795 
L 188.675203 399.470681 
L 189.512517 407.353448 
L 190.349831 361.136467 
L 191.187145 300.305891 
L 192.024459 364.10671 
L 192.861773 370.641245 
L 193.699087 374.918395 
L 194.536401 352.463358 
L 195.373715 272.742037 
L 196.211029 262.286781 
L 197.048343 370.522435 
L 197.885657 296.147551 
L 198.722971 283.672531 
L 199.560285 284.421549 
L 200.397599 311.236385 
L 201.234913 362.205755 
L 202.072227 305.652329 
L 202.909541 299.949462 
L 203.746855 336.305236 
L 204.584169 352.700977 
L 205.421483 337.235051 
L 206.258797 344.740726 
L 207.096111 347.23573 
L 207.933425 366.364095 
L 208.770739 360.18599 
L 209.608053 365.175998 
L 210.445367 376.106492 
L 211.282681 365.175998 
L 212.119995 330.958799 
L 212.957309 305.414709 
L 213.794623 372.77982 
L 214.631937 385.25484 
L 215.469251 408.066306 
L 216.306565 402.601059 
L 217.143879 359.798567 
L 217.981193 311.236385 
L 218.818507 346.285253 
L 219.655821 335.235949 
L 220.493135 285.098247 
L 221.330449 370.760055 
L 222.167763 346.285253 
L 223.842391 254.682959 
L 224.679705 330.958799 
L 225.517019 358.522654 
L 226.354333 330.127131 
L 228.028961 352.23607 
L 228.866275 381.21531 
L 229.703589 397.84867 
L 230.540903 381.0965 
L 231.378217 353.651455 
L 232.215531 304.701851 
L 233.052845 179.951646 
L 233.890159 220.228141 
L 234.727473 301.375179 
L 236.402101 326.562839 
L 237.239415 372.568029 
L 238.076729 343.31501 
L 238.914043 354.720743 
L 239.751357 372.66101 
L 240.588671 370.460447 
L 241.425985 374.086727 
L 242.263299 385.136031 
L 243.100613 379.551974 
L 243.937927 367.433382 
L 244.775241 387.274606 
L 245.612555 373.492678 
L 246.449869 338.087382 
L 247.287183 294.127786 
L 249.799125 402.24463 
L 250.636439 391.314136 
L 251.473753 384.304363 
L 252.311067 383.472695 
L 253.148381 392.280111 
L 253.985695 350.128489 
L 254.823009 356.027649 
L 255.660323 414.363221 
L 256.497637 408.066306 
L 257.334951 412.224646 
L 258.172265 365.501433 
L 259.009579 334.76071 
L 259.846893 324.067835 
L 260.684207 375.156014 
L 261.521521 411.868217 
L 262.358835 392.502233 
L 263.196149 378.720306 
L 264.033463 394.015766 
L 264.870777 377.888638 
L 265.708091 379.014747 
L 266.545405 370.284816 
L 267.382719 407.472258 
L 268.220033 381.809358 
L 269.057347 375.987682 
L 269.89466 351.869309 
L 270.731974 378.482686 
L 271.569288 381.494254 
L 272.406602 412.818695 
L 273.243916 405.690112 
L 274.08123 412.462266 
L 274.918544 377.294589 
L 275.755858 412.38666 
L 276.593172 389.76961 
L 277.430486 388.937942 
L 278.2678 383.947933 
L 279.105114 380.858881 
L 279.942428 394.521998 
L 280.779742 367.314573 
L 281.617056 364.26168 
L 282.45437 349.493115 
L 283.291684 380.502452 
L 284.128998 368.265051 
L 284.966312 385.136031 
L 285.803626 406.046541 
L 286.64094 406.284161 
L 287.478254 395.710096 
L 288.315568 427.194671 
L 289.152882 389.924579 
L 289.990196 384.779601 
L 290.82751 373.373868 
L 291.664824 394.640808 
L 292.502138 379.195545 
L 293.339452 366.126476 
L 294.176766 344.027868 
L 295.01408 340.344767 
L 295.851394 356.978127 
L 296.688708 352.344548 
L 297.526022 399.868436 
L 298.363336 369.571957 
L 299.20065 349.849544 
L 300.037964 338.91905 
L 300.875278 355.583404 
L 301.712592 360.780038 
L 302.549906 369.571957 
L 303.38722 386.442937 
L 304.224534 372.568029 
L 305.061848 419.709659 
L 305.899162 417.927513 
L 306.736476 407.947497 
L 307.57379 367.314573 
L 308.411104 346.166443 
L 309.248418 360.06718 
L 310.085732 361.611706 
L 310.923046 367.671002 
L 311.76036 408.779165 
L 312.597674 414.843626 
L 313.434988 407.709877 
L 314.272302 409.535226 
L 315.109616 432.217082 
L 315.94693 438.956833 
L 316.784244 426.719432 
L 317.621558 409.135594 
L 318.458872 415.788938 
L 319.296186 405.808922 
L 320.1335 419.709659 
L 320.970814 407.709877 
L 321.808128 364.10671 
L 322.645442 377.413399 
L 323.482756 412.983996 
L 324.32007 412.818695 
L 325.157384 401.826213 
L 325.994698 366.958144 
L 326.832012 420.422517 
L 327.669326 408.541545 
L 328.50664 385.136031 
L 329.343954 413.412744 
L 330.181268 404.858444 
L 331.018582 350.562402 
L 331.855896 339.631908 
L 332.69321 377.175779 
L 333.530524 329.533082 
L 334.367838 366.381068 
L 335.205152 335.235949 
L 336.042466 355.087503 
L 336.87978 310.404717 
L 337.717094 324.424264 
L 338.554408 334.285471 
L 339.391722 359.591941 
L 340.229036 213.337177 
L 342.740978 304.93947 
L 343.578292 390.482468 
L 344.415606 389.175561 
L 345.25292 413.056314 
L 346.090234 426.719432 
L 347.764862 305.023336 
L 348.602176 320.978782 
L 349.43949 385.730079 
L 351.114118 400.818913 
L 351.951432 415.07608 
L 352.788746 413.293934 
L 353.62606 407.709877 
L 354.463374 418.521562 
L 355.300688 405.333683 
L 356.138002 425.768954 
L 356.975316 424.818477 
L 357.81263 381.928168 
L 358.649944 383.47786 
L 360.324572 338.80024 
L 361.161886 353.532645 
L 361.9992 364.46314 
L 362.836514 371.591723 
L 363.673828 408.066306 
L 364.511142 409.610833 
L 366.18577 352.819787 
L 367.023084 361.017658 
L 367.860398 333.097374 
L 368.697712 343.1962 
L 369.535026 324.424264 
L 370.37234 344.301647 
L 371.209654 330.721179 
L 372.046968 288.662539 
L 372.884282 258.009631 
L 373.721596 278.801332 
L 374.55891 282.722053 
L 375.396224 392.383423 
L 376.233538 352.938597 
L 377.070852 348.780257 
L 377.908166 311.949244 
L 378.74548 311.236385 
L 379.582794 317.77092 
L 380.420108 323.117357 
L 381.257422 313.803709 
L 382.094736 307.909713 
L 382.93205 295.553503 
L 383.769364 246.12866 
L 384.606678 224.98053 
L 385.443991 249.692951 
L 386.281305 294.484215 
L 387.118619 307.909713 
L 387.955933 330.721179 
L 388.793247 325.018313 
L 389.630561 291.632782 
L 390.467875 298.286126 
L 391.305189 297.335648 
L 392.142503 223.911242 
L 392.979817 303.394944 
L 393.817131 261.573923 
L 394.654445 312.43998 
L 395.491759 157.971848 
L 396.329073 230.326967 
L 397.166387 214.406465 
L 398.003701 201.218586 
L 398.841015 196.109768 
L 399.678329 251.712716 
L 400.515643 283.553721 
L 401.352957 274.642992 
L 402.190271 278.563713 
L 403.027585 308.622572 
L 403.864899 312.780912 
L 404.702213 360.542419 
L 405.539527 372.939955 
L 406.376841 378.482686 
L 407.214155 381.571739 
L 408.051469 372.77982 
L 408.888783 381.928168 
L 409.726097 313.61258 
L 410.563411 265.375834 
L 411.400725 297.810887 
L 412.238039 287.830871 
L 413.075353 279.87062 
L 414.749981 319.553066 
L 415.587295 309.21662 
L 416.424609 293.058498 
L 417.261923 282.840863 
L 418.099237 297.314986 
L 418.936551 290.444685 
L 419.773865 255.752247 
L 421.448493 154.850393 
L 422.285807 228.782441 
L 423.123121 211.792651 
L 423.960435 187.674278 
L 424.797749 225.336959 
L 425.635063 205.697196 
L 426.472377 339.982084 
L 427.309691 276.306328 
L 428.147005 341.182688 
L 428.984319 315.539364 
L 429.821633 261.573923 
L 430.658947 298.761365 
L 431.496261 282.840863 
L 432.333575 249.217712 
L 433.170889 220.346951 
L 434.008203 195.753339 
L 434.845517 164.625192 
L 435.682831 277.375616 
L 436.520145 245.296992 
L 437.357459 288.424919 
L 438.194773 183.397128 
L 439.032087 265.851073 
L 439.869401 293.223799 
L 440.706715 231.039825 
L 441.544029 296.266361 
L 442.381343 313.61258 
L 443.218657 313.49377 
L 444.055971 259.910587 
L 444.893285 242.683178 
L 445.730599 165.338051 
L 446.567913 254.920579 
L 447.405227 204.545258 
L 448.242541 288.781349 
L 449.079855 302.088037 
L 449.917169 283.79134 
L 450.754483 289.494207 
L 451.591797 228.426011 
L 452.429111 179.357598 
L 453.266425 150.404186 
L 454.103739 210.248124 
L 454.941053 222.247906 
L 455.778367 86.923636 
L 456.615681 145.140399 
L 458.290309 282.484434 
L 459.127623 207.040262 
L 459.964937 242.326749 
L 460.802251 218.618809 
L 461.639565 251.118668 
L 462.476879 306.959236 
L 463.314193 259.078919 
L 464.151507 272.395939 
L 464.988821 266.941023 
L 465.826135 318.008539 
L 466.663449 238.168408 
L 467.500763 338.562621 
L 468.338077 327.038078 
L 469.175391 279.395381 
L 470.012705 283.434911 
L 470.850019 294.365405 
L 471.687333 319.315446 
L 472.524647 313.37496 
L 473.361961 314.444248 
L 474.199275 314.800677 
L 475.036589 299.918468 
L 475.873903 412.937505 
L 476.711217 409.016784 
L 477.548531 387.631035 
L 478.385845 373.492678 
L 479.223159 365.413617 
L 480.060473 344.978346 
L 480.897787 341.889293 
L 481.735101 368.027431 
L 482.572415 324.543074 
L 483.409729 315.869965 
L 484.247043 321.335212 
L 485.084357 324.424264 
L 485.921671 337.493333 
L 486.758985 335.829997 
L 487.596299 335.829997 
L 488.433613 370.088521 
L 489.270927 383.235075 
L 490.108241 346.166443 
L 490.945555 347.829779 
L 491.782869 345.928823 
L 492.620183 359.710751 
L 493.457497 347.592159 
L 494.294811 307.315665 
L 495.132125 296.147551 
L 495.969439 301.731608 
L 496.806753 354.245504 
L 497.644067 368.848768 
L 498.481381 321.118255 
L 499.318695 334.76071 
L 500.156009 367.908621 
L 500.993322 325.255932 
L 501.830636 330.24594 
L 502.66795 324.61436 
L 503.505264 358.760273 
L 504.342578 338.562621 
L 505.179892 355.077172 
L 506.017206 363.275042 
L 506.85452 380.740071 
L 507.691834 371.948152 
L 508.529148 278.326093 
L 509.366462 269.415364 
L 510.203776 141.219678 
L 511.04109 95.483102 
L 511.878404 189.586034 
L 512.715718 333.097374 
L 513.553032 330.839989 
L 514.390346 265.732263 
L 515.22766 334.285471 
L 516.064974 339.750718 
L 516.902288 334.166661 
L 518.576916 369.571957 
L 519.41423 370.166006 
L 520.251544 287.118013 
L 521.088858 324.899503 
L 521.926172 296.86041 
L 522.763486 332.028086 
L 523.6008 311.830434 
L 524.438114 366.493236 
L 525.275428 324.224164 
L 526.112742 355.195981 
L 526.950056 368.62148 
L 527.78737 350.443593 
L 528.624684 354.245504 
L 529.461998 356.146459 
L 530.299312 354.720743 
L 531.136626 349.374305 
L 531.97394 129.695135 
L 532.811254 192.679783 
L 533.648568 295.078264 
L 534.485882 291.395162 
L 535.323196 277.137996 
L 536.16051 282.128004 
L 536.997824 349.255495 
L 537.835138 352.106929 
L 538.672452 361.968135 
L 539.509766 399.274387 
L 540.34708 360.661229 
L 541.184394 294.484215 
L 542.021708 301.01875 
L 542.859022 352.582168 
L 543.696336 368.027431 
L 544.53365 357.809795 
L 545.370964 364.46314 
L 546.208278 344.859536 
L 547.045592 306.241212 
L 547.882906 327.750936 
L 548.72022 326.919268 
L 549.557534 365.413617 
L 550.394848 385.611269 
L 551.232162 386.442937 
L 552.069476 378.839115 
L 552.90679 359.054714 
L 553.744104 371.591723 
L 554.581418 388.700322 
L 555.418732 397.135812 
L 556.256046 398.917958 
L 557.09336 395.828905 
L 557.930674 391.789375 
L 558.767988 396.962998 
L 559.605302 406.046541 
L 560.442616 417.214655 
L 561.27993 434.560874 
L 562.117244 422.442282 
L 562.954558 430.164914 
L 563.791872 413.887983 
L 564.629186 409.254403 
L 565.4665 408.185116 
L 566.303814 399.987245 
L 567.141128 384.541982 
L 567.978442 382.522217 
L 568.815756 429.214436 
L 569.65307 404.739634 
L 570.490384 406.537277 
L 571.327698 392.264614 
L 572.165012 344.859536 
L 573.002326 310.048288 
L 573.83964 373.967917 
L 574.676954 394.759618 
L 575.514268 425.768954 
L 576.351582 422.323473 
L 577.188896 415.07608 
L 578.02621 410.204881 
L 578.863524 417.808703 
L 579.700838 406.40297 
L 580.538152 393.215091 
L 581.375466 385.730079 
L 582.21278 385.848889 
L 583.050094 385.213515 
L 584.724722 369.928387 
L 585.562036 358.047415 
L 586.39935 409.140759 
L 587.236664 420.422517 
L 588.073978 420.778946 
L 588.911292 407.115829 
L 589.748606 379.314354 
L 590.58592 367.361064 
L 591.423234 384.304363 
L 592.260548 371.948152 
L 593.097862 367.908621 
L 593.935176 372.89863 
L 594.77249 372.89863 
L 595.609804 380.858881 
L 597.284432 422.561092 
L 598.121746 423.155141 
L 598.95906 410.323691 
L 599.796374 419.35323 
L 600.633688 418.402752 
L 601.471002 435.154922 
L 602.308316 427.43229 
L 603.14563 429.927295 
L 603.982944 419.11561 
L 604.820258 418.521562 
L 605.657572 433.383577 
L 607.3322 394.139741 
L 608.169514 429.570865 
L 609.006828 441.808266 
L 609.844142 433.729206 
L 610.681456 421.491805 
L 611.51877 406.046541 
L 612.356084 360.18599 
L 613.193398 343.909058 
L 614.030712 367.671002 
L 614.868026 397.135812 
L 615.70534 333.334993 
L 616.542653 374.680775 
L 617.379967 404.739634 
L 618.217281 418.759181 
L 619.054595 399.630816 
L 619.891909 409.729642 
L 620.729223 387.393415 
L 621.566537 430.402533 
L 622.403851 371.354103 
L 623.241165 378.126257 
L 624.078479 374.324346 
L 624.915793 361.017658 
L 625.753107 371.948152 
L 626.590421 392.739853 
L 627.427735 382.878646 
L 628.265049 410.442501 
L 629.102363 415.108482 
L 629.939677 402.719869 
L 630.776991 413.887983 
L 631.614305 427.075861 
L 632.451619 422.323473 
L 633.288933 387.631035 
L 634.126247 392.264614 
L 634.963561 409.373213 
L 635.800875 409.254403 
L 636.638189 419.709659 
L 637.475503 420.660137 
L 638.312817 421.848234 
L 639.150131 421.610614 
L 639.987445 426.125384 
L 640.824759 436.461829 
L 641.662073 418.9968 
L 642.499387 416.977035 
L 643.336701 427.907529 
L 644.174015 421.135375 
L 645.011329 408.779165 
L 645.848643 430.164914 
L 646.685957 438.243975 
L 647.523271 438.362785 
L 648.360585 441.214218 
L 649.197899 442.996364 
L 650.035213 425.412525 
L 650.872527 411.868217 
L 651.709841 418.877991 
L 652.547155 377.05697 
L 653.384469 391.551755 
L 654.221783 380.502452 
L 655.059097 359.354322 
L 656.733725 417.214655 
L 657.571039 392.739853 
L 658.408353 394.640808 
L 659.245667 362.562184 
L 660.082981 374.918395 
L 660.920295 437.412307 
L 661.757609 426.957052 
L 662.594923 427.907529 
L 663.432237 438.838023 
L 664.269551 433.124356 
L 665.944179 383.829124 
L 667.618807 336.067617 
L 668.456121 334.404281 
L 669.293435 335.592378 
L 670.130749 324.543074 
L 670.968063 336.424046 
L 671.805377 383.353885 
L 672.642691 409.254403 
L 673.480005 372.423391 
L 674.317319 359.473131 
L 675.154633 338.91905 
L 676.829261 431.439418 
L 677.666575 397.492241 
L 678.503889 416.620606 
L 679.341203 346.674084 
L 680.178517 374.799585 
L 681.015831 408.422735 
L 681.853145 395.591286 
L 682.690459 371.116484 
L 683.527773 379.670784 
L 684.365087 389.76961 
L 685.202401 346.879301 
L 686.039715 319.715079 
L 686.877029 362.918613 
L 687.714343 385.848889 
L 688.551657 397.729861 
L 689.388971 339.394289 
L 690.226285 367.956145 
L 691.063599 334.440837 
L 691.900913 291.513972 
L 692.738227 299.593033 
L 693.575541 318.364969 
L 694.412855 324.543074 
L 695.250169 314.919487 
L 696.087483 311.949244 
L 696.924797 298.642555 
L 697.762111 344.859536 
L 698.599425 309.33543 
L 699.436739 338.35083 
L 700.274053 356.859317 
L 701.111367 379.433164 
L 701.948681 385.25484 
L 702.785995 383.235075 
L 703.623309 339.750718 
L 704.460623 317.332238 
L 705.297937 321.691641 
L 706.135251 292.820879 
L 706.972565 309.097811 
L 707.809879 329.533082 
L 708.647193 317.176871 
L 709.484507 249.584473 
L 710.321821 228.544821 
L 711.159135 314.563058 
L 711.996449 288.662539 
L 712.833763 345.097155 
L 713.671077 340.582386 
L 714.508391 378.363877 
L 715.345705 303.988993 
L 716.183019 247.079137 
L 717.020333 220.46576 
L 717.857647 263.237259 
L 718.694961 284.02896 
L 719.532275 253.732482 
L 720.369589 267.395599 
L 721.206903 256.940344 
L 722.044217 298.048507 
L 722.881531 299.174616 
L 723.718845 320.978782 
L 724.556159 333.453803 
L 725.393473 265.969883 
L 726.230787 287.830871 
L 727.068101 281.890385 
L 727.905415 309.573049 
L 728.742729 291.038733 
L 730.417357 328.582604 
L 731.254671 253.732482 
L 732.091984 209.772886 
L 732.929298 233.591651 
L 733.766612 329.176653 
L 734.603926 333.929042 
L 735.44124 335.592378 
L 736.278554 268.346077 
L 737.115868 260.979874 
L 737.953182 321.097592 
L 738.790496 411.036549 
L 740.465124 302.919705 
L 741.302438 197.535485 
L 742.139752 284.623008 
L 742.977066 323.711406 
L 743.81438 368.977909 
L 745.489008 221.772667 
L 746.326322 299.794493 
L 747.163636 288.543729 
L 747.163636 288.543729 
" style="fill:none;stroke:#1f77b4;stroke-linecap:square;stroke-width:1.5;"/>
   </g>
   <g id="line2d_18">
    <path clip-path="url(#p8562227534)" d="M 138.436364 272.24534 
L 139.273678 300.122825 
L 140.110992 323.66327 
L 140.948306 271.383636 
L 141.78562 276.882444 
L 142.622934 278.096878 
L 143.460248 268.090691 
L 144.297562 266.138184 
L 145.134876 304.09219 
L 145.97219 303.118971 
L 146.809504 341.679748 
L 147.646818 306.738346 
L 148.484132 337.256483 
L 149.321446 289.639101 
L 150.15876 331.329814 
L 150.996074 280.63748 
L 151.833388 292.576008 
L 152.670702 271.788709 
L 153.508016 258.595653 
L 154.345329 323.081005 
L 155.182643 295.17067 
L 156.019957 382.846674 
L 156.857271 360.807924 
L 157.694585 325.926521 
L 158.531899 326.209855 
L 159.369213 333.593751 
L 160.206527 282.870797 
L 161.043841 325.159407 
L 161.881155 329.319059 
L 162.718469 338.655365 
L 163.555783 310.912759 
L 164.393097 342.6478 
L 166.067725 308.822686 
L 166.905039 284.535337 
L 167.742353 322.691085 
L 168.579667 301.867194 
L 169.416981 326.90619 
L 170.254295 274.847704 
L 171.091609 281.591533 
L 171.928923 318.662809 
L 172.766237 318.858307 
L 173.603551 331.275036 
L 174.440865 322.955404 
L 175.278179 330.242438 
L 176.115493 339.994726 
L 176.952807 322.791461 
L 177.790121 371.005118 
L 178.627435 293.842393 
L 179.464749 372.211199 
L 180.302063 249.874342 
L 181.139377 260.859687 
L 182.814005 332.906193 
L 183.651319 285.322814 
L 184.488633 322.040913 
L 185.325947 337.907568 
L 186.163261 306.117945 
L 187.000575 341.495116 
L 187.837889 329.279303 
L 188.675203 322.142474 
L 189.512517 348.590686 
L 190.349831 328.531854 
L 191.187145 289.489711 
L 192.024459 282.544085 
L 192.861773 321.238327 
L 193.699087 326.644818 
L 194.536401 325.011812 
L 195.373715 275.134279 
L 197.048343 309.74192 
L 197.885657 283.464374 
L 198.722971 279.359652 
L 199.560285 228.232779 
L 200.397599 271.617369 
L 201.234913 306.799531 
L 202.072227 301.258345 
L 202.909541 285.532464 
L 203.746855 291.623174 
L 204.584169 320.812642 
L 205.421483 285.688445 
L 206.258797 349.291514 
L 207.096111 312.970102 
L 207.933425 308.610251 
L 208.770739 328.059244 
L 210.445367 311.085926 
L 211.282681 312.670485 
L 212.119995 319.67375 
L 212.957309 254.778571 
L 213.794623 316.006559 
L 214.631937 326.130276 
L 215.469251 343.809142 
L 216.306565 294.229279 
L 217.143879 322.334949 
L 217.981193 285.880583 
L 218.818507 306.812322 
L 219.655821 300.589964 
L 220.493135 361.773289 
L 221.330449 376.264819 
L 222.167763 331.508932 
L 223.005077 274.101844 
L 223.842391 327.273127 
L 224.679705 341.603596 
L 225.517019 391.704647 
L 226.354333 352.043615 
L 228.028961 282.706527 
L 228.866275 378.757224 
L 229.703589 379.779967 
L 230.540903 343.512234 
L 231.378217 298.85681 
L 232.215531 298.446266 
L 233.052845 245.715842 
L 233.890159 231.76855 
L 234.727473 313.724109 
L 235.564787 276.909898 
L 236.402101 368.548717 
L 237.239415 348.855343 
L 238.076729 310.882041 
L 238.914043 336.231945 
L 239.751357 374.041488 
L 240.588671 346.440081 
L 241.425985 379.526035 
L 242.263299 376.093153 
L 243.100613 335.635985 
L 243.937927 341.58952 
L 244.775241 342.94523 
L 245.612555 318.911824 
L 246.449869 398.187926 
L 247.287183 321.263432 
L 248.124497 280.085607 
L 248.961811 377.739995 
L 249.799125 389.170686 
L 250.636439 338.205195 
L 251.473753 370.57618 
L 252.311067 344.298493 
L 253.148381 367.904952 
L 253.985695 335.707623 
L 254.823009 364.452349 
L 255.660323 339.941046 
L 256.497637 340.729154 
L 257.334951 349.964746 
L 258.172265 352.05062 
L 259.009579 301.236493 
L 259.846893 289.889606 
L 260.684207 313.04224 
L 261.521521 351.142579 
L 262.358835 367.09869 
L 263.196149 351.452888 
L 264.033463 294.553315 
L 264.870777 342.852349 
L 265.708091 340.265083 
L 266.545405 332.433551 
L 267.382719 371.417663 
L 268.220033 360.337663 
L 269.057347 315.639383 
L 269.89466 314.439219 
L 270.731974 286.028798 
L 271.569288 352.112774 
L 272.406602 406.848661 
L 273.243916 380.901912 
L 274.08123 370.593725 
L 274.918544 341.316836 
L 275.755858 360.358613 
L 276.593172 393.37164 
L 277.430486 379.056111 
L 278.2678 376.100082 
L 279.105114 356.037823 
L 279.942428 397.878324 
L 280.779742 363.419697 
L 281.617056 384.585027 
L 282.45437 333.067668 
L 283.291684 351.84109 
L 284.128998 330.549963 
L 284.966312 341.530532 
L 285.803626 393.923073 
L 286.64094 396.09633 
L 287.478254 393.993412 
L 288.315568 382.05961 
L 289.152882 358.269878 
L 289.990196 344.709755 
L 290.82751 345.10308 
L 291.664824 376.028911 
L 292.502138 353.970267 
L 293.339452 396.45245 
L 294.176766 344.408224 
L 295.01408 351.644079 
L 295.851394 326.166476 
L 296.688708 316.448625 
L 297.526022 383.03545 
L 298.363336 324.188755 
L 299.20065 397.975323 
L 300.037964 338.179241 
L 300.875278 328.630436 
L 301.712592 373.476322 
L 302.549906 348.906423 
L 303.38722 382.18458 
L 304.224534 354.915085 
L 305.061848 396.547229 
L 305.899162 403.871469 
L 306.736476 390.707433 
L 307.57379 366.482879 
L 308.411104 338.409232 
L 309.248418 353.474238 
L 310.085732 359.58048 
L 310.923046 368.778523 
L 311.76036 379.268644 
L 312.597674 411.86837 
L 313.434988 383.132955 
L 314.272302 362.298372 
L 315.109616 390.133044 
L 315.94693 382.666664 
L 316.784244 353.617634 
L 317.621558 350.043433 
L 318.458872 386.532531 
L 319.296186 372.833471 
L 320.1335 371.66223 
L 320.970814 430.360531 
L 321.808128 326.078249 
L 322.645442 389.4327 
L 323.482756 347.597584 
L 324.32007 354.130588 
L 325.157384 358.205049 
L 325.994698 350.302716 
L 326.832012 350.905844 
L 327.669326 399.766083 
L 328.50664 354.474432 
L 329.343954 373.026152 
L 330.181268 370.946728 
L 331.018582 314.498196 
L 331.855896 334.250243 
L 332.69321 379.113381 
L 333.530524 286.608844 
L 334.367838 344.474684 
L 335.205152 348.296617 
L 336.042466 355.801524 
L 336.87978 357.757446 
L 337.717094 281.163292 
L 338.554408 343.084787 
L 339.391722 299.867599 
L 340.229036 303.257103 
L 342.740978 243.734837 
L 343.578292 360.868816 
L 344.415606 337.212255 
L 345.25292 381.049354 
L 346.090234 377.82114 
L 347.764862 296.05191 
L 348.602176 282.753387 
L 349.43949 332.20803 
L 350.276804 337.82254 
L 351.114118 364.246539 
L 351.951432 378.92294 
L 352.788746 354.469516 
L 353.62606 390.92032 
L 354.463374 384.470119 
L 355.300688 358.706245 
L 356.138002 382.291689 
L 356.975316 382.873922 
L 357.81263 386.912433 
L 358.649944 370.08522 
L 359.487258 385.486684 
L 360.324572 295.823464 
L 361.161886 394.911825 
L 361.9992 350.049057 
L 363.673828 390.423975 
L 364.511142 367.967225 
L 365.348456 357.895382 
L 366.18577 334.183826 
L 367.023084 343.53251 
L 367.860398 346.359001 
L 368.697712 338.166319 
L 369.535026 309.136226 
L 370.37234 323.01263 
L 371.209654 291.01241 
L 372.046968 329.645119 
L 372.884282 307.773152 
L 373.721596 328.201922 
L 374.55891 292.386459 
L 375.396224 368.186349 
L 376.233538 345.866572 
L 377.070852 329.357881 
L 377.908166 318.446719 
L 378.74548 324.065025 
L 379.582794 339.383919 
L 380.420108 385.273357 
L 381.257422 280.072467 
L 382.094736 377.530421 
L 382.93205 374.217298 
L 383.769364 337.783153 
L 384.606678 264.305937 
L 385.443991 292.809871 
L 386.281305 332.054496 
L 387.118619 279.804297 
L 387.955933 279.074144 
L 388.793247 339.382462 
L 389.630561 298.104543 
L 390.467875 285.986746 
L 391.305189 270.981218 
L 392.142503 238.195848 
L 392.979817 302.768089 
L 393.817131 255.294136 
L 394.654445 313.821657 
L 395.491759 279.14291 
L 396.329073 221.118032 
L 397.166387 292.953169 
L 398.003701 156.81048 
L 398.841015 239.387071 
L 399.678329 253.167048 
L 400.515643 270.318983 
L 401.352957 315.10289 
L 402.190271 330.983697 
L 403.027585 325.79633 
L 403.864899 293.204589 
L 404.702213 329.724317 
L 406.376841 359.071202 
L 407.214155 301.123575 
L 408.051469 319.238047 
L 408.888783 324.914318 
L 409.726097 313.509705 
L 410.563411 287.164394 
L 411.400725 305.872726 
L 412.238039 281.955033 
L 413.075353 246.998478 
L 413.912667 291.508787 
L 414.749981 307.469086 
L 415.587295 259.814786 
L 416.424609 258.477046 
L 417.261923 264.614593 
L 418.099237 236.534137 
L 418.936551 266.018055 
L 419.773865 264.245264 
L 420.611179 238.058272 
L 421.448493 222.002992 
L 422.285807 317.532554 
L 423.123121 225.829232 
L 423.960435 212.854527 
L 424.797749 309.465233 
L 425.635063 250.802876 
L 426.472377 342.277132 
L 427.309691 254.361773 
L 428.147005 302.234142 
L 428.984319 277.476761 
L 430.658947 334.422921 
L 431.496261 312.63571 
L 432.333575 302.219077 
L 433.170889 229.17491 
L 434.008203 218.808987 
L 434.845517 224.69109 
L 435.682831 287.360121 
L 436.520145 258.205264 
L 437.357459 271.804699 
L 438.194773 209.639769 
L 439.032087 279.413604 
L 440.706715 217.308412 
L 441.544029 244.322236 
L 442.381343 326.678451 
L 443.218657 321.923524 
L 444.055971 312.913224 
L 444.893285 247.059631 
L 445.730599 226.09862 
L 446.567913 273.509441 
L 447.405227 227.581791 
L 448.242541 272.265572 
L 449.079855 296.247811 
L 449.917169 308.672209 
L 450.754483 249.614917 
L 451.591797 232.724735 
L 452.429111 282.100006 
L 453.266425 227.012535 
L 454.103739 202.364711 
L 454.941053 242.144154 
L 455.778367 261.108321 
L 456.615681 206.360333 
L 457.452995 222.6401 
L 458.290309 266.374832 
L 459.127623 276.006055 
L 459.964937 253.812793 
L 460.802251 247.201014 
L 461.639565 247.808362 
L 462.476879 279.933085 
L 463.314193 307.492473 
L 464.151507 266.000368 
L 464.988821 287.81177 
L 465.826135 298.245699 
L 466.663449 266.361431 
L 467.500763 295.365201 
L 468.338077 287.580452 
L 469.175391 278.403424 
L 470.012705 260.974552 
L 470.850019 250.245825 
L 471.687333 284.280676 
L 472.524647 288.861283 
L 473.361961 261.205848 
L 474.199275 258.341166 
L 475.036589 289.966444 
L 475.873903 314.299032 
L 476.711217 333.935115 
L 477.548531 365.910524 
L 478.385845 317.763817 
L 479.223159 329.890621 
L 480.060473 299.598809 
L 480.897787 249.367414 
L 481.735101 316.924705 
L 482.572415 332.936498 
L 483.409729 274.211553 
L 485.084357 308.781102 
L 485.921671 312.362797 
L 486.758985 347.845294 
L 487.596299 283.498725 
L 488.433613 406.00547 
L 489.270927 345.025329 
L 490.108241 375.77548 
L 490.945555 302.233522 
L 491.782869 306.617922 
L 492.620183 337.134112 
L 493.457497 341.29606 
L 494.294811 300.238767 
L 495.132125 275.681692 
L 495.969439 276.848941 
L 496.806753 298.506266 
L 497.644067 298.554974 
L 498.481381 286.923656 
L 499.318695 305.175476 
L 500.156009 318.880454 
L 500.993322 306.425382 
L 501.830636 285.930336 
L 502.66795 309.44213 
L 503.505264 336.664493 
L 504.342578 316.826407 
L 505.179892 335.824631 
L 506.017206 361.47637 
L 506.85452 294.921296 
L 507.691834 325.962166 
L 508.529148 278.881375 
L 509.366462 299.395479 
L 510.203776 239.599549 
L 511.04109 254.798629 
L 511.878404 244.683168 
L 512.715718 306.884592 
L 513.553032 314.870006 
L 514.390346 277.897758 
L 515.22766 357.970294 
L 516.064974 332.774958 
L 516.902288 352.861407 
L 517.739602 345.076778 
L 518.576916 358.446973 
L 520.251544 305.871812 
L 521.088858 314.213177 
L 521.926172 296.208022 
L 522.763486 316.224867 
L 523.6008 357.608513 
L 524.438114 323.284466 
L 525.275428 304.323464 
L 526.112742 289.16376 
L 526.950056 301.158241 
L 527.78737 386.0469 
L 529.461998 305.827487 
L 530.299312 326.315931 
L 531.136626 314.148478 
L 532.811254 247.673766 
L 533.648568 291.361834 
L 534.485882 294.148264 
L 535.323196 279.251793 
L 536.16051 282.040616 
L 536.997824 323.867873 
L 537.835138 284.923854 
L 538.672452 327.857273 
L 539.509766 338.197058 
L 540.34708 325.580828 
L 541.184394 309.183216 
L 542.021708 295.090461 
L 542.859022 290.539746 
L 543.696336 352.830135 
L 544.53365 338.533147 
L 545.370964 312.386836 
L 546.208278 319.819779 
L 547.045592 295.707772 
L 547.882906 311.66 
L 548.72022 302.07146 
L 549.557534 350.906921 
L 550.394848 372.087241 
L 552.069476 375.975786 
L 553.744104 329.646925 
L 554.581418 368.832225 
L 556.256046 391.540709 
L 557.09336 375.060206 
L 557.930674 375.101997 
L 558.767988 393.181417 
L 559.605302 347.955079 
L 560.442616 409.734619 
L 561.27993 411.415116 
L 562.117244 401.403865 
L 562.954558 336.78694 
L 563.791872 395.103652 
L 564.629186 391.29499 
L 565.4665 395.505043 
L 566.303814 395.456002 
L 567.978442 355.840323 
L 568.815756 361.921069 
L 569.65307 369.410976 
L 570.490384 342.337001 
L 571.327698 347.329892 
L 572.165012 379.742331 
L 573.002326 298.459319 
L 573.83964 382.101096 
L 574.676954 371.53652 
L 575.514268 388.997459 
L 576.351582 401.132649 
L 577.188896 397.321338 
L 578.02621 361.869238 
L 578.863524 363.010371 
L 579.700838 341.959883 
L 580.538152 378.31433 
L 581.375466 375.010182 
L 582.21278 397.999498 
L 583.050094 401.548229 
L 583.887408 387.541906 
L 584.724722 356.230831 
L 585.562036 356.55961 
L 586.39935 362.991379 
L 587.236664 378.623563 
L 588.073978 376.052286 
L 588.911292 353.853368 
L 589.748606 298.276612 
L 590.58592 319.036337 
L 591.423234 368.274913 
L 592.260548 372.521193 
L 593.097862 288.759449 
L 593.935176 321.105384 
L 594.77249 358.392553 
L 595.609804 388.980588 
L 596.447118 371.814262 
L 597.284432 412.665261 
L 598.121746 392.805142 
L 598.95906 394.676721 
L 599.796374 386.15773 
L 600.633688 404.526199 
L 601.471002 393.786144 
L 602.308316 400.596357 
L 603.14563 385.817823 
L 603.982944 394.61143 
L 604.820258 401.385118 
L 605.657572 407.151867 
L 606.494886 404.021299 
L 607.3322 372.813402 
L 608.169514 412.929918 
L 609.006828 391.105316 
L 609.844142 380.493021 
L 610.681456 380.103884 
L 611.51877 372.09281 
L 612.356084 389.556152 
L 613.193398 332.640906 
L 614.030712 313.424122 
L 614.868026 356.171713 
L 615.70534 369.846353 
L 616.542653 339.986263 
L 617.379967 362.564954 
L 618.217281 379.030648 
L 619.054595 377.857046 
L 619.891909 380.5333 
L 620.729223 399.488341 
L 621.566537 395.012489 
L 622.403851 361.694167 
L 623.241165 393.910423 
L 624.078479 376.643405 
L 624.915793 350.28553 
L 625.753107 340.861956 
L 626.590421 356.554737 
L 627.427735 351.881151 
L 628.265049 336.35351 
L 629.102363 364.036867 
L 629.939677 400.5445 
L 630.776991 336.974813 
L 631.614305 355.215398 
L 632.451619 343.814211 
L 633.288933 342.663496 
L 634.126247 385.112992 
L 635.800875 344.361603 
L 636.638189 413.533975 
L 637.475503 378.737459 
L 638.312817 403.362371 
L 639.150131 401.362933 
L 639.987445 404.009323 
L 640.824759 411.817306 
L 641.662073 408.149021 
L 642.499387 376.316432 
L 643.336701 396.894614 
L 644.174015 364.020475 
L 645.011329 383.426872 
L 645.848643 377.180692 
L 646.685957 361.446893 
L 647.523271 422.656894 
L 648.360585 400.96641 
L 649.197899 406.133953 
L 650.035213 401.106636 
L 650.872527 364.257536 
L 651.709841 393.371325 
L 652.547155 383.757217 
L 653.384469 371.604145 
L 654.221783 384.293634 
L 655.059097 346.372217 
L 655.896411 353.16891 
L 656.733725 371.339281 
L 657.571039 339.359728 
L 658.408353 369.423007 
L 659.245667 362.764782 
L 660.082981 323.37998 
L 660.920295 411.345479 
L 661.757609 403.310431 
L 662.594923 372.915431 
L 663.432237 363.113804 
L 664.269551 384.487305 
L 665.106865 383.081418 
L 665.944179 333.655937 
L 666.781493 349.574336 
L 667.618807 328.821344 
L 668.456121 333.293938 
L 669.293435 327.966732 
L 670.130749 308.91535 
L 670.968063 312.082738 
L 671.805377 340.523594 
L 672.642691 373.788959 
L 673.480005 325.693811 
L 674.317319 359.952279 
L 675.154633 331.777211 
L 675.991947 388.81609 
L 676.829261 388.970962 
L 677.666575 377.747283 
L 678.503889 351.335793 
L 679.341203 365.856344 
L 680.178517 317.088834 
L 681.015831 341.946689 
L 681.853145 316.557671 
L 682.690459 348.47593 
L 683.527773 324.923053 
L 684.365087 348.562579 
L 685.202401 295.540239 
L 686.039715 284.739026 
L 686.877029 329.370825 
L 687.714343 352.624336 
L 688.551657 310.481167 
L 689.388971 304.353159 
L 691.063599 279.83136 
L 691.900913 323.473275 
L 692.738227 294.737447 
L 693.575541 309.447666 
L 694.412855 295.160098 
L 695.250169 317.471825 
L 696.087483 283.530596 
L 696.924797 282.587921 
L 697.762111 329.213745 
L 698.599425 312.839682 
L 699.436739 304.747801 
L 700.274053 318.086385 
L 701.111367 343.611066 
L 701.948681 321.527219 
L 702.785995 271.316458 
L 703.623309 331.729873 
L 704.460623 314.96726 
L 705.297937 346.237098 
L 706.135251 341.676224 
L 706.972565 369.168063 
L 708.647193 292.824969 
L 709.484507 321.278823 
L 710.321821 322.178304 
L 711.159135 350.988055 
L 711.996449 251.736023 
L 712.833763 279.214026 
L 713.671077 289.994137 
L 714.508391 331.808451 
L 715.345705 283.030825 
L 716.183019 258.332442 
L 717.020333 208.977338 
L 717.857647 234.821301 
L 718.694961 271.471808 
L 719.532275 252.737283 
L 720.369589 319.844688 
L 721.206903 272.127212 
L 722.044217 271.560828 
L 722.881531 299.687688 
L 723.718845 296.381951 
L 724.556159 371.74505 
L 725.393473 326.878725 
L 726.230787 251.454843 
L 727.068101 258.828558 
L 727.905415 257.599004 
L 728.742729 283.078576 
L 729.580043 256.130235 
L 730.417357 301.6684 
L 731.254671 281.817086 
L 732.091984 218.256548 
L 732.929298 226.436079 
L 733.766612 271.080593 
L 734.603926 359.852762 
L 735.44124 341.989687 
L 736.278554 262.677967 
L 737.115868 304.825769 
L 737.953182 237.960049 
L 738.790496 376.442827 
L 739.62781 324.823318 
L 740.465124 318.287159 
L 741.302438 342.033697 
L 742.139752 261.419392 
L 742.977066 280.855028 
L 743.81438 262.957319 
L 744.651694 279.854398 
L 745.489008 223.759815 
L 746.326322 285.315852 
L 747.163636 216.263468 
L 747.163636 216.263468 
" style="fill:none;stroke:#ff0000;stroke-dasharray:5.55,2.4;stroke-dashoffset:0;stroke-width:1.5;"/>
   </g>
   <g id="patch_3">
    <path d="M 108 460.8 
L 108 69.12 
" style="fill:none;stroke:#000000;stroke-linecap:square;stroke-linejoin:miter;stroke-width:0.8;"/>
   </g>
   <g id="patch_4">
    <path d="M 777.6 460.8 
L 777.6 69.12 
" style="fill:none;stroke:#000000;stroke-linecap:square;stroke-linejoin:miter;stroke-width:0.8;"/>
   </g>
   <g id="patch_5">
    <path d="M 108 460.8 
L 777.6 460.8 
" style="fill:none;stroke:#000000;stroke-linecap:square;stroke-linejoin:miter;stroke-width:0.8;"/>
   </g>
   <g id="patch_6">
    <path d="M 108 69.12 
L 777.6 69.12 
" style="fill:none;stroke:#000000;stroke-linecap:square;stroke-linejoin:miter;stroke-width:0.8;"/>
   </g>
   <g id="text_19">
    <!-- Macau residential 2020-2021 | Forecast vs Monitored | RNN -->
    <g transform="translate(219.680859 63.12)scale(0.15 -0.15)">
     <defs>
      <path d="M 8.5 21.578125 
L 8.5 54.6875 
L 17.484375 54.6875 
L 17.484375 21.921875 
Q 17.484375 14.15625 20.5 10.265625 
Q 23.53125 6.390625 29.59375 6.390625 
Q 36.859375 6.390625 41.078125 11.03125 
Q 45.3125 15.671875 45.3125 23.6875 
L 45.3125 54.6875 
L 54.296875 54.6875 
L 54.296875 0 
L 45.3125 0 
L 45.3125 8.40625 
Q 42.046875 3.421875 37.71875 1 
Q 33.40625 -1.421875 27.6875 -1.421875 
Q 18.265625 -1.421875 13.375 4.4375 
Q 8.5 10.296875 8.5 21.578125 
z
M 31.109375 56 
z
" id="DejaVuSans-117"/>
      <path id="DejaVuSans-32"/>
      <path d="M 44.28125 53.078125 
L 44.28125 44.578125 
Q 40.484375 46.53125 36.375 47.5 
Q 32.28125 48.484375 27.875 48.484375 
Q 21.1875 48.484375 17.84375 46.4375 
Q 14.5 44.390625 14.5 40.28125 
Q 14.5 37.15625 16.890625 35.375 
Q 19.28125 33.59375 26.515625 31.984375 
L 29.59375 31.296875 
Q 39.15625 29.25 43.1875 25.515625 
Q 47.21875 21.78125 47.21875 15.09375 
Q 47.21875 7.46875 41.1875 3.015625 
Q 35.15625 -1.421875 24.609375 -1.421875 
Q 20.21875 -1.421875 15.453125 -0.5625 
Q 10.6875 0.296875 5.421875 2 
L 5.421875 11.28125 
Q 10.40625 8.6875 15.234375 7.390625 
Q 20.0625 6.109375 24.8125 6.109375 
Q 31.15625 6.109375 34.5625 8.28125 
Q 37.984375 10.453125 37.984375 14.40625 
Q 37.984375 18.0625 35.515625 20.015625 
Q 33.0625 21.96875 24.703125 23.78125 
L 21.578125 24.515625 
Q 13.234375 26.265625 9.515625 29.90625 
Q 5.8125 33.546875 5.8125 39.890625 
Q 5.8125 47.609375 11.28125 51.796875 
Q 16.75 56 26.8125 56 
Q 31.78125 56 36.171875 55.265625 
Q 40.578125 54.546875 44.28125 53.078125 
z
" id="DejaVuSans-115"/>
      <path d="M 45.40625 46.390625 
L 45.40625 75.984375 
L 54.390625 75.984375 
L 54.390625 0 
L 45.40625 0 
L 45.40625 8.203125 
Q 42.578125 3.328125 38.25 0.953125 
Q 33.9375 -1.421875 27.875 -1.421875 
Q 17.96875 -1.421875 11.734375 6.484375 
Q 5.515625 14.40625 5.515625 27.296875 
Q 5.515625 40.1875 11.734375 48.09375 
Q 17.96875 56 27.875 56 
Q 33.9375 56 38.25 53.625 
Q 42.578125 51.265625 45.40625 46.390625 
z
M 14.796875 27.296875 
Q 14.796875 17.390625 18.875 11.75 
Q 22.953125 6.109375 30.078125 6.109375 
Q 37.203125 6.109375 41.296875 11.75 
Q 45.40625 17.390625 45.40625 27.296875 
Q 45.40625 37.203125 41.296875 42.84375 
Q 37.203125 48.484375 30.078125 48.484375 
Q 22.953125 48.484375 18.875 42.84375 
Q 14.796875 37.203125 14.796875 27.296875 
z
" id="DejaVuSans-100"/>
      <path d="M 54.890625 33.015625 
L 54.890625 0 
L 45.90625 0 
L 45.90625 32.71875 
Q 45.90625 40.484375 42.875 44.328125 
Q 39.84375 48.1875 33.796875 48.1875 
Q 26.515625 48.1875 22.3125 43.546875 
Q 18.109375 38.921875 18.109375 30.90625 
L 18.109375 0 
L 9.078125 0 
L 9.078125 54.6875 
L 18.109375 54.6875 
L 18.109375 46.1875 
Q 21.34375 51.125 25.703125 53.5625 
Q 30.078125 56 35.796875 56 
Q 45.21875 56 50.046875 50.171875 
Q 54.890625 44.34375 54.890625 33.015625 
z
" id="DejaVuSans-110"/>
      <path d="M 9.421875 75.984375 
L 18.40625 75.984375 
L 18.40625 0 
L 9.421875 0 
z
" id="DejaVuSans-108"/>
      <path d="M 21 76.421875 
L 21 -23.578125 
L 12.703125 -23.578125 
L 12.703125 76.421875 
z
" id="DejaVuSans-124"/>
      <path d="M 9.8125 72.90625 
L 51.703125 72.90625 
L 51.703125 64.59375 
L 19.671875 64.59375 
L 19.671875 43.109375 
L 48.578125 43.109375 
L 48.578125 34.8125 
L 19.671875 34.8125 
L 19.671875 0 
L 9.8125 0 
z
" id="DejaVuSans-70"/>
      <path d="M 2.984375 54.6875 
L 12.5 54.6875 
L 29.59375 8.796875 
L 46.6875 54.6875 
L 56.203125 54.6875 
L 35.6875 0 
L 23.484375 0 
z
" id="DejaVuSans-118"/>
      <path d="M 44.390625 34.1875 
Q 47.5625 33.109375 50.5625 29.59375 
Q 53.5625 26.078125 56.59375 19.921875 
L 66.609375 0 
L 56 0 
L 46.6875 18.703125 
Q 43.0625 26.03125 39.671875 28.421875 
Q 36.28125 30.8125 30.421875 30.8125 
L 19.671875 30.8125 
L 19.671875 0 
L 9.8125 0 
L 9.8125 72.90625 
L 32.078125 72.90625 
Q 44.578125 72.90625 50.734375 67.671875 
Q 56.890625 62.453125 56.890625 51.90625 
Q 56.890625 45.015625 53.6875 40.46875 
Q 50.484375 35.9375 44.390625 34.1875 
z
M 19.671875 64.796875 
L 19.671875 38.921875 
L 32.078125 38.921875 
Q 39.203125 38.921875 42.84375 42.21875 
Q 46.484375 45.515625 46.484375 51.90625 
Q 46.484375 58.296875 42.84375 61.546875 
Q 39.203125 64.796875 32.078125 64.796875 
z
" id="DejaVuSans-82"/>
      <path d="M 9.8125 72.90625 
L 23.09375 72.90625 
L 55.421875 11.921875 
L 55.421875 72.90625 
L 64.984375 72.90625 
L 64.984375 0 
L 51.703125 0 
L 19.390625 60.984375 
L 19.390625 0 
L 9.8125 0 
z
" id="DejaVuSans-78"/>
     </defs>
     <use xlink:href="#DejaVuSans-77"/>
     <use x="86.279297" xlink:href="#DejaVuSans-97"/>
     <use x="147.558594" xlink:href="#DejaVuSans-99"/>
     <use x="202.539062" xlink:href="#DejaVuSans-97"/>
     <use x="263.818359" xlink:href="#DejaVuSans-117"/>
     <use x="327.197266" xlink:href="#DejaVuSans-32"/>
     <use x="358.984375" xlink:href="#DejaVuSans-114"/>
     <use x="397.847656" xlink:href="#DejaVuSans-101"/>
     <use x="459.371094" xlink:href="#DejaVuSans-115"/>
     <use x="511.470703" xlink:href="#DejaVuSans-105"/>
     <use x="539.253906" xlink:href="#DejaVuSans-100"/>
     <use x="602.730469" xlink:href="#DejaVuSans-101"/>
     <use x="664.253906" xlink:href="#DejaVuSans-110"/>
     <use x="727.632812" xlink:href="#DejaVuSans-116"/>
     <use x="766.841797" xlink:href="#DejaVuSans-105"/>
     <use x="794.625" xlink:href="#DejaVuSans-97"/>
     <use x="855.904297" xlink:href="#DejaVuSans-108"/>
     <use x="883.6875" xlink:href="#DejaVuSans-32"/>
     <use x="915.474609" xlink:href="#DejaVuSans-50"/>
     <use x="979.097656" xlink:href="#DejaVuSans-48"/>
     <use x="1042.720703" xlink:href="#DejaVuSans-50"/>
     <use x="1106.34375" xlink:href="#DejaVuSans-48"/>
     <use x="1169.966797" xlink:href="#DejaVuSans-45"/>
     <use x="1206.050781" xlink:href="#DejaVuSans-50"/>
     <use x="1269.673828" xlink:href="#DejaVuSans-48"/>
     <use x="1333.296875" xlink:href="#DejaVuSans-50"/>
     <use x="1396.919922" xlink:href="#DejaVuSans-49"/>
     <use x="1460.542969" xlink:href="#DejaVuSans-32"/>
     <use x="1492.330078" xlink:href="#DejaVuSans-124"/>
     <use x="1526.021484" xlink:href="#DejaVuSans-32"/>
     <use x="1557.808594" xlink:href="#DejaVuSans-70"/>
     <use x="1611.703125" xlink:href="#DejaVuSans-111"/>
     <use x="1672.884766" xlink:href="#DejaVuSans-114"/>
     <use x="1711.748047" xlink:href="#DejaVuSans-101"/>
     <use x="1773.271484" xlink:href="#DejaVuSans-99"/>
     <use x="1828.251953" xlink:href="#DejaVuSans-97"/>
     <use x="1889.53125" xlink:href="#DejaVuSans-115"/>
     <use x="1941.630859" xlink:href="#DejaVuSans-116"/>
     <use x="1980.839844" xlink:href="#DejaVuSans-32"/>
     <use x="2012.626953" xlink:href="#DejaVuSans-118"/>
     <use x="2071.806641" xlink:href="#DejaVuSans-115"/>
     <use x="2123.90625" xlink:href="#DejaVuSans-32"/>
     <use x="2155.693359" xlink:href="#DejaVuSans-77"/>
     <use x="2241.972656" xlink:href="#DejaVuSans-111"/>
     <use x="2303.154297" xlink:href="#DejaVuSans-110"/>
     <use x="2366.533203" xlink:href="#DejaVuSans-105"/>
     <use x="2394.316406" xlink:href="#DejaVuSans-116"/>
     <use x="2433.525391" xlink:href="#DejaVuSans-111"/>
     <use x="2494.707031" xlink:href="#DejaVuSans-114"/>
     <use x="2533.570312" xlink:href="#DejaVuSans-101"/>
     <use x="2595.09375" xlink:href="#DejaVuSans-100"/>
     <use x="2658.570312" xlink:href="#DejaVuSans-32"/>
     <use x="2690.357422" xlink:href="#DejaVuSans-124"/>
     <use x="2724.048828" xlink:href="#DejaVuSans-32"/>
     <use x="2755.835938" xlink:href="#DejaVuSans-82"/>
     <use x="2825.318359" xlink:href="#DejaVuSans-78"/>
     <use x="2900.123047" xlink:href="#DejaVuSans-78"/>
    </g>
   </g>
   <g id="legend_1">
    <g id="patch_7">
     <path d="M 598.963125 114.615 
L 769.2 114.615 
Q 771.6 114.615 771.6 112.215 
L 771.6 77.52 
Q 771.6 75.12 769.2 75.12 
L 598.963125 75.12 
Q 596.563125 75.12 596.563125 77.52 
L 596.563125 112.215 
Q 596.563125 114.615 598.963125 114.615 
z
" style="fill:#ffffff;opacity:0.8;stroke:#cccccc;stroke-linejoin:miter;"/>
    </g>
    <g id="line2d_19">
     <path d="M 601.363125 84.838125 
L 625.363125 84.838125 
" style="fill:none;stroke:#1f77b4;stroke-linecap:square;stroke-width:1.5;"/>
    </g>
    <g id="line2d_20"/>
    <g id="text_20">
     <!-- measured_data_PM10 -->
     <g transform="translate(634.963125 89.038125)scale(0.12 -0.12)">
      <defs>
       <path d="M 50.984375 -16.609375 
L 50.984375 -23.578125 
L -0.984375 -23.578125 
L -0.984375 -16.609375 
z
" id="DejaVuSans-95"/>
      </defs>
      <use xlink:href="#DejaVuSans-109"/>
      <use x="97.412109" xlink:href="#DejaVuSans-101"/>
      <use x="158.935547" xlink:href="#DejaVuSans-97"/>
      <use x="220.214844" xlink:href="#DejaVuSans-115"/>
      <use x="272.314453" xlink:href="#DejaVuSans-117"/>
      <use x="335.693359" xlink:href="#DejaVuSans-114"/>
      <use x="374.556641" xlink:href="#DejaVuSans-101"/>
      <use x="436.080078" xlink:href="#DejaVuSans-100"/>
      <use x="499.556641" xlink:href="#DejaVuSans-95"/>
      <use x="549.556641" xlink:href="#DejaVuSans-100"/>
      <use x="613.033203" xlink:href="#DejaVuSans-97"/>
      <use x="674.3125" xlink:href="#DejaVuSans-116"/>
      <use x="713.521484" xlink:href="#DejaVuSans-97"/>
      <use x="774.800781" xlink:href="#DejaVuSans-95"/>
      <use x="824.800781" xlink:href="#DejaVuSans-80"/>
      <use x="885.103516" xlink:href="#DejaVuSans-77"/>
      <use x="971.382812" xlink:href="#DejaVuSans-49"/>
      <use x="1035.005859" xlink:href="#DejaVuSans-48"/>
     </g>
    </g>
    <g id="line2d_21">
     <path d="M 601.363125 102.785625 
L 625.363125 102.785625 
" style="fill:none;stroke:#ff0000;stroke-dasharray:5.55,2.4;stroke-dashoffset:0;stroke-width:1.5;"/>
    </g>
    <g id="line2d_22"/>
    <g id="text_21">
     <!-- predicted_data_PM10 -->
     <g transform="translate(634.963125 106.985625)scale(0.12 -0.12)">
      <defs>
       <path d="M 18.109375 8.203125 
L 18.109375 -20.796875 
L 9.078125 -20.796875 
L 9.078125 54.6875 
L 18.109375 54.6875 
L 18.109375 46.390625 
Q 20.953125 51.265625 25.265625 53.625 
Q 29.59375 56 35.59375 56 
Q 45.5625 56 51.78125 48.09375 
Q 58.015625 40.1875 58.015625 27.296875 
Q 58.015625 14.40625 51.78125 6.484375 
Q 45.5625 -1.421875 35.59375 -1.421875 
Q 29.59375 -1.421875 25.265625 0.953125 
Q 20.953125 3.328125 18.109375 8.203125 
z
M 48.6875 27.296875 
Q 48.6875 37.203125 44.609375 42.84375 
Q 40.53125 48.484375 33.40625 48.484375 
Q 26.265625 48.484375 22.1875 42.84375 
Q 18.109375 37.203125 18.109375 27.296875 
Q 18.109375 17.390625 22.1875 11.75 
Q 26.265625 6.109375 33.40625 6.109375 
Q 40.53125 6.109375 44.609375 11.75 
Q 48.6875 17.390625 48.6875 27.296875 
z
" id="DejaVuSans-112"/>
      </defs>
      <use xlink:href="#DejaVuSans-112"/>
      <use x="63.476562" xlink:href="#DejaVuSans-114"/>
      <use x="102.339844" xlink:href="#DejaVuSans-101"/>
      <use x="163.863281" xlink:href="#DejaVuSans-100"/>
      <use x="227.339844" xlink:href="#DejaVuSans-105"/>
      <use x="255.123047" xlink:href="#DejaVuSans-99"/>
      <use x="310.103516" xlink:href="#DejaVuSans-116"/>
      <use x="349.3125" xlink:href="#DejaVuSans-101"/>
      <use x="410.835938" xlink:href="#DejaVuSans-100"/>
      <use x="474.3125" xlink:href="#DejaVuSans-95"/>
      <use x="524.3125" xlink:href="#DejaVuSans-100"/>
      <use x="587.789062" xlink:href="#DejaVuSans-97"/>
      <use x="649.068359" xlink:href="#DejaVuSans-116"/>
      <use x="688.277344" xlink:href="#DejaVuSans-97"/>
      <use x="749.556641" xlink:href="#DejaVuSans-95"/>
      <use x="799.556641" xlink:href="#DejaVuSans-80"/>
      <use x="859.859375" xlink:href="#DejaVuSans-77"/>
      <use x="946.138672" xlink:href="#DejaVuSans-49"/>
      <use x="1009.761719" xlink:href="#DejaVuSans-48"/>
     </g>
    </g>
   </g>
  </g>
 </g>
 <defs>
  <clipPath id="p8562227534">
   <rect height="391.68" width="669.6" x="108" y="69.12"/>
  </clipPath>
 </defs>
</svg>
