<?xml version="1.0" encoding="utf-8" standalone="no"?>
<!DOCTYPE svg PUBLIC "-//W3C//DTD SVG 1.1//EN"
  "http://www.w3.org/Graphics/SVG/1.1/DTD/svg11.dtd">
<!-- Created with matplotlib (https://matplotlib.org/) -->
<svg height="576pt" version="1.1" viewBox="0 0 864 576" width="864pt" xmlns="http://www.w3.org/2000/svg" xmlns:xlink="http://www.w3.org/1999/xlink">
 <metadata>
  <rdf:RDF xmlns:cc="http://creativecommons.org/ns#" xmlns:dc="http://purl.org/dc/elements/1.1/" xmlns:rdf="http://www.w3.org/1999/02/22-rdf-syntax-ns#">
   <cc:Work>
    <dc:type rdf:resource="http://purl.org/dc/dcmitype/StillImage"/>
    <dc:date>2024-03-08T19:58:58.382161</dc:date>
    <dc:format>image/svg+xml</dc:format>
    <dc:creator>
     <cc:Agent>
      <dc:title>Matplotlib v3.3.4, https://matplotlib.org/</dc:title>
     </cc:Agent>
    </dc:creator>
   </cc:Work>
  </rdf:RDF>
 </metadata>
 <defs>
  <style type="text/css">*{stroke-linecap:butt;stroke-linejoin:round;}</style>
 </defs>
 <g id="figure_1">
  <g id="patch_1">
   <path d="M 0 576 
L 864 576 
L 864 0 
L 0 0 
z
" style="fill:#ffffff;"/>
  </g>
  <g id="axes_1">
   <g id="patch_2">
    <path d="M 108 460.8 
L 777.6 460.8 
L 777.6 69.12 
L 108 69.12 
z
" style="fill:#ffffff;"/>
   </g>
   <g id="matplotlib.axis_1">
    <g id="xtick_1">
     <g id="line2d_1">
      <defs>
       <path d="M 0 0 
L 0 3.5 
" id="md6cdfa4d5b" style="stroke:#000000;stroke-width:0.8;"/>
      </defs>
      <g>
       <use style="stroke:#000000;stroke-width:0.8;" x="138.436364" xlink:href="#md6cdfa4d5b" y="460.8"/>
      </g>
     </g>
     <g id="text_1">
      <!-- 2020-01 -->
      <g transform="translate(93.766579 500.766215)rotate(-30)scale(0.12 -0.12)">
       <defs>
        <path d="M 19.1875 8.296875 
L 53.609375 8.296875 
L 53.609375 0 
L 7.328125 0 
L 7.328125 8.296875 
Q 12.9375 14.109375 22.625 23.890625 
Q 32.328125 33.6875 34.8125 36.53125 
Q 39.546875 41.84375 41.421875 45.53125 
Q 43.3125 49.21875 43.3125 52.78125 
Q 43.3125 58.59375 39.234375 62.25 
Q 35.15625 65.921875 28.609375 65.921875 
Q 23.96875 65.921875 18.8125 64.3125 
Q 13.671875 62.703125 7.8125 59.421875 
L 7.8125 69.390625 
Q 13.765625 71.78125 18.9375 73 
Q 24.125 74.21875 28.421875 74.21875 
Q 39.75 74.21875 46.484375 68.546875 
Q 53.21875 62.890625 53.21875 53.421875 
Q 53.21875 48.921875 51.53125 44.890625 
Q 49.859375 40.875 45.40625 35.40625 
Q 44.1875 33.984375 37.640625 27.21875 
Q 31.109375 20.453125 19.1875 8.296875 
z
" id="DejaVuSans-50"/>
        <path d="M 31.78125 66.40625 
Q 24.171875 66.40625 20.328125 58.90625 
Q 16.5 51.421875 16.5 36.375 
Q 16.5 21.390625 20.328125 13.890625 
Q 24.171875 6.390625 31.78125 6.390625 
Q 39.453125 6.390625 43.28125 13.890625 
Q 47.125 21.390625 47.125 36.375 
Q 47.125 51.421875 43.28125 58.90625 
Q 39.453125 66.40625 31.78125 66.40625 
z
M 31.78125 74.21875 
Q 44.046875 74.21875 50.515625 64.515625 
Q 56.984375 54.828125 56.984375 36.375 
Q 56.984375 17.96875 50.515625 8.265625 
Q 44.046875 -1.421875 31.78125 -1.421875 
Q 19.53125 -1.421875 13.0625 8.265625 
Q 6.59375 17.96875 6.59375 36.375 
Q 6.59375 54.828125 13.0625 64.515625 
Q 19.53125 74.21875 31.78125 74.21875 
z
" id="DejaVuSans-48"/>
        <path d="M 4.890625 31.390625 
L 31.203125 31.390625 
L 31.203125 23.390625 
L 4.890625 23.390625 
z
" id="DejaVuSans-45"/>
        <path d="M 12.40625 8.296875 
L 28.515625 8.296875 
L 28.515625 63.921875 
L 10.984375 60.40625 
L 10.984375 69.390625 
L 28.421875 72.90625 
L 38.28125 72.90625 
L 38.28125 8.296875 
L 54.390625 8.296875 
L 54.390625 0 
L 12.40625 0 
z
" id="DejaVuSans-49"/>
       </defs>
       <use xlink:href="#DejaVuSans-50"/>
       <use x="63.623047" xlink:href="#DejaVuSans-48"/>
       <use x="127.246094" xlink:href="#DejaVuSans-50"/>
       <use x="190.869141" xlink:href="#DejaVuSans-48"/>
       <use x="254.492188" xlink:href="#DejaVuSans-45"/>
       <use x="290.576172" xlink:href="#DejaVuSans-48"/>
       <use x="354.199219" xlink:href="#DejaVuSans-49"/>
      </g>
     </g>
    </g>
    <g id="xtick_2">
     <g id="line2d_2">
      <g>
       <use style="stroke:#000000;stroke-width:0.8;" x="214.318804" xlink:href="#md6cdfa4d5b" y="460.8"/>
      </g>
     </g>
     <g id="text_2">
      <!-- 2020-04 -->
      <g transform="translate(169.64902 500.766215)rotate(-30)scale(0.12 -0.12)">
       <defs>
        <path d="M 37.796875 64.3125 
L 12.890625 25.390625 
L 37.796875 25.390625 
z
M 35.203125 72.90625 
L 47.609375 72.90625 
L 47.609375 25.390625 
L 58.015625 25.390625 
L 58.015625 17.1875 
L 47.609375 17.1875 
L 47.609375 0 
L 37.796875 0 
L 37.796875 17.1875 
L 4.890625 17.1875 
L 4.890625 26.703125 
z
" id="DejaVuSans-52"/>
       </defs>
       <use xlink:href="#DejaVuSans-50"/>
       <use x="63.623047" xlink:href="#DejaVuSans-48"/>
       <use x="127.246094" xlink:href="#DejaVuSans-50"/>
       <use x="190.869141" xlink:href="#DejaVuSans-48"/>
       <use x="254.492188" xlink:href="#DejaVuSans-45"/>
       <use x="290.576172" xlink:href="#DejaVuSans-48"/>
       <use x="354.199219" xlink:href="#DejaVuSans-52"/>
      </g>
     </g>
    </g>
    <g id="xtick_3">
     <g id="line2d_3">
      <g>
       <use style="stroke:#000000;stroke-width:0.8;" x="290.201245" xlink:href="#md6cdfa4d5b" y="460.8"/>
      </g>
     </g>
     <g id="text_3">
      <!-- 2020-07 -->
      <g transform="translate(245.53146 500.766215)rotate(-30)scale(0.12 -0.12)">
       <defs>
        <path d="M 8.203125 72.90625 
L 55.078125 72.90625 
L 55.078125 68.703125 
L 28.609375 0 
L 18.3125 0 
L 43.21875 64.59375 
L 8.203125 64.59375 
z
" id="DejaVuSans-55"/>
       </defs>
       <use xlink:href="#DejaVuSans-50"/>
       <use x="63.623047" xlink:href="#DejaVuSans-48"/>
       <use x="127.246094" xlink:href="#DejaVuSans-50"/>
       <use x="190.869141" xlink:href="#DejaVuSans-48"/>
       <use x="254.492188" xlink:href="#DejaVuSans-45"/>
       <use x="290.576172" xlink:href="#DejaVuSans-48"/>
       <use x="354.199219" xlink:href="#DejaVuSans-55"/>
      </g>
     </g>
    </g>
    <g id="xtick_4">
     <g id="line2d_4">
      <g>
       <use style="stroke:#000000;stroke-width:0.8;" x="366.917559" xlink:href="#md6cdfa4d5b" y="460.8"/>
      </g>
     </g>
     <g id="text_4">
      <!-- 2020-10 -->
      <g transform="translate(322.247774 500.766215)rotate(-30)scale(0.12 -0.12)">
       <use xlink:href="#DejaVuSans-50"/>
       <use x="63.623047" xlink:href="#DejaVuSans-48"/>
       <use x="127.246094" xlink:href="#DejaVuSans-50"/>
       <use x="190.869141" xlink:href="#DejaVuSans-48"/>
       <use x="254.492188" xlink:href="#DejaVuSans-45"/>
       <use x="290.576172" xlink:href="#DejaVuSans-49"/>
       <use x="354.199219" xlink:href="#DejaVuSans-48"/>
      </g>
     </g>
    </g>
    <g id="xtick_5">
     <g id="line2d_5">
      <g>
       <use style="stroke:#000000;stroke-width:0.8;" x="443.633873" xlink:href="#md6cdfa4d5b" y="460.8"/>
      </g>
     </g>
     <g id="text_5">
      <!-- 2021-01 -->
      <g transform="translate(398.964088 500.766215)rotate(-30)scale(0.12 -0.12)">
       <use xlink:href="#DejaVuSans-50"/>
       <use x="63.623047" xlink:href="#DejaVuSans-48"/>
       <use x="127.246094" xlink:href="#DejaVuSans-50"/>
       <use x="190.869141" xlink:href="#DejaVuSans-49"/>
       <use x="254.492188" xlink:href="#DejaVuSans-45"/>
       <use x="290.576172" xlink:href="#DejaVuSans-48"/>
       <use x="354.199219" xlink:href="#DejaVuSans-49"/>
      </g>
     </g>
    </g>
    <g id="xtick_6">
     <g id="line2d_6">
      <g>
       <use style="stroke:#000000;stroke-width:0.8;" x="518.682441" xlink:href="#md6cdfa4d5b" y="460.8"/>
      </g>
     </g>
     <g id="text_6">
      <!-- 2021-04 -->
      <g transform="translate(474.012656 500.766215)rotate(-30)scale(0.12 -0.12)">
       <use xlink:href="#DejaVuSans-50"/>
       <use x="63.623047" xlink:href="#DejaVuSans-48"/>
       <use x="127.246094" xlink:href="#DejaVuSans-50"/>
       <use x="190.869141" xlink:href="#DejaVuSans-49"/>
       <use x="254.492188" xlink:href="#DejaVuSans-45"/>
       <use x="290.576172" xlink:href="#DejaVuSans-48"/>
       <use x="354.199219" xlink:href="#DejaVuSans-52"/>
      </g>
     </g>
    </g>
    <g id="xtick_7">
     <g id="line2d_7">
      <g>
       <use style="stroke:#000000;stroke-width:0.8;" x="594.564882" xlink:href="#md6cdfa4d5b" y="460.8"/>
      </g>
     </g>
     <g id="text_7">
      <!-- 2021-07 -->
      <g transform="translate(549.895097 500.766215)rotate(-30)scale(0.12 -0.12)">
       <use xlink:href="#DejaVuSans-50"/>
       <use x="63.623047" xlink:href="#DejaVuSans-48"/>
       <use x="127.246094" xlink:href="#DejaVuSans-50"/>
       <use x="190.869141" xlink:href="#DejaVuSans-49"/>
       <use x="254.492188" xlink:href="#DejaVuSans-45"/>
       <use x="290.576172" xlink:href="#DejaVuSans-48"/>
       <use x="354.199219" xlink:href="#DejaVuSans-55"/>
      </g>
     </g>
    </g>
    <g id="xtick_8">
     <g id="line2d_8">
      <g>
       <use style="stroke:#000000;stroke-width:0.8;" x="671.281196" xlink:href="#md6cdfa4d5b" y="460.8"/>
      </g>
     </g>
     <g id="text_8">
      <!-- 2021-10 -->
      <g transform="translate(626.611411 500.766215)rotate(-30)scale(0.12 -0.12)">
       <use xlink:href="#DejaVuSans-50"/>
       <use x="63.623047" xlink:href="#DejaVuSans-48"/>
       <use x="127.246094" xlink:href="#DejaVuSans-50"/>
       <use x="190.869141" xlink:href="#DejaVuSans-49"/>
       <use x="254.492188" xlink:href="#DejaVuSans-45"/>
       <use x="290.576172" xlink:href="#DejaVuSans-49"/>
       <use x="354.199219" xlink:href="#DejaVuSans-48"/>
      </g>
     </g>
    </g>
    <g id="xtick_9">
     <g id="line2d_9">
      <g>
       <use style="stroke:#000000;stroke-width:0.8;" x="747.997509" xlink:href="#md6cdfa4d5b" y="460.8"/>
      </g>
     </g>
     <g id="text_9">
      <!-- 2022-01 -->
      <g transform="translate(703.327724 500.766215)rotate(-30)scale(0.12 -0.12)">
       <use xlink:href="#DejaVuSans-50"/>
       <use x="63.623047" xlink:href="#DejaVuSans-48"/>
       <use x="127.246094" xlink:href="#DejaVuSans-50"/>
       <use x="190.869141" xlink:href="#DejaVuSans-50"/>
       <use x="254.492188" xlink:href="#DejaVuSans-45"/>
       <use x="290.576172" xlink:href="#DejaVuSans-48"/>
       <use x="354.199219" xlink:href="#DejaVuSans-49"/>
      </g>
     </g>
    </g>
    <g id="text_10">
     <!-- Date -->
     <g transform="translate(424.873828 518.325146)scale(0.15 -0.15)">
      <defs>
       <path d="M 19.671875 64.796875 
L 19.671875 8.109375 
L 31.59375 8.109375 
Q 46.6875 8.109375 53.6875 14.9375 
Q 60.6875 21.78125 60.6875 36.53125 
Q 60.6875 51.171875 53.6875 57.984375 
Q 46.6875 64.796875 31.59375 64.796875 
z
M 9.8125 72.90625 
L 30.078125 72.90625 
Q 51.265625 72.90625 61.171875 64.09375 
Q 71.09375 55.28125 71.09375 36.53125 
Q 71.09375 17.671875 61.125 8.828125 
Q 51.171875 0 30.078125 0 
L 9.8125 0 
z
" id="DejaVuSans-68"/>
       <path d="M 34.28125 27.484375 
Q 23.390625 27.484375 19.1875 25 
Q 14.984375 22.515625 14.984375 16.5 
Q 14.984375 11.71875 18.140625 8.90625 
Q 21.296875 6.109375 26.703125 6.109375 
Q 34.1875 6.109375 38.703125 11.40625 
Q 43.21875 16.703125 43.21875 25.484375 
L 43.21875 27.484375 
z
M 52.203125 31.203125 
L 52.203125 0 
L 43.21875 0 
L 43.21875 8.296875 
Q 40.140625 3.328125 35.546875 0.953125 
Q 30.953125 -1.421875 24.3125 -1.421875 
Q 15.921875 -1.421875 10.953125 3.296875 
Q 6 8.015625 6 15.921875 
Q 6 25.140625 12.171875 29.828125 
Q 18.359375 34.515625 30.609375 34.515625 
L 43.21875 34.515625 
L 43.21875 35.40625 
Q 43.21875 41.609375 39.140625 45 
Q 35.0625 48.390625 27.6875 48.390625 
Q 23 48.390625 18.546875 47.265625 
Q 14.109375 46.140625 10.015625 43.890625 
L 10.015625 52.203125 
Q 14.9375 54.109375 19.578125 55.046875 
Q 24.21875 56 28.609375 56 
Q 40.484375 56 46.34375 49.84375 
Q 52.203125 43.703125 52.203125 31.203125 
z
" id="DejaVuSans-97"/>
       <path d="M 18.3125 70.21875 
L 18.3125 54.6875 
L 36.8125 54.6875 
L 36.8125 47.703125 
L 18.3125 47.703125 
L 18.3125 18.015625 
Q 18.3125 11.328125 20.140625 9.421875 
Q 21.96875 7.515625 27.59375 7.515625 
L 36.8125 7.515625 
L 36.8125 0 
L 27.59375 0 
Q 17.1875 0 13.234375 3.875 
Q 9.28125 7.765625 9.28125 18.015625 
L 9.28125 47.703125 
L 2.6875 47.703125 
L 2.6875 54.6875 
L 9.28125 54.6875 
L 9.28125 70.21875 
z
" id="DejaVuSans-116"/>
       <path d="M 56.203125 29.59375 
L 56.203125 25.203125 
L 14.890625 25.203125 
Q 15.484375 15.921875 20.484375 11.0625 
Q 25.484375 6.203125 34.421875 6.203125 
Q 39.59375 6.203125 44.453125 7.46875 
Q 49.3125 8.734375 54.109375 11.28125 
L 54.109375 2.78125 
Q 49.265625 0.734375 44.1875 -0.34375 
Q 39.109375 -1.421875 33.890625 -1.421875 
Q 20.796875 -1.421875 13.15625 6.1875 
Q 5.515625 13.8125 5.515625 26.8125 
Q 5.515625 40.234375 12.765625 48.109375 
Q 20.015625 56 32.328125 56 
Q 43.359375 56 49.78125 48.890625 
Q 56.203125 41.796875 56.203125 29.59375 
z
M 47.21875 32.234375 
Q 47.125 39.59375 43.09375 43.984375 
Q 39.0625 48.390625 32.421875 48.390625 
Q 24.90625 48.390625 20.390625 44.140625 
Q 15.875 39.890625 15.1875 32.171875 
z
" id="DejaVuSans-101"/>
      </defs>
      <use xlink:href="#DejaVuSans-68"/>
      <use x="77.001953" xlink:href="#DejaVuSans-97"/>
      <use x="138.28125" xlink:href="#DejaVuSans-116"/>
      <use x="177.490234" xlink:href="#DejaVuSans-101"/>
     </g>
    </g>
   </g>
   <g id="matplotlib.axis_2">
    <g id="ytick_1">
     <g id="line2d_10">
      <defs>
       <path d="M 0 0 
L -3.5 0 
" id="mad5dbfc03d" style="stroke:#000000;stroke-width:0.8;"/>
      </defs>
      <g>
       <use style="stroke:#000000;stroke-width:0.8;" x="108" xlink:href="#mad5dbfc03d" y="405.272983"/>
      </g>
     </g>
     <g id="text_11">
      <!-- −50 -->
      <g transform="translate(75.674375 409.832045)scale(0.12 -0.12)">
       <defs>
        <path d="M 10.59375 35.5 
L 73.1875 35.5 
L 73.1875 27.203125 
L 10.59375 27.203125 
z
" id="DejaVuSans-8722"/>
        <path d="M 10.796875 72.90625 
L 49.515625 72.90625 
L 49.515625 64.59375 
L 19.828125 64.59375 
L 19.828125 46.734375 
Q 21.96875 47.46875 24.109375 47.828125 
Q 26.265625 48.1875 28.421875 48.1875 
Q 40.625 48.1875 47.75 41.5 
Q 54.890625 34.8125 54.890625 23.390625 
Q 54.890625 11.625 47.5625 5.09375 
Q 40.234375 -1.421875 26.90625 -1.421875 
Q 22.3125 -1.421875 17.546875 -0.640625 
Q 12.796875 0.140625 7.71875 1.703125 
L 7.71875 11.625 
Q 12.109375 9.234375 16.796875 8.0625 
Q 21.484375 6.890625 26.703125 6.890625 
Q 35.15625 6.890625 40.078125 11.328125 
Q 45.015625 15.765625 45.015625 23.390625 
Q 45.015625 31 40.078125 35.4375 
Q 35.15625 39.890625 26.703125 39.890625 
Q 22.75 39.890625 18.8125 39.015625 
Q 14.890625 38.140625 10.796875 36.28125 
z
" id="DejaVuSans-53"/>
       </defs>
       <use xlink:href="#DejaVuSans-8722"/>
       <use x="83.789062" xlink:href="#DejaVuSans-53"/>
       <use x="147.412109" xlink:href="#DejaVuSans-48"/>
      </g>
     </g>
    </g>
    <g id="ytick_2">
     <g id="line2d_11">
      <g>
       <use style="stroke:#000000;stroke-width:0.8;" x="108" xlink:href="#mad5dbfc03d" y="323.752648"/>
      </g>
     </g>
     <g id="text_12">
      <!-- 0 -->
      <g transform="translate(93.365 328.311711)scale(0.12 -0.12)">
       <use xlink:href="#DejaVuSans-48"/>
      </g>
     </g>
    </g>
    <g id="ytick_3">
     <g id="line2d_12">
      <g>
       <use style="stroke:#000000;stroke-width:0.8;" x="108" xlink:href="#mad5dbfc03d" y="242.232313"/>
      </g>
     </g>
     <g id="text_13">
      <!-- 50 -->
      <g transform="translate(85.73 246.791376)scale(0.12 -0.12)">
       <use xlink:href="#DejaVuSans-53"/>
       <use x="63.623047" xlink:href="#DejaVuSans-48"/>
      </g>
     </g>
    </g>
    <g id="ytick_4">
     <g id="line2d_13">
      <g>
       <use style="stroke:#000000;stroke-width:0.8;" x="108" xlink:href="#mad5dbfc03d" y="160.711978"/>
      </g>
     </g>
     <g id="text_14">
      <!-- 100 -->
      <g transform="translate(78.095 165.271041)scale(0.12 -0.12)">
       <use xlink:href="#DejaVuSans-49"/>
       <use x="63.623047" xlink:href="#DejaVuSans-48"/>
       <use x="127.246094" xlink:href="#DejaVuSans-48"/>
      </g>
     </g>
    </g>
    <g id="ytick_5">
     <g id="line2d_14">
      <g>
       <use style="stroke:#000000;stroke-width:0.8;" x="108" xlink:href="#mad5dbfc03d" y="79.191644"/>
      </g>
     </g>
     <g id="text_15">
      <!-- 150 -->
      <g transform="translate(78.095 83.750706)scale(0.12 -0.12)">
       <use xlink:href="#DejaVuSans-49"/>
       <use x="63.623047" xlink:href="#DejaVuSans-53"/>
       <use x="127.246094" xlink:href="#DejaVuSans-48"/>
      </g>
     </g>
    </g>
    <g id="text_16">
     <!-- PM10(micro-gram/m3) -->
     <g transform="translate(68.554844 349.562344)rotate(-90)scale(0.15 -0.15)">
      <defs>
       <path d="M 19.671875 64.796875 
L 19.671875 37.40625 
L 32.078125 37.40625 
Q 38.96875 37.40625 42.71875 40.96875 
Q 46.484375 44.53125 46.484375 51.125 
Q 46.484375 57.671875 42.71875 61.234375 
Q 38.96875 64.796875 32.078125 64.796875 
z
M 9.8125 72.90625 
L 32.078125 72.90625 
Q 44.34375 72.90625 50.609375 67.359375 
Q 56.890625 61.8125 56.890625 51.125 
Q 56.890625 40.328125 50.609375 34.8125 
Q 44.34375 29.296875 32.078125 29.296875 
L 19.671875 29.296875 
L 19.671875 0 
L 9.8125 0 
z
" id="DejaVuSans-80"/>
       <path d="M 9.8125 72.90625 
L 24.515625 72.90625 
L 43.109375 23.296875 
L 61.8125 72.90625 
L 76.515625 72.90625 
L 76.515625 0 
L 66.890625 0 
L 66.890625 64.015625 
L 48.09375 14.015625 
L 38.1875 14.015625 
L 19.390625 64.015625 
L 19.390625 0 
L 9.8125 0 
z
" id="DejaVuSans-77"/>
       <path d="M 31 75.875 
Q 24.46875 64.65625 21.28125 53.65625 
Q 18.109375 42.671875 18.109375 31.390625 
Q 18.109375 20.125 21.3125 9.0625 
Q 24.515625 -2 31 -13.1875 
L 23.1875 -13.1875 
Q 15.875 -1.703125 12.234375 9.375 
Q 8.59375 20.453125 8.59375 31.390625 
Q 8.59375 42.28125 12.203125 53.3125 
Q 15.828125 64.359375 23.1875 75.875 
z
" id="DejaVuSans-40"/>
       <path d="M 52 44.1875 
Q 55.375 50.25 60.0625 53.125 
Q 64.75 56 71.09375 56 
Q 79.640625 56 84.28125 50.015625 
Q 88.921875 44.046875 88.921875 33.015625 
L 88.921875 0 
L 79.890625 0 
L 79.890625 32.71875 
Q 79.890625 40.578125 77.09375 44.375 
Q 74.3125 48.1875 68.609375 48.1875 
Q 61.625 48.1875 57.5625 43.546875 
Q 53.515625 38.921875 53.515625 30.90625 
L 53.515625 0 
L 44.484375 0 
L 44.484375 32.71875 
Q 44.484375 40.625 41.703125 44.40625 
Q 38.921875 48.1875 33.109375 48.1875 
Q 26.21875 48.1875 22.15625 43.53125 
Q 18.109375 38.875 18.109375 30.90625 
L 18.109375 0 
L 9.078125 0 
L 9.078125 54.6875 
L 18.109375 54.6875 
L 18.109375 46.1875 
Q 21.1875 51.21875 25.484375 53.609375 
Q 29.78125 56 35.6875 56 
Q 41.65625 56 45.828125 52.96875 
Q 50 49.953125 52 44.1875 
z
" id="DejaVuSans-109"/>
       <path d="M 9.421875 54.6875 
L 18.40625 54.6875 
L 18.40625 0 
L 9.421875 0 
z
M 9.421875 75.984375 
L 18.40625 75.984375 
L 18.40625 64.59375 
L 9.421875 64.59375 
z
" id="DejaVuSans-105"/>
       <path d="M 48.78125 52.59375 
L 48.78125 44.1875 
Q 44.96875 46.296875 41.140625 47.34375 
Q 37.3125 48.390625 33.40625 48.390625 
Q 24.65625 48.390625 19.8125 42.84375 
Q 14.984375 37.3125 14.984375 27.296875 
Q 14.984375 17.28125 19.8125 11.734375 
Q 24.65625 6.203125 33.40625 6.203125 
Q 37.3125 6.203125 41.140625 7.25 
Q 44.96875 8.296875 48.78125 10.40625 
L 48.78125 2.09375 
Q 45.015625 0.34375 40.984375 -0.53125 
Q 36.96875 -1.421875 32.421875 -1.421875 
Q 20.0625 -1.421875 12.78125 6.34375 
Q 5.515625 14.109375 5.515625 27.296875 
Q 5.515625 40.671875 12.859375 48.328125 
Q 20.21875 56 33.015625 56 
Q 37.15625 56 41.109375 55.140625 
Q 45.0625 54.296875 48.78125 52.59375 
z
" id="DejaVuSans-99"/>
       <path d="M 41.109375 46.296875 
Q 39.59375 47.171875 37.8125 47.578125 
Q 36.03125 48 33.890625 48 
Q 26.265625 48 22.1875 43.046875 
Q 18.109375 38.09375 18.109375 28.8125 
L 18.109375 0 
L 9.078125 0 
L 9.078125 54.6875 
L 18.109375 54.6875 
L 18.109375 46.1875 
Q 20.953125 51.171875 25.484375 53.578125 
Q 30.03125 56 36.53125 56 
Q 37.453125 56 38.578125 55.875 
Q 39.703125 55.765625 41.0625 55.515625 
z
" id="DejaVuSans-114"/>
       <path d="M 30.609375 48.390625 
Q 23.390625 48.390625 19.1875 42.75 
Q 14.984375 37.109375 14.984375 27.296875 
Q 14.984375 17.484375 19.15625 11.84375 
Q 23.34375 6.203125 30.609375 6.203125 
Q 37.796875 6.203125 41.984375 11.859375 
Q 46.1875 17.53125 46.1875 27.296875 
Q 46.1875 37.015625 41.984375 42.703125 
Q 37.796875 48.390625 30.609375 48.390625 
z
M 30.609375 56 
Q 42.328125 56 49.015625 48.375 
Q 55.71875 40.765625 55.71875 27.296875 
Q 55.71875 13.875 49.015625 6.21875 
Q 42.328125 -1.421875 30.609375 -1.421875 
Q 18.84375 -1.421875 12.171875 6.21875 
Q 5.515625 13.875 5.515625 27.296875 
Q 5.515625 40.765625 12.171875 48.375 
Q 18.84375 56 30.609375 56 
z
" id="DejaVuSans-111"/>
       <path d="M 45.40625 27.984375 
Q 45.40625 37.75 41.375 43.109375 
Q 37.359375 48.484375 30.078125 48.484375 
Q 22.859375 48.484375 18.828125 43.109375 
Q 14.796875 37.75 14.796875 27.984375 
Q 14.796875 18.265625 18.828125 12.890625 
Q 22.859375 7.515625 30.078125 7.515625 
Q 37.359375 7.515625 41.375 12.890625 
Q 45.40625 18.265625 45.40625 27.984375 
z
M 54.390625 6.78125 
Q 54.390625 -7.171875 48.1875 -13.984375 
Q 42 -20.796875 29.203125 -20.796875 
Q 24.46875 -20.796875 20.265625 -20.09375 
Q 16.0625 -19.390625 12.109375 -17.921875 
L 12.109375 -9.1875 
Q 16.0625 -11.328125 19.921875 -12.34375 
Q 23.78125 -13.375 27.78125 -13.375 
Q 36.625 -13.375 41.015625 -8.765625 
Q 45.40625 -4.15625 45.40625 5.171875 
L 45.40625 9.625 
Q 42.625 4.78125 38.28125 2.390625 
Q 33.9375 0 27.875 0 
Q 17.828125 0 11.671875 7.65625 
Q 5.515625 15.328125 5.515625 27.984375 
Q 5.515625 40.671875 11.671875 48.328125 
Q 17.828125 56 27.875 56 
Q 33.9375 56 38.28125 53.609375 
Q 42.625 51.21875 45.40625 46.390625 
L 45.40625 54.6875 
L 54.390625 54.6875 
z
" id="DejaVuSans-103"/>
       <path d="M 25.390625 72.90625 
L 33.6875 72.90625 
L 8.296875 -9.28125 
L 0 -9.28125 
z
" id="DejaVuSans-47"/>
       <path d="M 40.578125 39.3125 
Q 47.65625 37.796875 51.625 33 
Q 55.609375 28.21875 55.609375 21.1875 
Q 55.609375 10.40625 48.1875 4.484375 
Q 40.765625 -1.421875 27.09375 -1.421875 
Q 22.515625 -1.421875 17.65625 -0.515625 
Q 12.796875 0.390625 7.625 2.203125 
L 7.625 11.71875 
Q 11.71875 9.328125 16.59375 8.109375 
Q 21.484375 6.890625 26.8125 6.890625 
Q 36.078125 6.890625 40.9375 10.546875 
Q 45.796875 14.203125 45.796875 21.1875 
Q 45.796875 27.640625 41.28125 31.265625 
Q 36.765625 34.90625 28.71875 34.90625 
L 20.21875 34.90625 
L 20.21875 43.015625 
L 29.109375 43.015625 
Q 36.375 43.015625 40.234375 45.921875 
Q 44.09375 48.828125 44.09375 54.296875 
Q 44.09375 59.90625 40.109375 62.90625 
Q 36.140625 65.921875 28.71875 65.921875 
Q 24.65625 65.921875 20.015625 65.03125 
Q 15.375 64.15625 9.8125 62.3125 
L 9.8125 71.09375 
Q 15.4375 72.65625 20.34375 73.4375 
Q 25.25 74.21875 29.59375 74.21875 
Q 40.828125 74.21875 47.359375 69.109375 
Q 53.90625 64.015625 53.90625 55.328125 
Q 53.90625 49.265625 50.4375 45.09375 
Q 46.96875 40.921875 40.578125 39.3125 
z
" id="DejaVuSans-51"/>
       <path d="M 8.015625 75.875 
L 15.828125 75.875 
Q 23.140625 64.359375 26.78125 53.3125 
Q 30.421875 42.28125 30.421875 31.390625 
Q 30.421875 20.453125 26.78125 9.375 
Q 23.140625 -1.703125 15.828125 -13.1875 
L 8.015625 -13.1875 
Q 14.5 -2 17.703125 9.0625 
Q 20.90625 20.125 20.90625 31.390625 
Q 20.90625 42.671875 17.703125 53.65625 
Q 14.5 64.65625 8.015625 75.875 
z
" id="DejaVuSans-41"/>
      </defs>
      <use xlink:href="#DejaVuSans-80"/>
      <use x="60.302734" xlink:href="#DejaVuSans-77"/>
      <use x="146.582031" xlink:href="#DejaVuSans-49"/>
      <use x="210.205078" xlink:href="#DejaVuSans-48"/>
      <use x="273.828125" xlink:href="#DejaVuSans-40"/>
      <use x="312.841797" xlink:href="#DejaVuSans-109"/>
      <use x="410.253906" xlink:href="#DejaVuSans-105"/>
      <use x="438.037109" xlink:href="#DejaVuSans-99"/>
      <use x="493.017578" xlink:href="#DejaVuSans-114"/>
      <use x="531.880859" xlink:href="#DejaVuSans-111"/>
      <use x="594.9375" xlink:href="#DejaVuSans-45"/>
      <use x="631.021484" xlink:href="#DejaVuSans-103"/>
      <use x="694.498047" xlink:href="#DejaVuSans-114"/>
      <use x="735.611328" xlink:href="#DejaVuSans-97"/>
      <use x="796.890625" xlink:href="#DejaVuSans-109"/>
      <use x="894.302734" xlink:href="#DejaVuSans-47"/>
      <use x="927.994141" xlink:href="#DejaVuSans-109"/>
      <use x="1025.40625" xlink:href="#DejaVuSans-51"/>
      <use x="1089.029297" xlink:href="#DejaVuSans-41"/>
     </g>
    </g>
   </g>
   <g id="line2d_15">
    <path clip-path="url(#p24aaefbd51)" d="M 138.436364 241.892645 
L 139.270237 234.576491 
L 140.10411 213.700196 
L 140.937983 217.300678 
L 141.771856 250.995749 
L 142.605729 248.957741 
L 143.439601 227.830387 
L 144.273474 217.028943 
L 145.107347 229.528728 
L 145.94122 228.985259 
L 146.775093 207.518237 
L 147.608966 226.064114 
L 148.442839 216.961009 
L 149.276712 234.148213 
L 150.110585 218.839522 
L 150.944458 218.455549 
L 151.778331 242.436114 
L 152.612204 240.873641 
L 153.446077 219.270752 
L 154.27995 244.066521 
L 155.113823 222.667433 
L 155.947696 230.683599 
L 156.781569 242.436114 
L 157.615442 260.642322 
L 158.449315 265.329741 
L 159.283188 285.370157 
L 160.117061 288.902705 
L 160.950934 283.196282 
L 161.784807 262.612397 
L 162.61868 256.905974 
L 163.452553 255.207633 
L 164.286426 245.017591 
L 165.120299 239.582902 
L 165.954172 242.639915 
L 166.788045 275.519783 
L 167.621918 270.912649 
L 168.455791 254.460363 
L 169.289664 245.832795 
L 170.123537 289.174439 
L 170.95741 276.878456 
L 171.791283 262.272729 
L 173.459029 238.495965 
L 174.292902 273.95731 
L 175.126775 273.549709 
L 175.960648 262.612397 
L 176.794521 295.356398 
L 177.628394 275.315982 
L 178.462267 274.099353 
L 179.296139 258.808115 
L 180.130012 257.78911 
L 180.963885 259.962986 
L 181.797758 234.895483 
L 182.631631 237.748695 
L 183.465504 223.482636 
L 184.299377 233.536811 
L 185.13325 256.831864 
L 185.967123 266.009078 
L 186.800996 254.800032 
L 187.634869 259.079849 
L 188.468742 253.577227 
L 189.302615 258.604314 
L 190.136488 253.713094 
L 190.970361 277.534163 
L 191.804234 282.04141 
L 192.638107 255.615235 
L 193.47198 220.833225 
L 194.305853 257.313575 
L 195.139726 261.049924 
L 195.973599 263.495534 
L 196.807472 250.656081 
L 197.641345 205.072627 
L 198.475218 199.094469 
L 199.309091 260.98199 
L 200.142964 218.455549 
L 200.976837 211.32252 
L 201.81071 211.750797 
L 202.644583 227.083118 
L 203.478456 256.226637 
L 204.312329 223.890238 
L 205.146202 220.629425 
L 205.980075 241.41711 
L 206.813948 250.791948 
L 207.647821 241.948764 
L 208.481694 246.240396 
L 209.315567 247.667002 
L 210.14944 258.604314 
L 210.983313 255.071766 
L 211.817186 257.924978 
L 212.651059 264.17487 
L 213.484932 257.924978 
L 214.318804 238.360097 
L 215.152677 223.754371 
L 215.98655 262.272729 
L 216.820423 269.405758 
L 217.654296 282.449012 
L 218.488169 279.324066 
L 219.322042 254.850243 
L 220.155915 227.083118 
L 220.989788 247.123533 
L 221.823661 240.805707 
L 222.657534 212.137723 
L 223.491407 261.117857 
L 224.32528 247.123533 
L 225.993026 194.746718 
L 226.826899 238.360097 
L 227.660772 254.120695 
L 228.494645 237.884562 
L 230.162391 250.526121 
L 230.996264 267.096015 
L 231.830137 276.606721 
L 232.66401 267.028082 
L 233.497883 251.335417 
L 234.331756 223.346769 
L 235.165629 152.016476 
L 235.999502 175.045971 
L 236.833375 221.444628 
L 238.501121 235.846554 
L 239.334994 262.15163 
L 240.168867 245.425193 
L 241.00274 251.94682 
L 241.836613 262.204795 
L 242.670486 260.946547 
L 243.504359 263.019999 
L 244.338232 269.337825 
L 245.172105 266.144945 
L 246.005978 259.215716 
L 246.839851 270.56063 
L 247.673724 262.680331 
L 248.507597 242.436114 
L 249.341469 217.300678 
L 251.843088 279.120265 
L 252.676961 272.870372 
L 253.510834 268.862289 
L 254.344707 268.386754 
L 255.17858 273.422702 
L 256.012453 249.321038 
L 256.846326 252.69409 
L 257.680199 286.049493 
L 258.514072 282.449012 
L 259.347945 284.826688 
L 260.181818 258.111057 
L 261.015691 240.533973 
L 261.849564 234.419948 
L 262.683437 263.631401 
L 263.51731 284.622887 
L 264.351183 273.549709 
L 265.185056 265.66941 
L 266.018929 274.415124 
L 266.852802 265.193874 
L 267.686675 265.837767 
L 268.520548 260.846123 
L 269.354421 282.109344 
L 270.188294 267.435683 
L 271.022167 264.106936 
L 271.85604 250.316413 
L 272.689913 265.533542 
L 273.523786 267.255512 
L 274.357659 285.166356 
L 275.191532 281.09034 
L 276.025405 284.962555 
L 276.859278 264.854206 
L 277.693151 284.919325 
L 278.527024 271.987235 
L 279.360897 271.5117 
L 280.19477 268.658488 
L 281.028643 266.892215 
L 281.862516 274.70458 
L 282.696389 259.147783 
L 283.530262 257.402184 
L 284.364134 248.957741 
L 285.198007 266.688414 
L 286.03188 259.691252 
L 286.865753 269.337825 
L 287.699626 281.29414 
L 288.533499 281.430008 
L 289.367372 275.383916 
L 290.201245 293.386323 
L 291.035118 272.075845 
L 291.868991 269.134024 
L 292.702864 262.612397 
L 293.536737 274.772514 
L 294.37061 265.941144 
L 295.204483 258.468447 
L 296.038356 245.832795 
L 296.872229 243.726853 
L 297.706102 253.237558 
L 298.539975 250.588148 
L 299.373848 277.761593 
L 300.207721 260.438521 
L 301.041594 249.161542 
L 301.875467 242.911649 
L 302.70934 252.440077 
L 303.543213 255.411434 
L 304.377086 260.438521 
L 305.210959 270.085094 
L 306.044832 262.15163 
L 306.878705 289.106506 
L 307.712578 288.087502 
L 308.546451 282.381078 
L 309.380324 259.147783 
L 310.214197 247.0556 
L 311.04807 255.003832 
L 311.881943 255.886969 
L 312.715816 259.351584 
L 313.549689 282.856613 
L 314.383562 286.324181 
L 315.217435 282.245211 
L 316.051308 283.288918 
L 316.885181 296.258062 
L 317.719054 300.111751 
L 318.552927 293.114589 
L 319.3868 283.060414 
L 320.220672 286.864697 
L 321.054545 281.158273 
L 321.888418 289.106506 
L 322.722291 282.245211 
L 323.556164 257.313575 
L 324.390037 264.92214 
L 325.22391 285.260873 
L 326.057783 285.166356 
L 326.891656 278.88102 
L 327.725529 258.943982 
L 328.559402 289.514107 
L 329.393275 282.720746 
L 330.227148 269.337825 
L 331.061021 285.506024 
L 331.894894 280.614804 
L 332.728767 249.569143 
L 333.56264 243.319251 
L 334.396513 264.786273 
L 335.230386 237.544894 
L 336.064259 258.614019 
L 336.898132 240.805707 
L 337.732005 252.156528 
L 338.565878 226.607582 
L 339.399751 234.623749 
L 340.233624 240.262238 
L 341.067497 254.732098 
L 343.569116 171.105821 
L 345.236862 272.394837 
L 346.070735 271.647567 
L 346.904608 285.302223 
L 347.738481 293.114589 
L 349.406227 223.530589 
L 350.2401 232.653674 
L 351.073973 269.677493 
L 352.741719 278.305061 
L 353.575592 286.457095 
L 354.409465 285.438091 
L 355.243337 282.245211 
L 356.07721 288.42717 
L 356.911083 280.886539 
L 357.744956 292.57112 
L 358.578829 292.027651 
L 359.412702 267.503617 
L 360.246575 268.389708 
L 361.914321 242.843716 
L 362.748194 251.267484 
L 363.582067 257.517376 
L 364.41594 261.593393 
L 365.249813 282.449012 
L 366.083686 283.332149 
L 367.751432 250.859882 
L 368.585305 255.547301 
L 369.419178 239.582902 
L 370.253051 245.357259 
L 371.086924 234.623749 
L 371.920797 245.989337 
L 372.75467 238.22423 
L 373.588543 214.175731 
L 374.422416 196.648859 
L 375.256289 208.537242 
L 376.090162 210.779051 
L 376.924035 273.481775 
L 377.757908 250.927816 
L 378.591781 248.550139 
L 379.425654 227.490719 
L 380.259527 227.083118 
L 381.0934 230.819466 
L 381.927273 233.876479 
L 382.761146 228.551074 
L 383.595019 225.180977 
L 384.428892 218.115881 
L 385.262765 189.855498 
L 386.096638 177.763315 
L 386.930511 191.893506 
L 387.764384 217.504478 
L 388.598257 225.180977 
L 389.43213 238.22423 
L 390.266002 234.963417 
L 391.099875 215.874072 
L 391.933748 219.678354 
L 392.767621 219.134885 
L 393.601494 177.151913 
L 394.435367 222.599499 
L 395.26924 198.686868 
L 396.103113 227.771315 
L 396.936986 139.448758 
L 397.770859 180.820328 
L 398.604732 171.717224 
L 399.438605 164.176593 
L 400.272478 161.255447 
L 401.106351 193.048378 
L 401.940224 211.254586 
L 402.774097 206.159565 
L 403.60797 208.401374 
L 404.441843 225.588578 
L 405.275716 227.966255 
L 406.109589 255.275567 
L 406.943462 262.364292 
L 407.777335 265.533542 
L 408.611208 267.299816 
L 409.445081 262.272729 
L 410.278954 267.503617 
L 411.112827 228.44179 
L 411.9467 200.860743 
L 412.780573 219.406619 
L 413.614446 213.700196 
L 414.448319 209.148644 
L 416.116065 231.838471 
L 416.949938 225.928246 
L 417.783811 216.689275 
L 418.617684 210.846984 
L 419.451557 219.123071 
L 420.28543 215.194736 
L 421.119303 195.358121 
L 422.787049 137.663956 
L 423.620922 179.937191 
L 424.454795 170.222684 
L 425.288667 156.432161 
L 426.12254 177.967116 
L 426.956413 166.737394 
L 427.790286 243.519476 
L 428.624159 207.110636 
L 429.458032 244.205963 
L 430.291905 229.543496 
L 431.125778 198.686868 
L 431.959651 219.950088 
L 432.793524 210.846984 
L 433.627397 191.621772 
L 434.46127 175.113904 
L 435.295143 161.051646 
L 436.129016 143.25304 
L 436.962889 207.722038 
L 437.796762 189.379963 
L 438.630635 214.039864 
L 439.464508 153.986551 
L 440.298381 201.132478 
L 441.132254 216.783791 
L 441.966127 181.227929 
L 442.8 218.523483 
L 443.633873 228.44179 
L 444.467746 228.373856 
L 445.301619 197.735797 
L 446.135492 187.885423 
L 446.969365 143.660642 
L 447.803238 194.882585 
L 448.637111 166.078734 
L 449.470984 214.243665 
L 450.304857 221.85223 
L 451.13873 211.390453 
L 451.972603 214.651267 
L 452.806476 179.73339 
L 453.640349 151.676808 
L 454.474222 135.121682 
L 455.308095 169.339547 
L 456.141968 176.200842 
L 456.975841 98.824458 
L 457.809714 132.111928 
L 459.47746 210.643184 
L 460.311333 167.50534 
L 461.145205 187.681623 
L 461.979078 174.125779 
L 462.812951 192.70871 
L 463.646824 224.637508 
L 464.480697 197.260262 
L 465.31457 204.874734 
L 466.148443 201.755695 
L 466.982316 230.955334 
L 467.816189 185.303946 
L 468.650062 242.707849 
L 469.483935 236.118288 
L 470.317808 208.87691 
L 471.151681 211.186652 
L 471.985554 217.436545 
L 472.819427 231.702603 
L 473.6533 228.305923 
L 474.487173 228.917325 
L 475.321046 229.121126 
L 476.154919 220.611703 
L 476.988792 285.23429 
L 477.822665 282.992481 
L 478.656538 270.76443 
L 479.490411 262.680331 
L 480.324284 258.060845 
L 481.158157 246.376264 
L 481.99203 244.60999 
L 482.825903 259.555384 
L 483.659776 234.691682 
L 484.493649 229.732529 
L 485.327522 232.857475 
L 486.161395 234.623749 
L 486.995268 242.096446 
L 487.829141 241.145375 
L 488.663014 241.145375 
L 489.496887 260.733885 
L 490.33076 268.250887 
L 491.164633 247.0556 
L 491.998506 248.00667 
L 492.832379 246.919733 
L 493.666252 254.800032 
L 494.500125 247.870803 
L 495.333998 224.841308 
L 496.16787 218.455549 
L 497.001743 221.648429 
L 497.835616 251.675085 
L 498.669489 260.025012 
L 499.503362 232.733422 
L 500.337235 240.533973 
L 501.171108 259.487451 
L 502.004981 235.099284 
L 502.838854 237.952496 
L 503.672727 234.732442 
L 504.5066 254.256563 
L 505.340473 242.707849 
L 506.174346 252.150621 
L 507.008219 256.83804 
L 507.842092 266.824281 
L 508.675965 261.797194 
L 509.509838 208.265507 
L 510.343711 203.170486 
L 511.177584 129.870118 
L 512.011457 103.718631 
L 512.84533 157.525274 
L 513.679203 239.582902 
L 514.513076 238.292164 
L 515.346949 201.064544 
L 516.180822 240.262238 
L 517.014695 243.387185 
L 517.848568 240.194305 
L 519.516314 260.438521 
L 520.350187 260.778189 
L 521.18406 213.292594 
L 522.017933 234.895483 
L 522.851806 218.863151 
L 523.685679 238.9715 
L 524.519552 227.422786 
L 525.353425 258.678155 
L 526.187298 234.509334 
L 527.021171 252.218554 
L 527.855044 259.895052 
L 528.688917 249.50121 
L 529.52279 251.675085 
L 530.356663 252.762023 
L 531.190535 251.94682 
L 532.024408 248.889807 
L 532.858281 123.280558 
L 533.692154 159.294233 
L 534.526027 217.844146 
L 535.3599 215.738204 
L 536.193773 207.586171 
L 537.027646 210.439383 
L 537.861519 248.821874 
L 538.695392 250.45228 
L 539.529265 256.09077 
L 540.363138 277.421924 
L 541.197011 255.3435 
L 542.030884 217.504478 
L 542.864757 221.240827 
L 543.69863 250.724015 
L 544.532503 259.555384 
L 545.366376 253.713094 
L 546.200249 257.517376 
L 547.034122 246.30833 
L 547.867995 224.226952 
L 548.701868 236.52589 
L 549.535741 236.050355 
L 550.369614 258.060845 
L 551.203487 269.609559 
L 552.03736 270.085094 
L 552.871233 265.737343 
L 553.705106 254.42492 
L 554.538979 261.593393 
L 555.372852 271.375833 
L 556.206725 276.199119 
L 557.040598 277.218124 
L 557.874471 275.45185 
L 558.708344 273.142107 
L 559.542217 276.100307 
L 560.37609 281.29414 
L 561.209963 287.6799 
L 562.043836 297.598207 
L 562.877709 290.668979 
L 563.711582 295.084664 
L 564.545455 285.777759 
L 565.379328 283.128348 
L 566.2132 282.516945 
L 567.047073 277.829526 
L 567.880946 268.998157 
L 568.714819 267.843285 
L 569.548692 294.541195 
L 570.382565 280.546871 
L 571.216438 281.574736 
L 572.050311 273.413841 
L 572.884184 246.30833 
L 573.718057 226.403782 
L 574.55193 262.952065 
L 575.385803 274.840447 
L 576.219676 292.57112 
L 577.053549 290.601045 
L 577.887422 286.457095 
L 578.721295 283.671817 
L 579.555168 288.019568 
L 580.389041 281.497941 
L 581.222914 273.95731 
L 582.056787 269.677493 
L 582.89066 269.745426 
L 583.724533 269.382129 
L 585.392279 260.642322 
L 586.226152 253.848961 
L 587.060025 283.063368 
L 587.893898 289.514107 
L 588.727771 289.717908 
L 589.561644 281.905543 
L 590.395517 266.009078 
L 591.22939 259.174365 
L 592.063263 268.862289 
L 592.897136 261.797194 
L 593.731009 259.487451 
L 594.564882 262.340663 
L 595.398755 262.340663 
L 596.232628 266.892215 
L 597.900374 290.736912 
L 598.734247 291.076581 
L 599.56812 283.73975 
L 600.401993 288.902705 
L 601.235866 288.359236 
L 602.069738 297.937875 
L 602.903611 293.522191 
L 603.737484 294.948796 
L 604.571357 288.766838 
L 605.40523 288.42717 
L 606.239103 296.925047 
L 607.906849 274.486011 
L 608.740722 294.744996 
L 609.574595 301.742158 
L 610.408468 297.122672 
L 611.242341 290.12551 
L 612.076214 281.29414 
L 612.910087 255.071766 
L 613.74396 245.764861 
L 614.577833 259.351584 
L 615.411706 276.199119 
L 616.245579 239.71877 
L 617.079452 263.359667 
L 617.913325 280.546871 
L 618.747198 288.563037 
L 619.581071 277.625725 
L 620.414944 283.400082 
L 621.248817 270.628563 
L 622.08269 295.220531 
L 622.916563 261.457526 
L 623.750436 265.329741 
L 624.584309 263.155866 
L 625.418182 255.547301 
L 626.252055 261.797194 
L 627.085928 273.685576 
L 627.919801 268.047086 
L 628.753674 283.807684 
L 629.587547 286.475622 
L 630.42142 279.391999 
L 631.255293 285.777759 
L 632.089166 293.31839 
L 632.923039 290.601045 
L 633.756912 270.76443 
L 634.590785 273.413841 
L 635.424658 283.196282 
L 636.258531 283.128348 
L 637.092403 289.106506 
L 637.926276 289.649975 
L 638.760149 290.329311 
L 639.594022 290.193444 
L 640.427895 292.774921 
L 641.261768 298.685145 
L 642.095641 288.698904 
L 642.929514 287.544033 
L 643.763387 293.793925 
L 644.59726 289.921709 
L 645.431133 282.856613 
L 646.265006 295.084664 
L 647.098879 299.704149 
L 647.932752 299.772083 
L 648.766625 301.40249 
L 649.600498 302.421494 
L 650.434371 292.367319 
L 651.268244 284.622887 
L 652.102117 288.63097 
L 652.93599 264.718339 
L 653.769863 273.00624 
L 654.603736 266.688414 
L 655.437609 254.596231 
L 657.105355 287.6799 
L 657.939228 273.685576 
L 658.773101 274.772514 
L 659.606974 256.430438 
L 660.440847 263.495534 
L 661.27472 299.228614 
L 662.108593 293.250456 
L 662.942466 293.793925 
L 663.776339 300.043817 
L 664.610212 296.776828 
L 666.277958 268.590555 
L 667.945704 241.281243 
L 668.779577 240.330172 
L 669.61345 241.009508 
L 670.447323 234.691682 
L 671.281196 241.485044 
L 672.115068 268.31882 
L 672.948941 283.128348 
L 673.782814 262.068928 
L 674.616687 254.664164 
L 675.45056 242.911649 
L 677.118306 295.813406 
L 677.952179 276.40292 
L 678.786052 287.340232 
L 679.619925 247.345862 
L 680.453798 263.4276 
L 681.287671 282.652813 
L 682.121544 275.315982 
L 682.955417 261.321658 
L 683.78929 266.212878 
L 684.623163 271.987235 
L 685.457036 247.463201 
L 686.290909 231.931107 
L 687.124782 256.634239 
L 687.958655 269.745426 
L 688.792528 276.538787 
L 689.626401 243.183384 
L 690.460274 259.514624 
L 691.294147 240.351075 
L 692.12802 215.806138 
L 692.961893 220.425624 
L 693.795766 231.159134 
L 694.629639 234.691682 
L 695.463512 229.18906 
L 696.297385 227.490719 
L 697.131258 219.882155 
L 697.965131 246.30833 
L 698.799004 225.99618 
L 699.632877 242.586749 
L 700.46675 253.169625 
L 701.300623 266.077011 
L 702.134496 269.405758 
L 702.968369 268.250887 
L 703.802242 243.387185 
L 704.636115 230.568635 
L 705.469988 233.061276 
L 706.303861 216.553408 
L 707.137733 225.860313 
L 707.971606 237.544894 
L 708.805479 230.479798 
L 709.639352 191.83148 
L 710.473225 179.801323 
L 711.307098 228.985259 
L 712.140971 214.175731 
L 712.974844 246.444197 
L 713.808717 243.86272 
L 714.64259 265.465609 
L 715.476463 222.939167 
L 716.310336 190.398967 
L 717.144209 175.181838 
L 717.978082 199.637938 
L 718.811955 211.52632 
L 719.645828 194.203249 
L 720.479701 202.015615 
L 721.313574 196.037457 
L 722.147447 219.542487 
L 722.98132 220.186379 
L 723.815193 232.653674 
L 724.649066 239.786703 
L 725.482939 201.200411 
L 726.316812 213.700196 
L 727.150685 210.303515 
L 727.984558 226.132047 
L 728.818431 215.534404 
L 730.486177 237.001425 
L 731.32005 194.203249 
L 732.153923 169.067813 
L 732.987796 182.687025 
L 733.821669 237.341093 
L 734.655542 240.058438 
L 735.489415 241.009508 
L 736.323288 202.559084 
L 737.157161 198.3472 
L 737.991034 232.721608 
L 738.824907 284.147352 
L 740.492653 222.327765 
L 741.326526 162.070651 
L 742.160399 211.865989 
L 742.994271 234.216147 
L 743.828144 260.098853 
L 745.49589 175.929108 
L 746.329763 220.540815 
L 747.163636 214.107798 
L 747.163636 214.107798 
" style="fill:none;stroke:#1f77b4;stroke-linecap:square;stroke-width:1.5;"/>
   </g>
   <g id="line2d_16">
    <path clip-path="url(#p24aaefbd51)" d="M 138.436364 166.582261 
L 139.270237 187.231152 
L 140.10411 181.759129 
L 140.937983 215.823337 
L 141.771856 225.517 
L 142.605729 194.713543 
L 143.439601 248.353646 
L 144.273474 167.702282 
L 145.107347 171.402989 
L 145.94122 165.778589 
L 146.775093 164.572974 
L 147.608966 229.038865 
L 148.442839 179.074491 
L 149.276712 221.644212 
L 150.110585 215.439904 
L 150.944458 175.046203 
L 151.778331 209.162829 
L 152.612204 230.031473 
L 153.446077 174.624184 
L 154.27995 185.014283 
L 155.113823 203.756372 
L 155.947696 200.509155 
L 156.781569 217.764732 
L 157.615442 224.036539 
L 158.449315 229.17802 
L 159.283188 227.161973 
L 160.117061 206.019091 
L 161.784807 222.355251 
L 162.61868 236.150611 
L 163.452553 226.567885 
L 164.286426 205.460903 
L 165.120299 191.979609 
L 165.954172 196.057156 
L 166.788045 207.779075 
L 167.621918 200.671521 
L 168.455791 200.672553 
L 169.289664 192.328064 
L 170.123537 231.988647 
L 170.95741 243.16491 
L 171.791283 224.914952 
L 172.625156 196.341462 
L 173.459029 176.359278 
L 174.292902 235.943993 
L 175.126775 224.032627 
L 175.960648 222.648345 
L 176.794521 233.888619 
L 177.628394 257.34578 
L 178.462267 252.2577 
L 179.296139 192.820835 
L 180.130012 238.544182 
L 180.963885 263.971869 
L 181.797758 246.137797 
L 182.631631 239.461299 
L 183.465504 174.984219 
L 184.299377 208.065023 
L 185.13325 229.35527 
L 185.967123 231.193825 
L 186.800996 208.306701 
L 187.634869 217.894694 
L 188.468742 219.184384 
L 189.302615 205.250659 
L 190.136488 181.824335 
L 190.970361 211.796579 
L 191.804234 235.048527 
L 192.638107 199.596566 
L 193.47198 196.648669 
L 194.305853 182.470255 
L 195.139726 191.484076 
L 195.973599 214.263373 
L 196.807472 179.474866 
L 197.641345 179.692436 
L 198.475218 159.039702 
L 199.309091 223.840158 
L 200.142964 195.3546 
L 200.976837 199.692658 
L 201.81071 160.198123 
L 203.478456 203.165904 
L 204.312329 163.365196 
L 205.146202 145.70749 
L 205.980075 193.224929 
L 206.813948 248.715522 
L 207.647821 201.376403 
L 208.481694 208.834675 
L 209.315567 181.24964 
L 210.14944 212.697139 
L 210.983313 221.072894 
L 211.817186 219.053824 
L 212.651059 227.841703 
L 213.484932 213.535566 
L 214.318804 188.757407 
L 215.152677 147.06756 
L 215.98655 218.285976 
L 216.820423 248.40635 
L 217.654296 236.087589 
L 218.488169 237.233129 
L 219.322042 211.330128 
L 220.155915 150.811965 
L 220.989788 227.358584 
L 221.823661 225.475304 
L 222.657534 138.59042 
L 223.491407 216.560734 
L 224.32528 236.831591 
L 225.159153 173.252534 
L 225.993026 186.980319 
L 226.826899 214.820927 
L 227.660772 219.557729 
L 228.494645 215.156991 
L 229.328518 231.985506 
L 230.162391 237.419863 
L 230.996264 240.701276 
L 231.830137 231.74052 
L 232.66401 248.110333 
L 233.497883 169.994806 
L 234.331756 165.389011 
L 235.165629 123.666574 
L 235.999502 138.330134 
L 236.833375 198.135193 
L 237.667248 224.990344 
L 238.501121 220.404664 
L 239.334994 215.10578 
L 240.168867 247.00007 
L 241.00274 255.344404 
L 241.836613 250.798852 
L 242.670486 256.79044 
L 243.504359 250.024492 
L 244.338232 269.80175 
L 245.172105 240.669077 
L 246.005978 248.589745 
L 246.839851 253.353117 
L 247.673724 252.635722 
L 248.507597 228.798089 
L 249.341469 182.78199 
L 250.175342 239.145161 
L 251.009215 174.360365 
L 251.843088 180.988731 
L 252.676961 214.804146 
L 253.510834 223.057427 
L 254.344707 210.497722 
L 255.17858 218.338892 
L 256.012453 216.09141 
L 256.846326 220.672264 
L 257.680199 245.392781 
L 258.514072 244.329482 
L 259.347945 275.769598 
L 260.181818 257.648172 
L 261.015691 217.429052 
L 261.849564 204.98261 
L 262.683437 241.163939 
L 263.51731 351.11097 
L 264.351183 266.981265 
L 265.185056 264.628817 
L 266.018929 241.438001 
L 266.852802 259.828265 
L 267.686675 258.900595 
L 268.520548 249.580904 
L 269.354421 266.608468 
L 270.188294 253.836702 
L 271.022167 260.749468 
L 271.85604 220.215516 
L 272.689913 249.878788 
L 273.523786 265.89297 
L 274.357659 269.224723 
L 275.191532 282.956376 
L 276.025405 258.632764 
L 276.859278 264.990973 
L 277.693151 264.431815 
L 278.527024 273.288537 
L 279.360897 276.043123 
L 280.19477 268.547157 
L 281.028643 268.814758 
L 281.862516 274.929112 
L 282.696389 264.610252 
L 283.530262 251.949206 
L 284.364134 230.479993 
L 285.198007 260.731947 
L 286.03188 246.768505 
L 286.865753 262.110868 
L 287.699626 282.535543 
L 288.533499 264.090581 
L 289.367372 257.121399 
L 290.201245 270.192267 
L 291.035118 268.126333 
L 291.868991 258.043074 
L 292.702864 281.219597 
L 293.536737 274.474211 
L 294.37061 269.090245 
L 295.204483 262.091345 
L 296.038356 238.780182 
L 296.872229 232.166817 
L 297.706102 230.806505 
L 298.539975 255.216724 
L 299.373848 274.662967 
L 300.207721 264.895417 
L 301.041594 263.264948 
L 301.875467 219.189932 
L 302.70934 249.038458 
L 303.543213 254.801566 
L 304.377086 262.60558 
L 305.210959 266.7945 
L 306.044832 242.731441 
L 306.878705 273.712151 
L 307.712578 287.608553 
L 308.546451 291.049091 
L 310.214197 250.572997 
L 311.04807 251.622657 
L 311.881943 253.443262 
L 312.715816 251.220616 
L 313.549689 238.319565 
L 314.383562 263.17984 
L 315.217435 241.88779 
L 316.051308 256.522087 
L 316.885181 274.991264 
L 317.719054 280.473437 
L 318.552927 270.780079 
L 319.3868 292.846041 
L 320.220672 267.455994 
L 321.054545 260.45651 
L 321.888418 281.917013 
L 322.722291 279.403175 
L 323.556164 249.901408 
L 324.390037 236.865288 
L 325.22391 238.74177 
L 326.057783 265.150846 
L 326.891656 284.218324 
L 327.725529 259.342354 
L 328.559402 268.129878 
L 329.393275 259.688034 
L 330.227148 238.570516 
L 331.061021 330.675886 
L 331.894894 275.075258 
L 332.728767 251.648505 
L 333.56264 237.989552 
L 334.396513 255.941259 
L 335.230386 227.385738 
L 336.064259 188.643814 
L 336.898132 195.555117 
L 337.732005 191.255684 
L 339.399751 222.050868 
L 340.233624 242.744359 
L 341.067497 234.641342 
L 343.569116 179.082788 
L 344.402989 191.063824 
L 345.236862 240.418356 
L 346.070735 254.959597 
L 347.738481 264.135567 
L 348.572354 248.174562 
L 349.406227 181.464362 
L 350.2401 210.00801 
L 351.073973 257.554513 
L 351.907846 262.65987 
L 352.741719 268.49849 
L 353.575592 252.691094 
L 354.409465 285.846488 
L 355.243337 266.442134 
L 356.07721 263.558297 
L 356.911083 270.612413 
L 357.744956 288.149006 
L 358.578829 269.349449 
L 359.412702 266.006233 
L 360.246575 261.815672 
L 361.080448 253.333295 
L 361.914321 222.158348 
L 362.748194 252.465357 
L 363.582067 253.794441 
L 364.41594 247.092828 
L 365.249813 247.944241 
L 366.083686 266.723989 
L 366.917559 223.451694 
L 368.585305 259.468373 
L 369.419178 253.509506 
L 370.253051 198.166788 
L 371.086924 185.137044 
L 371.920797 213.653898 
L 372.75467 221.086148 
L 373.588543 206.652809 
L 375.256289 190.250151 
L 376.090162 198.03292 
L 377.757908 218.449624 
L 378.591781 252.30429 
L 379.425654 206.213886 
L 380.259527 207.224146 
L 381.0934 222.460802 
L 381.927273 204.053428 
L 382.761146 199.056837 
L 383.595019 205.306734 
L 384.428892 180.88499 
L 385.262765 180.555008 
L 386.096638 163.324284 
L 386.930511 187.709382 
L 387.764384 196.307678 
L 388.598257 224.386269 
L 389.43213 188.47993 
L 391.099875 215.722892 
L 391.933748 161.168465 
L 392.767621 212.569253 
L 393.601494 171.273288 
L 394.435367 194.199314 
L 395.26924 176.951984 
L 396.103113 204.470434 
L 396.936986 183.591409 
L 397.770859 144.591536 
L 398.604732 156.952908 
L 400.272478 142.487054 
L 401.106351 142.850547 
L 401.940224 188.189118 
L 402.774097 158.321685 
L 403.60797 204.582372 
L 404.441843 205.930177 
L 405.275716 215.261268 
L 406.109589 226.271184 
L 406.943462 210.813461 
L 407.777335 232.970645 
L 408.611208 233.194466 
L 409.445081 225.396024 
L 410.278954 266.917963 
L 411.112827 207.718186 
L 411.9467 176.701239 
L 412.780573 215.494648 
L 413.614446 199.621469 
L 414.448319 205.767848 
L 415.282192 193.112853 
L 416.116065 184.060335 
L 416.949938 189.158863 
L 417.783811 218.335247 
L 418.617684 201.07753 
L 419.451557 198.177511 
L 420.28543 216.261676 
L 421.119303 198.022346 
L 421.953176 187.330316 
L 422.787049 99.962661 
L 423.620922 154.380656 
L 424.454795 139.395535 
L 425.288667 114.149085 
L 426.12254 131.84346 
L 426.956413 114.545068 
L 427.790286 182.220729 
L 428.624159 148.815503 
L 429.458032 188.10457 
L 430.291905 180.973804 
L 431.125778 155.626647 
L 431.959651 161.017468 
L 432.793524 162.497276 
L 433.627397 198.589192 
L 435.295143 122.969666 
L 436.129016 115.639515 
L 436.962889 172.437542 
L 438.630635 160.252369 
L 439.464508 138.533997 
L 440.298381 152.259381 
L 441.132254 207.285806 
L 441.966127 143.660476 
L 442.8 212.296341 
L 443.633873 231.764247 
L 444.467746 222.82733 
L 445.301619 208.078818 
L 446.135492 163.980031 
L 446.969365 143.184746 
L 447.803238 144.380297 
L 448.637111 128.607239 
L 449.470984 164.949006 
L 450.304857 209.361741 
L 451.13873 155.414401 
L 452.806476 206.79806 
L 454.474222 93.993177 
L 455.308095 136.979344 
L 456.141968 111.012786 
L 456.975841 137.36968 
L 457.809714 132.191765 
L 458.643587 142.424386 
L 459.47746 171.139792 
L 460.311333 158.293485 
L 461.145205 158.363007 
L 461.979078 196.941309 
L 462.812951 149.639289 
L 463.646824 218.996294 
L 464.480697 191.952355 
L 465.31457 159.070489 
L 466.982316 208.55415 
L 467.816189 171.133946 
L 468.650062 217.213484 
L 469.483935 215.301856 
L 470.317808 195.186823 
L 471.151681 181.072384 
L 471.985554 214.206054 
L 472.819427 223.249249 
L 474.487173 211.716011 
L 475.321046 185.252042 
L 476.154919 180.851803 
L 477.822665 251.46771 
L 478.656538 252.591582 
L 479.490411 237.877159 
L 480.324284 216.995789 
L 481.158157 222.61884 
L 481.99203 226.715673 
L 482.825903 226.487766 
L 483.659776 222.947311 
L 484.493649 215.733975 
L 485.327522 218.236494 
L 486.161395 209.691537 
L 486.995268 210.654665 
L 487.829141 216.994682 
L 488.663014 188.948545 
L 489.496887 195.303638 
L 490.33076 197.428806 
L 491.164633 222.040096 
L 491.998506 221.543307 
L 492.832379 209.119217 
L 493.666252 227.829077 
L 494.500125 209.891618 
L 495.333998 204.328567 
L 496.16787 178.869745 
L 497.001743 215.391902 
L 497.835616 225.095877 
L 498.669489 215.634289 
L 499.503362 212.856259 
L 500.337235 209.488296 
L 501.171108 234.930717 
L 502.004981 232.968151 
L 502.838854 218.837609 
L 503.672727 235.481236 
L 504.5066 220.227203 
L 505.340473 230.133094 
L 506.174346 253.392561 
L 507.008219 222.620152 
L 507.842092 224.709764 
L 508.675965 254.834094 
L 509.509838 191.243518 
L 510.343711 196.55142 
L 512.011457 86.923636 
L 512.84533 136.086732 
L 513.679203 220.363951 
L 514.513076 191.070255 
L 515.346949 186.458577 
L 516.180822 202.659562 
L 517.014695 203.946453 
L 517.848568 194.089776 
L 518.682441 230.414869 
L 519.516314 241.730691 
L 520.350187 244.875573 
L 521.18406 192.947502 
L 522.017933 188.636387 
L 522.851806 223.854482 
L 523.685679 216.306667 
L 524.519552 218.562147 
L 525.353425 208.206592 
L 526.187298 217.310285 
L 527.021171 248.342986 
L 527.855044 244.32761 
L 528.688917 241.070851 
L 529.52279 236.625943 
L 530.356663 211.66378 
L 531.190535 243.238288 
L 532.024408 214.042704 
L 533.692154 104.370675 
L 534.526027 180.774121 
L 535.3599 203.980386 
L 536.193773 197.765456 
L 537.027646 207.893253 
L 537.861519 232.149508 
L 538.695392 212.611011 
L 539.529265 227.859708 
L 540.363138 271.403174 
L 541.197011 162.069548 
L 542.030884 136.868276 
L 542.864757 179.787806 
L 543.69863 241.158478 
L 544.532503 217.000205 
L 545.366376 203.458246 
L 546.200249 240.236249 
L 547.034122 246.605063 
L 547.867995 220.142767 
L 548.701868 243.863379 
L 549.535741 237.730123 
L 550.369614 249.421343 
L 551.203487 264.810918 
L 552.03736 271.259541 
L 552.871233 254.941654 
L 553.705106 242.001346 
L 554.538979 276.823954 
L 555.372852 271.116741 
L 556.206725 274.864744 
L 557.040598 265.158278 
L 557.874471 280.748709 
L 558.708344 268.561929 
L 559.542217 253.819281 
L 560.37609 273.996513 
L 561.209963 279.642517 
L 562.043836 288.025667 
L 562.877709 262.811838 
L 563.711582 288.704057 
L 564.545455 293.494064 
L 566.2132 284.450109 
L 567.047073 265.92597 
L 567.880946 259.136071 
L 568.714819 243.905784 
L 569.548692 439.817349 
L 570.382565 249.834237 
L 571.216438 279.910985 
L 572.050311 215.08798 
L 572.884184 226.453733 
L 573.718057 209.642378 
L 574.55193 248.486588 
L 575.385803 244.29487 
L 576.219676 264.167237 
L 577.887422 286.139869 
L 578.721295 254.529356 
L 579.555168 237.837584 
L 580.389041 261.562961 
L 581.222914 265.891726 
L 582.056787 269.508519 
L 582.89066 268.554602 
L 583.724533 275.518905 
L 584.558406 269.257369 
L 585.392279 249.370125 
L 586.226152 243.224872 
L 587.060025 219.177194 
L 587.893898 274.695545 
L 588.727771 310.797095 
L 589.561644 262.485239 
L 590.395517 238.161297 
L 591.22939 237.497047 
L 592.063263 280.463119 
L 592.897136 239.479938 
L 593.731009 253.162794 
L 594.564882 252.661744 
L 595.398755 262.127704 
L 596.232628 265.22831 
L 597.066501 271.002669 
L 597.900374 284.768561 
L 598.734247 291.61298 
L 599.56812 283.625154 
L 600.401993 291.628267 
L 601.235866 288.153264 
L 602.069738 299.767126 
L 602.903611 294.069704 
L 603.737484 294.892564 
L 604.571357 287.288183 
L 605.40523 282.14613 
L 606.239103 287.487873 
L 607.072976 246.810288 
L 607.906849 244.06356 
L 608.740722 227.48966 
L 609.574595 260.654527 
L 610.408468 264.996216 
L 611.242341 235.961252 
L 612.076214 230.452783 
L 612.910087 270.922499 
L 613.74396 223.225416 
L 614.577833 193.319217 
L 615.411706 240.262831 
L 616.245579 224.509738 
L 617.079452 214.570355 
L 618.747198 229.636703 
L 619.581071 224.801713 
L 620.414944 290.047965 
L 621.248817 199.000165 
L 622.08269 214.702196 
L 622.916563 191.6731 
L 623.750436 227.110705 
L 624.584309 228.665122 
L 625.418182 237.353725 
L 626.252055 236.811651 
L 627.085928 241.595417 
L 627.919801 247.066345 
L 628.753674 256.172401 
L 629.587547 254.016919 
L 630.42142 259.6606 
L 632.089166 246.45947 
L 632.923039 264.373308 
L 633.756912 265.444139 
L 634.590785 249.931349 
L 635.424658 242.581501 
L 636.258531 280.713022 
L 637.092403 292.162411 
L 637.926276 282.354763 
L 638.760149 288.255397 
L 639.594022 287.460252 
L 640.427895 279.245526 
L 641.261768 295.911885 
L 642.095641 261.879049 
L 642.929514 279.150038 
L 643.763387 248.803093 
L 644.59726 286.156416 
L 645.431133 256.393107 
L 646.265006 261.96114 
L 647.098879 295.905597 
L 647.932752 300.065035 
L 648.766625 292.127825 
L 649.600498 296.921684 
L 650.434371 283.789675 
L 651.268244 286.626362 
L 652.102117 287.166411 
L 652.93599 259.68355 
L 653.769863 267.137313 
L 654.603736 261.820125 
L 655.437609 245.943867 
L 656.271482 245.416266 
L 657.105355 248.664771 
L 657.939228 253.790516 
L 658.773101 241.941856 
L 659.606974 257.583222 
L 660.440847 257.986824 
L 661.27472 269.132363 
L 662.108593 286.046026 
L 662.942466 265.573107 
L 663.776339 298.785601 
L 664.610212 293.770067 
L 665.444085 277.925553 
L 666.277958 275.350804 
L 667.111831 238.315385 
L 667.945704 246.09209 
L 668.779577 243.087228 
L 669.61345 244.618782 
L 670.447323 242.882376 
L 671.281196 240.382084 
L 672.115068 277.446014 
L 672.948941 256.909177 
L 673.782814 264.502524 
L 674.616687 253.944188 
L 675.45056 219.207732 
L 676.284433 200.63816 
L 677.118306 384.896929 
L 677.952179 253.964202 
L 678.786052 442.996364 
L 679.619925 234.63343 
L 681.287671 258.001198 
L 682.955417 245.743039 
L 683.78929 251.090516 
L 684.623163 243.837319 
L 685.457036 255.19095 
L 686.290909 238.831262 
L 687.124782 239.327349 
L 687.958655 231.463117 
L 688.792528 241.186609 
L 689.626401 230.566531 
L 690.460274 231.192195 
L 691.294147 250.856507 
L 692.12802 232.371016 
L 692.961893 206.650446 
L 693.795766 210.262699 
L 694.629639 230.047644 
L 695.463512 229.735394 
L 696.297385 209.390027 
L 697.131258 219.809575 
L 697.965131 238.303736 
L 698.799004 210.298959 
L 699.632877 239.484945 
L 700.46675 243.748909 
L 701.300623 242.955661 
L 702.134496 235.138087 
L 702.968369 244.453499 
L 703.802242 212.450871 
L 704.636115 206.64649 
L 705.469988 195.685702 
L 706.303861 205.613977 
L 707.137733 211.931045 
L 707.971606 219.364949 
L 708.805479 218.371519 
L 709.639352 202.084096 
L 710.473225 160.144772 
L 711.307098 213.040057 
L 712.140971 185.679994 
L 712.974844 239.09612 
L 713.808717 213.739976 
L 714.64259 196.096165 
L 715.476463 170.891012 
L 716.310336 186.295676 
L 717.144209 151.033491 
L 717.978082 187.767933 
L 718.811955 181.709386 
L 719.645828 183.000929 
L 720.479701 151.89401 
L 721.313574 166.157929 
L 722.147447 189.276885 
L 722.98132 194.152059 
L 723.815193 220.602855 
L 724.649066 231.767419 
L 725.482939 197.821519 
L 726.316812 223.127036 
L 727.150685 168.423708 
L 727.984558 209.040192 
L 728.818431 210.798062 
L 729.652304 215.605256 
L 730.486177 207.795706 
L 731.32005 191.081649 
L 732.153923 158.767997 
L 732.987796 172.494787 
L 733.821669 210.218976 
L 734.655542 209.881194 
L 735.489415 196.77133 
L 736.323288 215.478465 
L 737.157161 183.090017 
L 737.991034 161.346804 
L 738.824907 233.490994 
L 739.65878 225.719333 
L 740.492653 193.547112 
L 741.326526 198.522071 
L 742.160399 189.442834 
L 742.994271 159.712416 
L 743.828144 195.092697 
L 744.662017 205.123781 
L 745.49589 174.394038 
L 746.329763 217.726108 
L 747.163636 178.256116 
L 747.163636 178.256116 
" style="fill:none;stroke:#ff0000;stroke-dasharray:5.55,2.4;stroke-dashoffset:0;stroke-width:1.5;"/>
   </g>
   <g id="patch_3">
    <path d="M 108 460.8 
L 108 69.12 
" style="fill:none;stroke:#000000;stroke-linecap:square;stroke-linejoin:miter;stroke-width:0.8;"/>
   </g>
   <g id="patch_4">
    <path d="M 777.6 460.8 
L 777.6 69.12 
" style="fill:none;stroke:#000000;stroke-linecap:square;stroke-linejoin:miter;stroke-width:0.8;"/>
   </g>
   <g id="patch_5">
    <path d="M 108 460.8 
L 777.6 460.8 
" style="fill:none;stroke:#000000;stroke-linecap:square;stroke-linejoin:miter;stroke-width:0.8;"/>
   </g>
   <g id="patch_6">
    <path d="M 108 69.12 
L 777.6 69.12 
" style="fill:none;stroke:#000000;stroke-linecap:square;stroke-linejoin:miter;stroke-width:0.8;"/>
   </g>
   <g id="text_17">
    <!-- Macau residential 2020-2021 | Forecast vs Monitored | ANN -->
    <g transform="translate(219.761719 63.12)scale(0.15 -0.15)">
     <defs>
      <path d="M 8.5 21.578125 
L 8.5 54.6875 
L 17.484375 54.6875 
L 17.484375 21.921875 
Q 17.484375 14.15625 20.5 10.265625 
Q 23.53125 6.390625 29.59375 6.390625 
Q 36.859375 6.390625 41.078125 11.03125 
Q 45.3125 15.671875 45.3125 23.6875 
L 45.3125 54.6875 
L 54.296875 54.6875 
L 54.296875 0 
L 45.3125 0 
L 45.3125 8.40625 
Q 42.046875 3.421875 37.71875 1 
Q 33.40625 -1.421875 27.6875 -1.421875 
Q 18.265625 -1.421875 13.375 4.4375 
Q 8.5 10.296875 8.5 21.578125 
z
M 31.109375 56 
z
" id="DejaVuSans-117"/>
      <path id="DejaVuSans-32"/>
      <path d="M 44.28125 53.078125 
L 44.28125 44.578125 
Q 40.484375 46.53125 36.375 47.5 
Q 32.28125 48.484375 27.875 48.484375 
Q 21.1875 48.484375 17.84375 46.4375 
Q 14.5 44.390625 14.5 40.28125 
Q 14.5 37.15625 16.890625 35.375 
Q 19.28125 33.59375 26.515625 31.984375 
L 29.59375 31.296875 
Q 39.15625 29.25 43.1875 25.515625 
Q 47.21875 21.78125 47.21875 15.09375 
Q 47.21875 7.46875 41.1875 3.015625 
Q 35.15625 -1.421875 24.609375 -1.421875 
Q 20.21875 -1.421875 15.453125 -0.5625 
Q 10.6875 0.296875 5.421875 2 
L 5.421875 11.28125 
Q 10.40625 8.6875 15.234375 7.390625 
Q 20.0625 6.109375 24.8125 6.109375 
Q 31.15625 6.109375 34.5625 8.28125 
Q 37.984375 10.453125 37.984375 14.40625 
Q 37.984375 18.0625 35.515625 20.015625 
Q 33.0625 21.96875 24.703125 23.78125 
L 21.578125 24.515625 
Q 13.234375 26.265625 9.515625 29.90625 
Q 5.8125 33.546875 5.8125 39.890625 
Q 5.8125 47.609375 11.28125 51.796875 
Q 16.75 56 26.8125 56 
Q 31.78125 56 36.171875 55.265625 
Q 40.578125 54.546875 44.28125 53.078125 
z
" id="DejaVuSans-115"/>
      <path d="M 45.40625 46.390625 
L 45.40625 75.984375 
L 54.390625 75.984375 
L 54.390625 0 
L 45.40625 0 
L 45.40625 8.203125 
Q 42.578125 3.328125 38.25 0.953125 
Q 33.9375 -1.421875 27.875 -1.421875 
Q 17.96875 -1.421875 11.734375 6.484375 
Q 5.515625 14.40625 5.515625 27.296875 
Q 5.515625 40.1875 11.734375 48.09375 
Q 17.96875 56 27.875 56 
Q 33.9375 56 38.25 53.625 
Q 42.578125 51.265625 45.40625 46.390625 
z
M 14.796875 27.296875 
Q 14.796875 17.390625 18.875 11.75 
Q 22.953125 6.109375 30.078125 6.109375 
Q 37.203125 6.109375 41.296875 11.75 
Q 45.40625 17.390625 45.40625 27.296875 
Q 45.40625 37.203125 41.296875 42.84375 
Q 37.203125 48.484375 30.078125 48.484375 
Q 22.953125 48.484375 18.875 42.84375 
Q 14.796875 37.203125 14.796875 27.296875 
z
" id="DejaVuSans-100"/>
      <path d="M 54.890625 33.015625 
L 54.890625 0 
L 45.90625 0 
L 45.90625 32.71875 
Q 45.90625 40.484375 42.875 44.328125 
Q 39.84375 48.1875 33.796875 48.1875 
Q 26.515625 48.1875 22.3125 43.546875 
Q 18.109375 38.921875 18.109375 30.90625 
L 18.109375 0 
L 9.078125 0 
L 9.078125 54.6875 
L 18.109375 54.6875 
L 18.109375 46.1875 
Q 21.34375 51.125 25.703125 53.5625 
Q 30.078125 56 35.796875 56 
Q 45.21875 56 50.046875 50.171875 
Q 54.890625 44.34375 54.890625 33.015625 
z
" id="DejaVuSans-110"/>
      <path d="M 9.421875 75.984375 
L 18.40625 75.984375 
L 18.40625 0 
L 9.421875 0 
z
" id="DejaVuSans-108"/>
      <path d="M 21 76.421875 
L 21 -23.578125 
L 12.703125 -23.578125 
L 12.703125 76.421875 
z
" id="DejaVuSans-124"/>
      <path d="M 9.8125 72.90625 
L 51.703125 72.90625 
L 51.703125 64.59375 
L 19.671875 64.59375 
L 19.671875 43.109375 
L 48.578125 43.109375 
L 48.578125 34.8125 
L 19.671875 34.8125 
L 19.671875 0 
L 9.8125 0 
z
" id="DejaVuSans-70"/>
      <path d="M 2.984375 54.6875 
L 12.5 54.6875 
L 29.59375 8.796875 
L 46.6875 54.6875 
L 56.203125 54.6875 
L 35.6875 0 
L 23.484375 0 
z
" id="DejaVuSans-118"/>
      <path d="M 34.1875 63.1875 
L 20.796875 26.90625 
L 47.609375 26.90625 
z
M 28.609375 72.90625 
L 39.796875 72.90625 
L 67.578125 0 
L 57.328125 0 
L 50.6875 18.703125 
L 17.828125 18.703125 
L 11.1875 0 
L 0.78125 0 
z
" id="DejaVuSans-65"/>
      <path d="M 9.8125 72.90625 
L 23.09375 72.90625 
L 55.421875 11.921875 
L 55.421875 72.90625 
L 64.984375 72.90625 
L 64.984375 0 
L 51.703125 0 
L 19.390625 60.984375 
L 19.390625 0 
L 9.8125 0 
z
" id="DejaVuSans-78"/>
     </defs>
     <use xlink:href="#DejaVuSans-77"/>
     <use x="86.279297" xlink:href="#DejaVuSans-97"/>
     <use x="147.558594" xlink:href="#DejaVuSans-99"/>
     <use x="202.539062" xlink:href="#DejaVuSans-97"/>
     <use x="263.818359" xlink:href="#DejaVuSans-117"/>
     <use x="327.197266" xlink:href="#DejaVuSans-32"/>
     <use x="358.984375" xlink:href="#DejaVuSans-114"/>
     <use x="397.847656" xlink:href="#DejaVuSans-101"/>
     <use x="459.371094" xlink:href="#DejaVuSans-115"/>
     <use x="511.470703" xlink:href="#DejaVuSans-105"/>
     <use x="539.253906" xlink:href="#DejaVuSans-100"/>
     <use x="602.730469" xlink:href="#DejaVuSans-101"/>
     <use x="664.253906" xlink:href="#DejaVuSans-110"/>
     <use x="727.632812" xlink:href="#DejaVuSans-116"/>
     <use x="766.841797" xlink:href="#DejaVuSans-105"/>
     <use x="794.625" xlink:href="#DejaVuSans-97"/>
     <use x="855.904297" xlink:href="#DejaVuSans-108"/>
     <use x="883.6875" xlink:href="#DejaVuSans-32"/>
     <use x="915.474609" xlink:href="#DejaVuSans-50"/>
     <use x="979.097656" xlink:href="#DejaVuSans-48"/>
     <use x="1042.720703" xlink:href="#DejaVuSans-50"/>
     <use x="1106.34375" xlink:href="#DejaVuSans-48"/>
     <use x="1169.966797" xlink:href="#DejaVuSans-45"/>
     <use x="1206.050781" xlink:href="#DejaVuSans-50"/>
     <use x="1269.673828" xlink:href="#DejaVuSans-48"/>
     <use x="1333.296875" xlink:href="#DejaVuSans-50"/>
     <use x="1396.919922" xlink:href="#DejaVuSans-49"/>
     <use x="1460.542969" xlink:href="#DejaVuSans-32"/>
     <use x="1492.330078" xlink:href="#DejaVuSans-124"/>
     <use x="1526.021484" xlink:href="#DejaVuSans-32"/>
     <use x="1557.808594" xlink:href="#DejaVuSans-70"/>
     <use x="1611.703125" xlink:href="#DejaVuSans-111"/>
     <use x="1672.884766" xlink:href="#DejaVuSans-114"/>
     <use x="1711.748047" xlink:href="#DejaVuSans-101"/>
     <use x="1773.271484" xlink:href="#DejaVuSans-99"/>
     <use x="1828.251953" xlink:href="#DejaVuSans-97"/>
     <use x="1889.53125" xlink:href="#DejaVuSans-115"/>
     <use x="1941.630859" xlink:href="#DejaVuSans-116"/>
     <use x="1980.839844" xlink:href="#DejaVuSans-32"/>
     <use x="2012.626953" xlink:href="#DejaVuSans-118"/>
     <use x="2071.806641" xlink:href="#DejaVuSans-115"/>
     <use x="2123.90625" xlink:href="#DejaVuSans-32"/>
     <use x="2155.693359" xlink:href="#DejaVuSans-77"/>
     <use x="2241.972656" xlink:href="#DejaVuSans-111"/>
     <use x="2303.154297" xlink:href="#DejaVuSans-110"/>
     <use x="2366.533203" xlink:href="#DejaVuSans-105"/>
     <use x="2394.316406" xlink:href="#DejaVuSans-116"/>
     <use x="2433.525391" xlink:href="#DejaVuSans-111"/>
     <use x="2494.707031" xlink:href="#DejaVuSans-114"/>
     <use x="2533.570312" xlink:href="#DejaVuSans-101"/>
     <use x="2595.09375" xlink:href="#DejaVuSans-100"/>
     <use x="2658.570312" xlink:href="#DejaVuSans-32"/>
     <use x="2690.357422" xlink:href="#DejaVuSans-124"/>
     <use x="2724.048828" xlink:href="#DejaVuSans-32"/>
     <use x="2755.835938" xlink:href="#DejaVuSans-65"/>
     <use x="2824.244141" xlink:href="#DejaVuSans-78"/>
     <use x="2899.048828" xlink:href="#DejaVuSans-78"/>
    </g>
   </g>
   <g id="legend_1">
    <g id="patch_7">
     <path d="M 598.963125 114.615 
L 769.2 114.615 
Q 771.6 114.615 771.6 112.215 
L 771.6 77.52 
Q 771.6 75.12 769.2 75.12 
L 598.963125 75.12 
Q 596.563125 75.12 596.563125 77.52 
L 596.563125 112.215 
Q 596.563125 114.615 598.963125 114.615 
z
" style="fill:#ffffff;opacity:0.8;stroke:#cccccc;stroke-linejoin:miter;"/>
    </g>
    <g id="line2d_17">
     <path d="M 601.363125 84.838125 
L 625.363125 84.838125 
" style="fill:none;stroke:#1f77b4;stroke-linecap:square;stroke-width:1.5;"/>
    </g>
    <g id="line2d_18"/>
    <g id="text_18">
     <!-- measured_data_PM10 -->
     <g transform="translate(634.963125 89.038125)scale(0.12 -0.12)">
      <defs>
       <path d="M 50.984375 -16.609375 
L 50.984375 -23.578125 
L -0.984375 -23.578125 
L -0.984375 -16.609375 
z
" id="DejaVuSans-95"/>
      </defs>
      <use xlink:href="#DejaVuSans-109"/>
      <use x="97.412109" xlink:href="#DejaVuSans-101"/>
      <use x="158.935547" xlink:href="#DejaVuSans-97"/>
      <use x="220.214844" xlink:href="#DejaVuSans-115"/>
      <use x="272.314453" xlink:href="#DejaVuSans-117"/>
      <use x="335.693359" xlink:href="#DejaVuSans-114"/>
      <use x="374.556641" xlink:href="#DejaVuSans-101"/>
      <use x="436.080078" xlink:href="#DejaVuSans-100"/>
      <use x="499.556641" xlink:href="#DejaVuSans-95"/>
      <use x="549.556641" xlink:href="#DejaVuSans-100"/>
      <use x="613.033203" xlink:href="#DejaVuSans-97"/>
      <use x="674.3125" xlink:href="#DejaVuSans-116"/>
      <use x="713.521484" xlink:href="#DejaVuSans-97"/>
      <use x="774.800781" xlink:href="#DejaVuSans-95"/>
      <use x="824.800781" xlink:href="#DejaVuSans-80"/>
      <use x="885.103516" xlink:href="#DejaVuSans-77"/>
      <use x="971.382812" xlink:href="#DejaVuSans-49"/>
      <use x="1035.005859" xlink:href="#DejaVuSans-48"/>
     </g>
    </g>
    <g id="line2d_19">
     <path d="M 601.363125 102.785625 
L 625.363125 102.785625 
" style="fill:none;stroke:#ff0000;stroke-dasharray:5.55,2.4;stroke-dashoffset:0;stroke-width:1.5;"/>
    </g>
    <g id="line2d_20"/>
    <g id="text_19">
     <!-- predicted_data_PM10 -->
     <g transform="translate(634.963125 106.985625)scale(0.12 -0.12)">
      <defs>
       <path d="M 18.109375 8.203125 
L 18.109375 -20.796875 
L 9.078125 -20.796875 
L 9.078125 54.6875 
L 18.109375 54.6875 
L 18.109375 46.390625 
Q 20.953125 51.265625 25.265625 53.625 
Q 29.59375 56 35.59375 56 
Q 45.5625 56 51.78125 48.09375 
Q 58.015625 40.1875 58.015625 27.296875 
Q 58.015625 14.40625 51.78125 6.484375 
Q 45.5625 -1.421875 35.59375 -1.421875 
Q 29.59375 -1.421875 25.265625 0.953125 
Q 20.953125 3.328125 18.109375 8.203125 
z
M 48.6875 27.296875 
Q 48.6875 37.203125 44.609375 42.84375 
Q 40.53125 48.484375 33.40625 48.484375 
Q 26.265625 48.484375 22.1875 42.84375 
Q 18.109375 37.203125 18.109375 27.296875 
Q 18.109375 17.390625 22.1875 11.75 
Q 26.265625 6.109375 33.40625 6.109375 
Q 40.53125 6.109375 44.609375 11.75 
Q 48.6875 17.390625 48.6875 27.296875 
z
" id="DejaVuSans-112"/>
      </defs>
      <use xlink:href="#DejaVuSans-112"/>
      <use x="63.476562" xlink:href="#DejaVuSans-114"/>
      <use x="102.339844" xlink:href="#DejaVuSans-101"/>
      <use x="163.863281" xlink:href="#DejaVuSans-100"/>
      <use x="227.339844" xlink:href="#DejaVuSans-105"/>
      <use x="255.123047" xlink:href="#DejaVuSans-99"/>
      <use x="310.103516" xlink:href="#DejaVuSans-116"/>
      <use x="349.3125" xlink:href="#DejaVuSans-101"/>
      <use x="410.835938" xlink:href="#DejaVuSans-100"/>
      <use x="474.3125" xlink:href="#DejaVuSans-95"/>
      <use x="524.3125" xlink:href="#DejaVuSans-100"/>
      <use x="587.789062" xlink:href="#DejaVuSans-97"/>
      <use x="649.068359" xlink:href="#DejaVuSans-116"/>
      <use x="688.277344" xlink:href="#DejaVuSans-97"/>
      <use x="749.556641" xlink:href="#DejaVuSans-95"/>
      <use x="799.556641" xlink:href="#DejaVuSans-80"/>
      <use x="859.859375" xlink:href="#DejaVuSans-77"/>
      <use x="946.138672" xlink:href="#DejaVuSans-49"/>
      <use x="1009.761719" xlink:href="#DejaVuSans-48"/>
     </g>
    </g>
   </g>
  </g>
 </g>
 <defs>
  <clipPath id="p24aaefbd51">
   <rect height="391.68" width="669.6" x="108" y="69.12"/>
  </clipPath>
 </defs>
</svg>
