<?xml version="1.0" encoding="utf-8" standalone="no"?>
<!DOCTYPE svg PUBLIC "-//W3C//DTD SVG 1.1//EN"
  "http://www.w3.org/Graphics/SVG/1.1/DTD/svg11.dtd">
<!-- Created with matplotlib (https://matplotlib.org/) -->
<svg height="576pt" version="1.1" viewBox="0 0 864 576" width="864pt" xmlns="http://www.w3.org/2000/svg" xmlns:xlink="http://www.w3.org/1999/xlink">
 <metadata>
  <rdf:RDF xmlns:cc="http://creativecommons.org/ns#" xmlns:dc="http://purl.org/dc/elements/1.1/" xmlns:rdf="http://www.w3.org/1999/02/22-rdf-syntax-ns#">
   <cc:Work>
    <dc:type rdf:resource="http://purl.org/dc/dcmitype/StillImage"/>
    <dc:date>2024-03-08T19:58:28.436150</dc:date>
    <dc:format>image/svg+xml</dc:format>
    <dc:creator>
     <cc:Agent>
      <dc:title>Matplotlib v3.3.4, https://matplotlib.org/</dc:title>
     </cc:Agent>
    </dc:creator>
   </cc:Work>
  </rdf:RDF>
 </metadata>
 <defs>
  <style type="text/css">*{stroke-linecap:butt;stroke-linejoin:round;}</style>
 </defs>
 <g id="figure_1">
  <g id="patch_1">
   <path d="M 0 576 
L 864 576 
L 864 0 
L 0 0 
z
" style="fill:#ffffff;"/>
  </g>
  <g id="axes_1">
   <g id="patch_2">
    <path d="M 108 460.8 
L 777.6 460.8 
L 777.6 69.12 
L 108 69.12 
z
" style="fill:#ffffff;"/>
   </g>
   <g id="matplotlib.axis_1">
    <g id="xtick_1">
     <g id="line2d_1">
      <defs>
       <path d="M 0 0 
L 0 3.5 
" id="maf0fde732d" style="stroke:#000000;stroke-width:0.8;"/>
      </defs>
      <g>
       <use style="stroke:#000000;stroke-width:0.8;" x="138.436364" xlink:href="#maf0fde732d" y="460.8"/>
      </g>
     </g>
     <g id="text_1">
      <!-- 2020-01 -->
      <g transform="translate(93.766579 500.766215)rotate(-30)scale(0.12 -0.12)">
       <defs>
        <path d="M 19.1875 8.296875 
L 53.609375 8.296875 
L 53.609375 0 
L 7.328125 0 
L 7.328125 8.296875 
Q 12.9375 14.109375 22.625 23.890625 
Q 32.328125 33.6875 34.8125 36.53125 
Q 39.546875 41.84375 41.421875 45.53125 
Q 43.3125 49.21875 43.3125 52.78125 
Q 43.3125 58.59375 39.234375 62.25 
Q 35.15625 65.921875 28.609375 65.921875 
Q 23.96875 65.921875 18.8125 64.3125 
Q 13.671875 62.703125 7.8125 59.421875 
L 7.8125 69.390625 
Q 13.765625 71.78125 18.9375 73 
Q 24.125 74.21875 28.421875 74.21875 
Q 39.75 74.21875 46.484375 68.546875 
Q 53.21875 62.890625 53.21875 53.421875 
Q 53.21875 48.921875 51.53125 44.890625 
Q 49.859375 40.875 45.40625 35.40625 
Q 44.1875 33.984375 37.640625 27.21875 
Q 31.109375 20.453125 19.1875 8.296875 
z
" id="DejaVuSans-50"/>
        <path d="M 31.78125 66.40625 
Q 24.171875 66.40625 20.328125 58.90625 
Q 16.5 51.421875 16.5 36.375 
Q 16.5 21.390625 20.328125 13.890625 
Q 24.171875 6.390625 31.78125 6.390625 
Q 39.453125 6.390625 43.28125 13.890625 
Q 47.125 21.390625 47.125 36.375 
Q 47.125 51.421875 43.28125 58.90625 
Q 39.453125 66.40625 31.78125 66.40625 
z
M 31.78125 74.21875 
Q 44.046875 74.21875 50.515625 64.515625 
Q 56.984375 54.828125 56.984375 36.375 
Q 56.984375 17.96875 50.515625 8.265625 
Q 44.046875 -1.421875 31.78125 -1.421875 
Q 19.53125 -1.421875 13.0625 8.265625 
Q 6.59375 17.96875 6.59375 36.375 
Q 6.59375 54.828125 13.0625 64.515625 
Q 19.53125 74.21875 31.78125 74.21875 
z
" id="DejaVuSans-48"/>
        <path d="M 4.890625 31.390625 
L 31.203125 31.390625 
L 31.203125 23.390625 
L 4.890625 23.390625 
z
" id="DejaVuSans-45"/>
        <path d="M 12.40625 8.296875 
L 28.515625 8.296875 
L 28.515625 63.921875 
L 10.984375 60.40625 
L 10.984375 69.390625 
L 28.421875 72.90625 
L 38.28125 72.90625 
L 38.28125 8.296875 
L 54.390625 8.296875 
L 54.390625 0 
L 12.40625 0 
z
" id="DejaVuSans-49"/>
       </defs>
       <use xlink:href="#DejaVuSans-50"/>
       <use x="63.623047" xlink:href="#DejaVuSans-48"/>
       <use x="127.246094" xlink:href="#DejaVuSans-50"/>
       <use x="190.869141" xlink:href="#DejaVuSans-48"/>
       <use x="254.492188" xlink:href="#DejaVuSans-45"/>
       <use x="290.576172" xlink:href="#DejaVuSans-48"/>
       <use x="354.199219" xlink:href="#DejaVuSans-49"/>
      </g>
     </g>
    </g>
    <g id="xtick_2">
     <g id="line2d_2">
      <g>
       <use style="stroke:#000000;stroke-width:0.8;" x="214.318804" xlink:href="#maf0fde732d" y="460.8"/>
      </g>
     </g>
     <g id="text_2">
      <!-- 2020-04 -->
      <g transform="translate(169.64902 500.766215)rotate(-30)scale(0.12 -0.12)">
       <defs>
        <path d="M 37.796875 64.3125 
L 12.890625 25.390625 
L 37.796875 25.390625 
z
M 35.203125 72.90625 
L 47.609375 72.90625 
L 47.609375 25.390625 
L 58.015625 25.390625 
L 58.015625 17.1875 
L 47.609375 17.1875 
L 47.609375 0 
L 37.796875 0 
L 37.796875 17.1875 
L 4.890625 17.1875 
L 4.890625 26.703125 
z
" id="DejaVuSans-52"/>
       </defs>
       <use xlink:href="#DejaVuSans-50"/>
       <use x="63.623047" xlink:href="#DejaVuSans-48"/>
       <use x="127.246094" xlink:href="#DejaVuSans-50"/>
       <use x="190.869141" xlink:href="#DejaVuSans-48"/>
       <use x="254.492188" xlink:href="#DejaVuSans-45"/>
       <use x="290.576172" xlink:href="#DejaVuSans-48"/>
       <use x="354.199219" xlink:href="#DejaVuSans-52"/>
      </g>
     </g>
    </g>
    <g id="xtick_3">
     <g id="line2d_3">
      <g>
       <use style="stroke:#000000;stroke-width:0.8;" x="290.201245" xlink:href="#maf0fde732d" y="460.8"/>
      </g>
     </g>
     <g id="text_3">
      <!-- 2020-07 -->
      <g transform="translate(245.53146 500.766215)rotate(-30)scale(0.12 -0.12)">
       <defs>
        <path d="M 8.203125 72.90625 
L 55.078125 72.90625 
L 55.078125 68.703125 
L 28.609375 0 
L 18.3125 0 
L 43.21875 64.59375 
L 8.203125 64.59375 
z
" id="DejaVuSans-55"/>
       </defs>
       <use xlink:href="#DejaVuSans-50"/>
       <use x="63.623047" xlink:href="#DejaVuSans-48"/>
       <use x="127.246094" xlink:href="#DejaVuSans-50"/>
       <use x="190.869141" xlink:href="#DejaVuSans-48"/>
       <use x="254.492188" xlink:href="#DejaVuSans-45"/>
       <use x="290.576172" xlink:href="#DejaVuSans-48"/>
       <use x="354.199219" xlink:href="#DejaVuSans-55"/>
      </g>
     </g>
    </g>
    <g id="xtick_4">
     <g id="line2d_4">
      <g>
       <use style="stroke:#000000;stroke-width:0.8;" x="366.917559" xlink:href="#maf0fde732d" y="460.8"/>
      </g>
     </g>
     <g id="text_4">
      <!-- 2020-10 -->
      <g transform="translate(322.247774 500.766215)rotate(-30)scale(0.12 -0.12)">
       <use xlink:href="#DejaVuSans-50"/>
       <use x="63.623047" xlink:href="#DejaVuSans-48"/>
       <use x="127.246094" xlink:href="#DejaVuSans-50"/>
       <use x="190.869141" xlink:href="#DejaVuSans-48"/>
       <use x="254.492188" xlink:href="#DejaVuSans-45"/>
       <use x="290.576172" xlink:href="#DejaVuSans-49"/>
       <use x="354.199219" xlink:href="#DejaVuSans-48"/>
      </g>
     </g>
    </g>
    <g id="xtick_5">
     <g id="line2d_5">
      <g>
       <use style="stroke:#000000;stroke-width:0.8;" x="443.633873" xlink:href="#maf0fde732d" y="460.8"/>
      </g>
     </g>
     <g id="text_5">
      <!-- 2021-01 -->
      <g transform="translate(398.964088 500.766215)rotate(-30)scale(0.12 -0.12)">
       <use xlink:href="#DejaVuSans-50"/>
       <use x="63.623047" xlink:href="#DejaVuSans-48"/>
       <use x="127.246094" xlink:href="#DejaVuSans-50"/>
       <use x="190.869141" xlink:href="#DejaVuSans-49"/>
       <use x="254.492188" xlink:href="#DejaVuSans-45"/>
       <use x="290.576172" xlink:href="#DejaVuSans-48"/>
       <use x="354.199219" xlink:href="#DejaVuSans-49"/>
      </g>
     </g>
    </g>
    <g id="xtick_6">
     <g id="line2d_6">
      <g>
       <use style="stroke:#000000;stroke-width:0.8;" x="518.682441" xlink:href="#maf0fde732d" y="460.8"/>
      </g>
     </g>
     <g id="text_6">
      <!-- 2021-04 -->
      <g transform="translate(474.012656 500.766215)rotate(-30)scale(0.12 -0.12)">
       <use xlink:href="#DejaVuSans-50"/>
       <use x="63.623047" xlink:href="#DejaVuSans-48"/>
       <use x="127.246094" xlink:href="#DejaVuSans-50"/>
       <use x="190.869141" xlink:href="#DejaVuSans-49"/>
       <use x="254.492188" xlink:href="#DejaVuSans-45"/>
       <use x="290.576172" xlink:href="#DejaVuSans-48"/>
       <use x="354.199219" xlink:href="#DejaVuSans-52"/>
      </g>
     </g>
    </g>
    <g id="xtick_7">
     <g id="line2d_7">
      <g>
       <use style="stroke:#000000;stroke-width:0.8;" x="594.564882" xlink:href="#maf0fde732d" y="460.8"/>
      </g>
     </g>
     <g id="text_7">
      <!-- 2021-07 -->
      <g transform="translate(549.895097 500.766215)rotate(-30)scale(0.12 -0.12)">
       <use xlink:href="#DejaVuSans-50"/>
       <use x="63.623047" xlink:href="#DejaVuSans-48"/>
       <use x="127.246094" xlink:href="#DejaVuSans-50"/>
       <use x="190.869141" xlink:href="#DejaVuSans-49"/>
       <use x="254.492188" xlink:href="#DejaVuSans-45"/>
       <use x="290.576172" xlink:href="#DejaVuSans-48"/>
       <use x="354.199219" xlink:href="#DejaVuSans-55"/>
      </g>
     </g>
    </g>
    <g id="xtick_8">
     <g id="line2d_8">
      <g>
       <use style="stroke:#000000;stroke-width:0.8;" x="671.281196" xlink:href="#maf0fde732d" y="460.8"/>
      </g>
     </g>
     <g id="text_8">
      <!-- 2021-10 -->
      <g transform="translate(626.611411 500.766215)rotate(-30)scale(0.12 -0.12)">
       <use xlink:href="#DejaVuSans-50"/>
       <use x="63.623047" xlink:href="#DejaVuSans-48"/>
       <use x="127.246094" xlink:href="#DejaVuSans-50"/>
       <use x="190.869141" xlink:href="#DejaVuSans-49"/>
       <use x="254.492188" xlink:href="#DejaVuSans-45"/>
       <use x="290.576172" xlink:href="#DejaVuSans-49"/>
       <use x="354.199219" xlink:href="#DejaVuSans-48"/>
      </g>
     </g>
    </g>
    <g id="xtick_9">
     <g id="line2d_9">
      <g>
       <use style="stroke:#000000;stroke-width:0.8;" x="747.997509" xlink:href="#maf0fde732d" y="460.8"/>
      </g>
     </g>
     <g id="text_9">
      <!-- 2022-01 -->
      <g transform="translate(703.327724 500.766215)rotate(-30)scale(0.12 -0.12)">
       <use xlink:href="#DejaVuSans-50"/>
       <use x="63.623047" xlink:href="#DejaVuSans-48"/>
       <use x="127.246094" xlink:href="#DejaVuSans-50"/>
       <use x="190.869141" xlink:href="#DejaVuSans-50"/>
       <use x="254.492188" xlink:href="#DejaVuSans-45"/>
       <use x="290.576172" xlink:href="#DejaVuSans-48"/>
       <use x="354.199219" xlink:href="#DejaVuSans-49"/>
      </g>
     </g>
    </g>
    <g id="text_10">
     <!-- Date -->
     <g transform="translate(424.873828 518.325146)scale(0.15 -0.15)">
      <defs>
       <path d="M 19.671875 64.796875 
L 19.671875 8.109375 
L 31.59375 8.109375 
Q 46.6875 8.109375 53.6875 14.9375 
Q 60.6875 21.78125 60.6875 36.53125 
Q 60.6875 51.171875 53.6875 57.984375 
Q 46.6875 64.796875 31.59375 64.796875 
z
M 9.8125 72.90625 
L 30.078125 72.90625 
Q 51.265625 72.90625 61.171875 64.09375 
Q 71.09375 55.28125 71.09375 36.53125 
Q 71.09375 17.671875 61.125 8.828125 
Q 51.171875 0 30.078125 0 
L 9.8125 0 
z
" id="DejaVuSans-68"/>
       <path d="M 34.28125 27.484375 
Q 23.390625 27.484375 19.1875 25 
Q 14.984375 22.515625 14.984375 16.5 
Q 14.984375 11.71875 18.140625 8.90625 
Q 21.296875 6.109375 26.703125 6.109375 
Q 34.1875 6.109375 38.703125 11.40625 
Q 43.21875 16.703125 43.21875 25.484375 
L 43.21875 27.484375 
z
M 52.203125 31.203125 
L 52.203125 0 
L 43.21875 0 
L 43.21875 8.296875 
Q 40.140625 3.328125 35.546875 0.953125 
Q 30.953125 -1.421875 24.3125 -1.421875 
Q 15.921875 -1.421875 10.953125 3.296875 
Q 6 8.015625 6 15.921875 
Q 6 25.140625 12.171875 29.828125 
Q 18.359375 34.515625 30.609375 34.515625 
L 43.21875 34.515625 
L 43.21875 35.40625 
Q 43.21875 41.609375 39.140625 45 
Q 35.0625 48.390625 27.6875 48.390625 
Q 23 48.390625 18.546875 47.265625 
Q 14.109375 46.140625 10.015625 43.890625 
L 10.015625 52.203125 
Q 14.9375 54.109375 19.578125 55.046875 
Q 24.21875 56 28.609375 56 
Q 40.484375 56 46.34375 49.84375 
Q 52.203125 43.703125 52.203125 31.203125 
z
" id="DejaVuSans-97"/>
       <path d="M 18.3125 70.21875 
L 18.3125 54.6875 
L 36.8125 54.6875 
L 36.8125 47.703125 
L 18.3125 47.703125 
L 18.3125 18.015625 
Q 18.3125 11.328125 20.140625 9.421875 
Q 21.96875 7.515625 27.59375 7.515625 
L 36.8125 7.515625 
L 36.8125 0 
L 27.59375 0 
Q 17.1875 0 13.234375 3.875 
Q 9.28125 7.765625 9.28125 18.015625 
L 9.28125 47.703125 
L 2.6875 47.703125 
L 2.6875 54.6875 
L 9.28125 54.6875 
L 9.28125 70.21875 
z
" id="DejaVuSans-116"/>
       <path d="M 56.203125 29.59375 
L 56.203125 25.203125 
L 14.890625 25.203125 
Q 15.484375 15.921875 20.484375 11.0625 
Q 25.484375 6.203125 34.421875 6.203125 
Q 39.59375 6.203125 44.453125 7.46875 
Q 49.3125 8.734375 54.109375 11.28125 
L 54.109375 2.78125 
Q 49.265625 0.734375 44.1875 -0.34375 
Q 39.109375 -1.421875 33.890625 -1.421875 
Q 20.796875 -1.421875 13.15625 6.1875 
Q 5.515625 13.8125 5.515625 26.8125 
Q 5.515625 40.234375 12.765625 48.109375 
Q 20.015625 56 32.328125 56 
Q 43.359375 56 49.78125 48.890625 
Q 56.203125 41.796875 56.203125 29.59375 
z
M 47.21875 32.234375 
Q 47.125 39.59375 43.09375 43.984375 
Q 39.0625 48.390625 32.421875 48.390625 
Q 24.90625 48.390625 20.390625 44.140625 
Q 15.875 39.890625 15.1875 32.171875 
z
" id="DejaVuSans-101"/>
      </defs>
      <use xlink:href="#DejaVuSans-68"/>
      <use x="77.001953" xlink:href="#DejaVuSans-97"/>
      <use x="138.28125" xlink:href="#DejaVuSans-116"/>
      <use x="177.490234" xlink:href="#DejaVuSans-101"/>
     </g>
    </g>
   </g>
   <g id="matplotlib.axis_2">
    <g id="ytick_1">
     <g id="line2d_10">
      <defs>
       <path d="M 0 0 
L -3.5 0 
" id="mf17193b8ea" style="stroke:#000000;stroke-width:0.8;"/>
      </defs>
      <g>
       <use style="stroke:#000000;stroke-width:0.8;" x="108" xlink:href="#mf17193b8ea" y="423.27395"/>
      </g>
     </g>
     <g id="text_11">
      <!-- 20 -->
      <g transform="translate(85.73 427.833013)scale(0.12 -0.12)">
       <use xlink:href="#DejaVuSans-50"/>
       <use x="63.623047" xlink:href="#DejaVuSans-48"/>
      </g>
     </g>
    </g>
    <g id="ytick_2">
     <g id="line2d_11">
      <g>
       <use style="stroke:#000000;stroke-width:0.8;" x="108" xlink:href="#mf17193b8ea" y="366.245285"/>
      </g>
     </g>
     <g id="text_12">
      <!-- 40 -->
      <g transform="translate(85.73 370.804348)scale(0.12 -0.12)">
       <use xlink:href="#DejaVuSans-52"/>
       <use x="63.623047" xlink:href="#DejaVuSans-48"/>
      </g>
     </g>
    </g>
    <g id="ytick_3">
     <g id="line2d_12">
      <g>
       <use style="stroke:#000000;stroke-width:0.8;" x="108" xlink:href="#mf17193b8ea" y="309.21662"/>
      </g>
     </g>
     <g id="text_13">
      <!-- 60 -->
      <g transform="translate(85.73 313.775683)scale(0.12 -0.12)">
       <defs>
        <path d="M 33.015625 40.375 
Q 26.375 40.375 22.484375 35.828125 
Q 18.609375 31.296875 18.609375 23.390625 
Q 18.609375 15.53125 22.484375 10.953125 
Q 26.375 6.390625 33.015625 6.390625 
Q 39.65625 6.390625 43.53125 10.953125 
Q 47.40625 15.53125 47.40625 23.390625 
Q 47.40625 31.296875 43.53125 35.828125 
Q 39.65625 40.375 33.015625 40.375 
z
M 52.59375 71.296875 
L 52.59375 62.3125 
Q 48.875 64.0625 45.09375 64.984375 
Q 41.3125 65.921875 37.59375 65.921875 
Q 27.828125 65.921875 22.671875 59.328125 
Q 17.53125 52.734375 16.796875 39.40625 
Q 19.671875 43.65625 24.015625 45.921875 
Q 28.375 48.1875 33.59375 48.1875 
Q 44.578125 48.1875 50.953125 41.515625 
Q 57.328125 34.859375 57.328125 23.390625 
Q 57.328125 12.15625 50.6875 5.359375 
Q 44.046875 -1.421875 33.015625 -1.421875 
Q 20.359375 -1.421875 13.671875 8.265625 
Q 6.984375 17.96875 6.984375 36.375 
Q 6.984375 53.65625 15.1875 63.9375 
Q 23.390625 74.21875 37.203125 74.21875 
Q 40.921875 74.21875 44.703125 73.484375 
Q 48.484375 72.75 52.59375 71.296875 
z
" id="DejaVuSans-54"/>
       </defs>
       <use xlink:href="#DejaVuSans-54"/>
       <use x="63.623047" xlink:href="#DejaVuSans-48"/>
      </g>
     </g>
    </g>
    <g id="ytick_4">
     <g id="line2d_13">
      <g>
       <use style="stroke:#000000;stroke-width:0.8;" x="108" xlink:href="#mf17193b8ea" y="252.187955"/>
      </g>
     </g>
     <g id="text_14">
      <!-- 80 -->
      <g transform="translate(85.73 256.747018)scale(0.12 -0.12)">
       <defs>
        <path d="M 31.78125 34.625 
Q 24.75 34.625 20.71875 30.859375 
Q 16.703125 27.09375 16.703125 20.515625 
Q 16.703125 13.921875 20.71875 10.15625 
Q 24.75 6.390625 31.78125 6.390625 
Q 38.8125 6.390625 42.859375 10.171875 
Q 46.921875 13.96875 46.921875 20.515625 
Q 46.921875 27.09375 42.890625 30.859375 
Q 38.875 34.625 31.78125 34.625 
z
M 21.921875 38.8125 
Q 15.578125 40.375 12.03125 44.71875 
Q 8.5 49.078125 8.5 55.328125 
Q 8.5 64.0625 14.71875 69.140625 
Q 20.953125 74.21875 31.78125 74.21875 
Q 42.671875 74.21875 48.875 69.140625 
Q 55.078125 64.0625 55.078125 55.328125 
Q 55.078125 49.078125 51.53125 44.71875 
Q 48 40.375 41.703125 38.8125 
Q 48.828125 37.15625 52.796875 32.3125 
Q 56.78125 27.484375 56.78125 20.515625 
Q 56.78125 9.90625 50.3125 4.234375 
Q 43.84375 -1.421875 31.78125 -1.421875 
Q 19.734375 -1.421875 13.25 4.234375 
Q 6.78125 9.90625 6.78125 20.515625 
Q 6.78125 27.484375 10.78125 32.3125 
Q 14.796875 37.15625 21.921875 38.8125 
z
M 18.3125 54.390625 
Q 18.3125 48.734375 21.84375 45.5625 
Q 25.390625 42.390625 31.78125 42.390625 
Q 38.140625 42.390625 41.71875 45.5625 
Q 45.3125 48.734375 45.3125 54.390625 
Q 45.3125 60.0625 41.71875 63.234375 
Q 38.140625 66.40625 31.78125 66.40625 
Q 25.390625 66.40625 21.84375 63.234375 
Q 18.3125 60.0625 18.3125 54.390625 
z
" id="DejaVuSans-56"/>
       </defs>
       <use xlink:href="#DejaVuSans-56"/>
       <use x="63.623047" xlink:href="#DejaVuSans-48"/>
      </g>
     </g>
    </g>
    <g id="ytick_5">
     <g id="line2d_14">
      <g>
       <use style="stroke:#000000;stroke-width:0.8;" x="108" xlink:href="#mf17193b8ea" y="195.15929"/>
      </g>
     </g>
     <g id="text_15">
      <!-- 100 -->
      <g transform="translate(78.095 199.718353)scale(0.12 -0.12)">
       <use xlink:href="#DejaVuSans-49"/>
       <use x="63.623047" xlink:href="#DejaVuSans-48"/>
       <use x="127.246094" xlink:href="#DejaVuSans-48"/>
      </g>
     </g>
    </g>
    <g id="ytick_6">
     <g id="line2d_15">
      <g>
       <use style="stroke:#000000;stroke-width:0.8;" x="108" xlink:href="#mf17193b8ea" y="138.130625"/>
      </g>
     </g>
     <g id="text_16">
      <!-- 120 -->
      <g transform="translate(78.095 142.689688)scale(0.12 -0.12)">
       <use xlink:href="#DejaVuSans-49"/>
       <use x="63.623047" xlink:href="#DejaVuSans-50"/>
       <use x="127.246094" xlink:href="#DejaVuSans-48"/>
      </g>
     </g>
    </g>
    <g id="ytick_7">
     <g id="line2d_16">
      <g>
       <use style="stroke:#000000;stroke-width:0.8;" x="108" xlink:href="#mf17193b8ea" y="81.10196"/>
      </g>
     </g>
     <g id="text_17">
      <!-- 140 -->
      <g transform="translate(78.095 85.661023)scale(0.12 -0.12)">
       <use xlink:href="#DejaVuSans-49"/>
       <use x="63.623047" xlink:href="#DejaVuSans-52"/>
       <use x="127.246094" xlink:href="#DejaVuSans-48"/>
      </g>
     </g>
    </g>
    <g id="text_18">
     <!-- PM10(micro-gram/m3) -->
     <g transform="translate(70.975469 349.562344)rotate(-90)scale(0.15 -0.15)">
      <defs>
       <path d="M 19.671875 64.796875 
L 19.671875 37.40625 
L 32.078125 37.40625 
Q 38.96875 37.40625 42.71875 40.96875 
Q 46.484375 44.53125 46.484375 51.125 
Q 46.484375 57.671875 42.71875 61.234375 
Q 38.96875 64.796875 32.078125 64.796875 
z
M 9.8125 72.90625 
L 32.078125 72.90625 
Q 44.34375 72.90625 50.609375 67.359375 
Q 56.890625 61.8125 56.890625 51.125 
Q 56.890625 40.328125 50.609375 34.8125 
Q 44.34375 29.296875 32.078125 29.296875 
L 19.671875 29.296875 
L 19.671875 0 
L 9.8125 0 
z
" id="DejaVuSans-80"/>
       <path d="M 9.8125 72.90625 
L 24.515625 72.90625 
L 43.109375 23.296875 
L 61.8125 72.90625 
L 76.515625 72.90625 
L 76.515625 0 
L 66.890625 0 
L 66.890625 64.015625 
L 48.09375 14.015625 
L 38.1875 14.015625 
L 19.390625 64.015625 
L 19.390625 0 
L 9.8125 0 
z
" id="DejaVuSans-77"/>
       <path d="M 31 75.875 
Q 24.46875 64.65625 21.28125 53.65625 
Q 18.109375 42.671875 18.109375 31.390625 
Q 18.109375 20.125 21.3125 9.0625 
Q 24.515625 -2 31 -13.1875 
L 23.1875 -13.1875 
Q 15.875 -1.703125 12.234375 9.375 
Q 8.59375 20.453125 8.59375 31.390625 
Q 8.59375 42.28125 12.203125 53.3125 
Q 15.828125 64.359375 23.1875 75.875 
z
" id="DejaVuSans-40"/>
       <path d="M 52 44.1875 
Q 55.375 50.25 60.0625 53.125 
Q 64.75 56 71.09375 56 
Q 79.640625 56 84.28125 50.015625 
Q 88.921875 44.046875 88.921875 33.015625 
L 88.921875 0 
L 79.890625 0 
L 79.890625 32.71875 
Q 79.890625 40.578125 77.09375 44.375 
Q 74.3125 48.1875 68.609375 48.1875 
Q 61.625 48.1875 57.5625 43.546875 
Q 53.515625 38.921875 53.515625 30.90625 
L 53.515625 0 
L 44.484375 0 
L 44.484375 32.71875 
Q 44.484375 40.625 41.703125 44.40625 
Q 38.921875 48.1875 33.109375 48.1875 
Q 26.21875 48.1875 22.15625 43.53125 
Q 18.109375 38.875 18.109375 30.90625 
L 18.109375 0 
L 9.078125 0 
L 9.078125 54.6875 
L 18.109375 54.6875 
L 18.109375 46.1875 
Q 21.1875 51.21875 25.484375 53.609375 
Q 29.78125 56 35.6875 56 
Q 41.65625 56 45.828125 52.96875 
Q 50 49.953125 52 44.1875 
z
" id="DejaVuSans-109"/>
       <path d="M 9.421875 54.6875 
L 18.40625 54.6875 
L 18.40625 0 
L 9.421875 0 
z
M 9.421875 75.984375 
L 18.40625 75.984375 
L 18.40625 64.59375 
L 9.421875 64.59375 
z
" id="DejaVuSans-105"/>
       <path d="M 48.78125 52.59375 
L 48.78125 44.1875 
Q 44.96875 46.296875 41.140625 47.34375 
Q 37.3125 48.390625 33.40625 48.390625 
Q 24.65625 48.390625 19.8125 42.84375 
Q 14.984375 37.3125 14.984375 27.296875 
Q 14.984375 17.28125 19.8125 11.734375 
Q 24.65625 6.203125 33.40625 6.203125 
Q 37.3125 6.203125 41.140625 7.25 
Q 44.96875 8.296875 48.78125 10.40625 
L 48.78125 2.09375 
Q 45.015625 0.34375 40.984375 -0.53125 
Q 36.96875 -1.421875 32.421875 -1.421875 
Q 20.0625 -1.421875 12.78125 6.34375 
Q 5.515625 14.109375 5.515625 27.296875 
Q 5.515625 40.671875 12.859375 48.328125 
Q 20.21875 56 33.015625 56 
Q 37.15625 56 41.109375 55.140625 
Q 45.0625 54.296875 48.78125 52.59375 
z
" id="DejaVuSans-99"/>
       <path d="M 41.109375 46.296875 
Q 39.59375 47.171875 37.8125 47.578125 
Q 36.03125 48 33.890625 48 
Q 26.265625 48 22.1875 43.046875 
Q 18.109375 38.09375 18.109375 28.8125 
L 18.109375 0 
L 9.078125 0 
L 9.078125 54.6875 
L 18.109375 54.6875 
L 18.109375 46.1875 
Q 20.953125 51.171875 25.484375 53.578125 
Q 30.03125 56 36.53125 56 
Q 37.453125 56 38.578125 55.875 
Q 39.703125 55.765625 41.0625 55.515625 
z
" id="DejaVuSans-114"/>
       <path d="M 30.609375 48.390625 
Q 23.390625 48.390625 19.1875 42.75 
Q 14.984375 37.109375 14.984375 27.296875 
Q 14.984375 17.484375 19.15625 11.84375 
Q 23.34375 6.203125 30.609375 6.203125 
Q 37.796875 6.203125 41.984375 11.859375 
Q 46.1875 17.53125 46.1875 27.296875 
Q 46.1875 37.015625 41.984375 42.703125 
Q 37.796875 48.390625 30.609375 48.390625 
z
M 30.609375 56 
Q 42.328125 56 49.015625 48.375 
Q 55.71875 40.765625 55.71875 27.296875 
Q 55.71875 13.875 49.015625 6.21875 
Q 42.328125 -1.421875 30.609375 -1.421875 
Q 18.84375 -1.421875 12.171875 6.21875 
Q 5.515625 13.875 5.515625 27.296875 
Q 5.515625 40.765625 12.171875 48.375 
Q 18.84375 56 30.609375 56 
z
" id="DejaVuSans-111"/>
       <path d="M 45.40625 27.984375 
Q 45.40625 37.75 41.375 43.109375 
Q 37.359375 48.484375 30.078125 48.484375 
Q 22.859375 48.484375 18.828125 43.109375 
Q 14.796875 37.75 14.796875 27.984375 
Q 14.796875 18.265625 18.828125 12.890625 
Q 22.859375 7.515625 30.078125 7.515625 
Q 37.359375 7.515625 41.375 12.890625 
Q 45.40625 18.265625 45.40625 27.984375 
z
M 54.390625 6.78125 
Q 54.390625 -7.171875 48.1875 -13.984375 
Q 42 -20.796875 29.203125 -20.796875 
Q 24.46875 -20.796875 20.265625 -20.09375 
Q 16.0625 -19.390625 12.109375 -17.921875 
L 12.109375 -9.1875 
Q 16.0625 -11.328125 19.921875 -12.34375 
Q 23.78125 -13.375 27.78125 -13.375 
Q 36.625 -13.375 41.015625 -8.765625 
Q 45.40625 -4.15625 45.40625 5.171875 
L 45.40625 9.625 
Q 42.625 4.78125 38.28125 2.390625 
Q 33.9375 0 27.875 0 
Q 17.828125 0 11.671875 7.65625 
Q 5.515625 15.328125 5.515625 27.984375 
Q 5.515625 40.671875 11.671875 48.328125 
Q 17.828125 56 27.875 56 
Q 33.9375 56 38.28125 53.609375 
Q 42.625 51.21875 45.40625 46.390625 
L 45.40625 54.6875 
L 54.390625 54.6875 
z
" id="DejaVuSans-103"/>
       <path d="M 25.390625 72.90625 
L 33.6875 72.90625 
L 8.296875 -9.28125 
L 0 -9.28125 
z
" id="DejaVuSans-47"/>
       <path d="M 40.578125 39.3125 
Q 47.65625 37.796875 51.625 33 
Q 55.609375 28.21875 55.609375 21.1875 
Q 55.609375 10.40625 48.1875 4.484375 
Q 40.765625 -1.421875 27.09375 -1.421875 
Q 22.515625 -1.421875 17.65625 -0.515625 
Q 12.796875 0.390625 7.625 2.203125 
L 7.625 11.71875 
Q 11.71875 9.328125 16.59375 8.109375 
Q 21.484375 6.890625 26.8125 6.890625 
Q 36.078125 6.890625 40.9375 10.546875 
Q 45.796875 14.203125 45.796875 21.1875 
Q 45.796875 27.640625 41.28125 31.265625 
Q 36.765625 34.90625 28.71875 34.90625 
L 20.21875 34.90625 
L 20.21875 43.015625 
L 29.109375 43.015625 
Q 36.375 43.015625 40.234375 45.921875 
Q 44.09375 48.828125 44.09375 54.296875 
Q 44.09375 59.90625 40.109375 62.90625 
Q 36.140625 65.921875 28.71875 65.921875 
Q 24.65625 65.921875 20.015625 65.03125 
Q 15.375 64.15625 9.8125 62.3125 
L 9.8125 71.09375 
Q 15.4375 72.65625 20.34375 73.4375 
Q 25.25 74.21875 29.59375 74.21875 
Q 40.828125 74.21875 47.359375 69.109375 
Q 53.90625 64.015625 53.90625 55.328125 
Q 53.90625 49.265625 50.4375 45.09375 
Q 46.96875 40.921875 40.578125 39.3125 
z
" id="DejaVuSans-51"/>
       <path d="M 8.015625 75.875 
L 15.828125 75.875 
Q 23.140625 64.359375 26.78125 53.3125 
Q 30.421875 42.28125 30.421875 31.390625 
Q 30.421875 20.453125 26.78125 9.375 
Q 23.140625 -1.703125 15.828125 -13.1875 
L 8.015625 -13.1875 
Q 14.5 -2 17.703125 9.0625 
Q 20.90625 20.125 20.90625 31.390625 
Q 20.90625 42.671875 17.703125 53.65625 
Q 14.5 64.65625 8.015625 75.875 
z
" id="DejaVuSans-41"/>
      </defs>
      <use xlink:href="#DejaVuSans-80"/>
      <use x="60.302734" xlink:href="#DejaVuSans-77"/>
      <use x="146.582031" xlink:href="#DejaVuSans-49"/>
      <use x="210.205078" xlink:href="#DejaVuSans-48"/>
      <use x="273.828125" xlink:href="#DejaVuSans-40"/>
      <use x="312.841797" xlink:href="#DejaVuSans-109"/>
      <use x="410.253906" xlink:href="#DejaVuSans-105"/>
      <use x="438.037109" xlink:href="#DejaVuSans-99"/>
      <use x="493.017578" xlink:href="#DejaVuSans-114"/>
      <use x="531.880859" xlink:href="#DejaVuSans-111"/>
      <use x="594.9375" xlink:href="#DejaVuSans-45"/>
      <use x="631.021484" xlink:href="#DejaVuSans-103"/>
      <use x="694.498047" xlink:href="#DejaVuSans-114"/>
      <use x="735.611328" xlink:href="#DejaVuSans-97"/>
      <use x="796.890625" xlink:href="#DejaVuSans-109"/>
      <use x="894.302734" xlink:href="#DejaVuSans-47"/>
      <use x="927.994141" xlink:href="#DejaVuSans-109"/>
      <use x="1025.40625" xlink:href="#DejaVuSans-51"/>
      <use x="1089.029297" xlink:href="#DejaVuSans-41"/>
     </g>
    </g>
   </g>
   <g id="line2d_17">
    <path clip-path="url(#pcf49112260)" d="M 138.436364 337.136904 
L 139.270237 324.341614 
L 140.10411 287.830871 
L 140.937983 294.127786 
L 141.771856 353.057406 
L 142.605729 349.493115 
L 143.439601 312.543292 
L 144.273474 293.652547 
L 145.107347 315.513535 
L 145.94122 314.563058 
L 146.775093 277.019186 
L 147.608966 309.45424 
L 148.442839 293.533737 
L 149.276712 323.592596 
L 150.110585 296.819084 
L 150.944458 296.147551 
L 151.778331 338.087382 
L 152.612204 335.354758 
L 153.446077 297.573268 
L 154.27995 340.938815 
L 155.113823 303.513754 
L 155.947696 317.533301 
L 156.781569 338.087382 
L 157.615442 369.928387 
L 158.449315 378.126257 
L 159.283188 413.175124 
L 160.117061 419.35323 
L 160.950934 409.373213 
L 161.784807 373.373868 
L 162.61868 363.393852 
L 163.452553 360.423609 
L 164.286426 342.602151 
L 165.120299 333.097374 
L 165.954172 338.443811 
L 166.788045 395.947715 
L 167.621918 387.890256 
L 168.455791 359.116702 
L 169.289664 344.027868 
L 170.123537 419.828468 
L 170.95741 398.323909 
L 171.791283 372.77982 
L 173.459029 331.196418 
L 174.292902 393.215091 
L 175.126775 392.502233 
L 175.960648 373.373868 
L 176.794521 430.640153 
L 177.628394 395.591286 
L 178.462267 393.463512 
L 179.296139 366.720524 
L 180.130012 364.938378 
L 180.963885 368.740289 
L 181.797758 324.899503 
L 182.631631 329.889511 
L 183.465504 304.93947 
L 184.299377 322.523309 
L 185.13325 363.264241 
L 185.967123 379.314354 
L 186.800996 359.710751 
L 187.634869 367.195763 
L 188.468742 357.572176 
L 189.302615 366.364095 
L 190.136488 357.809795 
L 190.970361 399.470681 
L 191.804234 407.353448 
L 192.638107 361.136467 
L 193.47198 300.305891 
L 194.305853 364.10671 
L 195.139726 370.641245 
L 195.973599 374.918395 
L 196.807472 352.463358 
L 197.641345 272.742037 
L 198.475218 262.286781 
L 199.309091 370.522435 
L 200.142964 296.147551 
L 200.976837 283.672531 
L 201.81071 284.421549 
L 202.644583 311.236385 
L 203.478456 362.205755 
L 204.312329 305.652329 
L 205.146202 299.949462 
L 205.980075 336.305236 
L 206.813948 352.700977 
L 207.647821 337.235051 
L 208.481694 344.740726 
L 209.315567 347.23573 
L 210.14944 366.364095 
L 210.983313 360.18599 
L 211.817186 365.175998 
L 212.651059 376.106492 
L 213.484932 365.175998 
L 214.318804 330.958799 
L 215.152677 305.414709 
L 215.98655 372.77982 
L 216.820423 385.25484 
L 217.654296 408.066306 
L 218.488169 402.601059 
L 219.322042 359.798567 
L 220.155915 311.236385 
L 220.989788 346.285253 
L 221.823661 335.235949 
L 222.657534 285.098247 
L 223.491407 370.760055 
L 224.32528 346.285253 
L 225.993026 254.682959 
L 226.826899 330.958799 
L 227.660772 358.522654 
L 228.494645 330.127131 
L 230.162391 352.23607 
L 230.996264 381.21531 
L 231.830137 397.84867 
L 232.66401 381.0965 
L 233.497883 353.651455 
L 234.331756 304.701851 
L 235.165629 179.951646 
L 235.999502 220.228141 
L 236.833375 301.375179 
L 238.501121 326.562839 
L 239.334994 372.568029 
L 240.168867 343.31501 
L 241.00274 354.720743 
L 241.836613 372.66101 
L 242.670486 370.460447 
L 243.504359 374.086727 
L 244.338232 385.136031 
L 245.172105 379.551974 
L 246.005978 367.433382 
L 246.839851 387.274606 
L 247.673724 373.492678 
L 248.507597 338.087382 
L 249.341469 294.127786 
L 251.843088 402.24463 
L 252.676961 391.314136 
L 253.510834 384.304363 
L 254.344707 383.472695 
L 255.17858 392.280111 
L 256.012453 350.128489 
L 256.846326 356.027649 
L 257.680199 414.363221 
L 258.514072 408.066306 
L 259.347945 412.224646 
L 260.181818 365.501433 
L 261.015691 334.76071 
L 261.849564 324.067835 
L 262.683437 375.156014 
L 263.51731 411.868217 
L 264.351183 392.502233 
L 265.185056 378.720306 
L 266.018929 394.015766 
L 266.852802 377.888638 
L 267.686675 379.014747 
L 268.520548 370.284816 
L 269.354421 407.472258 
L 270.188294 381.809358 
L 271.022167 375.987682 
L 271.85604 351.869309 
L 272.689913 378.482686 
L 273.523786 381.494254 
L 274.357659 412.818695 
L 275.191532 405.690112 
L 276.025405 412.462266 
L 276.859278 377.294589 
L 277.693151 412.38666 
L 278.527024 389.76961 
L 279.360897 388.937942 
L 280.19477 383.947933 
L 281.028643 380.858881 
L 281.862516 394.521998 
L 282.696389 367.314573 
L 283.530262 364.26168 
L 284.364134 349.493115 
L 285.198007 380.502452 
L 286.03188 368.265051 
L 286.865753 385.136031 
L 287.699626 406.046541 
L 288.533499 406.284161 
L 289.367372 395.710096 
L 290.201245 427.194671 
L 291.035118 389.924579 
L 291.868991 384.779601 
L 292.702864 373.373868 
L 293.536737 394.640808 
L 294.37061 379.195545 
L 295.204483 366.126476 
L 296.038356 344.027868 
L 296.872229 340.344767 
L 297.706102 356.978127 
L 298.539975 352.344548 
L 299.373848 399.868436 
L 300.207721 369.571957 
L 301.041594 349.849544 
L 301.875467 338.91905 
L 302.70934 355.583404 
L 303.543213 360.780038 
L 304.377086 369.571957 
L 305.210959 386.442937 
L 306.044832 372.568029 
L 306.878705 419.709659 
L 307.712578 417.927513 
L 308.546451 407.947497 
L 309.380324 367.314573 
L 310.214197 346.166443 
L 311.04807 360.06718 
L 311.881943 361.611706 
L 312.715816 367.671002 
L 313.549689 408.779165 
L 314.383562 414.843626 
L 315.217435 407.709877 
L 316.051308 409.535226 
L 316.885181 432.217082 
L 317.719054 438.956833 
L 318.552927 426.719432 
L 319.3868 409.135594 
L 320.220672 415.788938 
L 321.054545 405.808922 
L 321.888418 419.709659 
L 322.722291 407.709877 
L 323.556164 364.10671 
L 324.390037 377.413399 
L 325.22391 412.983996 
L 326.057783 412.818695 
L 326.891656 401.826213 
L 327.725529 366.958144 
L 328.559402 420.422517 
L 329.393275 408.541545 
L 330.227148 385.136031 
L 331.061021 413.412744 
L 331.894894 404.858444 
L 332.728767 350.562402 
L 333.56264 339.631908 
L 334.396513 377.175779 
L 335.230386 329.533082 
L 336.064259 366.381068 
L 336.898132 335.235949 
L 337.732005 355.087503 
L 338.565878 310.404717 
L 339.399751 324.424264 
L 340.233624 334.285471 
L 341.067497 359.591941 
L 343.569116 213.337177 
L 345.236862 390.482468 
L 346.070735 389.175561 
L 346.904608 413.056314 
L 347.738481 426.719432 
L 349.406227 305.023336 
L 350.2401 320.978782 
L 351.073973 385.730079 
L 352.741719 400.818913 
L 353.575592 415.07608 
L 354.409465 413.293934 
L 355.243337 407.709877 
L 356.07721 418.521562 
L 356.911083 405.333683 
L 357.744956 425.768954 
L 358.578829 424.818477 
L 359.412702 381.928168 
L 360.246575 383.47786 
L 361.914321 338.80024 
L 362.748194 353.532645 
L 363.582067 364.46314 
L 364.41594 371.591723 
L 365.249813 408.066306 
L 366.083686 409.610833 
L 367.751432 352.819787 
L 368.585305 361.017658 
L 369.419178 333.097374 
L 370.253051 343.1962 
L 371.086924 324.424264 
L 371.920797 344.301647 
L 372.75467 330.721179 
L 373.588543 288.662539 
L 374.422416 258.009631 
L 375.256289 278.801332 
L 376.090162 282.722053 
L 376.924035 392.383423 
L 377.757908 352.938597 
L 378.591781 348.780257 
L 379.425654 311.949244 
L 380.259527 311.236385 
L 381.0934 317.77092 
L 381.927273 323.117357 
L 382.761146 313.803709 
L 383.595019 307.909713 
L 384.428892 295.553503 
L 385.262765 246.12866 
L 386.096638 224.98053 
L 386.930511 249.692951 
L 387.764384 294.484215 
L 388.598257 307.909713 
L 389.43213 330.721179 
L 390.266002 325.018313 
L 391.099875 291.632782 
L 391.933748 298.286126 
L 392.767621 297.335648 
L 393.601494 223.911242 
L 394.435367 303.394944 
L 395.26924 261.573923 
L 396.103113 312.43998 
L 396.936986 157.971848 
L 397.770859 230.326967 
L 398.604732 214.406465 
L 399.438605 201.218586 
L 400.272478 196.109768 
L 401.106351 251.712716 
L 401.940224 283.553721 
L 402.774097 274.642992 
L 403.60797 278.563713 
L 404.441843 308.622572 
L 405.275716 312.780912 
L 406.109589 360.542419 
L 406.943462 372.939955 
L 407.777335 378.482686 
L 408.611208 381.571739 
L 409.445081 372.77982 
L 410.278954 381.928168 
L 411.112827 313.61258 
L 411.9467 265.375834 
L 412.780573 297.810887 
L 413.614446 287.830871 
L 414.448319 279.87062 
L 416.116065 319.553066 
L 416.949938 309.21662 
L 417.783811 293.058498 
L 418.617684 282.840863 
L 419.451557 297.314986 
L 420.28543 290.444685 
L 421.119303 255.752247 
L 422.787049 154.850393 
L 423.620922 228.782441 
L 424.454795 211.792651 
L 425.288667 187.674278 
L 426.12254 225.336959 
L 426.956413 205.697196 
L 427.790286 339.982084 
L 428.624159 276.306328 
L 429.458032 341.182688 
L 430.291905 315.539364 
L 431.125778 261.573923 
L 431.959651 298.761365 
L 432.793524 282.840863 
L 433.627397 249.217712 
L 434.46127 220.346951 
L 435.295143 195.753339 
L 436.129016 164.625192 
L 436.962889 277.375616 
L 437.796762 245.296992 
L 438.630635 288.424919 
L 439.464508 183.397128 
L 440.298381 265.851073 
L 441.132254 293.223799 
L 441.966127 231.039825 
L 442.8 296.266361 
L 443.633873 313.61258 
L 444.467746 313.49377 
L 445.301619 259.910587 
L 446.135492 242.683178 
L 446.969365 165.338051 
L 447.803238 254.920579 
L 448.637111 204.545258 
L 449.470984 288.781349 
L 450.304857 302.088037 
L 451.13873 283.79134 
L 451.972603 289.494207 
L 452.806476 228.426011 
L 453.640349 179.357598 
L 454.474222 150.404186 
L 455.308095 210.248124 
L 456.141968 222.247906 
L 456.975841 86.923636 
L 457.809714 145.140399 
L 459.47746 282.484434 
L 460.311333 207.040262 
L 461.145205 242.326749 
L 461.979078 218.618809 
L 462.812951 251.118668 
L 463.646824 306.959236 
L 464.480697 259.078919 
L 465.31457 272.395939 
L 466.148443 266.941023 
L 466.982316 318.008539 
L 467.816189 238.168408 
L 468.650062 338.562621 
L 469.483935 327.038078 
L 470.317808 279.395381 
L 471.151681 283.434911 
L 471.985554 294.365405 
L 472.819427 319.315446 
L 473.6533 313.37496 
L 474.487173 314.444248 
L 475.321046 314.800677 
L 476.154919 299.918468 
L 476.988792 412.937505 
L 477.822665 409.016784 
L 478.656538 387.631035 
L 479.490411 373.492678 
L 480.324284 365.413617 
L 481.158157 344.978346 
L 481.99203 341.889293 
L 482.825903 368.027431 
L 483.659776 324.543074 
L 484.493649 315.869965 
L 485.327522 321.335212 
L 486.161395 324.424264 
L 486.995268 337.493333 
L 487.829141 335.829997 
L 488.663014 335.829997 
L 489.496887 370.088521 
L 490.33076 383.235075 
L 491.164633 346.166443 
L 491.998506 347.829779 
L 492.832379 345.928823 
L 493.666252 359.710751 
L 494.500125 347.592159 
L 495.333998 307.315665 
L 496.16787 296.147551 
L 497.001743 301.731608 
L 497.835616 354.245504 
L 498.669489 368.848768 
L 499.503362 321.118255 
L 500.337235 334.76071 
L 501.171108 367.908621 
L 502.004981 325.255932 
L 502.838854 330.24594 
L 503.672727 324.61436 
L 504.5066 358.760273 
L 505.340473 338.562621 
L 506.174346 355.077172 
L 507.008219 363.275042 
L 507.842092 380.740071 
L 508.675965 371.948152 
L 509.509838 278.326093 
L 510.343711 269.415364 
L 511.177584 141.219678 
L 512.011457 95.483102 
L 512.84533 189.586034 
L 513.679203 333.097374 
L 514.513076 330.839989 
L 515.346949 265.732263 
L 516.180822 334.285471 
L 517.014695 339.750718 
L 517.848568 334.166661 
L 519.516314 369.571957 
L 520.350187 370.166006 
L 521.18406 287.118013 
L 522.017933 324.899503 
L 522.851806 296.86041 
L 523.685679 332.028086 
L 524.519552 311.830434 
L 525.353425 366.493236 
L 526.187298 324.224164 
L 527.021171 355.195981 
L 527.855044 368.62148 
L 528.688917 350.443593 
L 529.52279 354.245504 
L 530.356663 356.146459 
L 531.190535 354.720743 
L 532.024408 349.374305 
L 532.858281 129.695135 
L 533.692154 192.679783 
L 534.526027 295.078264 
L 535.3599 291.395162 
L 536.193773 277.137996 
L 537.027646 282.128004 
L 537.861519 349.255495 
L 538.695392 352.106929 
L 539.529265 361.968135 
L 540.363138 399.274387 
L 541.197011 360.661229 
L 542.030884 294.484215 
L 542.864757 301.01875 
L 543.69863 352.582168 
L 544.532503 368.027431 
L 545.366376 357.809795 
L 546.200249 364.46314 
L 547.034122 344.859536 
L 547.867995 306.241212 
L 548.701868 327.750936 
L 549.535741 326.919268 
L 550.369614 365.413617 
L 551.203487 385.611269 
L 552.03736 386.442937 
L 552.871233 378.839115 
L 553.705106 359.054714 
L 554.538979 371.591723 
L 555.372852 388.700322 
L 556.206725 397.135812 
L 557.040598 398.917958 
L 557.874471 395.828905 
L 558.708344 391.789375 
L 559.542217 396.962998 
L 560.37609 406.046541 
L 561.209963 417.214655 
L 562.043836 434.560874 
L 562.877709 422.442282 
L 563.711582 430.164914 
L 564.545455 413.887983 
L 565.379328 409.254403 
L 566.2132 408.185116 
L 567.047073 399.987245 
L 567.880946 384.541982 
L 568.714819 382.522217 
L 569.548692 429.214436 
L 570.382565 404.739634 
L 571.216438 406.537277 
L 572.050311 392.264614 
L 572.884184 344.859536 
L 573.718057 310.048288 
L 574.55193 373.967917 
L 575.385803 394.759618 
L 576.219676 425.768954 
L 577.053549 422.323473 
L 577.887422 415.07608 
L 578.721295 410.204881 
L 579.555168 417.808703 
L 580.389041 406.40297 
L 581.222914 393.215091 
L 582.056787 385.730079 
L 582.89066 385.848889 
L 583.724533 385.213515 
L 585.392279 369.928387 
L 586.226152 358.047415 
L 587.060025 409.140759 
L 587.893898 420.422517 
L 588.727771 420.778946 
L 589.561644 407.115829 
L 590.395517 379.314354 
L 591.22939 367.361064 
L 592.063263 384.304363 
L 592.897136 371.948152 
L 593.731009 367.908621 
L 594.564882 372.89863 
L 595.398755 372.89863 
L 596.232628 380.858881 
L 597.900374 422.561092 
L 598.734247 423.155141 
L 599.56812 410.323691 
L 600.401993 419.35323 
L 601.235866 418.402752 
L 602.069738 435.154922 
L 602.903611 427.43229 
L 603.737484 429.927295 
L 604.571357 419.11561 
L 605.40523 418.521562 
L 606.239103 433.383577 
L 607.906849 394.139741 
L 608.740722 429.570865 
L 609.574595 441.808266 
L 610.408468 433.729206 
L 611.242341 421.491805 
L 612.076214 406.046541 
L 612.910087 360.18599 
L 613.74396 343.909058 
L 614.577833 367.671002 
L 615.411706 397.135812 
L 616.245579 333.334993 
L 617.079452 374.680775 
L 617.913325 404.739634 
L 618.747198 418.759181 
L 619.581071 399.630816 
L 620.414944 409.729642 
L 621.248817 387.393415 
L 622.08269 430.402533 
L 622.916563 371.354103 
L 623.750436 378.126257 
L 624.584309 374.324346 
L 625.418182 361.017658 
L 626.252055 371.948152 
L 627.085928 392.739853 
L 627.919801 382.878646 
L 628.753674 410.442501 
L 629.587547 415.108482 
L 630.42142 402.719869 
L 631.255293 413.887983 
L 632.089166 427.075861 
L 632.923039 422.323473 
L 633.756912 387.631035 
L 634.590785 392.264614 
L 635.424658 409.373213 
L 636.258531 409.254403 
L 637.092403 419.709659 
L 637.926276 420.660137 
L 638.760149 421.848234 
L 639.594022 421.610614 
L 640.427895 426.125384 
L 641.261768 436.461829 
L 642.095641 418.9968 
L 642.929514 416.977035 
L 643.763387 427.907529 
L 644.59726 421.135375 
L 645.431133 408.779165 
L 646.265006 430.164914 
L 647.098879 438.243975 
L 647.932752 438.362785 
L 648.766625 441.214218 
L 649.600498 442.996364 
L 650.434371 425.412525 
L 651.268244 411.868217 
L 652.102117 418.877991 
L 652.93599 377.05697 
L 653.769863 391.551755 
L 654.603736 380.502452 
L 655.437609 359.354322 
L 657.105355 417.214655 
L 657.939228 392.739853 
L 658.773101 394.640808 
L 659.606974 362.562184 
L 660.440847 374.918395 
L 661.27472 437.412307 
L 662.108593 426.957052 
L 662.942466 427.907529 
L 663.776339 438.838023 
L 664.610212 433.124356 
L 666.277958 383.829124 
L 667.945704 336.067617 
L 668.779577 334.404281 
L 669.61345 335.592378 
L 670.447323 324.543074 
L 671.281196 336.424046 
L 672.115068 383.353885 
L 672.948941 409.254403 
L 673.782814 372.423391 
L 674.616687 359.473131 
L 675.45056 338.91905 
L 677.118306 431.439418 
L 677.952179 397.492241 
L 678.786052 416.620606 
L 679.619925 346.674084 
L 680.453798 374.799585 
L 681.287671 408.422735 
L 682.121544 395.591286 
L 682.955417 371.116484 
L 683.78929 379.670784 
L 684.623163 389.76961 
L 685.457036 346.879301 
L 686.290909 319.715079 
L 687.124782 362.918613 
L 687.958655 385.848889 
L 688.792528 397.729861 
L 689.626401 339.394289 
L 690.460274 367.956145 
L 691.294147 334.440837 
L 692.12802 291.513972 
L 692.961893 299.593033 
L 693.795766 318.364969 
L 694.629639 324.543074 
L 695.463512 314.919487 
L 696.297385 311.949244 
L 697.131258 298.642555 
L 697.965131 344.859536 
L 698.799004 309.33543 
L 699.632877 338.35083 
L 700.46675 356.859317 
L 701.300623 379.433164 
L 702.134496 385.25484 
L 702.968369 383.235075 
L 703.802242 339.750718 
L 704.636115 317.332238 
L 705.469988 321.691641 
L 706.303861 292.820879 
L 707.137733 309.097811 
L 707.971606 329.533082 
L 708.805479 317.176871 
L 709.639352 249.584473 
L 710.473225 228.544821 
L 711.307098 314.563058 
L 712.140971 288.662539 
L 712.974844 345.097155 
L 713.808717 340.582386 
L 714.64259 378.363877 
L 715.476463 303.988993 
L 716.310336 247.079137 
L 717.144209 220.46576 
L 717.978082 263.237259 
L 718.811955 284.02896 
L 719.645828 253.732482 
L 720.479701 267.395599 
L 721.313574 256.940344 
L 722.147447 298.048507 
L 722.98132 299.174616 
L 723.815193 320.978782 
L 724.649066 333.453803 
L 725.482939 265.969883 
L 726.316812 287.830871 
L 727.150685 281.890385 
L 727.984558 309.573049 
L 728.818431 291.038733 
L 730.486177 328.582604 
L 731.32005 253.732482 
L 732.153923 209.772886 
L 732.987796 233.591651 
L 733.821669 329.176653 
L 734.655542 333.929042 
L 735.489415 335.592378 
L 736.323288 268.346077 
L 737.157161 260.979874 
L 737.991034 321.097592 
L 738.824907 411.036549 
L 740.492653 302.919705 
L 741.326526 197.535485 
L 742.160399 284.623008 
L 742.994271 323.711406 
L 743.828144 368.977909 
L 745.49589 221.772667 
L 746.329763 299.794493 
L 747.163636 288.543729 
L 747.163636 288.543729 
" style="fill:none;stroke:#1f77b4;stroke-linecap:square;stroke-width:1.5;"/>
   </g>
   <g id="line2d_18">
    <path clip-path="url(#pcf49112260)" d="M 138.436364 293.168314 
L 139.270237 339.963431 
L 140.10411 269.661379 
L 140.937983 302.104872 
L 141.771856 327.24254 
L 142.605729 348.712012 
L 143.439601 328.297492 
L 144.273474 266.141281 
L 145.107347 318.303417 
L 145.94122 326.510953 
L 146.775093 295.612797 
L 147.608966 281.63138 
L 148.442839 272.101224 
L 149.276712 307.615571 
L 150.110585 305.259862 
L 150.944458 292.784609 
L 151.778331 319.242061 
L 152.612204 329.642435 
L 153.446077 286.816085 
L 154.27995 340.327658 
L 155.113823 292.415194 
L 155.947696 322.128751 
L 156.781569 331.368184 
L 157.615442 354.224213 
L 158.449315 383.996144 
L 159.283188 378.836761 
L 160.117061 406.281402 
L 160.950934 393.373221 
L 162.61868 338.739449 
L 163.452553 338.095746 
L 164.286426 339.226622 
L 165.120299 326.735987 
L 165.954172 333.003229 
L 166.788045 361.455479 
L 167.621918 375.273778 
L 168.455791 352.1204 
L 169.289664 324.657131 
L 170.123537 389.113923 
L 170.95741 381.742743 
L 171.791283 348.987682 
L 172.625156 343.463193 
L 173.459029 329.205734 
L 174.292902 376.042641 
L 175.126775 383.52899 
L 175.960648 354.63653 
L 176.794521 398.919479 
L 177.628394 395.263285 
L 178.462267 369.048715 
L 179.296139 350.808148 
L 180.130012 341.129814 
L 180.963885 340.456115 
L 181.797758 326.939559 
L 182.631631 334.936691 
L 183.465504 275.004975 
L 184.299377 315.761895 
L 185.13325 337.943285 
L 185.967123 373.173007 
L 186.800996 338.642604 
L 187.634869 352.383017 
L 188.468742 356.399832 
L 189.302615 356.682909 
L 190.136488 341.085342 
L 191.804234 408.388043 
L 192.638107 355.513061 
L 193.47198 329.433323 
L 194.305853 325.971473 
L 195.139726 362.752185 
L 195.973599 366.227511 
L 196.807472 331.192331 
L 197.641345 319.498977 
L 198.475218 271.151577 
L 199.309091 339.065946 
L 200.142964 284.339226 
L 200.976837 298.14556 
L 201.81071 302.108972 
L 202.644583 299.174436 
L 203.478456 347.654891 
L 204.312329 337.451735 
L 205.146202 324.730888 
L 205.980075 304.737706 
L 206.813948 365.160553 
L 207.647821 325.818915 
L 208.481694 342.023073 
L 209.315567 330.749001 
L 210.14944 361.243016 
L 210.983313 369.869457 
L 211.817186 371.000377 
L 212.651059 370.10489 
L 213.484932 351.133497 
L 214.318804 363.785901 
L 215.152677 268.116723 
L 215.98655 369.544821 
L 216.820423 390.778296 
L 217.654296 380.860734 
L 218.488169 391.267537 
L 219.322042 379.491048 
L 220.155915 286.549108 
L 220.989788 344.716132 
L 221.823661 334.326199 
L 222.657534 295.38346 
L 223.491407 345.985424 
L 224.32528 330.810266 
L 225.159153 297.010292 
L 225.993026 245.821858 
L 226.826899 308.262064 
L 227.660772 360.319935 
L 228.494645 330.412222 
L 229.328518 338.473466 
L 230.162391 332.495163 
L 230.996264 371.733528 
L 231.830137 373.537277 
L 232.66401 410.223639 
L 233.497883 335.048229 
L 234.331756 325.638692 
L 235.165629 214.576583 
L 235.999502 186.22488 
L 236.833375 295.100455 
L 237.667248 310.075668 
L 238.501121 317.826707 
L 239.334994 369.232211 
L 241.00274 355.05684 
L 241.836613 367.529129 
L 242.670486 370.30895 
L 243.504359 374.11663 
L 244.338232 381.118429 
L 245.172105 382.237737 
L 246.005978 379.499898 
L 246.839851 385.744646 
L 247.673724 376.351961 
L 248.507597 377.844691 
L 249.341469 270.436353 
L 250.175342 327.970081 
L 251.009215 367.145301 
L 251.843088 392.949934 
L 252.676961 402.588888 
L 253.510834 372.146252 
L 254.344707 379.113475 
L 255.17858 390.3708 
L 256.012453 372.997085 
L 256.846326 380.459383 
L 257.680199 375.06238 
L 258.514072 405.816931 
L 259.347945 415.089 
L 260.181818 376.665439 
L 261.015691 367.885812 
L 261.849564 311.205175 
L 262.683437 381.773573 
L 263.51731 416.363792 
L 264.351183 388.322792 
L 265.185056 389.296385 
L 266.018929 383.329718 
L 266.852802 388.866228 
L 267.686675 379.117512 
L 268.520548 382.58863 
L 269.354421 396.180464 
L 270.188294 402.993101 
L 271.022167 380.556449 
L 271.85604 340.248093 
L 272.689913 377.293498 
L 273.523786 388.014395 
L 274.357659 396.491186 
L 275.191532 400.431977 
L 276.025405 411.33833 
L 276.859278 392.881284 
L 277.693151 386.84655 
L 278.527024 395.528218 
L 279.360897 383.001276 
L 280.19477 386.031827 
L 281.028643 383.291618 
L 281.862516 385.074171 
L 282.696389 381.414373 
L 283.530262 378.265806 
L 284.364134 361.638931 
L 285.198007 380.574322 
L 286.03188 374.72358 
L 286.865753 380.515147 
L 287.699626 402.31959 
L 288.533499 405.020465 
L 289.367372 397.560676 
L 290.201245 415.910339 
L 291.035118 406.722534 
L 291.868991 379.795226 
L 292.702864 385.762856 
L 293.536737 382.903978 
L 294.37061 388.369574 
L 295.204483 373.073201 
L 296.038356 361.886659 
L 296.872229 333.449195 
L 297.706102 348.897787 
L 298.539975 351.414549 
L 299.373848 385.272604 
L 301.041594 380.078596 
L 301.875467 309.474082 
L 303.543213 378.491885 
L 304.377086 372.345803 
L 305.210959 384.155014 
L 306.044832 381.148022 
L 306.878705 405.41444 
L 307.712578 407.316694 
L 308.546451 413.634986 
L 309.380324 379.894348 
L 310.214197 362.594604 
L 311.04807 359.261319 
L 311.881943 373.178254 
L 312.715816 380.1951 
L 313.549689 386.172432 
L 314.383562 417.812125 
L 315.217435 402.797942 
L 316.051308 416.880403 
L 316.885181 421.405875 
L 317.719054 432.846687 
L 318.552927 425.220384 
L 319.3868 410.40667 
L 320.220672 414.248214 
L 321.054545 405.969056 
L 321.888418 417.088264 
L 322.722291 412.065822 
L 323.556164 365.587668 
L 324.390037 385.838072 
L 325.22391 386.242641 
L 326.057783 414.446051 
L 326.891656 409.7185 
L 327.725529 369.521807 
L 328.559402 405.991639 
L 329.393275 403.693422 
L 330.227148 377.228138 
L 331.061021 413.946815 
L 331.894894 407.480961 
L 332.728767 369.147216 
L 333.56264 340.263439 
L 334.396513 383.189533 
L 335.230386 359.700628 
L 336.064259 328.957374 
L 336.898132 330.205975 
L 337.732005 375.642169 
L 338.565878 319.232972 
L 339.399751 319.399822 
L 340.233624 324.882072 
L 341.067497 351.117426 
L 343.569116 210.082223 
L 344.402989 257.002012 
L 345.236862 384.658748 
L 346.070735 384.94492 
L 346.904608 412.909679 
L 347.738481 421.418043 
L 348.572354 410.360581 
L 349.406227 290.32511 
L 350.2401 321.529214 
L 351.073973 381.50378 
L 351.907846 373.690828 
L 352.741719 402.328463 
L 353.575592 397.983422 
L 354.409465 415.477514 
L 355.243337 411.921479 
L 356.07721 413.026753 
L 356.911083 403.840524 
L 358.578829 423.766155 
L 359.412702 394.932033 
L 360.246575 376.326368 
L 361.080448 388.144353 
L 361.914321 303.694559 
L 362.748194 367.113784 
L 363.582067 363.02117 
L 364.41594 376.661172 
L 365.249813 405.776856 
L 366.083686 415.024071 
L 366.917559 390.822687 
L 367.751432 331.961881 
L 368.585305 364.157117 
L 370.253051 334.199134 
L 371.086924 331.94662 
L 371.920797 334.465322 
L 372.75467 334.554309 
L 373.588543 312.178766 
L 374.422416 248.029466 
L 375.256289 252.940765 
L 376.090162 284.131818 
L 376.924035 359.09236 
L 377.757908 366.916982 
L 378.591781 361.172627 
L 379.425654 315.876618 
L 380.259527 315.286751 
L 381.0934 315.303717 
L 381.927273 310.724479 
L 382.761146 308.561609 
L 383.595019 310.210041 
L 384.428892 273.1026 
L 385.262765 284.635666 
L 386.096638 234.220399 
L 386.930511 211.191046 
L 387.764384 303.666723 
L 388.598257 302.195861 
L 389.43213 306.016647 
L 390.266002 343.967415 
L 391.099875 296.970675 
L 391.933748 292.409525 
L 392.767621 300.907469 
L 393.601494 223.213261 
L 394.435367 287.36189 
L 395.26924 245.104022 
L 396.103113 284.163405 
L 396.936986 266.863142 
L 397.770859 171.900352 
L 398.604732 211.213219 
L 399.438605 190.865395 
L 400.272478 175.014078 
L 401.106351 243.569938 
L 401.940224 281.049202 
L 402.774097 279.025031 
L 403.60797 285.670896 
L 404.441843 294.128823 
L 405.275716 287.342677 
L 406.109589 348.058858 
L 406.943462 362.167973 
L 407.777335 384.275635 
L 408.611208 359.164493 
L 409.445081 361.980605 
L 410.278954 368.649362 
L 411.112827 352.299008 
L 411.9467 238.736705 
L 412.780573 303.38432 
L 413.614446 291.421452 
L 414.448319 296.777633 
L 415.282192 292.766251 
L 416.116065 294.09879 
L 416.949938 288.430209 
L 417.783811 295.17708 
L 418.617684 281.842243 
L 419.451557 282.798875 
L 420.28543 288.750772 
L 421.119303 278.45762 
L 421.953176 229.093567 
L 422.787049 154.767424 
L 423.620922 199.512729 
L 424.454795 193.08629 
L 425.288667 171.664585 
L 426.12254 181.729401 
L 426.956413 182.969233 
L 427.790286 310.558218 
L 428.624159 291.10274 
L 429.458032 316.681129 
L 430.291905 314.215625 
L 431.125778 265.121277 
L 431.959651 294.557377 
L 432.793524 299.948687 
L 433.627397 263.961594 
L 434.46127 252.168488 
L 436.129016 170.431233 
L 436.962889 277.594209 
L 437.796762 275.734127 
L 438.630635 250.852262 
L 440.298381 184.760203 
L 441.132254 316.101379 
L 441.966127 184.071132 
L 442.8 282.614269 
L 443.633873 295.491391 
L 444.467746 286.537614 
L 445.301619 273.268221 
L 446.135492 246.133524 
L 446.969365 157.607573 
L 447.803238 187.495335 
L 448.637111 236.299454 
L 449.470984 264.54243 
L 450.304857 287.730833 
L 451.13873 278.13462 
L 451.972603 281.302301 
L 452.806476 280.173279 
L 453.640349 144.550562 
L 454.474222 147.107646 
L 455.308095 179.486003 
L 456.141968 158.274035 
L 456.975841 169.163136 
L 457.809714 139.095788 
L 458.643587 156.212021 
L 459.47746 286.023101 
L 460.311333 246.600853 
L 461.145205 191.131373 
L 461.979078 252.874482 
L 462.812951 173.956848 
L 463.646824 317.899253 
L 464.480697 297.234608 
L 465.31457 229.260858 
L 466.148443 290.640729 
L 466.982316 291.180422 
L 467.816189 234.16803 
L 468.650062 297.116015 
L 469.483935 329.695818 
L 470.317808 293.330376 
L 471.151681 285.818226 
L 471.985554 284.445287 
L 472.819427 300.592898 
L 473.6533 305.564038 
L 474.487173 299.012759 
L 475.321046 297.856103 
L 476.154919 296.991385 
L 476.988792 373.218915 
L 477.822665 421.584191 
L 478.656538 354.062243 
L 479.490411 345.35833 
L 480.324284 347.697404 
L 481.158157 343.0383 
L 481.99203 348.569752 
L 482.825903 333.123487 
L 483.659776 335.132347 
L 484.493649 290.350104 
L 485.327522 318.826475 
L 486.161395 308.128774 
L 486.995268 316.335521 
L 487.829141 336.666058 
L 488.663014 337.570241 
L 489.496887 358.005782 
L 490.33076 373.346939 
L 491.164633 362.341979 
L 491.998506 331.17565 
L 492.832379 358.030591 
L 493.666252 346.666014 
L 494.500125 339.86268 
L 495.333998 343.712685 
L 496.16787 296.716127 
L 497.001743 331.756202 
L 497.835616 322.510287 
L 498.669489 357.37576 
L 499.503362 320.865649 
L 500.337235 320.566816 
L 501.171108 352.452475 
L 502.004981 344.341751 
L 502.838854 317.647703 
L 503.672727 335.279952 
L 504.5066 349.619392 
L 505.340473 336.7908 
L 506.174346 351.394783 
L 507.008219 354.675025 
L 507.842092 368.540073 
L 508.675965 361.679922 
L 509.509838 293.240058 
L 510.343711 294.213275 
L 511.177584 168.709529 
L 512.011457 157.606269 
L 512.84533 166.76874 
L 513.679203 316.32069 
L 514.513076 334.253072 
L 515.346949 282.415968 
L 517.014695 344.53565 
L 517.848568 330.464435 
L 518.682441 332.528102 
L 519.516314 365.429313 
L 520.350187 366.252069 
L 521.18406 292.784352 
L 522.017933 316.438565 
L 522.851806 308.4609 
L 523.685679 304.177753 
L 524.519552 334.98762 
L 525.353425 340.193308 
L 526.187298 324.518112 
L 527.021171 332.967791 
L 527.855044 357.379033 
L 528.688917 362.958426 
L 529.52279 356.337018 
L 530.356663 355.439027 
L 531.190535 357.178773 
L 532.024408 356.88372 
L 532.858281 233.990311 
L 533.692154 152.733575 
L 534.526027 300.065631 
L 535.3599 297.126484 
L 536.193773 296.497686 
L 537.027646 264.121631 
L 537.861519 320.693096 
L 538.695392 342.238689 
L 539.529265 356.727581 
L 540.363138 386.983379 
L 541.197011 345.176425 
L 542.030884 364.295122 
L 542.864757 240.650672 
L 543.69863 365.131611 
L 544.532503 345.450971 
L 545.366376 377.045558 
L 546.200249 340.58287 
L 547.034122 370.767985 
L 547.867995 296.229202 
L 548.701868 330.255673 
L 549.535741 311.116103 
L 550.369614 355.753658 
L 551.203487 376.313514 
L 552.03736 378.837762 
L 552.871233 383.996038 
L 553.705106 363.019965 
L 555.372852 389.914386 
L 556.206725 394.620849 
L 557.040598 395.979734 
L 557.874471 401.167948 
L 558.708344 383.714211 
L 559.542217 390.857704 
L 561.209963 412.311842 
L 562.043836 427.775841 
L 562.877709 427.792379 
L 563.711582 421.908207 
L 564.545455 415.062866 
L 565.379328 405.515983 
L 566.2132 401.609087 
L 567.047073 403.402399 
L 567.880946 384.072113 
L 568.714819 380.969642 
L 569.548692 414.449395 
L 570.382565 408.736248 
L 571.216438 398.902275 
L 572.050311 407.195477 
L 572.884184 359.070639 
L 573.718057 279.640127 
L 574.55193 371.105743 
L 575.385803 379.411731 
L 576.219676 414.839714 
L 577.053549 425.187735 
L 577.887422 410.259866 
L 578.721295 408.886213 
L 579.555168 415.554594 
L 580.389041 407.758804 
L 581.222914 401.664915 
L 582.056787 382.776346 
L 583.724533 383.338535 
L 584.558406 382.23435 
L 585.392279 379.111743 
L 586.226152 365.084182 
L 587.893898 416.420888 
L 588.727771 414.052076 
L 589.561644 410.452716 
L 590.395517 387.869557 
L 591.22939 377.056559 
L 592.063263 388.075844 
L 592.897136 380.529796 
L 593.731009 377.523875 
L 594.564882 380.455419 
L 595.398755 380.058242 
L 596.232628 383.999104 
L 597.066501 389.471445 
L 597.900374 415.692651 
L 598.734247 408.853362 
L 599.56812 414.819071 
L 600.401993 411.545433 
L 601.235866 418.798632 
L 602.069738 428.69999 
L 602.903611 422.586042 
L 603.737484 427.081469 
L 604.571357 416.599578 
L 605.40523 412.755506 
L 606.239103 427.579805 
L 607.072976 417.626067 
L 607.906849 373.054495 
L 608.740722 429.656931 
L 609.574595 429.356152 
L 610.408468 432.79251 
L 611.242341 421.537473 
L 612.076214 407.487105 
L 612.910087 385.634744 
L 613.74396 356.153034 
L 614.577833 335.901539 
L 615.411706 390.960688 
L 616.245579 347.575322 
L 617.079452 356.265238 
L 617.913325 409.893689 
L 618.747198 412.943394 
L 619.581071 400.929033 
L 620.414944 409.768583 
L 621.248817 396.433487 
L 622.08269 416.064858 
L 622.916563 373.337085 
L 623.750436 407.299232 
L 624.584309 370.181499 
L 625.418182 366.779834 
L 626.252055 372.633969 
L 627.919801 403.396834 
L 628.753674 401.413561 
L 629.587547 414.33841 
L 630.42142 404.252738 
L 631.255293 402.005636 
L 632.089166 423.557715 
L 632.923039 427.048866 
L 633.756912 386.274839 
L 634.590785 382.146154 
L 635.424658 403.555949 
L 636.258531 399.918664 
L 637.092403 416.702727 
L 637.926276 415.170222 
L 638.760149 419.959539 
L 639.594022 415.924427 
L 640.427895 415.251964 
L 641.261768 435.991675 
L 642.095641 424.284641 
L 642.929514 398.054227 
L 643.763387 426.998587 
L 644.59726 421.111423 
L 645.431133 409.621189 
L 646.265006 417.624976 
L 647.098879 431.334049 
L 647.932752 430.976147 
L 648.766625 431.877913 
L 649.600498 433.292461 
L 650.434371 433.678735 
L 651.268244 410.859998 
L 652.102117 415.985512 
L 652.93599 378.03197 
L 653.769863 372.410594 
L 654.603736 392.459404 
L 655.437609 352.856556 
L 657.105355 405.224484 
L 657.939228 372.706714 
L 658.773101 387.962547 
L 659.606974 381.449317 
L 660.440847 362.387509 
L 661.27472 419.266067 
L 662.108593 429.280778 
L 662.942466 423.538611 
L 663.776339 432.765659 
L 664.610212 431.435893 
L 665.444085 423.391192 
L 666.277958 383.209982 
L 667.111831 357.523732 
L 667.945704 341.90173 
L 668.779577 328.742892 
L 669.61345 335.356147 
L 671.281196 313.668251 
L 672.115068 370.83134 
L 672.948941 405.222044 
L 673.782814 362.507864 
L 674.616687 369.693533 
L 675.45056 331.272789 
L 676.284433 367.367229 
L 677.118306 428.634975 
L 677.952179 412.484841 
L 678.786052 414.738751 
L 679.619925 348.62704 
L 680.453798 359.125129 
L 681.287671 400.688365 
L 682.121544 387.86477 
L 682.955417 356.045376 
L 683.78929 369.536314 
L 684.623163 373.78975 
L 685.457036 354.16937 
L 686.290909 306.582162 
L 687.124782 350.542471 
L 687.958655 368.019685 
L 688.792528 370.489881 
L 689.626401 345.784508 
L 690.460274 331.217932 
L 691.294147 351.656878 
L 692.12802 307.690736 
L 692.961893 292.706264 
L 693.795766 310.953796 
L 694.629639 310.271351 
L 695.463512 317.616693 
L 696.297385 298.80351 
L 697.131258 293.915009 
L 697.965131 330.083837 
L 698.799004 317.66663 
L 699.632877 327.771725 
L 700.46675 362.650899 
L 701.300623 359.613802 
L 702.134496 367.0797 
L 702.968369 368.254729 
L 704.636115 304.05328 
L 705.469988 327.498076 
L 706.303861 279.09365 
L 707.137733 293.861191 
L 707.971606 298.253058 
L 708.805479 324.6753 
L 709.639352 265.200138 
L 710.473225 246.270184 
L 711.307098 300.14762 
L 712.140971 254.670934 
L 712.974844 320.669367 
L 713.808717 338.424374 
L 714.64259 347.544683 
L 715.476463 311.341155 
L 716.310336 257.215813 
L 717.144209 190.11686 
L 717.978082 254.444075 
L 718.811955 285.25533 
L 719.645828 252.829762 
L 720.479701 283.512145 
L 721.313574 232.853673 
L 722.147447 284.683079 
L 722.98132 287.259378 
L 723.815193 287.504838 
L 724.649066 326.291162 
L 725.482939 265.758112 
L 726.316812 284.116414 
L 727.150685 282.034859 
L 727.984558 292.576091 
L 728.818431 298.30259 
L 729.652304 280.601809 
L 730.486177 328.09826 
L 731.32005 290.265435 
L 732.153923 182.762693 
L 732.987796 182.507446 
L 733.821669 303.613151 
L 734.655542 330.328423 
L 735.489415 322.586555 
L 737.157161 254.895762 
L 737.991034 265.766269 
L 738.824907 405.959192 
L 741.326526 264.958437 
L 742.160399 255.257168 
L 742.994271 287.314032 
L 743.828144 365.839094 
L 744.662017 314.64828 
L 745.49589 200.180346 
L 746.329763 299.08094 
L 747.163636 278.590711 
L 747.163636 278.590711 
" style="fill:none;stroke:#ff0000;stroke-dasharray:5.55,2.4;stroke-dashoffset:0;stroke-width:1.5;"/>
   </g>
   <g id="patch_3">
    <path d="M 108 460.8 
L 108 69.12 
" style="fill:none;stroke:#000000;stroke-linecap:square;stroke-linejoin:miter;stroke-width:0.8;"/>
   </g>
   <g id="patch_4">
    <path d="M 777.6 460.8 
L 777.6 69.12 
" style="fill:none;stroke:#000000;stroke-linecap:square;stroke-linejoin:miter;stroke-width:0.8;"/>
   </g>
   <g id="patch_5">
    <path d="M 108 460.8 
L 777.6 460.8 
" style="fill:none;stroke:#000000;stroke-linecap:square;stroke-linejoin:miter;stroke-width:0.8;"/>
   </g>
   <g id="patch_6">
    <path d="M 108 69.12 
L 777.6 69.12 
" style="fill:none;stroke:#000000;stroke-linecap:square;stroke-linejoin:miter;stroke-width:0.8;"/>
   </g>
   <g id="text_19">
    <!-- Macau residential 2020-2021 | Forecast vs Monitored | Random forest -->
    <g transform="translate(181.076953 63.12)scale(0.15 -0.15)">
     <defs>
      <path d="M 8.5 21.578125 
L 8.5 54.6875 
L 17.484375 54.6875 
L 17.484375 21.921875 
Q 17.484375 14.15625 20.5 10.265625 
Q 23.53125 6.390625 29.59375 6.390625 
Q 36.859375 6.390625 41.078125 11.03125 
Q 45.3125 15.671875 45.3125 23.6875 
L 45.3125 54.6875 
L 54.296875 54.6875 
L 54.296875 0 
L 45.3125 0 
L 45.3125 8.40625 
Q 42.046875 3.421875 37.71875 1 
Q 33.40625 -1.421875 27.6875 -1.421875 
Q 18.265625 -1.421875 13.375 4.4375 
Q 8.5 10.296875 8.5 21.578125 
z
M 31.109375 56 
z
" id="DejaVuSans-117"/>
      <path id="DejaVuSans-32"/>
      <path d="M 44.28125 53.078125 
L 44.28125 44.578125 
Q 40.484375 46.53125 36.375 47.5 
Q 32.28125 48.484375 27.875 48.484375 
Q 21.1875 48.484375 17.84375 46.4375 
Q 14.5 44.390625 14.5 40.28125 
Q 14.5 37.15625 16.890625 35.375 
Q 19.28125 33.59375 26.515625 31.984375 
L 29.59375 31.296875 
Q 39.15625 29.25 43.1875 25.515625 
Q 47.21875 21.78125 47.21875 15.09375 
Q 47.21875 7.46875 41.1875 3.015625 
Q 35.15625 -1.421875 24.609375 -1.421875 
Q 20.21875 -1.421875 15.453125 -0.5625 
Q 10.6875 0.296875 5.421875 2 
L 5.421875 11.28125 
Q 10.40625 8.6875 15.234375 7.390625 
Q 20.0625 6.109375 24.8125 6.109375 
Q 31.15625 6.109375 34.5625 8.28125 
Q 37.984375 10.453125 37.984375 14.40625 
Q 37.984375 18.0625 35.515625 20.015625 
Q 33.0625 21.96875 24.703125 23.78125 
L 21.578125 24.515625 
Q 13.234375 26.265625 9.515625 29.90625 
Q 5.8125 33.546875 5.8125 39.890625 
Q 5.8125 47.609375 11.28125 51.796875 
Q 16.75 56 26.8125 56 
Q 31.78125 56 36.171875 55.265625 
Q 40.578125 54.546875 44.28125 53.078125 
z
" id="DejaVuSans-115"/>
      <path d="M 45.40625 46.390625 
L 45.40625 75.984375 
L 54.390625 75.984375 
L 54.390625 0 
L 45.40625 0 
L 45.40625 8.203125 
Q 42.578125 3.328125 38.25 0.953125 
Q 33.9375 -1.421875 27.875 -1.421875 
Q 17.96875 -1.421875 11.734375 6.484375 
Q 5.515625 14.40625 5.515625 27.296875 
Q 5.515625 40.1875 11.734375 48.09375 
Q 17.96875 56 27.875 56 
Q 33.9375 56 38.25 53.625 
Q 42.578125 51.265625 45.40625 46.390625 
z
M 14.796875 27.296875 
Q 14.796875 17.390625 18.875 11.75 
Q 22.953125 6.109375 30.078125 6.109375 
Q 37.203125 6.109375 41.296875 11.75 
Q 45.40625 17.390625 45.40625 27.296875 
Q 45.40625 37.203125 41.296875 42.84375 
Q 37.203125 48.484375 30.078125 48.484375 
Q 22.953125 48.484375 18.875 42.84375 
Q 14.796875 37.203125 14.796875 27.296875 
z
" id="DejaVuSans-100"/>
      <path d="M 54.890625 33.015625 
L 54.890625 0 
L 45.90625 0 
L 45.90625 32.71875 
Q 45.90625 40.484375 42.875 44.328125 
Q 39.84375 48.1875 33.796875 48.1875 
Q 26.515625 48.1875 22.3125 43.546875 
Q 18.109375 38.921875 18.109375 30.90625 
L 18.109375 0 
L 9.078125 0 
L 9.078125 54.6875 
L 18.109375 54.6875 
L 18.109375 46.1875 
Q 21.34375 51.125 25.703125 53.5625 
Q 30.078125 56 35.796875 56 
Q 45.21875 56 50.046875 50.171875 
Q 54.890625 44.34375 54.890625 33.015625 
z
" id="DejaVuSans-110"/>
      <path d="M 9.421875 75.984375 
L 18.40625 75.984375 
L 18.40625 0 
L 9.421875 0 
z
" id="DejaVuSans-108"/>
      <path d="M 21 76.421875 
L 21 -23.578125 
L 12.703125 -23.578125 
L 12.703125 76.421875 
z
" id="DejaVuSans-124"/>
      <path d="M 9.8125 72.90625 
L 51.703125 72.90625 
L 51.703125 64.59375 
L 19.671875 64.59375 
L 19.671875 43.109375 
L 48.578125 43.109375 
L 48.578125 34.8125 
L 19.671875 34.8125 
L 19.671875 0 
L 9.8125 0 
z
" id="DejaVuSans-70"/>
      <path d="M 2.984375 54.6875 
L 12.5 54.6875 
L 29.59375 8.796875 
L 46.6875 54.6875 
L 56.203125 54.6875 
L 35.6875 0 
L 23.484375 0 
z
" id="DejaVuSans-118"/>
      <path d="M 44.390625 34.1875 
Q 47.5625 33.109375 50.5625 29.59375 
Q 53.5625 26.078125 56.59375 19.921875 
L 66.609375 0 
L 56 0 
L 46.6875 18.703125 
Q 43.0625 26.03125 39.671875 28.421875 
Q 36.28125 30.8125 30.421875 30.8125 
L 19.671875 30.8125 
L 19.671875 0 
L 9.8125 0 
L 9.8125 72.90625 
L 32.078125 72.90625 
Q 44.578125 72.90625 50.734375 67.671875 
Q 56.890625 62.453125 56.890625 51.90625 
Q 56.890625 45.015625 53.6875 40.46875 
Q 50.484375 35.9375 44.390625 34.1875 
z
M 19.671875 64.796875 
L 19.671875 38.921875 
L 32.078125 38.921875 
Q 39.203125 38.921875 42.84375 42.21875 
Q 46.484375 45.515625 46.484375 51.90625 
Q 46.484375 58.296875 42.84375 61.546875 
Q 39.203125 64.796875 32.078125 64.796875 
z
" id="DejaVuSans-82"/>
      <path d="M 37.109375 75.984375 
L 37.109375 68.5 
L 28.515625 68.5 
Q 23.6875 68.5 21.796875 66.546875 
Q 19.921875 64.59375 19.921875 59.515625 
L 19.921875 54.6875 
L 34.71875 54.6875 
L 34.71875 47.703125 
L 19.921875 47.703125 
L 19.921875 0 
L 10.890625 0 
L 10.890625 47.703125 
L 2.296875 47.703125 
L 2.296875 54.6875 
L 10.890625 54.6875 
L 10.890625 58.5 
Q 10.890625 67.625 15.140625 71.796875 
Q 19.390625 75.984375 28.609375 75.984375 
z
" id="DejaVuSans-102"/>
     </defs>
     <use xlink:href="#DejaVuSans-77"/>
     <use x="86.279297" xlink:href="#DejaVuSans-97"/>
     <use x="147.558594" xlink:href="#DejaVuSans-99"/>
     <use x="202.539062" xlink:href="#DejaVuSans-97"/>
     <use x="263.818359" xlink:href="#DejaVuSans-117"/>
     <use x="327.197266" xlink:href="#DejaVuSans-32"/>
     <use x="358.984375" xlink:href="#DejaVuSans-114"/>
     <use x="397.847656" xlink:href="#DejaVuSans-101"/>
     <use x="459.371094" xlink:href="#DejaVuSans-115"/>
     <use x="511.470703" xlink:href="#DejaVuSans-105"/>
     <use x="539.253906" xlink:href="#DejaVuSans-100"/>
     <use x="602.730469" xlink:href="#DejaVuSans-101"/>
     <use x="664.253906" xlink:href="#DejaVuSans-110"/>
     <use x="727.632812" xlink:href="#DejaVuSans-116"/>
     <use x="766.841797" xlink:href="#DejaVuSans-105"/>
     <use x="794.625" xlink:href="#DejaVuSans-97"/>
     <use x="855.904297" xlink:href="#DejaVuSans-108"/>
     <use x="883.6875" xlink:href="#DejaVuSans-32"/>
     <use x="915.474609" xlink:href="#DejaVuSans-50"/>
     <use x="979.097656" xlink:href="#DejaVuSans-48"/>
     <use x="1042.720703" xlink:href="#DejaVuSans-50"/>
     <use x="1106.34375" xlink:href="#DejaVuSans-48"/>
     <use x="1169.966797" xlink:href="#DejaVuSans-45"/>
     <use x="1206.050781" xlink:href="#DejaVuSans-50"/>
     <use x="1269.673828" xlink:href="#DejaVuSans-48"/>
     <use x="1333.296875" xlink:href="#DejaVuSans-50"/>
     <use x="1396.919922" xlink:href="#DejaVuSans-49"/>
     <use x="1460.542969" xlink:href="#DejaVuSans-32"/>
     <use x="1492.330078" xlink:href="#DejaVuSans-124"/>
     <use x="1526.021484" xlink:href="#DejaVuSans-32"/>
     <use x="1557.808594" xlink:href="#DejaVuSans-70"/>
     <use x="1611.703125" xlink:href="#DejaVuSans-111"/>
     <use x="1672.884766" xlink:href="#DejaVuSans-114"/>
     <use x="1711.748047" xlink:href="#DejaVuSans-101"/>
     <use x="1773.271484" xlink:href="#DejaVuSans-99"/>
     <use x="1828.251953" xlink:href="#DejaVuSans-97"/>
     <use x="1889.53125" xlink:href="#DejaVuSans-115"/>
     <use x="1941.630859" xlink:href="#DejaVuSans-116"/>
     <use x="1980.839844" xlink:href="#DejaVuSans-32"/>
     <use x="2012.626953" xlink:href="#DejaVuSans-118"/>
     <use x="2071.806641" xlink:href="#DejaVuSans-115"/>
     <use x="2123.90625" xlink:href="#DejaVuSans-32"/>
     <use x="2155.693359" xlink:href="#DejaVuSans-77"/>
     <use x="2241.972656" xlink:href="#DejaVuSans-111"/>
     <use x="2303.154297" xlink:href="#DejaVuSans-110"/>
     <use x="2366.533203" xlink:href="#DejaVuSans-105"/>
     <use x="2394.316406" xlink:href="#DejaVuSans-116"/>
     <use x="2433.525391" xlink:href="#DejaVuSans-111"/>
     <use x="2494.707031" xlink:href="#DejaVuSans-114"/>
     <use x="2533.570312" xlink:href="#DejaVuSans-101"/>
     <use x="2595.09375" xlink:href="#DejaVuSans-100"/>
     <use x="2658.570312" xlink:href="#DejaVuSans-32"/>
     <use x="2690.357422" xlink:href="#DejaVuSans-124"/>
     <use x="2724.048828" xlink:href="#DejaVuSans-32"/>
     <use x="2755.835938" xlink:href="#DejaVuSans-82"/>
     <use x="2823.068359" xlink:href="#DejaVuSans-97"/>
     <use x="2884.347656" xlink:href="#DejaVuSans-110"/>
     <use x="2947.726562" xlink:href="#DejaVuSans-100"/>
     <use x="3011.203125" xlink:href="#DejaVuSans-111"/>
     <use x="3072.384766" xlink:href="#DejaVuSans-109"/>
     <use x="3169.796875" xlink:href="#DejaVuSans-32"/>
     <use x="3201.583984" xlink:href="#DejaVuSans-102"/>
     <use x="3236.789062" xlink:href="#DejaVuSans-111"/>
     <use x="3297.970703" xlink:href="#DejaVuSans-114"/>
     <use x="3336.833984" xlink:href="#DejaVuSans-101"/>
     <use x="3398.357422" xlink:href="#DejaVuSans-115"/>
     <use x="3450.457031" xlink:href="#DejaVuSans-116"/>
    </g>
   </g>
   <g id="legend_1">
    <g id="patch_7">
     <path d="M 598.963125 114.615 
L 769.2 114.615 
Q 771.6 114.615 771.6 112.215 
L 771.6 77.52 
Q 771.6 75.12 769.2 75.12 
L 598.963125 75.12 
Q 596.563125 75.12 596.563125 77.52 
L 596.563125 112.215 
Q 596.563125 114.615 598.963125 114.615 
z
" style="fill:#ffffff;opacity:0.8;stroke:#cccccc;stroke-linejoin:miter;"/>
    </g>
    <g id="line2d_19">
     <path d="M 601.363125 84.838125 
L 625.363125 84.838125 
" style="fill:none;stroke:#1f77b4;stroke-linecap:square;stroke-width:1.5;"/>
    </g>
    <g id="line2d_20"/>
    <g id="text_20">
     <!-- measured_data_PM10 -->
     <g transform="translate(634.963125 89.038125)scale(0.12 -0.12)">
      <defs>
       <path d="M 50.984375 -16.609375 
L 50.984375 -23.578125 
L -0.984375 -23.578125 
L -0.984375 -16.609375 
z
" id="DejaVuSans-95"/>
      </defs>
      <use xlink:href="#DejaVuSans-109"/>
      <use x="97.412109" xlink:href="#DejaVuSans-101"/>
      <use x="158.935547" xlink:href="#DejaVuSans-97"/>
      <use x="220.214844" xlink:href="#DejaVuSans-115"/>
      <use x="272.314453" xlink:href="#DejaVuSans-117"/>
      <use x="335.693359" xlink:href="#DejaVuSans-114"/>
      <use x="374.556641" xlink:href="#DejaVuSans-101"/>
      <use x="436.080078" xlink:href="#DejaVuSans-100"/>
      <use x="499.556641" xlink:href="#DejaVuSans-95"/>
      <use x="549.556641" xlink:href="#DejaVuSans-100"/>
      <use x="613.033203" xlink:href="#DejaVuSans-97"/>
      <use x="674.3125" xlink:href="#DejaVuSans-116"/>
      <use x="713.521484" xlink:href="#DejaVuSans-97"/>
      <use x="774.800781" xlink:href="#DejaVuSans-95"/>
      <use x="824.800781" xlink:href="#DejaVuSans-80"/>
      <use x="885.103516" xlink:href="#DejaVuSans-77"/>
      <use x="971.382812" xlink:href="#DejaVuSans-49"/>
      <use x="1035.005859" xlink:href="#DejaVuSans-48"/>
     </g>
    </g>
    <g id="line2d_21">
     <path d="M 601.363125 102.785625 
L 625.363125 102.785625 
" style="fill:none;stroke:#ff0000;stroke-dasharray:5.55,2.4;stroke-dashoffset:0;stroke-width:1.5;"/>
    </g>
    <g id="line2d_22"/>
    <g id="text_21">
     <!-- predicted_data_PM10 -->
     <g transform="translate(634.963125 106.985625)scale(0.12 -0.12)">
      <defs>
       <path d="M 18.109375 8.203125 
L 18.109375 -20.796875 
L 9.078125 -20.796875 
L 9.078125 54.6875 
L 18.109375 54.6875 
L 18.109375 46.390625 
Q 20.953125 51.265625 25.265625 53.625 
Q 29.59375 56 35.59375 56 
Q 45.5625 56 51.78125 48.09375 
Q 58.015625 40.1875 58.015625 27.296875 
Q 58.015625 14.40625 51.78125 6.484375 
Q 45.5625 -1.421875 35.59375 -1.421875 
Q 29.59375 -1.421875 25.265625 0.953125 
Q 20.953125 3.328125 18.109375 8.203125 
z
M 48.6875 27.296875 
Q 48.6875 37.203125 44.609375 42.84375 
Q 40.53125 48.484375 33.40625 48.484375 
Q 26.265625 48.484375 22.1875 42.84375 
Q 18.109375 37.203125 18.109375 27.296875 
Q 18.109375 17.390625 22.1875 11.75 
Q 26.265625 6.109375 33.40625 6.109375 
Q 40.53125 6.109375 44.609375 11.75 
Q 48.6875 17.390625 48.6875 27.296875 
z
" id="DejaVuSans-112"/>
      </defs>
      <use xlink:href="#DejaVuSans-112"/>
      <use x="63.476562" xlink:href="#DejaVuSans-114"/>
      <use x="102.339844" xlink:href="#DejaVuSans-101"/>
      <use x="163.863281" xlink:href="#DejaVuSans-100"/>
      <use x="227.339844" xlink:href="#DejaVuSans-105"/>
      <use x="255.123047" xlink:href="#DejaVuSans-99"/>
      <use x="310.103516" xlink:href="#DejaVuSans-116"/>
      <use x="349.3125" xlink:href="#DejaVuSans-101"/>
      <use x="410.835938" xlink:href="#DejaVuSans-100"/>
      <use x="474.3125" xlink:href="#DejaVuSans-95"/>
      <use x="524.3125" xlink:href="#DejaVuSans-100"/>
      <use x="587.789062" xlink:href="#DejaVuSans-97"/>
      <use x="649.068359" xlink:href="#DejaVuSans-116"/>
      <use x="688.277344" xlink:href="#DejaVuSans-97"/>
      <use x="749.556641" xlink:href="#DejaVuSans-95"/>
      <use x="799.556641" xlink:href="#DejaVuSans-80"/>
      <use x="859.859375" xlink:href="#DejaVuSans-77"/>
      <use x="946.138672" xlink:href="#DejaVuSans-49"/>
      <use x="1009.761719" xlink:href="#DejaVuSans-48"/>
     </g>
    </g>
   </g>
  </g>
 </g>
 <defs>
  <clipPath id="pcf49112260">
   <rect height="391.68" width="669.6" x="108" y="69.12"/>
  </clipPath>
 </defs>
</svg>
