<?xml version="1.0" encoding="utf-8" standalone="no"?>
<!DOCTYPE svg PUBLIC "-//W3C//DTD SVG 1.1//EN"
  "http://www.w3.org/Graphics/SVG/1.1/DTD/svg11.dtd">
<!-- Created with matplotlib (https://matplotlib.org/) -->
<svg height="576pt" version="1.1" viewBox="0 0 864 576" width="864pt" xmlns="http://www.w3.org/2000/svg" xmlns:xlink="http://www.w3.org/1999/xlink">
 <metadata>
  <rdf:RDF xmlns:cc="http://creativecommons.org/ns#" xmlns:dc="http://purl.org/dc/elements/1.1/" xmlns:rdf="http://www.w3.org/1999/02/22-rdf-syntax-ns#">
   <cc:Work>
    <dc:type rdf:resource="http://purl.org/dc/dcmitype/StillImage"/>
    <dc:date>2024-03-08T16:47:00.436316</dc:date>
    <dc:format>image/svg+xml</dc:format>
    <dc:creator>
     <cc:Agent>
      <dc:title>Matplotlib v3.3.4, https://matplotlib.org/</dc:title>
     </cc:Agent>
    </dc:creator>
   </cc:Work>
  </rdf:RDF>
 </metadata>
 <defs>
  <style type="text/css">*{stroke-linecap:butt;stroke-linejoin:round;}</style>
 </defs>
 <g id="figure_1">
  <g id="patch_1">
   <path d="M 0 576 
L 864 576 
L 864 0 
L 0 0 
z
" style="fill:#ffffff;"/>
  </g>
  <g id="axes_1">
   <g id="patch_2">
    <path d="M 108 460.8 
L 777.6 460.8 
L 777.6 69.12 
L 108 69.12 
z
" style="fill:#ffffff;"/>
   </g>
   <g id="matplotlib.axis_1">
    <g id="xtick_1">
     <g id="line2d_1">
      <defs>
       <path d="M 0 0 
L 0 3.5 
" id="mb4146e5c12" style="stroke:#000000;stroke-width:0.8;"/>
      </defs>
      <g>
       <use style="stroke:#000000;stroke-width:0.8;" x="138.436364" xlink:href="#mb4146e5c12" y="460.8"/>
      </g>
     </g>
     <g id="text_1">
      <!-- 2020-01 -->
      <g transform="translate(93.766579 500.766215)rotate(-30)scale(0.12 -0.12)">
       <defs>
        <path d="M 19.1875 8.296875 
L 53.609375 8.296875 
L 53.609375 0 
L 7.328125 0 
L 7.328125 8.296875 
Q 12.9375 14.109375 22.625 23.890625 
Q 32.328125 33.6875 34.8125 36.53125 
Q 39.546875 41.84375 41.421875 45.53125 
Q 43.3125 49.21875 43.3125 52.78125 
Q 43.3125 58.59375 39.234375 62.25 
Q 35.15625 65.921875 28.609375 65.921875 
Q 23.96875 65.921875 18.8125 64.3125 
Q 13.671875 62.703125 7.8125 59.421875 
L 7.8125 69.390625 
Q 13.765625 71.78125 18.9375 73 
Q 24.125 74.21875 28.421875 74.21875 
Q 39.75 74.21875 46.484375 68.546875 
Q 53.21875 62.890625 53.21875 53.421875 
Q 53.21875 48.921875 51.53125 44.890625 
Q 49.859375 40.875 45.40625 35.40625 
Q 44.1875 33.984375 37.640625 27.21875 
Q 31.109375 20.453125 19.1875 8.296875 
z
" id="DejaVuSans-50"/>
        <path d="M 31.78125 66.40625 
Q 24.171875 66.40625 20.328125 58.90625 
Q 16.5 51.421875 16.5 36.375 
Q 16.5 21.390625 20.328125 13.890625 
Q 24.171875 6.390625 31.78125 6.390625 
Q 39.453125 6.390625 43.28125 13.890625 
Q 47.125 21.390625 47.125 36.375 
Q 47.125 51.421875 43.28125 58.90625 
Q 39.453125 66.40625 31.78125 66.40625 
z
M 31.78125 74.21875 
Q 44.046875 74.21875 50.515625 64.515625 
Q 56.984375 54.828125 56.984375 36.375 
Q 56.984375 17.96875 50.515625 8.265625 
Q 44.046875 -1.421875 31.78125 -1.421875 
Q 19.53125 -1.421875 13.0625 8.265625 
Q 6.59375 17.96875 6.59375 36.375 
Q 6.59375 54.828125 13.0625 64.515625 
Q 19.53125 74.21875 31.78125 74.21875 
z
" id="DejaVuSans-48"/>
        <path d="M 4.890625 31.390625 
L 31.203125 31.390625 
L 31.203125 23.390625 
L 4.890625 23.390625 
z
" id="DejaVuSans-45"/>
        <path d="M 12.40625 8.296875 
L 28.515625 8.296875 
L 28.515625 63.921875 
L 10.984375 60.40625 
L 10.984375 69.390625 
L 28.421875 72.90625 
L 38.28125 72.90625 
L 38.28125 8.296875 
L 54.390625 8.296875 
L 54.390625 0 
L 12.40625 0 
z
" id="DejaVuSans-49"/>
       </defs>
       <use xlink:href="#DejaVuSans-50"/>
       <use x="63.623047" xlink:href="#DejaVuSans-48"/>
       <use x="127.246094" xlink:href="#DejaVuSans-50"/>
       <use x="190.869141" xlink:href="#DejaVuSans-48"/>
       <use x="254.492188" xlink:href="#DejaVuSans-45"/>
       <use x="290.576172" xlink:href="#DejaVuSans-48"/>
       <use x="354.199219" xlink:href="#DejaVuSans-49"/>
      </g>
     </g>
    </g>
    <g id="xtick_2">
     <g id="line2d_2">
      <g>
       <use style="stroke:#000000;stroke-width:0.8;" x="214.318804" xlink:href="#mb4146e5c12" y="460.8"/>
      </g>
     </g>
     <g id="text_2">
      <!-- 2020-04 -->
      <g transform="translate(169.64902 500.766215)rotate(-30)scale(0.12 -0.12)">
       <defs>
        <path d="M 37.796875 64.3125 
L 12.890625 25.390625 
L 37.796875 25.390625 
z
M 35.203125 72.90625 
L 47.609375 72.90625 
L 47.609375 25.390625 
L 58.015625 25.390625 
L 58.015625 17.1875 
L 47.609375 17.1875 
L 47.609375 0 
L 37.796875 0 
L 37.796875 17.1875 
L 4.890625 17.1875 
L 4.890625 26.703125 
z
" id="DejaVuSans-52"/>
       </defs>
       <use xlink:href="#DejaVuSans-50"/>
       <use x="63.623047" xlink:href="#DejaVuSans-48"/>
       <use x="127.246094" xlink:href="#DejaVuSans-50"/>
       <use x="190.869141" xlink:href="#DejaVuSans-48"/>
       <use x="254.492188" xlink:href="#DejaVuSans-45"/>
       <use x="290.576172" xlink:href="#DejaVuSans-48"/>
       <use x="354.199219" xlink:href="#DejaVuSans-52"/>
      </g>
     </g>
    </g>
    <g id="xtick_3">
     <g id="line2d_3">
      <g>
       <use style="stroke:#000000;stroke-width:0.8;" x="290.201245" xlink:href="#mb4146e5c12" y="460.8"/>
      </g>
     </g>
     <g id="text_3">
      <!-- 2020-07 -->
      <g transform="translate(245.53146 500.766215)rotate(-30)scale(0.12 -0.12)">
       <defs>
        <path d="M 8.203125 72.90625 
L 55.078125 72.90625 
L 55.078125 68.703125 
L 28.609375 0 
L 18.3125 0 
L 43.21875 64.59375 
L 8.203125 64.59375 
z
" id="DejaVuSans-55"/>
       </defs>
       <use xlink:href="#DejaVuSans-50"/>
       <use x="63.623047" xlink:href="#DejaVuSans-48"/>
       <use x="127.246094" xlink:href="#DejaVuSans-50"/>
       <use x="190.869141" xlink:href="#DejaVuSans-48"/>
       <use x="254.492188" xlink:href="#DejaVuSans-45"/>
       <use x="290.576172" xlink:href="#DejaVuSans-48"/>
       <use x="354.199219" xlink:href="#DejaVuSans-55"/>
      </g>
     </g>
    </g>
    <g id="xtick_4">
     <g id="line2d_4">
      <g>
       <use style="stroke:#000000;stroke-width:0.8;" x="366.917559" xlink:href="#mb4146e5c12" y="460.8"/>
      </g>
     </g>
     <g id="text_4">
      <!-- 2020-10 -->
      <g transform="translate(322.247774 500.766215)rotate(-30)scale(0.12 -0.12)">
       <use xlink:href="#DejaVuSans-50"/>
       <use x="63.623047" xlink:href="#DejaVuSans-48"/>
       <use x="127.246094" xlink:href="#DejaVuSans-50"/>
       <use x="190.869141" xlink:href="#DejaVuSans-48"/>
       <use x="254.492188" xlink:href="#DejaVuSans-45"/>
       <use x="290.576172" xlink:href="#DejaVuSans-49"/>
       <use x="354.199219" xlink:href="#DejaVuSans-48"/>
      </g>
     </g>
    </g>
    <g id="xtick_5">
     <g id="line2d_5">
      <g>
       <use style="stroke:#000000;stroke-width:0.8;" x="443.633873" xlink:href="#mb4146e5c12" y="460.8"/>
      </g>
     </g>
     <g id="text_5">
      <!-- 2021-01 -->
      <g transform="translate(398.964088 500.766215)rotate(-30)scale(0.12 -0.12)">
       <use xlink:href="#DejaVuSans-50"/>
       <use x="63.623047" xlink:href="#DejaVuSans-48"/>
       <use x="127.246094" xlink:href="#DejaVuSans-50"/>
       <use x="190.869141" xlink:href="#DejaVuSans-49"/>
       <use x="254.492188" xlink:href="#DejaVuSans-45"/>
       <use x="290.576172" xlink:href="#DejaVuSans-48"/>
       <use x="354.199219" xlink:href="#DejaVuSans-49"/>
      </g>
     </g>
    </g>
    <g id="xtick_6">
     <g id="line2d_6">
      <g>
       <use style="stroke:#000000;stroke-width:0.8;" x="518.682441" xlink:href="#mb4146e5c12" y="460.8"/>
      </g>
     </g>
     <g id="text_6">
      <!-- 2021-04 -->
      <g transform="translate(474.012656 500.766215)rotate(-30)scale(0.12 -0.12)">
       <use xlink:href="#DejaVuSans-50"/>
       <use x="63.623047" xlink:href="#DejaVuSans-48"/>
       <use x="127.246094" xlink:href="#DejaVuSans-50"/>
       <use x="190.869141" xlink:href="#DejaVuSans-49"/>
       <use x="254.492188" xlink:href="#DejaVuSans-45"/>
       <use x="290.576172" xlink:href="#DejaVuSans-48"/>
       <use x="354.199219" xlink:href="#DejaVuSans-52"/>
      </g>
     </g>
    </g>
    <g id="xtick_7">
     <g id="line2d_7">
      <g>
       <use style="stroke:#000000;stroke-width:0.8;" x="594.564882" xlink:href="#mb4146e5c12" y="460.8"/>
      </g>
     </g>
     <g id="text_7">
      <!-- 2021-07 -->
      <g transform="translate(549.895097 500.766215)rotate(-30)scale(0.12 -0.12)">
       <use xlink:href="#DejaVuSans-50"/>
       <use x="63.623047" xlink:href="#DejaVuSans-48"/>
       <use x="127.246094" xlink:href="#DejaVuSans-50"/>
       <use x="190.869141" xlink:href="#DejaVuSans-49"/>
       <use x="254.492188" xlink:href="#DejaVuSans-45"/>
       <use x="290.576172" xlink:href="#DejaVuSans-48"/>
       <use x="354.199219" xlink:href="#DejaVuSans-55"/>
      </g>
     </g>
    </g>
    <g id="xtick_8">
     <g id="line2d_8">
      <g>
       <use style="stroke:#000000;stroke-width:0.8;" x="671.281196" xlink:href="#mb4146e5c12" y="460.8"/>
      </g>
     </g>
     <g id="text_8">
      <!-- 2021-10 -->
      <g transform="translate(626.611411 500.766215)rotate(-30)scale(0.12 -0.12)">
       <use xlink:href="#DejaVuSans-50"/>
       <use x="63.623047" xlink:href="#DejaVuSans-48"/>
       <use x="127.246094" xlink:href="#DejaVuSans-50"/>
       <use x="190.869141" xlink:href="#DejaVuSans-49"/>
       <use x="254.492188" xlink:href="#DejaVuSans-45"/>
       <use x="290.576172" xlink:href="#DejaVuSans-49"/>
       <use x="354.199219" xlink:href="#DejaVuSans-48"/>
      </g>
     </g>
    </g>
    <g id="xtick_9">
     <g id="line2d_9">
      <g>
       <use style="stroke:#000000;stroke-width:0.8;" x="747.997509" xlink:href="#mb4146e5c12" y="460.8"/>
      </g>
     </g>
     <g id="text_9">
      <!-- 2022-01 -->
      <g transform="translate(703.327724 500.766215)rotate(-30)scale(0.12 -0.12)">
       <use xlink:href="#DejaVuSans-50"/>
       <use x="63.623047" xlink:href="#DejaVuSans-48"/>
       <use x="127.246094" xlink:href="#DejaVuSans-50"/>
       <use x="190.869141" xlink:href="#DejaVuSans-50"/>
       <use x="254.492188" xlink:href="#DejaVuSans-45"/>
       <use x="290.576172" xlink:href="#DejaVuSans-48"/>
       <use x="354.199219" xlink:href="#DejaVuSans-49"/>
      </g>
     </g>
    </g>
    <g id="text_10">
     <!-- Date -->
     <g transform="translate(424.873828 518.325146)scale(0.15 -0.15)">
      <defs>
       <path d="M 19.671875 64.796875 
L 19.671875 8.109375 
L 31.59375 8.109375 
Q 46.6875 8.109375 53.6875 14.9375 
Q 60.6875 21.78125 60.6875 36.53125 
Q 60.6875 51.171875 53.6875 57.984375 
Q 46.6875 64.796875 31.59375 64.796875 
z
M 9.8125 72.90625 
L 30.078125 72.90625 
Q 51.265625 72.90625 61.171875 64.09375 
Q 71.09375 55.28125 71.09375 36.53125 
Q 71.09375 17.671875 61.125 8.828125 
Q 51.171875 0 30.078125 0 
L 9.8125 0 
z
" id="DejaVuSans-68"/>
       <path d="M 34.28125 27.484375 
Q 23.390625 27.484375 19.1875 25 
Q 14.984375 22.515625 14.984375 16.5 
Q 14.984375 11.71875 18.140625 8.90625 
Q 21.296875 6.109375 26.703125 6.109375 
Q 34.1875 6.109375 38.703125 11.40625 
Q 43.21875 16.703125 43.21875 25.484375 
L 43.21875 27.484375 
z
M 52.203125 31.203125 
L 52.203125 0 
L 43.21875 0 
L 43.21875 8.296875 
Q 40.140625 3.328125 35.546875 0.953125 
Q 30.953125 -1.421875 24.3125 -1.421875 
Q 15.921875 -1.421875 10.953125 3.296875 
Q 6 8.015625 6 15.921875 
Q 6 25.140625 12.171875 29.828125 
Q 18.359375 34.515625 30.609375 34.515625 
L 43.21875 34.515625 
L 43.21875 35.40625 
Q 43.21875 41.609375 39.140625 45 
Q 35.0625 48.390625 27.6875 48.390625 
Q 23 48.390625 18.546875 47.265625 
Q 14.109375 46.140625 10.015625 43.890625 
L 10.015625 52.203125 
Q 14.9375 54.109375 19.578125 55.046875 
Q 24.21875 56 28.609375 56 
Q 40.484375 56 46.34375 49.84375 
Q 52.203125 43.703125 52.203125 31.203125 
z
" id="DejaVuSans-97"/>
       <path d="M 18.3125 70.21875 
L 18.3125 54.6875 
L 36.8125 54.6875 
L 36.8125 47.703125 
L 18.3125 47.703125 
L 18.3125 18.015625 
Q 18.3125 11.328125 20.140625 9.421875 
Q 21.96875 7.515625 27.59375 7.515625 
L 36.8125 7.515625 
L 36.8125 0 
L 27.59375 0 
Q 17.1875 0 13.234375 3.875 
Q 9.28125 7.765625 9.28125 18.015625 
L 9.28125 47.703125 
L 2.6875 47.703125 
L 2.6875 54.6875 
L 9.28125 54.6875 
L 9.28125 70.21875 
z
" id="DejaVuSans-116"/>
       <path d="M 56.203125 29.59375 
L 56.203125 25.203125 
L 14.890625 25.203125 
Q 15.484375 15.921875 20.484375 11.0625 
Q 25.484375 6.203125 34.421875 6.203125 
Q 39.59375 6.203125 44.453125 7.46875 
Q 49.3125 8.734375 54.109375 11.28125 
L 54.109375 2.78125 
Q 49.265625 0.734375 44.1875 -0.34375 
Q 39.109375 -1.421875 33.890625 -1.421875 
Q 20.796875 -1.421875 13.15625 6.1875 
Q 5.515625 13.8125 5.515625 26.8125 
Q 5.515625 40.234375 12.765625 48.109375 
Q 20.015625 56 32.328125 56 
Q 43.359375 56 49.78125 48.890625 
Q 56.203125 41.796875 56.203125 29.59375 
z
M 47.21875 32.234375 
Q 47.125 39.59375 43.09375 43.984375 
Q 39.0625 48.390625 32.421875 48.390625 
Q 24.90625 48.390625 20.390625 44.140625 
Q 15.875 39.890625 15.1875 32.171875 
z
" id="DejaVuSans-101"/>
      </defs>
      <use xlink:href="#DejaVuSans-68"/>
      <use x="77.001953" xlink:href="#DejaVuSans-97"/>
      <use x="138.28125" xlink:href="#DejaVuSans-116"/>
      <use x="177.490234" xlink:href="#DejaVuSans-101"/>
     </g>
    </g>
   </g>
   <g id="matplotlib.axis_2">
    <g id="ytick_1">
     <g id="line2d_10">
      <defs>
       <path d="M 0 0 
L -3.5 0 
" id="m15f1904a32" style="stroke:#000000;stroke-width:0.8;"/>
      </defs>
      <g>
       <use style="stroke:#000000;stroke-width:0.8;" x="108" xlink:href="#m15f1904a32" y="454.253834"/>
      </g>
     </g>
     <g id="text_11">
      <!-- 0 -->
      <g transform="translate(93.365 458.812896)scale(0.12 -0.12)">
       <use xlink:href="#DejaVuSans-48"/>
      </g>
     </g>
    </g>
    <g id="ytick_2">
     <g id="line2d_11">
      <g>
       <use style="stroke:#000000;stroke-width:0.8;" x="108" xlink:href="#m15f1904a32" y="394.034943"/>
      </g>
     </g>
     <g id="text_12">
      <!-- 20 -->
      <g transform="translate(85.73 398.594005)scale(0.12 -0.12)">
       <use xlink:href="#DejaVuSans-50"/>
       <use x="63.623047" xlink:href="#DejaVuSans-48"/>
      </g>
     </g>
    </g>
    <g id="ytick_3">
     <g id="line2d_12">
      <g>
       <use style="stroke:#000000;stroke-width:0.8;" x="108" xlink:href="#m15f1904a32" y="333.816052"/>
      </g>
     </g>
     <g id="text_13">
      <!-- 40 -->
      <g transform="translate(85.73 338.375115)scale(0.12 -0.12)">
       <use xlink:href="#DejaVuSans-52"/>
       <use x="63.623047" xlink:href="#DejaVuSans-48"/>
      </g>
     </g>
    </g>
    <g id="ytick_4">
     <g id="line2d_13">
      <g>
       <use style="stroke:#000000;stroke-width:0.8;" x="108" xlink:href="#m15f1904a32" y="273.597161"/>
      </g>
     </g>
     <g id="text_14">
      <!-- 60 -->
      <g transform="translate(85.73 278.156224)scale(0.12 -0.12)">
       <defs>
        <path d="M 33.015625 40.375 
Q 26.375 40.375 22.484375 35.828125 
Q 18.609375 31.296875 18.609375 23.390625 
Q 18.609375 15.53125 22.484375 10.953125 
Q 26.375 6.390625 33.015625 6.390625 
Q 39.65625 6.390625 43.53125 10.953125 
Q 47.40625 15.53125 47.40625 23.390625 
Q 47.40625 31.296875 43.53125 35.828125 
Q 39.65625 40.375 33.015625 40.375 
z
M 52.59375 71.296875 
L 52.59375 62.3125 
Q 48.875 64.0625 45.09375 64.984375 
Q 41.3125 65.921875 37.59375 65.921875 
Q 27.828125 65.921875 22.671875 59.328125 
Q 17.53125 52.734375 16.796875 39.40625 
Q 19.671875 43.65625 24.015625 45.921875 
Q 28.375 48.1875 33.59375 48.1875 
Q 44.578125 48.1875 50.953125 41.515625 
Q 57.328125 34.859375 57.328125 23.390625 
Q 57.328125 12.15625 50.6875 5.359375 
Q 44.046875 -1.421875 33.015625 -1.421875 
Q 20.359375 -1.421875 13.671875 8.265625 
Q 6.984375 17.96875 6.984375 36.375 
Q 6.984375 53.65625 15.1875 63.9375 
Q 23.390625 74.21875 37.203125 74.21875 
Q 40.921875 74.21875 44.703125 73.484375 
Q 48.484375 72.75 52.59375 71.296875 
z
" id="DejaVuSans-54"/>
       </defs>
       <use xlink:href="#DejaVuSans-54"/>
       <use x="63.623047" xlink:href="#DejaVuSans-48"/>
      </g>
     </g>
    </g>
    <g id="ytick_5">
     <g id="line2d_14">
      <g>
       <use style="stroke:#000000;stroke-width:0.8;" x="108" xlink:href="#m15f1904a32" y="213.378271"/>
      </g>
     </g>
     <g id="text_15">
      <!-- 80 -->
      <g transform="translate(85.73 217.937333)scale(0.12 -0.12)">
       <defs>
        <path d="M 31.78125 34.625 
Q 24.75 34.625 20.71875 30.859375 
Q 16.703125 27.09375 16.703125 20.515625 
Q 16.703125 13.921875 20.71875 10.15625 
Q 24.75 6.390625 31.78125 6.390625 
Q 38.8125 6.390625 42.859375 10.171875 
Q 46.921875 13.96875 46.921875 20.515625 
Q 46.921875 27.09375 42.890625 30.859375 
Q 38.875 34.625 31.78125 34.625 
z
M 21.921875 38.8125 
Q 15.578125 40.375 12.03125 44.71875 
Q 8.5 49.078125 8.5 55.328125 
Q 8.5 64.0625 14.71875 69.140625 
Q 20.953125 74.21875 31.78125 74.21875 
Q 42.671875 74.21875 48.875 69.140625 
Q 55.078125 64.0625 55.078125 55.328125 
Q 55.078125 49.078125 51.53125 44.71875 
Q 48 40.375 41.703125 38.8125 
Q 48.828125 37.15625 52.796875 32.3125 
Q 56.78125 27.484375 56.78125 20.515625 
Q 56.78125 9.90625 50.3125 4.234375 
Q 43.84375 -1.421875 31.78125 -1.421875 
Q 19.734375 -1.421875 13.25 4.234375 
Q 6.78125 9.90625 6.78125 20.515625 
Q 6.78125 27.484375 10.78125 32.3125 
Q 14.796875 37.15625 21.921875 38.8125 
z
M 18.3125 54.390625 
Q 18.3125 48.734375 21.84375 45.5625 
Q 25.390625 42.390625 31.78125 42.390625 
Q 38.140625 42.390625 41.71875 45.5625 
Q 45.3125 48.734375 45.3125 54.390625 
Q 45.3125 60.0625 41.71875 63.234375 
Q 38.140625 66.40625 31.78125 66.40625 
Q 25.390625 66.40625 21.84375 63.234375 
Q 18.3125 60.0625 18.3125 54.390625 
z
" id="DejaVuSans-56"/>
       </defs>
       <use xlink:href="#DejaVuSans-56"/>
       <use x="63.623047" xlink:href="#DejaVuSans-48"/>
      </g>
     </g>
    </g>
    <g id="ytick_6">
     <g id="line2d_15">
      <g>
       <use style="stroke:#000000;stroke-width:0.8;" x="108" xlink:href="#m15f1904a32" y="153.15938"/>
      </g>
     </g>
     <g id="text_16">
      <!-- 100 -->
      <g transform="translate(78.095 157.718442)scale(0.12 -0.12)">
       <use xlink:href="#DejaVuSans-49"/>
       <use x="63.623047" xlink:href="#DejaVuSans-48"/>
       <use x="127.246094" xlink:href="#DejaVuSans-48"/>
      </g>
     </g>
    </g>
    <g id="ytick_7">
     <g id="line2d_16">
      <g>
       <use style="stroke:#000000;stroke-width:0.8;" x="108" xlink:href="#m15f1904a32" y="92.940489"/>
      </g>
     </g>
     <g id="text_17">
      <!-- 120 -->
      <g transform="translate(78.095 97.499551)scale(0.12 -0.12)">
       <use xlink:href="#DejaVuSans-49"/>
       <use x="63.623047" xlink:href="#DejaVuSans-50"/>
       <use x="127.246094" xlink:href="#DejaVuSans-48"/>
      </g>
     </g>
    </g>
    <g id="text_18">
     <!-- NO2(ppm) -->
     <g transform="translate(70.975469 303.927188)rotate(-90)scale(0.15 -0.15)">
      <defs>
       <path d="M 9.8125 72.90625 
L 23.09375 72.90625 
L 55.421875 11.921875 
L 55.421875 72.90625 
L 64.984375 72.90625 
L 64.984375 0 
L 51.703125 0 
L 19.390625 60.984375 
L 19.390625 0 
L 9.8125 0 
z
" id="DejaVuSans-78"/>
       <path d="M 39.40625 66.21875 
Q 28.65625 66.21875 22.328125 58.203125 
Q 16.015625 50.203125 16.015625 36.375 
Q 16.015625 22.609375 22.328125 14.59375 
Q 28.65625 6.59375 39.40625 6.59375 
Q 50.140625 6.59375 56.421875 14.59375 
Q 62.703125 22.609375 62.703125 36.375 
Q 62.703125 50.203125 56.421875 58.203125 
Q 50.140625 66.21875 39.40625 66.21875 
z
M 39.40625 74.21875 
Q 54.734375 74.21875 63.90625 63.9375 
Q 73.09375 53.65625 73.09375 36.375 
Q 73.09375 19.140625 63.90625 8.859375 
Q 54.734375 -1.421875 39.40625 -1.421875 
Q 24.03125 -1.421875 14.8125 8.828125 
Q 5.609375 19.09375 5.609375 36.375 
Q 5.609375 53.65625 14.8125 63.9375 
Q 24.03125 74.21875 39.40625 74.21875 
z
" id="DejaVuSans-79"/>
       <path d="M 31 75.875 
Q 24.46875 64.65625 21.28125 53.65625 
Q 18.109375 42.671875 18.109375 31.390625 
Q 18.109375 20.125 21.3125 9.0625 
Q 24.515625 -2 31 -13.1875 
L 23.1875 -13.1875 
Q 15.875 -1.703125 12.234375 9.375 
Q 8.59375 20.453125 8.59375 31.390625 
Q 8.59375 42.28125 12.203125 53.3125 
Q 15.828125 64.359375 23.1875 75.875 
z
" id="DejaVuSans-40"/>
       <path d="M 18.109375 8.203125 
L 18.109375 -20.796875 
L 9.078125 -20.796875 
L 9.078125 54.6875 
L 18.109375 54.6875 
L 18.109375 46.390625 
Q 20.953125 51.265625 25.265625 53.625 
Q 29.59375 56 35.59375 56 
Q 45.5625 56 51.78125 48.09375 
Q 58.015625 40.1875 58.015625 27.296875 
Q 58.015625 14.40625 51.78125 6.484375 
Q 45.5625 -1.421875 35.59375 -1.421875 
Q 29.59375 -1.421875 25.265625 0.953125 
Q 20.953125 3.328125 18.109375 8.203125 
z
M 48.6875 27.296875 
Q 48.6875 37.203125 44.609375 42.84375 
Q 40.53125 48.484375 33.40625 48.484375 
Q 26.265625 48.484375 22.1875 42.84375 
Q 18.109375 37.203125 18.109375 27.296875 
Q 18.109375 17.390625 22.1875 11.75 
Q 26.265625 6.109375 33.40625 6.109375 
Q 40.53125 6.109375 44.609375 11.75 
Q 48.6875 17.390625 48.6875 27.296875 
z
" id="DejaVuSans-112"/>
       <path d="M 52 44.1875 
Q 55.375 50.25 60.0625 53.125 
Q 64.75 56 71.09375 56 
Q 79.640625 56 84.28125 50.015625 
Q 88.921875 44.046875 88.921875 33.015625 
L 88.921875 0 
L 79.890625 0 
L 79.890625 32.71875 
Q 79.890625 40.578125 77.09375 44.375 
Q 74.3125 48.1875 68.609375 48.1875 
Q 61.625 48.1875 57.5625 43.546875 
Q 53.515625 38.921875 53.515625 30.90625 
L 53.515625 0 
L 44.484375 0 
L 44.484375 32.71875 
Q 44.484375 40.625 41.703125 44.40625 
Q 38.921875 48.1875 33.109375 48.1875 
Q 26.21875 48.1875 22.15625 43.53125 
Q 18.109375 38.875 18.109375 30.90625 
L 18.109375 0 
L 9.078125 0 
L 9.078125 54.6875 
L 18.109375 54.6875 
L 18.109375 46.1875 
Q 21.1875 51.21875 25.484375 53.609375 
Q 29.78125 56 35.6875 56 
Q 41.65625 56 45.828125 52.96875 
Q 50 49.953125 52 44.1875 
z
" id="DejaVuSans-109"/>
       <path d="M 8.015625 75.875 
L 15.828125 75.875 
Q 23.140625 64.359375 26.78125 53.3125 
Q 30.421875 42.28125 30.421875 31.390625 
Q 30.421875 20.453125 26.78125 9.375 
Q 23.140625 -1.703125 15.828125 -13.1875 
L 8.015625 -13.1875 
Q 14.5 -2 17.703125 9.0625 
Q 20.90625 20.125 20.90625 31.390625 
Q 20.90625 42.671875 17.703125 53.65625 
Q 14.5 64.65625 8.015625 75.875 
z
" id="DejaVuSans-41"/>
      </defs>
      <use xlink:href="#DejaVuSans-78"/>
      <use x="74.804688" xlink:href="#DejaVuSans-79"/>
      <use x="153.515625" xlink:href="#DejaVuSans-50"/>
      <use x="217.138672" xlink:href="#DejaVuSans-40"/>
      <use x="256.152344" xlink:href="#DejaVuSans-112"/>
      <use x="319.628906" xlink:href="#DejaVuSans-112"/>
      <use x="383.105469" xlink:href="#DejaVuSans-109"/>
      <use x="480.517578" xlink:href="#DejaVuSans-41"/>
     </g>
    </g>
   </g>
   <g id="line2d_17">
    <path clip-path="url(#p4b693898ab)" d="M 138.436364 299.090377 
L 139.270237 250.043847 
L 140.10411 223.833023 
L 140.937983 211.115596 
L 141.771856 282.896413 
L 142.605729 292.917581 
L 143.439601 238.312304 
L 144.273474 209.09194 
L 145.107347 266.898211 
L 145.94122 246.317301 
L 146.775093 230.236549 
L 147.608966 235.250876 
L 148.442839 213.10859 
L 150.110585 277.129702 
L 150.944458 266.778026 
L 151.778331 263.980656 
L 152.612204 234.901807 
L 153.446077 272.773417 
L 154.27995 250.555657 
L 155.113823 253.072255 
L 155.947696 235.35937 
L 156.781569 264.001883 
L 157.615442 273.426742 
L 158.449315 312.35971 
L 159.283188 340.039925 
L 160.117061 306.168455 
L 160.950934 295.998288 
L 161.784807 281.153428 
L 162.61868 286.736171 
L 163.452553 258.136112 
L 164.286426 288.233865 
L 165.120299 290.733952 
L 165.954172 244.364403 
L 166.788045 307.998708 
L 167.621918 332.51136 
L 168.455791 350.471895 
L 169.289664 307.824174 
L 170.123537 336.037427 
L 170.95741 338.21439 
L 171.791283 335.766191 
L 172.625156 285.776231 
L 173.459029 295.578462 
L 174.292902 291.097172 
L 175.126775 322.610069 
L 175.960648 337.799281 
L 176.794521 358.785865 
L 177.628394 302.498515 
L 178.462267 299.793232 
L 179.296139 273.613069 
L 180.130012 256.607756 
L 180.963885 266.325078 
L 181.797758 231.510179 
L 182.631631 328.525371 
L 183.465504 319.855256 
L 184.299377 281.577971 
L 185.13325 293.578391 
L 185.967123 326.638512 
L 186.800996 281.342114 
L 187.634869 257.678548 
L 188.468742 263.487714 
L 189.302615 312.354993 
L 190.136488 330.030141 
L 190.970361 293.734057 
L 191.804234 315.088579 
L 192.638107 320.668963 
L 193.47198 293.314231 
L 194.305853 316.871661 
L 195.139726 313.357386 
L 195.973599 247.489512 
L 196.807472 293.540654 
L 197.641345 270.528055 
L 198.475218 262.121588 
L 199.309091 245.430273 
L 200.142964 276.903279 
L 200.976837 317.753767 
L 201.81071 256.952108 
L 202.644583 227.811936 
L 203.478456 219.68901 
L 204.312329 261.199898 
L 205.146202 266.80151 
L 205.980075 284.200704 
L 206.813948 279.292513 
L 207.647821 343.729603 
L 208.481694 304.50802 
L 209.315567 283.353977 
L 210.14944 302.479647 
L 210.983313 278.610886 
L 211.817186 344.811319 
L 212.651059 315.866908 
L 213.484932 307.406706 
L 214.318804 308.748734 
L 215.152677 299.170569 
L 215.98655 304.460848 
L 216.820423 279.117979 
L 217.654296 304.250935 
L 219.322042 265.374573 
L 220.155915 208.764098 
L 220.989788 219.448435 
L 221.823661 278.219363 
L 222.657534 247.607441 
L 223.491407 258.499332 
L 224.32528 194.34614 
L 225.159153 186.357653 
L 225.993026 163.559684 
L 227.660772 287.106467 
L 228.494645 262.030116 
L 229.328518 314.298457 
L 230.162391 325.879052 
L 230.996264 341.681492 
L 231.830137 322.985082 
L 232.66401 284.30684 
L 233.497883 270.282764 
L 234.331756 224.618428 
L 235.165629 140.131976 
L 235.999502 135.11765 
L 236.833375 238.401929 
L 238.501121 269.119987 
L 239.334994 308.604861 
L 240.168867 308.003425 
L 241.00274 322.169016 
L 241.836613 342.426801 
L 242.670486 358.417928 
L 243.504359 367.889958 
L 244.338232 373.713275 
L 245.172105 378.114373 
L 246.005978 372.814659 
L 246.839851 345.389169 
L 247.673724 280.294907 
L 248.507597 169.17073 
L 250.175342 329.598522 
L 251.009215 336.782736 
L 251.843088 336.240674 
L 252.676961 335.447783 
L 253.510834 248.786727 
L 254.344707 281.842131 
L 255.17858 342.04943 
L 256.012453 327.926293 
L 256.846326 276.915072 
L 258.514072 322.055805 
L 259.347945 304.939639 
L 260.181818 311.666289 
L 261.015691 222.908462 
L 261.849564 288.193769 
L 262.683437 327.631472 
L 263.51731 321.725604 
L 264.351183 380.78728 
L 265.185056 379.609708 
L 266.018929 342.669734 
L 266.852802 352.887074 
L 267.686675 354.587605 
L 268.520548 357.467423 
L 269.354421 332.247199 
L 270.188294 343.073051 
L 271.022167 362.689304 
L 271.85604 370.953745 
L 272.689913 375.765234 
L 273.523786 343.519495 
L 274.357659 322.180809 
L 275.191532 342.006975 
L 276.025405 367.055023 
L 276.859278 354.196082 
L 277.693151 357.512133 
L 278.527024 344.582537 
L 279.360897 351.745524 
L 280.19477 350.705393 
L 281.028643 360.543002 
L 281.862516 377.494068 
L 282.696389 365.790828 
L 283.530262 358.81181 
L 284.364134 360.531209 
L 285.198007 378.352589 
L 286.03188 383.423521 
L 286.865753 360.627911 
L 287.699626 358.394342 
L 288.533499 354.881079 
L 289.367372 344.981136 
L 290.201245 361.071323 
L 291.035118 352.160633 
L 291.868991 349.754888 
L 292.702864 368.790933 
L 293.536737 361.807198 
L 294.37061 353.618231 
L 295.204483 363.944065 
L 296.038356 371.722639 
L 296.872229 368.908862 
L 297.706102 378.737036 
L 298.539975 368.800367 
L 299.373848 372.430211 
L 301.041594 329.405119 
L 301.875467 333.289689 
L 302.70934 366.96068 
L 303.543213 373.128349 
L 304.377086 376.873763 
L 305.210959 371.581125 
L 306.044832 359.252145 
L 306.878705 335.129376 
L 307.712578 345.792485 
L 308.546451 345.931641 
L 309.380324 338.167218 
L 310.214197 350.030842 
L 311.04807 367.715424 
L 311.881943 371.248566 
L 312.715816 366.868696 
L 313.549689 354.196082 
L 314.383562 356.597109 
L 315.217435 382.312633 
L 316.051308 396.415615 
L 316.885181 377.916253 
L 317.719054 338.377131 
L 318.552927 347.009509 
L 319.3868 360.410922 
L 320.220672 383.977786 
L 321.054545 389.315237 
L 321.888418 373.217975 
L 322.722291 369.118775 
L 323.556164 353.236143 
L 324.390037 370.413631 
L 325.22391 355.896613 
L 326.057783 355.266874 
L 326.891656 352.824403 
L 327.725529 346.908091 
L 328.559402 371.812265 
L 329.393275 372.293414 
L 330.227148 310.239353 
L 331.061021 374.56472 
L 331.894894 366.672934 
L 332.728767 305.984487 
L 333.56264 303.06929 
L 334.396513 336.098749 
L 335.230386 307.140187 
L 336.064259 312.102626 
L 336.898132 319.772706 
L 337.732005 262.077287 
L 338.565878 224.078314 
L 339.399751 231.75547 
L 340.233624 267.542102 
L 341.067497 280.445856 
L 343.569116 203.622409 
L 344.402989 295.507704 
L 345.236862 306.621301 
L 346.070735 297.05257 
L 346.904608 338.124764 
L 347.738481 336.143562 
L 348.572354 300.812136 
L 349.406227 314.793758 
L 350.2401 343.716941 
L 351.073973 291.54766 
L 351.907846 314.737152 
L 352.741719 332.020776 
L 353.575592 362.79544 
L 354.409465 387.213748 
L 355.243337 372.909002 
L 356.07721 373.769881 
L 356.911083 370.434858 
L 357.744956 348.818535 
L 358.578829 354.592322 
L 359.412702 335.454859 
L 360.246575 330.190524 
L 361.080448 259.400307 
L 361.914321 276.662704 
L 362.748194 329.348513 
L 363.582067 359.83543 
L 364.41594 274.990476 
L 365.249813 325.35309 
L 366.083686 309.501119 
L 366.917559 334.735494 
L 367.751432 336.299228 
L 368.585305 318.836352 
L 369.419178 250.282063 
L 370.253051 315.940024 
L 371.086924 276.27354 
L 371.920797 279.917535 
L 372.75467 275.509362 
L 373.588543 236.623565 
L 374.422416 230.776662 
L 375.256289 247.482436 
L 376.090162 197.126898 
L 376.924035 382.015453 
L 377.757908 337.973815 
L 378.591781 324.801184 
L 379.425654 246.579103 
L 380.259527 282.264316 
L 381.0934 280.278397 
L 381.927273 266.997271 
L 382.761146 260.350812 
L 383.595019 241.729876 
L 384.428892 230.290796 
L 385.262765 207.672079 
L 386.096638 208.162662 
L 386.930511 273.129562 
L 387.764384 274.6532 
L 388.598257 267.070387 
L 389.43213 254.768069 
L 390.266002 279.169868 
L 391.099875 259.638523 
L 391.933748 285.49792 
L 393.601494 214.903464 
L 394.435367 248.652289 
L 395.26924 274.532913 
L 396.103113 281.330321 
L 396.936986 206.011643 
L 397.770859 223.932083 
L 398.604732 216.905893 
L 399.438605 208.325404 
L 400.272478 167.312174 
L 401.106351 208.87731 
L 401.940224 205.955038 
L 402.774097 175.987006 
L 403.60797 234.279143 
L 404.441843 260.544215 
L 405.275716 274.06048 
L 406.109589 319.665032 
L 406.943462 293.502917 
L 407.777335 293.248191 
L 408.611208 292.113717 
L 409.445081 325.475736 
L 410.278954 283.080382 
L 411.112827 300.965443 
L 411.9467 239.383096 
L 412.780573 256.893144 
L 413.614446 206.155516 
L 415.282192 244.854986 
L 416.116065 243.508241 
L 416.949938 253.040178 
L 418.617684 228.472336 
L 419.451557 260.08901 
L 420.28543 245.777188 
L 421.119303 226.54774 
L 421.953176 196.872172 
L 422.787049 151.998901 
L 423.620922 197.758996 
L 424.454795 187.808175 
L 425.288667 172.352445 
L 426.12254 178.128376 
L 426.956413 203.881647 
L 427.790286 252.585396 
L 428.624159 263.914616 
L 429.458032 286.203133 
L 430.291905 278.962313 
L 431.125778 284.940867 
L 432.793524 251.850514 
L 433.627397 232.96306 
L 434.46127 199.634061 
L 436.129016 116.220761 
L 436.962889 229.201135 
L 438.630635 274.86783 
L 439.464508 102.734439 
L 440.298381 203.313436 
L 441.132254 191.452171 
L 441.966127 240.522287 
L 442.8 256.180854 
L 443.633873 264.326622 
L 444.467746 208.598998 
L 445.301619 165.437108 
L 446.135492 145.610942 
L 446.969365 103.814666 
L 447.803238 216.799757 
L 448.637111 233.746106 
L 449.470984 268.362885 
L 450.304857 259.397948 
L 451.13873 233.385244 
L 451.972603 236.83112 
L 452.806476 197.039631 
L 453.640349 131.466578 
L 454.474222 86.923636 
L 455.308095 111.528123 
L 456.141968 144.054283 
L 456.975841 208.16545 
L 457.809714 203.248182 
L 458.643587 234.589189 
L 459.47746 229.121955 
L 460.311333 126.777735 
L 461.145205 182.050898 
L 461.979078 101.263161 
L 462.812951 219.957887 
L 464.480697 144.563735 
L 465.31457 229.11151 
L 466.148443 217.19128 
L 466.982316 251.397668 
L 467.816189 266.405269 
L 468.650062 238.371268 
L 469.483935 235.121154 
L 470.317808 223.983971 
L 471.151681 274.365454 
L 471.985554 236.213174 
L 472.819427 253.093482 
L 473.6533 202.558692 
L 474.487173 260.551291 
L 475.321046 278.971747 
L 476.154919 321.081714 
L 476.988792 329.997121 
L 477.822665 313.251251 
L 478.656538 289.559383 
L 479.490411 304.314617 
L 480.324284 253.381228 
L 481.158157 273.695619 
L 481.99203 283.311522 
L 482.825903 284.861105 
L 483.659776 280.004803 
L 484.493649 274.27347 
L 485.327522 211.202863 
L 486.161395 232.333321 
L 486.995268 249.371654 
L 487.829141 291.79531 
L 488.663014 324.749295 
L 489.496887 314.50837 
L 490.33076 294.587861 
L 491.164633 329.530123 
L 491.998506 315.454158 
L 492.832379 268.141179 
L 493.666252 281.735995 
L 494.500125 312.451694 
L 495.333998 284.875256 
L 497.001743 298.764894 
L 497.835616 307.390196 
L 498.669489 345.86796 
L 499.503362 288.047537 
L 500.337235 314.713566 
L 501.171108 325.143177 
L 502.004981 250.437729 
L 502.838854 304.750953 
L 503.672727 330.921681 
L 504.5066 307.222738 
L 505.340473 292.281176 
L 506.174346 301.944251 
L 507.008219 349.764323 
L 507.842092 332.97364 
L 508.675965 301.236679 
L 509.509838 312.163948 
L 510.343711 254.911942 
L 511.177584 236.949048 
L 512.011457 117.621753 
L 512.84533 258.032334 
L 513.679203 312.031868 
L 514.513076 282.27375 
L 515.346949 292.981672 
L 516.180822 354.309293 
L 517.014695 364.31672 
L 517.848568 363.880383 
L 518.682441 358.946248 
L 519.516314 341.129586 
L 520.350187 335.301552 
L 521.18406 303.484399 
L 522.017933 296.253013 
L 522.851806 293.420367 
L 523.685679 351.000215 
L 524.519552 301.425365 
L 525.353425 308.097768 
L 526.187298 329.1386 
L 527.021171 335.669489 
L 527.855044 309.564801 
L 528.688917 305.276915 
L 529.52279 337.485591 
L 530.356663 355.094698 
L 531.190535 339.563494 
L 532.024408 285.559242 
L 532.858281 323.704447 
L 533.692154 320.364708 
L 534.526027 336.872362 
L 535.3599 319.711383 
L 536.193773 276.287691 
L 537.027646 267.292093 
L 537.861519 340.931466 
L 538.695392 338.716766 
L 539.529265 353.936639 
L 540.363138 334.259062 
L 541.197011 322.727998 
L 542.030884 282.910565 
L 542.864757 221.73861 
L 543.69863 233.628177 
L 544.532503 293.097243 
L 545.366376 338.19788 
L 546.200249 330.80847 
L 547.034122 216.830419 
L 547.867995 321.593524 
L 548.701868 291.163212 
L 549.535741 323.680861 
L 550.369614 347.014226 
L 551.203487 358.191505 
L 552.03736 363.793116 
L 552.871233 372.986835 
L 553.705106 375.642588 
L 554.538979 366.757843 
L 555.372852 363.70349 
L 556.206725 368.673004 
L 557.040598 369.873518 
L 557.874471 373.196748 
L 558.708344 369.642378 
L 559.542217 367.09276 
L 560.37609 380.958812 
L 561.209963 370.123527 
L 562.043836 373.503362 
L 562.877709 352.354036 
L 563.711582 352.06629 
L 564.545455 366.592743 
L 565.379328 361.828425 
L 566.2132 329.324927 
L 567.047073 374.11895 
L 567.880946 376.64734 
L 569.548692 340.591831 
L 570.382565 342.54473 
L 571.216438 368.66357 
L 572.050311 305.347672 
L 572.884184 212.080252 
L 573.718057 251.067468 
L 574.55193 328.681037 
L 575.385803 313.968257 
L 576.219676 342.886723 
L 577.053549 386.687787 
L 577.887422 381.322032 
L 578.721295 384.588656 
L 579.555168 382.291406 
L 580.389041 377.798324 
L 581.222914 357.738659 
L 582.056787 371.949062 
L 582.89066 365.670541 
L 583.724533 361.590209 
L 584.558406 341.273459 
L 585.392279 341.082415 
L 586.226152 332.258992 
L 587.060025 301.642353 
L 587.893898 287.139487 
L 588.727771 318.848145 
L 589.561644 302.385304 
L 591.22939 368.875842 
L 592.063263 351.38938 
L 592.897136 367.606929 
L 593.731009 354.712609 
L 594.564882 352.184219 
L 595.398755 353.130007 
L 596.232628 357.849083 
L 597.066501 357.366004 
L 597.900374 397.589112 
L 598.734247 400.768469 
L 599.56812 379.864434 
L 600.401993 369.10934 
L 601.235866 345.790127 
L 602.069738 374.640195 
L 602.903611 389.020415 
L 603.737484 365.738939 
L 604.571357 349.160528 
L 605.40523 350.200659 
L 606.239103 365.812055 
L 607.072976 320.567545 
L 607.906849 322.477989 
L 608.740722 367.814484 
L 609.574595 376.843102 
L 610.408468 365.120993 
L 611.242341 349.844514 
L 612.076214 337.032744 
L 612.910087 242.095455 
L 613.74396 234.022059 
L 614.577833 264.249533 
L 615.411706 299.861631 
L 616.245579 227.224651 
L 617.079452 271.976219 
L 617.913325 281.514289 
L 618.747198 308.699204 
L 619.581071 310.366716 
L 620.414944 287.915457 
L 621.248817 282.103933 
L 622.08269 329.548992 
L 622.916563 217.037973 
L 623.750436 250.841045 
L 624.584309 254.624196 
L 625.418182 268.610535 
L 626.252055 311.237029 
L 627.085928 341.981031 
L 627.919801 358.49037 
L 628.753674 346.768935 
L 629.587547 341.271101 
L 630.42142 337.016234 
L 631.255293 333.476016 
L 632.089166 352.988492 
L 632.923039 345.58729 
L 633.756912 334.376991 
L 634.590785 328.964065 
L 635.424658 310.166237 
L 636.258531 335.586939 
L 637.092403 348.228892 
L 637.926276 364.257755 
L 638.760149 366.010175 
L 639.594022 365.444118 
L 640.427895 370.007957 
L 641.261768 361.979373 
L 642.929514 331.36981 
L 643.763387 356.573524 
L 644.59726 354.722044 
L 645.431133 309.088369 
L 646.265006 366.767277 
L 647.098879 374.989263 
L 647.932752 353.299824 
L 648.766625 366.319148 
L 649.600498 371.413666 
L 650.434371 325.84839 
L 651.268244 353.181895 
L 652.102117 358.429721 
L 652.93599 292.561846 
L 653.769863 314.369214 
L 654.603736 301.840473 
L 655.437609 264.971257 
L 656.271482 285.408294 
L 657.105355 342.292363 
L 657.939228 303.805165 
L 658.773101 280.33972 
L 659.606974 285.540374 
L 660.440847 328.032429 
L 661.27472 393.584255 
L 662.942466 338.558741 
L 663.776339 376.550639 
L 664.610212 378.833738 
L 665.444085 376.248741 
L 666.277958 351.993174 
L 667.111831 286.941366 
L 667.945704 267.134068 
L 668.779577 233.75554 
L 669.61345 241.708649 
L 670.447323 240.416151 
L 671.281196 271.459692 
L 672.115068 307.666149 
L 672.948941 364.125675 
L 673.782814 343.334852 
L 674.616687 340.523433 
L 675.45056 322.539312 
L 677.118306 390.454428 
L 677.952179 442.996364 
L 678.786052 373.267505 
L 679.619925 283.236048 
L 680.453798 323.869547 
L 681.287671 411.636774 
L 682.121544 352.521495 
L 682.955417 316.241922 
L 683.78929 315.326795 
L 684.623163 334.476051 
L 685.457036 309.965758 
L 686.290909 278.308988 
L 687.124782 325.268181 
L 687.958655 324.034647 
L 688.792528 324.119556 
L 689.626401 315.730111 
L 690.460274 311.404488 
L 691.294147 292.417973 
L 692.12802 230.422876 
L 692.961893 268.782711 
L 693.795766 286.688999 
L 694.629639 296.859167 
L 695.463512 312.678117 
L 696.297385 317.803297 
L 697.131258 295.290716 
L 697.965131 331.843883 
L 698.799004 309.791224 
L 699.632877 327.879122 
L 700.46675 303.611762 
L 701.300623 300.286174 
L 702.134496 320.407162 
L 702.968369 322.602994 
L 703.802242 266.568011 
L 704.636115 290.30705 
L 705.469988 222.500429 
L 706.303861 265.652884 
L 707.137733 283.122836 
L 707.971606 290.545266 
L 708.805479 252.841115 
L 709.639352 210.080182 
L 710.473225 212.707633 
L 711.307098 254.812062 
L 712.140971 245.979102 
L 712.974844 318.926696 
L 713.808717 303.891714 
L 714.64259 305.826155 
L 715.476463 288.657382 
L 717.144209 190.212587 
L 718.811955 208.720208 
L 719.645828 216.325069 
L 720.479701 230.136874 
L 721.313574 220.553273 
L 722.147447 259.827824 
L 722.98132 240.862434 
L 723.815193 227.663448 
L 724.649066 237.350416 
L 725.482939 224.075135 
L 726.316812 208.656219 
L 727.150685 189.29037 
L 727.984558 266.765721 
L 728.818431 238.145358 
L 729.652304 226.974335 
L 730.486177 237.377488 
L 731.32005 245.2703 
L 732.153923 221.166092 
L 732.987796 181.918613 
L 734.655542 268.778917 
L 735.489415 269.751059 
L 736.323288 256.387178 
L 737.157161 262.633501 
L 737.991034 271.553606 
L 738.824907 308.567842 
L 739.65878 256.333034 
L 740.492653 249.333609 
L 741.326526 194.950243 
L 742.160399 271.308948 
L 742.994271 336.260363 
L 743.828144 327.66121 
L 745.49589 244.866676 
L 746.329763 247.888931 
L 747.163636 254.706233 
L 747.163636 254.706233 
" style="fill:none;stroke:#1f77b4;stroke-linecap:square;stroke-width:1.5;"/>
   </g>
   <g id="line2d_18">
    <path clip-path="url(#p4b693898ab)" d="M 138.436364 294.521232 
L 139.270237 279.891134 
L 140.10411 224.085972 
L 140.937983 220.234367 
L 141.771856 272.76449 
L 142.605729 270.320094 
L 143.439601 262.071929 
L 144.273474 175.660856 
L 145.107347 261.7821 
L 145.94122 245.929013 
L 146.775093 254.733537 
L 147.608966 249.081526 
L 148.442839 197.62467 
L 149.276712 252.164451 
L 150.110585 259.385347 
L 150.944458 289.798651 
L 151.778331 245.346918 
L 152.612204 236.106314 
L 154.27995 272.204201 
L 155.113823 229.545458 
L 155.947696 252.628761 
L 156.781569 256.382376 
L 157.615442 286.302577 
L 158.449315 293.19607 
L 159.283188 323.831562 
L 160.117061 300.927476 
L 160.950934 295.649784 
L 161.784807 261.350626 
L 162.61868 263.022407 
L 163.452553 255.529318 
L 164.286426 250.795767 
L 165.120299 288.813133 
L 165.954172 256.589775 
L 166.788045 287.276318 
L 167.621918 305.456761 
L 168.455791 354.401679 
L 169.289664 287.144687 
L 170.123537 326.981318 
L 170.95741 321.39677 
L 171.791283 333.291289 
L 172.625156 287.922556 
L 173.459029 294.55434 
L 174.292902 291.4655 
L 175.126775 310.283705 
L 175.960648 332.160904 
L 176.794521 343.230454 
L 177.628394 300.920049 
L 178.462267 299.737066 
L 179.296139 256.016825 
L 180.130012 246.121509 
L 180.963885 268.874411 
L 181.797758 205.37278 
L 182.631631 288.959415 
L 183.465504 314.346868 
L 184.299377 286.194808 
L 185.13325 290.135233 
L 185.967123 296.850811 
L 186.800996 317.92102 
L 187.634869 256.066245 
L 188.468742 270.135265 
L 189.302615 294.185181 
L 190.136488 330.848453 
L 190.970361 279.989691 
L 191.804234 317.721067 
L 192.638107 317.296297 
L 193.47198 294.292974 
L 194.305853 288.594047 
L 195.139726 323.963638 
L 195.973599 273.913834 
L 196.807472 258.480791 
L 197.641345 298.039133 
L 198.475218 271.872602 
L 199.309091 253.759408 
L 200.142964 248.975711 
L 200.976837 303.137324 
L 202.644583 232.47358 
L 203.478456 232.241403 
L 204.312329 252.949417 
L 205.146202 290.170356 
L 205.980075 276.867015 
L 206.813948 275.740164 
L 207.647821 319.504548 
L 208.481694 315.427744 
L 209.315567 290.828184 
L 210.14944 298.240881 
L 210.983313 288.031354 
L 211.817186 321.839607 
L 212.651059 317.058171 
L 213.484932 297.44867 
L 214.318804 309.685791 
L 215.152677 292.736883 
L 215.98655 327.986239 
L 216.820423 286.184598 
L 217.654296 295.530545 
L 218.488169 286.135743 
L 219.322042 296.614071 
L 220.155915 197.024151 
L 220.989788 214.706093 
L 221.823661 267.25676 
L 222.657534 292.587232 
L 225.159153 153.278336 
L 227.660772 263.307042 
L 228.494645 273.730212 
L 229.328518 296.369812 
L 230.162391 336.266319 
L 230.996264 336.37118 
L 231.830137 325.381525 
L 233.497883 290.107488 
L 234.331756 257.775937 
L 235.999502 124.012188 
L 236.833375 159.628995 
L 237.667248 302.19171 
L 238.501121 242.204525 
L 239.334994 283.188826 
L 240.168867 306.073892 
L 241.00274 308.738758 
L 241.836613 332.423606 
L 242.670486 366.115606 
L 243.504359 365.558415 
L 244.338232 376.946954 
L 245.172105 370.533726 
L 246.005978 377.062433 
L 246.839851 371.272456 
L 247.673724 266.400361 
L 248.507597 277.630882 
L 249.341469 193.132997 
L 250.175342 333.958238 
L 251.009215 328.911933 
L 251.843088 337.272796 
L 252.676961 323.130813 
L 254.344707 264.336112 
L 255.17858 304.776155 
L 256.012453 336.720231 
L 256.846326 312.068552 
L 257.680199 301.28168 
L 258.514072 308.07821 
L 259.347945 317.729832 
L 260.181818 334.314322 
L 261.015691 262.377006 
L 261.849564 246.495831 
L 262.683437 336.701833 
L 263.51731 316.539166 
L 264.351183 369.186064 
L 265.185056 374.930153 
L 266.018929 374.994877 
L 266.852802 322.757935 
L 267.686675 353.023173 
L 268.520548 354.44673 
L 269.354421 313.916053 
L 271.85604 371.118429 
L 272.689913 369.323923 
L 273.523786 363.9207 
L 274.357659 321.203249 
L 275.191532 323.95848 
L 276.025405 383.541214 
L 276.859278 339.092065 
L 277.693151 352.316951 
L 278.527024 347.262134 
L 279.360897 345.229349 
L 280.19477 347.840183 
L 281.028643 354.372368 
L 281.862516 373.283715 
L 282.696389 375.513848 
L 283.530262 364.851694 
L 284.364134 365.738264 
L 285.198007 373.139739 
L 286.03188 376.029492 
L 286.865753 364.847418 
L 287.699626 362.95148 
L 288.533499 348.097087 
L 289.367372 346.687578 
L 290.201245 352.254515 
L 291.035118 364.885123 
L 291.868991 346.339615 
L 292.702864 366.850831 
L 293.536737 365.302208 
L 294.37061 351.183425 
L 295.204483 354.456695 
L 296.038356 372.158235 
L 296.872229 372.729458 
L 297.706102 376.900436 
L 298.539975 373.97027 
L 299.373848 369.706143 
L 300.207721 351.878433 
L 301.041594 321.919504 
L 301.875467 328.31709 
L 302.70934 368.412573 
L 303.543213 369.961023 
L 304.377086 375.880706 
L 305.210959 369.205893 
L 306.044832 367.235395 
L 307.712578 326.787066 
L 308.546451 337.251409 
L 309.380324 320.319299 
L 310.214197 340.281112 
L 311.04807 365.404296 
L 311.881943 377.411477 
L 312.715816 363.671587 
L 313.549689 366.084367 
L 314.383562 343.967476 
L 315.217435 366.133779 
L 316.051308 394.640993 
L 317.719054 336.956905 
L 318.552927 333.167614 
L 319.3868 351.078892 
L 320.220672 372.317528 
L 321.054545 390.29606 
L 321.888418 375.486294 
L 322.722291 366.31513 
L 323.556164 349.8503 
L 324.390037 364.991991 
L 325.22391 370.395726 
L 326.057783 346.677587 
L 326.891656 347.006127 
L 327.725529 351.322192 
L 328.559402 350.238888 
L 329.393275 375.267242 
L 330.227148 304.976376 
L 331.061021 373.979227 
L 331.894894 364.368669 
L 332.728767 309.741337 
L 333.56264 290.235666 
L 334.396513 328.913045 
L 335.230386 284.57604 
L 336.064259 279.195596 
L 336.898132 325.644046 
L 337.732005 296.843973 
L 338.565878 252.764383 
L 339.399751 247.942819 
L 340.233624 264.379033 
L 341.067497 295.481102 
L 343.569116 206.860453 
L 344.402989 247.023807 
L 345.236862 311.515423 
L 346.070735 295.262264 
L 346.904608 319.262643 
L 347.738481 335.421535 
L 348.572354 310.998082 
L 349.406227 302.068812 
L 350.2401 334.209049 
L 351.073973 320.362284 
L 351.907846 269.32108 
L 352.741719 329.158119 
L 354.409465 379.049122 
L 355.243337 361.327562 
L 356.07721 374.205537 
L 356.911083 375.734584 
L 357.744956 342.378192 
L 358.578829 354.492444 
L 359.412702 335.527503 
L 360.246575 337.022497 
L 361.080448 290.519838 
L 361.914321 254.09161 
L 362.748194 337.618477 
L 363.582067 345.156214 
L 364.41594 285.362427 
L 365.249813 314.737539 
L 366.083686 303.58398 
L 366.917559 314.862243 
L 367.751432 336.812653 
L 368.585305 337.232989 
L 369.419178 276.098714 
L 370.253051 253.982427 
L 371.086924 327.126736 
L 371.920797 266.587655 
L 372.75467 267.049102 
L 373.588543 243.77626 
L 374.422416 211.527103 
L 375.256289 245.44746 
L 376.090162 214.201784 
L 376.924035 303.569777 
L 377.757908 379.536912 
L 378.591781 307.253736 
L 379.425654 270.387271 
L 380.259527 280.112744 
L 381.0934 264.565962 
L 381.927273 257.248005 
L 382.761146 252.286982 
L 383.595019 242.362442 
L 384.428892 221.320478 
L 385.262765 215.898582 
L 386.096638 204.632836 
L 386.930511 217.80926 
L 387.764384 284.530057 
L 388.598257 249.089374 
L 390.266002 282.643901 
L 391.099875 267.237096 
L 391.933748 278.751715 
L 392.767621 252.129317 
L 393.601494 203.537809 
L 394.435367 263.541034 
L 395.26924 258.932095 
L 396.103113 265.809828 
L 396.936986 210.054179 
L 397.770859 206.349826 
L 398.604732 242.94078 
L 400.272478 173.244115 
L 401.106351 201.543612 
L 401.940224 200.012321 
L 402.774097 164.919928 
L 404.441843 257.690451 
L 405.275716 247.49375 
L 406.109589 308.688272 
L 406.943462 277.268258 
L 407.777335 290.998188 
L 408.611208 272.2613 
L 409.445081 311.333484 
L 411.112827 297.265634 
L 411.9467 234.663549 
L 412.780573 256.113589 
L 413.614446 227.982028 
L 414.448319 225.716874 
L 415.282192 243.022378 
L 416.116065 246.870323 
L 416.949938 254.842033 
L 417.783811 250.848391 
L 418.617684 210.248549 
L 419.451557 244.087305 
L 420.28543 244.194753 
L 421.119303 242.156395 
L 422.787049 151.467312 
L 423.620922 189.467082 
L 424.454795 196.560401 
L 425.288667 141.934787 
L 426.12254 191.007694 
L 426.956413 157.871656 
L 427.790286 263.484663 
L 428.624159 250.333397 
L 429.458032 285.576083 
L 430.291905 280.654236 
L 431.125778 270.238074 
L 431.959651 270.767206 
L 433.627397 254.302607 
L 434.46127 222.201914 
L 435.295143 209.910753 
L 436.129016 144.048362 
L 437.796762 270.68245 
L 438.630635 268.985026 
L 439.464508 160.20593 
L 440.298381 139.215148 
L 441.132254 262.356428 
L 441.966127 189.162279 
L 442.8 250.847197 
L 443.633873 253.754842 
L 444.467746 203.190874 
L 445.301619 197.933475 
L 446.135492 153.384468 
L 446.969365 126.674886 
L 447.803238 159.257664 
L 448.637111 213.706691 
L 449.470984 253.664054 
L 450.304857 264.158003 
L 451.13873 217.314399 
L 451.972603 224.895975 
L 452.806476 203.318128 
L 454.474222 98.599179 
L 455.308095 100.681948 
L 456.141968 99.343738 
L 456.975841 224.082681 
L 457.809714 168.23912 
L 458.643587 219.99252 
L 459.47746 261.977637 
L 460.311333 161.631949 
L 461.145205 117.507362 
L 461.979078 163.374248 
L 462.812951 122.999779 
L 463.646824 273.357023 
L 464.480697 163.064999 
L 465.31457 165.061239 
L 466.148443 263.177274 
L 466.982316 213.451217 
L 467.816189 259.000572 
L 468.650062 252.79237 
L 469.483935 255.136942 
L 470.317808 203.192579 
L 471.151681 274.162289 
L 471.985554 210.520308 
L 472.819427 267.68409 
L 473.6533 202.466717 
L 474.487173 195.586092 
L 475.321046 287.989239 
L 476.154919 305.316967 
L 476.988792 319.103501 
L 478.656538 285.981951 
L 479.490411 279.642769 
L 480.324284 256.942644 
L 481.158157 263.567241 
L 481.99203 308.225912 
L 482.825903 253.297611 
L 483.659776 257.515687 
L 484.493649 291.325826 
L 485.327522 208.223354 
L 486.161395 246.673213 
L 486.995268 211.769085 
L 487.829141 259.904447 
L 488.663014 320.811552 
L 489.496887 289.158014 
L 490.33076 287.298587 
L 491.164633 306.358068 
L 491.998506 302.948698 
L 492.832379 298.796393 
L 493.666252 283.385893 
L 494.500125 288.19257 
L 495.333998 296.42873 
L 496.16787 280.976473 
L 497.001743 312.452505 
L 497.835616 292.078466 
L 498.669489 328.994752 
L 499.503362 314.930071 
L 500.337235 286.846621 
L 501.171108 325.114926 
L 502.004981 256.133097 
L 502.838854 287.941864 
L 503.672727 311.830877 
L 504.5066 303.070622 
L 505.340473 312.306129 
L 506.174346 273.795032 
L 507.008219 332.284767 
L 507.842092 340.13972 
L 508.675965 305.670252 
L 509.509838 299.232249 
L 511.177584 246.755953 
L 512.011457 172.196428 
L 512.84533 132.588934 
L 513.679203 329.84379 
L 514.513076 281.119735 
L 515.346949 271.602564 
L 516.180822 343.855427 
L 517.014695 362.925432 
L 517.848568 365.40253 
L 518.682441 366.042601 
L 521.18406 304.893019 
L 522.017933 295.173331 
L 522.851806 280.689508 
L 523.685679 325.82666 
L 524.519552 315.732413 
L 525.353425 295.819291 
L 526.187298 299.888129 
L 527.021171 326.748406 
L 527.855044 309.730574 
L 528.688917 309.707726 
L 529.52279 320.748484 
L 530.356663 347.3365 
L 531.190535 350.824329 
L 532.024408 287.145477 
L 533.692154 325.05546 
L 534.526027 326.544405 
L 535.3599 303.595992 
L 536.193773 273.396693 
L 537.027646 255.420451 
L 537.861519 322.287178 
L 538.695392 334.881097 
L 539.529265 356.897678 
L 540.363138 318.02632 
L 541.197011 330.733493 
L 542.030884 291.538877 
L 542.864757 233.249286 
L 544.532503 271.149015 
L 545.366376 331.341821 
L 546.200249 341.392506 
L 547.034122 276.717601 
L 547.867995 277.494646 
L 548.701868 276.070479 
L 549.535741 299.909722 
L 550.369614 340.476249 
L 551.203487 364.615165 
L 552.03736 363.622654 
L 553.705106 375.234955 
L 554.538979 367.058843 
L 555.372852 369.966638 
L 556.206725 364.708864 
L 557.040598 370.852288 
L 557.874471 372.390085 
L 558.708344 371.391002 
L 559.542217 368.009084 
L 560.37609 376.743433 
L 561.209963 370.716417 
L 562.043836 368.727906 
L 562.877709 363.37641 
L 563.711582 338.04264 
L 564.545455 362.87984 
L 565.379328 367.82947 
L 566.2132 308.657221 
L 567.047073 367.491541 
L 567.880946 376.275477 
L 568.714819 366.877143 
L 569.548692 343.216581 
L 570.382565 326.348393 
L 571.216438 366.23166 
L 572.050311 342.648552 
L 572.884184 255.660355 
L 573.718057 224.652924 
L 574.55193 291.865334 
L 575.385803 307.516615 
L 576.219676 334.657545 
L 577.053549 371.932281 
L 577.887422 374.776018 
L 578.721295 383.768481 
L 579.555168 374.668539 
L 580.389041 374.695008 
L 581.222914 365.601064 
L 582.056787 368.458012 
L 582.89066 370.323958 
L 583.724533 364.461202 
L 584.558406 339.012451 
L 585.392279 335.988299 
L 586.226152 326.867381 
L 587.060025 302.006265 
L 587.893898 297.169634 
L 588.727771 306.226612 
L 589.561644 313.891729 
L 590.395517 308.936706 
L 591.22939 366.175464 
L 592.063263 333.799284 
L 592.897136 372.25235 
L 593.731009 366.379764 
L 594.564882 346.950295 
L 595.398755 363.533979 
L 596.232628 349.119804 
L 597.066501 352.49739 
L 597.900374 380.645995 
L 598.734247 389.919508 
L 599.56812 387.20811 
L 600.401993 369.677414 
L 602.069738 349.812441 
L 602.903611 384.940273 
L 603.737484 370.722568 
L 604.571357 341.728931 
L 605.40523 344.837289 
L 606.239103 367.908356 
L 607.072976 328.22098 
L 607.906849 280.671727 
L 608.740722 367.360258 
L 609.574595 359.81454 
L 610.408468 363.558607 
L 611.242341 342.741457 
L 612.076214 334.984568 
L 612.910087 248.782945 
L 613.74396 270.115539 
L 614.577833 246.152271 
L 615.411706 289.701713 
L 616.245579 252.028953 
L 617.079452 282.531215 
L 617.913325 276.394969 
L 618.747198 304.245542 
L 619.581071 294.437182 
L 620.414944 299.189655 
L 621.248817 280.615758 
L 622.08269 291.49649 
L 622.916563 272.999355 
L 623.750436 261.019293 
L 624.584309 259.859554 
L 625.418182 271.392687 
L 626.252055 293.246535 
L 627.085928 345.496797 
L 627.919801 343.74019 
L 628.753674 363.271527 
L 629.587547 328.756414 
L 630.42142 332.246256 
L 631.255293 333.917123 
L 632.089166 347.17072 
L 632.923039 342.304287 
L 633.756912 326.523482 
L 634.590785 342.103973 
L 635.424658 315.556097 
L 636.258531 320.882242 
L 637.092403 347.495725 
L 637.926276 353.532426 
L 638.760149 368.831291 
L 639.594022 369.998116 
L 640.427895 369.37398 
L 641.261768 362.570996 
L 642.095641 365.074695 
L 642.929514 303.508454 
L 643.763387 353.480372 
L 644.59726 363.124376 
L 645.431133 323.72754 
L 646.265006 338.257099 
L 647.098879 376.550993 
L 647.932752 362.982169 
L 648.766625 353.464758 
L 649.600498 362.82962 
L 650.434371 342.058473 
L 651.268244 327.628353 
L 652.102117 361.286086 
L 652.93599 295.460945 
L 653.769863 300.107187 
L 654.603736 316.726092 
L 655.437609 263.706632 
L 656.271482 268.17997 
L 657.105355 316.197587 
L 657.939228 301.680434 
L 658.773101 280.221532 
L 659.606974 278.440485 
L 660.440847 302.493448 
L 661.27472 381.315457 
L 662.108593 359.084263 
L 662.942466 346.09818 
L 663.776339 348.58887 
L 664.610212 371.750119 
L 665.444085 373.336386 
L 666.277958 346.056017 
L 667.111831 324.104347 
L 667.945704 278.879356 
L 668.779577 247.957073 
L 669.61345 246.8527 
L 670.447323 267.234091 
L 671.281196 276.357083 
L 672.115068 281.029863 
L 672.948941 338.51148 
L 673.782814 358.496005 
L 675.45056 319.766108 
L 676.284433 349.774037 
L 677.118306 373.901212 
L 677.952179 415.64572 
L 678.786052 419.09711 
L 679.619925 284.573576 
L 680.453798 309.77578 
L 681.287671 364.637799 
L 682.121544 371.217147 
L 682.955417 326.564581 
L 683.78929 323.486575 
L 684.623163 311.573096 
L 685.457036 322.406976 
L 686.290909 258.490737 
L 687.124782 316.105939 
L 687.958655 314.710642 
L 688.792528 317.816699 
L 689.626401 305.839144 
L 690.460274 309.723101 
L 691.294147 297.561326 
L 692.12802 247.536214 
L 692.961893 245.704929 
L 693.795766 286.185028 
L 694.629639 281.2326 
L 695.463512 312.272253 
L 696.297385 306.492772 
L 697.131258 306.469777 
L 697.965131 331.759466 
L 698.799004 297.759656 
L 699.632877 331.686735 
L 700.46675 318.609086 
L 701.300623 296.602721 
L 702.134496 310.032274 
L 702.968369 328.647444 
L 703.802242 274.215053 
L 704.636115 253.50625 
L 705.469988 258.788733 
L 706.303861 205.734953 
L 707.137733 275.468188 
L 707.971606 282.866681 
L 708.805479 263.601089 
L 709.639352 232.195296 
L 710.473225 182.907794 
L 711.307098 252.72673 
L 712.140971 240.014301 
L 712.974844 295.451294 
L 713.808717 329.589464 
L 714.64259 284.784372 
L 715.476463 281.32669 
L 716.310336 244.861166 
L 717.144209 174.85204 
L 717.978082 207.007911 
L 718.811955 214.420979 
L 719.645828 201.956061 
L 720.479701 218.212083 
L 721.313574 206.073736 
L 722.147447 252.32253 
L 722.98132 244.494877 
L 723.815193 201.235146 
L 724.649066 254.224658 
L 725.482939 197.961676 
L 726.316812 208.356882 
L 727.150685 201.863566 
L 727.984558 219.686126 
L 728.818431 260.657089 
L 729.652304 188.54144 
L 730.486177 256.774292 
L 731.32005 217.900871 
L 732.153923 251.987406 
L 732.987796 165.19127 
L 733.821669 238.135403 
L 734.655542 262.622552 
L 736.323288 267.09055 
L 737.157161 247.823102 
L 737.991034 241.047893 
L 738.824907 300.172529 
L 739.65878 275.865167 
L 741.326526 233.936169 
L 742.160399 232.054556 
L 742.994271 302.024446 
L 743.828144 332.408439 
L 744.662017 296.129964 
L 745.49589 246.500287 
L 746.329763 266.486339 
L 747.163636 218.411971 
L 747.163636 218.411971 
" style="fill:none;stroke:#ff0000;stroke-dasharray:5.55,2.4;stroke-dashoffset:0;stroke-width:1.5;"/>
   </g>
   <g id="patch_3">
    <path d="M 108 460.8 
L 108 69.12 
" style="fill:none;stroke:#000000;stroke-linecap:square;stroke-linejoin:miter;stroke-width:0.8;"/>
   </g>
   <g id="patch_4">
    <path d="M 777.6 460.8 
L 777.6 69.12 
" style="fill:none;stroke:#000000;stroke-linecap:square;stroke-linejoin:miter;stroke-width:0.8;"/>
   </g>
   <g id="patch_5">
    <path d="M 108 460.8 
L 777.6 460.8 
" style="fill:none;stroke:#000000;stroke-linecap:square;stroke-linejoin:miter;stroke-width:0.8;"/>
   </g>
   <g id="patch_6">
    <path d="M 108 69.12 
L 777.6 69.12 
" style="fill:none;stroke:#000000;stroke-linecap:square;stroke-linejoin:miter;stroke-width:0.8;"/>
   </g>
   <g id="text_19">
    <!-- Macau roadside 2020-2021 | Forecast vs Monitored | Random forest -->
    <g transform="translate(188.201953 63.12)scale(0.15 -0.15)">
     <defs>
      <path d="M 9.8125 72.90625 
L 24.515625 72.90625 
L 43.109375 23.296875 
L 61.8125 72.90625 
L 76.515625 72.90625 
L 76.515625 0 
L 66.890625 0 
L 66.890625 64.015625 
L 48.09375 14.015625 
L 38.1875 14.015625 
L 19.390625 64.015625 
L 19.390625 0 
L 9.8125 0 
z
" id="DejaVuSans-77"/>
      <path d="M 48.78125 52.59375 
L 48.78125 44.1875 
Q 44.96875 46.296875 41.140625 47.34375 
Q 37.3125 48.390625 33.40625 48.390625 
Q 24.65625 48.390625 19.8125 42.84375 
Q 14.984375 37.3125 14.984375 27.296875 
Q 14.984375 17.28125 19.8125 11.734375 
Q 24.65625 6.203125 33.40625 6.203125 
Q 37.3125 6.203125 41.140625 7.25 
Q 44.96875 8.296875 48.78125 10.40625 
L 48.78125 2.09375 
Q 45.015625 0.34375 40.984375 -0.53125 
Q 36.96875 -1.421875 32.421875 -1.421875 
Q 20.0625 -1.421875 12.78125 6.34375 
Q 5.515625 14.109375 5.515625 27.296875 
Q 5.515625 40.671875 12.859375 48.328125 
Q 20.21875 56 33.015625 56 
Q 37.15625 56 41.109375 55.140625 
Q 45.0625 54.296875 48.78125 52.59375 
z
" id="DejaVuSans-99"/>
      <path d="M 8.5 21.578125 
L 8.5 54.6875 
L 17.484375 54.6875 
L 17.484375 21.921875 
Q 17.484375 14.15625 20.5 10.265625 
Q 23.53125 6.390625 29.59375 6.390625 
Q 36.859375 6.390625 41.078125 11.03125 
Q 45.3125 15.671875 45.3125 23.6875 
L 45.3125 54.6875 
L 54.296875 54.6875 
L 54.296875 0 
L 45.3125 0 
L 45.3125 8.40625 
Q 42.046875 3.421875 37.71875 1 
Q 33.40625 -1.421875 27.6875 -1.421875 
Q 18.265625 -1.421875 13.375 4.4375 
Q 8.5 10.296875 8.5 21.578125 
z
M 31.109375 56 
z
" id="DejaVuSans-117"/>
      <path id="DejaVuSans-32"/>
      <path d="M 41.109375 46.296875 
Q 39.59375 47.171875 37.8125 47.578125 
Q 36.03125 48 33.890625 48 
Q 26.265625 48 22.1875 43.046875 
Q 18.109375 38.09375 18.109375 28.8125 
L 18.109375 0 
L 9.078125 0 
L 9.078125 54.6875 
L 18.109375 54.6875 
L 18.109375 46.1875 
Q 20.953125 51.171875 25.484375 53.578125 
Q 30.03125 56 36.53125 56 
Q 37.453125 56 38.578125 55.875 
Q 39.703125 55.765625 41.0625 55.515625 
z
" id="DejaVuSans-114"/>
      <path d="M 30.609375 48.390625 
Q 23.390625 48.390625 19.1875 42.75 
Q 14.984375 37.109375 14.984375 27.296875 
Q 14.984375 17.484375 19.15625 11.84375 
Q 23.34375 6.203125 30.609375 6.203125 
Q 37.796875 6.203125 41.984375 11.859375 
Q 46.1875 17.53125 46.1875 27.296875 
Q 46.1875 37.015625 41.984375 42.703125 
Q 37.796875 48.390625 30.609375 48.390625 
z
M 30.609375 56 
Q 42.328125 56 49.015625 48.375 
Q 55.71875 40.765625 55.71875 27.296875 
Q 55.71875 13.875 49.015625 6.21875 
Q 42.328125 -1.421875 30.609375 -1.421875 
Q 18.84375 -1.421875 12.171875 6.21875 
Q 5.515625 13.875 5.515625 27.296875 
Q 5.515625 40.765625 12.171875 48.375 
Q 18.84375 56 30.609375 56 
z
" id="DejaVuSans-111"/>
      <path d="M 45.40625 46.390625 
L 45.40625 75.984375 
L 54.390625 75.984375 
L 54.390625 0 
L 45.40625 0 
L 45.40625 8.203125 
Q 42.578125 3.328125 38.25 0.953125 
Q 33.9375 -1.421875 27.875 -1.421875 
Q 17.96875 -1.421875 11.734375 6.484375 
Q 5.515625 14.40625 5.515625 27.296875 
Q 5.515625 40.1875 11.734375 48.09375 
Q 17.96875 56 27.875 56 
Q 33.9375 56 38.25 53.625 
Q 42.578125 51.265625 45.40625 46.390625 
z
M 14.796875 27.296875 
Q 14.796875 17.390625 18.875 11.75 
Q 22.953125 6.109375 30.078125 6.109375 
Q 37.203125 6.109375 41.296875 11.75 
Q 45.40625 17.390625 45.40625 27.296875 
Q 45.40625 37.203125 41.296875 42.84375 
Q 37.203125 48.484375 30.078125 48.484375 
Q 22.953125 48.484375 18.875 42.84375 
Q 14.796875 37.203125 14.796875 27.296875 
z
" id="DejaVuSans-100"/>
      <path d="M 44.28125 53.078125 
L 44.28125 44.578125 
Q 40.484375 46.53125 36.375 47.5 
Q 32.28125 48.484375 27.875 48.484375 
Q 21.1875 48.484375 17.84375 46.4375 
Q 14.5 44.390625 14.5 40.28125 
Q 14.5 37.15625 16.890625 35.375 
Q 19.28125 33.59375 26.515625 31.984375 
L 29.59375 31.296875 
Q 39.15625 29.25 43.1875 25.515625 
Q 47.21875 21.78125 47.21875 15.09375 
Q 47.21875 7.46875 41.1875 3.015625 
Q 35.15625 -1.421875 24.609375 -1.421875 
Q 20.21875 -1.421875 15.453125 -0.5625 
Q 10.6875 0.296875 5.421875 2 
L 5.421875 11.28125 
Q 10.40625 8.6875 15.234375 7.390625 
Q 20.0625 6.109375 24.8125 6.109375 
Q 31.15625 6.109375 34.5625 8.28125 
Q 37.984375 10.453125 37.984375 14.40625 
Q 37.984375 18.0625 35.515625 20.015625 
Q 33.0625 21.96875 24.703125 23.78125 
L 21.578125 24.515625 
Q 13.234375 26.265625 9.515625 29.90625 
Q 5.8125 33.546875 5.8125 39.890625 
Q 5.8125 47.609375 11.28125 51.796875 
Q 16.75 56 26.8125 56 
Q 31.78125 56 36.171875 55.265625 
Q 40.578125 54.546875 44.28125 53.078125 
z
" id="DejaVuSans-115"/>
      <path d="M 9.421875 54.6875 
L 18.40625 54.6875 
L 18.40625 0 
L 9.421875 0 
z
M 9.421875 75.984375 
L 18.40625 75.984375 
L 18.40625 64.59375 
L 9.421875 64.59375 
z
" id="DejaVuSans-105"/>
      <path d="M 21 76.421875 
L 21 -23.578125 
L 12.703125 -23.578125 
L 12.703125 76.421875 
z
" id="DejaVuSans-124"/>
      <path d="M 9.8125 72.90625 
L 51.703125 72.90625 
L 51.703125 64.59375 
L 19.671875 64.59375 
L 19.671875 43.109375 
L 48.578125 43.109375 
L 48.578125 34.8125 
L 19.671875 34.8125 
L 19.671875 0 
L 9.8125 0 
z
" id="DejaVuSans-70"/>
      <path d="M 2.984375 54.6875 
L 12.5 54.6875 
L 29.59375 8.796875 
L 46.6875 54.6875 
L 56.203125 54.6875 
L 35.6875 0 
L 23.484375 0 
z
" id="DejaVuSans-118"/>
      <path d="M 54.890625 33.015625 
L 54.890625 0 
L 45.90625 0 
L 45.90625 32.71875 
Q 45.90625 40.484375 42.875 44.328125 
Q 39.84375 48.1875 33.796875 48.1875 
Q 26.515625 48.1875 22.3125 43.546875 
Q 18.109375 38.921875 18.109375 30.90625 
L 18.109375 0 
L 9.078125 0 
L 9.078125 54.6875 
L 18.109375 54.6875 
L 18.109375 46.1875 
Q 21.34375 51.125 25.703125 53.5625 
Q 30.078125 56 35.796875 56 
Q 45.21875 56 50.046875 50.171875 
Q 54.890625 44.34375 54.890625 33.015625 
z
" id="DejaVuSans-110"/>
      <path d="M 44.390625 34.1875 
Q 47.5625 33.109375 50.5625 29.59375 
Q 53.5625 26.078125 56.59375 19.921875 
L 66.609375 0 
L 56 0 
L 46.6875 18.703125 
Q 43.0625 26.03125 39.671875 28.421875 
Q 36.28125 30.8125 30.421875 30.8125 
L 19.671875 30.8125 
L 19.671875 0 
L 9.8125 0 
L 9.8125 72.90625 
L 32.078125 72.90625 
Q 44.578125 72.90625 50.734375 67.671875 
Q 56.890625 62.453125 56.890625 51.90625 
Q 56.890625 45.015625 53.6875 40.46875 
Q 50.484375 35.9375 44.390625 34.1875 
z
M 19.671875 64.796875 
L 19.671875 38.921875 
L 32.078125 38.921875 
Q 39.203125 38.921875 42.84375 42.21875 
Q 46.484375 45.515625 46.484375 51.90625 
Q 46.484375 58.296875 42.84375 61.546875 
Q 39.203125 64.796875 32.078125 64.796875 
z
" id="DejaVuSans-82"/>
      <path d="M 37.109375 75.984375 
L 37.109375 68.5 
L 28.515625 68.5 
Q 23.6875 68.5 21.796875 66.546875 
Q 19.921875 64.59375 19.921875 59.515625 
L 19.921875 54.6875 
L 34.71875 54.6875 
L 34.71875 47.703125 
L 19.921875 47.703125 
L 19.921875 0 
L 10.890625 0 
L 10.890625 47.703125 
L 2.296875 47.703125 
L 2.296875 54.6875 
L 10.890625 54.6875 
L 10.890625 58.5 
Q 10.890625 67.625 15.140625 71.796875 
Q 19.390625 75.984375 28.609375 75.984375 
z
" id="DejaVuSans-102"/>
     </defs>
     <use xlink:href="#DejaVuSans-77"/>
     <use x="86.279297" xlink:href="#DejaVuSans-97"/>
     <use x="147.558594" xlink:href="#DejaVuSans-99"/>
     <use x="202.539062" xlink:href="#DejaVuSans-97"/>
     <use x="263.818359" xlink:href="#DejaVuSans-117"/>
     <use x="327.197266" xlink:href="#DejaVuSans-32"/>
     <use x="358.984375" xlink:href="#DejaVuSans-114"/>
     <use x="397.847656" xlink:href="#DejaVuSans-111"/>
     <use x="459.029297" xlink:href="#DejaVuSans-97"/>
     <use x="520.308594" xlink:href="#DejaVuSans-100"/>
     <use x="583.785156" xlink:href="#DejaVuSans-115"/>
     <use x="635.884766" xlink:href="#DejaVuSans-105"/>
     <use x="663.667969" xlink:href="#DejaVuSans-100"/>
     <use x="727.144531" xlink:href="#DejaVuSans-101"/>
     <use x="788.667969" xlink:href="#DejaVuSans-32"/>
     <use x="820.455078" xlink:href="#DejaVuSans-50"/>
     <use x="884.078125" xlink:href="#DejaVuSans-48"/>
     <use x="947.701172" xlink:href="#DejaVuSans-50"/>
     <use x="1011.324219" xlink:href="#DejaVuSans-48"/>
     <use x="1074.947266" xlink:href="#DejaVuSans-45"/>
     <use x="1111.03125" xlink:href="#DejaVuSans-50"/>
     <use x="1174.654297" xlink:href="#DejaVuSans-48"/>
     <use x="1238.277344" xlink:href="#DejaVuSans-50"/>
     <use x="1301.900391" xlink:href="#DejaVuSans-49"/>
     <use x="1365.523438" xlink:href="#DejaVuSans-32"/>
     <use x="1397.310547" xlink:href="#DejaVuSans-124"/>
     <use x="1431.001953" xlink:href="#DejaVuSans-32"/>
     <use x="1462.789062" xlink:href="#DejaVuSans-70"/>
     <use x="1516.683594" xlink:href="#DejaVuSans-111"/>
     <use x="1577.865234" xlink:href="#DejaVuSans-114"/>
     <use x="1616.728516" xlink:href="#DejaVuSans-101"/>
     <use x="1678.251953" xlink:href="#DejaVuSans-99"/>
     <use x="1733.232422" xlink:href="#DejaVuSans-97"/>
     <use x="1794.511719" xlink:href="#DejaVuSans-115"/>
     <use x="1846.611328" xlink:href="#DejaVuSans-116"/>
     <use x="1885.820312" xlink:href="#DejaVuSans-32"/>
     <use x="1917.607422" xlink:href="#DejaVuSans-118"/>
     <use x="1976.787109" xlink:href="#DejaVuSans-115"/>
     <use x="2028.886719" xlink:href="#DejaVuSans-32"/>
     <use x="2060.673828" xlink:href="#DejaVuSans-77"/>
     <use x="2146.953125" xlink:href="#DejaVuSans-111"/>
     <use x="2208.134766" xlink:href="#DejaVuSans-110"/>
     <use x="2271.513672" xlink:href="#DejaVuSans-105"/>
     <use x="2299.296875" xlink:href="#DejaVuSans-116"/>
     <use x="2338.505859" xlink:href="#DejaVuSans-111"/>
     <use x="2399.6875" xlink:href="#DejaVuSans-114"/>
     <use x="2438.550781" xlink:href="#DejaVuSans-101"/>
     <use x="2500.074219" xlink:href="#DejaVuSans-100"/>
     <use x="2563.550781" xlink:href="#DejaVuSans-32"/>
     <use x="2595.337891" xlink:href="#DejaVuSans-124"/>
     <use x="2629.029297" xlink:href="#DejaVuSans-32"/>
     <use x="2660.816406" xlink:href="#DejaVuSans-82"/>
     <use x="2728.048828" xlink:href="#DejaVuSans-97"/>
     <use x="2789.328125" xlink:href="#DejaVuSans-110"/>
     <use x="2852.707031" xlink:href="#DejaVuSans-100"/>
     <use x="2916.183594" xlink:href="#DejaVuSans-111"/>
     <use x="2977.365234" xlink:href="#DejaVuSans-109"/>
     <use x="3074.777344" xlink:href="#DejaVuSans-32"/>
     <use x="3106.564453" xlink:href="#DejaVuSans-102"/>
     <use x="3141.769531" xlink:href="#DejaVuSans-111"/>
     <use x="3202.951172" xlink:href="#DejaVuSans-114"/>
     <use x="3241.814453" xlink:href="#DejaVuSans-101"/>
     <use x="3303.337891" xlink:href="#DejaVuSans-115"/>
     <use x="3355.4375" xlink:href="#DejaVuSans-116"/>
    </g>
   </g>
   <g id="legend_1">
    <g id="patch_7">
     <path d="M 605.76375 114.615 
L 769.2 114.615 
Q 771.6 114.615 771.6 112.215 
L 771.6 77.52 
Q 771.6 75.12 769.2 75.12 
L 605.76375 75.12 
Q 603.36375 75.12 603.36375 77.52 
L 603.36375 112.215 
Q 603.36375 114.615 605.76375 114.615 
z
" style="fill:#ffffff;opacity:0.8;stroke:#cccccc;stroke-linejoin:miter;"/>
    </g>
    <g id="line2d_19">
     <path d="M 608.16375 84.838125 
L 632.16375 84.838125 
" style="fill:none;stroke:#1f77b4;stroke-linecap:square;stroke-width:1.5;"/>
    </g>
    <g id="line2d_20"/>
    <g id="text_20">
     <!-- measured_data_NO2 -->
     <g transform="translate(641.76375 89.038125)scale(0.12 -0.12)">
      <defs>
       <path d="M 50.984375 -16.609375 
L 50.984375 -23.578125 
L -0.984375 -23.578125 
L -0.984375 -16.609375 
z
" id="DejaVuSans-95"/>
      </defs>
      <use xlink:href="#DejaVuSans-109"/>
      <use x="97.412109" xlink:href="#DejaVuSans-101"/>
      <use x="158.935547" xlink:href="#DejaVuSans-97"/>
      <use x="220.214844" xlink:href="#DejaVuSans-115"/>
      <use x="272.314453" xlink:href="#DejaVuSans-117"/>
      <use x="335.693359" xlink:href="#DejaVuSans-114"/>
      <use x="374.556641" xlink:href="#DejaVuSans-101"/>
      <use x="436.080078" xlink:href="#DejaVuSans-100"/>
      <use x="499.556641" xlink:href="#DejaVuSans-95"/>
      <use x="549.556641" xlink:href="#DejaVuSans-100"/>
      <use x="613.033203" xlink:href="#DejaVuSans-97"/>
      <use x="674.3125" xlink:href="#DejaVuSans-116"/>
      <use x="713.521484" xlink:href="#DejaVuSans-97"/>
      <use x="774.800781" xlink:href="#DejaVuSans-95"/>
      <use x="824.800781" xlink:href="#DejaVuSans-78"/>
      <use x="899.605469" xlink:href="#DejaVuSans-79"/>
      <use x="978.316406" xlink:href="#DejaVuSans-50"/>
     </g>
    </g>
    <g id="line2d_21">
     <path d="M 608.16375 102.785625 
L 632.16375 102.785625 
" style="fill:none;stroke:#ff0000;stroke-dasharray:5.55,2.4;stroke-dashoffset:0;stroke-width:1.5;"/>
    </g>
    <g id="line2d_22"/>
    <g id="text_21">
     <!-- predicted_data_NO2 -->
     <g transform="translate(641.76375 106.985625)scale(0.12 -0.12)">
      <use xlink:href="#DejaVuSans-112"/>
      <use x="63.476562" xlink:href="#DejaVuSans-114"/>
      <use x="102.339844" xlink:href="#DejaVuSans-101"/>
      <use x="163.863281" xlink:href="#DejaVuSans-100"/>
      <use x="227.339844" xlink:href="#DejaVuSans-105"/>
      <use x="255.123047" xlink:href="#DejaVuSans-99"/>
      <use x="310.103516" xlink:href="#DejaVuSans-116"/>
      <use x="349.3125" xlink:href="#DejaVuSans-101"/>
      <use x="410.835938" xlink:href="#DejaVuSans-100"/>
      <use x="474.3125" xlink:href="#DejaVuSans-95"/>
      <use x="524.3125" xlink:href="#DejaVuSans-100"/>
      <use x="587.789062" xlink:href="#DejaVuSans-97"/>
      <use x="649.068359" xlink:href="#DejaVuSans-116"/>
      <use x="688.277344" xlink:href="#DejaVuSans-97"/>
      <use x="749.556641" xlink:href="#DejaVuSans-95"/>
      <use x="799.556641" xlink:href="#DejaVuSans-78"/>
      <use x="874.361328" xlink:href="#DejaVuSans-79"/>
      <use x="953.072266" xlink:href="#DejaVuSans-50"/>
     </g>
    </g>
   </g>
  </g>
 </g>
 <defs>
  <clipPath id="p4b693898ab">
   <rect height="391.68" width="669.6" x="108" y="69.12"/>
  </clipPath>
 </defs>
</svg>
