<?xml version="1.0" encoding="utf-8" standalone="no"?>
<!DOCTYPE svg PUBLIC "-//W3C//DTD SVG 1.1//EN"
  "http://www.w3.org/Graphics/SVG/1.1/DTD/svg11.dtd">
<!-- Created with matplotlib (https://matplotlib.org/) -->
<svg height="576pt" version="1.1" viewBox="0 0 864 576" width="864pt" xmlns="http://www.w3.org/2000/svg" xmlns:xlink="http://www.w3.org/1999/xlink">
 <metadata>
  <rdf:RDF xmlns:cc="http://creativecommons.org/ns#" xmlns:dc="http://purl.org/dc/elements/1.1/" xmlns:rdf="http://www.w3.org/1999/02/22-rdf-syntax-ns#">
   <cc:Work>
    <dc:type rdf:resource="http://purl.org/dc/dcmitype/StillImage"/>
    <dc:date>2024-03-08T16:47:02.481197</dc:date>
    <dc:format>image/svg+xml</dc:format>
    <dc:creator>
     <cc:Agent>
      <dc:title>Matplotlib v3.3.4, https://matplotlib.org/</dc:title>
     </cc:Agent>
    </dc:creator>
   </cc:Work>
  </rdf:RDF>
 </metadata>
 <defs>
  <style type="text/css">*{stroke-linecap:butt;stroke-linejoin:round;}</style>
 </defs>
 <g id="figure_1">
  <g id="patch_1">
   <path d="M 0 576 
L 864 576 
L 864 0 
L 0 0 
z
" style="fill:#ffffff;"/>
  </g>
  <g id="axes_1">
   <g id="patch_2">
    <path d="M 108 460.8 
L 777.6 460.8 
L 777.6 69.12 
L 108 69.12 
z
" style="fill:#ffffff;"/>
   </g>
   <g id="matplotlib.axis_1">
    <g id="xtick_1">
     <g id="line2d_1">
      <defs>
       <path d="M 0 0 
L 0 3.5 
" id="m1609c50013" style="stroke:#000000;stroke-width:0.8;"/>
      </defs>
      <g>
       <use style="stroke:#000000;stroke-width:0.8;" x="138.436364" xlink:href="#m1609c50013" y="460.8"/>
      </g>
     </g>
     <g id="text_1">
      <!-- 2020-01 -->
      <g transform="translate(93.766579 500.766215)rotate(-30)scale(0.12 -0.12)">
       <defs>
        <path d="M 19.1875 8.296875 
L 53.609375 8.296875 
L 53.609375 0 
L 7.328125 0 
L 7.328125 8.296875 
Q 12.9375 14.109375 22.625 23.890625 
Q 32.328125 33.6875 34.8125 36.53125 
Q 39.546875 41.84375 41.421875 45.53125 
Q 43.3125 49.21875 43.3125 52.78125 
Q 43.3125 58.59375 39.234375 62.25 
Q 35.15625 65.921875 28.609375 65.921875 
Q 23.96875 65.921875 18.8125 64.3125 
Q 13.671875 62.703125 7.8125 59.421875 
L 7.8125 69.390625 
Q 13.765625 71.78125 18.9375 73 
Q 24.125 74.21875 28.421875 74.21875 
Q 39.75 74.21875 46.484375 68.546875 
Q 53.21875 62.890625 53.21875 53.421875 
Q 53.21875 48.921875 51.53125 44.890625 
Q 49.859375 40.875 45.40625 35.40625 
Q 44.1875 33.984375 37.640625 27.21875 
Q 31.109375 20.453125 19.1875 8.296875 
z
" id="DejaVuSans-50"/>
        <path d="M 31.78125 66.40625 
Q 24.171875 66.40625 20.328125 58.90625 
Q 16.5 51.421875 16.5 36.375 
Q 16.5 21.390625 20.328125 13.890625 
Q 24.171875 6.390625 31.78125 6.390625 
Q 39.453125 6.390625 43.28125 13.890625 
Q 47.125 21.390625 47.125 36.375 
Q 47.125 51.421875 43.28125 58.90625 
Q 39.453125 66.40625 31.78125 66.40625 
z
M 31.78125 74.21875 
Q 44.046875 74.21875 50.515625 64.515625 
Q 56.984375 54.828125 56.984375 36.375 
Q 56.984375 17.96875 50.515625 8.265625 
Q 44.046875 -1.421875 31.78125 -1.421875 
Q 19.53125 -1.421875 13.0625 8.265625 
Q 6.59375 17.96875 6.59375 36.375 
Q 6.59375 54.828125 13.0625 64.515625 
Q 19.53125 74.21875 31.78125 74.21875 
z
" id="DejaVuSans-48"/>
        <path d="M 4.890625 31.390625 
L 31.203125 31.390625 
L 31.203125 23.390625 
L 4.890625 23.390625 
z
" id="DejaVuSans-45"/>
        <path d="M 12.40625 8.296875 
L 28.515625 8.296875 
L 28.515625 63.921875 
L 10.984375 60.40625 
L 10.984375 69.390625 
L 28.421875 72.90625 
L 38.28125 72.90625 
L 38.28125 8.296875 
L 54.390625 8.296875 
L 54.390625 0 
L 12.40625 0 
z
" id="DejaVuSans-49"/>
       </defs>
       <use xlink:href="#DejaVuSans-50"/>
       <use x="63.623047" xlink:href="#DejaVuSans-48"/>
       <use x="127.246094" xlink:href="#DejaVuSans-50"/>
       <use x="190.869141" xlink:href="#DejaVuSans-48"/>
       <use x="254.492188" xlink:href="#DejaVuSans-45"/>
       <use x="290.576172" xlink:href="#DejaVuSans-48"/>
       <use x="354.199219" xlink:href="#DejaVuSans-49"/>
      </g>
     </g>
    </g>
    <g id="xtick_2">
     <g id="line2d_2">
      <g>
       <use style="stroke:#000000;stroke-width:0.8;" x="214.318804" xlink:href="#m1609c50013" y="460.8"/>
      </g>
     </g>
     <g id="text_2">
      <!-- 2020-04 -->
      <g transform="translate(169.64902 500.766215)rotate(-30)scale(0.12 -0.12)">
       <defs>
        <path d="M 37.796875 64.3125 
L 12.890625 25.390625 
L 37.796875 25.390625 
z
M 35.203125 72.90625 
L 47.609375 72.90625 
L 47.609375 25.390625 
L 58.015625 25.390625 
L 58.015625 17.1875 
L 47.609375 17.1875 
L 47.609375 0 
L 37.796875 0 
L 37.796875 17.1875 
L 4.890625 17.1875 
L 4.890625 26.703125 
z
" id="DejaVuSans-52"/>
       </defs>
       <use xlink:href="#DejaVuSans-50"/>
       <use x="63.623047" xlink:href="#DejaVuSans-48"/>
       <use x="127.246094" xlink:href="#DejaVuSans-50"/>
       <use x="190.869141" xlink:href="#DejaVuSans-48"/>
       <use x="254.492188" xlink:href="#DejaVuSans-45"/>
       <use x="290.576172" xlink:href="#DejaVuSans-48"/>
       <use x="354.199219" xlink:href="#DejaVuSans-52"/>
      </g>
     </g>
    </g>
    <g id="xtick_3">
     <g id="line2d_3">
      <g>
       <use style="stroke:#000000;stroke-width:0.8;" x="290.201245" xlink:href="#m1609c50013" y="460.8"/>
      </g>
     </g>
     <g id="text_3">
      <!-- 2020-07 -->
      <g transform="translate(245.53146 500.766215)rotate(-30)scale(0.12 -0.12)">
       <defs>
        <path d="M 8.203125 72.90625 
L 55.078125 72.90625 
L 55.078125 68.703125 
L 28.609375 0 
L 18.3125 0 
L 43.21875 64.59375 
L 8.203125 64.59375 
z
" id="DejaVuSans-55"/>
       </defs>
       <use xlink:href="#DejaVuSans-50"/>
       <use x="63.623047" xlink:href="#DejaVuSans-48"/>
       <use x="127.246094" xlink:href="#DejaVuSans-50"/>
       <use x="190.869141" xlink:href="#DejaVuSans-48"/>
       <use x="254.492188" xlink:href="#DejaVuSans-45"/>
       <use x="290.576172" xlink:href="#DejaVuSans-48"/>
       <use x="354.199219" xlink:href="#DejaVuSans-55"/>
      </g>
     </g>
    </g>
    <g id="xtick_4">
     <g id="line2d_4">
      <g>
       <use style="stroke:#000000;stroke-width:0.8;" x="366.917559" xlink:href="#m1609c50013" y="460.8"/>
      </g>
     </g>
     <g id="text_4">
      <!-- 2020-10 -->
      <g transform="translate(322.247774 500.766215)rotate(-30)scale(0.12 -0.12)">
       <use xlink:href="#DejaVuSans-50"/>
       <use x="63.623047" xlink:href="#DejaVuSans-48"/>
       <use x="127.246094" xlink:href="#DejaVuSans-50"/>
       <use x="190.869141" xlink:href="#DejaVuSans-48"/>
       <use x="254.492188" xlink:href="#DejaVuSans-45"/>
       <use x="290.576172" xlink:href="#DejaVuSans-49"/>
       <use x="354.199219" xlink:href="#DejaVuSans-48"/>
      </g>
     </g>
    </g>
    <g id="xtick_5">
     <g id="line2d_5">
      <g>
       <use style="stroke:#000000;stroke-width:0.8;" x="443.633873" xlink:href="#m1609c50013" y="460.8"/>
      </g>
     </g>
     <g id="text_5">
      <!-- 2021-01 -->
      <g transform="translate(398.964088 500.766215)rotate(-30)scale(0.12 -0.12)">
       <use xlink:href="#DejaVuSans-50"/>
       <use x="63.623047" xlink:href="#DejaVuSans-48"/>
       <use x="127.246094" xlink:href="#DejaVuSans-50"/>
       <use x="190.869141" xlink:href="#DejaVuSans-49"/>
       <use x="254.492188" xlink:href="#DejaVuSans-45"/>
       <use x="290.576172" xlink:href="#DejaVuSans-48"/>
       <use x="354.199219" xlink:href="#DejaVuSans-49"/>
      </g>
     </g>
    </g>
    <g id="xtick_6">
     <g id="line2d_6">
      <g>
       <use style="stroke:#000000;stroke-width:0.8;" x="518.682441" xlink:href="#m1609c50013" y="460.8"/>
      </g>
     </g>
     <g id="text_6">
      <!-- 2021-04 -->
      <g transform="translate(474.012656 500.766215)rotate(-30)scale(0.12 -0.12)">
       <use xlink:href="#DejaVuSans-50"/>
       <use x="63.623047" xlink:href="#DejaVuSans-48"/>
       <use x="127.246094" xlink:href="#DejaVuSans-50"/>
       <use x="190.869141" xlink:href="#DejaVuSans-49"/>
       <use x="254.492188" xlink:href="#DejaVuSans-45"/>
       <use x="290.576172" xlink:href="#DejaVuSans-48"/>
       <use x="354.199219" xlink:href="#DejaVuSans-52"/>
      </g>
     </g>
    </g>
    <g id="xtick_7">
     <g id="line2d_7">
      <g>
       <use style="stroke:#000000;stroke-width:0.8;" x="594.564882" xlink:href="#m1609c50013" y="460.8"/>
      </g>
     </g>
     <g id="text_7">
      <!-- 2021-07 -->
      <g transform="translate(549.895097 500.766215)rotate(-30)scale(0.12 -0.12)">
       <use xlink:href="#DejaVuSans-50"/>
       <use x="63.623047" xlink:href="#DejaVuSans-48"/>
       <use x="127.246094" xlink:href="#DejaVuSans-50"/>
       <use x="190.869141" xlink:href="#DejaVuSans-49"/>
       <use x="254.492188" xlink:href="#DejaVuSans-45"/>
       <use x="290.576172" xlink:href="#DejaVuSans-48"/>
       <use x="354.199219" xlink:href="#DejaVuSans-55"/>
      </g>
     </g>
    </g>
    <g id="xtick_8">
     <g id="line2d_8">
      <g>
       <use style="stroke:#000000;stroke-width:0.8;" x="671.281196" xlink:href="#m1609c50013" y="460.8"/>
      </g>
     </g>
     <g id="text_8">
      <!-- 2021-10 -->
      <g transform="translate(626.611411 500.766215)rotate(-30)scale(0.12 -0.12)">
       <use xlink:href="#DejaVuSans-50"/>
       <use x="63.623047" xlink:href="#DejaVuSans-48"/>
       <use x="127.246094" xlink:href="#DejaVuSans-50"/>
       <use x="190.869141" xlink:href="#DejaVuSans-49"/>
       <use x="254.492188" xlink:href="#DejaVuSans-45"/>
       <use x="290.576172" xlink:href="#DejaVuSans-49"/>
       <use x="354.199219" xlink:href="#DejaVuSans-48"/>
      </g>
     </g>
    </g>
    <g id="xtick_9">
     <g id="line2d_9">
      <g>
       <use style="stroke:#000000;stroke-width:0.8;" x="747.997509" xlink:href="#m1609c50013" y="460.8"/>
      </g>
     </g>
     <g id="text_9">
      <!-- 2022-01 -->
      <g transform="translate(703.327724 500.766215)rotate(-30)scale(0.12 -0.12)">
       <use xlink:href="#DejaVuSans-50"/>
       <use x="63.623047" xlink:href="#DejaVuSans-48"/>
       <use x="127.246094" xlink:href="#DejaVuSans-50"/>
       <use x="190.869141" xlink:href="#DejaVuSans-50"/>
       <use x="254.492188" xlink:href="#DejaVuSans-45"/>
       <use x="290.576172" xlink:href="#DejaVuSans-48"/>
       <use x="354.199219" xlink:href="#DejaVuSans-49"/>
      </g>
     </g>
    </g>
    <g id="text_10">
     <!-- Date -->
     <g transform="translate(424.873828 518.325146)scale(0.15 -0.15)">
      <defs>
       <path d="M 19.671875 64.796875 
L 19.671875 8.109375 
L 31.59375 8.109375 
Q 46.6875 8.109375 53.6875 14.9375 
Q 60.6875 21.78125 60.6875 36.53125 
Q 60.6875 51.171875 53.6875 57.984375 
Q 46.6875 64.796875 31.59375 64.796875 
z
M 9.8125 72.90625 
L 30.078125 72.90625 
Q 51.265625 72.90625 61.171875 64.09375 
Q 71.09375 55.28125 71.09375 36.53125 
Q 71.09375 17.671875 61.125 8.828125 
Q 51.171875 0 30.078125 0 
L 9.8125 0 
z
" id="DejaVuSans-68"/>
       <path d="M 34.28125 27.484375 
Q 23.390625 27.484375 19.1875 25 
Q 14.984375 22.515625 14.984375 16.5 
Q 14.984375 11.71875 18.140625 8.90625 
Q 21.296875 6.109375 26.703125 6.109375 
Q 34.1875 6.109375 38.703125 11.40625 
Q 43.21875 16.703125 43.21875 25.484375 
L 43.21875 27.484375 
z
M 52.203125 31.203125 
L 52.203125 0 
L 43.21875 0 
L 43.21875 8.296875 
Q 40.140625 3.328125 35.546875 0.953125 
Q 30.953125 -1.421875 24.3125 -1.421875 
Q 15.921875 -1.421875 10.953125 3.296875 
Q 6 8.015625 6 15.921875 
Q 6 25.140625 12.171875 29.828125 
Q 18.359375 34.515625 30.609375 34.515625 
L 43.21875 34.515625 
L 43.21875 35.40625 
Q 43.21875 41.609375 39.140625 45 
Q 35.0625 48.390625 27.6875 48.390625 
Q 23 48.390625 18.546875 47.265625 
Q 14.109375 46.140625 10.015625 43.890625 
L 10.015625 52.203125 
Q 14.9375 54.109375 19.578125 55.046875 
Q 24.21875 56 28.609375 56 
Q 40.484375 56 46.34375 49.84375 
Q 52.203125 43.703125 52.203125 31.203125 
z
" id="DejaVuSans-97"/>
       <path d="M 18.3125 70.21875 
L 18.3125 54.6875 
L 36.8125 54.6875 
L 36.8125 47.703125 
L 18.3125 47.703125 
L 18.3125 18.015625 
Q 18.3125 11.328125 20.140625 9.421875 
Q 21.96875 7.515625 27.59375 7.515625 
L 36.8125 7.515625 
L 36.8125 0 
L 27.59375 0 
Q 17.1875 0 13.234375 3.875 
Q 9.28125 7.765625 9.28125 18.015625 
L 9.28125 47.703125 
L 2.6875 47.703125 
L 2.6875 54.6875 
L 9.28125 54.6875 
L 9.28125 70.21875 
z
" id="DejaVuSans-116"/>
       <path d="M 56.203125 29.59375 
L 56.203125 25.203125 
L 14.890625 25.203125 
Q 15.484375 15.921875 20.484375 11.0625 
Q 25.484375 6.203125 34.421875 6.203125 
Q 39.59375 6.203125 44.453125 7.46875 
Q 49.3125 8.734375 54.109375 11.28125 
L 54.109375 2.78125 
Q 49.265625 0.734375 44.1875 -0.34375 
Q 39.109375 -1.421875 33.890625 -1.421875 
Q 20.796875 -1.421875 13.15625 6.1875 
Q 5.515625 13.8125 5.515625 26.8125 
Q 5.515625 40.234375 12.765625 48.109375 
Q 20.015625 56 32.328125 56 
Q 43.359375 56 49.78125 48.890625 
Q 56.203125 41.796875 56.203125 29.59375 
z
M 47.21875 32.234375 
Q 47.125 39.59375 43.09375 43.984375 
Q 39.0625 48.390625 32.421875 48.390625 
Q 24.90625 48.390625 20.390625 44.140625 
Q 15.875 39.890625 15.1875 32.171875 
z
" id="DejaVuSans-101"/>
      </defs>
      <use xlink:href="#DejaVuSans-68"/>
      <use x="77.001953" xlink:href="#DejaVuSans-97"/>
      <use x="138.28125" xlink:href="#DejaVuSans-116"/>
      <use x="177.490234" xlink:href="#DejaVuSans-101"/>
     </g>
    </g>
   </g>
   <g id="matplotlib.axis_2">
    <g id="ytick_1">
     <g id="line2d_10">
      <defs>
       <path d="M 0 0 
L -3.5 0 
" id="m54f48731e9" style="stroke:#000000;stroke-width:0.8;"/>
      </defs>
      <g>
       <use style="stroke:#000000;stroke-width:0.8;" x="108" xlink:href="#m54f48731e9" y="453.394717"/>
      </g>
     </g>
     <g id="text_11">
      <!-- 0 -->
      <g transform="translate(93.365 457.95378)scale(0.12 -0.12)">
       <use xlink:href="#DejaVuSans-48"/>
      </g>
     </g>
    </g>
    <g id="ytick_2">
     <g id="line2d_11">
      <g>
       <use style="stroke:#000000;stroke-width:0.8;" x="108" xlink:href="#m54f48731e9" y="397.771446"/>
      </g>
     </g>
     <g id="text_12">
      <!-- 20 -->
      <g transform="translate(85.73 402.330508)scale(0.12 -0.12)">
       <use xlink:href="#DejaVuSans-50"/>
       <use x="63.623047" xlink:href="#DejaVuSans-48"/>
      </g>
     </g>
    </g>
    <g id="ytick_3">
     <g id="line2d_12">
      <g>
       <use style="stroke:#000000;stroke-width:0.8;" x="108" xlink:href="#m54f48731e9" y="342.148174"/>
      </g>
     </g>
     <g id="text_13">
      <!-- 40 -->
      <g transform="translate(85.73 346.707237)scale(0.12 -0.12)">
       <use xlink:href="#DejaVuSans-52"/>
       <use x="63.623047" xlink:href="#DejaVuSans-48"/>
      </g>
     </g>
    </g>
    <g id="ytick_4">
     <g id="line2d_13">
      <g>
       <use style="stroke:#000000;stroke-width:0.8;" x="108" xlink:href="#m54f48731e9" y="286.524903"/>
      </g>
     </g>
     <g id="text_14">
      <!-- 60 -->
      <g transform="translate(85.73 291.083965)scale(0.12 -0.12)">
       <defs>
        <path d="M 33.015625 40.375 
Q 26.375 40.375 22.484375 35.828125 
Q 18.609375 31.296875 18.609375 23.390625 
Q 18.609375 15.53125 22.484375 10.953125 
Q 26.375 6.390625 33.015625 6.390625 
Q 39.65625 6.390625 43.53125 10.953125 
Q 47.40625 15.53125 47.40625 23.390625 
Q 47.40625 31.296875 43.53125 35.828125 
Q 39.65625 40.375 33.015625 40.375 
z
M 52.59375 71.296875 
L 52.59375 62.3125 
Q 48.875 64.0625 45.09375 64.984375 
Q 41.3125 65.921875 37.59375 65.921875 
Q 27.828125 65.921875 22.671875 59.328125 
Q 17.53125 52.734375 16.796875 39.40625 
Q 19.671875 43.65625 24.015625 45.921875 
Q 28.375 48.1875 33.59375 48.1875 
Q 44.578125 48.1875 50.953125 41.515625 
Q 57.328125 34.859375 57.328125 23.390625 
Q 57.328125 12.15625 50.6875 5.359375 
Q 44.046875 -1.421875 33.015625 -1.421875 
Q 20.359375 -1.421875 13.671875 8.265625 
Q 6.984375 17.96875 6.984375 36.375 
Q 6.984375 53.65625 15.1875 63.9375 
Q 23.390625 74.21875 37.203125 74.21875 
Q 40.921875 74.21875 44.703125 73.484375 
Q 48.484375 72.75 52.59375 71.296875 
z
" id="DejaVuSans-54"/>
       </defs>
       <use xlink:href="#DejaVuSans-54"/>
       <use x="63.623047" xlink:href="#DejaVuSans-48"/>
      </g>
     </g>
    </g>
    <g id="ytick_5">
     <g id="line2d_14">
      <g>
       <use style="stroke:#000000;stroke-width:0.8;" x="108" xlink:href="#m54f48731e9" y="230.901631"/>
      </g>
     </g>
     <g id="text_15">
      <!-- 80 -->
      <g transform="translate(85.73 235.460694)scale(0.12 -0.12)">
       <defs>
        <path d="M 31.78125 34.625 
Q 24.75 34.625 20.71875 30.859375 
Q 16.703125 27.09375 16.703125 20.515625 
Q 16.703125 13.921875 20.71875 10.15625 
Q 24.75 6.390625 31.78125 6.390625 
Q 38.8125 6.390625 42.859375 10.171875 
Q 46.921875 13.96875 46.921875 20.515625 
Q 46.921875 27.09375 42.890625 30.859375 
Q 38.875 34.625 31.78125 34.625 
z
M 21.921875 38.8125 
Q 15.578125 40.375 12.03125 44.71875 
Q 8.5 49.078125 8.5 55.328125 
Q 8.5 64.0625 14.71875 69.140625 
Q 20.953125 74.21875 31.78125 74.21875 
Q 42.671875 74.21875 48.875 69.140625 
Q 55.078125 64.0625 55.078125 55.328125 
Q 55.078125 49.078125 51.53125 44.71875 
Q 48 40.375 41.703125 38.8125 
Q 48.828125 37.15625 52.796875 32.3125 
Q 56.78125 27.484375 56.78125 20.515625 
Q 56.78125 9.90625 50.3125 4.234375 
Q 43.84375 -1.421875 31.78125 -1.421875 
Q 19.734375 -1.421875 13.25 4.234375 
Q 6.78125 9.90625 6.78125 20.515625 
Q 6.78125 27.484375 10.78125 32.3125 
Q 14.796875 37.15625 21.921875 38.8125 
z
M 18.3125 54.390625 
Q 18.3125 48.734375 21.84375 45.5625 
Q 25.390625 42.390625 31.78125 42.390625 
Q 38.140625 42.390625 41.71875 45.5625 
Q 45.3125 48.734375 45.3125 54.390625 
Q 45.3125 60.0625 41.71875 63.234375 
Q 38.140625 66.40625 31.78125 66.40625 
Q 25.390625 66.40625 21.84375 63.234375 
Q 18.3125 60.0625 18.3125 54.390625 
z
" id="DejaVuSans-56"/>
       </defs>
       <use xlink:href="#DejaVuSans-56"/>
       <use x="63.623047" xlink:href="#DejaVuSans-48"/>
      </g>
     </g>
    </g>
    <g id="ytick_6">
     <g id="line2d_15">
      <g>
       <use style="stroke:#000000;stroke-width:0.8;" x="108" xlink:href="#m54f48731e9" y="175.27836"/>
      </g>
     </g>
     <g id="text_16">
      <!-- 100 -->
      <g transform="translate(78.095 179.837423)scale(0.12 -0.12)">
       <use xlink:href="#DejaVuSans-49"/>
       <use x="63.623047" xlink:href="#DejaVuSans-48"/>
       <use x="127.246094" xlink:href="#DejaVuSans-48"/>
      </g>
     </g>
    </g>
    <g id="ytick_7">
     <g id="line2d_16">
      <g>
       <use style="stroke:#000000;stroke-width:0.8;" x="108" xlink:href="#m54f48731e9" y="119.655089"/>
      </g>
     </g>
     <g id="text_17">
      <!-- 120 -->
      <g transform="translate(78.095 124.214151)scale(0.12 -0.12)">
       <use xlink:href="#DejaVuSans-49"/>
       <use x="63.623047" xlink:href="#DejaVuSans-50"/>
       <use x="127.246094" xlink:href="#DejaVuSans-48"/>
      </g>
     </g>
    </g>
    <g id="text_18">
     <!-- NO2(ppm) -->
     <g transform="translate(70.975469 303.927188)rotate(-90)scale(0.15 -0.15)">
      <defs>
       <path d="M 9.8125 72.90625 
L 23.09375 72.90625 
L 55.421875 11.921875 
L 55.421875 72.90625 
L 64.984375 72.90625 
L 64.984375 0 
L 51.703125 0 
L 19.390625 60.984375 
L 19.390625 0 
L 9.8125 0 
z
" id="DejaVuSans-78"/>
       <path d="M 39.40625 66.21875 
Q 28.65625 66.21875 22.328125 58.203125 
Q 16.015625 50.203125 16.015625 36.375 
Q 16.015625 22.609375 22.328125 14.59375 
Q 28.65625 6.59375 39.40625 6.59375 
Q 50.140625 6.59375 56.421875 14.59375 
Q 62.703125 22.609375 62.703125 36.375 
Q 62.703125 50.203125 56.421875 58.203125 
Q 50.140625 66.21875 39.40625 66.21875 
z
M 39.40625 74.21875 
Q 54.734375 74.21875 63.90625 63.9375 
Q 73.09375 53.65625 73.09375 36.375 
Q 73.09375 19.140625 63.90625 8.859375 
Q 54.734375 -1.421875 39.40625 -1.421875 
Q 24.03125 -1.421875 14.8125 8.828125 
Q 5.609375 19.09375 5.609375 36.375 
Q 5.609375 53.65625 14.8125 63.9375 
Q 24.03125 74.21875 39.40625 74.21875 
z
" id="DejaVuSans-79"/>
       <path d="M 31 75.875 
Q 24.46875 64.65625 21.28125 53.65625 
Q 18.109375 42.671875 18.109375 31.390625 
Q 18.109375 20.125 21.3125 9.0625 
Q 24.515625 -2 31 -13.1875 
L 23.1875 -13.1875 
Q 15.875 -1.703125 12.234375 9.375 
Q 8.59375 20.453125 8.59375 31.390625 
Q 8.59375 42.28125 12.203125 53.3125 
Q 15.828125 64.359375 23.1875 75.875 
z
" id="DejaVuSans-40"/>
       <path d="M 18.109375 8.203125 
L 18.109375 -20.796875 
L 9.078125 -20.796875 
L 9.078125 54.6875 
L 18.109375 54.6875 
L 18.109375 46.390625 
Q 20.953125 51.265625 25.265625 53.625 
Q 29.59375 56 35.59375 56 
Q 45.5625 56 51.78125 48.09375 
Q 58.015625 40.1875 58.015625 27.296875 
Q 58.015625 14.40625 51.78125 6.484375 
Q 45.5625 -1.421875 35.59375 -1.421875 
Q 29.59375 -1.421875 25.265625 0.953125 
Q 20.953125 3.328125 18.109375 8.203125 
z
M 48.6875 27.296875 
Q 48.6875 37.203125 44.609375 42.84375 
Q 40.53125 48.484375 33.40625 48.484375 
Q 26.265625 48.484375 22.1875 42.84375 
Q 18.109375 37.203125 18.109375 27.296875 
Q 18.109375 17.390625 22.1875 11.75 
Q 26.265625 6.109375 33.40625 6.109375 
Q 40.53125 6.109375 44.609375 11.75 
Q 48.6875 17.390625 48.6875 27.296875 
z
" id="DejaVuSans-112"/>
       <path d="M 52 44.1875 
Q 55.375 50.25 60.0625 53.125 
Q 64.75 56 71.09375 56 
Q 79.640625 56 84.28125 50.015625 
Q 88.921875 44.046875 88.921875 33.015625 
L 88.921875 0 
L 79.890625 0 
L 79.890625 32.71875 
Q 79.890625 40.578125 77.09375 44.375 
Q 74.3125 48.1875 68.609375 48.1875 
Q 61.625 48.1875 57.5625 43.546875 
Q 53.515625 38.921875 53.515625 30.90625 
L 53.515625 0 
L 44.484375 0 
L 44.484375 32.71875 
Q 44.484375 40.625 41.703125 44.40625 
Q 38.921875 48.1875 33.109375 48.1875 
Q 26.21875 48.1875 22.15625 43.53125 
Q 18.109375 38.875 18.109375 30.90625 
L 18.109375 0 
L 9.078125 0 
L 9.078125 54.6875 
L 18.109375 54.6875 
L 18.109375 46.1875 
Q 21.1875 51.21875 25.484375 53.609375 
Q 29.78125 56 35.6875 56 
Q 41.65625 56 45.828125 52.96875 
Q 50 49.953125 52 44.1875 
z
" id="DejaVuSans-109"/>
       <path d="M 8.015625 75.875 
L 15.828125 75.875 
Q 23.140625 64.359375 26.78125 53.3125 
Q 30.421875 42.28125 30.421875 31.390625 
Q 30.421875 20.453125 26.78125 9.375 
Q 23.140625 -1.703125 15.828125 -13.1875 
L 8.015625 -13.1875 
Q 14.5 -2 17.703125 9.0625 
Q 20.90625 20.125 20.90625 31.390625 
Q 20.90625 42.671875 17.703125 53.65625 
Q 14.5 64.65625 8.015625 75.875 
z
" id="DejaVuSans-41"/>
      </defs>
      <use xlink:href="#DejaVuSans-78"/>
      <use x="74.804688" xlink:href="#DejaVuSans-79"/>
      <use x="153.515625" xlink:href="#DejaVuSans-50"/>
      <use x="217.138672" xlink:href="#DejaVuSans-40"/>
      <use x="256.152344" xlink:href="#DejaVuSans-112"/>
      <use x="319.628906" xlink:href="#DejaVuSans-112"/>
      <use x="383.105469" xlink:href="#DejaVuSans-109"/>
      <use x="480.517578" xlink:href="#DejaVuSans-41"/>
     </g>
    </g>
   </g>
   <g id="line2d_17">
    <path clip-path="url(#pd4d8c6bb7d)" d="M 138.436364 310.072598 
L 139.270237 264.769065 
L 140.10411 240.558527 
L 140.937983 228.811633 
L 141.771856 295.11448 
L 142.605729 304.37088 
L 143.439601 253.932818 
L 144.273474 226.942413 
L 145.107347 280.337185 
L 145.94122 261.326912 
L 146.775093 246.473366 
L 147.608966 251.105023 
L 148.442839 230.652532 
L 150.110585 289.787857 
L 150.944458 280.226172 
L 151.778331 277.642284 
L 152.612204 250.782594 
L 153.446077 285.764023 
L 154.27995 265.241817 
L 155.113823 267.56636 
L 155.947696 251.205238 
L 156.781569 277.661891 
L 157.615442 286.367489 
L 158.449315 322.329278 
L 159.283188 347.897071 
L 160.117061 316.610511 
L 160.950934 307.216482 
L 161.784807 293.504511 
L 162.61868 298.661205 
L 163.452553 272.243767 
L 164.286426 300.044602 
L 165.120299 302.353895 
L 165.954172 259.523049 
L 166.788045 318.301087 
L 167.621918 340.94305 
L 168.455791 357.532922 
L 169.289664 318.139872 
L 170.123537 344.200024 
L 170.95741 346.210852 
L 171.791283 343.949488 
L 172.625156 297.774524 
L 173.459029 306.828695 
L 174.292902 302.689396 
L 175.126775 331.797379 
L 175.960648 345.827422 
L 176.794521 365.21241 
L 177.628394 313.220643 
L 178.462267 310.721814 
L 179.296139 286.539597 
L 180.130012 270.832048 
L 180.963885 279.80779 
L 181.797758 247.649798 
L 182.631631 337.261253 
L 183.465504 329.252799 
L 184.299377 293.896655 
L 185.13325 304.981261 
L 185.967123 335.51839 
L 186.800996 293.678797 
L 187.634869 271.821123 
L 188.468742 277.186961 
L 189.302615 322.324921 
L 190.136488 338.651186 
L 190.970361 305.125047 
L 191.804234 324.849893 
L 192.638107 330.004409 
L 193.47198 304.73726 
L 194.305853 326.496898 
L 195.139726 323.250817 
L 195.973599 262.409665 
L 196.807472 304.946403 
L 197.641345 283.690016 
L 198.475218 275.92509 
L 199.309091 260.507577 
L 200.142964 289.578713 
L 200.976837 327.311686 
L 201.81071 271.150121 
L 202.644583 244.233788 
L 203.478456 236.730765 
L 204.312329 275.07374 
L 205.146202 280.247863 
L 205.980075 296.319234 
L 206.813948 291.785613 
L 207.647821 351.30517 
L 208.481694 315.076792 
L 209.315567 295.537124 
L 210.14944 313.203214 
L 210.983313 291.156004 
L 211.817186 352.304335 
L 212.651059 325.568824 
L 213.484932 317.754264 
L 214.318804 318.993875 
L 215.152677 310.146669 
L 215.98655 315.03322 
L 216.820423 291.624398 
L 217.654296 314.839327 
L 219.322042 278.929823 
L 220.155915 226.639591 
L 220.989788 236.50855 
L 221.823661 290.79436 
L 222.657534 262.518594 
L 223.491407 272.579268 
L 224.32528 213.321943 
L 225.159153 205.943099 
L 225.993026 184.884963 
L 227.660772 299.003242 
L 228.494645 275.840599 
L 229.328518 324.120069 
L 230.162391 334.816888 
L 230.996264 349.413361 
L 231.830137 332.143773 
L 232.66401 296.41727 
L 233.497883 283.463444 
L 234.331756 241.283993 
L 235.165629 163.245146 
L 235.999502 158.613489 
L 236.833375 254.015604 
L 238.501121 282.389405 
L 239.334994 318.860982 
L 240.168867 318.305444 
L 241.00274 331.389985 
L 241.836613 350.101792 
L 242.670486 364.872552 
L 243.504359 373.621722 
L 244.338232 379.000631 
L 245.172105 383.065858 
L 246.005978 378.170593 
L 246.839851 352.838086 
L 247.673724 292.711508 
L 248.507597 190.0678 
L 250.175342 338.252506 
L 251.009215 344.888455 
L 251.843088 344.387761 
L 252.676961 343.655379 
L 253.510834 263.607883 
L 254.344707 294.140656 
L 255.17858 349.75322 
L 256.012453 336.707894 
L 256.846326 289.589606 
L 258.514072 331.285413 
L 259.347945 315.475471 
L 260.181818 321.688776 
L 261.015691 239.704524 
L 261.849564 300.007567 
L 262.683437 336.435572 
L 263.51731 330.980412 
L 264.351183 385.534781 
L 265.185056 384.447076 
L 266.018929 350.326186 
L 266.852802 359.763786 
L 267.686675 361.334541 
L 268.520548 363.994585 
L 269.354421 340.699049 
L 270.188294 350.698723 
L 271.022167 368.817957 
L 271.85604 376.451695 
L 272.689913 380.895994 
L 273.523786 351.111096 
L 274.357659 331.400878 
L 275.191532 349.714005 
L 276.025405 372.850505 
L 276.859278 360.972897 
L 277.693151 364.035883 
L 278.527024 352.093013 
L 279.360897 358.709354 
L 280.19477 357.748601 
L 281.028643 366.835451 
L 281.862516 382.492892 
L 282.696389 371.682787 
L 283.530262 365.236374 
L 284.364134 366.824558 
L 285.198007 383.285894 
L 286.03188 387.969837 
L 286.865753 366.91388 
L 287.699626 364.850766 
L 288.533499 361.605618 
L 289.367372 352.461192 
L 290.201245 367.323452 
L 291.035118 359.092784 
L 291.868991 356.870634 
L 292.702864 374.453939 
L 293.536737 368.003169 
L 294.37061 360.439145 
L 295.204483 369.97696 
L 296.038356 377.161911 
L 296.872229 374.562867 
L 297.706102 383.641002 
L 298.539975 374.462653 
L 299.373848 377.815485 
L 301.041594 338.073862 
L 301.875467 341.66198 
L 302.70934 372.763362 
L 303.543213 378.460344 
L 304.377086 381.919926 
L 305.210959 377.031196 
L 306.044832 365.643106 
L 306.878705 343.361271 
L 307.712578 353.210623 
L 308.546451 353.339159 
L 309.380324 346.16728 
L 310.214197 357.125528 
L 311.04807 373.460507 
L 311.881943 376.724017 
L 312.715816 372.678397 
L 313.549689 360.972897 
L 314.383562 363.19069 
L 315.217435 386.943727 
L 316.051308 399.970436 
L 316.885181 382.882857 
L 317.719054 346.361174 
L 318.552927 354.334769 
L 319.3868 366.71345 
L 320.220672 388.481803 
L 321.054545 393.411925 
L 321.888418 378.54313 
L 322.722291 374.756761 
L 323.556164 360.086216 
L 324.390037 375.9528 
L 325.22391 362.543652 
L 326.057783 361.961972 
L 326.891656 359.705898 
L 327.725529 354.241091 
L 328.559402 377.244697 
L 329.393275 377.689127 
L 330.227148 320.370736 
L 331.061021 379.787098 
L 331.894894 372.497575 
L 332.728767 316.440581 
L 333.56264 313.747859 
L 334.396513 344.256667 
L 335.230386 317.508085 
L 336.064259 322.091813 
L 336.898132 329.176549 
L 337.732005 275.884171 
L 338.565878 240.785099 
L 339.399751 247.876371 
L 340.233624 280.931937 
L 341.067497 292.850937 
L 343.569116 221.890291 
L 344.402989 306.763337 
L 345.236862 317.028798 
L 346.070735 308.190306 
L 346.904608 346.128066 
L 347.738481 344.29806 
L 348.572354 311.66296 
L 349.406227 324.577571 
L 350.2401 351.293474 
L 351.073973 303.105505 
L 351.907846 324.525285 
L 352.741719 340.489905 
L 353.575592 368.915993 
L 354.409465 391.470812 
L 355.243337 378.257736 
L 356.07721 379.052917 
L 356.911083 375.972407 
L 357.744956 356.005739 
L 358.578829 361.338898 
L 359.412702 343.661915 
L 360.246575 338.799329 
L 361.080448 273.411485 
L 361.914321 289.356498 
L 362.748194 338.021576 
L 363.582067 366.181877 
L 364.41594 287.811886 
L 365.249813 334.331065 
L 366.083686 319.688841 
L 366.917559 342.997449 
L 367.751432 344.441846 
L 368.585305 328.311654 
L 369.419178 264.989102 
L 370.253051 325.63636 
L 371.086924 288.997033 
L 371.920797 292.362936 
L 372.75467 288.291173 
L 373.588543 252.372956 
L 374.422416 246.972261 
L 375.256289 262.40313 
L 376.090162 215.890486 
L 376.924035 386.669226 
L 377.757908 345.988637 
L 378.591781 333.821278 
L 379.425654 261.568734 
L 380.259527 294.530621 
L 381.0934 292.696258 
L 381.927273 280.428685 
L 382.761146 274.289452 
L 383.595019 257.089577 
L 384.428892 246.523474 
L 385.262765 225.630909 
L 386.096638 226.084054 
L 386.930511 286.092988 
L 387.764384 287.50035 
L 388.598257 280.496221 
L 389.43213 269.132757 
L 390.266002 291.672327 
L 391.099875 273.631521 
L 391.933748 297.517452 
L 393.601494 232.31043 
L 394.435367 263.483704 
L 395.26924 287.389242 
L 396.103113 293.667904 
L 396.936986 224.09719 
L 397.770859 240.650027 
L 398.604732 234.160043 
L 399.438605 226.234375 
L 400.272478 188.35108 
L 401.106351 226.744163 
L 401.940224 224.044904 
L 402.774097 196.363891 
L 403.60797 250.207449 
L 404.441843 274.468095 
L 405.275716 286.952863 
L 406.109589 329.077092 
L 406.943462 304.911546 
L 407.777335 304.67626 
L 408.611208 303.628363 
L 409.445081 334.444351 
L 410.278954 295.284409 
L 411.112827 311.804567 
L 411.9467 254.921892 
L 412.780573 271.095656 
L 413.614446 224.230084 
L 415.282192 259.976194 
L 416.116065 258.732225 
L 416.949938 267.536731 
L 418.617684 244.84379 
L 419.451557 274.04763 
L 420.28543 260.828018 
L 421.119303 243.06607 
L 421.953176 215.6552 
L 422.787049 174.206444 
L 423.620922 216.474345 
L 424.454795 207.282924 
L 425.288667 193.006702 
L 426.12254 198.341842 
L 426.956413 222.129745 
L 427.790286 267.116655 
L 428.624159 277.581283 
L 429.458032 298.168847 
L 430.291905 291.480612 
L 431.125778 297.002911 
L 432.793524 266.437856 
L 433.627397 248.991803 
L 434.46127 218.206315 
L 436.129016 141.158721 
L 436.962889 245.51697 
L 438.630635 287.6986 
L 439.464508 128.701611 
L 440.298381 221.604897 
L 441.132254 210.648827 
L 441.966127 255.974145 
L 442.8 270.437726 
L 443.633873 277.961847 
L 444.467746 226.48709 
L 445.301619 186.619111 
L 446.135492 168.305983 
L 446.969365 129.6994 
L 447.803238 234.062007 
L 448.637111 249.715091 
L 449.470984 281.690082 
L 450.304857 273.409306 
L 451.13873 249.381768 
L 451.972603 252.564671 
L 452.806476 215.809879 
L 453.640349 155.24105 
L 454.474222 114.097414 
L 455.308095 136.824203 
L 456.141968 166.868121 
L 456.975841 226.086628 
L 457.809714 221.544623 
L 458.643587 250.493833 
L 459.47746 245.443832 
L 460.311333 150.910037 
L 461.145205 201.965015 
L 461.979078 127.342614 
L 462.812951 236.979123 
L 464.480697 167.338694 
L 465.31457 245.434184 
L 466.148443 234.423651 
L 466.982316 266.019569 
L 467.816189 279.881862 
L 468.650062 253.987282 
L 469.483935 250.985202 
L 470.317808 240.697956 
L 471.151681 287.234563 
L 471.985554 251.993883 
L 472.819427 267.585967 
L 473.6533 220.907752 
L 474.487173 274.474631 
L 475.321046 291.489326 
L 476.154919 330.38566 
L 476.988792 338.620685 
L 477.822665 323.152781 
L 478.656538 301.268963 
L 479.490411 314.898148 
L 480.324284 267.851753 
L 481.158157 286.615847 
L 481.99203 295.49791 
L 482.825903 296.929236 
L 483.659776 292.443543 
L 484.493649 287.149599 
L 485.327522 228.892241 
L 486.161395 248.410122 
L 486.995268 264.148171 
L 487.829141 303.334255 
L 488.663014 333.773349 
L 489.496887 324.313963 
L 490.33076 305.913692 
L 491.164633 338.189327 
L 491.998506 325.187573 
L 492.832379 281.485295 
L 493.666252 294.04262 
L 494.500125 322.414243 
L 495.333998 296.942307 
L 497.001743 309.771954 
L 497.835616 317.739014 
L 498.669489 353.280338 
L 499.503362 299.872495 
L 500.337235 324.503499 
L 501.171108 334.137172 
L 502.004981 265.132888 
L 502.838854 315.301185 
L 503.672727 339.474688 
L 504.5066 317.584335 
L 505.340473 303.783043 
L 506.174346 312.708677 
L 507.008219 356.879349 
L 507.842092 341.370051 
L 508.675965 312.055104 
L 509.509838 322.148456 
L 510.343711 269.265651 
L 511.177584 252.6736 
L 512.011457 142.452796 
L 512.84533 272.14791 
L 513.679203 322.026456 
L 514.513076 294.539336 
L 515.346949 304.43008 
L 516.180822 361.077469 
L 517.014695 370.321176 
L 517.848568 369.918139 
L 518.682441 365.360553 
L 519.516314 348.903574 
L 520.350187 343.520308 
L 521.18406 314.131289 
L 522.017933 307.451768 
L 522.851806 304.835296 
L 523.685679 358.020924 
L 524.519552 312.22939 
L 525.353425 318.392587 
L 526.187298 337.827683 
L 527.021171 343.860166 
L 527.855044 319.747663 
L 528.688917 315.787008 
L 529.52279 345.537671 
L 530.356663 361.802935 
L 531.190535 347.456998 
L 532.024408 297.574095 
L 532.858281 332.808239 
L 533.692154 329.723372 
L 534.526027 344.971241 
L 535.3599 329.119906 
L 536.193773 289.010104 
L 537.027646 280.701007 
L 537.861519 348.720574 
L 538.695392 346.674889 
L 539.529265 360.733253 
L 540.363138 342.557376 
L 541.197011 331.906308 
L 542.030884 295.127552 
L 542.864757 238.623949 
L 543.69863 249.606162 
L 544.532503 304.536831 
L 545.366376 346.195602 
L 546.200249 339.370116 
L 547.034122 234.090328 
L 547.867995 330.858412 
L 548.701868 302.750397 
L 549.535741 332.786453 
L 550.369614 354.339127 
L 551.203487 364.663408 
L 552.03736 369.837531 
L 552.871233 378.329629 
L 553.705106 380.782708 
L 554.538979 372.576004 
L 555.372852 369.754745 
L 556.206725 374.34501 
L 557.040598 375.453906 
L 557.874471 378.523522 
L 558.708344 375.240405 
L 559.542217 372.885362 
L 560.37609 385.693223 
L 561.209963 375.684835 
L 562.043836 378.806738 
L 562.877709 359.271428 
L 563.711582 359.005641 
L 564.545455 372.423504 
L 565.379328 368.022776 
L 566.2132 337.999791 
L 567.047073 379.375347 
L 567.880946 381.710782 
L 569.548692 348.406858 
L 570.382565 350.210721 
L 571.216438 374.336295 
L 572.050311 315.852365 
L 572.884184 229.702672 
L 573.718057 265.714568 
L 574.55193 337.405039 
L 575.385803 323.815068 
L 576.219676 350.526615 
L 577.053549 390.984989 
L 577.887422 386.028724 
L 578.721295 389.046055 
L 579.555168 386.92412 
L 580.389041 382.773928 
L 581.222914 364.245121 
L 582.056787 377.371055 
L 582.89066 371.57168 
L 583.724533 367.802739 
L 584.558406 349.036467 
L 585.392279 348.860003 
L 586.226152 340.709942 
L 587.060025 312.429819 
L 587.893898 299.033742 
L 588.727771 328.322547 
L 589.561644 313.116071 
L 591.22939 374.532367 
L 592.063263 358.380389 
L 592.897136 373.360292 
L 593.731009 361.450006 
L 594.564882 359.11457 
L 595.398755 359.98818 
L 596.232628 364.347118 
L 597.066501 363.900906 
L 597.900374 401.054377 
L 598.734247 403.991101 
L 599.56812 384.682363 
L 600.401993 374.748047 
L 601.235866 353.208445 
L 602.069738 379.856812 
L 602.903611 393.139603 
L 603.737484 371.634858 
L 604.571357 356.321633 
L 605.40523 357.282386 
L 606.239103 371.702394 
L 607.072976 329.91073 
L 607.906849 331.675378 
L 608.740722 373.552007 
L 609.574595 381.891604 
L 610.408468 371.064071 
L 611.242341 356.95342 
L 612.076214 345.119384 
L 612.910087 257.427257 
L 613.74396 249.969984 
L 614.577833 277.890641 
L 615.411706 310.784993 
L 616.245579 243.691322 
L 617.079452 285.027663 
L 617.913325 293.837833 
L 618.747198 318.948125 
L 619.581071 320.48838 
L 620.414944 299.750494 
L 621.248817 294.382478 
L 622.08269 338.206756 
L 622.916563 234.282043 
L 623.750436 265.505425 
L 624.584309 268.999864 
L 625.418182 281.918832 
L 626.252055 321.292275 
L 627.085928 349.690041 
L 627.919801 364.939465 
L 628.753674 354.112555 
L 629.587547 349.034289 
L 630.42142 345.104134 
L 631.255293 341.834088 
L 632.089166 359.857465 
L 632.923039 353.021087 
L 633.756912 342.666305 
L 634.590785 337.666468 
L 635.424658 320.303201 
L 636.258531 343.783916 
L 637.092403 355.461094 
L 637.926276 370.266711 
L 638.760149 371.885395 
L 639.594022 371.362536 
L 640.427895 375.578085 
L 641.261768 368.162205 
L 642.929514 339.888618 
L 643.763387 363.168904 
L 644.59726 361.45872 
L 645.431133 319.30759 
L 646.265006 372.584718 
L 647.098879 380.179242 
L 647.932752 360.145037 
L 648.766625 372.170789 
L 649.600498 376.876517 
L 650.434371 334.788566 
L 651.268244 360.036108 
L 652.102117 364.883445 
L 652.93599 304.042293 
L 653.769863 324.185427 
L 654.603736 312.61282 
L 655.437609 278.557286 
L 656.271482 297.434666 
L 657.105355 349.977613 
L 657.939228 314.427575 
L 658.773101 292.752901 
L 659.606974 297.556666 
L 660.440847 336.80593 
L 661.27472 397.355152 
L 662.942466 346.528924 
L 663.776339 381.621461 
L 664.610212 383.730324 
L 665.444085 381.342603 
L 666.277958 358.938105 
L 667.111831 298.850742 
L 667.945704 280.555043 
L 668.779577 249.723805 
L 669.61345 257.06997 
L 670.447323 255.876109 
L 671.281196 284.550555 
L 672.115068 317.993908 
L 672.948941 370.144711 
L 673.782814 350.940545 
L 674.616687 348.34368 
L 675.45056 331.732021 
L 677.118306 394.464179 
L 677.952179 442.996364 
L 678.786052 378.58888 
L 679.619925 295.428195 
L 680.453798 332.960739 
L 681.287671 414.029989 
L 682.121544 359.426107 
L 682.955417 325.915218 
L 683.78929 325.069929 
L 684.623163 342.757805 
L 685.457036 320.118021 
L 686.290909 290.877146 
L 687.124782 334.252636 
L 687.958655 333.11324 
L 688.792528 333.191669 
L 689.626401 325.442466 
L 690.460274 321.446954 
L 691.294147 303.9094 
L 692.12802 246.645474 
L 692.961893 282.077869 
L 693.795766 298.617634 
L 694.629639 308.011663 
L 695.463512 322.623386 
L 696.297385 327.357436 
L 697.131258 306.562908 
L 697.965131 340.326512 
L 698.799004 319.956807 
L 699.632877 336.664322 
L 700.46675 314.248932 
L 701.300623 311.177137 
L 702.134496 329.762587 
L 702.968369 331.790843 
L 703.802242 280.032184 
L 704.636115 301.959573 
L 705.469988 239.32763 
L 706.303861 279.186895 
L 707.137733 295.323624 
L 707.971606 302.179609 
L 708.805479 267.352859 
L 709.639352 227.855238 
L 710.473225 230.282174 
L 711.307098 269.173393 
L 712.140971 261.014523 
L 712.974844 328.395103 
L 713.808717 314.50752 
L 714.64259 316.294333 
L 715.476463 300.435799 
L 717.144209 209.503843 
L 718.811955 226.59905 
L 719.645828 233.623544 
L 720.479701 246.381298 
L 721.313574 237.529072 
L 722.147447 273.806376 
L 722.98132 256.288334 
L 723.815193 244.096632 
L 724.649066 253.044337 
L 725.482939 240.782162 
L 726.316812 226.539945 
L 727.150685 208.652005 
L 727.984558 280.214805 
L 728.818431 253.778612 
L 729.652304 243.460109 
L 730.486177 253.069343 
L 731.32005 260.359813 
L 732.153923 238.095123 
L 732.987796 201.842825 
L 734.655542 282.074364 
L 735.489415 282.972317 
L 736.323288 270.628304 
L 737.157161 276.397937 
L 737.991034 284.637302 
L 738.824907 318.826788 
L 739.65878 270.578291 
L 740.492653 264.113029 
L 741.326526 213.879943 
L 742.160399 284.411315 
L 742.994271 344.405947 
L 743.828144 336.463041 
L 745.49589 259.986992 
L 746.329763 262.778603 
L 747.163636 269.075641 
L 747.163636 269.075641 
" style="fill:none;stroke:#1f77b4;stroke-linecap:square;stroke-width:1.5;"/>
   </g>
   <g id="line2d_18">
    <path clip-path="url(#pd4d8c6bb7d)" d="M 138.436364 279.725334 
L 139.270237 264.110573 
L 140.10411 225.428228 
L 140.937983 217.184788 
L 141.771856 289.40643 
L 142.605729 248.183245 
L 143.439601 264.23397 
L 144.273474 189.268228 
L 145.107347 260.686359 
L 145.94122 209.851773 
L 146.775093 225.765274 
L 147.608966 237.600805 
L 148.442839 176.222945 
L 149.276712 262.541748 
L 150.110585 251.724076 
L 150.944458 288.361729 
L 151.778331 244.769306 
L 152.612204 237.220136 
L 153.446077 224.885675 
L 154.27995 252.517854 
L 155.113823 220.817037 
L 155.947696 236.825377 
L 157.615442 274.815634 
L 158.449315 271.972202 
L 159.283188 295.816281 
L 160.117061 264.333506 
L 160.950934 265.651863 
L 161.784807 251.710187 
L 162.61868 265.365385 
L 163.452553 253.19976 
L 164.286426 274.176776 
L 165.120299 273.845429 
L 165.954172 236.66129 
L 167.621918 284.322085 
L 168.455791 319.150004 
L 169.289664 262.331788 
L 170.123537 323.666807 
L 170.95741 311.291742 
L 171.791283 295.100171 
L 172.625156 259.97991 
L 173.459029 262.248966 
L 174.292902 256.301738 
L 175.126775 290.877799 
L 175.960648 307.080702 
L 176.794521 311.617536 
L 177.628394 291.003251 
L 178.462267 293.062831 
L 179.296139 240.936424 
L 180.130012 249.36538 
L 180.963885 286.558431 
L 181.797758 219.043413 
L 182.631631 319.751999 
L 183.465504 277.765464 
L 184.299377 279.133078 
L 185.13325 301.395267 
L 185.967123 289.0322 
L 186.800996 289.779944 
L 187.634869 250.967367 
L 188.468742 260.453494 
L 189.302615 272.770966 
L 190.136488 299.222544 
L 190.970361 251.432462 
L 191.804234 299.96637 
L 192.638107 283.801005 
L 193.47198 263.360965 
L 194.305853 276.648518 
L 195.139726 307.339945 
L 195.973599 270.120421 
L 196.807472 219.386131 
L 197.641345 264.966174 
L 198.475218 257.162841 
L 199.309091 269.894782 
L 200.142964 248.733872 
L 200.976837 300.723339 
L 201.81071 238.098574 
L 202.644583 218.718743 
L 203.478456 204.10113 
L 205.146202 264.305747 
L 205.980075 275.256308 
L 206.813948 280.990574 
L 207.647821 317.686258 
L 208.481694 283.476 
L 209.315567 265.746494 
L 210.14944 277.051165 
L 210.983313 269.918513 
L 211.817186 305.942814 
L 212.651059 272.769617 
L 213.484932 275.703837 
L 214.318804 284.210744 
L 215.152677 254.949063 
L 215.98655 307.432096 
L 216.820423 265.306151 
L 217.654296 273.773565 
L 218.488169 252.601462 
L 219.322042 262.659166 
L 220.155915 182.670214 
L 220.989788 233.770113 
L 222.657534 302.081657 
L 224.32528 203.739296 
L 225.159153 138.851892 
L 225.993026 218.404647 
L 226.826899 227.545567 
L 227.660772 273.348163 
L 228.494645 242.676107 
L 229.328518 306.342542 
L 230.996264 346.173351 
L 231.830137 305.956273 
L 232.66401 287.34154 
L 234.331756 228.533534 
L 235.165629 174.690065 
L 235.999502 165.33023 
L 236.833375 193.007209 
L 237.667248 306.054325 
L 238.501121 248.682347 
L 240.168867 312.775799 
L 241.00274 325.480761 
L 241.836613 333.460916 
L 242.670486 357.382559 
L 243.504359 338.141175 
L 244.338232 365.661687 
L 245.172105 338.414766 
L 246.005978 351.775774 
L 246.839851 351.197627 
L 247.673724 274.888875 
L 248.507597 247.423118 
L 249.341469 172.581322 
L 250.175342 344.221315 
L 251.009215 290.049723 
L 251.843088 311.020209 
L 252.676961 296.738391 
L 253.510834 256.804742 
L 254.344707 240.56693 
L 256.012453 315.186274 
L 257.680199 266.983833 
L 258.514072 272.837718 
L 259.347945 288.508919 
L 260.181818 324.832604 
L 261.015691 237.200831 
L 261.849564 232.924227 
L 262.683437 311.490051 
L 263.51731 280.04125 
L 264.351183 353.736084 
L 265.185056 341.944818 
L 266.018929 342.282863 
L 266.852802 314.961576 
L 267.686675 344.612444 
L 268.520548 338.479775 
L 269.354421 296.792637 
L 270.188294 310.224174 
L 271.022167 331.759779 
L 271.85604 334.14967 
L 272.689913 367.987451 
L 273.523786 355.967441 
L 274.357659 335.860837 
L 275.191532 334.318269 
L 276.025405 351.330595 
L 276.859278 333.042284 
L 277.693151 344.697213 
L 278.527024 350.578831 
L 279.360897 353.099856 
L 280.19477 350.652525 
L 281.028643 359.216636 
L 281.862516 371.681536 
L 282.696389 367.112551 
L 283.530262 353.145164 
L 284.364134 322.916691 
L 285.198007 361.875468 
L 286.03188 362.621436 
L 286.865753 356.929205 
L 287.699626 357.288558 
L 288.533499 341.630111 
L 289.367372 328.160409 
L 290.201245 333.945311 
L 291.035118 341.942602 
L 291.868991 333.115216 
L 292.702864 362.187463 
L 293.536737 355.673333 
L 294.37061 351.853568 
L 295.204483 351.889227 
L 296.038356 347.983617 
L 296.872229 352.951774 
L 297.706102 354.063746 
L 298.539975 370.189703 
L 299.373848 361.06874 
L 300.207721 349.137524 
L 301.041594 329.452001 
L 301.875467 320.880135 
L 302.70934 369.428989 
L 303.543213 360.083466 
L 304.377086 377.201195 
L 305.210959 368.656407 
L 306.044832 340.473265 
L 306.878705 350.484374 
L 307.712578 326.507336 
L 308.546451 333.119894 
L 309.380324 327.776351 
L 310.214197 343.468552 
L 311.04807 363.213233 
L 311.881943 371.579698 
L 312.715816 358.156613 
L 313.549689 360.408123 
L 314.383562 347.611236 
L 315.217435 320.127111 
L 316.051308 359.234651 
L 317.719054 316.399553 
L 318.552927 321.982792 
L 319.3868 319.839237 
L 320.220672 358.943751 
L 321.888418 379.12648 
L 322.722291 359.976688 
L 323.556164 350.743085 
L 324.390037 335.576564 
L 325.22391 327.424004 
L 326.057783 328.780445 
L 326.891656 347.016847 
L 327.725529 346.755878 
L 328.559402 359.20124 
L 329.393275 341.507304 
L 330.227148 273.398537 
L 331.061021 350.883206 
L 331.894894 339.754439 
L 332.728767 310.000484 
L 333.56264 309.490032 
L 334.396513 341.295292 
L 335.230386 304.511193 
L 336.064259 301.918876 
L 336.898132 317.112134 
L 337.732005 261.861849 
L 338.565878 245.425967 
L 339.399751 250.605513 
L 340.233624 247.620523 
L 341.067497 283.644054 
L 343.569116 205.218372 
L 345.236862 289.380848 
L 346.070735 305.558248 
L 346.904608 305.19243 
L 347.738481 303.940964 
L 348.572354 284.476259 
L 349.406227 282.489824 
L 350.2401 317.288833 
L 351.073973 302.694378 
L 351.907846 285.87872 
L 352.741719 320.521433 
L 353.575592 320.930457 
L 354.409465 373.110135 
L 355.243337 329.533172 
L 356.07721 345.367935 
L 356.911083 356.554628 
L 357.744956 338.071765 
L 358.578829 341.156826 
L 359.412702 322.827691 
L 360.246575 334.944083 
L 361.080448 268.122658 
L 361.914321 254.29314 
L 362.748194 330.071675 
L 363.582067 328.626113 
L 364.41594 254.566205 
L 365.249813 310.990993 
L 366.917559 280.519525 
L 367.751432 320.961242 
L 368.585305 338.365273 
L 369.419178 291.996215 
L 370.253051 238.875012 
L 371.086924 283.587919 
L 371.920797 250.436775 
L 372.75467 267.734169 
L 373.588543 248.292728 
L 374.422416 234.809349 
L 375.256289 249.502382 
L 376.090162 224.984245 
L 376.924035 292.402844 
L 377.757908 319.422623 
L 378.591781 306.654445 
L 379.425654 262.591088 
L 380.259527 269.145618 
L 381.0934 291.007682 
L 381.927273 259.954782 
L 382.761146 262.766468 
L 383.595019 242.267842 
L 384.428892 240.987123 
L 385.262765 200.753006 
L 386.096638 180.121132 
L 386.930511 226.418016 
L 387.764384 295.939008 
L 388.598257 259.071302 
L 389.43213 249.023233 
L 390.266002 265.667728 
L 391.099875 254.959134 
L 391.933748 272.93992 
L 392.767621 257.931108 
L 393.601494 228.388113 
L 394.435367 256.744536 
L 395.26924 250.691835 
L 396.103113 283.630205 
L 396.936986 211.945571 
L 397.770859 236.477026 
L 398.604732 239.364514 
L 399.438605 205.149632 
L 400.272478 156.691772 
L 401.106351 224.180993 
L 401.940224 224.223363 
L 402.774097 141.236151 
L 403.60797 203.588386 
L 404.441843 249.810262 
L 405.275716 262.494022 
L 406.109589 306.193747 
L 406.943462 252.796043 
L 407.777335 280.171556 
L 408.611208 280.882178 
L 409.445081 298.238907 
L 410.278954 295.263346 
L 411.112827 278.046467 
L 411.9467 232.00522 
L 412.780573 272.811921 
L 413.614446 231.72286 
L 414.448319 247.366796 
L 415.282192 237.308758 
L 416.116065 231.828 
L 416.949938 251.176003 
L 417.783811 255.301584 
L 418.617684 215.369657 
L 419.451557 234.582587 
L 420.28543 241.706902 
L 421.119303 232.127575 
L 421.953176 186.910505 
L 422.787049 115.013333 
L 423.620922 192.939819 
L 424.454795 158.041982 
L 425.288667 100.267887 
L 426.12254 161.645102 
L 426.956413 154.201915 
L 427.790286 249.955074 
L 428.624159 227.089433 
L 429.458032 291.153456 
L 430.291905 284.005461 
L 431.125778 275.793231 
L 431.959651 269.332258 
L 432.793524 259.978837 
L 433.627397 259.427874 
L 434.46127 217.107783 
L 435.295143 193.693607 
L 436.129016 107.023232 
L 436.962889 223.948638 
L 437.796762 232.443561 
L 438.630635 272.696759 
L 439.464508 138.673426 
L 440.298381 149.708389 
L 441.132254 263.579882 
L 441.966127 204.439644 
L 442.8 235.320747 
L 443.633873 220.131524 
L 444.467746 173.270116 
L 445.301619 205.85741 
L 446.135492 107.710364 
L 446.969365 97.023893 
L 448.637111 197.307749 
L 449.470984 233.472254 
L 450.304857 203.708395 
L 451.13873 185.675198 
L 451.972603 211.872355 
L 452.806476 162.497993 
L 453.640349 139.770782 
L 454.474222 104.40656 
L 455.308095 123.095128 
L 456.141968 86.923636 
L 456.975841 278.443665 
L 457.809714 148.026548 
L 458.643587 204.914048 
L 459.47746 204.87344 
L 460.311333 138.925641 
L 461.145205 145.962186 
L 461.979078 177.48132 
L 462.812951 173.016114 
L 463.646824 233.531503 
L 464.480697 159.34736 
L 465.31457 172.866218 
L 466.148443 231.60576 
L 466.982316 225.041807 
L 467.816189 265.7935 
L 468.650062 242.025679 
L 469.483935 237.488336 
L 470.317808 225.09351 
L 471.151681 280.57434 
L 471.985554 216.749762 
L 472.819427 269.957483 
L 473.6533 207.982356 
L 474.487173 225.540117 
L 475.321046 263.686597 
L 476.154919 278.652912 
L 476.988792 288.572472 
L 477.822665 284.413614 
L 478.656538 283.782456 
L 479.490411 284.874123 
L 480.324284 254.946955 
L 481.158157 267.216132 
L 481.99203 300.233094 
L 482.825903 256.176733 
L 483.659776 250.94057 
L 484.493649 285.512949 
L 485.327522 222.009158 
L 486.161395 256.004321 
L 486.995268 232.588206 
L 487.829141 260.648205 
L 488.663014 310.328905 
L 489.496887 273.948882 
L 490.33076 253.062996 
L 491.164633 287.110678 
L 491.998506 274.962026 
L 492.832379 266.210304 
L 493.666252 275.578304 
L 494.500125 262.902135 
L 495.333998 260.904004 
L 496.16787 242.098066 
L 497.001743 289.061274 
L 497.835616 270.454535 
L 498.669489 312.638292 
L 500.337235 267.20894 
L 501.171108 304.970149 
L 502.004981 256.275683 
L 502.838854 278.524188 
L 503.672727 315.648147 
L 504.5066 295.190877 
L 505.340473 304.332009 
L 506.174346 289.235627 
L 507.008219 310.230787 
L 507.842092 317.527483 
L 508.675965 300.269212 
L 509.509838 275.539825 
L 511.177584 210.829527 
L 512.011457 154.053978 
L 512.84533 163.391598 
L 513.679203 313.230113 
L 514.513076 251.406963 
L 515.346949 259.236131 
L 516.180822 319.864 
L 517.014695 339.984855 
L 517.848568 333.933871 
L 518.682441 346.762391 
L 520.350187 311.679471 
L 521.18406 284.518115 
L 522.017933 270.344759 
L 522.851806 286.450129 
L 523.685679 313.949158 
L 525.353425 278.201964 
L 527.021171 310.955098 
L 527.855044 298.66356 
L 528.688917 304.385238 
L 531.190535 319.476726 
L 532.024408 277.002609 
L 532.858281 283.213619 
L 533.692154 284.961318 
L 534.526027 298.379169 
L 535.3599 304.073307 
L 536.193773 279.191946 
L 537.027646 269.385431 
L 537.861519 318.488311 
L 538.695392 298.221746 
L 539.529265 322.643571 
L 540.363138 289.805729 
L 541.197011 305.629886 
L 542.030884 254.924419 
L 542.864757 224.468872 
L 543.69863 237.829704 
L 544.532503 243.82318 
L 545.366376 298.132834 
L 546.200249 314.192545 
L 547.034122 268.934022 
L 547.867995 278.765869 
L 548.701868 271.747472 
L 549.535741 312.452803 
L 550.369614 320.661325 
L 551.203487 344.828713 
L 552.03736 351.250786 
L 552.871233 345.207619 
L 553.705106 357.144964 
L 554.538979 356.53133 
L 555.372852 370.14817 
L 556.206725 359.12867 
L 557.040598 353.306749 
L 557.874471 364.011372 
L 558.708344 364.821083 
L 559.542217 338.849379 
L 560.37609 373.677384 
L 561.209963 366.11254 
L 562.043836 367.38001 
L 562.877709 335.167529 
L 563.711582 334.215579 
L 564.545455 357.827587 
L 565.379328 360.655738 
L 566.2132 320.629395 
L 567.047073 355.042654 
L 567.880946 362.294895 
L 569.548692 292.750716 
L 570.382565 288.184909 
L 571.216438 369.108384 
L 572.050311 315.742992 
L 572.884184 238.567344 
L 573.718057 227.947215 
L 574.55193 304.823362 
L 575.385803 299.007293 
L 576.219676 311.720935 
L 577.053549 359.622832 
L 577.887422 358.745406 
L 578.721295 351.124157 
L 579.555168 336.001316 
L 580.389041 359.581841 
L 581.222914 343.719272 
L 582.056787 365.270114 
L 582.89066 363.05908 
L 583.724533 359.249825 
L 584.558406 348.777564 
L 585.392279 331.759031 
L 586.226152 326.807164 
L 587.060025 281.131361 
L 587.893898 259.888743 
L 588.727771 269.796685 
L 589.561644 272.034778 
L 590.395517 300.790969 
L 591.22939 342.338179 
L 592.063263 298.925423 
L 592.897136 341.87085 
L 593.731009 339.012925 
L 594.564882 338.064332 
L 595.398755 351.598486 
L 596.232628 342.099295 
L 597.066501 348.214433 
L 597.900374 371.99839 
L 598.734247 377.97511 
L 599.56812 368.99846 
L 601.235866 360.938428 
L 602.069738 352.528141 
L 602.903611 374.402776 
L 603.737484 358.126328 
L 604.571357 338.648857 
L 605.40523 343.81844 
L 606.239103 365.599222 
L 607.072976 303.608867 
L 607.906849 278.33649 
L 608.740722 328.279327 
L 609.574595 324.230333 
L 610.408468 324.047089 
L 611.242341 311.844804 
L 612.076214 328.733636 
L 612.910087 279.702546 
L 613.74396 255.674853 
L 614.577833 218.561432 
L 615.411706 306.235772 
L 616.245579 242.788996 
L 617.079452 266.111713 
L 617.913325 232.847712 
L 618.747198 273.458414 
L 619.581071 294.192181 
L 620.414944 263.62945 
L 621.248817 265.669996 
L 622.08269 288.88651 
L 622.916563 226.835258 
L 623.750436 237.119278 
L 624.584309 232.255177 
L 625.418182 251.468279 
L 626.252055 274.443903 
L 627.085928 314.599608 
L 627.919801 310.668031 
L 628.753674 332.536548 
L 629.587547 324.03364 
L 630.42142 312.946141 
L 631.255293 304.941944 
L 632.089166 315.236995 
L 632.923039 313.448743 
L 633.756912 326.980451 
L 634.590785 328.990841 
L 635.424658 283.169221 
L 636.258531 322.704561 
L 637.092403 342.210961 
L 637.926276 352.420852 
L 638.760149 357.55194 
L 639.594022 357.152125 
L 640.427895 357.261089 
L 641.261768 355.01442 
L 642.095641 319.339849 
L 642.929514 294.296244 
L 643.763387 320.388564 
L 644.59726 341.367352 
L 645.431133 291.352031 
L 646.265006 314.442617 
L 647.098879 368.18796 
L 647.932752 353.008168 
L 648.766625 353.549977 
L 649.600498 349.438955 
L 650.434371 321.597014 
L 651.268244 327.7843 
L 652.102117 360.216901 
L 652.93599 300.030686 
L 653.769863 311.004885 
L 654.603736 296.993363 
L 655.437609 290.302942 
L 656.271482 257.320428 
L 657.105355 294.498565 
L 657.939228 296.801796 
L 658.773101 269.619762 
L 659.606974 266.70508 
L 660.440847 302.642117 
L 661.27472 358.000237 
L 662.108593 335.700511 
L 662.942466 325.759572 
L 663.776339 352.955666 
L 664.610212 351.806259 
L 665.444085 352.315821 
L 666.277958 344.075205 
L 667.111831 296.270353 
L 667.945704 279.085811 
L 668.779577 240.733584 
L 669.61345 236.989911 
L 670.447323 255.636405 
L 671.281196 265.174784 
L 672.115068 298.458596 
L 672.948941 311.746039 
L 673.782814 342.89169 
L 675.45056 309.994286 
L 676.284433 307.967054 
L 677.118306 336.343952 
L 677.952179 373.447152 
L 678.786052 353.508092 
L 679.619925 233.015597 
L 681.287671 328.629412 
L 682.121544 341.195251 
L 682.955417 304.963861 
L 683.78929 324.420448 
L 684.623163 281.63349 
L 685.457036 303.772693 
L 686.290909 271.856116 
L 687.124782 339.551192 
L 687.958655 286.435507 
L 688.792528 288.425272 
L 689.626401 274.280978 
L 690.460274 287.148138 
L 691.294147 280.705105 
L 692.961893 221.007482 
L 693.795766 267.352258 
L 694.629639 279.170828 
L 695.463512 286.049031 
L 696.297385 270.555104 
L 697.131258 288.675393 
L 697.965131 325.580696 
L 698.799004 268.412009 
L 699.632877 311.413922 
L 700.46675 301.211734 
L 701.300623 309.878121 
L 702.134496 325.67457 
L 702.968369 306.028237 
L 703.802242 242.980541 
L 704.636115 241.909361 
L 705.469988 241.639452 
L 706.303861 209.619095 
L 707.137733 262.330773 
L 707.971606 271.915234 
L 708.805479 250.300329 
L 709.639352 221.933659 
L 710.473225 188.671251 
L 711.307098 251.02386 
L 712.140971 214.778915 
L 712.974844 318.536376 
L 713.808717 313.711887 
L 714.64259 259.213894 
L 715.476463 240.350386 
L 716.310336 233.563943 
L 717.144209 181.978614 
L 717.978082 206.109907 
L 718.811955 204.433412 
L 719.645828 213.902427 
L 720.479701 263.522059 
L 721.313574 237.574346 
L 722.147447 262.034167 
L 722.98132 222.523717 
L 723.815193 205.894119 
L 724.649066 224.830776 
L 725.482939 189.531934 
L 726.316812 211.120126 
L 727.150685 178.997833 
L 727.984558 248.869522 
L 728.818431 262.997919 
L 729.652304 203.373904 
L 730.486177 262.841936 
L 731.32005 232.106792 
L 732.153923 228.081478 
L 732.987796 154.567725 
L 733.821669 226.385445 
L 734.655542 254.254706 
L 735.489415 257.353837 
L 736.323288 245.661126 
L 737.157161 199.789869 
L 737.991034 205.158382 
L 738.824907 266.754703 
L 739.65878 264.24211 
L 740.492653 237.066859 
L 741.326526 226.180662 
L 742.160399 248.544378 
L 742.994271 257.760819 
L 743.828144 277.11943 
L 744.662017 252.516706 
L 745.49589 234.668418 
L 746.329763 231.645989 
L 747.163636 178.659445 
L 747.163636 178.659445 
" style="fill:none;stroke:#ff0000;stroke-dasharray:5.55,2.4;stroke-dashoffset:0;stroke-width:1.5;"/>
   </g>
   <g id="patch_3">
    <path d="M 108 460.8 
L 108 69.12 
" style="fill:none;stroke:#000000;stroke-linecap:square;stroke-linejoin:miter;stroke-width:0.8;"/>
   </g>
   <g id="patch_4">
    <path d="M 777.6 460.8 
L 777.6 69.12 
" style="fill:none;stroke:#000000;stroke-linecap:square;stroke-linejoin:miter;stroke-width:0.8;"/>
   </g>
   <g id="patch_5">
    <path d="M 108 460.8 
L 777.6 460.8 
" style="fill:none;stroke:#000000;stroke-linecap:square;stroke-linejoin:miter;stroke-width:0.8;"/>
   </g>
   <g id="patch_6">
    <path d="M 108 69.12 
L 777.6 69.12 
" style="fill:none;stroke:#000000;stroke-linecap:square;stroke-linejoin:miter;stroke-width:0.8;"/>
   </g>
   <g id="text_19">
    <!-- Macau roadside 2020-2021 | Forecast vs Monitored | Support vector machine -->
    <g transform="translate(94.802344 63.12)scale(0.18 -0.18)">
     <defs>
      <path d="M 9.8125 72.90625 
L 24.515625 72.90625 
L 43.109375 23.296875 
L 61.8125 72.90625 
L 76.515625 72.90625 
L 76.515625 0 
L 66.890625 0 
L 66.890625 64.015625 
L 48.09375 14.015625 
L 38.1875 14.015625 
L 19.390625 64.015625 
L 19.390625 0 
L 9.8125 0 
z
" id="DejaVuSans-77"/>
      <path d="M 48.78125 52.59375 
L 48.78125 44.1875 
Q 44.96875 46.296875 41.140625 47.34375 
Q 37.3125 48.390625 33.40625 48.390625 
Q 24.65625 48.390625 19.8125 42.84375 
Q 14.984375 37.3125 14.984375 27.296875 
Q 14.984375 17.28125 19.8125 11.734375 
Q 24.65625 6.203125 33.40625 6.203125 
Q 37.3125 6.203125 41.140625 7.25 
Q 44.96875 8.296875 48.78125 10.40625 
L 48.78125 2.09375 
Q 45.015625 0.34375 40.984375 -0.53125 
Q 36.96875 -1.421875 32.421875 -1.421875 
Q 20.0625 -1.421875 12.78125 6.34375 
Q 5.515625 14.109375 5.515625 27.296875 
Q 5.515625 40.671875 12.859375 48.328125 
Q 20.21875 56 33.015625 56 
Q 37.15625 56 41.109375 55.140625 
Q 45.0625 54.296875 48.78125 52.59375 
z
" id="DejaVuSans-99"/>
      <path d="M 8.5 21.578125 
L 8.5 54.6875 
L 17.484375 54.6875 
L 17.484375 21.921875 
Q 17.484375 14.15625 20.5 10.265625 
Q 23.53125 6.390625 29.59375 6.390625 
Q 36.859375 6.390625 41.078125 11.03125 
Q 45.3125 15.671875 45.3125 23.6875 
L 45.3125 54.6875 
L 54.296875 54.6875 
L 54.296875 0 
L 45.3125 0 
L 45.3125 8.40625 
Q 42.046875 3.421875 37.71875 1 
Q 33.40625 -1.421875 27.6875 -1.421875 
Q 18.265625 -1.421875 13.375 4.4375 
Q 8.5 10.296875 8.5 21.578125 
z
M 31.109375 56 
z
" id="DejaVuSans-117"/>
      <path id="DejaVuSans-32"/>
      <path d="M 41.109375 46.296875 
Q 39.59375 47.171875 37.8125 47.578125 
Q 36.03125 48 33.890625 48 
Q 26.265625 48 22.1875 43.046875 
Q 18.109375 38.09375 18.109375 28.8125 
L 18.109375 0 
L 9.078125 0 
L 9.078125 54.6875 
L 18.109375 54.6875 
L 18.109375 46.1875 
Q 20.953125 51.171875 25.484375 53.578125 
Q 30.03125 56 36.53125 56 
Q 37.453125 56 38.578125 55.875 
Q 39.703125 55.765625 41.0625 55.515625 
z
" id="DejaVuSans-114"/>
      <path d="M 30.609375 48.390625 
Q 23.390625 48.390625 19.1875 42.75 
Q 14.984375 37.109375 14.984375 27.296875 
Q 14.984375 17.484375 19.15625 11.84375 
Q 23.34375 6.203125 30.609375 6.203125 
Q 37.796875 6.203125 41.984375 11.859375 
Q 46.1875 17.53125 46.1875 27.296875 
Q 46.1875 37.015625 41.984375 42.703125 
Q 37.796875 48.390625 30.609375 48.390625 
z
M 30.609375 56 
Q 42.328125 56 49.015625 48.375 
Q 55.71875 40.765625 55.71875 27.296875 
Q 55.71875 13.875 49.015625 6.21875 
Q 42.328125 -1.421875 30.609375 -1.421875 
Q 18.84375 -1.421875 12.171875 6.21875 
Q 5.515625 13.875 5.515625 27.296875 
Q 5.515625 40.765625 12.171875 48.375 
Q 18.84375 56 30.609375 56 
z
" id="DejaVuSans-111"/>
      <path d="M 45.40625 46.390625 
L 45.40625 75.984375 
L 54.390625 75.984375 
L 54.390625 0 
L 45.40625 0 
L 45.40625 8.203125 
Q 42.578125 3.328125 38.25 0.953125 
Q 33.9375 -1.421875 27.875 -1.421875 
Q 17.96875 -1.421875 11.734375 6.484375 
Q 5.515625 14.40625 5.515625 27.296875 
Q 5.515625 40.1875 11.734375 48.09375 
Q 17.96875 56 27.875 56 
Q 33.9375 56 38.25 53.625 
Q 42.578125 51.265625 45.40625 46.390625 
z
M 14.796875 27.296875 
Q 14.796875 17.390625 18.875 11.75 
Q 22.953125 6.109375 30.078125 6.109375 
Q 37.203125 6.109375 41.296875 11.75 
Q 45.40625 17.390625 45.40625 27.296875 
Q 45.40625 37.203125 41.296875 42.84375 
Q 37.203125 48.484375 30.078125 48.484375 
Q 22.953125 48.484375 18.875 42.84375 
Q 14.796875 37.203125 14.796875 27.296875 
z
" id="DejaVuSans-100"/>
      <path d="M 44.28125 53.078125 
L 44.28125 44.578125 
Q 40.484375 46.53125 36.375 47.5 
Q 32.28125 48.484375 27.875 48.484375 
Q 21.1875 48.484375 17.84375 46.4375 
Q 14.5 44.390625 14.5 40.28125 
Q 14.5 37.15625 16.890625 35.375 
Q 19.28125 33.59375 26.515625 31.984375 
L 29.59375 31.296875 
Q 39.15625 29.25 43.1875 25.515625 
Q 47.21875 21.78125 47.21875 15.09375 
Q 47.21875 7.46875 41.1875 3.015625 
Q 35.15625 -1.421875 24.609375 -1.421875 
Q 20.21875 -1.421875 15.453125 -0.5625 
Q 10.6875 0.296875 5.421875 2 
L 5.421875 11.28125 
Q 10.40625 8.6875 15.234375 7.390625 
Q 20.0625 6.109375 24.8125 6.109375 
Q 31.15625 6.109375 34.5625 8.28125 
Q 37.984375 10.453125 37.984375 14.40625 
Q 37.984375 18.0625 35.515625 20.015625 
Q 33.0625 21.96875 24.703125 23.78125 
L 21.578125 24.515625 
Q 13.234375 26.265625 9.515625 29.90625 
Q 5.8125 33.546875 5.8125 39.890625 
Q 5.8125 47.609375 11.28125 51.796875 
Q 16.75 56 26.8125 56 
Q 31.78125 56 36.171875 55.265625 
Q 40.578125 54.546875 44.28125 53.078125 
z
" id="DejaVuSans-115"/>
      <path d="M 9.421875 54.6875 
L 18.40625 54.6875 
L 18.40625 0 
L 9.421875 0 
z
M 9.421875 75.984375 
L 18.40625 75.984375 
L 18.40625 64.59375 
L 9.421875 64.59375 
z
" id="DejaVuSans-105"/>
      <path d="M 21 76.421875 
L 21 -23.578125 
L 12.703125 -23.578125 
L 12.703125 76.421875 
z
" id="DejaVuSans-124"/>
      <path d="M 9.8125 72.90625 
L 51.703125 72.90625 
L 51.703125 64.59375 
L 19.671875 64.59375 
L 19.671875 43.109375 
L 48.578125 43.109375 
L 48.578125 34.8125 
L 19.671875 34.8125 
L 19.671875 0 
L 9.8125 0 
z
" id="DejaVuSans-70"/>
      <path d="M 2.984375 54.6875 
L 12.5 54.6875 
L 29.59375 8.796875 
L 46.6875 54.6875 
L 56.203125 54.6875 
L 35.6875 0 
L 23.484375 0 
z
" id="DejaVuSans-118"/>
      <path d="M 54.890625 33.015625 
L 54.890625 0 
L 45.90625 0 
L 45.90625 32.71875 
Q 45.90625 40.484375 42.875 44.328125 
Q 39.84375 48.1875 33.796875 48.1875 
Q 26.515625 48.1875 22.3125 43.546875 
Q 18.109375 38.921875 18.109375 30.90625 
L 18.109375 0 
L 9.078125 0 
L 9.078125 54.6875 
L 18.109375 54.6875 
L 18.109375 46.1875 
Q 21.34375 51.125 25.703125 53.5625 
Q 30.078125 56 35.796875 56 
Q 45.21875 56 50.046875 50.171875 
Q 54.890625 44.34375 54.890625 33.015625 
z
" id="DejaVuSans-110"/>
      <path d="M 53.515625 70.515625 
L 53.515625 60.890625 
Q 47.90625 63.578125 42.921875 64.890625 
Q 37.9375 66.21875 33.296875 66.21875 
Q 25.25 66.21875 20.875 63.09375 
Q 16.5 59.96875 16.5 54.203125 
Q 16.5 49.359375 19.40625 46.890625 
Q 22.3125 44.4375 30.421875 42.921875 
L 36.375 41.703125 
Q 47.40625 39.59375 52.65625 34.296875 
Q 57.90625 29 57.90625 20.125 
Q 57.90625 9.515625 50.796875 4.046875 
Q 43.703125 -1.421875 29.984375 -1.421875 
Q 24.8125 -1.421875 18.96875 -0.25 
Q 13.140625 0.921875 6.890625 3.21875 
L 6.890625 13.375 
Q 12.890625 10.015625 18.65625 8.296875 
Q 24.421875 6.59375 29.984375 6.59375 
Q 38.421875 6.59375 43.015625 9.90625 
Q 47.609375 13.234375 47.609375 19.390625 
Q 47.609375 24.75 44.3125 27.78125 
Q 41.015625 30.8125 33.5 32.328125 
L 27.484375 33.5 
Q 16.453125 35.6875 11.515625 40.375 
Q 6.59375 45.0625 6.59375 53.421875 
Q 6.59375 63.09375 13.40625 68.65625 
Q 20.21875 74.21875 32.171875 74.21875 
Q 37.3125 74.21875 42.625 73.28125 
Q 47.953125 72.359375 53.515625 70.515625 
z
" id="DejaVuSans-83"/>
      <path d="M 54.890625 33.015625 
L 54.890625 0 
L 45.90625 0 
L 45.90625 32.71875 
Q 45.90625 40.484375 42.875 44.328125 
Q 39.84375 48.1875 33.796875 48.1875 
Q 26.515625 48.1875 22.3125 43.546875 
Q 18.109375 38.921875 18.109375 30.90625 
L 18.109375 0 
L 9.078125 0 
L 9.078125 75.984375 
L 18.109375 75.984375 
L 18.109375 46.1875 
Q 21.34375 51.125 25.703125 53.5625 
Q 30.078125 56 35.796875 56 
Q 45.21875 56 50.046875 50.171875 
Q 54.890625 44.34375 54.890625 33.015625 
z
" id="DejaVuSans-104"/>
     </defs>
     <use xlink:href="#DejaVuSans-77"/>
     <use x="86.279297" xlink:href="#DejaVuSans-97"/>
     <use x="147.558594" xlink:href="#DejaVuSans-99"/>
     <use x="202.539062" xlink:href="#DejaVuSans-97"/>
     <use x="263.818359" xlink:href="#DejaVuSans-117"/>
     <use x="327.197266" xlink:href="#DejaVuSans-32"/>
     <use x="358.984375" xlink:href="#DejaVuSans-114"/>
     <use x="397.847656" xlink:href="#DejaVuSans-111"/>
     <use x="459.029297" xlink:href="#DejaVuSans-97"/>
     <use x="520.308594" xlink:href="#DejaVuSans-100"/>
     <use x="583.785156" xlink:href="#DejaVuSans-115"/>
     <use x="635.884766" xlink:href="#DejaVuSans-105"/>
     <use x="663.667969" xlink:href="#DejaVuSans-100"/>
     <use x="727.144531" xlink:href="#DejaVuSans-101"/>
     <use x="788.667969" xlink:href="#DejaVuSans-32"/>
     <use x="820.455078" xlink:href="#DejaVuSans-50"/>
     <use x="884.078125" xlink:href="#DejaVuSans-48"/>
     <use x="947.701172" xlink:href="#DejaVuSans-50"/>
     <use x="1011.324219" xlink:href="#DejaVuSans-48"/>
     <use x="1074.947266" xlink:href="#DejaVuSans-45"/>
     <use x="1111.03125" xlink:href="#DejaVuSans-50"/>
     <use x="1174.654297" xlink:href="#DejaVuSans-48"/>
     <use x="1238.277344" xlink:href="#DejaVuSans-50"/>
     <use x="1301.900391" xlink:href="#DejaVuSans-49"/>
     <use x="1365.523438" xlink:href="#DejaVuSans-32"/>
     <use x="1397.310547" xlink:href="#DejaVuSans-124"/>
     <use x="1431.001953" xlink:href="#DejaVuSans-32"/>
     <use x="1462.789062" xlink:href="#DejaVuSans-70"/>
     <use x="1516.683594" xlink:href="#DejaVuSans-111"/>
     <use x="1577.865234" xlink:href="#DejaVuSans-114"/>
     <use x="1616.728516" xlink:href="#DejaVuSans-101"/>
     <use x="1678.251953" xlink:href="#DejaVuSans-99"/>
     <use x="1733.232422" xlink:href="#DejaVuSans-97"/>
     <use x="1794.511719" xlink:href="#DejaVuSans-115"/>
     <use x="1846.611328" xlink:href="#DejaVuSans-116"/>
     <use x="1885.820312" xlink:href="#DejaVuSans-32"/>
     <use x="1917.607422" xlink:href="#DejaVuSans-118"/>
     <use x="1976.787109" xlink:href="#DejaVuSans-115"/>
     <use x="2028.886719" xlink:href="#DejaVuSans-32"/>
     <use x="2060.673828" xlink:href="#DejaVuSans-77"/>
     <use x="2146.953125" xlink:href="#DejaVuSans-111"/>
     <use x="2208.134766" xlink:href="#DejaVuSans-110"/>
     <use x="2271.513672" xlink:href="#DejaVuSans-105"/>
     <use x="2299.296875" xlink:href="#DejaVuSans-116"/>
     <use x="2338.505859" xlink:href="#DejaVuSans-111"/>
     <use x="2399.6875" xlink:href="#DejaVuSans-114"/>
     <use x="2438.550781" xlink:href="#DejaVuSans-101"/>
     <use x="2500.074219" xlink:href="#DejaVuSans-100"/>
     <use x="2563.550781" xlink:href="#DejaVuSans-32"/>
     <use x="2595.337891" xlink:href="#DejaVuSans-124"/>
     <use x="2629.029297" xlink:href="#DejaVuSans-32"/>
     <use x="2660.816406" xlink:href="#DejaVuSans-83"/>
     <use x="2724.292969" xlink:href="#DejaVuSans-117"/>
     <use x="2787.671875" xlink:href="#DejaVuSans-112"/>
     <use x="2851.148438" xlink:href="#DejaVuSans-112"/>
     <use x="2914.625" xlink:href="#DejaVuSans-111"/>
     <use x="2975.806641" xlink:href="#DejaVuSans-114"/>
     <use x="3016.919922" xlink:href="#DejaVuSans-116"/>
     <use x="3056.128906" xlink:href="#DejaVuSans-32"/>
     <use x="3087.916016" xlink:href="#DejaVuSans-118"/>
     <use x="3147.095703" xlink:href="#DejaVuSans-101"/>
     <use x="3208.619141" xlink:href="#DejaVuSans-99"/>
     <use x="3263.599609" xlink:href="#DejaVuSans-116"/>
     <use x="3302.808594" xlink:href="#DejaVuSans-111"/>
     <use x="3363.990234" xlink:href="#DejaVuSans-114"/>
     <use x="3405.103516" xlink:href="#DejaVuSans-32"/>
     <use x="3436.890625" xlink:href="#DejaVuSans-109"/>
     <use x="3534.302734" xlink:href="#DejaVuSans-97"/>
     <use x="3595.582031" xlink:href="#DejaVuSans-99"/>
     <use x="3650.5625" xlink:href="#DejaVuSans-104"/>
     <use x="3713.941406" xlink:href="#DejaVuSans-105"/>
     <use x="3741.724609" xlink:href="#DejaVuSans-110"/>
     <use x="3805.103516" xlink:href="#DejaVuSans-101"/>
    </g>
   </g>
   <g id="legend_1">
    <g id="patch_7">
     <path d="M 605.76375 114.615 
L 769.2 114.615 
Q 771.6 114.615 771.6 112.215 
L 771.6 77.52 
Q 771.6 75.12 769.2 75.12 
L 605.76375 75.12 
Q 603.36375 75.12 603.36375 77.52 
L 603.36375 112.215 
Q 603.36375 114.615 605.76375 114.615 
z
" style="fill:#ffffff;opacity:0.8;stroke:#cccccc;stroke-linejoin:miter;"/>
    </g>
    <g id="line2d_19">
     <path d="M 608.16375 84.838125 
L 632.16375 84.838125 
" style="fill:none;stroke:#1f77b4;stroke-linecap:square;stroke-width:1.5;"/>
    </g>
    <g id="line2d_20"/>
    <g id="text_20">
     <!-- measured_data_NO2 -->
     <g transform="translate(641.76375 89.038125)scale(0.12 -0.12)">
      <defs>
       <path d="M 50.984375 -16.609375 
L 50.984375 -23.578125 
L -0.984375 -23.578125 
L -0.984375 -16.609375 
z
" id="DejaVuSans-95"/>
      </defs>
      <use xlink:href="#DejaVuSans-109"/>
      <use x="97.412109" xlink:href="#DejaVuSans-101"/>
      <use x="158.935547" xlink:href="#DejaVuSans-97"/>
      <use x="220.214844" xlink:href="#DejaVuSans-115"/>
      <use x="272.314453" xlink:href="#DejaVuSans-117"/>
      <use x="335.693359" xlink:href="#DejaVuSans-114"/>
      <use x="374.556641" xlink:href="#DejaVuSans-101"/>
      <use x="436.080078" xlink:href="#DejaVuSans-100"/>
      <use x="499.556641" xlink:href="#DejaVuSans-95"/>
      <use x="549.556641" xlink:href="#DejaVuSans-100"/>
      <use x="613.033203" xlink:href="#DejaVuSans-97"/>
      <use x="674.3125" xlink:href="#DejaVuSans-116"/>
      <use x="713.521484" xlink:href="#DejaVuSans-97"/>
      <use x="774.800781" xlink:href="#DejaVuSans-95"/>
      <use x="824.800781" xlink:href="#DejaVuSans-78"/>
      <use x="899.605469" xlink:href="#DejaVuSans-79"/>
      <use x="978.316406" xlink:href="#DejaVuSans-50"/>
     </g>
    </g>
    <g id="line2d_21">
     <path d="M 608.16375 102.785625 
L 632.16375 102.785625 
" style="fill:none;stroke:#ff0000;stroke-dasharray:5.55,2.4;stroke-dashoffset:0;stroke-width:1.5;"/>
    </g>
    <g id="line2d_22"/>
    <g id="text_21">
     <!-- predicted_data_NO2 -->
     <g transform="translate(641.76375 106.985625)scale(0.12 -0.12)">
      <use xlink:href="#DejaVuSans-112"/>
      <use x="63.476562" xlink:href="#DejaVuSans-114"/>
      <use x="102.339844" xlink:href="#DejaVuSans-101"/>
      <use x="163.863281" xlink:href="#DejaVuSans-100"/>
      <use x="227.339844" xlink:href="#DejaVuSans-105"/>
      <use x="255.123047" xlink:href="#DejaVuSans-99"/>
      <use x="310.103516" xlink:href="#DejaVuSans-116"/>
      <use x="349.3125" xlink:href="#DejaVuSans-101"/>
      <use x="410.835938" xlink:href="#DejaVuSans-100"/>
      <use x="474.3125" xlink:href="#DejaVuSans-95"/>
      <use x="524.3125" xlink:href="#DejaVuSans-100"/>
      <use x="587.789062" xlink:href="#DejaVuSans-97"/>
      <use x="649.068359" xlink:href="#DejaVuSans-116"/>
      <use x="688.277344" xlink:href="#DejaVuSans-97"/>
      <use x="749.556641" xlink:href="#DejaVuSans-95"/>
      <use x="799.556641" xlink:href="#DejaVuSans-78"/>
      <use x="874.361328" xlink:href="#DejaVuSans-79"/>
      <use x="953.072266" xlink:href="#DejaVuSans-50"/>
     </g>
    </g>
   </g>
  </g>
 </g>
 <defs>
  <clipPath id="pd4d8c6bb7d">
   <rect height="391.68" width="669.6" x="108" y="69.12"/>
  </clipPath>
 </defs>
</svg>
