<?xml version="1.0" encoding="utf-8" standalone="no"?>
<!DOCTYPE svg PUBLIC "-//W3C//DTD SVG 1.1//EN"
  "http://www.w3.org/Graphics/SVG/1.1/DTD/svg11.dtd">
<!-- Created with matplotlib (https://matplotlib.org/) -->
<svg height="576pt" version="1.1" viewBox="0 0 864 576" width="864pt" xmlns="http://www.w3.org/2000/svg" xmlns:xlink="http://www.w3.org/1999/xlink">
 <metadata>
  <rdf:RDF xmlns:cc="http://creativecommons.org/ns#" xmlns:dc="http://purl.org/dc/elements/1.1/" xmlns:rdf="http://www.w3.org/1999/02/22-rdf-syntax-ns#">
   <cc:Work>
    <dc:type rdf:resource="http://purl.org/dc/dcmitype/StillImage"/>
    <dc:date>2024-03-08T16:29:29.578146</dc:date>
    <dc:format>image/svg+xml</dc:format>
    <dc:creator>
     <cc:Agent>
      <dc:title>Matplotlib v3.3.4, https://matplotlib.org/</dc:title>
     </cc:Agent>
    </dc:creator>
   </cc:Work>
  </rdf:RDF>
 </metadata>
 <defs>
  <style type="text/css">*{stroke-linecap:butt;stroke-linejoin:round;}</style>
 </defs>
 <g id="figure_1">
  <g id="patch_1">
   <path d="M 0 576 
L 864 576 
L 864 0 
L 0 0 
z
" style="fill:#ffffff;"/>
  </g>
  <g id="axes_1">
   <g id="patch_2">
    <path d="M 108 460.8 
L 777.6 460.8 
L 777.6 69.12 
L 108 69.12 
z
" style="fill:#ffffff;"/>
   </g>
   <g id="matplotlib.axis_1">
    <g id="xtick_1">
     <g id="line2d_1">
      <defs>
       <path d="M 0 0 
L 0 3.5 
" id="m8fc83e3310" style="stroke:#000000;stroke-width:0.8;"/>
      </defs>
      <g>
       <use style="stroke:#000000;stroke-width:0.8;" x="136.761736" xlink:href="#m8fc83e3310" y="460.8"/>
      </g>
     </g>
     <g id="text_1">
      <!-- 2020-01 -->
      <g transform="translate(92.091951 500.766215)rotate(-30)scale(0.12 -0.12)">
       <defs>
        <path d="M 19.1875 8.296875 
L 53.609375 8.296875 
L 53.609375 0 
L 7.328125 0 
L 7.328125 8.296875 
Q 12.9375 14.109375 22.625 23.890625 
Q 32.328125 33.6875 34.8125 36.53125 
Q 39.546875 41.84375 41.421875 45.53125 
Q 43.3125 49.21875 43.3125 52.78125 
Q 43.3125 58.59375 39.234375 62.25 
Q 35.15625 65.921875 28.609375 65.921875 
Q 23.96875 65.921875 18.8125 64.3125 
Q 13.671875 62.703125 7.8125 59.421875 
L 7.8125 69.390625 
Q 13.765625 71.78125 18.9375 73 
Q 24.125 74.21875 28.421875 74.21875 
Q 39.75 74.21875 46.484375 68.546875 
Q 53.21875 62.890625 53.21875 53.421875 
Q 53.21875 48.921875 51.53125 44.890625 
Q 49.859375 40.875 45.40625 35.40625 
Q 44.1875 33.984375 37.640625 27.21875 
Q 31.109375 20.453125 19.1875 8.296875 
z
" id="DejaVuSans-50"/>
        <path d="M 31.78125 66.40625 
Q 24.171875 66.40625 20.328125 58.90625 
Q 16.5 51.421875 16.5 36.375 
Q 16.5 21.390625 20.328125 13.890625 
Q 24.171875 6.390625 31.78125 6.390625 
Q 39.453125 6.390625 43.28125 13.890625 
Q 47.125 21.390625 47.125 36.375 
Q 47.125 51.421875 43.28125 58.90625 
Q 39.453125 66.40625 31.78125 66.40625 
z
M 31.78125 74.21875 
Q 44.046875 74.21875 50.515625 64.515625 
Q 56.984375 54.828125 56.984375 36.375 
Q 56.984375 17.96875 50.515625 8.265625 
Q 44.046875 -1.421875 31.78125 -1.421875 
Q 19.53125 -1.421875 13.0625 8.265625 
Q 6.59375 17.96875 6.59375 36.375 
Q 6.59375 54.828125 13.0625 64.515625 
Q 19.53125 74.21875 31.78125 74.21875 
z
" id="DejaVuSans-48"/>
        <path d="M 4.890625 31.390625 
L 31.203125 31.390625 
L 31.203125 23.390625 
L 4.890625 23.390625 
z
" id="DejaVuSans-45"/>
        <path d="M 12.40625 8.296875 
L 28.515625 8.296875 
L 28.515625 63.921875 
L 10.984375 60.40625 
L 10.984375 69.390625 
L 28.421875 72.90625 
L 38.28125 72.90625 
L 38.28125 8.296875 
L 54.390625 8.296875 
L 54.390625 0 
L 12.40625 0 
z
" id="DejaVuSans-49"/>
       </defs>
       <use xlink:href="#DejaVuSans-50"/>
       <use x="63.623047" xlink:href="#DejaVuSans-48"/>
       <use x="127.246094" xlink:href="#DejaVuSans-50"/>
       <use x="190.869141" xlink:href="#DejaVuSans-48"/>
       <use x="254.492188" xlink:href="#DejaVuSans-45"/>
       <use x="290.576172" xlink:href="#DejaVuSans-48"/>
       <use x="354.199219" xlink:href="#DejaVuSans-49"/>
      </g>
     </g>
    </g>
    <g id="xtick_2">
     <g id="line2d_2">
      <g>
       <use style="stroke:#000000;stroke-width:0.8;" x="212.957309" xlink:href="#m8fc83e3310" y="460.8"/>
      </g>
     </g>
     <g id="text_2">
      <!-- 2020-04 -->
      <g transform="translate(168.287524 500.766215)rotate(-30)scale(0.12 -0.12)">
       <defs>
        <path d="M 37.796875 64.3125 
L 12.890625 25.390625 
L 37.796875 25.390625 
z
M 35.203125 72.90625 
L 47.609375 72.90625 
L 47.609375 25.390625 
L 58.015625 25.390625 
L 58.015625 17.1875 
L 47.609375 17.1875 
L 47.609375 0 
L 37.796875 0 
L 37.796875 17.1875 
L 4.890625 17.1875 
L 4.890625 26.703125 
z
" id="DejaVuSans-52"/>
       </defs>
       <use xlink:href="#DejaVuSans-50"/>
       <use x="63.623047" xlink:href="#DejaVuSans-48"/>
       <use x="127.246094" xlink:href="#DejaVuSans-50"/>
       <use x="190.869141" xlink:href="#DejaVuSans-48"/>
       <use x="254.492188" xlink:href="#DejaVuSans-45"/>
       <use x="290.576172" xlink:href="#DejaVuSans-48"/>
       <use x="354.199219" xlink:href="#DejaVuSans-52"/>
      </g>
     </g>
    </g>
    <g id="xtick_3">
     <g id="line2d_3">
      <g>
       <use style="stroke:#000000;stroke-width:0.8;" x="289.152882" xlink:href="#m8fc83e3310" y="460.8"/>
      </g>
     </g>
     <g id="text_3">
      <!-- 2020-07 -->
      <g transform="translate(244.483097 500.766215)rotate(-30)scale(0.12 -0.12)">
       <defs>
        <path d="M 8.203125 72.90625 
L 55.078125 72.90625 
L 55.078125 68.703125 
L 28.609375 0 
L 18.3125 0 
L 43.21875 64.59375 
L 8.203125 64.59375 
z
" id="DejaVuSans-55"/>
       </defs>
       <use xlink:href="#DejaVuSans-50"/>
       <use x="63.623047" xlink:href="#DejaVuSans-48"/>
       <use x="127.246094" xlink:href="#DejaVuSans-50"/>
       <use x="190.869141" xlink:href="#DejaVuSans-48"/>
       <use x="254.492188" xlink:href="#DejaVuSans-45"/>
       <use x="290.576172" xlink:href="#DejaVuSans-48"/>
       <use x="354.199219" xlink:href="#DejaVuSans-55"/>
      </g>
     </g>
    </g>
    <g id="xtick_4">
     <g id="line2d_4">
      <g>
       <use style="stroke:#000000;stroke-width:0.8;" x="366.18577" xlink:href="#m8fc83e3310" y="460.8"/>
      </g>
     </g>
     <g id="text_4">
      <!-- 2020-10 -->
      <g transform="translate(321.515985 500.766215)rotate(-30)scale(0.12 -0.12)">
       <use xlink:href="#DejaVuSans-50"/>
       <use x="63.623047" xlink:href="#DejaVuSans-48"/>
       <use x="127.246094" xlink:href="#DejaVuSans-50"/>
       <use x="190.869141" xlink:href="#DejaVuSans-48"/>
       <use x="254.492188" xlink:href="#DejaVuSans-45"/>
       <use x="290.576172" xlink:href="#DejaVuSans-49"/>
       <use x="354.199219" xlink:href="#DejaVuSans-48"/>
      </g>
     </g>
    </g>
    <g id="xtick_5">
     <g id="line2d_5">
      <g>
       <use style="stroke:#000000;stroke-width:0.8;" x="443.218657" xlink:href="#m8fc83e3310" y="460.8"/>
      </g>
     </g>
     <g id="text_5">
      <!-- 2021-01 -->
      <g transform="translate(398.548872 500.766215)rotate(-30)scale(0.12 -0.12)">
       <use xlink:href="#DejaVuSans-50"/>
       <use x="63.623047" xlink:href="#DejaVuSans-48"/>
       <use x="127.246094" xlink:href="#DejaVuSans-50"/>
       <use x="190.869141" xlink:href="#DejaVuSans-49"/>
       <use x="254.492188" xlink:href="#DejaVuSans-45"/>
       <use x="290.576172" xlink:href="#DejaVuSans-48"/>
       <use x="354.199219" xlink:href="#DejaVuSans-49"/>
      </g>
     </g>
    </g>
    <g id="xtick_6">
     <g id="line2d_6">
      <g>
       <use style="stroke:#000000;stroke-width:0.8;" x="518.576916" xlink:href="#m8fc83e3310" y="460.8"/>
      </g>
     </g>
     <g id="text_6">
      <!-- 2021-04 -->
      <g transform="translate(473.907131 500.766215)rotate(-30)scale(0.12 -0.12)">
       <use xlink:href="#DejaVuSans-50"/>
       <use x="63.623047" xlink:href="#DejaVuSans-48"/>
       <use x="127.246094" xlink:href="#DejaVuSans-50"/>
       <use x="190.869141" xlink:href="#DejaVuSans-49"/>
       <use x="254.492188" xlink:href="#DejaVuSans-45"/>
       <use x="290.576172" xlink:href="#DejaVuSans-48"/>
       <use x="354.199219" xlink:href="#DejaVuSans-52"/>
      </g>
     </g>
    </g>
    <g id="xtick_7">
     <g id="line2d_7">
      <g>
       <use style="stroke:#000000;stroke-width:0.8;" x="594.77249" xlink:href="#m8fc83e3310" y="460.8"/>
      </g>
     </g>
     <g id="text_7">
      <!-- 2021-07 -->
      <g transform="translate(550.102705 500.766215)rotate(-30)scale(0.12 -0.12)">
       <use xlink:href="#DejaVuSans-50"/>
       <use x="63.623047" xlink:href="#DejaVuSans-48"/>
       <use x="127.246094" xlink:href="#DejaVuSans-50"/>
       <use x="190.869141" xlink:href="#DejaVuSans-49"/>
       <use x="254.492188" xlink:href="#DejaVuSans-45"/>
       <use x="290.576172" xlink:href="#DejaVuSans-48"/>
       <use x="354.199219" xlink:href="#DejaVuSans-55"/>
      </g>
     </g>
    </g>
    <g id="xtick_8">
     <g id="line2d_8">
      <g>
       <use style="stroke:#000000;stroke-width:0.8;" x="671.805377" xlink:href="#m8fc83e3310" y="460.8"/>
      </g>
     </g>
     <g id="text_8">
      <!-- 2021-10 -->
      <g transform="translate(627.135592 500.766215)rotate(-30)scale(0.12 -0.12)">
       <use xlink:href="#DejaVuSans-50"/>
       <use x="63.623047" xlink:href="#DejaVuSans-48"/>
       <use x="127.246094" xlink:href="#DejaVuSans-50"/>
       <use x="190.869141" xlink:href="#DejaVuSans-49"/>
       <use x="254.492188" xlink:href="#DejaVuSans-45"/>
       <use x="290.576172" xlink:href="#DejaVuSans-49"/>
       <use x="354.199219" xlink:href="#DejaVuSans-48"/>
      </g>
     </g>
    </g>
    <g id="xtick_9">
     <g id="line2d_9">
      <g>
       <use style="stroke:#000000;stroke-width:0.8;" x="748.838264" xlink:href="#m8fc83e3310" y="460.8"/>
      </g>
     </g>
     <g id="text_9">
      <!-- 2022-01 -->
      <g transform="translate(704.168479 500.766215)rotate(-30)scale(0.12 -0.12)">
       <use xlink:href="#DejaVuSans-50"/>
       <use x="63.623047" xlink:href="#DejaVuSans-48"/>
       <use x="127.246094" xlink:href="#DejaVuSans-50"/>
       <use x="190.869141" xlink:href="#DejaVuSans-50"/>
       <use x="254.492188" xlink:href="#DejaVuSans-45"/>
       <use x="290.576172" xlink:href="#DejaVuSans-48"/>
       <use x="354.199219" xlink:href="#DejaVuSans-49"/>
      </g>
     </g>
    </g>
    <g id="text_10">
     <!-- Date -->
     <g transform="translate(424.873828 518.325146)scale(0.15 -0.15)">
      <defs>
       <path d="M 19.671875 64.796875 
L 19.671875 8.109375 
L 31.59375 8.109375 
Q 46.6875 8.109375 53.6875 14.9375 
Q 60.6875 21.78125 60.6875 36.53125 
Q 60.6875 51.171875 53.6875 57.984375 
Q 46.6875 64.796875 31.59375 64.796875 
z
M 9.8125 72.90625 
L 30.078125 72.90625 
Q 51.265625 72.90625 61.171875 64.09375 
Q 71.09375 55.28125 71.09375 36.53125 
Q 71.09375 17.671875 61.125 8.828125 
Q 51.171875 0 30.078125 0 
L 9.8125 0 
z
" id="DejaVuSans-68"/>
       <path d="M 34.28125 27.484375 
Q 23.390625 27.484375 19.1875 25 
Q 14.984375 22.515625 14.984375 16.5 
Q 14.984375 11.71875 18.140625 8.90625 
Q 21.296875 6.109375 26.703125 6.109375 
Q 34.1875 6.109375 38.703125 11.40625 
Q 43.21875 16.703125 43.21875 25.484375 
L 43.21875 27.484375 
z
M 52.203125 31.203125 
L 52.203125 0 
L 43.21875 0 
L 43.21875 8.296875 
Q 40.140625 3.328125 35.546875 0.953125 
Q 30.953125 -1.421875 24.3125 -1.421875 
Q 15.921875 -1.421875 10.953125 3.296875 
Q 6 8.015625 6 15.921875 
Q 6 25.140625 12.171875 29.828125 
Q 18.359375 34.515625 30.609375 34.515625 
L 43.21875 34.515625 
L 43.21875 35.40625 
Q 43.21875 41.609375 39.140625 45 
Q 35.0625 48.390625 27.6875 48.390625 
Q 23 48.390625 18.546875 47.265625 
Q 14.109375 46.140625 10.015625 43.890625 
L 10.015625 52.203125 
Q 14.9375 54.109375 19.578125 55.046875 
Q 24.21875 56 28.609375 56 
Q 40.484375 56 46.34375 49.84375 
Q 52.203125 43.703125 52.203125 31.203125 
z
" id="DejaVuSans-97"/>
       <path d="M 18.3125 70.21875 
L 18.3125 54.6875 
L 36.8125 54.6875 
L 36.8125 47.703125 
L 18.3125 47.703125 
L 18.3125 18.015625 
Q 18.3125 11.328125 20.140625 9.421875 
Q 21.96875 7.515625 27.59375 7.515625 
L 36.8125 7.515625 
L 36.8125 0 
L 27.59375 0 
Q 17.1875 0 13.234375 3.875 
Q 9.28125 7.765625 9.28125 18.015625 
L 9.28125 47.703125 
L 2.6875 47.703125 
L 2.6875 54.6875 
L 9.28125 54.6875 
L 9.28125 70.21875 
z
" id="DejaVuSans-116"/>
       <path d="M 56.203125 29.59375 
L 56.203125 25.203125 
L 14.890625 25.203125 
Q 15.484375 15.921875 20.484375 11.0625 
Q 25.484375 6.203125 34.421875 6.203125 
Q 39.59375 6.203125 44.453125 7.46875 
Q 49.3125 8.734375 54.109375 11.28125 
L 54.109375 2.78125 
Q 49.265625 0.734375 44.1875 -0.34375 
Q 39.109375 -1.421875 33.890625 -1.421875 
Q 20.796875 -1.421875 13.15625 6.1875 
Q 5.515625 13.8125 5.515625 26.8125 
Q 5.515625 40.234375 12.765625 48.109375 
Q 20.015625 56 32.328125 56 
Q 43.359375 56 49.78125 48.890625 
Q 56.203125 41.796875 56.203125 29.59375 
z
M 47.21875 32.234375 
Q 47.125 39.59375 43.09375 43.984375 
Q 39.0625 48.390625 32.421875 48.390625 
Q 24.90625 48.390625 20.390625 44.140625 
Q 15.875 39.890625 15.1875 32.171875 
z
" id="DejaVuSans-101"/>
      </defs>
      <use xlink:href="#DejaVuSans-68"/>
      <use x="77.001953" xlink:href="#DejaVuSans-97"/>
      <use x="138.28125" xlink:href="#DejaVuSans-116"/>
      <use x="177.490234" xlink:href="#DejaVuSans-101"/>
     </g>
    </g>
   </g>
   <g id="matplotlib.axis_2">
    <g id="ytick_1">
     <g id="line2d_10">
      <defs>
       <path d="M 0 0 
L -3.5 0 
" id="m7d9990713b" style="stroke:#000000;stroke-width:0.8;"/>
      </defs>
      <g>
       <use style="stroke:#000000;stroke-width:0.8;" x="108" xlink:href="#m7d9990713b" y="454.253834"/>
      </g>
     </g>
     <g id="text_11">
      <!-- 0 -->
      <g transform="translate(93.365 458.812896)scale(0.12 -0.12)">
       <use xlink:href="#DejaVuSans-48"/>
      </g>
     </g>
    </g>
    <g id="ytick_2">
     <g id="line2d_11">
      <g>
       <use style="stroke:#000000;stroke-width:0.8;" x="108" xlink:href="#m7d9990713b" y="394.034943"/>
      </g>
     </g>
     <g id="text_12">
      <!-- 20 -->
      <g transform="translate(85.73 398.594005)scale(0.12 -0.12)">
       <use xlink:href="#DejaVuSans-50"/>
       <use x="63.623047" xlink:href="#DejaVuSans-48"/>
      </g>
     </g>
    </g>
    <g id="ytick_3">
     <g id="line2d_12">
      <g>
       <use style="stroke:#000000;stroke-width:0.8;" x="108" xlink:href="#m7d9990713b" y="333.816052"/>
      </g>
     </g>
     <g id="text_13">
      <!-- 40 -->
      <g transform="translate(85.73 338.375115)scale(0.12 -0.12)">
       <use xlink:href="#DejaVuSans-52"/>
       <use x="63.623047" xlink:href="#DejaVuSans-48"/>
      </g>
     </g>
    </g>
    <g id="ytick_4">
     <g id="line2d_13">
      <g>
       <use style="stroke:#000000;stroke-width:0.8;" x="108" xlink:href="#m7d9990713b" y="273.597161"/>
      </g>
     </g>
     <g id="text_14">
      <!-- 60 -->
      <g transform="translate(85.73 278.156224)scale(0.12 -0.12)">
       <defs>
        <path d="M 33.015625 40.375 
Q 26.375 40.375 22.484375 35.828125 
Q 18.609375 31.296875 18.609375 23.390625 
Q 18.609375 15.53125 22.484375 10.953125 
Q 26.375 6.390625 33.015625 6.390625 
Q 39.65625 6.390625 43.53125 10.953125 
Q 47.40625 15.53125 47.40625 23.390625 
Q 47.40625 31.296875 43.53125 35.828125 
Q 39.65625 40.375 33.015625 40.375 
z
M 52.59375 71.296875 
L 52.59375 62.3125 
Q 48.875 64.0625 45.09375 64.984375 
Q 41.3125 65.921875 37.59375 65.921875 
Q 27.828125 65.921875 22.671875 59.328125 
Q 17.53125 52.734375 16.796875 39.40625 
Q 19.671875 43.65625 24.015625 45.921875 
Q 28.375 48.1875 33.59375 48.1875 
Q 44.578125 48.1875 50.953125 41.515625 
Q 57.328125 34.859375 57.328125 23.390625 
Q 57.328125 12.15625 50.6875 5.359375 
Q 44.046875 -1.421875 33.015625 -1.421875 
Q 20.359375 -1.421875 13.671875 8.265625 
Q 6.984375 17.96875 6.984375 36.375 
Q 6.984375 53.65625 15.1875 63.9375 
Q 23.390625 74.21875 37.203125 74.21875 
Q 40.921875 74.21875 44.703125 73.484375 
Q 48.484375 72.75 52.59375 71.296875 
z
" id="DejaVuSans-54"/>
       </defs>
       <use xlink:href="#DejaVuSans-54"/>
       <use x="63.623047" xlink:href="#DejaVuSans-48"/>
      </g>
     </g>
    </g>
    <g id="ytick_5">
     <g id="line2d_14">
      <g>
       <use style="stroke:#000000;stroke-width:0.8;" x="108" xlink:href="#m7d9990713b" y="213.378271"/>
      </g>
     </g>
     <g id="text_15">
      <!-- 80 -->
      <g transform="translate(85.73 217.937333)scale(0.12 -0.12)">
       <defs>
        <path d="M 31.78125 34.625 
Q 24.75 34.625 20.71875 30.859375 
Q 16.703125 27.09375 16.703125 20.515625 
Q 16.703125 13.921875 20.71875 10.15625 
Q 24.75 6.390625 31.78125 6.390625 
Q 38.8125 6.390625 42.859375 10.171875 
Q 46.921875 13.96875 46.921875 20.515625 
Q 46.921875 27.09375 42.890625 30.859375 
Q 38.875 34.625 31.78125 34.625 
z
M 21.921875 38.8125 
Q 15.578125 40.375 12.03125 44.71875 
Q 8.5 49.078125 8.5 55.328125 
Q 8.5 64.0625 14.71875 69.140625 
Q 20.953125 74.21875 31.78125 74.21875 
Q 42.671875 74.21875 48.875 69.140625 
Q 55.078125 64.0625 55.078125 55.328125 
Q 55.078125 49.078125 51.53125 44.71875 
Q 48 40.375 41.703125 38.8125 
Q 48.828125 37.15625 52.796875 32.3125 
Q 56.78125 27.484375 56.78125 20.515625 
Q 56.78125 9.90625 50.3125 4.234375 
Q 43.84375 -1.421875 31.78125 -1.421875 
Q 19.734375 -1.421875 13.25 4.234375 
Q 6.78125 9.90625 6.78125 20.515625 
Q 6.78125 27.484375 10.78125 32.3125 
Q 14.796875 37.15625 21.921875 38.8125 
z
M 18.3125 54.390625 
Q 18.3125 48.734375 21.84375 45.5625 
Q 25.390625 42.390625 31.78125 42.390625 
Q 38.140625 42.390625 41.71875 45.5625 
Q 45.3125 48.734375 45.3125 54.390625 
Q 45.3125 60.0625 41.71875 63.234375 
Q 38.140625 66.40625 31.78125 66.40625 
Q 25.390625 66.40625 21.84375 63.234375 
Q 18.3125 60.0625 18.3125 54.390625 
z
" id="DejaVuSans-56"/>
       </defs>
       <use xlink:href="#DejaVuSans-56"/>
       <use x="63.623047" xlink:href="#DejaVuSans-48"/>
      </g>
     </g>
    </g>
    <g id="ytick_6">
     <g id="line2d_15">
      <g>
       <use style="stroke:#000000;stroke-width:0.8;" x="108" xlink:href="#m7d9990713b" y="153.15938"/>
      </g>
     </g>
     <g id="text_16">
      <!-- 100 -->
      <g transform="translate(78.095 157.718442)scale(0.12 -0.12)">
       <use xlink:href="#DejaVuSans-49"/>
       <use x="63.623047" xlink:href="#DejaVuSans-48"/>
       <use x="127.246094" xlink:href="#DejaVuSans-48"/>
      </g>
     </g>
    </g>
    <g id="ytick_7">
     <g id="line2d_16">
      <g>
       <use style="stroke:#000000;stroke-width:0.8;" x="108" xlink:href="#m7d9990713b" y="92.940489"/>
      </g>
     </g>
     <g id="text_17">
      <!-- 120 -->
      <g transform="translate(78.095 97.499551)scale(0.12 -0.12)">
       <use xlink:href="#DejaVuSans-49"/>
       <use x="63.623047" xlink:href="#DejaVuSans-50"/>
       <use x="127.246094" xlink:href="#DejaVuSans-48"/>
      </g>
     </g>
    </g>
    <g id="text_18">
     <!-- NO2(ppm) -->
     <g transform="translate(70.975469 303.927188)rotate(-90)scale(0.15 -0.15)">
      <defs>
       <path d="M 9.8125 72.90625 
L 23.09375 72.90625 
L 55.421875 11.921875 
L 55.421875 72.90625 
L 64.984375 72.90625 
L 64.984375 0 
L 51.703125 0 
L 19.390625 60.984375 
L 19.390625 0 
L 9.8125 0 
z
" id="DejaVuSans-78"/>
       <path d="M 39.40625 66.21875 
Q 28.65625 66.21875 22.328125 58.203125 
Q 16.015625 50.203125 16.015625 36.375 
Q 16.015625 22.609375 22.328125 14.59375 
Q 28.65625 6.59375 39.40625 6.59375 
Q 50.140625 6.59375 56.421875 14.59375 
Q 62.703125 22.609375 62.703125 36.375 
Q 62.703125 50.203125 56.421875 58.203125 
Q 50.140625 66.21875 39.40625 66.21875 
z
M 39.40625 74.21875 
Q 54.734375 74.21875 63.90625 63.9375 
Q 73.09375 53.65625 73.09375 36.375 
Q 73.09375 19.140625 63.90625 8.859375 
Q 54.734375 -1.421875 39.40625 -1.421875 
Q 24.03125 -1.421875 14.8125 8.828125 
Q 5.609375 19.09375 5.609375 36.375 
Q 5.609375 53.65625 14.8125 63.9375 
Q 24.03125 74.21875 39.40625 74.21875 
z
" id="DejaVuSans-79"/>
       <path d="M 31 75.875 
Q 24.46875 64.65625 21.28125 53.65625 
Q 18.109375 42.671875 18.109375 31.390625 
Q 18.109375 20.125 21.3125 9.0625 
Q 24.515625 -2 31 -13.1875 
L 23.1875 -13.1875 
Q 15.875 -1.703125 12.234375 9.375 
Q 8.59375 20.453125 8.59375 31.390625 
Q 8.59375 42.28125 12.203125 53.3125 
Q 15.828125 64.359375 23.1875 75.875 
z
" id="DejaVuSans-40"/>
       <path d="M 18.109375 8.203125 
L 18.109375 -20.796875 
L 9.078125 -20.796875 
L 9.078125 54.6875 
L 18.109375 54.6875 
L 18.109375 46.390625 
Q 20.953125 51.265625 25.265625 53.625 
Q 29.59375 56 35.59375 56 
Q 45.5625 56 51.78125 48.09375 
Q 58.015625 40.1875 58.015625 27.296875 
Q 58.015625 14.40625 51.78125 6.484375 
Q 45.5625 -1.421875 35.59375 -1.421875 
Q 29.59375 -1.421875 25.265625 0.953125 
Q 20.953125 3.328125 18.109375 8.203125 
z
M 48.6875 27.296875 
Q 48.6875 37.203125 44.609375 42.84375 
Q 40.53125 48.484375 33.40625 48.484375 
Q 26.265625 48.484375 22.1875 42.84375 
Q 18.109375 37.203125 18.109375 27.296875 
Q 18.109375 17.390625 22.1875 11.75 
Q 26.265625 6.109375 33.40625 6.109375 
Q 40.53125 6.109375 44.609375 11.75 
Q 48.6875 17.390625 48.6875 27.296875 
z
" id="DejaVuSans-112"/>
       <path d="M 52 44.1875 
Q 55.375 50.25 60.0625 53.125 
Q 64.75 56 71.09375 56 
Q 79.640625 56 84.28125 50.015625 
Q 88.921875 44.046875 88.921875 33.015625 
L 88.921875 0 
L 79.890625 0 
L 79.890625 32.71875 
Q 79.890625 40.578125 77.09375 44.375 
Q 74.3125 48.1875 68.609375 48.1875 
Q 61.625 48.1875 57.5625 43.546875 
Q 53.515625 38.921875 53.515625 30.90625 
L 53.515625 0 
L 44.484375 0 
L 44.484375 32.71875 
Q 44.484375 40.625 41.703125 44.40625 
Q 38.921875 48.1875 33.109375 48.1875 
Q 26.21875 48.1875 22.15625 43.53125 
Q 18.109375 38.875 18.109375 30.90625 
L 18.109375 0 
L 9.078125 0 
L 9.078125 54.6875 
L 18.109375 54.6875 
L 18.109375 46.1875 
Q 21.1875 51.21875 25.484375 53.609375 
Q 29.78125 56 35.6875 56 
Q 41.65625 56 45.828125 52.96875 
Q 50 49.953125 52 44.1875 
z
" id="DejaVuSans-109"/>
       <path d="M 8.015625 75.875 
L 15.828125 75.875 
Q 23.140625 64.359375 26.78125 53.3125 
Q 30.421875 42.28125 30.421875 31.390625 
Q 30.421875 20.453125 26.78125 9.375 
Q 23.140625 -1.703125 15.828125 -13.1875 
L 8.015625 -13.1875 
Q 14.5 -2 17.703125 9.0625 
Q 20.90625 20.125 20.90625 31.390625 
Q 20.90625 42.671875 17.703125 53.65625 
Q 14.5 64.65625 8.015625 75.875 
z
" id="DejaVuSans-41"/>
      </defs>
      <use xlink:href="#DejaVuSans-78"/>
      <use x="74.804688" xlink:href="#DejaVuSans-79"/>
      <use x="153.515625" xlink:href="#DejaVuSans-50"/>
      <use x="217.138672" xlink:href="#DejaVuSans-40"/>
      <use x="256.152344" xlink:href="#DejaVuSans-112"/>
      <use x="319.628906" xlink:href="#DejaVuSans-112"/>
      <use x="383.105469" xlink:href="#DejaVuSans-109"/>
      <use x="480.517578" xlink:href="#DejaVuSans-41"/>
     </g>
    </g>
   </g>
   <g id="line2d_17">
    <path clip-path="url(#p5f002c7858)" d="M 138.436364 211.115596 
L 139.273678 282.896413 
L 140.110992 292.917581 
L 140.948306 238.312304 
L 141.78562 209.09194 
L 142.622934 266.898211 
L 143.460248 246.317301 
L 144.297562 230.236549 
L 145.134876 235.250876 
L 145.97219 213.10859 
L 147.646818 277.129702 
L 148.484132 266.778026 
L 149.321446 263.980656 
L 150.15876 234.901807 
L 150.996074 272.773417 
L 151.833388 250.555657 
L 152.670702 253.072255 
L 153.508016 235.35937 
L 154.345329 264.001883 
L 155.182643 273.426742 
L 156.019957 312.35971 
L 156.857271 340.039925 
L 157.694585 306.168455 
L 158.531899 295.998288 
L 159.369213 281.153428 
L 160.206527 286.736171 
L 161.043841 258.136112 
L 161.881155 288.233865 
L 162.718469 290.733952 
L 163.555783 244.364403 
L 164.393097 307.998708 
L 165.230411 332.51136 
L 166.067725 350.471895 
L 166.905039 307.824174 
L 167.742353 336.037427 
L 168.579667 338.21439 
L 169.416981 335.766191 
L 170.254295 285.776231 
L 171.091609 295.578462 
L 171.928923 291.097172 
L 172.766237 322.610069 
L 173.603551 337.799281 
L 174.440865 358.785865 
L 175.278179 302.498515 
L 176.115493 299.793232 
L 176.952807 273.613069 
L 177.790121 256.607756 
L 178.627435 266.325078 
L 179.464749 231.510179 
L 180.302063 328.525371 
L 181.139377 319.855256 
L 181.976691 281.577971 
L 182.814005 293.578391 
L 183.651319 326.638512 
L 184.488633 281.342114 
L 185.325947 257.678548 
L 186.163261 263.487714 
L 187.000575 312.354993 
L 187.837889 330.030141 
L 188.675203 293.734057 
L 189.512517 315.088579 
L 190.349831 320.668963 
L 191.187145 293.314231 
L 192.024459 316.871661 
L 192.861773 313.357386 
L 193.699087 247.489512 
L 194.536401 293.540654 
L 195.373715 270.528055 
L 196.211029 262.121588 
L 197.048343 245.430273 
L 197.885657 276.903279 
L 198.722971 317.753767 
L 199.560285 256.952108 
L 200.397599 227.811936 
L 201.234913 219.68901 
L 202.072227 261.199898 
L 202.909541 266.80151 
L 203.746855 284.200704 
L 204.584169 279.292513 
L 205.421483 343.729603 
L 206.258797 304.50802 
L 207.096111 283.353977 
L 207.933425 302.479647 
L 208.770739 278.610886 
L 209.608053 344.811319 
L 210.445367 315.866908 
L 211.282681 307.406706 
L 212.119995 308.748734 
L 212.957309 299.170569 
L 213.794623 304.460848 
L 214.631937 279.117979 
L 215.469251 304.250935 
L 217.143879 265.374573 
L 217.981193 208.764098 
L 218.818507 219.448435 
L 219.655821 278.219363 
L 220.493135 247.607441 
L 221.330449 258.499332 
L 222.167763 194.34614 
L 223.005077 186.357653 
L 223.842391 163.559684 
L 225.517019 287.106467 
L 226.354333 262.030116 
L 227.191647 314.298457 
L 228.028961 325.879052 
L 228.866275 341.681492 
L 229.703589 322.985082 
L 230.540903 284.30684 
L 231.378217 270.282764 
L 232.215531 224.618428 
L 233.052845 140.131976 
L 233.890159 135.11765 
L 234.727473 238.401929 
L 236.402101 269.119987 
L 237.239415 308.604861 
L 238.076729 308.003425 
L 238.914043 322.169016 
L 239.751357 342.426801 
L 240.588671 358.417928 
L 241.425985 367.889958 
L 242.263299 373.713275 
L 243.100613 378.114373 
L 243.937927 372.814659 
L 244.775241 345.389169 
L 245.612555 280.294907 
L 246.449869 169.17073 
L 248.124497 329.598522 
L 248.961811 336.782736 
L 249.799125 336.240674 
L 250.636439 335.447783 
L 251.473753 248.786727 
L 252.311067 281.842131 
L 253.148381 342.04943 
L 253.985695 327.926293 
L 254.823009 276.915072 
L 256.497637 322.055805 
L 257.334951 304.939639 
L 258.172265 311.666289 
L 259.009579 222.908462 
L 259.846893 288.193769 
L 260.684207 327.631472 
L 261.521521 321.725604 
L 262.358835 380.78728 
L 263.196149 379.609708 
L 264.033463 342.669734 
L 264.870777 352.887074 
L 265.708091 354.587605 
L 266.545405 357.467423 
L 267.382719 332.247199 
L 268.220033 343.073051 
L 269.057347 362.689304 
L 269.89466 370.953745 
L 270.731974 375.765234 
L 271.569288 343.519495 
L 272.406602 322.180809 
L 273.243916 342.006975 
L 274.08123 367.055023 
L 274.918544 354.196082 
L 275.755858 357.512133 
L 276.593172 344.582537 
L 277.430486 351.745524 
L 278.2678 350.705393 
L 279.105114 360.543002 
L 279.942428 377.494068 
L 280.779742 365.790828 
L 281.617056 358.81181 
L 282.45437 360.531209 
L 283.291684 378.352589 
L 284.128998 383.423521 
L 284.966312 360.627911 
L 285.803626 358.394342 
L 286.64094 354.881079 
L 287.478254 344.981136 
L 288.315568 361.071323 
L 289.152882 352.160633 
L 289.990196 349.754888 
L 290.82751 368.790933 
L 291.664824 361.807198 
L 292.502138 353.618231 
L 293.339452 363.944065 
L 294.176766 371.722639 
L 295.01408 368.908862 
L 295.851394 378.737036 
L 296.688708 368.800367 
L 297.526022 372.430211 
L 299.20065 329.405119 
L 300.037964 333.289689 
L 300.875278 366.96068 
L 301.712592 373.128349 
L 302.549906 376.873763 
L 303.38722 371.581125 
L 304.224534 359.252145 
L 305.061848 335.129376 
L 305.899162 345.792485 
L 306.736476 345.931641 
L 307.57379 338.167218 
L 308.411104 350.030842 
L 309.248418 367.715424 
L 310.085732 371.248566 
L 310.923046 366.868696 
L 311.76036 354.196082 
L 312.597674 356.597109 
L 313.434988 382.312633 
L 314.272302 396.415615 
L 315.109616 377.916253 
L 315.94693 338.377131 
L 316.784244 347.009509 
L 317.621558 360.410922 
L 318.458872 383.977786 
L 319.296186 389.315237 
L 320.1335 373.217975 
L 320.970814 369.118775 
L 321.808128 353.236143 
L 322.645442 370.413631 
L 323.482756 355.896613 
L 324.32007 355.266874 
L 325.157384 352.824403 
L 325.994698 346.908091 
L 326.832012 371.812265 
L 327.669326 372.293414 
L 328.50664 310.239353 
L 329.343954 374.56472 
L 330.181268 366.672934 
L 331.018582 305.984487 
L 331.855896 303.06929 
L 332.69321 336.098749 
L 333.530524 307.140187 
L 334.367838 312.102626 
L 335.205152 319.772706 
L 336.042466 262.077287 
L 336.87978 224.078314 
L 337.717094 231.75547 
L 338.554408 267.542102 
L 339.391722 280.445856 
L 340.229036 203.622409 
L 342.740978 295.507704 
L 343.578292 306.621301 
L 344.415606 297.05257 
L 345.25292 338.124764 
L 346.090234 336.143562 
L 346.927548 300.812136 
L 347.764862 314.793758 
L 348.602176 343.716941 
L 349.43949 291.54766 
L 350.276804 314.737152 
L 351.114118 332.020776 
L 351.951432 362.79544 
L 352.788746 387.213748 
L 353.62606 372.909002 
L 354.463374 373.769881 
L 355.300688 370.434858 
L 356.138002 348.818535 
L 356.975316 354.592322 
L 357.81263 335.454859 
L 358.649944 330.190524 
L 359.487258 259.400307 
L 360.324572 276.662704 
L 361.161886 329.348513 
L 361.9992 359.83543 
L 362.836514 274.990476 
L 363.673828 325.35309 
L 364.511142 309.501119 
L 365.348456 334.735494 
L 366.18577 336.299228 
L 367.023084 318.836352 
L 367.860398 250.282063 
L 368.697712 315.940024 
L 369.535026 276.27354 
L 370.37234 279.917535 
L 371.209654 275.509362 
L 372.046968 236.623565 
L 372.884282 230.776662 
L 373.721596 247.482436 
L 374.55891 197.126898 
L 375.396224 382.015453 
L 376.233538 337.973815 
L 377.070852 324.801184 
L 377.908166 246.579103 
L 378.74548 282.264316 
L 379.582794 280.278397 
L 380.420108 266.997271 
L 381.257422 260.350812 
L 382.094736 241.729876 
L 382.93205 230.290796 
L 383.769364 207.672079 
L 384.606678 208.162662 
L 385.443991 273.129562 
L 386.281305 274.6532 
L 387.118619 267.070387 
L 387.955933 254.768069 
L 388.793247 279.169868 
L 389.630561 259.638523 
L 390.467875 285.49792 
L 392.142503 214.903464 
L 392.979817 248.652289 
L 393.817131 274.532913 
L 394.654445 281.330321 
L 395.491759 206.011643 
L 396.329073 223.932083 
L 397.166387 216.905893 
L 398.003701 208.325404 
L 398.841015 167.312174 
L 399.678329 208.87731 
L 400.515643 205.955038 
L 401.352957 175.987006 
L 402.190271 234.279143 
L 403.027585 260.544215 
L 403.864899 274.06048 
L 404.702213 319.665032 
L 405.539527 293.502917 
L 406.376841 293.248191 
L 407.214155 292.113717 
L 408.051469 325.475736 
L 408.888783 283.080382 
L 409.726097 300.965443 
L 410.563411 239.383096 
L 411.400725 256.893144 
L 412.238039 206.155516 
L 413.912667 244.854986 
L 414.749981 243.508241 
L 415.587295 253.040178 
L 417.261923 228.472336 
L 418.099237 260.08901 
L 418.936551 245.777188 
L 419.773865 226.54774 
L 420.611179 196.872172 
L 421.448493 151.998901 
L 422.285807 197.758996 
L 423.123121 187.808175 
L 423.960435 172.352445 
L 424.797749 178.128376 
L 425.635063 203.881647 
L 426.472377 252.585396 
L 427.309691 263.914616 
L 428.147005 286.203133 
L 428.984319 278.962313 
L 429.821633 284.940867 
L 431.496261 251.850514 
L 432.333575 232.96306 
L 433.170889 199.634061 
L 434.845517 116.220761 
L 435.682831 229.201135 
L 437.357459 274.86783 
L 438.194773 102.734439 
L 439.032087 203.313436 
L 439.869401 191.452171 
L 440.706715 240.522287 
L 441.544029 256.180854 
L 442.381343 264.326622 
L 443.218657 208.598998 
L 444.055971 165.437108 
L 444.893285 145.610942 
L 445.730599 103.814666 
L 446.567913 216.799757 
L 447.405227 233.746106 
L 448.242541 268.362885 
L 449.079855 259.397948 
L 449.917169 233.385244 
L 450.754483 236.83112 
L 451.591797 197.039631 
L 452.429111 131.466578 
L 453.266425 86.923636 
L 454.103739 111.528123 
L 454.941053 144.054283 
L 455.778367 208.16545 
L 456.615681 203.248182 
L 457.452995 234.589189 
L 458.290309 229.121955 
L 459.127623 126.777735 
L 459.964937 182.050898 
L 460.802251 101.263161 
L 461.639565 219.957887 
L 463.314193 144.563735 
L 464.151507 229.11151 
L 464.988821 217.19128 
L 465.826135 251.397668 
L 466.663449 266.405269 
L 467.500763 238.371268 
L 468.338077 235.121154 
L 469.175391 223.983971 
L 470.012705 274.365454 
L 470.850019 236.213174 
L 471.687333 253.093482 
L 472.524647 202.558692 
L 473.361961 260.551291 
L 474.199275 278.971747 
L 475.036589 321.081714 
L 475.873903 329.997121 
L 476.711217 313.251251 
L 477.548531 289.559383 
L 478.385845 304.314617 
L 479.223159 253.381228 
L 480.060473 273.695619 
L 480.897787 283.311522 
L 481.735101 284.861105 
L 482.572415 280.004803 
L 483.409729 274.27347 
L 484.247043 211.202863 
L 485.084357 232.333321 
L 485.921671 249.371654 
L 486.758985 291.79531 
L 487.596299 324.749295 
L 488.433613 314.50837 
L 489.270927 294.587861 
L 490.108241 329.530123 
L 490.945555 315.454158 
L 491.782869 268.141179 
L 492.620183 281.735995 
L 493.457497 312.451694 
L 494.294811 284.875256 
L 495.969439 298.764894 
L 496.806753 307.390196 
L 497.644067 345.86796 
L 498.481381 288.047537 
L 499.318695 314.713566 
L 500.156009 325.143177 
L 500.993322 250.437729 
L 501.830636 304.750953 
L 502.66795 330.921681 
L 503.505264 307.222738 
L 504.342578 292.281176 
L 505.179892 301.944251 
L 506.017206 349.764323 
L 506.85452 332.97364 
L 507.691834 301.236679 
L 508.529148 312.163948 
L 509.366462 254.911942 
L 510.203776 236.949048 
L 511.04109 117.621753 
L 511.878404 258.032334 
L 512.715718 312.031868 
L 513.553032 282.27375 
L 514.390346 292.981672 
L 515.22766 354.309293 
L 516.064974 364.31672 
L 516.902288 363.880383 
L 517.739602 358.946248 
L 518.576916 341.129586 
L 519.41423 335.301552 
L 520.251544 303.484399 
L 521.088858 296.253013 
L 521.926172 293.420367 
L 522.763486 351.000215 
L 523.6008 301.425365 
L 524.438114 308.097768 
L 525.275428 329.1386 
L 526.112742 335.669489 
L 526.950056 309.564801 
L 527.78737 305.276915 
L 528.624684 337.485591 
L 529.461998 355.094698 
L 530.299312 339.563494 
L 531.136626 285.559242 
L 531.97394 323.704447 
L 532.811254 320.364708 
L 533.648568 336.872362 
L 534.485882 319.711383 
L 535.323196 276.287691 
L 536.16051 267.292093 
L 536.997824 340.931466 
L 537.835138 338.716766 
L 538.672452 353.936639 
L 539.509766 334.259062 
L 540.34708 322.727998 
L 541.184394 282.910565 
L 542.021708 221.73861 
L 542.859022 233.628177 
L 543.696336 293.097243 
L 544.53365 338.19788 
L 545.370964 330.80847 
L 546.208278 216.830419 
L 547.045592 321.593524 
L 547.882906 291.163212 
L 548.72022 323.680861 
L 549.557534 347.014226 
L 550.394848 358.191505 
L 551.232162 363.793116 
L 552.069476 372.986835 
L 552.90679 375.642588 
L 553.744104 366.757843 
L 554.581418 363.70349 
L 555.418732 368.673004 
L 556.256046 369.873518 
L 557.09336 373.196748 
L 557.930674 369.642378 
L 558.767988 367.09276 
L 559.605302 380.958812 
L 560.442616 370.123527 
L 561.27993 373.503362 
L 562.117244 352.354036 
L 562.954558 352.06629 
L 563.791872 366.592743 
L 564.629186 361.828425 
L 565.4665 329.324927 
L 566.303814 374.11895 
L 567.141128 376.64734 
L 568.815756 340.591831 
L 569.65307 342.54473 
L 570.490384 368.66357 
L 571.327698 305.347672 
L 572.165012 212.080252 
L 573.002326 251.067468 
L 573.83964 328.681037 
L 574.676954 313.968257 
L 575.514268 342.886723 
L 576.351582 386.687787 
L 577.188896 381.322032 
L 578.02621 384.588656 
L 578.863524 382.291406 
L 579.700838 377.798324 
L 580.538152 357.738659 
L 581.375466 371.949062 
L 582.21278 365.670541 
L 583.050094 361.590209 
L 583.887408 341.273459 
L 584.724722 341.082415 
L 585.562036 332.258992 
L 586.39935 301.642353 
L 587.236664 287.139487 
L 588.073978 318.848145 
L 588.911292 302.385304 
L 590.58592 368.875842 
L 591.423234 351.38938 
L 592.260548 367.606929 
L 593.097862 354.712609 
L 593.935176 352.184219 
L 594.77249 353.130007 
L 595.609804 357.849083 
L 596.447118 357.366004 
L 597.284432 397.589112 
L 598.121746 400.768469 
L 598.95906 379.864434 
L 599.796374 369.10934 
L 600.633688 345.790127 
L 601.471002 374.640195 
L 602.308316 389.020415 
L 603.14563 365.738939 
L 603.982944 349.160528 
L 604.820258 350.200659 
L 605.657572 365.812055 
L 606.494886 320.567545 
L 607.3322 322.477989 
L 608.169514 367.814484 
L 609.006828 376.843102 
L 609.844142 365.120993 
L 610.681456 349.844514 
L 611.51877 337.032744 
L 612.356084 242.095455 
L 613.193398 234.022059 
L 614.030712 264.249533 
L 614.868026 299.861631 
L 615.70534 227.224651 
L 616.542653 271.976219 
L 617.379967 281.514289 
L 618.217281 308.699204 
L 619.054595 310.366716 
L 619.891909 287.915457 
L 620.729223 282.103933 
L 621.566537 329.548992 
L 622.403851 217.037973 
L 623.241165 250.841045 
L 624.078479 254.624196 
L 624.915793 268.610535 
L 625.753107 311.237029 
L 626.590421 341.981031 
L 627.427735 358.49037 
L 628.265049 346.768935 
L 629.102363 341.271101 
L 629.939677 337.016234 
L 630.776991 333.476016 
L 631.614305 352.988492 
L 632.451619 345.58729 
L 633.288933 334.376991 
L 634.126247 328.964065 
L 634.963561 310.166237 
L 635.800875 335.586939 
L 636.638189 348.228892 
L 637.475503 364.257755 
L 638.312817 366.010175 
L 639.150131 365.444118 
L 639.987445 370.007957 
L 640.824759 361.979373 
L 642.499387 331.36981 
L 643.336701 356.573524 
L 644.174015 354.722044 
L 645.011329 309.088369 
L 645.848643 366.767277 
L 646.685957 374.989263 
L 647.523271 353.299824 
L 648.360585 366.319148 
L 649.197899 371.413666 
L 650.035213 325.84839 
L 650.872527 353.181895 
L 651.709841 358.429721 
L 652.547155 292.561846 
L 653.384469 314.369214 
L 654.221783 301.840473 
L 655.059097 264.971257 
L 655.896411 285.408294 
L 656.733725 342.292363 
L 657.571039 303.805165 
L 658.408353 280.33972 
L 659.245667 285.540374 
L 660.082981 328.032429 
L 660.920295 393.584255 
L 662.594923 338.558741 
L 663.432237 376.550639 
L 664.269551 378.833738 
L 665.106865 376.248741 
L 665.944179 351.993174 
L 666.781493 286.941366 
L 667.618807 267.134068 
L 668.456121 233.75554 
L 669.293435 241.708649 
L 670.130749 240.416151 
L 670.968063 271.459692 
L 671.805377 307.666149 
L 672.642691 364.125675 
L 673.480005 343.334852 
L 674.317319 340.523433 
L 675.154633 322.539312 
L 676.829261 390.454428 
L 677.666575 442.996364 
L 678.503889 373.267505 
L 679.341203 283.236048 
L 680.178517 323.869547 
L 681.015831 411.636774 
L 681.853145 352.521495 
L 682.690459 316.241922 
L 683.527773 315.326795 
L 684.365087 334.476051 
L 685.202401 309.965758 
L 686.039715 278.308988 
L 686.877029 325.268181 
L 687.714343 324.034647 
L 688.551657 324.119556 
L 689.388971 315.730111 
L 690.226285 311.404488 
L 691.063599 292.417973 
L 691.900913 230.422876 
L 692.738227 268.782711 
L 693.575541 286.688999 
L 694.412855 296.859167 
L 695.250169 312.678117 
L 696.087483 317.803297 
L 696.924797 295.290716 
L 697.762111 331.843883 
L 698.599425 309.791224 
L 699.436739 327.879122 
L 700.274053 303.611762 
L 701.111367 300.286174 
L 701.948681 320.407162 
L 702.785995 322.602994 
L 703.623309 266.568011 
L 704.460623 290.30705 
L 705.297937 222.500429 
L 706.135251 265.652884 
L 706.972565 283.122836 
L 707.809879 290.545266 
L 708.647193 252.841115 
L 709.484507 210.080182 
L 710.321821 212.707633 
L 711.159135 254.812062 
L 711.996449 245.979102 
L 712.833763 318.926696 
L 713.671077 303.891714 
L 714.508391 305.826155 
L 715.345705 288.657382 
L 717.020333 190.212587 
L 718.694961 208.720208 
L 719.532275 216.325069 
L 720.369589 230.136874 
L 721.206903 220.553273 
L 722.044217 259.827824 
L 722.881531 240.862434 
L 723.718845 227.663448 
L 724.556159 237.350416 
L 725.393473 224.075135 
L 726.230787 208.656219 
L 727.068101 189.29037 
L 727.905415 266.765721 
L 728.742729 238.145358 
L 729.580043 226.974335 
L 730.417357 237.377488 
L 731.254671 245.2703 
L 732.091984 221.166092 
L 732.929298 181.918613 
L 734.603926 268.778917 
L 735.44124 269.751059 
L 736.278554 256.387178 
L 737.115868 262.633501 
L 737.953182 271.553606 
L 738.790496 308.567842 
L 739.62781 256.333034 
L 740.465124 249.333609 
L 741.302438 194.950243 
L 742.139752 271.308948 
L 742.977066 336.260363 
L 743.81438 327.66121 
L 745.489008 244.866676 
L 746.326322 247.888931 
L 747.163636 254.706233 
L 747.163636 254.706233 
" style="fill:none;stroke:#1f77b4;stroke-linecap:square;stroke-width:1.5;"/>
   </g>
   <g id="line2d_18">
    <path clip-path="url(#p5f002c7858)" d="M 138.436364 249.504896 
L 139.273678 289.857323 
L 140.110992 258.38862 
L 140.948306 244.718539 
L 141.78562 277.53089 
L 142.622934 279.880503 
L 143.460248 216.228804 
L 144.297562 256.727492 
L 145.134876 281.554346 
L 145.97219 260.046211 
L 147.646818 289.694844 
L 148.484132 246.654707 
L 149.321446 279.267021 
L 150.15876 202.866382 
L 150.996074 289.369531 
L 151.833388 204.134649 
L 152.670702 195.790116 
L 153.508016 272.329699 
L 154.345329 237.618841 
L 155.182643 284.832761 
L 156.019957 295.718479 
L 156.857271 304.670165 
L 157.694585 243.164619 
L 158.531899 235.472068 
L 159.369213 251.06357 
L 160.206527 246.395862 
L 161.043841 217.18732 
L 161.881155 251.79832 
L 162.718469 214.848987 
L 163.555783 196.15061 
L 164.393097 265.542037 
L 165.230411 268.194371 
L 166.067725 291.382459 
L 166.905039 259.870707 
L 167.742353 269.56261 
L 168.579667 291.501751 
L 169.416981 288.860065 
L 170.254295 246.52455 
L 171.091609 277.296854 
L 171.928923 250.830752 
L 172.766237 260.089536 
L 173.603551 273.585733 
L 174.440865 293.753539 
L 175.278179 268.13438 
L 176.952807 241.161833 
L 177.790121 290.972725 
L 178.627435 241.767275 
L 179.464749 241.425272 
L 180.302063 287.192642 
L 181.139377 291.240253 
L 181.976691 249.592854 
L 182.814005 316.144855 
L 183.651319 318.675059 
L 184.488633 265.095341 
L 185.325947 246.222816 
L 186.163261 281.094326 
L 187.000575 280.039673 
L 187.837889 287.238161 
L 188.675203 232.522849 
L 189.512517 280.193262 
L 190.349831 290.72965 
L 191.187145 236.135651 
L 192.024459 250.010939 
L 192.861773 280.639384 
L 193.699087 256.046933 
L 194.536401 265.922839 
L 195.373715 253.666446 
L 196.211029 222.352549 
L 197.048343 246.725942 
L 197.885657 296.718402 
L 198.722971 292.789188 
L 199.560285 205.560708 
L 200.397599 211.618387 
L 201.234913 238.459674 
L 202.072227 255.122276 
L 202.909541 230.796619 
L 203.746855 227.45116 
L 204.584169 263.9811 
L 205.421483 321.757572 
L 206.258797 283.083525 
L 207.096111 284.465903 
L 207.933425 263.285873 
L 208.770739 273.556019 
L 209.608053 285.829905 
L 210.445367 278.393143 
L 211.282681 266.537308 
L 212.119995 271.157166 
L 212.957309 238.832022 
L 213.794623 264.379279 
L 215.469251 281.378589 
L 217.143879 241.48153 
L 217.981193 206.986905 
L 218.818507 196.953195 
L 219.655821 289.886417 
L 220.493135 288.842572 
L 221.330449 223.356733 
L 222.167763 223.302911 
L 223.005077 202.96539 
L 223.842391 165.602612 
L 224.679705 281.755578 
L 225.517019 197.366502 
L 226.354333 251.629662 
L 227.191647 233.105962 
L 228.028961 294.413194 
L 228.866275 310.927652 
L 229.703589 306.002914 
L 230.540903 258.541589 
L 231.378217 218.383226 
L 232.215531 206.148048 
L 233.052845 187.658209 
L 233.890159 180.938991 
L 235.564787 318.022526 
L 236.402101 201.277614 
L 237.239415 273.272296 
L 238.076729 254.923342 
L 238.914043 333.820669 
L 239.751357 330.937838 
L 240.588671 313.124951 
L 241.425985 336.837139 
L 242.263299 296.180716 
L 243.100613 361.313663 
L 243.937927 247.76486 
L 244.775241 315.138212 
L 245.612555 290.870064 
L 246.449869 319.134608 
L 247.287183 172.167552 
L 248.124497 282.371632 
L 248.961811 356.490138 
L 249.799125 202.138226 
L 250.636439 303.325173 
L 251.473753 268.558966 
L 252.311067 252.832252 
L 253.148381 287.891165 
L 253.985695 275.415646 
L 254.823009 276.302904 
L 255.660323 253.343326 
L 256.497637 260.112071 
L 257.334951 261.118116 
L 258.172265 309.230194 
L 259.009579 271.85098 
L 259.846893 206.153194 
L 260.684207 266.594014 
L 261.521521 275.335394 
L 262.358835 333.463701 
L 263.196149 291.816165 
L 264.033463 301.833369 
L 264.870777 280.432064 
L 266.545405 339.413585 
L 267.382719 283.904475 
L 268.220033 300.498829 
L 269.057347 253.647448 
L 269.89466 278.275092 
L 270.731974 241.893596 
L 271.569288 358.844936 
L 272.406602 293.985346 
L 273.243916 327.639483 
L 274.08123 326.09543 
L 274.918544 260.190014 
L 275.755858 343.841125 
L 276.593172 272.745854 
L 277.430486 359.366348 
L 278.2678 342.020056 
L 279.105114 356.539561 
L 279.942428 363.423543 
L 280.779742 359.587708 
L 281.617056 366.30375 
L 282.45437 367.565746 
L 283.291684 288.435192 
L 284.128998 348.327517 
L 284.966312 273.074062 
L 285.803626 345.390105 
L 286.64094 311.522504 
L 287.478254 309.310147 
L 288.315568 324.385923 
L 289.152882 300.19473 
L 289.990196 317.823533 
L 290.82751 302.462506 
L 291.664824 342.78097 
L 292.502138 288.379348 
L 293.339452 303.126606 
L 294.176766 351.539694 
L 295.01408 300.344781 
L 295.851394 326.569186 
L 296.688708 286.202321 
L 297.526022 342.977918 
L 298.363336 313.371724 
L 299.20065 333.466446 
L 300.037964 371.859274 
L 300.875278 336.575962 
L 301.712592 380.669253 
L 302.549906 336.348336 
L 303.38722 353.757541 
L 304.224534 356.765878 
L 305.061848 280.538745 
L 305.899162 359.385408 
L 306.736476 296.500355 
L 307.57379 348.195901 
L 308.411104 359.474085 
L 309.248418 353.188234 
L 310.085732 356.263786 
L 310.923046 334.273705 
L 311.76036 370.18206 
L 312.597674 351.225303 
L 313.434988 367.8976 
L 314.272302 290.408575 
L 315.109616 320.041805 
L 315.94693 280.779132 
L 316.784244 266.02798 
L 317.621558 293.154805 
L 318.458872 300.277256 
L 319.296186 326.59859 
L 320.1335 302.440741 
L 320.970814 364.879862 
L 321.808128 330.112557 
L 322.645442 334.221537 
L 323.482756 311.013957 
L 324.32007 270.784864 
L 325.157384 312.238853 
L 325.994698 332.158737 
L 326.832012 308.119685 
L 327.669326 373.264429 
L 328.50664 223.025114 
L 329.343954 304.506458 
L 330.181268 315.51156 
L 331.018582 307.375173 
L 331.855896 297.702969 
L 332.69321 370.925199 
L 333.530524 274.964516 
L 334.367838 318.596875 
L 335.205152 310.106989 
L 336.042466 311.851975 
L 336.87978 236.514271 
L 337.717094 294.902514 
L 338.554408 323.470318 
L 339.391722 286.161076 
L 340.229036 278.607998 
L 342.740978 273.288238 
L 343.578292 330.690111 
L 344.415606 308.697205 
L 345.25292 321.910414 
L 346.090234 252.359702 
L 346.927548 273.08348 
L 347.764862 248.61031 
L 348.602176 308.547361 
L 349.43949 312.402687 
L 350.276804 264.021484 
L 351.114118 335.041718 
L 351.951432 289.579239 
L 352.788746 264.450469 
L 353.62606 349.855479 
L 354.463374 279.484425 
L 355.300688 301.903008 
L 356.138002 301.053205 
L 356.975316 338.254629 
L 357.81263 243.381127 
L 358.649944 318.649021 
L 359.487258 291.342109 
L 360.324572 234.993453 
L 361.161886 330.2232 
L 361.9992 279.358023 
L 362.836514 280.577992 
L 363.673828 300.652361 
L 364.511142 261.946394 
L 365.348456 323.401426 
L 366.18577 274.076845 
L 367.023084 334.878986 
L 367.860398 276.227729 
L 368.697712 239.564106 
L 369.535026 270.231936 
L 370.37234 276.41094 
L 371.209654 276.152003 
L 372.046968 274.690958 
L 372.884282 255.000641 
L 373.721596 294.932859 
L 374.55891 256.150443 
L 375.396224 327.492602 
L 376.233538 269.998934 
L 377.070852 268.317235 
L 377.908166 298.0312 
L 378.74548 293.642011 
L 379.582794 282.389906 
L 380.420108 279.528806 
L 381.257422 256.612289 
L 382.094736 267.615082 
L 382.93205 248.497404 
L 383.769364 238.642436 
L 384.606678 200.259992 
L 385.443991 234.058552 
L 386.281305 275.74228 
L 387.118619 250.380462 
L 387.955933 262.37554 
L 388.793247 252.993399 
L 389.630561 236.788254 
L 390.467875 283.598366 
L 391.305189 221.63666 
L 392.142503 271.355079 
L 392.979817 231.815229 
L 393.817131 257.551371 
L 394.654445 263.340615 
L 395.491759 272.424629 
L 396.329073 238.309232 
L 397.166387 314.169669 
L 398.003701 190.736414 
L 398.841015 167.363323 
L 399.678329 256.661494 
L 400.515643 197.251482 
L 401.352957 254.504017 
L 402.190271 167.435569 
L 403.027585 281.165068 
L 403.864899 255.695696 
L 404.702213 343.52369 
L 405.539527 248.277817 
L 406.376841 272.490925 
L 407.214155 265.798493 
L 408.051469 328.900835 
L 408.888783 259.926873 
L 409.726097 336.030189 
L 410.563411 231.408676 
L 411.400725 295.330269 
L 412.238039 294.469601 
L 413.075353 260.582278 
L 413.912667 258.488042 
L 414.749981 221.930008 
L 415.587295 261.703262 
L 416.424609 250.992864 
L 417.261923 276.952245 
L 418.099237 273.458286 
L 418.936551 275.389355 
L 419.773865 260.40195 
L 420.611179 262.686473 
L 421.448493 237.388688 
L 422.285807 183.401762 
L 423.123121 282.418713 
L 423.960435 153.007652 
L 424.797749 220.136172 
L 425.635063 206.292333 
L 426.472377 265.389608 
L 427.309691 242.086489 
L 428.147005 249.692046 
L 428.984319 225.990161 
L 429.821633 218.668787 
L 430.658947 228.264542 
L 431.496261 197.637682 
L 432.333575 189.09743 
L 433.170889 216.51827 
L 434.008203 176.07515 
L 434.845517 145.10004 
L 435.682831 246.320997 
L 436.520145 268.148381 
L 437.357459 277.682158 
L 438.194773 198.416675 
L 439.032087 187.366537 
L 439.869401 224.918716 
L 440.706715 171.48929 
L 441.544029 244.846744 
L 442.381343 208.986016 
L 443.218657 212.935032 
L 444.055971 201.499682 
L 444.893285 198.330554 
L 445.730599 146.459229 
L 446.567913 192.419825 
L 447.405227 209.922066 
L 448.242541 256.03269 
L 449.079855 264.656111 
L 449.917169 252.378814 
L 451.591797 230.788946 
L 452.429111 248.600087 
L 453.266425 180.65235 
L 454.103739 137.344019 
L 454.941053 121.704988 
L 455.778367 244.847525 
L 456.615681 244.846652 
L 457.452995 250.472877 
L 458.290309 214.192318 
L 459.127623 207.921416 
L 459.964937 202.928704 
L 460.802251 215.27286 
L 461.639565 261.145084 
L 462.476879 229.174152 
L 463.314193 222.749477 
L 464.151507 219.124591 
L 464.988821 255.895159 
L 465.826135 224.035914 
L 466.663449 284.952777 
L 467.500763 229.601057 
L 468.338077 258.853452 
L 469.175391 206.591562 
L 470.012705 252.76653 
L 470.850019 178.947805 
L 471.687333 270.993149 
L 473.361961 228.342186 
L 474.199275 254.082854 
L 475.036589 244.971825 
L 475.873903 275.94767 
L 476.711217 259.529325 
L 477.548531 259.531071 
L 478.385845 286.159881 
L 479.223159 204.469002 
L 480.060473 270.133227 
L 480.897787 272.260048 
L 481.735101 238.552617 
L 483.409729 270.723783 
L 484.247043 202.342421 
L 485.084357 254.918701 
L 485.921671 232.797958 
L 487.596299 319.709451 
L 488.433613 271.037059 
L 489.270927 276.128905 
L 490.108241 264.151136 
L 491.782869 274.917608 
L 492.620183 238.499805 
L 493.457497 304.273548 
L 494.294811 287.425472 
L 495.132125 240.822288 
L 495.969439 256.363253 
L 496.806753 275.740764 
L 497.644067 303.409169 
L 498.481381 289.169712 
L 499.318695 290.840006 
L 500.156009 271.142488 
L 500.993322 280.70591 
L 501.830636 302.876869 
L 502.66795 296.573393 
L 503.505264 284.993666 
L 504.342578 270.66014 
L 505.179892 283.771929 
L 506.017206 299.58126 
L 506.85452 267.09513 
L 507.691834 278.480068 
L 508.529148 317.262002 
L 509.366462 244.766664 
L 510.203776 220.230012 
L 511.04109 234.763737 
L 511.878404 208.550059 
L 512.715718 295.451146 
L 513.553032 299.115084 
L 514.390346 221.801298 
L 515.22766 332.023112 
L 516.064974 289.702724 
L 516.902288 328.434924 
L 517.739602 297.912689 
L 518.576916 317.110665 
L 519.41423 273.217428 
L 520.251544 294.191873 
L 521.088858 288.47553 
L 521.926172 234.738008 
L 522.763486 317.226913 
L 524.438114 260.595073 
L 525.275428 260.037252 
L 526.950056 328.984119 
L 527.78737 295.708142 
L 528.624684 298.222083 
L 529.461998 292.058275 
L 530.299312 239.90627 
L 531.136626 245.047746 
L 531.97394 281.668056 
L 532.811254 262.950544 
L 533.648568 265.848916 
L 534.485882 277.784049 
L 535.323196 316.03799 
L 536.16051 263.746651 
L 536.997824 324.528026 
L 537.835138 252.586984 
L 538.672452 275.590587 
L 539.509766 243.309938 
L 540.34708 273.935477 
L 541.184394 230.420113 
L 542.021708 208.262316 
L 542.859022 261.802833 
L 543.696336 252.586777 
L 544.53365 293.572958 
L 545.370964 264.541345 
L 546.208278 306.22768 
L 547.045592 302.688881 
L 547.882906 290.717475 
L 548.72022 338.061346 
L 549.557534 316.341676 
L 550.394848 279.958905 
L 551.232162 373.495909 
L 552.069476 339.692163 
L 552.90679 293.905818 
L 553.744104 325.016553 
L 554.581418 344.90322 
L 555.418732 345.626254 
L 556.256046 318.125209 
L 557.09336 306.689399 
L 557.930674 369.853306 
L 559.605302 252.164098 
L 560.442616 381.519275 
L 561.27993 302.199997 
L 562.117244 344.769996 
L 562.954558 240.129807 
L 563.791872 316.160981 
L 564.629186 343.607755 
L 565.4665 304.049574 
L 566.303814 356.064702 
L 567.141128 285.833752 
L 567.978442 334.288097 
L 568.815756 246.059557 
L 569.65307 326.615268 
L 570.490384 232.863657 
L 571.327698 366.455708 
L 572.165012 184.234578 
L 573.002326 257.366196 
L 573.83964 303.83109 
L 574.676954 319.969169 
L 575.514268 279.180613 
L 576.351582 295.412083 
L 577.188896 299.688894 
L 578.02621 328.662343 
L 578.863524 243.565337 
L 579.700838 282.736503 
L 580.538152 307.387038 
L 581.375466 316.899865 
L 582.21278 339.69585 
L 583.050094 326.409832 
L 583.887408 297.490033 
L 584.724722 316.943672 
L 585.562036 270.400054 
L 586.39935 329.816475 
L 587.236664 232.321571 
L 588.073978 285.11351 
L 588.911292 272.382511 
L 589.748606 277.700295 
L 590.58592 288.631462 
L 591.423234 287.55718 
L 592.260548 294.520345 
L 593.097862 272.156871 
L 593.935176 305.8891 
L 594.77249 329.061258 
L 595.609804 330.794081 
L 596.447118 276.536216 
L 597.284432 362.95932 
L 598.121746 298.852793 
L 598.95906 317.969093 
L 599.796374 315.482305 
L 600.633688 346.764754 
L 601.471002 348.318065 
L 602.308316 356.63301 
L 603.14563 347.440144 
L 603.982944 295.561835 
L 604.820258 316.953848 
L 605.657572 357.620126 
L 606.494886 319.360305 
L 607.3322 206.198356 
L 608.169514 310.210522 
L 609.006828 269.677354 
L 609.844142 288.526677 
L 610.681456 279.105024 
L 611.51877 294.549278 
L 612.356084 299.019258 
L 613.193398 295.43154 
L 614.030712 240.631692 
L 614.868026 321.483359 
L 615.70534 294.939107 
L 616.542653 310.407309 
L 617.379967 234.42943 
L 618.217281 277.797178 
L 619.054595 303.137598 
L 619.891909 255.593403 
L 620.729223 276.035789 
L 621.566537 281.113634 
L 622.403851 251.73416 
L 623.241165 311.6426 
L 624.078479 253.65666 
L 624.915793 259.223365 
L 625.753107 270.996411 
L 626.590421 272.403794 
L 627.427735 267.850025 
L 628.265049 269.680811 
L 629.102363 306.31565 
L 629.939677 306.291909 
L 630.776991 245.378607 
L 631.614305 266.646022 
L 632.451619 272.311183 
L 634.126247 339.729021 
L 634.963561 240.307769 
L 635.800875 260.778502 
L 636.638189 346.575628 
L 637.475503 318.60928 
L 638.312817 302.478311 
L 639.150131 303.48586 
L 639.987445 295.514307 
L 641.662073 352.615986 
L 642.499387 209.373226 
L 643.336701 327.960306 
L 644.174015 261.166425 
L 645.011329 312.339664 
L 645.848643 277.398182 
L 646.685957 292.337863 
L 647.523271 349.75461 
L 648.360585 286.076127 
L 649.197899 342.066677 
L 650.035213 259.615653 
L 650.872527 266.448718 
L 651.709841 345.96488 
L 652.547155 273.267253 
L 653.384469 238.731727 
L 654.221783 290.049791 
L 655.059097 226.445644 
L 655.896411 263.936868 
L 656.733725 270.637444 
L 657.571039 243.069172 
L 658.408353 335.642979 
L 659.245667 249.904488 
L 660.082981 286.381857 
L 660.920295 355.456113 
L 661.757609 257.449078 
L 662.594923 329.401101 
L 663.432237 289.823934 
L 664.269551 360.038844 
L 665.106865 276.123507 
L 665.944179 295.55708 
L 666.781493 358.411334 
L 667.618807 207.147132 
L 668.456121 288.604631 
L 670.130749 240.078373 
L 670.968063 273.194893 
L 671.805377 272.875288 
L 672.642691 365.295081 
L 673.480005 244.480093 
L 674.317319 342.72624 
L 675.154633 294.004769 
L 675.991947 267.775574 
L 676.829261 273.228764 
L 677.666575 310.813035 
L 678.503889 277.421671 
L 679.341203 324.204803 
L 680.178517 268.059423 
L 681.015831 258.891792 
L 681.853145 296.465048 
L 682.690459 299.980278 
L 683.527773 269.461971 
L 684.365087 308.765236 
L 685.202401 290.929768 
L 686.039715 290.675862 
L 686.877029 307.056705 
L 687.714343 276.255513 
L 688.551657 240.392236 
L 689.388971 229.475701 
L 690.226285 253.095347 
L 691.063599 310.503664 
L 691.900913 302.065337 
L 692.738227 233.525517 
L 693.575541 291.77632 
L 694.412855 261.427338 
L 695.250169 312.912727 
L 696.087483 274.132631 
L 696.924797 245.986438 
L 697.762111 324.112388 
L 698.599425 293.603993 
L 699.436739 287.671602 
L 700.274053 313.201631 
L 701.111367 247.914405 
L 701.948681 299.232354 
L 702.785995 272.369865 
L 703.623309 204.627943 
L 704.460623 207.794911 
L 705.297937 300.53316 
L 706.135251 210.735286 
L 706.972565 306.249652 
L 707.809879 299.106148 
L 708.647193 289.936426 
L 709.484507 238.387336 
L 710.321821 268.338552 
L 711.159135 274.659969 
L 711.996449 277.43898 
L 712.833763 303.632408 
L 713.671077 324.655025 
L 715.345705 182.565639 
L 716.183019 187.412848 
L 717.020333 212.818611 
L 717.857647 219.411025 
L 718.694961 263.160666 
L 719.532275 209.676269 
L 720.369589 254.708901 
L 721.206903 213.76702 
L 722.044217 208.006319 
L 722.881531 181.32124 
L 723.718845 221.45647 
L 724.556159 212.522392 
L 725.393473 225.397791 
L 726.230787 263.489517 
L 727.068101 214.43823 
L 727.905415 187.835274 
L 728.742729 310.752769 
L 730.417357 222.383285 
L 731.254671 219.384493 
L 732.091984 266.500485 
L 732.929298 177.991563 
L 733.766612 262.553295 
L 734.603926 261.243288 
L 735.44124 250.338469 
L 736.278554 190.125781 
L 737.115868 271.92194 
L 737.953182 213.87864 
L 738.790496 244.395327 
L 739.62781 262.662031 
L 740.465124 288.708613 
L 741.302438 196.353726 
L 742.139752 259.228901 
L 742.977066 273.624681 
L 743.81438 237.273094 
L 744.651694 225.926484 
L 745.489008 187.727215 
L 746.326322 260.455635 
L 747.163636 272.46947 
L 747.163636 272.46947 
" style="fill:none;stroke:#ff0000;stroke-dasharray:5.55,2.4;stroke-dashoffset:0;stroke-width:1.5;"/>
   </g>
   <g id="patch_3">
    <path d="M 108 460.8 
L 108 69.12 
" style="fill:none;stroke:#000000;stroke-linecap:square;stroke-linejoin:miter;stroke-width:0.8;"/>
   </g>
   <g id="patch_4">
    <path d="M 777.6 460.8 
L 777.6 69.12 
" style="fill:none;stroke:#000000;stroke-linecap:square;stroke-linejoin:miter;stroke-width:0.8;"/>
   </g>
   <g id="patch_5">
    <path d="M 108 460.8 
L 777.6 460.8 
" style="fill:none;stroke:#000000;stroke-linecap:square;stroke-linejoin:miter;stroke-width:0.8;"/>
   </g>
   <g id="patch_6">
    <path d="M 108 69.12 
L 777.6 69.12 
" style="fill:none;stroke:#000000;stroke-linecap:square;stroke-linejoin:miter;stroke-width:0.8;"/>
   </g>
   <g id="text_19">
    <!-- Macau roadside 2020-2021 | Forecast vs Monitored | RNN -->
    <g transform="translate(226.805859 63.12)scale(0.15 -0.15)">
     <defs>
      <path d="M 9.8125 72.90625 
L 24.515625 72.90625 
L 43.109375 23.296875 
L 61.8125 72.90625 
L 76.515625 72.90625 
L 76.515625 0 
L 66.890625 0 
L 66.890625 64.015625 
L 48.09375 14.015625 
L 38.1875 14.015625 
L 19.390625 64.015625 
L 19.390625 0 
L 9.8125 0 
z
" id="DejaVuSans-77"/>
      <path d="M 48.78125 52.59375 
L 48.78125 44.1875 
Q 44.96875 46.296875 41.140625 47.34375 
Q 37.3125 48.390625 33.40625 48.390625 
Q 24.65625 48.390625 19.8125 42.84375 
Q 14.984375 37.3125 14.984375 27.296875 
Q 14.984375 17.28125 19.8125 11.734375 
Q 24.65625 6.203125 33.40625 6.203125 
Q 37.3125 6.203125 41.140625 7.25 
Q 44.96875 8.296875 48.78125 10.40625 
L 48.78125 2.09375 
Q 45.015625 0.34375 40.984375 -0.53125 
Q 36.96875 -1.421875 32.421875 -1.421875 
Q 20.0625 -1.421875 12.78125 6.34375 
Q 5.515625 14.109375 5.515625 27.296875 
Q 5.515625 40.671875 12.859375 48.328125 
Q 20.21875 56 33.015625 56 
Q 37.15625 56 41.109375 55.140625 
Q 45.0625 54.296875 48.78125 52.59375 
z
" id="DejaVuSans-99"/>
      <path d="M 8.5 21.578125 
L 8.5 54.6875 
L 17.484375 54.6875 
L 17.484375 21.921875 
Q 17.484375 14.15625 20.5 10.265625 
Q 23.53125 6.390625 29.59375 6.390625 
Q 36.859375 6.390625 41.078125 11.03125 
Q 45.3125 15.671875 45.3125 23.6875 
L 45.3125 54.6875 
L 54.296875 54.6875 
L 54.296875 0 
L 45.3125 0 
L 45.3125 8.40625 
Q 42.046875 3.421875 37.71875 1 
Q 33.40625 -1.421875 27.6875 -1.421875 
Q 18.265625 -1.421875 13.375 4.4375 
Q 8.5 10.296875 8.5 21.578125 
z
M 31.109375 56 
z
" id="DejaVuSans-117"/>
      <path id="DejaVuSans-32"/>
      <path d="M 41.109375 46.296875 
Q 39.59375 47.171875 37.8125 47.578125 
Q 36.03125 48 33.890625 48 
Q 26.265625 48 22.1875 43.046875 
Q 18.109375 38.09375 18.109375 28.8125 
L 18.109375 0 
L 9.078125 0 
L 9.078125 54.6875 
L 18.109375 54.6875 
L 18.109375 46.1875 
Q 20.953125 51.171875 25.484375 53.578125 
Q 30.03125 56 36.53125 56 
Q 37.453125 56 38.578125 55.875 
Q 39.703125 55.765625 41.0625 55.515625 
z
" id="DejaVuSans-114"/>
      <path d="M 30.609375 48.390625 
Q 23.390625 48.390625 19.1875 42.75 
Q 14.984375 37.109375 14.984375 27.296875 
Q 14.984375 17.484375 19.15625 11.84375 
Q 23.34375 6.203125 30.609375 6.203125 
Q 37.796875 6.203125 41.984375 11.859375 
Q 46.1875 17.53125 46.1875 27.296875 
Q 46.1875 37.015625 41.984375 42.703125 
Q 37.796875 48.390625 30.609375 48.390625 
z
M 30.609375 56 
Q 42.328125 56 49.015625 48.375 
Q 55.71875 40.765625 55.71875 27.296875 
Q 55.71875 13.875 49.015625 6.21875 
Q 42.328125 -1.421875 30.609375 -1.421875 
Q 18.84375 -1.421875 12.171875 6.21875 
Q 5.515625 13.875 5.515625 27.296875 
Q 5.515625 40.765625 12.171875 48.375 
Q 18.84375 56 30.609375 56 
z
" id="DejaVuSans-111"/>
      <path d="M 45.40625 46.390625 
L 45.40625 75.984375 
L 54.390625 75.984375 
L 54.390625 0 
L 45.40625 0 
L 45.40625 8.203125 
Q 42.578125 3.328125 38.25 0.953125 
Q 33.9375 -1.421875 27.875 -1.421875 
Q 17.96875 -1.421875 11.734375 6.484375 
Q 5.515625 14.40625 5.515625 27.296875 
Q 5.515625 40.1875 11.734375 48.09375 
Q 17.96875 56 27.875 56 
Q 33.9375 56 38.25 53.625 
Q 42.578125 51.265625 45.40625 46.390625 
z
M 14.796875 27.296875 
Q 14.796875 17.390625 18.875 11.75 
Q 22.953125 6.109375 30.078125 6.109375 
Q 37.203125 6.109375 41.296875 11.75 
Q 45.40625 17.390625 45.40625 27.296875 
Q 45.40625 37.203125 41.296875 42.84375 
Q 37.203125 48.484375 30.078125 48.484375 
Q 22.953125 48.484375 18.875 42.84375 
Q 14.796875 37.203125 14.796875 27.296875 
z
" id="DejaVuSans-100"/>
      <path d="M 44.28125 53.078125 
L 44.28125 44.578125 
Q 40.484375 46.53125 36.375 47.5 
Q 32.28125 48.484375 27.875 48.484375 
Q 21.1875 48.484375 17.84375 46.4375 
Q 14.5 44.390625 14.5 40.28125 
Q 14.5 37.15625 16.890625 35.375 
Q 19.28125 33.59375 26.515625 31.984375 
L 29.59375 31.296875 
Q 39.15625 29.25 43.1875 25.515625 
Q 47.21875 21.78125 47.21875 15.09375 
Q 47.21875 7.46875 41.1875 3.015625 
Q 35.15625 -1.421875 24.609375 -1.421875 
Q 20.21875 -1.421875 15.453125 -0.5625 
Q 10.6875 0.296875 5.421875 2 
L 5.421875 11.28125 
Q 10.40625 8.6875 15.234375 7.390625 
Q 20.0625 6.109375 24.8125 6.109375 
Q 31.15625 6.109375 34.5625 8.28125 
Q 37.984375 10.453125 37.984375 14.40625 
Q 37.984375 18.0625 35.515625 20.015625 
Q 33.0625 21.96875 24.703125 23.78125 
L 21.578125 24.515625 
Q 13.234375 26.265625 9.515625 29.90625 
Q 5.8125 33.546875 5.8125 39.890625 
Q 5.8125 47.609375 11.28125 51.796875 
Q 16.75 56 26.8125 56 
Q 31.78125 56 36.171875 55.265625 
Q 40.578125 54.546875 44.28125 53.078125 
z
" id="DejaVuSans-115"/>
      <path d="M 9.421875 54.6875 
L 18.40625 54.6875 
L 18.40625 0 
L 9.421875 0 
z
M 9.421875 75.984375 
L 18.40625 75.984375 
L 18.40625 64.59375 
L 9.421875 64.59375 
z
" id="DejaVuSans-105"/>
      <path d="M 21 76.421875 
L 21 -23.578125 
L 12.703125 -23.578125 
L 12.703125 76.421875 
z
" id="DejaVuSans-124"/>
      <path d="M 9.8125 72.90625 
L 51.703125 72.90625 
L 51.703125 64.59375 
L 19.671875 64.59375 
L 19.671875 43.109375 
L 48.578125 43.109375 
L 48.578125 34.8125 
L 19.671875 34.8125 
L 19.671875 0 
L 9.8125 0 
z
" id="DejaVuSans-70"/>
      <path d="M 2.984375 54.6875 
L 12.5 54.6875 
L 29.59375 8.796875 
L 46.6875 54.6875 
L 56.203125 54.6875 
L 35.6875 0 
L 23.484375 0 
z
" id="DejaVuSans-118"/>
      <path d="M 54.890625 33.015625 
L 54.890625 0 
L 45.90625 0 
L 45.90625 32.71875 
Q 45.90625 40.484375 42.875 44.328125 
Q 39.84375 48.1875 33.796875 48.1875 
Q 26.515625 48.1875 22.3125 43.546875 
Q 18.109375 38.921875 18.109375 30.90625 
L 18.109375 0 
L 9.078125 0 
L 9.078125 54.6875 
L 18.109375 54.6875 
L 18.109375 46.1875 
Q 21.34375 51.125 25.703125 53.5625 
Q 30.078125 56 35.796875 56 
Q 45.21875 56 50.046875 50.171875 
Q 54.890625 44.34375 54.890625 33.015625 
z
" id="DejaVuSans-110"/>
      <path d="M 44.390625 34.1875 
Q 47.5625 33.109375 50.5625 29.59375 
Q 53.5625 26.078125 56.59375 19.921875 
L 66.609375 0 
L 56 0 
L 46.6875 18.703125 
Q 43.0625 26.03125 39.671875 28.421875 
Q 36.28125 30.8125 30.421875 30.8125 
L 19.671875 30.8125 
L 19.671875 0 
L 9.8125 0 
L 9.8125 72.90625 
L 32.078125 72.90625 
Q 44.578125 72.90625 50.734375 67.671875 
Q 56.890625 62.453125 56.890625 51.90625 
Q 56.890625 45.015625 53.6875 40.46875 
Q 50.484375 35.9375 44.390625 34.1875 
z
M 19.671875 64.796875 
L 19.671875 38.921875 
L 32.078125 38.921875 
Q 39.203125 38.921875 42.84375 42.21875 
Q 46.484375 45.515625 46.484375 51.90625 
Q 46.484375 58.296875 42.84375 61.546875 
Q 39.203125 64.796875 32.078125 64.796875 
z
" id="DejaVuSans-82"/>
     </defs>
     <use xlink:href="#DejaVuSans-77"/>
     <use x="86.279297" xlink:href="#DejaVuSans-97"/>
     <use x="147.558594" xlink:href="#DejaVuSans-99"/>
     <use x="202.539062" xlink:href="#DejaVuSans-97"/>
     <use x="263.818359" xlink:href="#DejaVuSans-117"/>
     <use x="327.197266" xlink:href="#DejaVuSans-32"/>
     <use x="358.984375" xlink:href="#DejaVuSans-114"/>
     <use x="397.847656" xlink:href="#DejaVuSans-111"/>
     <use x="459.029297" xlink:href="#DejaVuSans-97"/>
     <use x="520.308594" xlink:href="#DejaVuSans-100"/>
     <use x="583.785156" xlink:href="#DejaVuSans-115"/>
     <use x="635.884766" xlink:href="#DejaVuSans-105"/>
     <use x="663.667969" xlink:href="#DejaVuSans-100"/>
     <use x="727.144531" xlink:href="#DejaVuSans-101"/>
     <use x="788.667969" xlink:href="#DejaVuSans-32"/>
     <use x="820.455078" xlink:href="#DejaVuSans-50"/>
     <use x="884.078125" xlink:href="#DejaVuSans-48"/>
     <use x="947.701172" xlink:href="#DejaVuSans-50"/>
     <use x="1011.324219" xlink:href="#DejaVuSans-48"/>
     <use x="1074.947266" xlink:href="#DejaVuSans-45"/>
     <use x="1111.03125" xlink:href="#DejaVuSans-50"/>
     <use x="1174.654297" xlink:href="#DejaVuSans-48"/>
     <use x="1238.277344" xlink:href="#DejaVuSans-50"/>
     <use x="1301.900391" xlink:href="#DejaVuSans-49"/>
     <use x="1365.523438" xlink:href="#DejaVuSans-32"/>
     <use x="1397.310547" xlink:href="#DejaVuSans-124"/>
     <use x="1431.001953" xlink:href="#DejaVuSans-32"/>
     <use x="1462.789062" xlink:href="#DejaVuSans-70"/>
     <use x="1516.683594" xlink:href="#DejaVuSans-111"/>
     <use x="1577.865234" xlink:href="#DejaVuSans-114"/>
     <use x="1616.728516" xlink:href="#DejaVuSans-101"/>
     <use x="1678.251953" xlink:href="#DejaVuSans-99"/>
     <use x="1733.232422" xlink:href="#DejaVuSans-97"/>
     <use x="1794.511719" xlink:href="#DejaVuSans-115"/>
     <use x="1846.611328" xlink:href="#DejaVuSans-116"/>
     <use x="1885.820312" xlink:href="#DejaVuSans-32"/>
     <use x="1917.607422" xlink:href="#DejaVuSans-118"/>
     <use x="1976.787109" xlink:href="#DejaVuSans-115"/>
     <use x="2028.886719" xlink:href="#DejaVuSans-32"/>
     <use x="2060.673828" xlink:href="#DejaVuSans-77"/>
     <use x="2146.953125" xlink:href="#DejaVuSans-111"/>
     <use x="2208.134766" xlink:href="#DejaVuSans-110"/>
     <use x="2271.513672" xlink:href="#DejaVuSans-105"/>
     <use x="2299.296875" xlink:href="#DejaVuSans-116"/>
     <use x="2338.505859" xlink:href="#DejaVuSans-111"/>
     <use x="2399.6875" xlink:href="#DejaVuSans-114"/>
     <use x="2438.550781" xlink:href="#DejaVuSans-101"/>
     <use x="2500.074219" xlink:href="#DejaVuSans-100"/>
     <use x="2563.550781" xlink:href="#DejaVuSans-32"/>
     <use x="2595.337891" xlink:href="#DejaVuSans-124"/>
     <use x="2629.029297" xlink:href="#DejaVuSans-32"/>
     <use x="2660.816406" xlink:href="#DejaVuSans-82"/>
     <use x="2730.298828" xlink:href="#DejaVuSans-78"/>
     <use x="2805.103516" xlink:href="#DejaVuSans-78"/>
    </g>
   </g>
   <g id="legend_1">
    <g id="patch_7">
     <path d="M 605.76375 114.615 
L 769.2 114.615 
Q 771.6 114.615 771.6 112.215 
L 771.6 77.52 
Q 771.6 75.12 769.2 75.12 
L 605.76375 75.12 
Q 603.36375 75.12 603.36375 77.52 
L 603.36375 112.215 
Q 603.36375 114.615 605.76375 114.615 
z
" style="fill:#ffffff;opacity:0.8;stroke:#cccccc;stroke-linejoin:miter;"/>
    </g>
    <g id="line2d_19">
     <path d="M 608.16375 84.838125 
L 632.16375 84.838125 
" style="fill:none;stroke:#1f77b4;stroke-linecap:square;stroke-width:1.5;"/>
    </g>
    <g id="line2d_20"/>
    <g id="text_20">
     <!-- measured_data_NO2 -->
     <g transform="translate(641.76375 89.038125)scale(0.12 -0.12)">
      <defs>
       <path d="M 50.984375 -16.609375 
L 50.984375 -23.578125 
L -0.984375 -23.578125 
L -0.984375 -16.609375 
z
" id="DejaVuSans-95"/>
      </defs>
      <use xlink:href="#DejaVuSans-109"/>
      <use x="97.412109" xlink:href="#DejaVuSans-101"/>
      <use x="158.935547" xlink:href="#DejaVuSans-97"/>
      <use x="220.214844" xlink:href="#DejaVuSans-115"/>
      <use x="272.314453" xlink:href="#DejaVuSans-117"/>
      <use x="335.693359" xlink:href="#DejaVuSans-114"/>
      <use x="374.556641" xlink:href="#DejaVuSans-101"/>
      <use x="436.080078" xlink:href="#DejaVuSans-100"/>
      <use x="499.556641" xlink:href="#DejaVuSans-95"/>
      <use x="549.556641" xlink:href="#DejaVuSans-100"/>
      <use x="613.033203" xlink:href="#DejaVuSans-97"/>
      <use x="674.3125" xlink:href="#DejaVuSans-116"/>
      <use x="713.521484" xlink:href="#DejaVuSans-97"/>
      <use x="774.800781" xlink:href="#DejaVuSans-95"/>
      <use x="824.800781" xlink:href="#DejaVuSans-78"/>
      <use x="899.605469" xlink:href="#DejaVuSans-79"/>
      <use x="978.316406" xlink:href="#DejaVuSans-50"/>
     </g>
    </g>
    <g id="line2d_21">
     <path d="M 608.16375 102.785625 
L 632.16375 102.785625 
" style="fill:none;stroke:#ff0000;stroke-dasharray:5.55,2.4;stroke-dashoffset:0;stroke-width:1.5;"/>
    </g>
    <g id="line2d_22"/>
    <g id="text_21">
     <!-- predicted_data_NO2 -->
     <g transform="translate(641.76375 106.985625)scale(0.12 -0.12)">
      <use xlink:href="#DejaVuSans-112"/>
      <use x="63.476562" xlink:href="#DejaVuSans-114"/>
      <use x="102.339844" xlink:href="#DejaVuSans-101"/>
      <use x="163.863281" xlink:href="#DejaVuSans-100"/>
      <use x="227.339844" xlink:href="#DejaVuSans-105"/>
      <use x="255.123047" xlink:href="#DejaVuSans-99"/>
      <use x="310.103516" xlink:href="#DejaVuSans-116"/>
      <use x="349.3125" xlink:href="#DejaVuSans-101"/>
      <use x="410.835938" xlink:href="#DejaVuSans-100"/>
      <use x="474.3125" xlink:href="#DejaVuSans-95"/>
      <use x="524.3125" xlink:href="#DejaVuSans-100"/>
      <use x="587.789062" xlink:href="#DejaVuSans-97"/>
      <use x="649.068359" xlink:href="#DejaVuSans-116"/>
      <use x="688.277344" xlink:href="#DejaVuSans-97"/>
      <use x="749.556641" xlink:href="#DejaVuSans-95"/>
      <use x="799.556641" xlink:href="#DejaVuSans-78"/>
      <use x="874.361328" xlink:href="#DejaVuSans-79"/>
      <use x="953.072266" xlink:href="#DejaVuSans-50"/>
     </g>
    </g>
   </g>
  </g>
 </g>
 <defs>
  <clipPath id="p5f002c7858">
   <rect height="391.68" width="669.6" x="108" y="69.12"/>
  </clipPath>
 </defs>
</svg>
