<?xml version="1.0" encoding="utf-8" standalone="no"?>
<!DOCTYPE svg PUBLIC "-//W3C//DTD SVG 1.1//EN"
  "http://www.w3.org/Graphics/SVG/1.1/DTD/svg11.dtd">
<!-- Created with matplotlib (https://matplotlib.org/) -->
<svg height="576pt" version="1.1" viewBox="0 0 864 576" width="864pt" xmlns="http://www.w3.org/2000/svg" xmlns:xlink="http://www.w3.org/1999/xlink">
 <metadata>
  <rdf:RDF xmlns:cc="http://creativecommons.org/ns#" xmlns:dc="http://purl.org/dc/elements/1.1/" xmlns:rdf="http://www.w3.org/1999/02/22-rdf-syntax-ns#">
   <cc:Work>
    <dc:type rdf:resource="http://purl.org/dc/dcmitype/StillImage"/>
    <dc:date>2024-03-08T16:29:57.110567</dc:date>
    <dc:format>image/svg+xml</dc:format>
    <dc:creator>
     <cc:Agent>
      <dc:title>Matplotlib v3.3.4, https://matplotlib.org/</dc:title>
     </cc:Agent>
    </dc:creator>
   </cc:Work>
  </rdf:RDF>
 </metadata>
 <defs>
  <style type="text/css">*{stroke-linecap:butt;stroke-linejoin:round;}</style>
 </defs>
 <g id="figure_1">
  <g id="patch_1">
   <path d="M 0 576 
L 864 576 
L 864 0 
L 0 0 
z
" style="fill:#ffffff;"/>
  </g>
  <g id="axes_1">
   <g id="patch_2">
    <path d="M 108 460.8 
L 777.6 460.8 
L 777.6 69.12 
L 108 69.12 
z
" style="fill:#ffffff;"/>
   </g>
   <g id="matplotlib.axis_1">
    <g id="xtick_1">
     <g id="line2d_1">
      <defs>
       <path d="M 0 0 
L 0 3.5 
" id="md9130e3c6e" style="stroke:#000000;stroke-width:0.8;"/>
      </defs>
      <g>
       <use style="stroke:#000000;stroke-width:0.8;" x="136.761736" xlink:href="#md9130e3c6e" y="460.8"/>
      </g>
     </g>
     <g id="text_1">
      <!-- 2020-01 -->
      <g transform="translate(92.091951 500.766215)rotate(-30)scale(0.12 -0.12)">
       <defs>
        <path d="M 19.1875 8.296875 
L 53.609375 8.296875 
L 53.609375 0 
L 7.328125 0 
L 7.328125 8.296875 
Q 12.9375 14.109375 22.625 23.890625 
Q 32.328125 33.6875 34.8125 36.53125 
Q 39.546875 41.84375 41.421875 45.53125 
Q 43.3125 49.21875 43.3125 52.78125 
Q 43.3125 58.59375 39.234375 62.25 
Q 35.15625 65.921875 28.609375 65.921875 
Q 23.96875 65.921875 18.8125 64.3125 
Q 13.671875 62.703125 7.8125 59.421875 
L 7.8125 69.390625 
Q 13.765625 71.78125 18.9375 73 
Q 24.125 74.21875 28.421875 74.21875 
Q 39.75 74.21875 46.484375 68.546875 
Q 53.21875 62.890625 53.21875 53.421875 
Q 53.21875 48.921875 51.53125 44.890625 
Q 49.859375 40.875 45.40625 35.40625 
Q 44.1875 33.984375 37.640625 27.21875 
Q 31.109375 20.453125 19.1875 8.296875 
z
" id="DejaVuSans-50"/>
        <path d="M 31.78125 66.40625 
Q 24.171875 66.40625 20.328125 58.90625 
Q 16.5 51.421875 16.5 36.375 
Q 16.5 21.390625 20.328125 13.890625 
Q 24.171875 6.390625 31.78125 6.390625 
Q 39.453125 6.390625 43.28125 13.890625 
Q 47.125 21.390625 47.125 36.375 
Q 47.125 51.421875 43.28125 58.90625 
Q 39.453125 66.40625 31.78125 66.40625 
z
M 31.78125 74.21875 
Q 44.046875 74.21875 50.515625 64.515625 
Q 56.984375 54.828125 56.984375 36.375 
Q 56.984375 17.96875 50.515625 8.265625 
Q 44.046875 -1.421875 31.78125 -1.421875 
Q 19.53125 -1.421875 13.0625 8.265625 
Q 6.59375 17.96875 6.59375 36.375 
Q 6.59375 54.828125 13.0625 64.515625 
Q 19.53125 74.21875 31.78125 74.21875 
z
" id="DejaVuSans-48"/>
        <path d="M 4.890625 31.390625 
L 31.203125 31.390625 
L 31.203125 23.390625 
L 4.890625 23.390625 
z
" id="DejaVuSans-45"/>
        <path d="M 12.40625 8.296875 
L 28.515625 8.296875 
L 28.515625 63.921875 
L 10.984375 60.40625 
L 10.984375 69.390625 
L 28.421875 72.90625 
L 38.28125 72.90625 
L 38.28125 8.296875 
L 54.390625 8.296875 
L 54.390625 0 
L 12.40625 0 
z
" id="DejaVuSans-49"/>
       </defs>
       <use xlink:href="#DejaVuSans-50"/>
       <use x="63.623047" xlink:href="#DejaVuSans-48"/>
       <use x="127.246094" xlink:href="#DejaVuSans-50"/>
       <use x="190.869141" xlink:href="#DejaVuSans-48"/>
       <use x="254.492188" xlink:href="#DejaVuSans-45"/>
       <use x="290.576172" xlink:href="#DejaVuSans-48"/>
       <use x="354.199219" xlink:href="#DejaVuSans-49"/>
      </g>
     </g>
    </g>
    <g id="xtick_2">
     <g id="line2d_2">
      <g>
       <use style="stroke:#000000;stroke-width:0.8;" x="212.957309" xlink:href="#md9130e3c6e" y="460.8"/>
      </g>
     </g>
     <g id="text_2">
      <!-- 2020-04 -->
      <g transform="translate(168.287524 500.766215)rotate(-30)scale(0.12 -0.12)">
       <defs>
        <path d="M 37.796875 64.3125 
L 12.890625 25.390625 
L 37.796875 25.390625 
z
M 35.203125 72.90625 
L 47.609375 72.90625 
L 47.609375 25.390625 
L 58.015625 25.390625 
L 58.015625 17.1875 
L 47.609375 17.1875 
L 47.609375 0 
L 37.796875 0 
L 37.796875 17.1875 
L 4.890625 17.1875 
L 4.890625 26.703125 
z
" id="DejaVuSans-52"/>
       </defs>
       <use xlink:href="#DejaVuSans-50"/>
       <use x="63.623047" xlink:href="#DejaVuSans-48"/>
       <use x="127.246094" xlink:href="#DejaVuSans-50"/>
       <use x="190.869141" xlink:href="#DejaVuSans-48"/>
       <use x="254.492188" xlink:href="#DejaVuSans-45"/>
       <use x="290.576172" xlink:href="#DejaVuSans-48"/>
       <use x="354.199219" xlink:href="#DejaVuSans-52"/>
      </g>
     </g>
    </g>
    <g id="xtick_3">
     <g id="line2d_3">
      <g>
       <use style="stroke:#000000;stroke-width:0.8;" x="289.152882" xlink:href="#md9130e3c6e" y="460.8"/>
      </g>
     </g>
     <g id="text_3">
      <!-- 2020-07 -->
      <g transform="translate(244.483097 500.766215)rotate(-30)scale(0.12 -0.12)">
       <defs>
        <path d="M 8.203125 72.90625 
L 55.078125 72.90625 
L 55.078125 68.703125 
L 28.609375 0 
L 18.3125 0 
L 43.21875 64.59375 
L 8.203125 64.59375 
z
" id="DejaVuSans-55"/>
       </defs>
       <use xlink:href="#DejaVuSans-50"/>
       <use x="63.623047" xlink:href="#DejaVuSans-48"/>
       <use x="127.246094" xlink:href="#DejaVuSans-50"/>
       <use x="190.869141" xlink:href="#DejaVuSans-48"/>
       <use x="254.492188" xlink:href="#DejaVuSans-45"/>
       <use x="290.576172" xlink:href="#DejaVuSans-48"/>
       <use x="354.199219" xlink:href="#DejaVuSans-55"/>
      </g>
     </g>
    </g>
    <g id="xtick_4">
     <g id="line2d_4">
      <g>
       <use style="stroke:#000000;stroke-width:0.8;" x="366.18577" xlink:href="#md9130e3c6e" y="460.8"/>
      </g>
     </g>
     <g id="text_4">
      <!-- 2020-10 -->
      <g transform="translate(321.515985 500.766215)rotate(-30)scale(0.12 -0.12)">
       <use xlink:href="#DejaVuSans-50"/>
       <use x="63.623047" xlink:href="#DejaVuSans-48"/>
       <use x="127.246094" xlink:href="#DejaVuSans-50"/>
       <use x="190.869141" xlink:href="#DejaVuSans-48"/>
       <use x="254.492188" xlink:href="#DejaVuSans-45"/>
       <use x="290.576172" xlink:href="#DejaVuSans-49"/>
       <use x="354.199219" xlink:href="#DejaVuSans-48"/>
      </g>
     </g>
    </g>
    <g id="xtick_5">
     <g id="line2d_5">
      <g>
       <use style="stroke:#000000;stroke-width:0.8;" x="443.218657" xlink:href="#md9130e3c6e" y="460.8"/>
      </g>
     </g>
     <g id="text_5">
      <!-- 2021-01 -->
      <g transform="translate(398.548872 500.766215)rotate(-30)scale(0.12 -0.12)">
       <use xlink:href="#DejaVuSans-50"/>
       <use x="63.623047" xlink:href="#DejaVuSans-48"/>
       <use x="127.246094" xlink:href="#DejaVuSans-50"/>
       <use x="190.869141" xlink:href="#DejaVuSans-49"/>
       <use x="254.492188" xlink:href="#DejaVuSans-45"/>
       <use x="290.576172" xlink:href="#DejaVuSans-48"/>
       <use x="354.199219" xlink:href="#DejaVuSans-49"/>
      </g>
     </g>
    </g>
    <g id="xtick_6">
     <g id="line2d_6">
      <g>
       <use style="stroke:#000000;stroke-width:0.8;" x="518.576916" xlink:href="#md9130e3c6e" y="460.8"/>
      </g>
     </g>
     <g id="text_6">
      <!-- 2021-04 -->
      <g transform="translate(473.907131 500.766215)rotate(-30)scale(0.12 -0.12)">
       <use xlink:href="#DejaVuSans-50"/>
       <use x="63.623047" xlink:href="#DejaVuSans-48"/>
       <use x="127.246094" xlink:href="#DejaVuSans-50"/>
       <use x="190.869141" xlink:href="#DejaVuSans-49"/>
       <use x="254.492188" xlink:href="#DejaVuSans-45"/>
       <use x="290.576172" xlink:href="#DejaVuSans-48"/>
       <use x="354.199219" xlink:href="#DejaVuSans-52"/>
      </g>
     </g>
    </g>
    <g id="xtick_7">
     <g id="line2d_7">
      <g>
       <use style="stroke:#000000;stroke-width:0.8;" x="594.77249" xlink:href="#md9130e3c6e" y="460.8"/>
      </g>
     </g>
     <g id="text_7">
      <!-- 2021-07 -->
      <g transform="translate(550.102705 500.766215)rotate(-30)scale(0.12 -0.12)">
       <use xlink:href="#DejaVuSans-50"/>
       <use x="63.623047" xlink:href="#DejaVuSans-48"/>
       <use x="127.246094" xlink:href="#DejaVuSans-50"/>
       <use x="190.869141" xlink:href="#DejaVuSans-49"/>
       <use x="254.492188" xlink:href="#DejaVuSans-45"/>
       <use x="290.576172" xlink:href="#DejaVuSans-48"/>
       <use x="354.199219" xlink:href="#DejaVuSans-55"/>
      </g>
     </g>
    </g>
    <g id="xtick_8">
     <g id="line2d_8">
      <g>
       <use style="stroke:#000000;stroke-width:0.8;" x="671.805377" xlink:href="#md9130e3c6e" y="460.8"/>
      </g>
     </g>
     <g id="text_8">
      <!-- 2021-10 -->
      <g transform="translate(627.135592 500.766215)rotate(-30)scale(0.12 -0.12)">
       <use xlink:href="#DejaVuSans-50"/>
       <use x="63.623047" xlink:href="#DejaVuSans-48"/>
       <use x="127.246094" xlink:href="#DejaVuSans-50"/>
       <use x="190.869141" xlink:href="#DejaVuSans-49"/>
       <use x="254.492188" xlink:href="#DejaVuSans-45"/>
       <use x="290.576172" xlink:href="#DejaVuSans-49"/>
       <use x="354.199219" xlink:href="#DejaVuSans-48"/>
      </g>
     </g>
    </g>
    <g id="xtick_9">
     <g id="line2d_9">
      <g>
       <use style="stroke:#000000;stroke-width:0.8;" x="748.838264" xlink:href="#md9130e3c6e" y="460.8"/>
      </g>
     </g>
     <g id="text_9">
      <!-- 2022-01 -->
      <g transform="translate(704.168479 500.766215)rotate(-30)scale(0.12 -0.12)">
       <use xlink:href="#DejaVuSans-50"/>
       <use x="63.623047" xlink:href="#DejaVuSans-48"/>
       <use x="127.246094" xlink:href="#DejaVuSans-50"/>
       <use x="190.869141" xlink:href="#DejaVuSans-50"/>
       <use x="254.492188" xlink:href="#DejaVuSans-45"/>
       <use x="290.576172" xlink:href="#DejaVuSans-48"/>
       <use x="354.199219" xlink:href="#DejaVuSans-49"/>
      </g>
     </g>
    </g>
    <g id="text_10">
     <!-- Date -->
     <g transform="translate(424.873828 518.325146)scale(0.15 -0.15)">
      <defs>
       <path d="M 19.671875 64.796875 
L 19.671875 8.109375 
L 31.59375 8.109375 
Q 46.6875 8.109375 53.6875 14.9375 
Q 60.6875 21.78125 60.6875 36.53125 
Q 60.6875 51.171875 53.6875 57.984375 
Q 46.6875 64.796875 31.59375 64.796875 
z
M 9.8125 72.90625 
L 30.078125 72.90625 
Q 51.265625 72.90625 61.171875 64.09375 
Q 71.09375 55.28125 71.09375 36.53125 
Q 71.09375 17.671875 61.125 8.828125 
Q 51.171875 0 30.078125 0 
L 9.8125 0 
z
" id="DejaVuSans-68"/>
       <path d="M 34.28125 27.484375 
Q 23.390625 27.484375 19.1875 25 
Q 14.984375 22.515625 14.984375 16.5 
Q 14.984375 11.71875 18.140625 8.90625 
Q 21.296875 6.109375 26.703125 6.109375 
Q 34.1875 6.109375 38.703125 11.40625 
Q 43.21875 16.703125 43.21875 25.484375 
L 43.21875 27.484375 
z
M 52.203125 31.203125 
L 52.203125 0 
L 43.21875 0 
L 43.21875 8.296875 
Q 40.140625 3.328125 35.546875 0.953125 
Q 30.953125 -1.421875 24.3125 -1.421875 
Q 15.921875 -1.421875 10.953125 3.296875 
Q 6 8.015625 6 15.921875 
Q 6 25.140625 12.171875 29.828125 
Q 18.359375 34.515625 30.609375 34.515625 
L 43.21875 34.515625 
L 43.21875 35.40625 
Q 43.21875 41.609375 39.140625 45 
Q 35.0625 48.390625 27.6875 48.390625 
Q 23 48.390625 18.546875 47.265625 
Q 14.109375 46.140625 10.015625 43.890625 
L 10.015625 52.203125 
Q 14.9375 54.109375 19.578125 55.046875 
Q 24.21875 56 28.609375 56 
Q 40.484375 56 46.34375 49.84375 
Q 52.203125 43.703125 52.203125 31.203125 
z
" id="DejaVuSans-97"/>
       <path d="M 18.3125 70.21875 
L 18.3125 54.6875 
L 36.8125 54.6875 
L 36.8125 47.703125 
L 18.3125 47.703125 
L 18.3125 18.015625 
Q 18.3125 11.328125 20.140625 9.421875 
Q 21.96875 7.515625 27.59375 7.515625 
L 36.8125 7.515625 
L 36.8125 0 
L 27.59375 0 
Q 17.1875 0 13.234375 3.875 
Q 9.28125 7.765625 9.28125 18.015625 
L 9.28125 47.703125 
L 2.6875 47.703125 
L 2.6875 54.6875 
L 9.28125 54.6875 
L 9.28125 70.21875 
z
" id="DejaVuSans-116"/>
       <path d="M 56.203125 29.59375 
L 56.203125 25.203125 
L 14.890625 25.203125 
Q 15.484375 15.921875 20.484375 11.0625 
Q 25.484375 6.203125 34.421875 6.203125 
Q 39.59375 6.203125 44.453125 7.46875 
Q 49.3125 8.734375 54.109375 11.28125 
L 54.109375 2.78125 
Q 49.265625 0.734375 44.1875 -0.34375 
Q 39.109375 -1.421875 33.890625 -1.421875 
Q 20.796875 -1.421875 13.15625 6.1875 
Q 5.515625 13.8125 5.515625 26.8125 
Q 5.515625 40.234375 12.765625 48.109375 
Q 20.015625 56 32.328125 56 
Q 43.359375 56 49.78125 48.890625 
Q 56.203125 41.796875 56.203125 29.59375 
z
M 47.21875 32.234375 
Q 47.125 39.59375 43.09375 43.984375 
Q 39.0625 48.390625 32.421875 48.390625 
Q 24.90625 48.390625 20.390625 44.140625 
Q 15.875 39.890625 15.1875 32.171875 
z
" id="DejaVuSans-101"/>
      </defs>
      <use xlink:href="#DejaVuSans-68"/>
      <use x="77.001953" xlink:href="#DejaVuSans-97"/>
      <use x="138.28125" xlink:href="#DejaVuSans-116"/>
      <use x="177.490234" xlink:href="#DejaVuSans-101"/>
     </g>
    </g>
   </g>
   <g id="matplotlib.axis_2">
    <g id="ytick_1">
     <g id="line2d_10">
      <defs>
       <path d="M 0 0 
L -3.5 0 
" id="m2a8a7e2331" style="stroke:#000000;stroke-width:0.8;"/>
      </defs>
      <g>
       <use style="stroke:#000000;stroke-width:0.8;" x="108" xlink:href="#m2a8a7e2331" y="454.253834"/>
      </g>
     </g>
     <g id="text_11">
      <!-- 0 -->
      <g transform="translate(93.365 458.812896)scale(0.12 -0.12)">
       <use xlink:href="#DejaVuSans-48"/>
      </g>
     </g>
    </g>
    <g id="ytick_2">
     <g id="line2d_11">
      <g>
       <use style="stroke:#000000;stroke-width:0.8;" x="108" xlink:href="#m2a8a7e2331" y="394.034943"/>
      </g>
     </g>
     <g id="text_12">
      <!-- 20 -->
      <g transform="translate(85.73 398.594005)scale(0.12 -0.12)">
       <use xlink:href="#DejaVuSans-50"/>
       <use x="63.623047" xlink:href="#DejaVuSans-48"/>
      </g>
     </g>
    </g>
    <g id="ytick_3">
     <g id="line2d_12">
      <g>
       <use style="stroke:#000000;stroke-width:0.8;" x="108" xlink:href="#m2a8a7e2331" y="333.816052"/>
      </g>
     </g>
     <g id="text_13">
      <!-- 40 -->
      <g transform="translate(85.73 338.375115)scale(0.12 -0.12)">
       <use xlink:href="#DejaVuSans-52"/>
       <use x="63.623047" xlink:href="#DejaVuSans-48"/>
      </g>
     </g>
    </g>
    <g id="ytick_4">
     <g id="line2d_13">
      <g>
       <use style="stroke:#000000;stroke-width:0.8;" x="108" xlink:href="#m2a8a7e2331" y="273.597161"/>
      </g>
     </g>
     <g id="text_14">
      <!-- 60 -->
      <g transform="translate(85.73 278.156224)scale(0.12 -0.12)">
       <defs>
        <path d="M 33.015625 40.375 
Q 26.375 40.375 22.484375 35.828125 
Q 18.609375 31.296875 18.609375 23.390625 
Q 18.609375 15.53125 22.484375 10.953125 
Q 26.375 6.390625 33.015625 6.390625 
Q 39.65625 6.390625 43.53125 10.953125 
Q 47.40625 15.53125 47.40625 23.390625 
Q 47.40625 31.296875 43.53125 35.828125 
Q 39.65625 40.375 33.015625 40.375 
z
M 52.59375 71.296875 
L 52.59375 62.3125 
Q 48.875 64.0625 45.09375 64.984375 
Q 41.3125 65.921875 37.59375 65.921875 
Q 27.828125 65.921875 22.671875 59.328125 
Q 17.53125 52.734375 16.796875 39.40625 
Q 19.671875 43.65625 24.015625 45.921875 
Q 28.375 48.1875 33.59375 48.1875 
Q 44.578125 48.1875 50.953125 41.515625 
Q 57.328125 34.859375 57.328125 23.390625 
Q 57.328125 12.15625 50.6875 5.359375 
Q 44.046875 -1.421875 33.015625 -1.421875 
Q 20.359375 -1.421875 13.671875 8.265625 
Q 6.984375 17.96875 6.984375 36.375 
Q 6.984375 53.65625 15.1875 63.9375 
Q 23.390625 74.21875 37.203125 74.21875 
Q 40.921875 74.21875 44.703125 73.484375 
Q 48.484375 72.75 52.59375 71.296875 
z
" id="DejaVuSans-54"/>
       </defs>
       <use xlink:href="#DejaVuSans-54"/>
       <use x="63.623047" xlink:href="#DejaVuSans-48"/>
      </g>
     </g>
    </g>
    <g id="ytick_5">
     <g id="line2d_14">
      <g>
       <use style="stroke:#000000;stroke-width:0.8;" x="108" xlink:href="#m2a8a7e2331" y="213.378271"/>
      </g>
     </g>
     <g id="text_15">
      <!-- 80 -->
      <g transform="translate(85.73 217.937333)scale(0.12 -0.12)">
       <defs>
        <path d="M 31.78125 34.625 
Q 24.75 34.625 20.71875 30.859375 
Q 16.703125 27.09375 16.703125 20.515625 
Q 16.703125 13.921875 20.71875 10.15625 
Q 24.75 6.390625 31.78125 6.390625 
Q 38.8125 6.390625 42.859375 10.171875 
Q 46.921875 13.96875 46.921875 20.515625 
Q 46.921875 27.09375 42.890625 30.859375 
Q 38.875 34.625 31.78125 34.625 
z
M 21.921875 38.8125 
Q 15.578125 40.375 12.03125 44.71875 
Q 8.5 49.078125 8.5 55.328125 
Q 8.5 64.0625 14.71875 69.140625 
Q 20.953125 74.21875 31.78125 74.21875 
Q 42.671875 74.21875 48.875 69.140625 
Q 55.078125 64.0625 55.078125 55.328125 
Q 55.078125 49.078125 51.53125 44.71875 
Q 48 40.375 41.703125 38.8125 
Q 48.828125 37.15625 52.796875 32.3125 
Q 56.78125 27.484375 56.78125 20.515625 
Q 56.78125 9.90625 50.3125 4.234375 
Q 43.84375 -1.421875 31.78125 -1.421875 
Q 19.734375 -1.421875 13.25 4.234375 
Q 6.78125 9.90625 6.78125 20.515625 
Q 6.78125 27.484375 10.78125 32.3125 
Q 14.796875 37.15625 21.921875 38.8125 
z
M 18.3125 54.390625 
Q 18.3125 48.734375 21.84375 45.5625 
Q 25.390625 42.390625 31.78125 42.390625 
Q 38.140625 42.390625 41.71875 45.5625 
Q 45.3125 48.734375 45.3125 54.390625 
Q 45.3125 60.0625 41.71875 63.234375 
Q 38.140625 66.40625 31.78125 66.40625 
Q 25.390625 66.40625 21.84375 63.234375 
Q 18.3125 60.0625 18.3125 54.390625 
z
" id="DejaVuSans-56"/>
       </defs>
       <use xlink:href="#DejaVuSans-56"/>
       <use x="63.623047" xlink:href="#DejaVuSans-48"/>
      </g>
     </g>
    </g>
    <g id="ytick_6">
     <g id="line2d_15">
      <g>
       <use style="stroke:#000000;stroke-width:0.8;" x="108" xlink:href="#m2a8a7e2331" y="153.15938"/>
      </g>
     </g>
     <g id="text_16">
      <!-- 100 -->
      <g transform="translate(78.095 157.718442)scale(0.12 -0.12)">
       <use xlink:href="#DejaVuSans-49"/>
       <use x="63.623047" xlink:href="#DejaVuSans-48"/>
       <use x="127.246094" xlink:href="#DejaVuSans-48"/>
      </g>
     </g>
    </g>
    <g id="ytick_7">
     <g id="line2d_16">
      <g>
       <use style="stroke:#000000;stroke-width:0.8;" x="108" xlink:href="#m2a8a7e2331" y="92.940489"/>
      </g>
     </g>
     <g id="text_17">
      <!-- 120 -->
      <g transform="translate(78.095 97.499551)scale(0.12 -0.12)">
       <use xlink:href="#DejaVuSans-49"/>
       <use x="63.623047" xlink:href="#DejaVuSans-50"/>
       <use x="127.246094" xlink:href="#DejaVuSans-48"/>
      </g>
     </g>
    </g>
    <g id="text_18">
     <!-- NO2(ppm) -->
     <g transform="translate(70.975469 303.927188)rotate(-90)scale(0.15 -0.15)">
      <defs>
       <path d="M 9.8125 72.90625 
L 23.09375 72.90625 
L 55.421875 11.921875 
L 55.421875 72.90625 
L 64.984375 72.90625 
L 64.984375 0 
L 51.703125 0 
L 19.390625 60.984375 
L 19.390625 0 
L 9.8125 0 
z
" id="DejaVuSans-78"/>
       <path d="M 39.40625 66.21875 
Q 28.65625 66.21875 22.328125 58.203125 
Q 16.015625 50.203125 16.015625 36.375 
Q 16.015625 22.609375 22.328125 14.59375 
Q 28.65625 6.59375 39.40625 6.59375 
Q 50.140625 6.59375 56.421875 14.59375 
Q 62.703125 22.609375 62.703125 36.375 
Q 62.703125 50.203125 56.421875 58.203125 
Q 50.140625 66.21875 39.40625 66.21875 
z
M 39.40625 74.21875 
Q 54.734375 74.21875 63.90625 63.9375 
Q 73.09375 53.65625 73.09375 36.375 
Q 73.09375 19.140625 63.90625 8.859375 
Q 54.734375 -1.421875 39.40625 -1.421875 
Q 24.03125 -1.421875 14.8125 8.828125 
Q 5.609375 19.09375 5.609375 36.375 
Q 5.609375 53.65625 14.8125 63.9375 
Q 24.03125 74.21875 39.40625 74.21875 
z
" id="DejaVuSans-79"/>
       <path d="M 31 75.875 
Q 24.46875 64.65625 21.28125 53.65625 
Q 18.109375 42.671875 18.109375 31.390625 
Q 18.109375 20.125 21.3125 9.0625 
Q 24.515625 -2 31 -13.1875 
L 23.1875 -13.1875 
Q 15.875 -1.703125 12.234375 9.375 
Q 8.59375 20.453125 8.59375 31.390625 
Q 8.59375 42.28125 12.203125 53.3125 
Q 15.828125 64.359375 23.1875 75.875 
z
" id="DejaVuSans-40"/>
       <path d="M 18.109375 8.203125 
L 18.109375 -20.796875 
L 9.078125 -20.796875 
L 9.078125 54.6875 
L 18.109375 54.6875 
L 18.109375 46.390625 
Q 20.953125 51.265625 25.265625 53.625 
Q 29.59375 56 35.59375 56 
Q 45.5625 56 51.78125 48.09375 
Q 58.015625 40.1875 58.015625 27.296875 
Q 58.015625 14.40625 51.78125 6.484375 
Q 45.5625 -1.421875 35.59375 -1.421875 
Q 29.59375 -1.421875 25.265625 0.953125 
Q 20.953125 3.328125 18.109375 8.203125 
z
M 48.6875 27.296875 
Q 48.6875 37.203125 44.609375 42.84375 
Q 40.53125 48.484375 33.40625 48.484375 
Q 26.265625 48.484375 22.1875 42.84375 
Q 18.109375 37.203125 18.109375 27.296875 
Q 18.109375 17.390625 22.1875 11.75 
Q 26.265625 6.109375 33.40625 6.109375 
Q 40.53125 6.109375 44.609375 11.75 
Q 48.6875 17.390625 48.6875 27.296875 
z
" id="DejaVuSans-112"/>
       <path d="M 52 44.1875 
Q 55.375 50.25 60.0625 53.125 
Q 64.75 56 71.09375 56 
Q 79.640625 56 84.28125 50.015625 
Q 88.921875 44.046875 88.921875 33.015625 
L 88.921875 0 
L 79.890625 0 
L 79.890625 32.71875 
Q 79.890625 40.578125 77.09375 44.375 
Q 74.3125 48.1875 68.609375 48.1875 
Q 61.625 48.1875 57.5625 43.546875 
Q 53.515625 38.921875 53.515625 30.90625 
L 53.515625 0 
L 44.484375 0 
L 44.484375 32.71875 
Q 44.484375 40.625 41.703125 44.40625 
Q 38.921875 48.1875 33.109375 48.1875 
Q 26.21875 48.1875 22.15625 43.53125 
Q 18.109375 38.875 18.109375 30.90625 
L 18.109375 0 
L 9.078125 0 
L 9.078125 54.6875 
L 18.109375 54.6875 
L 18.109375 46.1875 
Q 21.1875 51.21875 25.484375 53.609375 
Q 29.78125 56 35.6875 56 
Q 41.65625 56 45.828125 52.96875 
Q 50 49.953125 52 44.1875 
z
" id="DejaVuSans-109"/>
       <path d="M 8.015625 75.875 
L 15.828125 75.875 
Q 23.140625 64.359375 26.78125 53.3125 
Q 30.421875 42.28125 30.421875 31.390625 
Q 30.421875 20.453125 26.78125 9.375 
Q 23.140625 -1.703125 15.828125 -13.1875 
L 8.015625 -13.1875 
Q 14.5 -2 17.703125 9.0625 
Q 20.90625 20.125 20.90625 31.390625 
Q 20.90625 42.671875 17.703125 53.65625 
Q 14.5 64.65625 8.015625 75.875 
z
" id="DejaVuSans-41"/>
      </defs>
      <use xlink:href="#DejaVuSans-78"/>
      <use x="74.804688" xlink:href="#DejaVuSans-79"/>
      <use x="153.515625" xlink:href="#DejaVuSans-50"/>
      <use x="217.138672" xlink:href="#DejaVuSans-40"/>
      <use x="256.152344" xlink:href="#DejaVuSans-112"/>
      <use x="319.628906" xlink:href="#DejaVuSans-112"/>
      <use x="383.105469" xlink:href="#DejaVuSans-109"/>
      <use x="480.517578" xlink:href="#DejaVuSans-41"/>
     </g>
    </g>
   </g>
   <g id="line2d_17">
    <path clip-path="url(#pee15afb9a1)" d="M 138.436364 211.115596 
L 139.273678 282.896413 
L 140.110992 292.917581 
L 140.948306 238.312304 
L 141.78562 209.09194 
L 142.622934 266.898211 
L 143.460248 246.317301 
L 144.297562 230.236549 
L 145.134876 235.250876 
L 145.97219 213.10859 
L 147.646818 277.129702 
L 148.484132 266.778026 
L 149.321446 263.980656 
L 150.15876 234.901807 
L 150.996074 272.773417 
L 151.833388 250.555657 
L 152.670702 253.072255 
L 153.508016 235.35937 
L 154.345329 264.001883 
L 155.182643 273.426742 
L 156.019957 312.35971 
L 156.857271 340.039925 
L 157.694585 306.168455 
L 158.531899 295.998288 
L 159.369213 281.153428 
L 160.206527 286.736171 
L 161.043841 258.136112 
L 161.881155 288.233865 
L 162.718469 290.733952 
L 163.555783 244.364403 
L 164.393097 307.998708 
L 165.230411 332.51136 
L 166.067725 350.471895 
L 166.905039 307.824174 
L 167.742353 336.037427 
L 168.579667 338.21439 
L 169.416981 335.766191 
L 170.254295 285.776231 
L 171.091609 295.578462 
L 171.928923 291.097172 
L 172.766237 322.610069 
L 173.603551 337.799281 
L 174.440865 358.785865 
L 175.278179 302.498515 
L 176.115493 299.793232 
L 176.952807 273.613069 
L 177.790121 256.607756 
L 178.627435 266.325078 
L 179.464749 231.510179 
L 180.302063 328.525371 
L 181.139377 319.855256 
L 181.976691 281.577971 
L 182.814005 293.578391 
L 183.651319 326.638512 
L 184.488633 281.342114 
L 185.325947 257.678548 
L 186.163261 263.487714 
L 187.000575 312.354993 
L 187.837889 330.030141 
L 188.675203 293.734057 
L 189.512517 315.088579 
L 190.349831 320.668963 
L 191.187145 293.314231 
L 192.024459 316.871661 
L 192.861773 313.357386 
L 193.699087 247.489512 
L 194.536401 293.540654 
L 195.373715 270.528055 
L 196.211029 262.121588 
L 197.048343 245.430273 
L 197.885657 276.903279 
L 198.722971 317.753767 
L 199.560285 256.952108 
L 200.397599 227.811936 
L 201.234913 219.68901 
L 202.072227 261.199898 
L 202.909541 266.80151 
L 203.746855 284.200704 
L 204.584169 279.292513 
L 205.421483 343.729603 
L 206.258797 304.50802 
L 207.096111 283.353977 
L 207.933425 302.479647 
L 208.770739 278.610886 
L 209.608053 344.811319 
L 210.445367 315.866908 
L 211.282681 307.406706 
L 212.119995 308.748734 
L 212.957309 299.170569 
L 213.794623 304.460848 
L 214.631937 279.117979 
L 215.469251 304.250935 
L 217.143879 265.374573 
L 217.981193 208.764098 
L 218.818507 219.448435 
L 219.655821 278.219363 
L 220.493135 247.607441 
L 221.330449 258.499332 
L 222.167763 194.34614 
L 223.005077 186.357653 
L 223.842391 163.559684 
L 225.517019 287.106467 
L 226.354333 262.030116 
L 227.191647 314.298457 
L 228.028961 325.879052 
L 228.866275 341.681492 
L 229.703589 322.985082 
L 230.540903 284.30684 
L 231.378217 270.282764 
L 232.215531 224.618428 
L 233.052845 140.131976 
L 233.890159 135.11765 
L 234.727473 238.401929 
L 236.402101 269.119987 
L 237.239415 308.604861 
L 238.076729 308.003425 
L 238.914043 322.169016 
L 239.751357 342.426801 
L 240.588671 358.417928 
L 241.425985 367.889958 
L 242.263299 373.713275 
L 243.100613 378.114373 
L 243.937927 372.814659 
L 244.775241 345.389169 
L 245.612555 280.294907 
L 246.449869 169.17073 
L 248.124497 329.598522 
L 248.961811 336.782736 
L 249.799125 336.240674 
L 250.636439 335.447783 
L 251.473753 248.786727 
L 252.311067 281.842131 
L 253.148381 342.04943 
L 253.985695 327.926293 
L 254.823009 276.915072 
L 256.497637 322.055805 
L 257.334951 304.939639 
L 258.172265 311.666289 
L 259.009579 222.908462 
L 259.846893 288.193769 
L 260.684207 327.631472 
L 261.521521 321.725604 
L 262.358835 380.78728 
L 263.196149 379.609708 
L 264.033463 342.669734 
L 264.870777 352.887074 
L 265.708091 354.587605 
L 266.545405 357.467423 
L 267.382719 332.247199 
L 268.220033 343.073051 
L 269.057347 362.689304 
L 269.89466 370.953745 
L 270.731974 375.765234 
L 271.569288 343.519495 
L 272.406602 322.180809 
L 273.243916 342.006975 
L 274.08123 367.055023 
L 274.918544 354.196082 
L 275.755858 357.512133 
L 276.593172 344.582537 
L 277.430486 351.745524 
L 278.2678 350.705393 
L 279.105114 360.543002 
L 279.942428 377.494068 
L 280.779742 365.790828 
L 281.617056 358.81181 
L 282.45437 360.531209 
L 283.291684 378.352589 
L 284.128998 383.423521 
L 284.966312 360.627911 
L 285.803626 358.394342 
L 286.64094 354.881079 
L 287.478254 344.981136 
L 288.315568 361.071323 
L 289.152882 352.160633 
L 289.990196 349.754888 
L 290.82751 368.790933 
L 291.664824 361.807198 
L 292.502138 353.618231 
L 293.339452 363.944065 
L 294.176766 371.722639 
L 295.01408 368.908862 
L 295.851394 378.737036 
L 296.688708 368.800367 
L 297.526022 372.430211 
L 299.20065 329.405119 
L 300.037964 333.289689 
L 300.875278 366.96068 
L 301.712592 373.128349 
L 302.549906 376.873763 
L 303.38722 371.581125 
L 304.224534 359.252145 
L 305.061848 335.129376 
L 305.899162 345.792485 
L 306.736476 345.931641 
L 307.57379 338.167218 
L 308.411104 350.030842 
L 309.248418 367.715424 
L 310.085732 371.248566 
L 310.923046 366.868696 
L 311.76036 354.196082 
L 312.597674 356.597109 
L 313.434988 382.312633 
L 314.272302 396.415615 
L 315.109616 377.916253 
L 315.94693 338.377131 
L 316.784244 347.009509 
L 317.621558 360.410922 
L 318.458872 383.977786 
L 319.296186 389.315237 
L 320.1335 373.217975 
L 320.970814 369.118775 
L 321.808128 353.236143 
L 322.645442 370.413631 
L 323.482756 355.896613 
L 324.32007 355.266874 
L 325.157384 352.824403 
L 325.994698 346.908091 
L 326.832012 371.812265 
L 327.669326 372.293414 
L 328.50664 310.239353 
L 329.343954 374.56472 
L 330.181268 366.672934 
L 331.018582 305.984487 
L 331.855896 303.06929 
L 332.69321 336.098749 
L 333.530524 307.140187 
L 334.367838 312.102626 
L 335.205152 319.772706 
L 336.042466 262.077287 
L 336.87978 224.078314 
L 337.717094 231.75547 
L 338.554408 267.542102 
L 339.391722 280.445856 
L 340.229036 203.622409 
L 342.740978 295.507704 
L 343.578292 306.621301 
L 344.415606 297.05257 
L 345.25292 338.124764 
L 346.090234 336.143562 
L 346.927548 300.812136 
L 347.764862 314.793758 
L 348.602176 343.716941 
L 349.43949 291.54766 
L 350.276804 314.737152 
L 351.114118 332.020776 
L 351.951432 362.79544 
L 352.788746 387.213748 
L 353.62606 372.909002 
L 354.463374 373.769881 
L 355.300688 370.434858 
L 356.138002 348.818535 
L 356.975316 354.592322 
L 357.81263 335.454859 
L 358.649944 330.190524 
L 359.487258 259.400307 
L 360.324572 276.662704 
L 361.161886 329.348513 
L 361.9992 359.83543 
L 362.836514 274.990476 
L 363.673828 325.35309 
L 364.511142 309.501119 
L 365.348456 334.735494 
L 366.18577 336.299228 
L 367.023084 318.836352 
L 367.860398 250.282063 
L 368.697712 315.940024 
L 369.535026 276.27354 
L 370.37234 279.917535 
L 371.209654 275.509362 
L 372.046968 236.623565 
L 372.884282 230.776662 
L 373.721596 247.482436 
L 374.55891 197.126898 
L 375.396224 382.015453 
L 376.233538 337.973815 
L 377.070852 324.801184 
L 377.908166 246.579103 
L 378.74548 282.264316 
L 379.582794 280.278397 
L 380.420108 266.997271 
L 381.257422 260.350812 
L 382.094736 241.729876 
L 382.93205 230.290796 
L 383.769364 207.672079 
L 384.606678 208.162662 
L 385.443991 273.129562 
L 386.281305 274.6532 
L 387.118619 267.070387 
L 387.955933 254.768069 
L 388.793247 279.169868 
L 389.630561 259.638523 
L 390.467875 285.49792 
L 392.142503 214.903464 
L 392.979817 248.652289 
L 393.817131 274.532913 
L 394.654445 281.330321 
L 395.491759 206.011643 
L 396.329073 223.932083 
L 397.166387 216.905893 
L 398.003701 208.325404 
L 398.841015 167.312174 
L 399.678329 208.87731 
L 400.515643 205.955038 
L 401.352957 175.987006 
L 402.190271 234.279143 
L 403.027585 260.544215 
L 403.864899 274.06048 
L 404.702213 319.665032 
L 405.539527 293.502917 
L 406.376841 293.248191 
L 407.214155 292.113717 
L 408.051469 325.475736 
L 408.888783 283.080382 
L 409.726097 300.965443 
L 410.563411 239.383096 
L 411.400725 256.893144 
L 412.238039 206.155516 
L 413.912667 244.854986 
L 414.749981 243.508241 
L 415.587295 253.040178 
L 417.261923 228.472336 
L 418.099237 260.08901 
L 418.936551 245.777188 
L 419.773865 226.54774 
L 420.611179 196.872172 
L 421.448493 151.998901 
L 422.285807 197.758996 
L 423.123121 187.808175 
L 423.960435 172.352445 
L 424.797749 178.128376 
L 425.635063 203.881647 
L 426.472377 252.585396 
L 427.309691 263.914616 
L 428.147005 286.203133 
L 428.984319 278.962313 
L 429.821633 284.940867 
L 431.496261 251.850514 
L 432.333575 232.96306 
L 433.170889 199.634061 
L 434.845517 116.220761 
L 435.682831 229.201135 
L 437.357459 274.86783 
L 438.194773 102.734439 
L 439.032087 203.313436 
L 439.869401 191.452171 
L 440.706715 240.522287 
L 441.544029 256.180854 
L 442.381343 264.326622 
L 443.218657 208.598998 
L 444.055971 165.437108 
L 444.893285 145.610942 
L 445.730599 103.814666 
L 446.567913 216.799757 
L 447.405227 233.746106 
L 448.242541 268.362885 
L 449.079855 259.397948 
L 449.917169 233.385244 
L 450.754483 236.83112 
L 451.591797 197.039631 
L 452.429111 131.466578 
L 453.266425 86.923636 
L 454.103739 111.528123 
L 454.941053 144.054283 
L 455.778367 208.16545 
L 456.615681 203.248182 
L 457.452995 234.589189 
L 458.290309 229.121955 
L 459.127623 126.777735 
L 459.964937 182.050898 
L 460.802251 101.263161 
L 461.639565 219.957887 
L 463.314193 144.563735 
L 464.151507 229.11151 
L 464.988821 217.19128 
L 465.826135 251.397668 
L 466.663449 266.405269 
L 467.500763 238.371268 
L 468.338077 235.121154 
L 469.175391 223.983971 
L 470.012705 274.365454 
L 470.850019 236.213174 
L 471.687333 253.093482 
L 472.524647 202.558692 
L 473.361961 260.551291 
L 474.199275 278.971747 
L 475.036589 321.081714 
L 475.873903 329.997121 
L 476.711217 313.251251 
L 477.548531 289.559383 
L 478.385845 304.314617 
L 479.223159 253.381228 
L 480.060473 273.695619 
L 480.897787 283.311522 
L 481.735101 284.861105 
L 482.572415 280.004803 
L 483.409729 274.27347 
L 484.247043 211.202863 
L 485.084357 232.333321 
L 485.921671 249.371654 
L 486.758985 291.79531 
L 487.596299 324.749295 
L 488.433613 314.50837 
L 489.270927 294.587861 
L 490.108241 329.530123 
L 490.945555 315.454158 
L 491.782869 268.141179 
L 492.620183 281.735995 
L 493.457497 312.451694 
L 494.294811 284.875256 
L 495.969439 298.764894 
L 496.806753 307.390196 
L 497.644067 345.86796 
L 498.481381 288.047537 
L 499.318695 314.713566 
L 500.156009 325.143177 
L 500.993322 250.437729 
L 501.830636 304.750953 
L 502.66795 330.921681 
L 503.505264 307.222738 
L 504.342578 292.281176 
L 505.179892 301.944251 
L 506.017206 349.764323 
L 506.85452 332.97364 
L 507.691834 301.236679 
L 508.529148 312.163948 
L 509.366462 254.911942 
L 510.203776 236.949048 
L 511.04109 117.621753 
L 511.878404 258.032334 
L 512.715718 312.031868 
L 513.553032 282.27375 
L 514.390346 292.981672 
L 515.22766 354.309293 
L 516.064974 364.31672 
L 516.902288 363.880383 
L 517.739602 358.946248 
L 518.576916 341.129586 
L 519.41423 335.301552 
L 520.251544 303.484399 
L 521.088858 296.253013 
L 521.926172 293.420367 
L 522.763486 351.000215 
L 523.6008 301.425365 
L 524.438114 308.097768 
L 525.275428 329.1386 
L 526.112742 335.669489 
L 526.950056 309.564801 
L 527.78737 305.276915 
L 528.624684 337.485591 
L 529.461998 355.094698 
L 530.299312 339.563494 
L 531.136626 285.559242 
L 531.97394 323.704447 
L 532.811254 320.364708 
L 533.648568 336.872362 
L 534.485882 319.711383 
L 535.323196 276.287691 
L 536.16051 267.292093 
L 536.997824 340.931466 
L 537.835138 338.716766 
L 538.672452 353.936639 
L 539.509766 334.259062 
L 540.34708 322.727998 
L 541.184394 282.910565 
L 542.021708 221.73861 
L 542.859022 233.628177 
L 543.696336 293.097243 
L 544.53365 338.19788 
L 545.370964 330.80847 
L 546.208278 216.830419 
L 547.045592 321.593524 
L 547.882906 291.163212 
L 548.72022 323.680861 
L 549.557534 347.014226 
L 550.394848 358.191505 
L 551.232162 363.793116 
L 552.069476 372.986835 
L 552.90679 375.642588 
L 553.744104 366.757843 
L 554.581418 363.70349 
L 555.418732 368.673004 
L 556.256046 369.873518 
L 557.09336 373.196748 
L 557.930674 369.642378 
L 558.767988 367.09276 
L 559.605302 380.958812 
L 560.442616 370.123527 
L 561.27993 373.503362 
L 562.117244 352.354036 
L 562.954558 352.06629 
L 563.791872 366.592743 
L 564.629186 361.828425 
L 565.4665 329.324927 
L 566.303814 374.11895 
L 567.141128 376.64734 
L 568.815756 340.591831 
L 569.65307 342.54473 
L 570.490384 368.66357 
L 571.327698 305.347672 
L 572.165012 212.080252 
L 573.002326 251.067468 
L 573.83964 328.681037 
L 574.676954 313.968257 
L 575.514268 342.886723 
L 576.351582 386.687787 
L 577.188896 381.322032 
L 578.02621 384.588656 
L 578.863524 382.291406 
L 579.700838 377.798324 
L 580.538152 357.738659 
L 581.375466 371.949062 
L 582.21278 365.670541 
L 583.050094 361.590209 
L 583.887408 341.273459 
L 584.724722 341.082415 
L 585.562036 332.258992 
L 586.39935 301.642353 
L 587.236664 287.139487 
L 588.073978 318.848145 
L 588.911292 302.385304 
L 590.58592 368.875842 
L 591.423234 351.38938 
L 592.260548 367.606929 
L 593.097862 354.712609 
L 593.935176 352.184219 
L 594.77249 353.130007 
L 595.609804 357.849083 
L 596.447118 357.366004 
L 597.284432 397.589112 
L 598.121746 400.768469 
L 598.95906 379.864434 
L 599.796374 369.10934 
L 600.633688 345.790127 
L 601.471002 374.640195 
L 602.308316 389.020415 
L 603.14563 365.738939 
L 603.982944 349.160528 
L 604.820258 350.200659 
L 605.657572 365.812055 
L 606.494886 320.567545 
L 607.3322 322.477989 
L 608.169514 367.814484 
L 609.006828 376.843102 
L 609.844142 365.120993 
L 610.681456 349.844514 
L 611.51877 337.032744 
L 612.356084 242.095455 
L 613.193398 234.022059 
L 614.030712 264.249533 
L 614.868026 299.861631 
L 615.70534 227.224651 
L 616.542653 271.976219 
L 617.379967 281.514289 
L 618.217281 308.699204 
L 619.054595 310.366716 
L 619.891909 287.915457 
L 620.729223 282.103933 
L 621.566537 329.548992 
L 622.403851 217.037973 
L 623.241165 250.841045 
L 624.078479 254.624196 
L 624.915793 268.610535 
L 625.753107 311.237029 
L 626.590421 341.981031 
L 627.427735 358.49037 
L 628.265049 346.768935 
L 629.102363 341.271101 
L 629.939677 337.016234 
L 630.776991 333.476016 
L 631.614305 352.988492 
L 632.451619 345.58729 
L 633.288933 334.376991 
L 634.126247 328.964065 
L 634.963561 310.166237 
L 635.800875 335.586939 
L 636.638189 348.228892 
L 637.475503 364.257755 
L 638.312817 366.010175 
L 639.150131 365.444118 
L 639.987445 370.007957 
L 640.824759 361.979373 
L 642.499387 331.36981 
L 643.336701 356.573524 
L 644.174015 354.722044 
L 645.011329 309.088369 
L 645.848643 366.767277 
L 646.685957 374.989263 
L 647.523271 353.299824 
L 648.360585 366.319148 
L 649.197899 371.413666 
L 650.035213 325.84839 
L 650.872527 353.181895 
L 651.709841 358.429721 
L 652.547155 292.561846 
L 653.384469 314.369214 
L 654.221783 301.840473 
L 655.059097 264.971257 
L 655.896411 285.408294 
L 656.733725 342.292363 
L 657.571039 303.805165 
L 658.408353 280.33972 
L 659.245667 285.540374 
L 660.082981 328.032429 
L 660.920295 393.584255 
L 662.594923 338.558741 
L 663.432237 376.550639 
L 664.269551 378.833738 
L 665.106865 376.248741 
L 665.944179 351.993174 
L 666.781493 286.941366 
L 667.618807 267.134068 
L 668.456121 233.75554 
L 669.293435 241.708649 
L 670.130749 240.416151 
L 670.968063 271.459692 
L 671.805377 307.666149 
L 672.642691 364.125675 
L 673.480005 343.334852 
L 674.317319 340.523433 
L 675.154633 322.539312 
L 676.829261 390.454428 
L 677.666575 442.996364 
L 678.503889 373.267505 
L 679.341203 283.236048 
L 680.178517 323.869547 
L 681.015831 411.636774 
L 681.853145 352.521495 
L 682.690459 316.241922 
L 683.527773 315.326795 
L 684.365087 334.476051 
L 685.202401 309.965758 
L 686.039715 278.308988 
L 686.877029 325.268181 
L 687.714343 324.034647 
L 688.551657 324.119556 
L 689.388971 315.730111 
L 690.226285 311.404488 
L 691.063599 292.417973 
L 691.900913 230.422876 
L 692.738227 268.782711 
L 693.575541 286.688999 
L 694.412855 296.859167 
L 695.250169 312.678117 
L 696.087483 317.803297 
L 696.924797 295.290716 
L 697.762111 331.843883 
L 698.599425 309.791224 
L 699.436739 327.879122 
L 700.274053 303.611762 
L 701.111367 300.286174 
L 701.948681 320.407162 
L 702.785995 322.602994 
L 703.623309 266.568011 
L 704.460623 290.30705 
L 705.297937 222.500429 
L 706.135251 265.652884 
L 706.972565 283.122836 
L 707.809879 290.545266 
L 708.647193 252.841115 
L 709.484507 210.080182 
L 710.321821 212.707633 
L 711.159135 254.812062 
L 711.996449 245.979102 
L 712.833763 318.926696 
L 713.671077 303.891714 
L 714.508391 305.826155 
L 715.345705 288.657382 
L 717.020333 190.212587 
L 718.694961 208.720208 
L 719.532275 216.325069 
L 720.369589 230.136874 
L 721.206903 220.553273 
L 722.044217 259.827824 
L 722.881531 240.862434 
L 723.718845 227.663448 
L 724.556159 237.350416 
L 725.393473 224.075135 
L 726.230787 208.656219 
L 727.068101 189.29037 
L 727.905415 266.765721 
L 728.742729 238.145358 
L 729.580043 226.974335 
L 730.417357 237.377488 
L 731.254671 245.2703 
L 732.091984 221.166092 
L 732.929298 181.918613 
L 734.603926 268.778917 
L 735.44124 269.751059 
L 736.278554 256.387178 
L 737.115868 262.633501 
L 737.953182 271.553606 
L 738.790496 308.567842 
L 739.62781 256.333034 
L 740.465124 249.333609 
L 741.302438 194.950243 
L 742.139752 271.308948 
L 742.977066 336.260363 
L 743.81438 327.66121 
L 745.489008 244.866676 
L 746.326322 247.888931 
L 747.163636 254.706233 
L 747.163636 254.706233 
" style="fill:none;stroke:#1f77b4;stroke-linecap:square;stroke-width:1.5;"/>
   </g>
   <g id="line2d_18">
    <path clip-path="url(#pee15afb9a1)" d="M 138.436364 209.93872 
L 139.273678 246.012051 
L 140.110992 260.749535 
L 140.948306 236.778721 
L 141.78562 217.63412 
L 142.622934 254.038472 
L 143.460248 217.868798 
L 144.297562 221.264725 
L 145.134876 222.869412 
L 145.97219 223.693797 
L 146.809504 218.30974 
L 147.646818 218.525007 
L 148.484132 267.800556 
L 149.321446 245.383891 
L 150.15876 237.697565 
L 150.996074 232.684363 
L 152.670702 219.187373 
L 153.508016 244.866982 
L 154.345329 224.074139 
L 155.182643 259.862392 
L 156.019957 279.795048 
L 156.857271 267.724175 
L 157.694585 250.962426 
L 158.531899 249.659541 
L 159.369213 250.520267 
L 160.206527 232.206873 
L 161.043841 207.833917 
L 161.881155 211.019492 
L 162.718469 213.126294 
L 163.555783 216.897578 
L 164.393097 245.436565 
L 165.230411 251.258531 
L 166.067725 272.473743 
L 166.905039 247.657054 
L 167.742353 268.326021 
L 168.579667 276.349778 
L 169.416981 276.860197 
L 170.254295 252.083582 
L 171.091609 238.31339 
L 171.928923 240.046029 
L 172.766237 252.708825 
L 173.603551 263.556962 
L 174.440865 268.402965 
L 175.278179 271.95549 
L 176.115493 256.809386 
L 176.952807 208.315587 
L 177.790121 268.84958 
L 178.627435 253.259158 
L 179.464749 230.630694 
L 180.302063 275.97264 
L 181.139377 287.65381 
L 181.976691 245.939599 
L 182.814005 261.449597 
L 183.651319 297.621902 
L 184.488633 301.862337 
L 185.325947 253.359613 
L 186.163261 254.050395 
L 187.837889 274.970041 
L 188.675203 243.469775 
L 189.512517 261.766928 
L 190.349831 259.040051 
L 191.187145 247.408546 
L 192.024459 238.190951 
L 192.861773 239.728423 
L 193.699087 243.353538 
L 194.536401 262.979764 
L 195.373715 252.833217 
L 196.211029 238.94263 
L 197.048343 232.121281 
L 197.885657 242.207803 
L 198.722971 270.346565 
L 199.560285 245.496291 
L 200.397599 215.916251 
L 201.234913 215.428539 
L 202.072227 221.64957 
L 202.909541 241.081685 
L 203.746855 235.990264 
L 204.584169 242.256411 
L 205.421483 297.012256 
L 206.258797 307.255789 
L 207.096111 278.875411 
L 207.933425 256.650376 
L 208.770739 250.089158 
L 209.608053 256.331919 
L 210.445367 253.422556 
L 211.282681 246.864094 
L 212.119995 253.578143 
L 212.957309 245.745051 
L 213.794623 262.631869 
L 214.631937 251.465552 
L 216.306565 235.026211 
L 217.143879 245.192123 
L 217.981193 223.046524 
L 218.818507 218.815783 
L 219.655821 236.640914 
L 220.493135 268.778529 
L 221.330449 195.425969 
L 222.167763 195.811342 
L 223.005077 155.273464 
L 223.842391 212.148987 
L 224.679705 245.961077 
L 225.517019 263.529626 
L 226.354333 258.275439 
L 227.191647 260.113288 
L 228.028961 300.390656 
L 228.866275 317.170425 
L 229.703589 298.054229 
L 230.540903 267.316554 
L 231.378217 244.32547 
L 232.215531 238.040601 
L 233.052845 193.612423 
L 233.890159 165.268191 
L 234.727473 175.738156 
L 235.564787 281.365254 
L 236.402101 224.703724 
L 237.239415 312.337309 
L 238.076729 299.216332 
L 238.914043 306.697485 
L 239.751357 341.858439 
L 240.588671 351.934991 
L 241.425985 349.203933 
L 242.263299 335.75763 
L 243.100613 355.059737 
L 243.937927 319.787716 
L 244.775241 326.831661 
L 245.612555 266.697099 
L 246.449869 273.579278 
L 247.287183 190.947478 
L 248.124497 294.165743 
L 248.961811 335.217911 
L 249.799125 294.625567 
L 250.636439 269.214049 
L 251.473753 252.830529 
L 252.311067 247.123858 
L 253.148381 258.481288 
L 253.985695 266.45909 
L 254.823009 290.756148 
L 255.660323 275.167023 
L 257.334951 260.272229 
L 258.172265 284.55779 
L 259.009579 258.342194 
L 259.846893 242.00471 
L 260.684207 289.69218 
L 261.521521 281.214675 
L 262.358835 317.143537 
L 263.196149 338.164155 
L 264.033463 335.54984 
L 264.870777 280.942334 
L 265.708091 329.080187 
L 266.545405 337.396522 
L 267.382719 304.02767 
L 268.220033 296.383969 
L 269.057347 308.954568 
L 269.89466 312.685744 
L 270.731974 315.004758 
L 271.569288 351.768446 
L 272.406602 335.038513 
L 273.243916 329.023297 
L 274.08123 360.884965 
L 274.918544 290.897619 
L 275.755858 328.986853 
L 276.593172 332.992471 
L 277.430486 351.723548 
L 278.2678 357.305495 
L 279.105114 356.612715 
L 279.942428 371.3552 
L 280.779742 365.089157 
L 281.617056 354.362294 
L 282.45437 354.871312 
L 283.291684 331.27783 
L 284.128998 357.96952 
L 284.966312 340.753765 
L 285.803626 340.444061 
L 286.64094 353.858777 
L 287.478254 327.446188 
L 288.315568 327.376147 
L 289.152882 312.10757 
L 289.990196 331.370154 
L 290.82751 341.349317 
L 291.664824 356.563911 
L 292.502138 348.57166 
L 293.339452 347.362465 
L 294.176766 351.70795 
L 295.01408 332.126783 
L 295.851394 350.715148 
L 296.688708 336.533522 
L 297.526022 354.932405 
L 298.363336 352.365124 
L 299.20065 335.24465 
L 300.037964 341.448934 
L 300.875278 349.887892 
L 301.712592 367.636757 
L 302.549906 375.573307 
L 303.38722 375.176023 
L 304.224534 362.943579 
L 305.061848 318.333803 
L 305.899162 341.286708 
L 306.736476 338.673013 
L 307.57379 340.996863 
L 308.411104 345.564874 
L 309.248418 355.719426 
L 310.085732 368.328842 
L 310.923046 365.86958 
L 311.76036 369.632428 
L 312.597674 344.237914 
L 314.272302 328.617824 
L 315.109616 312.966894 
L 315.94693 294.251726 
L 316.784244 297.903167 
L 317.621558 316.479839 
L 318.458872 326.406765 
L 319.296186 356.696469 
L 320.1335 343.120514 
L 320.970814 344.722962 
L 321.808128 347.918667 
L 322.645442 343.971317 
L 323.482756 320.742786 
L 325.157384 321.999579 
L 325.994698 358.04029 
L 326.832012 353.340123 
L 327.669326 338.309532 
L 328.50664 275.235594 
L 329.343954 312.87642 
L 330.181268 323.735974 
L 331.018582 301.459425 
L 331.855896 316.535212 
L 332.69321 338.755113 
L 333.530524 313.485457 
L 334.367838 311.526765 
L 335.205152 312.219224 
L 336.042466 295.190464 
L 336.87978 253.219968 
L 337.717094 254.132725 
L 338.554408 279.039762 
L 339.391722 285.645476 
L 340.229036 239.669386 
L 342.740978 255.275521 
L 343.578292 297.185129 
L 344.415606 272.050225 
L 345.25292 303.63714 
L 346.090234 286.638738 
L 346.927548 272.77265 
L 347.764862 273.785437 
L 348.602176 305.727644 
L 349.43949 310.059391 
L 350.276804 271.745253 
L 351.114118 320.285926 
L 351.951432 335.352685 
L 352.788746 310.300227 
L 353.62606 351.1942 
L 354.463374 344.775326 
L 355.300688 317.115167 
L 356.138002 319.689856 
L 356.975316 336.631174 
L 357.81263 301.645679 
L 358.649944 320.603061 
L 359.487258 290.373612 
L 360.324572 243.480687 
L 361.161886 319.576296 
L 361.9992 307.791581 
L 362.836514 265.96359 
L 363.673828 300.645228 
L 364.511142 258.221731 
L 365.348456 311.113401 
L 366.18577 288.091111 
L 367.023084 319.369872 
L 367.860398 281.113255 
L 368.697712 249.566345 
L 369.535026 279.826358 
L 370.37234 249.68249 
L 371.209654 255.909815 
L 372.046968 258.157456 
L 372.884282 241.121655 
L 373.721596 240.895063 
L 374.55891 222.04126 
L 375.396224 309.724924 
L 376.233538 307.664789 
L 377.070852 271.724177 
L 377.908166 286.682947 
L 378.74548 281.619953 
L 379.582794 274.096336 
L 380.420108 273.321777 
L 381.257422 262.11898 
L 382.094736 232.930573 
L 382.93205 240.800603 
L 383.769364 223.863879 
L 384.606678 201.088213 
L 385.443991 217.241786 
L 386.281305 261.082877 
L 387.118619 244.035637 
L 387.955933 271.427336 
L 388.793247 247.083106 
L 389.630561 260.100309 
L 390.467875 260.864807 
L 391.305189 249.410046 
L 392.142503 196.790372 
L 392.979817 249.221127 
L 393.817131 238.45168 
L 394.654445 270.990266 
L 395.491759 220.450241 
L 396.329073 208.630896 
L 397.166387 230.097682 
L 398.003701 193.334879 
L 398.841015 187.289536 
L 399.678329 214.88326 
L 400.515643 201.421923 
L 401.352957 182.592562 
L 402.190271 206.794609 
L 403.027585 234.672907 
L 403.864899 248.52157 
L 404.702213 298.354204 
L 405.539527 263.965318 
L 406.376841 258.408973 
L 407.214155 260.648391 
L 408.051469 300.737494 
L 408.888783 280.375393 
L 409.726097 295.599325 
L 410.563411 246.574926 
L 411.400725 270.048679 
L 412.238039 250.863211 
L 413.075353 228.998005 
L 413.912667 249.672681 
L 414.749981 211.500289 
L 415.587295 228.260246 
L 416.424609 239.912839 
L 417.261923 204.942494 
L 418.099237 235.308671 
L 418.936551 231.898823 
L 419.773865 209.464125 
L 421.448493 160.095335 
L 422.285807 192.041849 
L 423.123121 196.823635 
L 423.960435 142.374886 
L 424.797749 181.672798 
L 425.635063 183.083122 
L 426.472377 221.343036 
L 427.309691 216.034326 
L 428.147005 253.719396 
L 428.984319 258.726235 
L 429.821633 259.516507 
L 430.658947 252.05303 
L 431.496261 231.70044 
L 432.333575 226.402595 
L 433.170889 191.316932 
L 434.008203 164.575181 
L 434.845517 115.668972 
L 435.682831 193.977053 
L 436.520145 224.002169 
L 437.357459 245.640117 
L 438.194773 167.64259 
L 439.032087 149.518253 
L 439.869401 242.100157 
L 440.706715 184.081242 
L 441.544029 234.916751 
L 442.381343 186.513644 
L 443.218657 157.388559 
L 444.055971 146.819218 
L 444.893285 119.093797 
L 445.730599 123.883485 
L 446.567913 158.955434 
L 447.405227 185.831156 
L 448.242541 223.141581 
L 449.079855 227.507326 
L 449.917169 209.361189 
L 450.754483 196.625435 
L 451.591797 178.657811 
L 453.266425 116.825182 
L 454.103739 112.476826 
L 454.941053 110.616189 
L 455.778367 214.716991 
L 456.615681 185.260562 
L 457.452995 181.468419 
L 458.290309 173.13613 
L 459.127623 154.381335 
L 459.964937 160.659543 
L 460.802251 159.426308 
L 461.639565 149.851434 
L 462.476879 231.393653 
L 463.314193 170.358739 
L 464.151507 147.995988 
L 464.988821 232.776043 
L 465.826135 207.61649 
L 466.663449 241.695534 
L 467.500763 179.98222 
L 468.338077 204.890096 
L 469.175391 182.395786 
L 470.012705 236.623478 
L 470.850019 182.409271 
L 471.687333 250.475174 
L 472.524647 195.006758 
L 473.361961 186.324312 
L 474.199275 257.310996 
L 475.036589 267.106834 
L 475.873903 251.305256 
L 476.711217 260.034748 
L 477.548531 256.991804 
L 478.385845 267.394244 
L 479.223159 224.034237 
L 480.060473 229.003288 
L 480.897787 261.762299 
L 481.735101 230.138365 
L 482.572415 225.544051 
L 483.409729 243.18063 
L 484.247043 177.884354 
L 485.084357 180.999521 
L 485.921671 176.291842 
L 487.596299 297.810706 
L 489.270927 248.96281 
L 490.108241 258.663407 
L 490.945555 256.120924 
L 491.782869 250.972419 
L 492.620183 238.996063 
L 493.457497 268.023978 
L 494.294811 247.934735 
L 495.132125 236.293306 
L 495.969439 243.586356 
L 496.806753 236.501613 
L 497.644067 258.54593 
L 498.481381 266.920683 
L 499.318695 266.990436 
L 500.156009 273.40614 
L 500.993322 253.293248 
L 501.830636 273.603444 
L 502.66795 276.410538 
L 503.505264 277.059718 
L 504.342578 278.461461 
L 505.179892 254.235041 
L 506.017206 313.835213 
L 506.85452 300.906175 
L 507.691834 274.167502 
L 508.529148 281.187316 
L 509.366462 250.353768 
L 510.203776 238.545059 
L 511.04109 214.057865 
L 511.878404 177.313761 
L 512.715718 260.802485 
L 513.553032 257.601564 
L 514.390346 233.204901 
L 515.22766 301.410357 
L 516.064974 300.958412 
L 516.902288 319.619976 
L 517.739602 307.861978 
L 518.576916 322.029143 
L 519.41423 297.191745 
L 520.251544 293.34988 
L 521.088858 267.722119 
L 521.926172 252.769034 
L 522.763486 298.960243 
L 523.6008 296.847067 
L 524.438114 257.333301 
L 525.275428 262.906748 
L 526.112742 278.047523 
L 526.950056 302.285751 
L 527.78737 282.339794 
L 529.461998 313.352486 
L 530.299312 284.902101 
L 531.136626 264.475783 
L 531.97394 248.11883 
L 532.811254 262.417888 
L 533.648568 260.653284 
L 534.485882 269.20903 
L 535.323196 291.660302 
L 536.16051 279.39758 
L 536.997824 280.819045 
L 537.835138 271.736018 
L 538.672452 288.793849 
L 539.509766 266.453783 
L 540.34708 285.733113 
L 541.184394 247.713311 
L 542.021708 232.052504 
L 542.859022 237.891814 
L 543.696336 234.360147 
L 544.53365 277.477768 
L 545.370964 293.641586 
L 546.208278 271.714287 
L 547.045592 269.203953 
L 547.882906 278.71585 
L 548.72022 310.844586 
L 549.557534 331.264759 
L 550.394848 327.968116 
L 551.232162 340.67372 
L 552.069476 358.38266 
L 552.90679 336.081221 
L 553.744104 346.064749 
L 554.581418 364.739901 
L 555.418732 350.160738 
L 556.256046 348.395272 
L 557.09336 345.950327 
L 557.930674 355.038649 
L 558.767988 352.338948 
L 559.605302 336.562363 
L 560.442616 349.280119 
L 561.27993 355.364927 
L 562.117244 340.674489 
L 562.954558 305.280764 
L 563.791872 347.914889 
L 564.629186 369.557086 
L 565.4665 309.230389 
L 566.303814 351.065926 
L 567.141128 327.918819 
L 567.978442 330.104598 
L 568.815756 285.707672 
L 569.65307 287.50044 
L 571.327698 339.552426 
L 572.165012 248.944387 
L 573.002326 211.13311 
L 573.83964 273.107302 
L 574.676954 286.828507 
L 575.514268 293.480647 
L 576.351582 324.859978 
L 577.188896 335.098308 
L 578.02621 360.809446 
L 578.863524 325.548589 
L 579.700838 305.983445 
L 580.538152 322.191243 
L 581.375466 348.736287 
L 582.21278 355.549631 
L 583.050094 344.110824 
L 583.887408 327.629915 
L 584.724722 314.95066 
L 586.39935 280.786552 
L 587.236664 263.15173 
L 588.073978 290.582976 
L 588.911292 293.166716 
L 589.748606 282.079846 
L 590.58592 290.508938 
L 591.423234 287.535001 
L 592.260548 332.038859 
L 593.097862 306.347121 
L 593.935176 319.733916 
L 594.77249 337.25976 
L 595.609804 334.844667 
L 596.447118 311.904041 
L 597.284432 344.479427 
L 598.121746 366.349757 
L 598.95906 362.944406 
L 599.796374 350.224048 
L 600.633688 352.293556 
L 601.471002 352.691104 
L 602.308316 369.867864 
L 603.14563 344.815044 
L 603.982944 332.661093 
L 604.820258 327.369865 
L 605.657572 342.988944 
L 606.494886 304.764476 
L 607.3322 246.864944 
L 608.169514 309.995002 
L 609.006828 289.495599 
L 609.844142 314.074945 
L 610.681456 305.838482 
L 611.51877 293.505812 
L 612.356084 278.455914 
L 613.193398 273.858418 
L 614.030712 251.442534 
L 614.868026 289.896214 
L 615.70534 266.313598 
L 616.542653 275.578618 
L 617.379967 247.323757 
L 618.217281 273.364975 
L 619.054595 262.563908 
L 619.891909 272.276772 
L 620.729223 294.459413 
L 621.566537 273.6256 
L 622.403851 259.039959 
L 623.241165 255.51585 
L 624.078479 234.486078 
L 624.915793 239.331059 
L 625.753107 256.843085 
L 626.590421 290.171197 
L 627.427735 295.70782 
L 628.265049 307.378136 
L 629.102363 306.666657 
L 629.939677 309.689363 
L 630.776991 292.045571 
L 631.614305 293.102039 
L 632.451619 288.100541 
L 633.288933 294.355271 
L 634.126247 338.528073 
L 634.963561 294.249555 
L 635.800875 285.372446 
L 636.638189 335.674542 
L 637.475503 336.134584 
L 638.312817 339.474322 
L 639.150131 343.482801 
L 639.987445 342.911713 
L 640.824759 329.764306 
L 641.662073 340.617233 
L 642.499387 274.49424 
L 643.336701 328.54211 
L 644.174015 296.392572 
L 645.011329 312.237176 
L 645.848643 302.65231 
L 647.523271 346.529742 
L 648.360585 339.149342 
L 649.197899 347.759979 
L 650.035213 306.289474 
L 650.872527 306.018121 
L 651.709841 343.594455 
L 652.547155 282.980497 
L 653.384469 282.753031 
L 654.221783 308.541101 
L 655.059097 258.904289 
L 655.896411 251.551374 
L 656.733725 276.944928 
L 657.571039 283.937784 
L 658.408353 303.644307 
L 659.245667 269.272478 
L 660.082981 279.702587 
L 660.920295 357.145853 
L 661.757609 328.056385 
L 662.594923 327.950359 
L 663.432237 333.284418 
L 664.269551 360.895182 
L 665.106865 339.058661 
L 665.944179 325.745296 
L 666.781493 315.096335 
L 667.618807 243.578454 
L 668.456121 248.956309 
L 670.130749 230.137194 
L 670.968063 249.049666 
L 671.805377 265.141147 
L 672.642691 316.359341 
L 673.480005 321.486208 
L 674.317319 332.361393 
L 675.991947 294.340167 
L 676.829261 310.004122 
L 677.666575 338.875876 
L 678.503889 331.77998 
L 679.341203 264.273632 
L 680.178517 332.874362 
L 681.015831 333.246033 
L 681.853145 319.667723 
L 682.690459 279.535594 
L 683.527773 285.491221 
L 684.365087 304.719038 
L 686.039715 270.309764 
L 686.877029 300.287823 
L 687.714343 291.298027 
L 688.551657 263.91246 
L 689.388971 264.218248 
L 690.226285 253.839974 
L 691.063599 269.970794 
L 691.900913 274.576881 
L 692.738227 246.291709 
L 693.575541 265.922666 
L 694.412855 256.998213 
L 695.250169 290.565161 
L 696.087483 264.776712 
L 696.924797 265.654012 
L 697.762111 305.635585 
L 698.599425 277.148698 
L 699.436739 300.180269 
L 700.274053 309.947209 
L 701.111367 270.726895 
L 701.948681 270.630564 
L 702.785995 248.592277 
L 703.623309 196.925537 
L 704.460623 216.699356 
L 705.297937 244.777921 
L 706.135251 185.878294 
L 706.972565 232.372178 
L 707.809879 246.346335 
L 708.647193 277.028143 
L 709.484507 210.595596 
L 710.321821 184.847784 
L 711.159135 214.802722 
L 711.996449 205.136651 
L 712.833763 258.819408 
L 713.671077 282.083487 
L 714.508391 237.805624 
L 715.345705 234.421229 
L 716.183019 233.488923 
L 717.020333 200.695397 
L 717.857647 179.373494 
L 718.694961 179.726614 
L 719.532275 165.94852 
L 720.369589 200.469195 
L 721.206903 131.435265 
L 722.044217 185.383231 
L 722.881531 163.918719 
L 723.718845 153.379081 
L 724.556159 184.150409 
L 725.393473 162.24475 
L 726.230787 210.709305 
L 727.068101 176.841807 
L 728.742729 241.345239 
L 729.580043 184.958461 
L 730.417357 224.074782 
L 731.254671 167.761767 
L 732.091984 212.158107 
L 732.929298 163.11772 
L 733.766612 221.83378 
L 734.603926 222.245249 
L 735.44124 222.017898 
L 736.278554 216.83289 
L 737.115868 234.231643 
L 737.953182 210.137954 
L 738.790496 245.391264 
L 739.62781 237.267627 
L 740.465124 241.133647 
L 741.302438 215.07829 
L 742.977066 236.539057 
L 743.81438 262.773765 
L 744.651694 251.330134 
L 745.489008 235.136475 
L 746.326322 244.513516 
L 747.163636 196.987285 
L 747.163636 196.987285 
" style="fill:none;stroke:#ff0000;stroke-dasharray:5.55,2.4;stroke-dashoffset:0;stroke-width:1.5;"/>
   </g>
   <g id="patch_3">
    <path d="M 108 460.8 
L 108 69.12 
" style="fill:none;stroke:#000000;stroke-linecap:square;stroke-linejoin:miter;stroke-width:0.8;"/>
   </g>
   <g id="patch_4">
    <path d="M 777.6 460.8 
L 777.6 69.12 
" style="fill:none;stroke:#000000;stroke-linecap:square;stroke-linejoin:miter;stroke-width:0.8;"/>
   </g>
   <g id="patch_5">
    <path d="M 108 460.8 
L 777.6 460.8 
" style="fill:none;stroke:#000000;stroke-linecap:square;stroke-linejoin:miter;stroke-width:0.8;"/>
   </g>
   <g id="patch_6">
    <path d="M 108 69.12 
L 777.6 69.12 
" style="fill:none;stroke:#000000;stroke-linecap:square;stroke-linejoin:miter;stroke-width:0.8;"/>
   </g>
   <g id="text_19">
    <!-- Macau roadside 2020-2021 | Forecast vs Monitored | LSTM -->
    <g transform="translate(223.246875 63.12)scale(0.15 -0.15)">
     <defs>
      <path d="M 9.8125 72.90625 
L 24.515625 72.90625 
L 43.109375 23.296875 
L 61.8125 72.90625 
L 76.515625 72.90625 
L 76.515625 0 
L 66.890625 0 
L 66.890625 64.015625 
L 48.09375 14.015625 
L 38.1875 14.015625 
L 19.390625 64.015625 
L 19.390625 0 
L 9.8125 0 
z
" id="DejaVuSans-77"/>
      <path d="M 48.78125 52.59375 
L 48.78125 44.1875 
Q 44.96875 46.296875 41.140625 47.34375 
Q 37.3125 48.390625 33.40625 48.390625 
Q 24.65625 48.390625 19.8125 42.84375 
Q 14.984375 37.3125 14.984375 27.296875 
Q 14.984375 17.28125 19.8125 11.734375 
Q 24.65625 6.203125 33.40625 6.203125 
Q 37.3125 6.203125 41.140625 7.25 
Q 44.96875 8.296875 48.78125 10.40625 
L 48.78125 2.09375 
Q 45.015625 0.34375 40.984375 -0.53125 
Q 36.96875 -1.421875 32.421875 -1.421875 
Q 20.0625 -1.421875 12.78125 6.34375 
Q 5.515625 14.109375 5.515625 27.296875 
Q 5.515625 40.671875 12.859375 48.328125 
Q 20.21875 56 33.015625 56 
Q 37.15625 56 41.109375 55.140625 
Q 45.0625 54.296875 48.78125 52.59375 
z
" id="DejaVuSans-99"/>
      <path d="M 8.5 21.578125 
L 8.5 54.6875 
L 17.484375 54.6875 
L 17.484375 21.921875 
Q 17.484375 14.15625 20.5 10.265625 
Q 23.53125 6.390625 29.59375 6.390625 
Q 36.859375 6.390625 41.078125 11.03125 
Q 45.3125 15.671875 45.3125 23.6875 
L 45.3125 54.6875 
L 54.296875 54.6875 
L 54.296875 0 
L 45.3125 0 
L 45.3125 8.40625 
Q 42.046875 3.421875 37.71875 1 
Q 33.40625 -1.421875 27.6875 -1.421875 
Q 18.265625 -1.421875 13.375 4.4375 
Q 8.5 10.296875 8.5 21.578125 
z
M 31.109375 56 
z
" id="DejaVuSans-117"/>
      <path id="DejaVuSans-32"/>
      <path d="M 41.109375 46.296875 
Q 39.59375 47.171875 37.8125 47.578125 
Q 36.03125 48 33.890625 48 
Q 26.265625 48 22.1875 43.046875 
Q 18.109375 38.09375 18.109375 28.8125 
L 18.109375 0 
L 9.078125 0 
L 9.078125 54.6875 
L 18.109375 54.6875 
L 18.109375 46.1875 
Q 20.953125 51.171875 25.484375 53.578125 
Q 30.03125 56 36.53125 56 
Q 37.453125 56 38.578125 55.875 
Q 39.703125 55.765625 41.0625 55.515625 
z
" id="DejaVuSans-114"/>
      <path d="M 30.609375 48.390625 
Q 23.390625 48.390625 19.1875 42.75 
Q 14.984375 37.109375 14.984375 27.296875 
Q 14.984375 17.484375 19.15625 11.84375 
Q 23.34375 6.203125 30.609375 6.203125 
Q 37.796875 6.203125 41.984375 11.859375 
Q 46.1875 17.53125 46.1875 27.296875 
Q 46.1875 37.015625 41.984375 42.703125 
Q 37.796875 48.390625 30.609375 48.390625 
z
M 30.609375 56 
Q 42.328125 56 49.015625 48.375 
Q 55.71875 40.765625 55.71875 27.296875 
Q 55.71875 13.875 49.015625 6.21875 
Q 42.328125 -1.421875 30.609375 -1.421875 
Q 18.84375 -1.421875 12.171875 6.21875 
Q 5.515625 13.875 5.515625 27.296875 
Q 5.515625 40.765625 12.171875 48.375 
Q 18.84375 56 30.609375 56 
z
" id="DejaVuSans-111"/>
      <path d="M 45.40625 46.390625 
L 45.40625 75.984375 
L 54.390625 75.984375 
L 54.390625 0 
L 45.40625 0 
L 45.40625 8.203125 
Q 42.578125 3.328125 38.25 0.953125 
Q 33.9375 -1.421875 27.875 -1.421875 
Q 17.96875 -1.421875 11.734375 6.484375 
Q 5.515625 14.40625 5.515625 27.296875 
Q 5.515625 40.1875 11.734375 48.09375 
Q 17.96875 56 27.875 56 
Q 33.9375 56 38.25 53.625 
Q 42.578125 51.265625 45.40625 46.390625 
z
M 14.796875 27.296875 
Q 14.796875 17.390625 18.875 11.75 
Q 22.953125 6.109375 30.078125 6.109375 
Q 37.203125 6.109375 41.296875 11.75 
Q 45.40625 17.390625 45.40625 27.296875 
Q 45.40625 37.203125 41.296875 42.84375 
Q 37.203125 48.484375 30.078125 48.484375 
Q 22.953125 48.484375 18.875 42.84375 
Q 14.796875 37.203125 14.796875 27.296875 
z
" id="DejaVuSans-100"/>
      <path d="M 44.28125 53.078125 
L 44.28125 44.578125 
Q 40.484375 46.53125 36.375 47.5 
Q 32.28125 48.484375 27.875 48.484375 
Q 21.1875 48.484375 17.84375 46.4375 
Q 14.5 44.390625 14.5 40.28125 
Q 14.5 37.15625 16.890625 35.375 
Q 19.28125 33.59375 26.515625 31.984375 
L 29.59375 31.296875 
Q 39.15625 29.25 43.1875 25.515625 
Q 47.21875 21.78125 47.21875 15.09375 
Q 47.21875 7.46875 41.1875 3.015625 
Q 35.15625 -1.421875 24.609375 -1.421875 
Q 20.21875 -1.421875 15.453125 -0.5625 
Q 10.6875 0.296875 5.421875 2 
L 5.421875 11.28125 
Q 10.40625 8.6875 15.234375 7.390625 
Q 20.0625 6.109375 24.8125 6.109375 
Q 31.15625 6.109375 34.5625 8.28125 
Q 37.984375 10.453125 37.984375 14.40625 
Q 37.984375 18.0625 35.515625 20.015625 
Q 33.0625 21.96875 24.703125 23.78125 
L 21.578125 24.515625 
Q 13.234375 26.265625 9.515625 29.90625 
Q 5.8125 33.546875 5.8125 39.890625 
Q 5.8125 47.609375 11.28125 51.796875 
Q 16.75 56 26.8125 56 
Q 31.78125 56 36.171875 55.265625 
Q 40.578125 54.546875 44.28125 53.078125 
z
" id="DejaVuSans-115"/>
      <path d="M 9.421875 54.6875 
L 18.40625 54.6875 
L 18.40625 0 
L 9.421875 0 
z
M 9.421875 75.984375 
L 18.40625 75.984375 
L 18.40625 64.59375 
L 9.421875 64.59375 
z
" id="DejaVuSans-105"/>
      <path d="M 21 76.421875 
L 21 -23.578125 
L 12.703125 -23.578125 
L 12.703125 76.421875 
z
" id="DejaVuSans-124"/>
      <path d="M 9.8125 72.90625 
L 51.703125 72.90625 
L 51.703125 64.59375 
L 19.671875 64.59375 
L 19.671875 43.109375 
L 48.578125 43.109375 
L 48.578125 34.8125 
L 19.671875 34.8125 
L 19.671875 0 
L 9.8125 0 
z
" id="DejaVuSans-70"/>
      <path d="M 2.984375 54.6875 
L 12.5 54.6875 
L 29.59375 8.796875 
L 46.6875 54.6875 
L 56.203125 54.6875 
L 35.6875 0 
L 23.484375 0 
z
" id="DejaVuSans-118"/>
      <path d="M 54.890625 33.015625 
L 54.890625 0 
L 45.90625 0 
L 45.90625 32.71875 
Q 45.90625 40.484375 42.875 44.328125 
Q 39.84375 48.1875 33.796875 48.1875 
Q 26.515625 48.1875 22.3125 43.546875 
Q 18.109375 38.921875 18.109375 30.90625 
L 18.109375 0 
L 9.078125 0 
L 9.078125 54.6875 
L 18.109375 54.6875 
L 18.109375 46.1875 
Q 21.34375 51.125 25.703125 53.5625 
Q 30.078125 56 35.796875 56 
Q 45.21875 56 50.046875 50.171875 
Q 54.890625 44.34375 54.890625 33.015625 
z
" id="DejaVuSans-110"/>
      <path d="M 9.8125 72.90625 
L 19.671875 72.90625 
L 19.671875 8.296875 
L 55.171875 8.296875 
L 55.171875 0 
L 9.8125 0 
z
" id="DejaVuSans-76"/>
      <path d="M 53.515625 70.515625 
L 53.515625 60.890625 
Q 47.90625 63.578125 42.921875 64.890625 
Q 37.9375 66.21875 33.296875 66.21875 
Q 25.25 66.21875 20.875 63.09375 
Q 16.5 59.96875 16.5 54.203125 
Q 16.5 49.359375 19.40625 46.890625 
Q 22.3125 44.4375 30.421875 42.921875 
L 36.375 41.703125 
Q 47.40625 39.59375 52.65625 34.296875 
Q 57.90625 29 57.90625 20.125 
Q 57.90625 9.515625 50.796875 4.046875 
Q 43.703125 -1.421875 29.984375 -1.421875 
Q 24.8125 -1.421875 18.96875 -0.25 
Q 13.140625 0.921875 6.890625 3.21875 
L 6.890625 13.375 
Q 12.890625 10.015625 18.65625 8.296875 
Q 24.421875 6.59375 29.984375 6.59375 
Q 38.421875 6.59375 43.015625 9.90625 
Q 47.609375 13.234375 47.609375 19.390625 
Q 47.609375 24.75 44.3125 27.78125 
Q 41.015625 30.8125 33.5 32.328125 
L 27.484375 33.5 
Q 16.453125 35.6875 11.515625 40.375 
Q 6.59375 45.0625 6.59375 53.421875 
Q 6.59375 63.09375 13.40625 68.65625 
Q 20.21875 74.21875 32.171875 74.21875 
Q 37.3125 74.21875 42.625 73.28125 
Q 47.953125 72.359375 53.515625 70.515625 
z
" id="DejaVuSans-83"/>
      <path d="M -0.296875 72.90625 
L 61.375 72.90625 
L 61.375 64.59375 
L 35.5 64.59375 
L 35.5 0 
L 25.59375 0 
L 25.59375 64.59375 
L -0.296875 64.59375 
z
" id="DejaVuSans-84"/>
     </defs>
     <use xlink:href="#DejaVuSans-77"/>
     <use x="86.279297" xlink:href="#DejaVuSans-97"/>
     <use x="147.558594" xlink:href="#DejaVuSans-99"/>
     <use x="202.539062" xlink:href="#DejaVuSans-97"/>
     <use x="263.818359" xlink:href="#DejaVuSans-117"/>
     <use x="327.197266" xlink:href="#DejaVuSans-32"/>
     <use x="358.984375" xlink:href="#DejaVuSans-114"/>
     <use x="397.847656" xlink:href="#DejaVuSans-111"/>
     <use x="459.029297" xlink:href="#DejaVuSans-97"/>
     <use x="520.308594" xlink:href="#DejaVuSans-100"/>
     <use x="583.785156" xlink:href="#DejaVuSans-115"/>
     <use x="635.884766" xlink:href="#DejaVuSans-105"/>
     <use x="663.667969" xlink:href="#DejaVuSans-100"/>
     <use x="727.144531" xlink:href="#DejaVuSans-101"/>
     <use x="788.667969" xlink:href="#DejaVuSans-32"/>
     <use x="820.455078" xlink:href="#DejaVuSans-50"/>
     <use x="884.078125" xlink:href="#DejaVuSans-48"/>
     <use x="947.701172" xlink:href="#DejaVuSans-50"/>
     <use x="1011.324219" xlink:href="#DejaVuSans-48"/>
     <use x="1074.947266" xlink:href="#DejaVuSans-45"/>
     <use x="1111.03125" xlink:href="#DejaVuSans-50"/>
     <use x="1174.654297" xlink:href="#DejaVuSans-48"/>
     <use x="1238.277344" xlink:href="#DejaVuSans-50"/>
     <use x="1301.900391" xlink:href="#DejaVuSans-49"/>
     <use x="1365.523438" xlink:href="#DejaVuSans-32"/>
     <use x="1397.310547" xlink:href="#DejaVuSans-124"/>
     <use x="1431.001953" xlink:href="#DejaVuSans-32"/>
     <use x="1462.789062" xlink:href="#DejaVuSans-70"/>
     <use x="1516.683594" xlink:href="#DejaVuSans-111"/>
     <use x="1577.865234" xlink:href="#DejaVuSans-114"/>
     <use x="1616.728516" xlink:href="#DejaVuSans-101"/>
     <use x="1678.251953" xlink:href="#DejaVuSans-99"/>
     <use x="1733.232422" xlink:href="#DejaVuSans-97"/>
     <use x="1794.511719" xlink:href="#DejaVuSans-115"/>
     <use x="1846.611328" xlink:href="#DejaVuSans-116"/>
     <use x="1885.820312" xlink:href="#DejaVuSans-32"/>
     <use x="1917.607422" xlink:href="#DejaVuSans-118"/>
     <use x="1976.787109" xlink:href="#DejaVuSans-115"/>
     <use x="2028.886719" xlink:href="#DejaVuSans-32"/>
     <use x="2060.673828" xlink:href="#DejaVuSans-77"/>
     <use x="2146.953125" xlink:href="#DejaVuSans-111"/>
     <use x="2208.134766" xlink:href="#DejaVuSans-110"/>
     <use x="2271.513672" xlink:href="#DejaVuSans-105"/>
     <use x="2299.296875" xlink:href="#DejaVuSans-116"/>
     <use x="2338.505859" xlink:href="#DejaVuSans-111"/>
     <use x="2399.6875" xlink:href="#DejaVuSans-114"/>
     <use x="2438.550781" xlink:href="#DejaVuSans-101"/>
     <use x="2500.074219" xlink:href="#DejaVuSans-100"/>
     <use x="2563.550781" xlink:href="#DejaVuSans-32"/>
     <use x="2595.337891" xlink:href="#DejaVuSans-124"/>
     <use x="2629.029297" xlink:href="#DejaVuSans-32"/>
     <use x="2660.816406" xlink:href="#DejaVuSans-76"/>
     <use x="2716.529297" xlink:href="#DejaVuSans-83"/>
     <use x="2780.005859" xlink:href="#DejaVuSans-84"/>
     <use x="2841.089844" xlink:href="#DejaVuSans-77"/>
    </g>
   </g>
   <g id="legend_1">
    <g id="patch_7">
     <path d="M 605.76375 114.615 
L 769.2 114.615 
Q 771.6 114.615 771.6 112.215 
L 771.6 77.52 
Q 771.6 75.12 769.2 75.12 
L 605.76375 75.12 
Q 603.36375 75.12 603.36375 77.52 
L 603.36375 112.215 
Q 603.36375 114.615 605.76375 114.615 
z
" style="fill:#ffffff;opacity:0.8;stroke:#cccccc;stroke-linejoin:miter;"/>
    </g>
    <g id="line2d_19">
     <path d="M 608.16375 84.838125 
L 632.16375 84.838125 
" style="fill:none;stroke:#1f77b4;stroke-linecap:square;stroke-width:1.5;"/>
    </g>
    <g id="line2d_20"/>
    <g id="text_20">
     <!-- measured_data_NO2 -->
     <g transform="translate(641.76375 89.038125)scale(0.12 -0.12)">
      <defs>
       <path d="M 50.984375 -16.609375 
L 50.984375 -23.578125 
L -0.984375 -23.578125 
L -0.984375 -16.609375 
z
" id="DejaVuSans-95"/>
      </defs>
      <use xlink:href="#DejaVuSans-109"/>
      <use x="97.412109" xlink:href="#DejaVuSans-101"/>
      <use x="158.935547" xlink:href="#DejaVuSans-97"/>
      <use x="220.214844" xlink:href="#DejaVuSans-115"/>
      <use x="272.314453" xlink:href="#DejaVuSans-117"/>
      <use x="335.693359" xlink:href="#DejaVuSans-114"/>
      <use x="374.556641" xlink:href="#DejaVuSans-101"/>
      <use x="436.080078" xlink:href="#DejaVuSans-100"/>
      <use x="499.556641" xlink:href="#DejaVuSans-95"/>
      <use x="549.556641" xlink:href="#DejaVuSans-100"/>
      <use x="613.033203" xlink:href="#DejaVuSans-97"/>
      <use x="674.3125" xlink:href="#DejaVuSans-116"/>
      <use x="713.521484" xlink:href="#DejaVuSans-97"/>
      <use x="774.800781" xlink:href="#DejaVuSans-95"/>
      <use x="824.800781" xlink:href="#DejaVuSans-78"/>
      <use x="899.605469" xlink:href="#DejaVuSans-79"/>
      <use x="978.316406" xlink:href="#DejaVuSans-50"/>
     </g>
    </g>
    <g id="line2d_21">
     <path d="M 608.16375 102.785625 
L 632.16375 102.785625 
" style="fill:none;stroke:#ff0000;stroke-dasharray:5.55,2.4;stroke-dashoffset:0;stroke-width:1.5;"/>
    </g>
    <g id="line2d_22"/>
    <g id="text_21">
     <!-- predicted_data_NO2 -->
     <g transform="translate(641.76375 106.985625)scale(0.12 -0.12)">
      <use xlink:href="#DejaVuSans-112"/>
      <use x="63.476562" xlink:href="#DejaVuSans-114"/>
      <use x="102.339844" xlink:href="#DejaVuSans-101"/>
      <use x="163.863281" xlink:href="#DejaVuSans-100"/>
      <use x="227.339844" xlink:href="#DejaVuSans-105"/>
      <use x="255.123047" xlink:href="#DejaVuSans-99"/>
      <use x="310.103516" xlink:href="#DejaVuSans-116"/>
      <use x="349.3125" xlink:href="#DejaVuSans-101"/>
      <use x="410.835938" xlink:href="#DejaVuSans-100"/>
      <use x="474.3125" xlink:href="#DejaVuSans-95"/>
      <use x="524.3125" xlink:href="#DejaVuSans-100"/>
      <use x="587.789062" xlink:href="#DejaVuSans-97"/>
      <use x="649.068359" xlink:href="#DejaVuSans-116"/>
      <use x="688.277344" xlink:href="#DejaVuSans-97"/>
      <use x="749.556641" xlink:href="#DejaVuSans-95"/>
      <use x="799.556641" xlink:href="#DejaVuSans-78"/>
      <use x="874.361328" xlink:href="#DejaVuSans-79"/>
      <use x="953.072266" xlink:href="#DejaVuSans-50"/>
     </g>
    </g>
   </g>
  </g>
 </g>
 <defs>
  <clipPath id="pee15afb9a1">
   <rect height="391.68" width="669.6" x="108" y="69.12"/>
  </clipPath>
 </defs>
</svg>
