<?xml version="1.0" encoding="utf-8" standalone="no"?>
<!DOCTYPE svg PUBLIC "-//W3C//DTD SVG 1.1//EN"
  "http://www.w3.org/Graphics/SVG/1.1/DTD/svg11.dtd">
<!-- Created with matplotlib (https://matplotlib.org/) -->
<svg height="576pt" version="1.1" viewBox="0 0 864 576" width="864pt" xmlns="http://www.w3.org/2000/svg" xmlns:xlink="http://www.w3.org/1999/xlink">
 <metadata>
  <rdf:RDF xmlns:cc="http://creativecommons.org/ns#" xmlns:dc="http://purl.org/dc/elements/1.1/" xmlns:rdf="http://www.w3.org/1999/02/22-rdf-syntax-ns#">
   <cc:Work>
    <dc:type rdf:resource="http://purl.org/dc/dcmitype/StillImage"/>
    <dc:date>2024-03-08T19:48:31.437524</dc:date>
    <dc:format>image/svg+xml</dc:format>
    <dc:creator>
     <cc:Agent>
      <dc:title>Matplotlib v3.3.4, https://matplotlib.org/</dc:title>
     </cc:Agent>
    </dc:creator>
   </cc:Work>
  </rdf:RDF>
 </metadata>
 <defs>
  <style type="text/css">*{stroke-linecap:butt;stroke-linejoin:round;}</style>
 </defs>
 <g id="figure_1">
  <g id="patch_1">
   <path d="M 0 576 
L 864 576 
L 864 0 
L 0 0 
z
" style="fill:#ffffff;"/>
  </g>
  <g id="axes_1">
   <g id="patch_2">
    <path d="M 108 460.8 
L 777.6 460.8 
L 777.6 69.12 
L 108 69.12 
z
" style="fill:#ffffff;"/>
   </g>
   <g id="matplotlib.axis_1">
    <g id="xtick_1">
     <g id="line2d_1">
      <defs>
       <path d="M 0 0 
L 0 3.5 
" id="ma5491fd2b9" style="stroke:#000000;stroke-width:0.8;"/>
      </defs>
      <g>
       <use style="stroke:#000000;stroke-width:0.8;" x="136.761736" xlink:href="#ma5491fd2b9" y="460.8"/>
      </g>
     </g>
     <g id="text_1">
      <!-- 2020-01 -->
      <g transform="translate(92.091951 500.766215)rotate(-30)scale(0.12 -0.12)">
       <defs>
        <path d="M 19.1875 8.296875 
L 53.609375 8.296875 
L 53.609375 0 
L 7.328125 0 
L 7.328125 8.296875 
Q 12.9375 14.109375 22.625 23.890625 
Q 32.328125 33.6875 34.8125 36.53125 
Q 39.546875 41.84375 41.421875 45.53125 
Q 43.3125 49.21875 43.3125 52.78125 
Q 43.3125 58.59375 39.234375 62.25 
Q 35.15625 65.921875 28.609375 65.921875 
Q 23.96875 65.921875 18.8125 64.3125 
Q 13.671875 62.703125 7.8125 59.421875 
L 7.8125 69.390625 
Q 13.765625 71.78125 18.9375 73 
Q 24.125 74.21875 28.421875 74.21875 
Q 39.75 74.21875 46.484375 68.546875 
Q 53.21875 62.890625 53.21875 53.421875 
Q 53.21875 48.921875 51.53125 44.890625 
Q 49.859375 40.875 45.40625 35.40625 
Q 44.1875 33.984375 37.640625 27.21875 
Q 31.109375 20.453125 19.1875 8.296875 
z
" id="DejaVuSans-50"/>
        <path d="M 31.78125 66.40625 
Q 24.171875 66.40625 20.328125 58.90625 
Q 16.5 51.421875 16.5 36.375 
Q 16.5 21.390625 20.328125 13.890625 
Q 24.171875 6.390625 31.78125 6.390625 
Q 39.453125 6.390625 43.28125 13.890625 
Q 47.125 21.390625 47.125 36.375 
Q 47.125 51.421875 43.28125 58.90625 
Q 39.453125 66.40625 31.78125 66.40625 
z
M 31.78125 74.21875 
Q 44.046875 74.21875 50.515625 64.515625 
Q 56.984375 54.828125 56.984375 36.375 
Q 56.984375 17.96875 50.515625 8.265625 
Q 44.046875 -1.421875 31.78125 -1.421875 
Q 19.53125 -1.421875 13.0625 8.265625 
Q 6.59375 17.96875 6.59375 36.375 
Q 6.59375 54.828125 13.0625 64.515625 
Q 19.53125 74.21875 31.78125 74.21875 
z
" id="DejaVuSans-48"/>
        <path d="M 4.890625 31.390625 
L 31.203125 31.390625 
L 31.203125 23.390625 
L 4.890625 23.390625 
z
" id="DejaVuSans-45"/>
        <path d="M 12.40625 8.296875 
L 28.515625 8.296875 
L 28.515625 63.921875 
L 10.984375 60.40625 
L 10.984375 69.390625 
L 28.421875 72.90625 
L 38.28125 72.90625 
L 38.28125 8.296875 
L 54.390625 8.296875 
L 54.390625 0 
L 12.40625 0 
z
" id="DejaVuSans-49"/>
       </defs>
       <use xlink:href="#DejaVuSans-50"/>
       <use x="63.623047" xlink:href="#DejaVuSans-48"/>
       <use x="127.246094" xlink:href="#DejaVuSans-50"/>
       <use x="190.869141" xlink:href="#DejaVuSans-48"/>
       <use x="254.492188" xlink:href="#DejaVuSans-45"/>
       <use x="290.576172" xlink:href="#DejaVuSans-48"/>
       <use x="354.199219" xlink:href="#DejaVuSans-49"/>
      </g>
     </g>
    </g>
    <g id="xtick_2">
     <g id="line2d_2">
      <g>
       <use style="stroke:#000000;stroke-width:0.8;" x="212.957309" xlink:href="#ma5491fd2b9" y="460.8"/>
      </g>
     </g>
     <g id="text_2">
      <!-- 2020-04 -->
      <g transform="translate(168.287524 500.766215)rotate(-30)scale(0.12 -0.12)">
       <defs>
        <path d="M 37.796875 64.3125 
L 12.890625 25.390625 
L 37.796875 25.390625 
z
M 35.203125 72.90625 
L 47.609375 72.90625 
L 47.609375 25.390625 
L 58.015625 25.390625 
L 58.015625 17.1875 
L 47.609375 17.1875 
L 47.609375 0 
L 37.796875 0 
L 37.796875 17.1875 
L 4.890625 17.1875 
L 4.890625 26.703125 
z
" id="DejaVuSans-52"/>
       </defs>
       <use xlink:href="#DejaVuSans-50"/>
       <use x="63.623047" xlink:href="#DejaVuSans-48"/>
       <use x="127.246094" xlink:href="#DejaVuSans-50"/>
       <use x="190.869141" xlink:href="#DejaVuSans-48"/>
       <use x="254.492188" xlink:href="#DejaVuSans-45"/>
       <use x="290.576172" xlink:href="#DejaVuSans-48"/>
       <use x="354.199219" xlink:href="#DejaVuSans-52"/>
      </g>
     </g>
    </g>
    <g id="xtick_3">
     <g id="line2d_3">
      <g>
       <use style="stroke:#000000;stroke-width:0.8;" x="289.152882" xlink:href="#ma5491fd2b9" y="460.8"/>
      </g>
     </g>
     <g id="text_3">
      <!-- 2020-07 -->
      <g transform="translate(244.483097 500.766215)rotate(-30)scale(0.12 -0.12)">
       <defs>
        <path d="M 8.203125 72.90625 
L 55.078125 72.90625 
L 55.078125 68.703125 
L 28.609375 0 
L 18.3125 0 
L 43.21875 64.59375 
L 8.203125 64.59375 
z
" id="DejaVuSans-55"/>
       </defs>
       <use xlink:href="#DejaVuSans-50"/>
       <use x="63.623047" xlink:href="#DejaVuSans-48"/>
       <use x="127.246094" xlink:href="#DejaVuSans-50"/>
       <use x="190.869141" xlink:href="#DejaVuSans-48"/>
       <use x="254.492188" xlink:href="#DejaVuSans-45"/>
       <use x="290.576172" xlink:href="#DejaVuSans-48"/>
       <use x="354.199219" xlink:href="#DejaVuSans-55"/>
      </g>
     </g>
    </g>
    <g id="xtick_4">
     <g id="line2d_4">
      <g>
       <use style="stroke:#000000;stroke-width:0.8;" x="366.18577" xlink:href="#ma5491fd2b9" y="460.8"/>
      </g>
     </g>
     <g id="text_4">
      <!-- 2020-10 -->
      <g transform="translate(321.515985 500.766215)rotate(-30)scale(0.12 -0.12)">
       <use xlink:href="#DejaVuSans-50"/>
       <use x="63.623047" xlink:href="#DejaVuSans-48"/>
       <use x="127.246094" xlink:href="#DejaVuSans-50"/>
       <use x="190.869141" xlink:href="#DejaVuSans-48"/>
       <use x="254.492188" xlink:href="#DejaVuSans-45"/>
       <use x="290.576172" xlink:href="#DejaVuSans-49"/>
       <use x="354.199219" xlink:href="#DejaVuSans-48"/>
      </g>
     </g>
    </g>
    <g id="xtick_5">
     <g id="line2d_5">
      <g>
       <use style="stroke:#000000;stroke-width:0.8;" x="443.218657" xlink:href="#ma5491fd2b9" y="460.8"/>
      </g>
     </g>
     <g id="text_5">
      <!-- 2021-01 -->
      <g transform="translate(398.548872 500.766215)rotate(-30)scale(0.12 -0.12)">
       <use xlink:href="#DejaVuSans-50"/>
       <use x="63.623047" xlink:href="#DejaVuSans-48"/>
       <use x="127.246094" xlink:href="#DejaVuSans-50"/>
       <use x="190.869141" xlink:href="#DejaVuSans-49"/>
       <use x="254.492188" xlink:href="#DejaVuSans-45"/>
       <use x="290.576172" xlink:href="#DejaVuSans-48"/>
       <use x="354.199219" xlink:href="#DejaVuSans-49"/>
      </g>
     </g>
    </g>
    <g id="xtick_6">
     <g id="line2d_6">
      <g>
       <use style="stroke:#000000;stroke-width:0.8;" x="518.576916" xlink:href="#ma5491fd2b9" y="460.8"/>
      </g>
     </g>
     <g id="text_6">
      <!-- 2021-04 -->
      <g transform="translate(473.907131 500.766215)rotate(-30)scale(0.12 -0.12)">
       <use xlink:href="#DejaVuSans-50"/>
       <use x="63.623047" xlink:href="#DejaVuSans-48"/>
       <use x="127.246094" xlink:href="#DejaVuSans-50"/>
       <use x="190.869141" xlink:href="#DejaVuSans-49"/>
       <use x="254.492188" xlink:href="#DejaVuSans-45"/>
       <use x="290.576172" xlink:href="#DejaVuSans-48"/>
       <use x="354.199219" xlink:href="#DejaVuSans-52"/>
      </g>
     </g>
    </g>
    <g id="xtick_7">
     <g id="line2d_7">
      <g>
       <use style="stroke:#000000;stroke-width:0.8;" x="594.77249" xlink:href="#ma5491fd2b9" y="460.8"/>
      </g>
     </g>
     <g id="text_7">
      <!-- 2021-07 -->
      <g transform="translate(550.102705 500.766215)rotate(-30)scale(0.12 -0.12)">
       <use xlink:href="#DejaVuSans-50"/>
       <use x="63.623047" xlink:href="#DejaVuSans-48"/>
       <use x="127.246094" xlink:href="#DejaVuSans-50"/>
       <use x="190.869141" xlink:href="#DejaVuSans-49"/>
       <use x="254.492188" xlink:href="#DejaVuSans-45"/>
       <use x="290.576172" xlink:href="#DejaVuSans-48"/>
       <use x="354.199219" xlink:href="#DejaVuSans-55"/>
      </g>
     </g>
    </g>
    <g id="xtick_8">
     <g id="line2d_8">
      <g>
       <use style="stroke:#000000;stroke-width:0.8;" x="671.805377" xlink:href="#ma5491fd2b9" y="460.8"/>
      </g>
     </g>
     <g id="text_8">
      <!-- 2021-10 -->
      <g transform="translate(627.135592 500.766215)rotate(-30)scale(0.12 -0.12)">
       <use xlink:href="#DejaVuSans-50"/>
       <use x="63.623047" xlink:href="#DejaVuSans-48"/>
       <use x="127.246094" xlink:href="#DejaVuSans-50"/>
       <use x="190.869141" xlink:href="#DejaVuSans-49"/>
       <use x="254.492188" xlink:href="#DejaVuSans-45"/>
       <use x="290.576172" xlink:href="#DejaVuSans-49"/>
       <use x="354.199219" xlink:href="#DejaVuSans-48"/>
      </g>
     </g>
    </g>
    <g id="xtick_9">
     <g id="line2d_9">
      <g>
       <use style="stroke:#000000;stroke-width:0.8;" x="748.838264" xlink:href="#ma5491fd2b9" y="460.8"/>
      </g>
     </g>
     <g id="text_9">
      <!-- 2022-01 -->
      <g transform="translate(704.168479 500.766215)rotate(-30)scale(0.12 -0.12)">
       <use xlink:href="#DejaVuSans-50"/>
       <use x="63.623047" xlink:href="#DejaVuSans-48"/>
       <use x="127.246094" xlink:href="#DejaVuSans-50"/>
       <use x="190.869141" xlink:href="#DejaVuSans-50"/>
       <use x="254.492188" xlink:href="#DejaVuSans-45"/>
       <use x="290.576172" xlink:href="#DejaVuSans-48"/>
       <use x="354.199219" xlink:href="#DejaVuSans-49"/>
      </g>
     </g>
    </g>
    <g id="text_10">
     <!-- Date -->
     <g transform="translate(424.873828 518.325146)scale(0.15 -0.15)">
      <defs>
       <path d="M 19.671875 64.796875 
L 19.671875 8.109375 
L 31.59375 8.109375 
Q 46.6875 8.109375 53.6875 14.9375 
Q 60.6875 21.78125 60.6875 36.53125 
Q 60.6875 51.171875 53.6875 57.984375 
Q 46.6875 64.796875 31.59375 64.796875 
z
M 9.8125 72.90625 
L 30.078125 72.90625 
Q 51.265625 72.90625 61.171875 64.09375 
Q 71.09375 55.28125 71.09375 36.53125 
Q 71.09375 17.671875 61.125 8.828125 
Q 51.171875 0 30.078125 0 
L 9.8125 0 
z
" id="DejaVuSans-68"/>
       <path d="M 34.28125 27.484375 
Q 23.390625 27.484375 19.1875 25 
Q 14.984375 22.515625 14.984375 16.5 
Q 14.984375 11.71875 18.140625 8.90625 
Q 21.296875 6.109375 26.703125 6.109375 
Q 34.1875 6.109375 38.703125 11.40625 
Q 43.21875 16.703125 43.21875 25.484375 
L 43.21875 27.484375 
z
M 52.203125 31.203125 
L 52.203125 0 
L 43.21875 0 
L 43.21875 8.296875 
Q 40.140625 3.328125 35.546875 0.953125 
Q 30.953125 -1.421875 24.3125 -1.421875 
Q 15.921875 -1.421875 10.953125 3.296875 
Q 6 8.015625 6 15.921875 
Q 6 25.140625 12.171875 29.828125 
Q 18.359375 34.515625 30.609375 34.515625 
L 43.21875 34.515625 
L 43.21875 35.40625 
Q 43.21875 41.609375 39.140625 45 
Q 35.0625 48.390625 27.6875 48.390625 
Q 23 48.390625 18.546875 47.265625 
Q 14.109375 46.140625 10.015625 43.890625 
L 10.015625 52.203125 
Q 14.9375 54.109375 19.578125 55.046875 
Q 24.21875 56 28.609375 56 
Q 40.484375 56 46.34375 49.84375 
Q 52.203125 43.703125 52.203125 31.203125 
z
" id="DejaVuSans-97"/>
       <path d="M 18.3125 70.21875 
L 18.3125 54.6875 
L 36.8125 54.6875 
L 36.8125 47.703125 
L 18.3125 47.703125 
L 18.3125 18.015625 
Q 18.3125 11.328125 20.140625 9.421875 
Q 21.96875 7.515625 27.59375 7.515625 
L 36.8125 7.515625 
L 36.8125 0 
L 27.59375 0 
Q 17.1875 0 13.234375 3.875 
Q 9.28125 7.765625 9.28125 18.015625 
L 9.28125 47.703125 
L 2.6875 47.703125 
L 2.6875 54.6875 
L 9.28125 54.6875 
L 9.28125 70.21875 
z
" id="DejaVuSans-116"/>
       <path d="M 56.203125 29.59375 
L 56.203125 25.203125 
L 14.890625 25.203125 
Q 15.484375 15.921875 20.484375 11.0625 
Q 25.484375 6.203125 34.421875 6.203125 
Q 39.59375 6.203125 44.453125 7.46875 
Q 49.3125 8.734375 54.109375 11.28125 
L 54.109375 2.78125 
Q 49.265625 0.734375 44.1875 -0.34375 
Q 39.109375 -1.421875 33.890625 -1.421875 
Q 20.796875 -1.421875 13.15625 6.1875 
Q 5.515625 13.8125 5.515625 26.8125 
Q 5.515625 40.234375 12.765625 48.109375 
Q 20.015625 56 32.328125 56 
Q 43.359375 56 49.78125 48.890625 
Q 56.203125 41.796875 56.203125 29.59375 
z
M 47.21875 32.234375 
Q 47.125 39.59375 43.09375 43.984375 
Q 39.0625 48.390625 32.421875 48.390625 
Q 24.90625 48.390625 20.390625 44.140625 
Q 15.875 39.890625 15.1875 32.171875 
z
" id="DejaVuSans-101"/>
      </defs>
      <use xlink:href="#DejaVuSans-68"/>
      <use x="77.001953" xlink:href="#DejaVuSans-97"/>
      <use x="138.28125" xlink:href="#DejaVuSans-116"/>
      <use x="177.490234" xlink:href="#DejaVuSans-101"/>
     </g>
    </g>
   </g>
   <g id="matplotlib.axis_2">
    <g id="ytick_1">
     <g id="line2d_10">
      <defs>
       <path d="M 0 0 
L -3.5 0 
" id="m605d852877" style="stroke:#000000;stroke-width:0.8;"/>
      </defs>
      <g>
       <use style="stroke:#000000;stroke-width:0.8;" x="108" xlink:href="#m605d852877" y="446.50991"/>
      </g>
     </g>
     <g id="text_11">
      <!-- 0 -->
      <g transform="translate(93.365 451.068972)scale(0.12 -0.12)">
       <use xlink:href="#DejaVuSans-48"/>
      </g>
     </g>
    </g>
    <g id="ytick_2">
     <g id="line2d_11">
      <g>
       <use style="stroke:#000000;stroke-width:0.8;" x="108" xlink:href="#m605d852877" y="383.84746"/>
      </g>
     </g>
     <g id="text_12">
      <!-- 20 -->
      <g transform="translate(85.73 388.406523)scale(0.12 -0.12)">
       <use xlink:href="#DejaVuSans-50"/>
       <use x="63.623047" xlink:href="#DejaVuSans-48"/>
      </g>
     </g>
    </g>
    <g id="ytick_3">
     <g id="line2d_12">
      <g>
       <use style="stroke:#000000;stroke-width:0.8;" x="108" xlink:href="#m605d852877" y="321.185011"/>
      </g>
     </g>
     <g id="text_13">
      <!-- 40 -->
      <g transform="translate(85.73 325.744073)scale(0.12 -0.12)">
       <use xlink:href="#DejaVuSans-52"/>
       <use x="63.623047" xlink:href="#DejaVuSans-48"/>
      </g>
     </g>
    </g>
    <g id="ytick_4">
     <g id="line2d_13">
      <g>
       <use style="stroke:#000000;stroke-width:0.8;" x="108" xlink:href="#m605d852877" y="258.522561"/>
      </g>
     </g>
     <g id="text_14">
      <!-- 60 -->
      <g transform="translate(85.73 263.081624)scale(0.12 -0.12)">
       <defs>
        <path d="M 33.015625 40.375 
Q 26.375 40.375 22.484375 35.828125 
Q 18.609375 31.296875 18.609375 23.390625 
Q 18.609375 15.53125 22.484375 10.953125 
Q 26.375 6.390625 33.015625 6.390625 
Q 39.65625 6.390625 43.53125 10.953125 
Q 47.40625 15.53125 47.40625 23.390625 
Q 47.40625 31.296875 43.53125 35.828125 
Q 39.65625 40.375 33.015625 40.375 
z
M 52.59375 71.296875 
L 52.59375 62.3125 
Q 48.875 64.0625 45.09375 64.984375 
Q 41.3125 65.921875 37.59375 65.921875 
Q 27.828125 65.921875 22.671875 59.328125 
Q 17.53125 52.734375 16.796875 39.40625 
Q 19.671875 43.65625 24.015625 45.921875 
Q 28.375 48.1875 33.59375 48.1875 
Q 44.578125 48.1875 50.953125 41.515625 
Q 57.328125 34.859375 57.328125 23.390625 
Q 57.328125 12.15625 50.6875 5.359375 
Q 44.046875 -1.421875 33.015625 -1.421875 
Q 20.359375 -1.421875 13.671875 8.265625 
Q 6.984375 17.96875 6.984375 36.375 
Q 6.984375 53.65625 15.1875 63.9375 
Q 23.390625 74.21875 37.203125 74.21875 
Q 40.921875 74.21875 44.703125 73.484375 
Q 48.484375 72.75 52.59375 71.296875 
z
" id="DejaVuSans-54"/>
       </defs>
       <use xlink:href="#DejaVuSans-54"/>
       <use x="63.623047" xlink:href="#DejaVuSans-48"/>
      </g>
     </g>
    </g>
    <g id="ytick_5">
     <g id="line2d_14">
      <g>
       <use style="stroke:#000000;stroke-width:0.8;" x="108" xlink:href="#m605d852877" y="195.860112"/>
      </g>
     </g>
     <g id="text_15">
      <!-- 80 -->
      <g transform="translate(85.73 200.419174)scale(0.12 -0.12)">
       <defs>
        <path d="M 31.78125 34.625 
Q 24.75 34.625 20.71875 30.859375 
Q 16.703125 27.09375 16.703125 20.515625 
Q 16.703125 13.921875 20.71875 10.15625 
Q 24.75 6.390625 31.78125 6.390625 
Q 38.8125 6.390625 42.859375 10.171875 
Q 46.921875 13.96875 46.921875 20.515625 
Q 46.921875 27.09375 42.890625 30.859375 
Q 38.875 34.625 31.78125 34.625 
z
M 21.921875 38.8125 
Q 15.578125 40.375 12.03125 44.71875 
Q 8.5 49.078125 8.5 55.328125 
Q 8.5 64.0625 14.71875 69.140625 
Q 20.953125 74.21875 31.78125 74.21875 
Q 42.671875 74.21875 48.875 69.140625 
Q 55.078125 64.0625 55.078125 55.328125 
Q 55.078125 49.078125 51.53125 44.71875 
Q 48 40.375 41.703125 38.8125 
Q 48.828125 37.15625 52.796875 32.3125 
Q 56.78125 27.484375 56.78125 20.515625 
Q 56.78125 9.90625 50.3125 4.234375 
Q 43.84375 -1.421875 31.78125 -1.421875 
Q 19.734375 -1.421875 13.25 4.234375 
Q 6.78125 9.90625 6.78125 20.515625 
Q 6.78125 27.484375 10.78125 32.3125 
Q 14.796875 37.15625 21.921875 38.8125 
z
M 18.3125 54.390625 
Q 18.3125 48.734375 21.84375 45.5625 
Q 25.390625 42.390625 31.78125 42.390625 
Q 38.140625 42.390625 41.71875 45.5625 
Q 45.3125 48.734375 45.3125 54.390625 
Q 45.3125 60.0625 41.71875 63.234375 
Q 38.140625 66.40625 31.78125 66.40625 
Q 25.390625 66.40625 21.84375 63.234375 
Q 18.3125 60.0625 18.3125 54.390625 
z
" id="DejaVuSans-56"/>
       </defs>
       <use xlink:href="#DejaVuSans-56"/>
       <use x="63.623047" xlink:href="#DejaVuSans-48"/>
      </g>
     </g>
    </g>
    <g id="ytick_6">
     <g id="line2d_15">
      <g>
       <use style="stroke:#000000;stroke-width:0.8;" x="108" xlink:href="#m605d852877" y="133.197662"/>
      </g>
     </g>
     <g id="text_16">
      <!-- 100 -->
      <g transform="translate(78.095 137.756725)scale(0.12 -0.12)">
       <use xlink:href="#DejaVuSans-49"/>
       <use x="63.623047" xlink:href="#DejaVuSans-48"/>
       <use x="127.246094" xlink:href="#DejaVuSans-48"/>
      </g>
     </g>
    </g>
    <g id="ytick_7">
     <g id="line2d_16">
      <g>
       <use style="stroke:#000000;stroke-width:0.8;" x="108" xlink:href="#m605d852877" y="70.535213"/>
      </g>
     </g>
     <g id="text_17">
      <!-- 120 -->
      <g transform="translate(78.095 75.094275)scale(0.12 -0.12)">
       <use xlink:href="#DejaVuSans-49"/>
       <use x="63.623047" xlink:href="#DejaVuSans-50"/>
       <use x="127.246094" xlink:href="#DejaVuSans-48"/>
      </g>
     </g>
    </g>
    <g id="text_18">
     <!-- NO2(ppm) -->
     <g transform="translate(70.975469 303.927188)rotate(-90)scale(0.15 -0.15)">
      <defs>
       <path d="M 9.8125 72.90625 
L 23.09375 72.90625 
L 55.421875 11.921875 
L 55.421875 72.90625 
L 64.984375 72.90625 
L 64.984375 0 
L 51.703125 0 
L 19.390625 60.984375 
L 19.390625 0 
L 9.8125 0 
z
" id="DejaVuSans-78"/>
       <path d="M 39.40625 66.21875 
Q 28.65625 66.21875 22.328125 58.203125 
Q 16.015625 50.203125 16.015625 36.375 
Q 16.015625 22.609375 22.328125 14.59375 
Q 28.65625 6.59375 39.40625 6.59375 
Q 50.140625 6.59375 56.421875 14.59375 
Q 62.703125 22.609375 62.703125 36.375 
Q 62.703125 50.203125 56.421875 58.203125 
Q 50.140625 66.21875 39.40625 66.21875 
z
M 39.40625 74.21875 
Q 54.734375 74.21875 63.90625 63.9375 
Q 73.09375 53.65625 73.09375 36.375 
Q 73.09375 19.140625 63.90625 8.859375 
Q 54.734375 -1.421875 39.40625 -1.421875 
Q 24.03125 -1.421875 14.8125 8.828125 
Q 5.609375 19.09375 5.609375 36.375 
Q 5.609375 53.65625 14.8125 63.9375 
Q 24.03125 74.21875 39.40625 74.21875 
z
" id="DejaVuSans-79"/>
       <path d="M 31 75.875 
Q 24.46875 64.65625 21.28125 53.65625 
Q 18.109375 42.671875 18.109375 31.390625 
Q 18.109375 20.125 21.3125 9.0625 
Q 24.515625 -2 31 -13.1875 
L 23.1875 -13.1875 
Q 15.875 -1.703125 12.234375 9.375 
Q 8.59375 20.453125 8.59375 31.390625 
Q 8.59375 42.28125 12.203125 53.3125 
Q 15.828125 64.359375 23.1875 75.875 
z
" id="DejaVuSans-40"/>
       <path d="M 18.109375 8.203125 
L 18.109375 -20.796875 
L 9.078125 -20.796875 
L 9.078125 54.6875 
L 18.109375 54.6875 
L 18.109375 46.390625 
Q 20.953125 51.265625 25.265625 53.625 
Q 29.59375 56 35.59375 56 
Q 45.5625 56 51.78125 48.09375 
Q 58.015625 40.1875 58.015625 27.296875 
Q 58.015625 14.40625 51.78125 6.484375 
Q 45.5625 -1.421875 35.59375 -1.421875 
Q 29.59375 -1.421875 25.265625 0.953125 
Q 20.953125 3.328125 18.109375 8.203125 
z
M 48.6875 27.296875 
Q 48.6875 37.203125 44.609375 42.84375 
Q 40.53125 48.484375 33.40625 48.484375 
Q 26.265625 48.484375 22.1875 42.84375 
Q 18.109375 37.203125 18.109375 27.296875 
Q 18.109375 17.390625 22.1875 11.75 
Q 26.265625 6.109375 33.40625 6.109375 
Q 40.53125 6.109375 44.609375 11.75 
Q 48.6875 17.390625 48.6875 27.296875 
z
" id="DejaVuSans-112"/>
       <path d="M 52 44.1875 
Q 55.375 50.25 60.0625 53.125 
Q 64.75 56 71.09375 56 
Q 79.640625 56 84.28125 50.015625 
Q 88.921875 44.046875 88.921875 33.015625 
L 88.921875 0 
L 79.890625 0 
L 79.890625 32.71875 
Q 79.890625 40.578125 77.09375 44.375 
Q 74.3125 48.1875 68.609375 48.1875 
Q 61.625 48.1875 57.5625 43.546875 
Q 53.515625 38.921875 53.515625 30.90625 
L 53.515625 0 
L 44.484375 0 
L 44.484375 32.71875 
Q 44.484375 40.625 41.703125 44.40625 
Q 38.921875 48.1875 33.109375 48.1875 
Q 26.21875 48.1875 22.15625 43.53125 
Q 18.109375 38.875 18.109375 30.90625 
L 18.109375 0 
L 9.078125 0 
L 9.078125 54.6875 
L 18.109375 54.6875 
L 18.109375 46.1875 
Q 21.1875 51.21875 25.484375 53.609375 
Q 29.78125 56 35.6875 56 
Q 41.65625 56 45.828125 52.96875 
Q 50 49.953125 52 44.1875 
z
" id="DejaVuSans-109"/>
       <path d="M 8.015625 75.875 
L 15.828125 75.875 
Q 23.140625 64.359375 26.78125 53.3125 
Q 30.421875 42.28125 30.421875 31.390625 
Q 30.421875 20.453125 26.78125 9.375 
Q 23.140625 -1.703125 15.828125 -13.1875 
L 8.015625 -13.1875 
Q 14.5 -2 17.703125 9.0625 
Q 20.90625 20.125 20.90625 31.390625 
Q 20.90625 42.671875 17.703125 53.65625 
Q 14.5 64.65625 8.015625 75.875 
z
" id="DejaVuSans-41"/>
      </defs>
      <use xlink:href="#DejaVuSans-78"/>
      <use x="74.804688" xlink:href="#DejaVuSans-79"/>
      <use x="153.515625" xlink:href="#DejaVuSans-50"/>
      <use x="217.138672" xlink:href="#DejaVuSans-40"/>
      <use x="256.152344" xlink:href="#DejaVuSans-112"/>
      <use x="319.628906" xlink:href="#DejaVuSans-112"/>
      <use x="383.105469" xlink:href="#DejaVuSans-109"/>
      <use x="480.517578" xlink:href="#DejaVuSans-41"/>
     </g>
    </g>
   </g>
   <g id="line2d_17">
    <path clip-path="url(#p7bbfee17e1)" d="M 138.436364 200.841463 
L 139.273678 265.069952 
L 140.110992 256.497474 
L 140.948306 229.257109 
L 142.622934 264.048972 
L 143.460248 225.953649 
L 144.297562 238.202957 
L 145.134876 323.44253 
L 145.97219 233.927602 
L 146.809504 265.425822 
L 147.646818 290.020155 
L 148.484132 260.735695 
L 149.321446 336.808535 
L 150.15876 266.942567 
L 150.996074 321.162505 
L 151.833388 282.632774 
L 152.670702 256.698405 
L 153.508016 220.780028 
L 154.345329 256.708222 
L 155.182643 300.625096 
L 156.019957 352.118329 
L 156.857271 414.87425 
L 157.694585 419.704272 
L 158.531899 417.213178 
L 159.369213 410.960848 
L 160.206527 409.909243 
L 161.043841 318.124107 
L 161.881155 287.450524 
L 162.718469 297.201376 
L 163.555783 278.25434 
L 164.393097 385.40081 
L 165.230411 356.425589 
L 166.067725 344.662229 
L 166.905039 362.12688 
L 167.742353 422.826115 
L 168.579667 423.498587 
L 169.416981 401.478794 
L 170.254295 315.956978 
L 171.091609 325.243971 
L 171.928923 318.781854 
L 173.603551 337.871238 
L 174.440865 428.662391 
L 175.278179 425.65099 
L 176.115493 356.835454 
L 176.952807 278.200346 
L 177.790121 270.123313 
L 178.627435 264.797527 
L 179.464749 271.053485 
L 180.302063 328.39772 
L 181.139377 308.603957 
L 181.976691 285.209767 
L 182.814005 302.364287 
L 183.651319 344.608234 
L 184.488633 286.927763 
L 185.325947 272.766572 
L 186.163261 333.433901 
L 187.000575 303.020472 
L 187.837889 335.839095 
L 188.675203 345.543315 
L 189.512517 347.673629 
L 190.349831 340.300974 
L 191.187145 281.916125 
L 192.024459 287.187917 
L 192.861773 313.14192 
L 193.699087 381.029739 
L 194.536401 325.786367 
L 195.373715 260.431364 
L 196.211029 268.886356 
L 197.048343 353.693976 
L 197.885657 357.736174 
L 199.560285 293.031555 
L 200.397599 262.831649 
L 201.234913 239.015323 
L 202.072227 274.442844 
L 202.909541 267.293529 
L 203.746855 324.878283 
L 204.584169 327.381648 
L 205.421483 339.03702 
L 206.258797 342.367477 
L 207.096111 324.225445 
L 207.933425 323.761586 
L 208.770739 338.109303 
L 209.608053 366.294246 
L 210.445367 355.240172 
L 211.282681 345.78138 
L 212.119995 346.866171 
L 212.957309 314.637003 
L 213.794623 320.647106 
L 214.631937 331.043433 
L 215.469251 352.479108 
L 216.306565 343.555349 
L 217.143879 312.251016 
L 217.981193 243.658303 
L 218.818507 352.989248 
L 229.703589 356.563029 
L 230.540903 339.854295 
L 231.378217 341.243418 
L 233.890159 253.895618 
L 235.564787 338.891867 
L 236.402101 340.197895 
L 237.239415 365.027838 
L 238.076729 352.695085 
L 238.914043 375.230277 
L 239.751357 385.960386 
L 240.588671 384.220302 
L 241.425985 378.953419 
L 242.263299 377.336049 
L 243.100613 380.052936 
L 243.937927 381.361067 
L 244.775241 374.371279 
L 245.612555 338.960938 
L 246.449869 337.714164 
L 248.124497 355.529777 
L 248.961811 375.902749 
L 249.799125 384.031322 
L 250.636439 390.356 
L 251.473753 330.928082 
L 252.311067 343.43018 
L 253.148381 364.382363 
L 253.985695 360.504601 
L 254.823009 369.27865 
L 255.660323 347.26131 
L 256.497637 359.589155 
L 257.334951 335.645207 
L 258.172265 348.192885 
L 259.009579 331.70118 
L 259.846893 328.611242 
L 260.684207 355.105187 
L 261.521521 365.045018 
L 262.358835 402.806559 
L 263.196149 399.834427 
L 264.033463 389.047869 
L 264.870777 387.783915 
L 265.708091 391.489877 
L 266.545405 388.110335 
L 267.382719 358.170582 
L 268.220033 374.120943 
L 269.057347 373.647267 
L 269.89466 376.938455 
L 270.731974 388.863798 
L 271.569288 386.220539 
L 272.406602 385.069483 
L 273.243916 387.560576 
L 274.08123 393.895071 
L 274.918544 381.326707 
L 275.755858 400.86567 
L 276.593172 385.516161 
L 277.430486 393.08025 
L 278.2678 391.082467 
L 279.105114 397.787558 
L 279.942428 407.415695 
L 280.779742 398.779087 
L 281.617056 392.74156 
L 282.45437 389.443435 
L 283.291684 402.696116 
L 284.128998 401.002664 
L 284.966312 394.788428 
L 285.803626 401.471431 
L 286.64094 390.756048 
L 287.478254 390.765865 
L 288.315568 394.147862 
L 289.152882 384.46573 
L 289.990196 377.96189 
L 290.82751 385.830309 
L 291.664824 400.609979 
L 292.502138 399.309211 
L 293.339452 398.9018 
L 294.176766 399.70435 
L 295.01408 390.655422 
L 295.851394 403.39804 
L 296.688708 397.30161 
L 297.526022 409.519013 
L 298.363336 396.224182 
L 299.20065 397.760561 
L 300.037964 387.967986 
L 301.712592 405.160213 
L 302.549906 407.815743 
L 303.38722 403.677828 
L 304.224534 396.463101 
L 305.061848 391.460426 
L 305.899162 391.524237 
L 306.736476 392.74156 
L 307.57379 380.671414 
L 308.411104 389.843056 
L 309.248418 400.87995 
L 310.085732 400.551076 
L 310.923046 400.992846 
L 311.76036 398.140974 
L 312.597674 391.914467 
L 313.434988 406.54688 
L 314.272302 410.421295 
L 315.109616 387.150711 
L 315.94693 377.230515 
L 316.784244 386.62795 
L 317.621558 385.660964 
L 318.458872 396.535875 
L 319.296186 398.860078 
L 320.1335 404.870608 
L 320.970814 405.01541 
L 321.808128 383.353941 
L 322.645442 392.932993 
L 323.482756 386.711395 
L 324.32007 390.299552 
L 325.157384 389.438546 
L 325.994698 389.389014 
L 326.832012 404.323303 
L 328.50664 376.651305 
L 329.343954 385.913755 
L 330.181268 386.03156 
L 331.018582 361.299788 
L 332.69321 398.653918 
L 333.530524 388.161874 
L 334.367838 395.193255 
L 335.205152 392.277701 
L 336.042466 359.073756 
L 336.87978 358.263844 
L 338.554408 387.825638 
L 339.391722 382.467946 
L 340.229036 336.460027 
L 342.740978 360.563504 
L 343.578292 360.261628 
L 344.415606 380.129018 
L 345.25292 385.58979 
L 346.090234 382.146436 
L 346.927548 365.332169 
L 348.602176 390.115481 
L 349.43949 381.113184 
L 350.276804 383.037339 
L 351.114118 377.083258 
L 351.951432 384.782332 
L 352.788746 400.509353 
L 353.62606 394.805608 
L 354.463374 391.54878 
L 355.300688 386.897921 
L 356.138002 384.531995 
L 356.975316 382.877811 
L 357.81263 377.151978 
L 358.649944 373.453379 
L 359.487258 378.494468 
L 360.324572 345.157993 
L 361.161886 374.533262 
L 361.9992 384.384739 
L 362.836514 328.422263 
L 363.673828 349.610056 
L 364.511142 365.373891 
L 365.348456 385.629058 
L 366.18577 380.708228 
L 367.023084 362.936792 
L 367.860398 357.476021 
L 368.697712 370.007571 
L 369.535026 385.121022 
L 370.37234 394.020239 
L 371.209654 394.177313 
L 372.046968 376.457417 
L 372.884282 347.698172 
L 374.55891 362.259411 
L 375.396224 410.490907 
L 376.233538 357.696906 
L 377.070852 368.012242 
L 377.908166 354.459711 
L 378.74548 384.635075 
L 379.582794 386.10028 
L 380.420108 389.533817 
L 381.257422 387.192434 
L 382.094736 390.093392 
L 382.93205 389.202489 
L 383.769364 386.669673 
L 385.443991 343.884222 
L 386.281305 338.882401 
L 387.118619 338.992843 
L 387.955933 328.009944 
L 388.793247 371.546404 
L 389.630561 340.941541 
L 390.467875 328.532705 
L 391.305189 326.368031 
L 392.142503 346.230513 
L 392.979817 375.110017 
L 393.817131 328.032032 
L 394.654445 321.457018 
L 395.491759 264.662541 
L 396.329073 348.100674 
L 397.166387 354.707594 
L 398.003701 343.631431 
L 398.841015 309.995534 
L 399.678329 319.643306 
L 400.515643 300.251035 
L 401.352957 311.981046 
L 402.190271 339.768396 
L 403.027585 316.631905 
L 403.864899 304.569763 
L 404.702213 329.557313 
L 405.539527 314.499136 
L 406.376841 322.087768 
L 407.214155 333.090302 
L 408.051469 345.582583 
L 408.888783 339.233363 
L 409.726097 329.34998 
L 410.563411 288.476413 
L 411.400725 307.067579 
L 412.238039 301.670619 
L 413.075353 337.397562 
L 413.912667 364.674422 
L 414.749981 355.934733 
L 415.587295 360.295988 
L 416.424609 342.308575 
L 417.261923 336.032983 
L 418.099237 372.734275 
L 418.936551 364.897761 
L 419.773865 333.711234 
L 420.611179 266.289729 
L 421.448493 259.376024 
L 422.285807 318.6076 
L 423.960435 234.391461 
L 424.797749 216.037022 
L 425.635063 249.472687 
L 426.472377 303.863065 
L 427.309691 301.712341 
L 428.147005 337.661397 
L 428.984319 327.793967 
L 429.821633 328.974922 
L 430.658947 326.058792 
L 431.496261 339.132737 
L 432.333575 345.720023 
L 433.170889 325.636656 
L 434.845517 162.28719 
L 435.682831 299.277696 
L 436.520145 294.960619 
L 437.357459 328.829673 
L 438.194773 172.573074 
L 439.032087 259.599363 
L 439.869401 253.343405 
L 440.706715 371.232256 
L 441.544029 366.007095 
L 442.381343 353.568808 
L 443.218657 276.796498 
L 444.055971 267.487417 
L 444.893285 227.993155 
L 445.730599 200.627941 
L 446.567913 279.056889 
L 447.405227 341.183463 
L 448.242541 370.078745 
L 449.079855 342.713531 
L 449.917169 322.203119 
L 450.754483 350.763567 
L 451.591797 306.289572 
L 452.429111 167.784776 
L 453.266425 88.759437 
L 454.103739 86.923636 
L 454.941053 178.301362 
L 455.778367 355.645128 
L 456.615681 282.873294 
L 457.452995 223.306151 
L 458.290309 235.73886 
L 459.127623 161.347201 
L 459.964937 285.759526 
L 460.802251 204.643633 
L 461.639565 278.497314 
L 462.476879 250.722235 
L 463.314193 236.715663 
L 464.151507 284.900528 
L 464.988821 345.935999 
L 465.826135 333.694054 
L 466.663449 308.761031 
L 468.338077 274.190053 
L 469.175391 288.41751 
L 470.012705 330.795551 
L 470.850019 287.276271 
L 471.687333 287.740129 
L 472.524647 254.546002 
L 473.361961 290.346574 
L 475.036589 322.733243 
L 475.873903 401.608871 
L 476.711217 406.27691 
L 477.548531 384.063228 
L 478.385845 348.228296 
L 479.223159 363.474279 
L 480.060473 321.515921 
L 480.897787 333.298916 
L 481.735101 387.78637 
L 482.572415 361.523127 
L 483.409729 314.825555 
L 484.247043 306.770611 
L 485.084357 331.519563 
L 485.921671 328.721685 
L 486.758985 321.901243 
L 487.596299 350.083731 
L 488.433613 319.989359 
L 489.270927 304.758102 
L 490.108241 361.022454 
L 490.945555 335.269702 
L 491.782869 266.35354 
L 492.620183 348.076131 
L 493.457497 329.693579 
L 494.294811 280.065598 
L 495.132125 282.897836 
L 497.644067 349.322905 
L 498.481381 316.060058 
L 499.318695 325.18016 
L 500.156009 329.035832 
L 500.993322 286.508081 
L 501.830636 323.113657 
L 502.66795 344.041296 
L 503.505264 328.400174 
L 504.342578 323.967746 
L 505.179892 331.998148 
L 506.017206 341.570904 
L 506.85452 354.955476 
L 507.691834 343.943125 
L 508.529148 371.394238 
L 509.366462 372.297413 
L 510.203776 310.108431 
L 511.04109 223.19013 
L 511.878404 280.514411 
L 512.715718 355.203358 
L 513.553032 303.526054 
L 514.390346 331.320766 
L 515.22766 375.546879 
L 516.064974 379.247932 
L 516.902288 366.942176 
L 517.739602 373.858335 
L 518.576916 365.221726 
L 519.41423 366.097904 
L 520.251544 357.520198 
L 521.088858 333.976297 
L 521.926172 328.746227 
L 522.763486 357.385212 
L 523.6008 329.909556 
L 524.438114 349.747495 
L 525.275428 342.627631 
L 526.112742 369.025859 
L 526.950056 348.267565 
L 527.78737 351.256877 
L 528.624684 364.561525 
L 529.461998 354.453018 
L 530.299312 341.685188 
L 531.136626 312.147937 
L 531.97394 358.065048 
L 532.811254 348.593984 
L 533.648568 349.094657 
L 534.485882 344.696588 
L 535.323196 326.485836 
L 536.16051 322.912406 
L 536.997824 364.259649 
L 537.835138 364.595885 
L 538.672452 355.083098 
L 539.509766 331.256955 
L 540.34708 336.339768 
L 541.184394 330.621297 
L 542.021708 271.019125 
L 542.859022 329.043195 
L 543.696336 343.663337 
L 544.53365 354.727228 
L 545.370964 355.083098 
L 546.208278 335.358056 
L 547.045592 360.421156 
L 547.882906 334.673312 
L 548.72022 342.556457 
L 549.557534 365.665951 
L 550.394848 376.184992 
L 551.232162 375.55915 
L 552.069476 380.705774 
L 552.90679 360.967121 
L 553.744104 337.2184 
L 554.581418 323.395899 
L 555.418732 315.09798 
L 556.256046 317.189026 
L 557.09336 318.818668 
L 557.930674 312.118485 
L 558.767988 311.551547 
L 559.605302 363.516002 
L 560.442616 380.629691 
L 561.27993 394.020239 
L 562.117244 376.575222 
L 562.954558 376.513865 
L 563.791872 383.39321 
L 564.629186 388.100517 
L 565.4665 382.293693 
L 566.303814 386.745755 
L 567.141128 380.875119 
L 567.978442 355.610768 
L 568.815756 357.709177 
L 569.65307 353.060772 
L 570.490384 373.497556 
L 571.327698 379.895862 
L 572.165012 325.48449 
L 573.002326 363.535636 
L 573.83964 362.622644 
L 574.676954 367.619557 
L 575.514268 359.142476 
L 576.351582 383.606732 
L 577.188896 392.307152 
L 578.02621 388.77299 
L 578.863524 379.608711 
L 579.700838 373.02388 
L 580.538152 374.020317 
L 581.375466 381.029739 
L 582.21278 380.41126 
L 583.050094 380.013667 
L 583.887408 374.53817 
L 584.724722 383.628821 
L 585.562036 363.454645 
L 586.39935 361.974715 
L 587.236664 345.90164 
L 588.073978 346.507847 
L 588.911292 331.148967 
L 589.748606 363.162586 
L 590.58592 387.226794 
L 591.423234 365.518694 
L 592.260548 375.173828 
L 593.097862 374.43509 
L 593.935176 380.926659 
L 594.77249 372.842263 
L 595.609804 382.02216 
L 596.447118 396.346896 
L 597.284432 406.983742 
L 598.121746 405.886679 
L 598.95906 391.099647 
L 599.796374 394.160133 
L 600.633688 393.868074 
L 602.308316 413.909718 
L 603.14563 400.217294 
L 603.982944 391.264083 
L 604.820258 389.609899 
L 605.657572 402.838464 
L 606.494886 383.915971 
L 607.3322 383.280313 
L 608.169514 402.053095 
L 609.006828 404.767528 
L 610.681456 359.284824 
L 611.51877 361.520673 
L 612.356084 351.016358 
L 613.193398 347.256402 
L 614.030712 383.071699 
L 614.868026 394.327024 
L 616.542653 377.645288 
L 617.379967 368.247852 
L 618.217281 372.186971 
L 619.054595 391.327895 
L 619.891909 384.470638 
L 620.729223 359.046759 
L 621.566537 389.970678 
L 622.403851 392.140261 
L 623.241165 368.569363 
L 624.078479 338.666424 
L 624.915793 348.000048 
L 625.753107 370.221093 
L 626.590421 386.286805 
L 627.427735 377.655105 
L 629.102363 386.115005 
L 629.939677 384.666981 
L 630.776991 372.964977 
L 631.614305 383.92088 
L 632.451619 374.616707 
L 633.288933 367.391309 
L 634.126247 376.077003 
L 634.963561 374.07922 
L 635.800875 377.426857 
L 636.638189 397.767923 
L 637.475503 405.957853 
L 639.150131 393.696274 
L 639.987445 392.11081 
L 640.824759 398.295594 
L 641.662073 374.155303 
L 642.499387 363.174857 
L 643.336701 383.437387 
L 644.174015 381.817562 
L 645.011329 378.521465 
L 645.848643 381.123001 
L 646.685957 395.522258 
L 647.523271 392.99435 
L 648.360585 393.64228 
L 649.197899 397.839098 
L 650.035213 363.70989 
L 650.872527 382.93426 
L 651.709841 387.239065 
L 652.547155 364.095212 
L 653.384469 357.873614 
L 654.221783 367.170424 
L 655.059097 360.990549 
L 655.896411 362.784627 
L 656.733725 384.598261 
L 657.571039 368.390201 
L 658.408353 378.980416 
L 659.245667 352.383391 
L 660.082981 364.735779 
L 660.920295 405.295198 
L 661.757609 394.248487 
L 662.594923 390.819859 
L 663.432237 399.304302 
L 664.269551 391.173275 
L 665.106865 375.738313 
L 665.944179 383.469292 
L 666.781493 367.833079 
L 667.618807 355.441423 
L 668.456121 364.247377 
L 669.293435 385.206922 
L 670.130749 362.789535 
L 670.968063 373.053331 
L 671.805377 393.912251 
L 672.642691 400.1633 
L 673.480005 377.527482 
L 674.317319 386.581319 
L 675.154633 372.982157 
L 675.991947 390.402631 
L 676.829261 413.126803 
L 677.666575 442.996364 
L 678.503889 382.990708 
L 680.178517 372.29005 
L 681.015831 402.168446 
L 681.853145 354.732136 
L 682.690459 336.48457 
L 683.527773 381.469055 
L 684.365087 388.333674 
L 685.202401 348.076131 
L 686.039715 282.892062 
L 687.714343 362.531836 
L 688.551657 373.055785 
L 689.388971 353.419097 
L 690.226285 379.434457 
L 691.063599 354.670779 
L 691.900913 285.96814 
L 692.738227 269.409117 
L 693.575541 312.403182 
L 694.412855 324.804655 
L 695.250169 349.64687 
L 696.087483 327.155854 
L 696.924797 326.247771 
L 697.762111 341.020078 
L 698.599425 324.353068 
L 699.436739 329.96355 
L 700.274053 332.442372 
L 701.111367 331.745357 
L 702.785995 387.560576 
L 703.623309 345.803468 
L 704.460623 370.761034 
L 705.297937 299.073991 
L 706.135251 335.32615 
L 706.972565 363.952864 
L 707.809879 321.817797 
L 708.647193 318.428437 
L 709.484507 282.006933 
L 710.321821 273.750738 
L 711.159135 316.862384 
L 711.996449 249.475015 
L 712.833763 322.16095 
L 713.671077 309.360322 
L 714.508391 378.313967 
L 715.345705 359.556134 
L 717.020333 236.800224 
L 717.857647 262.570157 
L 718.694961 265.957062 
L 719.532275 282.621172 
L 720.369589 306.166189 
L 721.206903 346.715345 
L 722.044217 373.984619 
L 722.881531 330.881227 
L 723.718845 341.89871 
L 724.556159 271.812526 
L 725.393473 303.073797 
L 726.230787 289.909043 
L 727.068101 227.576597 
L 727.905415 277.844698 
L 728.742729 225.782742 
L 729.580043 254.666485 
L 730.417357 253.199272 
L 731.254671 302.950637 
L 732.091984 331.178418 
L 732.929298 209.35692 
L 733.766612 255.140384 
L 734.603926 250.50849 
L 735.44124 352.809097 
L 736.278554 358.653852 
L 737.115868 334.910708 
L 737.953182 323.173541 
L 738.790496 347.775593 
L 739.62781 296.921142 
L 741.302438 204.858895 
L 742.139752 327.065939 
L 742.977066 357.312476 
L 743.81438 353.060772 
L 745.489008 253.402754 
L 746.326322 284.701509 
L 747.163636 251.9168 
L 747.163636 251.9168 
" style="fill:none;stroke:#1f77b4;stroke-linecap:square;stroke-width:1.5;"/>
   </g>
   <g id="line2d_18">
    <path clip-path="url(#p7bbfee17e1)" d="M 138.436364 209.584184 
L 139.273678 272.651181 
L 140.110992 267.721519 
L 140.948306 287.458348 
L 141.78562 255.761526 
L 142.622934 272.590824 
L 143.460248 271.211597 
L 144.297562 278.588247 
L 145.134876 300.639563 
L 145.97219 292.236472 
L 146.809504 289.195714 
L 147.646818 277.752617 
L 148.484132 284.507695 
L 149.321446 300.701725 
L 150.15876 304.830586 
L 150.996074 298.996641 
L 151.833388 323.889036 
L 152.670702 289.338109 
L 153.508016 281.563365 
L 154.345329 283.97097 
L 155.182643 290.87528 
L 156.019957 303.633876 
L 156.857271 320.704496 
L 157.694585 327.957288 
L 158.531899 326.126302 
L 159.369213 331.018125 
L 160.206527 327.810375 
L 161.043841 309.703357 
L 161.881155 237.851679 
L 162.718469 252.209847 
L 163.555783 291.765064 
L 164.393097 310.497633 
L 165.230411 316.098181 
L 166.067725 318.050418 
L 166.905039 324.065494 
L 167.742353 326.36356 
L 168.579667 338.483649 
L 169.416981 341.543387 
L 170.254295 335.335252 
L 171.091609 322.359071 
L 171.928923 314.216591 
L 172.766237 318.496691 
L 173.603551 319.587721 
L 174.440865 328.979439 
L 175.278179 341.280576 
L 176.115493 313.808815 
L 176.952807 246.358477 
L 177.790121 271.684068 
L 178.627435 291.132975 
L 179.464749 225.400892 
L 180.302063 300.288297 
L 181.139377 295.273895 
L 181.976691 300.871144 
L 182.814005 301.209909 
L 183.651319 304.584902 
L 184.488633 313.805744 
L 185.325947 307.719447 
L 186.163261 312.328344 
L 187.837889 308.088916 
L 188.675203 314.693018 
L 189.512517 319.172189 
L 190.349831 317.029737 
L 191.187145 318.67034 
L 192.024459 311.427911 
L 192.861773 310.900987 
L 193.699087 310.089691 
L 194.536401 310.098463 
L 195.373715 316.950197 
L 196.211029 298.004453 
L 197.048343 310.725377 
L 197.885657 312.677232 
L 198.722971 325.164675 
L 199.560285 314.282709 
L 201.234913 296.594857 
L 202.072227 300.342379 
L 202.909541 300.715912 
L 204.584169 326.322206 
L 205.421483 325.545595 
L 206.258797 320.836182 
L 207.096111 321.709664 
L 207.933425 321.490251 
L 208.770739 316.34292 
L 209.608053 323.052665 
L 210.445367 332.84923 
L 211.282681 333.245998 
L 212.119995 333.845804 
L 212.957309 325.72069 
L 213.794623 324.159986 
L 214.631937 317.461045 
L 215.469251 323.030398 
L 216.306565 324.057068 
L 217.143879 324.134468 
L 217.981193 303.261419 
L 218.818507 292.226026 
L 229.703589 301.420729 
L 230.540903 307.152807 
L 231.378217 314.901615 
L 232.215531 316.140718 
L 233.052845 316.138483 
L 233.890159 300.495005 
L 234.727473 274.826609 
L 235.564787 334.464424 
L 236.402101 323.687742 
L 237.239415 348.781992 
L 238.076729 346.883167 
L 238.914043 361.008877 
L 239.751357 366.279324 
L 240.588671 361.909406 
L 241.425985 361.705919 
L 242.263299 358.102763 
L 243.100613 353.136026 
L 243.937927 346.733679 
L 244.775241 348.463748 
L 245.612555 331.739065 
L 246.449869 335.573788 
L 247.287183 322.912098 
L 248.124497 326.044013 
L 248.961811 343.561491 
L 249.799125 345.818455 
L 250.636439 346.729101 
L 251.473753 327.204652 
L 252.311067 321.795156 
L 253.148381 322.994793 
L 253.985695 325.958402 
L 254.823009 327.413834 
L 255.660323 327.088575 
L 256.497637 331.878723 
L 257.334951 335.274034 
L 258.172265 331.450904 
L 259.009579 321.169904 
L 259.846893 321.481143 
L 260.684207 323.875924 
L 261.521521 325.578845 
L 262.358835 334.758931 
L 263.196149 341.6911 
L 264.033463 341.151424 
L 265.708091 345.063847 
L 266.545405 351.359063 
L 267.382719 347.84636 
L 269.057347 337.775402 
L 269.89466 334.19976 
L 270.731974 333.288726 
L 271.569288 359.252292 
L 272.406602 370.711453 
L 273.243916 365.30954 
L 274.08123 368.820684 
L 274.918544 355.043743 
L 275.755858 360.868842 
L 276.593172 369.826198 
L 277.430486 372.693056 
L 278.2678 371.123124 
L 279.105114 373.429873 
L 279.942428 379.560142 
L 280.779742 371.009659 
L 282.45437 362.034029 
L 283.291684 353.819986 
L 284.128998 357.554642 
L 284.966312 357.829865 
L 285.803626 370.028126 
L 286.64094 375.690584 
L 287.478254 363.009639 
L 288.315568 361.47536 
L 289.152882 351.148913 
L 289.990196 349.399619 
L 290.82751 345.9314 
L 291.664824 358.812808 
L 292.502138 373.849206 
L 293.339452 369.533908 
L 294.176766 367.330083 
L 295.01408 361.565968 
L 295.851394 358.56198 
L 296.688708 358.843411 
L 297.526022 372.414887 
L 298.363336 374.900903 
L 299.20065 376.96029 
L 300.037964 365.040885 
L 300.875278 361.915244 
L 302.549906 381.307571 
L 303.38722 384.865506 
L 304.224534 381.035988 
L 305.061848 370.049305 
L 305.899162 377.37768 
L 306.736476 374.741369 
L 307.57379 370.99304 
L 309.248418 367.596138 
L 310.085732 368.229871 
L 310.923046 371.158615 
L 311.76036 377.788031 
L 312.597674 362.230464 
L 314.272302 347.912269 
L 315.109616 344.392819 
L 315.94693 339.495367 
L 316.784244 335.760429 
L 317.621558 343.017942 
L 318.458872 344.615435 
L 319.296186 363.623896 
L 320.1335 367.586637 
L 320.970814 376.136241 
L 321.808128 363.241214 
L 322.645442 357.343751 
L 323.482756 347.722968 
L 324.32007 343.708105 
L 325.157384 348.232245 
L 325.994698 362.117088 
L 326.832012 366.216075 
L 327.669326 356.116152 
L 328.50664 341.648121 
L 329.343954 340.51765 
L 330.181268 340.857789 
L 331.018582 351.403895 
L 331.855896 360.019366 
L 332.69321 365.003661 
L 333.530524 360.29732 
L 334.367838 344.519425 
L 335.205152 344.457431 
L 336.042466 349.455488 
L 336.87978 341.901645 
L 337.717094 337.863165 
L 338.554408 345.2287 
L 339.391722 350.61872 
L 340.229036 345.218158 
L 343.578292 335.694538 
L 344.415606 331.409921 
L 345.25292 345.488845 
L 346.090234 344.495235 
L 346.927548 336.964429 
L 347.764862 335.285054 
L 348.602176 335.258198 
L 349.43949 340.25099 
L 350.276804 343.177154 
L 351.114118 353.148145 
L 351.951432 350.276548 
L 352.788746 349.577565 
L 353.62606 354.620705 
L 354.463374 354.017659 
L 356.138002 348.181755 
L 356.975316 359.342147 
L 357.81263 349.396212 
L 358.649944 346.837499 
L 359.487258 347.9864 
L 360.324572 338.105789 
L 361.161886 337.993656 
L 361.9992 341.968624 
L 362.836514 331.431446 
L 363.673828 329.690817 
L 364.511142 328.561624 
L 365.348456 335.782803 
L 366.18577 335.873471 
L 367.860398 352.232868 
L 368.697712 350.041634 
L 369.535026 339.727329 
L 370.37234 338.401348 
L 371.209654 332.751714 
L 372.046968 337.30078 
L 372.884282 333.764842 
L 373.721596 337.153879 
L 374.55891 338.485143 
L 375.396224 350.410249 
L 376.233538 345.708354 
L 377.908166 330.681786 
L 378.74548 327.358784 
L 379.582794 332.365142 
L 380.420108 340.524725 
L 381.257422 346.789327 
L 382.094736 354.616043 
L 382.93205 354.096828 
L 383.769364 356.693656 
L 384.606678 348.224339 
L 385.443991 334.023912 
L 386.281305 330.161938 
L 387.118619 335.877845 
L 387.955933 327.982961 
L 388.793247 331.639421 
L 389.630561 327.863919 
L 390.467875 322.218983 
L 391.305189 328.573242 
L 392.142503 319.252888 
L 392.979817 329.700737 
L 393.817131 332.787307 
L 395.491759 302.948518 
L 396.329073 293.059528 
L 397.166387 329.69567 
L 398.003701 320.390137 
L 398.841015 316.661821 
L 399.678329 317.321184 
L 400.515643 307.50889 
L 401.352957 309.820952 
L 402.190271 335.186008 
L 403.027585 333.865645 
L 403.864899 316.493347 
L 404.702213 319.327169 
L 405.539527 320.034161 
L 406.376841 322.3966 
L 407.214155 317.14518 
L 408.051469 323.214924 
L 408.888783 334.2019 
L 409.726097 327.949567 
L 410.563411 307.425 
L 411.400725 307.429135 
L 412.238039 305.748206 
L 413.075353 302.461226 
L 413.912667 325.224638 
L 414.749981 329.360801 
L 415.587295 338.8767 
L 416.424609 319.431067 
L 417.261923 308.428781 
L 418.099237 331.295242 
L 418.936551 338.181517 
L 419.773865 331.272653 
L 420.611179 318.412107 
L 421.448493 239.047348 
L 422.285807 340.970579 
L 423.123121 309.530234 
L 423.960435 264.528541 
L 424.797749 302.301023 
L 425.635063 279.740877 
L 426.472377 303.767379 
L 427.309691 307.124074 
L 428.147005 310.975519 
L 428.984319 308.581048 
L 429.821633 308.115294 
L 430.658947 303.707823 
L 431.496261 300.070473 
L 432.333575 301.250414 
L 433.170889 300.395326 
L 434.008203 284.129082 
L 434.845517 238.070662 
L 435.682831 299.928233 
L 436.520145 296.864552 
L 437.357459 309.519321 
L 438.194773 285.412192 
L 439.032087 227.689134 
L 439.869401 326.662633 
L 440.706715 314.661214 
L 441.544029 322.499733 
L 442.381343 299.388043 
L 443.218657 257.017815 
L 444.893285 215.691588 
L 445.730599 236.576696 
L 446.567913 272.802588 
L 447.405227 281.764934 
L 448.242541 295.208148 
L 449.079855 315.972578 
L 449.917169 310.947193 
L 450.754483 298.497243 
L 451.591797 277.274959 
L 452.429111 227.574371 
L 453.266425 137.659359 
L 454.103739 138.045382 
L 454.941053 154.023298 
L 455.778367 263.317848 
L 456.615681 272.953015 
L 457.452995 247.644491 
L 458.290309 234.896687 
L 459.127623 240.267352 
L 459.964937 263.989952 
L 460.802251 272.219956 
L 461.639565 254.540184 
L 462.476879 273.662194 
L 463.314193 262.38193 
L 464.988821 288.386545 
L 465.826135 302.188041 
L 466.663449 305.124328 
L 467.500763 276.82969 
L 468.338077 274.712803 
L 469.175391 262.238925 
L 470.012705 267.328325 
L 470.850019 267.30313 
L 471.687333 291.39722 
L 472.524647 288.497794 
L 473.361961 289.241394 
L 474.199275 288.028059 
L 475.036589 292.093515 
L 475.873903 312.378984 
L 476.711217 316.168374 
L 477.548531 315.801439 
L 478.385845 310.03176 
L 479.223159 307.057383 
L 480.060473 297.123215 
L 480.897787 293.528796 
L 481.735101 298.667988 
L 482.572415 288.004323 
L 484.247043 275.076308 
L 485.084357 281.785551 
L 485.921671 282.184159 
L 486.758985 288.201374 
L 487.596299 305.811754 
L 488.433613 299.132535 
L 489.270927 299.962798 
L 490.108241 309.232978 
L 490.945555 312.834256 
L 491.782869 312.813699 
L 492.620183 312.094457 
L 493.457497 304.459407 
L 494.294811 305.247863 
L 495.132125 302.442844 
L 495.969439 310.126036 
L 496.806753 314.425415 
L 497.644067 317.44705 
L 498.481381 313.419016 
L 499.318695 307.274047 
L 500.156009 309.733344 
L 500.993322 300.335722 
L 501.830636 298.796722 
L 502.66795 304.832187 
L 504.342578 301.541706 
L 505.179892 303.759479 
L 506.017206 304.661382 
L 506.85452 310.878075 
L 507.691834 321.09683 
L 508.529148 327.946077 
L 509.366462 316.509362 
L 510.203776 306.7021 
L 511.04109 301.336312 
L 511.878404 285.667449 
L 512.715718 293.468236 
L 513.553032 298.473602 
L 514.390346 302.433378 
L 515.22766 311.666136 
L 516.064974 317.668411 
L 516.902288 321.88556 
L 517.739602 326.830593 
L 518.576916 333.925368 
L 519.41423 339.19431 
L 520.251544 330.464082 
L 521.088858 313.497946 
L 521.926172 311.824308 
L 522.763486 314.132402 
L 523.6008 315.395886 
L 524.438114 309.145932 
L 525.275428 318.170284 
L 526.112742 334.095779 
L 526.950056 327.436292 
L 527.78737 325.820991 
L 528.624684 320.60055 
L 529.461998 314.582606 
L 530.299312 317.043661 
L 531.136626 318.343204 
L 531.97394 317.906362 
L 532.811254 307.465062 
L 533.648568 312.124731 
L 534.485882 313.670998 
L 535.323196 325.448928 
L 536.16051 327.698182 
L 537.835138 315.174178 
L 538.672452 314.915204 
L 540.34708 323.799086 
L 541.184394 320.098044 
L 542.021708 299.374908 
L 542.859022 315.900759 
L 543.696336 313.324883 
L 544.53365 303.720408 
L 546.208278 322.067373 
L 547.045592 320.999816 
L 547.882906 317.06625 
L 548.72022 316.108997 
L 549.557534 324.03761 
L 550.394848 321.828311 
L 551.232162 326.367934 
L 552.069476 337.03075 
L 552.90679 337.733762 
L 553.744104 327.784021 
L 554.581418 319.322305 
L 555.418732 305.805659 
L 556.256046 302.00391 
L 557.09336 300.532379 
L 557.930674 303.412874 
L 558.767988 302.924016 
L 559.605302 307.012276 
L 560.442616 330.174894 
L 561.27993 343.184026 
L 562.117244 347.474357 
L 562.954558 332.997123 
L 563.791872 334.11097 
L 565.4665 352.552665 
L 566.303814 349.849321 
L 567.141128 338.327748 
L 567.978442 323.792512 
L 568.815756 317.868414 
L 569.65307 334.208246 
L 570.490384 325.79129 
L 571.327698 330.98405 
L 572.165012 323.079748 
L 573.002326 308.598295 
L 573.83964 304.299574 
L 574.676954 317.121778 
L 576.351582 322.677626 
L 577.188896 329.32387 
L 578.02621 340.344287 
L 578.863524 335.696666 
L 579.700838 329.172475 
L 580.538152 327.420468 
L 581.375466 332.162533 
L 582.21278 342.9957 
L 583.050094 346.702681 
L 583.887408 341.060458 
L 584.724722 334.639734 
L 585.562036 325.989345 
L 586.39935 323.775528 
L 587.236664 318.778051 
L 588.073978 323.909318 
L 588.911292 327.074782 
L 589.748606 328.797902 
L 590.58592 325.392897 
L 591.423234 320.702871 
L 592.260548 326.974446 
L 593.097862 325.410144 
L 593.935176 325.486182 
L 594.77249 331.233511 
L 595.609804 335.192068 
L 596.447118 334.464519 
L 597.284432 339.573472 
L 598.121746 347.264612 
L 598.95906 344.382337 
L 599.796374 350.523254 
L 600.633688 358.973866 
L 601.471002 363.79577 
L 602.308316 364.230438 
L 603.14563 356.021553 
L 603.982944 350.853898 
L 604.820258 348.968579 
L 605.657572 349.765945 
L 606.494886 340.722075 
L 607.3322 326.093279 
L 608.169514 320.835632 
L 609.006828 319.328974 
L 609.844142 330.097075 
L 610.681456 329.56972 
L 611.51877 332.781785 
L 612.356084 329.542781 
L 613.193398 316.854056 
L 614.030712 309.637072 
L 614.868026 316.968411 
L 615.70534 321.155609 
L 616.542653 318.442704 
L 617.379967 311.734836 
L 618.217281 313.892144 
L 619.054595 320.718946 
L 619.891909 321.801945 
L 620.729223 321.148557 
L 621.566537 319.740012 
L 622.403851 321.467339 
L 623.241165 320.161305 
L 624.078479 319.682966 
L 624.915793 317.426899 
L 625.753107 310.046891 
L 626.590421 313.345918 
L 628.265049 323.396509 
L 629.102363 330.245243 
L 629.939677 329.458353 
L 630.776991 325.074618 
L 631.614305 328.692785 
L 632.451619 326.114088 
L 633.288933 331.520536 
L 634.126247 334.393083 
L 634.963561 322.924863 
L 635.800875 320.756642 
L 636.638189 330.331906 
L 637.475503 342.515747 
L 638.312817 341.82783 
L 639.150131 346.269197 
L 639.987445 348.033706 
L 640.824759 346.235218 
L 641.662073 348.491626 
L 642.499387 333.638403 
L 643.336701 332.913974 
L 644.174015 329.012008 
L 645.011329 333.742373 
L 645.848643 328.710689 
L 646.685957 327.207365 
L 648.360585 341.581513 
L 649.197899 347.074965 
L 650.872527 329.970337 
L 651.709841 331.64535 
L 652.547155 335.062987 
L 653.384469 320.258104 
L 654.221783 327.327924 
L 655.059097 315.374014 
L 655.896411 313.147325 
L 656.733725 318.412585 
L 657.571039 325.323731 
L 658.408353 328.865048 
L 659.245667 315.508915 
L 660.082981 312.724645 
L 660.920295 326.687815 
L 661.757609 332.140458 
L 662.594923 331.539456 
L 663.432237 328.764389 
L 664.269551 342.798648 
L 665.106865 338.941479 
L 665.944179 337.340257 
L 666.781493 332.550886 
L 667.618807 322.296049 
L 668.456121 318.235398 
L 669.293435 325.603825 
L 670.130749 321.649462 
L 670.968063 316.771683 
L 671.805377 323.961225 
L 672.642691 329.025813 
L 673.480005 334.848295 
L 674.317319 337.541097 
L 675.154633 336.36069 
L 675.991947 327.361282 
L 676.829261 322.14022 
L 677.666575 332.569185 
L 678.503889 336.552542 
L 680.178517 332.475004 
L 681.015831 340.083293 
L 681.853145 332.218516 
L 682.690459 320.354735 
L 683.527773 316.513462 
L 684.365087 325.260757 
L 685.202401 329.243517 
L 686.039715 304.35986 
L 686.877029 304.233241 
L 687.714343 309.913866 
L 688.551657 306.255075 
L 689.388971 325.991712 
L 690.226285 332.758802 
L 691.063599 328.157984 
L 691.900913 317.757453 
L 692.738227 298.450308 
L 693.575541 299.122125 
L 694.412855 301.315647 
L 695.250169 308.99927 
L 696.087483 313.731271 
L 697.762111 307.559255 
L 698.599425 311.182299 
L 699.436739 312.76031 
L 700.274053 312.790991 
L 701.111367 314.382232 
L 701.948681 310.317745 
L 702.785995 299.408313 
L 703.623309 278.156376 
L 704.460623 301.654508 
L 705.297937 317.397294 
L 706.135251 276.408827 
L 706.972565 283.941138 
L 707.809879 302.183105 
L 708.647193 302.936351 
L 709.484507 297.618156 
L 710.321821 274.824446 
L 711.159135 280.846549 
L 711.996449 265.983639 
L 712.833763 280.75734 
L 713.671077 290.141827 
L 715.345705 293.30012 
L 716.183019 308.14913 
L 717.020333 270.427361 
L 717.857647 267.945366 
L 718.694961 280.547918 
L 719.532275 257.730281 
L 720.369589 280.854879 
L 721.206903 256.813892 
L 722.044217 267.900702 
L 722.881531 295.607043 
L 723.718845 272.293688 
L 724.556159 285.183468 
L 725.393473 239.943646 
L 726.230787 276.572712 
L 727.068101 256.071367 
L 727.905415 273.099593 
L 728.742729 266.425776 
L 729.580043 232.355591 
L 730.417357 274.443873 
L 731.254671 245.668517 
L 732.091984 279.565555 
L 732.929298 267.966581 
L 733.766612 278.892782 
L 734.603926 280.010656 
L 735.44124 277.378068 
L 736.278554 286.550588 
L 737.115868 315.358166 
L 737.953182 323.127017 
L 738.790496 319.023053 
L 739.62781 316.246121 
L 740.465124 300.09158 
L 741.302438 288.263644 
L 742.139752 293.133547 
L 742.977066 293.19921 
L 743.81438 293.479256 
L 744.651694 306.815775 
L 745.489008 297.554225 
L 746.326322 307.913976 
L 747.163636 261.643804 
L 747.163636 261.643804 
" style="fill:none;stroke:#ff0000;stroke-dasharray:5.55,2.4;stroke-dashoffset:0;stroke-width:1.5;"/>
   </g>
   <g id="patch_3">
    <path d="M 108 460.8 
L 108 69.12 
" style="fill:none;stroke:#000000;stroke-linecap:square;stroke-linejoin:miter;stroke-width:0.8;"/>
   </g>
   <g id="patch_4">
    <path d="M 777.6 460.8 
L 777.6 69.12 
" style="fill:none;stroke:#000000;stroke-linecap:square;stroke-linejoin:miter;stroke-width:0.8;"/>
   </g>
   <g id="patch_5">
    <path d="M 108 460.8 
L 777.6 460.8 
" style="fill:none;stroke:#000000;stroke-linecap:square;stroke-linejoin:miter;stroke-width:0.8;"/>
   </g>
   <g id="patch_6">
    <path d="M 108 69.12 
L 777.6 69.12 
" style="fill:none;stroke:#000000;stroke-linecap:square;stroke-linejoin:miter;stroke-width:0.8;"/>
   </g>
   <g id="text_19">
    <!-- Macau residential 2020-2021 | Forecast vs Monitored | LSTM -->
    <g transform="translate(216.121875 63.12)scale(0.15 -0.15)">
     <defs>
      <path d="M 9.8125 72.90625 
L 24.515625 72.90625 
L 43.109375 23.296875 
L 61.8125 72.90625 
L 76.515625 72.90625 
L 76.515625 0 
L 66.890625 0 
L 66.890625 64.015625 
L 48.09375 14.015625 
L 38.1875 14.015625 
L 19.390625 64.015625 
L 19.390625 0 
L 9.8125 0 
z
" id="DejaVuSans-77"/>
      <path d="M 48.78125 52.59375 
L 48.78125 44.1875 
Q 44.96875 46.296875 41.140625 47.34375 
Q 37.3125 48.390625 33.40625 48.390625 
Q 24.65625 48.390625 19.8125 42.84375 
Q 14.984375 37.3125 14.984375 27.296875 
Q 14.984375 17.28125 19.8125 11.734375 
Q 24.65625 6.203125 33.40625 6.203125 
Q 37.3125 6.203125 41.140625 7.25 
Q 44.96875 8.296875 48.78125 10.40625 
L 48.78125 2.09375 
Q 45.015625 0.34375 40.984375 -0.53125 
Q 36.96875 -1.421875 32.421875 -1.421875 
Q 20.0625 -1.421875 12.78125 6.34375 
Q 5.515625 14.109375 5.515625 27.296875 
Q 5.515625 40.671875 12.859375 48.328125 
Q 20.21875 56 33.015625 56 
Q 37.15625 56 41.109375 55.140625 
Q 45.0625 54.296875 48.78125 52.59375 
z
" id="DejaVuSans-99"/>
      <path d="M 8.5 21.578125 
L 8.5 54.6875 
L 17.484375 54.6875 
L 17.484375 21.921875 
Q 17.484375 14.15625 20.5 10.265625 
Q 23.53125 6.390625 29.59375 6.390625 
Q 36.859375 6.390625 41.078125 11.03125 
Q 45.3125 15.671875 45.3125 23.6875 
L 45.3125 54.6875 
L 54.296875 54.6875 
L 54.296875 0 
L 45.3125 0 
L 45.3125 8.40625 
Q 42.046875 3.421875 37.71875 1 
Q 33.40625 -1.421875 27.6875 -1.421875 
Q 18.265625 -1.421875 13.375 4.4375 
Q 8.5 10.296875 8.5 21.578125 
z
M 31.109375 56 
z
" id="DejaVuSans-117"/>
      <path id="DejaVuSans-32"/>
      <path d="M 41.109375 46.296875 
Q 39.59375 47.171875 37.8125 47.578125 
Q 36.03125 48 33.890625 48 
Q 26.265625 48 22.1875 43.046875 
Q 18.109375 38.09375 18.109375 28.8125 
L 18.109375 0 
L 9.078125 0 
L 9.078125 54.6875 
L 18.109375 54.6875 
L 18.109375 46.1875 
Q 20.953125 51.171875 25.484375 53.578125 
Q 30.03125 56 36.53125 56 
Q 37.453125 56 38.578125 55.875 
Q 39.703125 55.765625 41.0625 55.515625 
z
" id="DejaVuSans-114"/>
      <path d="M 44.28125 53.078125 
L 44.28125 44.578125 
Q 40.484375 46.53125 36.375 47.5 
Q 32.28125 48.484375 27.875 48.484375 
Q 21.1875 48.484375 17.84375 46.4375 
Q 14.5 44.390625 14.5 40.28125 
Q 14.5 37.15625 16.890625 35.375 
Q 19.28125 33.59375 26.515625 31.984375 
L 29.59375 31.296875 
Q 39.15625 29.25 43.1875 25.515625 
Q 47.21875 21.78125 47.21875 15.09375 
Q 47.21875 7.46875 41.1875 3.015625 
Q 35.15625 -1.421875 24.609375 -1.421875 
Q 20.21875 -1.421875 15.453125 -0.5625 
Q 10.6875 0.296875 5.421875 2 
L 5.421875 11.28125 
Q 10.40625 8.6875 15.234375 7.390625 
Q 20.0625 6.109375 24.8125 6.109375 
Q 31.15625 6.109375 34.5625 8.28125 
Q 37.984375 10.453125 37.984375 14.40625 
Q 37.984375 18.0625 35.515625 20.015625 
Q 33.0625 21.96875 24.703125 23.78125 
L 21.578125 24.515625 
Q 13.234375 26.265625 9.515625 29.90625 
Q 5.8125 33.546875 5.8125 39.890625 
Q 5.8125 47.609375 11.28125 51.796875 
Q 16.75 56 26.8125 56 
Q 31.78125 56 36.171875 55.265625 
Q 40.578125 54.546875 44.28125 53.078125 
z
" id="DejaVuSans-115"/>
      <path d="M 9.421875 54.6875 
L 18.40625 54.6875 
L 18.40625 0 
L 9.421875 0 
z
M 9.421875 75.984375 
L 18.40625 75.984375 
L 18.40625 64.59375 
L 9.421875 64.59375 
z
" id="DejaVuSans-105"/>
      <path d="M 45.40625 46.390625 
L 45.40625 75.984375 
L 54.390625 75.984375 
L 54.390625 0 
L 45.40625 0 
L 45.40625 8.203125 
Q 42.578125 3.328125 38.25 0.953125 
Q 33.9375 -1.421875 27.875 -1.421875 
Q 17.96875 -1.421875 11.734375 6.484375 
Q 5.515625 14.40625 5.515625 27.296875 
Q 5.515625 40.1875 11.734375 48.09375 
Q 17.96875 56 27.875 56 
Q 33.9375 56 38.25 53.625 
Q 42.578125 51.265625 45.40625 46.390625 
z
M 14.796875 27.296875 
Q 14.796875 17.390625 18.875 11.75 
Q 22.953125 6.109375 30.078125 6.109375 
Q 37.203125 6.109375 41.296875 11.75 
Q 45.40625 17.390625 45.40625 27.296875 
Q 45.40625 37.203125 41.296875 42.84375 
Q 37.203125 48.484375 30.078125 48.484375 
Q 22.953125 48.484375 18.875 42.84375 
Q 14.796875 37.203125 14.796875 27.296875 
z
" id="DejaVuSans-100"/>
      <path d="M 54.890625 33.015625 
L 54.890625 0 
L 45.90625 0 
L 45.90625 32.71875 
Q 45.90625 40.484375 42.875 44.328125 
Q 39.84375 48.1875 33.796875 48.1875 
Q 26.515625 48.1875 22.3125 43.546875 
Q 18.109375 38.921875 18.109375 30.90625 
L 18.109375 0 
L 9.078125 0 
L 9.078125 54.6875 
L 18.109375 54.6875 
L 18.109375 46.1875 
Q 21.34375 51.125 25.703125 53.5625 
Q 30.078125 56 35.796875 56 
Q 45.21875 56 50.046875 50.171875 
Q 54.890625 44.34375 54.890625 33.015625 
z
" id="DejaVuSans-110"/>
      <path d="M 9.421875 75.984375 
L 18.40625 75.984375 
L 18.40625 0 
L 9.421875 0 
z
" id="DejaVuSans-108"/>
      <path d="M 21 76.421875 
L 21 -23.578125 
L 12.703125 -23.578125 
L 12.703125 76.421875 
z
" id="DejaVuSans-124"/>
      <path d="M 9.8125 72.90625 
L 51.703125 72.90625 
L 51.703125 64.59375 
L 19.671875 64.59375 
L 19.671875 43.109375 
L 48.578125 43.109375 
L 48.578125 34.8125 
L 19.671875 34.8125 
L 19.671875 0 
L 9.8125 0 
z
" id="DejaVuSans-70"/>
      <path d="M 30.609375 48.390625 
Q 23.390625 48.390625 19.1875 42.75 
Q 14.984375 37.109375 14.984375 27.296875 
Q 14.984375 17.484375 19.15625 11.84375 
Q 23.34375 6.203125 30.609375 6.203125 
Q 37.796875 6.203125 41.984375 11.859375 
Q 46.1875 17.53125 46.1875 27.296875 
Q 46.1875 37.015625 41.984375 42.703125 
Q 37.796875 48.390625 30.609375 48.390625 
z
M 30.609375 56 
Q 42.328125 56 49.015625 48.375 
Q 55.71875 40.765625 55.71875 27.296875 
Q 55.71875 13.875 49.015625 6.21875 
Q 42.328125 -1.421875 30.609375 -1.421875 
Q 18.84375 -1.421875 12.171875 6.21875 
Q 5.515625 13.875 5.515625 27.296875 
Q 5.515625 40.765625 12.171875 48.375 
Q 18.84375 56 30.609375 56 
z
" id="DejaVuSans-111"/>
      <path d="M 2.984375 54.6875 
L 12.5 54.6875 
L 29.59375 8.796875 
L 46.6875 54.6875 
L 56.203125 54.6875 
L 35.6875 0 
L 23.484375 0 
z
" id="DejaVuSans-118"/>
      <path d="M 9.8125 72.90625 
L 19.671875 72.90625 
L 19.671875 8.296875 
L 55.171875 8.296875 
L 55.171875 0 
L 9.8125 0 
z
" id="DejaVuSans-76"/>
      <path d="M 53.515625 70.515625 
L 53.515625 60.890625 
Q 47.90625 63.578125 42.921875 64.890625 
Q 37.9375 66.21875 33.296875 66.21875 
Q 25.25 66.21875 20.875 63.09375 
Q 16.5 59.96875 16.5 54.203125 
Q 16.5 49.359375 19.40625 46.890625 
Q 22.3125 44.4375 30.421875 42.921875 
L 36.375 41.703125 
Q 47.40625 39.59375 52.65625 34.296875 
Q 57.90625 29 57.90625 20.125 
Q 57.90625 9.515625 50.796875 4.046875 
Q 43.703125 -1.421875 29.984375 -1.421875 
Q 24.8125 -1.421875 18.96875 -0.25 
Q 13.140625 0.921875 6.890625 3.21875 
L 6.890625 13.375 
Q 12.890625 10.015625 18.65625 8.296875 
Q 24.421875 6.59375 29.984375 6.59375 
Q 38.421875 6.59375 43.015625 9.90625 
Q 47.609375 13.234375 47.609375 19.390625 
Q 47.609375 24.75 44.3125 27.78125 
Q 41.015625 30.8125 33.5 32.328125 
L 27.484375 33.5 
Q 16.453125 35.6875 11.515625 40.375 
Q 6.59375 45.0625 6.59375 53.421875 
Q 6.59375 63.09375 13.40625 68.65625 
Q 20.21875 74.21875 32.171875 74.21875 
Q 37.3125 74.21875 42.625 73.28125 
Q 47.953125 72.359375 53.515625 70.515625 
z
" id="DejaVuSans-83"/>
      <path d="M -0.296875 72.90625 
L 61.375 72.90625 
L 61.375 64.59375 
L 35.5 64.59375 
L 35.5 0 
L 25.59375 0 
L 25.59375 64.59375 
L -0.296875 64.59375 
z
" id="DejaVuSans-84"/>
     </defs>
     <use xlink:href="#DejaVuSans-77"/>
     <use x="86.279297" xlink:href="#DejaVuSans-97"/>
     <use x="147.558594" xlink:href="#DejaVuSans-99"/>
     <use x="202.539062" xlink:href="#DejaVuSans-97"/>
     <use x="263.818359" xlink:href="#DejaVuSans-117"/>
     <use x="327.197266" xlink:href="#DejaVuSans-32"/>
     <use x="358.984375" xlink:href="#DejaVuSans-114"/>
     <use x="397.847656" xlink:href="#DejaVuSans-101"/>
     <use x="459.371094" xlink:href="#DejaVuSans-115"/>
     <use x="511.470703" xlink:href="#DejaVuSans-105"/>
     <use x="539.253906" xlink:href="#DejaVuSans-100"/>
     <use x="602.730469" xlink:href="#DejaVuSans-101"/>
     <use x="664.253906" xlink:href="#DejaVuSans-110"/>
     <use x="727.632812" xlink:href="#DejaVuSans-116"/>
     <use x="766.841797" xlink:href="#DejaVuSans-105"/>
     <use x="794.625" xlink:href="#DejaVuSans-97"/>
     <use x="855.904297" xlink:href="#DejaVuSans-108"/>
     <use x="883.6875" xlink:href="#DejaVuSans-32"/>
     <use x="915.474609" xlink:href="#DejaVuSans-50"/>
     <use x="979.097656" xlink:href="#DejaVuSans-48"/>
     <use x="1042.720703" xlink:href="#DejaVuSans-50"/>
     <use x="1106.34375" xlink:href="#DejaVuSans-48"/>
     <use x="1169.966797" xlink:href="#DejaVuSans-45"/>
     <use x="1206.050781" xlink:href="#DejaVuSans-50"/>
     <use x="1269.673828" xlink:href="#DejaVuSans-48"/>
     <use x="1333.296875" xlink:href="#DejaVuSans-50"/>
     <use x="1396.919922" xlink:href="#DejaVuSans-49"/>
     <use x="1460.542969" xlink:href="#DejaVuSans-32"/>
     <use x="1492.330078" xlink:href="#DejaVuSans-124"/>
     <use x="1526.021484" xlink:href="#DejaVuSans-32"/>
     <use x="1557.808594" xlink:href="#DejaVuSans-70"/>
     <use x="1611.703125" xlink:href="#DejaVuSans-111"/>
     <use x="1672.884766" xlink:href="#DejaVuSans-114"/>
     <use x="1711.748047" xlink:href="#DejaVuSans-101"/>
     <use x="1773.271484" xlink:href="#DejaVuSans-99"/>
     <use x="1828.251953" xlink:href="#DejaVuSans-97"/>
     <use x="1889.53125" xlink:href="#DejaVuSans-115"/>
     <use x="1941.630859" xlink:href="#DejaVuSans-116"/>
     <use x="1980.839844" xlink:href="#DejaVuSans-32"/>
     <use x="2012.626953" xlink:href="#DejaVuSans-118"/>
     <use x="2071.806641" xlink:href="#DejaVuSans-115"/>
     <use x="2123.90625" xlink:href="#DejaVuSans-32"/>
     <use x="2155.693359" xlink:href="#DejaVuSans-77"/>
     <use x="2241.972656" xlink:href="#DejaVuSans-111"/>
     <use x="2303.154297" xlink:href="#DejaVuSans-110"/>
     <use x="2366.533203" xlink:href="#DejaVuSans-105"/>
     <use x="2394.316406" xlink:href="#DejaVuSans-116"/>
     <use x="2433.525391" xlink:href="#DejaVuSans-111"/>
     <use x="2494.707031" xlink:href="#DejaVuSans-114"/>
     <use x="2533.570312" xlink:href="#DejaVuSans-101"/>
     <use x="2595.09375" xlink:href="#DejaVuSans-100"/>
     <use x="2658.570312" xlink:href="#DejaVuSans-32"/>
     <use x="2690.357422" xlink:href="#DejaVuSans-124"/>
     <use x="2724.048828" xlink:href="#DejaVuSans-32"/>
     <use x="2755.835938" xlink:href="#DejaVuSans-76"/>
     <use x="2811.548828" xlink:href="#DejaVuSans-83"/>
     <use x="2875.025391" xlink:href="#DejaVuSans-84"/>
     <use x="2936.109375" xlink:href="#DejaVuSans-77"/>
    </g>
   </g>
   <g id="legend_1">
    <g id="patch_7">
     <path d="M 605.76375 114.615 
L 769.2 114.615 
Q 771.6 114.615 771.6 112.215 
L 771.6 77.52 
Q 771.6 75.12 769.2 75.12 
L 605.76375 75.12 
Q 603.36375 75.12 603.36375 77.52 
L 603.36375 112.215 
Q 603.36375 114.615 605.76375 114.615 
z
" style="fill:#ffffff;opacity:0.8;stroke:#cccccc;stroke-linejoin:miter;"/>
    </g>
    <g id="line2d_19">
     <path d="M 608.16375 84.838125 
L 632.16375 84.838125 
" style="fill:none;stroke:#1f77b4;stroke-linecap:square;stroke-width:1.5;"/>
    </g>
    <g id="line2d_20"/>
    <g id="text_20">
     <!-- measured_data_NO2 -->
     <g transform="translate(641.76375 89.038125)scale(0.12 -0.12)">
      <defs>
       <path d="M 50.984375 -16.609375 
L 50.984375 -23.578125 
L -0.984375 -23.578125 
L -0.984375 -16.609375 
z
" id="DejaVuSans-95"/>
      </defs>
      <use xlink:href="#DejaVuSans-109"/>
      <use x="97.412109" xlink:href="#DejaVuSans-101"/>
      <use x="158.935547" xlink:href="#DejaVuSans-97"/>
      <use x="220.214844" xlink:href="#DejaVuSans-115"/>
      <use x="272.314453" xlink:href="#DejaVuSans-117"/>
      <use x="335.693359" xlink:href="#DejaVuSans-114"/>
      <use x="374.556641" xlink:href="#DejaVuSans-101"/>
      <use x="436.080078" xlink:href="#DejaVuSans-100"/>
      <use x="499.556641" xlink:href="#DejaVuSans-95"/>
      <use x="549.556641" xlink:href="#DejaVuSans-100"/>
      <use x="613.033203" xlink:href="#DejaVuSans-97"/>
      <use x="674.3125" xlink:href="#DejaVuSans-116"/>
      <use x="713.521484" xlink:href="#DejaVuSans-97"/>
      <use x="774.800781" xlink:href="#DejaVuSans-95"/>
      <use x="824.800781" xlink:href="#DejaVuSans-78"/>
      <use x="899.605469" xlink:href="#DejaVuSans-79"/>
      <use x="978.316406" xlink:href="#DejaVuSans-50"/>
     </g>
    </g>
    <g id="line2d_21">
     <path d="M 608.16375 102.785625 
L 632.16375 102.785625 
" style="fill:none;stroke:#ff0000;stroke-dasharray:5.55,2.4;stroke-dashoffset:0;stroke-width:1.5;"/>
    </g>
    <g id="line2d_22"/>
    <g id="text_21">
     <!-- predicted_data_NO2 -->
     <g transform="translate(641.76375 106.985625)scale(0.12 -0.12)">
      <use xlink:href="#DejaVuSans-112"/>
      <use x="63.476562" xlink:href="#DejaVuSans-114"/>
      <use x="102.339844" xlink:href="#DejaVuSans-101"/>
      <use x="163.863281" xlink:href="#DejaVuSans-100"/>
      <use x="227.339844" xlink:href="#DejaVuSans-105"/>
      <use x="255.123047" xlink:href="#DejaVuSans-99"/>
      <use x="310.103516" xlink:href="#DejaVuSans-116"/>
      <use x="349.3125" xlink:href="#DejaVuSans-101"/>
      <use x="410.835938" xlink:href="#DejaVuSans-100"/>
      <use x="474.3125" xlink:href="#DejaVuSans-95"/>
      <use x="524.3125" xlink:href="#DejaVuSans-100"/>
      <use x="587.789062" xlink:href="#DejaVuSans-97"/>
      <use x="649.068359" xlink:href="#DejaVuSans-116"/>
      <use x="688.277344" xlink:href="#DejaVuSans-97"/>
      <use x="749.556641" xlink:href="#DejaVuSans-95"/>
      <use x="799.556641" xlink:href="#DejaVuSans-78"/>
      <use x="874.361328" xlink:href="#DejaVuSans-79"/>
      <use x="953.072266" xlink:href="#DejaVuSans-50"/>
     </g>
    </g>
   </g>
  </g>
 </g>
 <defs>
  <clipPath id="p7bbfee17e1">
   <rect height="391.68" width="669.6" x="108" y="69.12"/>
  </clipPath>
 </defs>
</svg>
