<?xml version="1.0" encoding="utf-8" standalone="no"?>
<!DOCTYPE svg PUBLIC "-//W3C//DTD SVG 1.1//EN"
  "http://www.w3.org/Graphics/SVG/1.1/DTD/svg11.dtd">
<!-- Created with matplotlib (https://matplotlib.org/) -->
<svg height="576pt" version="1.1" viewBox="0 0 864 576" width="864pt" xmlns="http://www.w3.org/2000/svg" xmlns:xlink="http://www.w3.org/1999/xlink">
 <metadata>
  <rdf:RDF xmlns:cc="http://creativecommons.org/ns#" xmlns:dc="http://purl.org/dc/elements/1.1/" xmlns:rdf="http://www.w3.org/1999/02/22-rdf-syntax-ns#">
   <cc:Work>
    <dc:type rdf:resource="http://purl.org/dc/dcmitype/StillImage"/>
    <dc:date>2024-03-08T19:50:00.145967</dc:date>
    <dc:format>image/svg+xml</dc:format>
    <dc:creator>
     <cc:Agent>
      <dc:title>Matplotlib v3.3.4, https://matplotlib.org/</dc:title>
     </cc:Agent>
    </dc:creator>
   </cc:Work>
  </rdf:RDF>
 </metadata>
 <defs>
  <style type="text/css">*{stroke-linecap:butt;stroke-linejoin:round;}</style>
 </defs>
 <g id="figure_1">
  <g id="patch_1">
   <path d="M 0 576 
L 864 576 
L 864 0 
L 0 0 
z
" style="fill:#ffffff;"/>
  </g>
  <g id="axes_1">
   <g id="patch_2">
    <path d="M 108 460.8 
L 777.6 460.8 
L 777.6 69.12 
L 108 69.12 
z
" style="fill:#ffffff;"/>
   </g>
   <g id="matplotlib.axis_1">
    <g id="xtick_1">
     <g id="line2d_1">
      <defs>
       <path d="M 0 0 
L 0 3.5 
" id="m498e9cea5d" style="stroke:#000000;stroke-width:0.8;"/>
      </defs>
      <g>
       <use style="stroke:#000000;stroke-width:0.8;" x="136.761736" xlink:href="#m498e9cea5d" y="460.8"/>
      </g>
     </g>
     <g id="text_1">
      <!-- 2020-01 -->
      <g transform="translate(92.091951 500.766215)rotate(-30)scale(0.12 -0.12)">
       <defs>
        <path d="M 19.1875 8.296875 
L 53.609375 8.296875 
L 53.609375 0 
L 7.328125 0 
L 7.328125 8.296875 
Q 12.9375 14.109375 22.625 23.890625 
Q 32.328125 33.6875 34.8125 36.53125 
Q 39.546875 41.84375 41.421875 45.53125 
Q 43.3125 49.21875 43.3125 52.78125 
Q 43.3125 58.59375 39.234375 62.25 
Q 35.15625 65.921875 28.609375 65.921875 
Q 23.96875 65.921875 18.8125 64.3125 
Q 13.671875 62.703125 7.8125 59.421875 
L 7.8125 69.390625 
Q 13.765625 71.78125 18.9375 73 
Q 24.125 74.21875 28.421875 74.21875 
Q 39.75 74.21875 46.484375 68.546875 
Q 53.21875 62.890625 53.21875 53.421875 
Q 53.21875 48.921875 51.53125 44.890625 
Q 49.859375 40.875 45.40625 35.40625 
Q 44.1875 33.984375 37.640625 27.21875 
Q 31.109375 20.453125 19.1875 8.296875 
z
" id="DejaVuSans-50"/>
        <path d="M 31.78125 66.40625 
Q 24.171875 66.40625 20.328125 58.90625 
Q 16.5 51.421875 16.5 36.375 
Q 16.5 21.390625 20.328125 13.890625 
Q 24.171875 6.390625 31.78125 6.390625 
Q 39.453125 6.390625 43.28125 13.890625 
Q 47.125 21.390625 47.125 36.375 
Q 47.125 51.421875 43.28125 58.90625 
Q 39.453125 66.40625 31.78125 66.40625 
z
M 31.78125 74.21875 
Q 44.046875 74.21875 50.515625 64.515625 
Q 56.984375 54.828125 56.984375 36.375 
Q 56.984375 17.96875 50.515625 8.265625 
Q 44.046875 -1.421875 31.78125 -1.421875 
Q 19.53125 -1.421875 13.0625 8.265625 
Q 6.59375 17.96875 6.59375 36.375 
Q 6.59375 54.828125 13.0625 64.515625 
Q 19.53125 74.21875 31.78125 74.21875 
z
" id="DejaVuSans-48"/>
        <path d="M 4.890625 31.390625 
L 31.203125 31.390625 
L 31.203125 23.390625 
L 4.890625 23.390625 
z
" id="DejaVuSans-45"/>
        <path d="M 12.40625 8.296875 
L 28.515625 8.296875 
L 28.515625 63.921875 
L 10.984375 60.40625 
L 10.984375 69.390625 
L 28.421875 72.90625 
L 38.28125 72.90625 
L 38.28125 8.296875 
L 54.390625 8.296875 
L 54.390625 0 
L 12.40625 0 
z
" id="DejaVuSans-49"/>
       </defs>
       <use xlink:href="#DejaVuSans-50"/>
       <use x="63.623047" xlink:href="#DejaVuSans-48"/>
       <use x="127.246094" xlink:href="#DejaVuSans-50"/>
       <use x="190.869141" xlink:href="#DejaVuSans-48"/>
       <use x="254.492188" xlink:href="#DejaVuSans-45"/>
       <use x="290.576172" xlink:href="#DejaVuSans-48"/>
       <use x="354.199219" xlink:href="#DejaVuSans-49"/>
      </g>
     </g>
    </g>
    <g id="xtick_2">
     <g id="line2d_2">
      <g>
       <use style="stroke:#000000;stroke-width:0.8;" x="212.957309" xlink:href="#m498e9cea5d" y="460.8"/>
      </g>
     </g>
     <g id="text_2">
      <!-- 2020-04 -->
      <g transform="translate(168.287524 500.766215)rotate(-30)scale(0.12 -0.12)">
       <defs>
        <path d="M 37.796875 64.3125 
L 12.890625 25.390625 
L 37.796875 25.390625 
z
M 35.203125 72.90625 
L 47.609375 72.90625 
L 47.609375 25.390625 
L 58.015625 25.390625 
L 58.015625 17.1875 
L 47.609375 17.1875 
L 47.609375 0 
L 37.796875 0 
L 37.796875 17.1875 
L 4.890625 17.1875 
L 4.890625 26.703125 
z
" id="DejaVuSans-52"/>
       </defs>
       <use xlink:href="#DejaVuSans-50"/>
       <use x="63.623047" xlink:href="#DejaVuSans-48"/>
       <use x="127.246094" xlink:href="#DejaVuSans-50"/>
       <use x="190.869141" xlink:href="#DejaVuSans-48"/>
       <use x="254.492188" xlink:href="#DejaVuSans-45"/>
       <use x="290.576172" xlink:href="#DejaVuSans-48"/>
       <use x="354.199219" xlink:href="#DejaVuSans-52"/>
      </g>
     </g>
    </g>
    <g id="xtick_3">
     <g id="line2d_3">
      <g>
       <use style="stroke:#000000;stroke-width:0.8;" x="289.152882" xlink:href="#m498e9cea5d" y="460.8"/>
      </g>
     </g>
     <g id="text_3">
      <!-- 2020-07 -->
      <g transform="translate(244.483097 500.766215)rotate(-30)scale(0.12 -0.12)">
       <defs>
        <path d="M 8.203125 72.90625 
L 55.078125 72.90625 
L 55.078125 68.703125 
L 28.609375 0 
L 18.3125 0 
L 43.21875 64.59375 
L 8.203125 64.59375 
z
" id="DejaVuSans-55"/>
       </defs>
       <use xlink:href="#DejaVuSans-50"/>
       <use x="63.623047" xlink:href="#DejaVuSans-48"/>
       <use x="127.246094" xlink:href="#DejaVuSans-50"/>
       <use x="190.869141" xlink:href="#DejaVuSans-48"/>
       <use x="254.492188" xlink:href="#DejaVuSans-45"/>
       <use x="290.576172" xlink:href="#DejaVuSans-48"/>
       <use x="354.199219" xlink:href="#DejaVuSans-55"/>
      </g>
     </g>
    </g>
    <g id="xtick_4">
     <g id="line2d_4">
      <g>
       <use style="stroke:#000000;stroke-width:0.8;" x="366.18577" xlink:href="#m498e9cea5d" y="460.8"/>
      </g>
     </g>
     <g id="text_4">
      <!-- 2020-10 -->
      <g transform="translate(321.515985 500.766215)rotate(-30)scale(0.12 -0.12)">
       <use xlink:href="#DejaVuSans-50"/>
       <use x="63.623047" xlink:href="#DejaVuSans-48"/>
       <use x="127.246094" xlink:href="#DejaVuSans-50"/>
       <use x="190.869141" xlink:href="#DejaVuSans-48"/>
       <use x="254.492188" xlink:href="#DejaVuSans-45"/>
       <use x="290.576172" xlink:href="#DejaVuSans-49"/>
       <use x="354.199219" xlink:href="#DejaVuSans-48"/>
      </g>
     </g>
    </g>
    <g id="xtick_5">
     <g id="line2d_5">
      <g>
       <use style="stroke:#000000;stroke-width:0.8;" x="443.218657" xlink:href="#m498e9cea5d" y="460.8"/>
      </g>
     </g>
     <g id="text_5">
      <!-- 2021-01 -->
      <g transform="translate(398.548872 500.766215)rotate(-30)scale(0.12 -0.12)">
       <use xlink:href="#DejaVuSans-50"/>
       <use x="63.623047" xlink:href="#DejaVuSans-48"/>
       <use x="127.246094" xlink:href="#DejaVuSans-50"/>
       <use x="190.869141" xlink:href="#DejaVuSans-49"/>
       <use x="254.492188" xlink:href="#DejaVuSans-45"/>
       <use x="290.576172" xlink:href="#DejaVuSans-48"/>
       <use x="354.199219" xlink:href="#DejaVuSans-49"/>
      </g>
     </g>
    </g>
    <g id="xtick_6">
     <g id="line2d_6">
      <g>
       <use style="stroke:#000000;stroke-width:0.8;" x="518.576916" xlink:href="#m498e9cea5d" y="460.8"/>
      </g>
     </g>
     <g id="text_6">
      <!-- 2021-04 -->
      <g transform="translate(473.907131 500.766215)rotate(-30)scale(0.12 -0.12)">
       <use xlink:href="#DejaVuSans-50"/>
       <use x="63.623047" xlink:href="#DejaVuSans-48"/>
       <use x="127.246094" xlink:href="#DejaVuSans-50"/>
       <use x="190.869141" xlink:href="#DejaVuSans-49"/>
       <use x="254.492188" xlink:href="#DejaVuSans-45"/>
       <use x="290.576172" xlink:href="#DejaVuSans-48"/>
       <use x="354.199219" xlink:href="#DejaVuSans-52"/>
      </g>
     </g>
    </g>
    <g id="xtick_7">
     <g id="line2d_7">
      <g>
       <use style="stroke:#000000;stroke-width:0.8;" x="594.77249" xlink:href="#m498e9cea5d" y="460.8"/>
      </g>
     </g>
     <g id="text_7">
      <!-- 2021-07 -->
      <g transform="translate(550.102705 500.766215)rotate(-30)scale(0.12 -0.12)">
       <use xlink:href="#DejaVuSans-50"/>
       <use x="63.623047" xlink:href="#DejaVuSans-48"/>
       <use x="127.246094" xlink:href="#DejaVuSans-50"/>
       <use x="190.869141" xlink:href="#DejaVuSans-49"/>
       <use x="254.492188" xlink:href="#DejaVuSans-45"/>
       <use x="290.576172" xlink:href="#DejaVuSans-48"/>
       <use x="354.199219" xlink:href="#DejaVuSans-55"/>
      </g>
     </g>
    </g>
    <g id="xtick_8">
     <g id="line2d_8">
      <g>
       <use style="stroke:#000000;stroke-width:0.8;" x="671.805377" xlink:href="#m498e9cea5d" y="460.8"/>
      </g>
     </g>
     <g id="text_8">
      <!-- 2021-10 -->
      <g transform="translate(627.135592 500.766215)rotate(-30)scale(0.12 -0.12)">
       <use xlink:href="#DejaVuSans-50"/>
       <use x="63.623047" xlink:href="#DejaVuSans-48"/>
       <use x="127.246094" xlink:href="#DejaVuSans-50"/>
       <use x="190.869141" xlink:href="#DejaVuSans-49"/>
       <use x="254.492188" xlink:href="#DejaVuSans-45"/>
       <use x="290.576172" xlink:href="#DejaVuSans-49"/>
       <use x="354.199219" xlink:href="#DejaVuSans-48"/>
      </g>
     </g>
    </g>
    <g id="xtick_9">
     <g id="line2d_9">
      <g>
       <use style="stroke:#000000;stroke-width:0.8;" x="748.838264" xlink:href="#m498e9cea5d" y="460.8"/>
      </g>
     </g>
     <g id="text_9">
      <!-- 2022-01 -->
      <g transform="translate(704.168479 500.766215)rotate(-30)scale(0.12 -0.12)">
       <use xlink:href="#DejaVuSans-50"/>
       <use x="63.623047" xlink:href="#DejaVuSans-48"/>
       <use x="127.246094" xlink:href="#DejaVuSans-50"/>
       <use x="190.869141" xlink:href="#DejaVuSans-50"/>
       <use x="254.492188" xlink:href="#DejaVuSans-45"/>
       <use x="290.576172" xlink:href="#DejaVuSans-48"/>
       <use x="354.199219" xlink:href="#DejaVuSans-49"/>
      </g>
     </g>
    </g>
    <g id="text_10">
     <!-- Date -->
     <g transform="translate(424.873828 518.325146)scale(0.15 -0.15)">
      <defs>
       <path d="M 19.671875 64.796875 
L 19.671875 8.109375 
L 31.59375 8.109375 
Q 46.6875 8.109375 53.6875 14.9375 
Q 60.6875 21.78125 60.6875 36.53125 
Q 60.6875 51.171875 53.6875 57.984375 
Q 46.6875 64.796875 31.59375 64.796875 
z
M 9.8125 72.90625 
L 30.078125 72.90625 
Q 51.265625 72.90625 61.171875 64.09375 
Q 71.09375 55.28125 71.09375 36.53125 
Q 71.09375 17.671875 61.125 8.828125 
Q 51.171875 0 30.078125 0 
L 9.8125 0 
z
" id="DejaVuSans-68"/>
       <path d="M 34.28125 27.484375 
Q 23.390625 27.484375 19.1875 25 
Q 14.984375 22.515625 14.984375 16.5 
Q 14.984375 11.71875 18.140625 8.90625 
Q 21.296875 6.109375 26.703125 6.109375 
Q 34.1875 6.109375 38.703125 11.40625 
Q 43.21875 16.703125 43.21875 25.484375 
L 43.21875 27.484375 
z
M 52.203125 31.203125 
L 52.203125 0 
L 43.21875 0 
L 43.21875 8.296875 
Q 40.140625 3.328125 35.546875 0.953125 
Q 30.953125 -1.421875 24.3125 -1.421875 
Q 15.921875 -1.421875 10.953125 3.296875 
Q 6 8.015625 6 15.921875 
Q 6 25.140625 12.171875 29.828125 
Q 18.359375 34.515625 30.609375 34.515625 
L 43.21875 34.515625 
L 43.21875 35.40625 
Q 43.21875 41.609375 39.140625 45 
Q 35.0625 48.390625 27.6875 48.390625 
Q 23 48.390625 18.546875 47.265625 
Q 14.109375 46.140625 10.015625 43.890625 
L 10.015625 52.203125 
Q 14.9375 54.109375 19.578125 55.046875 
Q 24.21875 56 28.609375 56 
Q 40.484375 56 46.34375 49.84375 
Q 52.203125 43.703125 52.203125 31.203125 
z
" id="DejaVuSans-97"/>
       <path d="M 18.3125 70.21875 
L 18.3125 54.6875 
L 36.8125 54.6875 
L 36.8125 47.703125 
L 18.3125 47.703125 
L 18.3125 18.015625 
Q 18.3125 11.328125 20.140625 9.421875 
Q 21.96875 7.515625 27.59375 7.515625 
L 36.8125 7.515625 
L 36.8125 0 
L 27.59375 0 
Q 17.1875 0 13.234375 3.875 
Q 9.28125 7.765625 9.28125 18.015625 
L 9.28125 47.703125 
L 2.6875 47.703125 
L 2.6875 54.6875 
L 9.28125 54.6875 
L 9.28125 70.21875 
z
" id="DejaVuSans-116"/>
       <path d="M 56.203125 29.59375 
L 56.203125 25.203125 
L 14.890625 25.203125 
Q 15.484375 15.921875 20.484375 11.0625 
Q 25.484375 6.203125 34.421875 6.203125 
Q 39.59375 6.203125 44.453125 7.46875 
Q 49.3125 8.734375 54.109375 11.28125 
L 54.109375 2.78125 
Q 49.265625 0.734375 44.1875 -0.34375 
Q 39.109375 -1.421875 33.890625 -1.421875 
Q 20.796875 -1.421875 13.15625 6.1875 
Q 5.515625 13.8125 5.515625 26.8125 
Q 5.515625 40.234375 12.765625 48.109375 
Q 20.015625 56 32.328125 56 
Q 43.359375 56 49.78125 48.890625 
Q 56.203125 41.796875 56.203125 29.59375 
z
M 47.21875 32.234375 
Q 47.125 39.59375 43.09375 43.984375 
Q 39.0625 48.390625 32.421875 48.390625 
Q 24.90625 48.390625 20.390625 44.140625 
Q 15.875 39.890625 15.1875 32.171875 
z
" id="DejaVuSans-101"/>
      </defs>
      <use xlink:href="#DejaVuSans-68"/>
      <use x="77.001953" xlink:href="#DejaVuSans-97"/>
      <use x="138.28125" xlink:href="#DejaVuSans-116"/>
      <use x="177.490234" xlink:href="#DejaVuSans-101"/>
     </g>
    </g>
   </g>
   <g id="matplotlib.axis_2">
    <g id="ytick_1">
     <g id="line2d_10">
      <defs>
       <path d="M 0 0 
L -3.5 0 
" id="ma42d9a2724" style="stroke:#000000;stroke-width:0.8;"/>
      </defs>
      <g>
       <use style="stroke:#000000;stroke-width:0.8;" x="108" xlink:href="#ma42d9a2724" y="446.50991"/>
      </g>
     </g>
     <g id="text_11">
      <!-- 0 -->
      <g transform="translate(93.365 451.068972)scale(0.12 -0.12)">
       <use xlink:href="#DejaVuSans-48"/>
      </g>
     </g>
    </g>
    <g id="ytick_2">
     <g id="line2d_11">
      <g>
       <use style="stroke:#000000;stroke-width:0.8;" x="108" xlink:href="#ma42d9a2724" y="383.84746"/>
      </g>
     </g>
     <g id="text_12">
      <!-- 20 -->
      <g transform="translate(85.73 388.406523)scale(0.12 -0.12)">
       <use xlink:href="#DejaVuSans-50"/>
       <use x="63.623047" xlink:href="#DejaVuSans-48"/>
      </g>
     </g>
    </g>
    <g id="ytick_3">
     <g id="line2d_12">
      <g>
       <use style="stroke:#000000;stroke-width:0.8;" x="108" xlink:href="#ma42d9a2724" y="321.185011"/>
      </g>
     </g>
     <g id="text_13">
      <!-- 40 -->
      <g transform="translate(85.73 325.744073)scale(0.12 -0.12)">
       <use xlink:href="#DejaVuSans-52"/>
       <use x="63.623047" xlink:href="#DejaVuSans-48"/>
      </g>
     </g>
    </g>
    <g id="ytick_4">
     <g id="line2d_13">
      <g>
       <use style="stroke:#000000;stroke-width:0.8;" x="108" xlink:href="#ma42d9a2724" y="258.522561"/>
      </g>
     </g>
     <g id="text_14">
      <!-- 60 -->
      <g transform="translate(85.73 263.081624)scale(0.12 -0.12)">
       <defs>
        <path d="M 33.015625 40.375 
Q 26.375 40.375 22.484375 35.828125 
Q 18.609375 31.296875 18.609375 23.390625 
Q 18.609375 15.53125 22.484375 10.953125 
Q 26.375 6.390625 33.015625 6.390625 
Q 39.65625 6.390625 43.53125 10.953125 
Q 47.40625 15.53125 47.40625 23.390625 
Q 47.40625 31.296875 43.53125 35.828125 
Q 39.65625 40.375 33.015625 40.375 
z
M 52.59375 71.296875 
L 52.59375 62.3125 
Q 48.875 64.0625 45.09375 64.984375 
Q 41.3125 65.921875 37.59375 65.921875 
Q 27.828125 65.921875 22.671875 59.328125 
Q 17.53125 52.734375 16.796875 39.40625 
Q 19.671875 43.65625 24.015625 45.921875 
Q 28.375 48.1875 33.59375 48.1875 
Q 44.578125 48.1875 50.953125 41.515625 
Q 57.328125 34.859375 57.328125 23.390625 
Q 57.328125 12.15625 50.6875 5.359375 
Q 44.046875 -1.421875 33.015625 -1.421875 
Q 20.359375 -1.421875 13.671875 8.265625 
Q 6.984375 17.96875 6.984375 36.375 
Q 6.984375 53.65625 15.1875 63.9375 
Q 23.390625 74.21875 37.203125 74.21875 
Q 40.921875 74.21875 44.703125 73.484375 
Q 48.484375 72.75 52.59375 71.296875 
z
" id="DejaVuSans-54"/>
       </defs>
       <use xlink:href="#DejaVuSans-54"/>
       <use x="63.623047" xlink:href="#DejaVuSans-48"/>
      </g>
     </g>
    </g>
    <g id="ytick_5">
     <g id="line2d_14">
      <g>
       <use style="stroke:#000000;stroke-width:0.8;" x="108" xlink:href="#ma42d9a2724" y="195.860112"/>
      </g>
     </g>
     <g id="text_15">
      <!-- 80 -->
      <g transform="translate(85.73 200.419174)scale(0.12 -0.12)">
       <defs>
        <path d="M 31.78125 34.625 
Q 24.75 34.625 20.71875 30.859375 
Q 16.703125 27.09375 16.703125 20.515625 
Q 16.703125 13.921875 20.71875 10.15625 
Q 24.75 6.390625 31.78125 6.390625 
Q 38.8125 6.390625 42.859375 10.171875 
Q 46.921875 13.96875 46.921875 20.515625 
Q 46.921875 27.09375 42.890625 30.859375 
Q 38.875 34.625 31.78125 34.625 
z
M 21.921875 38.8125 
Q 15.578125 40.375 12.03125 44.71875 
Q 8.5 49.078125 8.5 55.328125 
Q 8.5 64.0625 14.71875 69.140625 
Q 20.953125 74.21875 31.78125 74.21875 
Q 42.671875 74.21875 48.875 69.140625 
Q 55.078125 64.0625 55.078125 55.328125 
Q 55.078125 49.078125 51.53125 44.71875 
Q 48 40.375 41.703125 38.8125 
Q 48.828125 37.15625 52.796875 32.3125 
Q 56.78125 27.484375 56.78125 20.515625 
Q 56.78125 9.90625 50.3125 4.234375 
Q 43.84375 -1.421875 31.78125 -1.421875 
Q 19.734375 -1.421875 13.25 4.234375 
Q 6.78125 9.90625 6.78125 20.515625 
Q 6.78125 27.484375 10.78125 32.3125 
Q 14.796875 37.15625 21.921875 38.8125 
z
M 18.3125 54.390625 
Q 18.3125 48.734375 21.84375 45.5625 
Q 25.390625 42.390625 31.78125 42.390625 
Q 38.140625 42.390625 41.71875 45.5625 
Q 45.3125 48.734375 45.3125 54.390625 
Q 45.3125 60.0625 41.71875 63.234375 
Q 38.140625 66.40625 31.78125 66.40625 
Q 25.390625 66.40625 21.84375 63.234375 
Q 18.3125 60.0625 18.3125 54.390625 
z
" id="DejaVuSans-56"/>
       </defs>
       <use xlink:href="#DejaVuSans-56"/>
       <use x="63.623047" xlink:href="#DejaVuSans-48"/>
      </g>
     </g>
    </g>
    <g id="ytick_6">
     <g id="line2d_15">
      <g>
       <use style="stroke:#000000;stroke-width:0.8;" x="108" xlink:href="#ma42d9a2724" y="133.197662"/>
      </g>
     </g>
     <g id="text_16">
      <!-- 100 -->
      <g transform="translate(78.095 137.756725)scale(0.12 -0.12)">
       <use xlink:href="#DejaVuSans-49"/>
       <use x="63.623047" xlink:href="#DejaVuSans-48"/>
       <use x="127.246094" xlink:href="#DejaVuSans-48"/>
      </g>
     </g>
    </g>
    <g id="ytick_7">
     <g id="line2d_16">
      <g>
       <use style="stroke:#000000;stroke-width:0.8;" x="108" xlink:href="#ma42d9a2724" y="70.535213"/>
      </g>
     </g>
     <g id="text_17">
      <!-- 120 -->
      <g transform="translate(78.095 75.094275)scale(0.12 -0.12)">
       <use xlink:href="#DejaVuSans-49"/>
       <use x="63.623047" xlink:href="#DejaVuSans-50"/>
       <use x="127.246094" xlink:href="#DejaVuSans-48"/>
      </g>
     </g>
    </g>
    <g id="text_18">
     <!-- NO2(ppm) -->
     <g transform="translate(70.975469 303.927188)rotate(-90)scale(0.15 -0.15)">
      <defs>
       <path d="M 9.8125 72.90625 
L 23.09375 72.90625 
L 55.421875 11.921875 
L 55.421875 72.90625 
L 64.984375 72.90625 
L 64.984375 0 
L 51.703125 0 
L 19.390625 60.984375 
L 19.390625 0 
L 9.8125 0 
z
" id="DejaVuSans-78"/>
       <path d="M 39.40625 66.21875 
Q 28.65625 66.21875 22.328125 58.203125 
Q 16.015625 50.203125 16.015625 36.375 
Q 16.015625 22.609375 22.328125 14.59375 
Q 28.65625 6.59375 39.40625 6.59375 
Q 50.140625 6.59375 56.421875 14.59375 
Q 62.703125 22.609375 62.703125 36.375 
Q 62.703125 50.203125 56.421875 58.203125 
Q 50.140625 66.21875 39.40625 66.21875 
z
M 39.40625 74.21875 
Q 54.734375 74.21875 63.90625 63.9375 
Q 73.09375 53.65625 73.09375 36.375 
Q 73.09375 19.140625 63.90625 8.859375 
Q 54.734375 -1.421875 39.40625 -1.421875 
Q 24.03125 -1.421875 14.8125 8.828125 
Q 5.609375 19.09375 5.609375 36.375 
Q 5.609375 53.65625 14.8125 63.9375 
Q 24.03125 74.21875 39.40625 74.21875 
z
" id="DejaVuSans-79"/>
       <path d="M 31 75.875 
Q 24.46875 64.65625 21.28125 53.65625 
Q 18.109375 42.671875 18.109375 31.390625 
Q 18.109375 20.125 21.3125 9.0625 
Q 24.515625 -2 31 -13.1875 
L 23.1875 -13.1875 
Q 15.875 -1.703125 12.234375 9.375 
Q 8.59375 20.453125 8.59375 31.390625 
Q 8.59375 42.28125 12.203125 53.3125 
Q 15.828125 64.359375 23.1875 75.875 
z
" id="DejaVuSans-40"/>
       <path d="M 18.109375 8.203125 
L 18.109375 -20.796875 
L 9.078125 -20.796875 
L 9.078125 54.6875 
L 18.109375 54.6875 
L 18.109375 46.390625 
Q 20.953125 51.265625 25.265625 53.625 
Q 29.59375 56 35.59375 56 
Q 45.5625 56 51.78125 48.09375 
Q 58.015625 40.1875 58.015625 27.296875 
Q 58.015625 14.40625 51.78125 6.484375 
Q 45.5625 -1.421875 35.59375 -1.421875 
Q 29.59375 -1.421875 25.265625 0.953125 
Q 20.953125 3.328125 18.109375 8.203125 
z
M 48.6875 27.296875 
Q 48.6875 37.203125 44.609375 42.84375 
Q 40.53125 48.484375 33.40625 48.484375 
Q 26.265625 48.484375 22.1875 42.84375 
Q 18.109375 37.203125 18.109375 27.296875 
Q 18.109375 17.390625 22.1875 11.75 
Q 26.265625 6.109375 33.40625 6.109375 
Q 40.53125 6.109375 44.609375 11.75 
Q 48.6875 17.390625 48.6875 27.296875 
z
" id="DejaVuSans-112"/>
       <path d="M 52 44.1875 
Q 55.375 50.25 60.0625 53.125 
Q 64.75 56 71.09375 56 
Q 79.640625 56 84.28125 50.015625 
Q 88.921875 44.046875 88.921875 33.015625 
L 88.921875 0 
L 79.890625 0 
L 79.890625 32.71875 
Q 79.890625 40.578125 77.09375 44.375 
Q 74.3125 48.1875 68.609375 48.1875 
Q 61.625 48.1875 57.5625 43.546875 
Q 53.515625 38.921875 53.515625 30.90625 
L 53.515625 0 
L 44.484375 0 
L 44.484375 32.71875 
Q 44.484375 40.625 41.703125 44.40625 
Q 38.921875 48.1875 33.109375 48.1875 
Q 26.21875 48.1875 22.15625 43.53125 
Q 18.109375 38.875 18.109375 30.90625 
L 18.109375 0 
L 9.078125 0 
L 9.078125 54.6875 
L 18.109375 54.6875 
L 18.109375 46.1875 
Q 21.1875 51.21875 25.484375 53.609375 
Q 29.78125 56 35.6875 56 
Q 41.65625 56 45.828125 52.96875 
Q 50 49.953125 52 44.1875 
z
" id="DejaVuSans-109"/>
       <path d="M 8.015625 75.875 
L 15.828125 75.875 
Q 23.140625 64.359375 26.78125 53.3125 
Q 30.421875 42.28125 30.421875 31.390625 
Q 30.421875 20.453125 26.78125 9.375 
Q 23.140625 -1.703125 15.828125 -13.1875 
L 8.015625 -13.1875 
Q 14.5 -2 17.703125 9.0625 
Q 20.90625 20.125 20.90625 31.390625 
Q 20.90625 42.671875 17.703125 53.65625 
Q 14.5 64.65625 8.015625 75.875 
z
" id="DejaVuSans-41"/>
      </defs>
      <use xlink:href="#DejaVuSans-78"/>
      <use x="74.804688" xlink:href="#DejaVuSans-79"/>
      <use x="153.515625" xlink:href="#DejaVuSans-50"/>
      <use x="217.138672" xlink:href="#DejaVuSans-40"/>
      <use x="256.152344" xlink:href="#DejaVuSans-112"/>
      <use x="319.628906" xlink:href="#DejaVuSans-112"/>
      <use x="383.105469" xlink:href="#DejaVuSans-109"/>
      <use x="480.517578" xlink:href="#DejaVuSans-41"/>
     </g>
    </g>
   </g>
   <g id="line2d_17">
    <path clip-path="url(#p7256589144)" d="M 138.436364 200.841463 
L 139.273678 265.069952 
L 140.110992 256.497474 
L 140.948306 229.257109 
L 142.622934 264.048972 
L 143.460248 225.953649 
L 144.297562 238.202957 
L 145.134876 323.44253 
L 145.97219 233.927602 
L 146.809504 265.425822 
L 147.646818 290.020155 
L 148.484132 260.735695 
L 149.321446 336.808535 
L 150.15876 266.942567 
L 150.996074 321.162505 
L 151.833388 282.632774 
L 152.670702 256.698405 
L 153.508016 220.780028 
L 154.345329 256.708222 
L 155.182643 300.625096 
L 156.019957 352.118329 
L 156.857271 414.87425 
L 157.694585 419.704272 
L 158.531899 417.213178 
L 159.369213 410.960848 
L 160.206527 409.909243 
L 161.043841 318.124107 
L 161.881155 287.450524 
L 162.718469 297.201376 
L 163.555783 278.25434 
L 164.393097 385.40081 
L 165.230411 356.425589 
L 166.067725 344.662229 
L 166.905039 362.12688 
L 167.742353 422.826115 
L 168.579667 423.498587 
L 169.416981 401.478794 
L 170.254295 315.956978 
L 171.091609 325.243971 
L 171.928923 318.781854 
L 173.603551 337.871238 
L 174.440865 428.662391 
L 175.278179 425.65099 
L 176.115493 356.835454 
L 176.952807 278.200346 
L 177.790121 270.123313 
L 178.627435 264.797527 
L 179.464749 271.053485 
L 180.302063 328.39772 
L 181.139377 308.603957 
L 181.976691 285.209767 
L 182.814005 302.364287 
L 183.651319 344.608234 
L 184.488633 286.927763 
L 185.325947 272.766572 
L 186.163261 333.433901 
L 187.000575 303.020472 
L 187.837889 335.839095 
L 188.675203 345.543315 
L 189.512517 347.673629 
L 190.349831 340.300974 
L 191.187145 281.916125 
L 192.024459 287.187917 
L 192.861773 313.14192 
L 193.699087 381.029739 
L 194.536401 325.786367 
L 195.373715 260.431364 
L 196.211029 268.886356 
L 197.048343 353.693976 
L 197.885657 357.736174 
L 199.560285 293.031555 
L 200.397599 262.831649 
L 201.234913 239.015323 
L 202.072227 274.442844 
L 202.909541 267.293529 
L 203.746855 324.878283 
L 204.584169 327.381648 
L 205.421483 339.03702 
L 206.258797 342.367477 
L 207.096111 324.225445 
L 207.933425 323.761586 
L 208.770739 338.109303 
L 209.608053 366.294246 
L 210.445367 355.240172 
L 211.282681 345.78138 
L 212.119995 346.866171 
L 212.957309 314.637003 
L 213.794623 320.647106 
L 214.631937 331.043433 
L 215.469251 352.479108 
L 216.306565 343.555349 
L 217.143879 312.251016 
L 217.981193 243.658303 
L 218.818507 352.989248 
L 229.703589 356.563029 
L 230.540903 339.854295 
L 231.378217 341.243418 
L 233.890159 253.895618 
L 235.564787 338.891867 
L 236.402101 340.197895 
L 237.239415 365.027838 
L 238.076729 352.695085 
L 238.914043 375.230277 
L 239.751357 385.960386 
L 240.588671 384.220302 
L 241.425985 378.953419 
L 242.263299 377.336049 
L 243.100613 380.052936 
L 243.937927 381.361067 
L 244.775241 374.371279 
L 245.612555 338.960938 
L 246.449869 337.714164 
L 248.124497 355.529777 
L 248.961811 375.902749 
L 249.799125 384.031322 
L 250.636439 390.356 
L 251.473753 330.928082 
L 252.311067 343.43018 
L 253.148381 364.382363 
L 253.985695 360.504601 
L 254.823009 369.27865 
L 255.660323 347.26131 
L 256.497637 359.589155 
L 257.334951 335.645207 
L 258.172265 348.192885 
L 259.009579 331.70118 
L 259.846893 328.611242 
L 260.684207 355.105187 
L 261.521521 365.045018 
L 262.358835 402.806559 
L 263.196149 399.834427 
L 264.033463 389.047869 
L 264.870777 387.783915 
L 265.708091 391.489877 
L 266.545405 388.110335 
L 267.382719 358.170582 
L 268.220033 374.120943 
L 269.057347 373.647267 
L 269.89466 376.938455 
L 270.731974 388.863798 
L 271.569288 386.220539 
L 272.406602 385.069483 
L 273.243916 387.560576 
L 274.08123 393.895071 
L 274.918544 381.326707 
L 275.755858 400.86567 
L 276.593172 385.516161 
L 277.430486 393.08025 
L 278.2678 391.082467 
L 279.105114 397.787558 
L 279.942428 407.415695 
L 280.779742 398.779087 
L 281.617056 392.74156 
L 282.45437 389.443435 
L 283.291684 402.696116 
L 284.128998 401.002664 
L 284.966312 394.788428 
L 285.803626 401.471431 
L 286.64094 390.756048 
L 287.478254 390.765865 
L 288.315568 394.147862 
L 289.152882 384.46573 
L 289.990196 377.96189 
L 290.82751 385.830309 
L 291.664824 400.609979 
L 292.502138 399.309211 
L 293.339452 398.9018 
L 294.176766 399.70435 
L 295.01408 390.655422 
L 295.851394 403.39804 
L 296.688708 397.30161 
L 297.526022 409.519013 
L 298.363336 396.224182 
L 299.20065 397.760561 
L 300.037964 387.967986 
L 301.712592 405.160213 
L 302.549906 407.815743 
L 303.38722 403.677828 
L 304.224534 396.463101 
L 305.061848 391.460426 
L 305.899162 391.524237 
L 306.736476 392.74156 
L 307.57379 380.671414 
L 308.411104 389.843056 
L 309.248418 400.87995 
L 310.085732 400.551076 
L 310.923046 400.992846 
L 311.76036 398.140974 
L 312.597674 391.914467 
L 313.434988 406.54688 
L 314.272302 410.421295 
L 315.109616 387.150711 
L 315.94693 377.230515 
L 316.784244 386.62795 
L 317.621558 385.660964 
L 318.458872 396.535875 
L 319.296186 398.860078 
L 320.1335 404.870608 
L 320.970814 405.01541 
L 321.808128 383.353941 
L 322.645442 392.932993 
L 323.482756 386.711395 
L 324.32007 390.299552 
L 325.157384 389.438546 
L 325.994698 389.389014 
L 326.832012 404.323303 
L 328.50664 376.651305 
L 329.343954 385.913755 
L 330.181268 386.03156 
L 331.018582 361.299788 
L 332.69321 398.653918 
L 333.530524 388.161874 
L 334.367838 395.193255 
L 335.205152 392.277701 
L 336.042466 359.073756 
L 336.87978 358.263844 
L 338.554408 387.825638 
L 339.391722 382.467946 
L 340.229036 336.460027 
L 342.740978 360.563504 
L 343.578292 360.261628 
L 344.415606 380.129018 
L 345.25292 385.58979 
L 346.090234 382.146436 
L 346.927548 365.332169 
L 348.602176 390.115481 
L 349.43949 381.113184 
L 350.276804 383.037339 
L 351.114118 377.083258 
L 351.951432 384.782332 
L 352.788746 400.509353 
L 353.62606 394.805608 
L 354.463374 391.54878 
L 355.300688 386.897921 
L 356.138002 384.531995 
L 356.975316 382.877811 
L 357.81263 377.151978 
L 358.649944 373.453379 
L 359.487258 378.494468 
L 360.324572 345.157993 
L 361.161886 374.533262 
L 361.9992 384.384739 
L 362.836514 328.422263 
L 363.673828 349.610056 
L 364.511142 365.373891 
L 365.348456 385.629058 
L 366.18577 380.708228 
L 367.023084 362.936792 
L 367.860398 357.476021 
L 368.697712 370.007571 
L 369.535026 385.121022 
L 370.37234 394.020239 
L 371.209654 394.177313 
L 372.046968 376.457417 
L 372.884282 347.698172 
L 374.55891 362.259411 
L 375.396224 410.490907 
L 376.233538 357.696906 
L 377.070852 368.012242 
L 377.908166 354.459711 
L 378.74548 384.635075 
L 379.582794 386.10028 
L 380.420108 389.533817 
L 381.257422 387.192434 
L 382.094736 390.093392 
L 382.93205 389.202489 
L 383.769364 386.669673 
L 385.443991 343.884222 
L 386.281305 338.882401 
L 387.118619 338.992843 
L 387.955933 328.009944 
L 388.793247 371.546404 
L 389.630561 340.941541 
L 390.467875 328.532705 
L 391.305189 326.368031 
L 392.142503 346.230513 
L 392.979817 375.110017 
L 393.817131 328.032032 
L 394.654445 321.457018 
L 395.491759 264.662541 
L 396.329073 348.100674 
L 397.166387 354.707594 
L 398.003701 343.631431 
L 398.841015 309.995534 
L 399.678329 319.643306 
L 400.515643 300.251035 
L 401.352957 311.981046 
L 402.190271 339.768396 
L 403.027585 316.631905 
L 403.864899 304.569763 
L 404.702213 329.557313 
L 405.539527 314.499136 
L 406.376841 322.087768 
L 407.214155 333.090302 
L 408.051469 345.582583 
L 408.888783 339.233363 
L 409.726097 329.34998 
L 410.563411 288.476413 
L 411.400725 307.067579 
L 412.238039 301.670619 
L 413.075353 337.397562 
L 413.912667 364.674422 
L 414.749981 355.934733 
L 415.587295 360.295988 
L 416.424609 342.308575 
L 417.261923 336.032983 
L 418.099237 372.734275 
L 418.936551 364.897761 
L 419.773865 333.711234 
L 420.611179 266.289729 
L 421.448493 259.376024 
L 422.285807 318.6076 
L 423.960435 234.391461 
L 424.797749 216.037022 
L 425.635063 249.472687 
L 426.472377 303.863065 
L 427.309691 301.712341 
L 428.147005 337.661397 
L 428.984319 327.793967 
L 429.821633 328.974922 
L 430.658947 326.058792 
L 431.496261 339.132737 
L 432.333575 345.720023 
L 433.170889 325.636656 
L 434.845517 162.28719 
L 435.682831 299.277696 
L 436.520145 294.960619 
L 437.357459 328.829673 
L 438.194773 172.573074 
L 439.032087 259.599363 
L 439.869401 253.343405 
L 440.706715 371.232256 
L 441.544029 366.007095 
L 442.381343 353.568808 
L 443.218657 276.796498 
L 444.055971 267.487417 
L 444.893285 227.993155 
L 445.730599 200.627941 
L 446.567913 279.056889 
L 447.405227 341.183463 
L 448.242541 370.078745 
L 449.079855 342.713531 
L 449.917169 322.203119 
L 450.754483 350.763567 
L 451.591797 306.289572 
L 452.429111 167.784776 
L 453.266425 88.759437 
L 454.103739 86.923636 
L 454.941053 178.301362 
L 455.778367 355.645128 
L 456.615681 282.873294 
L 457.452995 223.306151 
L 458.290309 235.73886 
L 459.127623 161.347201 
L 459.964937 285.759526 
L 460.802251 204.643633 
L 461.639565 278.497314 
L 462.476879 250.722235 
L 463.314193 236.715663 
L 464.151507 284.900528 
L 464.988821 345.935999 
L 465.826135 333.694054 
L 466.663449 308.761031 
L 468.338077 274.190053 
L 469.175391 288.41751 
L 470.012705 330.795551 
L 470.850019 287.276271 
L 471.687333 287.740129 
L 472.524647 254.546002 
L 473.361961 290.346574 
L 475.036589 322.733243 
L 475.873903 401.608871 
L 476.711217 406.27691 
L 477.548531 384.063228 
L 478.385845 348.228296 
L 479.223159 363.474279 
L 480.060473 321.515921 
L 480.897787 333.298916 
L 481.735101 387.78637 
L 482.572415 361.523127 
L 483.409729 314.825555 
L 484.247043 306.770611 
L 485.084357 331.519563 
L 485.921671 328.721685 
L 486.758985 321.901243 
L 487.596299 350.083731 
L 488.433613 319.989359 
L 489.270927 304.758102 
L 490.108241 361.022454 
L 490.945555 335.269702 
L 491.782869 266.35354 
L 492.620183 348.076131 
L 493.457497 329.693579 
L 494.294811 280.065598 
L 495.132125 282.897836 
L 497.644067 349.322905 
L 498.481381 316.060058 
L 499.318695 325.18016 
L 500.156009 329.035832 
L 500.993322 286.508081 
L 501.830636 323.113657 
L 502.66795 344.041296 
L 503.505264 328.400174 
L 504.342578 323.967746 
L 505.179892 331.998148 
L 506.017206 341.570904 
L 506.85452 354.955476 
L 507.691834 343.943125 
L 508.529148 371.394238 
L 509.366462 372.297413 
L 510.203776 310.108431 
L 511.04109 223.19013 
L 511.878404 280.514411 
L 512.715718 355.203358 
L 513.553032 303.526054 
L 514.390346 331.320766 
L 515.22766 375.546879 
L 516.064974 379.247932 
L 516.902288 366.942176 
L 517.739602 373.858335 
L 518.576916 365.221726 
L 519.41423 366.097904 
L 520.251544 357.520198 
L 521.088858 333.976297 
L 521.926172 328.746227 
L 522.763486 357.385212 
L 523.6008 329.909556 
L 524.438114 349.747495 
L 525.275428 342.627631 
L 526.112742 369.025859 
L 526.950056 348.267565 
L 527.78737 351.256877 
L 528.624684 364.561525 
L 529.461998 354.453018 
L 530.299312 341.685188 
L 531.136626 312.147937 
L 531.97394 358.065048 
L 532.811254 348.593984 
L 533.648568 349.094657 
L 534.485882 344.696588 
L 535.323196 326.485836 
L 536.16051 322.912406 
L 536.997824 364.259649 
L 537.835138 364.595885 
L 538.672452 355.083098 
L 539.509766 331.256955 
L 540.34708 336.339768 
L 541.184394 330.621297 
L 542.021708 271.019125 
L 542.859022 329.043195 
L 543.696336 343.663337 
L 544.53365 354.727228 
L 545.370964 355.083098 
L 546.208278 335.358056 
L 547.045592 360.421156 
L 547.882906 334.673312 
L 548.72022 342.556457 
L 549.557534 365.665951 
L 550.394848 376.184992 
L 551.232162 375.55915 
L 552.069476 380.705774 
L 552.90679 360.967121 
L 553.744104 337.2184 
L 554.581418 323.395899 
L 555.418732 315.09798 
L 556.256046 317.189026 
L 557.09336 318.818668 
L 557.930674 312.118485 
L 558.767988 311.551547 
L 559.605302 363.516002 
L 560.442616 380.629691 
L 561.27993 394.020239 
L 562.117244 376.575222 
L 562.954558 376.513865 
L 563.791872 383.39321 
L 564.629186 388.100517 
L 565.4665 382.293693 
L 566.303814 386.745755 
L 567.141128 380.875119 
L 567.978442 355.610768 
L 568.815756 357.709177 
L 569.65307 353.060772 
L 570.490384 373.497556 
L 571.327698 379.895862 
L 572.165012 325.48449 
L 573.002326 363.535636 
L 573.83964 362.622644 
L 574.676954 367.619557 
L 575.514268 359.142476 
L 576.351582 383.606732 
L 577.188896 392.307152 
L 578.02621 388.77299 
L 578.863524 379.608711 
L 579.700838 373.02388 
L 580.538152 374.020317 
L 581.375466 381.029739 
L 582.21278 380.41126 
L 583.050094 380.013667 
L 583.887408 374.53817 
L 584.724722 383.628821 
L 585.562036 363.454645 
L 586.39935 361.974715 
L 587.236664 345.90164 
L 588.073978 346.507847 
L 588.911292 331.148967 
L 589.748606 363.162586 
L 590.58592 387.226794 
L 591.423234 365.518694 
L 592.260548 375.173828 
L 593.097862 374.43509 
L 593.935176 380.926659 
L 594.77249 372.842263 
L 595.609804 382.02216 
L 596.447118 396.346896 
L 597.284432 406.983742 
L 598.121746 405.886679 
L 598.95906 391.099647 
L 599.796374 394.160133 
L 600.633688 393.868074 
L 602.308316 413.909718 
L 603.14563 400.217294 
L 603.982944 391.264083 
L 604.820258 389.609899 
L 605.657572 402.838464 
L 606.494886 383.915971 
L 607.3322 383.280313 
L 608.169514 402.053095 
L 609.006828 404.767528 
L 610.681456 359.284824 
L 611.51877 361.520673 
L 612.356084 351.016358 
L 613.193398 347.256402 
L 614.030712 383.071699 
L 614.868026 394.327024 
L 616.542653 377.645288 
L 617.379967 368.247852 
L 618.217281 372.186971 
L 619.054595 391.327895 
L 619.891909 384.470638 
L 620.729223 359.046759 
L 621.566537 389.970678 
L 622.403851 392.140261 
L 623.241165 368.569363 
L 624.078479 338.666424 
L 624.915793 348.000048 
L 625.753107 370.221093 
L 626.590421 386.286805 
L 627.427735 377.655105 
L 629.102363 386.115005 
L 629.939677 384.666981 
L 630.776991 372.964977 
L 631.614305 383.92088 
L 632.451619 374.616707 
L 633.288933 367.391309 
L 634.126247 376.077003 
L 634.963561 374.07922 
L 635.800875 377.426857 
L 636.638189 397.767923 
L 637.475503 405.957853 
L 639.150131 393.696274 
L 639.987445 392.11081 
L 640.824759 398.295594 
L 641.662073 374.155303 
L 642.499387 363.174857 
L 643.336701 383.437387 
L 644.174015 381.817562 
L 645.011329 378.521465 
L 645.848643 381.123001 
L 646.685957 395.522258 
L 647.523271 392.99435 
L 648.360585 393.64228 
L 649.197899 397.839098 
L 650.035213 363.70989 
L 650.872527 382.93426 
L 651.709841 387.239065 
L 652.547155 364.095212 
L 653.384469 357.873614 
L 654.221783 367.170424 
L 655.059097 360.990549 
L 655.896411 362.784627 
L 656.733725 384.598261 
L 657.571039 368.390201 
L 658.408353 378.980416 
L 659.245667 352.383391 
L 660.082981 364.735779 
L 660.920295 405.295198 
L 661.757609 394.248487 
L 662.594923 390.819859 
L 663.432237 399.304302 
L 664.269551 391.173275 
L 665.106865 375.738313 
L 665.944179 383.469292 
L 666.781493 367.833079 
L 667.618807 355.441423 
L 668.456121 364.247377 
L 669.293435 385.206922 
L 670.130749 362.789535 
L 670.968063 373.053331 
L 671.805377 393.912251 
L 672.642691 400.1633 
L 673.480005 377.527482 
L 674.317319 386.581319 
L 675.154633 372.982157 
L 675.991947 390.402631 
L 676.829261 413.126803 
L 677.666575 442.996364 
L 678.503889 382.990708 
L 680.178517 372.29005 
L 681.015831 402.168446 
L 681.853145 354.732136 
L 682.690459 336.48457 
L 683.527773 381.469055 
L 684.365087 388.333674 
L 685.202401 348.076131 
L 686.039715 282.892062 
L 687.714343 362.531836 
L 688.551657 373.055785 
L 689.388971 353.419097 
L 690.226285 379.434457 
L 691.063599 354.670779 
L 691.900913 285.96814 
L 692.738227 269.409117 
L 693.575541 312.403182 
L 694.412855 324.804655 
L 695.250169 349.64687 
L 696.087483 327.155854 
L 696.924797 326.247771 
L 697.762111 341.020078 
L 698.599425 324.353068 
L 699.436739 329.96355 
L 700.274053 332.442372 
L 701.111367 331.745357 
L 702.785995 387.560576 
L 703.623309 345.803468 
L 704.460623 370.761034 
L 705.297937 299.073991 
L 706.135251 335.32615 
L 706.972565 363.952864 
L 707.809879 321.817797 
L 708.647193 318.428437 
L 709.484507 282.006933 
L 710.321821 273.750738 
L 711.159135 316.862384 
L 711.996449 249.475015 
L 712.833763 322.16095 
L 713.671077 309.360322 
L 714.508391 378.313967 
L 715.345705 359.556134 
L 717.020333 236.800224 
L 717.857647 262.570157 
L 718.694961 265.957062 
L 719.532275 282.621172 
L 720.369589 306.166189 
L 721.206903 346.715345 
L 722.044217 373.984619 
L 722.881531 330.881227 
L 723.718845 341.89871 
L 724.556159 271.812526 
L 725.393473 303.073797 
L 726.230787 289.909043 
L 727.068101 227.576597 
L 727.905415 277.844698 
L 728.742729 225.782742 
L 729.580043 254.666485 
L 730.417357 253.199272 
L 731.254671 302.950637 
L 732.091984 331.178418 
L 732.929298 209.35692 
L 733.766612 255.140384 
L 734.603926 250.50849 
L 735.44124 352.809097 
L 736.278554 358.653852 
L 737.115868 334.910708 
L 737.953182 323.173541 
L 738.790496 347.775593 
L 739.62781 296.921142 
L 741.302438 204.858895 
L 742.139752 327.065939 
L 742.977066 357.312476 
L 743.81438 353.060772 
L 745.489008 253.402754 
L 746.326322 284.701509 
L 747.163636 251.9168 
L 747.163636 251.9168 
" style="fill:none;stroke:#1f77b4;stroke-linecap:square;stroke-width:1.5;"/>
   </g>
   <g id="line2d_18">
    <path clip-path="url(#p7256589144)" d="M 138.436364 215.815672 
L 139.273678 234.510449 
L 140.110992 225.63393 
L 140.948306 263.99986 
L 141.78562 311.081795 
L 142.622934 289.961054 
L 143.460248 242.032099 
L 144.297562 267.024316 
L 145.134876 358.167405 
L 145.97219 265.219756 
L 146.809504 271.612775 
L 147.646818 323.921425 
L 148.484132 295.39241 
L 149.321446 317.173255 
L 150.15876 304.587591 
L 150.996074 311.161323 
L 151.833388 320.159967 
L 152.670702 258.843386 
L 153.508016 298.429177 
L 154.345329 254.714251 
L 155.182643 351.367979 
L 156.019957 309.671625 
L 156.857271 362.749942 
L 157.694585 314.417479 
L 158.531899 342.65403 
L 159.369213 354.550565 
L 160.206527 331.964645 
L 161.043841 319.043407 
L 161.881155 264.00788 
L 162.718469 269.756093 
L 163.555783 284.785111 
L 164.393097 364.056681 
L 165.230411 337.127406 
L 166.067725 319.363479 
L 166.905039 332.066404 
L 167.742353 385.629951 
L 168.579667 377.619372 
L 169.416981 353.679384 
L 170.254295 337.388411 
L 171.091609 362.581862 
L 171.928923 337.445315 
L 172.766237 336.839819 
L 173.603551 302.732164 
L 174.440865 362.275374 
L 175.278179 353.590085 
L 176.115493 349.87561 
L 176.952807 265.13491 
L 177.790121 219.37053 
L 178.627435 317.149256 
L 179.464749 287.827853 
L 180.302063 322.234365 
L 181.139377 204.600188 
L 181.976691 278.38357 
L 182.814005 335.475352 
L 183.651319 329.560458 
L 184.488633 299.732855 
L 185.325947 303.447104 
L 186.163261 369.198334 
L 187.000575 282.341614 
L 187.837889 306.514491 
L 188.675203 323.699036 
L 189.512517 362.516061 
L 190.349831 307.756307 
L 191.187145 314.329955 
L 192.024459 296.414419 
L 192.861773 306.686216 
L 193.699087 338.908408 
L 194.536401 317.046637 
L 195.373715 292.123909 
L 196.211029 289.890478 
L 197.048343 357.897334 
L 197.885657 364.310019 
L 198.722971 349.468982 
L 199.560285 299.094528 
L 200.397599 296.331126 
L 201.234913 284.183989 
L 202.072227 305.839244 
L 202.909541 271.600584 
L 203.746855 311.43807 
L 204.584169 339.270384 
L 205.421483 320.686783 
L 206.258797 318.608059 
L 207.096111 310.632977 
L 207.933425 319.671217 
L 208.770739 333.345007 
L 209.608053 334.771863 
L 210.445367 335.712514 
L 211.282681 314.912742 
L 212.119995 338.560966 
L 212.957309 308.095538 
L 213.794623 351.097179 
L 214.631937 338.599236 
L 215.469251 341.32138 
L 216.306565 324.929378 
L 217.143879 319.930538 
L 217.981193 272.738311 
L 218.818507 291.087893 
L 229.703589 294.196215 
L 230.540903 304.493769 
L 232.215531 309.484314 
L 233.052845 315.365875 
L 233.890159 288.044481 
L 234.727473 302.220347 
L 235.564787 342.788286 
L 236.402101 327.293873 
L 237.239415 328.74811 
L 238.076729 355.166841 
L 238.914043 392.517803 
L 239.751357 386.795113 
L 240.588671 401.768769 
L 241.425985 366.159058 
L 242.263299 344.779606 
L 243.100613 384.781992 
L 243.937927 367.436724 
L 244.775241 377.756681 
L 245.612555 352.531468 
L 246.449869 378.665344 
L 247.287183 316.526394 
L 248.124497 374.289939 
L 248.961811 385.026415 
L 249.799125 362.630919 
L 250.636439 374.992604 
L 251.473753 326.82347 
L 252.311067 318.819368 
L 253.148381 352.915639 
L 253.985695 336.407888 
L 254.823009 384.761298 
L 255.660323 335.525837 
L 256.497637 333.934117 
L 258.172265 375.652655 
L 259.009579 331.69838 
L 259.846893 324.335296 
L 260.684207 351.104691 
L 261.521521 369.801159 
L 262.358835 404.073887 
L 263.196149 372.530976 
L 264.870777 360.934016 
L 265.708091 384.71799 
L 266.545405 380.207362 
L 267.382719 363.000335 
L 268.220033 385.043446 
L 269.057347 357.335247 
L 269.89466 367.894876 
L 270.731974 348.284105 
L 271.569288 395.017725 
L 272.406602 363.391216 
L 273.243916 347.368062 
L 274.08123 363.81726 
L 274.918544 355.292635 
L 275.755858 408.484191 
L 276.593172 382.49399 
L 277.430486 400.56416 
L 278.2678 368.372636 
L 279.942428 396.757583 
L 280.779742 365.372945 
L 281.617056 405.04841 
L 282.45437 371.529854 
L 283.291684 370.713006 
L 284.128998 392.397626 
L 284.966312 376.397354 
L 285.803626 395.841708 
L 286.64094 404.144917 
L 287.478254 375.417214 
L 288.315568 366.429972 
L 289.152882 362.145175 
L 289.990196 380.883487 
L 290.82751 369.623297 
L 291.664824 386.306931 
L 292.502138 388.681394 
L 293.339452 389.171273 
L 294.176766 386.303381 
L 295.01408 372.850965 
L 295.851394 383.581739 
L 296.688708 374.703959 
L 297.526022 395.779803 
L 298.363336 384.048856 
L 299.20065 419.276889 
L 300.037964 379.675376 
L 300.875278 371.918679 
L 301.712592 389.630788 
L 302.549906 391.08389 
L 303.38722 411.050028 
L 305.061848 384.031352 
L 305.899162 405.112783 
L 306.736476 365.058436 
L 307.57379 395.415491 
L 308.411104 370.929467 
L 309.248418 370.135388 
L 310.085732 389.078168 
L 310.923046 396.356232 
L 311.76036 395.282053 
L 312.597674 376.203136 
L 313.434988 371.645973 
L 314.272302 361.692592 
L 315.109616 370.758555 
L 315.94693 352.926742 
L 316.784244 346.352102 
L 318.458872 383.662134 
L 319.296186 381.394957 
L 320.1335 356.73458 
L 320.970814 385.232795 
L 321.808128 355.66021 
L 322.645442 375.344468 
L 323.482756 369.744083 
L 324.32007 378.319419 
L 325.157384 388.749699 
L 325.994698 384.957112 
L 326.832012 378.907675 
L 327.669326 376.671902 
L 328.50664 361.10117 
L 329.343954 385.246826 
L 330.181268 399.475532 
L 331.018582 372.241172 
L 331.855896 354.483867 
L 332.69321 372.369936 
L 333.530524 351.110248 
L 334.367838 367.133552 
L 335.205152 368.191768 
L 336.042466 381.5021 
L 336.87978 358.510162 
L 337.717094 367.86621 
L 338.554408 363.327046 
L 339.391722 368.739016 
L 340.229036 352.185341 
L 342.740978 358.305396 
L 343.578292 349.751668 
L 344.415606 353.800248 
L 345.25292 397.511008 
L 346.090234 363.755385 
L 346.927548 359.920667 
L 347.764862 373.664741 
L 348.602176 370.268694 
L 349.43949 368.38907 
L 350.276804 364.499607 
L 351.114118 395.327005 
L 351.951432 376.974877 
L 352.788746 368.647357 
L 353.62606 402.391309 
L 354.463374 375.608307 
L 355.300688 371.578725 
L 356.138002 394.890317 
L 356.975316 394.562751 
L 357.81263 371.989321 
L 358.649944 373.590961 
L 359.487258 366.217115 
L 360.324572 347.754157 
L 361.161886 387.169877 
L 362.836514 332.183712 
L 363.673828 378.019229 
L 364.511142 324.793138 
L 365.348456 392.125009 
L 366.18577 360.264721 
L 367.023084 367.837669 
L 367.860398 390.820171 
L 368.697712 359.980146 
L 369.535026 371.263595 
L 371.209654 378.387121 
L 372.046968 390.563689 
L 372.884282 364.138808 
L 373.721596 395.882189 
L 374.55891 386.579716 
L 375.396224 405.210454 
L 376.233538 370.061071 
L 377.070852 340.252735 
L 377.908166 386.145574 
L 378.74548 368.47571 
L 379.582794 365.775025 
L 380.420108 376.762336 
L 381.257422 370.680252 
L 382.094736 382.152589 
L 382.93205 367.787919 
L 383.769364 378.698689 
L 385.443991 340.00961 
L 386.281305 387.940997 
L 387.118619 377.060811 
L 387.955933 344.300048 
L 388.793247 305.210131 
L 389.630561 352.695897 
L 390.467875 349.053993 
L 391.305189 356.351162 
L 392.142503 356.529264 
L 392.979817 368.129821 
L 393.817131 340.446416 
L 394.654445 341.773987 
L 395.491759 314.127645 
L 396.329073 297.75877 
L 397.166387 367.969086 
L 398.003701 378.530562 
L 398.841015 358.847636 
L 399.678329 324.253497 
L 400.515643 305.728103 
L 401.352957 305.183514 
L 402.190271 289.22594 
L 403.027585 312.472783 
L 403.864899 312.801472 
L 404.702213 392.339881 
L 405.539527 331.368842 
L 406.376841 325.169611 
L 408.051469 373.500569 
L 408.888783 333.616746 
L 409.726097 363.423761 
L 410.563411 280.40146 
L 411.400725 336.423533 
L 412.238039 344.126685 
L 413.075353 319.371427 
L 413.912667 345.713314 
L 414.749981 328.971097 
L 415.587295 347.597736 
L 416.424609 346.53955 
L 417.261923 318.096696 
L 418.099237 332.049492 
L 418.936551 353.440692 
L 419.773865 345.360278 
L 421.448493 250.741411 
L 422.285807 293.733377 
L 423.123121 322.15908 
L 423.960435 250.710456 
L 424.797749 305.356757 
L 425.635063 241.442296 
L 426.472377 346.544091 
L 427.309691 293.887545 
L 428.147005 353.111369 
L 428.984319 320.715564 
L 429.821633 294.608221 
L 430.658947 291.236897 
L 431.496261 292.748312 
L 432.333575 294.96146 
L 433.170889 308.719523 
L 434.008203 285.968267 
L 434.845517 197.392443 
L 436.520145 345.413608 
L 437.357459 333.265981 
L 438.194773 315.519397 
L 439.032087 259.231704 
L 439.869401 285.213324 
L 440.706715 320.771487 
L 441.544029 340.640671 
L 442.381343 315.965706 
L 443.218657 281.559744 
L 444.055971 253.813806 
L 444.893285 199.69517 
L 445.730599 217.07354 
L 447.405227 296.603558 
L 448.242541 324.776979 
L 449.079855 314.243375 
L 449.917169 337.795637 
L 450.754483 338.177907 
L 451.591797 311.38076 
L 452.429111 273.892184 
L 453.266425 176.60118 
L 454.103739 148.700991 
L 454.941053 175.05238 
L 455.778367 295.475859 
L 456.615681 272.559606 
L 457.452995 293.489773 
L 459.127623 237.726614 
L 459.964937 293.2504 
L 460.802251 313.661436 
L 461.639565 239.401961 
L 462.476879 271.35269 
L 463.314193 262.1359 
L 464.151507 283.762218 
L 464.988821 283.218263 
L 465.826135 323.049222 
L 466.663449 352.388404 
L 467.500763 308.036113 
L 468.338077 325.217575 
L 469.175391 287.93003 
L 470.012705 298.256173 
L 470.850019 285.618601 
L 471.687333 308.486915 
L 472.524647 276.674351 
L 473.361961 298.959292 
L 474.199275 291.449343 
L 475.036589 278.211487 
L 475.873903 339.225994 
L 476.711217 339.058309 
L 477.548531 340.963085 
L 478.385845 353.996008 
L 479.223159 325.568542 
L 480.060473 336.345954 
L 480.897787 334.050158 
L 481.735101 352.872863 
L 482.572415 297.70709 
L 483.409729 282.939735 
L 484.247043 296.352233 
L 485.084357 335.432947 
L 485.921671 308.201288 
L 486.758985 313.680285 
L 487.596299 333.985654 
L 488.433613 292.672884 
L 489.270927 261.07837 
L 490.108241 333.092941 
L 490.945555 290.035634 
L 491.782869 307.113174 
L 492.620183 337.662003 
L 493.457497 344.376815 
L 494.294811 298.550202 
L 495.132125 284.035678 
L 495.969439 330.721538 
L 496.806753 313.410936 
L 497.644067 332.990944 
L 498.481381 340.297232 
L 499.318695 341.455767 
L 500.156009 320.636143 
L 500.993322 294.405899 
L 501.830636 350.591254 
L 502.66795 327.908751 
L 503.505264 297.076184 
L 504.342578 318.989169 
L 505.179892 327.363851 
L 506.017206 322.716505 
L 506.85452 333.388823 
L 507.691834 328.613328 
L 508.529148 376.969236 
L 509.366462 314.458904 
L 510.203776 290.94098 
L 511.04109 327.682167 
L 511.878404 308.540257 
L 512.715718 371.176968 
L 513.553032 317.315531 
L 514.390346 299.049361 
L 515.22766 380.796346 
L 516.064974 354.133491 
L 516.902288 349.829117 
L 517.739602 343.559687 
L 518.576916 350.346808 
L 519.41423 358.176172 
L 520.251544 349.396248 
L 521.088858 338.018038 
L 521.926172 332.553874 
L 522.763486 369.393862 
L 523.6008 342.730989 
L 524.438114 324.586334 
L 525.275428 338.396567 
L 526.112742 391.841223 
L 527.78737 350.001182 
L 528.624684 346.491736 
L 529.461998 323.722844 
L 530.299312 328.494706 
L 531.136626 339.919946 
L 531.97394 334.308881 
L 532.811254 352.823382 
L 533.648568 330.132118 
L 534.485882 349.177994 
L 535.323196 372.913425 
L 536.16051 348.634451 
L 536.997824 349.142085 
L 537.835138 321.586284 
L 539.509766 342.489739 
L 540.34708 357.021808 
L 542.021708 291.086471 
L 542.859022 367.045986 
L 543.696336 277.579159 
L 544.53365 341.09862 
L 545.370964 351.874149 
L 546.208278 367.308259 
L 547.045592 344.431925 
L 547.882906 327.204066 
L 549.557534 359.16135 
L 550.394848 363.127455 
L 551.232162 355.875411 
L 552.069476 351.402753 
L 552.90679 344.591077 
L 553.744104 354.142819 
L 554.581418 335.963313 
L 555.418732 309.916197 
L 556.256046 311.592261 
L 557.09336 314.452175 
L 557.930674 322.38031 
L 558.767988 295.341567 
L 559.605302 324.227729 
L 560.442616 365.234584 
L 561.27993 366.913361 
L 562.117244 379.338822 
L 562.954558 349.585967 
L 563.791872 372.472722 
L 564.629186 363.521749 
L 565.4665 341.384976 
L 566.303814 359.43221 
L 567.141128 360.640716 
L 567.978442 355.354881 
L 568.815756 338.494848 
L 569.65307 383.04128 
L 570.490384 348.736515 
L 571.327698 358.013865 
L 572.165012 341.572406 
L 573.002326 338.001353 
L 573.83964 363.762676 
L 574.676954 354.029019 
L 575.514268 336.436119 
L 576.351582 355.255244 
L 577.188896 351.013199 
L 578.02621 352.80751 
L 578.863524 358.478669 
L 579.700838 362.552825 
L 580.538152 362.365318 
L 581.375466 353.688013 
L 582.21278 350.054327 
L 583.050094 351.830184 
L 583.887408 334.369358 
L 584.724722 369.238546 
L 585.562036 350.257963 
L 586.39935 348.288395 
L 587.236664 342.344918 
L 588.073978 379.29558 
L 588.911292 357.502992 
L 589.748606 332.256523 
L 590.58592 369.279267 
L 591.423234 357.344701 
L 592.260548 387.723077 
L 593.097862 329.928971 
L 593.935176 367.883701 
L 594.77249 362.061183 
L 595.609804 358.818575 
L 596.447118 360.9371 
L 597.284432 398.09946 
L 598.121746 369.705358 
L 598.95906 365.776693 
L 599.796374 365.290369 
L 600.633688 368.884459 
L 601.471002 380.685247 
L 602.308316 387.409495 
L 603.14563 407.235156 
L 603.982944 379.381783 
L 604.820258 368.20017 
L 605.657572 368.36733 
L 606.494886 354.924415 
L 607.3322 354.976806 
L 608.169514 356.115769 
L 609.006828 352.506543 
L 609.844142 378.984125 
L 610.681456 368.812359 
L 611.51877 339.505036 
L 612.356084 331.547033 
L 613.193398 327.322462 
L 614.030712 328.345522 
L 614.868026 337.08598 
L 615.70534 360.88279 
L 616.542653 335.593676 
L 617.379967 319.956856 
L 618.217281 364.197869 
L 619.054595 331.094641 
L 619.891909 341.648707 
L 620.729223 382.096045 
L 621.566537 338.934332 
L 622.403851 321.593563 
L 623.241165 345.043971 
L 624.078479 327.811833 
L 624.915793 349.784835 
L 625.753107 339.088141 
L 626.590421 370.923581 
L 627.427735 361.34558 
L 628.265049 359.859013 
L 629.102363 379.794554 
L 629.939677 359.422535 
L 630.776991 351.386893 
L 631.614305 367.150535 
L 632.451619 346.984005 
L 633.288933 386.020599 
L 634.126247 369.496284 
L 634.963561 333.018947 
L 636.638189 378.235559 
L 637.475503 388.299476 
L 638.312817 390.991747 
L 639.150131 367.006568 
L 639.987445 370.168119 
L 640.824759 366.183781 
L 641.662073 371.155759 
L 642.499387 344.573639 
L 643.336701 397.92348 
L 644.174015 349.065294 
L 645.011329 393.410647 
L 645.848643 354.697621 
L 646.685957 373.528889 
L 647.523271 381.972217 
L 648.360585 356.73201 
L 649.197899 383.8545 
L 650.035213 363.670682 
L 650.872527 365.044973 
L 651.709841 351.184356 
L 652.547155 345.517004 
L 653.384469 314.731109 
L 654.221783 348.262848 
L 655.059097 354.475985 
L 655.896411 346.140702 
L 656.733725 343.240893 
L 657.571039 341.355407 
L 658.408353 373.056209 
L 659.245667 333.800614 
L 660.082981 348.687434 
L 660.920295 385.244101 
L 661.757609 372.122376 
L 662.594923 367.976132 
L 663.432237 360.06158 
L 664.269551 370.78057 
L 665.106865 348.989088 
L 665.944179 374.001773 
L 666.781493 369.785675 
L 667.618807 341.480388 
L 668.456121 367.310386 
L 669.293435 346.045493 
L 670.130749 339.182764 
L 670.968063 340.910832 
L 672.642691 372.333154 
L 673.480005 361.776345 
L 674.317319 369.875649 
L 675.154633 359.525107 
L 675.991947 347.50833 
L 676.829261 350.000878 
L 677.666575 398.216422 
L 678.503889 381.832756 
L 680.178517 339.493717 
L 681.015831 338.251626 
L 681.853145 370.616399 
L 682.690459 339.067703 
L 683.527773 353.169103 
L 684.365087 375.26901 
L 685.202401 356.073573 
L 686.039715 339.798622 
L 686.877029 356.612838 
L 687.714343 330.59933 
L 688.551657 315.635857 
L 689.388971 339.65857 
L 690.226285 353.193849 
L 691.063599 397.08179 
L 692.738227 303.610307 
L 693.575541 326.138003 
L 694.412855 306.740597 
L 695.250169 350.887488 
L 696.087483 321.971734 
L 696.924797 354.806557 
L 697.762111 357.567479 
L 698.599425 335.688622 
L 699.436739 343.834808 
L 700.274053 348.862781 
L 701.111367 345.204007 
L 701.948681 337.281215 
L 702.785995 333.716784 
L 703.623309 286.922543 
L 704.460623 293.238257 
L 705.297937 346.395894 
L 706.135251 249.269342 
L 706.972565 313.332759 
L 707.809879 335.223143 
L 709.484507 289.516324 
L 710.321821 258.538481 
L 711.159135 309.479725 
L 711.996449 265.229282 
L 712.833763 308.747885 
L 713.671077 321.340457 
L 714.508391 286.31602 
L 715.345705 313.674129 
L 716.183019 295.248175 
L 717.020333 296.933801 
L 717.857647 274.086594 
L 718.694961 322.58593 
L 719.532275 279.018767 
L 720.369589 308.446864 
L 721.206903 276.813734 
L 722.044217 304.567524 
L 722.881531 299.378947 
L 723.718845 309.919364 
L 724.556159 313.804274 
L 725.393473 227.436399 
L 726.230787 246.160087 
L 727.068101 253.32122 
L 727.905415 266.086234 
L 728.742729 315.629092 
L 729.580043 250.364627 
L 730.417357 288.432034 
L 731.254671 226.671882 
L 732.091984 303.341425 
L 732.929298 216.679652 
L 733.766612 308.898443 
L 734.603926 281.690832 
L 735.44124 285.980625 
L 736.278554 300.616962 
L 737.115868 344.585197 
L 737.953182 309.629709 
L 738.790496 377.231389 
L 739.62781 332.161971 
L 740.465124 334.317367 
L 741.302438 260.400099 
L 742.139752 270.247807 
L 742.977066 331.590538 
L 743.81438 297.368277 
L 744.651694 312.149794 
L 745.489008 268.295044 
L 746.326322 307.378578 
L 747.163636 253.619336 
L 747.163636 253.619336 
" style="fill:none;stroke:#ff0000;stroke-dasharray:5.55,2.4;stroke-dashoffset:0;stroke-width:1.5;"/>
   </g>
   <g id="patch_3">
    <path d="M 108 460.8 
L 108 69.12 
" style="fill:none;stroke:#000000;stroke-linecap:square;stroke-linejoin:miter;stroke-width:0.8;"/>
   </g>
   <g id="patch_4">
    <path d="M 777.6 460.8 
L 777.6 69.12 
" style="fill:none;stroke:#000000;stroke-linecap:square;stroke-linejoin:miter;stroke-width:0.8;"/>
   </g>
   <g id="patch_5">
    <path d="M 108 460.8 
L 777.6 460.8 
" style="fill:none;stroke:#000000;stroke-linecap:square;stroke-linejoin:miter;stroke-width:0.8;"/>
   </g>
   <g id="patch_6">
    <path d="M 108 69.12 
L 777.6 69.12 
" style="fill:none;stroke:#000000;stroke-linecap:square;stroke-linejoin:miter;stroke-width:0.8;"/>
   </g>
   <g id="text_19">
    <!-- Macau residential 2020-2021 | Forecast vs Monitored | GRU -->
    <g transform="translate(219.602344 63.12)scale(0.15 -0.15)">
     <defs>
      <path d="M 9.8125 72.90625 
L 24.515625 72.90625 
L 43.109375 23.296875 
L 61.8125 72.90625 
L 76.515625 72.90625 
L 76.515625 0 
L 66.890625 0 
L 66.890625 64.015625 
L 48.09375 14.015625 
L 38.1875 14.015625 
L 19.390625 64.015625 
L 19.390625 0 
L 9.8125 0 
z
" id="DejaVuSans-77"/>
      <path d="M 48.78125 52.59375 
L 48.78125 44.1875 
Q 44.96875 46.296875 41.140625 47.34375 
Q 37.3125 48.390625 33.40625 48.390625 
Q 24.65625 48.390625 19.8125 42.84375 
Q 14.984375 37.3125 14.984375 27.296875 
Q 14.984375 17.28125 19.8125 11.734375 
Q 24.65625 6.203125 33.40625 6.203125 
Q 37.3125 6.203125 41.140625 7.25 
Q 44.96875 8.296875 48.78125 10.40625 
L 48.78125 2.09375 
Q 45.015625 0.34375 40.984375 -0.53125 
Q 36.96875 -1.421875 32.421875 -1.421875 
Q 20.0625 -1.421875 12.78125 6.34375 
Q 5.515625 14.109375 5.515625 27.296875 
Q 5.515625 40.671875 12.859375 48.328125 
Q 20.21875 56 33.015625 56 
Q 37.15625 56 41.109375 55.140625 
Q 45.0625 54.296875 48.78125 52.59375 
z
" id="DejaVuSans-99"/>
      <path d="M 8.5 21.578125 
L 8.5 54.6875 
L 17.484375 54.6875 
L 17.484375 21.921875 
Q 17.484375 14.15625 20.5 10.265625 
Q 23.53125 6.390625 29.59375 6.390625 
Q 36.859375 6.390625 41.078125 11.03125 
Q 45.3125 15.671875 45.3125 23.6875 
L 45.3125 54.6875 
L 54.296875 54.6875 
L 54.296875 0 
L 45.3125 0 
L 45.3125 8.40625 
Q 42.046875 3.421875 37.71875 1 
Q 33.40625 -1.421875 27.6875 -1.421875 
Q 18.265625 -1.421875 13.375 4.4375 
Q 8.5 10.296875 8.5 21.578125 
z
M 31.109375 56 
z
" id="DejaVuSans-117"/>
      <path id="DejaVuSans-32"/>
      <path d="M 41.109375 46.296875 
Q 39.59375 47.171875 37.8125 47.578125 
Q 36.03125 48 33.890625 48 
Q 26.265625 48 22.1875 43.046875 
Q 18.109375 38.09375 18.109375 28.8125 
L 18.109375 0 
L 9.078125 0 
L 9.078125 54.6875 
L 18.109375 54.6875 
L 18.109375 46.1875 
Q 20.953125 51.171875 25.484375 53.578125 
Q 30.03125 56 36.53125 56 
Q 37.453125 56 38.578125 55.875 
Q 39.703125 55.765625 41.0625 55.515625 
z
" id="DejaVuSans-114"/>
      <path d="M 44.28125 53.078125 
L 44.28125 44.578125 
Q 40.484375 46.53125 36.375 47.5 
Q 32.28125 48.484375 27.875 48.484375 
Q 21.1875 48.484375 17.84375 46.4375 
Q 14.5 44.390625 14.5 40.28125 
Q 14.5 37.15625 16.890625 35.375 
Q 19.28125 33.59375 26.515625 31.984375 
L 29.59375 31.296875 
Q 39.15625 29.25 43.1875 25.515625 
Q 47.21875 21.78125 47.21875 15.09375 
Q 47.21875 7.46875 41.1875 3.015625 
Q 35.15625 -1.421875 24.609375 -1.421875 
Q 20.21875 -1.421875 15.453125 -0.5625 
Q 10.6875 0.296875 5.421875 2 
L 5.421875 11.28125 
Q 10.40625 8.6875 15.234375 7.390625 
Q 20.0625 6.109375 24.8125 6.109375 
Q 31.15625 6.109375 34.5625 8.28125 
Q 37.984375 10.453125 37.984375 14.40625 
Q 37.984375 18.0625 35.515625 20.015625 
Q 33.0625 21.96875 24.703125 23.78125 
L 21.578125 24.515625 
Q 13.234375 26.265625 9.515625 29.90625 
Q 5.8125 33.546875 5.8125 39.890625 
Q 5.8125 47.609375 11.28125 51.796875 
Q 16.75 56 26.8125 56 
Q 31.78125 56 36.171875 55.265625 
Q 40.578125 54.546875 44.28125 53.078125 
z
" id="DejaVuSans-115"/>
      <path d="M 9.421875 54.6875 
L 18.40625 54.6875 
L 18.40625 0 
L 9.421875 0 
z
M 9.421875 75.984375 
L 18.40625 75.984375 
L 18.40625 64.59375 
L 9.421875 64.59375 
z
" id="DejaVuSans-105"/>
      <path d="M 45.40625 46.390625 
L 45.40625 75.984375 
L 54.390625 75.984375 
L 54.390625 0 
L 45.40625 0 
L 45.40625 8.203125 
Q 42.578125 3.328125 38.25 0.953125 
Q 33.9375 -1.421875 27.875 -1.421875 
Q 17.96875 -1.421875 11.734375 6.484375 
Q 5.515625 14.40625 5.515625 27.296875 
Q 5.515625 40.1875 11.734375 48.09375 
Q 17.96875 56 27.875 56 
Q 33.9375 56 38.25 53.625 
Q 42.578125 51.265625 45.40625 46.390625 
z
M 14.796875 27.296875 
Q 14.796875 17.390625 18.875 11.75 
Q 22.953125 6.109375 30.078125 6.109375 
Q 37.203125 6.109375 41.296875 11.75 
Q 45.40625 17.390625 45.40625 27.296875 
Q 45.40625 37.203125 41.296875 42.84375 
Q 37.203125 48.484375 30.078125 48.484375 
Q 22.953125 48.484375 18.875 42.84375 
Q 14.796875 37.203125 14.796875 27.296875 
z
" id="DejaVuSans-100"/>
      <path d="M 54.890625 33.015625 
L 54.890625 0 
L 45.90625 0 
L 45.90625 32.71875 
Q 45.90625 40.484375 42.875 44.328125 
Q 39.84375 48.1875 33.796875 48.1875 
Q 26.515625 48.1875 22.3125 43.546875 
Q 18.109375 38.921875 18.109375 30.90625 
L 18.109375 0 
L 9.078125 0 
L 9.078125 54.6875 
L 18.109375 54.6875 
L 18.109375 46.1875 
Q 21.34375 51.125 25.703125 53.5625 
Q 30.078125 56 35.796875 56 
Q 45.21875 56 50.046875 50.171875 
Q 54.890625 44.34375 54.890625 33.015625 
z
" id="DejaVuSans-110"/>
      <path d="M 9.421875 75.984375 
L 18.40625 75.984375 
L 18.40625 0 
L 9.421875 0 
z
" id="DejaVuSans-108"/>
      <path d="M 21 76.421875 
L 21 -23.578125 
L 12.703125 -23.578125 
L 12.703125 76.421875 
z
" id="DejaVuSans-124"/>
      <path d="M 9.8125 72.90625 
L 51.703125 72.90625 
L 51.703125 64.59375 
L 19.671875 64.59375 
L 19.671875 43.109375 
L 48.578125 43.109375 
L 48.578125 34.8125 
L 19.671875 34.8125 
L 19.671875 0 
L 9.8125 0 
z
" id="DejaVuSans-70"/>
      <path d="M 30.609375 48.390625 
Q 23.390625 48.390625 19.1875 42.75 
Q 14.984375 37.109375 14.984375 27.296875 
Q 14.984375 17.484375 19.15625 11.84375 
Q 23.34375 6.203125 30.609375 6.203125 
Q 37.796875 6.203125 41.984375 11.859375 
Q 46.1875 17.53125 46.1875 27.296875 
Q 46.1875 37.015625 41.984375 42.703125 
Q 37.796875 48.390625 30.609375 48.390625 
z
M 30.609375 56 
Q 42.328125 56 49.015625 48.375 
Q 55.71875 40.765625 55.71875 27.296875 
Q 55.71875 13.875 49.015625 6.21875 
Q 42.328125 -1.421875 30.609375 -1.421875 
Q 18.84375 -1.421875 12.171875 6.21875 
Q 5.515625 13.875 5.515625 27.296875 
Q 5.515625 40.765625 12.171875 48.375 
Q 18.84375 56 30.609375 56 
z
" id="DejaVuSans-111"/>
      <path d="M 2.984375 54.6875 
L 12.5 54.6875 
L 29.59375 8.796875 
L 46.6875 54.6875 
L 56.203125 54.6875 
L 35.6875 0 
L 23.484375 0 
z
" id="DejaVuSans-118"/>
      <path d="M 59.515625 10.40625 
L 59.515625 29.984375 
L 43.40625 29.984375 
L 43.40625 38.09375 
L 69.28125 38.09375 
L 69.28125 6.78125 
Q 63.578125 2.734375 56.6875 0.65625 
Q 49.8125 -1.421875 42 -1.421875 
Q 24.90625 -1.421875 15.25 8.5625 
Q 5.609375 18.5625 5.609375 36.375 
Q 5.609375 54.25 15.25 64.234375 
Q 24.90625 74.21875 42 74.21875 
Q 49.125 74.21875 55.546875 72.453125 
Q 61.96875 70.703125 67.390625 67.28125 
L 67.390625 56.78125 
Q 61.921875 61.421875 55.765625 63.765625 
Q 49.609375 66.109375 42.828125 66.109375 
Q 29.4375 66.109375 22.71875 58.640625 
Q 16.015625 51.171875 16.015625 36.375 
Q 16.015625 21.625 22.71875 14.15625 
Q 29.4375 6.6875 42.828125 6.6875 
Q 48.046875 6.6875 52.140625 7.59375 
Q 56.25 8.5 59.515625 10.40625 
z
" id="DejaVuSans-71"/>
      <path d="M 44.390625 34.1875 
Q 47.5625 33.109375 50.5625 29.59375 
Q 53.5625 26.078125 56.59375 19.921875 
L 66.609375 0 
L 56 0 
L 46.6875 18.703125 
Q 43.0625 26.03125 39.671875 28.421875 
Q 36.28125 30.8125 30.421875 30.8125 
L 19.671875 30.8125 
L 19.671875 0 
L 9.8125 0 
L 9.8125 72.90625 
L 32.078125 72.90625 
Q 44.578125 72.90625 50.734375 67.671875 
Q 56.890625 62.453125 56.890625 51.90625 
Q 56.890625 45.015625 53.6875 40.46875 
Q 50.484375 35.9375 44.390625 34.1875 
z
M 19.671875 64.796875 
L 19.671875 38.921875 
L 32.078125 38.921875 
Q 39.203125 38.921875 42.84375 42.21875 
Q 46.484375 45.515625 46.484375 51.90625 
Q 46.484375 58.296875 42.84375 61.546875 
Q 39.203125 64.796875 32.078125 64.796875 
z
" id="DejaVuSans-82"/>
      <path d="M 8.6875 72.90625 
L 18.609375 72.90625 
L 18.609375 28.609375 
Q 18.609375 16.890625 22.84375 11.734375 
Q 27.09375 6.59375 36.625 6.59375 
Q 46.09375 6.59375 50.34375 11.734375 
Q 54.59375 16.890625 54.59375 28.609375 
L 54.59375 72.90625 
L 64.5 72.90625 
L 64.5 27.390625 
Q 64.5 13.140625 57.4375 5.859375 
Q 50.390625 -1.421875 36.625 -1.421875 
Q 22.796875 -1.421875 15.734375 5.859375 
Q 8.6875 13.140625 8.6875 27.390625 
z
" id="DejaVuSans-85"/>
     </defs>
     <use xlink:href="#DejaVuSans-77"/>
     <use x="86.279297" xlink:href="#DejaVuSans-97"/>
     <use x="147.558594" xlink:href="#DejaVuSans-99"/>
     <use x="202.539062" xlink:href="#DejaVuSans-97"/>
     <use x="263.818359" xlink:href="#DejaVuSans-117"/>
     <use x="327.197266" xlink:href="#DejaVuSans-32"/>
     <use x="358.984375" xlink:href="#DejaVuSans-114"/>
     <use x="397.847656" xlink:href="#DejaVuSans-101"/>
     <use x="459.371094" xlink:href="#DejaVuSans-115"/>
     <use x="511.470703" xlink:href="#DejaVuSans-105"/>
     <use x="539.253906" xlink:href="#DejaVuSans-100"/>
     <use x="602.730469" xlink:href="#DejaVuSans-101"/>
     <use x="664.253906" xlink:href="#DejaVuSans-110"/>
     <use x="727.632812" xlink:href="#DejaVuSans-116"/>
     <use x="766.841797" xlink:href="#DejaVuSans-105"/>
     <use x="794.625" xlink:href="#DejaVuSans-97"/>
     <use x="855.904297" xlink:href="#DejaVuSans-108"/>
     <use x="883.6875" xlink:href="#DejaVuSans-32"/>
     <use x="915.474609" xlink:href="#DejaVuSans-50"/>
     <use x="979.097656" xlink:href="#DejaVuSans-48"/>
     <use x="1042.720703" xlink:href="#DejaVuSans-50"/>
     <use x="1106.34375" xlink:href="#DejaVuSans-48"/>
     <use x="1169.966797" xlink:href="#DejaVuSans-45"/>
     <use x="1206.050781" xlink:href="#DejaVuSans-50"/>
     <use x="1269.673828" xlink:href="#DejaVuSans-48"/>
     <use x="1333.296875" xlink:href="#DejaVuSans-50"/>
     <use x="1396.919922" xlink:href="#DejaVuSans-49"/>
     <use x="1460.542969" xlink:href="#DejaVuSans-32"/>
     <use x="1492.330078" xlink:href="#DejaVuSans-124"/>
     <use x="1526.021484" xlink:href="#DejaVuSans-32"/>
     <use x="1557.808594" xlink:href="#DejaVuSans-70"/>
     <use x="1611.703125" xlink:href="#DejaVuSans-111"/>
     <use x="1672.884766" xlink:href="#DejaVuSans-114"/>
     <use x="1711.748047" xlink:href="#DejaVuSans-101"/>
     <use x="1773.271484" xlink:href="#DejaVuSans-99"/>
     <use x="1828.251953" xlink:href="#DejaVuSans-97"/>
     <use x="1889.53125" xlink:href="#DejaVuSans-115"/>
     <use x="1941.630859" xlink:href="#DejaVuSans-116"/>
     <use x="1980.839844" xlink:href="#DejaVuSans-32"/>
     <use x="2012.626953" xlink:href="#DejaVuSans-118"/>
     <use x="2071.806641" xlink:href="#DejaVuSans-115"/>
     <use x="2123.90625" xlink:href="#DejaVuSans-32"/>
     <use x="2155.693359" xlink:href="#DejaVuSans-77"/>
     <use x="2241.972656" xlink:href="#DejaVuSans-111"/>
     <use x="2303.154297" xlink:href="#DejaVuSans-110"/>
     <use x="2366.533203" xlink:href="#DejaVuSans-105"/>
     <use x="2394.316406" xlink:href="#DejaVuSans-116"/>
     <use x="2433.525391" xlink:href="#DejaVuSans-111"/>
     <use x="2494.707031" xlink:href="#DejaVuSans-114"/>
     <use x="2533.570312" xlink:href="#DejaVuSans-101"/>
     <use x="2595.09375" xlink:href="#DejaVuSans-100"/>
     <use x="2658.570312" xlink:href="#DejaVuSans-32"/>
     <use x="2690.357422" xlink:href="#DejaVuSans-124"/>
     <use x="2724.048828" xlink:href="#DejaVuSans-32"/>
     <use x="2755.835938" xlink:href="#DejaVuSans-71"/>
     <use x="2833.326172" xlink:href="#DejaVuSans-82"/>
     <use x="2902.808594" xlink:href="#DejaVuSans-85"/>
    </g>
   </g>
   <g id="legend_1">
    <g id="patch_7">
     <path d="M 605.76375 114.615 
L 769.2 114.615 
Q 771.6 114.615 771.6 112.215 
L 771.6 77.52 
Q 771.6 75.12 769.2 75.12 
L 605.76375 75.12 
Q 603.36375 75.12 603.36375 77.52 
L 603.36375 112.215 
Q 603.36375 114.615 605.76375 114.615 
z
" style="fill:#ffffff;opacity:0.8;stroke:#cccccc;stroke-linejoin:miter;"/>
    </g>
    <g id="line2d_19">
     <path d="M 608.16375 84.838125 
L 632.16375 84.838125 
" style="fill:none;stroke:#1f77b4;stroke-linecap:square;stroke-width:1.5;"/>
    </g>
    <g id="line2d_20"/>
    <g id="text_20">
     <!-- measured_data_NO2 -->
     <g transform="translate(641.76375 89.038125)scale(0.12 -0.12)">
      <defs>
       <path d="M 50.984375 -16.609375 
L 50.984375 -23.578125 
L -0.984375 -23.578125 
L -0.984375 -16.609375 
z
" id="DejaVuSans-95"/>
      </defs>
      <use xlink:href="#DejaVuSans-109"/>
      <use x="97.412109" xlink:href="#DejaVuSans-101"/>
      <use x="158.935547" xlink:href="#DejaVuSans-97"/>
      <use x="220.214844" xlink:href="#DejaVuSans-115"/>
      <use x="272.314453" xlink:href="#DejaVuSans-117"/>
      <use x="335.693359" xlink:href="#DejaVuSans-114"/>
      <use x="374.556641" xlink:href="#DejaVuSans-101"/>
      <use x="436.080078" xlink:href="#DejaVuSans-100"/>
      <use x="499.556641" xlink:href="#DejaVuSans-95"/>
      <use x="549.556641" xlink:href="#DejaVuSans-100"/>
      <use x="613.033203" xlink:href="#DejaVuSans-97"/>
      <use x="674.3125" xlink:href="#DejaVuSans-116"/>
      <use x="713.521484" xlink:href="#DejaVuSans-97"/>
      <use x="774.800781" xlink:href="#DejaVuSans-95"/>
      <use x="824.800781" xlink:href="#DejaVuSans-78"/>
      <use x="899.605469" xlink:href="#DejaVuSans-79"/>
      <use x="978.316406" xlink:href="#DejaVuSans-50"/>
     </g>
    </g>
    <g id="line2d_21">
     <path d="M 608.16375 102.785625 
L 632.16375 102.785625 
" style="fill:none;stroke:#ff0000;stroke-dasharray:5.55,2.4;stroke-dashoffset:0;stroke-width:1.5;"/>
    </g>
    <g id="line2d_22"/>
    <g id="text_21">
     <!-- predicted_data_NO2 -->
     <g transform="translate(641.76375 106.985625)scale(0.12 -0.12)">
      <use xlink:href="#DejaVuSans-112"/>
      <use x="63.476562" xlink:href="#DejaVuSans-114"/>
      <use x="102.339844" xlink:href="#DejaVuSans-101"/>
      <use x="163.863281" xlink:href="#DejaVuSans-100"/>
      <use x="227.339844" xlink:href="#DejaVuSans-105"/>
      <use x="255.123047" xlink:href="#DejaVuSans-99"/>
      <use x="310.103516" xlink:href="#DejaVuSans-116"/>
      <use x="349.3125" xlink:href="#DejaVuSans-101"/>
      <use x="410.835938" xlink:href="#DejaVuSans-100"/>
      <use x="474.3125" xlink:href="#DejaVuSans-95"/>
      <use x="524.3125" xlink:href="#DejaVuSans-100"/>
      <use x="587.789062" xlink:href="#DejaVuSans-97"/>
      <use x="649.068359" xlink:href="#DejaVuSans-116"/>
      <use x="688.277344" xlink:href="#DejaVuSans-97"/>
      <use x="749.556641" xlink:href="#DejaVuSans-95"/>
      <use x="799.556641" xlink:href="#DejaVuSans-78"/>
      <use x="874.361328" xlink:href="#DejaVuSans-79"/>
      <use x="953.072266" xlink:href="#DejaVuSans-50"/>
     </g>
    </g>
   </g>
  </g>
 </g>
 <defs>
  <clipPath id="p7256589144">
   <rect height="391.68" width="669.6" x="108" y="69.12"/>
  </clipPath>
 </defs>
</svg>
