<?xml version="1.0" encoding="utf-8" standalone="no"?>
<!DOCTYPE svg PUBLIC "-//W3C//DTD SVG 1.1//EN"
  "http://www.w3.org/Graphics/SVG/1.1/DTD/svg11.dtd">
<!-- Created with matplotlib (https://matplotlib.org/) -->
<svg height="576pt" version="1.1" viewBox="0 0 864 576" width="864pt" xmlns="http://www.w3.org/2000/svg" xmlns:xlink="http://www.w3.org/1999/xlink">
 <metadata>
  <rdf:RDF xmlns:cc="http://creativecommons.org/ns#" xmlns:dc="http://purl.org/dc/elements/1.1/" xmlns:rdf="http://www.w3.org/1999/02/22-rdf-syntax-ns#">
   <cc:Work>
    <dc:type rdf:resource="http://purl.org/dc/dcmitype/StillImage"/>
    <dc:date>2024-03-08T18:53:16.465463</dc:date>
    <dc:format>image/svg+xml</dc:format>
    <dc:creator>
     <cc:Agent>
      <dc:title>Matplotlib v3.3.4, https://matplotlib.org/</dc:title>
     </cc:Agent>
    </dc:creator>
   </cc:Work>
  </rdf:RDF>
 </metadata>
 <defs>
  <style type="text/css">*{stroke-linecap:butt;stroke-linejoin:round;}</style>
 </defs>
 <g id="figure_1">
  <g id="patch_1">
   <path d="M 0 576 
L 864 576 
L 864 0 
L 0 0 
z
" style="fill:#ffffff;"/>
  </g>
  <g id="axes_1">
   <g id="patch_2">
    <path d="M 108 460.8 
L 777.6 460.8 
L 777.6 69.12 
L 108 69.12 
z
" style="fill:#ffffff;"/>
   </g>
   <g id="matplotlib.axis_1">
    <g id="xtick_1">
     <g id="line2d_1">
      <defs>
       <path d="M 0 0 
L 0 3.5 
" id="mc3e916e64a" style="stroke:#000000;stroke-width:0.8;"/>
      </defs>
      <g>
       <use style="stroke:#000000;stroke-width:0.8;" x="138.436364" xlink:href="#mc3e916e64a" y="460.8"/>
      </g>
     </g>
     <g id="text_1">
      <!-- 2020-01 -->
      <g transform="translate(93.766579 500.766215)rotate(-30)scale(0.12 -0.12)">
       <defs>
        <path d="M 19.1875 8.296875 
L 53.609375 8.296875 
L 53.609375 0 
L 7.328125 0 
L 7.328125 8.296875 
Q 12.9375 14.109375 22.625 23.890625 
Q 32.328125 33.6875 34.8125 36.53125 
Q 39.546875 41.84375 41.421875 45.53125 
Q 43.3125 49.21875 43.3125 52.78125 
Q 43.3125 58.59375 39.234375 62.25 
Q 35.15625 65.921875 28.609375 65.921875 
Q 23.96875 65.921875 18.8125 64.3125 
Q 13.671875 62.703125 7.8125 59.421875 
L 7.8125 69.390625 
Q 13.765625 71.78125 18.9375 73 
Q 24.125 74.21875 28.421875 74.21875 
Q 39.75 74.21875 46.484375 68.546875 
Q 53.21875 62.890625 53.21875 53.421875 
Q 53.21875 48.921875 51.53125 44.890625 
Q 49.859375 40.875 45.40625 35.40625 
Q 44.1875 33.984375 37.640625 27.21875 
Q 31.109375 20.453125 19.1875 8.296875 
z
" id="DejaVuSans-50"/>
        <path d="M 31.78125 66.40625 
Q 24.171875 66.40625 20.328125 58.90625 
Q 16.5 51.421875 16.5 36.375 
Q 16.5 21.390625 20.328125 13.890625 
Q 24.171875 6.390625 31.78125 6.390625 
Q 39.453125 6.390625 43.28125 13.890625 
Q 47.125 21.390625 47.125 36.375 
Q 47.125 51.421875 43.28125 58.90625 
Q 39.453125 66.40625 31.78125 66.40625 
z
M 31.78125 74.21875 
Q 44.046875 74.21875 50.515625 64.515625 
Q 56.984375 54.828125 56.984375 36.375 
Q 56.984375 17.96875 50.515625 8.265625 
Q 44.046875 -1.421875 31.78125 -1.421875 
Q 19.53125 -1.421875 13.0625 8.265625 
Q 6.59375 17.96875 6.59375 36.375 
Q 6.59375 54.828125 13.0625 64.515625 
Q 19.53125 74.21875 31.78125 74.21875 
z
" id="DejaVuSans-48"/>
        <path d="M 4.890625 31.390625 
L 31.203125 31.390625 
L 31.203125 23.390625 
L 4.890625 23.390625 
z
" id="DejaVuSans-45"/>
        <path d="M 12.40625 8.296875 
L 28.515625 8.296875 
L 28.515625 63.921875 
L 10.984375 60.40625 
L 10.984375 69.390625 
L 28.421875 72.90625 
L 38.28125 72.90625 
L 38.28125 8.296875 
L 54.390625 8.296875 
L 54.390625 0 
L 12.40625 0 
z
" id="DejaVuSans-49"/>
       </defs>
       <use xlink:href="#DejaVuSans-50"/>
       <use x="63.623047" xlink:href="#DejaVuSans-48"/>
       <use x="127.246094" xlink:href="#DejaVuSans-50"/>
       <use x="190.869141" xlink:href="#DejaVuSans-48"/>
       <use x="254.492188" xlink:href="#DejaVuSans-45"/>
       <use x="290.576172" xlink:href="#DejaVuSans-48"/>
       <use x="354.199219" xlink:href="#DejaVuSans-49"/>
      </g>
     </g>
    </g>
    <g id="xtick_2">
     <g id="line2d_2">
      <g>
       <use style="stroke:#000000;stroke-width:0.8;" x="214.318804" xlink:href="#mc3e916e64a" y="460.8"/>
      </g>
     </g>
     <g id="text_2">
      <!-- 2020-04 -->
      <g transform="translate(169.64902 500.766215)rotate(-30)scale(0.12 -0.12)">
       <defs>
        <path d="M 37.796875 64.3125 
L 12.890625 25.390625 
L 37.796875 25.390625 
z
M 35.203125 72.90625 
L 47.609375 72.90625 
L 47.609375 25.390625 
L 58.015625 25.390625 
L 58.015625 17.1875 
L 47.609375 17.1875 
L 47.609375 0 
L 37.796875 0 
L 37.796875 17.1875 
L 4.890625 17.1875 
L 4.890625 26.703125 
z
" id="DejaVuSans-52"/>
       </defs>
       <use xlink:href="#DejaVuSans-50"/>
       <use x="63.623047" xlink:href="#DejaVuSans-48"/>
       <use x="127.246094" xlink:href="#DejaVuSans-50"/>
       <use x="190.869141" xlink:href="#DejaVuSans-48"/>
       <use x="254.492188" xlink:href="#DejaVuSans-45"/>
       <use x="290.576172" xlink:href="#DejaVuSans-48"/>
       <use x="354.199219" xlink:href="#DejaVuSans-52"/>
      </g>
     </g>
    </g>
    <g id="xtick_3">
     <g id="line2d_3">
      <g>
       <use style="stroke:#000000;stroke-width:0.8;" x="290.201245" xlink:href="#mc3e916e64a" y="460.8"/>
      </g>
     </g>
     <g id="text_3">
      <!-- 2020-07 -->
      <g transform="translate(245.53146 500.766215)rotate(-30)scale(0.12 -0.12)">
       <defs>
        <path d="M 8.203125 72.90625 
L 55.078125 72.90625 
L 55.078125 68.703125 
L 28.609375 0 
L 18.3125 0 
L 43.21875 64.59375 
L 8.203125 64.59375 
z
" id="DejaVuSans-55"/>
       </defs>
       <use xlink:href="#DejaVuSans-50"/>
       <use x="63.623047" xlink:href="#DejaVuSans-48"/>
       <use x="127.246094" xlink:href="#DejaVuSans-50"/>
       <use x="190.869141" xlink:href="#DejaVuSans-48"/>
       <use x="254.492188" xlink:href="#DejaVuSans-45"/>
       <use x="290.576172" xlink:href="#DejaVuSans-48"/>
       <use x="354.199219" xlink:href="#DejaVuSans-55"/>
      </g>
     </g>
    </g>
    <g id="xtick_4">
     <g id="line2d_4">
      <g>
       <use style="stroke:#000000;stroke-width:0.8;" x="366.917559" xlink:href="#mc3e916e64a" y="460.8"/>
      </g>
     </g>
     <g id="text_4">
      <!-- 2020-10 -->
      <g transform="translate(322.247774 500.766215)rotate(-30)scale(0.12 -0.12)">
       <use xlink:href="#DejaVuSans-50"/>
       <use x="63.623047" xlink:href="#DejaVuSans-48"/>
       <use x="127.246094" xlink:href="#DejaVuSans-50"/>
       <use x="190.869141" xlink:href="#DejaVuSans-48"/>
       <use x="254.492188" xlink:href="#DejaVuSans-45"/>
       <use x="290.576172" xlink:href="#DejaVuSans-49"/>
       <use x="354.199219" xlink:href="#DejaVuSans-48"/>
      </g>
     </g>
    </g>
    <g id="xtick_5">
     <g id="line2d_5">
      <g>
       <use style="stroke:#000000;stroke-width:0.8;" x="443.633873" xlink:href="#mc3e916e64a" y="460.8"/>
      </g>
     </g>
     <g id="text_5">
      <!-- 2021-01 -->
      <g transform="translate(398.964088 500.766215)rotate(-30)scale(0.12 -0.12)">
       <use xlink:href="#DejaVuSans-50"/>
       <use x="63.623047" xlink:href="#DejaVuSans-48"/>
       <use x="127.246094" xlink:href="#DejaVuSans-50"/>
       <use x="190.869141" xlink:href="#DejaVuSans-49"/>
       <use x="254.492188" xlink:href="#DejaVuSans-45"/>
       <use x="290.576172" xlink:href="#DejaVuSans-48"/>
       <use x="354.199219" xlink:href="#DejaVuSans-49"/>
      </g>
     </g>
    </g>
    <g id="xtick_6">
     <g id="line2d_6">
      <g>
       <use style="stroke:#000000;stroke-width:0.8;" x="518.682441" xlink:href="#mc3e916e64a" y="460.8"/>
      </g>
     </g>
     <g id="text_6">
      <!-- 2021-04 -->
      <g transform="translate(474.012656 500.766215)rotate(-30)scale(0.12 -0.12)">
       <use xlink:href="#DejaVuSans-50"/>
       <use x="63.623047" xlink:href="#DejaVuSans-48"/>
       <use x="127.246094" xlink:href="#DejaVuSans-50"/>
       <use x="190.869141" xlink:href="#DejaVuSans-49"/>
       <use x="254.492188" xlink:href="#DejaVuSans-45"/>
       <use x="290.576172" xlink:href="#DejaVuSans-48"/>
       <use x="354.199219" xlink:href="#DejaVuSans-52"/>
      </g>
     </g>
    </g>
    <g id="xtick_7">
     <g id="line2d_7">
      <g>
       <use style="stroke:#000000;stroke-width:0.8;" x="594.564882" xlink:href="#mc3e916e64a" y="460.8"/>
      </g>
     </g>
     <g id="text_7">
      <!-- 2021-07 -->
      <g transform="translate(549.895097 500.766215)rotate(-30)scale(0.12 -0.12)">
       <use xlink:href="#DejaVuSans-50"/>
       <use x="63.623047" xlink:href="#DejaVuSans-48"/>
       <use x="127.246094" xlink:href="#DejaVuSans-50"/>
       <use x="190.869141" xlink:href="#DejaVuSans-49"/>
       <use x="254.492188" xlink:href="#DejaVuSans-45"/>
       <use x="290.576172" xlink:href="#DejaVuSans-48"/>
       <use x="354.199219" xlink:href="#DejaVuSans-55"/>
      </g>
     </g>
    </g>
    <g id="xtick_8">
     <g id="line2d_8">
      <g>
       <use style="stroke:#000000;stroke-width:0.8;" x="671.281196" xlink:href="#mc3e916e64a" y="460.8"/>
      </g>
     </g>
     <g id="text_8">
      <!-- 2021-10 -->
      <g transform="translate(626.611411 500.766215)rotate(-30)scale(0.12 -0.12)">
       <use xlink:href="#DejaVuSans-50"/>
       <use x="63.623047" xlink:href="#DejaVuSans-48"/>
       <use x="127.246094" xlink:href="#DejaVuSans-50"/>
       <use x="190.869141" xlink:href="#DejaVuSans-49"/>
       <use x="254.492188" xlink:href="#DejaVuSans-45"/>
       <use x="290.576172" xlink:href="#DejaVuSans-49"/>
       <use x="354.199219" xlink:href="#DejaVuSans-48"/>
      </g>
     </g>
    </g>
    <g id="xtick_9">
     <g id="line2d_9">
      <g>
       <use style="stroke:#000000;stroke-width:0.8;" x="747.997509" xlink:href="#mc3e916e64a" y="460.8"/>
      </g>
     </g>
     <g id="text_9">
      <!-- 2022-01 -->
      <g transform="translate(703.327724 500.766215)rotate(-30)scale(0.12 -0.12)">
       <use xlink:href="#DejaVuSans-50"/>
       <use x="63.623047" xlink:href="#DejaVuSans-48"/>
       <use x="127.246094" xlink:href="#DejaVuSans-50"/>
       <use x="190.869141" xlink:href="#DejaVuSans-50"/>
       <use x="254.492188" xlink:href="#DejaVuSans-45"/>
       <use x="290.576172" xlink:href="#DejaVuSans-48"/>
       <use x="354.199219" xlink:href="#DejaVuSans-49"/>
      </g>
     </g>
    </g>
    <g id="text_10">
     <!-- Date -->
     <g transform="translate(424.873828 518.325146)scale(0.15 -0.15)">
      <defs>
       <path d="M 19.671875 64.796875 
L 19.671875 8.109375 
L 31.59375 8.109375 
Q 46.6875 8.109375 53.6875 14.9375 
Q 60.6875 21.78125 60.6875 36.53125 
Q 60.6875 51.171875 53.6875 57.984375 
Q 46.6875 64.796875 31.59375 64.796875 
z
M 9.8125 72.90625 
L 30.078125 72.90625 
Q 51.265625 72.90625 61.171875 64.09375 
Q 71.09375 55.28125 71.09375 36.53125 
Q 71.09375 17.671875 61.125 8.828125 
Q 51.171875 0 30.078125 0 
L 9.8125 0 
z
" id="DejaVuSans-68"/>
       <path d="M 34.28125 27.484375 
Q 23.390625 27.484375 19.1875 25 
Q 14.984375 22.515625 14.984375 16.5 
Q 14.984375 11.71875 18.140625 8.90625 
Q 21.296875 6.109375 26.703125 6.109375 
Q 34.1875 6.109375 38.703125 11.40625 
Q 43.21875 16.703125 43.21875 25.484375 
L 43.21875 27.484375 
z
M 52.203125 31.203125 
L 52.203125 0 
L 43.21875 0 
L 43.21875 8.296875 
Q 40.140625 3.328125 35.546875 0.953125 
Q 30.953125 -1.421875 24.3125 -1.421875 
Q 15.921875 -1.421875 10.953125 3.296875 
Q 6 8.015625 6 15.921875 
Q 6 25.140625 12.171875 29.828125 
Q 18.359375 34.515625 30.609375 34.515625 
L 43.21875 34.515625 
L 43.21875 35.40625 
Q 43.21875 41.609375 39.140625 45 
Q 35.0625 48.390625 27.6875 48.390625 
Q 23 48.390625 18.546875 47.265625 
Q 14.109375 46.140625 10.015625 43.890625 
L 10.015625 52.203125 
Q 14.9375 54.109375 19.578125 55.046875 
Q 24.21875 56 28.609375 56 
Q 40.484375 56 46.34375 49.84375 
Q 52.203125 43.703125 52.203125 31.203125 
z
" id="DejaVuSans-97"/>
       <path d="M 18.3125 70.21875 
L 18.3125 54.6875 
L 36.8125 54.6875 
L 36.8125 47.703125 
L 18.3125 47.703125 
L 18.3125 18.015625 
Q 18.3125 11.328125 20.140625 9.421875 
Q 21.96875 7.515625 27.59375 7.515625 
L 36.8125 7.515625 
L 36.8125 0 
L 27.59375 0 
Q 17.1875 0 13.234375 3.875 
Q 9.28125 7.765625 9.28125 18.015625 
L 9.28125 47.703125 
L 2.6875 47.703125 
L 2.6875 54.6875 
L 9.28125 54.6875 
L 9.28125 70.21875 
z
" id="DejaVuSans-116"/>
       <path d="M 56.203125 29.59375 
L 56.203125 25.203125 
L 14.890625 25.203125 
Q 15.484375 15.921875 20.484375 11.0625 
Q 25.484375 6.203125 34.421875 6.203125 
Q 39.59375 6.203125 44.453125 7.46875 
Q 49.3125 8.734375 54.109375 11.28125 
L 54.109375 2.78125 
Q 49.265625 0.734375 44.1875 -0.34375 
Q 39.109375 -1.421875 33.890625 -1.421875 
Q 20.796875 -1.421875 13.15625 6.1875 
Q 5.515625 13.8125 5.515625 26.8125 
Q 5.515625 40.234375 12.765625 48.109375 
Q 20.015625 56 32.328125 56 
Q 43.359375 56 49.78125 48.890625 
Q 56.203125 41.796875 56.203125 29.59375 
z
M 47.21875 32.234375 
Q 47.125 39.59375 43.09375 43.984375 
Q 39.0625 48.390625 32.421875 48.390625 
Q 24.90625 48.390625 20.390625 44.140625 
Q 15.875 39.890625 15.1875 32.171875 
z
" id="DejaVuSans-101"/>
      </defs>
      <use xlink:href="#DejaVuSans-68"/>
      <use x="77.001953" xlink:href="#DejaVuSans-97"/>
      <use x="138.28125" xlink:href="#DejaVuSans-116"/>
      <use x="177.490234" xlink:href="#DejaVuSans-101"/>
     </g>
    </g>
   </g>
   <g id="matplotlib.axis_2">
    <g id="ytick_1">
     <g id="line2d_10">
      <defs>
       <path d="M 0 0 
L -3.5 0 
" id="m9ab3274894" style="stroke:#000000;stroke-width:0.8;"/>
      </defs>
      <g>
       <use style="stroke:#000000;stroke-width:0.8;" x="108" xlink:href="#m9ab3274894" y="446.50991"/>
      </g>
     </g>
     <g id="text_11">
      <!-- 0 -->
      <g transform="translate(93.365 451.068972)scale(0.12 -0.12)">
       <use xlink:href="#DejaVuSans-48"/>
      </g>
     </g>
    </g>
    <g id="ytick_2">
     <g id="line2d_11">
      <g>
       <use style="stroke:#000000;stroke-width:0.8;" x="108" xlink:href="#m9ab3274894" y="383.84746"/>
      </g>
     </g>
     <g id="text_12">
      <!-- 20 -->
      <g transform="translate(85.73 388.406523)scale(0.12 -0.12)">
       <use xlink:href="#DejaVuSans-50"/>
       <use x="63.623047" xlink:href="#DejaVuSans-48"/>
      </g>
     </g>
    </g>
    <g id="ytick_3">
     <g id="line2d_12">
      <g>
       <use style="stroke:#000000;stroke-width:0.8;" x="108" xlink:href="#m9ab3274894" y="321.185011"/>
      </g>
     </g>
     <g id="text_13">
      <!-- 40 -->
      <g transform="translate(85.73 325.744073)scale(0.12 -0.12)">
       <use xlink:href="#DejaVuSans-52"/>
       <use x="63.623047" xlink:href="#DejaVuSans-48"/>
      </g>
     </g>
    </g>
    <g id="ytick_4">
     <g id="line2d_13">
      <g>
       <use style="stroke:#000000;stroke-width:0.8;" x="108" xlink:href="#m9ab3274894" y="258.522561"/>
      </g>
     </g>
     <g id="text_14">
      <!-- 60 -->
      <g transform="translate(85.73 263.081624)scale(0.12 -0.12)">
       <defs>
        <path d="M 33.015625 40.375 
Q 26.375 40.375 22.484375 35.828125 
Q 18.609375 31.296875 18.609375 23.390625 
Q 18.609375 15.53125 22.484375 10.953125 
Q 26.375 6.390625 33.015625 6.390625 
Q 39.65625 6.390625 43.53125 10.953125 
Q 47.40625 15.53125 47.40625 23.390625 
Q 47.40625 31.296875 43.53125 35.828125 
Q 39.65625 40.375 33.015625 40.375 
z
M 52.59375 71.296875 
L 52.59375 62.3125 
Q 48.875 64.0625 45.09375 64.984375 
Q 41.3125 65.921875 37.59375 65.921875 
Q 27.828125 65.921875 22.671875 59.328125 
Q 17.53125 52.734375 16.796875 39.40625 
Q 19.671875 43.65625 24.015625 45.921875 
Q 28.375 48.1875 33.59375 48.1875 
Q 44.578125 48.1875 50.953125 41.515625 
Q 57.328125 34.859375 57.328125 23.390625 
Q 57.328125 12.15625 50.6875 5.359375 
Q 44.046875 -1.421875 33.015625 -1.421875 
Q 20.359375 -1.421875 13.671875 8.265625 
Q 6.984375 17.96875 6.984375 36.375 
Q 6.984375 53.65625 15.1875 63.9375 
Q 23.390625 74.21875 37.203125 74.21875 
Q 40.921875 74.21875 44.703125 73.484375 
Q 48.484375 72.75 52.59375 71.296875 
z
" id="DejaVuSans-54"/>
       </defs>
       <use xlink:href="#DejaVuSans-54"/>
       <use x="63.623047" xlink:href="#DejaVuSans-48"/>
      </g>
     </g>
    </g>
    <g id="ytick_5">
     <g id="line2d_14">
      <g>
       <use style="stroke:#000000;stroke-width:0.8;" x="108" xlink:href="#m9ab3274894" y="195.860112"/>
      </g>
     </g>
     <g id="text_15">
      <!-- 80 -->
      <g transform="translate(85.73 200.419174)scale(0.12 -0.12)">
       <defs>
        <path d="M 31.78125 34.625 
Q 24.75 34.625 20.71875 30.859375 
Q 16.703125 27.09375 16.703125 20.515625 
Q 16.703125 13.921875 20.71875 10.15625 
Q 24.75 6.390625 31.78125 6.390625 
Q 38.8125 6.390625 42.859375 10.171875 
Q 46.921875 13.96875 46.921875 20.515625 
Q 46.921875 27.09375 42.890625 30.859375 
Q 38.875 34.625 31.78125 34.625 
z
M 21.921875 38.8125 
Q 15.578125 40.375 12.03125 44.71875 
Q 8.5 49.078125 8.5 55.328125 
Q 8.5 64.0625 14.71875 69.140625 
Q 20.953125 74.21875 31.78125 74.21875 
Q 42.671875 74.21875 48.875 69.140625 
Q 55.078125 64.0625 55.078125 55.328125 
Q 55.078125 49.078125 51.53125 44.71875 
Q 48 40.375 41.703125 38.8125 
Q 48.828125 37.15625 52.796875 32.3125 
Q 56.78125 27.484375 56.78125 20.515625 
Q 56.78125 9.90625 50.3125 4.234375 
Q 43.84375 -1.421875 31.78125 -1.421875 
Q 19.734375 -1.421875 13.25 4.234375 
Q 6.78125 9.90625 6.78125 20.515625 
Q 6.78125 27.484375 10.78125 32.3125 
Q 14.796875 37.15625 21.921875 38.8125 
z
M 18.3125 54.390625 
Q 18.3125 48.734375 21.84375 45.5625 
Q 25.390625 42.390625 31.78125 42.390625 
Q 38.140625 42.390625 41.71875 45.5625 
Q 45.3125 48.734375 45.3125 54.390625 
Q 45.3125 60.0625 41.71875 63.234375 
Q 38.140625 66.40625 31.78125 66.40625 
Q 25.390625 66.40625 21.84375 63.234375 
Q 18.3125 60.0625 18.3125 54.390625 
z
" id="DejaVuSans-56"/>
       </defs>
       <use xlink:href="#DejaVuSans-56"/>
       <use x="63.623047" xlink:href="#DejaVuSans-48"/>
      </g>
     </g>
    </g>
    <g id="ytick_6">
     <g id="line2d_15">
      <g>
       <use style="stroke:#000000;stroke-width:0.8;" x="108" xlink:href="#m9ab3274894" y="133.197662"/>
      </g>
     </g>
     <g id="text_16">
      <!-- 100 -->
      <g transform="translate(78.095 137.756725)scale(0.12 -0.12)">
       <use xlink:href="#DejaVuSans-49"/>
       <use x="63.623047" xlink:href="#DejaVuSans-48"/>
       <use x="127.246094" xlink:href="#DejaVuSans-48"/>
      </g>
     </g>
    </g>
    <g id="ytick_7">
     <g id="line2d_16">
      <g>
       <use style="stroke:#000000;stroke-width:0.8;" x="108" xlink:href="#m9ab3274894" y="70.535213"/>
      </g>
     </g>
     <g id="text_17">
      <!-- 120 -->
      <g transform="translate(78.095 75.094275)scale(0.12 -0.12)">
       <use xlink:href="#DejaVuSans-49"/>
       <use x="63.623047" xlink:href="#DejaVuSans-50"/>
       <use x="127.246094" xlink:href="#DejaVuSans-48"/>
      </g>
     </g>
    </g>
    <g id="text_18">
     <!-- NO2(ppm) -->
     <g transform="translate(70.975469 303.927188)rotate(-90)scale(0.15 -0.15)">
      <defs>
       <path d="M 9.8125 72.90625 
L 23.09375 72.90625 
L 55.421875 11.921875 
L 55.421875 72.90625 
L 64.984375 72.90625 
L 64.984375 0 
L 51.703125 0 
L 19.390625 60.984375 
L 19.390625 0 
L 9.8125 0 
z
" id="DejaVuSans-78"/>
       <path d="M 39.40625 66.21875 
Q 28.65625 66.21875 22.328125 58.203125 
Q 16.015625 50.203125 16.015625 36.375 
Q 16.015625 22.609375 22.328125 14.59375 
Q 28.65625 6.59375 39.40625 6.59375 
Q 50.140625 6.59375 56.421875 14.59375 
Q 62.703125 22.609375 62.703125 36.375 
Q 62.703125 50.203125 56.421875 58.203125 
Q 50.140625 66.21875 39.40625 66.21875 
z
M 39.40625 74.21875 
Q 54.734375 74.21875 63.90625 63.9375 
Q 73.09375 53.65625 73.09375 36.375 
Q 73.09375 19.140625 63.90625 8.859375 
Q 54.734375 -1.421875 39.40625 -1.421875 
Q 24.03125 -1.421875 14.8125 8.828125 
Q 5.609375 19.09375 5.609375 36.375 
Q 5.609375 53.65625 14.8125 63.9375 
Q 24.03125 74.21875 39.40625 74.21875 
z
" id="DejaVuSans-79"/>
       <path d="M 31 75.875 
Q 24.46875 64.65625 21.28125 53.65625 
Q 18.109375 42.671875 18.109375 31.390625 
Q 18.109375 20.125 21.3125 9.0625 
Q 24.515625 -2 31 -13.1875 
L 23.1875 -13.1875 
Q 15.875 -1.703125 12.234375 9.375 
Q 8.59375 20.453125 8.59375 31.390625 
Q 8.59375 42.28125 12.203125 53.3125 
Q 15.828125 64.359375 23.1875 75.875 
z
" id="DejaVuSans-40"/>
       <path d="M 18.109375 8.203125 
L 18.109375 -20.796875 
L 9.078125 -20.796875 
L 9.078125 54.6875 
L 18.109375 54.6875 
L 18.109375 46.390625 
Q 20.953125 51.265625 25.265625 53.625 
Q 29.59375 56 35.59375 56 
Q 45.5625 56 51.78125 48.09375 
Q 58.015625 40.1875 58.015625 27.296875 
Q 58.015625 14.40625 51.78125 6.484375 
Q 45.5625 -1.421875 35.59375 -1.421875 
Q 29.59375 -1.421875 25.265625 0.953125 
Q 20.953125 3.328125 18.109375 8.203125 
z
M 48.6875 27.296875 
Q 48.6875 37.203125 44.609375 42.84375 
Q 40.53125 48.484375 33.40625 48.484375 
Q 26.265625 48.484375 22.1875 42.84375 
Q 18.109375 37.203125 18.109375 27.296875 
Q 18.109375 17.390625 22.1875 11.75 
Q 26.265625 6.109375 33.40625 6.109375 
Q 40.53125 6.109375 44.609375 11.75 
Q 48.6875 17.390625 48.6875 27.296875 
z
" id="DejaVuSans-112"/>
       <path d="M 52 44.1875 
Q 55.375 50.25 60.0625 53.125 
Q 64.75 56 71.09375 56 
Q 79.640625 56 84.28125 50.015625 
Q 88.921875 44.046875 88.921875 33.015625 
L 88.921875 0 
L 79.890625 0 
L 79.890625 32.71875 
Q 79.890625 40.578125 77.09375 44.375 
Q 74.3125 48.1875 68.609375 48.1875 
Q 61.625 48.1875 57.5625 43.546875 
Q 53.515625 38.921875 53.515625 30.90625 
L 53.515625 0 
L 44.484375 0 
L 44.484375 32.71875 
Q 44.484375 40.625 41.703125 44.40625 
Q 38.921875 48.1875 33.109375 48.1875 
Q 26.21875 48.1875 22.15625 43.53125 
Q 18.109375 38.875 18.109375 30.90625 
L 18.109375 0 
L 9.078125 0 
L 9.078125 54.6875 
L 18.109375 54.6875 
L 18.109375 46.1875 
Q 21.1875 51.21875 25.484375 53.609375 
Q 29.78125 56 35.6875 56 
Q 41.65625 56 45.828125 52.96875 
Q 50 49.953125 52 44.1875 
z
" id="DejaVuSans-109"/>
       <path d="M 8.015625 75.875 
L 15.828125 75.875 
Q 23.140625 64.359375 26.78125 53.3125 
Q 30.421875 42.28125 30.421875 31.390625 
Q 30.421875 20.453125 26.78125 9.375 
Q 23.140625 -1.703125 15.828125 -13.1875 
L 8.015625 -13.1875 
Q 14.5 -2 17.703125 9.0625 
Q 20.90625 20.125 20.90625 31.390625 
Q 20.90625 42.671875 17.703125 53.65625 
Q 14.5 64.65625 8.015625 75.875 
z
" id="DejaVuSans-41"/>
      </defs>
      <use xlink:href="#DejaVuSans-78"/>
      <use x="74.804688" xlink:href="#DejaVuSans-79"/>
      <use x="153.515625" xlink:href="#DejaVuSans-50"/>
      <use x="217.138672" xlink:href="#DejaVuSans-40"/>
      <use x="256.152344" xlink:href="#DejaVuSans-112"/>
      <use x="319.628906" xlink:href="#DejaVuSans-112"/>
      <use x="383.105469" xlink:href="#DejaVuSans-109"/>
      <use x="480.517578" xlink:href="#DejaVuSans-41"/>
     </g>
    </g>
   </g>
   <g id="line2d_17">
    <path clip-path="url(#p6e5d754daa)" d="M 138.436364 317.117852 
L 139.270237 277.729124 
L 140.10411 202.544733 
L 140.937983 200.841463 
L 141.771856 265.069952 
L 142.605729 256.497474 
L 143.439601 229.257109 
L 145.107347 264.048972 
L 145.94122 225.953649 
L 146.775093 238.202957 
L 147.608966 323.44253 
L 148.442839 233.927602 
L 149.276712 265.425822 
L 150.110585 290.020155 
L 150.944458 260.735695 
L 151.778331 336.808535 
L 152.612204 266.942567 
L 153.446077 321.162505 
L 154.27995 282.632774 
L 155.113823 256.698405 
L 155.947696 220.780028 
L 156.781569 256.708222 
L 157.615442 300.625096 
L 158.449315 352.118329 
L 159.283188 414.87425 
L 160.117061 419.704272 
L 160.950934 417.213178 
L 161.784807 410.960848 
L 162.61868 409.909243 
L 163.452553 318.124107 
L 164.286426 287.450524 
L 165.120299 297.201376 
L 165.954172 278.25434 
L 166.788045 385.40081 
L 167.621918 356.425589 
L 168.455791 344.662229 
L 169.289664 362.12688 
L 170.123537 422.826115 
L 170.95741 423.498587 
L 171.791283 401.478794 
L 172.625156 315.956978 
L 173.459029 325.243971 
L 174.292902 318.781854 
L 175.960648 337.871238 
L 176.794521 428.662391 
L 177.628394 425.65099 
L 178.462267 356.835454 
L 179.296139 278.200346 
L 180.130012 270.123313 
L 180.963885 264.797527 
L 181.797758 271.053485 
L 182.631631 328.39772 
L 183.465504 308.603957 
L 184.299377 285.209767 
L 185.13325 302.364287 
L 185.967123 344.608234 
L 186.800996 286.927763 
L 187.634869 272.766572 
L 188.468742 333.433901 
L 189.302615 303.020472 
L 190.136488 335.839095 
L 190.970361 345.543315 
L 191.804234 347.673629 
L 192.638107 340.300974 
L 193.47198 281.916125 
L 194.305853 287.187917 
L 195.139726 313.14192 
L 195.973599 381.029739 
L 196.807472 325.786367 
L 197.641345 260.431364 
L 198.475218 268.886356 
L 199.309091 353.693976 
L 200.142964 357.736174 
L 201.81071 293.031555 
L 202.644583 262.831649 
L 203.478456 239.015323 
L 204.312329 274.442844 
L 205.146202 267.293529 
L 205.980075 324.878283 
L 206.813948 327.381648 
L 207.647821 339.03702 
L 208.481694 342.367477 
L 209.315567 324.225445 
L 210.14944 323.761586 
L 210.983313 338.109303 
L 211.817186 366.294246 
L 212.651059 355.240172 
L 213.484932 345.78138 
L 214.318804 346.866171 
L 215.152677 314.637003 
L 215.98655 320.647106 
L 216.820423 331.043433 
L 217.654296 352.479108 
L 218.488169 343.555349 
L 219.322042 312.251016 
L 220.155915 243.658303 
L 233.497883 341.243418 
L 235.999502 253.895618 
L 237.667248 338.891867 
L 238.501121 340.197895 
L 239.334994 365.027838 
L 240.168867 352.695085 
L 241.00274 375.230277 
L 241.836613 385.960386 
L 242.670486 384.220302 
L 243.504359 378.953419 
L 244.338232 377.336049 
L 245.172105 380.052936 
L 246.005978 381.361067 
L 246.839851 374.371279 
L 247.673724 338.960938 
L 248.507597 337.714164 
L 250.175342 355.529777 
L 251.009215 375.902749 
L 251.843088 384.031322 
L 252.676961 390.356 
L 253.510834 330.928082 
L 254.344707 343.43018 
L 255.17858 364.382363 
L 256.012453 360.504601 
L 256.846326 369.27865 
L 257.680199 347.26131 
L 258.514072 359.589155 
L 259.347945 335.645207 
L 260.181818 348.192885 
L 261.015691 331.70118 
L 261.849564 328.611242 
L 262.683437 355.105187 
L 263.51731 365.045018 
L 264.351183 402.806559 
L 265.185056 399.834427 
L 266.018929 389.047869 
L 266.852802 387.783915 
L 267.686675 391.489877 
L 268.520548 388.110335 
L 269.354421 358.170582 
L 270.188294 374.120943 
L 271.022167 373.647267 
L 271.85604 376.938455 
L 272.689913 388.863798 
L 273.523786 386.220539 
L 274.357659 385.069483 
L 275.191532 387.560576 
L 276.025405 393.895071 
L 276.859278 381.326707 
L 277.693151 400.86567 
L 278.527024 385.516161 
L 279.360897 393.08025 
L 280.19477 391.082467 
L 281.028643 397.787558 
L 281.862516 407.415695 
L 282.696389 398.779087 
L 283.530262 392.74156 
L 284.364134 389.443435 
L 285.198007 402.696116 
L 286.03188 401.002664 
L 286.865753 394.788428 
L 287.699626 401.471431 
L 288.533499 390.756048 
L 289.367372 390.765865 
L 290.201245 394.147862 
L 291.035118 384.46573 
L 291.868991 377.96189 
L 292.702864 385.830309 
L 293.536737 400.609979 
L 294.37061 399.309211 
L 295.204483 398.9018 
L 296.038356 399.70435 
L 296.872229 390.655422 
L 297.706102 403.39804 
L 298.539975 397.30161 
L 299.373848 409.519013 
L 300.207721 396.224182 
L 301.041594 397.760561 
L 301.875467 387.967986 
L 303.543213 405.160213 
L 304.377086 407.815743 
L 305.210959 403.677828 
L 306.044832 396.463101 
L 306.878705 391.460426 
L 307.712578 391.524237 
L 308.546451 392.74156 
L 309.380324 380.671414 
L 310.214197 389.843056 
L 311.04807 400.87995 
L 311.881943 400.551076 
L 312.715816 400.992846 
L 313.549689 398.140974 
L 314.383562 391.914467 
L 315.217435 406.54688 
L 316.051308 410.421295 
L 316.885181 387.150711 
L 317.719054 377.230515 
L 318.552927 386.62795 
L 319.3868 385.660964 
L 320.220672 396.535875 
L 321.054545 398.860078 
L 321.888418 404.870608 
L 322.722291 405.01541 
L 323.556164 383.353941 
L 324.390037 392.932993 
L 325.22391 386.711395 
L 326.057783 390.299552 
L 326.891656 389.438546 
L 327.725529 389.389014 
L 328.559402 404.323303 
L 330.227148 376.651305 
L 331.061021 385.913755 
L 331.894894 386.03156 
L 332.728767 361.299788 
L 334.396513 398.653918 
L 335.230386 388.161874 
L 336.064259 395.193255 
L 336.898132 392.277701 
L 337.732005 359.073756 
L 338.565878 358.263844 
L 340.233624 387.825638 
L 341.067497 382.467946 
L 343.569116 336.460027 
L 344.402989 360.563504 
L 345.236862 360.261628 
L 346.070735 380.129018 
L 346.904608 385.58979 
L 347.738481 382.146436 
L 348.572354 365.332169 
L 350.2401 390.115481 
L 351.073973 381.113184 
L 351.907846 383.037339 
L 352.741719 377.083258 
L 353.575592 384.782332 
L 354.409465 400.509353 
L 355.243337 394.805608 
L 356.07721 391.54878 
L 356.911083 386.897921 
L 357.744956 384.531995 
L 358.578829 382.877811 
L 359.412702 377.151978 
L 360.246575 373.453379 
L 361.080448 378.494468 
L 361.914321 345.157993 
L 362.748194 374.533262 
L 363.582067 384.384739 
L 364.41594 328.422263 
L 365.249813 349.610056 
L 366.083686 365.373891 
L 366.917559 385.629058 
L 367.751432 380.708228 
L 368.585305 362.936792 
L 369.419178 357.476021 
L 370.253051 370.007571 
L 371.086924 385.121022 
L 371.920797 394.020239 
L 372.75467 394.177313 
L 373.588543 376.457417 
L 374.422416 347.698172 
L 376.090162 362.259411 
L 376.924035 410.490907 
L 377.757908 357.696906 
L 378.591781 368.012242 
L 379.425654 354.459711 
L 380.259527 384.635075 
L 381.0934 386.10028 
L 381.927273 389.533817 
L 382.761146 387.192434 
L 383.595019 390.093392 
L 384.428892 389.202489 
L 385.262765 386.669673 
L 386.930511 343.884222 
L 387.764384 338.882401 
L 388.598257 338.992843 
L 389.43213 328.009944 
L 390.266002 371.546404 
L 391.099875 340.941541 
L 391.933748 328.532705 
L 392.767621 326.368031 
L 393.601494 346.230513 
L 394.435367 375.110017 
L 395.26924 328.032032 
L 396.103113 321.457018 
L 396.936986 264.662541 
L 397.770859 348.100674 
L 398.604732 354.707594 
L 399.438605 343.631431 
L 400.272478 309.995534 
L 401.106351 319.643306 
L 401.940224 300.251035 
L 402.774097 311.981046 
L 403.60797 339.768396 
L 404.441843 316.631905 
L 405.275716 304.569763 
L 406.109589 329.557313 
L 406.943462 314.499136 
L 407.777335 322.087768 
L 408.611208 333.090302 
L 409.445081 345.582583 
L 410.278954 339.233363 
L 411.112827 329.34998 
L 411.9467 288.476413 
L 412.780573 307.067579 
L 413.614446 301.670619 
L 414.448319 337.397562 
L 415.282192 364.674422 
L 416.116065 355.934733 
L 416.949938 360.295988 
L 417.783811 342.308575 
L 418.617684 336.032983 
L 419.451557 372.734275 
L 420.28543 364.897761 
L 421.119303 333.711234 
L 421.953176 266.289729 
L 422.787049 259.376024 
L 423.620922 318.6076 
L 425.288667 234.391461 
L 426.12254 216.037022 
L 426.956413 249.472687 
L 427.790286 303.863065 
L 428.624159 301.712341 
L 429.458032 337.661397 
L 430.291905 327.793967 
L 431.125778 328.974922 
L 431.959651 326.058792 
L 432.793524 339.132737 
L 433.627397 345.720023 
L 434.46127 325.636656 
L 436.129016 162.28719 
L 436.962889 299.277696 
L 437.796762 294.960619 
L 438.630635 328.829673 
L 439.464508 172.573074 
L 440.298381 259.599363 
L 441.132254 253.343405 
L 441.966127 371.232256 
L 442.8 366.007095 
L 443.633873 353.568808 
L 444.467746 276.796498 
L 445.301619 267.487417 
L 446.135492 227.993155 
L 446.969365 200.627941 
L 447.803238 279.056889 
L 448.637111 341.183463 
L 449.470984 370.078745 
L 450.304857 342.713531 
L 451.13873 322.203119 
L 451.972603 350.763567 
L 452.806476 306.289572 
L 453.640349 167.784776 
L 454.474222 88.759437 
L 455.308095 86.923636 
L 456.141968 178.301362 
L 456.975841 355.645128 
L 457.809714 282.873294 
L 458.643587 223.306151 
L 459.47746 235.73886 
L 460.311333 161.347201 
L 461.145205 285.759526 
L 461.979078 204.643633 
L 462.812951 278.497314 
L 463.646824 250.722235 
L 464.480697 236.715663 
L 465.31457 284.900528 
L 466.148443 345.935999 
L 466.982316 333.694054 
L 467.816189 308.761031 
L 469.483935 274.190053 
L 470.317808 288.41751 
L 471.151681 330.795551 
L 471.985554 287.276271 
L 472.819427 287.740129 
L 473.6533 254.546002 
L 474.487173 290.346574 
L 476.154919 322.733243 
L 476.988792 401.608871 
L 477.822665 406.27691 
L 478.656538 384.063228 
L 479.490411 348.228296 
L 480.324284 363.474279 
L 481.158157 321.515921 
L 481.99203 333.298916 
L 482.825903 387.78637 
L 483.659776 361.523127 
L 484.493649 314.825555 
L 485.327522 306.770611 
L 486.161395 331.519563 
L 486.995268 328.721685 
L 487.829141 321.901243 
L 488.663014 350.083731 
L 489.496887 319.989359 
L 490.33076 304.758102 
L 491.164633 361.022454 
L 491.998506 335.269702 
L 492.832379 266.35354 
L 493.666252 348.076131 
L 494.500125 329.693579 
L 495.333998 280.065598 
L 496.16787 282.897836 
L 498.669489 349.322905 
L 499.503362 316.060058 
L 500.337235 325.18016 
L 501.171108 329.035832 
L 502.004981 286.508081 
L 502.838854 323.113657 
L 503.672727 344.041296 
L 504.5066 328.400174 
L 505.340473 323.967746 
L 506.174346 331.998148 
L 507.008219 341.570904 
L 507.842092 354.955476 
L 508.675965 343.943125 
L 509.509838 371.394238 
L 510.343711 372.297413 
L 511.177584 310.108431 
L 512.011457 223.19013 
L 512.84533 280.514411 
L 513.679203 355.203358 
L 514.513076 303.526054 
L 515.346949 331.320766 
L 516.180822 375.546879 
L 517.014695 379.247932 
L 517.848568 366.942176 
L 518.682441 373.858335 
L 519.516314 365.221726 
L 520.350187 366.097904 
L 521.18406 357.520198 
L 522.017933 333.976297 
L 522.851806 328.746227 
L 523.685679 357.385212 
L 524.519552 329.909556 
L 525.353425 349.747495 
L 526.187298 342.627631 
L 527.021171 369.025859 
L 527.855044 348.267565 
L 528.688917 351.256877 
L 529.52279 364.561525 
L 530.356663 354.453018 
L 531.190535 341.685188 
L 532.024408 312.147937 
L 532.858281 358.065048 
L 533.692154 348.593984 
L 534.526027 349.094657 
L 535.3599 344.696588 
L 536.193773 326.485836 
L 537.027646 322.912406 
L 537.861519 364.259649 
L 538.695392 364.595885 
L 539.529265 355.083098 
L 540.363138 331.256955 
L 541.197011 336.339768 
L 542.030884 330.621297 
L 542.864757 271.019125 
L 543.69863 329.043195 
L 544.532503 343.663337 
L 545.366376 354.727228 
L 546.200249 355.083098 
L 547.034122 335.358056 
L 547.867995 360.421156 
L 548.701868 334.673312 
L 549.535741 342.556457 
L 550.369614 365.665951 
L 551.203487 376.184992 
L 552.03736 375.55915 
L 552.871233 380.705774 
L 553.705106 360.967121 
L 554.538979 337.2184 
L 555.372852 323.395899 
L 556.206725 315.09798 
L 557.040598 317.189026 
L 557.874471 318.818668 
L 558.708344 312.118485 
L 559.542217 311.551547 
L 560.37609 363.516002 
L 561.209963 380.629691 
L 562.043836 394.020239 
L 562.877709 376.575222 
L 563.711582 376.513865 
L 564.545455 383.39321 
L 565.379328 388.100517 
L 566.2132 382.293693 
L 567.047073 386.745755 
L 567.880946 380.875119 
L 568.714819 355.610768 
L 569.548692 357.709177 
L 570.382565 353.060772 
L 571.216438 373.497556 
L 572.050311 379.895862 
L 572.884184 325.48449 
L 573.718057 363.535636 
L 574.55193 362.622644 
L 575.385803 367.619557 
L 576.219676 359.142476 
L 577.053549 383.606732 
L 577.887422 392.307152 
L 578.721295 388.77299 
L 579.555168 379.608711 
L 580.389041 373.02388 
L 581.222914 374.020317 
L 582.056787 381.029739 
L 582.89066 380.41126 
L 583.724533 380.013667 
L 584.558406 374.53817 
L 585.392279 383.628821 
L 586.226152 363.454645 
L 587.060025 361.974715 
L 587.893898 345.90164 
L 588.727771 346.507847 
L 589.561644 331.148967 
L 590.395517 363.162586 
L 591.22939 387.226794 
L 592.063263 365.518694 
L 592.897136 375.173828 
L 593.731009 374.43509 
L 594.564882 380.926659 
L 595.398755 372.842263 
L 596.232628 382.02216 
L 597.066501 396.346896 
L 597.900374 406.983742 
L 598.734247 405.886679 
L 599.56812 391.099647 
L 600.401993 394.160133 
L 601.235866 393.868074 
L 602.903611 413.909718 
L 603.737484 400.217294 
L 604.571357 391.264083 
L 605.40523 389.609899 
L 606.239103 402.838464 
L 607.072976 383.915971 
L 607.906849 383.280313 
L 608.740722 402.053095 
L 609.574595 404.767528 
L 611.242341 359.284824 
L 612.076214 361.520673 
L 612.910087 351.016358 
L 613.74396 347.256402 
L 614.577833 383.071699 
L 615.411706 394.327024 
L 617.079452 377.645288 
L 617.913325 368.247852 
L 618.747198 372.186971 
L 619.581071 391.327895 
L 620.414944 384.470638 
L 621.248817 359.046759 
L 622.08269 389.970678 
L 622.916563 392.140261 
L 623.750436 368.569363 
L 624.584309 338.666424 
L 625.418182 348.000048 
L 626.252055 370.221093 
L 627.085928 386.286805 
L 627.919801 377.655105 
L 629.587547 386.115005 
L 630.42142 384.666981 
L 631.255293 372.964977 
L 632.089166 383.92088 
L 632.923039 374.616707 
L 633.756912 367.391309 
L 634.590785 376.077003 
L 635.424658 374.07922 
L 636.258531 377.426857 
L 637.092403 397.767923 
L 637.926276 405.957853 
L 639.594022 393.696274 
L 640.427895 392.11081 
L 641.261768 398.295594 
L 642.095641 374.155303 
L 642.929514 363.174857 
L 643.763387 383.437387 
L 644.59726 381.817562 
L 645.431133 378.521465 
L 646.265006 381.123001 
L 647.098879 395.522258 
L 647.932752 392.99435 
L 648.766625 393.64228 
L 649.600498 397.839098 
L 650.434371 363.70989 
L 651.268244 382.93426 
L 652.102117 387.239065 
L 652.93599 364.095212 
L 653.769863 357.873614 
L 654.603736 367.170424 
L 655.437609 360.990549 
L 656.271482 362.784627 
L 657.105355 384.598261 
L 657.939228 368.390201 
L 658.773101 378.980416 
L 659.606974 352.383391 
L 660.440847 364.735779 
L 661.27472 405.295198 
L 662.108593 394.248487 
L 662.942466 390.819859 
L 663.776339 399.304302 
L 664.610212 391.173275 
L 665.444085 375.738313 
L 666.277958 383.469292 
L 667.111831 367.833079 
L 667.945704 355.441423 
L 668.779577 364.247377 
L 669.61345 385.206922 
L 670.447323 362.789535 
L 671.281196 373.053331 
L 672.115068 393.912251 
L 672.948941 400.1633 
L 673.782814 377.527482 
L 674.616687 386.581319 
L 675.45056 372.982157 
L 676.284433 390.402631 
L 677.118306 413.126803 
L 677.952179 442.996364 
L 682.955417 336.48457 
L 683.78929 381.469055 
L 684.623163 388.333674 
L 685.457036 348.076131 
L 686.290909 282.892062 
L 687.958655 362.531836 
L 688.792528 373.055785 
L 689.626401 353.419097 
L 690.460274 379.434457 
L 691.294147 354.670779 
L 692.12802 285.96814 
L 692.961893 269.409117 
L 693.795766 312.403182 
L 694.629639 324.804655 
L 695.463512 349.64687 
L 696.297385 327.155854 
L 697.131258 326.247771 
L 697.965131 341.020078 
L 698.799004 324.353068 
L 699.632877 329.96355 
L 700.46675 332.442372 
L 701.300623 331.745357 
L 702.968369 387.560576 
L 703.802242 345.803468 
L 704.636115 370.761034 
L 705.469988 299.073991 
L 706.303861 335.32615 
L 707.137733 363.952864 
L 707.971606 321.817797 
L 708.805479 318.428437 
L 709.639352 282.006933 
L 710.473225 273.750738 
L 711.307098 316.862384 
L 712.140971 249.475015 
L 712.974844 322.16095 
L 713.808717 309.360322 
L 714.64259 378.313967 
L 715.476463 359.556134 
L 717.144209 236.800224 
L 717.978082 262.570157 
L 718.811955 265.957062 
L 719.645828 282.621172 
L 720.479701 306.166189 
L 721.313574 346.715345 
L 722.147447 373.984619 
L 722.98132 330.881227 
L 723.815193 341.89871 
L 724.649066 271.812526 
L 725.482939 303.073797 
L 726.316812 289.909043 
L 727.150685 227.576597 
L 727.984558 277.844698 
L 728.818431 225.782742 
L 729.652304 254.666485 
L 730.486177 253.199272 
L 731.32005 302.950637 
L 732.153923 331.178418 
L 732.987796 209.35692 
L 733.821669 255.140384 
L 734.655542 250.50849 
L 735.489415 352.809097 
L 736.323288 358.653852 
L 737.157161 334.910708 
L 737.991034 323.173541 
L 738.824907 347.775593 
L 739.65878 296.921142 
L 741.326526 204.858895 
L 742.160399 327.065939 
L 742.994271 357.312476 
L 743.828144 353.060772 
L 745.49589 253.402754 
L 746.329763 284.701509 
L 747.163636 251.9168 
L 747.163636 251.9168 
" style="fill:none;stroke:#1f77b4;stroke-linecap:square;stroke-width:1.5;"/>
   </g>
   <g id="line2d_18">
    <path clip-path="url(#p6e5d754daa)" d="M 138.436364 303.777633 
L 139.270237 290.921437 
L 140.10411 216.99059 
L 140.937983 209.059271 
L 141.771856 271.538947 
L 142.605729 249.83449 
L 143.439601 247.973674 
L 144.273474 208.008469 
L 145.107347 266.405603 
L 145.94122 243.849032 
L 146.775093 232.815307 
L 147.608966 302.82274 
L 148.442839 259.342831 
L 149.276712 251.062972 
L 150.110585 286.172963 
L 150.944458 281.410511 
L 151.778331 314.829417 
L 152.612204 276.440887 
L 153.446077 276.456194 
L 154.27995 320.840071 
L 155.113823 224.928625 
L 155.947696 267.801823 
L 156.781569 222.72823 
L 157.615442 286.634527 
L 158.449315 317.960933 
L 159.283188 384.791897 
L 160.117061 397.040896 
L 160.950934 395.115776 
L 161.784807 396.100886 
L 162.61868 387.904299 
L 163.452553 375.532895 
L 164.286426 260.692159 
L 165.120299 301.949017 
L 165.954172 272.732795 
L 166.788045 344.368818 
L 167.621918 355.959767 
L 168.455791 348.761934 
L 169.289664 331.092386 
L 170.123537 385.974859 
L 170.95741 398.842486 
L 171.791283 383.388867 
L 173.459029 318.361953 
L 174.292902 319.084058 
L 175.126775 318.512701 
L 175.960648 348.332175 
L 176.794521 390.211014 
L 177.628394 399.93538 
L 178.462267 381.467461 
L 179.296139 284.99139 
L 180.130012 278.382531 
L 180.963885 292.608982 
L 181.797758 241.330077 
L 182.631631 319.916459 
L 183.465504 295.75704 
L 184.299377 293.045894 
L 185.13325 300.440442 
L 185.967123 302.395021 
L 186.800996 329.12802 
L 187.634869 263.362091 
L 188.468742 319.323821 
L 189.302615 287.639951 
L 190.136488 333.328429 
L 190.970361 316.372642 
L 191.804234 366.721933 
L 192.638107 323.790789 
L 193.47198 314.251716 
L 194.305853 268.960532 
L 195.973599 349.811102 
L 196.807472 339.88104 
L 197.641345 288.851309 
L 198.475218 271.961161 
L 199.309091 331.631759 
L 200.142964 333.56908 
L 200.976837 343.301074 
L 201.81071 294.028428 
L 203.478456 244.311811 
L 204.312329 277.231995 
L 205.146202 287.431384 
L 206.813948 312.892192 
L 207.647821 340.441338 
L 208.481694 327.09343 
L 209.315567 326.597192 
L 210.14944 314.471383 
L 210.983313 328.569767 
L 211.817186 359.357767 
L 212.651059 360.991774 
L 213.484932 343.498006 
L 214.318804 360.801692 
L 215.152677 282.941507 
L 215.98655 343.880231 
L 216.820423 320.638809 
L 217.654296 349.402557 
L 218.488169 342.666857 
L 219.322042 331.63294 
L 220.155915 231.653679 
L 233.497883 335.233256 
L 234.331756 324.598822 
L 235.165629 259.33538 
L 235.999502 275.219814 
L 236.833375 254.416146 
L 237.667248 355.39682 
L 238.501121 322.956605 
L 239.334994 355.227372 
L 240.168867 353.795854 
L 241.00274 368.413756 
L 241.836613 372.122521 
L 242.670486 386.686969 
L 243.504359 369.006718 
L 244.338232 374.163031 
L 245.172105 372.485232 
L 246.839851 389.929886 
L 247.673724 309.40235 
L 248.507597 360.55759 
L 249.341469 310.721594 
L 250.175342 364.720814 
L 251.009215 363.774131 
L 251.843088 384.705388 
L 252.676961 391.508464 
L 254.344707 321.388852 
L 255.17858 346.091799 
L 256.012453 358.763821 
L 256.846326 374.740811 
L 257.680199 336.118754 
L 258.514072 354.114709 
L 259.347945 348.466867 
L 260.181818 352.207906 
L 261.015691 311.086336 
L 261.849564 329.423949 
L 262.683437 353.954718 
L 263.51731 356.948969 
L 264.351183 389.995473 
L 265.185056 397.733918 
L 266.018929 389.285532 
L 266.852802 376.878873 
L 267.686675 387.019225 
L 268.520548 385.55543 
L 269.354421 362.973078 
L 270.188294 369.038162 
L 271.022167 369.62463 
L 271.85604 369.267875 
L 273.523786 389.260202 
L 274.357659 388.16709 
L 275.191532 367.157725 
L 276.025405 388.054842 
L 276.859278 371.67704 
L 277.693151 387.039291 
L 278.527024 384.662216 
L 279.360897 388.963097 
L 280.19477 387.246629 
L 281.028643 392.174364 
L 281.862516 405.87099 
L 282.696389 395.295577 
L 283.530262 393.592756 
L 284.364134 385.079761 
L 285.198007 392.824941 
L 286.03188 393.450034 
L 286.865753 388.97289 
L 287.699626 392.073359 
L 288.533499 391.790384 
L 289.367372 388.115762 
L 290.201245 386.473995 
L 291.035118 382.05368 
L 291.868991 375.724417 
L 292.702864 384.402473 
L 293.536737 385.924106 
L 294.37061 393.883345 
L 295.204483 393.765504 
L 296.038356 391.14948 
L 296.872229 386.927598 
L 298.539975 392.766074 
L 299.373848 406.026942 
L 300.207721 393.520216 
L 301.041594 407.178821 
L 301.875467 375.524084 
L 303.543213 407.024601 
L 304.377086 405.970751 
L 305.210959 406.10921 
L 306.044832 387.699034 
L 307.712578 379.045544 
L 308.546451 384.415067 
L 309.380324 385.313258 
L 310.214197 389.06369 
L 311.881943 394.79741 
L 312.715816 393.868753 
L 313.549689 404.098136 
L 314.383562 386.863315 
L 315.217435 391.261977 
L 316.051308 405.302051 
L 316.885181 387.104639 
L 317.719054 375.463948 
L 318.552927 379.430071 
L 319.3868 384.337874 
L 320.220672 385.201512 
L 321.054545 391.914491 
L 321.888418 391.435067 
L 322.722291 401.519941 
L 323.556164 383.819071 
L 324.390037 384.780992 
L 325.22391 381.284337 
L 326.057783 381.345066 
L 326.891656 386.55874 
L 327.725529 385.76501 
L 328.559402 389.711763 
L 329.393275 391.056514 
L 330.227148 364.425751 
L 331.061021 391.679748 
L 331.894894 367.375179 
L 332.728767 359.274765 
L 333.56264 384.726253 
L 334.396513 390.79955 
L 335.230386 389.474415 
L 336.064259 375.851922 
L 336.898132 384.422233 
L 337.732005 370.441711 
L 338.565878 351.481722 
L 339.399751 368.693812 
L 340.233624 373.41834 
L 341.067497 383.444068 
L 343.569116 330.39541 
L 344.402989 350.184156 
L 345.236862 361.735237 
L 346.070735 362.731217 
L 346.904608 386.710273 
L 347.738481 384.411104 
L 348.572354 358.618701 
L 349.406227 371.376116 
L 350.2401 387.512783 
L 351.073973 385.68925 
L 351.907846 372.142315 
L 352.741719 385.508165 
L 353.575592 374.093981 
L 354.409465 393.781483 
L 355.243337 386.01358 
L 356.07721 389.723605 
L 356.911083 384.338524 
L 357.744956 376.424344 
L 358.578829 386.413617 
L 359.412702 370.695124 
L 360.246575 369.41884 
L 361.080448 370.890018 
L 361.914321 329.718105 
L 362.748194 366.299978 
L 363.582067 382.911557 
L 364.41594 304.593725 
L 365.249813 349.837321 
L 366.083686 334.4694 
L 366.917559 376.515224 
L 367.751432 365.213402 
L 368.585305 365.944081 
L 369.419178 363.973633 
L 370.253051 361.578255 
L 371.086924 368.802786 
L 371.920797 383.163229 
L 372.75467 383.45582 
L 373.588543 379.454129 
L 374.422416 355.011744 
L 375.256289 347.359223 
L 376.090162 355.387844 
L 376.924035 382.793631 
L 377.757908 381.201753 
L 378.591781 359.743963 
L 379.425654 357.416145 
L 380.259527 357.168098 
L 381.0934 373.504351 
L 381.927273 382.806946 
L 382.761146 382.814427 
L 383.595019 384.962553 
L 384.428892 384.924032 
L 385.262765 386.204833 
L 386.096638 361.288444 
L 386.930511 341.967063 
L 387.764384 354.161761 
L 388.598257 337.71371 
L 389.43213 333.124673 
L 390.266002 352.34577 
L 391.099875 354.031823 
L 391.933748 329.80575 
L 392.767621 326.807513 
L 393.601494 306.599786 
L 394.435367 389.930747 
L 395.26924 352.55649 
L 396.103113 305.533456 
L 396.936986 291.562561 
L 397.770859 301.262107 
L 398.604732 345.256489 
L 399.438605 354.889201 
L 400.272478 323.777005 
L 401.106351 306.195683 
L 401.940224 282.118134 
L 403.60797 318.034808 
L 404.441843 325.898372 
L 405.275716 289.116743 
L 406.109589 333.267298 
L 406.943462 310.628834 
L 407.777335 318.679335 
L 408.611208 314.807502 
L 409.445081 332.189187 
L 410.278954 359.253801 
L 411.112827 330.106819 
L 411.9467 282.207294 
L 412.780573 319.588869 
L 413.614446 311.028302 
L 414.448319 293.270464 
L 415.282192 342.0349 
L 416.116065 356.946081 
L 416.949938 345.380004 
L 417.783811 338.468151 
L 418.617684 323.303983 
L 419.451557 352.026821 
L 420.28543 363.846326 
L 421.119303 337.76735 
L 421.953176 286.081959 
L 422.787049 193.847062 
L 423.620922 312.825498 
L 424.454795 275.090023 
L 425.288667 194.558211 
L 426.12254 243.814491 
L 426.956413 219.7267 
L 427.790286 297.154773 
L 428.624159 289.001248 
L 429.458032 338.064595 
L 430.291905 326.475121 
L 431.125778 330.187597 
L 431.959651 332.646391 
L 432.793524 335.78691 
L 433.627397 334.72917 
L 434.46127 329.482926 
L 435.295143 292.703853 
L 436.129016 172.871378 
L 436.962889 268.827373 
L 437.796762 307.148913 
L 438.630635 330.699489 
L 439.464508 208.828457 
L 440.298381 156.493627 
L 441.132254 322.642867 
L 441.966127 304.047259 
L 442.8 375.910092 
L 443.633873 355.871009 
L 444.467746 296.900301 
L 445.301619 281.557038 
L 446.135492 222.492504 
L 446.969365 194.463127 
L 447.803238 248.077345 
L 448.637111 311.428853 
L 449.470984 355.120246 
L 450.304857 356.947888 
L 451.13873 275.05336 
L 451.972603 324.759973 
L 452.806476 347.434879 
L 453.640349 209.408392 
L 454.474222 135.552217 
L 455.308095 142.997817 
L 456.141968 138.756975 
L 456.975841 308.90929 
L 457.809714 312.63454 
L 458.643587 221.089431 
L 459.47746 280.597888 
L 460.311333 196.464617 
L 461.145205 220.928259 
L 461.979078 285.374638 
L 462.812951 201.711626 
L 463.646824 317.136134 
L 464.480697 235.466034 
L 465.31457 245.900923 
L 466.148443 316.625903 
L 466.982316 332.149798 
L 468.650062 286.960988 
L 469.483935 288.750375 
L 470.317808 272.062653 
L 471.151681 322.953817 
L 471.985554 283.842082 
L 472.819427 310.943788 
L 473.6533 259.439738 
L 474.487173 254.206569 
L 475.321046 295.566254 
L 476.154919 309.339549 
L 476.988792 361.25554 
L 477.822665 382.160735 
L 478.656538 388.777992 
L 479.490411 355.735548 
L 480.324284 334.696775 
L 481.158157 336.583624 
L 481.99203 315.81298 
L 482.825903 355.331892 
L 483.659776 358.651033 
L 484.493649 317.093798 
L 485.327522 300.343531 
L 486.161395 327.650554 
L 486.995268 328.036106 
L 487.829141 317.92752 
L 488.663014 343.142922 
L 489.496887 314.699787 
L 490.33076 278.15795 
L 491.164633 350.599931 
L 491.998506 341.188912 
L 492.832379 291.257561 
L 493.666252 317.17962 
L 494.500125 322.106734 
L 495.333998 288.492612 
L 496.16787 266.946714 
L 497.001743 304.457717 
L 497.835616 301.681928 
L 498.669489 349.712526 
L 499.503362 342.697979 
L 500.337235 287.778924 
L 501.171108 336.455261 
L 502.004981 287.395351 
L 503.672727 328.010082 
L 504.5066 334.003607 
L 505.340473 330.637885 
L 506.174346 331.204628 
L 507.008219 330.289727 
L 507.842092 356.630074 
L 508.675965 343.750504 
L 509.509838 348.455426 
L 510.343711 385.269232 
L 511.177584 335.857972 
L 512.011457 247.184942 
L 512.84533 223.914237 
L 513.679203 353.758076 
L 514.513076 317.820585 
L 515.346949 296.010264 
L 516.180822 363.417649 
L 517.014695 378.485365 
L 517.848568 362.5491 
L 518.682441 364.709845 
L 519.516314 368.887659 
L 520.350187 358.811267 
L 521.18406 359.773566 
L 522.017933 344.818189 
L 522.851806 312.078117 
L 523.685679 347.349819 
L 524.519552 348.309632 
L 525.353425 333.744157 
L 526.187298 330.463119 
L 527.021171 360.149215 
L 527.855044 351.623203 
L 528.688917 353.896587 
L 529.52279 350.530721 
L 530.356663 360.795544 
L 531.190535 347.899816 
L 532.024408 314.05463 
L 532.858281 325.878555 
L 533.692154 354.805738 
L 534.526027 351.812926 
L 535.3599 338.729692 
L 536.193773 330.695492 
L 537.027646 313.095934 
L 537.861519 350.266627 
L 538.695392 354.543794 
L 539.529265 367.090086 
L 540.363138 332.493117 
L 541.197011 330.154627 
L 542.030884 346.070628 
L 542.864757 257.284097 
L 543.69863 328.413317 
L 544.532503 308.25997 
L 545.366376 349.895335 
L 546.200249 348.846379 
L 547.034122 361.791637 
L 547.867995 341.42207 
L 548.701868 344.48317 
L 549.535741 333.842883 
L 550.369614 351.736363 
L 551.203487 373.089492 
L 552.03736 373.161642 
L 552.871233 379.752267 
L 553.705106 372.00622 
L 554.538979 337.857402 
L 555.372852 333.026185 
L 556.206725 293.832169 
L 557.040598 314.991056 
L 557.874471 314.393109 
L 558.708344 315.020944 
L 559.542217 294.638788 
L 560.37609 333.565365 
L 561.209963 387.586416 
L 562.043836 388.412838 
L 562.877709 381.212595 
L 563.711582 372.175019 
L 564.545455 367.913656 
L 565.379328 388.899614 
L 566.2132 383.72905 
L 567.047073 391.147948 
L 567.880946 386.338003 
L 568.714819 359.482049 
L 569.548692 362.381299 
L 570.382565 323.712559 
L 571.216438 368.675757 
L 572.050311 375.993912 
L 572.884184 363.167473 
L 573.718057 330.719498 
L 574.55193 357.570002 
L 576.219676 360.650976 
L 577.053549 374.198963 
L 577.887422 389.976299 
L 578.721295 386.628736 
L 579.555168 386.898995 
L 580.389041 367.836698 
L 581.222914 369.310993 
L 582.056787 376.985186 
L 582.89066 379.961779 
L 583.724533 377.767963 
L 584.558406 377.131362 
L 585.392279 373.310487 
L 586.226152 362.888913 
L 587.060025 367.29917 
L 587.893898 319.770729 
L 588.727771 345.49964 
L 589.561644 339.618021 
L 590.395517 345.504412 
L 591.22939 384.256219 
L 592.063263 367.552415 
L 592.897136 368.760377 
L 593.731009 365.920397 
L 594.564882 375.663403 
L 595.398755 372.504035 
L 596.232628 375.586134 
L 597.900374 404.263071 
L 598.734247 400.90627 
L 599.56812 388.930208 
L 600.401993 385.048231 
L 601.235866 388.778425 
L 602.069738 387.712901 
L 602.903611 403.545242 
L 603.737484 403.848735 
L 604.571357 383.655471 
L 605.40523 387.010687 
L 606.239103 392.047806 
L 607.072976 380.868126 
L 607.906849 360.994223 
L 608.740722 392.310272 
L 609.574595 403.131922 
L 610.408468 383.257691 
L 611.242341 360.119006 
L 612.076214 361.365159 
L 612.910087 368.125302 
L 613.74396 336.858204 
L 614.577833 356.901593 
L 615.411706 381.754863 
L 616.245579 383.705919 
L 617.079452 363.062761 
L 617.913325 363.081789 
L 618.747198 362.204982 
L 619.581071 387.186592 
L 620.414944 383.332759 
L 621.248817 358.344426 
L 622.08269 375.901899 
L 622.916563 386.665034 
L 623.750436 388.076619 
L 624.584309 315.392776 
L 625.418182 340.84534 
L 626.252055 340.903312 
L 627.085928 389.353282 
L 627.919801 365.7496 
L 628.753674 388.956015 
L 629.587547 386.978708 
L 630.42142 373.354846 
L 631.255293 366.938074 
L 632.089166 380.145116 
L 632.923039 359.558229 
L 633.756912 368.196501 
L 634.590785 375.254993 
L 635.424658 358.793594 
L 636.258531 372.618215 
L 637.092403 393.726075 
L 637.926276 396.03031 
L 638.760149 395.35671 
L 639.594022 389.538495 
L 640.427895 386.425139 
L 641.261768 387.026482 
L 642.095641 384.415018 
L 642.929514 339.833638 
L 643.763387 384.570268 
L 644.59726 385.686134 
L 645.431133 375.006145 
L 646.265006 362.243009 
L 647.098879 390.424227 
L 647.932752 388.016763 
L 648.766625 383.85061 
L 649.600498 387.151909 
L 651.268244 361.142188 
L 652.102117 385.866125 
L 652.93599 363.248907 
L 653.769863 359.66753 
L 654.603736 368.618649 
L 655.437609 358.581436 
L 656.271482 351.220162 
L 657.105355 365.390655 
L 657.939228 358.95799 
L 658.773101 372.037899 
L 659.606974 361.374275 
L 660.440847 347.756628 
L 661.27472 392.149805 
L 662.108593 398.108701 
L 662.942466 381.560443 
L 663.776339 387.800498 
L 664.610212 387.3385 
L 665.444085 378.804513 
L 666.277958 381.862688 
L 667.111831 368.303755 
L 668.779577 348.864477 
L 669.61345 375.84182 
L 671.281196 353.287653 
L 672.115068 387.031978 
L 672.948941 383.281021 
L 673.782814 384.36396 
L 674.616687 372.665852 
L 675.45056 390.860213 
L 676.284433 365.125305 
L 677.118306 401.020808 
L 677.952179 427.255762 
L 682.121544 367.036627 
L 682.955417 338.921416 
L 683.78929 346.587322 
L 684.623163 383.615192 
L 685.457036 361.861383 
L 686.290909 280.691379 
L 688.792528 368.692307 
L 689.626401 359.152129 
L 690.460274 345.399275 
L 691.294147 353.759775 
L 692.961893 285.974533 
L 693.795766 312.523443 
L 694.629639 285.009617 
L 695.463512 352.226442 
L 696.297385 321.797353 
L 697.131258 334.700723 
L 697.965131 328.54769 
L 698.799004 325.725845 
L 699.632877 343.138762 
L 700.46675 326.603632 
L 701.300623 330.703897 
L 702.134496 349.518212 
L 702.968369 372.951458 
L 703.802242 360.24302 
L 704.636115 345.078815 
L 705.469988 326.322952 
L 706.303861 287.126881 
L 707.137733 345.969956 
L 707.971606 340.379357 
L 708.805479 303.094591 
L 709.639352 293.997974 
L 710.473225 224.458881 
L 711.307098 323.929215 
L 712.140971 264.200502 
L 712.974844 292.158159 
L 713.808717 328.115288 
L 714.64259 327.618042 
L 715.476463 370.148412 
L 716.310336 321.56113 
L 717.144209 211.09699 
L 717.978082 266.697405 
L 718.811955 273.334377 
L 719.645828 260.272873 
L 720.479701 319.305602 
L 721.313574 295.857363 
L 722.147447 383.089227 
L 722.98132 335.432954 
L 723.815193 319.981821 
L 724.649066 317.385795 
L 725.482939 248.673122 
L 726.316812 295.315737 
L 727.150685 263.108224 
L 727.984558 261.869443 
L 728.818431 267.531434 
L 729.652304 211.197059 
L 730.486177 296.901321 
L 731.32005 239.317838 
L 732.153923 356.87145 
L 732.987796 223.503606 
L 733.821669 265.096306 
L 734.655542 257.645898 
L 735.489415 312.711585 
L 736.323288 359.864336 
L 737.157161 338.955798 
L 737.991034 290.215718 
L 738.824907 352.368594 
L 739.65878 321.979687 
L 740.492653 262.885266 
L 741.326526 229.368728 
L 742.994271 348.914364 
L 743.828144 351.209206 
L 744.662017 325.318713 
L 745.49589 268.412175 
L 746.329763 300.802016 
L 747.163636 229.643721 
L 747.163636 229.643721 
" style="fill:none;stroke:#ff0000;stroke-dasharray:5.55,2.4;stroke-dashoffset:0;stroke-width:1.5;"/>
   </g>
   <g id="patch_3">
    <path d="M 108 460.8 
L 108 69.12 
" style="fill:none;stroke:#000000;stroke-linecap:square;stroke-linejoin:miter;stroke-width:0.8;"/>
   </g>
   <g id="patch_4">
    <path d="M 777.6 460.8 
L 777.6 69.12 
" style="fill:none;stroke:#000000;stroke-linecap:square;stroke-linejoin:miter;stroke-width:0.8;"/>
   </g>
   <g id="patch_5">
    <path d="M 108 460.8 
L 777.6 460.8 
" style="fill:none;stroke:#000000;stroke-linecap:square;stroke-linejoin:miter;stroke-width:0.8;"/>
   </g>
   <g id="patch_6">
    <path d="M 108 69.12 
L 777.6 69.12 
" style="fill:none;stroke:#000000;stroke-linecap:square;stroke-linejoin:miter;stroke-width:0.8;"/>
   </g>
   <g id="text_19">
    <!-- Macau residential 2020-2021 | Forecast vs Monitored | Random forest -->
    <g transform="translate(181.076953 63.12)scale(0.15 -0.15)">
     <defs>
      <path d="M 9.8125 72.90625 
L 24.515625 72.90625 
L 43.109375 23.296875 
L 61.8125 72.90625 
L 76.515625 72.90625 
L 76.515625 0 
L 66.890625 0 
L 66.890625 64.015625 
L 48.09375 14.015625 
L 38.1875 14.015625 
L 19.390625 64.015625 
L 19.390625 0 
L 9.8125 0 
z
" id="DejaVuSans-77"/>
      <path d="M 48.78125 52.59375 
L 48.78125 44.1875 
Q 44.96875 46.296875 41.140625 47.34375 
Q 37.3125 48.390625 33.40625 48.390625 
Q 24.65625 48.390625 19.8125 42.84375 
Q 14.984375 37.3125 14.984375 27.296875 
Q 14.984375 17.28125 19.8125 11.734375 
Q 24.65625 6.203125 33.40625 6.203125 
Q 37.3125 6.203125 41.140625 7.25 
Q 44.96875 8.296875 48.78125 10.40625 
L 48.78125 2.09375 
Q 45.015625 0.34375 40.984375 -0.53125 
Q 36.96875 -1.421875 32.421875 -1.421875 
Q 20.0625 -1.421875 12.78125 6.34375 
Q 5.515625 14.109375 5.515625 27.296875 
Q 5.515625 40.671875 12.859375 48.328125 
Q 20.21875 56 33.015625 56 
Q 37.15625 56 41.109375 55.140625 
Q 45.0625 54.296875 48.78125 52.59375 
z
" id="DejaVuSans-99"/>
      <path d="M 8.5 21.578125 
L 8.5 54.6875 
L 17.484375 54.6875 
L 17.484375 21.921875 
Q 17.484375 14.15625 20.5 10.265625 
Q 23.53125 6.390625 29.59375 6.390625 
Q 36.859375 6.390625 41.078125 11.03125 
Q 45.3125 15.671875 45.3125 23.6875 
L 45.3125 54.6875 
L 54.296875 54.6875 
L 54.296875 0 
L 45.3125 0 
L 45.3125 8.40625 
Q 42.046875 3.421875 37.71875 1 
Q 33.40625 -1.421875 27.6875 -1.421875 
Q 18.265625 -1.421875 13.375 4.4375 
Q 8.5 10.296875 8.5 21.578125 
z
M 31.109375 56 
z
" id="DejaVuSans-117"/>
      <path id="DejaVuSans-32"/>
      <path d="M 41.109375 46.296875 
Q 39.59375 47.171875 37.8125 47.578125 
Q 36.03125 48 33.890625 48 
Q 26.265625 48 22.1875 43.046875 
Q 18.109375 38.09375 18.109375 28.8125 
L 18.109375 0 
L 9.078125 0 
L 9.078125 54.6875 
L 18.109375 54.6875 
L 18.109375 46.1875 
Q 20.953125 51.171875 25.484375 53.578125 
Q 30.03125 56 36.53125 56 
Q 37.453125 56 38.578125 55.875 
Q 39.703125 55.765625 41.0625 55.515625 
z
" id="DejaVuSans-114"/>
      <path d="M 44.28125 53.078125 
L 44.28125 44.578125 
Q 40.484375 46.53125 36.375 47.5 
Q 32.28125 48.484375 27.875 48.484375 
Q 21.1875 48.484375 17.84375 46.4375 
Q 14.5 44.390625 14.5 40.28125 
Q 14.5 37.15625 16.890625 35.375 
Q 19.28125 33.59375 26.515625 31.984375 
L 29.59375 31.296875 
Q 39.15625 29.25 43.1875 25.515625 
Q 47.21875 21.78125 47.21875 15.09375 
Q 47.21875 7.46875 41.1875 3.015625 
Q 35.15625 -1.421875 24.609375 -1.421875 
Q 20.21875 -1.421875 15.453125 -0.5625 
Q 10.6875 0.296875 5.421875 2 
L 5.421875 11.28125 
Q 10.40625 8.6875 15.234375 7.390625 
Q 20.0625 6.109375 24.8125 6.109375 
Q 31.15625 6.109375 34.5625 8.28125 
Q 37.984375 10.453125 37.984375 14.40625 
Q 37.984375 18.0625 35.515625 20.015625 
Q 33.0625 21.96875 24.703125 23.78125 
L 21.578125 24.515625 
Q 13.234375 26.265625 9.515625 29.90625 
Q 5.8125 33.546875 5.8125 39.890625 
Q 5.8125 47.609375 11.28125 51.796875 
Q 16.75 56 26.8125 56 
Q 31.78125 56 36.171875 55.265625 
Q 40.578125 54.546875 44.28125 53.078125 
z
" id="DejaVuSans-115"/>
      <path d="M 9.421875 54.6875 
L 18.40625 54.6875 
L 18.40625 0 
L 9.421875 0 
z
M 9.421875 75.984375 
L 18.40625 75.984375 
L 18.40625 64.59375 
L 9.421875 64.59375 
z
" id="DejaVuSans-105"/>
      <path d="M 45.40625 46.390625 
L 45.40625 75.984375 
L 54.390625 75.984375 
L 54.390625 0 
L 45.40625 0 
L 45.40625 8.203125 
Q 42.578125 3.328125 38.25 0.953125 
Q 33.9375 -1.421875 27.875 -1.421875 
Q 17.96875 -1.421875 11.734375 6.484375 
Q 5.515625 14.40625 5.515625 27.296875 
Q 5.515625 40.1875 11.734375 48.09375 
Q 17.96875 56 27.875 56 
Q 33.9375 56 38.25 53.625 
Q 42.578125 51.265625 45.40625 46.390625 
z
M 14.796875 27.296875 
Q 14.796875 17.390625 18.875 11.75 
Q 22.953125 6.109375 30.078125 6.109375 
Q 37.203125 6.109375 41.296875 11.75 
Q 45.40625 17.390625 45.40625 27.296875 
Q 45.40625 37.203125 41.296875 42.84375 
Q 37.203125 48.484375 30.078125 48.484375 
Q 22.953125 48.484375 18.875 42.84375 
Q 14.796875 37.203125 14.796875 27.296875 
z
" id="DejaVuSans-100"/>
      <path d="M 54.890625 33.015625 
L 54.890625 0 
L 45.90625 0 
L 45.90625 32.71875 
Q 45.90625 40.484375 42.875 44.328125 
Q 39.84375 48.1875 33.796875 48.1875 
Q 26.515625 48.1875 22.3125 43.546875 
Q 18.109375 38.921875 18.109375 30.90625 
L 18.109375 0 
L 9.078125 0 
L 9.078125 54.6875 
L 18.109375 54.6875 
L 18.109375 46.1875 
Q 21.34375 51.125 25.703125 53.5625 
Q 30.078125 56 35.796875 56 
Q 45.21875 56 50.046875 50.171875 
Q 54.890625 44.34375 54.890625 33.015625 
z
" id="DejaVuSans-110"/>
      <path d="M 9.421875 75.984375 
L 18.40625 75.984375 
L 18.40625 0 
L 9.421875 0 
z
" id="DejaVuSans-108"/>
      <path d="M 21 76.421875 
L 21 -23.578125 
L 12.703125 -23.578125 
L 12.703125 76.421875 
z
" id="DejaVuSans-124"/>
      <path d="M 9.8125 72.90625 
L 51.703125 72.90625 
L 51.703125 64.59375 
L 19.671875 64.59375 
L 19.671875 43.109375 
L 48.578125 43.109375 
L 48.578125 34.8125 
L 19.671875 34.8125 
L 19.671875 0 
L 9.8125 0 
z
" id="DejaVuSans-70"/>
      <path d="M 30.609375 48.390625 
Q 23.390625 48.390625 19.1875 42.75 
Q 14.984375 37.109375 14.984375 27.296875 
Q 14.984375 17.484375 19.15625 11.84375 
Q 23.34375 6.203125 30.609375 6.203125 
Q 37.796875 6.203125 41.984375 11.859375 
Q 46.1875 17.53125 46.1875 27.296875 
Q 46.1875 37.015625 41.984375 42.703125 
Q 37.796875 48.390625 30.609375 48.390625 
z
M 30.609375 56 
Q 42.328125 56 49.015625 48.375 
Q 55.71875 40.765625 55.71875 27.296875 
Q 55.71875 13.875 49.015625 6.21875 
Q 42.328125 -1.421875 30.609375 -1.421875 
Q 18.84375 -1.421875 12.171875 6.21875 
Q 5.515625 13.875 5.515625 27.296875 
Q 5.515625 40.765625 12.171875 48.375 
Q 18.84375 56 30.609375 56 
z
" id="DejaVuSans-111"/>
      <path d="M 2.984375 54.6875 
L 12.5 54.6875 
L 29.59375 8.796875 
L 46.6875 54.6875 
L 56.203125 54.6875 
L 35.6875 0 
L 23.484375 0 
z
" id="DejaVuSans-118"/>
      <path d="M 44.390625 34.1875 
Q 47.5625 33.109375 50.5625 29.59375 
Q 53.5625 26.078125 56.59375 19.921875 
L 66.609375 0 
L 56 0 
L 46.6875 18.703125 
Q 43.0625 26.03125 39.671875 28.421875 
Q 36.28125 30.8125 30.421875 30.8125 
L 19.671875 30.8125 
L 19.671875 0 
L 9.8125 0 
L 9.8125 72.90625 
L 32.078125 72.90625 
Q 44.578125 72.90625 50.734375 67.671875 
Q 56.890625 62.453125 56.890625 51.90625 
Q 56.890625 45.015625 53.6875 40.46875 
Q 50.484375 35.9375 44.390625 34.1875 
z
M 19.671875 64.796875 
L 19.671875 38.921875 
L 32.078125 38.921875 
Q 39.203125 38.921875 42.84375 42.21875 
Q 46.484375 45.515625 46.484375 51.90625 
Q 46.484375 58.296875 42.84375 61.546875 
Q 39.203125 64.796875 32.078125 64.796875 
z
" id="DejaVuSans-82"/>
      <path d="M 37.109375 75.984375 
L 37.109375 68.5 
L 28.515625 68.5 
Q 23.6875 68.5 21.796875 66.546875 
Q 19.921875 64.59375 19.921875 59.515625 
L 19.921875 54.6875 
L 34.71875 54.6875 
L 34.71875 47.703125 
L 19.921875 47.703125 
L 19.921875 0 
L 10.890625 0 
L 10.890625 47.703125 
L 2.296875 47.703125 
L 2.296875 54.6875 
L 10.890625 54.6875 
L 10.890625 58.5 
Q 10.890625 67.625 15.140625 71.796875 
Q 19.390625 75.984375 28.609375 75.984375 
z
" id="DejaVuSans-102"/>
     </defs>
     <use xlink:href="#DejaVuSans-77"/>
     <use x="86.279297" xlink:href="#DejaVuSans-97"/>
     <use x="147.558594" xlink:href="#DejaVuSans-99"/>
     <use x="202.539062" xlink:href="#DejaVuSans-97"/>
     <use x="263.818359" xlink:href="#DejaVuSans-117"/>
     <use x="327.197266" xlink:href="#DejaVuSans-32"/>
     <use x="358.984375" xlink:href="#DejaVuSans-114"/>
     <use x="397.847656" xlink:href="#DejaVuSans-101"/>
     <use x="459.371094" xlink:href="#DejaVuSans-115"/>
     <use x="511.470703" xlink:href="#DejaVuSans-105"/>
     <use x="539.253906" xlink:href="#DejaVuSans-100"/>
     <use x="602.730469" xlink:href="#DejaVuSans-101"/>
     <use x="664.253906" xlink:href="#DejaVuSans-110"/>
     <use x="727.632812" xlink:href="#DejaVuSans-116"/>
     <use x="766.841797" xlink:href="#DejaVuSans-105"/>
     <use x="794.625" xlink:href="#DejaVuSans-97"/>
     <use x="855.904297" xlink:href="#DejaVuSans-108"/>
     <use x="883.6875" xlink:href="#DejaVuSans-32"/>
     <use x="915.474609" xlink:href="#DejaVuSans-50"/>
     <use x="979.097656" xlink:href="#DejaVuSans-48"/>
     <use x="1042.720703" xlink:href="#DejaVuSans-50"/>
     <use x="1106.34375" xlink:href="#DejaVuSans-48"/>
     <use x="1169.966797" xlink:href="#DejaVuSans-45"/>
     <use x="1206.050781" xlink:href="#DejaVuSans-50"/>
     <use x="1269.673828" xlink:href="#DejaVuSans-48"/>
     <use x="1333.296875" xlink:href="#DejaVuSans-50"/>
     <use x="1396.919922" xlink:href="#DejaVuSans-49"/>
     <use x="1460.542969" xlink:href="#DejaVuSans-32"/>
     <use x="1492.330078" xlink:href="#DejaVuSans-124"/>
     <use x="1526.021484" xlink:href="#DejaVuSans-32"/>
     <use x="1557.808594" xlink:href="#DejaVuSans-70"/>
     <use x="1611.703125" xlink:href="#DejaVuSans-111"/>
     <use x="1672.884766" xlink:href="#DejaVuSans-114"/>
     <use x="1711.748047" xlink:href="#DejaVuSans-101"/>
     <use x="1773.271484" xlink:href="#DejaVuSans-99"/>
     <use x="1828.251953" xlink:href="#DejaVuSans-97"/>
     <use x="1889.53125" xlink:href="#DejaVuSans-115"/>
     <use x="1941.630859" xlink:href="#DejaVuSans-116"/>
     <use x="1980.839844" xlink:href="#DejaVuSans-32"/>
     <use x="2012.626953" xlink:href="#DejaVuSans-118"/>
     <use x="2071.806641" xlink:href="#DejaVuSans-115"/>
     <use x="2123.90625" xlink:href="#DejaVuSans-32"/>
     <use x="2155.693359" xlink:href="#DejaVuSans-77"/>
     <use x="2241.972656" xlink:href="#DejaVuSans-111"/>
     <use x="2303.154297" xlink:href="#DejaVuSans-110"/>
     <use x="2366.533203" xlink:href="#DejaVuSans-105"/>
     <use x="2394.316406" xlink:href="#DejaVuSans-116"/>
     <use x="2433.525391" xlink:href="#DejaVuSans-111"/>
     <use x="2494.707031" xlink:href="#DejaVuSans-114"/>
     <use x="2533.570312" xlink:href="#DejaVuSans-101"/>
     <use x="2595.09375" xlink:href="#DejaVuSans-100"/>
     <use x="2658.570312" xlink:href="#DejaVuSans-32"/>
     <use x="2690.357422" xlink:href="#DejaVuSans-124"/>
     <use x="2724.048828" xlink:href="#DejaVuSans-32"/>
     <use x="2755.835938" xlink:href="#DejaVuSans-82"/>
     <use x="2823.068359" xlink:href="#DejaVuSans-97"/>
     <use x="2884.347656" xlink:href="#DejaVuSans-110"/>
     <use x="2947.726562" xlink:href="#DejaVuSans-100"/>
     <use x="3011.203125" xlink:href="#DejaVuSans-111"/>
     <use x="3072.384766" xlink:href="#DejaVuSans-109"/>
     <use x="3169.796875" xlink:href="#DejaVuSans-32"/>
     <use x="3201.583984" xlink:href="#DejaVuSans-102"/>
     <use x="3236.789062" xlink:href="#DejaVuSans-111"/>
     <use x="3297.970703" xlink:href="#DejaVuSans-114"/>
     <use x="3336.833984" xlink:href="#DejaVuSans-101"/>
     <use x="3398.357422" xlink:href="#DejaVuSans-115"/>
     <use x="3450.457031" xlink:href="#DejaVuSans-116"/>
    </g>
   </g>
   <g id="legend_1">
    <g id="patch_7">
     <path d="M 605.76375 114.615 
L 769.2 114.615 
Q 771.6 114.615 771.6 112.215 
L 771.6 77.52 
Q 771.6 75.12 769.2 75.12 
L 605.76375 75.12 
Q 603.36375 75.12 603.36375 77.52 
L 603.36375 112.215 
Q 603.36375 114.615 605.76375 114.615 
z
" style="fill:#ffffff;opacity:0.8;stroke:#cccccc;stroke-linejoin:miter;"/>
    </g>
    <g id="line2d_19">
     <path d="M 608.16375 84.838125 
L 632.16375 84.838125 
" style="fill:none;stroke:#1f77b4;stroke-linecap:square;stroke-width:1.5;"/>
    </g>
    <g id="line2d_20"/>
    <g id="text_20">
     <!-- measured_data_NO2 -->
     <g transform="translate(641.76375 89.038125)scale(0.12 -0.12)">
      <defs>
       <path d="M 50.984375 -16.609375 
L 50.984375 -23.578125 
L -0.984375 -23.578125 
L -0.984375 -16.609375 
z
" id="DejaVuSans-95"/>
      </defs>
      <use xlink:href="#DejaVuSans-109"/>
      <use x="97.412109" xlink:href="#DejaVuSans-101"/>
      <use x="158.935547" xlink:href="#DejaVuSans-97"/>
      <use x="220.214844" xlink:href="#DejaVuSans-115"/>
      <use x="272.314453" xlink:href="#DejaVuSans-117"/>
      <use x="335.693359" xlink:href="#DejaVuSans-114"/>
      <use x="374.556641" xlink:href="#DejaVuSans-101"/>
      <use x="436.080078" xlink:href="#DejaVuSans-100"/>
      <use x="499.556641" xlink:href="#DejaVuSans-95"/>
      <use x="549.556641" xlink:href="#DejaVuSans-100"/>
      <use x="613.033203" xlink:href="#DejaVuSans-97"/>
      <use x="674.3125" xlink:href="#DejaVuSans-116"/>
      <use x="713.521484" xlink:href="#DejaVuSans-97"/>
      <use x="774.800781" xlink:href="#DejaVuSans-95"/>
      <use x="824.800781" xlink:href="#DejaVuSans-78"/>
      <use x="899.605469" xlink:href="#DejaVuSans-79"/>
      <use x="978.316406" xlink:href="#DejaVuSans-50"/>
     </g>
    </g>
    <g id="line2d_21">
     <path d="M 608.16375 102.785625 
L 632.16375 102.785625 
" style="fill:none;stroke:#ff0000;stroke-dasharray:5.55,2.4;stroke-dashoffset:0;stroke-width:1.5;"/>
    </g>
    <g id="line2d_22"/>
    <g id="text_21">
     <!-- predicted_data_NO2 -->
     <g transform="translate(641.76375 106.985625)scale(0.12 -0.12)">
      <use xlink:href="#DejaVuSans-112"/>
      <use x="63.476562" xlink:href="#DejaVuSans-114"/>
      <use x="102.339844" xlink:href="#DejaVuSans-101"/>
      <use x="163.863281" xlink:href="#DejaVuSans-100"/>
      <use x="227.339844" xlink:href="#DejaVuSans-105"/>
      <use x="255.123047" xlink:href="#DejaVuSans-99"/>
      <use x="310.103516" xlink:href="#DejaVuSans-116"/>
      <use x="349.3125" xlink:href="#DejaVuSans-101"/>
      <use x="410.835938" xlink:href="#DejaVuSans-100"/>
      <use x="474.3125" xlink:href="#DejaVuSans-95"/>
      <use x="524.3125" xlink:href="#DejaVuSans-100"/>
      <use x="587.789062" xlink:href="#DejaVuSans-97"/>
      <use x="649.068359" xlink:href="#DejaVuSans-116"/>
      <use x="688.277344" xlink:href="#DejaVuSans-97"/>
      <use x="749.556641" xlink:href="#DejaVuSans-95"/>
      <use x="799.556641" xlink:href="#DejaVuSans-78"/>
      <use x="874.361328" xlink:href="#DejaVuSans-79"/>
      <use x="953.072266" xlink:href="#DejaVuSans-50"/>
     </g>
    </g>
   </g>
  </g>
 </g>
 <defs>
  <clipPath id="p6e5d754daa">
   <rect height="391.68" width="669.6" x="108" y="69.12"/>
  </clipPath>
 </defs>
</svg>
