<?xml version="1.0" encoding="utf-8" standalone="no"?>
<!DOCTYPE svg PUBLIC "-//W3C//DTD SVG 1.1//EN"
  "http://www.w3.org/Graphics/SVG/1.1/DTD/svg11.dtd">
<!-- Created with matplotlib (https://matplotlib.org/) -->
<svg height="576pt" version="1.1" viewBox="0 0 864 576" width="864pt" xmlns="http://www.w3.org/2000/svg" xmlns:xlink="http://www.w3.org/1999/xlink">
 <metadata>
  <rdf:RDF xmlns:cc="http://creativecommons.org/ns#" xmlns:dc="http://purl.org/dc/elements/1.1/" xmlns:rdf="http://www.w3.org/1999/02/22-rdf-syntax-ns#">
   <cc:Work>
    <dc:type rdf:resource="http://purl.org/dc/dcmitype/StillImage"/>
    <dc:date>2024-03-08T18:53:43.338667</dc:date>
    <dc:format>image/svg+xml</dc:format>
    <dc:creator>
     <cc:Agent>
      <dc:title>Matplotlib v3.3.4, https://matplotlib.org/</dc:title>
     </cc:Agent>
    </dc:creator>
   </cc:Work>
  </rdf:RDF>
 </metadata>
 <defs>
  <style type="text/css">*{stroke-linecap:butt;stroke-linejoin:round;}</style>
 </defs>
 <g id="figure_1">
  <g id="patch_1">
   <path d="M 0 576 
L 864 576 
L 864 0 
L 0 0 
z
" style="fill:#ffffff;"/>
  </g>
  <g id="axes_1">
   <g id="patch_2">
    <path d="M 108 460.8 
L 777.6 460.8 
L 777.6 69.12 
L 108 69.12 
z
" style="fill:#ffffff;"/>
   </g>
   <g id="matplotlib.axis_1">
    <g id="xtick_1">
     <g id="line2d_1">
      <defs>
       <path d="M 0 0 
L 0 3.5 
" id="m26a0d6d957" style="stroke:#000000;stroke-width:0.8;"/>
      </defs>
      <g>
       <use style="stroke:#000000;stroke-width:0.8;" x="138.436364" xlink:href="#m26a0d6d957" y="460.8"/>
      </g>
     </g>
     <g id="text_1">
      <!-- 2020-01 -->
      <g transform="translate(93.766579 500.766215)rotate(-30)scale(0.12 -0.12)">
       <defs>
        <path d="M 19.1875 8.296875 
L 53.609375 8.296875 
L 53.609375 0 
L 7.328125 0 
L 7.328125 8.296875 
Q 12.9375 14.109375 22.625 23.890625 
Q 32.328125 33.6875 34.8125 36.53125 
Q 39.546875 41.84375 41.421875 45.53125 
Q 43.3125 49.21875 43.3125 52.78125 
Q 43.3125 58.59375 39.234375 62.25 
Q 35.15625 65.921875 28.609375 65.921875 
Q 23.96875 65.921875 18.8125 64.3125 
Q 13.671875 62.703125 7.8125 59.421875 
L 7.8125 69.390625 
Q 13.765625 71.78125 18.9375 73 
Q 24.125 74.21875 28.421875 74.21875 
Q 39.75 74.21875 46.484375 68.546875 
Q 53.21875 62.890625 53.21875 53.421875 
Q 53.21875 48.921875 51.53125 44.890625 
Q 49.859375 40.875 45.40625 35.40625 
Q 44.1875 33.984375 37.640625 27.21875 
Q 31.109375 20.453125 19.1875 8.296875 
z
" id="DejaVuSans-50"/>
        <path d="M 31.78125 66.40625 
Q 24.171875 66.40625 20.328125 58.90625 
Q 16.5 51.421875 16.5 36.375 
Q 16.5 21.390625 20.328125 13.890625 
Q 24.171875 6.390625 31.78125 6.390625 
Q 39.453125 6.390625 43.28125 13.890625 
Q 47.125 21.390625 47.125 36.375 
Q 47.125 51.421875 43.28125 58.90625 
Q 39.453125 66.40625 31.78125 66.40625 
z
M 31.78125 74.21875 
Q 44.046875 74.21875 50.515625 64.515625 
Q 56.984375 54.828125 56.984375 36.375 
Q 56.984375 17.96875 50.515625 8.265625 
Q 44.046875 -1.421875 31.78125 -1.421875 
Q 19.53125 -1.421875 13.0625 8.265625 
Q 6.59375 17.96875 6.59375 36.375 
Q 6.59375 54.828125 13.0625 64.515625 
Q 19.53125 74.21875 31.78125 74.21875 
z
" id="DejaVuSans-48"/>
        <path d="M 4.890625 31.390625 
L 31.203125 31.390625 
L 31.203125 23.390625 
L 4.890625 23.390625 
z
" id="DejaVuSans-45"/>
        <path d="M 12.40625 8.296875 
L 28.515625 8.296875 
L 28.515625 63.921875 
L 10.984375 60.40625 
L 10.984375 69.390625 
L 28.421875 72.90625 
L 38.28125 72.90625 
L 38.28125 8.296875 
L 54.390625 8.296875 
L 54.390625 0 
L 12.40625 0 
z
" id="DejaVuSans-49"/>
       </defs>
       <use xlink:href="#DejaVuSans-50"/>
       <use x="63.623047" xlink:href="#DejaVuSans-48"/>
       <use x="127.246094" xlink:href="#DejaVuSans-50"/>
       <use x="190.869141" xlink:href="#DejaVuSans-48"/>
       <use x="254.492188" xlink:href="#DejaVuSans-45"/>
       <use x="290.576172" xlink:href="#DejaVuSans-48"/>
       <use x="354.199219" xlink:href="#DejaVuSans-49"/>
      </g>
     </g>
    </g>
    <g id="xtick_2">
     <g id="line2d_2">
      <g>
       <use style="stroke:#000000;stroke-width:0.8;" x="214.318804" xlink:href="#m26a0d6d957" y="460.8"/>
      </g>
     </g>
     <g id="text_2">
      <!-- 2020-04 -->
      <g transform="translate(169.64902 500.766215)rotate(-30)scale(0.12 -0.12)">
       <defs>
        <path d="M 37.796875 64.3125 
L 12.890625 25.390625 
L 37.796875 25.390625 
z
M 35.203125 72.90625 
L 47.609375 72.90625 
L 47.609375 25.390625 
L 58.015625 25.390625 
L 58.015625 17.1875 
L 47.609375 17.1875 
L 47.609375 0 
L 37.796875 0 
L 37.796875 17.1875 
L 4.890625 17.1875 
L 4.890625 26.703125 
z
" id="DejaVuSans-52"/>
       </defs>
       <use xlink:href="#DejaVuSans-50"/>
       <use x="63.623047" xlink:href="#DejaVuSans-48"/>
       <use x="127.246094" xlink:href="#DejaVuSans-50"/>
       <use x="190.869141" xlink:href="#DejaVuSans-48"/>
       <use x="254.492188" xlink:href="#DejaVuSans-45"/>
       <use x="290.576172" xlink:href="#DejaVuSans-48"/>
       <use x="354.199219" xlink:href="#DejaVuSans-52"/>
      </g>
     </g>
    </g>
    <g id="xtick_3">
     <g id="line2d_3">
      <g>
       <use style="stroke:#000000;stroke-width:0.8;" x="290.201245" xlink:href="#m26a0d6d957" y="460.8"/>
      </g>
     </g>
     <g id="text_3">
      <!-- 2020-07 -->
      <g transform="translate(245.53146 500.766215)rotate(-30)scale(0.12 -0.12)">
       <defs>
        <path d="M 8.203125 72.90625 
L 55.078125 72.90625 
L 55.078125 68.703125 
L 28.609375 0 
L 18.3125 0 
L 43.21875 64.59375 
L 8.203125 64.59375 
z
" id="DejaVuSans-55"/>
       </defs>
       <use xlink:href="#DejaVuSans-50"/>
       <use x="63.623047" xlink:href="#DejaVuSans-48"/>
       <use x="127.246094" xlink:href="#DejaVuSans-50"/>
       <use x="190.869141" xlink:href="#DejaVuSans-48"/>
       <use x="254.492188" xlink:href="#DejaVuSans-45"/>
       <use x="290.576172" xlink:href="#DejaVuSans-48"/>
       <use x="354.199219" xlink:href="#DejaVuSans-55"/>
      </g>
     </g>
    </g>
    <g id="xtick_4">
     <g id="line2d_4">
      <g>
       <use style="stroke:#000000;stroke-width:0.8;" x="366.917559" xlink:href="#m26a0d6d957" y="460.8"/>
      </g>
     </g>
     <g id="text_4">
      <!-- 2020-10 -->
      <g transform="translate(322.247774 500.766215)rotate(-30)scale(0.12 -0.12)">
       <use xlink:href="#DejaVuSans-50"/>
       <use x="63.623047" xlink:href="#DejaVuSans-48"/>
       <use x="127.246094" xlink:href="#DejaVuSans-50"/>
       <use x="190.869141" xlink:href="#DejaVuSans-48"/>
       <use x="254.492188" xlink:href="#DejaVuSans-45"/>
       <use x="290.576172" xlink:href="#DejaVuSans-49"/>
       <use x="354.199219" xlink:href="#DejaVuSans-48"/>
      </g>
     </g>
    </g>
    <g id="xtick_5">
     <g id="line2d_5">
      <g>
       <use style="stroke:#000000;stroke-width:0.8;" x="443.633873" xlink:href="#m26a0d6d957" y="460.8"/>
      </g>
     </g>
     <g id="text_5">
      <!-- 2021-01 -->
      <g transform="translate(398.964088 500.766215)rotate(-30)scale(0.12 -0.12)">
       <use xlink:href="#DejaVuSans-50"/>
       <use x="63.623047" xlink:href="#DejaVuSans-48"/>
       <use x="127.246094" xlink:href="#DejaVuSans-50"/>
       <use x="190.869141" xlink:href="#DejaVuSans-49"/>
       <use x="254.492188" xlink:href="#DejaVuSans-45"/>
       <use x="290.576172" xlink:href="#DejaVuSans-48"/>
       <use x="354.199219" xlink:href="#DejaVuSans-49"/>
      </g>
     </g>
    </g>
    <g id="xtick_6">
     <g id="line2d_6">
      <g>
       <use style="stroke:#000000;stroke-width:0.8;" x="518.682441" xlink:href="#m26a0d6d957" y="460.8"/>
      </g>
     </g>
     <g id="text_6">
      <!-- 2021-04 -->
      <g transform="translate(474.012656 500.766215)rotate(-30)scale(0.12 -0.12)">
       <use xlink:href="#DejaVuSans-50"/>
       <use x="63.623047" xlink:href="#DejaVuSans-48"/>
       <use x="127.246094" xlink:href="#DejaVuSans-50"/>
       <use x="190.869141" xlink:href="#DejaVuSans-49"/>
       <use x="254.492188" xlink:href="#DejaVuSans-45"/>
       <use x="290.576172" xlink:href="#DejaVuSans-48"/>
       <use x="354.199219" xlink:href="#DejaVuSans-52"/>
      </g>
     </g>
    </g>
    <g id="xtick_7">
     <g id="line2d_7">
      <g>
       <use style="stroke:#000000;stroke-width:0.8;" x="594.564882" xlink:href="#m26a0d6d957" y="460.8"/>
      </g>
     </g>
     <g id="text_7">
      <!-- 2021-07 -->
      <g transform="translate(549.895097 500.766215)rotate(-30)scale(0.12 -0.12)">
       <use xlink:href="#DejaVuSans-50"/>
       <use x="63.623047" xlink:href="#DejaVuSans-48"/>
       <use x="127.246094" xlink:href="#DejaVuSans-50"/>
       <use x="190.869141" xlink:href="#DejaVuSans-49"/>
       <use x="254.492188" xlink:href="#DejaVuSans-45"/>
       <use x="290.576172" xlink:href="#DejaVuSans-48"/>
       <use x="354.199219" xlink:href="#DejaVuSans-55"/>
      </g>
     </g>
    </g>
    <g id="xtick_8">
     <g id="line2d_8">
      <g>
       <use style="stroke:#000000;stroke-width:0.8;" x="671.281196" xlink:href="#m26a0d6d957" y="460.8"/>
      </g>
     </g>
     <g id="text_8">
      <!-- 2021-10 -->
      <g transform="translate(626.611411 500.766215)rotate(-30)scale(0.12 -0.12)">
       <use xlink:href="#DejaVuSans-50"/>
       <use x="63.623047" xlink:href="#DejaVuSans-48"/>
       <use x="127.246094" xlink:href="#DejaVuSans-50"/>
       <use x="190.869141" xlink:href="#DejaVuSans-49"/>
       <use x="254.492188" xlink:href="#DejaVuSans-45"/>
       <use x="290.576172" xlink:href="#DejaVuSans-49"/>
       <use x="354.199219" xlink:href="#DejaVuSans-48"/>
      </g>
     </g>
    </g>
    <g id="xtick_9">
     <g id="line2d_9">
      <g>
       <use style="stroke:#000000;stroke-width:0.8;" x="747.997509" xlink:href="#m26a0d6d957" y="460.8"/>
      </g>
     </g>
     <g id="text_9">
      <!-- 2022-01 -->
      <g transform="translate(703.327724 500.766215)rotate(-30)scale(0.12 -0.12)">
       <use xlink:href="#DejaVuSans-50"/>
       <use x="63.623047" xlink:href="#DejaVuSans-48"/>
       <use x="127.246094" xlink:href="#DejaVuSans-50"/>
       <use x="190.869141" xlink:href="#DejaVuSans-50"/>
       <use x="254.492188" xlink:href="#DejaVuSans-45"/>
       <use x="290.576172" xlink:href="#DejaVuSans-48"/>
       <use x="354.199219" xlink:href="#DejaVuSans-49"/>
      </g>
     </g>
    </g>
    <g id="text_10">
     <!-- Date -->
     <g transform="translate(424.873828 518.325146)scale(0.15 -0.15)">
      <defs>
       <path d="M 19.671875 64.796875 
L 19.671875 8.109375 
L 31.59375 8.109375 
Q 46.6875 8.109375 53.6875 14.9375 
Q 60.6875 21.78125 60.6875 36.53125 
Q 60.6875 51.171875 53.6875 57.984375 
Q 46.6875 64.796875 31.59375 64.796875 
z
M 9.8125 72.90625 
L 30.078125 72.90625 
Q 51.265625 72.90625 61.171875 64.09375 
Q 71.09375 55.28125 71.09375 36.53125 
Q 71.09375 17.671875 61.125 8.828125 
Q 51.171875 0 30.078125 0 
L 9.8125 0 
z
" id="DejaVuSans-68"/>
       <path d="M 34.28125 27.484375 
Q 23.390625 27.484375 19.1875 25 
Q 14.984375 22.515625 14.984375 16.5 
Q 14.984375 11.71875 18.140625 8.90625 
Q 21.296875 6.109375 26.703125 6.109375 
Q 34.1875 6.109375 38.703125 11.40625 
Q 43.21875 16.703125 43.21875 25.484375 
L 43.21875 27.484375 
z
M 52.203125 31.203125 
L 52.203125 0 
L 43.21875 0 
L 43.21875 8.296875 
Q 40.140625 3.328125 35.546875 0.953125 
Q 30.953125 -1.421875 24.3125 -1.421875 
Q 15.921875 -1.421875 10.953125 3.296875 
Q 6 8.015625 6 15.921875 
Q 6 25.140625 12.171875 29.828125 
Q 18.359375 34.515625 30.609375 34.515625 
L 43.21875 34.515625 
L 43.21875 35.40625 
Q 43.21875 41.609375 39.140625 45 
Q 35.0625 48.390625 27.6875 48.390625 
Q 23 48.390625 18.546875 47.265625 
Q 14.109375 46.140625 10.015625 43.890625 
L 10.015625 52.203125 
Q 14.9375 54.109375 19.578125 55.046875 
Q 24.21875 56 28.609375 56 
Q 40.484375 56 46.34375 49.84375 
Q 52.203125 43.703125 52.203125 31.203125 
z
" id="DejaVuSans-97"/>
       <path d="M 18.3125 70.21875 
L 18.3125 54.6875 
L 36.8125 54.6875 
L 36.8125 47.703125 
L 18.3125 47.703125 
L 18.3125 18.015625 
Q 18.3125 11.328125 20.140625 9.421875 
Q 21.96875 7.515625 27.59375 7.515625 
L 36.8125 7.515625 
L 36.8125 0 
L 27.59375 0 
Q 17.1875 0 13.234375 3.875 
Q 9.28125 7.765625 9.28125 18.015625 
L 9.28125 47.703125 
L 2.6875 47.703125 
L 2.6875 54.6875 
L 9.28125 54.6875 
L 9.28125 70.21875 
z
" id="DejaVuSans-116"/>
       <path d="M 56.203125 29.59375 
L 56.203125 25.203125 
L 14.890625 25.203125 
Q 15.484375 15.921875 20.484375 11.0625 
Q 25.484375 6.203125 34.421875 6.203125 
Q 39.59375 6.203125 44.453125 7.46875 
Q 49.3125 8.734375 54.109375 11.28125 
L 54.109375 2.78125 
Q 49.265625 0.734375 44.1875 -0.34375 
Q 39.109375 -1.421875 33.890625 -1.421875 
Q 20.796875 -1.421875 13.15625 6.1875 
Q 5.515625 13.8125 5.515625 26.8125 
Q 5.515625 40.234375 12.765625 48.109375 
Q 20.015625 56 32.328125 56 
Q 43.359375 56 49.78125 48.890625 
Q 56.203125 41.796875 56.203125 29.59375 
z
M 47.21875 32.234375 
Q 47.125 39.59375 43.09375 43.984375 
Q 39.0625 48.390625 32.421875 48.390625 
Q 24.90625 48.390625 20.390625 44.140625 
Q 15.875 39.890625 15.1875 32.171875 
z
" id="DejaVuSans-101"/>
      </defs>
      <use xlink:href="#DejaVuSans-68"/>
      <use x="77.001953" xlink:href="#DejaVuSans-97"/>
      <use x="138.28125" xlink:href="#DejaVuSans-116"/>
      <use x="177.490234" xlink:href="#DejaVuSans-101"/>
     </g>
    </g>
   </g>
   <g id="matplotlib.axis_2">
    <g id="ytick_1">
     <g id="line2d_10">
      <defs>
       <path d="M 0 0 
L -3.5 0 
" id="m0370acab01" style="stroke:#000000;stroke-width:0.8;"/>
      </defs>
      <g>
       <use style="stroke:#000000;stroke-width:0.8;" x="108" xlink:href="#m0370acab01" y="446.50991"/>
      </g>
     </g>
     <g id="text_11">
      <!-- 0 -->
      <g transform="translate(93.365 451.068972)scale(0.12 -0.12)">
       <use xlink:href="#DejaVuSans-48"/>
      </g>
     </g>
    </g>
    <g id="ytick_2">
     <g id="line2d_11">
      <g>
       <use style="stroke:#000000;stroke-width:0.8;" x="108" xlink:href="#m0370acab01" y="383.84746"/>
      </g>
     </g>
     <g id="text_12">
      <!-- 20 -->
      <g transform="translate(85.73 388.406523)scale(0.12 -0.12)">
       <use xlink:href="#DejaVuSans-50"/>
       <use x="63.623047" xlink:href="#DejaVuSans-48"/>
      </g>
     </g>
    </g>
    <g id="ytick_3">
     <g id="line2d_12">
      <g>
       <use style="stroke:#000000;stroke-width:0.8;" x="108" xlink:href="#m0370acab01" y="321.185011"/>
      </g>
     </g>
     <g id="text_13">
      <!-- 40 -->
      <g transform="translate(85.73 325.744073)scale(0.12 -0.12)">
       <use xlink:href="#DejaVuSans-52"/>
       <use x="63.623047" xlink:href="#DejaVuSans-48"/>
      </g>
     </g>
    </g>
    <g id="ytick_4">
     <g id="line2d_13">
      <g>
       <use style="stroke:#000000;stroke-width:0.8;" x="108" xlink:href="#m0370acab01" y="258.522561"/>
      </g>
     </g>
     <g id="text_14">
      <!-- 60 -->
      <g transform="translate(85.73 263.081624)scale(0.12 -0.12)">
       <defs>
        <path d="M 33.015625 40.375 
Q 26.375 40.375 22.484375 35.828125 
Q 18.609375 31.296875 18.609375 23.390625 
Q 18.609375 15.53125 22.484375 10.953125 
Q 26.375 6.390625 33.015625 6.390625 
Q 39.65625 6.390625 43.53125 10.953125 
Q 47.40625 15.53125 47.40625 23.390625 
Q 47.40625 31.296875 43.53125 35.828125 
Q 39.65625 40.375 33.015625 40.375 
z
M 52.59375 71.296875 
L 52.59375 62.3125 
Q 48.875 64.0625 45.09375 64.984375 
Q 41.3125 65.921875 37.59375 65.921875 
Q 27.828125 65.921875 22.671875 59.328125 
Q 17.53125 52.734375 16.796875 39.40625 
Q 19.671875 43.65625 24.015625 45.921875 
Q 28.375 48.1875 33.59375 48.1875 
Q 44.578125 48.1875 50.953125 41.515625 
Q 57.328125 34.859375 57.328125 23.390625 
Q 57.328125 12.15625 50.6875 5.359375 
Q 44.046875 -1.421875 33.015625 -1.421875 
Q 20.359375 -1.421875 13.671875 8.265625 
Q 6.984375 17.96875 6.984375 36.375 
Q 6.984375 53.65625 15.1875 63.9375 
Q 23.390625 74.21875 37.203125 74.21875 
Q 40.921875 74.21875 44.703125 73.484375 
Q 48.484375 72.75 52.59375 71.296875 
z
" id="DejaVuSans-54"/>
       </defs>
       <use xlink:href="#DejaVuSans-54"/>
       <use x="63.623047" xlink:href="#DejaVuSans-48"/>
      </g>
     </g>
    </g>
    <g id="ytick_5">
     <g id="line2d_14">
      <g>
       <use style="stroke:#000000;stroke-width:0.8;" x="108" xlink:href="#m0370acab01" y="195.860112"/>
      </g>
     </g>
     <g id="text_15">
      <!-- 80 -->
      <g transform="translate(85.73 200.419174)scale(0.12 -0.12)">
       <defs>
        <path d="M 31.78125 34.625 
Q 24.75 34.625 20.71875 30.859375 
Q 16.703125 27.09375 16.703125 20.515625 
Q 16.703125 13.921875 20.71875 10.15625 
Q 24.75 6.390625 31.78125 6.390625 
Q 38.8125 6.390625 42.859375 10.171875 
Q 46.921875 13.96875 46.921875 20.515625 
Q 46.921875 27.09375 42.890625 30.859375 
Q 38.875 34.625 31.78125 34.625 
z
M 21.921875 38.8125 
Q 15.578125 40.375 12.03125 44.71875 
Q 8.5 49.078125 8.5 55.328125 
Q 8.5 64.0625 14.71875 69.140625 
Q 20.953125 74.21875 31.78125 74.21875 
Q 42.671875 74.21875 48.875 69.140625 
Q 55.078125 64.0625 55.078125 55.328125 
Q 55.078125 49.078125 51.53125 44.71875 
Q 48 40.375 41.703125 38.8125 
Q 48.828125 37.15625 52.796875 32.3125 
Q 56.78125 27.484375 56.78125 20.515625 
Q 56.78125 9.90625 50.3125 4.234375 
Q 43.84375 -1.421875 31.78125 -1.421875 
Q 19.734375 -1.421875 13.25 4.234375 
Q 6.78125 9.90625 6.78125 20.515625 
Q 6.78125 27.484375 10.78125 32.3125 
Q 14.796875 37.15625 21.921875 38.8125 
z
M 18.3125 54.390625 
Q 18.3125 48.734375 21.84375 45.5625 
Q 25.390625 42.390625 31.78125 42.390625 
Q 38.140625 42.390625 41.71875 45.5625 
Q 45.3125 48.734375 45.3125 54.390625 
Q 45.3125 60.0625 41.71875 63.234375 
Q 38.140625 66.40625 31.78125 66.40625 
Q 25.390625 66.40625 21.84375 63.234375 
Q 18.3125 60.0625 18.3125 54.390625 
z
" id="DejaVuSans-56"/>
       </defs>
       <use xlink:href="#DejaVuSans-56"/>
       <use x="63.623047" xlink:href="#DejaVuSans-48"/>
      </g>
     </g>
    </g>
    <g id="ytick_6">
     <g id="line2d_15">
      <g>
       <use style="stroke:#000000;stroke-width:0.8;" x="108" xlink:href="#m0370acab01" y="133.197662"/>
      </g>
     </g>
     <g id="text_16">
      <!-- 100 -->
      <g transform="translate(78.095 137.756725)scale(0.12 -0.12)">
       <use xlink:href="#DejaVuSans-49"/>
       <use x="63.623047" xlink:href="#DejaVuSans-48"/>
       <use x="127.246094" xlink:href="#DejaVuSans-48"/>
      </g>
     </g>
    </g>
    <g id="ytick_7">
     <g id="line2d_16">
      <g>
       <use style="stroke:#000000;stroke-width:0.8;" x="108" xlink:href="#m0370acab01" y="70.535213"/>
      </g>
     </g>
     <g id="text_17">
      <!-- 120 -->
      <g transform="translate(78.095 75.094275)scale(0.12 -0.12)">
       <use xlink:href="#DejaVuSans-49"/>
       <use x="63.623047" xlink:href="#DejaVuSans-50"/>
       <use x="127.246094" xlink:href="#DejaVuSans-48"/>
      </g>
     </g>
    </g>
    <g id="text_18">
     <!-- NO2(ppm) -->
     <g transform="translate(70.975469 303.927188)rotate(-90)scale(0.15 -0.15)">
      <defs>
       <path d="M 9.8125 72.90625 
L 23.09375 72.90625 
L 55.421875 11.921875 
L 55.421875 72.90625 
L 64.984375 72.90625 
L 64.984375 0 
L 51.703125 0 
L 19.390625 60.984375 
L 19.390625 0 
L 9.8125 0 
z
" id="DejaVuSans-78"/>
       <path d="M 39.40625 66.21875 
Q 28.65625 66.21875 22.328125 58.203125 
Q 16.015625 50.203125 16.015625 36.375 
Q 16.015625 22.609375 22.328125 14.59375 
Q 28.65625 6.59375 39.40625 6.59375 
Q 50.140625 6.59375 56.421875 14.59375 
Q 62.703125 22.609375 62.703125 36.375 
Q 62.703125 50.203125 56.421875 58.203125 
Q 50.140625 66.21875 39.40625 66.21875 
z
M 39.40625 74.21875 
Q 54.734375 74.21875 63.90625 63.9375 
Q 73.09375 53.65625 73.09375 36.375 
Q 73.09375 19.140625 63.90625 8.859375 
Q 54.734375 -1.421875 39.40625 -1.421875 
Q 24.03125 -1.421875 14.8125 8.828125 
Q 5.609375 19.09375 5.609375 36.375 
Q 5.609375 53.65625 14.8125 63.9375 
Q 24.03125 74.21875 39.40625 74.21875 
z
" id="DejaVuSans-79"/>
       <path d="M 31 75.875 
Q 24.46875 64.65625 21.28125 53.65625 
Q 18.109375 42.671875 18.109375 31.390625 
Q 18.109375 20.125 21.3125 9.0625 
Q 24.515625 -2 31 -13.1875 
L 23.1875 -13.1875 
Q 15.875 -1.703125 12.234375 9.375 
Q 8.59375 20.453125 8.59375 31.390625 
Q 8.59375 42.28125 12.203125 53.3125 
Q 15.828125 64.359375 23.1875 75.875 
z
" id="DejaVuSans-40"/>
       <path d="M 18.109375 8.203125 
L 18.109375 -20.796875 
L 9.078125 -20.796875 
L 9.078125 54.6875 
L 18.109375 54.6875 
L 18.109375 46.390625 
Q 20.953125 51.265625 25.265625 53.625 
Q 29.59375 56 35.59375 56 
Q 45.5625 56 51.78125 48.09375 
Q 58.015625 40.1875 58.015625 27.296875 
Q 58.015625 14.40625 51.78125 6.484375 
Q 45.5625 -1.421875 35.59375 -1.421875 
Q 29.59375 -1.421875 25.265625 0.953125 
Q 20.953125 3.328125 18.109375 8.203125 
z
M 48.6875 27.296875 
Q 48.6875 37.203125 44.609375 42.84375 
Q 40.53125 48.484375 33.40625 48.484375 
Q 26.265625 48.484375 22.1875 42.84375 
Q 18.109375 37.203125 18.109375 27.296875 
Q 18.109375 17.390625 22.1875 11.75 
Q 26.265625 6.109375 33.40625 6.109375 
Q 40.53125 6.109375 44.609375 11.75 
Q 48.6875 17.390625 48.6875 27.296875 
z
" id="DejaVuSans-112"/>
       <path d="M 52 44.1875 
Q 55.375 50.25 60.0625 53.125 
Q 64.75 56 71.09375 56 
Q 79.640625 56 84.28125 50.015625 
Q 88.921875 44.046875 88.921875 33.015625 
L 88.921875 0 
L 79.890625 0 
L 79.890625 32.71875 
Q 79.890625 40.578125 77.09375 44.375 
Q 74.3125 48.1875 68.609375 48.1875 
Q 61.625 48.1875 57.5625 43.546875 
Q 53.515625 38.921875 53.515625 30.90625 
L 53.515625 0 
L 44.484375 0 
L 44.484375 32.71875 
Q 44.484375 40.625 41.703125 44.40625 
Q 38.921875 48.1875 33.109375 48.1875 
Q 26.21875 48.1875 22.15625 43.53125 
Q 18.109375 38.875 18.109375 30.90625 
L 18.109375 0 
L 9.078125 0 
L 9.078125 54.6875 
L 18.109375 54.6875 
L 18.109375 46.1875 
Q 21.1875 51.21875 25.484375 53.609375 
Q 29.78125 56 35.6875 56 
Q 41.65625 56 45.828125 52.96875 
Q 50 49.953125 52 44.1875 
z
" id="DejaVuSans-109"/>
       <path d="M 8.015625 75.875 
L 15.828125 75.875 
Q 23.140625 64.359375 26.78125 53.3125 
Q 30.421875 42.28125 30.421875 31.390625 
Q 30.421875 20.453125 26.78125 9.375 
Q 23.140625 -1.703125 15.828125 -13.1875 
L 8.015625 -13.1875 
Q 14.5 -2 17.703125 9.0625 
Q 20.90625 20.125 20.90625 31.390625 
Q 20.90625 42.671875 17.703125 53.65625 
Q 14.5 64.65625 8.015625 75.875 
z
" id="DejaVuSans-41"/>
      </defs>
      <use xlink:href="#DejaVuSans-78"/>
      <use x="74.804688" xlink:href="#DejaVuSans-79"/>
      <use x="153.515625" xlink:href="#DejaVuSans-50"/>
      <use x="217.138672" xlink:href="#DejaVuSans-40"/>
      <use x="256.152344" xlink:href="#DejaVuSans-112"/>
      <use x="319.628906" xlink:href="#DejaVuSans-112"/>
      <use x="383.105469" xlink:href="#DejaVuSans-109"/>
      <use x="480.517578" xlink:href="#DejaVuSans-41"/>
     </g>
    </g>
   </g>
   <g id="line2d_17">
    <path clip-path="url(#p747eaf0745)" d="M 138.436364 317.117852 
L 139.270237 277.729124 
L 140.10411 202.544733 
L 140.937983 200.841463 
L 141.771856 265.069952 
L 142.605729 256.497474 
L 143.439601 229.257109 
L 145.107347 264.048972 
L 145.94122 225.953649 
L 146.775093 238.202957 
L 147.608966 323.44253 
L 148.442839 233.927602 
L 149.276712 265.425822 
L 150.110585 290.020155 
L 150.944458 260.735695 
L 151.778331 336.808535 
L 152.612204 266.942567 
L 153.446077 321.162505 
L 154.27995 282.632774 
L 155.113823 256.698405 
L 155.947696 220.780028 
L 156.781569 256.708222 
L 157.615442 300.625096 
L 158.449315 352.118329 
L 159.283188 414.87425 
L 160.117061 419.704272 
L 160.950934 417.213178 
L 161.784807 410.960848 
L 162.61868 409.909243 
L 163.452553 318.124107 
L 164.286426 287.450524 
L 165.120299 297.201376 
L 165.954172 278.25434 
L 166.788045 385.40081 
L 167.621918 356.425589 
L 168.455791 344.662229 
L 169.289664 362.12688 
L 170.123537 422.826115 
L 170.95741 423.498587 
L 171.791283 401.478794 
L 172.625156 315.956978 
L 173.459029 325.243971 
L 174.292902 318.781854 
L 175.960648 337.871238 
L 176.794521 428.662391 
L 177.628394 425.65099 
L 178.462267 356.835454 
L 179.296139 278.200346 
L 180.130012 270.123313 
L 180.963885 264.797527 
L 181.797758 271.053485 
L 182.631631 328.39772 
L 183.465504 308.603957 
L 184.299377 285.209767 
L 185.13325 302.364287 
L 185.967123 344.608234 
L 186.800996 286.927763 
L 187.634869 272.766572 
L 188.468742 333.433901 
L 189.302615 303.020472 
L 190.136488 335.839095 
L 190.970361 345.543315 
L 191.804234 347.673629 
L 192.638107 340.300974 
L 193.47198 281.916125 
L 194.305853 287.187917 
L 195.139726 313.14192 
L 195.973599 381.029739 
L 196.807472 325.786367 
L 197.641345 260.431364 
L 198.475218 268.886356 
L 199.309091 353.693976 
L 200.142964 357.736174 
L 201.81071 293.031555 
L 202.644583 262.831649 
L 203.478456 239.015323 
L 204.312329 274.442844 
L 205.146202 267.293529 
L 205.980075 324.878283 
L 206.813948 327.381648 
L 207.647821 339.03702 
L 208.481694 342.367477 
L 209.315567 324.225445 
L 210.14944 323.761586 
L 210.983313 338.109303 
L 211.817186 366.294246 
L 212.651059 355.240172 
L 213.484932 345.78138 
L 214.318804 346.866171 
L 215.152677 314.637003 
L 215.98655 320.647106 
L 216.820423 331.043433 
L 217.654296 352.479108 
L 218.488169 343.555349 
L 219.322042 312.251016 
L 220.155915 243.658303 
L 233.497883 341.243418 
L 235.999502 253.895618 
L 237.667248 338.891867 
L 238.501121 340.197895 
L 239.334994 365.027838 
L 240.168867 352.695085 
L 241.00274 375.230277 
L 241.836613 385.960386 
L 242.670486 384.220302 
L 243.504359 378.953419 
L 244.338232 377.336049 
L 245.172105 380.052936 
L 246.005978 381.361067 
L 246.839851 374.371279 
L 247.673724 338.960938 
L 248.507597 337.714164 
L 250.175342 355.529777 
L 251.009215 375.902749 
L 251.843088 384.031322 
L 252.676961 390.356 
L 253.510834 330.928082 
L 254.344707 343.43018 
L 255.17858 364.382363 
L 256.012453 360.504601 
L 256.846326 369.27865 
L 257.680199 347.26131 
L 258.514072 359.589155 
L 259.347945 335.645207 
L 260.181818 348.192885 
L 261.015691 331.70118 
L 261.849564 328.611242 
L 262.683437 355.105187 
L 263.51731 365.045018 
L 264.351183 402.806559 
L 265.185056 399.834427 
L 266.018929 389.047869 
L 266.852802 387.783915 
L 267.686675 391.489877 
L 268.520548 388.110335 
L 269.354421 358.170582 
L 270.188294 374.120943 
L 271.022167 373.647267 
L 271.85604 376.938455 
L 272.689913 388.863798 
L 273.523786 386.220539 
L 274.357659 385.069483 
L 275.191532 387.560576 
L 276.025405 393.895071 
L 276.859278 381.326707 
L 277.693151 400.86567 
L 278.527024 385.516161 
L 279.360897 393.08025 
L 280.19477 391.082467 
L 281.028643 397.787558 
L 281.862516 407.415695 
L 282.696389 398.779087 
L 283.530262 392.74156 
L 284.364134 389.443435 
L 285.198007 402.696116 
L 286.03188 401.002664 
L 286.865753 394.788428 
L 287.699626 401.471431 
L 288.533499 390.756048 
L 289.367372 390.765865 
L 290.201245 394.147862 
L 291.035118 384.46573 
L 291.868991 377.96189 
L 292.702864 385.830309 
L 293.536737 400.609979 
L 294.37061 399.309211 
L 295.204483 398.9018 
L 296.038356 399.70435 
L 296.872229 390.655422 
L 297.706102 403.39804 
L 298.539975 397.30161 
L 299.373848 409.519013 
L 300.207721 396.224182 
L 301.041594 397.760561 
L 301.875467 387.967986 
L 303.543213 405.160213 
L 304.377086 407.815743 
L 305.210959 403.677828 
L 306.044832 396.463101 
L 306.878705 391.460426 
L 307.712578 391.524237 
L 308.546451 392.74156 
L 309.380324 380.671414 
L 310.214197 389.843056 
L 311.04807 400.87995 
L 311.881943 400.551076 
L 312.715816 400.992846 
L 313.549689 398.140974 
L 314.383562 391.914467 
L 315.217435 406.54688 
L 316.051308 410.421295 
L 316.885181 387.150711 
L 317.719054 377.230515 
L 318.552927 386.62795 
L 319.3868 385.660964 
L 320.220672 396.535875 
L 321.054545 398.860078 
L 321.888418 404.870608 
L 322.722291 405.01541 
L 323.556164 383.353941 
L 324.390037 392.932993 
L 325.22391 386.711395 
L 326.057783 390.299552 
L 326.891656 389.438546 
L 327.725529 389.389014 
L 328.559402 404.323303 
L 330.227148 376.651305 
L 331.061021 385.913755 
L 331.894894 386.03156 
L 332.728767 361.299788 
L 334.396513 398.653918 
L 335.230386 388.161874 
L 336.064259 395.193255 
L 336.898132 392.277701 
L 337.732005 359.073756 
L 338.565878 358.263844 
L 340.233624 387.825638 
L 341.067497 382.467946 
L 343.569116 336.460027 
L 344.402989 360.563504 
L 345.236862 360.261628 
L 346.070735 380.129018 
L 346.904608 385.58979 
L 347.738481 382.146436 
L 348.572354 365.332169 
L 350.2401 390.115481 
L 351.073973 381.113184 
L 351.907846 383.037339 
L 352.741719 377.083258 
L 353.575592 384.782332 
L 354.409465 400.509353 
L 355.243337 394.805608 
L 356.07721 391.54878 
L 356.911083 386.897921 
L 357.744956 384.531995 
L 358.578829 382.877811 
L 359.412702 377.151978 
L 360.246575 373.453379 
L 361.080448 378.494468 
L 361.914321 345.157993 
L 362.748194 374.533262 
L 363.582067 384.384739 
L 364.41594 328.422263 
L 365.249813 349.610056 
L 366.083686 365.373891 
L 366.917559 385.629058 
L 367.751432 380.708228 
L 368.585305 362.936792 
L 369.419178 357.476021 
L 370.253051 370.007571 
L 371.086924 385.121022 
L 371.920797 394.020239 
L 372.75467 394.177313 
L 373.588543 376.457417 
L 374.422416 347.698172 
L 376.090162 362.259411 
L 376.924035 410.490907 
L 377.757908 357.696906 
L 378.591781 368.012242 
L 379.425654 354.459711 
L 380.259527 384.635075 
L 381.0934 386.10028 
L 381.927273 389.533817 
L 382.761146 387.192434 
L 383.595019 390.093392 
L 384.428892 389.202489 
L 385.262765 386.669673 
L 386.930511 343.884222 
L 387.764384 338.882401 
L 388.598257 338.992843 
L 389.43213 328.009944 
L 390.266002 371.546404 
L 391.099875 340.941541 
L 391.933748 328.532705 
L 392.767621 326.368031 
L 393.601494 346.230513 
L 394.435367 375.110017 
L 395.26924 328.032032 
L 396.103113 321.457018 
L 396.936986 264.662541 
L 397.770859 348.100674 
L 398.604732 354.707594 
L 399.438605 343.631431 
L 400.272478 309.995534 
L 401.106351 319.643306 
L 401.940224 300.251035 
L 402.774097 311.981046 
L 403.60797 339.768396 
L 404.441843 316.631905 
L 405.275716 304.569763 
L 406.109589 329.557313 
L 406.943462 314.499136 
L 407.777335 322.087768 
L 408.611208 333.090302 
L 409.445081 345.582583 
L 410.278954 339.233363 
L 411.112827 329.34998 
L 411.9467 288.476413 
L 412.780573 307.067579 
L 413.614446 301.670619 
L 414.448319 337.397562 
L 415.282192 364.674422 
L 416.116065 355.934733 
L 416.949938 360.295988 
L 417.783811 342.308575 
L 418.617684 336.032983 
L 419.451557 372.734275 
L 420.28543 364.897761 
L 421.119303 333.711234 
L 421.953176 266.289729 
L 422.787049 259.376024 
L 423.620922 318.6076 
L 425.288667 234.391461 
L 426.12254 216.037022 
L 426.956413 249.472687 
L 427.790286 303.863065 
L 428.624159 301.712341 
L 429.458032 337.661397 
L 430.291905 327.793967 
L 431.125778 328.974922 
L 431.959651 326.058792 
L 432.793524 339.132737 
L 433.627397 345.720023 
L 434.46127 325.636656 
L 436.129016 162.28719 
L 436.962889 299.277696 
L 437.796762 294.960619 
L 438.630635 328.829673 
L 439.464508 172.573074 
L 440.298381 259.599363 
L 441.132254 253.343405 
L 441.966127 371.232256 
L 442.8 366.007095 
L 443.633873 353.568808 
L 444.467746 276.796498 
L 445.301619 267.487417 
L 446.135492 227.993155 
L 446.969365 200.627941 
L 447.803238 279.056889 
L 448.637111 341.183463 
L 449.470984 370.078745 
L 450.304857 342.713531 
L 451.13873 322.203119 
L 451.972603 350.763567 
L 452.806476 306.289572 
L 453.640349 167.784776 
L 454.474222 88.759437 
L 455.308095 86.923636 
L 456.141968 178.301362 
L 456.975841 355.645128 
L 457.809714 282.873294 
L 458.643587 223.306151 
L 459.47746 235.73886 
L 460.311333 161.347201 
L 461.145205 285.759526 
L 461.979078 204.643633 
L 462.812951 278.497314 
L 463.646824 250.722235 
L 464.480697 236.715663 
L 465.31457 284.900528 
L 466.148443 345.935999 
L 466.982316 333.694054 
L 467.816189 308.761031 
L 469.483935 274.190053 
L 470.317808 288.41751 
L 471.151681 330.795551 
L 471.985554 287.276271 
L 472.819427 287.740129 
L 473.6533 254.546002 
L 474.487173 290.346574 
L 476.154919 322.733243 
L 476.988792 401.608871 
L 477.822665 406.27691 
L 478.656538 384.063228 
L 479.490411 348.228296 
L 480.324284 363.474279 
L 481.158157 321.515921 
L 481.99203 333.298916 
L 482.825903 387.78637 
L 483.659776 361.523127 
L 484.493649 314.825555 
L 485.327522 306.770611 
L 486.161395 331.519563 
L 486.995268 328.721685 
L 487.829141 321.901243 
L 488.663014 350.083731 
L 489.496887 319.989359 
L 490.33076 304.758102 
L 491.164633 361.022454 
L 491.998506 335.269702 
L 492.832379 266.35354 
L 493.666252 348.076131 
L 494.500125 329.693579 
L 495.333998 280.065598 
L 496.16787 282.897836 
L 498.669489 349.322905 
L 499.503362 316.060058 
L 500.337235 325.18016 
L 501.171108 329.035832 
L 502.004981 286.508081 
L 502.838854 323.113657 
L 503.672727 344.041296 
L 504.5066 328.400174 
L 505.340473 323.967746 
L 506.174346 331.998148 
L 507.008219 341.570904 
L 507.842092 354.955476 
L 508.675965 343.943125 
L 509.509838 371.394238 
L 510.343711 372.297413 
L 511.177584 310.108431 
L 512.011457 223.19013 
L 512.84533 280.514411 
L 513.679203 355.203358 
L 514.513076 303.526054 
L 515.346949 331.320766 
L 516.180822 375.546879 
L 517.014695 379.247932 
L 517.848568 366.942176 
L 518.682441 373.858335 
L 519.516314 365.221726 
L 520.350187 366.097904 
L 521.18406 357.520198 
L 522.017933 333.976297 
L 522.851806 328.746227 
L 523.685679 357.385212 
L 524.519552 329.909556 
L 525.353425 349.747495 
L 526.187298 342.627631 
L 527.021171 369.025859 
L 527.855044 348.267565 
L 528.688917 351.256877 
L 529.52279 364.561525 
L 530.356663 354.453018 
L 531.190535 341.685188 
L 532.024408 312.147937 
L 532.858281 358.065048 
L 533.692154 348.593984 
L 534.526027 349.094657 
L 535.3599 344.696588 
L 536.193773 326.485836 
L 537.027646 322.912406 
L 537.861519 364.259649 
L 538.695392 364.595885 
L 539.529265 355.083098 
L 540.363138 331.256955 
L 541.197011 336.339768 
L 542.030884 330.621297 
L 542.864757 271.019125 
L 543.69863 329.043195 
L 544.532503 343.663337 
L 545.366376 354.727228 
L 546.200249 355.083098 
L 547.034122 335.358056 
L 547.867995 360.421156 
L 548.701868 334.673312 
L 549.535741 342.556457 
L 550.369614 365.665951 
L 551.203487 376.184992 
L 552.03736 375.55915 
L 552.871233 380.705774 
L 553.705106 360.967121 
L 554.538979 337.2184 
L 555.372852 323.395899 
L 556.206725 315.09798 
L 557.040598 317.189026 
L 557.874471 318.818668 
L 558.708344 312.118485 
L 559.542217 311.551547 
L 560.37609 363.516002 
L 561.209963 380.629691 
L 562.043836 394.020239 
L 562.877709 376.575222 
L 563.711582 376.513865 
L 564.545455 383.39321 
L 565.379328 388.100517 
L 566.2132 382.293693 
L 567.047073 386.745755 
L 567.880946 380.875119 
L 568.714819 355.610768 
L 569.548692 357.709177 
L 570.382565 353.060772 
L 571.216438 373.497556 
L 572.050311 379.895862 
L 572.884184 325.48449 
L 573.718057 363.535636 
L 574.55193 362.622644 
L 575.385803 367.619557 
L 576.219676 359.142476 
L 577.053549 383.606732 
L 577.887422 392.307152 
L 578.721295 388.77299 
L 579.555168 379.608711 
L 580.389041 373.02388 
L 581.222914 374.020317 
L 582.056787 381.029739 
L 582.89066 380.41126 
L 583.724533 380.013667 
L 584.558406 374.53817 
L 585.392279 383.628821 
L 586.226152 363.454645 
L 587.060025 361.974715 
L 587.893898 345.90164 
L 588.727771 346.507847 
L 589.561644 331.148967 
L 590.395517 363.162586 
L 591.22939 387.226794 
L 592.063263 365.518694 
L 592.897136 375.173828 
L 593.731009 374.43509 
L 594.564882 380.926659 
L 595.398755 372.842263 
L 596.232628 382.02216 
L 597.066501 396.346896 
L 597.900374 406.983742 
L 598.734247 405.886679 
L 599.56812 391.099647 
L 600.401993 394.160133 
L 601.235866 393.868074 
L 602.903611 413.909718 
L 603.737484 400.217294 
L 604.571357 391.264083 
L 605.40523 389.609899 
L 606.239103 402.838464 
L 607.072976 383.915971 
L 607.906849 383.280313 
L 608.740722 402.053095 
L 609.574595 404.767528 
L 611.242341 359.284824 
L 612.076214 361.520673 
L 612.910087 351.016358 
L 613.74396 347.256402 
L 614.577833 383.071699 
L 615.411706 394.327024 
L 617.079452 377.645288 
L 617.913325 368.247852 
L 618.747198 372.186971 
L 619.581071 391.327895 
L 620.414944 384.470638 
L 621.248817 359.046759 
L 622.08269 389.970678 
L 622.916563 392.140261 
L 623.750436 368.569363 
L 624.584309 338.666424 
L 625.418182 348.000048 
L 626.252055 370.221093 
L 627.085928 386.286805 
L 627.919801 377.655105 
L 629.587547 386.115005 
L 630.42142 384.666981 
L 631.255293 372.964977 
L 632.089166 383.92088 
L 632.923039 374.616707 
L 633.756912 367.391309 
L 634.590785 376.077003 
L 635.424658 374.07922 
L 636.258531 377.426857 
L 637.092403 397.767923 
L 637.926276 405.957853 
L 639.594022 393.696274 
L 640.427895 392.11081 
L 641.261768 398.295594 
L 642.095641 374.155303 
L 642.929514 363.174857 
L 643.763387 383.437387 
L 644.59726 381.817562 
L 645.431133 378.521465 
L 646.265006 381.123001 
L 647.098879 395.522258 
L 647.932752 392.99435 
L 648.766625 393.64228 
L 649.600498 397.839098 
L 650.434371 363.70989 
L 651.268244 382.93426 
L 652.102117 387.239065 
L 652.93599 364.095212 
L 653.769863 357.873614 
L 654.603736 367.170424 
L 655.437609 360.990549 
L 656.271482 362.784627 
L 657.105355 384.598261 
L 657.939228 368.390201 
L 658.773101 378.980416 
L 659.606974 352.383391 
L 660.440847 364.735779 
L 661.27472 405.295198 
L 662.108593 394.248487 
L 662.942466 390.819859 
L 663.776339 399.304302 
L 664.610212 391.173275 
L 665.444085 375.738313 
L 666.277958 383.469292 
L 667.111831 367.833079 
L 667.945704 355.441423 
L 668.779577 364.247377 
L 669.61345 385.206922 
L 670.447323 362.789535 
L 671.281196 373.053331 
L 672.115068 393.912251 
L 672.948941 400.1633 
L 673.782814 377.527482 
L 674.616687 386.581319 
L 675.45056 372.982157 
L 676.284433 390.402631 
L 677.118306 413.126803 
L 677.952179 442.996364 
L 682.955417 336.48457 
L 683.78929 381.469055 
L 684.623163 388.333674 
L 685.457036 348.076131 
L 686.290909 282.892062 
L 687.958655 362.531836 
L 688.792528 373.055785 
L 689.626401 353.419097 
L 690.460274 379.434457 
L 691.294147 354.670779 
L 692.12802 285.96814 
L 692.961893 269.409117 
L 693.795766 312.403182 
L 694.629639 324.804655 
L 695.463512 349.64687 
L 696.297385 327.155854 
L 697.131258 326.247771 
L 697.965131 341.020078 
L 698.799004 324.353068 
L 699.632877 329.96355 
L 700.46675 332.442372 
L 701.300623 331.745357 
L 702.968369 387.560576 
L 703.802242 345.803468 
L 704.636115 370.761034 
L 705.469988 299.073991 
L 706.303861 335.32615 
L 707.137733 363.952864 
L 707.971606 321.817797 
L 708.805479 318.428437 
L 709.639352 282.006933 
L 710.473225 273.750738 
L 711.307098 316.862384 
L 712.140971 249.475015 
L 712.974844 322.16095 
L 713.808717 309.360322 
L 714.64259 378.313967 
L 715.476463 359.556134 
L 717.144209 236.800224 
L 717.978082 262.570157 
L 718.811955 265.957062 
L 719.645828 282.621172 
L 720.479701 306.166189 
L 721.313574 346.715345 
L 722.147447 373.984619 
L 722.98132 330.881227 
L 723.815193 341.89871 
L 724.649066 271.812526 
L 725.482939 303.073797 
L 726.316812 289.909043 
L 727.150685 227.576597 
L 727.984558 277.844698 
L 728.818431 225.782742 
L 729.652304 254.666485 
L 730.486177 253.199272 
L 731.32005 302.950637 
L 732.153923 331.178418 
L 732.987796 209.35692 
L 733.821669 255.140384 
L 734.655542 250.50849 
L 735.489415 352.809097 
L 736.323288 358.653852 
L 737.157161 334.910708 
L 737.991034 323.173541 
L 738.824907 347.775593 
L 739.65878 296.921142 
L 741.326526 204.858895 
L 742.160399 327.065939 
L 742.994271 357.312476 
L 743.828144 353.060772 
L 745.49589 253.402754 
L 746.329763 284.701509 
L 747.163636 251.9168 
L 747.163636 251.9168 
" style="fill:none;stroke:#1f77b4;stroke-linecap:square;stroke-width:1.5;"/>
   </g>
   <g id="line2d_18">
    <path clip-path="url(#p747eaf0745)" d="M 138.436364 286.499442 
L 139.270237 284.543486 
L 140.10411 226.639185 
L 140.937983 201.902231 
L 141.771856 273.031019 
L 142.605729 234.991937 
L 143.439601 246.43795 
L 144.273474 224.931397 
L 145.107347 240.496277 
L 145.94122 235.444565 
L 146.775093 221.52117 
L 147.608966 298.515048 
L 148.442839 226.5656 
L 149.276712 271.249379 
L 150.110585 276.228896 
L 150.944458 270.087988 
L 151.778331 310.107695 
L 152.612204 277.218066 
L 153.446077 276.844757 
L 154.27995 309.05946 
L 155.113823 223.400205 
L 155.947696 250.132035 
L 156.781569 232.355013 
L 157.615442 284.889411 
L 158.449315 306.440063 
L 159.283188 383.36175 
L 160.117061 387.481889 
L 160.950934 390.542793 
L 161.784807 399.149701 
L 162.61868 390.292033 
L 163.452553 347.292997 
L 164.286426 272.165704 
L 165.120299 289.438571 
L 165.954172 254.185265 
L 166.788045 331.473581 
L 167.621918 335.693978 
L 169.289664 306.648901 
L 170.123537 400.961977 
L 170.95741 405.60712 
L 172.625156 318.202011 
L 173.459029 310.931801 
L 174.292902 290.849367 
L 175.126775 304.588767 
L 175.960648 329.972533 
L 176.794521 392.440054 
L 177.628394 405.996355 
L 178.462267 376.053269 
L 179.296139 227.336604 
L 180.130012 252.244118 
L 180.963885 295.409207 
L 181.797758 256.578978 
L 182.631631 328.388913 
L 183.465504 289.851029 
L 184.299377 294.807044 
L 185.13325 300.484561 
L 185.967123 297.57854 
L 186.800996 305.048223 
L 187.634869 260.939703 
L 188.468742 323.360738 
L 189.302615 287.470618 
L 190.136488 311.775385 
L 190.970361 303.644555 
L 191.804234 355.347257 
L 192.638107 292.914236 
L 193.47198 293.035645 
L 194.305853 271.985213 
L 195.973599 359.950416 
L 196.807472 294.449347 
L 197.641345 274.132019 
L 198.475218 266.063296 
L 199.309091 352.849692 
L 200.142964 323.144678 
L 200.976837 322.605936 
L 202.644583 246.351859 
L 203.478456 226.936074 
L 204.312329 262.197635 
L 205.146202 270.747906 
L 205.980075 303.502218 
L 206.813948 322.853933 
L 207.647821 332.648318 
L 208.481694 308.700604 
L 209.315567 313.14409 
L 210.14944 318.831256 
L 210.983313 322.489109 
L 211.817186 339.575372 
L 212.651059 321.036989 
L 213.484932 317.761714 
L 214.318804 334.407438 
L 215.152677 286.351037 
L 215.98655 342.032587 
L 216.820423 317.067189 
L 217.654296 329.143511 
L 218.488169 312.705727 
L 219.322042 312.906257 
L 220.155915 219.317606 
L 233.497883 330.459324 
L 234.331756 311.29986 
L 235.165629 271.389317 
L 235.999502 262.342242 
L 236.833375 260.4667 
L 237.667248 349.886127 
L 238.501121 313.86574 
L 239.334994 346.033087 
L 240.168867 349.265606 
L 241.00274 369.321078 
L 241.836613 366.29266 
L 242.670486 383.347502 
L 243.504359 370.558631 
L 244.338232 375.543808 
L 245.172105 366.48037 
L 246.005978 374.595143 
L 246.839851 377.025042 
L 247.673724 334.406951 
L 248.507597 349.062055 
L 249.341469 304.218975 
L 250.175342 363.414403 
L 251.009215 345.663108 
L 251.843088 368.93172 
L 252.676961 365.081496 
L 253.510834 322.423782 
L 254.344707 307.129072 
L 255.17858 345.324203 
L 256.012453 353.09493 
L 256.846326 362.756206 
L 257.680199 322.226255 
L 258.514072 333.335041 
L 259.347945 325.071126 
L 260.181818 349.89663 
L 261.015691 310.368385 
L 261.849564 313.041073 
L 262.683437 342.567384 
L 263.51731 321.581357 
L 264.351183 381.589509 
L 265.185056 386.397598 
L 266.018929 374.362063 
L 266.852802 370.116462 
L 267.686675 384.965492 
L 268.520548 376.908506 
L 269.354421 343.647606 
L 270.188294 358.542579 
L 271.022167 353.034264 
L 271.85604 356.032593 
L 272.689913 387.543418 
L 273.523786 385.44951 
L 274.357659 393.241469 
L 275.191532 376.441974 
L 276.025405 389.249017 
L 276.859278 378.095428 
L 277.693151 383.086675 
L 278.527024 386.361162 
L 279.360897 382.505707 
L 281.028643 394.745364 
L 281.862516 403.894573 
L 282.696389 392.758616 
L 283.530262 389.974695 
L 284.364134 363.487197 
L 285.198007 393.202032 
L 286.03188 392.020244 
L 286.865753 399.710117 
L 287.699626 393.841987 
L 288.533499 386.844967 
L 289.367372 375.668429 
L 290.201245 379.062994 
L 291.035118 375.976009 
L 291.868991 366.851877 
L 292.702864 383.867272 
L 293.536737 391.156085 
L 294.37061 392.733324 
L 295.204483 387.362331 
L 296.038356 387.804262 
L 296.872229 382.716137 
L 297.706102 394.550601 
L 298.539975 396.99482 
L 299.373848 397.406472 
L 300.207721 393.672966 
L 301.041594 400.10978 
L 301.875467 368.784694 
L 302.70934 390.505371 
L 303.543213 408.373951 
L 304.377086 405.182416 
L 305.210959 403.309188 
L 306.044832 385.704184 
L 306.878705 388.801614 
L 307.712578 369.726921 
L 308.546451 380.020791 
L 309.380324 377.203465 
L 310.214197 387.386678 
L 311.881943 391.770997 
L 312.715816 396.654623 
L 313.549689 406.035341 
L 314.383562 383.846699 
L 315.217435 376.505508 
L 316.051308 396.259017 
L 316.885181 370.339165 
L 317.719054 354.746489 
L 318.552927 367.205374 
L 319.3868 355.709101 
L 320.220672 388.519131 
L 321.054545 387.282729 
L 321.888418 396.642978 
L 322.722291 394.558888 
L 323.556164 383.791397 
L 324.390037 383.684652 
L 325.22391 360.492827 
L 326.057783 375.265868 
L 326.891656 386.796243 
L 327.725529 384.366802 
L 328.559402 393.506181 
L 329.393275 374.870972 
L 330.227148 350.738641 
L 331.061021 373.759036 
L 331.894894 365.498939 
L 332.728767 346.992956 
L 333.56264 377.296658 
L 334.396513 386.821375 
L 335.230386 381.683668 
L 336.064259 372.721832 
L 336.898132 380.088361 
L 337.732005 349.782224 
L 338.565878 345.264865 
L 339.399751 368.85735 
L 340.233624 363.273878 
L 341.067497 365.597185 
L 343.569116 323.213934 
L 344.402989 341.713758 
L 345.236862 341.613068 
L 346.070735 366.088098 
L 346.904608 373.439368 
L 347.738481 364.300249 
L 348.572354 338.750618 
L 349.406227 362.275247 
L 350.2401 363.447261 
L 351.073973 364.20163 
L 351.907846 369.494904 
L 352.741719 370.431118 
L 353.575592 355.546277 
L 354.409465 392.722629 
L 355.243337 369.656867 
L 356.07721 373.779297 
L 356.911083 377.320551 
L 357.744956 372.421756 
L 358.578829 375.929911 
L 359.412702 369.543243 
L 360.246575 364.190684 
L 361.080448 354.098228 
L 361.914321 335.112125 
L 362.748194 366.271981 
L 363.582067 376.291521 
L 364.41594 303.612537 
L 365.249813 344.390439 
L 366.083686 342.630822 
L 366.917559 362.240516 
L 367.751432 360.672382 
L 368.585305 364.201238 
L 369.419178 362.402044 
L 370.253051 350.400836 
L 371.086924 354.967385 
L 371.920797 363.336049 
L 372.75467 375.9453 
L 373.588543 373.736982 
L 374.422416 348.916432 
L 375.256289 343.769124 
L 376.090162 343.605038 
L 376.924035 366.529517 
L 377.757908 364.451276 
L 378.591781 360.162335 
L 379.425654 343.190059 
L 381.0934 372.53929 
L 381.927273 367.735685 
L 382.761146 370.534149 
L 383.595019 378.293914 
L 384.428892 394.706254 
L 386.096638 339.018919 
L 386.930511 331.842291 
L 387.764384 349.573092 
L 388.598257 329.00284 
L 389.43213 323.551468 
L 390.266002 340.493527 
L 391.099875 341.298831 
L 391.933748 328.320379 
L 392.767621 325.484619 
L 393.601494 322.167455 
L 394.435367 376.966161 
L 396.103113 321.483399 
L 396.936986 286.495393 
L 397.770859 303.449584 
L 398.604732 344.127146 
L 399.438605 347.887669 
L 400.272478 304.632799 
L 401.106351 307.058778 
L 401.940224 289.167465 
L 402.774097 279.531901 
L 403.60797 302.537149 
L 404.441843 313.664443 
L 405.275716 296.714577 
L 406.109589 318.77945 
L 406.943462 292.877539 
L 407.777335 308.940602 
L 409.445081 315.801948 
L 410.278954 350.65535 
L 411.9467 274.381666 
L 412.780573 318.021115 
L 413.614446 292.221972 
L 414.448319 312.403088 
L 415.282192 345.491353 
L 416.116065 344.31636 
L 416.949938 357.746532 
L 417.783811 356.593878 
L 418.617684 313.772922 
L 419.451557 342.623485 
L 420.28543 349.663929 
L 421.119303 329.622542 
L 421.953176 258.199016 
L 422.787049 172.149289 
L 423.620922 286.866926 
L 424.454795 244.420186 
L 425.288667 177.233051 
L 426.12254 212.326329 
L 426.956413 204.942272 
L 427.790286 284.344978 
L 428.624159 280.238389 
L 429.458032 360.977112 
L 430.291905 344.539256 
L 431.125778 349.764282 
L 431.959651 345.559627 
L 432.793524 360.587678 
L 433.627397 361.643545 
L 434.46127 351.773449 
L 435.295143 298.955613 
L 436.129016 142.657952 
L 436.962889 287.623436 
L 437.796762 288.48645 
L 438.630635 327.482106 
L 439.464508 197.638809 
L 440.298381 170.608233 
L 441.132254 314.774897 
L 441.966127 317.814558 
L 442.8 353.063227 
L 443.633873 333.825151 
L 444.467746 305.727048 
L 445.301619 307.188226 
L 446.135492 210.924699 
L 446.969365 199.173292 
L 449.470984 336.433236 
L 450.304857 330.832855 
L 451.13873 275.834384 
L 451.972603 333.473624 
L 452.806476 314.136075 
L 453.640349 185.458475 
L 454.474222 152.288502 
L 455.308095 88.160318 
L 456.141968 142.129866 
L 456.975841 363.491405 
L 458.643587 216.156835 
L 459.47746 252.244434 
L 460.311333 184.216602 
L 461.145205 244.385455 
L 461.979078 281.551221 
L 462.812951 208.459405 
L 463.646824 322.341086 
L 464.480697 231.599802 
L 465.31457 260.735442 
L 466.148443 334.226073 
L 466.982316 337.885764 
L 468.650062 303.099082 
L 469.483935 302.454594 
L 470.317808 296.02901 
L 471.151681 328.782456 
L 471.985554 288.295884 
L 472.819427 325.756784 
L 473.6533 280.730946 
L 474.487173 275.949596 
L 475.321046 292.420101 
L 476.154919 301.962609 
L 476.988792 366.024038 
L 477.822665 399.405698 
L 478.656538 408.722888 
L 479.490411 373.508113 
L 480.324284 369.929798 
L 481.158157 358.266361 
L 481.99203 331.493515 
L 482.825903 376.02255 
L 483.659776 359.801848 
L 484.493649 327.951739 
L 485.327522 321.924545 
L 486.161395 348.316541 
L 486.995268 326.207816 
L 487.829141 323.031344 
L 488.663014 341.142347 
L 490.33076 278.710053 
L 491.164633 336.035562 
L 491.998506 318.744119 
L 492.832379 286.101567 
L 493.666252 337.371441 
L 495.333998 269.954116 
L 496.16787 249.634339 
L 497.001743 299.920074 
L 497.835616 297.699417 
L 498.669489 336.588678 
L 499.503362 335.258753 
L 500.337235 287.659421 
L 501.171108 327.981934 
L 502.004981 289.63454 
L 502.838854 309.901242 
L 503.672727 336.028156 
L 504.5066 336.668046 
L 505.340473 335.318376 
L 506.174346 336.520441 
L 507.008219 326.564603 
L 507.842092 354.748665 
L 508.675965 351.496767 
L 509.509838 366.832096 
L 510.343711 366.353728 
L 511.177584 304.375701 
L 512.011457 226.9476 
L 512.84533 231.383135 
L 513.679203 350.211715 
L 514.513076 297.900013 
L 515.346949 311.762911 
L 516.180822 365.425484 
L 517.014695 371.366018 
L 517.848568 358.540725 
L 518.682441 370.449946 
L 519.516314 371.720812 
L 520.350187 373.516861 
L 521.18406 363.196593 
L 522.017933 318.558878 
L 522.851806 329.196012 
L 523.685679 350.098144 
L 524.519552 338.055503 
L 525.353425 328.13177 
L 526.187298 316.866526 
L 527.021171 365.028074 
L 527.855044 346.194652 
L 528.688917 369.109018 
L 529.52279 353.189875 
L 530.356663 339.424555 
L 531.190535 344.550889 
L 532.024408 318.140253 
L 532.858281 324.712606 
L 533.692154 318.921043 
L 534.526027 333.824651 
L 535.3599 334.134302 
L 536.193773 333.169129 
L 537.027646 348.664865 
L 537.861519 354.282619 
L 539.529265 340.465716 
L 540.363138 311.920299 
L 541.197011 324.395722 
L 542.030884 340.174024 
L 542.864757 263.03758 
L 543.69863 350.291017 
L 544.532503 310.790565 
L 545.366376 315.257687 
L 546.200249 349.802386 
L 547.034122 365.219788 
L 547.867995 337.126529 
L 548.701868 339.895701 
L 549.535741 347.731148 
L 550.369614 356.651839 
L 551.203487 374.772557 
L 552.03736 373.071296 
L 552.871233 370.043248 
L 553.705106 372.227842 
L 554.538979 348.602791 
L 555.372852 349.183065 
L 556.206725 318.072845 
L 557.040598 322.76167 
L 557.874471 323.713614 
L 558.708344 323.983462 
L 559.542217 312.473916 
L 560.37609 343.865835 
L 561.209963 384.909823 
L 562.043836 394.67672 
L 562.877709 373.535476 
L 563.711582 372.470318 
L 564.545455 372.351864 
L 565.379328 392.662817 
L 566.2132 382.893047 
L 567.047073 381.813643 
L 567.880946 388.796605 
L 569.548692 314.831651 
L 570.382565 332.726035 
L 571.216438 388.666357 
L 572.050311 378.119896 
L 572.884184 358.659255 
L 573.718057 335.185846 
L 575.385803 369.326628 
L 576.219676 346.799657 
L 577.053549 382.862814 
L 577.887422 391.250207 
L 578.721295 378.344511 
L 579.555168 368.115878 
L 580.389041 367.420524 
L 581.222914 368.650132 
L 582.056787 376.800551 
L 582.89066 380.908265 
L 583.724533 383.211123 
L 584.558406 383.047511 
L 585.392279 372.43414 
L 586.226152 371.679305 
L 587.060025 363.535403 
L 587.893898 303.4696 
L 588.727771 318.482884 
L 589.561644 319.798509 
L 591.22939 374.285171 
L 592.063263 345.827009 
L 592.897136 358.302885 
L 593.731009 360.741771 
L 594.564882 376.814857 
L 595.398755 375.511388 
L 596.232628 376.823427 
L 597.900374 406.090116 
L 598.734247 401.884487 
L 599.56812 394.108885 
L 600.401993 395.519214 
L 601.235866 404.26827 
L 602.069738 400.319626 
L 602.903611 410.21927 
L 603.737484 404.975623 
L 604.571357 392.772214 
L 605.40523 394.386324 
L 606.239103 404.918856 
L 607.072976 382.878285 
L 607.906849 376.678097 
L 608.740722 385.344654 
L 609.574595 374.352829 
L 610.408468 360.423595 
L 611.242341 342.299082 
L 612.076214 362.202535 
L 612.910087 390.817719 
L 613.74396 354.730849 
L 614.577833 356.419806 
L 615.411706 388.31266 
L 616.245579 399.111282 
L 617.913325 353.519931 
L 618.747198 351.191092 
L 619.581071 387.220615 
L 620.414944 367.916043 
L 621.248817 361.226734 
L 622.08269 370.742595 
L 623.750436 378.523702 
L 624.584309 330.393217 
L 625.418182 353.588634 
L 626.252055 342.1916 
L 627.085928 378.075727 
L 627.919801 357.3154 
L 628.753674 388.181528 
L 629.587547 388.25458 
L 630.42142 374.748155 
L 631.255293 358.964531 
L 632.089166 369.04457 
L 632.923039 361.845803 
L 633.756912 379.942426 
L 634.590785 384.646491 
L 635.424658 353.919013 
L 636.258531 384.995104 
L 637.092403 405.414514 
L 637.926276 398.213807 
L 638.760149 399.943165 
L 639.594022 393.983914 
L 640.427895 392.706575 
L 641.261768 402.482672 
L 642.095641 367.756398 
L 642.929514 348.903083 
L 643.763387 360.877784 
L 644.59726 390.618368 
L 645.431133 372.134677 
L 646.265006 357.511542 
L 647.098879 397.836837 
L 647.932752 398.481457 
L 648.766625 395.62002 
L 649.600498 391.841383 
L 650.434371 379.758215 
L 651.268244 376.847901 
L 652.102117 397.810106 
L 652.93599 384.197474 
L 653.769863 363.347056 
L 654.603736 382.229631 
L 656.271482 354.953491 
L 657.105355 373.204167 
L 658.773101 382.846958 
L 659.606974 363.400239 
L 660.440847 352.188207 
L 661.27472 396.097283 
L 662.108593 387.07599 
L 662.942466 375.464787 
L 663.776339 404.86479 
L 664.610212 386.710173 
L 665.444085 383.257314 
L 666.277958 390.936679 
L 667.111831 351.446716 
L 667.945704 365.335662 
L 668.779577 358.547201 
L 669.61345 379.821236 
L 670.447323 375.664819 
L 671.281196 365.232786 
L 672.115068 400.252602 
L 672.948941 370.04428 
L 673.782814 385.239079 
L 674.616687 379.849577 
L 675.45056 381.257676 
L 676.284433 360.385152 
L 677.118306 365.86625 
L 677.952179 409.357629 
L 682.121544 371.470922 
L 682.955417 344.800347 
L 683.78929 385.968694 
L 684.623163 363.086845 
L 685.457036 355.519465 
L 686.290909 299.097658 
L 687.124782 354.961593 
L 687.958655 359.740194 
L 688.792528 343.150998 
L 689.626401 334.890966 
L 690.460274 345.101484 
L 691.294147 345.503701 
L 692.12802 318.87863 
L 692.961893 270.703063 
L 693.795766 316.935661 
L 694.629639 314.445652 
L 695.463512 332.195525 
L 696.297385 312.081956 
L 697.131258 335.666379 
L 697.965131 327.780971 
L 698.799004 308.875048 
L 699.632877 334.091341 
L 700.46675 327.428949 
L 701.300623 378.702215 
L 702.134496 402.440381 
L 702.968369 400.33879 
L 703.802242 336.210024 
L 704.636115 333.174791 
L 705.469988 317.211546 
L 706.303861 310.080448 
L 707.137733 341.933464 
L 708.805479 306.219636 
L 709.639352 302.308438 
L 710.473225 252.994317 
L 711.307098 343.956803 
L 712.140971 262.08495 
L 712.974844 331.052912 
L 713.808717 357.460609 
L 714.64259 344.653414 
L 715.476463 324.336021 
L 716.310336 311.731302 
L 717.144209 235.781402 
L 717.978082 268.288398 
L 718.811955 282.625043 
L 719.645828 272.968337 
L 720.479701 367.893545 
L 721.313574 327.137978 
L 722.147447 363.228566 
L 722.98132 331.566292 
L 723.815193 313.387724 
L 724.649066 321.542194 
L 725.482939 246.185922 
L 726.316812 309.927552 
L 727.150685 256.320691 
L 727.984558 261.053007 
L 728.818431 273.202292 
L 729.652304 231.007652 
L 730.486177 315.558647 
L 731.32005 252.194132 
L 732.153923 324.776995 
L 732.987796 218.196572 
L 733.821669 284.096243 
L 734.655542 298.508273 
L 735.489415 340.463566 
L 736.323288 320.323486 
L 737.157161 284.346355 
L 737.991034 287.665009 
L 738.824907 342.743106 
L 739.65878 315.109269 
L 740.492653 273.873092 
L 741.326526 253.877365 
L 742.160399 313.083612 
L 742.994271 335.798232 
L 743.828144 311.309496 
L 744.662017 310.186074 
L 745.49589 271.910828 
L 746.329763 315.43087 
L 747.163636 251.48428 
L 747.163636 251.48428 
" style="fill:none;stroke:#ff0000;stroke-dasharray:5.55,2.4;stroke-dashoffset:0;stroke-width:1.5;"/>
   </g>
   <g id="patch_3">
    <path d="M 108 460.8 
L 108 69.12 
" style="fill:none;stroke:#000000;stroke-linecap:square;stroke-linejoin:miter;stroke-width:0.8;"/>
   </g>
   <g id="patch_4">
    <path d="M 777.6 460.8 
L 777.6 69.12 
" style="fill:none;stroke:#000000;stroke-linecap:square;stroke-linejoin:miter;stroke-width:0.8;"/>
   </g>
   <g id="patch_5">
    <path d="M 108 460.8 
L 777.6 460.8 
" style="fill:none;stroke:#000000;stroke-linecap:square;stroke-linejoin:miter;stroke-width:0.8;"/>
   </g>
   <g id="patch_6">
    <path d="M 108 69.12 
L 777.6 69.12 
" style="fill:none;stroke:#000000;stroke-linecap:square;stroke-linejoin:miter;stroke-width:0.8;"/>
   </g>
   <g id="text_19">
    <!-- Macau residential 2020-2021 | Forecast vs Monitored | Support vector machine -->
    <g transform="translate(86.252344 63.12)scale(0.18 -0.18)">
     <defs>
      <path d="M 9.8125 72.90625 
L 24.515625 72.90625 
L 43.109375 23.296875 
L 61.8125 72.90625 
L 76.515625 72.90625 
L 76.515625 0 
L 66.890625 0 
L 66.890625 64.015625 
L 48.09375 14.015625 
L 38.1875 14.015625 
L 19.390625 64.015625 
L 19.390625 0 
L 9.8125 0 
z
" id="DejaVuSans-77"/>
      <path d="M 48.78125 52.59375 
L 48.78125 44.1875 
Q 44.96875 46.296875 41.140625 47.34375 
Q 37.3125 48.390625 33.40625 48.390625 
Q 24.65625 48.390625 19.8125 42.84375 
Q 14.984375 37.3125 14.984375 27.296875 
Q 14.984375 17.28125 19.8125 11.734375 
Q 24.65625 6.203125 33.40625 6.203125 
Q 37.3125 6.203125 41.140625 7.25 
Q 44.96875 8.296875 48.78125 10.40625 
L 48.78125 2.09375 
Q 45.015625 0.34375 40.984375 -0.53125 
Q 36.96875 -1.421875 32.421875 -1.421875 
Q 20.0625 -1.421875 12.78125 6.34375 
Q 5.515625 14.109375 5.515625 27.296875 
Q 5.515625 40.671875 12.859375 48.328125 
Q 20.21875 56 33.015625 56 
Q 37.15625 56 41.109375 55.140625 
Q 45.0625 54.296875 48.78125 52.59375 
z
" id="DejaVuSans-99"/>
      <path d="M 8.5 21.578125 
L 8.5 54.6875 
L 17.484375 54.6875 
L 17.484375 21.921875 
Q 17.484375 14.15625 20.5 10.265625 
Q 23.53125 6.390625 29.59375 6.390625 
Q 36.859375 6.390625 41.078125 11.03125 
Q 45.3125 15.671875 45.3125 23.6875 
L 45.3125 54.6875 
L 54.296875 54.6875 
L 54.296875 0 
L 45.3125 0 
L 45.3125 8.40625 
Q 42.046875 3.421875 37.71875 1 
Q 33.40625 -1.421875 27.6875 -1.421875 
Q 18.265625 -1.421875 13.375 4.4375 
Q 8.5 10.296875 8.5 21.578125 
z
M 31.109375 56 
z
" id="DejaVuSans-117"/>
      <path id="DejaVuSans-32"/>
      <path d="M 41.109375 46.296875 
Q 39.59375 47.171875 37.8125 47.578125 
Q 36.03125 48 33.890625 48 
Q 26.265625 48 22.1875 43.046875 
Q 18.109375 38.09375 18.109375 28.8125 
L 18.109375 0 
L 9.078125 0 
L 9.078125 54.6875 
L 18.109375 54.6875 
L 18.109375 46.1875 
Q 20.953125 51.171875 25.484375 53.578125 
Q 30.03125 56 36.53125 56 
Q 37.453125 56 38.578125 55.875 
Q 39.703125 55.765625 41.0625 55.515625 
z
" id="DejaVuSans-114"/>
      <path d="M 44.28125 53.078125 
L 44.28125 44.578125 
Q 40.484375 46.53125 36.375 47.5 
Q 32.28125 48.484375 27.875 48.484375 
Q 21.1875 48.484375 17.84375 46.4375 
Q 14.5 44.390625 14.5 40.28125 
Q 14.5 37.15625 16.890625 35.375 
Q 19.28125 33.59375 26.515625 31.984375 
L 29.59375 31.296875 
Q 39.15625 29.25 43.1875 25.515625 
Q 47.21875 21.78125 47.21875 15.09375 
Q 47.21875 7.46875 41.1875 3.015625 
Q 35.15625 -1.421875 24.609375 -1.421875 
Q 20.21875 -1.421875 15.453125 -0.5625 
Q 10.6875 0.296875 5.421875 2 
L 5.421875 11.28125 
Q 10.40625 8.6875 15.234375 7.390625 
Q 20.0625 6.109375 24.8125 6.109375 
Q 31.15625 6.109375 34.5625 8.28125 
Q 37.984375 10.453125 37.984375 14.40625 
Q 37.984375 18.0625 35.515625 20.015625 
Q 33.0625 21.96875 24.703125 23.78125 
L 21.578125 24.515625 
Q 13.234375 26.265625 9.515625 29.90625 
Q 5.8125 33.546875 5.8125 39.890625 
Q 5.8125 47.609375 11.28125 51.796875 
Q 16.75 56 26.8125 56 
Q 31.78125 56 36.171875 55.265625 
Q 40.578125 54.546875 44.28125 53.078125 
z
" id="DejaVuSans-115"/>
      <path d="M 9.421875 54.6875 
L 18.40625 54.6875 
L 18.40625 0 
L 9.421875 0 
z
M 9.421875 75.984375 
L 18.40625 75.984375 
L 18.40625 64.59375 
L 9.421875 64.59375 
z
" id="DejaVuSans-105"/>
      <path d="M 45.40625 46.390625 
L 45.40625 75.984375 
L 54.390625 75.984375 
L 54.390625 0 
L 45.40625 0 
L 45.40625 8.203125 
Q 42.578125 3.328125 38.25 0.953125 
Q 33.9375 -1.421875 27.875 -1.421875 
Q 17.96875 -1.421875 11.734375 6.484375 
Q 5.515625 14.40625 5.515625 27.296875 
Q 5.515625 40.1875 11.734375 48.09375 
Q 17.96875 56 27.875 56 
Q 33.9375 56 38.25 53.625 
Q 42.578125 51.265625 45.40625 46.390625 
z
M 14.796875 27.296875 
Q 14.796875 17.390625 18.875 11.75 
Q 22.953125 6.109375 30.078125 6.109375 
Q 37.203125 6.109375 41.296875 11.75 
Q 45.40625 17.390625 45.40625 27.296875 
Q 45.40625 37.203125 41.296875 42.84375 
Q 37.203125 48.484375 30.078125 48.484375 
Q 22.953125 48.484375 18.875 42.84375 
Q 14.796875 37.203125 14.796875 27.296875 
z
" id="DejaVuSans-100"/>
      <path d="M 54.890625 33.015625 
L 54.890625 0 
L 45.90625 0 
L 45.90625 32.71875 
Q 45.90625 40.484375 42.875 44.328125 
Q 39.84375 48.1875 33.796875 48.1875 
Q 26.515625 48.1875 22.3125 43.546875 
Q 18.109375 38.921875 18.109375 30.90625 
L 18.109375 0 
L 9.078125 0 
L 9.078125 54.6875 
L 18.109375 54.6875 
L 18.109375 46.1875 
Q 21.34375 51.125 25.703125 53.5625 
Q 30.078125 56 35.796875 56 
Q 45.21875 56 50.046875 50.171875 
Q 54.890625 44.34375 54.890625 33.015625 
z
" id="DejaVuSans-110"/>
      <path d="M 9.421875 75.984375 
L 18.40625 75.984375 
L 18.40625 0 
L 9.421875 0 
z
" id="DejaVuSans-108"/>
      <path d="M 21 76.421875 
L 21 -23.578125 
L 12.703125 -23.578125 
L 12.703125 76.421875 
z
" id="DejaVuSans-124"/>
      <path d="M 9.8125 72.90625 
L 51.703125 72.90625 
L 51.703125 64.59375 
L 19.671875 64.59375 
L 19.671875 43.109375 
L 48.578125 43.109375 
L 48.578125 34.8125 
L 19.671875 34.8125 
L 19.671875 0 
L 9.8125 0 
z
" id="DejaVuSans-70"/>
      <path d="M 30.609375 48.390625 
Q 23.390625 48.390625 19.1875 42.75 
Q 14.984375 37.109375 14.984375 27.296875 
Q 14.984375 17.484375 19.15625 11.84375 
Q 23.34375 6.203125 30.609375 6.203125 
Q 37.796875 6.203125 41.984375 11.859375 
Q 46.1875 17.53125 46.1875 27.296875 
Q 46.1875 37.015625 41.984375 42.703125 
Q 37.796875 48.390625 30.609375 48.390625 
z
M 30.609375 56 
Q 42.328125 56 49.015625 48.375 
Q 55.71875 40.765625 55.71875 27.296875 
Q 55.71875 13.875 49.015625 6.21875 
Q 42.328125 -1.421875 30.609375 -1.421875 
Q 18.84375 -1.421875 12.171875 6.21875 
Q 5.515625 13.875 5.515625 27.296875 
Q 5.515625 40.765625 12.171875 48.375 
Q 18.84375 56 30.609375 56 
z
" id="DejaVuSans-111"/>
      <path d="M 2.984375 54.6875 
L 12.5 54.6875 
L 29.59375 8.796875 
L 46.6875 54.6875 
L 56.203125 54.6875 
L 35.6875 0 
L 23.484375 0 
z
" id="DejaVuSans-118"/>
      <path d="M 53.515625 70.515625 
L 53.515625 60.890625 
Q 47.90625 63.578125 42.921875 64.890625 
Q 37.9375 66.21875 33.296875 66.21875 
Q 25.25 66.21875 20.875 63.09375 
Q 16.5 59.96875 16.5 54.203125 
Q 16.5 49.359375 19.40625 46.890625 
Q 22.3125 44.4375 30.421875 42.921875 
L 36.375 41.703125 
Q 47.40625 39.59375 52.65625 34.296875 
Q 57.90625 29 57.90625 20.125 
Q 57.90625 9.515625 50.796875 4.046875 
Q 43.703125 -1.421875 29.984375 -1.421875 
Q 24.8125 -1.421875 18.96875 -0.25 
Q 13.140625 0.921875 6.890625 3.21875 
L 6.890625 13.375 
Q 12.890625 10.015625 18.65625 8.296875 
Q 24.421875 6.59375 29.984375 6.59375 
Q 38.421875 6.59375 43.015625 9.90625 
Q 47.609375 13.234375 47.609375 19.390625 
Q 47.609375 24.75 44.3125 27.78125 
Q 41.015625 30.8125 33.5 32.328125 
L 27.484375 33.5 
Q 16.453125 35.6875 11.515625 40.375 
Q 6.59375 45.0625 6.59375 53.421875 
Q 6.59375 63.09375 13.40625 68.65625 
Q 20.21875 74.21875 32.171875 74.21875 
Q 37.3125 74.21875 42.625 73.28125 
Q 47.953125 72.359375 53.515625 70.515625 
z
" id="DejaVuSans-83"/>
      <path d="M 54.890625 33.015625 
L 54.890625 0 
L 45.90625 0 
L 45.90625 32.71875 
Q 45.90625 40.484375 42.875 44.328125 
Q 39.84375 48.1875 33.796875 48.1875 
Q 26.515625 48.1875 22.3125 43.546875 
Q 18.109375 38.921875 18.109375 30.90625 
L 18.109375 0 
L 9.078125 0 
L 9.078125 75.984375 
L 18.109375 75.984375 
L 18.109375 46.1875 
Q 21.34375 51.125 25.703125 53.5625 
Q 30.078125 56 35.796875 56 
Q 45.21875 56 50.046875 50.171875 
Q 54.890625 44.34375 54.890625 33.015625 
z
" id="DejaVuSans-104"/>
     </defs>
     <use xlink:href="#DejaVuSans-77"/>
     <use x="86.279297" xlink:href="#DejaVuSans-97"/>
     <use x="147.558594" xlink:href="#DejaVuSans-99"/>
     <use x="202.539062" xlink:href="#DejaVuSans-97"/>
     <use x="263.818359" xlink:href="#DejaVuSans-117"/>
     <use x="327.197266" xlink:href="#DejaVuSans-32"/>
     <use x="358.984375" xlink:href="#DejaVuSans-114"/>
     <use x="397.847656" xlink:href="#DejaVuSans-101"/>
     <use x="459.371094" xlink:href="#DejaVuSans-115"/>
     <use x="511.470703" xlink:href="#DejaVuSans-105"/>
     <use x="539.253906" xlink:href="#DejaVuSans-100"/>
     <use x="602.730469" xlink:href="#DejaVuSans-101"/>
     <use x="664.253906" xlink:href="#DejaVuSans-110"/>
     <use x="727.632812" xlink:href="#DejaVuSans-116"/>
     <use x="766.841797" xlink:href="#DejaVuSans-105"/>
     <use x="794.625" xlink:href="#DejaVuSans-97"/>
     <use x="855.904297" xlink:href="#DejaVuSans-108"/>
     <use x="883.6875" xlink:href="#DejaVuSans-32"/>
     <use x="915.474609" xlink:href="#DejaVuSans-50"/>
     <use x="979.097656" xlink:href="#DejaVuSans-48"/>
     <use x="1042.720703" xlink:href="#DejaVuSans-50"/>
     <use x="1106.34375" xlink:href="#DejaVuSans-48"/>
     <use x="1169.966797" xlink:href="#DejaVuSans-45"/>
     <use x="1206.050781" xlink:href="#DejaVuSans-50"/>
     <use x="1269.673828" xlink:href="#DejaVuSans-48"/>
     <use x="1333.296875" xlink:href="#DejaVuSans-50"/>
     <use x="1396.919922" xlink:href="#DejaVuSans-49"/>
     <use x="1460.542969" xlink:href="#DejaVuSans-32"/>
     <use x="1492.330078" xlink:href="#DejaVuSans-124"/>
     <use x="1526.021484" xlink:href="#DejaVuSans-32"/>
     <use x="1557.808594" xlink:href="#DejaVuSans-70"/>
     <use x="1611.703125" xlink:href="#DejaVuSans-111"/>
     <use x="1672.884766" xlink:href="#DejaVuSans-114"/>
     <use x="1711.748047" xlink:href="#DejaVuSans-101"/>
     <use x="1773.271484" xlink:href="#DejaVuSans-99"/>
     <use x="1828.251953" xlink:href="#DejaVuSans-97"/>
     <use x="1889.53125" xlink:href="#DejaVuSans-115"/>
     <use x="1941.630859" xlink:href="#DejaVuSans-116"/>
     <use x="1980.839844" xlink:href="#DejaVuSans-32"/>
     <use x="2012.626953" xlink:href="#DejaVuSans-118"/>
     <use x="2071.806641" xlink:href="#DejaVuSans-115"/>
     <use x="2123.90625" xlink:href="#DejaVuSans-32"/>
     <use x="2155.693359" xlink:href="#DejaVuSans-77"/>
     <use x="2241.972656" xlink:href="#DejaVuSans-111"/>
     <use x="2303.154297" xlink:href="#DejaVuSans-110"/>
     <use x="2366.533203" xlink:href="#DejaVuSans-105"/>
     <use x="2394.316406" xlink:href="#DejaVuSans-116"/>
     <use x="2433.525391" xlink:href="#DejaVuSans-111"/>
     <use x="2494.707031" xlink:href="#DejaVuSans-114"/>
     <use x="2533.570312" xlink:href="#DejaVuSans-101"/>
     <use x="2595.09375" xlink:href="#DejaVuSans-100"/>
     <use x="2658.570312" xlink:href="#DejaVuSans-32"/>
     <use x="2690.357422" xlink:href="#DejaVuSans-124"/>
     <use x="2724.048828" xlink:href="#DejaVuSans-32"/>
     <use x="2755.835938" xlink:href="#DejaVuSans-83"/>
     <use x="2819.3125" xlink:href="#DejaVuSans-117"/>
     <use x="2882.691406" xlink:href="#DejaVuSans-112"/>
     <use x="2946.167969" xlink:href="#DejaVuSans-112"/>
     <use x="3009.644531" xlink:href="#DejaVuSans-111"/>
     <use x="3070.826172" xlink:href="#DejaVuSans-114"/>
     <use x="3111.939453" xlink:href="#DejaVuSans-116"/>
     <use x="3151.148438" xlink:href="#DejaVuSans-32"/>
     <use x="3182.935547" xlink:href="#DejaVuSans-118"/>
     <use x="3242.115234" xlink:href="#DejaVuSans-101"/>
     <use x="3303.638672" xlink:href="#DejaVuSans-99"/>
     <use x="3358.619141" xlink:href="#DejaVuSans-116"/>
     <use x="3397.828125" xlink:href="#DejaVuSans-111"/>
     <use x="3459.009766" xlink:href="#DejaVuSans-114"/>
     <use x="3500.123047" xlink:href="#DejaVuSans-32"/>
     <use x="3531.910156" xlink:href="#DejaVuSans-109"/>
     <use x="3629.322266" xlink:href="#DejaVuSans-97"/>
     <use x="3690.601562" xlink:href="#DejaVuSans-99"/>
     <use x="3745.582031" xlink:href="#DejaVuSans-104"/>
     <use x="3808.960938" xlink:href="#DejaVuSans-105"/>
     <use x="3836.744141" xlink:href="#DejaVuSans-110"/>
     <use x="3900.123047" xlink:href="#DejaVuSans-101"/>
    </g>
   </g>
   <g id="legend_1">
    <g id="patch_7">
     <path d="M 605.76375 114.615 
L 769.2 114.615 
Q 771.6 114.615 771.6 112.215 
L 771.6 77.52 
Q 771.6 75.12 769.2 75.12 
L 605.76375 75.12 
Q 603.36375 75.12 603.36375 77.52 
L 603.36375 112.215 
Q 603.36375 114.615 605.76375 114.615 
z
" style="fill:#ffffff;opacity:0.8;stroke:#cccccc;stroke-linejoin:miter;"/>
    </g>
    <g id="line2d_19">
     <path d="M 608.16375 84.838125 
L 632.16375 84.838125 
" style="fill:none;stroke:#1f77b4;stroke-linecap:square;stroke-width:1.5;"/>
    </g>
    <g id="line2d_20"/>
    <g id="text_20">
     <!-- measured_data_NO2 -->
     <g transform="translate(641.76375 89.038125)scale(0.12 -0.12)">
      <defs>
       <path d="M 50.984375 -16.609375 
L 50.984375 -23.578125 
L -0.984375 -23.578125 
L -0.984375 -16.609375 
z
" id="DejaVuSans-95"/>
      </defs>
      <use xlink:href="#DejaVuSans-109"/>
      <use x="97.412109" xlink:href="#DejaVuSans-101"/>
      <use x="158.935547" xlink:href="#DejaVuSans-97"/>
      <use x="220.214844" xlink:href="#DejaVuSans-115"/>
      <use x="272.314453" xlink:href="#DejaVuSans-117"/>
      <use x="335.693359" xlink:href="#DejaVuSans-114"/>
      <use x="374.556641" xlink:href="#DejaVuSans-101"/>
      <use x="436.080078" xlink:href="#DejaVuSans-100"/>
      <use x="499.556641" xlink:href="#DejaVuSans-95"/>
      <use x="549.556641" xlink:href="#DejaVuSans-100"/>
      <use x="613.033203" xlink:href="#DejaVuSans-97"/>
      <use x="674.3125" xlink:href="#DejaVuSans-116"/>
      <use x="713.521484" xlink:href="#DejaVuSans-97"/>
      <use x="774.800781" xlink:href="#DejaVuSans-95"/>
      <use x="824.800781" xlink:href="#DejaVuSans-78"/>
      <use x="899.605469" xlink:href="#DejaVuSans-79"/>
      <use x="978.316406" xlink:href="#DejaVuSans-50"/>
     </g>
    </g>
    <g id="line2d_21">
     <path d="M 608.16375 102.785625 
L 632.16375 102.785625 
" style="fill:none;stroke:#ff0000;stroke-dasharray:5.55,2.4;stroke-dashoffset:0;stroke-width:1.5;"/>
    </g>
    <g id="line2d_22"/>
    <g id="text_21">
     <!-- predicted_data_NO2 -->
     <g transform="translate(641.76375 106.985625)scale(0.12 -0.12)">
      <use xlink:href="#DejaVuSans-112"/>
      <use x="63.476562" xlink:href="#DejaVuSans-114"/>
      <use x="102.339844" xlink:href="#DejaVuSans-101"/>
      <use x="163.863281" xlink:href="#DejaVuSans-100"/>
      <use x="227.339844" xlink:href="#DejaVuSans-105"/>
      <use x="255.123047" xlink:href="#DejaVuSans-99"/>
      <use x="310.103516" xlink:href="#DejaVuSans-116"/>
      <use x="349.3125" xlink:href="#DejaVuSans-101"/>
      <use x="410.835938" xlink:href="#DejaVuSans-100"/>
      <use x="474.3125" xlink:href="#DejaVuSans-95"/>
      <use x="524.3125" xlink:href="#DejaVuSans-100"/>
      <use x="587.789062" xlink:href="#DejaVuSans-97"/>
      <use x="649.068359" xlink:href="#DejaVuSans-116"/>
      <use x="688.277344" xlink:href="#DejaVuSans-97"/>
      <use x="749.556641" xlink:href="#DejaVuSans-95"/>
      <use x="799.556641" xlink:href="#DejaVuSans-78"/>
      <use x="874.361328" xlink:href="#DejaVuSans-79"/>
      <use x="953.072266" xlink:href="#DejaVuSans-50"/>
     </g>
    </g>
   </g>
  </g>
 </g>
 <defs>
  <clipPath id="p747eaf0745">
   <rect height="391.68" width="669.6" x="108" y="69.12"/>
  </clipPath>
 </defs>
</svg>
