<?xml version="1.0" encoding="utf-8" standalone="no"?>
<!DOCTYPE svg PUBLIC "-//W3C//DTD SVG 1.1//EN"
  "http://www.w3.org/Graphics/SVG/1.1/DTD/svg11.dtd">
<!-- Created with matplotlib (https://matplotlib.org/) -->
<svg height="576pt" version="1.1" viewBox="0 0 864 576" width="864pt" xmlns="http://www.w3.org/2000/svg" xmlns:xlink="http://www.w3.org/1999/xlink">
 <metadata>
  <rdf:RDF xmlns:cc="http://creativecommons.org/ns#" xmlns:dc="http://purl.org/dc/elements/1.1/" xmlns:rdf="http://www.w3.org/1999/02/22-rdf-syntax-ns#">
   <cc:Work>
    <dc:type rdf:resource="http://purl.org/dc/dcmitype/StillImage"/>
    <dc:date>2024-03-08T20:20:39.771322</dc:date>
    <dc:format>image/svg+xml</dc:format>
    <dc:creator>
     <cc:Agent>
      <dc:title>Matplotlib v3.3.4, https://matplotlib.org/</dc:title>
     </cc:Agent>
    </dc:creator>
   </cc:Work>
  </rdf:RDF>
 </metadata>
 <defs>
  <style type="text/css">*{stroke-linecap:butt;stroke-linejoin:round;}</style>
 </defs>
 <g id="figure_1">
  <g id="patch_1">
   <path d="M 0 576 
L 864 576 
L 864 0 
L 0 0 
z
" style="fill:#ffffff;"/>
  </g>
  <g id="axes_1">
   <g id="patch_2">
    <path d="M 108 460.8 
L 777.6 460.8 
L 777.6 69.12 
L 108 69.12 
z
" style="fill:#ffffff;"/>
   </g>
   <g id="matplotlib.axis_1">
    <g id="xtick_1">
     <g id="line2d_1">
      <defs>
       <path d="M 0 0 
L 0 3.5 
" id="meac4350250" style="stroke:#000000;stroke-width:0.8;"/>
      </defs>
      <g>
       <use style="stroke:#000000;stroke-width:0.8;" x="138.436364" xlink:href="#meac4350250" y="460.8"/>
      </g>
     </g>
     <g id="text_1">
      <!-- 2020-01 -->
      <g transform="translate(93.766579 500.766215)rotate(-30)scale(0.12 -0.12)">
       <defs>
        <path d="M 19.1875 8.296875 
L 53.609375 8.296875 
L 53.609375 0 
L 7.328125 0 
L 7.328125 8.296875 
Q 12.9375 14.109375 22.625 23.890625 
Q 32.328125 33.6875 34.8125 36.53125 
Q 39.546875 41.84375 41.421875 45.53125 
Q 43.3125 49.21875 43.3125 52.78125 
Q 43.3125 58.59375 39.234375 62.25 
Q 35.15625 65.921875 28.609375 65.921875 
Q 23.96875 65.921875 18.8125 64.3125 
Q 13.671875 62.703125 7.8125 59.421875 
L 7.8125 69.390625 
Q 13.765625 71.78125 18.9375 73 
Q 24.125 74.21875 28.421875 74.21875 
Q 39.75 74.21875 46.484375 68.546875 
Q 53.21875 62.890625 53.21875 53.421875 
Q 53.21875 48.921875 51.53125 44.890625 
Q 49.859375 40.875 45.40625 35.40625 
Q 44.1875 33.984375 37.640625 27.21875 
Q 31.109375 20.453125 19.1875 8.296875 
z
" id="DejaVuSans-50"/>
        <path d="M 31.78125 66.40625 
Q 24.171875 66.40625 20.328125 58.90625 
Q 16.5 51.421875 16.5 36.375 
Q 16.5 21.390625 20.328125 13.890625 
Q 24.171875 6.390625 31.78125 6.390625 
Q 39.453125 6.390625 43.28125 13.890625 
Q 47.125 21.390625 47.125 36.375 
Q 47.125 51.421875 43.28125 58.90625 
Q 39.453125 66.40625 31.78125 66.40625 
z
M 31.78125 74.21875 
Q 44.046875 74.21875 50.515625 64.515625 
Q 56.984375 54.828125 56.984375 36.375 
Q 56.984375 17.96875 50.515625 8.265625 
Q 44.046875 -1.421875 31.78125 -1.421875 
Q 19.53125 -1.421875 13.0625 8.265625 
Q 6.59375 17.96875 6.59375 36.375 
Q 6.59375 54.828125 13.0625 64.515625 
Q 19.53125 74.21875 31.78125 74.21875 
z
" id="DejaVuSans-48"/>
        <path d="M 4.890625 31.390625 
L 31.203125 31.390625 
L 31.203125 23.390625 
L 4.890625 23.390625 
z
" id="DejaVuSans-45"/>
        <path d="M 12.40625 8.296875 
L 28.515625 8.296875 
L 28.515625 63.921875 
L 10.984375 60.40625 
L 10.984375 69.390625 
L 28.421875 72.90625 
L 38.28125 72.90625 
L 38.28125 8.296875 
L 54.390625 8.296875 
L 54.390625 0 
L 12.40625 0 
z
" id="DejaVuSans-49"/>
       </defs>
       <use xlink:href="#DejaVuSans-50"/>
       <use x="63.623047" xlink:href="#DejaVuSans-48"/>
       <use x="127.246094" xlink:href="#DejaVuSans-50"/>
       <use x="190.869141" xlink:href="#DejaVuSans-48"/>
       <use x="254.492188" xlink:href="#DejaVuSans-45"/>
       <use x="290.576172" xlink:href="#DejaVuSans-48"/>
       <use x="354.199219" xlink:href="#DejaVuSans-49"/>
      </g>
     </g>
    </g>
    <g id="xtick_2">
     <g id="line2d_2">
      <g>
       <use style="stroke:#000000;stroke-width:0.8;" x="214.318804" xlink:href="#meac4350250" y="460.8"/>
      </g>
     </g>
     <g id="text_2">
      <!-- 2020-04 -->
      <g transform="translate(169.64902 500.766215)rotate(-30)scale(0.12 -0.12)">
       <defs>
        <path d="M 37.796875 64.3125 
L 12.890625 25.390625 
L 37.796875 25.390625 
z
M 35.203125 72.90625 
L 47.609375 72.90625 
L 47.609375 25.390625 
L 58.015625 25.390625 
L 58.015625 17.1875 
L 47.609375 17.1875 
L 47.609375 0 
L 37.796875 0 
L 37.796875 17.1875 
L 4.890625 17.1875 
L 4.890625 26.703125 
z
" id="DejaVuSans-52"/>
       </defs>
       <use xlink:href="#DejaVuSans-50"/>
       <use x="63.623047" xlink:href="#DejaVuSans-48"/>
       <use x="127.246094" xlink:href="#DejaVuSans-50"/>
       <use x="190.869141" xlink:href="#DejaVuSans-48"/>
       <use x="254.492188" xlink:href="#DejaVuSans-45"/>
       <use x="290.576172" xlink:href="#DejaVuSans-48"/>
       <use x="354.199219" xlink:href="#DejaVuSans-52"/>
      </g>
     </g>
    </g>
    <g id="xtick_3">
     <g id="line2d_3">
      <g>
       <use style="stroke:#000000;stroke-width:0.8;" x="290.201245" xlink:href="#meac4350250" y="460.8"/>
      </g>
     </g>
     <g id="text_3">
      <!-- 2020-07 -->
      <g transform="translate(245.53146 500.766215)rotate(-30)scale(0.12 -0.12)">
       <defs>
        <path d="M 8.203125 72.90625 
L 55.078125 72.90625 
L 55.078125 68.703125 
L 28.609375 0 
L 18.3125 0 
L 43.21875 64.59375 
L 8.203125 64.59375 
z
" id="DejaVuSans-55"/>
       </defs>
       <use xlink:href="#DejaVuSans-50"/>
       <use x="63.623047" xlink:href="#DejaVuSans-48"/>
       <use x="127.246094" xlink:href="#DejaVuSans-50"/>
       <use x="190.869141" xlink:href="#DejaVuSans-48"/>
       <use x="254.492188" xlink:href="#DejaVuSans-45"/>
       <use x="290.576172" xlink:href="#DejaVuSans-48"/>
       <use x="354.199219" xlink:href="#DejaVuSans-55"/>
      </g>
     </g>
    </g>
    <g id="xtick_4">
     <g id="line2d_4">
      <g>
       <use style="stroke:#000000;stroke-width:0.8;" x="366.917559" xlink:href="#meac4350250" y="460.8"/>
      </g>
     </g>
     <g id="text_4">
      <!-- 2020-10 -->
      <g transform="translate(322.247774 500.766215)rotate(-30)scale(0.12 -0.12)">
       <use xlink:href="#DejaVuSans-50"/>
       <use x="63.623047" xlink:href="#DejaVuSans-48"/>
       <use x="127.246094" xlink:href="#DejaVuSans-50"/>
       <use x="190.869141" xlink:href="#DejaVuSans-48"/>
       <use x="254.492188" xlink:href="#DejaVuSans-45"/>
       <use x="290.576172" xlink:href="#DejaVuSans-49"/>
       <use x="354.199219" xlink:href="#DejaVuSans-48"/>
      </g>
     </g>
    </g>
    <g id="xtick_5">
     <g id="line2d_5">
      <g>
       <use style="stroke:#000000;stroke-width:0.8;" x="443.633873" xlink:href="#meac4350250" y="460.8"/>
      </g>
     </g>
     <g id="text_5">
      <!-- 2021-01 -->
      <g transform="translate(398.964088 500.766215)rotate(-30)scale(0.12 -0.12)">
       <use xlink:href="#DejaVuSans-50"/>
       <use x="63.623047" xlink:href="#DejaVuSans-48"/>
       <use x="127.246094" xlink:href="#DejaVuSans-50"/>
       <use x="190.869141" xlink:href="#DejaVuSans-49"/>
       <use x="254.492188" xlink:href="#DejaVuSans-45"/>
       <use x="290.576172" xlink:href="#DejaVuSans-48"/>
       <use x="354.199219" xlink:href="#DejaVuSans-49"/>
      </g>
     </g>
    </g>
    <g id="xtick_6">
     <g id="line2d_6">
      <g>
       <use style="stroke:#000000;stroke-width:0.8;" x="518.682441" xlink:href="#meac4350250" y="460.8"/>
      </g>
     </g>
     <g id="text_6">
      <!-- 2021-04 -->
      <g transform="translate(474.012656 500.766215)rotate(-30)scale(0.12 -0.12)">
       <use xlink:href="#DejaVuSans-50"/>
       <use x="63.623047" xlink:href="#DejaVuSans-48"/>
       <use x="127.246094" xlink:href="#DejaVuSans-50"/>
       <use x="190.869141" xlink:href="#DejaVuSans-49"/>
       <use x="254.492188" xlink:href="#DejaVuSans-45"/>
       <use x="290.576172" xlink:href="#DejaVuSans-48"/>
       <use x="354.199219" xlink:href="#DejaVuSans-52"/>
      </g>
     </g>
    </g>
    <g id="xtick_7">
     <g id="line2d_7">
      <g>
       <use style="stroke:#000000;stroke-width:0.8;" x="594.564882" xlink:href="#meac4350250" y="460.8"/>
      </g>
     </g>
     <g id="text_7">
      <!-- 2021-07 -->
      <g transform="translate(549.895097 500.766215)rotate(-30)scale(0.12 -0.12)">
       <use xlink:href="#DejaVuSans-50"/>
       <use x="63.623047" xlink:href="#DejaVuSans-48"/>
       <use x="127.246094" xlink:href="#DejaVuSans-50"/>
       <use x="190.869141" xlink:href="#DejaVuSans-49"/>
       <use x="254.492188" xlink:href="#DejaVuSans-45"/>
       <use x="290.576172" xlink:href="#DejaVuSans-48"/>
       <use x="354.199219" xlink:href="#DejaVuSans-55"/>
      </g>
     </g>
    </g>
    <g id="xtick_8">
     <g id="line2d_8">
      <g>
       <use style="stroke:#000000;stroke-width:0.8;" x="671.281196" xlink:href="#meac4350250" y="460.8"/>
      </g>
     </g>
     <g id="text_8">
      <!-- 2021-10 -->
      <g transform="translate(626.611411 500.766215)rotate(-30)scale(0.12 -0.12)">
       <use xlink:href="#DejaVuSans-50"/>
       <use x="63.623047" xlink:href="#DejaVuSans-48"/>
       <use x="127.246094" xlink:href="#DejaVuSans-50"/>
       <use x="190.869141" xlink:href="#DejaVuSans-49"/>
       <use x="254.492188" xlink:href="#DejaVuSans-45"/>
       <use x="290.576172" xlink:href="#DejaVuSans-49"/>
       <use x="354.199219" xlink:href="#DejaVuSans-48"/>
      </g>
     </g>
    </g>
    <g id="xtick_9">
     <g id="line2d_9">
      <g>
       <use style="stroke:#000000;stroke-width:0.8;" x="747.997509" xlink:href="#meac4350250" y="460.8"/>
      </g>
     </g>
     <g id="text_9">
      <!-- 2022-01 -->
      <g transform="translate(703.327724 500.766215)rotate(-30)scale(0.12 -0.12)">
       <use xlink:href="#DejaVuSans-50"/>
       <use x="63.623047" xlink:href="#DejaVuSans-48"/>
       <use x="127.246094" xlink:href="#DejaVuSans-50"/>
       <use x="190.869141" xlink:href="#DejaVuSans-50"/>
       <use x="254.492188" xlink:href="#DejaVuSans-45"/>
       <use x="290.576172" xlink:href="#DejaVuSans-48"/>
       <use x="354.199219" xlink:href="#DejaVuSans-49"/>
      </g>
     </g>
    </g>
    <g id="text_10">
     <!-- Date -->
     <g transform="translate(424.873828 518.325146)scale(0.15 -0.15)">
      <defs>
       <path d="M 19.671875 64.796875 
L 19.671875 8.109375 
L 31.59375 8.109375 
Q 46.6875 8.109375 53.6875 14.9375 
Q 60.6875 21.78125 60.6875 36.53125 
Q 60.6875 51.171875 53.6875 57.984375 
Q 46.6875 64.796875 31.59375 64.796875 
z
M 9.8125 72.90625 
L 30.078125 72.90625 
Q 51.265625 72.90625 61.171875 64.09375 
Q 71.09375 55.28125 71.09375 36.53125 
Q 71.09375 17.671875 61.125 8.828125 
Q 51.171875 0 30.078125 0 
L 9.8125 0 
z
" id="DejaVuSans-68"/>
       <path d="M 34.28125 27.484375 
Q 23.390625 27.484375 19.1875 25 
Q 14.984375 22.515625 14.984375 16.5 
Q 14.984375 11.71875 18.140625 8.90625 
Q 21.296875 6.109375 26.703125 6.109375 
Q 34.1875 6.109375 38.703125 11.40625 
Q 43.21875 16.703125 43.21875 25.484375 
L 43.21875 27.484375 
z
M 52.203125 31.203125 
L 52.203125 0 
L 43.21875 0 
L 43.21875 8.296875 
Q 40.140625 3.328125 35.546875 0.953125 
Q 30.953125 -1.421875 24.3125 -1.421875 
Q 15.921875 -1.421875 10.953125 3.296875 
Q 6 8.015625 6 15.921875 
Q 6 25.140625 12.171875 29.828125 
Q 18.359375 34.515625 30.609375 34.515625 
L 43.21875 34.515625 
L 43.21875 35.40625 
Q 43.21875 41.609375 39.140625 45 
Q 35.0625 48.390625 27.6875 48.390625 
Q 23 48.390625 18.546875 47.265625 
Q 14.109375 46.140625 10.015625 43.890625 
L 10.015625 52.203125 
Q 14.9375 54.109375 19.578125 55.046875 
Q 24.21875 56 28.609375 56 
Q 40.484375 56 46.34375 49.84375 
Q 52.203125 43.703125 52.203125 31.203125 
z
" id="DejaVuSans-97"/>
       <path d="M 18.3125 70.21875 
L 18.3125 54.6875 
L 36.8125 54.6875 
L 36.8125 47.703125 
L 18.3125 47.703125 
L 18.3125 18.015625 
Q 18.3125 11.328125 20.140625 9.421875 
Q 21.96875 7.515625 27.59375 7.515625 
L 36.8125 7.515625 
L 36.8125 0 
L 27.59375 0 
Q 17.1875 0 13.234375 3.875 
Q 9.28125 7.765625 9.28125 18.015625 
L 9.28125 47.703125 
L 2.6875 47.703125 
L 2.6875 54.6875 
L 9.28125 54.6875 
L 9.28125 70.21875 
z
" id="DejaVuSans-116"/>
       <path d="M 56.203125 29.59375 
L 56.203125 25.203125 
L 14.890625 25.203125 
Q 15.484375 15.921875 20.484375 11.0625 
Q 25.484375 6.203125 34.421875 6.203125 
Q 39.59375 6.203125 44.453125 7.46875 
Q 49.3125 8.734375 54.109375 11.28125 
L 54.109375 2.78125 
Q 49.265625 0.734375 44.1875 -0.34375 
Q 39.109375 -1.421875 33.890625 -1.421875 
Q 20.796875 -1.421875 13.15625 6.1875 
Q 5.515625 13.8125 5.515625 26.8125 
Q 5.515625 40.234375 12.765625 48.109375 
Q 20.015625 56 32.328125 56 
Q 43.359375 56 49.78125 48.890625 
Q 56.203125 41.796875 56.203125 29.59375 
z
M 47.21875 32.234375 
Q 47.125 39.59375 43.09375 43.984375 
Q 39.0625 48.390625 32.421875 48.390625 
Q 24.90625 48.390625 20.390625 44.140625 
Q 15.875 39.890625 15.1875 32.171875 
z
" id="DejaVuSans-101"/>
      </defs>
      <use xlink:href="#DejaVuSans-68"/>
      <use x="77.001953" xlink:href="#DejaVuSans-97"/>
      <use x="138.28125" xlink:href="#DejaVuSans-116"/>
      <use x="177.490234" xlink:href="#DejaVuSans-101"/>
     </g>
    </g>
   </g>
   <g id="matplotlib.axis_2">
    <g id="ytick_1">
     <g id="line2d_10">
      <defs>
       <path d="M 0 0 
L -3.5 0 
" id="m55e2bac827" style="stroke:#000000;stroke-width:0.8;"/>
      </defs>
      <g>
       <use style="stroke:#000000;stroke-width:0.8;" x="108" xlink:href="#m55e2bac827" y="422.312403"/>
      </g>
     </g>
     <g id="text_11">
      <!-- 0 -->
      <g transform="translate(93.365 426.871465)scale(0.12 -0.12)">
       <use xlink:href="#DejaVuSans-48"/>
      </g>
     </g>
    </g>
    <g id="ytick_2">
     <g id="line2d_11">
      <g>
       <use style="stroke:#000000;stroke-width:0.8;" x="108" xlink:href="#m55e2bac827" y="371.954762"/>
      </g>
     </g>
     <g id="text_12">
      <!-- 10 -->
      <g transform="translate(85.73 376.513824)scale(0.12 -0.12)">
       <use xlink:href="#DejaVuSans-49"/>
       <use x="63.623047" xlink:href="#DejaVuSans-48"/>
      </g>
     </g>
    </g>
    <g id="ytick_3">
     <g id="line2d_12">
      <g>
       <use style="stroke:#000000;stroke-width:0.8;" x="108" xlink:href="#m55e2bac827" y="321.597121"/>
      </g>
     </g>
     <g id="text_13">
      <!-- 20 -->
      <g transform="translate(85.73 326.156183)scale(0.12 -0.12)">
       <use xlink:href="#DejaVuSans-50"/>
       <use x="63.623047" xlink:href="#DejaVuSans-48"/>
      </g>
     </g>
    </g>
    <g id="ytick_4">
     <g id="line2d_13">
      <g>
       <use style="stroke:#000000;stroke-width:0.8;" x="108" xlink:href="#m55e2bac827" y="271.239479"/>
      </g>
     </g>
     <g id="text_14">
      <!-- 30 -->
      <g transform="translate(85.73 275.798542)scale(0.12 -0.12)">
       <defs>
        <path d="M 40.578125 39.3125 
Q 47.65625 37.796875 51.625 33 
Q 55.609375 28.21875 55.609375 21.1875 
Q 55.609375 10.40625 48.1875 4.484375 
Q 40.765625 -1.421875 27.09375 -1.421875 
Q 22.515625 -1.421875 17.65625 -0.515625 
Q 12.796875 0.390625 7.625 2.203125 
L 7.625 11.71875 
Q 11.71875 9.328125 16.59375 8.109375 
Q 21.484375 6.890625 26.8125 6.890625 
Q 36.078125 6.890625 40.9375 10.546875 
Q 45.796875 14.203125 45.796875 21.1875 
Q 45.796875 27.640625 41.28125 31.265625 
Q 36.765625 34.90625 28.71875 34.90625 
L 20.21875 34.90625 
L 20.21875 43.015625 
L 29.109375 43.015625 
Q 36.375 43.015625 40.234375 45.921875 
Q 44.09375 48.828125 44.09375 54.296875 
Q 44.09375 59.90625 40.109375 62.90625 
Q 36.140625 65.921875 28.71875 65.921875 
Q 24.65625 65.921875 20.015625 65.03125 
Q 15.375 64.15625 9.8125 62.3125 
L 9.8125 71.09375 
Q 15.4375 72.65625 20.34375 73.4375 
Q 25.25 74.21875 29.59375 74.21875 
Q 40.828125 74.21875 47.359375 69.109375 
Q 53.90625 64.015625 53.90625 55.328125 
Q 53.90625 49.265625 50.4375 45.09375 
Q 46.96875 40.921875 40.578125 39.3125 
z
" id="DejaVuSans-51"/>
       </defs>
       <use xlink:href="#DejaVuSans-51"/>
       <use x="63.623047" xlink:href="#DejaVuSans-48"/>
      </g>
     </g>
    </g>
    <g id="ytick_5">
     <g id="line2d_14">
      <g>
       <use style="stroke:#000000;stroke-width:0.8;" x="108" xlink:href="#m55e2bac827" y="220.881838"/>
      </g>
     </g>
     <g id="text_15">
      <!-- 40 -->
      <g transform="translate(85.73 225.440901)scale(0.12 -0.12)">
       <use xlink:href="#DejaVuSans-52"/>
       <use x="63.623047" xlink:href="#DejaVuSans-48"/>
      </g>
     </g>
    </g>
    <g id="ytick_6">
     <g id="line2d_15">
      <g>
       <use style="stroke:#000000;stroke-width:0.8;" x="108" xlink:href="#m55e2bac827" y="170.524197"/>
      </g>
     </g>
     <g id="text_16">
      <!-- 50 -->
      <g transform="translate(85.73 175.08326)scale(0.12 -0.12)">
       <defs>
        <path d="M 10.796875 72.90625 
L 49.515625 72.90625 
L 49.515625 64.59375 
L 19.828125 64.59375 
L 19.828125 46.734375 
Q 21.96875 47.46875 24.109375 47.828125 
Q 26.265625 48.1875 28.421875 48.1875 
Q 40.625 48.1875 47.75 41.5 
Q 54.890625 34.8125 54.890625 23.390625 
Q 54.890625 11.625 47.5625 5.09375 
Q 40.234375 -1.421875 26.90625 -1.421875 
Q 22.3125 -1.421875 17.546875 -0.640625 
Q 12.796875 0.140625 7.71875 1.703125 
L 7.71875 11.625 
Q 12.109375 9.234375 16.796875 8.0625 
Q 21.484375 6.890625 26.703125 6.890625 
Q 35.15625 6.890625 40.078125 11.328125 
Q 45.015625 15.765625 45.015625 23.390625 
Q 45.015625 31 40.078125 35.4375 
Q 35.15625 39.890625 26.703125 39.890625 
Q 22.75 39.890625 18.8125 39.015625 
Q 14.890625 38.140625 10.796875 36.28125 
z
" id="DejaVuSans-53"/>
       </defs>
       <use xlink:href="#DejaVuSans-53"/>
       <use x="63.623047" xlink:href="#DejaVuSans-48"/>
      </g>
     </g>
    </g>
    <g id="ytick_7">
     <g id="line2d_16">
      <g>
       <use style="stroke:#000000;stroke-width:0.8;" x="108" xlink:href="#m55e2bac827" y="120.166556"/>
      </g>
     </g>
     <g id="text_17">
      <!-- 60 -->
      <g transform="translate(85.73 124.725619)scale(0.12 -0.12)">
       <defs>
        <path d="M 33.015625 40.375 
Q 26.375 40.375 22.484375 35.828125 
Q 18.609375 31.296875 18.609375 23.390625 
Q 18.609375 15.53125 22.484375 10.953125 
Q 26.375 6.390625 33.015625 6.390625 
Q 39.65625 6.390625 43.53125 10.953125 
Q 47.40625 15.53125 47.40625 23.390625 
Q 47.40625 31.296875 43.53125 35.828125 
Q 39.65625 40.375 33.015625 40.375 
z
M 52.59375 71.296875 
L 52.59375 62.3125 
Q 48.875 64.0625 45.09375 64.984375 
Q 41.3125 65.921875 37.59375 65.921875 
Q 27.828125 65.921875 22.671875 59.328125 
Q 17.53125 52.734375 16.796875 39.40625 
Q 19.671875 43.65625 24.015625 45.921875 
Q 28.375 48.1875 33.59375 48.1875 
Q 44.578125 48.1875 50.953125 41.515625 
Q 57.328125 34.859375 57.328125 23.390625 
Q 57.328125 12.15625 50.6875 5.359375 
Q 44.046875 -1.421875 33.015625 -1.421875 
Q 20.359375 -1.421875 13.671875 8.265625 
Q 6.984375 17.96875 6.984375 36.375 
Q 6.984375 53.65625 15.1875 63.9375 
Q 23.390625 74.21875 37.203125 74.21875 
Q 40.921875 74.21875 44.703125 73.484375 
Q 48.484375 72.75 52.59375 71.296875 
z
" id="DejaVuSans-54"/>
       </defs>
       <use xlink:href="#DejaVuSans-54"/>
       <use x="63.623047" xlink:href="#DejaVuSans-48"/>
      </g>
     </g>
    </g>
    <g id="ytick_8">
     <g id="line2d_17">
      <g>
       <use style="stroke:#000000;stroke-width:0.8;" x="108" xlink:href="#m55e2bac827" y="69.808915"/>
      </g>
     </g>
     <g id="text_18">
      <!-- 70 -->
      <g transform="translate(85.73 74.367978)scale(0.12 -0.12)">
       <use xlink:href="#DejaVuSans-55"/>
       <use x="63.623047" xlink:href="#DejaVuSans-48"/>
      </g>
     </g>
    </g>
    <g id="text_19">
     <!-- PM2.5(micro-gram/m3) -->
     <g transform="translate(78.610469 351.945937)rotate(-90)scale(0.15 -0.15)">
      <defs>
       <path d="M 19.671875 64.796875 
L 19.671875 37.40625 
L 32.078125 37.40625 
Q 38.96875 37.40625 42.71875 40.96875 
Q 46.484375 44.53125 46.484375 51.125 
Q 46.484375 57.671875 42.71875 61.234375 
Q 38.96875 64.796875 32.078125 64.796875 
z
M 9.8125 72.90625 
L 32.078125 72.90625 
Q 44.34375 72.90625 50.609375 67.359375 
Q 56.890625 61.8125 56.890625 51.125 
Q 56.890625 40.328125 50.609375 34.8125 
Q 44.34375 29.296875 32.078125 29.296875 
L 19.671875 29.296875 
L 19.671875 0 
L 9.8125 0 
z
" id="DejaVuSans-80"/>
       <path d="M 9.8125 72.90625 
L 24.515625 72.90625 
L 43.109375 23.296875 
L 61.8125 72.90625 
L 76.515625 72.90625 
L 76.515625 0 
L 66.890625 0 
L 66.890625 64.015625 
L 48.09375 14.015625 
L 38.1875 14.015625 
L 19.390625 64.015625 
L 19.390625 0 
L 9.8125 0 
z
" id="DejaVuSans-77"/>
       <path d="M 10.6875 12.40625 
L 21 12.40625 
L 21 0 
L 10.6875 0 
z
" id="DejaVuSans-46"/>
       <path d="M 31 75.875 
Q 24.46875 64.65625 21.28125 53.65625 
Q 18.109375 42.671875 18.109375 31.390625 
Q 18.109375 20.125 21.3125 9.0625 
Q 24.515625 -2 31 -13.1875 
L 23.1875 -13.1875 
Q 15.875 -1.703125 12.234375 9.375 
Q 8.59375 20.453125 8.59375 31.390625 
Q 8.59375 42.28125 12.203125 53.3125 
Q 15.828125 64.359375 23.1875 75.875 
z
" id="DejaVuSans-40"/>
       <path d="M 52 44.1875 
Q 55.375 50.25 60.0625 53.125 
Q 64.75 56 71.09375 56 
Q 79.640625 56 84.28125 50.015625 
Q 88.921875 44.046875 88.921875 33.015625 
L 88.921875 0 
L 79.890625 0 
L 79.890625 32.71875 
Q 79.890625 40.578125 77.09375 44.375 
Q 74.3125 48.1875 68.609375 48.1875 
Q 61.625 48.1875 57.5625 43.546875 
Q 53.515625 38.921875 53.515625 30.90625 
L 53.515625 0 
L 44.484375 0 
L 44.484375 32.71875 
Q 44.484375 40.625 41.703125 44.40625 
Q 38.921875 48.1875 33.109375 48.1875 
Q 26.21875 48.1875 22.15625 43.53125 
Q 18.109375 38.875 18.109375 30.90625 
L 18.109375 0 
L 9.078125 0 
L 9.078125 54.6875 
L 18.109375 54.6875 
L 18.109375 46.1875 
Q 21.1875 51.21875 25.484375 53.609375 
Q 29.78125 56 35.6875 56 
Q 41.65625 56 45.828125 52.96875 
Q 50 49.953125 52 44.1875 
z
" id="DejaVuSans-109"/>
       <path d="M 9.421875 54.6875 
L 18.40625 54.6875 
L 18.40625 0 
L 9.421875 0 
z
M 9.421875 75.984375 
L 18.40625 75.984375 
L 18.40625 64.59375 
L 9.421875 64.59375 
z
" id="DejaVuSans-105"/>
       <path d="M 48.78125 52.59375 
L 48.78125 44.1875 
Q 44.96875 46.296875 41.140625 47.34375 
Q 37.3125 48.390625 33.40625 48.390625 
Q 24.65625 48.390625 19.8125 42.84375 
Q 14.984375 37.3125 14.984375 27.296875 
Q 14.984375 17.28125 19.8125 11.734375 
Q 24.65625 6.203125 33.40625 6.203125 
Q 37.3125 6.203125 41.140625 7.25 
Q 44.96875 8.296875 48.78125 10.40625 
L 48.78125 2.09375 
Q 45.015625 0.34375 40.984375 -0.53125 
Q 36.96875 -1.421875 32.421875 -1.421875 
Q 20.0625 -1.421875 12.78125 6.34375 
Q 5.515625 14.109375 5.515625 27.296875 
Q 5.515625 40.671875 12.859375 48.328125 
Q 20.21875 56 33.015625 56 
Q 37.15625 56 41.109375 55.140625 
Q 45.0625 54.296875 48.78125 52.59375 
z
" id="DejaVuSans-99"/>
       <path d="M 41.109375 46.296875 
Q 39.59375 47.171875 37.8125 47.578125 
Q 36.03125 48 33.890625 48 
Q 26.265625 48 22.1875 43.046875 
Q 18.109375 38.09375 18.109375 28.8125 
L 18.109375 0 
L 9.078125 0 
L 9.078125 54.6875 
L 18.109375 54.6875 
L 18.109375 46.1875 
Q 20.953125 51.171875 25.484375 53.578125 
Q 30.03125 56 36.53125 56 
Q 37.453125 56 38.578125 55.875 
Q 39.703125 55.765625 41.0625 55.515625 
z
" id="DejaVuSans-114"/>
       <path d="M 30.609375 48.390625 
Q 23.390625 48.390625 19.1875 42.75 
Q 14.984375 37.109375 14.984375 27.296875 
Q 14.984375 17.484375 19.15625 11.84375 
Q 23.34375 6.203125 30.609375 6.203125 
Q 37.796875 6.203125 41.984375 11.859375 
Q 46.1875 17.53125 46.1875 27.296875 
Q 46.1875 37.015625 41.984375 42.703125 
Q 37.796875 48.390625 30.609375 48.390625 
z
M 30.609375 56 
Q 42.328125 56 49.015625 48.375 
Q 55.71875 40.765625 55.71875 27.296875 
Q 55.71875 13.875 49.015625 6.21875 
Q 42.328125 -1.421875 30.609375 -1.421875 
Q 18.84375 -1.421875 12.171875 6.21875 
Q 5.515625 13.875 5.515625 27.296875 
Q 5.515625 40.765625 12.171875 48.375 
Q 18.84375 56 30.609375 56 
z
" id="DejaVuSans-111"/>
       <path d="M 45.40625 27.984375 
Q 45.40625 37.75 41.375 43.109375 
Q 37.359375 48.484375 30.078125 48.484375 
Q 22.859375 48.484375 18.828125 43.109375 
Q 14.796875 37.75 14.796875 27.984375 
Q 14.796875 18.265625 18.828125 12.890625 
Q 22.859375 7.515625 30.078125 7.515625 
Q 37.359375 7.515625 41.375 12.890625 
Q 45.40625 18.265625 45.40625 27.984375 
z
M 54.390625 6.78125 
Q 54.390625 -7.171875 48.1875 -13.984375 
Q 42 -20.796875 29.203125 -20.796875 
Q 24.46875 -20.796875 20.265625 -20.09375 
Q 16.0625 -19.390625 12.109375 -17.921875 
L 12.109375 -9.1875 
Q 16.0625 -11.328125 19.921875 -12.34375 
Q 23.78125 -13.375 27.78125 -13.375 
Q 36.625 -13.375 41.015625 -8.765625 
Q 45.40625 -4.15625 45.40625 5.171875 
L 45.40625 9.625 
Q 42.625 4.78125 38.28125 2.390625 
Q 33.9375 0 27.875 0 
Q 17.828125 0 11.671875 7.65625 
Q 5.515625 15.328125 5.515625 27.984375 
Q 5.515625 40.671875 11.671875 48.328125 
Q 17.828125 56 27.875 56 
Q 33.9375 56 38.28125 53.609375 
Q 42.625 51.21875 45.40625 46.390625 
L 45.40625 54.6875 
L 54.390625 54.6875 
z
" id="DejaVuSans-103"/>
       <path d="M 25.390625 72.90625 
L 33.6875 72.90625 
L 8.296875 -9.28125 
L 0 -9.28125 
z
" id="DejaVuSans-47"/>
       <path d="M 8.015625 75.875 
L 15.828125 75.875 
Q 23.140625 64.359375 26.78125 53.3125 
Q 30.421875 42.28125 30.421875 31.390625 
Q 30.421875 20.453125 26.78125 9.375 
Q 23.140625 -1.703125 15.828125 -13.1875 
L 8.015625 -13.1875 
Q 14.5 -2 17.703125 9.0625 
Q 20.90625 20.125 20.90625 31.390625 
Q 20.90625 42.671875 17.703125 53.65625 
Q 14.5 64.65625 8.015625 75.875 
z
" id="DejaVuSans-41"/>
      </defs>
      <use xlink:href="#DejaVuSans-80"/>
      <use x="60.302734" xlink:href="#DejaVuSans-77"/>
      <use x="146.582031" xlink:href="#DejaVuSans-50"/>
      <use x="210.205078" xlink:href="#DejaVuSans-46"/>
      <use x="241.992188" xlink:href="#DejaVuSans-53"/>
      <use x="305.615234" xlink:href="#DejaVuSans-40"/>
      <use x="344.628906" xlink:href="#DejaVuSans-109"/>
      <use x="442.041016" xlink:href="#DejaVuSans-105"/>
      <use x="469.824219" xlink:href="#DejaVuSans-99"/>
      <use x="524.804688" xlink:href="#DejaVuSans-114"/>
      <use x="563.667969" xlink:href="#DejaVuSans-111"/>
      <use x="626.724609" xlink:href="#DejaVuSans-45"/>
      <use x="662.808594" xlink:href="#DejaVuSans-103"/>
      <use x="726.285156" xlink:href="#DejaVuSans-114"/>
      <use x="767.398438" xlink:href="#DejaVuSans-97"/>
      <use x="828.677734" xlink:href="#DejaVuSans-109"/>
      <use x="926.089844" xlink:href="#DejaVuSans-47"/>
      <use x="959.78125" xlink:href="#DejaVuSans-109"/>
      <use x="1057.193359" xlink:href="#DejaVuSans-51"/>
      <use x="1120.816406" xlink:href="#DejaVuSans-41"/>
     </g>
    </g>
   </g>
   <g id="line2d_18">
    <path clip-path="url(#pd8ee44a325)" d="M 138.436364 285.717301 
L 139.270237 280.853211 
L 140.10411 249.417835 
L 140.937983 231.16319 
L 141.771856 319.498886 
L 142.605729 326.842708 
L 143.439601 308.37824 
L 144.273474 312.364886 
L 145.107347 304.18177 
L 145.94122 282.779772 
L 146.775093 251.51607 
L 147.608966 319.918533 
L 148.442839 288.864654 
L 149.276712 285.087831 
L 150.110585 274.901853 
L 150.944458 257.181305 
L 151.778331 321.387297 
L 152.612204 318.030121 
L 153.446077 258.440246 
L 154.27995 295.579006 
L 155.113823 253.404482 
L 155.947696 264.734951 
L 156.781569 294.110241 
L 157.615442 328.311473 
L 158.449315 339.012471 
L 159.283188 377.410173 
L 160.117061 389.579936 
L 160.950934 371.954762 
L 161.784807 331.249002 
L 162.61868 306.909475 
L 163.452553 298.096888 
L 164.286426 295.579006 
L 165.120299 288.235183 
L 165.954172 295.579006 
L 166.788045 346.146471 
L 167.621918 354.787384 
L 169.289664 309.427357 
L 170.123537 383.285231 
L 170.95741 361.883234 
L 171.791283 322.016768 
L 172.625156 288.445007 
L 173.459029 271.029656 
L 174.292902 349.71347 
L 175.126775 361.463586 
L 175.960648 340.271413 
L 176.794521 410.981934 
L 177.628394 374.472644 
L 178.462267 370.81027 
L 179.296139 347.825059 
L 180.130012 339.641942 
L 180.963885 352.231352 
L 181.797758 275.645773 
L 182.631631 316.561356 
L 183.465504 303.971946 
L 184.299377 316.141709 
L 185.13325 340.366787 
L 185.967123 351.811705 
L 186.800996 338.383001 
L 187.634869 340.061589 
L 188.468742 330.619531 
L 189.302615 339.222295 
L 190.136488 332.298119 
L 190.970361 366.481105 
L 191.804234 373.423526 
L 193.47198 282.779772 
L 195.139726 353.700117 
L 195.973599 358.945704 
L 196.807472 327.472179 
L 197.641345 286.136948 
L 198.475218 221.301485 
L 199.309091 340.900883 
L 200.142964 262.217069 
L 200.976837 305.860358 
L 201.81071 307.146667 
L 202.644583 293.061124 
L 203.478456 324.324826 
L 204.312329 257.181305 
L 205.146202 282.150302 
L 205.980075 303.132652 
L 206.813948 330.409708 
L 207.647821 316.10356 
L 208.481694 341.32053 
L 209.315567 318.030121 
L 210.14944 338.383001 
L 210.983313 342.369648 
L 211.817186 374.892291 
L 212.651059 364.610939 
L 213.484932 338.592824 
L 214.318804 337.963354 
L 215.152677 330.619531 
L 217.654296 366.079704 
L 218.488169 366.079704 
L 220.155915 306.909475 
L 220.989788 354.119764 
L 221.823661 335.025825 
L 222.657534 303.342476 
L 223.491407 372.584232 
L 225.159153 310.056828 
L 225.993026 248.788364 
L 226.826899 315.512239 
L 227.660772 344.258059 
L 228.494645 318.659592 
L 230.162391 362.10218 
L 230.996264 372.794056 
L 231.830137 385.383466 
L 232.66401 357.267116 
L 233.497883 317.400651 
L 234.331756 269.770715 
L 235.165629 97.715441 
L 235.999502 161.08214 
L 236.833375 311.735416 
L 237.667248 330.619531 
L 238.501121 324.324826 
L 239.334994 357.896587 
L 240.168867 347.825059 
L 241.00274 361.67341 
L 241.836613 380.137878 
L 242.670486 379.617881 
L 243.504359 378.039643 
L 244.338232 388.111172 
L 245.172105 387.901348 
L 246.005978 386.22276 
L 246.839851 393.566583 
L 247.673724 363.561822 
L 249.341469 239.346307 
L 250.175342 327.262355 
L 251.009215 366.289527 
L 251.843088 395.035347 
L 252.676961 389.78976 
L 253.510834 386.642407 
L 254.344707 376.780702 
L 255.17858 373.049493 
L 256.012453 352.441176 
L 256.846326 349.293823 
L 257.680199 392.727289 
L 258.514072 394.405877 
L 259.347945 391.887995 
L 260.181818 354.658007 
L 261.015691 299.355829 
L 261.849564 303.132652 
L 262.683437 356.637646 
L 263.51731 400.490758 
L 265.185056 392.097818 
L 266.018929 395.98909 
L 266.852802 390.838877 
L 267.686675 388.813624 
L 268.520548 386.012937 
L 269.354421 391.468348 
L 270.188294 372.374409 
L 271.022167 369.43688 
L 271.85604 378.45929 
L 272.689913 394.825524 
L 273.523786 397.571475 
L 274.357659 405.946169 
L 275.191532 397.972876 
L 276.025405 405.106875 
L 276.859278 389.78976 
L 277.693151 407.205111 
L 278.527024 395.245171 
L 279.360897 398.81217 
L 280.19477 392.937112 
L 281.028643 390.838877 
L 281.862516 405.736346 
L 282.696389 386.22276 
L 283.530262 385.967323 
L 284.364134 379.508408 
L 285.198007 395.454994 
L 286.03188 390.838877 
L 286.865753 394.825524 
L 287.699626 401.749699 
L 288.533499 401.539876 
L 289.367372 401.749699 
L 290.201245 411.191757 
L 291.868991 395.035347 
L 292.702864 390.838877 
L 293.536737 390.629054 
L 294.37061 387.271878 
L 295.204483 381.816466 
L 296.038356 373.843173 
L 296.872229 368.807409 
L 297.706102 376.780702 
L 298.539975 372.164585 
L 299.373848 401.120229 
L 300.207721 389.999583 
L 301.041594 381.186996 
L 302.70934 389.470463 
L 303.543213 392.307642 
L 304.377086 392.727289 
L 305.210959 396.504112 
L 306.044832 387.062054 
L 306.878705 408.044405 
L 307.712578 408.464052 
L 308.546451 405.526522 
L 309.380324 387.062054 
L 310.214197 381.396819 
L 311.04807 388.740642 
L 311.881943 392.937112 
L 312.715816 391.258524 
L 313.549689 405.526522 
L 314.383562 405.45354 
L 315.217435 407.205111 
L 316.051308 406.747314 
L 316.885181 411.55418 
L 317.719054 414.758757 
L 318.552927 412.450698 
L 319.3868 393.146936 
L 320.220672 402.588993 
L 321.054545 399.861288 
L 321.888418 407.834581 
L 322.722291 397.343406 
L 323.556164 374.052997 
L 324.390037 380.977172 
L 325.22391 409.613519 
L 326.057783 407.624758 
L 326.891656 400.071111 
L 327.725529 386.642407 
L 328.559402 408.044405 
L 329.393275 393.98623 
L 330.227148 382.865584 
L 331.061021 407.624758 
L 331.894894 399.021994 
L 332.728767 326.003414 
L 333.56264 307.748769 
L 334.396513 370.276174 
L 335.230386 359.365351 
L 336.064259 388.500844 
L 336.898132 374.052997 
L 337.732005 346.338049 
L 338.565878 302.713005 
L 339.399751 299.355829 
L 340.233624 302.503182 
L 341.067497 344.048236 
L 343.569116 203.256664 
L 344.402989 293.690594 
L 345.236862 364.191292 
L 346.070735 370.276174 
L 346.904608 400.910405 
L 347.738481 413.080169 
L 348.572354 379.508408 
L 349.406227 355.903264 
L 350.2401 362.722528 
L 351.073973 377.619996 
L 351.907846 362.512704 
L 352.741719 387.062054 
L 353.575592 404.267581 
L 354.409465 412.450698 
L 355.243337 405.736346 
L 356.07721 411.191757 
L 356.911083 400.280935 
L 357.744956 412.240875 
L 358.578829 412.870345 
L 359.412702 386.012937 
L 360.246575 382.902075 
L 361.080448 350.133117 
L 361.914321 339.641942 
L 362.748194 357.47694 
L 363.582067 371.325291 
L 364.41594 355.588528 
L 365.249813 384.544172 
L 366.083686 401.330052 
L 366.917559 369.227056 
L 367.751432 345.307177 
L 368.585305 356.847469 
L 369.419178 322.856062 
L 370.253051 335.655295 
L 371.086924 315.786624 
L 371.920797 330.829355 
L 372.75467 335.445472 
L 373.588543 288.235183 
L 374.422416 260.118834 
L 375.256289 286.766419 
L 376.090162 296.4183 
L 376.924035 379.508408 
L 377.757908 357.057293 
L 378.591781 356.637646 
L 379.425654 321.177474 
L 380.259527 306.070181 
L 381.0934 328.521296 
L 381.927273 324.954297 
L 382.761146 321.911856 
L 383.595019 272.678269 
L 384.428892 313.833651 
L 385.262765 305.650534 
L 386.096638 287.605713 
L 386.930511 284.45836 
L 387.764384 323.275709 
L 388.598257 333.55706 
L 389.43213 331.668649 
L 390.266002 285.507478 
L 391.099875 247.109776 
L 391.933748 309.637181 
L 392.767621 296.628124 
L 393.601494 223.819367 
L 394.435367 294.949536 
L 395.26924 261.587598 
L 396.103113 341.302285 
L 396.936986 184.792196 
L 397.770859 237.877542 
L 398.604732 237.457895 
L 399.438605 270.819832 
L 400.272478 252.145541 
L 401.106351 300.195123 
L 401.940224 316.001827 
L 402.774097 302.503182 
L 403.60797 293.480771 
L 404.441843 291.382536 
L 405.275716 303.132652 
L 406.109589 363.771645 
L 406.943462 375.895795 
L 407.777335 365.660057 
L 408.611208 357.896587 
L 409.445081 347.405412 
L 410.278954 356.008175 
L 411.9467 257.181305 
L 412.780573 279.63242 
L 413.614446 268.511774 
L 414.448319 302.922829 
L 415.282192 314.253298 
L 416.116065 336.914236 
L 416.949938 317.190827 
L 417.783811 291.802183 
L 418.617684 287.815536 
L 419.451557 286.565718 
L 420.28543 287.186066 
L 421.119303 241.024895 
L 421.953176 174.720667 
L 422.787049 150.152242 
L 423.620922 219.832721 
L 424.454795 181.225196 
L 425.288667 185.002019 
L 426.12254 186.890431 
L 426.956413 171.181036 
L 427.790286 310.465432 
L 428.624159 282.150302 
L 429.458032 352.076745 
L 430.291905 305.395097 
L 431.125778 297.047771 
L 431.959651 301.034417 
L 432.793524 282.360125 
L 433.627397 226.547073 
L 434.46127 179.126961 
L 435.295143 155.416905 
L 436.129016 142.198024 
L 436.962889 257.810775 
L 437.796762 225.497955 
L 438.630635 314.463121 
L 439.464508 185.002019 
L 440.298381 265.574245 
L 441.132254 273.209996 
L 441.966127 342.159824 
L 442.8 323.374449 
L 443.633873 322.226591 
L 444.467746 317.400651 
L 445.301619 246.480306 
L 446.135492 247.739247 
L 446.969365 177.658196 
L 447.803238 229.904249 
L 448.637111 164.858963 
L 449.470984 279.212773 
L 450.304857 334.396354 
L 451.13873 309.427357 
L 451.972603 309.427357 
L 452.806476 253.824129 
L 453.640349 221.930956 
L 454.474222 174.027337 
L 455.308095 226.96672 
L 456.141968 246.899953 
L 456.975841 155.836552 
L 457.809714 218.993427 
L 458.643587 247.28145 
L 459.47746 312.784533 
L 460.311333 216.055898 
L 461.145205 215.00678 
L 461.979078 173.728774 
L 462.812951 182.693961 
L 463.646824 284.668184 
L 464.480697 192.136018 
L 465.31457 228.435485 
L 466.148443 225.698656 
L 466.982316 332.298119 
L 467.816189 285.717301 
L 468.650062 349.293823 
L 469.483935 352.650999 
L 470.317808 292.22183 
L 471.151681 298.096888 
L 471.985554 319.918533 
L 472.819427 327.891826 
L 473.6533 300.404947 
L 474.487173 290.123595 
L 475.321046 296.4183 
L 476.154919 304.738258 
L 476.988792 398.392523 
L 477.822665 380.347702 
L 478.656538 343.208942 
L 479.490411 325.373944 
L 480.324284 326.213238 
L 481.158157 284.878007 
L 481.99203 320.96765 
L 482.825903 330.619531 
L 483.659776 298.726359 
L 484.493649 308.37824 
L 485.327522 300.195123 
L 486.161395 283.409243 
L 486.995268 292.641477 
L 487.829141 299.146006 
L 488.663014 335.865119 
L 489.496887 354.876953 
L 490.33076 354.749234 
L 491.164633 318.449768 
L 491.998506 336.704413 
L 492.832379 329.990061 
L 493.666252 353.28047 
L 494.500125 345.936647 
L 495.333998 268.30195 
L 496.16787 223.609544 
L 497.001743 305.021064 
L 497.835616 324.53465 
L 498.669489 351.811705 
L 499.503362 309.694405 
L 500.337235 311.315769 
L 501.171108 342.579471 
L 502.004981 293.270947 
L 502.838854 310.056828 
L 503.672727 287.186066 
L 504.5066 328.73112 
L 505.340473 308.37824 
L 507.008219 332.544434 
L 507.842092 355.588528 
L 508.675965 354.119764 
L 509.509838 306.699652 
L 510.343711 305.650534 
L 511.177584 257.181305 
L 512.011457 163.080024 
L 512.84533 193.784631 
L 513.679203 341.950001 
L 514.513076 317.400651 
L 515.346949 307.748769 
L 516.180822 365.24041 
L 517.014695 367.548468 
L 517.848568 363.981469 
L 518.682441 363.771645 
L 519.516314 361.043939 
L 520.350187 358.735881 
L 521.18406 282.150302 
L 522.017933 292.012006 
L 522.851806 255.71254 
L 523.685679 332.325488 
L 524.519552 319.498886 
L 525.353425 323.275709 
L 526.187298 319.708709 
L 527.855044 359.365351 
L 528.688917 358.316234 
L 529.52279 353.070646 
L 530.356663 356.217999 
L 531.190535 334.816001 
L 532.024408 300.824594 
L 532.858281 228.225661 
L 533.692154 287.441503 
L 534.526027 333.55706 
L 535.3599 323.065885 
L 536.193773 320.757827 
L 537.027646 315.512239 
L 537.861519 350.342941 
L 538.695392 343.418765 
L 539.529265 355.378705 
L 540.363138 376.990526 
L 541.197011 348.034882 
L 542.030884 334.816001 
L 542.864757 296.4183 
L 543.69863 321.597121 
L 544.532503 335.865119 
L 545.366376 356.427822 
L 546.200249 370.276174 
L 547.034122 304.601417 
L 547.867995 323.348691 
L 548.701868 346.566118 
L 549.535741 345.726824 
L 551.203487 388.111172 
L 552.03736 384.753996 
L 552.871233 371.115468 
L 553.705106 360.204645 
L 554.538979 370.485997 
L 555.372852 375.102114 
L 556.206725 389.78976 
L 557.040598 387.481701 
L 557.874471 379.298584 
L 558.708344 374.26282 
L 560.37609 396.084465 
L 561.209963 396.084465 
L 562.043836 412.240875 
L 563.711582 409.303346 
L 564.545455 411.611404 
L 565.379328 404.267581 
L 566.2132 401.330052 
L 567.047073 403.483024 
L 567.880946 382.865584 
L 568.714819 377.410173 
L 569.548692 405.316699 
L 570.382565 389.579936 
L 571.216438 389.470463 
L 572.050311 379.508408 
L 573.718057 278.373479 
L 574.55193 369.227056 
L 575.385803 383.495054 
L 576.219676 406.995287 
L 577.053549 406.365816 
L 577.887422 406.57564 
L 578.721295 410.14264 
L 579.555168 403.218464 
L 580.389041 401.330052 
L 581.222914 396.923759 
L 582.056787 388.320995 
L 582.89066 384.963819 
L 583.724533 389.351038 
L 584.558406 375.731585 
L 585.392279 365.660057 
L 586.226152 361.67341 
L 587.060025 386.432584 
L 587.893898 391.887995 
L 588.727771 392.937112 
L 589.561644 387.062054 
L 590.395517 369.646703 
L 591.22939 363.351998 
L 592.063263 372.584232 
L 592.897136 364.191292 
L 593.731009 359.575175 
L 594.564882 365.660057 
L 595.398755 362.302881 
L 596.232628 371.325291 
L 597.066501 383.495054 
L 597.900374 406.155993 
L 598.734247 401.959523 
L 599.56812 398.81217 
L 600.401993 399.441641 
L 601.235866 391.048701 
L 602.069738 411.191757 
L 602.903611 406.155993 
L 604.571357 409.303346 
L 605.40523 399.231817 
L 606.239103 415.903249 
L 607.072976 405.946169 
L 607.906849 370.203192 
L 608.740722 404.477405 
L 609.574595 419.374874 
L 610.408468 414.33911 
L 612.076214 392.727289 
L 613.74396 315.722062 
L 614.577833 340.481236 
L 615.411706 384.544172 
L 616.245579 290.123595 
L 617.079452 344.467883 
L 617.913325 385.748376 
L 618.747198 402.798817 
L 619.581071 389.579936 
L 620.414944 388.111172 
L 621.248817 373.003879 
L 622.08269 406.57564 
L 622.916563 341.530354 
L 623.750436 356.008175 
L 624.584309 344.258059 
L 625.418182 350.972411 
L 626.252055 370.695821 
L 627.085928 383.075407 
L 627.919801 372.794056 
L 628.753674 391.468348 
L 629.587547 402.856042 
L 630.42142 390.41923 
L 631.255293 402.588993 
L 632.089166 405.736346 
L 632.923039 402.798817 
L 633.756912 391.468348 
L 634.590785 388.530819 
L 635.424658 395.664818 
L 636.258531 400.071111 
L 637.092403 410.562287 
L 637.926276 411.191757 
L 638.760149 405.316699 
L 639.594022 410.352463 
L 640.427895 407.205111 
L 641.261768 407.205111 
L 642.095641 399.231817 
L 642.929514 404.687228 
L 643.763387 404.267581 
L 645.431133 381.396819 
L 646.265006 400.910405 
L 647.098879 412.450698 
L 647.932752 416.017698 
L 648.766625 413.499816 
L 649.600498 412.031051 
L 650.434371 381.186996 
L 652.102117 405.736346 
L 652.93599 355.168881 
L 653.769863 373.003879 
L 654.603736 370.276174 
L 655.437609 326.423061 
L 657.105355 400.910405 
L 657.939228 379.718231 
L 658.773101 380.347702 
L 659.606974 339.851766 
L 660.440847 330.199884 
L 661.27472 411.401581 
L 662.108593 408.464052 
L 662.942466 405.106875 
L 663.776339 417.066815 
L 664.610212 416.589944 
L 666.277958 375.731585 
L 667.945704 321.806944 
L 668.779577 311.945239 
L 669.61345 306.489828 
L 670.447323 285.927125 
L 671.281196 286.976242 
L 672.115068 352.650999 
L 672.948941 376.780702 
L 673.782814 362.932351 
L 674.616687 356.217999 
L 675.45056 353.490293 
L 676.284433 378.878937 
L 677.118306 416.818842 
L 677.952179 400.280935 
L 678.786052 399.231817 
L 679.619925 332.355344 
L 680.453798 379.088761 
L 681.287671 395.454994 
L 682.121544 379.718231 
L 682.955417 338.592824 
L 684.623163 390.41923 
L 685.457036 332.92759 
L 686.290909 309.127609 
L 687.124782 359.994822 
L 687.958655 384.124525 
L 688.792528 387.271878 
L 689.626401 324.324826 
L 690.460274 358.578513 
L 691.294147 345.700915 
L 692.12802 277.324361 
L 693.795766 305.440711 
L 694.629639 298.306712 
L 695.463512 278.793126 
L 696.297385 284.038713 
L 697.131258 279.63242 
L 697.965131 335.655295 
L 698.799004 297.047771 
L 699.632877 329.041294 
L 700.46675 340.061589 
L 701.300623 372.584232 
L 702.134496 376.990526 
L 702.968369 390.838877 
L 703.802242 361.2097 
L 704.636115 363.482089 
L 706.303861 314.672945 
L 707.137733 319.079239 
L 707.971606 322.226591 
L 708.805479 316.77118 
L 709.639352 255.903289 
L 710.473225 232.212308 
L 711.307098 318.239945 
L 712.140971 266.623362 
L 712.974844 335.445472 
L 713.808717 340.271413 
L 714.64259 373.003879 
L 715.476463 318.030121 
L 716.310336 289.074477 
L 717.144209 255.502717 
L 717.978082 278.373479 
L 718.811955 293.690594 
L 719.645828 254.873246 
L 720.479701 264.315304 
L 721.313574 258.230422 
L 722.147447 332.298119 
L 722.98132 324.443422 
L 723.815193 343.208942 
L 724.649066 339.432119 
L 725.482939 285.507478 
L 726.316812 285.717301 
L 727.150685 286.136948 
L 727.984558 328.73112 
L 728.818431 303.132652 
L 729.652304 309.637181 
L 730.486177 329.150767 
L 732.153923 124.363026 
L 732.987796 198.449798 
L 733.821669 288.445007 
L 734.655542 321.387297 
L 735.489415 320.128356 
L 736.323288 223.609544 
L 737.157161 258.650069 
L 737.991034 299.775476 
L 738.824907 381.396819 
L 740.492653 269.351068 
L 741.326526 106.528028 
L 742.160399 226.96672 
L 742.994271 254.663423 
L 743.828144 313.833651 
L 744.662017 247.739247 
L 745.49589 192.765489 
L 746.329763 269.637191 
L 747.163636 261.587598 
L 747.163636 261.587598 
" style="fill:none;stroke:#1f77b4;stroke-linecap:square;stroke-width:1.5;"/>
   </g>
   <g id="line2d_19">
    <path clip-path="url(#pd8ee44a325)" d="M 138.436364 239.572468 
L 139.270237 273.593118 
L 140.10411 223.446162 
L 140.937983 249.080681 
L 141.771856 279.645897 
L 142.605729 296.951269 
L 143.439601 296.291333 
L 144.273474 287.252242 
L 145.107347 294.034239 
L 145.94122 258.475323 
L 146.775093 244.140567 
L 147.608966 280.117769 
L 148.442839 251.344623 
L 149.276712 277.781902 
L 150.110585 272.08569 
L 150.944458 237.474359 
L 151.778331 291.143111 
L 152.612204 312.329584 
L 153.446077 227.159582 
L 154.27995 282.404874 
L 155.113823 220.425416 
L 155.947696 253.438582 
L 156.781569 275.892202 
L 157.615442 310.95911 
L 158.449315 323.716695 
L 159.283188 304.759084 
L 160.117061 339.814406 
L 160.950934 313.904264 
L 161.784807 308.155213 
L 162.61868 267.587442 
L 163.452553 259.649473 
L 164.286426 280.806591 
L 165.120299 263.551798 
L 165.954172 274.062381 
L 166.788045 278.882767 
L 167.621918 310.366004 
L 168.455791 298.941418 
L 169.289664 276.890201 
L 170.123537 352.686696 
L 170.95741 340.545733 
L 171.791283 283.973408 
L 172.625156 247.414663 
L 173.459029 239.209929 
L 174.292902 317.320295 
L 175.126775 332.681064 
L 175.960648 292.187983 
L 176.794521 370.297585 
L 177.628394 330.094243 
L 178.462267 326.292922 
L 179.296139 273.376327 
L 180.130012 316.422144 
L 180.963885 336.73715 
L 181.797758 292.565899 
L 182.631631 314.399177 
L 183.465504 277.673481 
L 184.299377 300.62914 
L 185.13325 315.498311 
L 185.967123 332.937731 
L 186.800996 303.901199 
L 187.634869 320.362906 
L 188.468742 311.400185 
L 189.302615 320.420574 
L 190.136488 283.789475 
L 190.970361 325.572241 
L 191.804234 342.288747 
L 192.638107 286.239619 
L 193.47198 268.753683 
L 194.305853 270.489632 
L 195.139726 339.483675 
L 195.973599 344.3086 
L 196.807472 257.761452 
L 197.641345 277.034572 
L 198.475218 208.470105 
L 199.309091 351.890628 
L 200.142964 236.391669 
L 200.976837 290.664102 
L 201.81071 272.969789 
L 202.644583 261.110758 
L 203.478456 275.526599 
L 204.312329 263.105243 
L 205.146202 256.173382 
L 205.980075 273.724624 
L 206.813948 327.541554 
L 207.647821 292.903193 
L 208.481694 318.293707 
L 209.315567 286.912842 
L 210.14944 310.596133 
L 210.983313 325.221507 
L 211.817186 334.005076 
L 212.651059 320.224743 
L 213.484932 297.780577 
L 214.318804 317.188254 
L 215.152677 267.461134 
L 215.98655 320.486544 
L 216.820423 356.673551 
L 217.654296 324.094524 
L 218.488169 315.735296 
L 219.322042 338.801209 
L 220.155915 239.418903 
L 220.989788 343.628054 
L 221.823661 338.340684 
L 222.657534 326.271682 
L 223.491407 329.06376 
L 224.32528 299.86193 
L 225.159153 286.099775 
L 225.993026 237.035839 
L 226.826899 304.849188 
L 227.660772 335.717772 
L 228.494645 302.018708 
L 229.328518 324.823054 
L 230.162391 356.944809 
L 230.996264 381.818455 
L 231.830137 358.597894 
L 232.66401 375.389377 
L 233.497883 289.373655 
L 234.331756 239.713305 
L 235.165629 127.903575 
L 235.999502 127.595441 
L 236.833375 304.24632 
L 237.667248 303.761926 
L 238.501121 304.545087 
L 239.334994 332.204202 
L 240.168867 342.60841 
L 241.00274 357.324505 
L 241.836613 359.038984 
L 242.670486 369.270273 
L 243.504359 356.155519 
L 244.338232 370.769149 
L 245.172105 362.244898 
L 246.005978 371.472137 
L 246.839851 376.777192 
L 247.673724 367.694495 
L 248.507597 339.803013 
L 249.341469 184.721361 
L 250.175342 327.256577 
L 251.009215 319.107847 
L 251.843088 361.615028 
L 252.676961 359.917474 
L 253.510834 342.910709 
L 254.344707 339.081445 
L 256.012453 358.086603 
L 256.846326 354.602573 
L 257.680199 326.030678 
L 258.514072 355.854628 
L 259.347945 371.608941 
L 260.181818 350.379798 
L 261.015691 304.101226 
L 261.849564 271.51205 
L 262.683437 322.450702 
L 263.51731 388.177672 
L 264.351183 367.04691 
L 265.185056 377.035918 
L 266.018929 354.15805 
L 266.852802 374.115616 
L 267.686675 372.391588 
L 268.520548 366.148557 
L 269.354421 368.562111 
L 270.188294 358.136525 
L 271.022167 350.402575 
L 271.85604 340.195578 
L 272.689913 377.625155 
L 273.523786 386.493558 
L 274.357659 401.879234 
L 275.191532 394.296258 
L 276.025405 379.025139 
L 276.859278 378.048048 
L 277.693151 378.919563 
L 278.527024 389.312385 
L 279.360897 380.898542 
L 280.19477 384.223921 
L 281.028643 389.565723 
L 281.862516 393.886125 
L 282.696389 380.511727 
L 283.530262 374.044152 
L 284.364134 336.67321 
L 285.198007 379.00585 
L 286.03188 370.207887 
L 286.865753 387.492284 
L 287.699626 391.309221 
L 288.533499 384.815279 
L 289.367372 381.765444 
L 290.201245 388.867646 
L 291.035118 384.649859 
L 291.868991 369.51052 
L 292.702864 387.938934 
L 293.536737 379.43648 
L 294.37061 379.759614 
L 295.204483 369.985449 
L 296.038356 356.888035 
L 296.872229 355.507367 
L 297.706102 356.264495 
L 298.539975 362.635902 
L 299.373848 382.910997 
L 300.207721 382.536452 
L 301.041594 384.031614 
L 301.875467 355.103446 
L 302.70934 375.660495 
L 303.543213 392.3079 
L 304.377086 383.078771 
L 305.210959 392.335528 
L 306.044832 366.995975 
L 306.878705 388.691854 
L 307.712578 385.838299 
L 308.546451 392.97753 
L 309.380324 381.054357 
L 310.214197 378.195887 
L 311.04807 376.040085 
L 311.881943 380.029932 
L 312.715816 389.432962 
L 313.549689 395.9168 
L 314.383562 398.412624 
L 315.217435 359.132281 
L 316.051308 380.914 
L 316.885181 385.167394 
L 317.719054 390.745636 
L 318.552927 388.623201 
L 319.3868 365.039214 
L 320.220672 392.694247 
L 321.054545 379.286134 
L 321.888418 397.920488 
L 322.722291 393.343424 
L 323.556164 370.874375 
L 325.22391 362.118179 
L 326.057783 383.69382 
L 326.891656 395.61887 
L 327.725529 380.321815 
L 328.559402 406.870856 
L 329.393275 363.758295 
L 330.227148 336.569004 
L 331.061021 380.913672 
L 331.894894 383.470266 
L 332.728767 326.37162 
L 333.56264 302.911392 
L 334.396513 364.712855 
L 335.230386 355.435788 
L 336.064259 359.624522 
L 336.898132 354.161282 
L 337.732005 325.393198 
L 339.399751 296.388264 
L 340.233624 302.640396 
L 341.067497 303.517381 
L 343.569116 209.918763 
L 344.402989 242.079294 
L 345.236862 333.811318 
L 346.070735 367.137808 
L 346.904608 365.533384 
L 347.738481 387.514162 
L 348.572354 369.860846 
L 349.406227 318.317625 
L 350.2401 344.208133 
L 351.073973 362.314987 
L 351.907846 336.54744 
L 352.741719 371.880963 
L 353.575592 358.624611 
L 354.409465 399.73565 
L 355.243337 372.961211 
L 357.744956 396.503646 
L 358.578829 394.94025 
L 359.412702 374.56519 
L 360.246575 375.209738 
L 361.080448 351.902047 
L 361.914321 304.856066 
L 362.748194 350.258367 
L 363.582067 347.834469 
L 364.41594 335.420517 
L 365.249813 354.277464 
L 366.083686 378.417106 
L 366.917559 346.482906 
L 367.751432 326.364213 
L 368.585305 352.884251 
L 369.419178 330.960861 
L 370.253051 286.184098 
L 371.086924 301.461837 
L 371.920797 272.773237 
L 372.75467 312.4298 
L 373.588543 291.84423 
L 374.422416 262.084047 
L 375.256289 272.800631 
L 376.090162 277.070192 
L 376.924035 315.240765 
L 377.757908 329.159909 
L 378.591781 340.285898 
L 379.425654 301.985572 
L 380.259527 298.590608 
L 381.0934 320.018508 
L 381.927273 300.017198 
L 382.761146 305.58495 
L 383.595019 238.733975 
L 384.428892 302.940815 
L 385.262765 290.15804 
L 386.096638 256.299915 
L 386.930511 255.816387 
L 387.764384 327.652803 
L 388.598257 313.099034 
L 389.43213 316.499894 
L 390.266002 284.292074 
L 391.099875 236.329013 
L 391.933748 281.780898 
L 392.767621 303.529497 
L 393.601494 226.509916 
L 394.435367 292.439709 
L 395.26924 234.243443 
L 396.103113 323.841375 
L 396.936986 262.955694 
L 397.770859 188.742123 
L 398.604732 230.899518 
L 399.438605 252.347749 
L 400.272478 217.81266 
L 401.106351 270.298577 
L 401.940224 304.81214 
L 402.774097 250.937148 
L 403.60797 276.323887 
L 404.441843 281.667747 
L 405.275716 283.176067 
L 406.109589 327.574932 
L 406.943462 322.390433 
L 407.777335 349.358518 
L 408.611208 335.082778 
L 409.445081 312.792604 
L 410.278954 352.306536 
L 411.112827 303.733947 
L 411.9467 226.60485 
L 412.780573 281.59334 
L 413.614446 266.132971 
L 414.448319 276.461604 
L 415.282192 295.823013 
L 416.116065 301.471061 
L 416.949938 300.213177 
L 417.783811 294.018125 
L 418.617684 271.652435 
L 419.451557 229.286025 
L 420.28543 281.484408 
L 421.953176 190.561212 
L 422.787049 86.923636 
L 423.620922 191.445893 
L 424.454795 140.705018 
L 425.288667 107.276179 
L 426.12254 151.798712 
L 426.956413 148.229354 
L 427.790286 261.679718 
L 428.624159 249.177573 
L 429.458032 347.396538 
L 430.291905 307.696408 
L 431.125778 310.012615 
L 431.959651 297.853109 
L 432.793524 304.380371 
L 433.627397 258.391642 
L 434.46127 180.798594 
L 435.295143 189.81211 
L 436.129016 106.248253 
L 436.962889 239.603119 
L 437.796762 228.511909 
L 438.630635 264.163944 
L 439.464508 206.887953 
L 440.298381 194.302544 
L 441.132254 281.967456 
L 441.966127 291.726095 
L 442.8 289.519699 
L 443.633873 307.273269 
L 444.467746 297.528028 
L 445.301619 313.632825 
L 446.135492 230.216825 
L 446.969365 191.304752 
L 447.803238 184.635539 
L 448.637111 159.783671 
L 449.470984 248.321724 
L 450.304857 287.981023 
L 451.13873 276.824774 
L 451.972603 293.255912 
L 453.640349 178.93281 
L 454.474222 215.880172 
L 455.308095 186.19605 
L 456.141968 242.719449 
L 456.975841 255.991075 
L 457.809714 195.368147 
L 458.643587 198.047978 
L 459.47746 291.34184 
L 460.311333 252.754579 
L 461.145205 201.483954 
L 461.979078 241.392412 
L 462.812951 130.244921 
L 463.646824 337.77344 
L 465.31457 179.05539 
L 466.148443 280.687344 
L 466.982316 319.163892 
L 467.816189 280.329032 
L 468.650062 354.985702 
L 469.483935 357.913634 
L 470.317808 346.827366 
L 471.151681 275.914128 
L 471.985554 332.703605 
L 472.819427 341.60685 
L 473.6533 324.951332 
L 474.487173 303.025638 
L 475.321046 276.452844 
L 476.154919 290.400072 
L 476.988792 365.460081 
L 477.822665 380.339335 
L 478.656538 346.776486 
L 479.490411 337.555152 
L 480.324284 351.734487 
L 481.158157 311.411204 
L 481.99203 328.591555 
L 482.825903 309.957158 
L 483.659776 307.326081 
L 484.493649 312.164877 
L 485.327522 319.493601 
L 486.161395 294.875982 
L 486.995268 281.04476 
L 487.829141 318.983916 
L 488.663014 331.344773 
L 489.496887 330.008954 
L 490.33076 324.984129 
L 491.164633 313.198301 
L 491.998506 308.706317 
L 492.832379 327.048802 
L 493.666252 334.608387 
L 494.500125 319.246299 
L 495.333998 286.218439 
L 496.16787 184.798346 
L 497.001743 268.531113 
L 497.835616 308.533983 
L 498.669489 337.112837 
L 499.503362 321.944854 
L 500.337235 280.567966 
L 501.171108 335.002493 
L 502.004981 310.275103 
L 502.838854 301.497596 
L 503.672727 312.236797 
L 504.5066 320.95832 
L 505.340473 317.391821 
L 506.174346 330.009193 
L 507.008219 317.903149 
L 507.842092 354.507316 
L 508.675965 361.104865 
L 509.509838 306.849404 
L 510.343711 321.531155 
L 512.011457 170.746983 
L 512.84533 151.941154 
L 513.679203 347.905054 
L 514.513076 295.613486 
L 515.346949 298.634035 
L 516.180822 364.214117 
L 517.014695 365.58127 
L 517.848568 350.493987 
L 518.682441 364.410514 
L 519.516314 363.492771 
L 520.350187 378.311947 
L 521.18406 314.741312 
L 522.017933 262.073575 
L 522.851806 276.731206 
L 523.685679 320.218792 
L 524.519552 341.491519 
L 525.353425 301.254039 
L 526.187298 294.444811 
L 527.021171 352.687485 
L 527.855044 352.995281 
L 528.688917 373.138823 
L 529.52279 368.657756 
L 530.356663 317.212337 
L 531.190535 347.379174 
L 532.024408 313.380418 
L 532.858281 260.095824 
L 533.692154 218.1693 
L 534.526027 316.991821 
L 535.3599 322.482723 
L 536.193773 317.382834 
L 537.027646 350.300594 
L 537.861519 344.611435 
L 538.695392 344.738822 
L 539.529265 323.004529 
L 540.363138 358.989741 
L 541.197011 319.40219 
L 542.030884 350.629508 
L 542.864757 260.456099 
L 543.69863 356.213231 
L 544.532503 309.814789 
L 545.366376 339.279602 
L 546.200249 364.338074 
L 547.034122 355.573962 
L 547.867995 292.615057 
L 548.701868 350.100075 
L 549.535741 356.70504 
L 550.369614 367.323114 
L 551.203487 388.142244 
L 552.03736 392.514259 
L 552.871233 363.205282 
L 553.705106 362.679006 
L 554.538979 379.928587 
L 555.372852 390.564362 
L 556.206725 395.497756 
L 557.040598 385.24646 
L 557.874471 387.017261 
L 558.708344 377.822453 
L 559.542217 378.813605 
L 560.37609 400.412794 
L 561.209963 400.202312 
L 562.043836 418.198434 
L 562.877709 402.19893 
L 563.711582 413.628559 
L 564.545455 411.798308 
L 565.379328 414.285222 
L 567.047073 400.786809 
L 567.880946 403.278786 
L 568.714819 364.751961 
L 569.548692 420.262443 
L 570.382565 378.476068 
L 571.216438 400.116629 
L 572.050311 382.459475 
L 572.884184 359.044633 
L 573.718057 279.436122 
L 574.55193 366.504128 
L 575.385803 380.895987 
L 576.219676 392.905114 
L 577.053549 402.807625 
L 577.887422 417.134672 
L 578.721295 395.08735 
L 579.555168 388.895371 
L 581.222914 396.914949 
L 582.056787 387.795313 
L 582.89066 392.174948 
L 583.724533 398.765784 
L 584.558406 388.699168 
L 585.392279 375.120749 
L 586.226152 364.278758 
L 587.060025 375.502161 
L 587.893898 366.701526 
L 588.727771 376.508144 
L 589.561644 367.770066 
L 590.395517 364.279554 
L 591.22939 356.706626 
L 592.063263 371.04317 
L 592.897136 349.55861 
L 593.731009 349.468328 
L 594.564882 368.410409 
L 595.398755 369.329976 
L 596.232628 371.481713 
L 597.066501 384.580077 
L 597.900374 409.255228 
L 598.734247 405.307288 
L 599.56812 395.786698 
L 600.401993 406.366856 
L 601.235866 411.664658 
L 602.903611 415.364583 
L 603.737484 411.453888 
L 604.571357 408.613772 
L 605.40523 410.543198 
L 606.239103 422.335995 
L 607.072976 412.259134 
L 607.906849 376.764626 
L 608.740722 398.500145 
L 609.574595 389.861107 
L 610.408468 398.607682 
L 611.242341 374.947953 
L 612.076214 380.147241 
L 612.910087 402.405937 
L 613.74396 357.338771 
L 614.577833 318.917646 
L 615.411706 390.267092 
L 616.245579 330.753738 
L 617.079452 336.776712 
L 617.913325 381.194145 
L 618.747198 381.085966 
L 620.414944 393.878785 
L 621.248817 370.374313 
L 622.08269 388.139287 
L 622.916563 346.112647 
L 623.750436 362.98837 
L 624.584309 327.314242 
L 625.418182 342.326729 
L 626.252055 369.567128 
L 627.085928 370.558857 
L 627.919801 369.068029 
L 628.753674 389.3489 
L 629.587547 401.327899 
L 630.42142 390.551722 
L 631.255293 383.18445 
L 632.089166 390.832036 
L 632.923039 392.403769 
L 633.756912 396.487885 
L 634.590785 399.217352 
L 635.424658 382.881335 
L 636.258531 408.68558 
L 637.092403 425.091315 
L 637.926276 415.046534 
L 638.760149 419.273263 
L 639.594022 403.251243 
L 640.427895 411.620976 
L 641.261768 423.587529 
L 642.095641 380.701814 
L 642.929514 407.527772 
L 643.763387 375.324126 
L 644.59726 403.110224 
L 645.431133 386.654299 
L 646.265006 377.909455 
L 647.098879 415.657696 
L 647.932752 423.036958 
L 648.766625 420.136323 
L 649.600498 410.878931 
L 650.434371 387.443378 
L 651.268244 405.318493 
L 652.102117 425.856199 
L 652.93599 386.868482 
L 653.769863 373.298088 
L 654.603736 389.622311 
L 655.437609 354.467494 
L 656.271482 355.398315 
L 657.105355 389.338924 
L 657.939228 387.658846 
L 658.773101 387.246783 
L 659.606974 363.365576 
L 660.440847 329.297136 
L 661.27472 408.443219 
L 662.108593 403.395474 
L 662.942466 396.062673 
L 663.776339 422.54033 
L 664.610212 416.472726 
L 665.444085 413.243191 
L 666.277958 395.692126 
L 667.111831 340.129925 
L 667.945704 349.860327 
L 668.779577 333.724235 
L 669.61345 312.63326 
L 670.447323 326.521519 
L 671.281196 285.80774 
L 672.115068 375.066522 
L 672.948941 360.912694 
L 673.782814 366.887352 
L 674.616687 367.085173 
L 675.45056 371.112061 
L 676.284433 357.907165 
L 677.118306 415.142578 
L 677.952179 383.647755 
L 678.786052 442.996364 
L 679.619925 335.388211 
L 680.453798 355.148535 
L 681.287671 369.064268 
L 682.121544 386.196746 
L 682.955417 344.951192 
L 683.78929 390.713738 
L 684.623163 362.412146 
L 685.457036 349.234394 
L 686.290909 314.001982 
L 687.124782 387.741907 
L 687.958655 393.047618 
L 688.792528 356.37788 
L 689.626401 309.035875 
L 691.294147 355.457022 
L 692.12802 311.13483 
L 692.961893 277.019361 
L 693.795766 308.630706 
L 694.629639 315.103561 
L 695.463512 280.187218 
L 696.297385 267.551471 
L 697.131258 283.783638 
L 697.965131 343.428172 
L 698.799004 281.274825 
L 700.46675 352.48881 
L 701.300623 397.983687 
L 702.134496 419.37899 
L 702.968369 385.832421 
L 703.802242 343.773788 
L 704.636115 354.636032 
L 705.469988 329.780106 
L 706.303861 321.516643 
L 707.137733 325.297627 
L 708.805479 313.323854 
L 709.639352 285.676375 
L 710.473225 250.167348 
L 711.307098 324.965543 
L 712.140971 258.587026 
L 712.974844 350.814929 
L 713.808717 373.309838 
L 714.64259 344.390475 
L 715.476463 280.670259 
L 716.310336 300.163282 
L 717.144209 256.885897 
L 717.978082 289.413379 
L 718.811955 284.92576 
L 719.645828 282.665726 
L 720.479701 305.98074 
L 721.313574 258.483605 
L 722.147447 301.366208 
L 722.98132 306.737411 
L 723.815193 317.655683 
L 724.649066 331.925472 
L 725.482939 297.205351 
L 726.316812 283.980316 
L 727.150685 280.422726 
L 727.984558 333.253801 
L 728.818431 325.386548 
L 729.652304 301.081922 
L 730.486177 368.517382 
L 731.32005 271.391772 
L 732.153923 102.415582 
L 732.987796 200.827531 
L 734.655542 365.253365 
L 735.489415 326.253933 
L 736.323288 241.555321 
L 737.157161 223.944824 
L 737.991034 246.629277 
L 738.824907 354.180307 
L 739.65878 330.382863 
L 740.492653 287.33379 
L 741.326526 219.510618 
L 742.160399 220.01277 
L 742.994271 180.213376 
L 743.828144 285.197458 
L 745.49589 192.622727 
L 746.329763 296.823001 
L 747.163636 270.327666 
L 747.163636 270.327666 
" style="fill:none;stroke:#ff0000;stroke-dasharray:5.55,2.4;stroke-dashoffset:0;stroke-width:1.5;"/>
   </g>
   <g id="patch_3">
    <path d="M 108 460.8 
L 108 69.12 
" style="fill:none;stroke:#000000;stroke-linecap:square;stroke-linejoin:miter;stroke-width:0.8;"/>
   </g>
   <g id="patch_4">
    <path d="M 777.6 460.8 
L 777.6 69.12 
" style="fill:none;stroke:#000000;stroke-linecap:square;stroke-linejoin:miter;stroke-width:0.8;"/>
   </g>
   <g id="patch_5">
    <path d="M 108 460.8 
L 777.6 460.8 
" style="fill:none;stroke:#000000;stroke-linecap:square;stroke-linejoin:miter;stroke-width:0.8;"/>
   </g>
   <g id="patch_6">
    <path d="M 108 69.12 
L 777.6 69.12 
" style="fill:none;stroke:#000000;stroke-linecap:square;stroke-linejoin:miter;stroke-width:0.8;"/>
   </g>
   <g id="text_20">
    <!-- Macau residential 2020-2021 | Forecast vs Monitored | Support vector machine -->
    <g transform="translate(86.252344 63.12)scale(0.18 -0.18)">
     <defs>
      <path d="M 8.5 21.578125 
L 8.5 54.6875 
L 17.484375 54.6875 
L 17.484375 21.921875 
Q 17.484375 14.15625 20.5 10.265625 
Q 23.53125 6.390625 29.59375 6.390625 
Q 36.859375 6.390625 41.078125 11.03125 
Q 45.3125 15.671875 45.3125 23.6875 
L 45.3125 54.6875 
L 54.296875 54.6875 
L 54.296875 0 
L 45.3125 0 
L 45.3125 8.40625 
Q 42.046875 3.421875 37.71875 1 
Q 33.40625 -1.421875 27.6875 -1.421875 
Q 18.265625 -1.421875 13.375 4.4375 
Q 8.5 10.296875 8.5 21.578125 
z
M 31.109375 56 
z
" id="DejaVuSans-117"/>
      <path id="DejaVuSans-32"/>
      <path d="M 44.28125 53.078125 
L 44.28125 44.578125 
Q 40.484375 46.53125 36.375 47.5 
Q 32.28125 48.484375 27.875 48.484375 
Q 21.1875 48.484375 17.84375 46.4375 
Q 14.5 44.390625 14.5 40.28125 
Q 14.5 37.15625 16.890625 35.375 
Q 19.28125 33.59375 26.515625 31.984375 
L 29.59375 31.296875 
Q 39.15625 29.25 43.1875 25.515625 
Q 47.21875 21.78125 47.21875 15.09375 
Q 47.21875 7.46875 41.1875 3.015625 
Q 35.15625 -1.421875 24.609375 -1.421875 
Q 20.21875 -1.421875 15.453125 -0.5625 
Q 10.6875 0.296875 5.421875 2 
L 5.421875 11.28125 
Q 10.40625 8.6875 15.234375 7.390625 
Q 20.0625 6.109375 24.8125 6.109375 
Q 31.15625 6.109375 34.5625 8.28125 
Q 37.984375 10.453125 37.984375 14.40625 
Q 37.984375 18.0625 35.515625 20.015625 
Q 33.0625 21.96875 24.703125 23.78125 
L 21.578125 24.515625 
Q 13.234375 26.265625 9.515625 29.90625 
Q 5.8125 33.546875 5.8125 39.890625 
Q 5.8125 47.609375 11.28125 51.796875 
Q 16.75 56 26.8125 56 
Q 31.78125 56 36.171875 55.265625 
Q 40.578125 54.546875 44.28125 53.078125 
z
" id="DejaVuSans-115"/>
      <path d="M 45.40625 46.390625 
L 45.40625 75.984375 
L 54.390625 75.984375 
L 54.390625 0 
L 45.40625 0 
L 45.40625 8.203125 
Q 42.578125 3.328125 38.25 0.953125 
Q 33.9375 -1.421875 27.875 -1.421875 
Q 17.96875 -1.421875 11.734375 6.484375 
Q 5.515625 14.40625 5.515625 27.296875 
Q 5.515625 40.1875 11.734375 48.09375 
Q 17.96875 56 27.875 56 
Q 33.9375 56 38.25 53.625 
Q 42.578125 51.265625 45.40625 46.390625 
z
M 14.796875 27.296875 
Q 14.796875 17.390625 18.875 11.75 
Q 22.953125 6.109375 30.078125 6.109375 
Q 37.203125 6.109375 41.296875 11.75 
Q 45.40625 17.390625 45.40625 27.296875 
Q 45.40625 37.203125 41.296875 42.84375 
Q 37.203125 48.484375 30.078125 48.484375 
Q 22.953125 48.484375 18.875 42.84375 
Q 14.796875 37.203125 14.796875 27.296875 
z
" id="DejaVuSans-100"/>
      <path d="M 54.890625 33.015625 
L 54.890625 0 
L 45.90625 0 
L 45.90625 32.71875 
Q 45.90625 40.484375 42.875 44.328125 
Q 39.84375 48.1875 33.796875 48.1875 
Q 26.515625 48.1875 22.3125 43.546875 
Q 18.109375 38.921875 18.109375 30.90625 
L 18.109375 0 
L 9.078125 0 
L 9.078125 54.6875 
L 18.109375 54.6875 
L 18.109375 46.1875 
Q 21.34375 51.125 25.703125 53.5625 
Q 30.078125 56 35.796875 56 
Q 45.21875 56 50.046875 50.171875 
Q 54.890625 44.34375 54.890625 33.015625 
z
" id="DejaVuSans-110"/>
      <path d="M 9.421875 75.984375 
L 18.40625 75.984375 
L 18.40625 0 
L 9.421875 0 
z
" id="DejaVuSans-108"/>
      <path d="M 21 76.421875 
L 21 -23.578125 
L 12.703125 -23.578125 
L 12.703125 76.421875 
z
" id="DejaVuSans-124"/>
      <path d="M 9.8125 72.90625 
L 51.703125 72.90625 
L 51.703125 64.59375 
L 19.671875 64.59375 
L 19.671875 43.109375 
L 48.578125 43.109375 
L 48.578125 34.8125 
L 19.671875 34.8125 
L 19.671875 0 
L 9.8125 0 
z
" id="DejaVuSans-70"/>
      <path d="M 2.984375 54.6875 
L 12.5 54.6875 
L 29.59375 8.796875 
L 46.6875 54.6875 
L 56.203125 54.6875 
L 35.6875 0 
L 23.484375 0 
z
" id="DejaVuSans-118"/>
      <path d="M 53.515625 70.515625 
L 53.515625 60.890625 
Q 47.90625 63.578125 42.921875 64.890625 
Q 37.9375 66.21875 33.296875 66.21875 
Q 25.25 66.21875 20.875 63.09375 
Q 16.5 59.96875 16.5 54.203125 
Q 16.5 49.359375 19.40625 46.890625 
Q 22.3125 44.4375 30.421875 42.921875 
L 36.375 41.703125 
Q 47.40625 39.59375 52.65625 34.296875 
Q 57.90625 29 57.90625 20.125 
Q 57.90625 9.515625 50.796875 4.046875 
Q 43.703125 -1.421875 29.984375 -1.421875 
Q 24.8125 -1.421875 18.96875 -0.25 
Q 13.140625 0.921875 6.890625 3.21875 
L 6.890625 13.375 
Q 12.890625 10.015625 18.65625 8.296875 
Q 24.421875 6.59375 29.984375 6.59375 
Q 38.421875 6.59375 43.015625 9.90625 
Q 47.609375 13.234375 47.609375 19.390625 
Q 47.609375 24.75 44.3125 27.78125 
Q 41.015625 30.8125 33.5 32.328125 
L 27.484375 33.5 
Q 16.453125 35.6875 11.515625 40.375 
Q 6.59375 45.0625 6.59375 53.421875 
Q 6.59375 63.09375 13.40625 68.65625 
Q 20.21875 74.21875 32.171875 74.21875 
Q 37.3125 74.21875 42.625 73.28125 
Q 47.953125 72.359375 53.515625 70.515625 
z
" id="DejaVuSans-83"/>
      <path d="M 18.109375 8.203125 
L 18.109375 -20.796875 
L 9.078125 -20.796875 
L 9.078125 54.6875 
L 18.109375 54.6875 
L 18.109375 46.390625 
Q 20.953125 51.265625 25.265625 53.625 
Q 29.59375 56 35.59375 56 
Q 45.5625 56 51.78125 48.09375 
Q 58.015625 40.1875 58.015625 27.296875 
Q 58.015625 14.40625 51.78125 6.484375 
Q 45.5625 -1.421875 35.59375 -1.421875 
Q 29.59375 -1.421875 25.265625 0.953125 
Q 20.953125 3.328125 18.109375 8.203125 
z
M 48.6875 27.296875 
Q 48.6875 37.203125 44.609375 42.84375 
Q 40.53125 48.484375 33.40625 48.484375 
Q 26.265625 48.484375 22.1875 42.84375 
Q 18.109375 37.203125 18.109375 27.296875 
Q 18.109375 17.390625 22.1875 11.75 
Q 26.265625 6.109375 33.40625 6.109375 
Q 40.53125 6.109375 44.609375 11.75 
Q 48.6875 17.390625 48.6875 27.296875 
z
" id="DejaVuSans-112"/>
      <path d="M 54.890625 33.015625 
L 54.890625 0 
L 45.90625 0 
L 45.90625 32.71875 
Q 45.90625 40.484375 42.875 44.328125 
Q 39.84375 48.1875 33.796875 48.1875 
Q 26.515625 48.1875 22.3125 43.546875 
Q 18.109375 38.921875 18.109375 30.90625 
L 18.109375 0 
L 9.078125 0 
L 9.078125 75.984375 
L 18.109375 75.984375 
L 18.109375 46.1875 
Q 21.34375 51.125 25.703125 53.5625 
Q 30.078125 56 35.796875 56 
Q 45.21875 56 50.046875 50.171875 
Q 54.890625 44.34375 54.890625 33.015625 
z
" id="DejaVuSans-104"/>
     </defs>
     <use xlink:href="#DejaVuSans-77"/>
     <use x="86.279297" xlink:href="#DejaVuSans-97"/>
     <use x="147.558594" xlink:href="#DejaVuSans-99"/>
     <use x="202.539062" xlink:href="#DejaVuSans-97"/>
     <use x="263.818359" xlink:href="#DejaVuSans-117"/>
     <use x="327.197266" xlink:href="#DejaVuSans-32"/>
     <use x="358.984375" xlink:href="#DejaVuSans-114"/>
     <use x="397.847656" xlink:href="#DejaVuSans-101"/>
     <use x="459.371094" xlink:href="#DejaVuSans-115"/>
     <use x="511.470703" xlink:href="#DejaVuSans-105"/>
     <use x="539.253906" xlink:href="#DejaVuSans-100"/>
     <use x="602.730469" xlink:href="#DejaVuSans-101"/>
     <use x="664.253906" xlink:href="#DejaVuSans-110"/>
     <use x="727.632812" xlink:href="#DejaVuSans-116"/>
     <use x="766.841797" xlink:href="#DejaVuSans-105"/>
     <use x="794.625" xlink:href="#DejaVuSans-97"/>
     <use x="855.904297" xlink:href="#DejaVuSans-108"/>
     <use x="883.6875" xlink:href="#DejaVuSans-32"/>
     <use x="915.474609" xlink:href="#DejaVuSans-50"/>
     <use x="979.097656" xlink:href="#DejaVuSans-48"/>
     <use x="1042.720703" xlink:href="#DejaVuSans-50"/>
     <use x="1106.34375" xlink:href="#DejaVuSans-48"/>
     <use x="1169.966797" xlink:href="#DejaVuSans-45"/>
     <use x="1206.050781" xlink:href="#DejaVuSans-50"/>
     <use x="1269.673828" xlink:href="#DejaVuSans-48"/>
     <use x="1333.296875" xlink:href="#DejaVuSans-50"/>
     <use x="1396.919922" xlink:href="#DejaVuSans-49"/>
     <use x="1460.542969" xlink:href="#DejaVuSans-32"/>
     <use x="1492.330078" xlink:href="#DejaVuSans-124"/>
     <use x="1526.021484" xlink:href="#DejaVuSans-32"/>
     <use x="1557.808594" xlink:href="#DejaVuSans-70"/>
     <use x="1611.703125" xlink:href="#DejaVuSans-111"/>
     <use x="1672.884766" xlink:href="#DejaVuSans-114"/>
     <use x="1711.748047" xlink:href="#DejaVuSans-101"/>
     <use x="1773.271484" xlink:href="#DejaVuSans-99"/>
     <use x="1828.251953" xlink:href="#DejaVuSans-97"/>
     <use x="1889.53125" xlink:href="#DejaVuSans-115"/>
     <use x="1941.630859" xlink:href="#DejaVuSans-116"/>
     <use x="1980.839844" xlink:href="#DejaVuSans-32"/>
     <use x="2012.626953" xlink:href="#DejaVuSans-118"/>
     <use x="2071.806641" xlink:href="#DejaVuSans-115"/>
     <use x="2123.90625" xlink:href="#DejaVuSans-32"/>
     <use x="2155.693359" xlink:href="#DejaVuSans-77"/>
     <use x="2241.972656" xlink:href="#DejaVuSans-111"/>
     <use x="2303.154297" xlink:href="#DejaVuSans-110"/>
     <use x="2366.533203" xlink:href="#DejaVuSans-105"/>
     <use x="2394.316406" xlink:href="#DejaVuSans-116"/>
     <use x="2433.525391" xlink:href="#DejaVuSans-111"/>
     <use x="2494.707031" xlink:href="#DejaVuSans-114"/>
     <use x="2533.570312" xlink:href="#DejaVuSans-101"/>
     <use x="2595.09375" xlink:href="#DejaVuSans-100"/>
     <use x="2658.570312" xlink:href="#DejaVuSans-32"/>
     <use x="2690.357422" xlink:href="#DejaVuSans-124"/>
     <use x="2724.048828" xlink:href="#DejaVuSans-32"/>
     <use x="2755.835938" xlink:href="#DejaVuSans-83"/>
     <use x="2819.3125" xlink:href="#DejaVuSans-117"/>
     <use x="2882.691406" xlink:href="#DejaVuSans-112"/>
     <use x="2946.167969" xlink:href="#DejaVuSans-112"/>
     <use x="3009.644531" xlink:href="#DejaVuSans-111"/>
     <use x="3070.826172" xlink:href="#DejaVuSans-114"/>
     <use x="3111.939453" xlink:href="#DejaVuSans-116"/>
     <use x="3151.148438" xlink:href="#DejaVuSans-32"/>
     <use x="3182.935547" xlink:href="#DejaVuSans-118"/>
     <use x="3242.115234" xlink:href="#DejaVuSans-101"/>
     <use x="3303.638672" xlink:href="#DejaVuSans-99"/>
     <use x="3358.619141" xlink:href="#DejaVuSans-116"/>
     <use x="3397.828125" xlink:href="#DejaVuSans-111"/>
     <use x="3459.009766" xlink:href="#DejaVuSans-114"/>
     <use x="3500.123047" xlink:href="#DejaVuSans-32"/>
     <use x="3531.910156" xlink:href="#DejaVuSans-109"/>
     <use x="3629.322266" xlink:href="#DejaVuSans-97"/>
     <use x="3690.601562" xlink:href="#DejaVuSans-99"/>
     <use x="3745.582031" xlink:href="#DejaVuSans-104"/>
     <use x="3808.960938" xlink:href="#DejaVuSans-105"/>
     <use x="3836.744141" xlink:href="#DejaVuSans-110"/>
     <use x="3900.123047" xlink:href="#DejaVuSans-101"/>
    </g>
   </g>
   <g id="legend_1">
    <g id="patch_7">
     <path d="M 116.4 454.8 
L 290.450625 454.8 
Q 292.850625 454.8 292.850625 452.4 
L 292.850625 417.705 
Q 292.850625 415.305 290.450625 415.305 
L 116.4 415.305 
Q 114 415.305 114 417.705 
L 114 452.4 
Q 114 454.8 116.4 454.8 
z
" style="fill:#ffffff;opacity:0.8;stroke:#cccccc;stroke-linejoin:miter;"/>
    </g>
    <g id="line2d_20">
     <path d="M 118.8 425.023125 
L 142.8 425.023125 
" style="fill:none;stroke:#1f77b4;stroke-linecap:square;stroke-width:1.5;"/>
    </g>
    <g id="line2d_21"/>
    <g id="text_21">
     <!-- measured_data_PM2.5 -->
     <g transform="translate(152.4 429.223125)scale(0.12 -0.12)">
      <defs>
       <path d="M 50.984375 -16.609375 
L 50.984375 -23.578125 
L -0.984375 -23.578125 
L -0.984375 -16.609375 
z
" id="DejaVuSans-95"/>
      </defs>
      <use xlink:href="#DejaVuSans-109"/>
      <use x="97.412109" xlink:href="#DejaVuSans-101"/>
      <use x="158.935547" xlink:href="#DejaVuSans-97"/>
      <use x="220.214844" xlink:href="#DejaVuSans-115"/>
      <use x="272.314453" xlink:href="#DejaVuSans-117"/>
      <use x="335.693359" xlink:href="#DejaVuSans-114"/>
      <use x="374.556641" xlink:href="#DejaVuSans-101"/>
      <use x="436.080078" xlink:href="#DejaVuSans-100"/>
      <use x="499.556641" xlink:href="#DejaVuSans-95"/>
      <use x="549.556641" xlink:href="#DejaVuSans-100"/>
      <use x="613.033203" xlink:href="#DejaVuSans-97"/>
      <use x="674.3125" xlink:href="#DejaVuSans-116"/>
      <use x="713.521484" xlink:href="#DejaVuSans-97"/>
      <use x="774.800781" xlink:href="#DejaVuSans-95"/>
      <use x="824.800781" xlink:href="#DejaVuSans-80"/>
      <use x="885.103516" xlink:href="#DejaVuSans-77"/>
      <use x="971.382812" xlink:href="#DejaVuSans-50"/>
      <use x="1035.005859" xlink:href="#DejaVuSans-46"/>
      <use x="1066.792969" xlink:href="#DejaVuSans-53"/>
     </g>
    </g>
    <g id="line2d_22">
     <path d="M 118.8 442.970625 
L 142.8 442.970625 
" style="fill:none;stroke:#ff0000;stroke-dasharray:5.55,2.4;stroke-dashoffset:0;stroke-width:1.5;"/>
    </g>
    <g id="line2d_23"/>
    <g id="text_22">
     <!-- predicted_data_PM2.5 -->
     <g transform="translate(152.4 447.170625)scale(0.12 -0.12)">
      <use xlink:href="#DejaVuSans-112"/>
      <use x="63.476562" xlink:href="#DejaVuSans-114"/>
      <use x="102.339844" xlink:href="#DejaVuSans-101"/>
      <use x="163.863281" xlink:href="#DejaVuSans-100"/>
      <use x="227.339844" xlink:href="#DejaVuSans-105"/>
      <use x="255.123047" xlink:href="#DejaVuSans-99"/>
      <use x="310.103516" xlink:href="#DejaVuSans-116"/>
      <use x="349.3125" xlink:href="#DejaVuSans-101"/>
      <use x="410.835938" xlink:href="#DejaVuSans-100"/>
      <use x="474.3125" xlink:href="#DejaVuSans-95"/>
      <use x="524.3125" xlink:href="#DejaVuSans-100"/>
      <use x="587.789062" xlink:href="#DejaVuSans-97"/>
      <use x="649.068359" xlink:href="#DejaVuSans-116"/>
      <use x="688.277344" xlink:href="#DejaVuSans-97"/>
      <use x="749.556641" xlink:href="#DejaVuSans-95"/>
      <use x="799.556641" xlink:href="#DejaVuSans-80"/>
      <use x="859.859375" xlink:href="#DejaVuSans-77"/>
      <use x="946.138672" xlink:href="#DejaVuSans-50"/>
      <use x="1009.761719" xlink:href="#DejaVuSans-46"/>
      <use x="1041.548828" xlink:href="#DejaVuSans-53"/>
     </g>
    </g>
   </g>
  </g>
 </g>
 <defs>
  <clipPath id="pd8ee44a325">
   <rect height="391.68" width="669.6" x="108" y="69.12"/>
  </clipPath>
 </defs>
</svg>
