<?xml version="1.0" encoding="utf-8" standalone="no"?>
<!DOCTYPE svg PUBLIC "-//W3C//DTD SVG 1.1//EN"
  "http://www.w3.org/Graphics/SVG/1.1/DTD/svg11.dtd">
<!-- Created with matplotlib (https://matplotlib.org/) -->
<svg height="576pt" version="1.1" viewBox="0 0 864 576" width="864pt" xmlns="http://www.w3.org/2000/svg" xmlns:xlink="http://www.w3.org/1999/xlink">
 <metadata>
  <rdf:RDF xmlns:cc="http://creativecommons.org/ns#" xmlns:dc="http://purl.org/dc/elements/1.1/" xmlns:rdf="http://www.w3.org/1999/02/22-rdf-syntax-ns#">
   <cc:Work>
    <dc:type rdf:resource="http://purl.org/dc/dcmitype/StillImage"/>
    <dc:date>2024-03-08T20:21:06.284076</dc:date>
    <dc:format>image/svg+xml</dc:format>
    <dc:creator>
     <cc:Agent>
      <dc:title>Matplotlib v3.3.4, https://matplotlib.org/</dc:title>
     </cc:Agent>
    </dc:creator>
   </cc:Work>
  </rdf:RDF>
 </metadata>
 <defs>
  <style type="text/css">*{stroke-linecap:butt;stroke-linejoin:round;}</style>
 </defs>
 <g id="figure_1">
  <g id="patch_1">
   <path d="M 0 576 
L 864 576 
L 864 0 
L 0 0 
z
" style="fill:#ffffff;"/>
  </g>
  <g id="axes_1">
   <g id="patch_2">
    <path d="M 108 460.8 
L 777.6 460.8 
L 777.6 69.12 
L 108 69.12 
z
" style="fill:#ffffff;"/>
   </g>
   <g id="matplotlib.axis_1">
    <g id="xtick_1">
     <g id="line2d_1">
      <defs>
       <path d="M 0 0 
L 0 3.5 
" id="mc35af50b64" style="stroke:#000000;stroke-width:0.8;"/>
      </defs>
      <g>
       <use style="stroke:#000000;stroke-width:0.8;" x="138.436364" xlink:href="#mc35af50b64" y="460.8"/>
      </g>
     </g>
     <g id="text_1">
      <!-- 2020-01 -->
      <g transform="translate(93.766579 500.766215)rotate(-30)scale(0.12 -0.12)">
       <defs>
        <path d="M 19.1875 8.296875 
L 53.609375 8.296875 
L 53.609375 0 
L 7.328125 0 
L 7.328125 8.296875 
Q 12.9375 14.109375 22.625 23.890625 
Q 32.328125 33.6875 34.8125 36.53125 
Q 39.546875 41.84375 41.421875 45.53125 
Q 43.3125 49.21875 43.3125 52.78125 
Q 43.3125 58.59375 39.234375 62.25 
Q 35.15625 65.921875 28.609375 65.921875 
Q 23.96875 65.921875 18.8125 64.3125 
Q 13.671875 62.703125 7.8125 59.421875 
L 7.8125 69.390625 
Q 13.765625 71.78125 18.9375 73 
Q 24.125 74.21875 28.421875 74.21875 
Q 39.75 74.21875 46.484375 68.546875 
Q 53.21875 62.890625 53.21875 53.421875 
Q 53.21875 48.921875 51.53125 44.890625 
Q 49.859375 40.875 45.40625 35.40625 
Q 44.1875 33.984375 37.640625 27.21875 
Q 31.109375 20.453125 19.1875 8.296875 
z
" id="DejaVuSans-50"/>
        <path d="M 31.78125 66.40625 
Q 24.171875 66.40625 20.328125 58.90625 
Q 16.5 51.421875 16.5 36.375 
Q 16.5 21.390625 20.328125 13.890625 
Q 24.171875 6.390625 31.78125 6.390625 
Q 39.453125 6.390625 43.28125 13.890625 
Q 47.125 21.390625 47.125 36.375 
Q 47.125 51.421875 43.28125 58.90625 
Q 39.453125 66.40625 31.78125 66.40625 
z
M 31.78125 74.21875 
Q 44.046875 74.21875 50.515625 64.515625 
Q 56.984375 54.828125 56.984375 36.375 
Q 56.984375 17.96875 50.515625 8.265625 
Q 44.046875 -1.421875 31.78125 -1.421875 
Q 19.53125 -1.421875 13.0625 8.265625 
Q 6.59375 17.96875 6.59375 36.375 
Q 6.59375 54.828125 13.0625 64.515625 
Q 19.53125 74.21875 31.78125 74.21875 
z
" id="DejaVuSans-48"/>
        <path d="M 4.890625 31.390625 
L 31.203125 31.390625 
L 31.203125 23.390625 
L 4.890625 23.390625 
z
" id="DejaVuSans-45"/>
        <path d="M 12.40625 8.296875 
L 28.515625 8.296875 
L 28.515625 63.921875 
L 10.984375 60.40625 
L 10.984375 69.390625 
L 28.421875 72.90625 
L 38.28125 72.90625 
L 38.28125 8.296875 
L 54.390625 8.296875 
L 54.390625 0 
L 12.40625 0 
z
" id="DejaVuSans-49"/>
       </defs>
       <use xlink:href="#DejaVuSans-50"/>
       <use x="63.623047" xlink:href="#DejaVuSans-48"/>
       <use x="127.246094" xlink:href="#DejaVuSans-50"/>
       <use x="190.869141" xlink:href="#DejaVuSans-48"/>
       <use x="254.492188" xlink:href="#DejaVuSans-45"/>
       <use x="290.576172" xlink:href="#DejaVuSans-48"/>
       <use x="354.199219" xlink:href="#DejaVuSans-49"/>
      </g>
     </g>
    </g>
    <g id="xtick_2">
     <g id="line2d_2">
      <g>
       <use style="stroke:#000000;stroke-width:0.8;" x="214.318804" xlink:href="#mc35af50b64" y="460.8"/>
      </g>
     </g>
     <g id="text_2">
      <!-- 2020-04 -->
      <g transform="translate(169.64902 500.766215)rotate(-30)scale(0.12 -0.12)">
       <defs>
        <path d="M 37.796875 64.3125 
L 12.890625 25.390625 
L 37.796875 25.390625 
z
M 35.203125 72.90625 
L 47.609375 72.90625 
L 47.609375 25.390625 
L 58.015625 25.390625 
L 58.015625 17.1875 
L 47.609375 17.1875 
L 47.609375 0 
L 37.796875 0 
L 37.796875 17.1875 
L 4.890625 17.1875 
L 4.890625 26.703125 
z
" id="DejaVuSans-52"/>
       </defs>
       <use xlink:href="#DejaVuSans-50"/>
       <use x="63.623047" xlink:href="#DejaVuSans-48"/>
       <use x="127.246094" xlink:href="#DejaVuSans-50"/>
       <use x="190.869141" xlink:href="#DejaVuSans-48"/>
       <use x="254.492188" xlink:href="#DejaVuSans-45"/>
       <use x="290.576172" xlink:href="#DejaVuSans-48"/>
       <use x="354.199219" xlink:href="#DejaVuSans-52"/>
      </g>
     </g>
    </g>
    <g id="xtick_3">
     <g id="line2d_3">
      <g>
       <use style="stroke:#000000;stroke-width:0.8;" x="290.201245" xlink:href="#mc35af50b64" y="460.8"/>
      </g>
     </g>
     <g id="text_3">
      <!-- 2020-07 -->
      <g transform="translate(245.53146 500.766215)rotate(-30)scale(0.12 -0.12)">
       <defs>
        <path d="M 8.203125 72.90625 
L 55.078125 72.90625 
L 55.078125 68.703125 
L 28.609375 0 
L 18.3125 0 
L 43.21875 64.59375 
L 8.203125 64.59375 
z
" id="DejaVuSans-55"/>
       </defs>
       <use xlink:href="#DejaVuSans-50"/>
       <use x="63.623047" xlink:href="#DejaVuSans-48"/>
       <use x="127.246094" xlink:href="#DejaVuSans-50"/>
       <use x="190.869141" xlink:href="#DejaVuSans-48"/>
       <use x="254.492188" xlink:href="#DejaVuSans-45"/>
       <use x="290.576172" xlink:href="#DejaVuSans-48"/>
       <use x="354.199219" xlink:href="#DejaVuSans-55"/>
      </g>
     </g>
    </g>
    <g id="xtick_4">
     <g id="line2d_4">
      <g>
       <use style="stroke:#000000;stroke-width:0.8;" x="366.917559" xlink:href="#mc35af50b64" y="460.8"/>
      </g>
     </g>
     <g id="text_4">
      <!-- 2020-10 -->
      <g transform="translate(322.247774 500.766215)rotate(-30)scale(0.12 -0.12)">
       <use xlink:href="#DejaVuSans-50"/>
       <use x="63.623047" xlink:href="#DejaVuSans-48"/>
       <use x="127.246094" xlink:href="#DejaVuSans-50"/>
       <use x="190.869141" xlink:href="#DejaVuSans-48"/>
       <use x="254.492188" xlink:href="#DejaVuSans-45"/>
       <use x="290.576172" xlink:href="#DejaVuSans-49"/>
       <use x="354.199219" xlink:href="#DejaVuSans-48"/>
      </g>
     </g>
    </g>
    <g id="xtick_5">
     <g id="line2d_5">
      <g>
       <use style="stroke:#000000;stroke-width:0.8;" x="443.633873" xlink:href="#mc35af50b64" y="460.8"/>
      </g>
     </g>
     <g id="text_5">
      <!-- 2021-01 -->
      <g transform="translate(398.964088 500.766215)rotate(-30)scale(0.12 -0.12)">
       <use xlink:href="#DejaVuSans-50"/>
       <use x="63.623047" xlink:href="#DejaVuSans-48"/>
       <use x="127.246094" xlink:href="#DejaVuSans-50"/>
       <use x="190.869141" xlink:href="#DejaVuSans-49"/>
       <use x="254.492188" xlink:href="#DejaVuSans-45"/>
       <use x="290.576172" xlink:href="#DejaVuSans-48"/>
       <use x="354.199219" xlink:href="#DejaVuSans-49"/>
      </g>
     </g>
    </g>
    <g id="xtick_6">
     <g id="line2d_6">
      <g>
       <use style="stroke:#000000;stroke-width:0.8;" x="518.682441" xlink:href="#mc35af50b64" y="460.8"/>
      </g>
     </g>
     <g id="text_6">
      <!-- 2021-04 -->
      <g transform="translate(474.012656 500.766215)rotate(-30)scale(0.12 -0.12)">
       <use xlink:href="#DejaVuSans-50"/>
       <use x="63.623047" xlink:href="#DejaVuSans-48"/>
       <use x="127.246094" xlink:href="#DejaVuSans-50"/>
       <use x="190.869141" xlink:href="#DejaVuSans-49"/>
       <use x="254.492188" xlink:href="#DejaVuSans-45"/>
       <use x="290.576172" xlink:href="#DejaVuSans-48"/>
       <use x="354.199219" xlink:href="#DejaVuSans-52"/>
      </g>
     </g>
    </g>
    <g id="xtick_7">
     <g id="line2d_7">
      <g>
       <use style="stroke:#000000;stroke-width:0.8;" x="594.564882" xlink:href="#mc35af50b64" y="460.8"/>
      </g>
     </g>
     <g id="text_7">
      <!-- 2021-07 -->
      <g transform="translate(549.895097 500.766215)rotate(-30)scale(0.12 -0.12)">
       <use xlink:href="#DejaVuSans-50"/>
       <use x="63.623047" xlink:href="#DejaVuSans-48"/>
       <use x="127.246094" xlink:href="#DejaVuSans-50"/>
       <use x="190.869141" xlink:href="#DejaVuSans-49"/>
       <use x="254.492188" xlink:href="#DejaVuSans-45"/>
       <use x="290.576172" xlink:href="#DejaVuSans-48"/>
       <use x="354.199219" xlink:href="#DejaVuSans-55"/>
      </g>
     </g>
    </g>
    <g id="xtick_8">
     <g id="line2d_8">
      <g>
       <use style="stroke:#000000;stroke-width:0.8;" x="671.281196" xlink:href="#mc35af50b64" y="460.8"/>
      </g>
     </g>
     <g id="text_8">
      <!-- 2021-10 -->
      <g transform="translate(626.611411 500.766215)rotate(-30)scale(0.12 -0.12)">
       <use xlink:href="#DejaVuSans-50"/>
       <use x="63.623047" xlink:href="#DejaVuSans-48"/>
       <use x="127.246094" xlink:href="#DejaVuSans-50"/>
       <use x="190.869141" xlink:href="#DejaVuSans-49"/>
       <use x="254.492188" xlink:href="#DejaVuSans-45"/>
       <use x="290.576172" xlink:href="#DejaVuSans-49"/>
       <use x="354.199219" xlink:href="#DejaVuSans-48"/>
      </g>
     </g>
    </g>
    <g id="xtick_9">
     <g id="line2d_9">
      <g>
       <use style="stroke:#000000;stroke-width:0.8;" x="747.997509" xlink:href="#mc35af50b64" y="460.8"/>
      </g>
     </g>
     <g id="text_9">
      <!-- 2022-01 -->
      <g transform="translate(703.327724 500.766215)rotate(-30)scale(0.12 -0.12)">
       <use xlink:href="#DejaVuSans-50"/>
       <use x="63.623047" xlink:href="#DejaVuSans-48"/>
       <use x="127.246094" xlink:href="#DejaVuSans-50"/>
       <use x="190.869141" xlink:href="#DejaVuSans-50"/>
       <use x="254.492188" xlink:href="#DejaVuSans-45"/>
       <use x="290.576172" xlink:href="#DejaVuSans-48"/>
       <use x="354.199219" xlink:href="#DejaVuSans-49"/>
      </g>
     </g>
    </g>
    <g id="text_10">
     <!-- Date -->
     <g transform="translate(424.873828 518.325146)scale(0.15 -0.15)">
      <defs>
       <path d="M 19.671875 64.796875 
L 19.671875 8.109375 
L 31.59375 8.109375 
Q 46.6875 8.109375 53.6875 14.9375 
Q 60.6875 21.78125 60.6875 36.53125 
Q 60.6875 51.171875 53.6875 57.984375 
Q 46.6875 64.796875 31.59375 64.796875 
z
M 9.8125 72.90625 
L 30.078125 72.90625 
Q 51.265625 72.90625 61.171875 64.09375 
Q 71.09375 55.28125 71.09375 36.53125 
Q 71.09375 17.671875 61.125 8.828125 
Q 51.171875 0 30.078125 0 
L 9.8125 0 
z
" id="DejaVuSans-68"/>
       <path d="M 34.28125 27.484375 
Q 23.390625 27.484375 19.1875 25 
Q 14.984375 22.515625 14.984375 16.5 
Q 14.984375 11.71875 18.140625 8.90625 
Q 21.296875 6.109375 26.703125 6.109375 
Q 34.1875 6.109375 38.703125 11.40625 
Q 43.21875 16.703125 43.21875 25.484375 
L 43.21875 27.484375 
z
M 52.203125 31.203125 
L 52.203125 0 
L 43.21875 0 
L 43.21875 8.296875 
Q 40.140625 3.328125 35.546875 0.953125 
Q 30.953125 -1.421875 24.3125 -1.421875 
Q 15.921875 -1.421875 10.953125 3.296875 
Q 6 8.015625 6 15.921875 
Q 6 25.140625 12.171875 29.828125 
Q 18.359375 34.515625 30.609375 34.515625 
L 43.21875 34.515625 
L 43.21875 35.40625 
Q 43.21875 41.609375 39.140625 45 
Q 35.0625 48.390625 27.6875 48.390625 
Q 23 48.390625 18.546875 47.265625 
Q 14.109375 46.140625 10.015625 43.890625 
L 10.015625 52.203125 
Q 14.9375 54.109375 19.578125 55.046875 
Q 24.21875 56 28.609375 56 
Q 40.484375 56 46.34375 49.84375 
Q 52.203125 43.703125 52.203125 31.203125 
z
" id="DejaVuSans-97"/>
       <path d="M 18.3125 70.21875 
L 18.3125 54.6875 
L 36.8125 54.6875 
L 36.8125 47.703125 
L 18.3125 47.703125 
L 18.3125 18.015625 
Q 18.3125 11.328125 20.140625 9.421875 
Q 21.96875 7.515625 27.59375 7.515625 
L 36.8125 7.515625 
L 36.8125 0 
L 27.59375 0 
Q 17.1875 0 13.234375 3.875 
Q 9.28125 7.765625 9.28125 18.015625 
L 9.28125 47.703125 
L 2.6875 47.703125 
L 2.6875 54.6875 
L 9.28125 54.6875 
L 9.28125 70.21875 
z
" id="DejaVuSans-116"/>
       <path d="M 56.203125 29.59375 
L 56.203125 25.203125 
L 14.890625 25.203125 
Q 15.484375 15.921875 20.484375 11.0625 
Q 25.484375 6.203125 34.421875 6.203125 
Q 39.59375 6.203125 44.453125 7.46875 
Q 49.3125 8.734375 54.109375 11.28125 
L 54.109375 2.78125 
Q 49.265625 0.734375 44.1875 -0.34375 
Q 39.109375 -1.421875 33.890625 -1.421875 
Q 20.796875 -1.421875 13.15625 6.1875 
Q 5.515625 13.8125 5.515625 26.8125 
Q 5.515625 40.234375 12.765625 48.109375 
Q 20.015625 56 32.328125 56 
Q 43.359375 56 49.78125 48.890625 
Q 56.203125 41.796875 56.203125 29.59375 
z
M 47.21875 32.234375 
Q 47.125 39.59375 43.09375 43.984375 
Q 39.0625 48.390625 32.421875 48.390625 
Q 24.90625 48.390625 20.390625 44.140625 
Q 15.875 39.890625 15.1875 32.171875 
z
" id="DejaVuSans-101"/>
      </defs>
      <use xlink:href="#DejaVuSans-68"/>
      <use x="77.001953" xlink:href="#DejaVuSans-97"/>
      <use x="138.28125" xlink:href="#DejaVuSans-116"/>
      <use x="177.490234" xlink:href="#DejaVuSans-101"/>
     </g>
    </g>
   </g>
   <g id="matplotlib.axis_2">
    <g id="ytick_1">
     <g id="line2d_10">
      <defs>
       <path d="M 0 0 
L -3.5 0 
" id="m97e4696c82" style="stroke:#000000;stroke-width:0.8;"/>
      </defs>
      <g>
       <use style="stroke:#000000;stroke-width:0.8;" x="108" xlink:href="#m97e4696c82" y="424.453326"/>
      </g>
     </g>
     <g id="text_11">
      <!-- −40 -->
      <g transform="translate(75.674375 429.012389)scale(0.12 -0.12)">
       <defs>
        <path d="M 10.59375 35.5 
L 73.1875 35.5 
L 73.1875 27.203125 
L 10.59375 27.203125 
z
" id="DejaVuSans-8722"/>
       </defs>
       <use xlink:href="#DejaVuSans-8722"/>
       <use x="83.789062" xlink:href="#DejaVuSans-52"/>
       <use x="147.412109" xlink:href="#DejaVuSans-48"/>
      </g>
     </g>
    </g>
    <g id="ytick_2">
     <g id="line2d_11">
      <g>
       <use style="stroke:#000000;stroke-width:0.8;" x="108" xlink:href="#m97e4696c82" y="362.828327"/>
      </g>
     </g>
     <g id="text_12">
      <!-- −20 -->
      <g transform="translate(75.674375 367.38739)scale(0.12 -0.12)">
       <use xlink:href="#DejaVuSans-8722"/>
       <use x="83.789062" xlink:href="#DejaVuSans-50"/>
       <use x="147.412109" xlink:href="#DejaVuSans-48"/>
      </g>
     </g>
    </g>
    <g id="ytick_3">
     <g id="line2d_12">
      <g>
       <use style="stroke:#000000;stroke-width:0.8;" x="108" xlink:href="#m97e4696c82" y="301.203328"/>
      </g>
     </g>
     <g id="text_13">
      <!-- 0 -->
      <g transform="translate(93.365 305.762391)scale(0.12 -0.12)">
       <use xlink:href="#DejaVuSans-48"/>
      </g>
     </g>
    </g>
    <g id="ytick_4">
     <g id="line2d_13">
      <g>
       <use style="stroke:#000000;stroke-width:0.8;" x="108" xlink:href="#m97e4696c82" y="239.578329"/>
      </g>
     </g>
     <g id="text_14">
      <!-- 20 -->
      <g transform="translate(85.73 244.137392)scale(0.12 -0.12)">
       <use xlink:href="#DejaVuSans-50"/>
       <use x="63.623047" xlink:href="#DejaVuSans-48"/>
      </g>
     </g>
    </g>
    <g id="ytick_5">
     <g id="line2d_14">
      <g>
       <use style="stroke:#000000;stroke-width:0.8;" x="108" xlink:href="#m97e4696c82" y="177.95333"/>
      </g>
     </g>
     <g id="text_15">
      <!-- 40 -->
      <g transform="translate(85.73 182.512393)scale(0.12 -0.12)">
       <use xlink:href="#DejaVuSans-52"/>
       <use x="63.623047" xlink:href="#DejaVuSans-48"/>
      </g>
     </g>
    </g>
    <g id="ytick_6">
     <g id="line2d_15">
      <g>
       <use style="stroke:#000000;stroke-width:0.8;" x="108" xlink:href="#m97e4696c82" y="116.328331"/>
      </g>
     </g>
     <g id="text_16">
      <!-- 60 -->
      <g transform="translate(85.73 120.887394)scale(0.12 -0.12)">
       <defs>
        <path d="M 33.015625 40.375 
Q 26.375 40.375 22.484375 35.828125 
Q 18.609375 31.296875 18.609375 23.390625 
Q 18.609375 15.53125 22.484375 10.953125 
Q 26.375 6.390625 33.015625 6.390625 
Q 39.65625 6.390625 43.53125 10.953125 
Q 47.40625 15.53125 47.40625 23.390625 
Q 47.40625 31.296875 43.53125 35.828125 
Q 39.65625 40.375 33.015625 40.375 
z
M 52.59375 71.296875 
L 52.59375 62.3125 
Q 48.875 64.0625 45.09375 64.984375 
Q 41.3125 65.921875 37.59375 65.921875 
Q 27.828125 65.921875 22.671875 59.328125 
Q 17.53125 52.734375 16.796875 39.40625 
Q 19.671875 43.65625 24.015625 45.921875 
Q 28.375 48.1875 33.59375 48.1875 
Q 44.578125 48.1875 50.953125 41.515625 
Q 57.328125 34.859375 57.328125 23.390625 
Q 57.328125 12.15625 50.6875 5.359375 
Q 44.046875 -1.421875 33.015625 -1.421875 
Q 20.359375 -1.421875 13.671875 8.265625 
Q 6.984375 17.96875 6.984375 36.375 
Q 6.984375 53.65625 15.1875 63.9375 
Q 23.390625 74.21875 37.203125 74.21875 
Q 40.921875 74.21875 44.703125 73.484375 
Q 48.484375 72.75 52.59375 71.296875 
z
" id="DejaVuSans-54"/>
       </defs>
       <use xlink:href="#DejaVuSans-54"/>
       <use x="63.623047" xlink:href="#DejaVuSans-48"/>
      </g>
     </g>
    </g>
    <g id="text_17">
     <!-- PM2.5(micro-gram/m3) -->
     <g transform="translate(68.554844 351.945937)rotate(-90)scale(0.15 -0.15)">
      <defs>
       <path d="M 19.671875 64.796875 
L 19.671875 37.40625 
L 32.078125 37.40625 
Q 38.96875 37.40625 42.71875 40.96875 
Q 46.484375 44.53125 46.484375 51.125 
Q 46.484375 57.671875 42.71875 61.234375 
Q 38.96875 64.796875 32.078125 64.796875 
z
M 9.8125 72.90625 
L 32.078125 72.90625 
Q 44.34375 72.90625 50.609375 67.359375 
Q 56.890625 61.8125 56.890625 51.125 
Q 56.890625 40.328125 50.609375 34.8125 
Q 44.34375 29.296875 32.078125 29.296875 
L 19.671875 29.296875 
L 19.671875 0 
L 9.8125 0 
z
" id="DejaVuSans-80"/>
       <path d="M 9.8125 72.90625 
L 24.515625 72.90625 
L 43.109375 23.296875 
L 61.8125 72.90625 
L 76.515625 72.90625 
L 76.515625 0 
L 66.890625 0 
L 66.890625 64.015625 
L 48.09375 14.015625 
L 38.1875 14.015625 
L 19.390625 64.015625 
L 19.390625 0 
L 9.8125 0 
z
" id="DejaVuSans-77"/>
       <path d="M 10.6875 12.40625 
L 21 12.40625 
L 21 0 
L 10.6875 0 
z
" id="DejaVuSans-46"/>
       <path d="M 10.796875 72.90625 
L 49.515625 72.90625 
L 49.515625 64.59375 
L 19.828125 64.59375 
L 19.828125 46.734375 
Q 21.96875 47.46875 24.109375 47.828125 
Q 26.265625 48.1875 28.421875 48.1875 
Q 40.625 48.1875 47.75 41.5 
Q 54.890625 34.8125 54.890625 23.390625 
Q 54.890625 11.625 47.5625 5.09375 
Q 40.234375 -1.421875 26.90625 -1.421875 
Q 22.3125 -1.421875 17.546875 -0.640625 
Q 12.796875 0.140625 7.71875 1.703125 
L 7.71875 11.625 
Q 12.109375 9.234375 16.796875 8.0625 
Q 21.484375 6.890625 26.703125 6.890625 
Q 35.15625 6.890625 40.078125 11.328125 
Q 45.015625 15.765625 45.015625 23.390625 
Q 45.015625 31 40.078125 35.4375 
Q 35.15625 39.890625 26.703125 39.890625 
Q 22.75 39.890625 18.8125 39.015625 
Q 14.890625 38.140625 10.796875 36.28125 
z
" id="DejaVuSans-53"/>
       <path d="M 31 75.875 
Q 24.46875 64.65625 21.28125 53.65625 
Q 18.109375 42.671875 18.109375 31.390625 
Q 18.109375 20.125 21.3125 9.0625 
Q 24.515625 -2 31 -13.1875 
L 23.1875 -13.1875 
Q 15.875 -1.703125 12.234375 9.375 
Q 8.59375 20.453125 8.59375 31.390625 
Q 8.59375 42.28125 12.203125 53.3125 
Q 15.828125 64.359375 23.1875 75.875 
z
" id="DejaVuSans-40"/>
       <path d="M 52 44.1875 
Q 55.375 50.25 60.0625 53.125 
Q 64.75 56 71.09375 56 
Q 79.640625 56 84.28125 50.015625 
Q 88.921875 44.046875 88.921875 33.015625 
L 88.921875 0 
L 79.890625 0 
L 79.890625 32.71875 
Q 79.890625 40.578125 77.09375 44.375 
Q 74.3125 48.1875 68.609375 48.1875 
Q 61.625 48.1875 57.5625 43.546875 
Q 53.515625 38.921875 53.515625 30.90625 
L 53.515625 0 
L 44.484375 0 
L 44.484375 32.71875 
Q 44.484375 40.625 41.703125 44.40625 
Q 38.921875 48.1875 33.109375 48.1875 
Q 26.21875 48.1875 22.15625 43.53125 
Q 18.109375 38.875 18.109375 30.90625 
L 18.109375 0 
L 9.078125 0 
L 9.078125 54.6875 
L 18.109375 54.6875 
L 18.109375 46.1875 
Q 21.1875 51.21875 25.484375 53.609375 
Q 29.78125 56 35.6875 56 
Q 41.65625 56 45.828125 52.96875 
Q 50 49.953125 52 44.1875 
z
" id="DejaVuSans-109"/>
       <path d="M 9.421875 54.6875 
L 18.40625 54.6875 
L 18.40625 0 
L 9.421875 0 
z
M 9.421875 75.984375 
L 18.40625 75.984375 
L 18.40625 64.59375 
L 9.421875 64.59375 
z
" id="DejaVuSans-105"/>
       <path d="M 48.78125 52.59375 
L 48.78125 44.1875 
Q 44.96875 46.296875 41.140625 47.34375 
Q 37.3125 48.390625 33.40625 48.390625 
Q 24.65625 48.390625 19.8125 42.84375 
Q 14.984375 37.3125 14.984375 27.296875 
Q 14.984375 17.28125 19.8125 11.734375 
Q 24.65625 6.203125 33.40625 6.203125 
Q 37.3125 6.203125 41.140625 7.25 
Q 44.96875 8.296875 48.78125 10.40625 
L 48.78125 2.09375 
Q 45.015625 0.34375 40.984375 -0.53125 
Q 36.96875 -1.421875 32.421875 -1.421875 
Q 20.0625 -1.421875 12.78125 6.34375 
Q 5.515625 14.109375 5.515625 27.296875 
Q 5.515625 40.671875 12.859375 48.328125 
Q 20.21875 56 33.015625 56 
Q 37.15625 56 41.109375 55.140625 
Q 45.0625 54.296875 48.78125 52.59375 
z
" id="DejaVuSans-99"/>
       <path d="M 41.109375 46.296875 
Q 39.59375 47.171875 37.8125 47.578125 
Q 36.03125 48 33.890625 48 
Q 26.265625 48 22.1875 43.046875 
Q 18.109375 38.09375 18.109375 28.8125 
L 18.109375 0 
L 9.078125 0 
L 9.078125 54.6875 
L 18.109375 54.6875 
L 18.109375 46.1875 
Q 20.953125 51.171875 25.484375 53.578125 
Q 30.03125 56 36.53125 56 
Q 37.453125 56 38.578125 55.875 
Q 39.703125 55.765625 41.0625 55.515625 
z
" id="DejaVuSans-114"/>
       <path d="M 30.609375 48.390625 
Q 23.390625 48.390625 19.1875 42.75 
Q 14.984375 37.109375 14.984375 27.296875 
Q 14.984375 17.484375 19.15625 11.84375 
Q 23.34375 6.203125 30.609375 6.203125 
Q 37.796875 6.203125 41.984375 11.859375 
Q 46.1875 17.53125 46.1875 27.296875 
Q 46.1875 37.015625 41.984375 42.703125 
Q 37.796875 48.390625 30.609375 48.390625 
z
M 30.609375 56 
Q 42.328125 56 49.015625 48.375 
Q 55.71875 40.765625 55.71875 27.296875 
Q 55.71875 13.875 49.015625 6.21875 
Q 42.328125 -1.421875 30.609375 -1.421875 
Q 18.84375 -1.421875 12.171875 6.21875 
Q 5.515625 13.875 5.515625 27.296875 
Q 5.515625 40.765625 12.171875 48.375 
Q 18.84375 56 30.609375 56 
z
" id="DejaVuSans-111"/>
       <path d="M 45.40625 27.984375 
Q 45.40625 37.75 41.375 43.109375 
Q 37.359375 48.484375 30.078125 48.484375 
Q 22.859375 48.484375 18.828125 43.109375 
Q 14.796875 37.75 14.796875 27.984375 
Q 14.796875 18.265625 18.828125 12.890625 
Q 22.859375 7.515625 30.078125 7.515625 
Q 37.359375 7.515625 41.375 12.890625 
Q 45.40625 18.265625 45.40625 27.984375 
z
M 54.390625 6.78125 
Q 54.390625 -7.171875 48.1875 -13.984375 
Q 42 -20.796875 29.203125 -20.796875 
Q 24.46875 -20.796875 20.265625 -20.09375 
Q 16.0625 -19.390625 12.109375 -17.921875 
L 12.109375 -9.1875 
Q 16.0625 -11.328125 19.921875 -12.34375 
Q 23.78125 -13.375 27.78125 -13.375 
Q 36.625 -13.375 41.015625 -8.765625 
Q 45.40625 -4.15625 45.40625 5.171875 
L 45.40625 9.625 
Q 42.625 4.78125 38.28125 2.390625 
Q 33.9375 0 27.875 0 
Q 17.828125 0 11.671875 7.65625 
Q 5.515625 15.328125 5.515625 27.984375 
Q 5.515625 40.671875 11.671875 48.328125 
Q 17.828125 56 27.875 56 
Q 33.9375 56 38.28125 53.609375 
Q 42.625 51.21875 45.40625 46.390625 
L 45.40625 54.6875 
L 54.390625 54.6875 
z
" id="DejaVuSans-103"/>
       <path d="M 25.390625 72.90625 
L 33.6875 72.90625 
L 8.296875 -9.28125 
L 0 -9.28125 
z
" id="DejaVuSans-47"/>
       <path d="M 40.578125 39.3125 
Q 47.65625 37.796875 51.625 33 
Q 55.609375 28.21875 55.609375 21.1875 
Q 55.609375 10.40625 48.1875 4.484375 
Q 40.765625 -1.421875 27.09375 -1.421875 
Q 22.515625 -1.421875 17.65625 -0.515625 
Q 12.796875 0.390625 7.625 2.203125 
L 7.625 11.71875 
Q 11.71875 9.328125 16.59375 8.109375 
Q 21.484375 6.890625 26.8125 6.890625 
Q 36.078125 6.890625 40.9375 10.546875 
Q 45.796875 14.203125 45.796875 21.1875 
Q 45.796875 27.640625 41.28125 31.265625 
Q 36.765625 34.90625 28.71875 34.90625 
L 20.21875 34.90625 
L 20.21875 43.015625 
L 29.109375 43.015625 
Q 36.375 43.015625 40.234375 45.921875 
Q 44.09375 48.828125 44.09375 54.296875 
Q 44.09375 59.90625 40.109375 62.90625 
Q 36.140625 65.921875 28.71875 65.921875 
Q 24.65625 65.921875 20.015625 65.03125 
Q 15.375 64.15625 9.8125 62.3125 
L 9.8125 71.09375 
Q 15.4375 72.65625 20.34375 73.4375 
Q 25.25 74.21875 29.59375 74.21875 
Q 40.828125 74.21875 47.359375 69.109375 
Q 53.90625 64.015625 53.90625 55.328125 
Q 53.90625 49.265625 50.4375 45.09375 
Q 46.96875 40.921875 40.578125 39.3125 
z
" id="DejaVuSans-51"/>
       <path d="M 8.015625 75.875 
L 15.828125 75.875 
Q 23.140625 64.359375 26.78125 53.3125 
Q 30.421875 42.28125 30.421875 31.390625 
Q 30.421875 20.453125 26.78125 9.375 
Q 23.140625 -1.703125 15.828125 -13.1875 
L 8.015625 -13.1875 
Q 14.5 -2 17.703125 9.0625 
Q 20.90625 20.125 20.90625 31.390625 
Q 20.90625 42.671875 17.703125 53.65625 
Q 14.5 64.65625 8.015625 75.875 
z
" id="DejaVuSans-41"/>
      </defs>
      <use xlink:href="#DejaVuSans-80"/>
      <use x="60.302734" xlink:href="#DejaVuSans-77"/>
      <use x="146.582031" xlink:href="#DejaVuSans-50"/>
      <use x="210.205078" xlink:href="#DejaVuSans-46"/>
      <use x="241.992188" xlink:href="#DejaVuSans-53"/>
      <use x="305.615234" xlink:href="#DejaVuSans-40"/>
      <use x="344.628906" xlink:href="#DejaVuSans-109"/>
      <use x="442.041016" xlink:href="#DejaVuSans-105"/>
      <use x="469.824219" xlink:href="#DejaVuSans-99"/>
      <use x="524.804688" xlink:href="#DejaVuSans-114"/>
      <use x="563.667969" xlink:href="#DejaVuSans-111"/>
      <use x="626.724609" xlink:href="#DejaVuSans-45"/>
      <use x="662.808594" xlink:href="#DejaVuSans-103"/>
      <use x="726.285156" xlink:href="#DejaVuSans-114"/>
      <use x="767.398438" xlink:href="#DejaVuSans-97"/>
      <use x="828.677734" xlink:href="#DejaVuSans-109"/>
      <use x="926.089844" xlink:href="#DejaVuSans-47"/>
      <use x="959.78125" xlink:href="#DejaVuSans-109"/>
      <use x="1057.193359" xlink:href="#DejaVuSans-51"/>
      <use x="1120.816406" xlink:href="#DejaVuSans-41"/>
     </g>
    </g>
   </g>
   <g id="line2d_16">
    <path clip-path="url(#p45f5ea8dc4)" d="M 138.436364 217.624423 
L 139.270237 214.648216 
L 140.10411 195.413747 
L 140.937983 184.244216 
L 141.771856 238.294475 
L 142.605729 242.787965 
L 143.439601 231.490048 
L 144.273474 233.929371 
L 145.107347 228.92234 
L 145.94122 215.827028 
L 146.775093 196.697601 
L 147.608966 238.551246 
L 148.442839 219.550205 
L 149.276712 217.239267 
L 150.110585 211.006739 
L 150.944458 200.164007 
L 151.778331 239.449944 
L 152.612204 237.395777 
L 153.446077 200.93432 
L 154.27995 223.658538 
L 155.113823 197.85307 
L 155.947696 204.785882 
L 156.781569 222.75984 
L 157.615442 243.686663 
L 158.449315 250.234319 
L 159.283188 273.72885 
L 160.117061 281.175204 
L 160.950934 270.390829 
L 161.784807 245.484058 
L 162.61868 230.59135 
L 163.452553 225.199163 
L 164.286426 223.658538 
L 165.120299 219.165048 
L 165.954172 223.658538 
L 166.788045 254.599423 
L 167.621918 259.886568 
L 169.289664 232.131975 
L 170.123537 277.323641 
L 170.95741 264.228329 
L 171.791283 239.8351 
L 172.625156 219.293434 
L 173.459029 208.637444 
L 174.292902 256.781975 
L 175.126775 263.971558 
L 175.960648 251.004631 
L 176.794521 294.270516 
L 177.628394 271.931454 
L 178.462267 269.690545 
L 179.296139 255.626506 
L 180.130012 250.619475 
L 180.963885 258.3226 
L 181.797758 211.461924 
L 182.631631 236.497079 
L 183.465504 228.793955 
L 184.299377 236.240309 
L 185.13325 251.062988 
L 185.967123 258.065829 
L 186.800996 249.849162 
L 187.634869 250.876246 
L 188.468742 245.098902 
L 189.302615 250.362704 
L 190.136488 246.125985 
L 190.970361 267.041644 
L 191.804234 271.289527 
L 193.47198 215.827028 
L 195.139726 259.221298 
L 195.973599 262.430933 
L 196.807472 243.173121 
L 197.641345 217.881194 
L 198.475218 178.210101 
L 199.309091 251.389787 
L 200.142964 203.245257 
L 200.976837 229.949423 
L 201.81071 230.736482 
L 202.644583 222.117913 
L 203.478456 241.24734 
L 204.312329 200.164007 
L 205.146202 215.441871 
L 205.980075 228.280413 
L 206.813948 244.970517 
L 207.647821 236.216966 
L 208.481694 251.646558 
L 209.315567 237.395777 
L 210.14944 249.849162 
L 210.983313 252.288485 
L 211.817186 272.188225 
L 212.651059 265.897339 
L 213.484932 249.977548 
L 214.318804 249.592392 
L 215.152677 245.098902 
L 217.654296 266.796037 
L 218.488169 266.796037 
L 220.155915 230.59135 
L 220.989788 259.478069 
L 221.823661 247.794996 
L 222.657534 228.408798 
L 223.491407 270.775985 
L 225.159153 232.517132 
L 225.993026 195.028591 
L 226.826899 235.855152 
L 227.660772 253.443954 
L 228.494645 237.780934 
L 230.162391 264.362296 
L 230.996264 270.90437 
L 231.830137 278.607495 
L 232.66401 261.40385 
L 233.497883 237.010621 
L 234.331756 207.867132 
L 235.165629 102.591092 
L 235.999502 141.363487 
L 236.833375 233.544215 
L 237.667248 245.098902 
L 238.501121 241.24734 
L 239.334994 261.789006 
L 240.168867 255.626506 
L 241.00274 264.099943 
L 241.836613 275.39786 
L 242.670486 275.079687 
L 243.504359 274.114006 
L 244.338232 280.276506 
L 245.172105 280.14812 
L 246.005978 279.121037 
L 246.839851 283.614526 
L 247.673724 265.255412 
L 249.341469 189.251247 
L 250.175342 243.044736 
L 251.009215 266.924423 
L 251.843088 284.513224 
L 252.676961 281.303589 
L 253.510834 279.377808 
L 254.344707 273.343693 
L 255.17858 271.060666 
L 256.012453 258.450985 
L 256.846326 256.525204 
L 257.680199 283.100985 
L 258.514072 284.128068 
L 259.347945 282.587443 
L 260.181818 259.807405 
L 261.015691 225.969475 
L 261.849564 228.280413 
L 262.683437 261.018694 
L 263.51731 287.851245 
L 265.185056 282.715829 
L 266.018929 285.096794 
L 266.852802 281.945516 
L 267.686675 280.706318 
L 268.520548 278.992652 
L 269.354421 282.330672 
L 270.188294 270.6476 
L 271.022167 268.850204 
L 271.85604 274.370777 
L 272.689913 284.384839 
L 273.523786 286.065013 
L 274.357659 291.189266 
L 275.191532 286.31062 
L 276.025405 290.675724 
L 276.859278 281.303589 
L 277.693151 291.959578 
L 278.527024 284.64161 
L 279.360897 286.824162 
L 280.19477 283.22937 
L 281.028643 281.945516 
L 281.862516 291.060881 
L 282.696389 279.121037 
L 283.530262 278.964742 
L 284.364134 275.012704 
L 285.198007 284.769995 
L 286.03188 281.945516 
L 286.865753 284.384839 
L 287.699626 288.621558 
L 288.533499 288.493172 
L 289.367372 288.621558 
L 290.201245 294.398901 
L 291.868991 284.513224 
L 292.702864 281.945516 
L 293.536737 281.817131 
L 294.37061 279.762964 
L 295.204483 276.424943 
L 296.038356 271.546298 
L 296.872229 268.465048 
L 297.706102 273.343693 
L 298.539975 270.519214 
L 299.373848 288.236401 
L 300.207721 281.431974 
L 301.041594 276.039787 
L 302.70934 281.10822 
L 303.543213 282.844214 
L 304.377086 283.100985 
L 305.210959 285.411922 
L 306.044832 279.634579 
L 306.878705 292.47312 
L 307.712578 292.729891 
L 308.546451 290.932495 
L 309.380324 279.634579 
L 310.214197 276.168172 
L 311.04807 280.661662 
L 311.881943 283.22937 
L 312.715816 282.202287 
L 313.549689 290.932495 
L 314.383562 290.887839 
L 315.217435 291.959578 
L 316.051308 291.679465 
L 316.885181 294.620658 
L 317.719054 296.581453 
L 318.552927 295.169214 
L 319.3868 283.357756 
L 320.220672 289.135099 
L 321.054545 287.466089 
L 321.888418 292.344735 
L 322.722291 285.925464 
L 323.556164 271.674683 
L 324.390037 275.911402 
L 325.22391 293.43322 
L 326.057783 292.216349 
L 326.891656 287.594474 
L 327.725529 279.377808 
L 328.559402 292.47312 
L 329.393275 283.871297 
L 330.227148 277.06687 
L 331.061021 292.216349 
L 331.894894 286.952547 
L 332.728767 242.274423 
L 333.56264 231.104892 
L 334.396513 269.363745 
L 335.230386 262.687704 
L 336.064259 280.514936 
L 336.898132 271.674683 
L 337.732005 254.716644 
L 338.565878 228.023642 
L 339.399751 225.969475 
L 340.233624 227.895257 
L 341.067497 253.315569 
L 343.569116 167.168956 
L 344.402989 222.503069 
L 345.236862 265.640568 
L 346.070735 269.363745 
L 346.904608 288.108016 
L 347.738481 295.55437 
L 348.572354 275.012704 
L 349.406227 260.569345 
L 350.2401 264.741871 
L 351.073973 273.857235 
L 351.907846 264.613485 
L 352.741719 279.634579 
L 353.575592 290.162183 
L 354.409465 295.169214 
L 355.243337 291.060881 
L 356.07721 294.398901 
L 356.911083 287.72286 
L 357.744956 295.040828 
L 358.578829 295.425985 
L 359.412702 278.992652 
L 360.246575 277.089198 
L 361.080448 257.038746 
L 361.914321 250.619475 
L 362.748194 261.532235 
L 363.582067 270.005673 
L 364.41594 260.376766 
L 365.249813 278.093954 
L 366.083686 288.364787 
L 366.917559 268.721818 
L 367.751432 254.085881 
L 368.585305 261.147079 
L 369.419178 240.348642 
L 370.253051 248.180152 
L 371.086924 236.023041 
L 371.920797 245.227288 
L 372.75467 248.051767 
L 373.588543 219.165048 
L 374.422416 201.961403 
L 375.256289 218.266351 
L 376.090162 224.17208 
L 376.924035 275.012704 
L 377.757908 261.275464 
L 378.591781 261.018694 
L 379.425654 239.321559 
L 380.259527 230.077809 
L 381.0934 243.815048 
L 381.927273 241.632496 
L 382.761146 239.770907 
L 383.595019 209.646187 
L 384.428892 234.828069 
L 385.262765 229.821038 
L 386.096638 218.779892 
L 386.930511 216.854111 
L 387.764384 240.605413 
L 388.598257 246.896298 
L 389.43213 245.740829 
L 390.266002 217.496038 
L 391.099875 194.001507 
L 391.933748 232.260361 
L 392.767621 224.300465 
L 393.601494 179.750726 
L 394.435367 223.273382 
L 395.26924 202.860101 
L 396.103113 251.635394 
L 396.936986 155.871039 
L 397.770859 188.352549 
L 398.604732 188.095778 
L 399.438605 208.509059 
L 400.272478 197.082757 
L 401.106351 226.483017 
L 401.940224 236.154718 
L 402.774097 227.895257 
L 403.60797 222.374684 
L 404.441843 221.09083 
L 405.275716 228.280413 
L 406.109589 265.383798 
L 406.943462 272.802242 
L 407.777335 266.539266 
L 408.611208 261.789006 
L 409.445081 255.369735 
L 410.278954 260.633537 
L 411.9467 200.164007 
L 412.780573 213.901246 
L 413.614446 207.096819 
L 414.448319 228.152027 
L 415.282192 235.08484 
L 416.116065 248.950465 
L 416.949938 236.882236 
L 417.783811 221.3476 
L 418.617684 218.908278 
L 419.451557 218.143547 
L 420.28543 218.523121 
L 421.119303 190.27833 
L 421.953176 149.708539 
L 422.787049 134.675774 
L 423.620922 177.311403 
L 424.454795 153.688487 
L 425.288667 155.999425 
L 426.12254 157.154893 
L 426.956413 147.542733 
L 427.790286 232.767145 
L 428.624159 215.441871 
L 429.458032 258.228 
L 430.291905 229.664743 
L 431.125778 224.557236 
L 431.959651 226.996559 
L 432.793524 215.570257 
L 433.627397 181.419737 
L 434.46127 152.404633 
L 435.295143 137.897081 
L 436.129016 129.8088 
L 436.962889 200.549163 
L 437.796762 180.77781 
L 438.630635 235.213225 
L 439.464508 155.999425 
L 440.298381 205.299424 
L 441.132254 209.971536 
L 441.966127 252.1601 
L 442.8 240.665829 
L 443.633873 239.963486 
L 444.467746 237.010621 
L 445.301619 193.616351 
L 446.135492 194.386663 
L 446.969365 151.505935 
L 447.803238 183.473903 
L 448.637111 143.674425 
L 449.470984 213.644476 
L 450.304857 247.40984 
L 451.13873 232.131975 
L 451.972603 232.131975 
L 452.806476 198.10984 
L 453.640349 178.595257 
L 454.474222 149.284309 
L 455.308095 181.676507 
L 456.141968 193.873122 
L 456.975841 138.153852 
L 457.809714 176.797862 
L 458.643587 194.10655 
L 459.47746 234.186142 
L 460.311333 175.000466 
L 461.145205 174.358539 
L 461.979078 149.101626 
L 462.812951 154.587185 
L 463.646824 216.982496 
L 464.480697 160.364529 
L 465.31457 182.575205 
L 466.148443 180.900613 
L 466.982316 246.125985 
L 467.816189 217.624423 
L 468.650062 256.525204 
L 469.483935 258.579371 
L 470.317808 221.604371 
L 471.151681 225.199163 
L 471.985554 238.551246 
L 472.819427 243.429892 
L 473.6533 226.611402 
L 474.487173 220.320517 
L 475.321046 224.17208 
L 476.154919 229.26284 
L 476.988792 286.567391 
L 477.822665 275.526245 
L 478.656538 252.802027 
L 479.490411 241.889267 
L 480.324284 242.402808 
L 481.158157 217.110882 
L 481.99203 239.193173 
L 482.825903 245.098902 
L 483.659776 225.584319 
L 484.493649 231.490048 
L 485.327522 226.483017 
L 486.161395 216.212184 
L 486.995268 221.861142 
L 487.829141 225.84109 
L 488.663014 248.308538 
L 489.496887 259.941372 
L 490.33076 259.863225 
L 491.164633 237.652548 
L 491.998506 248.822079 
L 492.832379 244.713746 
L 493.666252 258.964527 
L 494.500125 254.471037 
L 495.333998 206.968434 
L 496.16787 179.622341 
L 497.001743 229.435882 
L 497.835616 241.375725 
L 498.669489 258.065829 
L 499.503362 232.295375 
L 500.337235 233.287444 
L 501.171108 252.416871 
L 502.004981 222.246298 
L 502.838854 232.517132 
L 503.672727 218.523121 
L 504.5066 243.943433 
L 505.340473 231.490048 
L 507.008219 246.276699 
L 507.842092 260.376766 
L 508.675965 259.478069 
L 509.509838 230.462965 
L 510.343711 229.821038 
L 511.177584 200.164007 
L 512.011457 142.58594 
L 512.84533 161.373271 
L 513.679203 252.031715 
L 514.513076 237.010621 
L 515.346949 231.104892 
L 516.180822 266.282496 
L 517.014695 267.694735 
L 517.848568 265.512183 
L 518.682441 265.383798 
L 519.516314 263.714787 
L 520.350187 262.302548 
L 521.18406 215.441871 
L 522.017933 221.475986 
L 522.851806 199.265309 
L 523.685679 246.142731 
L 524.519552 238.294475 
L 525.353425 240.605413 
L 526.187298 238.422861 
L 527.855044 262.687704 
L 528.688917 262.045777 
L 529.52279 258.836141 
L 530.356663 260.761923 
L 531.190535 247.66661 
L 532.024408 226.868173 
L 532.858281 182.44682 
L 533.692154 218.679417 
L 534.526027 246.896298 
L 535.3599 240.477027 
L 536.193773 239.064788 
L 537.027646 235.855152 
L 537.861519 257.167131 
L 538.695392 252.930412 
L 539.529265 260.248381 
L 540.363138 273.472079 
L 541.197011 255.754892 
L 542.030884 247.66661 
L 542.864757 224.17208 
L 543.69863 239.578329 
L 544.532503 248.308538 
L 545.366376 260.890308 
L 546.200249 269.363745 
L 547.034122 229.179111 
L 547.867995 240.650068 
L 548.701868 254.856194 
L 549.535741 254.342652 
L 551.203487 280.276506 
L 552.03736 278.222339 
L 552.871233 269.877287 
L 553.705106 263.201246 
L 554.538979 269.492131 
L 555.372852 272.31661 
L 556.206725 281.303589 
L 557.040598 279.891349 
L 557.874471 274.884318 
L 558.708344 271.803068 
L 560.37609 285.155151 
L 561.209963 285.155151 
L 562.043836 295.040828 
L 563.711582 293.243433 
L 564.545455 294.655672 
L 565.379328 290.162183 
L 566.2132 288.364787 
L 567.047073 289.682133 
L 567.880946 277.06687 
L 568.714819 273.72885 
L 569.548692 290.80411 
L 570.382565 281.175204 
L 571.216438 281.10822 
L 572.050311 275.012704 
L 573.718057 213.130934 
L 574.55193 268.721818 
L 575.385803 277.452027 
L 576.219676 291.831193 
L 577.053549 291.446037 
L 577.887422 291.574422 
L 578.721295 293.756974 
L 579.555168 289.520256 
L 580.389041 288.364787 
L 581.222914 285.668693 
L 582.056787 280.404891 
L 582.89066 278.350724 
L 583.724533 281.035147 
L 584.558406 272.701766 
L 585.392279 266.539266 
L 586.226152 264.099943 
L 587.060025 279.249422 
L 587.893898 282.587443 
L 588.727771 283.22937 
L 589.561644 279.634579 
L 590.395517 268.978589 
L 591.22939 265.127027 
L 592.063263 270.775985 
L 592.897136 265.640568 
L 593.731009 262.816089 
L 594.564882 266.539266 
L 595.398755 264.4851 
L 596.232628 270.005673 
L 597.066501 277.452027 
L 597.900374 291.317651 
L 598.734247 288.749943 
L 599.56812 286.824162 
L 600.401993 287.209318 
L 601.235866 282.073902 
L 602.069738 294.398901 
L 602.903611 291.317651 
L 604.571357 293.243433 
L 605.40523 287.080933 
L 606.239103 297.281737 
L 607.072976 291.189266 
L 607.906849 269.31909 
L 608.740722 290.290568 
L 609.574595 299.405932 
L 610.408468 296.324683 
L 612.076214 283.100985 
L 613.74396 235.983538 
L 614.577833 251.133017 
L 615.411706 278.093954 
L 616.245579 220.320517 
L 617.079452 253.57234 
L 617.913325 278.830774 
L 618.747198 289.263485 
L 619.581071 281.175204 
L 620.414944 280.276506 
L 621.248817 271.032756 
L 622.08269 291.574422 
L 622.916563 251.774944 
L 623.750436 260.633537 
L 624.584309 253.443954 
L 625.418182 257.552287 
L 626.252055 269.620516 
L 627.085928 277.195256 
L 627.919801 270.90437 
L 628.753674 282.330672 
L 629.587547 289.298499 
L 630.42142 281.688745 
L 631.255293 289.135099 
L 632.089166 291.060881 
L 632.923039 289.263485 
L 633.756912 282.330672 
L 634.590785 280.533277 
L 635.424658 284.898381 
L 636.258531 287.594474 
L 637.092403 294.013745 
L 637.926276 294.398901 
L 638.760149 290.80411 
L 639.594022 293.88536 
L 640.427895 291.959578 
L 641.261768 291.959578 
L 642.095641 287.080933 
L 642.929514 290.418953 
L 643.763387 290.162183 
L 645.431133 276.168172 
L 646.265006 288.108016 
L 647.098879 295.169214 
L 647.932752 297.351766 
L 648.766625 295.811141 
L 649.600498 294.912443 
L 650.434371 276.039787 
L 652.102117 291.060881 
L 652.93599 260.119996 
L 653.769863 271.032756 
L 654.603736 269.363745 
L 655.437609 242.531194 
L 657.105355 288.108016 
L 657.939228 275.141089 
L 658.773101 275.526245 
L 659.606974 250.74786 
L 660.440847 244.842131 
L 661.27472 294.527287 
L 662.942466 290.675724 
L 663.776339 297.993693 
L 664.610212 297.701908 
L 666.277958 272.701766 
L 667.945704 239.706715 
L 668.779577 233.6726 
L 669.61345 230.334579 
L 670.447323 217.752809 
L 671.281196 218.394736 
L 672.115068 258.579371 
L 672.948941 273.343693 
L 673.782814 264.870256 
L 674.616687 260.761923 
L 675.45056 259.092912 
L 676.284433 274.627547 
L 677.118306 297.841965 
L 677.952179 287.72286 
L 678.786052 287.080933 
L 679.619925 246.161 
L 680.453798 274.755933 
L 681.287671 284.769995 
L 682.121544 275.141089 
L 682.955417 249.977548 
L 684.623163 281.688745 
L 685.457036 246.511142 
L 686.290909 231.948568 
L 687.124782 263.07286 
L 687.958655 277.837183 
L 688.792528 279.762964 
L 689.626401 241.24734 
L 690.460274 262.206259 
L 691.294147 254.326799 
L 692.12802 212.489007 
L 693.795766 229.692652 
L 694.629639 225.327548 
L 695.463512 213.387705 
L 696.297385 216.59734 
L 697.131258 213.901246 
L 697.965131 248.180152 
L 698.799004 224.557236 
L 699.632877 244.133221 
L 700.46675 250.876246 
L 701.300623 270.775985 
L 702.134496 273.472079 
L 702.968369 281.945516 
L 703.802242 263.816212 
L 704.636115 265.206626 
L 706.303861 235.341611 
L 707.137733 238.037704 
L 707.971606 239.963486 
L 708.805479 236.625465 
L 709.639352 199.382023 
L 710.473225 184.886143 
L 711.307098 237.524163 
L 712.140971 205.941351 
L 712.974844 248.051767 
L 713.808717 251.004631 
L 714.64259 271.032756 
L 715.476463 237.395777 
L 716.310336 219.67859 
L 717.144209 199.136924 
L 717.978082 213.130934 
L 718.811955 222.503069 
L 719.645828 198.751768 
L 720.479701 204.529111 
L 721.313574 200.805934 
L 722.147447 246.125985 
L 722.98132 241.319905 
L 723.815193 252.802027 
L 724.649066 250.49109 
L 725.482939 217.496038 
L 726.316812 217.624423 
L 727.150685 217.881194 
L 727.984558 243.943433 
L 728.818431 228.280413 
L 729.652304 232.260361 
L 730.486177 244.200204 
L 732.153923 118.89604 
L 732.987796 164.227762 
L 733.821669 219.293434 
L 734.655542 239.449944 
L 735.489415 238.679631 
L 736.323288 179.622341 
L 737.157161 201.062705 
L 737.991034 226.226246 
L 738.824907 276.168172 
L 740.492653 207.610361 
L 741.326526 107.98328 
L 742.160399 181.676507 
L 742.994271 198.623382 
L 743.828144 234.828069 
L 744.662017 194.386663 
L 745.49589 160.749685 
L 746.329763 207.785432 
L 747.163636 202.860101 
L 747.163636 202.860101 
" style="fill:none;stroke:#1f77b4;stroke-linecap:square;stroke-width:1.5;"/>
   </g>
   <g id="line2d_17">
    <path clip-path="url(#p45f5ea8dc4)" d="M 138.436364 254.600437 
L 139.270237 241.184812 
L 140.10411 187.831775 
L 140.937983 201.592612 
L 142.605729 280.155863 
L 144.273474 220.703041 
L 145.107347 293.052779 
L 145.94122 272.112366 
L 146.775093 200.617944 
L 147.608966 243.136928 
L 148.442839 238.943647 
L 149.276712 211.890605 
L 150.110585 238.364038 
L 150.944458 232.781629 
L 151.778331 243.818939 
L 152.612204 217.810143 
L 153.446077 263.89472 
L 154.27995 273.308463 
L 155.113823 195.150061 
L 155.947696 283.159571 
L 156.781569 212.578434 
L 157.615442 224.588837 
L 158.449315 291.58517 
L 159.283188 310.886525 
L 160.117061 305.404002 
L 160.950934 231.95619 
L 161.784807 210.47117 
L 162.61868 208.802314 
L 163.452553 221.875229 
L 164.286426 185.288378 
L 165.120299 277.501396 
L 165.954172 268.244395 
L 166.788045 298.492623 
L 167.621918 286.306691 
L 168.455791 316.36628 
L 169.289664 287.982617 
L 170.123537 297.807827 
L 170.95741 299.781747 
L 171.791283 300.845634 
L 172.625156 287.846011 
L 173.459029 263.852829 
L 174.292902 352.672065 
L 175.126775 330.814777 
L 175.960648 300.058848 
L 176.794521 354.233694 
L 177.628394 234.117751 
L 178.462267 231.412154 
L 179.296139 138.060051 
L 180.130012 241.359589 
L 180.963885 234.377692 
L 181.797758 200.882045 
L 182.631631 190.958407 
L 183.465504 270.900437 
L 184.299377 243.539627 
L 185.13325 222.075048 
L 185.967123 273.284849 
L 186.800996 279.427453 
L 187.634869 217.566688 
L 188.468742 222.179359 
L 189.302615 284.606511 
L 190.136488 304.324623 
L 190.970361 297.115056 
L 191.804234 314.279668 
L 193.47198 299.308647 
L 194.305853 315.369279 
L 195.139726 300.743204 
L 195.973599 240.549747 
L 196.807472 299.96213 
L 197.641345 313.86669 
L 198.475218 271.549448 
L 199.309091 214.724221 
L 200.142964 196.432849 
L 200.976837 287.49329 
L 201.81071 293.238892 
L 202.644583 308.235719 
L 203.478456 314.820789 
L 205.146202 255.57544 
L 205.980075 222.099379 
L 206.813948 224.81861 
L 207.647821 245.145746 
L 208.481694 280.948808 
L 209.315567 295.888493 
L 210.14944 294.778876 
L 210.983313 335.394772 
L 211.817186 339.404344 
L 212.651059 359.220626 
L 214.318804 305.501666 
L 215.152677 289.403727 
L 215.98655 290.421996 
L 216.820423 328.53172 
L 217.654296 327.419036 
L 218.488169 333.689262 
L 219.322042 318.022388 
L 220.155915 256.171522 
L 220.989788 243.787385 
L 221.823661 217.009435 
L 222.657534 245.201913 
L 223.491407 201.002524 
L 224.32528 216.889773 
L 225.159153 199.144388 
L 225.993026 198.357373 
L 226.826899 251.896882 
L 227.660772 244.213862 
L 228.494645 292.597645 
L 229.328518 249.342125 
L 230.162391 256.057176 
L 230.996264 231.416057 
L 231.830137 295.191649 
L 232.66401 316.718407 
L 233.497883 296.982729 
L 234.331756 259.065845 
L 235.165629 134.686995 
L 235.999502 131.911432 
L 236.833375 216.187704 
L 237.667248 244.395468 
L 238.501121 222.745486 
L 239.334994 272.296076 
L 240.168867 269.034207 
L 241.00274 270.809431 
L 241.836613 272.07527 
L 242.670486 269.321088 
L 243.504359 317.045322 
L 244.338232 282.712636 
L 245.172105 335.945837 
L 246.005978 319.437339 
L 246.839851 312.824589 
L 247.673724 257.389493 
L 248.507597 312.743933 
L 249.341469 262.155052 
L 250.175342 257.144827 
L 251.009215 306.272161 
L 251.843088 311.189003 
L 252.676961 317.916696 
L 253.510834 382.676498 
L 254.344707 358.95723 
L 255.17858 365.214796 
L 256.012453 365.165229 
L 256.846326 378.173526 
L 257.680199 353.680925 
L 258.514072 356.508558 
L 259.347945 404.890109 
L 260.181818 303.412769 
L 261.015691 311.321448 
L 261.849564 326.010174 
L 262.683437 320.209062 
L 263.51731 380.007779 
L 264.351183 312.187485 
L 265.185056 310.901229 
L 266.018929 354.242486 
L 266.852802 312.996139 
L 267.686675 305.46306 
L 268.520548 320.972251 
L 269.354421 421.407091 
L 270.188294 364.598791 
L 271.022167 375.543185 
L 272.689913 292.738393 
L 273.523786 284.815827 
L 274.357659 282.890651 
L 275.191532 277.52692 
L 276.025405 336.370757 
L 276.859278 281.586253 
L 277.693151 295.45531 
L 278.527024 278.636477 
L 279.360897 274.978164 
L 280.19477 278.204799 
L 281.028643 281.986542 
L 281.862516 289.623615 
L 282.696389 281.134181 
L 283.530262 269.588351 
L 284.364134 305.447134 
L 285.198007 280.065803 
L 286.03188 285.593386 
L 286.865753 288.103871 
L 287.699626 289.72604 
L 289.367372 296.653352 
L 290.201245 342.316465 
L 291.035118 300.741828 
L 291.868991 319.865797 
L 292.702864 289.154588 
L 294.37061 271.554002 
L 295.204483 282.249533 
L 296.038356 308.250001 
L 296.872229 280.177343 
L 297.706102 295.977583 
L 298.539975 253.582749 
L 299.373848 273.178422 
L 300.207721 272.773201 
L 301.041594 274.72808 
L 301.875467 265.119408 
L 302.70934 272.727255 
L 303.543213 281.712961 
L 304.377086 269.216571 
L 305.210959 278.144042 
L 306.044832 307.907018 
L 306.878705 282.666889 
L 307.712578 300.463898 
L 308.546451 278.035082 
L 309.380324 276.187096 
L 310.214197 266.754171 
L 311.04807 266.698786 
L 311.881943 274.504853 
L 312.715816 279.99649 
L 313.549689 287.423877 
L 314.383562 286.127042 
L 315.217435 368.486649 
L 316.051308 405.508207 
L 317.719054 435.076471 
L 318.552927 332.257632 
L 319.3868 406.431897 
L 320.220672 309.156883 
L 321.054545 305.898012 
L 321.888418 283.001321 
L 322.722291 286.204807 
L 323.556164 268.979263 
L 324.390037 326.632174 
L 325.22391 350.42568 
L 326.057783 348.884362 
L 326.891656 277.902914 
L 327.725529 284.213567 
L 328.559402 297.62906 
L 329.393275 347.105812 
L 330.227148 356.502246 
L 331.061021 372.739871 
L 331.894894 294.799323 
L 332.728767 250.549464 
L 333.56264 239.327816 
L 334.396513 284.623372 
L 335.230386 277.407052 
L 336.064259 283.259281 
L 336.898132 280.443361 
L 337.732005 346.063852 
L 339.399751 223.888825 
L 340.233624 274.188511 
L 341.067497 289.821389 
L 343.569116 231.067355 
L 344.402989 259.036195 
L 345.236862 315.358947 
L 346.070735 280.935338 
L 347.738481 391.648717 
L 348.572354 364.213435 
L 349.406227 298.561284 
L 350.2401 299.801523 
L 351.073973 315.127005 
L 351.907846 259.182703 
L 352.741719 289.378591 
L 353.575592 354.719841 
L 354.409465 285.886014 
L 355.243337 361.115611 
L 356.07721 379.667394 
L 356.911083 339.690884 
L 357.744956 292.068637 
L 358.578829 349.404231 
L 359.412702 292.701339 
L 360.246575 281.664387 
L 361.080448 332.246148 
L 361.914321 237.377363 
L 362.748194 298.632267 
L 363.582067 288.730943 
L 364.41594 396.196131 
L 365.249813 352.756294 
L 366.083686 332.244209 
L 366.917559 318.675936 
L 367.751432 266.17083 
L 368.585305 256.714144 
L 369.419178 255.564138 
L 370.253051 264.206261 
L 371.086924 291.385962 
L 371.920797 297.114621 
L 374.422416 198.283064 
L 375.256289 220.084896 
L 376.090162 223.70927 
L 376.924035 330.855587 
L 377.757908 311.138872 
L 378.591781 247.013063 
L 379.425654 248.25698 
L 380.259527 237.070847 
L 381.0934 206.613131 
L 381.927273 247.869708 
L 382.761146 212.116682 
L 383.595019 201.456771 
L 384.428892 236.603765 
L 385.262765 286.685047 
L 386.096638 285.390846 
L 386.930511 245.226866 
L 387.764384 225.361694 
L 388.598257 235.04334 
L 389.43213 329.850452 
L 390.266002 283.986027 
L 391.099875 249.954645 
L 391.933748 211.206309 
L 392.767621 238.917817 
L 393.601494 190.8882 
L 394.435367 222.024723 
L 395.26924 188.578767 
L 396.103113 217.332153 
L 396.936986 220.296492 
L 397.770859 166.61735 
L 398.604732 191.569934 
L 399.438605 190.410281 
L 400.272478 248.18712 
L 401.106351 182.149098 
L 401.940224 210.748753 
L 402.774097 260.137854 
L 403.60797 288.65721 
L 404.441843 292.042102 
L 405.275716 218.885573 
L 406.109589 277.01311 
L 406.943462 305.889608 
L 407.777335 297.808233 
L 408.611208 263.037281 
L 409.445081 309.908624 
L 410.278954 259.511813 
L 411.112827 277.25767 
L 411.9467 190.471449 
L 412.780573 212.007934 
L 413.614446 217.303562 
L 414.448319 213.72501 
L 415.282192 219.923918 
L 416.116065 227.094709 
L 416.949938 216.088294 
L 418.617684 170.24494 
L 419.451557 153.685349 
L 420.28543 210.760872 
L 421.119303 204.168868 
L 421.953176 176.780454 
L 422.787049 86.923636 
L 423.620922 171.492055 
L 424.454795 230.799634 
L 425.288667 226.46903 
L 426.12254 219.467151 
L 426.956413 237.487474 
L 427.790286 301.334714 
L 428.624159 245.36584 
L 429.458032 310.429504 
L 430.291905 239.266554 
L 431.125778 226.562157 
L 431.959651 225.697289 
L 432.793524 265.320185 
L 433.627397 209.261838 
L 434.46127 177.227636 
L 435.295143 234.071805 
L 436.129016 269.311497 
L 436.962889 207.786631 
L 437.796762 239.35867 
L 438.630635 233.371646 
L 439.464508 146.768428 
L 440.298381 129.330422 
L 441.132254 201.564132 
L 441.966127 196.024032 
L 442.8 219.731234 
L 443.633873 224.840708 
L 444.467746 214.296221 
L 445.301619 194.060027 
L 446.135492 220.68491 
L 446.969365 185.674627 
L 447.803238 187.306463 
L 448.637111 214.858605 
L 449.470984 288.517801 
L 450.304857 307.970125 
L 451.13873 240.960816 
L 451.972603 298.835782 
L 452.806476 182.232893 
L 453.640349 170.470241 
L 454.474222 148.491252 
L 455.308095 150.800991 
L 456.141968 135.658149 
L 456.975841 225.253598 
L 457.809714 158.951545 
L 458.643587 140.162707 
L 459.47746 274.071288 
L 460.311333 207.642074 
L 461.145205 191.999321 
L 461.979078 160.606701 
L 462.812951 154.076758 
L 463.646824 240.452777 
L 464.480697 192.516158 
L 465.31457 167.429883 
L 466.148443 212.674629 
L 466.982316 214.508258 
L 467.816189 183.867773 
L 468.650062 214.236928 
L 469.483935 225.02805 
L 470.317808 217.878493 
L 471.151681 184.250731 
L 471.985554 204.229783 
L 472.819427 209.243843 
L 473.6533 185.497141 
L 474.487173 196.50623 
L 475.321046 200.55794 
L 476.154919 329.202734 
L 476.988792 341.971296 
L 478.656538 185.997158 
L 479.490411 196.534698 
L 480.324284 198.463077 
L 481.158157 205.289245 
L 481.99203 228.31459 
L 482.825903 205.372769 
L 483.659776 197.554525 
L 484.493649 193.638738 
L 485.327522 206.733786 
L 486.161395 204.745397 
L 486.995268 190.656187 
L 487.829141 233.319505 
L 488.663014 228.267133 
L 489.496887 292.721262 
L 490.33076 312.987206 
L 491.164633 304.728827 
L 491.998506 287.96813 
L 492.832379 302.493732 
L 493.666252 217.729516 
L 494.500125 301.743167 
L 495.333998 308.036712 
L 496.16787 278.567487 
L 497.001743 299.645747 
L 497.835616 294.277825 
L 498.669489 272.823168 
L 499.503362 233.421283 
L 500.337235 270.455212 
L 501.171108 259.011653 
L 502.004981 196.335855 
L 502.838854 240.366584 
L 503.672727 222.943959 
L 504.5066 233.077519 
L 505.340473 233.868871 
L 506.174346 215.352609 
L 507.008219 302.149533 
L 507.842092 280.828241 
L 508.675965 262.433964 
L 509.509838 284.280707 
L 510.343711 297.034929 
L 511.177584 290.960131 
L 512.011457 238.878976 
L 512.84533 174.126287 
L 513.679203 285.77458 
L 514.513076 277.025416 
L 515.346949 260.616878 
L 516.180822 320.821001 
L 517.014695 265.133866 
L 517.848568 275.485574 
L 518.682441 246.400195 
L 519.516314 279.052758 
L 520.350187 233.068786 
L 521.18406 247.54076 
L 522.017933 285.243932 
L 522.851806 211.04358 
L 523.685679 255.659825 
L 524.519552 279.615465 
L 525.353425 318.732884 
L 526.187298 247.556146 
L 527.021171 226.608468 
L 527.855044 251.820469 
L 528.688917 234.96926 
L 529.52279 261.215705 
L 530.356663 334.602209 
L 531.190535 294.348538 
L 532.024408 344.515728 
L 532.858281 293.608739 
L 533.692154 296.568405 
L 534.526027 287.279678 
L 535.3599 238.157778 
L 536.193773 237.115459 
L 537.027646 214.956246 
L 537.861519 259.994754 
L 538.695392 314.4125 
L 539.529265 318.56372 
L 540.363138 408.673615 
L 541.197011 291.367356 
L 542.030884 195.262688 
L 542.864757 193.356454 
L 543.69863 272.702548 
L 544.532503 258.758609 
L 545.366376 306.958144 
L 546.200249 272.658647 
L 547.867995 228.89498 
L 548.701868 254.841024 
L 549.535741 251.727847 
L 550.369614 278.855972 
L 551.203487 272.751527 
L 552.03736 277.859459 
L 552.871233 311.789752 
L 553.705106 253.377226 
L 554.538979 282.831969 
L 555.372852 268.851679 
L 556.206725 268.922873 
L 557.040598 271.755143 
L 557.874471 279.249427 
L 558.708344 267.733858 
L 559.542217 288.355672 
L 560.37609 292.177232 
L 561.209963 277.672347 
L 562.043836 284.946772 
L 563.711582 315.002447 
L 564.545455 280.03757 
L 565.379328 287.631341 
L 566.2132 298.377269 
L 567.047073 318.471639 
L 567.880946 287.613552 
L 568.714819 336.758875 
L 569.548692 331.835603 
L 570.382565 366.433936 
L 571.216438 284.323427 
L 572.050311 337.891 
L 572.884184 293.050075 
L 573.718057 169.874535 
L 574.55193 270.810436 
L 575.385803 287.269382 
L 576.219676 336.128459 
L 577.053549 294.207677 
L 577.887422 286.530088 
L 578.721295 364.353131 
L 579.555168 386.165718 
L 580.389041 303.321187 
L 581.222914 283.718605 
L 582.056787 275.24189 
L 582.89066 291.006577 
L 583.724533 292.5754 
L 584.558406 291.984313 
L 585.392279 286.909961 
L 586.226152 275.358237 
L 587.060025 388.395941 
L 587.893898 432.434916 
L 588.727771 430.081452 
L 589.561644 356.248324 
L 590.395517 342.387812 
L 591.22939 308.797921 
L 592.063263 400.948205 
L 593.731009 291.19714 
L 594.564882 280.850468 
L 595.398755 273.424822 
L 596.232628 310.678631 
L 597.066501 279.626673 
L 597.900374 293.323956 
L 599.56812 265.563764 
L 600.401993 275.998967 
L 601.235866 271.423174 
L 602.069738 279.952559 
L 602.903611 278.771755 
L 603.737484 281.584107 
L 604.571357 278.666215 
L 605.40523 271.747286 
L 606.239103 281.76167 
L 607.072976 332.909957 
L 607.906849 290.866422 
L 608.740722 355.355911 
L 609.574595 442.996364 
L 610.408468 437.753946 
L 611.242341 427.522082 
L 612.076214 348.179578 
L 612.910087 283.17856 
L 613.74396 299.591837 
L 614.577833 284.169384 
L 615.411706 312.878093 
L 616.245579 250.64027 
L 617.079452 257.515408 
L 617.913325 389.684453 
L 618.747198 371.280008 
L 619.581071 356.006015 
L 620.414944 403.53166 
L 621.248817 335.525571 
L 622.08269 397.92187 
L 622.916563 333.023983 
L 623.750436 383.068647 
L 624.584309 351.725324 
L 625.418182 289.963454 
L 626.252055 306.810937 
L 627.085928 354.048603 
L 628.753674 321.448678 
L 629.587547 295.428746 
L 630.42142 327.835258 
L 631.255293 374.306837 
L 632.089166 349.415644 
L 632.923039 352.251587 
L 633.756912 271.162975 
L 634.590785 269.100412 
L 635.424658 334.595909 
L 636.258531 297.701706 
L 637.092403 294.262069 
L 637.926276 287.186616 
L 638.760149 285.834114 
L 640.427895 279.710708 
L 641.261768 279.781538 
L 642.095641 363.651345 
L 642.929514 286.350398 
L 643.763387 343.880387 
L 644.59726 276.44471 
L 645.431133 323.802012 
L 646.265006 329.85647 
L 647.098879 295.120878 
L 647.932752 289.859195 
L 648.766625 279.116254 
L 649.600498 285.629041 
L 650.434371 262.484236 
L 651.268244 272.713091 
L 652.102117 284.772631 
L 652.93599 274.251777 
L 653.769863 272.033755 
L 654.603736 294.821644 
L 655.437609 221.884157 
L 656.271482 277.145684 
L 657.105355 324.412387 
L 657.939228 248.587721 
L 658.773101 259.444251 
L 659.606974 286.876632 
L 660.440847 239.247018 
L 661.27472 316.077894 
L 662.108593 295.02681 
L 662.942466 282.049826 
L 663.776339 273.625169 
L 664.610212 307.753463 
L 665.444085 296.90326 
L 666.277958 258.405136 
L 667.111831 315.912257 
L 667.945704 262.181845 
L 668.779577 236.052736 
L 670.447323 203.618773 
L 671.281196 186.082892 
L 672.115068 258.785899 
L 672.948941 314.784821 
L 673.782814 263.418111 
L 674.616687 250.828769 
L 675.45056 276.301293 
L 676.284433 296.880504 
L 677.118306 389.925623 
L 677.952179 393.680685 
L 678.786052 392.368805 
L 679.619925 249.948786 
L 681.287671 406.378499 
L 682.121544 269.344802 
L 682.955417 298.128677 
L 683.78929 231.424649 
L 684.623163 293.746854 
L 685.457036 244.523546 
L 686.290909 232.682043 
L 687.124782 216.11363 
L 687.958655 260.176936 
L 688.792528 334.516287 
L 689.626401 318.323538 
L 690.460274 248.730492 
L 691.294147 243.908152 
L 692.12802 209.39899 
L 692.961893 219.488743 
L 693.795766 257.237881 
L 694.629639 189.951815 
L 695.463512 303.544108 
L 697.131258 209.692559 
L 697.965131 270.668477 
L 698.799004 267.39801 
L 699.632877 255.613887 
L 700.46675 288.31974 
L 701.300623 233.010738 
L 702.134496 270.438762 
L 702.968369 230.016927 
L 703.802242 246.991653 
L 704.636115 248.77662 
L 705.469988 233.759888 
L 706.303861 222.787777 
L 707.137733 198.175585 
L 707.971606 212.780515 
L 708.805479 217.798612 
L 709.639352 230.205379 
L 710.473225 222.097169 
L 711.307098 233.455905 
L 712.140971 209.201311 
L 712.974844 248.923493 
L 713.808717 239.67185 
L 714.64259 249.096207 
L 715.476463 297.245132 
L 716.310336 216.405841 
L 718.811955 171.133592 
L 719.645828 178.750818 
L 720.479701 188.25559 
L 721.313574 176.368134 
L 722.147447 192.5864 
L 722.98132 228.793531 
L 723.815193 194.737964 
L 724.649066 172.541302 
L 725.482939 197.583029 
L 726.316812 191.974332 
L 727.150685 204.61967 
L 727.984558 211.453919 
L 728.818431 193.545212 
L 729.652304 168.381161 
L 730.486177 204.867228 
L 731.32005 196.939483 
L 732.153923 177.150812 
L 732.987796 204.758391 
L 733.821669 244.390855 
L 734.655542 205.634813 
L 735.489415 244.588117 
L 736.323288 254.963422 
L 737.157161 298.564652 
L 737.991034 278.461336 
L 738.824907 329.080563 
L 739.65878 229.856372 
L 740.492653 192.831342 
L 741.326526 184.544947 
L 742.160399 201.016476 
L 742.994271 248.714477 
L 743.828144 306.871135 
L 744.662017 258.045771 
L 745.49589 153.785082 
L 746.329763 220.002994 
L 747.163636 262.66419 
L 747.163636 262.66419 
" style="fill:none;stroke:#ff0000;stroke-dasharray:5.55,2.4;stroke-dashoffset:0;stroke-width:1.5;"/>
   </g>
   <g id="patch_3">
    <path d="M 108 460.8 
L 108 69.12 
" style="fill:none;stroke:#000000;stroke-linecap:square;stroke-linejoin:miter;stroke-width:0.8;"/>
   </g>
   <g id="patch_4">
    <path d="M 777.6 460.8 
L 777.6 69.12 
" style="fill:none;stroke:#000000;stroke-linecap:square;stroke-linejoin:miter;stroke-width:0.8;"/>
   </g>
   <g id="patch_5">
    <path d="M 108 460.8 
L 777.6 460.8 
" style="fill:none;stroke:#000000;stroke-linecap:square;stroke-linejoin:miter;stroke-width:0.8;"/>
   </g>
   <g id="patch_6">
    <path d="M 108 69.12 
L 777.6 69.12 
" style="fill:none;stroke:#000000;stroke-linecap:square;stroke-linejoin:miter;stroke-width:0.8;"/>
   </g>
   <g id="text_18">
    <!-- Macau residential 2020-2021 | Forecast vs Monitored | ANN -->
    <g transform="translate(219.761719 63.12)scale(0.15 -0.15)">
     <defs>
      <path d="M 8.5 21.578125 
L 8.5 54.6875 
L 17.484375 54.6875 
L 17.484375 21.921875 
Q 17.484375 14.15625 20.5 10.265625 
Q 23.53125 6.390625 29.59375 6.390625 
Q 36.859375 6.390625 41.078125 11.03125 
Q 45.3125 15.671875 45.3125 23.6875 
L 45.3125 54.6875 
L 54.296875 54.6875 
L 54.296875 0 
L 45.3125 0 
L 45.3125 8.40625 
Q 42.046875 3.421875 37.71875 1 
Q 33.40625 -1.421875 27.6875 -1.421875 
Q 18.265625 -1.421875 13.375 4.4375 
Q 8.5 10.296875 8.5 21.578125 
z
M 31.109375 56 
z
" id="DejaVuSans-117"/>
      <path id="DejaVuSans-32"/>
      <path d="M 44.28125 53.078125 
L 44.28125 44.578125 
Q 40.484375 46.53125 36.375 47.5 
Q 32.28125 48.484375 27.875 48.484375 
Q 21.1875 48.484375 17.84375 46.4375 
Q 14.5 44.390625 14.5 40.28125 
Q 14.5 37.15625 16.890625 35.375 
Q 19.28125 33.59375 26.515625 31.984375 
L 29.59375 31.296875 
Q 39.15625 29.25 43.1875 25.515625 
Q 47.21875 21.78125 47.21875 15.09375 
Q 47.21875 7.46875 41.1875 3.015625 
Q 35.15625 -1.421875 24.609375 -1.421875 
Q 20.21875 -1.421875 15.453125 -0.5625 
Q 10.6875 0.296875 5.421875 2 
L 5.421875 11.28125 
Q 10.40625 8.6875 15.234375 7.390625 
Q 20.0625 6.109375 24.8125 6.109375 
Q 31.15625 6.109375 34.5625 8.28125 
Q 37.984375 10.453125 37.984375 14.40625 
Q 37.984375 18.0625 35.515625 20.015625 
Q 33.0625 21.96875 24.703125 23.78125 
L 21.578125 24.515625 
Q 13.234375 26.265625 9.515625 29.90625 
Q 5.8125 33.546875 5.8125 39.890625 
Q 5.8125 47.609375 11.28125 51.796875 
Q 16.75 56 26.8125 56 
Q 31.78125 56 36.171875 55.265625 
Q 40.578125 54.546875 44.28125 53.078125 
z
" id="DejaVuSans-115"/>
      <path d="M 45.40625 46.390625 
L 45.40625 75.984375 
L 54.390625 75.984375 
L 54.390625 0 
L 45.40625 0 
L 45.40625 8.203125 
Q 42.578125 3.328125 38.25 0.953125 
Q 33.9375 -1.421875 27.875 -1.421875 
Q 17.96875 -1.421875 11.734375 6.484375 
Q 5.515625 14.40625 5.515625 27.296875 
Q 5.515625 40.1875 11.734375 48.09375 
Q 17.96875 56 27.875 56 
Q 33.9375 56 38.25 53.625 
Q 42.578125 51.265625 45.40625 46.390625 
z
M 14.796875 27.296875 
Q 14.796875 17.390625 18.875 11.75 
Q 22.953125 6.109375 30.078125 6.109375 
Q 37.203125 6.109375 41.296875 11.75 
Q 45.40625 17.390625 45.40625 27.296875 
Q 45.40625 37.203125 41.296875 42.84375 
Q 37.203125 48.484375 30.078125 48.484375 
Q 22.953125 48.484375 18.875 42.84375 
Q 14.796875 37.203125 14.796875 27.296875 
z
" id="DejaVuSans-100"/>
      <path d="M 54.890625 33.015625 
L 54.890625 0 
L 45.90625 0 
L 45.90625 32.71875 
Q 45.90625 40.484375 42.875 44.328125 
Q 39.84375 48.1875 33.796875 48.1875 
Q 26.515625 48.1875 22.3125 43.546875 
Q 18.109375 38.921875 18.109375 30.90625 
L 18.109375 0 
L 9.078125 0 
L 9.078125 54.6875 
L 18.109375 54.6875 
L 18.109375 46.1875 
Q 21.34375 51.125 25.703125 53.5625 
Q 30.078125 56 35.796875 56 
Q 45.21875 56 50.046875 50.171875 
Q 54.890625 44.34375 54.890625 33.015625 
z
" id="DejaVuSans-110"/>
      <path d="M 9.421875 75.984375 
L 18.40625 75.984375 
L 18.40625 0 
L 9.421875 0 
z
" id="DejaVuSans-108"/>
      <path d="M 21 76.421875 
L 21 -23.578125 
L 12.703125 -23.578125 
L 12.703125 76.421875 
z
" id="DejaVuSans-124"/>
      <path d="M 9.8125 72.90625 
L 51.703125 72.90625 
L 51.703125 64.59375 
L 19.671875 64.59375 
L 19.671875 43.109375 
L 48.578125 43.109375 
L 48.578125 34.8125 
L 19.671875 34.8125 
L 19.671875 0 
L 9.8125 0 
z
" id="DejaVuSans-70"/>
      <path d="M 2.984375 54.6875 
L 12.5 54.6875 
L 29.59375 8.796875 
L 46.6875 54.6875 
L 56.203125 54.6875 
L 35.6875 0 
L 23.484375 0 
z
" id="DejaVuSans-118"/>
      <path d="M 34.1875 63.1875 
L 20.796875 26.90625 
L 47.609375 26.90625 
z
M 28.609375 72.90625 
L 39.796875 72.90625 
L 67.578125 0 
L 57.328125 0 
L 50.6875 18.703125 
L 17.828125 18.703125 
L 11.1875 0 
L 0.78125 0 
z
" id="DejaVuSans-65"/>
      <path d="M 9.8125 72.90625 
L 23.09375 72.90625 
L 55.421875 11.921875 
L 55.421875 72.90625 
L 64.984375 72.90625 
L 64.984375 0 
L 51.703125 0 
L 19.390625 60.984375 
L 19.390625 0 
L 9.8125 0 
z
" id="DejaVuSans-78"/>
     </defs>
     <use xlink:href="#DejaVuSans-77"/>
     <use x="86.279297" xlink:href="#DejaVuSans-97"/>
     <use x="147.558594" xlink:href="#DejaVuSans-99"/>
     <use x="202.539062" xlink:href="#DejaVuSans-97"/>
     <use x="263.818359" xlink:href="#DejaVuSans-117"/>
     <use x="327.197266" xlink:href="#DejaVuSans-32"/>
     <use x="358.984375" xlink:href="#DejaVuSans-114"/>
     <use x="397.847656" xlink:href="#DejaVuSans-101"/>
     <use x="459.371094" xlink:href="#DejaVuSans-115"/>
     <use x="511.470703" xlink:href="#DejaVuSans-105"/>
     <use x="539.253906" xlink:href="#DejaVuSans-100"/>
     <use x="602.730469" xlink:href="#DejaVuSans-101"/>
     <use x="664.253906" xlink:href="#DejaVuSans-110"/>
     <use x="727.632812" xlink:href="#DejaVuSans-116"/>
     <use x="766.841797" xlink:href="#DejaVuSans-105"/>
     <use x="794.625" xlink:href="#DejaVuSans-97"/>
     <use x="855.904297" xlink:href="#DejaVuSans-108"/>
     <use x="883.6875" xlink:href="#DejaVuSans-32"/>
     <use x="915.474609" xlink:href="#DejaVuSans-50"/>
     <use x="979.097656" xlink:href="#DejaVuSans-48"/>
     <use x="1042.720703" xlink:href="#DejaVuSans-50"/>
     <use x="1106.34375" xlink:href="#DejaVuSans-48"/>
     <use x="1169.966797" xlink:href="#DejaVuSans-45"/>
     <use x="1206.050781" xlink:href="#DejaVuSans-50"/>
     <use x="1269.673828" xlink:href="#DejaVuSans-48"/>
     <use x="1333.296875" xlink:href="#DejaVuSans-50"/>
     <use x="1396.919922" xlink:href="#DejaVuSans-49"/>
     <use x="1460.542969" xlink:href="#DejaVuSans-32"/>
     <use x="1492.330078" xlink:href="#DejaVuSans-124"/>
     <use x="1526.021484" xlink:href="#DejaVuSans-32"/>
     <use x="1557.808594" xlink:href="#DejaVuSans-70"/>
     <use x="1611.703125" xlink:href="#DejaVuSans-111"/>
     <use x="1672.884766" xlink:href="#DejaVuSans-114"/>
     <use x="1711.748047" xlink:href="#DejaVuSans-101"/>
     <use x="1773.271484" xlink:href="#DejaVuSans-99"/>
     <use x="1828.251953" xlink:href="#DejaVuSans-97"/>
     <use x="1889.53125" xlink:href="#DejaVuSans-115"/>
     <use x="1941.630859" xlink:href="#DejaVuSans-116"/>
     <use x="1980.839844" xlink:href="#DejaVuSans-32"/>
     <use x="2012.626953" xlink:href="#DejaVuSans-118"/>
     <use x="2071.806641" xlink:href="#DejaVuSans-115"/>
     <use x="2123.90625" xlink:href="#DejaVuSans-32"/>
     <use x="2155.693359" xlink:href="#DejaVuSans-77"/>
     <use x="2241.972656" xlink:href="#DejaVuSans-111"/>
     <use x="2303.154297" xlink:href="#DejaVuSans-110"/>
     <use x="2366.533203" xlink:href="#DejaVuSans-105"/>
     <use x="2394.316406" xlink:href="#DejaVuSans-116"/>
     <use x="2433.525391" xlink:href="#DejaVuSans-111"/>
     <use x="2494.707031" xlink:href="#DejaVuSans-114"/>
     <use x="2533.570312" xlink:href="#DejaVuSans-101"/>
     <use x="2595.09375" xlink:href="#DejaVuSans-100"/>
     <use x="2658.570312" xlink:href="#DejaVuSans-32"/>
     <use x="2690.357422" xlink:href="#DejaVuSans-124"/>
     <use x="2724.048828" xlink:href="#DejaVuSans-32"/>
     <use x="2755.835938" xlink:href="#DejaVuSans-65"/>
     <use x="2824.244141" xlink:href="#DejaVuSans-78"/>
     <use x="2899.048828" xlink:href="#DejaVuSans-78"/>
    </g>
   </g>
   <g id="legend_1">
    <g id="patch_7">
     <path d="M 355.774688 454.8 
L 529.825312 454.8 
Q 532.225312 454.8 532.225312 452.4 
L 532.225312 417.705 
Q 532.225312 415.305 529.825312 415.305 
L 355.774688 415.305 
Q 353.374688 415.305 353.374688 417.705 
L 353.374688 452.4 
Q 353.374688 454.8 355.774688 454.8 
z
" style="fill:#ffffff;opacity:0.8;stroke:#cccccc;stroke-linejoin:miter;"/>
    </g>
    <g id="line2d_18">
     <path d="M 358.174688 425.023125 
L 382.174688 425.023125 
" style="fill:none;stroke:#1f77b4;stroke-linecap:square;stroke-width:1.5;"/>
    </g>
    <g id="line2d_19"/>
    <g id="text_19">
     <!-- measured_data_PM2.5 -->
     <g transform="translate(391.774688 429.223125)scale(0.12 -0.12)">
      <defs>
       <path d="M 50.984375 -16.609375 
L 50.984375 -23.578125 
L -0.984375 -23.578125 
L -0.984375 -16.609375 
z
" id="DejaVuSans-95"/>
      </defs>
      <use xlink:href="#DejaVuSans-109"/>
      <use x="97.412109" xlink:href="#DejaVuSans-101"/>
      <use x="158.935547" xlink:href="#DejaVuSans-97"/>
      <use x="220.214844" xlink:href="#DejaVuSans-115"/>
      <use x="272.314453" xlink:href="#DejaVuSans-117"/>
      <use x="335.693359" xlink:href="#DejaVuSans-114"/>
      <use x="374.556641" xlink:href="#DejaVuSans-101"/>
      <use x="436.080078" xlink:href="#DejaVuSans-100"/>
      <use x="499.556641" xlink:href="#DejaVuSans-95"/>
      <use x="549.556641" xlink:href="#DejaVuSans-100"/>
      <use x="613.033203" xlink:href="#DejaVuSans-97"/>
      <use x="674.3125" xlink:href="#DejaVuSans-116"/>
      <use x="713.521484" xlink:href="#DejaVuSans-97"/>
      <use x="774.800781" xlink:href="#DejaVuSans-95"/>
      <use x="824.800781" xlink:href="#DejaVuSans-80"/>
      <use x="885.103516" xlink:href="#DejaVuSans-77"/>
      <use x="971.382812" xlink:href="#DejaVuSans-50"/>
      <use x="1035.005859" xlink:href="#DejaVuSans-46"/>
      <use x="1066.792969" xlink:href="#DejaVuSans-53"/>
     </g>
    </g>
    <g id="line2d_20">
     <path d="M 358.174688 442.970625 
L 382.174688 442.970625 
" style="fill:none;stroke:#ff0000;stroke-dasharray:5.55,2.4;stroke-dashoffset:0;stroke-width:1.5;"/>
    </g>
    <g id="line2d_21"/>
    <g id="text_20">
     <!-- predicted_data_PM2.5 -->
     <g transform="translate(391.774688 447.170625)scale(0.12 -0.12)">
      <defs>
       <path d="M 18.109375 8.203125 
L 18.109375 -20.796875 
L 9.078125 -20.796875 
L 9.078125 54.6875 
L 18.109375 54.6875 
L 18.109375 46.390625 
Q 20.953125 51.265625 25.265625 53.625 
Q 29.59375 56 35.59375 56 
Q 45.5625 56 51.78125 48.09375 
Q 58.015625 40.1875 58.015625 27.296875 
Q 58.015625 14.40625 51.78125 6.484375 
Q 45.5625 -1.421875 35.59375 -1.421875 
Q 29.59375 -1.421875 25.265625 0.953125 
Q 20.953125 3.328125 18.109375 8.203125 
z
M 48.6875 27.296875 
Q 48.6875 37.203125 44.609375 42.84375 
Q 40.53125 48.484375 33.40625 48.484375 
Q 26.265625 48.484375 22.1875 42.84375 
Q 18.109375 37.203125 18.109375 27.296875 
Q 18.109375 17.390625 22.1875 11.75 
Q 26.265625 6.109375 33.40625 6.109375 
Q 40.53125 6.109375 44.609375 11.75 
Q 48.6875 17.390625 48.6875 27.296875 
z
" id="DejaVuSans-112"/>
      </defs>
      <use xlink:href="#DejaVuSans-112"/>
      <use x="63.476562" xlink:href="#DejaVuSans-114"/>
      <use x="102.339844" xlink:href="#DejaVuSans-101"/>
      <use x="163.863281" xlink:href="#DejaVuSans-100"/>
      <use x="227.339844" xlink:href="#DejaVuSans-105"/>
      <use x="255.123047" xlink:href="#DejaVuSans-99"/>
      <use x="310.103516" xlink:href="#DejaVuSans-116"/>
      <use x="349.3125" xlink:href="#DejaVuSans-101"/>
      <use x="410.835938" xlink:href="#DejaVuSans-100"/>
      <use x="474.3125" xlink:href="#DejaVuSans-95"/>
      <use x="524.3125" xlink:href="#DejaVuSans-100"/>
      <use x="587.789062" xlink:href="#DejaVuSans-97"/>
      <use x="649.068359" xlink:href="#DejaVuSans-116"/>
      <use x="688.277344" xlink:href="#DejaVuSans-97"/>
      <use x="749.556641" xlink:href="#DejaVuSans-95"/>
      <use x="799.556641" xlink:href="#DejaVuSans-80"/>
      <use x="859.859375" xlink:href="#DejaVuSans-77"/>
      <use x="946.138672" xlink:href="#DejaVuSans-50"/>
      <use x="1009.761719" xlink:href="#DejaVuSans-46"/>
      <use x="1041.548828" xlink:href="#DejaVuSans-53"/>
     </g>
    </g>
   </g>
  </g>
 </g>
 <defs>
  <clipPath id="p45f5ea8dc4">
   <rect height="391.68" width="669.6" x="108" y="69.12"/>
  </clipPath>
 </defs>
</svg>
