<?xml version="1.0" encoding="utf-8" standalone="no"?>
<!DOCTYPE svg PUBLIC "-//W3C//DTD SVG 1.1//EN"
  "http://www.w3.org/Graphics/SVG/1.1/DTD/svg11.dtd">
<!-- Created with matplotlib (https://matplotlib.org/) -->
<svg height="576pt" version="1.1" viewBox="0 0 864 576" width="864pt" xmlns="http://www.w3.org/2000/svg" xmlns:xlink="http://www.w3.org/1999/xlink">
 <metadata>
  <rdf:RDF xmlns:cc="http://creativecommons.org/ns#" xmlns:dc="http://purl.org/dc/elements/1.1/" xmlns:rdf="http://www.w3.org/1999/02/22-rdf-syntax-ns#">
   <cc:Work>
    <dc:type rdf:resource="http://purl.org/dc/dcmitype/StillImage"/>
    <dc:date>2024-03-08T20:20:37.836185</dc:date>
    <dc:format>image/svg+xml</dc:format>
    <dc:creator>
     <cc:Agent>
      <dc:title>Matplotlib v3.3.4, https://matplotlib.org/</dc:title>
     </cc:Agent>
    </dc:creator>
   </cc:Work>
  </rdf:RDF>
 </metadata>
 <defs>
  <style type="text/css">*{stroke-linecap:butt;stroke-linejoin:round;}</style>
 </defs>
 <g id="figure_1">
  <g id="patch_1">
   <path d="M 0 576 
L 864 576 
L 864 0 
L 0 0 
z
" style="fill:#ffffff;"/>
  </g>
  <g id="axes_1">
   <g id="patch_2">
    <path d="M 108 460.8 
L 777.6 460.8 
L 777.6 69.12 
L 108 69.12 
z
" style="fill:#ffffff;"/>
   </g>
   <g id="matplotlib.axis_1">
    <g id="xtick_1">
     <g id="line2d_1">
      <defs>
       <path d="M 0 0 
L 0 3.5 
" id="mc8a460812e" style="stroke:#000000;stroke-width:0.8;"/>
      </defs>
      <g>
       <use style="stroke:#000000;stroke-width:0.8;" x="138.436364" xlink:href="#mc8a460812e" y="460.8"/>
      </g>
     </g>
     <g id="text_1">
      <!-- 2020-01 -->
      <g transform="translate(93.766579 500.766215)rotate(-30)scale(0.12 -0.12)">
       <defs>
        <path d="M 19.1875 8.296875 
L 53.609375 8.296875 
L 53.609375 0 
L 7.328125 0 
L 7.328125 8.296875 
Q 12.9375 14.109375 22.625 23.890625 
Q 32.328125 33.6875 34.8125 36.53125 
Q 39.546875 41.84375 41.421875 45.53125 
Q 43.3125 49.21875 43.3125 52.78125 
Q 43.3125 58.59375 39.234375 62.25 
Q 35.15625 65.921875 28.609375 65.921875 
Q 23.96875 65.921875 18.8125 64.3125 
Q 13.671875 62.703125 7.8125 59.421875 
L 7.8125 69.390625 
Q 13.765625 71.78125 18.9375 73 
Q 24.125 74.21875 28.421875 74.21875 
Q 39.75 74.21875 46.484375 68.546875 
Q 53.21875 62.890625 53.21875 53.421875 
Q 53.21875 48.921875 51.53125 44.890625 
Q 49.859375 40.875 45.40625 35.40625 
Q 44.1875 33.984375 37.640625 27.21875 
Q 31.109375 20.453125 19.1875 8.296875 
z
" id="DejaVuSans-50"/>
        <path d="M 31.78125 66.40625 
Q 24.171875 66.40625 20.328125 58.90625 
Q 16.5 51.421875 16.5 36.375 
Q 16.5 21.390625 20.328125 13.890625 
Q 24.171875 6.390625 31.78125 6.390625 
Q 39.453125 6.390625 43.28125 13.890625 
Q 47.125 21.390625 47.125 36.375 
Q 47.125 51.421875 43.28125 58.90625 
Q 39.453125 66.40625 31.78125 66.40625 
z
M 31.78125 74.21875 
Q 44.046875 74.21875 50.515625 64.515625 
Q 56.984375 54.828125 56.984375 36.375 
Q 56.984375 17.96875 50.515625 8.265625 
Q 44.046875 -1.421875 31.78125 -1.421875 
Q 19.53125 -1.421875 13.0625 8.265625 
Q 6.59375 17.96875 6.59375 36.375 
Q 6.59375 54.828125 13.0625 64.515625 
Q 19.53125 74.21875 31.78125 74.21875 
z
" id="DejaVuSans-48"/>
        <path d="M 4.890625 31.390625 
L 31.203125 31.390625 
L 31.203125 23.390625 
L 4.890625 23.390625 
z
" id="DejaVuSans-45"/>
        <path d="M 12.40625 8.296875 
L 28.515625 8.296875 
L 28.515625 63.921875 
L 10.984375 60.40625 
L 10.984375 69.390625 
L 28.421875 72.90625 
L 38.28125 72.90625 
L 38.28125 8.296875 
L 54.390625 8.296875 
L 54.390625 0 
L 12.40625 0 
z
" id="DejaVuSans-49"/>
       </defs>
       <use xlink:href="#DejaVuSans-50"/>
       <use x="63.623047" xlink:href="#DejaVuSans-48"/>
       <use x="127.246094" xlink:href="#DejaVuSans-50"/>
       <use x="190.869141" xlink:href="#DejaVuSans-48"/>
       <use x="254.492188" xlink:href="#DejaVuSans-45"/>
       <use x="290.576172" xlink:href="#DejaVuSans-48"/>
       <use x="354.199219" xlink:href="#DejaVuSans-49"/>
      </g>
     </g>
    </g>
    <g id="xtick_2">
     <g id="line2d_2">
      <g>
       <use style="stroke:#000000;stroke-width:0.8;" x="214.318804" xlink:href="#mc8a460812e" y="460.8"/>
      </g>
     </g>
     <g id="text_2">
      <!-- 2020-04 -->
      <g transform="translate(169.64902 500.766215)rotate(-30)scale(0.12 -0.12)">
       <defs>
        <path d="M 37.796875 64.3125 
L 12.890625 25.390625 
L 37.796875 25.390625 
z
M 35.203125 72.90625 
L 47.609375 72.90625 
L 47.609375 25.390625 
L 58.015625 25.390625 
L 58.015625 17.1875 
L 47.609375 17.1875 
L 47.609375 0 
L 37.796875 0 
L 37.796875 17.1875 
L 4.890625 17.1875 
L 4.890625 26.703125 
z
" id="DejaVuSans-52"/>
       </defs>
       <use xlink:href="#DejaVuSans-50"/>
       <use x="63.623047" xlink:href="#DejaVuSans-48"/>
       <use x="127.246094" xlink:href="#DejaVuSans-50"/>
       <use x="190.869141" xlink:href="#DejaVuSans-48"/>
       <use x="254.492188" xlink:href="#DejaVuSans-45"/>
       <use x="290.576172" xlink:href="#DejaVuSans-48"/>
       <use x="354.199219" xlink:href="#DejaVuSans-52"/>
      </g>
     </g>
    </g>
    <g id="xtick_3">
     <g id="line2d_3">
      <g>
       <use style="stroke:#000000;stroke-width:0.8;" x="290.201245" xlink:href="#mc8a460812e" y="460.8"/>
      </g>
     </g>
     <g id="text_3">
      <!-- 2020-07 -->
      <g transform="translate(245.53146 500.766215)rotate(-30)scale(0.12 -0.12)">
       <defs>
        <path d="M 8.203125 72.90625 
L 55.078125 72.90625 
L 55.078125 68.703125 
L 28.609375 0 
L 18.3125 0 
L 43.21875 64.59375 
L 8.203125 64.59375 
z
" id="DejaVuSans-55"/>
       </defs>
       <use xlink:href="#DejaVuSans-50"/>
       <use x="63.623047" xlink:href="#DejaVuSans-48"/>
       <use x="127.246094" xlink:href="#DejaVuSans-50"/>
       <use x="190.869141" xlink:href="#DejaVuSans-48"/>
       <use x="254.492188" xlink:href="#DejaVuSans-45"/>
       <use x="290.576172" xlink:href="#DejaVuSans-48"/>
       <use x="354.199219" xlink:href="#DejaVuSans-55"/>
      </g>
     </g>
    </g>
    <g id="xtick_4">
     <g id="line2d_4">
      <g>
       <use style="stroke:#000000;stroke-width:0.8;" x="366.917559" xlink:href="#mc8a460812e" y="460.8"/>
      </g>
     </g>
     <g id="text_4">
      <!-- 2020-10 -->
      <g transform="translate(322.247774 500.766215)rotate(-30)scale(0.12 -0.12)">
       <use xlink:href="#DejaVuSans-50"/>
       <use x="63.623047" xlink:href="#DejaVuSans-48"/>
       <use x="127.246094" xlink:href="#DejaVuSans-50"/>
       <use x="190.869141" xlink:href="#DejaVuSans-48"/>
       <use x="254.492188" xlink:href="#DejaVuSans-45"/>
       <use x="290.576172" xlink:href="#DejaVuSans-49"/>
       <use x="354.199219" xlink:href="#DejaVuSans-48"/>
      </g>
     </g>
    </g>
    <g id="xtick_5">
     <g id="line2d_5">
      <g>
       <use style="stroke:#000000;stroke-width:0.8;" x="443.633873" xlink:href="#mc8a460812e" y="460.8"/>
      </g>
     </g>
     <g id="text_5">
      <!-- 2021-01 -->
      <g transform="translate(398.964088 500.766215)rotate(-30)scale(0.12 -0.12)">
       <use xlink:href="#DejaVuSans-50"/>
       <use x="63.623047" xlink:href="#DejaVuSans-48"/>
       <use x="127.246094" xlink:href="#DejaVuSans-50"/>
       <use x="190.869141" xlink:href="#DejaVuSans-49"/>
       <use x="254.492188" xlink:href="#DejaVuSans-45"/>
       <use x="290.576172" xlink:href="#DejaVuSans-48"/>
       <use x="354.199219" xlink:href="#DejaVuSans-49"/>
      </g>
     </g>
    </g>
    <g id="xtick_6">
     <g id="line2d_6">
      <g>
       <use style="stroke:#000000;stroke-width:0.8;" x="518.682441" xlink:href="#mc8a460812e" y="460.8"/>
      </g>
     </g>
     <g id="text_6">
      <!-- 2021-04 -->
      <g transform="translate(474.012656 500.766215)rotate(-30)scale(0.12 -0.12)">
       <use xlink:href="#DejaVuSans-50"/>
       <use x="63.623047" xlink:href="#DejaVuSans-48"/>
       <use x="127.246094" xlink:href="#DejaVuSans-50"/>
       <use x="190.869141" xlink:href="#DejaVuSans-49"/>
       <use x="254.492188" xlink:href="#DejaVuSans-45"/>
       <use x="290.576172" xlink:href="#DejaVuSans-48"/>
       <use x="354.199219" xlink:href="#DejaVuSans-52"/>
      </g>
     </g>
    </g>
    <g id="xtick_7">
     <g id="line2d_7">
      <g>
       <use style="stroke:#000000;stroke-width:0.8;" x="594.564882" xlink:href="#mc8a460812e" y="460.8"/>
      </g>
     </g>
     <g id="text_7">
      <!-- 2021-07 -->
      <g transform="translate(549.895097 500.766215)rotate(-30)scale(0.12 -0.12)">
       <use xlink:href="#DejaVuSans-50"/>
       <use x="63.623047" xlink:href="#DejaVuSans-48"/>
       <use x="127.246094" xlink:href="#DejaVuSans-50"/>
       <use x="190.869141" xlink:href="#DejaVuSans-49"/>
       <use x="254.492188" xlink:href="#DejaVuSans-45"/>
       <use x="290.576172" xlink:href="#DejaVuSans-48"/>
       <use x="354.199219" xlink:href="#DejaVuSans-55"/>
      </g>
     </g>
    </g>
    <g id="xtick_8">
     <g id="line2d_8">
      <g>
       <use style="stroke:#000000;stroke-width:0.8;" x="671.281196" xlink:href="#mc8a460812e" y="460.8"/>
      </g>
     </g>
     <g id="text_8">
      <!-- 2021-10 -->
      <g transform="translate(626.611411 500.766215)rotate(-30)scale(0.12 -0.12)">
       <use xlink:href="#DejaVuSans-50"/>
       <use x="63.623047" xlink:href="#DejaVuSans-48"/>
       <use x="127.246094" xlink:href="#DejaVuSans-50"/>
       <use x="190.869141" xlink:href="#DejaVuSans-49"/>
       <use x="254.492188" xlink:href="#DejaVuSans-45"/>
       <use x="290.576172" xlink:href="#DejaVuSans-49"/>
       <use x="354.199219" xlink:href="#DejaVuSans-48"/>
      </g>
     </g>
    </g>
    <g id="xtick_9">
     <g id="line2d_9">
      <g>
       <use style="stroke:#000000;stroke-width:0.8;" x="747.997509" xlink:href="#mc8a460812e" y="460.8"/>
      </g>
     </g>
     <g id="text_9">
      <!-- 2022-01 -->
      <g transform="translate(703.327724 500.766215)rotate(-30)scale(0.12 -0.12)">
       <use xlink:href="#DejaVuSans-50"/>
       <use x="63.623047" xlink:href="#DejaVuSans-48"/>
       <use x="127.246094" xlink:href="#DejaVuSans-50"/>
       <use x="190.869141" xlink:href="#DejaVuSans-50"/>
       <use x="254.492188" xlink:href="#DejaVuSans-45"/>
       <use x="290.576172" xlink:href="#DejaVuSans-48"/>
       <use x="354.199219" xlink:href="#DejaVuSans-49"/>
      </g>
     </g>
    </g>
    <g id="text_10">
     <!-- Date -->
     <g transform="translate(424.873828 518.325146)scale(0.15 -0.15)">
      <defs>
       <path d="M 19.671875 64.796875 
L 19.671875 8.109375 
L 31.59375 8.109375 
Q 46.6875 8.109375 53.6875 14.9375 
Q 60.6875 21.78125 60.6875 36.53125 
Q 60.6875 51.171875 53.6875 57.984375 
Q 46.6875 64.796875 31.59375 64.796875 
z
M 9.8125 72.90625 
L 30.078125 72.90625 
Q 51.265625 72.90625 61.171875 64.09375 
Q 71.09375 55.28125 71.09375 36.53125 
Q 71.09375 17.671875 61.125 8.828125 
Q 51.171875 0 30.078125 0 
L 9.8125 0 
z
" id="DejaVuSans-68"/>
       <path d="M 34.28125 27.484375 
Q 23.390625 27.484375 19.1875 25 
Q 14.984375 22.515625 14.984375 16.5 
Q 14.984375 11.71875 18.140625 8.90625 
Q 21.296875 6.109375 26.703125 6.109375 
Q 34.1875 6.109375 38.703125 11.40625 
Q 43.21875 16.703125 43.21875 25.484375 
L 43.21875 27.484375 
z
M 52.203125 31.203125 
L 52.203125 0 
L 43.21875 0 
L 43.21875 8.296875 
Q 40.140625 3.328125 35.546875 0.953125 
Q 30.953125 -1.421875 24.3125 -1.421875 
Q 15.921875 -1.421875 10.953125 3.296875 
Q 6 8.015625 6 15.921875 
Q 6 25.140625 12.171875 29.828125 
Q 18.359375 34.515625 30.609375 34.515625 
L 43.21875 34.515625 
L 43.21875 35.40625 
Q 43.21875 41.609375 39.140625 45 
Q 35.0625 48.390625 27.6875 48.390625 
Q 23 48.390625 18.546875 47.265625 
Q 14.109375 46.140625 10.015625 43.890625 
L 10.015625 52.203125 
Q 14.9375 54.109375 19.578125 55.046875 
Q 24.21875 56 28.609375 56 
Q 40.484375 56 46.34375 49.84375 
Q 52.203125 43.703125 52.203125 31.203125 
z
" id="DejaVuSans-97"/>
       <path d="M 18.3125 70.21875 
L 18.3125 54.6875 
L 36.8125 54.6875 
L 36.8125 47.703125 
L 18.3125 47.703125 
L 18.3125 18.015625 
Q 18.3125 11.328125 20.140625 9.421875 
Q 21.96875 7.515625 27.59375 7.515625 
L 36.8125 7.515625 
L 36.8125 0 
L 27.59375 0 
Q 17.1875 0 13.234375 3.875 
Q 9.28125 7.765625 9.28125 18.015625 
L 9.28125 47.703125 
L 2.6875 47.703125 
L 2.6875 54.6875 
L 9.28125 54.6875 
L 9.28125 70.21875 
z
" id="DejaVuSans-116"/>
       <path d="M 56.203125 29.59375 
L 56.203125 25.203125 
L 14.890625 25.203125 
Q 15.484375 15.921875 20.484375 11.0625 
Q 25.484375 6.203125 34.421875 6.203125 
Q 39.59375 6.203125 44.453125 7.46875 
Q 49.3125 8.734375 54.109375 11.28125 
L 54.109375 2.78125 
Q 49.265625 0.734375 44.1875 -0.34375 
Q 39.109375 -1.421875 33.890625 -1.421875 
Q 20.796875 -1.421875 13.15625 6.1875 
Q 5.515625 13.8125 5.515625 26.8125 
Q 5.515625 40.234375 12.765625 48.109375 
Q 20.015625 56 32.328125 56 
Q 43.359375 56 49.78125 48.890625 
Q 56.203125 41.796875 56.203125 29.59375 
z
M 47.21875 32.234375 
Q 47.125 39.59375 43.09375 43.984375 
Q 39.0625 48.390625 32.421875 48.390625 
Q 24.90625 48.390625 20.390625 44.140625 
Q 15.875 39.890625 15.1875 32.171875 
z
" id="DejaVuSans-101"/>
      </defs>
      <use xlink:href="#DejaVuSans-68"/>
      <use x="77.001953" xlink:href="#DejaVuSans-97"/>
      <use x="138.28125" xlink:href="#DejaVuSans-116"/>
      <use x="177.490234" xlink:href="#DejaVuSans-101"/>
     </g>
    </g>
   </g>
   <g id="matplotlib.axis_2">
    <g id="ytick_1">
     <g id="line2d_10">
      <defs>
       <path d="M 0 0 
L -3.5 0 
" id="m430da6c13e" style="stroke:#000000;stroke-width:0.8;"/>
      </defs>
      <g>
       <use style="stroke:#000000;stroke-width:0.8;" x="108" xlink:href="#m430da6c13e" y="446.072923"/>
      </g>
     </g>
     <g id="text_11">
      <!-- 0 -->
      <g transform="translate(93.365 450.631986)scale(0.12 -0.12)">
       <use xlink:href="#DejaVuSans-48"/>
      </g>
     </g>
    </g>
    <g id="ytick_2">
     <g id="line2d_11">
      <g>
       <use style="stroke:#000000;stroke-width:0.8;" x="108" xlink:href="#m430da6c13e" y="393.331904"/>
      </g>
     </g>
     <g id="text_12">
      <!-- 10 -->
      <g transform="translate(85.73 397.890967)scale(0.12 -0.12)">
       <use xlink:href="#DejaVuSans-49"/>
       <use x="63.623047" xlink:href="#DejaVuSans-48"/>
      </g>
     </g>
    </g>
    <g id="ytick_3">
     <g id="line2d_12">
      <g>
       <use style="stroke:#000000;stroke-width:0.8;" x="108" xlink:href="#m430da6c13e" y="340.590885"/>
      </g>
     </g>
     <g id="text_13">
      <!-- 20 -->
      <g transform="translate(85.73 345.149948)scale(0.12 -0.12)">
       <use xlink:href="#DejaVuSans-50"/>
       <use x="63.623047" xlink:href="#DejaVuSans-48"/>
      </g>
     </g>
    </g>
    <g id="ytick_4">
     <g id="line2d_13">
      <g>
       <use style="stroke:#000000;stroke-width:0.8;" x="108" xlink:href="#m430da6c13e" y="287.849866"/>
      </g>
     </g>
     <g id="text_14">
      <!-- 30 -->
      <g transform="translate(85.73 292.408928)scale(0.12 -0.12)">
       <defs>
        <path d="M 40.578125 39.3125 
Q 47.65625 37.796875 51.625 33 
Q 55.609375 28.21875 55.609375 21.1875 
Q 55.609375 10.40625 48.1875 4.484375 
Q 40.765625 -1.421875 27.09375 -1.421875 
Q 22.515625 -1.421875 17.65625 -0.515625 
Q 12.796875 0.390625 7.625 2.203125 
L 7.625 11.71875 
Q 11.71875 9.328125 16.59375 8.109375 
Q 21.484375 6.890625 26.8125 6.890625 
Q 36.078125 6.890625 40.9375 10.546875 
Q 45.796875 14.203125 45.796875 21.1875 
Q 45.796875 27.640625 41.28125 31.265625 
Q 36.765625 34.90625 28.71875 34.90625 
L 20.21875 34.90625 
L 20.21875 43.015625 
L 29.109375 43.015625 
Q 36.375 43.015625 40.234375 45.921875 
Q 44.09375 48.828125 44.09375 54.296875 
Q 44.09375 59.90625 40.109375 62.90625 
Q 36.140625 65.921875 28.71875 65.921875 
Q 24.65625 65.921875 20.015625 65.03125 
Q 15.375 64.15625 9.8125 62.3125 
L 9.8125 71.09375 
Q 15.4375 72.65625 20.34375 73.4375 
Q 25.25 74.21875 29.59375 74.21875 
Q 40.828125 74.21875 47.359375 69.109375 
Q 53.90625 64.015625 53.90625 55.328125 
Q 53.90625 49.265625 50.4375 45.09375 
Q 46.96875 40.921875 40.578125 39.3125 
z
" id="DejaVuSans-51"/>
       </defs>
       <use xlink:href="#DejaVuSans-51"/>
       <use x="63.623047" xlink:href="#DejaVuSans-48"/>
      </g>
     </g>
    </g>
    <g id="ytick_5">
     <g id="line2d_14">
      <g>
       <use style="stroke:#000000;stroke-width:0.8;" x="108" xlink:href="#m430da6c13e" y="235.108847"/>
      </g>
     </g>
     <g id="text_15">
      <!-- 40 -->
      <g transform="translate(85.73 239.667909)scale(0.12 -0.12)">
       <use xlink:href="#DejaVuSans-52"/>
       <use x="63.623047" xlink:href="#DejaVuSans-48"/>
      </g>
     </g>
    </g>
    <g id="ytick_6">
     <g id="line2d_15">
      <g>
       <use style="stroke:#000000;stroke-width:0.8;" x="108" xlink:href="#m430da6c13e" y="182.367828"/>
      </g>
     </g>
     <g id="text_16">
      <!-- 50 -->
      <g transform="translate(85.73 186.92689)scale(0.12 -0.12)">
       <defs>
        <path d="M 10.796875 72.90625 
L 49.515625 72.90625 
L 49.515625 64.59375 
L 19.828125 64.59375 
L 19.828125 46.734375 
Q 21.96875 47.46875 24.109375 47.828125 
Q 26.265625 48.1875 28.421875 48.1875 
Q 40.625 48.1875 47.75 41.5 
Q 54.890625 34.8125 54.890625 23.390625 
Q 54.890625 11.625 47.5625 5.09375 
Q 40.234375 -1.421875 26.90625 -1.421875 
Q 22.3125 -1.421875 17.546875 -0.640625 
Q 12.796875 0.140625 7.71875 1.703125 
L 7.71875 11.625 
Q 12.109375 9.234375 16.796875 8.0625 
Q 21.484375 6.890625 26.703125 6.890625 
Q 35.15625 6.890625 40.078125 11.328125 
Q 45.015625 15.765625 45.015625 23.390625 
Q 45.015625 31 40.078125 35.4375 
Q 35.15625 39.890625 26.703125 39.890625 
Q 22.75 39.890625 18.8125 39.015625 
Q 14.890625 38.140625 10.796875 36.28125 
z
" id="DejaVuSans-53"/>
       </defs>
       <use xlink:href="#DejaVuSans-53"/>
       <use x="63.623047" xlink:href="#DejaVuSans-48"/>
      </g>
     </g>
    </g>
    <g id="ytick_7">
     <g id="line2d_16">
      <g>
       <use style="stroke:#000000;stroke-width:0.8;" x="108" xlink:href="#m430da6c13e" y="129.626809"/>
      </g>
     </g>
     <g id="text_17">
      <!-- 60 -->
      <g transform="translate(85.73 134.185871)scale(0.12 -0.12)">
       <defs>
        <path d="M 33.015625 40.375 
Q 26.375 40.375 22.484375 35.828125 
Q 18.609375 31.296875 18.609375 23.390625 
Q 18.609375 15.53125 22.484375 10.953125 
Q 26.375 6.390625 33.015625 6.390625 
Q 39.65625 6.390625 43.53125 10.953125 
Q 47.40625 15.53125 47.40625 23.390625 
Q 47.40625 31.296875 43.53125 35.828125 
Q 39.65625 40.375 33.015625 40.375 
z
M 52.59375 71.296875 
L 52.59375 62.3125 
Q 48.875 64.0625 45.09375 64.984375 
Q 41.3125 65.921875 37.59375 65.921875 
Q 27.828125 65.921875 22.671875 59.328125 
Q 17.53125 52.734375 16.796875 39.40625 
Q 19.671875 43.65625 24.015625 45.921875 
Q 28.375 48.1875 33.59375 48.1875 
Q 44.578125 48.1875 50.953125 41.515625 
Q 57.328125 34.859375 57.328125 23.390625 
Q 57.328125 12.15625 50.6875 5.359375 
Q 44.046875 -1.421875 33.015625 -1.421875 
Q 20.359375 -1.421875 13.671875 8.265625 
Q 6.984375 17.96875 6.984375 36.375 
Q 6.984375 53.65625 15.1875 63.9375 
Q 23.390625 74.21875 37.203125 74.21875 
Q 40.921875 74.21875 44.703125 73.484375 
Q 48.484375 72.75 52.59375 71.296875 
z
" id="DejaVuSans-54"/>
       </defs>
       <use xlink:href="#DejaVuSans-54"/>
       <use x="63.623047" xlink:href="#DejaVuSans-48"/>
      </g>
     </g>
    </g>
    <g id="ytick_8">
     <g id="line2d_17">
      <g>
       <use style="stroke:#000000;stroke-width:0.8;" x="108" xlink:href="#m430da6c13e" y="76.88579"/>
      </g>
     </g>
     <g id="text_18">
      <!-- 70 -->
      <g transform="translate(85.73 81.444852)scale(0.12 -0.12)">
       <use xlink:href="#DejaVuSans-55"/>
       <use x="63.623047" xlink:href="#DejaVuSans-48"/>
      </g>
     </g>
    </g>
    <g id="text_19">
     <!-- PM2.5(micro-gram/m3) -->
     <g transform="translate(78.610469 351.945937)rotate(-90)scale(0.15 -0.15)">
      <defs>
       <path d="M 19.671875 64.796875 
L 19.671875 37.40625 
L 32.078125 37.40625 
Q 38.96875 37.40625 42.71875 40.96875 
Q 46.484375 44.53125 46.484375 51.125 
Q 46.484375 57.671875 42.71875 61.234375 
Q 38.96875 64.796875 32.078125 64.796875 
z
M 9.8125 72.90625 
L 32.078125 72.90625 
Q 44.34375 72.90625 50.609375 67.359375 
Q 56.890625 61.8125 56.890625 51.125 
Q 56.890625 40.328125 50.609375 34.8125 
Q 44.34375 29.296875 32.078125 29.296875 
L 19.671875 29.296875 
L 19.671875 0 
L 9.8125 0 
z
" id="DejaVuSans-80"/>
       <path d="M 9.8125 72.90625 
L 24.515625 72.90625 
L 43.109375 23.296875 
L 61.8125 72.90625 
L 76.515625 72.90625 
L 76.515625 0 
L 66.890625 0 
L 66.890625 64.015625 
L 48.09375 14.015625 
L 38.1875 14.015625 
L 19.390625 64.015625 
L 19.390625 0 
L 9.8125 0 
z
" id="DejaVuSans-77"/>
       <path d="M 10.6875 12.40625 
L 21 12.40625 
L 21 0 
L 10.6875 0 
z
" id="DejaVuSans-46"/>
       <path d="M 31 75.875 
Q 24.46875 64.65625 21.28125 53.65625 
Q 18.109375 42.671875 18.109375 31.390625 
Q 18.109375 20.125 21.3125 9.0625 
Q 24.515625 -2 31 -13.1875 
L 23.1875 -13.1875 
Q 15.875 -1.703125 12.234375 9.375 
Q 8.59375 20.453125 8.59375 31.390625 
Q 8.59375 42.28125 12.203125 53.3125 
Q 15.828125 64.359375 23.1875 75.875 
z
" id="DejaVuSans-40"/>
       <path d="M 52 44.1875 
Q 55.375 50.25 60.0625 53.125 
Q 64.75 56 71.09375 56 
Q 79.640625 56 84.28125 50.015625 
Q 88.921875 44.046875 88.921875 33.015625 
L 88.921875 0 
L 79.890625 0 
L 79.890625 32.71875 
Q 79.890625 40.578125 77.09375 44.375 
Q 74.3125 48.1875 68.609375 48.1875 
Q 61.625 48.1875 57.5625 43.546875 
Q 53.515625 38.921875 53.515625 30.90625 
L 53.515625 0 
L 44.484375 0 
L 44.484375 32.71875 
Q 44.484375 40.625 41.703125 44.40625 
Q 38.921875 48.1875 33.109375 48.1875 
Q 26.21875 48.1875 22.15625 43.53125 
Q 18.109375 38.875 18.109375 30.90625 
L 18.109375 0 
L 9.078125 0 
L 9.078125 54.6875 
L 18.109375 54.6875 
L 18.109375 46.1875 
Q 21.1875 51.21875 25.484375 53.609375 
Q 29.78125 56 35.6875 56 
Q 41.65625 56 45.828125 52.96875 
Q 50 49.953125 52 44.1875 
z
" id="DejaVuSans-109"/>
       <path d="M 9.421875 54.6875 
L 18.40625 54.6875 
L 18.40625 0 
L 9.421875 0 
z
M 9.421875 75.984375 
L 18.40625 75.984375 
L 18.40625 64.59375 
L 9.421875 64.59375 
z
" id="DejaVuSans-105"/>
       <path d="M 48.78125 52.59375 
L 48.78125 44.1875 
Q 44.96875 46.296875 41.140625 47.34375 
Q 37.3125 48.390625 33.40625 48.390625 
Q 24.65625 48.390625 19.8125 42.84375 
Q 14.984375 37.3125 14.984375 27.296875 
Q 14.984375 17.28125 19.8125 11.734375 
Q 24.65625 6.203125 33.40625 6.203125 
Q 37.3125 6.203125 41.140625 7.25 
Q 44.96875 8.296875 48.78125 10.40625 
L 48.78125 2.09375 
Q 45.015625 0.34375 40.984375 -0.53125 
Q 36.96875 -1.421875 32.421875 -1.421875 
Q 20.0625 -1.421875 12.78125 6.34375 
Q 5.515625 14.109375 5.515625 27.296875 
Q 5.515625 40.671875 12.859375 48.328125 
Q 20.21875 56 33.015625 56 
Q 37.15625 56 41.109375 55.140625 
Q 45.0625 54.296875 48.78125 52.59375 
z
" id="DejaVuSans-99"/>
       <path d="M 41.109375 46.296875 
Q 39.59375 47.171875 37.8125 47.578125 
Q 36.03125 48 33.890625 48 
Q 26.265625 48 22.1875 43.046875 
Q 18.109375 38.09375 18.109375 28.8125 
L 18.109375 0 
L 9.078125 0 
L 9.078125 54.6875 
L 18.109375 54.6875 
L 18.109375 46.1875 
Q 20.953125 51.171875 25.484375 53.578125 
Q 30.03125 56 36.53125 56 
Q 37.453125 56 38.578125 55.875 
Q 39.703125 55.765625 41.0625 55.515625 
z
" id="DejaVuSans-114"/>
       <path d="M 30.609375 48.390625 
Q 23.390625 48.390625 19.1875 42.75 
Q 14.984375 37.109375 14.984375 27.296875 
Q 14.984375 17.484375 19.15625 11.84375 
Q 23.34375 6.203125 30.609375 6.203125 
Q 37.796875 6.203125 41.984375 11.859375 
Q 46.1875 17.53125 46.1875 27.296875 
Q 46.1875 37.015625 41.984375 42.703125 
Q 37.796875 48.390625 30.609375 48.390625 
z
M 30.609375 56 
Q 42.328125 56 49.015625 48.375 
Q 55.71875 40.765625 55.71875 27.296875 
Q 55.71875 13.875 49.015625 6.21875 
Q 42.328125 -1.421875 30.609375 -1.421875 
Q 18.84375 -1.421875 12.171875 6.21875 
Q 5.515625 13.875 5.515625 27.296875 
Q 5.515625 40.765625 12.171875 48.375 
Q 18.84375 56 30.609375 56 
z
" id="DejaVuSans-111"/>
       <path d="M 45.40625 27.984375 
Q 45.40625 37.75 41.375 43.109375 
Q 37.359375 48.484375 30.078125 48.484375 
Q 22.859375 48.484375 18.828125 43.109375 
Q 14.796875 37.75 14.796875 27.984375 
Q 14.796875 18.265625 18.828125 12.890625 
Q 22.859375 7.515625 30.078125 7.515625 
Q 37.359375 7.515625 41.375 12.890625 
Q 45.40625 18.265625 45.40625 27.984375 
z
M 54.390625 6.78125 
Q 54.390625 -7.171875 48.1875 -13.984375 
Q 42 -20.796875 29.203125 -20.796875 
Q 24.46875 -20.796875 20.265625 -20.09375 
Q 16.0625 -19.390625 12.109375 -17.921875 
L 12.109375 -9.1875 
Q 16.0625 -11.328125 19.921875 -12.34375 
Q 23.78125 -13.375 27.78125 -13.375 
Q 36.625 -13.375 41.015625 -8.765625 
Q 45.40625 -4.15625 45.40625 5.171875 
L 45.40625 9.625 
Q 42.625 4.78125 38.28125 2.390625 
Q 33.9375 0 27.875 0 
Q 17.828125 0 11.671875 7.65625 
Q 5.515625 15.328125 5.515625 27.984375 
Q 5.515625 40.671875 11.671875 48.328125 
Q 17.828125 56 27.875 56 
Q 33.9375 56 38.28125 53.609375 
Q 42.625 51.21875 45.40625 46.390625 
L 45.40625 54.6875 
L 54.390625 54.6875 
z
" id="DejaVuSans-103"/>
       <path d="M 25.390625 72.90625 
L 33.6875 72.90625 
L 8.296875 -9.28125 
L 0 -9.28125 
z
" id="DejaVuSans-47"/>
       <path d="M 8.015625 75.875 
L 15.828125 75.875 
Q 23.140625 64.359375 26.78125 53.3125 
Q 30.421875 42.28125 30.421875 31.390625 
Q 30.421875 20.453125 26.78125 9.375 
Q 23.140625 -1.703125 15.828125 -13.1875 
L 8.015625 -13.1875 
Q 14.5 -2 17.703125 9.0625 
Q 20.90625 20.125 20.90625 31.390625 
Q 20.90625 42.671875 17.703125 53.65625 
Q 14.5 64.65625 8.015625 75.875 
z
" id="DejaVuSans-41"/>
      </defs>
      <use xlink:href="#DejaVuSans-80"/>
      <use x="60.302734" xlink:href="#DejaVuSans-77"/>
      <use x="146.582031" xlink:href="#DejaVuSans-50"/>
      <use x="210.205078" xlink:href="#DejaVuSans-46"/>
      <use x="241.992188" xlink:href="#DejaVuSans-53"/>
      <use x="305.615234" xlink:href="#DejaVuSans-40"/>
      <use x="344.628906" xlink:href="#DejaVuSans-109"/>
      <use x="442.041016" xlink:href="#DejaVuSans-105"/>
      <use x="469.824219" xlink:href="#DejaVuSans-99"/>
      <use x="524.804688" xlink:href="#DejaVuSans-114"/>
      <use x="563.667969" xlink:href="#DejaVuSans-111"/>
      <use x="626.724609" xlink:href="#DejaVuSans-45"/>
      <use x="662.808594" xlink:href="#DejaVuSans-103"/>
      <use x="726.285156" xlink:href="#DejaVuSans-114"/>
      <use x="767.398438" xlink:href="#DejaVuSans-97"/>
      <use x="828.677734" xlink:href="#DejaVuSans-109"/>
      <use x="926.089844" xlink:href="#DejaVuSans-47"/>
      <use x="959.78125" xlink:href="#DejaVuSans-109"/>
      <use x="1057.193359" xlink:href="#DejaVuSans-51"/>
      <use x="1120.816406" xlink:href="#DejaVuSans-41"/>
     </g>
    </g>
   </g>
   <g id="line2d_18">
    <path clip-path="url(#p7163f5c674)" d="M 138.436364 303.012909 
L 139.270237 297.918606 
L 140.10411 264.995424 
L 140.937983 245.876805 
L 141.771856 338.393343 
L 142.605729 346.084741 
L 143.439601 326.746368 
L 144.273474 330.921698 
L 145.107347 322.351283 
L 145.94122 299.936349 
L 146.775093 267.192967 
L 147.608966 338.832851 
L 148.442839 306.309223 
L 149.276712 302.353646 
L 150.110585 291.685576 
L 150.944458 273.126331 
L 151.778331 340.371131 
L 152.612204 336.855063 
L 153.446077 274.444857 
L 154.27995 313.341359 
L 155.113823 269.170755 
L 155.947696 281.037484 
L 156.781569 311.803079 
L 157.615442 347.623021 
L 158.449315 358.830487 
L 159.283188 399.045514 
L 160.117061 411.791261 
L 160.950934 393.331904 
L 161.784807 350.69958 
L 162.61868 325.208088 
L 163.452553 315.978409 
L 164.286426 313.341359 
L 165.120299 305.64996 
L 165.954172 313.341359 
L 166.788045 366.302132 
L 167.621918 375.352011 
L 169.289664 327.845139 
L 170.123537 405.198633 
L 170.95741 382.7837 
L 171.791283 341.030393 
L 172.625156 305.869714 
L 173.459029 287.630112 
L 174.292902 370.037954 
L 175.126775 382.344192 
L 175.960648 360.149013 
L 176.794521 434.206194 
L 177.628394 395.968955 
L 178.462267 392.133245 
L 179.296139 368.060166 
L 180.130012 359.48975 
L 180.963885 372.675005 
L 181.797758 292.464705 
L 182.631631 335.316783 
L 183.465504 322.131528 
L 184.299377 334.877275 
L 185.13325 360.248901 
L 185.967123 372.235496 
L 186.800996 358.171225 
L 187.634869 359.929259 
L 188.468742 350.040318 
L 189.302615 359.050242 
L 190.136488 351.798352 
L 190.970361 387.599185 
L 191.804234 394.870184 
L 193.47198 299.936349 
L 195.139726 374.213285 
L 195.973599 379.707141 
L 196.807472 346.744004 
L 197.641345 303.452417 
L 198.475218 235.548355 
L 199.309091 360.808276 
L 200.142964 278.400433 
L 200.976837 324.109317 
L 201.81071 325.456506 
L 202.644583 310.704308 
L 203.478456 343.44769 
L 204.312329 273.126331 
L 205.146202 299.277087 
L 205.980075 321.252511 
L 206.813948 349.820563 
L 207.647821 334.837319 
L 208.481694 361.247784 
L 209.315567 336.855063 
L 210.14944 358.171225 
L 210.983313 362.346555 
L 211.817186 396.408463 
L 212.651059 385.640505 
L 213.484932 358.390979 
L 214.318804 357.731716 
L 215.152677 350.040318 
L 217.654296 387.178785 
L 218.488169 387.178785 
L 220.155915 325.208088 
L 220.989788 374.652793 
L 221.823661 354.655157 
L 222.657534 321.472266 
L 223.491407 393.991167 
L 225.159153 328.504401 
L 225.993026 264.336162 
L 226.826899 334.218012 
L 227.660772 364.324344 
L 228.494645 337.514326 
L 230.162391 383.013009 
L 230.996264 394.210921 
L 231.830137 407.396176 
L 232.66401 377.949107 
L 233.497883 336.1958 
L 234.331756 286.311586 
L 235.165629 106.113105 
L 235.999502 172.478887 
L 236.833375 330.262435 
L 237.667248 350.040318 
L 238.501121 343.44769 
L 239.334994 378.60837 
L 240.168867 368.060166 
L 241.00274 382.563946 
L 241.836613 401.90232 
L 242.670486 401.357711 
L 243.504359 399.704777 
L 244.338232 410.252981 
L 245.172105 410.033227 
L 246.005978 408.275193 
L 246.839851 415.966591 
L 247.673724 384.541734 
L 249.341469 254.447221 
L 250.175342 346.52425 
L 251.009215 387.398539 
L 251.843088 417.504871 
L 252.676961 412.011015 
L 253.510834 408.714701 
L 254.344707 398.386252 
L 255.17858 394.478448 
L 256.012453 372.894759 
L 256.846326 369.598445 
L 257.680199 415.087574 
L 258.514072 416.845608 
L 259.347945 414.208557 
L 260.181818 375.216511 
L 261.015691 317.296935 
L 261.849564 321.252511 
L 262.683437 377.289844 
L 263.51731 423.218481 
L 265.185056 414.428312 
L 266.018929 418.503754 
L 266.852802 413.109786 
L 267.686675 410.98868 
L 268.520548 408.055439 
L 269.354421 413.769049 
L 270.188294 393.771413 
L 271.022167 390.694853 
L 271.85604 400.144286 
L 272.689913 417.285117 
L 273.523786 420.161031 
L 274.357659 428.932092 
L 275.191532 420.581431 
L 276.025405 428.053075 
L 276.859278 412.011015 
L 277.693151 430.250617 
L 278.527024 417.724625 
L 279.360897 421.460448 
L 280.19477 415.307329 
L 281.028643 413.109786 
L 281.862516 428.712338 
L 282.696389 408.275193 
L 283.530262 408.007666 
L 284.364134 401.243057 
L 285.198007 417.94438 
L 286.03188 413.109786 
L 286.865753 417.285117 
L 287.699626 424.537007 
L 288.533499 424.317253 
L 289.367372 424.537007 
L 290.201245 434.425948 
L 291.868991 417.504871 
L 292.702864 413.109786 
L 293.536737 412.890032 
L 294.37061 409.373964 
L 295.204483 403.660354 
L 296.038356 395.309692 
L 296.872229 390.03559 
L 297.706102 398.386252 
L 298.539975 393.551658 
L 299.373848 423.877744 
L 300.207721 412.230769 
L 301.041594 403.001091 
L 302.70934 411.676606 
L 303.543213 414.648066 
L 304.377086 415.087574 
L 305.210959 419.043151 
L 306.044832 409.15421 
L 306.878705 431.129634 
L 307.712578 431.569143 
L 308.546451 428.492583 
L 309.380324 409.15421 
L 310.214197 403.220845 
L 311.04807 410.912244 
L 311.881943 415.307329 
L 312.715816 413.549295 
L 313.549689 428.492583 
L 314.383562 428.416147 
L 315.217435 430.250617 
L 316.051308 429.771154 
L 316.885181 434.805524 
L 317.719054 438.16177 
L 318.552927 435.744474 
L 319.3868 415.527083 
L 320.220672 425.416024 
L 321.054545 422.559219 
L 321.888418 430.90988 
L 322.722291 419.922168 
L 323.556164 395.529447 
L 324.390037 402.781337 
L 325.22391 432.773014 
L 326.057783 430.690126 
L 326.891656 422.778973 
L 327.725529 408.714701 
L 328.559402 431.129634 
L 329.393275 416.4061 
L 330.227148 404.759125 
L 331.061021 430.690126 
L 331.894894 421.680202 
L 332.728767 345.205724 
L 333.56264 326.087105 
L 334.396513 391.57387 
L 335.230386 380.146649 
L 336.064259 410.661096 
L 336.898132 395.529447 
L 337.732005 366.502777 
L 338.565878 320.813003 
L 339.399751 317.296935 
L 340.233624 320.593249 
L 341.067497 364.104589 
L 343.569116 216.64949 
L 344.402989 311.36357 
L 345.236862 385.200997 
L 346.070735 391.57387 
L 346.904608 423.65799 
L 347.738481 436.403736 
L 348.572354 401.243057 
L 349.406227 376.520704 
L 350.2401 383.662717 
L 351.073973 399.265269 
L 351.907846 383.442963 
L 352.741719 409.15421 
L 353.575592 427.174058 
L 354.409465 435.744474 
L 355.243337 428.712338 
L 356.07721 434.425948 
L 356.911083 422.998727 
L 357.744956 435.524719 
L 358.578829 436.183982 
L 359.412702 408.055439 
L 360.246575 404.797343 
L 361.080448 370.477462 
L 361.914321 359.48975 
L 362.748194 378.168861 
L 363.582067 392.672641 
L 364.41594 376.191073 
L 365.249813 406.517159 
L 366.083686 424.097498 
L 366.917559 390.475099 
L 367.751432 365.423115 
L 368.585305 377.509598 
L 369.419178 341.90941 
L 370.253051 355.314419 
L 371.086924 334.505383 
L 371.920797 350.260072 
L 372.75467 355.094665 
L 373.588543 305.64996 
L 374.422416 276.202891 
L 375.256289 304.11168 
L 376.090162 314.220375 
L 376.924035 401.243057 
L 377.757908 377.729353 
L 378.591781 377.289844 
L 379.425654 340.151377 
L 380.259527 324.329071 
L 381.0934 347.842775 
L 381.927273 344.106953 
L 382.761146 340.920516 
L 383.595019 289.356752 
L 384.428892 332.459978 
L 385.262765 323.889562 
L 386.096638 304.990697 
L 386.930511 301.694383 
L 387.764384 342.348919 
L 388.598257 353.116877 
L 389.43213 351.139089 
L 390.266002 302.793155 
L 391.099875 262.578128 
L 391.933748 328.064893 
L 392.767621 314.44013 
L 393.601494 238.185406 
L 394.435367 312.682096 
L 395.26924 277.741171 
L 396.103113 361.228675 
L 396.936986 197.311117 
L 397.770859 252.908941 
L 398.604732 252.469432 
L 399.438605 287.410357 
L 400.272478 267.85223 
L 401.106351 318.175952 
L 401.940224 334.730772 
L 402.774097 320.593249 
L 403.60797 311.143816 
L 404.441843 308.946274 
L 405.275716 321.252511 
L 406.109589 384.761488 
L 406.943462 397.459462 
L 407.777335 386.739277 
L 408.611208 378.60837 
L 409.445081 367.620657 
L 410.278954 376.630581 
L 411.9467 273.126331 
L 412.780573 296.640036 
L 413.614446 284.993061 
L 414.448319 321.032757 
L 415.282192 332.899486 
L 416.116065 356.632945 
L 416.949938 335.976046 
L 417.783811 309.385782 
L 418.617684 305.210451 
L 419.451557 303.90148 
L 420.28543 304.551189 
L 421.119303 256.205255 
L 421.953176 186.762913 
L 422.787049 161.031688 
L 423.620922 234.010076 
L 424.454795 193.575294 
L 425.288667 197.530871 
L 426.12254 199.508659 
L 426.956413 183.055754 
L 427.790286 328.932344 
L 428.624159 299.277087 
L 429.458032 372.513081 
L 430.291905 323.622035 
L 431.125778 314.879638 
L 431.959651 319.054969 
L 432.793524 299.496841 
L 433.627397 241.042212 
L 434.46127 191.377752 
L 435.295143 166.545522 
L 436.129016 152.701005 
L 436.962889 273.785594 
L 437.796762 239.94344 
L 438.630635 333.119241 
L 439.464508 197.530871 
L 440.298381 281.916501 
L 441.132254 289.913645 
L 441.966127 362.126801 
L 442.8 342.452333 
L 443.633873 341.250148 
L 444.467746 336.1958 
L 445.301619 261.918865 
L 446.135492 263.23739 
L 446.969365 189.839472 
L 447.803238 244.55828 
L 448.637111 176.434463 
L 449.470984 296.200527 
L 450.304857 353.995894 
L 451.13873 327.845139 
L 451.972603 327.845139 
L 452.806476 269.610264 
L 453.640349 236.207618 
L 454.474222 186.036768 
L 455.308095 241.48172 
L 456.141968 262.358373 
L 456.975841 166.985031 
L 457.809714 233.131059 
L 458.643587 262.757927 
L 459.47746 331.361207 
L 460.311333 230.054499 
L 461.145205 228.955728 
L 461.979078 185.724075 
L 462.812951 195.113574 
L 463.646824 301.914138 
L 464.480697 205.002515 
L 465.31457 243.02 
L 466.148443 240.15364 
L 466.982316 351.798352 
L 467.816189 303.012909 
L 468.650062 369.598445 
L 469.483935 373.114513 
L 470.317808 309.825291 
L 471.151681 315.978409 
L 471.985554 338.832851 
L 472.819427 347.183512 
L 473.6533 318.395706 
L 474.487173 307.627748 
L 475.321046 314.220375 
L 476.154919 322.934109 
L 476.988792 421.020939 
L 477.822665 402.122074 
L 478.656538 363.225572 
L 479.490411 344.546461 
L 480.324284 345.425478 
L 481.158157 302.133892 
L 481.99203 339.931622 
L 482.825903 350.040318 
L 483.659776 316.637672 
L 484.493649 326.746368 
L 485.327522 318.175952 
L 486.161395 300.595612 
L 486.995268 310.264799 
L 487.829141 317.077181 
L 488.663014 355.534174 
L 489.496887 375.445819 
L 490.33076 375.312056 
L 491.164633 337.294571 
L 491.998506 356.413191 
L 492.832379 349.381055 
L 493.666252 373.773776 
L 494.500125 366.082378 
L 495.333998 284.773307 
L 496.16787 237.965652 
L 497.001743 323.2303 
L 497.835616 343.667444 
L 498.669489 372.235496 
L 499.503362 328.124826 
L 500.337235 329.822927 
L 501.171108 362.56631 
L 502.004981 310.924062 
L 502.838854 328.504401 
L 503.672727 304.551189 
L 504.5066 348.062529 
L 505.340473 326.746368 
L 507.008219 352.056324 
L 507.842092 376.191073 
L 508.675965 374.652793 
L 509.509838 324.988334 
L 510.343711 323.889562 
L 511.177584 273.126331 
L 512.011457 174.571329 
L 512.84533 206.729156 
L 513.679203 361.907047 
L 514.513076 336.1958 
L 515.346949 326.087105 
L 516.180822 386.299768 
L 517.014695 388.717065 
L 517.848568 384.981243 
L 518.682441 384.761488 
L 519.516314 381.904683 
L 520.350187 379.487387 
L 521.18406 299.277087 
L 522.017933 309.605536 
L 522.851806 271.588052 
L 523.685679 351.827015 
L 524.519552 338.393343 
L 525.353425 342.348919 
L 526.187298 338.613097 
L 527.855044 380.146649 
L 528.688917 379.047878 
L 529.52279 373.554022 
L 530.356663 376.850336 
L 531.190535 354.435403 
L 532.024408 318.835215 
L 532.858281 242.800246 
L 533.692154 304.818716 
L 534.526027 353.116877 
L 535.3599 342.129165 
L 536.193773 339.711868 
L 537.027646 334.218012 
L 537.861519 370.697217 
L 538.695392 363.445327 
L 539.529265 375.971319 
L 540.363138 398.606006 
L 541.197011 368.27992 
L 542.030884 354.435403 
L 542.864757 314.220375 
L 543.69863 340.590885 
L 544.532503 355.534174 
L 545.366376 377.07009 
L 546.200249 391.57387 
L 547.034122 322.790791 
L 547.867995 342.425355 
L 548.701868 366.74164 
L 549.535741 365.862623 
L 551.203487 410.252981 
L 552.03736 406.736913 
L 552.871233 392.452887 
L 553.705106 381.025666 
L 554.538979 391.793624 
L 555.372852 396.628218 
L 556.206725 412.011015 
L 557.040598 409.593718 
L 557.874471 401.023303 
L 558.708344 395.749201 
L 560.37609 418.603642 
L 561.209963 418.603642 
L 562.043836 435.524719 
L 563.711582 432.44816 
L 564.545455 434.865457 
L 565.379328 427.174058 
L 566.2132 424.097498 
L 567.047073 426.352368 
L 567.880946 404.759125 
L 568.714819 399.045514 
L 569.548692 428.272829 
L 570.382565 411.791261 
L 571.216438 411.676606 
L 572.050311 401.243057 
L 573.718057 295.32151 
L 574.55193 390.475099 
L 575.385803 405.418388 
L 576.219676 430.030863 
L 577.053549 429.3716 
L 577.887422 429.591355 
L 578.721295 433.327177 
L 579.555168 426.075287 
L 580.389041 424.097498 
L 581.222914 419.482659 
L 582.056787 410.472735 
L 582.89066 406.956667 
L 583.724533 411.551529 
L 584.558406 397.28748 
L 585.392279 386.739277 
L 586.226152 382.563946 
L 587.060025 408.494947 
L 587.893898 414.208557 
L 588.727771 415.307329 
L 589.561644 409.15421 
L 590.395517 390.914607 
L 591.22939 384.32198 
L 592.063263 393.991167 
L 592.897136 385.200997 
L 593.731009 380.366404 
L 594.564882 386.739277 
L 595.398755 383.223209 
L 596.232628 392.672641 
L 597.066501 405.418388 
L 597.900374 429.151846 
L 598.734247 424.756761 
L 599.56812 421.460448 
L 600.401993 422.11971 
L 601.235866 413.32954 
L 602.069738 434.425948 
L 602.903611 429.151846 
L 604.571357 432.44816 
L 605.40523 421.899956 
L 606.239103 439.36043 
L 607.072976 428.932092 
L 607.906849 391.497434 
L 608.740722 427.393812 
L 609.574595 442.996364 
L 610.408468 437.722262 
L 612.076214 415.087574 
L 613.74396 334.437766 
L 614.577833 360.368767 
L 615.411706 406.517159 
L 616.245579 307.627748 
L 617.079452 364.544098 
L 617.913325 407.778357 
L 618.747198 425.635778 
L 619.581071 411.791261 
L 620.414944 410.252981 
L 621.248817 394.430675 
L 622.08269 429.591355 
L 622.916563 361.467538 
L 623.750436 376.630581 
L 624.584309 364.324344 
L 625.418182 371.356479 
L 626.252055 392.013379 
L 627.085928 404.978879 
L 627.919801 394.210921 
L 628.753674 413.769049 
L 629.587547 425.695711 
L 630.42142 412.670278 
L 631.255293 425.416024 
L 632.089166 428.712338 
L 632.923039 425.635778 
L 633.756912 413.769049 
L 634.590785 410.692489 
L 635.424658 418.164134 
L 636.258531 422.778973 
L 637.092403 433.766685 
L 637.926276 434.425948 
L 638.760149 428.272829 
L 639.594022 433.546931 
L 640.427895 430.250617 
L 641.261768 430.250617 
L 642.095641 421.899956 
L 642.929514 427.613566 
L 643.763387 427.174058 
L 645.431133 403.220845 
L 646.265006 423.65799 
L 647.098879 435.744474 
L 647.932752 439.480296 
L 648.766625 436.843245 
L 649.600498 435.304965 
L 650.434371 403.001091 
L 652.102117 428.712338 
L 652.93599 375.751564 
L 653.769863 394.430675 
L 654.603736 391.57387 
L 655.437609 345.645233 
L 657.105355 423.65799 
L 657.939228 401.462811 
L 658.773101 402.122074 
L 659.606974 359.709504 
L 660.440847 349.600809 
L 661.27472 434.645702 
L 662.108593 431.569143 
L 662.942466 428.053075 
L 663.776339 440.579067 
L 664.610212 440.079625 
L 666.277958 397.28748 
L 667.945704 340.810639 
L 668.779577 330.48219 
L 669.61345 324.768579 
L 670.447323 303.232663 
L 671.281196 304.331434 
L 672.115068 373.114513 
L 672.948941 398.386252 
L 673.782814 383.882471 
L 674.616687 376.850336 
L 675.45056 373.99353 
L 676.284433 400.583794 
L 677.118306 440.319357 
L 677.952179 422.998727 
L 678.786052 421.899956 
L 679.619925 351.858285 
L 680.453798 400.803548 
L 681.287671 417.94438 
L 682.121544 401.462811 
L 682.955417 358.390979 
L 684.623163 412.670278 
L 685.457036 352.457614 
L 686.290909 327.531204 
L 687.124782 380.805912 
L 687.958655 406.07765 
L 688.792528 409.373964 
L 689.626401 343.44769 
L 690.460274 379.322571 
L 691.294147 365.835488 
L 692.12802 294.222739 
L 693.795766 323.669808 
L 694.629639 316.198164 
L 695.463512 295.761019 
L 696.297385 301.254875 
L 697.131258 296.640036 
L 697.965131 355.314419 
L 698.799004 314.879638 
L 699.632877 348.387383 
L 700.46675 359.929259 
L 701.300623 393.991167 
L 702.134496 398.606006 
L 702.968369 413.109786 
L 703.802242 382.078289 
L 704.636115 384.458228 
L 706.303861 333.338995 
L 707.137733 337.953834 
L 707.971606 341.250148 
L 708.805479 335.536537 
L 709.639352 271.787828 
L 710.473225 246.975576 
L 711.307098 337.074817 
L 712.140971 283.015273 
L 712.974844 355.094665 
L 713.808717 360.149013 
L 714.64259 394.430675 
L 715.476463 336.855063 
L 716.310336 306.528977 
L 717.144209 271.368298 
L 717.978082 295.32151 
L 718.811955 311.36357 
L 719.645828 270.709035 
L 720.479701 280.597976 
L 721.313574 274.225103 
L 722.147447 351.798352 
L 722.98132 343.571899 
L 723.815193 363.225572 
L 724.649066 359.269996 
L 725.482939 302.793155 
L 726.316812 303.012909 
L 727.150685 303.452417 
L 727.984558 348.062529 
L 728.818431 321.252511 
L 729.652304 328.064893 
L 730.486177 348.502038 
L 732.153923 134.021894 
L 732.987796 211.61512 
L 733.821669 305.869714 
L 734.655542 340.371131 
L 735.489415 339.052605 
L 736.323288 237.965652 
L 737.157161 274.664611 
L 737.991034 317.736443 
L 738.824907 403.220845 
L 740.492653 285.872078 
L 741.326526 115.342783 
L 742.160399 241.48172 
L 742.994271 270.489281 
L 743.828144 332.459978 
L 744.662017 263.23739 
L 745.49589 205.661778 
L 746.329763 286.171743 
L 747.163636 277.741171 
L 747.163636 277.741171 
" style="fill:none;stroke:#1f77b4;stroke-linecap:square;stroke-width:1.5;"/>
   </g>
   <g id="line2d_19">
    <path clip-path="url(#p7163f5c674)" d="M 138.436364 276.194804 
L 139.270237 297.055852 
L 140.10411 242.463246 
L 140.937983 259.86477 
L 141.771856 306.6858 
L 142.605729 339.146543 
L 143.439601 309.916242 
L 144.273474 319.089907 
L 145.107347 321.261799 
L 145.94122 280.887551 
L 146.775093 285.092741 
L 147.608966 297.025038 
L 148.442839 271.7622 
L 149.276712 293.324135 
L 150.110585 292.627312 
L 150.944458 266.253485 
L 151.778331 304.50799 
L 152.612204 317.873658 
L 153.446077 259.129026 
L 154.27995 294.872275 
L 155.113823 244.271846 
L 155.947696 298.599036 
L 156.781569 298.992545 
L 157.615442 316.019814 
L 158.449315 351.523175 
L 159.283188 347.613609 
L 160.117061 403.575616 
L 160.950934 396.987242 
L 161.784807 347.453387 
L 162.61868 310.349148 
L 163.452553 286.508421 
L 164.286426 299.571515 
L 165.120299 296.09451 
L 165.954172 321.595578 
L 166.788045 313.858396 
L 167.621918 354.072647 
L 168.455791 349.48347 
L 169.289664 306.89576 
L 170.123537 343.116159 
L 170.95741 349.114965 
L 171.791283 320.143901 
L 172.625156 279.265161 
L 173.459029 283.053376 
L 174.292902 318.104855 
L 175.126775 388.364491 
L 175.960648 319.244137 
L 176.794521 405.228598 
L 177.628394 400.503202 
L 178.462267 342.507123 
L 179.296139 346.816049 
L 180.130012 359.704484 
L 180.963885 347.916238 
L 181.797758 304.411641 
L 182.631631 322.416977 
L 183.465504 293.001632 
L 184.299377 321.850953 
L 185.13325 324.783448 
L 185.967123 352.756828 
L 186.800996 346.194237 
L 187.634869 343.061782 
L 188.468742 322.400091 
L 189.302615 342.345403 
L 190.136488 315.911036 
L 190.970361 354.697789 
L 191.804234 403.788899 
L 193.47198 291.547262 
L 194.305853 290.937986 
L 195.139726 355.192792 
L 195.973599 349.630168 
L 196.807472 307.846169 
L 197.641345 315.142908 
L 198.475218 255.522354 
L 199.309091 311.73395 
L 200.142964 265.840336 
L 200.976837 303.273534 
L 201.81071 320.498567 
L 202.644583 288.476901 
L 203.478456 303.241044 
L 204.312329 309.839099 
L 205.146202 304.77569 
L 205.980075 296.549379 
L 206.813948 326.683693 
L 207.647821 318.385551 
L 208.481694 350.009059 
L 209.315567 321.676052 
L 210.14944 321.810709 
L 210.983313 353.455245 
L 211.817186 351.495916 
L 212.651059 345.540278 
L 213.484932 345.841085 
L 214.318804 348.014061 
L 215.152677 312.582954 
L 215.98655 338.691144 
L 216.820423 353.429828 
L 217.654296 349.864415 
L 218.488169 344.912337 
L 219.322042 404.738988 
L 220.155915 274.909161 
L 220.989788 349.470472 
L 221.823661 341.557989 
L 222.657534 318.331696 
L 223.491407 350.447023 
L 224.32528 337.761287 
L 225.159153 316.563487 
L 225.993026 261.35003 
L 227.660772 355.795391 
L 228.494645 325.530795 
L 229.328518 329.626162 
L 230.162391 352.501447 
L 230.996264 354.757299 
L 231.830137 348.884938 
L 232.66401 410.950305 
L 233.497883 310.66616 
L 234.331756 277.222081 
L 235.165629 156.834519 
L 235.999502 86.923636 
L 236.833375 317.919525 
L 237.667248 330.138629 
L 238.501121 326.196354 
L 239.334994 352.043593 
L 240.168867 352.382432 
L 241.00274 376.760775 
L 241.836613 386.912826 
L 242.670486 402.30262 
L 243.504359 393.083079 
L 244.338232 403.720951 
L 245.172105 409.790192 
L 246.005978 413.374011 
L 246.839851 409.85314 
L 247.673724 351.803801 
L 248.507597 350.514452 
L 249.341469 197.622487 
L 250.175342 326.656532 
L 251.009215 365.005142 
L 251.843088 412.89 
L 252.676961 414.79272 
L 253.510834 399.862688 
L 254.344707 398.885039 
L 255.17858 397.43448 
L 256.012453 351.830646 
L 256.846326 358.070424 
L 257.680199 360.12805 
L 258.514072 409.741737 
L 259.347945 410.40191 
L 260.181818 358.794857 
L 261.849564 295.895635 
L 262.683437 349.268346 
L 263.51731 418.406695 
L 264.351183 414.021119 
L 265.185056 416.405924 
L 266.018929 400.663417 
L 266.852802 423.510371 
L 267.686675 400.589452 
L 268.520548 411.864627 
L 269.354421 407.466641 
L 270.188294 401.914721 
L 271.022167 358.571923 
L 271.85604 359.325894 
L 272.689913 404.908324 
L 273.523786 416.036146 
L 274.357659 423.510579 
L 275.191532 424.609526 
L 276.025405 429.127058 
L 276.859278 413.683257 
L 277.693151 412.104798 
L 278.527024 422.440727 
L 279.360897 415.962428 
L 280.19477 415.148338 
L 281.028643 418.279868 
L 281.862516 415.078696 
L 282.696389 416.35403 
L 284.364134 395.218674 
L 285.198007 416.700123 
L 286.03188 412.908284 
L 286.865753 416.623393 
L 287.699626 413.986741 
L 288.533499 421.671555 
L 289.367372 426.027468 
L 291.035118 427.659539 
L 291.868991 412.475535 
L 292.702864 424.562027 
L 293.536737 403.649072 
L 294.37061 414.369913 
L 295.204483 400.401455 
L 296.038356 394.58499 
L 296.872229 357.523351 
L 297.706102 398.294694 
L 298.539975 359.169864 
L 299.373848 413.523699 
L 300.207721 414.625763 
L 301.041594 414.510819 
L 301.875467 386.804353 
L 302.70934 402.943397 
L 303.543213 421.833151 
L 304.377086 406.829871 
L 305.210959 415.148051 
L 306.044832 410.867438 
L 306.878705 416.404532 
L 307.712578 422.793653 
L 308.546451 423.909828 
L 309.380324 415.434434 
L 310.214197 405.615551 
L 311.04807 405.777378 
L 311.881943 412.549021 
L 312.715816 416.054781 
L 313.549689 418.171981 
L 314.383562 426.137609 
L 315.217435 419.774988 
L 316.051308 424.807393 
L 316.885181 426.31561 
L 317.719054 436.090103 
L 318.552927 438.007239 
L 319.3868 406.527731 
L 320.220672 424.492968 
L 321.054545 423.120295 
L 321.888418 426.588633 
L 322.722291 427.901357 
L 323.556164 398.189416 
L 324.390037 407.668161 
L 325.22391 413.47815 
L 326.057783 423.606216 
L 326.891656 425.893154 
L 327.725529 412.827446 
L 328.559402 426.802497 
L 329.393275 411.914027 
L 330.227148 384.641632 
L 331.061021 422.519807 
L 331.894894 423.66133 
L 332.728767 347.521976 
L 333.56264 315.123541 
L 334.396513 369.201657 
L 335.230386 350.199267 
L 336.064259 356.93647 
L 336.898132 395.195132 
L 337.732005 353.765125 
L 339.399751 298.28447 
L 340.233624 333.185568 
L 341.067497 334.471248 
L 343.569116 268.763445 
L 344.402989 278.386686 
L 345.236862 363.498312 
L 346.904608 413.331946 
L 347.738481 437.365117 
L 348.572354 424.149624 
L 349.406227 341.240979 
L 350.2401 353.624861 
L 351.073973 410.603779 
L 351.907846 351.350615 
L 352.741719 409.212875 
L 353.575592 412.880235 
L 354.409465 438.466086 
L 355.243337 424.030078 
L 356.07721 434.207776 
L 356.911083 425.442834 
L 357.744956 428.289618 
L 358.578829 438.638637 
L 359.412702 414.979423 
L 360.246575 405.396148 
L 361.080448 403.574594 
L 361.914321 326.516052 
L 362.748194 353.088397 
L 363.582067 352.777083 
L 364.41594 357.159862 
L 365.249813 403.703633 
L 366.083686 413.786326 
L 366.917559 407.951243 
L 367.751432 343.213405 
L 368.585305 361.794334 
L 369.419178 342.805914 
L 370.253051 320.708948 
L 371.086924 342.340595 
L 371.920797 313.254417 
L 372.75467 341.538534 
L 373.588543 323.567704 
L 374.422416 278.79807 
L 375.256289 295.900656 
L 376.090162 305.423745 
L 377.757908 399.69006 
L 378.591781 348.345344 
L 379.425654 318.704598 
L 380.259527 314.671269 
L 381.0934 314.089757 
L 381.927273 312.696823 
L 382.761146 321.010843 
L 383.595019 256.190575 
L 384.428892 305.494424 
L 385.262765 317.829235 
L 386.930511 269.96828 
L 387.764384 332.246288 
L 388.598257 330.455156 
L 389.43213 348.354027 
L 390.266002 312.729795 
L 391.099875 253.680167 
L 391.933748 307.148335 
L 392.767621 329.694236 
L 393.601494 236.902049 
L 394.435367 308.224203 
L 395.26924 264.85404 
L 396.103113 328.1893 
L 396.936986 311.815383 
L 397.770859 176.960643 
L 398.604732 247.9054 
L 399.438605 282.70804 
L 400.272478 246.862103 
L 401.106351 299.585835 
L 401.940224 314.698841 
L 402.774097 320.519297 
L 403.60797 322.612767 
L 404.441843 294.293477 
L 405.275716 294.548098 
L 406.109589 351.620786 
L 406.943462 353.06271 
L 407.777335 408.368496 
L 408.611208 345.201127 
L 409.445081 353.964318 
L 410.278954 350.380577 
L 411.112827 352.307857 
L 411.9467 240.020385 
L 412.780573 300.291375 
L 414.448319 286.173038 
L 415.282192 317.474811 
L 416.116065 322.00036 
L 416.949938 315.749173 
L 417.783811 314.409293 
L 419.451557 258.89575 
L 420.28543 318.16751 
L 421.119303 258.276834 
L 421.953176 245.598795 
L 422.787049 132.696368 
L 423.620922 203.834214 
L 424.454795 208.090985 
L 425.288667 140.478964 
L 426.12254 208.371436 
L 426.956413 189.032573 
L 427.790286 307.114931 
L 428.624159 292.377331 
L 429.458032 340.774147 
L 430.291905 313.54855 
L 431.125778 317.015523 
L 431.959651 295.899816 
L 432.793524 299.467241 
L 433.627397 255.598909 
L 434.46127 191.221375 
L 435.295143 203.741214 
L 436.129016 160.179769 
L 436.962889 258.554099 
L 437.796762 241.070527 
L 438.630635 297.010048 
L 439.464508 253.92836 
L 440.298381 201.712882 
L 441.132254 318.854801 
L 441.966127 315.803034 
L 442.8 352.1811 
L 443.633873 323.50655 
L 444.467746 316.367292 
L 445.301619 269.791051 
L 446.135492 250.783275 
L 446.969365 258.060309 
L 447.803238 212.444114 
L 448.637111 202.979721 
L 449.470984 277.483259 
L 450.304857 324.143571 
L 451.13873 316.778655 
L 451.972603 320.858158 
L 452.806476 277.847497 
L 453.640349 205.781422 
L 454.474222 244.459807 
L 455.308095 202.036563 
L 456.141968 234.932088 
L 456.975841 234.713049 
L 457.809714 210.491053 
L 458.643587 217.407115 
L 459.47746 308.886213 
L 460.311333 284.217129 
L 461.145205 223.327535 
L 461.979078 259.66145 
L 462.812951 138.54804 
L 463.646824 320.311155 
L 464.480697 267.004154 
L 465.31457 149.311603 
L 466.148443 256.858253 
L 466.982316 315.149542 
L 467.816189 277.856654 
L 468.650062 325.74835 
L 469.483935 346.909878 
L 470.317808 312.132203 
L 471.151681 289.169721 
L 471.985554 323.454761 
L 472.819427 323.227598 
L 474.487173 298.692672 
L 475.321046 293.807602 
L 476.154919 322.04741 
L 476.988792 355.73187 
L 477.822665 410.432213 
L 478.656538 338.770081 
L 479.490411 316.901333 
L 480.324284 343.288024 
L 481.158157 272.560153 
L 481.99203 321.274636 
L 482.825903 313.43581 
L 483.659776 320.712728 
L 484.493649 316.504834 
L 485.327522 316.983828 
L 486.161395 292.417656 
L 486.995268 288.952371 
L 487.829141 316.77219 
L 488.663014 325.723678 
L 489.496887 357.791 
L 490.33076 350.596552 
L 491.164633 342.055239 
L 491.998506 316.830514 
L 492.832379 354.006423 
L 493.666252 343.459226 
L 494.500125 353.067931 
L 495.333998 316.821482 
L 496.16787 224.778437 
L 497.001743 302.525035 
L 497.835616 311.652483 
L 498.669489 356.67643 
L 499.503362 313.420546 
L 500.337235 289.167803 
L 501.171108 346.979426 
L 502.004981 308.346041 
L 502.838854 299.700903 
L 503.672727 320.60724 
L 504.5066 325.648065 
L 505.340473 319.4467 
L 506.174346 331.937275 
L 507.008219 331.396264 
L 507.842092 356.536138 
L 508.675965 351.462326 
L 509.509838 314.888522 
L 510.343711 326.888446 
L 512.011457 216.995983 
L 512.84533 137.972837 
L 513.679203 332.945736 
L 514.513076 332.865854 
L 515.346949 286.814793 
L 516.180822 357.482901 
L 517.014695 355.561049 
L 517.848568 350.700723 
L 518.682441 350.40133 
L 519.516314 355.13132 
L 520.350187 344.462901 
L 522.017933 290.813962 
L 522.851806 282.962994 
L 523.685679 311.861874 
L 524.519552 354.525523 
L 525.353425 322.640404 
L 526.187298 313.313492 
L 527.021171 352.192741 
L 527.855044 354.710126 
L 528.688917 371.514687 
L 529.52279 349.215551 
L 530.356663 352.264586 
L 531.190535 356.053336 
L 532.024408 324.847734 
L 532.858281 276.32073 
L 533.692154 248.872915 
L 534.526027 327.363668 
L 535.3599 339.387768 
L 536.193773 342.114504 
L 537.027646 333.410543 
L 537.861519 346.196512 
L 538.695392 356.130522 
L 539.529265 355.387592 
L 540.363138 401.42076 
L 541.197011 340.784338 
L 542.030884 386.719496 
L 542.864757 257.60079 
L 543.69863 350.672684 
L 544.532503 329.628713 
L 545.366376 353.467276 
L 547.034122 343.446054 
L 547.867995 303.123072 
L 548.701868 350.736501 
L 549.535741 360.476555 
L 550.369614 350.880218 
L 551.203487 406.904133 
L 552.03736 410.947165 
L 552.871233 394.648102 
L 553.705106 353.153616 
L 554.538979 356.593737 
L 555.372852 405.97583 
L 556.206725 409.271179 
L 557.040598 402.602063 
L 557.874471 401.855476 
L 558.708344 394.527656 
L 559.542217 399.928445 
L 560.37609 416.114642 
L 561.209963 415.493824 
L 562.043836 426.460384 
L 562.877709 426.664492 
L 563.711582 439.567494 
L 564.545455 426.749932 
L 565.379328 426.536331 
L 566.2132 424.165183 
L 567.047073 428.486342 
L 567.880946 415.653102 
L 568.714819 376.630387 
L 569.548692 413.284367 
L 570.382565 422.679117 
L 571.216438 403.166378 
L 572.050311 412.371939 
L 572.884184 347.044526 
L 573.718057 268.805833 
L 574.55193 358.660331 
L 575.385803 405.184886 
L 576.219676 421.678092 
L 577.053549 421.028674 
L 577.887422 428.701174 
L 578.721295 427.883249 
L 579.555168 426.868951 
L 580.389041 423.252939 
L 581.222914 423.946715 
L 582.89066 404.106631 
L 583.724533 403.588506 
L 584.558406 401.764314 
L 585.392279 383.445921 
L 586.226152 352.495798 
L 587.060025 404.637033 
L 587.893898 406.562139 
L 588.727771 413.3824 
L 589.561644 412.168902 
L 590.395517 359.216196 
L 591.22939 351.709395 
L 592.063263 367.361928 
L 592.897136 357.497714 
L 593.731009 350.523162 
L 594.564882 354.450961 
L 595.398755 352.970784 
L 596.232628 356.429892 
L 597.066501 401.815515 
L 597.900374 422.385725 
L 598.734247 425.788288 
L 599.56812 413.930524 
L 600.401993 421.210103 
L 601.235866 413.426496 
L 602.069738 423.608677 
L 602.903611 425.9415 
L 603.737484 426.361726 
L 604.571357 426.115546 
L 605.40523 425.680081 
L 606.239103 424.234449 
L 607.072976 428.51368 
L 607.906849 362.519267 
L 608.740722 426.338376 
L 609.574595 424.103652 
L 610.408468 439.545695 
L 611.242341 419.972272 
L 612.076214 411.436609 
L 612.910087 397.551337 
L 613.74396 334.941905 
L 614.577833 338.148142 
L 615.411706 407.848244 
L 616.245579 322.558129 
L 617.079452 333.150019 
L 617.913325 401.729092 
L 618.747198 425.072504 
L 619.581071 411.759944 
L 620.414944 403.229993 
L 621.248817 401.098634 
L 622.08269 416.952049 
L 622.916563 348.686085 
L 623.750436 351.035449 
L 624.584309 351.244047 
L 625.418182 360.369392 
L 626.252055 354.355148 
L 627.085928 401.915348 
L 627.919801 402.981752 
L 628.753674 405.549839 
L 629.587547 416.353175 
L 630.42142 412.81112 
L 631.255293 414.110459 
L 632.089166 423.998345 
L 632.923039 420.385673 
L 633.756912 412.805351 
L 634.590785 414.304866 
L 635.424658 412.236563 
L 636.258531 414.837958 
L 637.092403 427.354081 
L 637.926276 428.449392 
L 638.760149 433.294565 
L 639.594022 422.92656 
L 640.427895 422.761129 
L 641.261768 421.625527 
L 642.095641 412.179195 
L 642.929514 421.483654 
L 643.763387 419.931661 
L 644.59726 414.929847 
L 645.431133 411.514626 
L 646.265006 403.264916 
L 647.098879 427.341599 
L 647.932752 439.26142 
L 648.766625 435.731112 
L 649.600498 429.736656 
L 650.434371 413.08535 
L 651.268244 412.172754 
L 652.102117 426.244673 
L 652.93599 392.996039 
L 653.769863 351.892502 
L 654.603736 401.34648 
L 655.437609 336.080589 
L 656.271482 359.541681 
L 657.105355 412.755595 
L 657.939228 403.635735 
L 658.773101 404.633657 
L 659.606974 351.969492 
L 660.440847 328.041763 
L 661.27472 418.745378 
L 662.108593 439.198659 
L 662.942466 423.052523 
L 663.776339 431.765252 
L 664.610212 436.777846 
L 665.444085 423.532378 
L 666.277958 404.53949 
L 667.111831 349.403856 
L 667.945704 327.969076 
L 668.779577 335.122909 
L 670.447323 309.856815 
L 671.281196 279.918733 
L 672.115068 351.801976 
L 672.948941 390.780194 
L 673.782814 351.120465 
L 674.616687 350.516313 
L 675.45056 349.619777 
L 676.284433 348.27954 
L 677.118306 422.437563 
L 677.952179 421.588081 
L 678.786052 417.126982 
L 679.619925 337.205955 
L 680.453798 386.667114 
L 681.287671 406.390955 
L 682.121544 410.27009 
L 682.955417 343.328056 
L 683.78929 348.847492 
L 684.623163 407.848334 
L 686.290909 285.604979 
L 687.124782 355.286474 
L 687.958655 404.673219 
L 688.792528 412.370181 
L 689.626401 345.5996 
L 690.460274 326.540735 
L 691.294147 344.360935 
L 692.12802 312.724147 
L 692.961893 269.845412 
L 693.795766 326.791707 
L 694.629639 298.28439 
L 695.463512 291.036475 
L 696.297385 290.917212 
L 697.131258 292.782222 
L 697.965131 332.688844 
L 698.799004 319.636577 
L 699.632877 330.258141 
L 700.46675 360.742292 
L 701.300623 357.581209 
L 702.134496 407.917379 
L 702.968369 411.15673 
L 703.802242 350.391055 
L 705.469988 342.285784 
L 706.303861 313.919591 
L 707.137733 320.386465 
L 707.971606 319.416844 
L 708.805479 315.037529 
L 709.639352 282.121045 
L 710.473225 265.788772 
L 711.307098 316.70311 
L 712.140971 270.458117 
L 712.974844 327.871404 
L 713.808717 357.043184 
L 714.64259 346.045938 
L 715.476463 342.879595 
L 716.310336 313.557359 
L 717.144209 257.490106 
L 717.978082 299.541759 
L 718.811955 305.387579 
L 719.645828 269.94674 
L 720.479701 296.086855 
L 721.313574 236.563356 
L 722.147447 313.163698 
L 722.98132 351.671071 
L 723.815193 319.050763 
L 724.649066 348.345791 
L 725.482939 306.396702 
L 726.316812 291.086606 
L 727.150685 299.298523 
L 727.984558 317.238209 
L 728.818431 321.324047 
L 729.652304 283.922977 
L 730.486177 345.218456 
L 731.32005 276.002315 
L 732.153923 115.609791 
L 732.987796 210.141688 
L 733.821669 290.715394 
L 734.655542 324.890224 
L 735.489415 326.705575 
L 736.323288 263.097363 
L 737.157161 258.429733 
L 737.991034 297.426802 
L 738.824907 382.637187 
L 739.65878 347.626438 
L 740.492653 270.883065 
L 741.326526 207.27581 
L 742.160399 169.633364 
L 742.994271 211.632061 
L 743.828144 330.459966 
L 744.662017 278.649314 
L 745.49589 211.773583 
L 746.329763 291.361497 
L 747.163636 280.227559 
L 747.163636 280.227559 
" style="fill:none;stroke:#ff0000;stroke-dasharray:5.55,2.4;stroke-dashoffset:0;stroke-width:1.5;"/>
   </g>
   <g id="patch_3">
    <path d="M 108 460.8 
L 108 69.12 
" style="fill:none;stroke:#000000;stroke-linecap:square;stroke-linejoin:miter;stroke-width:0.8;"/>
   </g>
   <g id="patch_4">
    <path d="M 777.6 460.8 
L 777.6 69.12 
" style="fill:none;stroke:#000000;stroke-linecap:square;stroke-linejoin:miter;stroke-width:0.8;"/>
   </g>
   <g id="patch_5">
    <path d="M 108 460.8 
L 777.6 460.8 
" style="fill:none;stroke:#000000;stroke-linecap:square;stroke-linejoin:miter;stroke-width:0.8;"/>
   </g>
   <g id="patch_6">
    <path d="M 108 69.12 
L 777.6 69.12 
" style="fill:none;stroke:#000000;stroke-linecap:square;stroke-linejoin:miter;stroke-width:0.8;"/>
   </g>
   <g id="text_20">
    <!-- Macau residential 2020-2021 | Forecast vs Monitored | Random forest -->
    <g transform="translate(181.076953 63.12)scale(0.15 -0.15)">
     <defs>
      <path d="M 8.5 21.578125 
L 8.5 54.6875 
L 17.484375 54.6875 
L 17.484375 21.921875 
Q 17.484375 14.15625 20.5 10.265625 
Q 23.53125 6.390625 29.59375 6.390625 
Q 36.859375 6.390625 41.078125 11.03125 
Q 45.3125 15.671875 45.3125 23.6875 
L 45.3125 54.6875 
L 54.296875 54.6875 
L 54.296875 0 
L 45.3125 0 
L 45.3125 8.40625 
Q 42.046875 3.421875 37.71875 1 
Q 33.40625 -1.421875 27.6875 -1.421875 
Q 18.265625 -1.421875 13.375 4.4375 
Q 8.5 10.296875 8.5 21.578125 
z
M 31.109375 56 
z
" id="DejaVuSans-117"/>
      <path id="DejaVuSans-32"/>
      <path d="M 44.28125 53.078125 
L 44.28125 44.578125 
Q 40.484375 46.53125 36.375 47.5 
Q 32.28125 48.484375 27.875 48.484375 
Q 21.1875 48.484375 17.84375 46.4375 
Q 14.5 44.390625 14.5 40.28125 
Q 14.5 37.15625 16.890625 35.375 
Q 19.28125 33.59375 26.515625 31.984375 
L 29.59375 31.296875 
Q 39.15625 29.25 43.1875 25.515625 
Q 47.21875 21.78125 47.21875 15.09375 
Q 47.21875 7.46875 41.1875 3.015625 
Q 35.15625 -1.421875 24.609375 -1.421875 
Q 20.21875 -1.421875 15.453125 -0.5625 
Q 10.6875 0.296875 5.421875 2 
L 5.421875 11.28125 
Q 10.40625 8.6875 15.234375 7.390625 
Q 20.0625 6.109375 24.8125 6.109375 
Q 31.15625 6.109375 34.5625 8.28125 
Q 37.984375 10.453125 37.984375 14.40625 
Q 37.984375 18.0625 35.515625 20.015625 
Q 33.0625 21.96875 24.703125 23.78125 
L 21.578125 24.515625 
Q 13.234375 26.265625 9.515625 29.90625 
Q 5.8125 33.546875 5.8125 39.890625 
Q 5.8125 47.609375 11.28125 51.796875 
Q 16.75 56 26.8125 56 
Q 31.78125 56 36.171875 55.265625 
Q 40.578125 54.546875 44.28125 53.078125 
z
" id="DejaVuSans-115"/>
      <path d="M 45.40625 46.390625 
L 45.40625 75.984375 
L 54.390625 75.984375 
L 54.390625 0 
L 45.40625 0 
L 45.40625 8.203125 
Q 42.578125 3.328125 38.25 0.953125 
Q 33.9375 -1.421875 27.875 -1.421875 
Q 17.96875 -1.421875 11.734375 6.484375 
Q 5.515625 14.40625 5.515625 27.296875 
Q 5.515625 40.1875 11.734375 48.09375 
Q 17.96875 56 27.875 56 
Q 33.9375 56 38.25 53.625 
Q 42.578125 51.265625 45.40625 46.390625 
z
M 14.796875 27.296875 
Q 14.796875 17.390625 18.875 11.75 
Q 22.953125 6.109375 30.078125 6.109375 
Q 37.203125 6.109375 41.296875 11.75 
Q 45.40625 17.390625 45.40625 27.296875 
Q 45.40625 37.203125 41.296875 42.84375 
Q 37.203125 48.484375 30.078125 48.484375 
Q 22.953125 48.484375 18.875 42.84375 
Q 14.796875 37.203125 14.796875 27.296875 
z
" id="DejaVuSans-100"/>
      <path d="M 54.890625 33.015625 
L 54.890625 0 
L 45.90625 0 
L 45.90625 32.71875 
Q 45.90625 40.484375 42.875 44.328125 
Q 39.84375 48.1875 33.796875 48.1875 
Q 26.515625 48.1875 22.3125 43.546875 
Q 18.109375 38.921875 18.109375 30.90625 
L 18.109375 0 
L 9.078125 0 
L 9.078125 54.6875 
L 18.109375 54.6875 
L 18.109375 46.1875 
Q 21.34375 51.125 25.703125 53.5625 
Q 30.078125 56 35.796875 56 
Q 45.21875 56 50.046875 50.171875 
Q 54.890625 44.34375 54.890625 33.015625 
z
" id="DejaVuSans-110"/>
      <path d="M 9.421875 75.984375 
L 18.40625 75.984375 
L 18.40625 0 
L 9.421875 0 
z
" id="DejaVuSans-108"/>
      <path d="M 21 76.421875 
L 21 -23.578125 
L 12.703125 -23.578125 
L 12.703125 76.421875 
z
" id="DejaVuSans-124"/>
      <path d="M 9.8125 72.90625 
L 51.703125 72.90625 
L 51.703125 64.59375 
L 19.671875 64.59375 
L 19.671875 43.109375 
L 48.578125 43.109375 
L 48.578125 34.8125 
L 19.671875 34.8125 
L 19.671875 0 
L 9.8125 0 
z
" id="DejaVuSans-70"/>
      <path d="M 2.984375 54.6875 
L 12.5 54.6875 
L 29.59375 8.796875 
L 46.6875 54.6875 
L 56.203125 54.6875 
L 35.6875 0 
L 23.484375 0 
z
" id="DejaVuSans-118"/>
      <path d="M 44.390625 34.1875 
Q 47.5625 33.109375 50.5625 29.59375 
Q 53.5625 26.078125 56.59375 19.921875 
L 66.609375 0 
L 56 0 
L 46.6875 18.703125 
Q 43.0625 26.03125 39.671875 28.421875 
Q 36.28125 30.8125 30.421875 30.8125 
L 19.671875 30.8125 
L 19.671875 0 
L 9.8125 0 
L 9.8125 72.90625 
L 32.078125 72.90625 
Q 44.578125 72.90625 50.734375 67.671875 
Q 56.890625 62.453125 56.890625 51.90625 
Q 56.890625 45.015625 53.6875 40.46875 
Q 50.484375 35.9375 44.390625 34.1875 
z
M 19.671875 64.796875 
L 19.671875 38.921875 
L 32.078125 38.921875 
Q 39.203125 38.921875 42.84375 42.21875 
Q 46.484375 45.515625 46.484375 51.90625 
Q 46.484375 58.296875 42.84375 61.546875 
Q 39.203125 64.796875 32.078125 64.796875 
z
" id="DejaVuSans-82"/>
      <path d="M 37.109375 75.984375 
L 37.109375 68.5 
L 28.515625 68.5 
Q 23.6875 68.5 21.796875 66.546875 
Q 19.921875 64.59375 19.921875 59.515625 
L 19.921875 54.6875 
L 34.71875 54.6875 
L 34.71875 47.703125 
L 19.921875 47.703125 
L 19.921875 0 
L 10.890625 0 
L 10.890625 47.703125 
L 2.296875 47.703125 
L 2.296875 54.6875 
L 10.890625 54.6875 
L 10.890625 58.5 
Q 10.890625 67.625 15.140625 71.796875 
Q 19.390625 75.984375 28.609375 75.984375 
z
" id="DejaVuSans-102"/>
     </defs>
     <use xlink:href="#DejaVuSans-77"/>
     <use x="86.279297" xlink:href="#DejaVuSans-97"/>
     <use x="147.558594" xlink:href="#DejaVuSans-99"/>
     <use x="202.539062" xlink:href="#DejaVuSans-97"/>
     <use x="263.818359" xlink:href="#DejaVuSans-117"/>
     <use x="327.197266" xlink:href="#DejaVuSans-32"/>
     <use x="358.984375" xlink:href="#DejaVuSans-114"/>
     <use x="397.847656" xlink:href="#DejaVuSans-101"/>
     <use x="459.371094" xlink:href="#DejaVuSans-115"/>
     <use x="511.470703" xlink:href="#DejaVuSans-105"/>
     <use x="539.253906" xlink:href="#DejaVuSans-100"/>
     <use x="602.730469" xlink:href="#DejaVuSans-101"/>
     <use x="664.253906" xlink:href="#DejaVuSans-110"/>
     <use x="727.632812" xlink:href="#DejaVuSans-116"/>
     <use x="766.841797" xlink:href="#DejaVuSans-105"/>
     <use x="794.625" xlink:href="#DejaVuSans-97"/>
     <use x="855.904297" xlink:href="#DejaVuSans-108"/>
     <use x="883.6875" xlink:href="#DejaVuSans-32"/>
     <use x="915.474609" xlink:href="#DejaVuSans-50"/>
     <use x="979.097656" xlink:href="#DejaVuSans-48"/>
     <use x="1042.720703" xlink:href="#DejaVuSans-50"/>
     <use x="1106.34375" xlink:href="#DejaVuSans-48"/>
     <use x="1169.966797" xlink:href="#DejaVuSans-45"/>
     <use x="1206.050781" xlink:href="#DejaVuSans-50"/>
     <use x="1269.673828" xlink:href="#DejaVuSans-48"/>
     <use x="1333.296875" xlink:href="#DejaVuSans-50"/>
     <use x="1396.919922" xlink:href="#DejaVuSans-49"/>
     <use x="1460.542969" xlink:href="#DejaVuSans-32"/>
     <use x="1492.330078" xlink:href="#DejaVuSans-124"/>
     <use x="1526.021484" xlink:href="#DejaVuSans-32"/>
     <use x="1557.808594" xlink:href="#DejaVuSans-70"/>
     <use x="1611.703125" xlink:href="#DejaVuSans-111"/>
     <use x="1672.884766" xlink:href="#DejaVuSans-114"/>
     <use x="1711.748047" xlink:href="#DejaVuSans-101"/>
     <use x="1773.271484" xlink:href="#DejaVuSans-99"/>
     <use x="1828.251953" xlink:href="#DejaVuSans-97"/>
     <use x="1889.53125" xlink:href="#DejaVuSans-115"/>
     <use x="1941.630859" xlink:href="#DejaVuSans-116"/>
     <use x="1980.839844" xlink:href="#DejaVuSans-32"/>
     <use x="2012.626953" xlink:href="#DejaVuSans-118"/>
     <use x="2071.806641" xlink:href="#DejaVuSans-115"/>
     <use x="2123.90625" xlink:href="#DejaVuSans-32"/>
     <use x="2155.693359" xlink:href="#DejaVuSans-77"/>
     <use x="2241.972656" xlink:href="#DejaVuSans-111"/>
     <use x="2303.154297" xlink:href="#DejaVuSans-110"/>
     <use x="2366.533203" xlink:href="#DejaVuSans-105"/>
     <use x="2394.316406" xlink:href="#DejaVuSans-116"/>
     <use x="2433.525391" xlink:href="#DejaVuSans-111"/>
     <use x="2494.707031" xlink:href="#DejaVuSans-114"/>
     <use x="2533.570312" xlink:href="#DejaVuSans-101"/>
     <use x="2595.09375" xlink:href="#DejaVuSans-100"/>
     <use x="2658.570312" xlink:href="#DejaVuSans-32"/>
     <use x="2690.357422" xlink:href="#DejaVuSans-124"/>
     <use x="2724.048828" xlink:href="#DejaVuSans-32"/>
     <use x="2755.835938" xlink:href="#DejaVuSans-82"/>
     <use x="2823.068359" xlink:href="#DejaVuSans-97"/>
     <use x="2884.347656" xlink:href="#DejaVuSans-110"/>
     <use x="2947.726562" xlink:href="#DejaVuSans-100"/>
     <use x="3011.203125" xlink:href="#DejaVuSans-111"/>
     <use x="3072.384766" xlink:href="#DejaVuSans-109"/>
     <use x="3169.796875" xlink:href="#DejaVuSans-32"/>
     <use x="3201.583984" xlink:href="#DejaVuSans-102"/>
     <use x="3236.789062" xlink:href="#DejaVuSans-111"/>
     <use x="3297.970703" xlink:href="#DejaVuSans-114"/>
     <use x="3336.833984" xlink:href="#DejaVuSans-101"/>
     <use x="3398.357422" xlink:href="#DejaVuSans-115"/>
     <use x="3450.457031" xlink:href="#DejaVuSans-116"/>
    </g>
   </g>
   <g id="legend_1">
    <g id="patch_7">
     <path d="M 595.149375 114.615 
L 769.2 114.615 
Q 771.6 114.615 771.6 112.215 
L 771.6 77.52 
Q 771.6 75.12 769.2 75.12 
L 595.149375 75.12 
Q 592.749375 75.12 592.749375 77.52 
L 592.749375 112.215 
Q 592.749375 114.615 595.149375 114.615 
z
" style="fill:#ffffff;opacity:0.8;stroke:#cccccc;stroke-linejoin:miter;"/>
    </g>
    <g id="line2d_20">
     <path d="M 597.549375 84.838125 
L 621.549375 84.838125 
" style="fill:none;stroke:#1f77b4;stroke-linecap:square;stroke-width:1.5;"/>
    </g>
    <g id="line2d_21"/>
    <g id="text_21">
     <!-- measured_data_PM2.5 -->
     <g transform="translate(631.149375 89.038125)scale(0.12 -0.12)">
      <defs>
       <path d="M 50.984375 -16.609375 
L 50.984375 -23.578125 
L -0.984375 -23.578125 
L -0.984375 -16.609375 
z
" id="DejaVuSans-95"/>
      </defs>
      <use xlink:href="#DejaVuSans-109"/>
      <use x="97.412109" xlink:href="#DejaVuSans-101"/>
      <use x="158.935547" xlink:href="#DejaVuSans-97"/>
      <use x="220.214844" xlink:href="#DejaVuSans-115"/>
      <use x="272.314453" xlink:href="#DejaVuSans-117"/>
      <use x="335.693359" xlink:href="#DejaVuSans-114"/>
      <use x="374.556641" xlink:href="#DejaVuSans-101"/>
      <use x="436.080078" xlink:href="#DejaVuSans-100"/>
      <use x="499.556641" xlink:href="#DejaVuSans-95"/>
      <use x="549.556641" xlink:href="#DejaVuSans-100"/>
      <use x="613.033203" xlink:href="#DejaVuSans-97"/>
      <use x="674.3125" xlink:href="#DejaVuSans-116"/>
      <use x="713.521484" xlink:href="#DejaVuSans-97"/>
      <use x="774.800781" xlink:href="#DejaVuSans-95"/>
      <use x="824.800781" xlink:href="#DejaVuSans-80"/>
      <use x="885.103516" xlink:href="#DejaVuSans-77"/>
      <use x="971.382812" xlink:href="#DejaVuSans-50"/>
      <use x="1035.005859" xlink:href="#DejaVuSans-46"/>
      <use x="1066.792969" xlink:href="#DejaVuSans-53"/>
     </g>
    </g>
    <g id="line2d_22">
     <path d="M 597.549375 102.785625 
L 621.549375 102.785625 
" style="fill:none;stroke:#ff0000;stroke-dasharray:5.55,2.4;stroke-dashoffset:0;stroke-width:1.5;"/>
    </g>
    <g id="line2d_23"/>
    <g id="text_22">
     <!-- predicted_data_PM2.5 -->
     <g transform="translate(631.149375 106.985625)scale(0.12 -0.12)">
      <defs>
       <path d="M 18.109375 8.203125 
L 18.109375 -20.796875 
L 9.078125 -20.796875 
L 9.078125 54.6875 
L 18.109375 54.6875 
L 18.109375 46.390625 
Q 20.953125 51.265625 25.265625 53.625 
Q 29.59375 56 35.59375 56 
Q 45.5625 56 51.78125 48.09375 
Q 58.015625 40.1875 58.015625 27.296875 
Q 58.015625 14.40625 51.78125 6.484375 
Q 45.5625 -1.421875 35.59375 -1.421875 
Q 29.59375 -1.421875 25.265625 0.953125 
Q 20.953125 3.328125 18.109375 8.203125 
z
M 48.6875 27.296875 
Q 48.6875 37.203125 44.609375 42.84375 
Q 40.53125 48.484375 33.40625 48.484375 
Q 26.265625 48.484375 22.1875 42.84375 
Q 18.109375 37.203125 18.109375 27.296875 
Q 18.109375 17.390625 22.1875 11.75 
Q 26.265625 6.109375 33.40625 6.109375 
Q 40.53125 6.109375 44.609375 11.75 
Q 48.6875 17.390625 48.6875 27.296875 
z
" id="DejaVuSans-112"/>
      </defs>
      <use xlink:href="#DejaVuSans-112"/>
      <use x="63.476562" xlink:href="#DejaVuSans-114"/>
      <use x="102.339844" xlink:href="#DejaVuSans-101"/>
      <use x="163.863281" xlink:href="#DejaVuSans-100"/>
      <use x="227.339844" xlink:href="#DejaVuSans-105"/>
      <use x="255.123047" xlink:href="#DejaVuSans-99"/>
      <use x="310.103516" xlink:href="#DejaVuSans-116"/>
      <use x="349.3125" xlink:href="#DejaVuSans-101"/>
      <use x="410.835938" xlink:href="#DejaVuSans-100"/>
      <use x="474.3125" xlink:href="#DejaVuSans-95"/>
      <use x="524.3125" xlink:href="#DejaVuSans-100"/>
      <use x="587.789062" xlink:href="#DejaVuSans-97"/>
      <use x="649.068359" xlink:href="#DejaVuSans-116"/>
      <use x="688.277344" xlink:href="#DejaVuSans-97"/>
      <use x="749.556641" xlink:href="#DejaVuSans-95"/>
      <use x="799.556641" xlink:href="#DejaVuSans-80"/>
      <use x="859.859375" xlink:href="#DejaVuSans-77"/>
      <use x="946.138672" xlink:href="#DejaVuSans-50"/>
      <use x="1009.761719" xlink:href="#DejaVuSans-46"/>
      <use x="1041.548828" xlink:href="#DejaVuSans-53"/>
     </g>
    </g>
   </g>
  </g>
 </g>
 <defs>
  <clipPath id="p7163f5c674">
   <rect height="391.68" width="669.6" x="108" y="69.12"/>
  </clipPath>
 </defs>
</svg>
