<?xml version="1.0" encoding="utf-8" standalone="no"?>
<!DOCTYPE svg PUBLIC "-//W3C//DTD SVG 1.1//EN"
  "http://www.w3.org/Graphics/SVG/1.1/DTD/svg11.dtd">
<!-- Created with matplotlib (https://matplotlib.org/) -->
<svg height="576pt" version="1.1" viewBox="0 0 864 576" width="864pt" xmlns="http://www.w3.org/2000/svg" xmlns:xlink="http://www.w3.org/1999/xlink">
 <metadata>
  <rdf:RDF xmlns:cc="http://creativecommons.org/ns#" xmlns:dc="http://purl.org/dc/elements/1.1/" xmlns:rdf="http://www.w3.org/1999/02/22-rdf-syntax-ns#">
   <cc:Work>
    <dc:type rdf:resource="http://purl.org/dc/dcmitype/StillImage"/>
    <dc:date>2024-03-08T20:38:01.749360</dc:date>
    <dc:format>image/svg+xml</dc:format>
    <dc:creator>
     <cc:Agent>
      <dc:title>Matplotlib v3.3.4, https://matplotlib.org/</dc:title>
     </cc:Agent>
    </dc:creator>
   </cc:Work>
  </rdf:RDF>
 </metadata>
 <defs>
  <style type="text/css">*{stroke-linecap:butt;stroke-linejoin:round;}</style>
 </defs>
 <g id="figure_1">
  <g id="patch_1">
   <path d="M 0 576 
L 864 576 
L 864 0 
L 0 0 
z
" style="fill:#ffffff;"/>
  </g>
  <g id="axes_1">
   <g id="patch_2">
    <path d="M 108 460.8 
L 777.6 460.8 
L 777.6 69.12 
L 108 69.12 
z
" style="fill:#ffffff;"/>
   </g>
   <g id="matplotlib.axis_1">
    <g id="xtick_1">
     <g id="line2d_1">
      <defs>
       <path d="M 0 0 
L 0 3.5 
" id="m2e2f62f956" style="stroke:#000000;stroke-width:0.8;"/>
      </defs>
      <g>
       <use style="stroke:#000000;stroke-width:0.8;" x="136.761736" xlink:href="#m2e2f62f956" y="460.8"/>
      </g>
     </g>
     <g id="text_1">
      <!-- 2020-01 -->
      <g transform="translate(92.091951 500.766215)rotate(-30)scale(0.12 -0.12)">
       <defs>
        <path d="M 19.1875 8.296875 
L 53.609375 8.296875 
L 53.609375 0 
L 7.328125 0 
L 7.328125 8.296875 
Q 12.9375 14.109375 22.625 23.890625 
Q 32.328125 33.6875 34.8125 36.53125 
Q 39.546875 41.84375 41.421875 45.53125 
Q 43.3125 49.21875 43.3125 52.78125 
Q 43.3125 58.59375 39.234375 62.25 
Q 35.15625 65.921875 28.609375 65.921875 
Q 23.96875 65.921875 18.8125 64.3125 
Q 13.671875 62.703125 7.8125 59.421875 
L 7.8125 69.390625 
Q 13.765625 71.78125 18.9375 73 
Q 24.125 74.21875 28.421875 74.21875 
Q 39.75 74.21875 46.484375 68.546875 
Q 53.21875 62.890625 53.21875 53.421875 
Q 53.21875 48.921875 51.53125 44.890625 
Q 49.859375 40.875 45.40625 35.40625 
Q 44.1875 33.984375 37.640625 27.21875 
Q 31.109375 20.453125 19.1875 8.296875 
z
" id="DejaVuSans-50"/>
        <path d="M 31.78125 66.40625 
Q 24.171875 66.40625 20.328125 58.90625 
Q 16.5 51.421875 16.5 36.375 
Q 16.5 21.390625 20.328125 13.890625 
Q 24.171875 6.390625 31.78125 6.390625 
Q 39.453125 6.390625 43.28125 13.890625 
Q 47.125 21.390625 47.125 36.375 
Q 47.125 51.421875 43.28125 58.90625 
Q 39.453125 66.40625 31.78125 66.40625 
z
M 31.78125 74.21875 
Q 44.046875 74.21875 50.515625 64.515625 
Q 56.984375 54.828125 56.984375 36.375 
Q 56.984375 17.96875 50.515625 8.265625 
Q 44.046875 -1.421875 31.78125 -1.421875 
Q 19.53125 -1.421875 13.0625 8.265625 
Q 6.59375 17.96875 6.59375 36.375 
Q 6.59375 54.828125 13.0625 64.515625 
Q 19.53125 74.21875 31.78125 74.21875 
z
" id="DejaVuSans-48"/>
        <path d="M 4.890625 31.390625 
L 31.203125 31.390625 
L 31.203125 23.390625 
L 4.890625 23.390625 
z
" id="DejaVuSans-45"/>
        <path d="M 12.40625 8.296875 
L 28.515625 8.296875 
L 28.515625 63.921875 
L 10.984375 60.40625 
L 10.984375 69.390625 
L 28.421875 72.90625 
L 38.28125 72.90625 
L 38.28125 8.296875 
L 54.390625 8.296875 
L 54.390625 0 
L 12.40625 0 
z
" id="DejaVuSans-49"/>
       </defs>
       <use xlink:href="#DejaVuSans-50"/>
       <use x="63.623047" xlink:href="#DejaVuSans-48"/>
       <use x="127.246094" xlink:href="#DejaVuSans-50"/>
       <use x="190.869141" xlink:href="#DejaVuSans-48"/>
       <use x="254.492188" xlink:href="#DejaVuSans-45"/>
       <use x="290.576172" xlink:href="#DejaVuSans-48"/>
       <use x="354.199219" xlink:href="#DejaVuSans-49"/>
      </g>
     </g>
    </g>
    <g id="xtick_2">
     <g id="line2d_2">
      <g>
       <use style="stroke:#000000;stroke-width:0.8;" x="212.957309" xlink:href="#m2e2f62f956" y="460.8"/>
      </g>
     </g>
     <g id="text_2">
      <!-- 2020-04 -->
      <g transform="translate(168.287524 500.766215)rotate(-30)scale(0.12 -0.12)">
       <defs>
        <path d="M 37.796875 64.3125 
L 12.890625 25.390625 
L 37.796875 25.390625 
z
M 35.203125 72.90625 
L 47.609375 72.90625 
L 47.609375 25.390625 
L 58.015625 25.390625 
L 58.015625 17.1875 
L 47.609375 17.1875 
L 47.609375 0 
L 37.796875 0 
L 37.796875 17.1875 
L 4.890625 17.1875 
L 4.890625 26.703125 
z
" id="DejaVuSans-52"/>
       </defs>
       <use xlink:href="#DejaVuSans-50"/>
       <use x="63.623047" xlink:href="#DejaVuSans-48"/>
       <use x="127.246094" xlink:href="#DejaVuSans-50"/>
       <use x="190.869141" xlink:href="#DejaVuSans-48"/>
       <use x="254.492188" xlink:href="#DejaVuSans-45"/>
       <use x="290.576172" xlink:href="#DejaVuSans-48"/>
       <use x="354.199219" xlink:href="#DejaVuSans-52"/>
      </g>
     </g>
    </g>
    <g id="xtick_3">
     <g id="line2d_3">
      <g>
       <use style="stroke:#000000;stroke-width:0.8;" x="289.152882" xlink:href="#m2e2f62f956" y="460.8"/>
      </g>
     </g>
     <g id="text_3">
      <!-- 2020-07 -->
      <g transform="translate(244.483097 500.766215)rotate(-30)scale(0.12 -0.12)">
       <defs>
        <path d="M 8.203125 72.90625 
L 55.078125 72.90625 
L 55.078125 68.703125 
L 28.609375 0 
L 18.3125 0 
L 43.21875 64.59375 
L 8.203125 64.59375 
z
" id="DejaVuSans-55"/>
       </defs>
       <use xlink:href="#DejaVuSans-50"/>
       <use x="63.623047" xlink:href="#DejaVuSans-48"/>
       <use x="127.246094" xlink:href="#DejaVuSans-50"/>
       <use x="190.869141" xlink:href="#DejaVuSans-48"/>
       <use x="254.492188" xlink:href="#DejaVuSans-45"/>
       <use x="290.576172" xlink:href="#DejaVuSans-48"/>
       <use x="354.199219" xlink:href="#DejaVuSans-55"/>
      </g>
     </g>
    </g>
    <g id="xtick_4">
     <g id="line2d_4">
      <g>
       <use style="stroke:#000000;stroke-width:0.8;" x="366.18577" xlink:href="#m2e2f62f956" y="460.8"/>
      </g>
     </g>
     <g id="text_4">
      <!-- 2020-10 -->
      <g transform="translate(321.515985 500.766215)rotate(-30)scale(0.12 -0.12)">
       <use xlink:href="#DejaVuSans-50"/>
       <use x="63.623047" xlink:href="#DejaVuSans-48"/>
       <use x="127.246094" xlink:href="#DejaVuSans-50"/>
       <use x="190.869141" xlink:href="#DejaVuSans-48"/>
       <use x="254.492188" xlink:href="#DejaVuSans-45"/>
       <use x="290.576172" xlink:href="#DejaVuSans-49"/>
       <use x="354.199219" xlink:href="#DejaVuSans-48"/>
      </g>
     </g>
    </g>
    <g id="xtick_5">
     <g id="line2d_5">
      <g>
       <use style="stroke:#000000;stroke-width:0.8;" x="443.218657" xlink:href="#m2e2f62f956" y="460.8"/>
      </g>
     </g>
     <g id="text_5">
      <!-- 2021-01 -->
      <g transform="translate(398.548872 500.766215)rotate(-30)scale(0.12 -0.12)">
       <use xlink:href="#DejaVuSans-50"/>
       <use x="63.623047" xlink:href="#DejaVuSans-48"/>
       <use x="127.246094" xlink:href="#DejaVuSans-50"/>
       <use x="190.869141" xlink:href="#DejaVuSans-49"/>
       <use x="254.492188" xlink:href="#DejaVuSans-45"/>
       <use x="290.576172" xlink:href="#DejaVuSans-48"/>
       <use x="354.199219" xlink:href="#DejaVuSans-49"/>
      </g>
     </g>
    </g>
    <g id="xtick_6">
     <g id="line2d_6">
      <g>
       <use style="stroke:#000000;stroke-width:0.8;" x="518.576916" xlink:href="#m2e2f62f956" y="460.8"/>
      </g>
     </g>
     <g id="text_6">
      <!-- 2021-04 -->
      <g transform="translate(473.907131 500.766215)rotate(-30)scale(0.12 -0.12)">
       <use xlink:href="#DejaVuSans-50"/>
       <use x="63.623047" xlink:href="#DejaVuSans-48"/>
       <use x="127.246094" xlink:href="#DejaVuSans-50"/>
       <use x="190.869141" xlink:href="#DejaVuSans-49"/>
       <use x="254.492188" xlink:href="#DejaVuSans-45"/>
       <use x="290.576172" xlink:href="#DejaVuSans-48"/>
       <use x="354.199219" xlink:href="#DejaVuSans-52"/>
      </g>
     </g>
    </g>
    <g id="xtick_7">
     <g id="line2d_7">
      <g>
       <use style="stroke:#000000;stroke-width:0.8;" x="594.77249" xlink:href="#m2e2f62f956" y="460.8"/>
      </g>
     </g>
     <g id="text_7">
      <!-- 2021-07 -->
      <g transform="translate(550.102705 500.766215)rotate(-30)scale(0.12 -0.12)">
       <use xlink:href="#DejaVuSans-50"/>
       <use x="63.623047" xlink:href="#DejaVuSans-48"/>
       <use x="127.246094" xlink:href="#DejaVuSans-50"/>
       <use x="190.869141" xlink:href="#DejaVuSans-49"/>
       <use x="254.492188" xlink:href="#DejaVuSans-45"/>
       <use x="290.576172" xlink:href="#DejaVuSans-48"/>
       <use x="354.199219" xlink:href="#DejaVuSans-55"/>
      </g>
     </g>
    </g>
    <g id="xtick_8">
     <g id="line2d_8">
      <g>
       <use style="stroke:#000000;stroke-width:0.8;" x="671.805377" xlink:href="#m2e2f62f956" y="460.8"/>
      </g>
     </g>
     <g id="text_8">
      <!-- 2021-10 -->
      <g transform="translate(627.135592 500.766215)rotate(-30)scale(0.12 -0.12)">
       <use xlink:href="#DejaVuSans-50"/>
       <use x="63.623047" xlink:href="#DejaVuSans-48"/>
       <use x="127.246094" xlink:href="#DejaVuSans-50"/>
       <use x="190.869141" xlink:href="#DejaVuSans-49"/>
       <use x="254.492188" xlink:href="#DejaVuSans-45"/>
       <use x="290.576172" xlink:href="#DejaVuSans-49"/>
       <use x="354.199219" xlink:href="#DejaVuSans-48"/>
      </g>
     </g>
    </g>
    <g id="xtick_9">
     <g id="line2d_9">
      <g>
       <use style="stroke:#000000;stroke-width:0.8;" x="748.838264" xlink:href="#m2e2f62f956" y="460.8"/>
      </g>
     </g>
     <g id="text_9">
      <!-- 2022-01 -->
      <g transform="translate(704.168479 500.766215)rotate(-30)scale(0.12 -0.12)">
       <use xlink:href="#DejaVuSans-50"/>
       <use x="63.623047" xlink:href="#DejaVuSans-48"/>
       <use x="127.246094" xlink:href="#DejaVuSans-50"/>
       <use x="190.869141" xlink:href="#DejaVuSans-50"/>
       <use x="254.492188" xlink:href="#DejaVuSans-45"/>
       <use x="290.576172" xlink:href="#DejaVuSans-48"/>
       <use x="354.199219" xlink:href="#DejaVuSans-49"/>
      </g>
     </g>
    </g>
    <g id="text_10">
     <!-- Date -->
     <g transform="translate(424.873828 518.325146)scale(0.15 -0.15)">
      <defs>
       <path d="M 19.671875 64.796875 
L 19.671875 8.109375 
L 31.59375 8.109375 
Q 46.6875 8.109375 53.6875 14.9375 
Q 60.6875 21.78125 60.6875 36.53125 
Q 60.6875 51.171875 53.6875 57.984375 
Q 46.6875 64.796875 31.59375 64.796875 
z
M 9.8125 72.90625 
L 30.078125 72.90625 
Q 51.265625 72.90625 61.171875 64.09375 
Q 71.09375 55.28125 71.09375 36.53125 
Q 71.09375 17.671875 61.125 8.828125 
Q 51.171875 0 30.078125 0 
L 9.8125 0 
z
" id="DejaVuSans-68"/>
       <path d="M 34.28125 27.484375 
Q 23.390625 27.484375 19.1875 25 
Q 14.984375 22.515625 14.984375 16.5 
Q 14.984375 11.71875 18.140625 8.90625 
Q 21.296875 6.109375 26.703125 6.109375 
Q 34.1875 6.109375 38.703125 11.40625 
Q 43.21875 16.703125 43.21875 25.484375 
L 43.21875 27.484375 
z
M 52.203125 31.203125 
L 52.203125 0 
L 43.21875 0 
L 43.21875 8.296875 
Q 40.140625 3.328125 35.546875 0.953125 
Q 30.953125 -1.421875 24.3125 -1.421875 
Q 15.921875 -1.421875 10.953125 3.296875 
Q 6 8.015625 6 15.921875 
Q 6 25.140625 12.171875 29.828125 
Q 18.359375 34.515625 30.609375 34.515625 
L 43.21875 34.515625 
L 43.21875 35.40625 
Q 43.21875 41.609375 39.140625 45 
Q 35.0625 48.390625 27.6875 48.390625 
Q 23 48.390625 18.546875 47.265625 
Q 14.109375 46.140625 10.015625 43.890625 
L 10.015625 52.203125 
Q 14.9375 54.109375 19.578125 55.046875 
Q 24.21875 56 28.609375 56 
Q 40.484375 56 46.34375 49.84375 
Q 52.203125 43.703125 52.203125 31.203125 
z
" id="DejaVuSans-97"/>
       <path d="M 18.3125 70.21875 
L 18.3125 54.6875 
L 36.8125 54.6875 
L 36.8125 47.703125 
L 18.3125 47.703125 
L 18.3125 18.015625 
Q 18.3125 11.328125 20.140625 9.421875 
Q 21.96875 7.515625 27.59375 7.515625 
L 36.8125 7.515625 
L 36.8125 0 
L 27.59375 0 
Q 17.1875 0 13.234375 3.875 
Q 9.28125 7.765625 9.28125 18.015625 
L 9.28125 47.703125 
L 2.6875 47.703125 
L 2.6875 54.6875 
L 9.28125 54.6875 
L 9.28125 70.21875 
z
" id="DejaVuSans-116"/>
       <path d="M 56.203125 29.59375 
L 56.203125 25.203125 
L 14.890625 25.203125 
Q 15.484375 15.921875 20.484375 11.0625 
Q 25.484375 6.203125 34.421875 6.203125 
Q 39.59375 6.203125 44.453125 7.46875 
Q 49.3125 8.734375 54.109375 11.28125 
L 54.109375 2.78125 
Q 49.265625 0.734375 44.1875 -0.34375 
Q 39.109375 -1.421875 33.890625 -1.421875 
Q 20.796875 -1.421875 13.15625 6.1875 
Q 5.515625 13.8125 5.515625 26.8125 
Q 5.515625 40.234375 12.765625 48.109375 
Q 20.015625 56 32.328125 56 
Q 43.359375 56 49.78125 48.890625 
Q 56.203125 41.796875 56.203125 29.59375 
z
M 47.21875 32.234375 
Q 47.125 39.59375 43.09375 43.984375 
Q 39.0625 48.390625 32.421875 48.390625 
Q 24.90625 48.390625 20.390625 44.140625 
Q 15.875 39.890625 15.1875 32.171875 
z
" id="DejaVuSans-101"/>
      </defs>
      <use xlink:href="#DejaVuSans-68"/>
      <use x="77.001953" xlink:href="#DejaVuSans-97"/>
      <use x="138.28125" xlink:href="#DejaVuSans-116"/>
      <use x="177.490234" xlink:href="#DejaVuSans-101"/>
     </g>
    </g>
   </g>
   <g id="matplotlib.axis_2">
    <g id="ytick_1">
     <g id="line2d_10">
      <defs>
       <path d="M 0 0 
L -3.5 0 
" id="ma80a05ff1b" style="stroke:#000000;stroke-width:0.8;"/>
      </defs>
      <g>
       <use style="stroke:#000000;stroke-width:0.8;" x="108" xlink:href="#ma80a05ff1b" y="445.904285"/>
      </g>
     </g>
     <g id="text_11">
      <!-- 0 -->
      <g transform="translate(93.365 450.463347)scale(0.12 -0.12)">
       <use xlink:href="#DejaVuSans-48"/>
      </g>
     </g>
    </g>
    <g id="ytick_2">
     <g id="line2d_11">
      <g>
       <use style="stroke:#000000;stroke-width:0.8;" x="108" xlink:href="#ma80a05ff1b" y="396.054207"/>
      </g>
     </g>
     <g id="text_12">
      <!-- 10 -->
      <g transform="translate(85.73 400.61327)scale(0.12 -0.12)">
       <use xlink:href="#DejaVuSans-49"/>
       <use x="63.623047" xlink:href="#DejaVuSans-48"/>
      </g>
     </g>
    </g>
    <g id="ytick_3">
     <g id="line2d_12">
      <g>
       <use style="stroke:#000000;stroke-width:0.8;" x="108" xlink:href="#ma80a05ff1b" y="346.20413"/>
      </g>
     </g>
     <g id="text_13">
      <!-- 20 -->
      <g transform="translate(85.73 350.763193)scale(0.12 -0.12)">
       <use xlink:href="#DejaVuSans-50"/>
       <use x="63.623047" xlink:href="#DejaVuSans-48"/>
      </g>
     </g>
    </g>
    <g id="ytick_4">
     <g id="line2d_13">
      <g>
       <use style="stroke:#000000;stroke-width:0.8;" x="108" xlink:href="#ma80a05ff1b" y="296.354053"/>
      </g>
     </g>
     <g id="text_14">
      <!-- 30 -->
      <g transform="translate(85.73 300.913115)scale(0.12 -0.12)">
       <defs>
        <path d="M 40.578125 39.3125 
Q 47.65625 37.796875 51.625 33 
Q 55.609375 28.21875 55.609375 21.1875 
Q 55.609375 10.40625 48.1875 4.484375 
Q 40.765625 -1.421875 27.09375 -1.421875 
Q 22.515625 -1.421875 17.65625 -0.515625 
Q 12.796875 0.390625 7.625 2.203125 
L 7.625 11.71875 
Q 11.71875 9.328125 16.59375 8.109375 
Q 21.484375 6.890625 26.8125 6.890625 
Q 36.078125 6.890625 40.9375 10.546875 
Q 45.796875 14.203125 45.796875 21.1875 
Q 45.796875 27.640625 41.28125 31.265625 
Q 36.765625 34.90625 28.71875 34.90625 
L 20.21875 34.90625 
L 20.21875 43.015625 
L 29.109375 43.015625 
Q 36.375 43.015625 40.234375 45.921875 
Q 44.09375 48.828125 44.09375 54.296875 
Q 44.09375 59.90625 40.109375 62.90625 
Q 36.140625 65.921875 28.71875 65.921875 
Q 24.65625 65.921875 20.015625 65.03125 
Q 15.375 64.15625 9.8125 62.3125 
L 9.8125 71.09375 
Q 15.4375 72.65625 20.34375 73.4375 
Q 25.25 74.21875 29.59375 74.21875 
Q 40.828125 74.21875 47.359375 69.109375 
Q 53.90625 64.015625 53.90625 55.328125 
Q 53.90625 49.265625 50.4375 45.09375 
Q 46.96875 40.921875 40.578125 39.3125 
z
" id="DejaVuSans-51"/>
       </defs>
       <use xlink:href="#DejaVuSans-51"/>
       <use x="63.623047" xlink:href="#DejaVuSans-48"/>
      </g>
     </g>
    </g>
    <g id="ytick_5">
     <g id="line2d_14">
      <g>
       <use style="stroke:#000000;stroke-width:0.8;" x="108" xlink:href="#ma80a05ff1b" y="246.503975"/>
      </g>
     </g>
     <g id="text_15">
      <!-- 40 -->
      <g transform="translate(85.73 251.063038)scale(0.12 -0.12)">
       <use xlink:href="#DejaVuSans-52"/>
       <use x="63.623047" xlink:href="#DejaVuSans-48"/>
      </g>
     </g>
    </g>
    <g id="ytick_6">
     <g id="line2d_15">
      <g>
       <use style="stroke:#000000;stroke-width:0.8;" x="108" xlink:href="#ma80a05ff1b" y="196.653898"/>
      </g>
     </g>
     <g id="text_16">
      <!-- 50 -->
      <g transform="translate(85.73 201.212961)scale(0.12 -0.12)">
       <defs>
        <path d="M 10.796875 72.90625 
L 49.515625 72.90625 
L 49.515625 64.59375 
L 19.828125 64.59375 
L 19.828125 46.734375 
Q 21.96875 47.46875 24.109375 47.828125 
Q 26.265625 48.1875 28.421875 48.1875 
Q 40.625 48.1875 47.75 41.5 
Q 54.890625 34.8125 54.890625 23.390625 
Q 54.890625 11.625 47.5625 5.09375 
Q 40.234375 -1.421875 26.90625 -1.421875 
Q 22.3125 -1.421875 17.546875 -0.640625 
Q 12.796875 0.140625 7.71875 1.703125 
L 7.71875 11.625 
Q 12.109375 9.234375 16.796875 8.0625 
Q 21.484375 6.890625 26.703125 6.890625 
Q 35.15625 6.890625 40.078125 11.328125 
Q 45.015625 15.765625 45.015625 23.390625 
Q 45.015625 31 40.078125 35.4375 
Q 35.15625 39.890625 26.703125 39.890625 
Q 22.75 39.890625 18.8125 39.015625 
Q 14.890625 38.140625 10.796875 36.28125 
z
" id="DejaVuSans-53"/>
       </defs>
       <use xlink:href="#DejaVuSans-53"/>
       <use x="63.623047" xlink:href="#DejaVuSans-48"/>
      </g>
     </g>
    </g>
    <g id="ytick_7">
     <g id="line2d_16">
      <g>
       <use style="stroke:#000000;stroke-width:0.8;" x="108" xlink:href="#ma80a05ff1b" y="146.803821"/>
      </g>
     </g>
     <g id="text_17">
      <!-- 60 -->
      <g transform="translate(85.73 151.362883)scale(0.12 -0.12)">
       <defs>
        <path d="M 33.015625 40.375 
Q 26.375 40.375 22.484375 35.828125 
Q 18.609375 31.296875 18.609375 23.390625 
Q 18.609375 15.53125 22.484375 10.953125 
Q 26.375 6.390625 33.015625 6.390625 
Q 39.65625 6.390625 43.53125 10.953125 
Q 47.40625 15.53125 47.40625 23.390625 
Q 47.40625 31.296875 43.53125 35.828125 
Q 39.65625 40.375 33.015625 40.375 
z
M 52.59375 71.296875 
L 52.59375 62.3125 
Q 48.875 64.0625 45.09375 64.984375 
Q 41.3125 65.921875 37.59375 65.921875 
Q 27.828125 65.921875 22.671875 59.328125 
Q 17.53125 52.734375 16.796875 39.40625 
Q 19.671875 43.65625 24.015625 45.921875 
Q 28.375 48.1875 33.59375 48.1875 
Q 44.578125 48.1875 50.953125 41.515625 
Q 57.328125 34.859375 57.328125 23.390625 
Q 57.328125 12.15625 50.6875 5.359375 
Q 44.046875 -1.421875 33.015625 -1.421875 
Q 20.359375 -1.421875 13.671875 8.265625 
Q 6.984375 17.96875 6.984375 36.375 
Q 6.984375 53.65625 15.1875 63.9375 
Q 23.390625 74.21875 37.203125 74.21875 
Q 40.921875 74.21875 44.703125 73.484375 
Q 48.484375 72.75 52.59375 71.296875 
z
" id="DejaVuSans-54"/>
       </defs>
       <use xlink:href="#DejaVuSans-54"/>
       <use x="63.623047" xlink:href="#DejaVuSans-48"/>
      </g>
     </g>
    </g>
    <g id="ytick_8">
     <g id="line2d_17">
      <g>
       <use style="stroke:#000000;stroke-width:0.8;" x="108" xlink:href="#ma80a05ff1b" y="96.953743"/>
      </g>
     </g>
     <g id="text_18">
      <!-- 70 -->
      <g transform="translate(85.73 101.512806)scale(0.12 -0.12)">
       <use xlink:href="#DejaVuSans-55"/>
       <use x="63.623047" xlink:href="#DejaVuSans-48"/>
      </g>
     </g>
    </g>
    <g id="text_19">
     <!-- PM2.5(micro-gram/m3) -->
     <g transform="translate(78.610469 351.945937)rotate(-90)scale(0.15 -0.15)">
      <defs>
       <path d="M 19.671875 64.796875 
L 19.671875 37.40625 
L 32.078125 37.40625 
Q 38.96875 37.40625 42.71875 40.96875 
Q 46.484375 44.53125 46.484375 51.125 
Q 46.484375 57.671875 42.71875 61.234375 
Q 38.96875 64.796875 32.078125 64.796875 
z
M 9.8125 72.90625 
L 32.078125 72.90625 
Q 44.34375 72.90625 50.609375 67.359375 
Q 56.890625 61.8125 56.890625 51.125 
Q 56.890625 40.328125 50.609375 34.8125 
Q 44.34375 29.296875 32.078125 29.296875 
L 19.671875 29.296875 
L 19.671875 0 
L 9.8125 0 
z
" id="DejaVuSans-80"/>
       <path d="M 9.8125 72.90625 
L 24.515625 72.90625 
L 43.109375 23.296875 
L 61.8125 72.90625 
L 76.515625 72.90625 
L 76.515625 0 
L 66.890625 0 
L 66.890625 64.015625 
L 48.09375 14.015625 
L 38.1875 14.015625 
L 19.390625 64.015625 
L 19.390625 0 
L 9.8125 0 
z
" id="DejaVuSans-77"/>
       <path d="M 10.6875 12.40625 
L 21 12.40625 
L 21 0 
L 10.6875 0 
z
" id="DejaVuSans-46"/>
       <path d="M 31 75.875 
Q 24.46875 64.65625 21.28125 53.65625 
Q 18.109375 42.671875 18.109375 31.390625 
Q 18.109375 20.125 21.3125 9.0625 
Q 24.515625 -2 31 -13.1875 
L 23.1875 -13.1875 
Q 15.875 -1.703125 12.234375 9.375 
Q 8.59375 20.453125 8.59375 31.390625 
Q 8.59375 42.28125 12.203125 53.3125 
Q 15.828125 64.359375 23.1875 75.875 
z
" id="DejaVuSans-40"/>
       <path d="M 52 44.1875 
Q 55.375 50.25 60.0625 53.125 
Q 64.75 56 71.09375 56 
Q 79.640625 56 84.28125 50.015625 
Q 88.921875 44.046875 88.921875 33.015625 
L 88.921875 0 
L 79.890625 0 
L 79.890625 32.71875 
Q 79.890625 40.578125 77.09375 44.375 
Q 74.3125 48.1875 68.609375 48.1875 
Q 61.625 48.1875 57.5625 43.546875 
Q 53.515625 38.921875 53.515625 30.90625 
L 53.515625 0 
L 44.484375 0 
L 44.484375 32.71875 
Q 44.484375 40.625 41.703125 44.40625 
Q 38.921875 48.1875 33.109375 48.1875 
Q 26.21875 48.1875 22.15625 43.53125 
Q 18.109375 38.875 18.109375 30.90625 
L 18.109375 0 
L 9.078125 0 
L 9.078125 54.6875 
L 18.109375 54.6875 
L 18.109375 46.1875 
Q 21.1875 51.21875 25.484375 53.609375 
Q 29.78125 56 35.6875 56 
Q 41.65625 56 45.828125 52.96875 
Q 50 49.953125 52 44.1875 
z
" id="DejaVuSans-109"/>
       <path d="M 9.421875 54.6875 
L 18.40625 54.6875 
L 18.40625 0 
L 9.421875 0 
z
M 9.421875 75.984375 
L 18.40625 75.984375 
L 18.40625 64.59375 
L 9.421875 64.59375 
z
" id="DejaVuSans-105"/>
       <path d="M 48.78125 52.59375 
L 48.78125 44.1875 
Q 44.96875 46.296875 41.140625 47.34375 
Q 37.3125 48.390625 33.40625 48.390625 
Q 24.65625 48.390625 19.8125 42.84375 
Q 14.984375 37.3125 14.984375 27.296875 
Q 14.984375 17.28125 19.8125 11.734375 
Q 24.65625 6.203125 33.40625 6.203125 
Q 37.3125 6.203125 41.140625 7.25 
Q 44.96875 8.296875 48.78125 10.40625 
L 48.78125 2.09375 
Q 45.015625 0.34375 40.984375 -0.53125 
Q 36.96875 -1.421875 32.421875 -1.421875 
Q 20.0625 -1.421875 12.78125 6.34375 
Q 5.515625 14.109375 5.515625 27.296875 
Q 5.515625 40.671875 12.859375 48.328125 
Q 20.21875 56 33.015625 56 
Q 37.15625 56 41.109375 55.140625 
Q 45.0625 54.296875 48.78125 52.59375 
z
" id="DejaVuSans-99"/>
       <path d="M 41.109375 46.296875 
Q 39.59375 47.171875 37.8125 47.578125 
Q 36.03125 48 33.890625 48 
Q 26.265625 48 22.1875 43.046875 
Q 18.109375 38.09375 18.109375 28.8125 
L 18.109375 0 
L 9.078125 0 
L 9.078125 54.6875 
L 18.109375 54.6875 
L 18.109375 46.1875 
Q 20.953125 51.171875 25.484375 53.578125 
Q 30.03125 56 36.53125 56 
Q 37.453125 56 38.578125 55.875 
Q 39.703125 55.765625 41.0625 55.515625 
z
" id="DejaVuSans-114"/>
       <path d="M 30.609375 48.390625 
Q 23.390625 48.390625 19.1875 42.75 
Q 14.984375 37.109375 14.984375 27.296875 
Q 14.984375 17.484375 19.15625 11.84375 
Q 23.34375 6.203125 30.609375 6.203125 
Q 37.796875 6.203125 41.984375 11.859375 
Q 46.1875 17.53125 46.1875 27.296875 
Q 46.1875 37.015625 41.984375 42.703125 
Q 37.796875 48.390625 30.609375 48.390625 
z
M 30.609375 56 
Q 42.328125 56 49.015625 48.375 
Q 55.71875 40.765625 55.71875 27.296875 
Q 55.71875 13.875 49.015625 6.21875 
Q 42.328125 -1.421875 30.609375 -1.421875 
Q 18.84375 -1.421875 12.171875 6.21875 
Q 5.515625 13.875 5.515625 27.296875 
Q 5.515625 40.765625 12.171875 48.375 
Q 18.84375 56 30.609375 56 
z
" id="DejaVuSans-111"/>
       <path d="M 45.40625 27.984375 
Q 45.40625 37.75 41.375 43.109375 
Q 37.359375 48.484375 30.078125 48.484375 
Q 22.859375 48.484375 18.828125 43.109375 
Q 14.796875 37.75 14.796875 27.984375 
Q 14.796875 18.265625 18.828125 12.890625 
Q 22.859375 7.515625 30.078125 7.515625 
Q 37.359375 7.515625 41.375 12.890625 
Q 45.40625 18.265625 45.40625 27.984375 
z
M 54.390625 6.78125 
Q 54.390625 -7.171875 48.1875 -13.984375 
Q 42 -20.796875 29.203125 -20.796875 
Q 24.46875 -20.796875 20.265625 -20.09375 
Q 16.0625 -19.390625 12.109375 -17.921875 
L 12.109375 -9.1875 
Q 16.0625 -11.328125 19.921875 -12.34375 
Q 23.78125 -13.375 27.78125 -13.375 
Q 36.625 -13.375 41.015625 -8.765625 
Q 45.40625 -4.15625 45.40625 5.171875 
L 45.40625 9.625 
Q 42.625 4.78125 38.28125 2.390625 
Q 33.9375 0 27.875 0 
Q 17.828125 0 11.671875 7.65625 
Q 5.515625 15.328125 5.515625 27.984375 
Q 5.515625 40.671875 11.671875 48.328125 
Q 17.828125 56 27.875 56 
Q 33.9375 56 38.28125 53.609375 
Q 42.625 51.21875 45.40625 46.390625 
L 45.40625 54.6875 
L 54.390625 54.6875 
z
" id="DejaVuSans-103"/>
       <path d="M 25.390625 72.90625 
L 33.6875 72.90625 
L 8.296875 -9.28125 
L 0 -9.28125 
z
" id="DejaVuSans-47"/>
       <path d="M 8.015625 75.875 
L 15.828125 75.875 
Q 23.140625 64.359375 26.78125 53.3125 
Q 30.421875 42.28125 30.421875 31.390625 
Q 30.421875 20.453125 26.78125 9.375 
Q 23.140625 -1.703125 15.828125 -13.1875 
L 8.015625 -13.1875 
Q 14.5 -2 17.703125 9.0625 
Q 20.90625 20.125 20.90625 31.390625 
Q 20.90625 42.671875 17.703125 53.65625 
Q 14.5 64.65625 8.015625 75.875 
z
" id="DejaVuSans-41"/>
      </defs>
      <use xlink:href="#DejaVuSans-80"/>
      <use x="60.302734" xlink:href="#DejaVuSans-77"/>
      <use x="146.582031" xlink:href="#DejaVuSans-50"/>
      <use x="210.205078" xlink:href="#DejaVuSans-46"/>
      <use x="241.992188" xlink:href="#DejaVuSans-53"/>
      <use x="305.615234" xlink:href="#DejaVuSans-40"/>
      <use x="344.628906" xlink:href="#DejaVuSans-109"/>
      <use x="442.041016" xlink:href="#DejaVuSans-105"/>
      <use x="469.824219" xlink:href="#DejaVuSans-99"/>
      <use x="524.804688" xlink:href="#DejaVuSans-114"/>
      <use x="563.667969" xlink:href="#DejaVuSans-111"/>
      <use x="626.724609" xlink:href="#DejaVuSans-45"/>
      <use x="662.808594" xlink:href="#DejaVuSans-103"/>
      <use x="726.285156" xlink:href="#DejaVuSans-114"/>
      <use x="767.398438" xlink:href="#DejaVuSans-97"/>
      <use x="828.677734" xlink:href="#DejaVuSans-109"/>
      <use x="926.089844" xlink:href="#DejaVuSans-47"/>
      <use x="959.78125" xlink:href="#DejaVuSans-109"/>
      <use x="1057.193359" xlink:href="#DejaVuSans-51"/>
      <use x="1120.816406" xlink:href="#DejaVuSans-41"/>
     </g>
    </g>
   </g>
   <g id="line2d_18">
    <path clip-path="url(#pdc0d0a55f9)" d="M 138.436364 256.6817 
L 139.273678 344.127044 
L 140.110992 351.396846 
L 140.948306 333.118485 
L 141.78562 337.064949 
L 142.622934 328.964312 
L 143.460248 307.778029 
L 144.297562 276.829439 
L 145.134876 344.542461 
L 145.97219 313.80158 
L 146.809504 310.062824 
L 147.646818 299.979513 
L 148.484132 282.437573 
L 149.321446 345.996421 
L 150.15876 342.673083 
L 150.996074 283.683825 
L 151.833388 320.448257 
L 152.670702 278.698817 
L 153.508016 289.915084 
L 154.345329 318.994296 
L 155.182643 352.850807 
L 156.019957 363.443949 
L 156.857271 401.454633 
L 157.694585 413.501735 
L 158.531899 396.054207 
L 159.369213 355.758728 
L 160.206527 331.664524 
L 161.043841 322.940761 
L 161.881155 320.448257 
L 162.718469 313.178454 
L 163.555783 320.448257 
L 164.393097 370.506043 
L 165.230411 379.059863 
L 166.905039 334.157028 
L 167.742353 407.270475 
L 168.579667 386.084192 
L 169.416981 346.619547 
L 170.254295 313.386163 
L 171.091609 296.146344 
L 171.928923 374.03709 
L 172.766237 385.668775 
L 173.603551 364.6902 
L 174.440865 434.688017 
L 175.278179 398.546711 
L 176.115493 394.921251 
L 176.952807 372.167712 
L 177.790121 364.067074 
L 178.627435 376.529594 
L 179.464749 300.715935 
L 180.302063 341.219122 
L 181.139377 328.756603 
L 181.976691 340.803705 
L 182.814005 364.784613 
L 183.651319 376.114177 
L 184.488633 362.820823 
L 185.325947 364.482492 
L 186.163261 355.135602 
L 187.000575 363.651657 
L 187.837889 356.797272 
L 188.675203 390.635721 
L 189.512517 397.508168 
L 191.187145 307.778029 
L 192.861773 377.983554 
L 193.699087 383.176271 
L 194.536401 352.019972 
L 195.373715 311.101367 
L 196.211029 246.919393 
L 197.048343 365.313326 
L 197.885657 287.422581 
L 198.722971 330.625981 
L 199.560285 331.899325 
L 200.397599 317.955753 
L 201.234913 348.904343 
L 202.072227 282.437573 
L 202.909541 307.154903 
L 203.746855 327.925768 
L 204.584169 354.927894 
L 205.421483 340.76594 
L 206.258797 365.728744 
L 207.096111 342.673083 
L 207.933425 362.820823 
L 208.770739 366.767287 
L 209.608053 398.962129 
L 210.445367 388.784405 
L 211.282681 363.028531 
L 212.119995 362.405405 
L 212.957309 355.135602 
L 215.469251 390.238365 
L 216.306565 390.238365 
L 217.981193 331.664524 
L 218.818507 378.398972 
L 219.655821 359.497484 
L 220.493135 328.133477 
L 221.330449 396.677333 
L 223.005077 334.780154 
L 223.842391 274.129227 
L 224.679705 340.180579 
L 225.517019 368.636665 
L 226.354333 343.296209 
L 228.028961 386.300931 
L 228.866275 396.885042 
L 229.703589 409.347561 
L 230.540903 381.514602 
L 231.378217 342.049957 
L 232.215531 294.900092 
L 233.052845 124.578995 
L 233.890159 187.307009 
L 234.727473 336.441823 
L 235.564787 355.135602 
L 236.402101 348.904343 
L 237.239415 382.137728 
L 238.076729 372.167712 
L 238.914043 385.876483 
L 239.751357 404.154845 
L 240.588671 403.640089 
L 241.425985 402.077758 
L 242.263299 412.047774 
L 243.100613 411.840065 
L 243.937927 410.178396 
L 244.775241 417.448199 
L 245.612555 387.745861 
L 247.287183 264.782337 
L 248.124497 351.812264 
L 248.961811 390.446074 
L 249.799125 418.90216 
L 250.636439 413.709443 
L 251.473753 410.593813 
L 252.311067 400.831507 
L 253.148381 397.137905 
L 253.985695 376.737302 
L 254.823009 373.621673 
L 255.660323 416.617364 
L 256.497637 418.279034 
L 257.334951 415.78653 
L 258.172265 378.93179 
L 259.009579 324.187013 
L 259.846893 327.925768 
L 260.684207 380.891476 
L 261.521521 424.302585 
L 263.196149 415.994238 
L 264.033463 419.84629 
L 264.870777 414.747986 
L 265.708091 412.743146 
L 266.545405 409.970687 
L 267.382719 415.371112 
L 268.220033 396.469625 
L 269.057347 393.561704 
L 269.89466 402.493176 
L 270.731974 418.694451 
L 271.569288 421.412725 
L 272.406602 429.70301 
L 273.243916 421.810081 
L 274.08123 428.872175 
L 274.918544 413.709443 
L 275.755858 430.949262 
L 276.593172 419.109868 
L 277.430486 422.640915 
L 278.2678 416.825073 
L 279.105114 414.747986 
L 279.942428 429.495301 
L 280.779742 410.178396 
L 281.617056 409.925533 
L 282.45437 403.531719 
L 283.291684 419.317577 
L 284.128998 414.747986 
L 284.966312 418.694451 
L 285.803626 425.548837 
L 286.64094 425.341128 
L 287.478254 425.548837 
L 288.315568 434.895726 
L 289.990196 418.90216 
L 290.82751 414.747986 
L 291.664824 414.540278 
L 292.502138 411.216939 
L 293.339452 405.816514 
L 294.176766 397.923585 
L 295.01408 392.938578 
L 295.851394 400.831507 
L 296.688708 396.261916 
L 297.526022 424.925711 
L 298.363336 413.917152 
L 299.20065 405.193388 
L 300.875278 413.393365 
L 301.712592 416.201947 
L 302.549906 416.617364 
L 303.38722 420.35612 
L 304.224534 411.009231 
L 305.061848 431.780096 
L 305.899162 432.195514 
L 306.736476 429.287592 
L 307.57379 411.009231 
L 308.411104 405.401097 
L 309.248418 412.6709 
L 310.085732 416.825073 
L 310.923046 415.163404 
L 311.76036 429.287592 
L 312.597674 429.215346 
L 313.434988 430.949262 
L 314.272302 430.496079 
L 315.109616 435.254496 
L 315.94693 438.426773 
L 316.784244 436.141978 
L 317.621558 417.032782 
L 318.458872 426.379671 
L 319.296186 423.679459 
L 320.1335 431.572388 
L 320.970814 421.186955 
L 321.808128 398.131294 
L 322.645442 404.98568 
L 323.482756 433.333396 
L 324.32007 431.364679 
L 325.157384 423.887167 
L 325.994698 410.593813 
L 326.832012 431.780096 
L 327.669326 417.863616 
L 328.50664 406.855058 
L 329.343954 431.364679 
L 330.181268 422.848624 
L 331.018582 350.566012 
L 331.855896 332.495359 
L 332.69321 394.392538 
L 333.530524 383.591688 
L 334.367838 412.433519 
L 335.205152 398.131294 
L 336.042466 370.69569 
L 336.87978 327.510351 
L 337.717094 324.187013 
L 338.554408 327.302642 
L 339.391722 368.428956 
L 340.229036 229.056448 
L 342.740978 318.578879 
L 343.578292 388.368987 
L 344.415606 394.392538 
L 345.25292 424.718002 
L 346.090234 436.765104 
L 346.927548 403.531719 
L 347.764862 380.164495 
L 348.602176 386.915027 
L 349.43949 401.662341 
L 350.276804 386.707318 
L 351.114118 411.009231 
L 351.951432 428.04134 
L 352.788746 436.141978 
L 353.62606 429.495301 
L 354.463374 434.895726 
L 355.300688 424.094876 
L 356.138002 435.934269 
L 356.975316 436.557395 
L 357.81263 409.970687 
L 358.649944 406.891181 
L 359.487258 374.452507 
L 360.324572 364.067074 
L 361.161886 381.72231 
L 361.9992 395.431081 
L 362.836514 379.852932 
L 363.673828 408.516727 
L 364.511142 425.133419 
L 365.348456 393.353995 
L 366.18577 369.675208 
L 367.023084 381.099184 
L 367.860398 347.450382 
L 368.697712 360.12061 
L 369.535026 340.452198 
L 370.37234 355.343311 
L 371.209654 359.912901 
L 372.046968 313.178454 
L 372.884282 285.345494 
L 373.721596 311.724493 
L 374.55891 321.279091 
L 375.396224 403.531719 
L 376.233538 381.306893 
L 377.070852 380.891476 
L 377.908166 345.788713 
L 378.74548 330.83369 
L 379.582794 353.058516 
L 380.420108 349.527469 
L 381.257422 346.515693 
L 382.094736 297.778341 
L 382.93205 338.51891 
L 383.769364 330.418272 
L 384.606678 312.555328 
L 385.443991 309.439698 
L 386.281305 347.865799 
L 387.118619 358.043523 
L 387.955933 356.174146 
L 388.793247 310.478241 
L 389.630561 272.467557 
L 390.467875 334.364737 
L 391.305189 321.4868 
L 392.142503 249.411897 
L 392.979817 319.825131 
L 393.817131 286.799455 
L 394.654445 365.710682 
L 395.491759 210.778087 
L 396.329073 263.328377 
L 397.166387 262.912959 
L 398.003701 295.938635 
L 398.841015 277.452565 
L 399.678329 325.017847 
L 400.515643 340.665233 
L 401.352957 327.302642 
L 402.190271 318.37117 
L 403.027585 316.294084 
L 403.864899 327.925768 
L 404.702213 387.95357 
L 405.539527 399.955518 
L 406.376841 389.822948 
L 407.214155 382.137728 
L 408.051469 371.752295 
L 408.888783 380.26835 
L 410.563411 282.437573 
L 411.400725 304.662399 
L 412.238039 293.65384 
L 413.075353 327.71806 
L 413.912667 338.934327 
L 414.749981 361.366862 
L 415.587295 341.842248 
L 416.424609 316.709501 
L 417.261923 312.763037 
L 418.099237 311.525815 
L 418.936551 312.139911 
L 419.773865 266.444006 
L 420.611179 200.808071 
L 421.448493 176.487276 
L 422.285807 245.465432 
L 423.123121 207.247039 
L 423.960435 210.985795 
L 424.797749 212.855173 
L 425.635063 197.304116 
L 426.472377 335.184639 
L 427.309691 307.154903 
L 428.147005 376.376545 
L 428.984319 330.16541 
L 429.821633 321.902217 
L 430.658947 325.848682 
L 431.496261 307.362611 
L 432.333575 252.112109 
L 433.170889 205.169953 
L 434.008203 181.698875 
L 434.845517 168.61323 
L 435.682831 283.060699 
L 436.520145 251.073566 
L 437.357459 339.142036 
L 438.194773 210.985795 
L 439.032087 290.745919 
L 439.869401 298.304708 
L 440.706715 366.559578 
L 441.544029 347.963545 
L 442.381343 346.827256 
L 443.218657 342.049957 
L 444.055971 271.844431 
L 444.893285 273.090683 
L 445.730599 203.715992 
L 446.567913 255.435448 
L 447.405227 191.045764 
L 448.242541 304.246982 
L 449.079855 358.874358 
L 449.917169 334.157028 
L 450.754483 334.157028 
L 451.591797 279.114234 
L 452.429111 247.542519 
L 453.266425 200.12173 
L 454.103739 252.527526 
L 454.941053 272.259849 
L 455.778367 182.114292 
L 456.615681 244.634597 
L 457.452995 272.637501 
L 458.290309 337.480367 
L 459.127623 241.726676 
L 459.964937 240.688133 
L 460.802251 199.826176 
L 461.639565 208.701 
L 462.476879 309.647407 
L 463.314193 218.04789 
L 464.151507 253.981487 
L 464.988821 251.272244 
L 465.826135 356.797272 
L 466.663449 310.68595 
L 467.500763 373.621673 
L 468.338077 376.945011 
L 469.175391 317.124918 
L 470.012705 322.940761 
L 470.850019 344.542461 
L 471.687333 352.43539 
L 472.524647 325.225556 
L 473.361961 315.047832 
L 474.199275 321.279091 
L 475.036589 329.515191 
L 475.873903 422.225498 
L 476.711217 404.362554 
L 477.548531 367.598122 
L 478.385845 349.942886 
L 479.223159 350.773721 
L 480.060473 309.855115 
L 480.897787 345.581004 
L 481.735101 355.135602 
L 482.572415 323.563887 
L 483.409729 333.118485 
L 484.247043 325.017847 
L 485.084357 308.401155 
L 485.921671 317.540336 
L 486.758985 323.979304 
L 487.596299 360.328319 
L 488.433613 379.148529 
L 489.270927 379.022098 
L 490.108241 343.0885 
L 490.945555 361.159153 
L 491.782869 354.512476 
L 492.620183 377.568137 
L 493.457497 370.298334 
L 494.294811 293.446132 
L 495.132125 249.204188 
L 495.969439 329.795146 
L 496.806753 349.112051 
L 497.644067 376.114177 
L 498.481381 334.421385 
L 499.318695 336.026406 
L 500.156009 366.974996 
L 500.993322 318.163462 
L 501.830636 334.780154 
L 502.66795 312.139911 
L 503.505264 353.266224 
L 504.342578 333.118485 
L 506.017206 357.041103 
L 506.85452 379.852932 
L 507.691834 378.398972 
L 508.529148 331.456816 
L 509.366462 330.418272 
L 510.203776 282.437573 
L 511.04109 189.284756 
L 511.878404 219.679886 
L 512.715718 366.35187 
L 513.553032 342.049957 
L 514.390346 332.495359 
L 515.22766 389.40753 
L 516.064974 391.692326 
L 516.902288 388.161279 
L 517.739602 387.95357 
L 518.576916 385.253357 
L 519.41423 382.968562 
L 520.251544 307.154903 
L 521.088858 316.91721 
L 521.926172 280.983612 
L 522.763486 356.824364 
L 523.6008 344.127044 
L 524.438114 347.865799 
L 525.275428 344.334752 
L 526.950056 383.591688 
L 527.78737 382.553145 
L 528.624684 377.360428 
L 529.461998 380.476058 
L 530.299312 359.289775 
L 531.136626 325.640973 
L 531.97394 253.773778 
L 532.811254 312.392773 
L 533.648568 358.043523 
L 534.485882 347.658091 
L 535.323196 345.373295 
L 536.16051 340.180579 
L 536.997824 374.660216 
L 537.835138 367.80583 
L 538.672452 379.645224 
L 539.509766 401.039215 
L 540.34708 372.375421 
L 541.184394 359.289775 
L 542.021708 321.279091 
L 542.859022 346.20413 
L 543.696336 360.328319 
L 544.53365 380.683767 
L 545.370964 394.392538 
L 546.208278 329.379729 
L 547.045592 347.938046 
L 547.882906 370.92146 
L 548.72022 370.090626 
L 550.394848 412.047774 
L 551.232162 408.724435 
L 552.069476 395.223373 
L 552.90679 384.422523 
L 553.744104 394.600247 
L 554.581418 399.169837 
L 555.418732 413.709443 
L 556.256046 411.424648 
L 557.09336 403.32401 
L 557.930674 398.339003 
L 559.605302 419.940703 
L 560.442616 419.940703 
L 561.27993 435.934269 
L 562.954558 433.026348 
L 563.791872 435.311143 
L 564.629186 428.04134 
L 565.4665 425.133419 
L 566.303814 427.264691 
L 567.141128 406.855058 
L 567.978442 401.454633 
L 568.815756 429.079884 
L 569.65307 413.501735 
L 570.490384 413.393365 
L 571.327698 403.531719 
L 573.002326 303.416147 
L 573.83964 393.353995 
L 574.676954 407.478184 
L 575.514268 430.741553 
L 576.351582 430.118427 
L 577.188896 430.326136 
L 578.02621 433.857183 
L 578.863524 427.002797 
L 579.700838 425.133419 
L 580.538152 420.771537 
L 581.375466 412.255483 
L 582.21278 408.932144 
L 583.050094 413.275143 
L 583.887408 399.792963 
L 584.724722 389.822948 
L 585.562036 385.876483 
L 586.39935 410.386105 
L 587.236664 415.78653 
L 588.073978 416.825073 
L 588.911292 411.009231 
L 589.748606 393.769412 
L 590.58592 387.538153 
L 591.423234 396.677333 
L 592.260548 388.368987 
L 593.097862 383.799397 
L 593.935176 389.822948 
L 594.77249 386.499609 
L 595.609804 395.431081 
L 596.447118 407.478184 
L 597.284432 429.910718 
L 598.121746 425.756545 
L 598.95906 422.640915 
L 599.796374 423.264041 
L 600.633688 414.955695 
L 601.471002 434.895726 
L 602.308316 429.910718 
L 603.982944 433.026348 
L 604.820258 423.056333 
L 605.657572 439.55973 
L 606.494886 429.70301 
L 607.3322 394.320292 
L 608.169514 428.249049 
L 609.006828 442.996364 
L 609.844142 438.011356 
L 611.51877 416.617364 
L 613.193398 340.388288 
L 614.030712 364.897909 
L 614.868026 408.516727 
L 615.70534 315.047832 
L 616.542653 368.844374 
L 617.379967 409.708794 
L 618.217281 426.58738 
L 619.054595 413.501735 
L 619.891909 412.047774 
L 620.729223 397.092751 
L 621.566537 430.326136 
L 622.403851 365.936452 
L 623.241165 380.26835 
L 624.078479 368.636665 
L 624.915793 375.283342 
L 625.753107 394.807956 
L 626.590421 407.062766 
L 627.427735 396.885042 
L 628.265049 415.371112 
L 629.102363 426.644028 
L 629.939677 414.332569 
L 630.776991 426.379671 
L 631.614305 429.495301 
L 632.451619 426.58738 
L 633.288933 415.371112 
L 634.126247 412.463191 
L 634.963561 419.525286 
L 635.800875 423.887167 
L 636.638189 434.2726 
L 637.475503 434.895726 
L 638.312817 429.079884 
L 639.150131 434.064891 
L 639.987445 430.949262 
L 640.824759 430.949262 
L 641.662073 423.056333 
L 642.499387 428.456758 
L 643.336701 428.04134 
L 645.011329 405.401097 
L 645.848643 424.718002 
L 646.685957 436.141978 
L 647.523271 439.673025 
L 648.360585 437.180521 
L 649.197899 435.726561 
L 650.035213 405.193388 
L 651.709841 429.495301 
L 652.547155 379.437515 
L 653.384469 397.092751 
L 654.221783 394.392538 
L 655.059097 350.981429 
L 656.733725 424.718002 
L 657.571039 403.739428 
L 658.408353 404.362554 
L 659.245667 364.274783 
L 660.082981 354.720185 
L 660.920295 435.103435 
L 661.757609 432.195514 
L 662.594923 428.872175 
L 663.432237 440.711568 
L 664.269551 440.239503 
L 665.944179 399.792963 
L 667.618807 346.411839 
L 668.456121 336.649532 
L 669.293435 331.249107 
L 670.130749 310.893659 
L 670.968063 311.932202 
L 671.805377 376.945011 
L 672.642691 400.831507 
L 673.480005 387.122735 
L 674.317319 380.476058 
L 675.154633 377.775846 
L 675.991947 402.908593 
L 676.829261 440.466095 
L 677.666575 424.094876 
L 678.503889 423.056333 
L 679.341203 356.853919 
L 680.178517 403.116302 
L 681.015831 419.317577 
L 681.853145 403.739428 
L 682.690459 363.028531 
L 684.365087 414.332569 
L 685.202401 357.420398 
L 686.039715 333.860301 
L 686.877029 384.214814 
L 687.714343 408.101309 
L 688.551657 411.216939 
L 689.388971 348.904343 
L 690.226285 382.812781 
L 691.063599 370.064978 
L 691.900913 302.377604 
L 693.575541 330.210564 
L 694.412855 323.148469 
L 695.250169 303.831564 
L 696.087483 309.024281 
L 696.924797 304.662399 
L 697.762111 360.12061 
L 698.599425 321.902217 
L 699.436739 353.573272 
L 700.274053 364.482492 
L 701.111367 396.677333 
L 701.948681 401.039215 
L 702.785995 414.747986 
L 703.623309 385.417447 
L 704.460623 387.666932 
L 706.135251 339.349744 
L 706.972565 343.711626 
L 707.809879 346.827256 
L 708.647193 341.426831 
L 709.484507 281.172438 
L 710.321821 257.720243 
L 711.159135 342.880792 
L 711.996449 291.784462 
L 712.833763 359.912901 
L 713.671077 364.6902 
L 714.508391 397.092751 
L 715.345705 342.673083 
L 716.183019 314.009288 
L 717.020333 280.775904 
L 717.857647 303.416147 
L 718.694961 318.578879 
L 719.532275 280.152778 
L 720.369589 289.499667 
L 721.206903 283.476116 
L 722.044217 356.797272 
L 722.881531 349.021743 
L 723.718845 367.598122 
L 724.556159 363.859366 
L 725.393473 310.478241 
L 726.230787 310.68595 
L 727.068101 311.101367 
L 727.905415 353.266224 
L 728.742729 327.925768 
L 729.580043 334.364737 
L 730.417357 353.681642 
L 732.091984 150.957994 
L 732.929298 224.298032 
L 733.766612 313.386163 
L 734.603926 345.996421 
L 735.44124 344.75017 
L 736.278554 249.204188 
L 737.115868 283.891533 
L 737.953182 324.60243 
L 738.790496 405.401097 
L 740.465124 294.484675 
L 741.302438 133.302758 
L 742.139752 252.527526 
L 742.977066 279.945069 
L 743.81438 338.51891 
L 744.651694 273.090683 
L 745.489008 218.671016 
L 746.326322 294.767914 
L 747.163636 286.799455 
L 747.163636 286.799455 
" style="fill:none;stroke:#1f77b4;stroke-linecap:square;stroke-width:1.5;"/>
   </g>
   <g id="line2d_19">
    <path clip-path="url(#pdc0d0a55f9)" d="M 138.436364 287.993862 
L 139.273678 342.94836 
L 140.110992 329.193417 
L 140.948306 239.711355 
L 141.78562 210.05006 
L 142.622934 271.548589 
L 143.460248 229.216489 
L 144.297562 221.32081 
L 145.134876 226.978024 
L 145.97219 124.152751 
L 146.809504 232.282582 
L 147.646818 166.958146 
L 148.484132 230.057922 
L 149.321446 227.601588 
L 150.15876 277.633366 
L 150.996074 255.685727 
L 151.833388 279.59986 
L 152.670702 139.542467 
L 153.508016 237.050994 
L 154.345329 222.507407 
L 155.182643 201.798281 
L 156.019957 347.890581 
L 156.857271 317.102001 
L 157.694585 311.152505 
L 158.531899 191.924127 
L 159.369213 206.168226 
L 160.206527 159.04016 
L 161.043841 181.117965 
L 161.881155 252.238529 
L 162.718469 235.017715 
L 163.555783 334.073131 
L 164.393097 231.430424 
L 165.230411 289.110831 
L 166.067725 286.873241 
L 166.905039 222.730697 
L 167.742353 342.527472 
L 168.579667 340.276941 
L 169.416981 311.019819 
L 171.091609 209.764949 
L 171.928923 225.119334 
L 172.766237 335.302269 
L 173.603551 171.808633 
L 174.440865 338.320526 
L 175.278179 245.764584 
L 176.115493 222.427786 
L 176.952807 268.656742 
L 177.790121 267.313831 
L 178.627435 347.249827 
L 179.464749 264.849832 
L 180.302063 330.459103 
L 181.139377 324.951737 
L 181.976691 293.706775 
L 182.814005 243.923331 
L 183.651319 267.67959 
L 184.488633 326.388684 
L 185.325947 300.089947 
L 186.163261 222.217827 
L 187.000575 207.94817 
L 187.837889 279.330057 
L 188.675203 241.288661 
L 189.512517 275.611059 
L 190.349831 268.723204 
L 191.187145 243.133033 
L 192.024459 282.230346 
L 192.861773 172.483008 
L 193.699087 220.209573 
L 194.536401 225.681094 
L 195.373715 278.458578 
L 196.211029 143.759464 
L 197.048343 345.701948 
L 197.885657 142.793322 
L 198.722971 307.961153 
L 199.560285 321.672482 
L 200.397599 236.091679 
L 201.234913 242.236586 
L 202.072227 232.184876 
L 202.909541 294.03029 
L 203.746855 191.051507 
L 204.584169 276.977246 
L 205.421483 175.311548 
L 206.258797 301.775817 
L 207.096111 214.179316 
L 207.933425 215.586008 
L 208.770739 271.067267 
L 209.608053 280.965591 
L 210.445367 225.734682 
L 211.282681 348.50571 
L 212.957309 302.437071 
L 213.794623 212.387772 
L 214.631937 345.215777 
L 215.469251 245.414874 
L 216.306565 335.600815 
L 217.143879 334.366905 
L 217.981193 178.781509 
L 218.818507 283.222882 
L 219.655821 293.532054 
L 220.493135 310.362968 
L 221.330449 368.492003 
L 222.167763 260.298339 
L 223.005077 278.991338 
L 223.842391 220.769907 
L 224.679705 301.833532 
L 225.517019 359.316142 
L 226.354333 353.814708 
L 227.191647 368.673628 
L 228.028961 315.440832 
L 228.866275 340.415408 
L 229.703589 372.949085 
L 230.540903 354.953965 
L 231.378217 225.968221 
L 233.052845 146.378255 
L 233.890159 154.637565 
L 234.727473 325.917413 
L 235.564787 340.335235 
L 236.402101 341.515501 
L 237.239415 346.753197 
L 238.076729 354.566023 
L 238.914043 327.850448 
L 239.751357 389.036286 
L 240.588671 411.13731 
L 241.425985 403.321869 
L 242.263299 351.602314 
L 243.100613 395.535885 
L 243.937927 358.11802 
L 244.775241 310.28772 
L 245.612555 333.984249 
L 246.449869 315.53251 
L 247.287183 232.01856 
L 248.124497 274.142373 
L 248.961811 269.723005 
L 249.799125 342.585091 
L 250.636439 270.541048 
L 251.473753 264.298303 
L 252.311067 308.373245 
L 253.148381 141.650195 
L 253.985695 304.692251 
L 254.823009 377.937274 
L 255.660323 205.474474 
L 257.334951 314.045759 
L 258.172265 407.169769 
L 259.009579 225.103493 
L 259.846893 280.360835 
L 260.684207 326.061252 
L 261.521521 276.622041 
L 262.358835 417.585831 
L 263.196149 209.841395 
L 264.033463 372.608874 
L 264.870777 287.990106 
L 265.708091 226.21954 
L 266.545405 338.969504 
L 267.382719 362.014773 
L 268.220033 378.634867 
L 269.057347 239.23222 
L 269.89466 379.497741 
L 270.731974 187.15754 
L 272.406602 377.252963 
L 273.243916 419.413307 
L 274.08123 429.507955 
L 274.918544 370.186431 
L 275.755858 356.531576 
L 276.593172 395.57522 
L 278.2678 425.973301 
L 279.105114 399.904736 
L 279.942428 420.93789 
L 280.779742 425.451693 
L 281.617056 399.611657 
L 282.45437 379.730748 
L 283.291684 364.468369 
L 284.128998 309.634073 
L 284.966312 353.320484 
L 285.803626 329.833933 
L 286.64094 394.936748 
L 287.478254 409.618821 
L 288.315568 408.240092 
L 289.152882 365.250918 
L 289.990196 351.156373 
L 290.82751 377.619758 
L 291.664824 348.799607 
L 292.502138 376.314442 
L 293.339452 380.250159 
L 294.176766 382.599442 
L 295.01408 309.639807 
L 296.688708 262.165986 
L 297.526022 344.577277 
L 298.363336 378.328981 
L 299.20065 401.17222 
L 300.037964 389.831196 
L 300.875278 386.625876 
L 301.712592 393.256963 
L 302.549906 398.131809 
L 303.38722 419.368304 
L 304.224534 403.431318 
L 305.061848 400.164299 
L 305.899162 400.553411 
L 306.736476 422.75408 
L 307.57379 426.349358 
L 308.411104 393.934589 
L 309.248418 373.995894 
L 310.923046 416.152592 
L 311.76036 416.895644 
L 312.597674 406.476255 
L 313.434988 391.015312 
L 314.272302 355.099829 
L 315.109616 356.621685 
L 315.94693 329.106256 
L 316.784244 385.799418 
L 317.621558 259.684455 
L 318.458872 424.460897 
L 319.296186 220.008799 
L 320.1335 387.716213 
L 320.970814 375.315777 
L 321.808128 397.276979 
L 322.645442 392.116622 
L 323.482756 391.859389 
L 324.32007 328.900775 
L 325.157384 315.343031 
L 325.994698 340.763017 
L 326.832012 392.601338 
L 328.50664 352.484138 
L 329.343954 312.278631 
L 330.181268 413.151963 
L 331.018582 202.593942 
L 331.855896 353.370383 
L 332.69321 359.15998 
L 333.530524 351.48197 
L 334.367838 365.777612 
L 335.205152 321.177582 
L 336.042466 317.621088 
L 336.87978 329.085594 
L 337.717094 206.800385 
L 338.554408 361.358996 
L 339.391722 331.407199 
L 340.229036 319.20332 
L 342.740978 259.410772 
L 343.578292 379.549095 
L 344.415606 318.698238 
L 345.25292 311.725685 
L 346.090234 375.174424 
L 346.927548 407.508383 
L 347.764862 233.608284 
L 348.602176 299.371026 
L 349.43949 354.276719 
L 350.276804 285.571623 
L 351.114118 381.939443 
L 351.951432 389.459038 
L 352.788746 389.99582 
L 353.62606 327.036608 
L 354.463374 395.1049 
L 355.300688 355.497783 
L 356.138002 367.405735 
L 356.975316 377.158223 
L 357.81263 407.818396 
L 358.649944 327.515581 
L 359.487258 381.719453 
L 360.324572 359.180394 
L 361.161886 242.624024 
L 361.9992 358.780899 
L 362.836514 340.913179 
L 363.673828 402.02936 
L 364.511142 193.367274 
L 365.348456 403.55713 
L 366.18577 227.669134 
L 367.023084 303.786762 
L 367.860398 333.021359 
L 368.697712 327.328679 
L 369.535026 338.780349 
L 370.37234 190.476245 
L 371.209654 326.242649 
L 372.046968 172.775973 
L 372.884282 181.516642 
L 373.721596 303.003728 
L 374.55891 260.850762 
L 375.396224 309.79342 
L 376.233538 384.114993 
L 377.070852 331.942089 
L 377.908166 314.745197 
L 378.74548 272.360775 
L 379.582794 269.03104 
L 380.420108 257.425585 
L 381.257422 338.211838 
L 382.094736 192.531507 
L 382.93205 275.734494 
L 383.769364 214.301229 
L 384.606678 274.777993 
L 385.443991 244.613071 
L 386.281305 223.176287 
L 387.118619 341.611904 
L 387.955933 365.773039 
L 388.793247 366.027506 
L 389.630561 255.53953 
L 390.467875 312.733929 
L 391.305189 324.454328 
L 392.142503 156.086949 
L 392.979817 314.233164 
L 393.817131 245.32932 
L 394.654445 317.383594 
L 395.491759 269.381301 
L 396.329073 193.472548 
L 397.166387 252.77302 
L 398.003701 239.67085 
L 398.841015 202.977539 
L 399.678329 320.945821 
L 400.515643 276.916223 
L 401.352957 277.383834 
L 402.190271 317.666024 
L 403.027585 346.735921 
L 403.864899 168.845742 
L 404.702213 372.879619 
L 405.539527 392.673058 
L 406.376841 319.865886 
L 407.214155 213.254706 
L 408.051469 231.668013 
L 408.888783 380.535537 
L 409.726097 233.691537 
L 410.563411 264.145963 
L 411.400725 269.729223 
L 412.238039 267.189255 
L 413.075353 226.889579 
L 413.912667 322.367061 
L 414.749981 307.639425 
L 415.587295 240.779918 
L 416.424609 259.053818 
L 417.261923 285.900719 
L 418.099237 225.952152 
L 418.936551 288.876408 
L 419.773865 221.939695 
L 420.611179 189.740562 
L 421.448493 143.559508 
L 422.285807 231.353522 
L 423.123121 125.466739 
L 423.960435 171.898047 
L 424.797749 140.97951 
L 425.635063 137.176327 
L 426.472377 309.130179 
L 427.309691 126.007296 
L 428.147005 295.087482 
L 428.984319 230.497142 
L 429.821633 253.088444 
L 430.658947 246.069814 
L 431.496261 224.63206 
L 432.333575 222.873908 
L 433.170889 156.540297 
L 434.008203 162.996957 
L 434.845517 86.923636 
L 435.682831 213.589126 
L 436.520145 218.929035 
L 437.357459 276.308481 
L 438.194773 127.980883 
L 439.032087 150.297228 
L 439.869401 301.849838 
L 440.706715 330.30335 
L 441.544029 307.683686 
L 442.381343 278.599527 
L 444.055971 314.249651 
L 444.893285 292.760078 
L 445.730599 201.335596 
L 446.567913 276.885265 
L 447.405227 151.151706 
L 448.242541 322.651165 
L 449.079855 190.994534 
L 449.917169 238.175199 
L 450.754483 212.732898 
L 451.591797 181.126617 
L 452.429111 199.169887 
L 453.266425 195.165226 
L 454.103739 196.317671 
L 454.941053 217.023051 
L 455.778367 185.77498 
L 456.615681 212.231172 
L 457.452995 246.42578 
L 458.290309 307.507129 
L 459.127623 250.483934 
L 460.802251 183.207438 
L 461.639565 106.610636 
L 462.476879 317.483391 
L 463.314193 234.258299 
L 464.151507 194.770011 
L 464.988821 269.914119 
L 465.826135 300.282534 
L 466.663449 223.53172 
L 467.500763 333.679523 
L 468.338077 337.426646 
L 469.175391 339.93093 
L 470.012705 286.266954 
L 470.850019 304.044585 
L 471.687333 343.915681 
L 472.524647 320.56812 
L 473.361961 321.541222 
L 474.199275 279.187168 
L 475.873903 331.560118 
L 476.711217 336.329158 
L 477.548531 229.590901 
L 479.223159 271.359338 
L 480.060473 246.199315 
L 480.897787 297.57526 
L 481.735101 250.212039 
L 482.572415 305.882928 
L 483.409729 327.133781 
L 484.247043 313.771525 
L 485.921671 289.768805 
L 486.758985 277.507116 
L 488.433613 324.688114 
L 489.270927 268.192136 
L 490.108241 258.12761 
L 490.945555 282.681869 
L 491.782869 334.216933 
L 492.620183 213.759037 
L 493.457497 300.105502 
L 494.294811 283.706467 
L 495.132125 168.576243 
L 495.969439 288.451033 
L 496.806753 240.515953 
L 497.644067 300.21013 
L 498.481381 220.700631 
L 499.318695 225.383489 
L 500.156009 325.574606 
L 500.993322 230.44422 
L 501.830636 205.871344 
L 502.66795 293.971748 
L 503.505264 273.126123 
L 504.342578 261.736808 
L 505.179892 261.548375 
L 506.85452 345.205641 
L 507.691834 271.268859 
L 508.529148 218.544183 
L 509.366462 312.30108 
L 510.203776 201.199915 
L 511.04109 179.291678 
L 511.878404 144.467441 
L 512.715718 344.687638 
L 513.553032 217.662264 
L 514.390346 214.781372 
L 515.22766 339.460391 
L 516.064974 331.897753 
L 516.902288 297.185341 
L 517.739602 289.034215 
L 518.576916 312.715369 
L 519.41423 318.062219 
L 520.251544 286.027273 
L 521.088858 299.640877 
L 521.926172 172.938828 
L 522.763486 277.260798 
L 523.6008 273.312787 
L 524.438114 296.055145 
L 525.275428 234.912783 
L 526.112742 324.59831 
L 526.950056 356.302943 
L 527.78737 343.169586 
L 528.624684 358.509974 
L 529.461998 326.32227 
L 530.299312 287.122963 
L 531.136626 219.970576 
L 531.97394 251.292887 
L 532.811254 272.983672 
L 533.648568 257.230858 
L 534.485882 263.226944 
L 535.323196 276.152167 
L 536.997824 367.980688 
L 537.835138 337.203822 
L 538.672452 275.781045 
L 539.509766 306.941423 
L 540.34708 387.203677 
L 541.184394 222.388879 
L 542.021708 218.40196 
L 542.859022 280.998147 
L 543.696336 240.373654 
L 544.53365 340.696393 
L 545.370964 239.055673 
L 546.208278 270.866911 
L 547.882906 354.431207 
L 548.72022 325.1653 
L 549.557534 380.114021 
L 550.394848 378.179665 
L 551.232162 337.079456 
L 552.069476 362.323188 
L 552.90679 339.169109 
L 553.744104 239.453094 
L 554.581418 371.19729 
L 555.418732 376.549417 
L 556.256046 410.954155 
L 557.09336 347.979796 
L 557.930674 377.041587 
L 558.767988 361.040435 
L 559.605302 364.125876 
L 560.442616 387.458942 
L 561.27993 432.749159 
L 562.117244 425.964648 
L 562.954558 378.015145 
L 563.791872 410.487894 
L 564.629186 351.510123 
L 565.4665 413.523085 
L 566.303814 421.624997 
L 567.141128 322.649672 
L 567.978442 356.501578 
L 568.815756 348.157845 
L 569.65307 434.303465 
L 570.490384 219.273382 
L 571.327698 351.492105 
L 572.165012 310.155424 
L 573.002326 186.417065 
L 573.83964 318.296062 
L 574.676954 363.778382 
L 575.514268 375.012767 
L 576.351582 371.619732 
L 577.188896 358.028444 
L 578.02621 411.091547 
L 578.863524 367.280965 
L 579.700838 314.309496 
L 580.538152 304.304424 
L 581.375466 373.976992 
L 582.21278 384.267142 
L 583.050094 400.687371 
L 583.887408 381.145617 
L 584.724722 385.501224 
L 585.562036 363.604364 
L 586.39935 324.755508 
L 587.236664 355.192125 
L 588.073978 370.683793 
L 588.911292 372.499307 
L 589.748606 209.679357 
L 590.58592 353.867421 
L 591.423234 311.418534 
L 592.260548 369.089139 
L 593.097862 126.807311 
L 593.935176 334.881847 
L 594.77249 325.967977 
L 595.609804 364.659597 
L 596.447118 352.685093 
L 597.284432 366.691055 
L 598.95906 411.758905 
L 599.796374 384.332397 
L 600.633688 398.051798 
L 601.471002 417.957096 
L 602.308316 431.944104 
L 603.14563 423.738924 
L 603.982944 393.585726 
L 604.820258 399.185825 
L 605.657572 400.125962 
L 606.494886 402.539577 
L 607.3322 332.718648 
L 608.169514 320.149571 
L 609.006828 321.049631 
L 609.844142 374.237577 
L 610.681456 291.497538 
L 611.51877 305.282993 
L 612.356084 224.892621 
L 613.193398 356.24694 
L 614.030712 329.555677 
L 614.868026 309.534247 
L 615.70534 282.161659 
L 616.542653 309.276586 
L 617.379967 327.404868 
L 618.217281 359.73024 
L 619.054595 152.783514 
L 619.891909 328.959621 
L 620.729223 368.45755 
L 621.566537 171.657415 
L 622.403851 320.709011 
L 623.241165 276.834301 
L 624.078479 267.779996 
L 624.915793 228.234203 
L 625.753107 311.393594 
L 626.590421 298.804911 
L 627.427735 355.00065 
L 628.265049 208.811111 
L 629.102363 355.585648 
L 629.939677 332.680425 
L 630.776991 370.169759 
L 631.614305 355.886638 
L 632.451619 235.842014 
L 633.288933 355.663016 
L 634.126247 319.808504 
L 634.963561 378.183601 
L 635.800875 369.703916 
L 636.638189 344.201239 
L 637.475503 386.578316 
L 638.312817 408.153796 
L 639.150131 406.773974 
L 639.987445 413.39057 
L 640.824759 356.064032 
L 641.662073 396.459887 
L 642.499387 399.883723 
L 643.336701 356.748552 
L 644.174015 344.040532 
L 645.011329 346.78136 
L 645.848643 372.626084 
L 646.685957 278.879218 
L 647.523271 358.091435 
L 648.360585 395.357141 
L 649.197899 425.457674 
L 650.035213 398.268432 
L 650.872527 310.56107 
L 651.709841 390.904894 
L 652.547155 368.659922 
L 653.384469 375.673555 
L 654.221783 375.643666 
L 655.059097 286.927932 
L 655.896411 353.509107 
L 656.733725 351.232913 
L 657.571039 288.363814 
L 658.408353 291.913073 
L 659.245667 359.947349 
L 660.082981 296.012121 
L 660.920295 375.494231 
L 661.757609 367.041797 
L 662.594923 300.704858 
L 663.432237 358.534857 
L 664.269551 401.861142 
L 665.106865 401.29767 
L 665.944179 286.393118 
L 666.781493 370.29238 
L 668.456121 217.165616 
L 670.130749 289.006194 
L 670.968063 220.53209 
L 671.805377 293.232442 
L 672.642691 382.165376 
L 673.480005 346.760632 
L 674.317319 299.905365 
L 675.154633 313.079436 
L 675.991947 355.577053 
L 676.829261 336.305121 
L 677.666575 428.938845 
L 678.503889 277.819079 
L 679.341203 415.622998 
L 680.178517 258.176862 
L 681.015831 366.776681 
L 681.853145 383.117607 
L 682.690459 145.761328 
L 683.527773 394.718983 
L 684.365087 302.187938 
L 685.202401 368.854145 
L 686.039715 277.179504 
L 686.877029 368.469759 
L 687.714343 385.261504 
L 688.551657 369.935254 
L 689.388971 324.763447 
L 690.226285 326.51366 
L 691.063599 293.866408 
L 691.900913 281.123579 
L 692.738227 284.647678 
L 693.575541 317.641246 
L 694.412855 232.090555 
L 695.250169 265.873441 
L 696.087483 276.146976 
L 696.924797 221.426407 
L 697.762111 350.835825 
L 698.599425 203.192176 
L 699.436739 262.831233 
L 700.274053 262.040574 
L 701.111367 294.939145 
L 701.948681 334.971452 
L 702.785995 326.478299 
L 703.623309 323.825982 
L 704.460623 289.579355 
L 705.297937 280.047484 
L 706.135251 275.975639 
L 706.972565 309.01438 
L 707.809879 328.161488 
L 708.647193 325.401834 
L 709.484507 243.715787 
L 710.321821 252.357343 
L 711.159135 290.505097 
L 711.996449 218.452981 
L 712.833763 313.596156 
L 713.671077 275.46237 
L 714.508391 315.63205 
L 715.345705 291.530531 
L 716.183019 192.253698 
L 717.020333 143.482568 
L 717.857647 284.818045 
L 718.694961 299.496353 
L 719.532275 268.4948 
L 720.369589 299.777471 
L 721.206903 255.245919 
L 722.044217 266.919243 
L 722.881531 283.096595 
L 723.718845 281.432726 
L 724.556159 306.192542 
L 725.393473 304.953117 
L 726.230787 291.317996 
L 727.068101 297.986393 
L 727.905415 289.546248 
L 728.742729 325.955531 
L 729.580043 291.023262 
L 730.417357 309.470609 
L 731.254671 252.419431 
L 732.091984 153.542587 
L 732.929298 244.460846 
L 733.766612 223.897023 
L 734.603926 285.678685 
L 735.44124 271.240962 
L 736.278554 203.581173 
L 737.115868 299.612134 
L 737.953182 188.729066 
L 738.790496 336.048592 
L 739.62781 183.826228 
L 740.465124 252.019557 
L 741.302438 217.2734 
L 742.139752 253.702005 
L 742.977066 160.53756 
L 743.81438 312.302449 
L 744.651694 244.215307 
L 745.489008 210.760338 
L 746.326322 268.568127 
L 747.163636 211.387438 
L 747.163636 211.387438 
" style="fill:none;stroke:#ff0000;stroke-dasharray:5.55,2.4;stroke-dashoffset:0;stroke-width:1.5;"/>
   </g>
   <g id="patch_3">
    <path d="M 108 460.8 
L 108 69.12 
" style="fill:none;stroke:#000000;stroke-linecap:square;stroke-linejoin:miter;stroke-width:0.8;"/>
   </g>
   <g id="patch_4">
    <path d="M 777.6 460.8 
L 777.6 69.12 
" style="fill:none;stroke:#000000;stroke-linecap:square;stroke-linejoin:miter;stroke-width:0.8;"/>
   </g>
   <g id="patch_5">
    <path d="M 108 460.8 
L 777.6 460.8 
" style="fill:none;stroke:#000000;stroke-linecap:square;stroke-linejoin:miter;stroke-width:0.8;"/>
   </g>
   <g id="patch_6">
    <path d="M 108 69.12 
L 777.6 69.12 
" style="fill:none;stroke:#000000;stroke-linecap:square;stroke-linejoin:miter;stroke-width:0.8;"/>
   </g>
   <g id="text_20">
    <!-- Macau residential 2020-2021 | Forecast vs Monitored | GRU -->
    <g transform="translate(219.602344 63.12)scale(0.15 -0.15)">
     <defs>
      <path d="M 8.5 21.578125 
L 8.5 54.6875 
L 17.484375 54.6875 
L 17.484375 21.921875 
Q 17.484375 14.15625 20.5 10.265625 
Q 23.53125 6.390625 29.59375 6.390625 
Q 36.859375 6.390625 41.078125 11.03125 
Q 45.3125 15.671875 45.3125 23.6875 
L 45.3125 54.6875 
L 54.296875 54.6875 
L 54.296875 0 
L 45.3125 0 
L 45.3125 8.40625 
Q 42.046875 3.421875 37.71875 1 
Q 33.40625 -1.421875 27.6875 -1.421875 
Q 18.265625 -1.421875 13.375 4.4375 
Q 8.5 10.296875 8.5 21.578125 
z
M 31.109375 56 
z
" id="DejaVuSans-117"/>
      <path id="DejaVuSans-32"/>
      <path d="M 44.28125 53.078125 
L 44.28125 44.578125 
Q 40.484375 46.53125 36.375 47.5 
Q 32.28125 48.484375 27.875 48.484375 
Q 21.1875 48.484375 17.84375 46.4375 
Q 14.5 44.390625 14.5 40.28125 
Q 14.5 37.15625 16.890625 35.375 
Q 19.28125 33.59375 26.515625 31.984375 
L 29.59375 31.296875 
Q 39.15625 29.25 43.1875 25.515625 
Q 47.21875 21.78125 47.21875 15.09375 
Q 47.21875 7.46875 41.1875 3.015625 
Q 35.15625 -1.421875 24.609375 -1.421875 
Q 20.21875 -1.421875 15.453125 -0.5625 
Q 10.6875 0.296875 5.421875 2 
L 5.421875 11.28125 
Q 10.40625 8.6875 15.234375 7.390625 
Q 20.0625 6.109375 24.8125 6.109375 
Q 31.15625 6.109375 34.5625 8.28125 
Q 37.984375 10.453125 37.984375 14.40625 
Q 37.984375 18.0625 35.515625 20.015625 
Q 33.0625 21.96875 24.703125 23.78125 
L 21.578125 24.515625 
Q 13.234375 26.265625 9.515625 29.90625 
Q 5.8125 33.546875 5.8125 39.890625 
Q 5.8125 47.609375 11.28125 51.796875 
Q 16.75 56 26.8125 56 
Q 31.78125 56 36.171875 55.265625 
Q 40.578125 54.546875 44.28125 53.078125 
z
" id="DejaVuSans-115"/>
      <path d="M 45.40625 46.390625 
L 45.40625 75.984375 
L 54.390625 75.984375 
L 54.390625 0 
L 45.40625 0 
L 45.40625 8.203125 
Q 42.578125 3.328125 38.25 0.953125 
Q 33.9375 -1.421875 27.875 -1.421875 
Q 17.96875 -1.421875 11.734375 6.484375 
Q 5.515625 14.40625 5.515625 27.296875 
Q 5.515625 40.1875 11.734375 48.09375 
Q 17.96875 56 27.875 56 
Q 33.9375 56 38.25 53.625 
Q 42.578125 51.265625 45.40625 46.390625 
z
M 14.796875 27.296875 
Q 14.796875 17.390625 18.875 11.75 
Q 22.953125 6.109375 30.078125 6.109375 
Q 37.203125 6.109375 41.296875 11.75 
Q 45.40625 17.390625 45.40625 27.296875 
Q 45.40625 37.203125 41.296875 42.84375 
Q 37.203125 48.484375 30.078125 48.484375 
Q 22.953125 48.484375 18.875 42.84375 
Q 14.796875 37.203125 14.796875 27.296875 
z
" id="DejaVuSans-100"/>
      <path d="M 54.890625 33.015625 
L 54.890625 0 
L 45.90625 0 
L 45.90625 32.71875 
Q 45.90625 40.484375 42.875 44.328125 
Q 39.84375 48.1875 33.796875 48.1875 
Q 26.515625 48.1875 22.3125 43.546875 
Q 18.109375 38.921875 18.109375 30.90625 
L 18.109375 0 
L 9.078125 0 
L 9.078125 54.6875 
L 18.109375 54.6875 
L 18.109375 46.1875 
Q 21.34375 51.125 25.703125 53.5625 
Q 30.078125 56 35.796875 56 
Q 45.21875 56 50.046875 50.171875 
Q 54.890625 44.34375 54.890625 33.015625 
z
" id="DejaVuSans-110"/>
      <path d="M 9.421875 75.984375 
L 18.40625 75.984375 
L 18.40625 0 
L 9.421875 0 
z
" id="DejaVuSans-108"/>
      <path d="M 21 76.421875 
L 21 -23.578125 
L 12.703125 -23.578125 
L 12.703125 76.421875 
z
" id="DejaVuSans-124"/>
      <path d="M 9.8125 72.90625 
L 51.703125 72.90625 
L 51.703125 64.59375 
L 19.671875 64.59375 
L 19.671875 43.109375 
L 48.578125 43.109375 
L 48.578125 34.8125 
L 19.671875 34.8125 
L 19.671875 0 
L 9.8125 0 
z
" id="DejaVuSans-70"/>
      <path d="M 2.984375 54.6875 
L 12.5 54.6875 
L 29.59375 8.796875 
L 46.6875 54.6875 
L 56.203125 54.6875 
L 35.6875 0 
L 23.484375 0 
z
" id="DejaVuSans-118"/>
      <path d="M 59.515625 10.40625 
L 59.515625 29.984375 
L 43.40625 29.984375 
L 43.40625 38.09375 
L 69.28125 38.09375 
L 69.28125 6.78125 
Q 63.578125 2.734375 56.6875 0.65625 
Q 49.8125 -1.421875 42 -1.421875 
Q 24.90625 -1.421875 15.25 8.5625 
Q 5.609375 18.5625 5.609375 36.375 
Q 5.609375 54.25 15.25 64.234375 
Q 24.90625 74.21875 42 74.21875 
Q 49.125 74.21875 55.546875 72.453125 
Q 61.96875 70.703125 67.390625 67.28125 
L 67.390625 56.78125 
Q 61.921875 61.421875 55.765625 63.765625 
Q 49.609375 66.109375 42.828125 66.109375 
Q 29.4375 66.109375 22.71875 58.640625 
Q 16.015625 51.171875 16.015625 36.375 
Q 16.015625 21.625 22.71875 14.15625 
Q 29.4375 6.6875 42.828125 6.6875 
Q 48.046875 6.6875 52.140625 7.59375 
Q 56.25 8.5 59.515625 10.40625 
z
" id="DejaVuSans-71"/>
      <path d="M 44.390625 34.1875 
Q 47.5625 33.109375 50.5625 29.59375 
Q 53.5625 26.078125 56.59375 19.921875 
L 66.609375 0 
L 56 0 
L 46.6875 18.703125 
Q 43.0625 26.03125 39.671875 28.421875 
Q 36.28125 30.8125 30.421875 30.8125 
L 19.671875 30.8125 
L 19.671875 0 
L 9.8125 0 
L 9.8125 72.90625 
L 32.078125 72.90625 
Q 44.578125 72.90625 50.734375 67.671875 
Q 56.890625 62.453125 56.890625 51.90625 
Q 56.890625 45.015625 53.6875 40.46875 
Q 50.484375 35.9375 44.390625 34.1875 
z
M 19.671875 64.796875 
L 19.671875 38.921875 
L 32.078125 38.921875 
Q 39.203125 38.921875 42.84375 42.21875 
Q 46.484375 45.515625 46.484375 51.90625 
Q 46.484375 58.296875 42.84375 61.546875 
Q 39.203125 64.796875 32.078125 64.796875 
z
" id="DejaVuSans-82"/>
      <path d="M 8.6875 72.90625 
L 18.609375 72.90625 
L 18.609375 28.609375 
Q 18.609375 16.890625 22.84375 11.734375 
Q 27.09375 6.59375 36.625 6.59375 
Q 46.09375 6.59375 50.34375 11.734375 
Q 54.59375 16.890625 54.59375 28.609375 
L 54.59375 72.90625 
L 64.5 72.90625 
L 64.5 27.390625 
Q 64.5 13.140625 57.4375 5.859375 
Q 50.390625 -1.421875 36.625 -1.421875 
Q 22.796875 -1.421875 15.734375 5.859375 
Q 8.6875 13.140625 8.6875 27.390625 
z
" id="DejaVuSans-85"/>
     </defs>
     <use xlink:href="#DejaVuSans-77"/>
     <use x="86.279297" xlink:href="#DejaVuSans-97"/>
     <use x="147.558594" xlink:href="#DejaVuSans-99"/>
     <use x="202.539062" xlink:href="#DejaVuSans-97"/>
     <use x="263.818359" xlink:href="#DejaVuSans-117"/>
     <use x="327.197266" xlink:href="#DejaVuSans-32"/>
     <use x="358.984375" xlink:href="#DejaVuSans-114"/>
     <use x="397.847656" xlink:href="#DejaVuSans-101"/>
     <use x="459.371094" xlink:href="#DejaVuSans-115"/>
     <use x="511.470703" xlink:href="#DejaVuSans-105"/>
     <use x="539.253906" xlink:href="#DejaVuSans-100"/>
     <use x="602.730469" xlink:href="#DejaVuSans-101"/>
     <use x="664.253906" xlink:href="#DejaVuSans-110"/>
     <use x="727.632812" xlink:href="#DejaVuSans-116"/>
     <use x="766.841797" xlink:href="#DejaVuSans-105"/>
     <use x="794.625" xlink:href="#DejaVuSans-97"/>
     <use x="855.904297" xlink:href="#DejaVuSans-108"/>
     <use x="883.6875" xlink:href="#DejaVuSans-32"/>
     <use x="915.474609" xlink:href="#DejaVuSans-50"/>
     <use x="979.097656" xlink:href="#DejaVuSans-48"/>
     <use x="1042.720703" xlink:href="#DejaVuSans-50"/>
     <use x="1106.34375" xlink:href="#DejaVuSans-48"/>
     <use x="1169.966797" xlink:href="#DejaVuSans-45"/>
     <use x="1206.050781" xlink:href="#DejaVuSans-50"/>
     <use x="1269.673828" xlink:href="#DejaVuSans-48"/>
     <use x="1333.296875" xlink:href="#DejaVuSans-50"/>
     <use x="1396.919922" xlink:href="#DejaVuSans-49"/>
     <use x="1460.542969" xlink:href="#DejaVuSans-32"/>
     <use x="1492.330078" xlink:href="#DejaVuSans-124"/>
     <use x="1526.021484" xlink:href="#DejaVuSans-32"/>
     <use x="1557.808594" xlink:href="#DejaVuSans-70"/>
     <use x="1611.703125" xlink:href="#DejaVuSans-111"/>
     <use x="1672.884766" xlink:href="#DejaVuSans-114"/>
     <use x="1711.748047" xlink:href="#DejaVuSans-101"/>
     <use x="1773.271484" xlink:href="#DejaVuSans-99"/>
     <use x="1828.251953" xlink:href="#DejaVuSans-97"/>
     <use x="1889.53125" xlink:href="#DejaVuSans-115"/>
     <use x="1941.630859" xlink:href="#DejaVuSans-116"/>
     <use x="1980.839844" xlink:href="#DejaVuSans-32"/>
     <use x="2012.626953" xlink:href="#DejaVuSans-118"/>
     <use x="2071.806641" xlink:href="#DejaVuSans-115"/>
     <use x="2123.90625" xlink:href="#DejaVuSans-32"/>
     <use x="2155.693359" xlink:href="#DejaVuSans-77"/>
     <use x="2241.972656" xlink:href="#DejaVuSans-111"/>
     <use x="2303.154297" xlink:href="#DejaVuSans-110"/>
     <use x="2366.533203" xlink:href="#DejaVuSans-105"/>
     <use x="2394.316406" xlink:href="#DejaVuSans-116"/>
     <use x="2433.525391" xlink:href="#DejaVuSans-111"/>
     <use x="2494.707031" xlink:href="#DejaVuSans-114"/>
     <use x="2533.570312" xlink:href="#DejaVuSans-101"/>
     <use x="2595.09375" xlink:href="#DejaVuSans-100"/>
     <use x="2658.570312" xlink:href="#DejaVuSans-32"/>
     <use x="2690.357422" xlink:href="#DejaVuSans-124"/>
     <use x="2724.048828" xlink:href="#DejaVuSans-32"/>
     <use x="2755.835938" xlink:href="#DejaVuSans-71"/>
     <use x="2833.326172" xlink:href="#DejaVuSans-82"/>
     <use x="2902.808594" xlink:href="#DejaVuSans-85"/>
    </g>
   </g>
   <g id="legend_1">
    <g id="patch_7">
     <path d="M 595.149375 114.615 
L 769.2 114.615 
Q 771.6 114.615 771.6 112.215 
L 771.6 77.52 
Q 771.6 75.12 769.2 75.12 
L 595.149375 75.12 
Q 592.749375 75.12 592.749375 77.52 
L 592.749375 112.215 
Q 592.749375 114.615 595.149375 114.615 
z
" style="fill:#ffffff;opacity:0.8;stroke:#cccccc;stroke-linejoin:miter;"/>
    </g>
    <g id="line2d_20">
     <path d="M 597.549375 84.838125 
L 621.549375 84.838125 
" style="fill:none;stroke:#1f77b4;stroke-linecap:square;stroke-width:1.5;"/>
    </g>
    <g id="line2d_21"/>
    <g id="text_21">
     <!-- measured_data_PM2.5 -->
     <g transform="translate(631.149375 89.038125)scale(0.12 -0.12)">
      <defs>
       <path d="M 50.984375 -16.609375 
L 50.984375 -23.578125 
L -0.984375 -23.578125 
L -0.984375 -16.609375 
z
" id="DejaVuSans-95"/>
      </defs>
      <use xlink:href="#DejaVuSans-109"/>
      <use x="97.412109" xlink:href="#DejaVuSans-101"/>
      <use x="158.935547" xlink:href="#DejaVuSans-97"/>
      <use x="220.214844" xlink:href="#DejaVuSans-115"/>
      <use x="272.314453" xlink:href="#DejaVuSans-117"/>
      <use x="335.693359" xlink:href="#DejaVuSans-114"/>
      <use x="374.556641" xlink:href="#DejaVuSans-101"/>
      <use x="436.080078" xlink:href="#DejaVuSans-100"/>
      <use x="499.556641" xlink:href="#DejaVuSans-95"/>
      <use x="549.556641" xlink:href="#DejaVuSans-100"/>
      <use x="613.033203" xlink:href="#DejaVuSans-97"/>
      <use x="674.3125" xlink:href="#DejaVuSans-116"/>
      <use x="713.521484" xlink:href="#DejaVuSans-97"/>
      <use x="774.800781" xlink:href="#DejaVuSans-95"/>
      <use x="824.800781" xlink:href="#DejaVuSans-80"/>
      <use x="885.103516" xlink:href="#DejaVuSans-77"/>
      <use x="971.382812" xlink:href="#DejaVuSans-50"/>
      <use x="1035.005859" xlink:href="#DejaVuSans-46"/>
      <use x="1066.792969" xlink:href="#DejaVuSans-53"/>
     </g>
    </g>
    <g id="line2d_22">
     <path d="M 597.549375 102.785625 
L 621.549375 102.785625 
" style="fill:none;stroke:#ff0000;stroke-dasharray:5.55,2.4;stroke-dashoffset:0;stroke-width:1.5;"/>
    </g>
    <g id="line2d_23"/>
    <g id="text_22">
     <!-- predicted_data_PM2.5 -->
     <g transform="translate(631.149375 106.985625)scale(0.12 -0.12)">
      <defs>
       <path d="M 18.109375 8.203125 
L 18.109375 -20.796875 
L 9.078125 -20.796875 
L 9.078125 54.6875 
L 18.109375 54.6875 
L 18.109375 46.390625 
Q 20.953125 51.265625 25.265625 53.625 
Q 29.59375 56 35.59375 56 
Q 45.5625 56 51.78125 48.09375 
Q 58.015625 40.1875 58.015625 27.296875 
Q 58.015625 14.40625 51.78125 6.484375 
Q 45.5625 -1.421875 35.59375 -1.421875 
Q 29.59375 -1.421875 25.265625 0.953125 
Q 20.953125 3.328125 18.109375 8.203125 
z
M 48.6875 27.296875 
Q 48.6875 37.203125 44.609375 42.84375 
Q 40.53125 48.484375 33.40625 48.484375 
Q 26.265625 48.484375 22.1875 42.84375 
Q 18.109375 37.203125 18.109375 27.296875 
Q 18.109375 17.390625 22.1875 11.75 
Q 26.265625 6.109375 33.40625 6.109375 
Q 40.53125 6.109375 44.609375 11.75 
Q 48.6875 17.390625 48.6875 27.296875 
z
" id="DejaVuSans-112"/>
      </defs>
      <use xlink:href="#DejaVuSans-112"/>
      <use x="63.476562" xlink:href="#DejaVuSans-114"/>
      <use x="102.339844" xlink:href="#DejaVuSans-101"/>
      <use x="163.863281" xlink:href="#DejaVuSans-100"/>
      <use x="227.339844" xlink:href="#DejaVuSans-105"/>
      <use x="255.123047" xlink:href="#DejaVuSans-99"/>
      <use x="310.103516" xlink:href="#DejaVuSans-116"/>
      <use x="349.3125" xlink:href="#DejaVuSans-101"/>
      <use x="410.835938" xlink:href="#DejaVuSans-100"/>
      <use x="474.3125" xlink:href="#DejaVuSans-95"/>
      <use x="524.3125" xlink:href="#DejaVuSans-100"/>
      <use x="587.789062" xlink:href="#DejaVuSans-97"/>
      <use x="649.068359" xlink:href="#DejaVuSans-116"/>
      <use x="688.277344" xlink:href="#DejaVuSans-97"/>
      <use x="749.556641" xlink:href="#DejaVuSans-95"/>
      <use x="799.556641" xlink:href="#DejaVuSans-80"/>
      <use x="859.859375" xlink:href="#DejaVuSans-77"/>
      <use x="946.138672" xlink:href="#DejaVuSans-50"/>
      <use x="1009.761719" xlink:href="#DejaVuSans-46"/>
      <use x="1041.548828" xlink:href="#DejaVuSans-53"/>
     </g>
    </g>
   </g>
  </g>
 </g>
 <defs>
  <clipPath id="pdc0d0a55f9">
   <rect height="391.68" width="669.6" x="108" y="69.12"/>
  </clipPath>
 </defs>
</svg>
