<?xml version="1.0" encoding="utf-8" standalone="no"?>
<!DOCTYPE svg PUBLIC "-//W3C//DTD SVG 1.1//EN"
  "http://www.w3.org/Graphics/SVG/1.1/DTD/svg11.dtd">
<!-- Created with matplotlib (https://matplotlib.org/) -->
<svg height="576pt" version="1.1" viewBox="0 0 864 576" width="864pt" xmlns="http://www.w3.org/2000/svg" xmlns:xlink="http://www.w3.org/1999/xlink">
 <metadata>
  <rdf:RDF xmlns:cc="http://creativecommons.org/ns#" xmlns:dc="http://purl.org/dc/elements/1.1/" xmlns:rdf="http://www.w3.org/1999/02/22-rdf-syntax-ns#">
   <cc:Work>
    <dc:type rdf:resource="http://purl.org/dc/dcmitype/StillImage"/>
    <dc:date>2024-03-08T20:36:01.935774</dc:date>
    <dc:format>image/svg+xml</dc:format>
    <dc:creator>
     <cc:Agent>
      <dc:title>Matplotlib v3.3.4, https://matplotlib.org/</dc:title>
     </cc:Agent>
    </dc:creator>
   </cc:Work>
  </rdf:RDF>
 </metadata>
 <defs>
  <style type="text/css">*{stroke-linecap:butt;stroke-linejoin:round;}</style>
 </defs>
 <g id="figure_1">
  <g id="patch_1">
   <path d="M 0 576 
L 864 576 
L 864 0 
L 0 0 
z
" style="fill:#ffffff;"/>
  </g>
  <g id="axes_1">
   <g id="patch_2">
    <path d="M 108 460.8 
L 777.6 460.8 
L 777.6 69.12 
L 108 69.12 
z
" style="fill:#ffffff;"/>
   </g>
   <g id="matplotlib.axis_1">
    <g id="xtick_1">
     <g id="line2d_1">
      <defs>
       <path d="M 0 0 
L 0 3.5 
" id="m76847a4390" style="stroke:#000000;stroke-width:0.8;"/>
      </defs>
      <g>
       <use style="stroke:#000000;stroke-width:0.8;" x="136.761736" xlink:href="#m76847a4390" y="460.8"/>
      </g>
     </g>
     <g id="text_1">
      <!-- 2020-01 -->
      <g transform="translate(92.091951 500.766215)rotate(-30)scale(0.12 -0.12)">
       <defs>
        <path d="M 19.1875 8.296875 
L 53.609375 8.296875 
L 53.609375 0 
L 7.328125 0 
L 7.328125 8.296875 
Q 12.9375 14.109375 22.625 23.890625 
Q 32.328125 33.6875 34.8125 36.53125 
Q 39.546875 41.84375 41.421875 45.53125 
Q 43.3125 49.21875 43.3125 52.78125 
Q 43.3125 58.59375 39.234375 62.25 
Q 35.15625 65.921875 28.609375 65.921875 
Q 23.96875 65.921875 18.8125 64.3125 
Q 13.671875 62.703125 7.8125 59.421875 
L 7.8125 69.390625 
Q 13.765625 71.78125 18.9375 73 
Q 24.125 74.21875 28.421875 74.21875 
Q 39.75 74.21875 46.484375 68.546875 
Q 53.21875 62.890625 53.21875 53.421875 
Q 53.21875 48.921875 51.53125 44.890625 
Q 49.859375 40.875 45.40625 35.40625 
Q 44.1875 33.984375 37.640625 27.21875 
Q 31.109375 20.453125 19.1875 8.296875 
z
" id="DejaVuSans-50"/>
        <path d="M 31.78125 66.40625 
Q 24.171875 66.40625 20.328125 58.90625 
Q 16.5 51.421875 16.5 36.375 
Q 16.5 21.390625 20.328125 13.890625 
Q 24.171875 6.390625 31.78125 6.390625 
Q 39.453125 6.390625 43.28125 13.890625 
Q 47.125 21.390625 47.125 36.375 
Q 47.125 51.421875 43.28125 58.90625 
Q 39.453125 66.40625 31.78125 66.40625 
z
M 31.78125 74.21875 
Q 44.046875 74.21875 50.515625 64.515625 
Q 56.984375 54.828125 56.984375 36.375 
Q 56.984375 17.96875 50.515625 8.265625 
Q 44.046875 -1.421875 31.78125 -1.421875 
Q 19.53125 -1.421875 13.0625 8.265625 
Q 6.59375 17.96875 6.59375 36.375 
Q 6.59375 54.828125 13.0625 64.515625 
Q 19.53125 74.21875 31.78125 74.21875 
z
" id="DejaVuSans-48"/>
        <path d="M 4.890625 31.390625 
L 31.203125 31.390625 
L 31.203125 23.390625 
L 4.890625 23.390625 
z
" id="DejaVuSans-45"/>
        <path d="M 12.40625 8.296875 
L 28.515625 8.296875 
L 28.515625 63.921875 
L 10.984375 60.40625 
L 10.984375 69.390625 
L 28.421875 72.90625 
L 38.28125 72.90625 
L 38.28125 8.296875 
L 54.390625 8.296875 
L 54.390625 0 
L 12.40625 0 
z
" id="DejaVuSans-49"/>
       </defs>
       <use xlink:href="#DejaVuSans-50"/>
       <use x="63.623047" xlink:href="#DejaVuSans-48"/>
       <use x="127.246094" xlink:href="#DejaVuSans-50"/>
       <use x="190.869141" xlink:href="#DejaVuSans-48"/>
       <use x="254.492188" xlink:href="#DejaVuSans-45"/>
       <use x="290.576172" xlink:href="#DejaVuSans-48"/>
       <use x="354.199219" xlink:href="#DejaVuSans-49"/>
      </g>
     </g>
    </g>
    <g id="xtick_2">
     <g id="line2d_2">
      <g>
       <use style="stroke:#000000;stroke-width:0.8;" x="212.957309" xlink:href="#m76847a4390" y="460.8"/>
      </g>
     </g>
     <g id="text_2">
      <!-- 2020-04 -->
      <g transform="translate(168.287524 500.766215)rotate(-30)scale(0.12 -0.12)">
       <defs>
        <path d="M 37.796875 64.3125 
L 12.890625 25.390625 
L 37.796875 25.390625 
z
M 35.203125 72.90625 
L 47.609375 72.90625 
L 47.609375 25.390625 
L 58.015625 25.390625 
L 58.015625 17.1875 
L 47.609375 17.1875 
L 47.609375 0 
L 37.796875 0 
L 37.796875 17.1875 
L 4.890625 17.1875 
L 4.890625 26.703125 
z
" id="DejaVuSans-52"/>
       </defs>
       <use xlink:href="#DejaVuSans-50"/>
       <use x="63.623047" xlink:href="#DejaVuSans-48"/>
       <use x="127.246094" xlink:href="#DejaVuSans-50"/>
       <use x="190.869141" xlink:href="#DejaVuSans-48"/>
       <use x="254.492188" xlink:href="#DejaVuSans-45"/>
       <use x="290.576172" xlink:href="#DejaVuSans-48"/>
       <use x="354.199219" xlink:href="#DejaVuSans-52"/>
      </g>
     </g>
    </g>
    <g id="xtick_3">
     <g id="line2d_3">
      <g>
       <use style="stroke:#000000;stroke-width:0.8;" x="289.152882" xlink:href="#m76847a4390" y="460.8"/>
      </g>
     </g>
     <g id="text_3">
      <!-- 2020-07 -->
      <g transform="translate(244.483097 500.766215)rotate(-30)scale(0.12 -0.12)">
       <defs>
        <path d="M 8.203125 72.90625 
L 55.078125 72.90625 
L 55.078125 68.703125 
L 28.609375 0 
L 18.3125 0 
L 43.21875 64.59375 
L 8.203125 64.59375 
z
" id="DejaVuSans-55"/>
       </defs>
       <use xlink:href="#DejaVuSans-50"/>
       <use x="63.623047" xlink:href="#DejaVuSans-48"/>
       <use x="127.246094" xlink:href="#DejaVuSans-50"/>
       <use x="190.869141" xlink:href="#DejaVuSans-48"/>
       <use x="254.492188" xlink:href="#DejaVuSans-45"/>
       <use x="290.576172" xlink:href="#DejaVuSans-48"/>
       <use x="354.199219" xlink:href="#DejaVuSans-55"/>
      </g>
     </g>
    </g>
    <g id="xtick_4">
     <g id="line2d_4">
      <g>
       <use style="stroke:#000000;stroke-width:0.8;" x="366.18577" xlink:href="#m76847a4390" y="460.8"/>
      </g>
     </g>
     <g id="text_4">
      <!-- 2020-10 -->
      <g transform="translate(321.515985 500.766215)rotate(-30)scale(0.12 -0.12)">
       <use xlink:href="#DejaVuSans-50"/>
       <use x="63.623047" xlink:href="#DejaVuSans-48"/>
       <use x="127.246094" xlink:href="#DejaVuSans-50"/>
       <use x="190.869141" xlink:href="#DejaVuSans-48"/>
       <use x="254.492188" xlink:href="#DejaVuSans-45"/>
       <use x="290.576172" xlink:href="#DejaVuSans-49"/>
       <use x="354.199219" xlink:href="#DejaVuSans-48"/>
      </g>
     </g>
    </g>
    <g id="xtick_5">
     <g id="line2d_5">
      <g>
       <use style="stroke:#000000;stroke-width:0.8;" x="443.218657" xlink:href="#m76847a4390" y="460.8"/>
      </g>
     </g>
     <g id="text_5">
      <!-- 2021-01 -->
      <g transform="translate(398.548872 500.766215)rotate(-30)scale(0.12 -0.12)">
       <use xlink:href="#DejaVuSans-50"/>
       <use x="63.623047" xlink:href="#DejaVuSans-48"/>
       <use x="127.246094" xlink:href="#DejaVuSans-50"/>
       <use x="190.869141" xlink:href="#DejaVuSans-49"/>
       <use x="254.492188" xlink:href="#DejaVuSans-45"/>
       <use x="290.576172" xlink:href="#DejaVuSans-48"/>
       <use x="354.199219" xlink:href="#DejaVuSans-49"/>
      </g>
     </g>
    </g>
    <g id="xtick_6">
     <g id="line2d_6">
      <g>
       <use style="stroke:#000000;stroke-width:0.8;" x="518.576916" xlink:href="#m76847a4390" y="460.8"/>
      </g>
     </g>
     <g id="text_6">
      <!-- 2021-04 -->
      <g transform="translate(473.907131 500.766215)rotate(-30)scale(0.12 -0.12)">
       <use xlink:href="#DejaVuSans-50"/>
       <use x="63.623047" xlink:href="#DejaVuSans-48"/>
       <use x="127.246094" xlink:href="#DejaVuSans-50"/>
       <use x="190.869141" xlink:href="#DejaVuSans-49"/>
       <use x="254.492188" xlink:href="#DejaVuSans-45"/>
       <use x="290.576172" xlink:href="#DejaVuSans-48"/>
       <use x="354.199219" xlink:href="#DejaVuSans-52"/>
      </g>
     </g>
    </g>
    <g id="xtick_7">
     <g id="line2d_7">
      <g>
       <use style="stroke:#000000;stroke-width:0.8;" x="594.77249" xlink:href="#m76847a4390" y="460.8"/>
      </g>
     </g>
     <g id="text_7">
      <!-- 2021-07 -->
      <g transform="translate(550.102705 500.766215)rotate(-30)scale(0.12 -0.12)">
       <use xlink:href="#DejaVuSans-50"/>
       <use x="63.623047" xlink:href="#DejaVuSans-48"/>
       <use x="127.246094" xlink:href="#DejaVuSans-50"/>
       <use x="190.869141" xlink:href="#DejaVuSans-49"/>
       <use x="254.492188" xlink:href="#DejaVuSans-45"/>
       <use x="290.576172" xlink:href="#DejaVuSans-48"/>
       <use x="354.199219" xlink:href="#DejaVuSans-55"/>
      </g>
     </g>
    </g>
    <g id="xtick_8">
     <g id="line2d_8">
      <g>
       <use style="stroke:#000000;stroke-width:0.8;" x="671.805377" xlink:href="#m76847a4390" y="460.8"/>
      </g>
     </g>
     <g id="text_8">
      <!-- 2021-10 -->
      <g transform="translate(627.135592 500.766215)rotate(-30)scale(0.12 -0.12)">
       <use xlink:href="#DejaVuSans-50"/>
       <use x="63.623047" xlink:href="#DejaVuSans-48"/>
       <use x="127.246094" xlink:href="#DejaVuSans-50"/>
       <use x="190.869141" xlink:href="#DejaVuSans-49"/>
       <use x="254.492188" xlink:href="#DejaVuSans-45"/>
       <use x="290.576172" xlink:href="#DejaVuSans-49"/>
       <use x="354.199219" xlink:href="#DejaVuSans-48"/>
      </g>
     </g>
    </g>
    <g id="xtick_9">
     <g id="line2d_9">
      <g>
       <use style="stroke:#000000;stroke-width:0.8;" x="748.838264" xlink:href="#m76847a4390" y="460.8"/>
      </g>
     </g>
     <g id="text_9">
      <!-- 2022-01 -->
      <g transform="translate(704.168479 500.766215)rotate(-30)scale(0.12 -0.12)">
       <use xlink:href="#DejaVuSans-50"/>
       <use x="63.623047" xlink:href="#DejaVuSans-48"/>
       <use x="127.246094" xlink:href="#DejaVuSans-50"/>
       <use x="190.869141" xlink:href="#DejaVuSans-50"/>
       <use x="254.492188" xlink:href="#DejaVuSans-45"/>
       <use x="290.576172" xlink:href="#DejaVuSans-48"/>
       <use x="354.199219" xlink:href="#DejaVuSans-49"/>
      </g>
     </g>
    </g>
    <g id="text_10">
     <!-- Date -->
     <g transform="translate(424.873828 518.325146)scale(0.15 -0.15)">
      <defs>
       <path d="M 19.671875 64.796875 
L 19.671875 8.109375 
L 31.59375 8.109375 
Q 46.6875 8.109375 53.6875 14.9375 
Q 60.6875 21.78125 60.6875 36.53125 
Q 60.6875 51.171875 53.6875 57.984375 
Q 46.6875 64.796875 31.59375 64.796875 
z
M 9.8125 72.90625 
L 30.078125 72.90625 
Q 51.265625 72.90625 61.171875 64.09375 
Q 71.09375 55.28125 71.09375 36.53125 
Q 71.09375 17.671875 61.125 8.828125 
Q 51.171875 0 30.078125 0 
L 9.8125 0 
z
" id="DejaVuSans-68"/>
       <path d="M 34.28125 27.484375 
Q 23.390625 27.484375 19.1875 25 
Q 14.984375 22.515625 14.984375 16.5 
Q 14.984375 11.71875 18.140625 8.90625 
Q 21.296875 6.109375 26.703125 6.109375 
Q 34.1875 6.109375 38.703125 11.40625 
Q 43.21875 16.703125 43.21875 25.484375 
L 43.21875 27.484375 
z
M 52.203125 31.203125 
L 52.203125 0 
L 43.21875 0 
L 43.21875 8.296875 
Q 40.140625 3.328125 35.546875 0.953125 
Q 30.953125 -1.421875 24.3125 -1.421875 
Q 15.921875 -1.421875 10.953125 3.296875 
Q 6 8.015625 6 15.921875 
Q 6 25.140625 12.171875 29.828125 
Q 18.359375 34.515625 30.609375 34.515625 
L 43.21875 34.515625 
L 43.21875 35.40625 
Q 43.21875 41.609375 39.140625 45 
Q 35.0625 48.390625 27.6875 48.390625 
Q 23 48.390625 18.546875 47.265625 
Q 14.109375 46.140625 10.015625 43.890625 
L 10.015625 52.203125 
Q 14.9375 54.109375 19.578125 55.046875 
Q 24.21875 56 28.609375 56 
Q 40.484375 56 46.34375 49.84375 
Q 52.203125 43.703125 52.203125 31.203125 
z
" id="DejaVuSans-97"/>
       <path d="M 18.3125 70.21875 
L 18.3125 54.6875 
L 36.8125 54.6875 
L 36.8125 47.703125 
L 18.3125 47.703125 
L 18.3125 18.015625 
Q 18.3125 11.328125 20.140625 9.421875 
Q 21.96875 7.515625 27.59375 7.515625 
L 36.8125 7.515625 
L 36.8125 0 
L 27.59375 0 
Q 17.1875 0 13.234375 3.875 
Q 9.28125 7.765625 9.28125 18.015625 
L 9.28125 47.703125 
L 2.6875 47.703125 
L 2.6875 54.6875 
L 9.28125 54.6875 
L 9.28125 70.21875 
z
" id="DejaVuSans-116"/>
       <path d="M 56.203125 29.59375 
L 56.203125 25.203125 
L 14.890625 25.203125 
Q 15.484375 15.921875 20.484375 11.0625 
Q 25.484375 6.203125 34.421875 6.203125 
Q 39.59375 6.203125 44.453125 7.46875 
Q 49.3125 8.734375 54.109375 11.28125 
L 54.109375 2.78125 
Q 49.265625 0.734375 44.1875 -0.34375 
Q 39.109375 -1.421875 33.890625 -1.421875 
Q 20.796875 -1.421875 13.15625 6.1875 
Q 5.515625 13.8125 5.515625 26.8125 
Q 5.515625 40.234375 12.765625 48.109375 
Q 20.015625 56 32.328125 56 
Q 43.359375 56 49.78125 48.890625 
Q 56.203125 41.796875 56.203125 29.59375 
z
M 47.21875 32.234375 
Q 47.125 39.59375 43.09375 43.984375 
Q 39.0625 48.390625 32.421875 48.390625 
Q 24.90625 48.390625 20.390625 44.140625 
Q 15.875 39.890625 15.1875 32.171875 
z
" id="DejaVuSans-101"/>
      </defs>
      <use xlink:href="#DejaVuSans-68"/>
      <use x="77.001953" xlink:href="#DejaVuSans-97"/>
      <use x="138.28125" xlink:href="#DejaVuSans-116"/>
      <use x="177.490234" xlink:href="#DejaVuSans-101"/>
     </g>
    </g>
   </g>
   <g id="matplotlib.axis_2">
    <g id="ytick_1">
     <g id="line2d_10">
      <defs>
       <path d="M 0 0 
L -3.5 0 
" id="maba43dc772" style="stroke:#000000;stroke-width:0.8;"/>
      </defs>
      <g>
       <use style="stroke:#000000;stroke-width:0.8;" x="108" xlink:href="#maba43dc772" y="446.248169"/>
      </g>
     </g>
     <g id="text_11">
      <!-- 0 -->
      <g transform="translate(93.365 450.807232)scale(0.12 -0.12)">
       <use xlink:href="#DejaVuSans-48"/>
      </g>
     </g>
    </g>
    <g id="ytick_2">
     <g id="line2d_11">
      <g>
       <use style="stroke:#000000;stroke-width:0.8;" x="108" xlink:href="#maba43dc772" y="390.502928"/>
      </g>
     </g>
     <g id="text_12">
      <!-- 10 -->
      <g transform="translate(85.73 395.061991)scale(0.12 -0.12)">
       <use xlink:href="#DejaVuSans-49"/>
       <use x="63.623047" xlink:href="#DejaVuSans-48"/>
      </g>
     </g>
    </g>
    <g id="ytick_3">
     <g id="line2d_12">
      <g>
       <use style="stroke:#000000;stroke-width:0.8;" x="108" xlink:href="#maba43dc772" y="334.757687"/>
      </g>
     </g>
     <g id="text_13">
      <!-- 20 -->
      <g transform="translate(85.73 339.31675)scale(0.12 -0.12)">
       <use xlink:href="#DejaVuSans-50"/>
       <use x="63.623047" xlink:href="#DejaVuSans-48"/>
      </g>
     </g>
    </g>
    <g id="ytick_4">
     <g id="line2d_13">
      <g>
       <use style="stroke:#000000;stroke-width:0.8;" x="108" xlink:href="#maba43dc772" y="279.012446"/>
      </g>
     </g>
     <g id="text_14">
      <!-- 30 -->
      <g transform="translate(85.73 283.571509)scale(0.12 -0.12)">
       <defs>
        <path d="M 40.578125 39.3125 
Q 47.65625 37.796875 51.625 33 
Q 55.609375 28.21875 55.609375 21.1875 
Q 55.609375 10.40625 48.1875 4.484375 
Q 40.765625 -1.421875 27.09375 -1.421875 
Q 22.515625 -1.421875 17.65625 -0.515625 
Q 12.796875 0.390625 7.625 2.203125 
L 7.625 11.71875 
Q 11.71875 9.328125 16.59375 8.109375 
Q 21.484375 6.890625 26.8125 6.890625 
Q 36.078125 6.890625 40.9375 10.546875 
Q 45.796875 14.203125 45.796875 21.1875 
Q 45.796875 27.640625 41.28125 31.265625 
Q 36.765625 34.90625 28.71875 34.90625 
L 20.21875 34.90625 
L 20.21875 43.015625 
L 29.109375 43.015625 
Q 36.375 43.015625 40.234375 45.921875 
Q 44.09375 48.828125 44.09375 54.296875 
Q 44.09375 59.90625 40.109375 62.90625 
Q 36.140625 65.921875 28.71875 65.921875 
Q 24.65625 65.921875 20.015625 65.03125 
Q 15.375 64.15625 9.8125 62.3125 
L 9.8125 71.09375 
Q 15.4375 72.65625 20.34375 73.4375 
Q 25.25 74.21875 29.59375 74.21875 
Q 40.828125 74.21875 47.359375 69.109375 
Q 53.90625 64.015625 53.90625 55.328125 
Q 53.90625 49.265625 50.4375 45.09375 
Q 46.96875 40.921875 40.578125 39.3125 
z
" id="DejaVuSans-51"/>
       </defs>
       <use xlink:href="#DejaVuSans-51"/>
       <use x="63.623047" xlink:href="#DejaVuSans-48"/>
      </g>
     </g>
    </g>
    <g id="ytick_5">
     <g id="line2d_14">
      <g>
       <use style="stroke:#000000;stroke-width:0.8;" x="108" xlink:href="#maba43dc772" y="223.267205"/>
      </g>
     </g>
     <g id="text_15">
      <!-- 40 -->
      <g transform="translate(85.73 227.826268)scale(0.12 -0.12)">
       <use xlink:href="#DejaVuSans-52"/>
       <use x="63.623047" xlink:href="#DejaVuSans-48"/>
      </g>
     </g>
    </g>
    <g id="ytick_6">
     <g id="line2d_15">
      <g>
       <use style="stroke:#000000;stroke-width:0.8;" x="108" xlink:href="#maba43dc772" y="167.521964"/>
      </g>
     </g>
     <g id="text_16">
      <!-- 50 -->
      <g transform="translate(85.73 172.081027)scale(0.12 -0.12)">
       <defs>
        <path d="M 10.796875 72.90625 
L 49.515625 72.90625 
L 49.515625 64.59375 
L 19.828125 64.59375 
L 19.828125 46.734375 
Q 21.96875 47.46875 24.109375 47.828125 
Q 26.265625 48.1875 28.421875 48.1875 
Q 40.625 48.1875 47.75 41.5 
Q 54.890625 34.8125 54.890625 23.390625 
Q 54.890625 11.625 47.5625 5.09375 
Q 40.234375 -1.421875 26.90625 -1.421875 
Q 22.3125 -1.421875 17.546875 -0.640625 
Q 12.796875 0.140625 7.71875 1.703125 
L 7.71875 11.625 
Q 12.109375 9.234375 16.796875 8.0625 
Q 21.484375 6.890625 26.703125 6.890625 
Q 35.15625 6.890625 40.078125 11.328125 
Q 45.015625 15.765625 45.015625 23.390625 
Q 45.015625 31 40.078125 35.4375 
Q 35.15625 39.890625 26.703125 39.890625 
Q 22.75 39.890625 18.8125 39.015625 
Q 14.890625 38.140625 10.796875 36.28125 
z
" id="DejaVuSans-53"/>
       </defs>
       <use xlink:href="#DejaVuSans-53"/>
       <use x="63.623047" xlink:href="#DejaVuSans-48"/>
      </g>
     </g>
    </g>
    <g id="ytick_7">
     <g id="line2d_16">
      <g>
       <use style="stroke:#000000;stroke-width:0.8;" x="108" xlink:href="#maba43dc772" y="111.776723"/>
      </g>
     </g>
     <g id="text_17">
      <!-- 60 -->
      <g transform="translate(85.73 116.335786)scale(0.12 -0.12)">
       <defs>
        <path d="M 33.015625 40.375 
Q 26.375 40.375 22.484375 35.828125 
Q 18.609375 31.296875 18.609375 23.390625 
Q 18.609375 15.53125 22.484375 10.953125 
Q 26.375 6.390625 33.015625 6.390625 
Q 39.65625 6.390625 43.53125 10.953125 
Q 47.40625 15.53125 47.40625 23.390625 
Q 47.40625 31.296875 43.53125 35.828125 
Q 39.65625 40.375 33.015625 40.375 
z
M 52.59375 71.296875 
L 52.59375 62.3125 
Q 48.875 64.0625 45.09375 64.984375 
Q 41.3125 65.921875 37.59375 65.921875 
Q 27.828125 65.921875 22.671875 59.328125 
Q 17.53125 52.734375 16.796875 39.40625 
Q 19.671875 43.65625 24.015625 45.921875 
Q 28.375 48.1875 33.59375 48.1875 
Q 44.578125 48.1875 50.953125 41.515625 
Q 57.328125 34.859375 57.328125 23.390625 
Q 57.328125 12.15625 50.6875 5.359375 
Q 44.046875 -1.421875 33.015625 -1.421875 
Q 20.359375 -1.421875 13.671875 8.265625 
Q 6.984375 17.96875 6.984375 36.375 
Q 6.984375 53.65625 15.1875 63.9375 
Q 23.390625 74.21875 37.203125 74.21875 
Q 40.921875 74.21875 44.703125 73.484375 
Q 48.484375 72.75 52.59375 71.296875 
z
" id="DejaVuSans-54"/>
       </defs>
       <use xlink:href="#DejaVuSans-54"/>
       <use x="63.623047" xlink:href="#DejaVuSans-48"/>
      </g>
     </g>
    </g>
    <g id="text_18">
     <!-- PM2.5(micro-gram/m3) -->
     <g transform="translate(78.610469 351.945937)rotate(-90)scale(0.15 -0.15)">
      <defs>
       <path d="M 19.671875 64.796875 
L 19.671875 37.40625 
L 32.078125 37.40625 
Q 38.96875 37.40625 42.71875 40.96875 
Q 46.484375 44.53125 46.484375 51.125 
Q 46.484375 57.671875 42.71875 61.234375 
Q 38.96875 64.796875 32.078125 64.796875 
z
M 9.8125 72.90625 
L 32.078125 72.90625 
Q 44.34375 72.90625 50.609375 67.359375 
Q 56.890625 61.8125 56.890625 51.125 
Q 56.890625 40.328125 50.609375 34.8125 
Q 44.34375 29.296875 32.078125 29.296875 
L 19.671875 29.296875 
L 19.671875 0 
L 9.8125 0 
z
" id="DejaVuSans-80"/>
       <path d="M 9.8125 72.90625 
L 24.515625 72.90625 
L 43.109375 23.296875 
L 61.8125 72.90625 
L 76.515625 72.90625 
L 76.515625 0 
L 66.890625 0 
L 66.890625 64.015625 
L 48.09375 14.015625 
L 38.1875 14.015625 
L 19.390625 64.015625 
L 19.390625 0 
L 9.8125 0 
z
" id="DejaVuSans-77"/>
       <path d="M 10.6875 12.40625 
L 21 12.40625 
L 21 0 
L 10.6875 0 
z
" id="DejaVuSans-46"/>
       <path d="M 31 75.875 
Q 24.46875 64.65625 21.28125 53.65625 
Q 18.109375 42.671875 18.109375 31.390625 
Q 18.109375 20.125 21.3125 9.0625 
Q 24.515625 -2 31 -13.1875 
L 23.1875 -13.1875 
Q 15.875 -1.703125 12.234375 9.375 
Q 8.59375 20.453125 8.59375 31.390625 
Q 8.59375 42.28125 12.203125 53.3125 
Q 15.828125 64.359375 23.1875 75.875 
z
" id="DejaVuSans-40"/>
       <path d="M 52 44.1875 
Q 55.375 50.25 60.0625 53.125 
Q 64.75 56 71.09375 56 
Q 79.640625 56 84.28125 50.015625 
Q 88.921875 44.046875 88.921875 33.015625 
L 88.921875 0 
L 79.890625 0 
L 79.890625 32.71875 
Q 79.890625 40.578125 77.09375 44.375 
Q 74.3125 48.1875 68.609375 48.1875 
Q 61.625 48.1875 57.5625 43.546875 
Q 53.515625 38.921875 53.515625 30.90625 
L 53.515625 0 
L 44.484375 0 
L 44.484375 32.71875 
Q 44.484375 40.625 41.703125 44.40625 
Q 38.921875 48.1875 33.109375 48.1875 
Q 26.21875 48.1875 22.15625 43.53125 
Q 18.109375 38.875 18.109375 30.90625 
L 18.109375 0 
L 9.078125 0 
L 9.078125 54.6875 
L 18.109375 54.6875 
L 18.109375 46.1875 
Q 21.1875 51.21875 25.484375 53.609375 
Q 29.78125 56 35.6875 56 
Q 41.65625 56 45.828125 52.96875 
Q 50 49.953125 52 44.1875 
z
" id="DejaVuSans-109"/>
       <path d="M 9.421875 54.6875 
L 18.40625 54.6875 
L 18.40625 0 
L 9.421875 0 
z
M 9.421875 75.984375 
L 18.40625 75.984375 
L 18.40625 64.59375 
L 9.421875 64.59375 
z
" id="DejaVuSans-105"/>
       <path d="M 48.78125 52.59375 
L 48.78125 44.1875 
Q 44.96875 46.296875 41.140625 47.34375 
Q 37.3125 48.390625 33.40625 48.390625 
Q 24.65625 48.390625 19.8125 42.84375 
Q 14.984375 37.3125 14.984375 27.296875 
Q 14.984375 17.28125 19.8125 11.734375 
Q 24.65625 6.203125 33.40625 6.203125 
Q 37.3125 6.203125 41.140625 7.25 
Q 44.96875 8.296875 48.78125 10.40625 
L 48.78125 2.09375 
Q 45.015625 0.34375 40.984375 -0.53125 
Q 36.96875 -1.421875 32.421875 -1.421875 
Q 20.0625 -1.421875 12.78125 6.34375 
Q 5.515625 14.109375 5.515625 27.296875 
Q 5.515625 40.671875 12.859375 48.328125 
Q 20.21875 56 33.015625 56 
Q 37.15625 56 41.109375 55.140625 
Q 45.0625 54.296875 48.78125 52.59375 
z
" id="DejaVuSans-99"/>
       <path d="M 41.109375 46.296875 
Q 39.59375 47.171875 37.8125 47.578125 
Q 36.03125 48 33.890625 48 
Q 26.265625 48 22.1875 43.046875 
Q 18.109375 38.09375 18.109375 28.8125 
L 18.109375 0 
L 9.078125 0 
L 9.078125 54.6875 
L 18.109375 54.6875 
L 18.109375 46.1875 
Q 20.953125 51.171875 25.484375 53.578125 
Q 30.03125 56 36.53125 56 
Q 37.453125 56 38.578125 55.875 
Q 39.703125 55.765625 41.0625 55.515625 
z
" id="DejaVuSans-114"/>
       <path d="M 30.609375 48.390625 
Q 23.390625 48.390625 19.1875 42.75 
Q 14.984375 37.109375 14.984375 27.296875 
Q 14.984375 17.484375 19.15625 11.84375 
Q 23.34375 6.203125 30.609375 6.203125 
Q 37.796875 6.203125 41.984375 11.859375 
Q 46.1875 17.53125 46.1875 27.296875 
Q 46.1875 37.015625 41.984375 42.703125 
Q 37.796875 48.390625 30.609375 48.390625 
z
M 30.609375 56 
Q 42.328125 56 49.015625 48.375 
Q 55.71875 40.765625 55.71875 27.296875 
Q 55.71875 13.875 49.015625 6.21875 
Q 42.328125 -1.421875 30.609375 -1.421875 
Q 18.84375 -1.421875 12.171875 6.21875 
Q 5.515625 13.875 5.515625 27.296875 
Q 5.515625 40.765625 12.171875 48.375 
Q 18.84375 56 30.609375 56 
z
" id="DejaVuSans-111"/>
       <path d="M 45.40625 27.984375 
Q 45.40625 37.75 41.375 43.109375 
Q 37.359375 48.484375 30.078125 48.484375 
Q 22.859375 48.484375 18.828125 43.109375 
Q 14.796875 37.75 14.796875 27.984375 
Q 14.796875 18.265625 18.828125 12.890625 
Q 22.859375 7.515625 30.078125 7.515625 
Q 37.359375 7.515625 41.375 12.890625 
Q 45.40625 18.265625 45.40625 27.984375 
z
M 54.390625 6.78125 
Q 54.390625 -7.171875 48.1875 -13.984375 
Q 42 -20.796875 29.203125 -20.796875 
Q 24.46875 -20.796875 20.265625 -20.09375 
Q 16.0625 -19.390625 12.109375 -17.921875 
L 12.109375 -9.1875 
Q 16.0625 -11.328125 19.921875 -12.34375 
Q 23.78125 -13.375 27.78125 -13.375 
Q 36.625 -13.375 41.015625 -8.765625 
Q 45.40625 -4.15625 45.40625 5.171875 
L 45.40625 9.625 
Q 42.625 4.78125 38.28125 2.390625 
Q 33.9375 0 27.875 0 
Q 17.828125 0 11.671875 7.65625 
Q 5.515625 15.328125 5.515625 27.984375 
Q 5.515625 40.671875 11.671875 48.328125 
Q 17.828125 56 27.875 56 
Q 33.9375 56 38.28125 53.609375 
Q 42.625 51.21875 45.40625 46.390625 
L 45.40625 54.6875 
L 54.390625 54.6875 
z
" id="DejaVuSans-103"/>
       <path d="M 25.390625 72.90625 
L 33.6875 72.90625 
L 8.296875 -9.28125 
L 0 -9.28125 
z
" id="DejaVuSans-47"/>
       <path d="M 8.015625 75.875 
L 15.828125 75.875 
Q 23.140625 64.359375 26.78125 53.3125 
Q 30.421875 42.28125 30.421875 31.390625 
Q 30.421875 20.453125 26.78125 9.375 
Q 23.140625 -1.703125 15.828125 -13.1875 
L 8.015625 -13.1875 
Q 14.5 -2 17.703125 9.0625 
Q 20.90625 20.125 20.90625 31.390625 
Q 20.90625 42.671875 17.703125 53.65625 
Q 14.5 64.65625 8.015625 75.875 
z
" id="DejaVuSans-41"/>
      </defs>
      <use xlink:href="#DejaVuSans-80"/>
      <use x="60.302734" xlink:href="#DejaVuSans-77"/>
      <use x="146.582031" xlink:href="#DejaVuSans-50"/>
      <use x="210.205078" xlink:href="#DejaVuSans-46"/>
      <use x="241.992188" xlink:href="#DejaVuSans-53"/>
      <use x="305.615234" xlink:href="#DejaVuSans-40"/>
      <use x="344.628906" xlink:href="#DejaVuSans-109"/>
      <use x="442.041016" xlink:href="#DejaVuSans-105"/>
      <use x="469.824219" xlink:href="#DejaVuSans-99"/>
      <use x="524.804688" xlink:href="#DejaVuSans-114"/>
      <use x="563.667969" xlink:href="#DejaVuSans-111"/>
      <use x="626.724609" xlink:href="#DejaVuSans-45"/>
      <use x="662.808594" xlink:href="#DejaVuSans-103"/>
      <use x="726.285156" xlink:href="#DejaVuSans-114"/>
      <use x="767.398438" xlink:href="#DejaVuSans-97"/>
      <use x="828.677734" xlink:href="#DejaVuSans-109"/>
      <use x="926.089844" xlink:href="#DejaVuSans-47"/>
      <use x="959.78125" xlink:href="#DejaVuSans-109"/>
      <use x="1057.193359" xlink:href="#DejaVuSans-51"/>
      <use x="1120.816406" xlink:href="#DejaVuSans-41"/>
     </g>
    </g>
   </g>
   <g id="line2d_17">
    <path clip-path="url(#p3b2bce6071)" d="M 138.436364 234.648525 
L 139.273678 332.434969 
L 140.110992 340.564483 
L 140.948306 320.124561 
L 141.78562 324.537726 
L 142.622934 315.479125 
L 143.460248 291.787397 
L 144.297562 257.178893 
L 145.134876 332.899513 
L 145.97219 298.523281 
L 146.809504 294.342387 
L 147.646818 283.066646 
L 148.484132 263.450233 
L 149.321446 334.525415 
L 150.15876 330.809066 
L 150.996074 264.843864 
L 151.833388 305.955979 
L 152.670702 259.26934 
L 153.508016 271.812019 
L 154.345329 304.330076 
L 155.182643 342.190386 
L 156.019957 354.03625 
L 156.857271 396.541996 
L 157.694585 410.013763 
L 158.531899 390.502928 
L 159.369213 345.442192 
L 160.206527 318.498659 
L 161.043841 308.743241 
L 161.881155 305.955979 
L 162.718469 297.826465 
L 163.555783 305.955979 
L 164.393097 361.933492 
L 165.230411 371.498869 
L 166.905039 321.285921 
L 167.742353 403.045608 
L 168.579667 379.35388 
L 169.416981 335.222231 
L 170.254295 298.058737 
L 171.091609 278.780174 
L 171.928923 365.882114 
L 172.766237 378.889336 
L 173.603551 355.429881 
L 174.440865 433.70549 
L 175.278179 393.29019 
L 176.115493 389.235991 
L 176.952807 363.791667 
L 177.790121 354.733065 
L 178.627435 368.669376 
L 179.464749 283.890155 
L 180.302063 329.183163 
L 181.139377 315.246853 
L 181.976691 328.718619 
L 182.814005 355.535459 
L 183.651319 368.204832 
L 184.488633 353.339434 
L 185.325947 355.197609 
L 186.163261 344.745376 
L 187.000575 354.268522 
L 187.837889 346.603551 
L 188.675203 384.443663 
L 189.512517 392.128831 
L 191.187145 291.787397 
L 192.861773 370.295278 
L 193.699087 376.102074 
L 194.536401 341.261299 
L 195.373715 295.503747 
L 196.211029 223.731749 
L 197.048343 356.126696 
L 197.885657 269.024757 
L 198.722971 317.337299 
L 199.560285 318.761227 
L 200.397599 303.168717 
L 201.234913 337.777221 
L 202.072227 263.450233 
L 202.909541 291.090582 
L 203.746855 314.317766 
L 204.584169 344.513104 
L 205.421483 328.676388 
L 206.258797 356.59124 
L 207.096111 330.809066 
L 207.933425 353.339434 
L 208.770739 357.752599 
L 209.608053 393.754734 
L 210.445367 382.373414 
L 211.282681 353.571706 
L 212.119995 352.874891 
L 212.957309 344.745376 
L 215.469251 383.999317 
L 216.306565 383.999317 
L 217.981193 318.498659 
L 218.818507 370.759822 
L 219.655821 349.623085 
L 220.493135 314.550037 
L 221.330449 391.199744 
L 223.005077 321.982736 
L 223.842391 254.15936 
L 224.679705 328.021804 
L 225.517019 359.843046 
L 226.354333 331.505882 
L 228.028961 379.596251 
L 228.866275 391.432016 
L 229.703589 405.368326 
L 230.540903 374.2439 
L 231.378217 330.11225 
L 232.215531 277.386543 
L 233.052845 86.923636 
L 233.890159 157.069731 
L 234.727473 323.840911 
L 235.564787 344.745376 
L 236.402101 337.777221 
L 237.239415 374.940715 
L 238.076729 363.791667 
L 238.914043 379.121608 
L 239.751357 399.56153 
L 240.588671 398.9859 
L 241.425985 397.238812 
L 242.263299 408.38786 
L 243.100613 408.155588 
L 243.937927 406.297413 
L 244.775241 414.426928 
L 245.612555 381.212055 
L 247.287183 243.707127 
L 248.124497 341.029027 
L 248.961811 384.231589 
L 249.799125 416.05283 
L 250.636439 410.246035 
L 251.473753 406.761957 
L 252.311067 395.845181 
L 253.148381 391.714781 
L 253.985695 368.901647 
L 254.823009 365.41757 
L 255.660323 413.49784 
L 256.497637 415.356015 
L 257.334951 412.568753 
L 258.172265 371.35565 
L 259.009579 310.136872 
L 259.846893 314.317766 
L 260.684207 373.547084 
L 261.521521 422.091898 
L 263.196149 412.801025 
L 264.033463 417.108612 
L 264.870777 411.407394 
L 265.708091 409.165466 
L 266.545405 406.065141 
L 267.382719 412.104209 
L 268.220033 390.967472 
L 269.057347 387.715666 
L 269.89466 397.703355 
L 270.731974 415.820559 
L 271.569288 418.86029 
L 272.406602 428.130966 
L 273.243916 419.304636 
L 274.08123 427.201879 
L 274.918544 410.246035 
L 275.755858 429.524597 
L 276.593172 416.285102 
L 277.430486 420.233724 
L 278.2678 413.730112 
L 279.105114 411.407394 
L 279.942428 427.898694 
L 280.779742 406.297413 
L 281.617056 406.014648 
L 282.45437 398.864714 
L 283.291684 416.517374 
L 284.128998 411.407394 
L 284.966312 415.820559 
L 285.803626 423.485529 
L 286.64094 423.253257 
L 287.478254 423.485529 
L 288.315568 433.937762 
L 289.990196 416.05283 
L 290.82751 411.407394 
L 291.664824 411.175122 
L 292.502138 407.458772 
L 293.339452 401.419705 
L 294.176766 392.593375 
L 295.01408 387.018851 
L 295.851394 395.845181 
L 296.688708 390.7352 
L 297.526022 422.788714 
L 298.363336 410.478306 
L 299.20065 400.722889 
L 300.875278 409.892577 
L 301.712592 413.033297 
L 302.549906 413.49784 
L 303.38722 417.678733 
L 304.224534 407.226501 
L 305.061848 430.453684 
L 305.899162 430.918228 
L 306.736476 427.666422 
L 307.57379 407.226501 
L 308.411104 400.955161 
L 309.248418 409.084675 
L 310.085732 413.730112 
L 310.923046 411.871937 
L 311.76036 427.666422 
L 312.597674 427.585632 
L 313.434988 429.524597 
L 314.272302 429.017822 
L 315.109616 434.338959 
L 315.94693 437.886383 
L 316.784244 435.331393 
L 317.621558 413.962384 
L 318.458872 424.414617 
L 319.296186 421.395083 
L 320.1335 430.221413 
L 320.970814 418.607821 
L 321.808128 392.825647 
L 322.645442 400.490617 
L 323.482756 432.190674 
L 324.32007 429.989141 
L 325.157384 421.627355 
L 325.994698 406.761957 
L 326.832012 430.453684 
L 327.669326 414.891471 
L 328.50664 402.581064 
L 329.343954 429.989141 
L 330.181268 420.465995 
L 331.018582 339.635396 
L 331.855896 319.427746 
L 332.69321 388.644754 
L 333.530524 376.566618 
L 334.367838 408.819222 
L 335.205152 392.825647 
L 336.042466 362.145567 
L 336.87978 313.853222 
L 337.717094 310.136872 
L 338.554408 313.62095 
L 339.391722 359.610774 
L 340.229036 203.756371 
L 342.740978 303.865533 
L 343.578292 381.90887 
L 344.415606 388.644754 
L 345.25292 422.556442 
L 346.090234 436.028209 
L 346.927548 398.864714 
L 347.764862 372.734133 
L 348.602176 380.282967 
L 349.43949 396.774268 
L 350.276804 380.050696 
L 351.114118 407.226501 
L 351.951432 426.272791 
L 352.788746 435.331393 
L 353.62606 427.898694 
L 354.463374 433.937762 
L 355.300688 421.859626 
L 356.138002 435.099121 
L 356.975316 435.795937 
L 357.81263 406.065141 
L 358.649944 402.621459 
L 359.487258 366.346657 
L 360.324572 354.733065 
L 361.161886 374.476171 
L 361.9992 389.806113 
L 362.836514 372.385725 
L 363.673828 404.439239 
L 364.511142 423.020986 
L 365.348456 387.483394 
L 366.18577 361.004405 
L 367.023084 373.779356 
L 367.860398 336.151318 
L 368.697712 350.3199 
L 369.535026 328.325544 
L 370.37234 344.977648 
L 371.209654 350.087629 
L 372.046968 297.826465 
L 372.884282 266.702039 
L 373.721596 296.200562 
L 374.55891 306.885067 
L 375.396224 398.864714 
L 376.233538 374.011628 
L 377.070852 373.547084 
L 377.908166 334.293144 
L 378.74548 317.569571 
L 379.582794 342.422658 
L 380.420108 338.474037 
L 381.257422 335.106095 
L 382.094736 280.605167 
L 382.93205 326.163629 
L 383.769364 317.105028 
L 384.606678 297.12965 
L 385.443991 293.645572 
L 386.281305 336.615862 
L 387.118619 347.997182 
L 387.955933 345.906735 
L 388.793247 294.806931 
L 389.630561 252.301185 
L 390.467875 321.518192 
L 391.305189 307.117339 
L 392.142503 226.519011 
L 392.979817 305.259164 
L 393.817131 268.327942 
L 394.654445 356.571042 
L 395.491759 183.316449 
L 396.329073 242.081224 
L 397.166387 241.61668 
L 398.003701 278.547903 
L 398.841015 257.875709 
L 399.678329 311.06596 
L 400.515643 328.563772 
L 401.352957 313.62095 
L 402.190271 303.633261 
L 403.027585 301.310543 
L 403.864899 314.317766 
L 404.702213 381.444327 
L 405.539527 394.865599 
L 406.376841 383.534773 
L 407.214155 374.940715 
L 408.051469 363.327123 
L 408.888783 372.850269 
L 410.563411 263.450233 
L 411.400725 288.30332 
L 412.238039 275.992912 
L 413.075353 314.085494 
L 413.912667 326.628173 
L 414.749981 351.713531 
L 415.587295 329.879979 
L 416.424609 301.775086 
L 417.261923 297.361921 
L 418.099237 295.978389 
L 418.936551 296.665106 
L 419.773865 245.565302 
L 420.611179 172.167401 
L 421.448493 144.97048 
L 422.285807 222.105846 
L 423.123121 179.367828 
L 423.960435 183.548721 
L 424.797749 185.639167 
L 425.635063 168.249076 
L 426.472377 322.435055 
L 427.309691 291.090582 
L 428.147005 368.498228 
L 428.984319 316.822262 
L 429.821633 307.581882 
L 430.658947 311.995047 
L 431.496261 291.322854 
L 432.333575 229.538545 
L 433.170889 177.045109 
L 434.008203 150.798392 
L 434.845517 136.165266 
L 435.682831 264.147049 
L 436.520145 228.377186 
L 437.357459 326.860445 
L 438.194773 183.548721 
L 439.032087 272.741107 
L 439.869401 281.193782 
L 440.706715 357.520327 
L 441.544029 336.725166 
L 442.381343 335.454503 
L 443.218657 330.11225 
L 444.055971 251.604369 
L 444.893285 252.998 
L 445.730599 175.419207 
L 446.567913 233.254894 
L 447.405227 161.250624 
L 448.242541 287.838776 
L 449.079855 348.926269 
L 449.917169 321.285921 
L 450.754483 321.285921 
L 451.591797 259.733884 
L 452.429111 224.428564 
L 453.266425 171.399894 
L 454.103739 230.003088 
L 454.941053 252.068913 
L 455.778367 151.262935 
L 456.615681 221.176759 
L 457.452995 252.491225 
L 458.290309 325.00227 
L 459.127623 217.924953 
L 459.964937 216.763594 
L 460.802251 171.069388 
L 461.639565 180.993731 
L 462.476879 293.877844 
L 463.314193 191.445963 
L 464.151507 231.628991 
L 464.988821 228.599359 
L 465.826135 346.603551 
L 466.663449 295.039203 
L 467.500763 365.41757 
L 468.338077 369.133919 
L 469.175391 302.23963 
L 470.012705 308.743241 
L 470.850019 332.899513 
L 471.687333 341.725842 
L 472.524647 311.298232 
L 473.361961 299.916912 
L 474.199275 306.885067 
L 475.036589 316.09515 
L 475.873903 419.76918 
L 476.711217 399.793802 
L 477.548531 358.681687 
L 478.385845 338.93858 
L 479.223159 339.867668 
L 480.060473 294.110116 
L 480.897787 334.060872 
L 481.735101 344.745376 
L 482.572415 309.440057 
L 483.409729 320.124561 
L 484.247043 311.06596 
L 485.084357 292.484213 
L 485.921671 302.704174 
L 486.758985 309.904601 
L 487.596299 350.552172 
L 488.433613 371.59802 
L 489.270927 371.456638 
L 490.108241 331.27361 
L 490.945555 351.48126 
L 491.782869 344.048561 
L 492.620183 369.830735 
L 493.457497 361.70122 
L 494.294811 275.76064 
L 495.132125 226.286739 
L 495.969439 316.408212 
L 496.806753 338.009493 
L 497.644067 368.204832 
L 498.481381 321.581539 
L 499.318695 323.376367 
L 500.156009 357.984871 
L 500.993322 303.400989 
L 501.830636 321.982736 
L 502.66795 296.665106 
L 503.505264 342.65493 
L 504.342578 320.124561 
L 506.017206 346.876218 
L 506.85452 372.385725 
L 507.691834 370.759822 
L 508.529148 318.266387 
L 509.366462 317.105028 
L 510.203776 263.450233 
L 511.04109 159.281363 
L 511.878404 193.270956 
L 512.715718 357.288056 
L 513.553032 330.11225 
L 514.390346 319.427746 
L 515.22766 383.070229 
L 516.064974 385.62522 
L 516.902288 381.676598 
L 517.739602 381.444327 
L 518.576916 378.424793 
L 519.41423 375.869803 
L 520.251544 291.090582 
L 521.088858 302.007358 
L 521.926172 261.82433 
L 522.763486 346.633847 
L 523.6008 332.434969 
L 524.438114 336.615862 
L 525.275428 332.667241 
L 526.950056 376.566618 
L 527.78737 375.405259 
L 528.624684 369.598463 
L 529.461998 373.08254 
L 530.299312 349.390813 
L 531.136626 311.762775 
L 531.97394 231.396719 
L 532.811254 296.947872 
L 533.648568 347.997182 
L 534.485882 336.38359 
L 535.323196 333.8286 
L 536.16051 328.021804 
L 536.997824 366.578929 
L 537.835138 358.913958 
L 538.672452 372.153453 
L 539.509766 396.077452 
L 540.34708 364.023939 
L 541.184394 349.390813 
L 542.021708 306.885067 
L 542.859022 334.757687 
L 543.696336 350.552172 
L 544.53365 373.314812 
L 545.370964 388.644754 
L 546.208278 315.943668 
L 547.045592 336.696652 
L 547.882906 362.398036 
L 548.72022 361.468949 
L 550.394848 408.38786 
L 551.232162 404.67151 
L 552.069476 389.573841 
L 552.90679 377.495705 
L 553.744104 388.877025 
L 554.581418 393.987006 
L 555.418732 410.246035 
L 556.256046 407.691044 
L 557.09336 398.632443 
L 557.930674 393.057919 
L 559.605302 417.21419 
L 560.442616 417.21419 
L 561.27993 435.099121 
L 562.954558 431.847315 
L 563.791872 434.402306 
L 564.629186 426.272791 
L 565.4665 423.020986 
L 566.303814 425.404297 
L 567.141128 402.581064 
L 567.978442 396.541996 
L 568.815756 427.434151 
L 569.65307 410.013763 
L 570.490384 409.892577 
L 571.327698 398.864714 
L 573.002326 286.909689 
L 573.83964 387.483394 
L 574.676954 403.277879 
L 575.514268 429.292325 
L 576.351582 428.59551 
L 577.188896 428.827782 
L 578.02621 432.776403 
L 578.863524 425.111432 
L 579.700838 423.020986 
L 580.538152 418.143277 
L 581.375466 408.620132 
L 582.21278 404.903782 
L 583.050094 409.760375 
L 583.887408 394.683821 
L 584.724722 383.534773 
L 585.562036 379.121608 
L 586.39935 406.529685 
L 587.236664 412.568753 
L 588.073978 413.730112 
L 588.911292 407.226501 
L 589.748606 387.947938 
L 590.58592 380.979783 
L 591.423234 391.199744 
L 592.260548 381.90887 
L 593.097862 376.79889 
L 593.935176 383.534773 
L 594.77249 379.818424 
L 595.609804 389.806113 
L 596.447118 403.277879 
L 597.284432 428.363238 
L 598.121746 423.717801 
L 598.95906 420.233724 
L 599.796374 420.930539 
L 600.633688 411.639666 
L 601.471002 433.937762 
L 602.308316 428.363238 
L 603.982944 431.847315 
L 604.820258 420.698267 
L 605.657572 439.153321 
L 606.494886 428.130966 
L 607.3322 388.563963 
L 608.169514 426.505063 
L 609.006828 442.996364 
L 609.844142 437.42184 
L 611.51877 413.49784 
L 613.193398 328.254076 
L 614.030712 355.662153 
L 614.868026 404.439239 
L 615.70534 299.916912 
L 616.542653 360.075318 
L 617.379967 405.772277 
L 618.217281 424.646888 
L 619.054595 410.013763 
L 619.891909 408.38786 
L 620.729223 391.664287 
L 621.566537 428.827782 
L 622.403851 356.823512 
L 623.241165 372.850269 
L 624.078479 359.843046 
L 624.915793 367.275745 
L 625.753107 389.109297 
L 626.590421 402.813336 
L 627.427735 391.432016 
L 628.265049 412.104209 
L 629.102363 424.710235 
L 629.939677 410.94285 
L 630.776991 424.414617 
L 631.614305 427.898694 
L 632.451619 424.646888 
L 633.288933 412.104209 
L 634.126247 408.852403 
L 634.963561 416.749646 
L 635.800875 421.627355 
L 636.638189 433.240946 
L 637.475503 433.937762 
L 638.312817 427.434151 
L 639.150131 433.008675 
L 639.987445 429.524597 
L 640.824759 429.524597 
L 641.662073 420.698267 
L 642.499387 426.737335 
L 643.336701 426.272791 
L 645.011329 400.955161 
L 645.848643 422.556442 
L 646.685957 435.331393 
L 647.523271 439.280014 
L 648.360585 436.492752 
L 649.197899 434.866849 
L 650.035213 400.722889 
L 651.709841 427.898694 
L 652.547155 371.921181 
L 653.384469 391.664287 
L 654.221783 388.644754 
L 655.059097 340.09994 
L 656.733725 422.556442 
L 657.571039 399.096986 
L 658.408353 399.793802 
L 659.245667 354.965337 
L 660.082981 344.280833 
L 660.920295 434.170034 
L 661.757609 430.918228 
L 662.594923 427.201879 
L 663.432237 440.441373 
L 664.269551 439.913483 
L 665.944179 394.683821 
L 667.618807 334.989959 
L 668.456121 324.073183 
L 669.293435 318.034115 
L 670.130749 295.271475 
L 670.968063 296.432834 
L 671.805377 369.133919 
L 672.642691 395.845181 
L 673.480005 380.515239 
L 674.317319 373.08254 
L 675.154633 370.063007 
L 675.991947 398.167899 
L 676.829261 440.16687 
L 677.666575 421.859626 
L 678.503889 420.698267 
L 679.341203 346.666898 
L 680.178517 398.400171 
L 681.015831 416.517374 
L 681.853145 399.096986 
L 682.690459 353.571706 
L 684.365087 410.94285 
L 685.202401 347.300366 
L 686.039715 320.954104 
L 686.877029 377.263434 
L 687.714343 403.974695 
L 688.551657 407.458772 
L 689.388971 337.777221 
L 690.226285 375.695599 
L 691.063599 361.440268 
L 691.900913 285.748329 
L 693.575541 316.872756 
L 694.412855 308.975513 
L 695.250169 287.374232 
L 696.087483 293.181028 
L 696.924797 288.30332 
L 697.762111 350.3199 
L 698.599425 307.581882 
L 699.436739 342.998288 
L 700.274053 355.197609 
L 701.111367 391.199744 
L 701.948681 396.077452 
L 702.785995 411.407394 
L 703.623309 378.608287 
L 704.460623 381.123791 
L 706.135251 327.092717 
L 706.972565 331.970425 
L 707.809879 335.454503 
L 708.647193 329.415435 
L 709.484507 262.035486 
L 710.321821 235.809884 
L 711.159135 331.041338 
L 711.996449 273.902466 
L 712.833763 350.087629 
L 713.671077 355.429881 
L 714.508391 391.664287 
L 715.345705 330.809066 
L 716.183019 298.755552 
L 717.020333 261.592058 
L 717.857647 286.909689 
L 718.694961 303.865533 
L 719.532275 260.895243 
L 720.369589 271.347476 
L 721.206903 264.611592 
L 722.044217 346.603551 
L 722.881531 337.908505 
L 723.718845 358.681687 
L 724.556159 354.500793 
L 725.393473 294.806931 
L 726.230787 295.039203 
L 727.068101 295.503747 
L 727.905415 342.65493 
L 728.742729 314.317766 
L 729.580043 321.518192 
L 730.417357 343.119473 
L 732.091984 116.42216 
L 732.929298 198.435234 
L 733.766612 298.058737 
L 734.603926 334.525415 
L 735.44124 333.131784 
L 736.278554 226.286739 
L 737.115868 265.076136 
L 737.953182 310.601416 
L 738.790496 400.955161 
L 740.465124 276.922 
L 741.302438 96.679054 
L 742.139752 230.003088 
L 742.977066 260.662971 
L 743.81438 326.163629 
L 744.651694 252.998 
L 745.489008 192.142779 
L 746.326322 277.238734 
L 747.163636 268.327942 
L 747.163636 268.327942 
" style="fill:none;stroke:#1f77b4;stroke-linecap:square;stroke-width:1.5;"/>
   </g>
   <g id="line2d_18">
    <path clip-path="url(#p3b2bce6071)" d="M 138.436364 217.033143 
L 139.273678 255.567628 
L 140.110992 322.213658 
L 140.948306 269.308023 
L 141.78562 338.819007 
L 142.622934 293.930556 
L 143.460248 228.658807 
L 144.297562 205.2552 
L 145.134876 266.599186 
L 145.97219 209.263144 
L 146.809504 281.215694 
L 147.646818 235.313365 
L 148.484132 244.736515 
L 149.321446 233.719757 
L 150.15876 302.247388 
L 150.996074 257.703752 
L 151.833388 271.907216 
L 152.670702 184.607745 
L 153.508016 240.069224 
L 155.182643 282.750568 
L 156.019957 253.699891 
L 156.857271 271.401829 
L 157.694585 301.288002 
L 158.531899 268.01992 
L 159.369213 269.789306 
L 160.206527 174.212652 
L 161.043841 122.529708 
L 161.881155 250.342511 
L 162.718469 233.723223 
L 163.555783 323.943618 
L 164.393097 277.910764 
L 165.230411 286.094359 
L 166.067725 256.660379 
L 166.905039 271.84862 
L 167.742353 307.928493 
L 168.579667 275.497396 
L 169.416981 262.448384 
L 170.254295 262.872984 
L 171.091609 198.531424 
L 171.928923 255.275573 
L 172.766237 297.141973 
L 173.603551 285.941176 
L 174.440865 317.52657 
L 175.278179 292.801666 
L 176.115493 264.369602 
L 176.952807 262.79879 
L 177.790121 251.109502 
L 178.627435 287.659366 
L 179.464749 258.608285 
L 180.302063 315.881223 
L 181.139377 306.918857 
L 181.976691 265.880383 
L 182.814005 289.690291 
L 183.651319 327.320689 
L 184.488633 199.830574 
L 185.325947 277.962162 
L 186.163261 287.54783 
L 187.000575 277.061339 
L 187.837889 227.294819 
L 188.675203 281.467334 
L 189.512517 275.519767 
L 190.349831 284.937877 
L 191.187145 266.21265 
L 192.024459 262.266397 
L 192.861773 273.260901 
L 193.699087 273.816005 
L 194.536401 278.603241 
L 195.373715 258.110639 
L 196.211029 218.385137 
L 197.048343 295.203146 
L 197.885657 207.394876 
L 198.722971 222.743318 
L 199.560285 286.865698 
L 200.397599 260.718126 
L 201.234913 310.057302 
L 202.072227 294.415274 
L 202.909541 267.472694 
L 203.746855 276.36413 
L 204.584169 280.72784 
L 205.421483 243.347838 
L 206.258797 270.482602 
L 207.096111 267.907651 
L 207.933425 268.504456 
L 208.770739 315.050937 
L 209.608053 318.717385 
L 210.445367 324.125849 
L 211.282681 284.804236 
L 212.119995 310.008945 
L 212.957309 263.256883 
L 213.794623 276.532827 
L 214.631937 280.612572 
L 215.469251 303.091582 
L 216.306565 286.413868 
L 217.143879 305.726373 
L 217.981193 250.014114 
L 218.818507 299.884216 
L 219.655821 315.538228 
L 221.330449 235.278554 
L 222.167763 331.708949 
L 223.005077 296.534418 
L 223.842391 277.074194 
L 225.517019 309.361667 
L 226.354333 317.216237 
L 227.191647 310.285126 
L 228.028961 285.811544 
L 228.866275 376.34065 
L 229.703589 359.167426 
L 230.540903 274.906938 
L 231.378217 297.998734 
L 232.215531 225.703763 
L 233.052845 220.359008 
L 233.890159 205.747743 
L 234.727473 291.096054 
L 235.564787 309.248313 
L 236.402101 297.61274 
L 237.239415 344.463578 
L 238.076729 318.953608 
L 238.914043 325.813588 
L 240.588671 384.721713 
L 241.425985 388.145131 
L 242.263299 337.056054 
L 243.100613 357.88313 
L 243.937927 283.644213 
L 244.775241 312.927934 
L 245.612555 317.534906 
L 246.449869 366.895161 
L 247.287183 203.727663 
L 248.124497 310.018057 
L 248.961811 351.332786 
L 249.799125 287.536262 
L 251.473753 331.904929 
L 252.311067 330.573317 
L 253.148381 338.004393 
L 253.985695 292.70727 
L 254.823009 345.942557 
L 255.660323 301.490244 
L 256.497637 344.463153 
L 257.334951 323.334478 
L 258.172265 322.946741 
L 259.009579 327.438689 
L 259.846893 256.6836 
L 260.684207 320.75067 
L 261.521521 327.781122 
L 262.358835 301.471658 
L 263.196149 339.577204 
L 264.033463 314.901295 
L 264.870777 277.092004 
L 265.708091 357.029543 
L 267.382719 318.754726 
L 268.220033 282.417449 
L 269.057347 311.470699 
L 269.89466 300.98894 
L 270.731974 324.895934 
L 271.569288 329.505404 
L 272.406602 411.14671 
L 273.243916 419.692259 
L 274.08123 397.439872 
L 274.918544 315.704563 
L 275.755858 373.536981 
L 276.593172 395.356815 
L 277.430486 377.207331 
L 278.2678 381.677557 
L 279.105114 392.10693 
L 279.942428 399.73929 
L 280.779742 409.999467 
L 281.617056 405.245213 
L 282.45437 362.220768 
L 283.291684 299.032527 
L 284.128998 338.094812 
L 284.966312 331.798156 
L 285.803626 337.322187 
L 286.64094 390.836222 
L 287.478254 380.695459 
L 288.315568 377.161175 
L 289.152882 314.392941 
L 289.990196 347.82519 
L 290.82751 344.1671 
L 291.664824 342.477012 
L 292.502138 372.402062 
L 293.339452 372.188294 
L 294.176766 361.1574 
L 295.01408 304.575749 
L 295.851394 302.634275 
L 296.688708 282.653875 
L 298.363336 387.759106 
L 300.037964 375.344549 
L 300.875278 360.369246 
L 301.712592 373.508018 
L 302.549906 384.037507 
L 303.38722 387.593408 
L 304.224534 396.861311 
L 305.061848 349.813202 
L 305.899162 394.579532 
L 306.736476 402.93547 
L 307.57379 379.934965 
L 308.411104 365.323881 
L 309.248418 374.806201 
L 310.085732 380.310082 
L 310.923046 388.678567 
L 311.76036 382.176331 
L 312.597674 369.019653 
L 313.434988 391.865135 
L 314.272302 329.821191 
L 315.109616 314.554716 
L 315.94693 333.396241 
L 316.784244 345.522762 
L 317.621558 352.849043 
L 318.458872 325.099813 
L 319.296186 346.301586 
L 320.1335 345.163934 
L 320.970814 375.712914 
L 321.808128 412.691632 
L 322.645442 357.891434 
L 323.482756 291.5937 
L 325.157384 359.722255 
L 325.994698 382.78748 
L 326.832012 392.639058 
L 328.50664 299.391525 
L 329.343954 308.123941 
L 330.181268 328.454131 
L 331.018582 336.704871 
L 331.855896 264.876329 
L 332.69321 355.410714 
L 333.530524 362.862932 
L 334.367838 347.664319 
L 335.205152 344.27284 
L 336.042466 318.069691 
L 336.87978 262.854675 
L 337.717094 306.095727 
L 338.554408 331.602252 
L 339.391722 309.380061 
L 340.229036 271.31443 
L 342.740978 245.463038 
L 343.578292 311.982731 
L 344.415606 327.733201 
L 345.25292 349.716371 
L 346.090234 367.684804 
L 346.927548 301.010779 
L 347.764862 303.279342 
L 348.602176 347.668285 
L 349.43949 360.296657 
L 350.276804 314.478927 
L 351.114118 358.929246 
L 351.951432 388.595856 
L 352.788746 323.245165 
L 353.62606 377.086513 
L 354.463374 352.434915 
L 355.300688 324.50086 
L 356.138002 341.156214 
L 356.975316 378.499974 
L 357.81263 351.077605 
L 358.649944 368.132387 
L 359.487258 378.622589 
L 360.324572 283.414348 
L 361.161886 354.426436 
L 361.9992 333.604831 
L 362.836514 327.884842 
L 363.673828 308.201984 
L 364.511142 329.893248 
L 365.348456 365.360691 
L 366.18577 289.277057 
L 367.023084 330.913251 
L 367.860398 340.864956 
L 368.697712 341.431395 
L 369.535026 314.562594 
L 370.37234 273.854453 
L 371.209654 310.666197 
L 372.046968 316.115459 
L 372.884282 282.577916 
L 373.721596 315.252361 
L 374.55891 301.974727 
L 375.396224 349.556117 
L 376.233538 308.546011 
L 377.070852 318.505201 
L 377.908166 353.033326 
L 378.74548 277.263464 
L 379.582794 287.412191 
L 380.420108 327.542431 
L 381.257422 280.790742 
L 382.094736 190.10833 
L 382.93205 240.553282 
L 383.769364 274.76074 
L 384.606678 276.91864 
L 385.443991 262.269331 
L 386.281305 298.007825 
L 387.118619 272.374071 
L 387.955933 331.68476 
L 388.793247 277.845406 
L 389.630561 256.413236 
L 390.467875 274.985406 
L 391.305189 253.366582 
L 392.142503 189.126626 
L 392.979817 273.576124 
L 393.817131 305.12558 
L 394.654445 321.538277 
L 395.491759 290.779246 
L 396.329073 144.840372 
L 397.166387 260.743155 
L 398.003701 280.568415 
L 398.841015 232.233367 
L 399.678329 301.192819 
L 400.515643 242.922727 
L 401.352957 246.34486 
L 402.190271 294.604852 
L 403.027585 312.671041 
L 403.864899 292.377437 
L 405.539527 338.556318 
L 406.376841 318.685412 
L 407.214155 307.335196 
L 408.051469 345.224263 
L 408.888783 279.915714 
L 409.726097 345.872775 
L 410.563411 214.332537 
L 411.400725 298.285101 
L 412.238039 292.835116 
L 413.075353 301.252946 
L 413.912667 373.558417 
L 414.749981 307.397088 
L 415.587295 264.20063 
L 416.424609 268.391241 
L 417.261923 305.379719 
L 418.099237 193.042343 
L 418.936551 202.778749 
L 419.773865 159.178083 
L 420.611179 219.341706 
L 421.448493 154.719468 
L 422.285807 215.266756 
L 423.123121 177.551255 
L 423.960435 225.08129 
L 425.635063 240.959149 
L 426.472377 276.756206 
L 427.309691 297.659778 
L 428.147005 286.159707 
L 428.984319 248.672667 
L 429.821633 244.855812 
L 430.658947 262.21602 
L 431.496261 242.936188 
L 432.333575 241.992378 
L 433.170889 155.523162 
L 434.008203 111.907886 
L 434.845517 198.760471 
L 436.520145 283.389861 
L 437.357459 242.603028 
L 438.194773 215.903497 
L 439.032087 141.745617 
L 439.869401 251.14831 
L 440.706715 281.117236 
L 441.544029 235.498606 
L 442.381343 223.909582 
L 443.218657 256.143275 
L 444.055971 257.940433 
L 444.893285 288.616052 
L 445.730599 218.250423 
L 446.567913 248.722832 
L 447.405227 216.066516 
L 448.242541 253.874478 
L 449.917169 206.14102 
L 450.754483 200.710504 
L 451.591797 205.247928 
L 452.429111 186.822763 
L 453.266425 155.670465 
L 454.103739 135.540943 
L 454.941053 175.939231 
L 455.778367 170.478199 
L 456.615681 216.711147 
L 457.452995 196.032326 
L 458.290309 289.649366 
L 459.127623 302.960535 
L 459.964937 193.166765 
L 460.802251 246.58926 
L 461.639565 164.35344 
L 462.476879 291.285633 
L 463.314193 309.612074 
L 464.151507 160.399403 
L 464.988821 255.410202 
L 465.826135 284.333841 
L 466.663449 250.722944 
L 467.500763 291.253937 
L 468.338077 301.757727 
L 469.175391 334.342996 
L 470.012705 251.358282 
L 470.850019 325.387626 
L 471.687333 350.640001 
L 472.524647 306.815689 
L 473.361961 303.546336 
L 474.199275 262.9694 
L 475.036589 303.640137 
L 475.873903 297.430232 
L 476.711217 276.860618 
L 477.548531 333.439866 
L 478.385845 309.114002 
L 479.223159 268.050776 
L 480.060473 246.422328 
L 480.897787 299.729981 
L 481.735101 251.359728 
L 482.572415 270.571384 
L 483.409729 260.609206 
L 484.247043 285.131389 
L 485.084357 316.256489 
L 485.921671 304.314741 
L 486.758985 303.238077 
L 487.596299 339.084821 
L 488.433613 289.255037 
L 489.270927 263.820303 
L 490.108241 271.726835 
L 490.945555 263.973305 
L 491.782869 308.202175 
L 492.620183 284.903374 
L 493.457497 357.950609 
L 494.294811 276.779428 
L 495.132125 249.643186 
L 495.969439 277.692807 
L 496.806753 289.154219 
L 497.644067 277.601612 
L 498.481381 276.814462 
L 499.318695 265.993535 
L 500.156009 281.115333 
L 500.993322 291.779409 
L 501.830636 259.099914 
L 502.66795 275.190476 
L 503.505264 321.643433 
L 504.342578 294.087312 
L 505.179892 320.83017 
L 506.017206 260.957869 
L 506.85452 278.222341 
L 507.691834 314.000642 
L 508.529148 229.21002 
L 509.366462 286.282598 
L 510.203776 285.542646 
L 511.04109 236.403117 
L 511.878404 236.684519 
L 512.715718 337.985616 
L 513.553032 335.58977 
L 514.390346 276.377804 
L 515.22766 326.453264 
L 516.064974 343.202609 
L 516.902288 289.456747 
L 517.739602 317.886025 
L 518.576916 341.728479 
L 519.41423 332.783508 
L 520.251544 279.345724 
L 521.088858 283.31639 
L 521.926172 253.54859 
L 522.763486 324.05257 
L 523.6008 309.617635 
L 524.438114 283.012862 
L 525.275428 294.420282 
L 526.112742 336.775386 
L 526.950056 323.255755 
L 527.78737 364.731716 
L 528.624684 362.47277 
L 529.461998 306.01107 
L 530.299312 277.250227 
L 531.136626 292.764335 
L 531.97394 280.522706 
L 532.811254 292.355789 
L 533.648568 315.466649 
L 534.485882 320.746354 
L 535.323196 365.057993 
L 536.16051 340.592114 
L 536.997824 400.834678 
L 537.835138 333.399271 
L 538.672452 293.300056 
L 539.509766 331.461157 
L 540.34708 312.462143 
L 541.184394 287.174074 
L 542.021708 214.892235 
L 542.859022 297.6008 
L 543.696336 300.0048 
L 544.53365 327.30422 
L 545.370964 319.285418 
L 546.208278 331.580168 
L 547.045592 286.712462 
L 547.882906 330.979598 
L 548.72022 353.407912 
L 549.557534 351.047387 
L 550.394848 366.190903 
L 551.232162 366.363256 
L 552.069476 364.244283 
L 552.90679 302.902641 
L 553.744104 334.374554 
L 554.581418 349.016568 
L 555.418732 384.865879 
L 556.256046 399.498229 
L 557.09336 385.924744 
L 557.930674 359.864688 
L 558.767988 365.735526 
L 559.605302 325.757161 
L 560.442616 375.501039 
L 561.27993 416.348446 
L 562.117244 423.134348 
L 562.954558 362.911752 
L 563.791872 363.000853 
L 564.629186 414.214544 
L 565.4665 408.05894 
L 566.303814 418.260191 
L 567.141128 358.365258 
L 567.978442 362.979114 
L 568.815756 316.793157 
L 569.65307 306.388749 
L 570.490384 301.697844 
L 571.327698 365.549541 
L 572.165012 301.890166 
L 573.002326 276.345609 
L 573.83964 353.334972 
L 574.676954 404.753691 
L 575.514268 387.213241 
L 576.351582 346.412537 
L 577.188896 385.279018 
L 578.02621 409.387414 
L 578.863524 286.29793 
L 581.375466 415.132751 
L 582.21278 384.037539 
L 583.050094 371.99879 
L 583.887408 374.161559 
L 584.724722 379.016727 
L 586.39935 356.532694 
L 587.236664 281.570491 
L 588.073978 331.484538 
L 588.911292 343.262853 
L 589.748606 332.170009 
L 590.58592 307.24349 
L 591.423234 340.267502 
L 592.260548 289.577384 
L 593.097862 305.647128 
L 593.935176 329.734706 
L 594.77249 367.364578 
L 595.609804 361.86571 
L 596.447118 343.940467 
L 597.284432 369.03044 
L 598.121746 388.110522 
L 598.95906 396.27013 
L 599.796374 383.501828 
L 600.633688 392.279347 
L 601.471002 403.472617 
L 602.308316 437.872502 
L 603.14563 419.982751 
L 603.982944 409.969696 
L 604.820258 409.019156 
L 605.657572 406.649434 
L 606.494886 406.017318 
L 607.3322 334.075906 
L 608.169514 371.042264 
L 609.006828 333.060507 
L 609.844142 307.960667 
L 610.681456 342.498617 
L 611.51877 327.228229 
L 612.356084 346.817234 
L 613.193398 341.827766 
L 614.030712 332.364277 
L 614.868026 358.613534 
L 615.70534 332.416844 
L 616.542653 338.892722 
L 617.379967 358.672433 
L 618.217281 296.067978 
L 619.054595 332.484903 
L 619.891909 350.485265 
L 620.729223 252.021775 
L 621.566537 318.026832 
L 622.403851 327.4392 
L 623.241165 320.964576 
L 624.078479 317.661252 
L 624.915793 297.370466 
L 626.590421 356.393662 
L 627.427735 298.732295 
L 628.265049 322.022686 
L 629.102363 351.099891 
L 629.939677 386.69468 
L 630.776991 337.600037 
L 631.614305 311.750442 
L 632.451619 319.696548 
L 633.288933 337.549 
L 634.126247 384.107299 
L 634.963561 382.865033 
L 635.800875 322.960106 
L 636.638189 379.099512 
L 637.475503 417.047218 
L 638.312817 410.414052 
L 639.987445 404.12234 
L 640.824759 382.85338 
L 641.662073 381.616356 
L 642.499387 325.828346 
L 643.336701 390.55649 
L 644.174015 310.670046 
L 645.011329 377.288319 
L 646.685957 332.393069 
L 647.523271 399.842458 
L 648.360585 415.550483 
L 649.197899 403.114756 
L 650.035213 395.513889 
L 650.872527 384.852132 
L 651.709841 399.799109 
L 652.547155 386.055706 
L 653.384469 368.465649 
L 654.221783 391.430965 
L 655.059097 351.884499 
L 655.896411 340.05384 
L 656.733725 358.441084 
L 657.571039 293.550708 
L 658.408353 374.467735 
L 659.245667 334.07144 
L 660.082981 310.194313 
L 660.920295 369.488007 
L 661.757609 368.017997 
L 662.594923 355.329896 
L 663.432237 339.468752 
L 664.269551 389.877697 
L 665.106865 324.285806 
L 665.944179 355.494052 
L 666.781493 341.811722 
L 667.618807 312.082964 
L 668.456121 348.584163 
L 669.293435 321.334334 
L 670.130749 277.974272 
L 670.968063 258.311616 
L 671.805377 299.39447 
L 672.642691 395.769145 
L 673.480005 323.697368 
L 674.317319 359.407339 
L 675.154633 342.995445 
L 675.991947 371.84969 
L 676.829261 351.147971 
L 677.666575 292.341733 
L 678.503889 295.461241 
L 679.341203 321.279321 
L 680.178517 359.078538 
L 681.015831 345.908522 
L 681.853145 303.861188 
L 682.690459 316.619772 
L 683.527773 281.627131 
L 684.365087 372.928395 
L 685.202401 338.384805 
L 686.039715 329.078624 
L 686.877029 351.501738 
L 687.714343 389.545961 
L 688.551657 293.51325 
L 689.388971 294.433604 
L 690.226285 281.957262 
L 691.063599 361.893418 
L 691.900913 289.778042 
L 692.738227 260.31243 
L 693.575541 282.580404 
L 694.412855 284.659293 
L 695.250169 302.58107 
L 696.087483 271.785675 
L 696.924797 316.593531 
L 697.762111 341.794252 
L 698.599425 308.414188 
L 699.436739 310.708621 
L 700.274053 346.411888 
L 701.111367 301.700343 
L 701.948681 292.220469 
L 702.785995 327.780792 
L 704.460623 309.737485 
L 705.297937 289.394515 
L 706.135251 250.864804 
L 706.972565 258.886135 
L 707.809879 242.78914 
L 708.647193 268.295303 
L 709.484507 279.160675 
L 710.321821 237.807275 
L 711.159135 292.359372 
L 711.996449 273.992761 
L 712.833763 316.910009 
L 713.671077 320.181244 
L 714.508391 283.597249 
L 716.183019 225.624614 
L 717.020333 271.515502 
L 717.857647 265.353412 
L 718.694961 248.478666 
L 719.532275 243.575609 
L 720.369589 253.126647 
L 721.206903 176.350562 
L 722.044217 294.305142 
L 722.881531 260.50692 
L 723.718845 267.160735 
L 724.556159 262.303993 
L 725.393473 246.283425 
L 726.230787 288.596169 
L 727.068101 262.942415 
L 727.905415 323.278275 
L 728.742729 268.116527 
L 729.580043 335.590355 
L 730.417357 310.834765 
L 732.091984 152.326631 
L 732.929298 242.081692 
L 733.766612 297.509158 
L 734.603926 319.690158 
L 735.44124 295.793487 
L 736.278554 208.974491 
L 737.953182 287.391032 
L 738.790496 254.515791 
L 739.62781 274.547334 
L 740.465124 265.180399 
L 741.302438 177.353468 
L 742.139752 216.962671 
L 742.977066 226.034202 
L 743.81438 279.526041 
L 744.651694 207.260799 
L 745.489008 188.700048 
L 746.326322 213.279424 
L 747.163636 226.948219 
L 747.163636 226.948219 
" style="fill:none;stroke:#ff0000;stroke-dasharray:5.55,2.4;stroke-dashoffset:0;stroke-width:1.5;"/>
   </g>
   <g id="patch_3">
    <path d="M 108 460.8 
L 108 69.12 
" style="fill:none;stroke:#000000;stroke-linecap:square;stroke-linejoin:miter;stroke-width:0.8;"/>
   </g>
   <g id="patch_4">
    <path d="M 777.6 460.8 
L 777.6 69.12 
" style="fill:none;stroke:#000000;stroke-linecap:square;stroke-linejoin:miter;stroke-width:0.8;"/>
   </g>
   <g id="patch_5">
    <path d="M 108 460.8 
L 777.6 460.8 
" style="fill:none;stroke:#000000;stroke-linecap:square;stroke-linejoin:miter;stroke-width:0.8;"/>
   </g>
   <g id="patch_6">
    <path d="M 108 69.12 
L 777.6 69.12 
" style="fill:none;stroke:#000000;stroke-linecap:square;stroke-linejoin:miter;stroke-width:0.8;"/>
   </g>
   <g id="text_19">
    <!-- Macau residential 2020-2021 | Forecast vs Monitored | RNN -->
    <g transform="translate(219.680859 63.12)scale(0.15 -0.15)">
     <defs>
      <path d="M 8.5 21.578125 
L 8.5 54.6875 
L 17.484375 54.6875 
L 17.484375 21.921875 
Q 17.484375 14.15625 20.5 10.265625 
Q 23.53125 6.390625 29.59375 6.390625 
Q 36.859375 6.390625 41.078125 11.03125 
Q 45.3125 15.671875 45.3125 23.6875 
L 45.3125 54.6875 
L 54.296875 54.6875 
L 54.296875 0 
L 45.3125 0 
L 45.3125 8.40625 
Q 42.046875 3.421875 37.71875 1 
Q 33.40625 -1.421875 27.6875 -1.421875 
Q 18.265625 -1.421875 13.375 4.4375 
Q 8.5 10.296875 8.5 21.578125 
z
M 31.109375 56 
z
" id="DejaVuSans-117"/>
      <path id="DejaVuSans-32"/>
      <path d="M 44.28125 53.078125 
L 44.28125 44.578125 
Q 40.484375 46.53125 36.375 47.5 
Q 32.28125 48.484375 27.875 48.484375 
Q 21.1875 48.484375 17.84375 46.4375 
Q 14.5 44.390625 14.5 40.28125 
Q 14.5 37.15625 16.890625 35.375 
Q 19.28125 33.59375 26.515625 31.984375 
L 29.59375 31.296875 
Q 39.15625 29.25 43.1875 25.515625 
Q 47.21875 21.78125 47.21875 15.09375 
Q 47.21875 7.46875 41.1875 3.015625 
Q 35.15625 -1.421875 24.609375 -1.421875 
Q 20.21875 -1.421875 15.453125 -0.5625 
Q 10.6875 0.296875 5.421875 2 
L 5.421875 11.28125 
Q 10.40625 8.6875 15.234375 7.390625 
Q 20.0625 6.109375 24.8125 6.109375 
Q 31.15625 6.109375 34.5625 8.28125 
Q 37.984375 10.453125 37.984375 14.40625 
Q 37.984375 18.0625 35.515625 20.015625 
Q 33.0625 21.96875 24.703125 23.78125 
L 21.578125 24.515625 
Q 13.234375 26.265625 9.515625 29.90625 
Q 5.8125 33.546875 5.8125 39.890625 
Q 5.8125 47.609375 11.28125 51.796875 
Q 16.75 56 26.8125 56 
Q 31.78125 56 36.171875 55.265625 
Q 40.578125 54.546875 44.28125 53.078125 
z
" id="DejaVuSans-115"/>
      <path d="M 45.40625 46.390625 
L 45.40625 75.984375 
L 54.390625 75.984375 
L 54.390625 0 
L 45.40625 0 
L 45.40625 8.203125 
Q 42.578125 3.328125 38.25 0.953125 
Q 33.9375 -1.421875 27.875 -1.421875 
Q 17.96875 -1.421875 11.734375 6.484375 
Q 5.515625 14.40625 5.515625 27.296875 
Q 5.515625 40.1875 11.734375 48.09375 
Q 17.96875 56 27.875 56 
Q 33.9375 56 38.25 53.625 
Q 42.578125 51.265625 45.40625 46.390625 
z
M 14.796875 27.296875 
Q 14.796875 17.390625 18.875 11.75 
Q 22.953125 6.109375 30.078125 6.109375 
Q 37.203125 6.109375 41.296875 11.75 
Q 45.40625 17.390625 45.40625 27.296875 
Q 45.40625 37.203125 41.296875 42.84375 
Q 37.203125 48.484375 30.078125 48.484375 
Q 22.953125 48.484375 18.875 42.84375 
Q 14.796875 37.203125 14.796875 27.296875 
z
" id="DejaVuSans-100"/>
      <path d="M 54.890625 33.015625 
L 54.890625 0 
L 45.90625 0 
L 45.90625 32.71875 
Q 45.90625 40.484375 42.875 44.328125 
Q 39.84375 48.1875 33.796875 48.1875 
Q 26.515625 48.1875 22.3125 43.546875 
Q 18.109375 38.921875 18.109375 30.90625 
L 18.109375 0 
L 9.078125 0 
L 9.078125 54.6875 
L 18.109375 54.6875 
L 18.109375 46.1875 
Q 21.34375 51.125 25.703125 53.5625 
Q 30.078125 56 35.796875 56 
Q 45.21875 56 50.046875 50.171875 
Q 54.890625 44.34375 54.890625 33.015625 
z
" id="DejaVuSans-110"/>
      <path d="M 9.421875 75.984375 
L 18.40625 75.984375 
L 18.40625 0 
L 9.421875 0 
z
" id="DejaVuSans-108"/>
      <path d="M 21 76.421875 
L 21 -23.578125 
L 12.703125 -23.578125 
L 12.703125 76.421875 
z
" id="DejaVuSans-124"/>
      <path d="M 9.8125 72.90625 
L 51.703125 72.90625 
L 51.703125 64.59375 
L 19.671875 64.59375 
L 19.671875 43.109375 
L 48.578125 43.109375 
L 48.578125 34.8125 
L 19.671875 34.8125 
L 19.671875 0 
L 9.8125 0 
z
" id="DejaVuSans-70"/>
      <path d="M 2.984375 54.6875 
L 12.5 54.6875 
L 29.59375 8.796875 
L 46.6875 54.6875 
L 56.203125 54.6875 
L 35.6875 0 
L 23.484375 0 
z
" id="DejaVuSans-118"/>
      <path d="M 44.390625 34.1875 
Q 47.5625 33.109375 50.5625 29.59375 
Q 53.5625 26.078125 56.59375 19.921875 
L 66.609375 0 
L 56 0 
L 46.6875 18.703125 
Q 43.0625 26.03125 39.671875 28.421875 
Q 36.28125 30.8125 30.421875 30.8125 
L 19.671875 30.8125 
L 19.671875 0 
L 9.8125 0 
L 9.8125 72.90625 
L 32.078125 72.90625 
Q 44.578125 72.90625 50.734375 67.671875 
Q 56.890625 62.453125 56.890625 51.90625 
Q 56.890625 45.015625 53.6875 40.46875 
Q 50.484375 35.9375 44.390625 34.1875 
z
M 19.671875 64.796875 
L 19.671875 38.921875 
L 32.078125 38.921875 
Q 39.203125 38.921875 42.84375 42.21875 
Q 46.484375 45.515625 46.484375 51.90625 
Q 46.484375 58.296875 42.84375 61.546875 
Q 39.203125 64.796875 32.078125 64.796875 
z
" id="DejaVuSans-82"/>
      <path d="M 9.8125 72.90625 
L 23.09375 72.90625 
L 55.421875 11.921875 
L 55.421875 72.90625 
L 64.984375 72.90625 
L 64.984375 0 
L 51.703125 0 
L 19.390625 60.984375 
L 19.390625 0 
L 9.8125 0 
z
" id="DejaVuSans-78"/>
     </defs>
     <use xlink:href="#DejaVuSans-77"/>
     <use x="86.279297" xlink:href="#DejaVuSans-97"/>
     <use x="147.558594" xlink:href="#DejaVuSans-99"/>
     <use x="202.539062" xlink:href="#DejaVuSans-97"/>
     <use x="263.818359" xlink:href="#DejaVuSans-117"/>
     <use x="327.197266" xlink:href="#DejaVuSans-32"/>
     <use x="358.984375" xlink:href="#DejaVuSans-114"/>
     <use x="397.847656" xlink:href="#DejaVuSans-101"/>
     <use x="459.371094" xlink:href="#DejaVuSans-115"/>
     <use x="511.470703" xlink:href="#DejaVuSans-105"/>
     <use x="539.253906" xlink:href="#DejaVuSans-100"/>
     <use x="602.730469" xlink:href="#DejaVuSans-101"/>
     <use x="664.253906" xlink:href="#DejaVuSans-110"/>
     <use x="727.632812" xlink:href="#DejaVuSans-116"/>
     <use x="766.841797" xlink:href="#DejaVuSans-105"/>
     <use x="794.625" xlink:href="#DejaVuSans-97"/>
     <use x="855.904297" xlink:href="#DejaVuSans-108"/>
     <use x="883.6875" xlink:href="#DejaVuSans-32"/>
     <use x="915.474609" xlink:href="#DejaVuSans-50"/>
     <use x="979.097656" xlink:href="#DejaVuSans-48"/>
     <use x="1042.720703" xlink:href="#DejaVuSans-50"/>
     <use x="1106.34375" xlink:href="#DejaVuSans-48"/>
     <use x="1169.966797" xlink:href="#DejaVuSans-45"/>
     <use x="1206.050781" xlink:href="#DejaVuSans-50"/>
     <use x="1269.673828" xlink:href="#DejaVuSans-48"/>
     <use x="1333.296875" xlink:href="#DejaVuSans-50"/>
     <use x="1396.919922" xlink:href="#DejaVuSans-49"/>
     <use x="1460.542969" xlink:href="#DejaVuSans-32"/>
     <use x="1492.330078" xlink:href="#DejaVuSans-124"/>
     <use x="1526.021484" xlink:href="#DejaVuSans-32"/>
     <use x="1557.808594" xlink:href="#DejaVuSans-70"/>
     <use x="1611.703125" xlink:href="#DejaVuSans-111"/>
     <use x="1672.884766" xlink:href="#DejaVuSans-114"/>
     <use x="1711.748047" xlink:href="#DejaVuSans-101"/>
     <use x="1773.271484" xlink:href="#DejaVuSans-99"/>
     <use x="1828.251953" xlink:href="#DejaVuSans-97"/>
     <use x="1889.53125" xlink:href="#DejaVuSans-115"/>
     <use x="1941.630859" xlink:href="#DejaVuSans-116"/>
     <use x="1980.839844" xlink:href="#DejaVuSans-32"/>
     <use x="2012.626953" xlink:href="#DejaVuSans-118"/>
     <use x="2071.806641" xlink:href="#DejaVuSans-115"/>
     <use x="2123.90625" xlink:href="#DejaVuSans-32"/>
     <use x="2155.693359" xlink:href="#DejaVuSans-77"/>
     <use x="2241.972656" xlink:href="#DejaVuSans-111"/>
     <use x="2303.154297" xlink:href="#DejaVuSans-110"/>
     <use x="2366.533203" xlink:href="#DejaVuSans-105"/>
     <use x="2394.316406" xlink:href="#DejaVuSans-116"/>
     <use x="2433.525391" xlink:href="#DejaVuSans-111"/>
     <use x="2494.707031" xlink:href="#DejaVuSans-114"/>
     <use x="2533.570312" xlink:href="#DejaVuSans-101"/>
     <use x="2595.09375" xlink:href="#DejaVuSans-100"/>
     <use x="2658.570312" xlink:href="#DejaVuSans-32"/>
     <use x="2690.357422" xlink:href="#DejaVuSans-124"/>
     <use x="2724.048828" xlink:href="#DejaVuSans-32"/>
     <use x="2755.835938" xlink:href="#DejaVuSans-82"/>
     <use x="2825.318359" xlink:href="#DejaVuSans-78"/>
     <use x="2900.123047" xlink:href="#DejaVuSans-78"/>
    </g>
   </g>
   <g id="legend_1">
    <g id="patch_7">
     <path d="M 595.149375 114.615 
L 769.2 114.615 
Q 771.6 114.615 771.6 112.215 
L 771.6 77.52 
Q 771.6 75.12 769.2 75.12 
L 595.149375 75.12 
Q 592.749375 75.12 592.749375 77.52 
L 592.749375 112.215 
Q 592.749375 114.615 595.149375 114.615 
z
" style="fill:#ffffff;opacity:0.8;stroke:#cccccc;stroke-linejoin:miter;"/>
    </g>
    <g id="line2d_19">
     <path d="M 597.549375 84.838125 
L 621.549375 84.838125 
" style="fill:none;stroke:#1f77b4;stroke-linecap:square;stroke-width:1.5;"/>
    </g>
    <g id="line2d_20"/>
    <g id="text_20">
     <!-- measured_data_PM2.5 -->
     <g transform="translate(631.149375 89.038125)scale(0.12 -0.12)">
      <defs>
       <path d="M 50.984375 -16.609375 
L 50.984375 -23.578125 
L -0.984375 -23.578125 
L -0.984375 -16.609375 
z
" id="DejaVuSans-95"/>
      </defs>
      <use xlink:href="#DejaVuSans-109"/>
      <use x="97.412109" xlink:href="#DejaVuSans-101"/>
      <use x="158.935547" xlink:href="#DejaVuSans-97"/>
      <use x="220.214844" xlink:href="#DejaVuSans-115"/>
      <use x="272.314453" xlink:href="#DejaVuSans-117"/>
      <use x="335.693359" xlink:href="#DejaVuSans-114"/>
      <use x="374.556641" xlink:href="#DejaVuSans-101"/>
      <use x="436.080078" xlink:href="#DejaVuSans-100"/>
      <use x="499.556641" xlink:href="#DejaVuSans-95"/>
      <use x="549.556641" xlink:href="#DejaVuSans-100"/>
      <use x="613.033203" xlink:href="#DejaVuSans-97"/>
      <use x="674.3125" xlink:href="#DejaVuSans-116"/>
      <use x="713.521484" xlink:href="#DejaVuSans-97"/>
      <use x="774.800781" xlink:href="#DejaVuSans-95"/>
      <use x="824.800781" xlink:href="#DejaVuSans-80"/>
      <use x="885.103516" xlink:href="#DejaVuSans-77"/>
      <use x="971.382812" xlink:href="#DejaVuSans-50"/>
      <use x="1035.005859" xlink:href="#DejaVuSans-46"/>
      <use x="1066.792969" xlink:href="#DejaVuSans-53"/>
     </g>
    </g>
    <g id="line2d_21">
     <path d="M 597.549375 102.785625 
L 621.549375 102.785625 
" style="fill:none;stroke:#ff0000;stroke-dasharray:5.55,2.4;stroke-dashoffset:0;stroke-width:1.5;"/>
    </g>
    <g id="line2d_22"/>
    <g id="text_21">
     <!-- predicted_data_PM2.5 -->
     <g transform="translate(631.149375 106.985625)scale(0.12 -0.12)">
      <defs>
       <path d="M 18.109375 8.203125 
L 18.109375 -20.796875 
L 9.078125 -20.796875 
L 9.078125 54.6875 
L 18.109375 54.6875 
L 18.109375 46.390625 
Q 20.953125 51.265625 25.265625 53.625 
Q 29.59375 56 35.59375 56 
Q 45.5625 56 51.78125 48.09375 
Q 58.015625 40.1875 58.015625 27.296875 
Q 58.015625 14.40625 51.78125 6.484375 
Q 45.5625 -1.421875 35.59375 -1.421875 
Q 29.59375 -1.421875 25.265625 0.953125 
Q 20.953125 3.328125 18.109375 8.203125 
z
M 48.6875 27.296875 
Q 48.6875 37.203125 44.609375 42.84375 
Q 40.53125 48.484375 33.40625 48.484375 
Q 26.265625 48.484375 22.1875 42.84375 
Q 18.109375 37.203125 18.109375 27.296875 
Q 18.109375 17.390625 22.1875 11.75 
Q 26.265625 6.109375 33.40625 6.109375 
Q 40.53125 6.109375 44.609375 11.75 
Q 48.6875 17.390625 48.6875 27.296875 
z
" id="DejaVuSans-112"/>
      </defs>
      <use xlink:href="#DejaVuSans-112"/>
      <use x="63.476562" xlink:href="#DejaVuSans-114"/>
      <use x="102.339844" xlink:href="#DejaVuSans-101"/>
      <use x="163.863281" xlink:href="#DejaVuSans-100"/>
      <use x="227.339844" xlink:href="#DejaVuSans-105"/>
      <use x="255.123047" xlink:href="#DejaVuSans-99"/>
      <use x="310.103516" xlink:href="#DejaVuSans-116"/>
      <use x="349.3125" xlink:href="#DejaVuSans-101"/>
      <use x="410.835938" xlink:href="#DejaVuSans-100"/>
      <use x="474.3125" xlink:href="#DejaVuSans-95"/>
      <use x="524.3125" xlink:href="#DejaVuSans-100"/>
      <use x="587.789062" xlink:href="#DejaVuSans-97"/>
      <use x="649.068359" xlink:href="#DejaVuSans-116"/>
      <use x="688.277344" xlink:href="#DejaVuSans-97"/>
      <use x="749.556641" xlink:href="#DejaVuSans-95"/>
      <use x="799.556641" xlink:href="#DejaVuSans-80"/>
      <use x="859.859375" xlink:href="#DejaVuSans-77"/>
      <use x="946.138672" xlink:href="#DejaVuSans-50"/>
      <use x="1009.761719" xlink:href="#DejaVuSans-46"/>
      <use x="1041.548828" xlink:href="#DejaVuSans-53"/>
     </g>
    </g>
   </g>
  </g>
 </g>
 <defs>
  <clipPath id="p3b2bce6071">
   <rect height="391.68" width="669.6" x="108" y="69.12"/>
  </clipPath>
 </defs>
</svg>
