<?xml version="1.0" encoding="utf-8" standalone="no"?>
<!DOCTYPE svg PUBLIC "-//W3C//DTD SVG 1.1//EN"
  "http://www.w3.org/Graphics/SVG/1.1/DTD/svg11.dtd">
<!-- Created with matplotlib (https://matplotlib.org/) -->
<svg height="576pt" version="1.1" viewBox="0 0 864 576" width="864pt" xmlns="http://www.w3.org/2000/svg" xmlns:xlink="http://www.w3.org/1999/xlink">
 <metadata>
  <rdf:RDF xmlns:cc="http://creativecommons.org/ns#" xmlns:dc="http://purl.org/dc/elements/1.1/" xmlns:rdf="http://www.w3.org/1999/02/22-rdf-syntax-ns#">
   <cc:Work>
    <dc:type rdf:resource="http://purl.org/dc/dcmitype/StillImage"/>
    <dc:date>2024-03-08T20:36:29.847565</dc:date>
    <dc:format>image/svg+xml</dc:format>
    <dc:creator>
     <cc:Agent>
      <dc:title>Matplotlib v3.3.4, https://matplotlib.org/</dc:title>
     </cc:Agent>
    </dc:creator>
   </cc:Work>
  </rdf:RDF>
 </metadata>
 <defs>
  <style type="text/css">*{stroke-linecap:butt;stroke-linejoin:round;}</style>
 </defs>
 <g id="figure_1">
  <g id="patch_1">
   <path d="M 0 576 
L 864 576 
L 864 0 
L 0 0 
z
" style="fill:#ffffff;"/>
  </g>
  <g id="axes_1">
   <g id="patch_2">
    <path d="M 108 460.8 
L 777.6 460.8 
L 777.6 69.12 
L 108 69.12 
z
" style="fill:#ffffff;"/>
   </g>
   <g id="matplotlib.axis_1">
    <g id="xtick_1">
     <g id="line2d_1">
      <defs>
       <path d="M 0 0 
L 0 3.5 
" id="m9b8d10fd37" style="stroke:#000000;stroke-width:0.8;"/>
      </defs>
      <g>
       <use style="stroke:#000000;stroke-width:0.8;" x="136.761736" xlink:href="#m9b8d10fd37" y="460.8"/>
      </g>
     </g>
     <g id="text_1">
      <!-- 2020-01 -->
      <g transform="translate(92.091951 500.766215)rotate(-30)scale(0.12 -0.12)">
       <defs>
        <path d="M 19.1875 8.296875 
L 53.609375 8.296875 
L 53.609375 0 
L 7.328125 0 
L 7.328125 8.296875 
Q 12.9375 14.109375 22.625 23.890625 
Q 32.328125 33.6875 34.8125 36.53125 
Q 39.546875 41.84375 41.421875 45.53125 
Q 43.3125 49.21875 43.3125 52.78125 
Q 43.3125 58.59375 39.234375 62.25 
Q 35.15625 65.921875 28.609375 65.921875 
Q 23.96875 65.921875 18.8125 64.3125 
Q 13.671875 62.703125 7.8125 59.421875 
L 7.8125 69.390625 
Q 13.765625 71.78125 18.9375 73 
Q 24.125 74.21875 28.421875 74.21875 
Q 39.75 74.21875 46.484375 68.546875 
Q 53.21875 62.890625 53.21875 53.421875 
Q 53.21875 48.921875 51.53125 44.890625 
Q 49.859375 40.875 45.40625 35.40625 
Q 44.1875 33.984375 37.640625 27.21875 
Q 31.109375 20.453125 19.1875 8.296875 
z
" id="DejaVuSans-50"/>
        <path d="M 31.78125 66.40625 
Q 24.171875 66.40625 20.328125 58.90625 
Q 16.5 51.421875 16.5 36.375 
Q 16.5 21.390625 20.328125 13.890625 
Q 24.171875 6.390625 31.78125 6.390625 
Q 39.453125 6.390625 43.28125 13.890625 
Q 47.125 21.390625 47.125 36.375 
Q 47.125 51.421875 43.28125 58.90625 
Q 39.453125 66.40625 31.78125 66.40625 
z
M 31.78125 74.21875 
Q 44.046875 74.21875 50.515625 64.515625 
Q 56.984375 54.828125 56.984375 36.375 
Q 56.984375 17.96875 50.515625 8.265625 
Q 44.046875 -1.421875 31.78125 -1.421875 
Q 19.53125 -1.421875 13.0625 8.265625 
Q 6.59375 17.96875 6.59375 36.375 
Q 6.59375 54.828125 13.0625 64.515625 
Q 19.53125 74.21875 31.78125 74.21875 
z
" id="DejaVuSans-48"/>
        <path d="M 4.890625 31.390625 
L 31.203125 31.390625 
L 31.203125 23.390625 
L 4.890625 23.390625 
z
" id="DejaVuSans-45"/>
        <path d="M 12.40625 8.296875 
L 28.515625 8.296875 
L 28.515625 63.921875 
L 10.984375 60.40625 
L 10.984375 69.390625 
L 28.421875 72.90625 
L 38.28125 72.90625 
L 38.28125 8.296875 
L 54.390625 8.296875 
L 54.390625 0 
L 12.40625 0 
z
" id="DejaVuSans-49"/>
       </defs>
       <use xlink:href="#DejaVuSans-50"/>
       <use x="63.623047" xlink:href="#DejaVuSans-48"/>
       <use x="127.246094" xlink:href="#DejaVuSans-50"/>
       <use x="190.869141" xlink:href="#DejaVuSans-48"/>
       <use x="254.492188" xlink:href="#DejaVuSans-45"/>
       <use x="290.576172" xlink:href="#DejaVuSans-48"/>
       <use x="354.199219" xlink:href="#DejaVuSans-49"/>
      </g>
     </g>
    </g>
    <g id="xtick_2">
     <g id="line2d_2">
      <g>
       <use style="stroke:#000000;stroke-width:0.8;" x="212.957309" xlink:href="#m9b8d10fd37" y="460.8"/>
      </g>
     </g>
     <g id="text_2">
      <!-- 2020-04 -->
      <g transform="translate(168.287524 500.766215)rotate(-30)scale(0.12 -0.12)">
       <defs>
        <path d="M 37.796875 64.3125 
L 12.890625 25.390625 
L 37.796875 25.390625 
z
M 35.203125 72.90625 
L 47.609375 72.90625 
L 47.609375 25.390625 
L 58.015625 25.390625 
L 58.015625 17.1875 
L 47.609375 17.1875 
L 47.609375 0 
L 37.796875 0 
L 37.796875 17.1875 
L 4.890625 17.1875 
L 4.890625 26.703125 
z
" id="DejaVuSans-52"/>
       </defs>
       <use xlink:href="#DejaVuSans-50"/>
       <use x="63.623047" xlink:href="#DejaVuSans-48"/>
       <use x="127.246094" xlink:href="#DejaVuSans-50"/>
       <use x="190.869141" xlink:href="#DejaVuSans-48"/>
       <use x="254.492188" xlink:href="#DejaVuSans-45"/>
       <use x="290.576172" xlink:href="#DejaVuSans-48"/>
       <use x="354.199219" xlink:href="#DejaVuSans-52"/>
      </g>
     </g>
    </g>
    <g id="xtick_3">
     <g id="line2d_3">
      <g>
       <use style="stroke:#000000;stroke-width:0.8;" x="289.152882" xlink:href="#m9b8d10fd37" y="460.8"/>
      </g>
     </g>
     <g id="text_3">
      <!-- 2020-07 -->
      <g transform="translate(244.483097 500.766215)rotate(-30)scale(0.12 -0.12)">
       <defs>
        <path d="M 8.203125 72.90625 
L 55.078125 72.90625 
L 55.078125 68.703125 
L 28.609375 0 
L 18.3125 0 
L 43.21875 64.59375 
L 8.203125 64.59375 
z
" id="DejaVuSans-55"/>
       </defs>
       <use xlink:href="#DejaVuSans-50"/>
       <use x="63.623047" xlink:href="#DejaVuSans-48"/>
       <use x="127.246094" xlink:href="#DejaVuSans-50"/>
       <use x="190.869141" xlink:href="#DejaVuSans-48"/>
       <use x="254.492188" xlink:href="#DejaVuSans-45"/>
       <use x="290.576172" xlink:href="#DejaVuSans-48"/>
       <use x="354.199219" xlink:href="#DejaVuSans-55"/>
      </g>
     </g>
    </g>
    <g id="xtick_4">
     <g id="line2d_4">
      <g>
       <use style="stroke:#000000;stroke-width:0.8;" x="366.18577" xlink:href="#m9b8d10fd37" y="460.8"/>
      </g>
     </g>
     <g id="text_4">
      <!-- 2020-10 -->
      <g transform="translate(321.515985 500.766215)rotate(-30)scale(0.12 -0.12)">
       <use xlink:href="#DejaVuSans-50"/>
       <use x="63.623047" xlink:href="#DejaVuSans-48"/>
       <use x="127.246094" xlink:href="#DejaVuSans-50"/>
       <use x="190.869141" xlink:href="#DejaVuSans-48"/>
       <use x="254.492188" xlink:href="#DejaVuSans-45"/>
       <use x="290.576172" xlink:href="#DejaVuSans-49"/>
       <use x="354.199219" xlink:href="#DejaVuSans-48"/>
      </g>
     </g>
    </g>
    <g id="xtick_5">
     <g id="line2d_5">
      <g>
       <use style="stroke:#000000;stroke-width:0.8;" x="443.218657" xlink:href="#m9b8d10fd37" y="460.8"/>
      </g>
     </g>
     <g id="text_5">
      <!-- 2021-01 -->
      <g transform="translate(398.548872 500.766215)rotate(-30)scale(0.12 -0.12)">
       <use xlink:href="#DejaVuSans-50"/>
       <use x="63.623047" xlink:href="#DejaVuSans-48"/>
       <use x="127.246094" xlink:href="#DejaVuSans-50"/>
       <use x="190.869141" xlink:href="#DejaVuSans-49"/>
       <use x="254.492188" xlink:href="#DejaVuSans-45"/>
       <use x="290.576172" xlink:href="#DejaVuSans-48"/>
       <use x="354.199219" xlink:href="#DejaVuSans-49"/>
      </g>
     </g>
    </g>
    <g id="xtick_6">
     <g id="line2d_6">
      <g>
       <use style="stroke:#000000;stroke-width:0.8;" x="518.576916" xlink:href="#m9b8d10fd37" y="460.8"/>
      </g>
     </g>
     <g id="text_6">
      <!-- 2021-04 -->
      <g transform="translate(473.907131 500.766215)rotate(-30)scale(0.12 -0.12)">
       <use xlink:href="#DejaVuSans-50"/>
       <use x="63.623047" xlink:href="#DejaVuSans-48"/>
       <use x="127.246094" xlink:href="#DejaVuSans-50"/>
       <use x="190.869141" xlink:href="#DejaVuSans-49"/>
       <use x="254.492188" xlink:href="#DejaVuSans-45"/>
       <use x="290.576172" xlink:href="#DejaVuSans-48"/>
       <use x="354.199219" xlink:href="#DejaVuSans-52"/>
      </g>
     </g>
    </g>
    <g id="xtick_7">
     <g id="line2d_7">
      <g>
       <use style="stroke:#000000;stroke-width:0.8;" x="594.77249" xlink:href="#m9b8d10fd37" y="460.8"/>
      </g>
     </g>
     <g id="text_7">
      <!-- 2021-07 -->
      <g transform="translate(550.102705 500.766215)rotate(-30)scale(0.12 -0.12)">
       <use xlink:href="#DejaVuSans-50"/>
       <use x="63.623047" xlink:href="#DejaVuSans-48"/>
       <use x="127.246094" xlink:href="#DejaVuSans-50"/>
       <use x="190.869141" xlink:href="#DejaVuSans-49"/>
       <use x="254.492188" xlink:href="#DejaVuSans-45"/>
       <use x="290.576172" xlink:href="#DejaVuSans-48"/>
       <use x="354.199219" xlink:href="#DejaVuSans-55"/>
      </g>
     </g>
    </g>
    <g id="xtick_8">
     <g id="line2d_8">
      <g>
       <use style="stroke:#000000;stroke-width:0.8;" x="671.805377" xlink:href="#m9b8d10fd37" y="460.8"/>
      </g>
     </g>
     <g id="text_8">
      <!-- 2021-10 -->
      <g transform="translate(627.135592 500.766215)rotate(-30)scale(0.12 -0.12)">
       <use xlink:href="#DejaVuSans-50"/>
       <use x="63.623047" xlink:href="#DejaVuSans-48"/>
       <use x="127.246094" xlink:href="#DejaVuSans-50"/>
       <use x="190.869141" xlink:href="#DejaVuSans-49"/>
       <use x="254.492188" xlink:href="#DejaVuSans-45"/>
       <use x="290.576172" xlink:href="#DejaVuSans-49"/>
       <use x="354.199219" xlink:href="#DejaVuSans-48"/>
      </g>
     </g>
    </g>
    <g id="xtick_9">
     <g id="line2d_9">
      <g>
       <use style="stroke:#000000;stroke-width:0.8;" x="748.838264" xlink:href="#m9b8d10fd37" y="460.8"/>
      </g>
     </g>
     <g id="text_9">
      <!-- 2022-01 -->
      <g transform="translate(704.168479 500.766215)rotate(-30)scale(0.12 -0.12)">
       <use xlink:href="#DejaVuSans-50"/>
       <use x="63.623047" xlink:href="#DejaVuSans-48"/>
       <use x="127.246094" xlink:href="#DejaVuSans-50"/>
       <use x="190.869141" xlink:href="#DejaVuSans-50"/>
       <use x="254.492188" xlink:href="#DejaVuSans-45"/>
       <use x="290.576172" xlink:href="#DejaVuSans-48"/>
       <use x="354.199219" xlink:href="#DejaVuSans-49"/>
      </g>
     </g>
    </g>
    <g id="text_10">
     <!-- Date -->
     <g transform="translate(424.873828 518.325146)scale(0.15 -0.15)">
      <defs>
       <path d="M 19.671875 64.796875 
L 19.671875 8.109375 
L 31.59375 8.109375 
Q 46.6875 8.109375 53.6875 14.9375 
Q 60.6875 21.78125 60.6875 36.53125 
Q 60.6875 51.171875 53.6875 57.984375 
Q 46.6875 64.796875 31.59375 64.796875 
z
M 9.8125 72.90625 
L 30.078125 72.90625 
Q 51.265625 72.90625 61.171875 64.09375 
Q 71.09375 55.28125 71.09375 36.53125 
Q 71.09375 17.671875 61.125 8.828125 
Q 51.171875 0 30.078125 0 
L 9.8125 0 
z
" id="DejaVuSans-68"/>
       <path d="M 34.28125 27.484375 
Q 23.390625 27.484375 19.1875 25 
Q 14.984375 22.515625 14.984375 16.5 
Q 14.984375 11.71875 18.140625 8.90625 
Q 21.296875 6.109375 26.703125 6.109375 
Q 34.1875 6.109375 38.703125 11.40625 
Q 43.21875 16.703125 43.21875 25.484375 
L 43.21875 27.484375 
z
M 52.203125 31.203125 
L 52.203125 0 
L 43.21875 0 
L 43.21875 8.296875 
Q 40.140625 3.328125 35.546875 0.953125 
Q 30.953125 -1.421875 24.3125 -1.421875 
Q 15.921875 -1.421875 10.953125 3.296875 
Q 6 8.015625 6 15.921875 
Q 6 25.140625 12.171875 29.828125 
Q 18.359375 34.515625 30.609375 34.515625 
L 43.21875 34.515625 
L 43.21875 35.40625 
Q 43.21875 41.609375 39.140625 45 
Q 35.0625 48.390625 27.6875 48.390625 
Q 23 48.390625 18.546875 47.265625 
Q 14.109375 46.140625 10.015625 43.890625 
L 10.015625 52.203125 
Q 14.9375 54.109375 19.578125 55.046875 
Q 24.21875 56 28.609375 56 
Q 40.484375 56 46.34375 49.84375 
Q 52.203125 43.703125 52.203125 31.203125 
z
" id="DejaVuSans-97"/>
       <path d="M 18.3125 70.21875 
L 18.3125 54.6875 
L 36.8125 54.6875 
L 36.8125 47.703125 
L 18.3125 47.703125 
L 18.3125 18.015625 
Q 18.3125 11.328125 20.140625 9.421875 
Q 21.96875 7.515625 27.59375 7.515625 
L 36.8125 7.515625 
L 36.8125 0 
L 27.59375 0 
Q 17.1875 0 13.234375 3.875 
Q 9.28125 7.765625 9.28125 18.015625 
L 9.28125 47.703125 
L 2.6875 47.703125 
L 2.6875 54.6875 
L 9.28125 54.6875 
L 9.28125 70.21875 
z
" id="DejaVuSans-116"/>
       <path d="M 56.203125 29.59375 
L 56.203125 25.203125 
L 14.890625 25.203125 
Q 15.484375 15.921875 20.484375 11.0625 
Q 25.484375 6.203125 34.421875 6.203125 
Q 39.59375 6.203125 44.453125 7.46875 
Q 49.3125 8.734375 54.109375 11.28125 
L 54.109375 2.78125 
Q 49.265625 0.734375 44.1875 -0.34375 
Q 39.109375 -1.421875 33.890625 -1.421875 
Q 20.796875 -1.421875 13.15625 6.1875 
Q 5.515625 13.8125 5.515625 26.8125 
Q 5.515625 40.234375 12.765625 48.109375 
Q 20.015625 56 32.328125 56 
Q 43.359375 56 49.78125 48.890625 
Q 56.203125 41.796875 56.203125 29.59375 
z
M 47.21875 32.234375 
Q 47.125 39.59375 43.09375 43.984375 
Q 39.0625 48.390625 32.421875 48.390625 
Q 24.90625 48.390625 20.390625 44.140625 
Q 15.875 39.890625 15.1875 32.171875 
z
" id="DejaVuSans-101"/>
      </defs>
      <use xlink:href="#DejaVuSans-68"/>
      <use x="77.001953" xlink:href="#DejaVuSans-97"/>
      <use x="138.28125" xlink:href="#DejaVuSans-116"/>
      <use x="177.490234" xlink:href="#DejaVuSans-101"/>
     </g>
    </g>
   </g>
   <g id="matplotlib.axis_2">
    <g id="ytick_1">
     <g id="line2d_10">
      <defs>
       <path d="M 0 0 
L -3.5 0 
" id="m9c35c07e05" style="stroke:#000000;stroke-width:0.8;"/>
      </defs>
      <g>
       <use style="stroke:#000000;stroke-width:0.8;" x="108" xlink:href="#m9c35c07e05" y="446.193716"/>
      </g>
     </g>
     <g id="text_11">
      <!-- 0 -->
      <g transform="translate(93.365 450.752778)scale(0.12 -0.12)">
       <use xlink:href="#DejaVuSans-48"/>
      </g>
     </g>
    </g>
    <g id="ytick_2">
     <g id="line2d_11">
      <g>
       <use style="stroke:#000000;stroke-width:0.8;" x="108" xlink:href="#m9c35c07e05" y="391.381967"/>
      </g>
     </g>
     <g id="text_12">
      <!-- 10 -->
      <g transform="translate(85.73 395.941029)scale(0.12 -0.12)">
       <use xlink:href="#DejaVuSans-49"/>
       <use x="63.623047" xlink:href="#DejaVuSans-48"/>
      </g>
     </g>
    </g>
    <g id="ytick_3">
     <g id="line2d_12">
      <g>
       <use style="stroke:#000000;stroke-width:0.8;" x="108" xlink:href="#m9c35c07e05" y="336.570218"/>
      </g>
     </g>
     <g id="text_13">
      <!-- 20 -->
      <g transform="translate(85.73 341.129281)scale(0.12 -0.12)">
       <use xlink:href="#DejaVuSans-50"/>
       <use x="63.623047" xlink:href="#DejaVuSans-48"/>
      </g>
     </g>
    </g>
    <g id="ytick_4">
     <g id="line2d_13">
      <g>
       <use style="stroke:#000000;stroke-width:0.8;" x="108" xlink:href="#m9c35c07e05" y="281.758469"/>
      </g>
     </g>
     <g id="text_14">
      <!-- 30 -->
      <g transform="translate(85.73 286.317532)scale(0.12 -0.12)">
       <defs>
        <path d="M 40.578125 39.3125 
Q 47.65625 37.796875 51.625 33 
Q 55.609375 28.21875 55.609375 21.1875 
Q 55.609375 10.40625 48.1875 4.484375 
Q 40.765625 -1.421875 27.09375 -1.421875 
Q 22.515625 -1.421875 17.65625 -0.515625 
Q 12.796875 0.390625 7.625 2.203125 
L 7.625 11.71875 
Q 11.71875 9.328125 16.59375 8.109375 
Q 21.484375 6.890625 26.8125 6.890625 
Q 36.078125 6.890625 40.9375 10.546875 
Q 45.796875 14.203125 45.796875 21.1875 
Q 45.796875 27.640625 41.28125 31.265625 
Q 36.765625 34.90625 28.71875 34.90625 
L 20.21875 34.90625 
L 20.21875 43.015625 
L 29.109375 43.015625 
Q 36.375 43.015625 40.234375 45.921875 
Q 44.09375 48.828125 44.09375 54.296875 
Q 44.09375 59.90625 40.109375 62.90625 
Q 36.140625 65.921875 28.71875 65.921875 
Q 24.65625 65.921875 20.015625 65.03125 
Q 15.375 64.15625 9.8125 62.3125 
L 9.8125 71.09375 
Q 15.4375 72.65625 20.34375 73.4375 
Q 25.25 74.21875 29.59375 74.21875 
Q 40.828125 74.21875 47.359375 69.109375 
Q 53.90625 64.015625 53.90625 55.328125 
Q 53.90625 49.265625 50.4375 45.09375 
Q 46.96875 40.921875 40.578125 39.3125 
z
" id="DejaVuSans-51"/>
       </defs>
       <use xlink:href="#DejaVuSans-51"/>
       <use x="63.623047" xlink:href="#DejaVuSans-48"/>
      </g>
     </g>
    </g>
    <g id="ytick_5">
     <g id="line2d_14">
      <g>
       <use style="stroke:#000000;stroke-width:0.8;" x="108" xlink:href="#m9c35c07e05" y="226.94672"/>
      </g>
     </g>
     <g id="text_15">
      <!-- 40 -->
      <g transform="translate(85.73 231.505783)scale(0.12 -0.12)">
       <use xlink:href="#DejaVuSans-52"/>
       <use x="63.623047" xlink:href="#DejaVuSans-48"/>
      </g>
     </g>
    </g>
    <g id="ytick_6">
     <g id="line2d_15">
      <g>
       <use style="stroke:#000000;stroke-width:0.8;" x="108" xlink:href="#m9c35c07e05" y="172.134972"/>
      </g>
     </g>
     <g id="text_16">
      <!-- 50 -->
      <g transform="translate(85.73 176.694034)scale(0.12 -0.12)">
       <defs>
        <path d="M 10.796875 72.90625 
L 49.515625 72.90625 
L 49.515625 64.59375 
L 19.828125 64.59375 
L 19.828125 46.734375 
Q 21.96875 47.46875 24.109375 47.828125 
Q 26.265625 48.1875 28.421875 48.1875 
Q 40.625 48.1875 47.75 41.5 
Q 54.890625 34.8125 54.890625 23.390625 
Q 54.890625 11.625 47.5625 5.09375 
Q 40.234375 -1.421875 26.90625 -1.421875 
Q 22.3125 -1.421875 17.546875 -0.640625 
Q 12.796875 0.140625 7.71875 1.703125 
L 7.71875 11.625 
Q 12.109375 9.234375 16.796875 8.0625 
Q 21.484375 6.890625 26.703125 6.890625 
Q 35.15625 6.890625 40.078125 11.328125 
Q 45.015625 15.765625 45.015625 23.390625 
Q 45.015625 31 40.078125 35.4375 
Q 35.15625 39.890625 26.703125 39.890625 
Q 22.75 39.890625 18.8125 39.015625 
Q 14.890625 38.140625 10.796875 36.28125 
z
" id="DejaVuSans-53"/>
       </defs>
       <use xlink:href="#DejaVuSans-53"/>
       <use x="63.623047" xlink:href="#DejaVuSans-48"/>
      </g>
     </g>
    </g>
    <g id="ytick_7">
     <g id="line2d_16">
      <g>
       <use style="stroke:#000000;stroke-width:0.8;" x="108" xlink:href="#m9c35c07e05" y="117.323223"/>
      </g>
     </g>
     <g id="text_17">
      <!-- 60 -->
      <g transform="translate(85.73 121.882285)scale(0.12 -0.12)">
       <defs>
        <path d="M 33.015625 40.375 
Q 26.375 40.375 22.484375 35.828125 
Q 18.609375 31.296875 18.609375 23.390625 
Q 18.609375 15.53125 22.484375 10.953125 
Q 26.375 6.390625 33.015625 6.390625 
Q 39.65625 6.390625 43.53125 10.953125 
Q 47.40625 15.53125 47.40625 23.390625 
Q 47.40625 31.296875 43.53125 35.828125 
Q 39.65625 40.375 33.015625 40.375 
z
M 52.59375 71.296875 
L 52.59375 62.3125 
Q 48.875 64.0625 45.09375 64.984375 
Q 41.3125 65.921875 37.59375 65.921875 
Q 27.828125 65.921875 22.671875 59.328125 
Q 17.53125 52.734375 16.796875 39.40625 
Q 19.671875 43.65625 24.015625 45.921875 
Q 28.375 48.1875 33.59375 48.1875 
Q 44.578125 48.1875 50.953125 41.515625 
Q 57.328125 34.859375 57.328125 23.390625 
Q 57.328125 12.15625 50.6875 5.359375 
Q 44.046875 -1.421875 33.015625 -1.421875 
Q 20.359375 -1.421875 13.671875 8.265625 
Q 6.984375 17.96875 6.984375 36.375 
Q 6.984375 53.65625 15.1875 63.9375 
Q 23.390625 74.21875 37.203125 74.21875 
Q 40.921875 74.21875 44.703125 73.484375 
Q 48.484375 72.75 52.59375 71.296875 
z
" id="DejaVuSans-54"/>
       </defs>
       <use xlink:href="#DejaVuSans-54"/>
       <use x="63.623047" xlink:href="#DejaVuSans-48"/>
      </g>
     </g>
    </g>
    <g id="text_18">
     <!-- PM2.5(micro-gram/m3) -->
     <g transform="translate(78.610469 351.945937)rotate(-90)scale(0.15 -0.15)">
      <defs>
       <path d="M 19.671875 64.796875 
L 19.671875 37.40625 
L 32.078125 37.40625 
Q 38.96875 37.40625 42.71875 40.96875 
Q 46.484375 44.53125 46.484375 51.125 
Q 46.484375 57.671875 42.71875 61.234375 
Q 38.96875 64.796875 32.078125 64.796875 
z
M 9.8125 72.90625 
L 32.078125 72.90625 
Q 44.34375 72.90625 50.609375 67.359375 
Q 56.890625 61.8125 56.890625 51.125 
Q 56.890625 40.328125 50.609375 34.8125 
Q 44.34375 29.296875 32.078125 29.296875 
L 19.671875 29.296875 
L 19.671875 0 
L 9.8125 0 
z
" id="DejaVuSans-80"/>
       <path d="M 9.8125 72.90625 
L 24.515625 72.90625 
L 43.109375 23.296875 
L 61.8125 72.90625 
L 76.515625 72.90625 
L 76.515625 0 
L 66.890625 0 
L 66.890625 64.015625 
L 48.09375 14.015625 
L 38.1875 14.015625 
L 19.390625 64.015625 
L 19.390625 0 
L 9.8125 0 
z
" id="DejaVuSans-77"/>
       <path d="M 10.6875 12.40625 
L 21 12.40625 
L 21 0 
L 10.6875 0 
z
" id="DejaVuSans-46"/>
       <path d="M 31 75.875 
Q 24.46875 64.65625 21.28125 53.65625 
Q 18.109375 42.671875 18.109375 31.390625 
Q 18.109375 20.125 21.3125 9.0625 
Q 24.515625 -2 31 -13.1875 
L 23.1875 -13.1875 
Q 15.875 -1.703125 12.234375 9.375 
Q 8.59375 20.453125 8.59375 31.390625 
Q 8.59375 42.28125 12.203125 53.3125 
Q 15.828125 64.359375 23.1875 75.875 
z
" id="DejaVuSans-40"/>
       <path d="M 52 44.1875 
Q 55.375 50.25 60.0625 53.125 
Q 64.75 56 71.09375 56 
Q 79.640625 56 84.28125 50.015625 
Q 88.921875 44.046875 88.921875 33.015625 
L 88.921875 0 
L 79.890625 0 
L 79.890625 32.71875 
Q 79.890625 40.578125 77.09375 44.375 
Q 74.3125 48.1875 68.609375 48.1875 
Q 61.625 48.1875 57.5625 43.546875 
Q 53.515625 38.921875 53.515625 30.90625 
L 53.515625 0 
L 44.484375 0 
L 44.484375 32.71875 
Q 44.484375 40.625 41.703125 44.40625 
Q 38.921875 48.1875 33.109375 48.1875 
Q 26.21875 48.1875 22.15625 43.53125 
Q 18.109375 38.875 18.109375 30.90625 
L 18.109375 0 
L 9.078125 0 
L 9.078125 54.6875 
L 18.109375 54.6875 
L 18.109375 46.1875 
Q 21.1875 51.21875 25.484375 53.609375 
Q 29.78125 56 35.6875 56 
Q 41.65625 56 45.828125 52.96875 
Q 50 49.953125 52 44.1875 
z
" id="DejaVuSans-109"/>
       <path d="M 9.421875 54.6875 
L 18.40625 54.6875 
L 18.40625 0 
L 9.421875 0 
z
M 9.421875 75.984375 
L 18.40625 75.984375 
L 18.40625 64.59375 
L 9.421875 64.59375 
z
" id="DejaVuSans-105"/>
       <path d="M 48.78125 52.59375 
L 48.78125 44.1875 
Q 44.96875 46.296875 41.140625 47.34375 
Q 37.3125 48.390625 33.40625 48.390625 
Q 24.65625 48.390625 19.8125 42.84375 
Q 14.984375 37.3125 14.984375 27.296875 
Q 14.984375 17.28125 19.8125 11.734375 
Q 24.65625 6.203125 33.40625 6.203125 
Q 37.3125 6.203125 41.140625 7.25 
Q 44.96875 8.296875 48.78125 10.40625 
L 48.78125 2.09375 
Q 45.015625 0.34375 40.984375 -0.53125 
Q 36.96875 -1.421875 32.421875 -1.421875 
Q 20.0625 -1.421875 12.78125 6.34375 
Q 5.515625 14.109375 5.515625 27.296875 
Q 5.515625 40.671875 12.859375 48.328125 
Q 20.21875 56 33.015625 56 
Q 37.15625 56 41.109375 55.140625 
Q 45.0625 54.296875 48.78125 52.59375 
z
" id="DejaVuSans-99"/>
       <path d="M 41.109375 46.296875 
Q 39.59375 47.171875 37.8125 47.578125 
Q 36.03125 48 33.890625 48 
Q 26.265625 48 22.1875 43.046875 
Q 18.109375 38.09375 18.109375 28.8125 
L 18.109375 0 
L 9.078125 0 
L 9.078125 54.6875 
L 18.109375 54.6875 
L 18.109375 46.1875 
Q 20.953125 51.171875 25.484375 53.578125 
Q 30.03125 56 36.53125 56 
Q 37.453125 56 38.578125 55.875 
Q 39.703125 55.765625 41.0625 55.515625 
z
" id="DejaVuSans-114"/>
       <path d="M 30.609375 48.390625 
Q 23.390625 48.390625 19.1875 42.75 
Q 14.984375 37.109375 14.984375 27.296875 
Q 14.984375 17.484375 19.15625 11.84375 
Q 23.34375 6.203125 30.609375 6.203125 
Q 37.796875 6.203125 41.984375 11.859375 
Q 46.1875 17.53125 46.1875 27.296875 
Q 46.1875 37.015625 41.984375 42.703125 
Q 37.796875 48.390625 30.609375 48.390625 
z
M 30.609375 56 
Q 42.328125 56 49.015625 48.375 
Q 55.71875 40.765625 55.71875 27.296875 
Q 55.71875 13.875 49.015625 6.21875 
Q 42.328125 -1.421875 30.609375 -1.421875 
Q 18.84375 -1.421875 12.171875 6.21875 
Q 5.515625 13.875 5.515625 27.296875 
Q 5.515625 40.765625 12.171875 48.375 
Q 18.84375 56 30.609375 56 
z
" id="DejaVuSans-111"/>
       <path d="M 45.40625 27.984375 
Q 45.40625 37.75 41.375 43.109375 
Q 37.359375 48.484375 30.078125 48.484375 
Q 22.859375 48.484375 18.828125 43.109375 
Q 14.796875 37.75 14.796875 27.984375 
Q 14.796875 18.265625 18.828125 12.890625 
Q 22.859375 7.515625 30.078125 7.515625 
Q 37.359375 7.515625 41.375 12.890625 
Q 45.40625 18.265625 45.40625 27.984375 
z
M 54.390625 6.78125 
Q 54.390625 -7.171875 48.1875 -13.984375 
Q 42 -20.796875 29.203125 -20.796875 
Q 24.46875 -20.796875 20.265625 -20.09375 
Q 16.0625 -19.390625 12.109375 -17.921875 
L 12.109375 -9.1875 
Q 16.0625 -11.328125 19.921875 -12.34375 
Q 23.78125 -13.375 27.78125 -13.375 
Q 36.625 -13.375 41.015625 -8.765625 
Q 45.40625 -4.15625 45.40625 5.171875 
L 45.40625 9.625 
Q 42.625 4.78125 38.28125 2.390625 
Q 33.9375 0 27.875 0 
Q 17.828125 0 11.671875 7.65625 
Q 5.515625 15.328125 5.515625 27.984375 
Q 5.515625 40.671875 11.671875 48.328125 
Q 17.828125 56 27.875 56 
Q 33.9375 56 38.28125 53.609375 
Q 42.625 51.21875 45.40625 46.390625 
L 45.40625 54.6875 
L 54.390625 54.6875 
z
" id="DejaVuSans-103"/>
       <path d="M 25.390625 72.90625 
L 33.6875 72.90625 
L 8.296875 -9.28125 
L 0 -9.28125 
z
" id="DejaVuSans-47"/>
       <path d="M 8.015625 75.875 
L 15.828125 75.875 
Q 23.140625 64.359375 26.78125 53.3125 
Q 30.421875 42.28125 30.421875 31.390625 
Q 30.421875 20.453125 26.78125 9.375 
Q 23.140625 -1.703125 15.828125 -13.1875 
L 8.015625 -13.1875 
Q 14.5 -2 17.703125 9.0625 
Q 20.90625 20.125 20.90625 31.390625 
Q 20.90625 42.671875 17.703125 53.65625 
Q 14.5 64.65625 8.015625 75.875 
z
" id="DejaVuSans-41"/>
      </defs>
      <use xlink:href="#DejaVuSans-80"/>
      <use x="60.302734" xlink:href="#DejaVuSans-77"/>
      <use x="146.582031" xlink:href="#DejaVuSans-50"/>
      <use x="210.205078" xlink:href="#DejaVuSans-46"/>
      <use x="241.992188" xlink:href="#DejaVuSans-53"/>
      <use x="305.615234" xlink:href="#DejaVuSans-40"/>
      <use x="344.628906" xlink:href="#DejaVuSans-109"/>
      <use x="442.041016" xlink:href="#DejaVuSans-105"/>
      <use x="469.824219" xlink:href="#DejaVuSans-99"/>
      <use x="524.804688" xlink:href="#DejaVuSans-114"/>
      <use x="563.667969" xlink:href="#DejaVuSans-111"/>
      <use x="626.724609" xlink:href="#DejaVuSans-45"/>
      <use x="662.808594" xlink:href="#DejaVuSans-103"/>
      <use x="726.285156" xlink:href="#DejaVuSans-114"/>
      <use x="767.398438" xlink:href="#DejaVuSans-97"/>
      <use x="828.677734" xlink:href="#DejaVuSans-109"/>
      <use x="926.089844" xlink:href="#DejaVuSans-47"/>
      <use x="959.78125" xlink:href="#DejaVuSans-109"/>
      <use x="1057.193359" xlink:href="#DejaVuSans-51"/>
      <use x="1120.816406" xlink:href="#DejaVuSans-41"/>
     </g>
    </g>
   </g>
   <g id="line2d_17">
    <path clip-path="url(#pcc74673aca)" d="M 138.436364 238.137452 
L 139.273678 334.286395 
L 140.110992 342.279775 
L 140.948306 322.182134 
L 141.78562 326.521397 
L 142.622934 317.614488 
L 143.460248 294.319495 
L 144.297562 260.290534 
L 145.134876 334.74316 
L 145.97219 300.942581 
L 146.809504 296.8317 
L 147.646818 285.744778 
L 148.484132 266.456856 
L 149.321446 336.341836 
L 150.15876 332.687719 
L 150.996074 267.82715 
L 151.833388 308.250814 
L 152.670702 262.345975 
L 153.508016 274.678618 
L 154.345329 306.652138 
L 155.182643 343.878451 
L 156.019957 355.525948 
L 156.857271 397.319906 
L 157.694585 410.566079 
L 158.531899 391.381967 
L 159.369213 347.075803 
L 160.206527 320.583458 
L 161.043841 310.991402 
L 161.881155 308.250814 
L 162.718469 300.257434 
L 163.555783 308.250814 
L 164.393097 363.290946 
L 165.230411 372.696143 
L 166.905039 323.324045 
L 167.742353 403.71461 
L 168.579667 380.419617 
L 169.416981 337.026983 
L 170.254295 300.485817 
L 171.091609 281.530087 
L 171.928923 367.173444 
L 172.766237 379.962853 
L 173.603551 356.896242 
L 174.440865 433.861072 
L 175.278179 394.122554 
L 176.115493 390.136245 
L 176.952807 365.118004 
L 177.790121 356.211095 
L 178.627435 369.914032 
L 179.464749 286.554497 
L 180.302063 331.089043 
L 181.139377 317.386106 
L 181.976691 330.632279 
L 182.814005 357.000052 
L 183.651319 369.457267 
L 184.488633 354.840801 
L 185.325947 356.667859 
L 186.163261 346.390656 
L 187.000575 355.75433 
L 187.837889 348.217715 
L 188.675203 385.424168 
L 189.512517 392.980643 
L 191.187145 294.319495 
L 192.861773 371.512708 
L 193.699087 377.222265 
L 194.536401 342.964922 
L 195.373715 297.973612 
L 196.211029 227.403485 
L 197.048343 357.581388 
L 197.885657 271.938031 
L 198.722971 319.441547 
L 199.560285 320.841629 
L 200.397599 305.510227 
L 201.234913 339.539188 
L 202.072227 266.456856 
L 202.909541 293.634348 
L 203.746855 316.472577 
L 204.584169 346.162274 
L 205.421483 330.590755 
L 206.258797 358.038153 
L 207.096111 332.687719 
L 207.933425 354.840801 
L 208.770739 359.180064 
L 209.608053 394.579319 
L 210.445367 383.388587 
L 211.282681 355.069183 
L 212.119995 354.384036 
L 212.957309 346.390656 
L 215.469251 384.987263 
L 216.306565 384.987263 
L 217.981193 320.583458 
L 218.818507 371.969472 
L 219.655821 351.186684 
L 220.493135 316.700959 
L 221.330449 392.067114 
L 223.005077 324.009192 
L 223.842391 257.321565 
L 224.679705 329.947132 
L 225.517019 361.235505 
L 226.354333 333.372866 
L 228.028961 380.657929 
L 228.866275 392.295496 
L 229.703589 405.998433 
L 230.540903 375.395207 
L 231.378217 332.002572 
L 232.215531 280.159793 
L 233.052845 92.886318 
L 233.890159 161.857769 
L 234.727473 325.836251 
L 235.564787 346.390656 
L 236.402101 339.539188 
L 237.239415 376.080354 
L 238.076729 365.118004 
L 238.914043 380.191235 
L 239.751357 400.288876 
L 240.588671 399.722885 
L 241.425985 398.005053 
L 242.263299 408.967403 
L 243.100613 408.739021 
L 243.937927 406.911962 
L 244.775241 414.905342 
L 245.612555 382.246675 
L 247.287183 247.044362 
L 248.124497 342.73654 
L 248.961811 385.215645 
L 249.799125 416.504018 
L 250.636439 410.794461 
L 251.473753 407.368727 
L 252.311067 396.634759 
L 253.148381 392.573527 
L 253.985695 370.142414 
L 254.823009 366.71668 
L 255.660323 413.991813 
L 256.497637 415.818872 
L 257.334951 413.078284 
L 258.172265 372.555323 
L 259.009579 312.361696 
L 259.846893 316.472577 
L 260.684207 374.71006 
L 261.521521 422.441958 
L 263.196149 413.306666 
L 264.033463 417.54212 
L 264.870777 411.936373 
L 265.708091 409.731987 
L 266.545405 406.68358 
L 267.382719 412.62152 
L 268.220033 391.838731 
L 269.057347 388.641379 
L 269.89466 398.461818 
L 270.731974 416.275636 
L 271.569288 419.264465 
L 272.406602 428.379897 
L 273.243916 419.70137 
L 274.08123 427.466368 
L 274.918544 410.794461 
L 275.755858 429.750191 
L 276.593172 416.732401 
L 277.430486 420.6149 
L 278.2678 414.220196 
L 279.105114 411.936373 
L 279.942428 428.151515 
L 280.779742 406.911962 
L 281.617056 406.633932 
L 282.45437 399.603729 
L 283.291684 416.960783 
L 284.128998 411.936373 
L 284.966312 416.275636 
L 285.803626 423.812252 
L 286.64094 423.583869 
L 287.478254 423.812252 
L 288.315568 434.089454 
L 289.990196 416.504018 
L 290.82751 411.936373 
L 291.664824 411.70799 
L 292.502138 408.053874 
L 293.339452 402.115934 
L 294.176766 393.437407 
L 295.01408 387.956233 
L 295.851394 396.634759 
L 296.688708 391.610349 
L 297.526022 423.127105 
L 298.363336 411.022844 
L 299.20065 401.430787 
L 300.875278 410.446923 
L 301.712592 413.535049 
L 302.549906 413.991813 
L 303.38722 418.102694 
L 304.224534 407.825491 
L 305.061848 430.66372 
L 305.899162 431.120485 
L 306.736476 427.923133 
L 307.57379 407.825491 
L 308.411104 401.65917 
L 309.248418 409.65255 
L 310.085732 414.220196 
L 310.923046 412.393137 
L 311.76036 427.923133 
L 312.597674 427.843695 
L 313.434988 429.750191 
L 314.272302 429.251902 
L 315.109616 434.483933 
L 315.94693 437.971953 
L 316.784244 435.459748 
L 317.621558 414.448578 
L 318.458872 424.725781 
L 319.296186 421.756811 
L 320.1335 430.435338 
L 320.970814 419.016224 
L 321.808128 393.66579 
L 322.645442 401.202405 
L 323.482756 432.371622 
L 324.32007 430.206956 
L 325.157384 421.985193 
L 325.994698 407.368727 
L 326.832012 430.66372 
L 327.669326 415.362107 
L 328.50664 403.257846 
L 329.343954 430.206956 
L 330.181268 420.843282 
L 331.018582 341.366246 
L 331.855896 321.496987 
L 332.69321 389.554909 
L 333.530524 377.67903 
L 334.367838 409.391541 
L 335.205152 393.66579 
L 336.042466 363.499469 
L 336.87978 316.015812 
L 337.717094 312.361696 
L 338.554408 315.78743 
L 339.391722 361.007123 
L 340.229036 207.762608 
L 342.740978 306.195374 
L 343.578292 382.931822 
L 344.415606 389.554909 
L 345.25292 422.898722 
L 346.090234 436.144895 
L 346.927548 399.603729 
L 347.764862 373.910722 
L 348.602176 381.333146 
L 349.43949 397.548289 
L 350.276804 381.104764 
L 351.114118 407.825491 
L 351.951432 426.552839 
L 352.788746 435.459748 
L 353.62606 428.151515 
L 354.463374 434.089454 
L 355.300688 422.213576 
L 356.138002 435.231366 
L 356.975316 435.916513 
L 357.81263 406.68358 
L 358.649944 403.297564 
L 359.487258 367.630209 
L 360.324572 356.211095 
L 361.161886 375.623589 
L 361.9992 390.69682 
L 362.836514 373.568148 
L 363.673828 405.084904 
L 364.511142 423.355487 
L 365.348456 388.412997 
L 366.18577 362.377416 
L 367.023084 374.938442 
L 367.860398 337.940512 
L 368.697712 351.871831 
L 369.535026 330.245785 
L 370.37234 346.619039 
L 371.209654 351.643449 
L 372.046968 300.257434 
L 372.884282 269.654208 
L 373.721596 298.658758 
L 374.55891 309.164344 
L 375.396224 399.603729 
L 376.233538 375.166824 
L 377.070852 374.71006 
L 377.908166 336.113453 
L 378.74548 319.669929 
L 379.582794 344.106834 
L 380.420108 340.224335 
L 381.257422 336.912791 
L 382.094736 283.324519 
L 382.93205 328.120073 
L 383.769364 319.213164 
L 384.606678 299.572288 
L 385.443991 296.146553 
L 386.281305 338.397276 
L 387.118619 349.588008 
L 387.955933 347.532568 
L 388.793247 297.288465 
L 389.630561 255.494506 
L 390.467875 323.552428 
L 391.305189 309.392726 
L 392.142503 230.144072 
L 392.979817 307.565668 
L 393.817131 271.252884 
L 394.654445 358.018294 
L 395.491759 187.664967 
L 396.329073 245.445686 
L 397.166387 244.988921 
L 398.003701 281.301705 
L 398.841015 260.975681 
L 399.678329 313.275225 
L 400.515643 330.480024 
L 401.352957 315.78743 
L 402.190271 305.966992 
L 403.027585 303.683169 
L 403.864899 316.472577 
L 404.702213 382.475058 
L 405.539527 395.671582 
L 406.376841 384.530498 
L 407.214155 376.080354 
L 408.051469 364.661239 
L 408.888783 374.024913 
L 410.563411 266.456856 
L 411.400725 290.893761 
L 412.238039 278.7895 
L 413.075353 316.244195 
L 413.912667 328.576838 
L 414.749981 353.242125 
L 415.587295 331.77419 
L 416.424609 304.139933 
L 417.261923 299.80067 
L 418.099237 298.440306 
L 418.936551 299.115523 
L 419.773865 248.87142 
L 420.611179 176.702617 
L 421.448493 149.961128 
L 422.285807 225.804809 
L 423.123121 183.782468 
L 423.960435 187.893349 
L 424.797749 189.94879 
L 425.635063 172.849907 
L 426.472377 324.453937 
L 427.309691 293.634348 
L 428.147005 369.74575 
L 428.984319 318.935134 
L 429.821633 309.849491 
L 430.658947 314.188754 
L 431.496261 293.86273 
L 432.333575 233.113042 
L 433.170889 181.498645 
L 434.008203 155.691447 
L 434.845517 141.303363 
L 435.682831 267.142003 
L 436.520145 231.971131 
L 437.357459 328.80522 
L 438.194773 187.893349 
L 439.032087 275.592148 
L 439.869401 283.903277 
L 440.706715 358.951682 
L 441.544029 338.50475 
L 442.381343 337.255365 
L 443.218657 332.002572 
L 444.055971 254.809359 
L 444.893285 256.179653 
L 445.730599 179.899969 
L 446.567913 236.767159 
L 447.405227 165.96865 
L 448.242541 290.436996 
L 449.079855 350.501538 
L 449.917169 323.324045 
L 450.754483 323.324045 
L 451.591797 262.802739 
L 452.429111 228.088632 
L 453.266425 175.947963 
L 454.103739 233.569807 
L 454.941053 255.266124 
L 455.778367 156.148212 
L 456.615681 224.89128 
L 457.452995 255.681365 
L 458.290309 326.978162 
L 459.127623 221.693928 
L 459.964937 220.552016 
L 460.802251 175.622992 
L 461.639565 185.381144 
L 462.476879 296.374936 
L 463.314193 195.658347 
L 464.151507 235.168483 
L 464.988821 232.189583 
L 465.826135 348.217715 
L 466.663449 297.516847 
L 467.500763 366.71668 
L 468.338077 370.370796 
L 469.175391 304.596698 
L 470.012705 310.991402 
L 470.850019 334.74316 
L 471.687333 343.421687 
L 472.524647 313.503607 
L 473.361961 302.312875 
L 474.199275 309.164344 
L 475.036589 318.220198 
L 475.873903 420.158135 
L 476.711217 400.517258 
L 477.548531 360.093594 
L 478.385845 340.681099 
L 479.223159 341.594628 
L 480.060473 296.603318 
L 480.897787 335.885071 
L 481.735101 346.390656 
L 482.572415 311.676549 
L 483.409729 322.182134 
L 484.247043 313.275225 
L 485.084357 295.004642 
L 485.921671 305.053462 
L 486.758985 312.133313 
L 487.596299 352.100214 
L 488.433613 372.793635 
L 489.270927 372.654619 
L 490.108241 333.144484 
L 490.945555 353.013743 
L 491.782869 345.70551 
L 492.620183 371.055943 
L 493.457497 363.062563 
L 494.294811 278.561117 
L 495.132125 229.91569 
L 495.969439 318.528017 
L 496.806753 339.76757 
L 497.644067 369.457267 
L 498.481381 323.614714 
L 499.318695 325.379486 
L 500.156009 359.408447 
L 500.993322 305.738609 
L 501.830636 324.009192 
L 502.66795 299.115523 
L 503.505264 344.335216 
L 504.342578 322.182134 
L 506.017206 348.485816 
L 506.85452 373.568148 
L 507.691834 371.969472 
L 508.529148 320.355076 
L 509.366462 319.213164 
L 510.203776 266.456856 
L 511.04109 164.032365 
L 511.878404 197.452779 
L 512.715718 358.7233 
L 513.553032 332.002572 
L 514.390346 321.496987 
L 515.22766 384.073734 
L 516.064974 386.585939 
L 516.902288 382.70344 
L 517.739602 382.475058 
L 518.576916 379.506088 
L 519.41423 376.993883 
L 520.251544 293.634348 
L 521.088858 304.368316 
L 521.926172 264.85818 
L 522.763486 348.247504 
L 523.6008 334.286395 
L 524.438114 338.397276 
L 525.275428 334.514777 
L 526.950056 377.67903 
L 527.78737 376.537118 
L 528.624684 370.827561 
L 529.461998 374.253295 
L 530.299312 350.958302 
L 531.136626 313.960372 
L 531.97394 234.9401 
L 532.811254 299.393554 
L 533.648568 349.588008 
L 534.485882 338.168894 
L 535.323196 335.656689 
L 536.16051 329.947132 
L 536.997824 367.858591 
L 537.835138 360.321976 
L 538.672452 373.339766 
L 539.509766 396.863142 
L 540.34708 365.346386 
L 541.184394 350.958302 
L 542.021708 309.164344 
L 542.859022 336.570218 
L 543.696336 352.100214 
L 544.53365 374.481678 
L 545.370964 389.554909 
L 546.208278 318.071253 
L 547.045592 338.476714 
L 547.882906 363.74771 
L 548.72022 362.834181 
L 550.394848 408.967403 
L 551.232162 405.313286 
L 552.069476 390.468438 
L 552.90679 378.592559 
L 553.744104 389.783291 
L 554.581418 394.807701 
L 555.418732 410.794461 
L 556.256046 408.282256 
L 557.09336 399.375347 
L 557.930674 393.894172 
L 559.605302 417.64593 
L 560.442616 417.64593 
L 561.27993 435.231366 
L 562.954558 432.034014 
L 563.791872 434.546219 
L 564.629186 426.552839 
L 565.4665 423.355487 
L 566.303814 425.698888 
L 567.141128 403.257846 
L 567.978442 397.319906 
L 568.815756 427.69475 
L 569.65307 410.566079 
L 570.490384 410.446923 
L 571.327698 399.603729 
L 573.002326 289.523467 
L 573.83964 388.412997 
L 574.676954 403.942993 
L 575.514268 429.521809 
L 576.351582 428.836662 
L 577.188896 429.065044 
L 578.02621 432.947543 
L 578.863524 425.410928 
L 579.700838 423.355487 
L 580.538152 418.559459 
L 581.375466 409.195785 
L 582.21278 405.541669 
L 583.050094 410.316935 
L 583.887408 395.492848 
L 584.724722 384.530498 
L 585.562036 380.191235 
L 586.39935 407.140345 
L 587.236664 413.078284 
L 588.073978 414.220196 
L 588.911292 407.825491 
L 589.748606 388.869762 
L 590.58592 382.018293 
L 591.423234 392.067114 
L 592.260548 382.931822 
L 593.097862 377.907412 
L 593.935176 384.530498 
L 594.77249 380.876382 
L 595.609804 390.69682 
L 596.447118 403.942993 
L 597.284432 428.60828 
L 598.121746 424.040634 
L 598.95906 420.6149 
L 599.796374 421.300046 
L 600.633688 412.164755 
L 601.471002 434.089454 
L 602.308316 428.60828 
L 603.982944 432.034014 
L 604.820258 421.071664 
L 605.657572 439.217675 
L 606.494886 428.379897 
L 607.3322 389.475471 
L 608.169514 426.781221 
L 609.006828 442.996364 
L 609.844142 437.515189 
L 611.51877 413.991813 
L 613.193398 330.175514 
L 614.030712 357.124624 
L 614.868026 405.084904 
L 615.70534 302.312875 
L 616.542653 361.463887 
L 617.379967 406.39562 
L 618.217281 424.954163 
L 619.054595 410.566079 
L 619.891909 408.967403 
L 620.729223 392.523878 
L 621.566537 429.065044 
L 622.403851 358.266535 
L 623.241165 374.024913 
L 624.078479 361.235505 
L 624.915793 368.543738 
L 625.753107 390.011673 
L 626.590421 403.486228 
L 627.427735 392.295496 
L 628.265049 412.62152 
L 629.102363 425.016449 
L 629.939677 411.479608 
L 630.776991 424.725781 
L 631.614305 428.151515 
L 632.451619 424.954163 
L 633.288933 412.62152 
L 634.126247 409.424167 
L 634.963561 417.189165 
L 635.800875 421.985193 
L 636.638189 433.404308 
L 637.475503 434.089454 
L 638.312817 427.69475 
L 639.150131 433.175925 
L 639.987445 429.750191 
L 640.824759 429.750191 
L 641.662073 421.071664 
L 642.499387 427.009604 
L 643.336701 426.552839 
L 645.011329 401.65917 
L 645.848643 422.898722 
L 646.685957 435.459748 
L 647.523271 439.342247 
L 648.360585 436.60166 
L 649.197899 435.002984 
L 650.035213 401.430787 
L 651.709841 428.151515 
L 652.547155 373.111384 
L 653.384469 392.523878 
L 654.221783 389.554909 
L 655.059097 341.823011 
L 656.733725 422.898722 
L 657.571039 399.832111 
L 658.408353 400.517258 
L 659.245667 356.439477 
L 660.082981 345.933892 
L 660.920295 434.317837 
L 661.757609 431.120485 
L 662.594923 427.466368 
L 663.432237 440.484158 
L 664.269551 439.965108 
L 665.944179 395.492848 
L 667.618807 336.7986 
L 668.456121 326.064633 
L 669.293435 320.126693 
L 670.130749 297.745229 
L 670.968063 298.887141 
L 671.805377 370.370796 
L 672.642691 396.634759 
L 673.480005 381.561529 
L 674.317319 374.253295 
L 675.154633 371.284326 
L 675.991947 398.918582 
L 676.829261 440.214252 
L 677.666575 422.213576 
L 678.503889 421.071664 
L 679.341203 348.280001 
L 680.178517 399.146965 
L 681.015831 416.960783 
L 681.853145 399.832111 
L 682.690459 355.069183 
L 684.365087 411.479608 
L 685.202401 348.902862 
L 686.039715 322.997785 
L 686.877029 378.364177 
L 687.714343 404.628139 
L 688.551657 408.053874 
L 689.388971 339.539188 
L 690.226285 376.822596 
L 691.063599 362.805981 
L 691.900913 288.381556 
L 693.575541 318.984782 
L 694.412855 311.219784 
L 695.250169 289.980232 
L 696.087483 295.689789 
L 696.924797 290.893761 
L 697.762111 351.871831 
L 698.599425 309.849491 
L 699.436739 344.672824 
L 700.274053 356.667859 
L 701.111367 392.067114 
L 701.948681 396.863142 
L 702.785995 411.936373 
L 703.623309 379.68651 
L 704.460623 382.15989 
L 706.135251 329.033603 
L 706.972565 333.829631 
L 707.809879 337.255365 
L 708.647193 331.317425 
L 709.484507 265.0658 
L 710.321821 239.279364 
L 711.159135 332.916101 
L 711.996449 276.734059 
L 712.833763 351.643449 
L 713.671077 356.896242 
L 714.508391 392.523878 
L 715.345705 332.687719 
L 716.183019 301.170964 
L 717.020333 264.629798 
L 717.857647 289.523467 
L 718.694961 306.195374 
L 719.532275 263.944651 
L 720.369589 274.221854 
L 721.206903 267.598767 
L 722.044217 348.217715 
L 722.881531 339.668273 
L 723.718845 360.093594 
L 724.556159 355.982712 
L 725.393473 297.288465 
L 726.230787 297.516847 
L 727.068101 297.973612 
L 727.905415 344.335216 
L 728.742729 316.472577 
L 729.580043 323.552428 
L 730.417357 344.79198 
L 732.091984 121.890869 
L 732.929298 202.530578 
L 733.766612 300.485817 
L 734.603926 336.341836 
L 735.44124 334.971542 
L 736.278554 229.91569 
L 737.115868 268.055532 
L 737.953182 312.81846 
L 738.790496 401.65917 
L 740.465124 279.703029 
L 741.302438 102.478374 
L 742.139752 233.569807 
L 742.977066 263.716269 
L 743.81438 328.120073 
L 744.651694 256.179653 
L 745.489008 196.343494 
L 746.326322 280.014459 
L 747.163636 271.252884 
L 747.163636 271.252884 
" style="fill:none;stroke:#1f77b4;stroke-linecap:square;stroke-width:1.5;"/>
   </g>
   <g id="line2d_18">
    <path clip-path="url(#pcc74673aca)" d="M 138.436364 208.713969 
L 140.110992 294.897082 
L 140.948306 228.68564 
L 141.78562 266.73151 
L 142.622934 258.879628 
L 143.460248 207.428879 
L 144.297562 204.037457 
L 145.134876 226.553882 
L 145.97219 201.606511 
L 146.809504 238.370365 
L 147.646818 236.396637 
L 148.484132 231.065003 
L 149.321446 247.729097 
L 150.15876 248.587496 
L 150.996074 211.07581 
L 151.833388 243.647301 
L 152.670702 182.348737 
L 153.508016 235.842778 
L 154.345329 220.957017 
L 155.182643 296.202579 
L 156.019957 309.45017 
L 157.694585 289.953646 
L 158.531899 239.719457 
L 159.369213 236.93908 
L 160.206527 194.852353 
L 161.043841 210.035461 
L 161.881155 242.034211 
L 162.718469 250.50638 
L 163.555783 291.673402 
L 164.393097 251.261112 
L 165.230411 281.966159 
L 166.067725 291.209766 
L 166.905039 244.592932 
L 167.742353 316.162437 
L 168.579667 320.722026 
L 170.254295 250.539939 
L 171.091609 218.850224 
L 171.928923 290.465781 
L 172.766237 302.615544 
L 173.603551 272.40119 
L 174.440865 316.86729 
L 175.278179 301.29079 
L 176.115493 236.890968 
L 176.952807 267.209093 
L 177.790121 317.325595 
L 178.627435 317.370968 
L 179.464749 263.480993 
L 180.302063 299.188001 
L 181.139377 241.393956 
L 181.976691 236.249458 
L 182.814005 268.461564 
L 183.651319 317.271734 
L 184.488633 308.973988 
L 185.325947 272.431006 
L 187.000575 281.471054 
L 187.837889 299.576543 
L 188.675203 263.15061 
L 189.512517 294.340861 
L 190.349831 289.182918 
L 191.187145 240.781991 
L 192.861773 265.152105 
L 193.699087 265.752257 
L 194.536401 285.918309 
L 195.373715 247.007799 
L 196.211029 220.364058 
L 197.048343 288.752882 
L 197.885657 207.121977 
L 198.722971 264.052081 
L 199.560285 281.249314 
L 200.397599 245.968244 
L 201.234913 273.185132 
L 202.072227 270.344903 
L 202.909541 250.260344 
L 203.746855 223.34167 
L 204.584169 254.068483 
L 205.421483 260.437204 
L 206.258797 284.849764 
L 207.096111 281.296098 
L 207.933425 272.513597 
L 208.770739 293.365361 
L 209.608053 294.977843 
L 210.445367 287.274029 
L 211.282681 278.247123 
L 212.119995 308.093488 
L 212.957309 281.753984 
L 213.794623 284.028907 
L 214.631937 314.461111 
L 215.469251 285.522585 
L 216.306565 289.595631 
L 217.143879 307.675057 
L 217.981193 239.723262 
L 218.818507 281.491482 
L 219.655821 302.234205 
L 220.493135 309.640703 
L 221.330449 319.284792 
L 222.167763 247.054426 
L 223.005077 277.811348 
L 223.842391 206.0396 
L 224.679705 289.201339 
L 225.517019 338.575425 
L 226.354333 328.194827 
L 227.191647 330.39455 
L 228.028961 333.493947 
L 228.866275 344.211933 
L 229.703589 352.252675 
L 230.540903 355.914117 
L 231.378217 284.50558 
L 232.215531 253.15593 
L 233.052845 138.545756 
L 233.890159 118.969181 
L 234.727473 262.050963 
L 235.564787 323.813006 
L 236.402101 329.726988 
L 237.239415 343.418393 
L 238.076729 314.564392 
L 238.914043 348.283484 
L 240.588671 373.317779 
L 241.425985 371.320674 
L 242.263299 356.797858 
L 243.100613 363.388936 
L 243.937927 344.183737 
L 244.775241 335.468982 
L 246.449869 350.03497 
L 247.287183 235.951672 
L 248.124497 300.34635 
L 248.961811 302.605967 
L 249.799125 303.989768 
L 250.636439 295.375941 
L 251.473753 298.294025 
L 252.311067 304.479092 
L 253.148381 274.188253 
L 253.985695 282.355307 
L 254.823009 342.746409 
L 255.660323 307.59555 
L 256.497637 309.402748 
L 257.334951 299.005988 
L 258.172265 348.022665 
L 259.009579 303.689807 
L 259.846893 266.034257 
L 260.684207 316.464394 
L 261.521521 321.912178 
L 262.358835 385.150822 
L 263.196149 324.935946 
L 264.033463 319.018421 
L 264.870777 328.72393 
L 265.708091 320.391266 
L 266.545405 331.014346 
L 267.382719 335.94623 
L 268.220033 355.073125 
L 269.057347 315.592018 
L 269.89466 325.721937 
L 270.731974 287.414224 
L 271.569288 323.497385 
L 272.406602 367.220582 
L 273.243916 401.846551 
L 274.08123 408.21821 
L 274.918544 348.777261 
L 275.755858 353.051107 
L 276.593172 358.054051 
L 277.430486 380.58565 
L 278.2678 386.418421 
L 279.105114 386.980445 
L 279.942428 404.877147 
L 280.779742 401.523172 
L 282.45437 362.647685 
L 283.291684 354.403952 
L 284.128998 354.073412 
L 284.966312 336.178571 
L 285.803626 352.565338 
L 286.64094 380.267624 
L 287.478254 358.071374 
L 288.315568 361.27335 
L 289.990196 351.10317 
L 290.82751 343.725014 
L 291.664824 360.47506 
L 292.502138 365.311128 
L 293.339452 363.817048 
L 294.176766 349.960555 
L 295.01408 323.844819 
L 295.851394 326.021438 
L 296.688708 300.173997 
L 297.526022 346.135249 
L 299.20065 381.459815 
L 300.875278 359.335763 
L 301.712592 394.4009 
L 302.549906 385.427323 
L 303.38722 403.437592 
L 304.224534 394.245285 
L 305.061848 363.207315 
L 305.899162 395.349982 
L 306.736476 379.193496 
L 307.57379 382.210501 
L 308.411104 370.868705 
L 309.248418 367.83571 
L 310.085732 387.484718 
L 310.923046 401.804305 
L 311.76036 394.434052 
L 312.597674 370.713283 
L 313.434988 351.435321 
L 314.272302 334.889802 
L 315.109616 326.880465 
L 315.94693 326.751675 
L 316.784244 355.571721 
L 317.621558 323.144284 
L 318.458872 371.869494 
L 319.296186 298.848459 
L 320.1335 322.430429 
L 320.970814 355.701608 
L 321.808128 371.901548 
L 322.645442 373.947464 
L 324.32007 348.668701 
L 325.157384 343.744459 
L 325.994698 346.79703 
L 326.832012 368.589538 
L 327.669326 364.951044 
L 328.50664 323.060606 
L 329.343954 336.617765 
L 330.181268 361.629865 
L 331.018582 259.981785 
L 331.855896 282.046658 
L 332.69321 351.959761 
L 333.530524 350.476767 
L 334.367838 326.925367 
L 335.205152 314.548511 
L 336.042466 304.230776 
L 336.87978 272.610751 
L 337.717094 256.69497 
L 338.554408 307.460645 
L 339.391722 304.315499 
L 340.229036 275.252449 
L 342.740978 243.903018 
L 343.578292 330.017278 
L 344.415606 305.663755 
L 345.25292 345.949964 
L 346.090234 334.03733 
L 346.927548 370.094454 
L 347.764862 299.001879 
L 348.602176 307.51044 
L 349.43949 326.675159 
L 350.276804 328.951911 
L 351.114118 368.570547 
L 351.951432 352.472105 
L 352.788746 340.178279 
L 353.62606 358.075305 
L 354.463374 357.40378 
L 355.300688 345.44821 
L 356.138002 361.733432 
L 356.975316 369.22052 
L 357.81263 369.018052 
L 358.649944 354.65392 
L 359.487258 360.212264 
L 360.324572 312.815759 
L 361.161886 337.057566 
L 361.9992 325.159098 
L 362.836514 327.771471 
L 363.673828 370.544777 
L 364.511142 308.563586 
L 365.348456 353.065785 
L 366.18577 296.904725 
L 367.023084 313.832816 
L 367.860398 315.975886 
L 368.697712 307.957266 
L 369.535026 307.316477 
L 370.37234 266.774583 
L 371.209654 265.538044 
L 372.046968 250.806675 
L 372.884282 214.740472 
L 373.721596 280.558668 
L 374.55891 282.894331 
L 376.233538 330.439253 
L 377.908166 276.253834 
L 378.74548 271.708025 
L 380.420108 290.294494 
L 381.257422 282.985379 
L 382.094736 218.668399 
L 382.93205 262.15695 
L 383.769364 259.313825 
L 384.606678 248.774611 
L 385.443991 239.976136 
L 386.281305 302.030561 
L 387.118619 272.189371 
L 387.955933 335.586637 
L 388.793247 316.865409 
L 389.630561 273.637969 
L 390.467875 274.445967 
L 391.305189 249.582661 
L 392.142503 188.59698 
L 392.979817 283.128272 
L 393.817131 218.880647 
L 394.654445 296.335843 
L 395.491759 269.496519 
L 396.329073 142.532813 
L 397.166387 233.087575 
L 398.003701 211.840432 
L 398.841015 210.695182 
L 399.678329 273.294413 
L 400.515643 254.714572 
L 401.352957 253.591151 
L 402.190271 261.747092 
L 403.027585 285.620073 
L 403.864899 259.594487 
L 404.702213 332.322341 
L 405.539527 319.053883 
L 406.376841 313.834625 
L 407.214155 289.533197 
L 408.051469 299.57188 
L 408.888783 327.600958 
L 409.726097 305.669285 
L 410.563411 224.524117 
L 411.400725 283.951376 
L 412.238039 246.514095 
L 413.075353 242.57266 
L 413.912667 303.073253 
L 414.749981 263.064005 
L 416.424609 234.219109 
L 417.261923 234.932106 
L 418.099237 194.214147 
L 418.936551 252.266293 
L 419.773865 210.028791 
L 420.611179 179.143383 
L 421.448493 113.502538 
L 422.285807 209.926023 
L 423.123121 174.38863 
L 423.960435 144.647719 
L 424.797749 178.34813 
L 425.635063 143.895496 
L 426.472377 230.044936 
L 427.309691 189.211726 
L 428.147005 261.697495 
L 428.984319 257.573797 
L 429.821633 241.341746 
L 430.658947 249.503312 
L 431.496261 239.007191 
L 432.333575 215.933457 
L 433.170889 86.923636 
L 434.008203 125.143616 
L 434.845517 88.748283 
L 435.682831 234.897376 
L 436.520145 186.096721 
L 437.357459 267.298918 
L 438.194773 160.29116 
L 439.032087 165.960077 
L 439.869401 261.166594 
L 440.706715 286.929406 
L 441.544029 250.737216 
L 442.381343 258.721995 
L 443.218657 284.02898 
L 444.055971 264.735995 
L 444.893285 238.376031 
L 445.730599 176.827312 
L 446.567913 194.361514 
L 447.405227 157.44011 
L 448.242541 245.284205 
L 449.079855 196.118813 
L 449.917169 221.519177 
L 450.754483 220.039299 
L 451.591797 185.900134 
L 452.429111 195.274297 
L 453.266425 227.226588 
L 454.103739 208.215916 
L 454.941053 235.510283 
L 455.778367 209.118119 
L 456.615681 211.373429 
L 457.452995 202.854508 
L 458.290309 252.734487 
L 459.964937 210.270416 
L 460.802251 221.885671 
L 461.639565 93.832354 
L 462.476879 272.924961 
L 463.314193 221.4047 
L 464.151507 182.238191 
L 464.988821 252.264453 
L 465.826135 271.30263 
L 466.663449 252.548167 
L 467.500763 313.521282 
L 468.338077 292.76247 
L 469.175391 279.82703 
L 470.012705 257.85816 
L 471.687333 304.939874 
L 472.524647 298.270617 
L 473.361961 307.922264 
L 474.199275 270.515918 
L 475.036589 286.435034 
L 475.873903 282.632435 
L 476.711217 318.216571 
L 477.548531 274.141145 
L 478.385845 284.038305 
L 479.223159 288.328105 
L 480.060473 275.356806 
L 480.897787 288.588548 
L 481.735101 264.44055 
L 482.572415 263.845124 
L 483.409729 275.54482 
L 484.247043 274.994463 
L 485.084357 266.845381 
L 485.921671 267.407959 
L 486.758985 281.682569 
L 488.433613 297.37914 
L 489.270927 263.507715 
L 490.108241 293.955591 
L 490.945555 298.433216 
L 491.782869 300.267659 
L 492.620183 275.515547 
L 493.457497 325.575574 
L 495.132125 228.203269 
L 495.969439 264.381064 
L 496.806753 281.81576 
L 497.644067 308.18945 
L 498.481381 290.404894 
L 499.318695 277.241347 
L 500.156009 301.930815 
L 500.993322 271.433782 
L 501.830636 291.954556 
L 502.66795 267.885207 
L 503.505264 298.279221 
L 504.342578 273.111041 
L 505.179892 295.786395 
L 506.017206 314.354339 
L 506.85452 305.468852 
L 507.691834 315.122422 
L 508.529148 277.880211 
L 509.366462 312.284221 
L 510.203776 233.885798 
L 511.878404 153.977764 
L 512.715718 306.81487 
L 513.553032 259.602892 
L 514.390346 255.684918 
L 515.22766 336.08906 
L 516.064974 303.038261 
L 516.902288 331.57684 
L 517.739602 311.854059 
L 518.576916 334.104919 
L 519.41423 321.246476 
L 520.251544 310.571824 
L 521.088858 294.693491 
L 521.926172 254.279141 
L 522.763486 301.934349 
L 523.6008 293.973949 
L 524.438114 295.432144 
L 525.275428 279.70466 
L 526.112742 302.171697 
L 526.950056 338.024263 
L 527.78737 331.194791 
L 528.624684 346.365938 
L 529.461998 313.731784 
L 530.299312 319.334649 
L 531.136626 309.4228 
L 531.97394 263.209322 
L 532.811254 232.73185 
L 533.648568 265.930653 
L 534.485882 290.11751 
L 535.323196 288.229739 
L 536.16051 302.303027 
L 536.997824 346.54171 
L 537.835138 317.351575 
L 538.672452 315.543195 
L 539.509766 314.545417 
L 540.34708 352.654714 
L 542.021708 243.272757 
L 542.859022 300.696994 
L 543.696336 276.587982 
L 544.53365 323.99342 
L 545.370964 288.585119 
L 546.208278 332.689639 
L 547.045592 304.445595 
L 547.882906 346.026125 
L 548.72022 343.623657 
L 549.557534 378.488078 
L 550.394848 350.479088 
L 551.232162 367.535022 
L 552.069476 360.059796 
L 552.90679 343.647807 
L 553.744104 347.724554 
L 554.581418 373.868303 
L 555.418732 381.850929 
L 556.256046 378.999314 
L 557.09336 364.579914 
L 557.930674 366.822417 
L 558.767988 370.445731 
L 559.605302 350.116379 
L 560.442616 395.460016 
L 561.27993 409.202136 
L 562.117244 406.941505 
L 562.954558 366.420943 
L 563.791872 393.45184 
L 564.629186 382.140383 
L 565.4665 391.831558 
L 566.303814 391.446633 
L 567.141128 353.359243 
L 567.978442 349.715208 
L 568.815756 336.143224 
L 569.65307 387.15883 
L 570.490384 307.181834 
L 571.327698 322.500202 
L 572.165012 302.517783 
L 573.002326 259.447622 
L 573.83964 324.801376 
L 574.676954 335.773438 
L 575.514268 339.565467 
L 576.351582 341.362085 
L 577.188896 361.71612 
L 578.02621 386.01082 
L 579.700838 334.355074 
L 580.538152 337.566554 
L 581.375466 356.610722 
L 582.21278 370.685991 
L 583.050094 374.390652 
L 583.887408 374.162953 
L 584.724722 365.956443 
L 585.562036 322.264829 
L 586.39935 341.701418 
L 587.236664 353.297436 
L 588.911292 372.002873 
L 589.748606 307.229757 
L 590.58592 324.651782 
L 591.423234 300.545289 
L 592.260548 375.328296 
L 593.097862 287.113448 
L 593.935176 328.66114 
L 594.77249 332.555184 
L 595.609804 361.440758 
L 596.447118 351.577826 
L 597.284432 359.071541 
L 598.121746 373.121213 
L 598.95906 375.736524 
L 599.796374 387.778867 
L 600.633688 390.261635 
L 601.471002 405.089635 
L 602.308316 407.615675 
L 603.14563 390.746233 
L 603.982944 386.704603 
L 604.820258 378.506478 
L 605.657572 380.298308 
L 606.494886 367.241387 
L 607.3322 319.284656 
L 608.169514 350.490672 
L 609.006828 308.082636 
L 609.844142 356.509104 
L 610.681456 338.954756 
L 611.51877 289.290108 
L 612.356084 284.799112 
L 613.193398 305.902923 
L 614.030712 286.952804 
L 614.868026 303.69239 
L 615.70534 270.386135 
L 617.379967 318.38377 
L 618.217281 353.105011 
L 619.054595 291.839201 
L 619.891909 308.715824 
L 620.729223 356.531121 
L 621.566537 274.462109 
L 622.403851 295.968942 
L 623.241165 306.157145 
L 624.078479 284.486605 
L 624.915793 300.350093 
L 625.753107 313.197788 
L 626.590421 312.256454 
L 627.427735 361.295331 
L 628.265049 329.487799 
L 629.102363 347.964695 
L 629.939677 337.531291 
L 630.776991 359.784095 
L 631.614305 372.972403 
L 632.451619 342.173188 
L 634.126247 355.361669 
L 634.963561 351.518831 
L 635.800875 357.735617 
L 636.638189 378.951495 
L 637.475503 378.435544 
L 638.312817 379.914502 
L 639.150131 373.839563 
L 639.987445 382.71813 
L 640.824759 374.739759 
L 641.662073 379.59152 
L 642.499387 364.422453 
L 643.336701 372.331855 
L 644.174015 335.222548 
L 645.011329 364.983787 
L 645.848643 345.594573 
L 646.685957 336.31402 
L 647.523271 372.033181 
L 648.360585 392.064976 
L 649.197899 407.037268 
L 650.035213 365.675703 
L 650.872527 355.644662 
L 651.709841 378.330267 
L 653.384469 331.790175 
L 654.221783 356.2307 
L 655.059097 302.767719 
L 655.896411 352.041588 
L 656.733725 374.616961 
L 657.571039 349.870332 
L 658.408353 356.328366 
L 659.245667 349.190047 
L 660.082981 316.734978 
L 660.920295 387.073072 
L 661.757609 361.265959 
L 662.594923 357.242885 
L 663.432237 368.505625 
L 664.269551 395.882629 
L 665.106865 391.54754 
L 665.944179 366.918834 
L 666.781493 358.446398 
L 667.618807 297.762737 
L 668.456121 329.208507 
L 669.293435 293.732 
L 670.130749 301.154766 
L 670.968063 285.677918 
L 671.805377 341.405356 
L 672.642691 370.282013 
L 673.480005 342.025393 
L 674.317319 351.019984 
L 675.154633 317.607606 
L 675.991947 300.86319 
L 676.829261 320.498142 
L 677.666575 392.579442 
L 678.503889 343.308422 
L 679.341203 332.226222 
L 680.178517 307.681423 
L 681.015831 305.573428 
L 681.853145 379.824447 
L 682.690459 302.706278 
L 683.527773 348.321225 
L 684.365087 362.435197 
L 686.039715 297.646755 
L 686.877029 334.938865 
L 687.714343 363.795167 
L 688.551657 363.453445 
L 689.388971 312.726008 
L 690.226285 291.408882 
L 691.063599 327.146375 
L 691.900913 296.005522 
L 692.738227 282.517686 
L 693.575541 314.411944 
L 694.412855 280.829586 
L 695.250169 301.953543 
L 696.087483 272.185576 
L 696.924797 267.532179 
L 697.762111 336.142764 
L 698.599425 266.305196 
L 699.436739 299.179679 
L 700.274053 313.819089 
L 701.111367 320.646973 
L 701.948681 354.940436 
L 702.785995 332.529978 
L 704.460623 304.885197 
L 705.297937 287.582186 
L 706.135251 261.830289 
L 706.972565 288.872796 
L 707.809879 305.599658 
L 708.647193 293.267151 
L 709.484507 244.55655 
L 710.321821 243.164595 
L 711.159135 283.390084 
L 711.996449 236.33874 
L 712.833763 297.575915 
L 713.671077 324.557629 
L 714.508391 301.45203 
L 715.345705 298.089922 
L 717.020333 202.321412 
L 717.857647 260.854276 
L 718.694961 277.036323 
L 719.532275 238.020285 
L 720.369589 274.260985 
L 721.206903 242.755029 
L 722.044217 282.025112 
L 722.881531 311.628085 
L 723.718845 302.409036 
L 724.556159 306.263039 
L 725.393473 269.288955 
L 726.230787 251.681593 
L 727.068101 276.157162 
L 727.905415 280.766252 
L 728.742729 301.275986 
L 729.580043 260.011685 
L 730.417357 318.066559 
L 731.254671 241.927492 
L 732.091984 104.658649 
L 732.929298 215.078362 
L 733.766612 245.299343 
L 734.603926 282.43427 
L 735.44124 299.979271 
L 736.278554 241.868863 
L 737.115868 263.157656 
L 737.953182 213.759546 
L 738.790496 318.550697 
L 739.62781 276.995415 
L 740.465124 262.681516 
L 741.302438 221.540651 
L 742.139752 234.006422 
L 742.977066 179.429921 
L 743.81438 309.806428 
L 745.489008 168.836469 
L 746.326322 237.724172 
L 747.163636 224.99501 
L 747.163636 224.99501 
" style="fill:none;stroke:#ff0000;stroke-dasharray:5.55,2.4;stroke-dashoffset:0;stroke-width:1.5;"/>
   </g>
   <g id="patch_3">
    <path d="M 108 460.8 
L 108 69.12 
" style="fill:none;stroke:#000000;stroke-linecap:square;stroke-linejoin:miter;stroke-width:0.8;"/>
   </g>
   <g id="patch_4">
    <path d="M 777.6 460.8 
L 777.6 69.12 
" style="fill:none;stroke:#000000;stroke-linecap:square;stroke-linejoin:miter;stroke-width:0.8;"/>
   </g>
   <g id="patch_5">
    <path d="M 108 460.8 
L 777.6 460.8 
" style="fill:none;stroke:#000000;stroke-linecap:square;stroke-linejoin:miter;stroke-width:0.8;"/>
   </g>
   <g id="patch_6">
    <path d="M 108 69.12 
L 777.6 69.12 
" style="fill:none;stroke:#000000;stroke-linecap:square;stroke-linejoin:miter;stroke-width:0.8;"/>
   </g>
   <g id="text_19">
    <!-- Macau residential 2020-2021 | Forecast vs Monitored | LSTM -->
    <g transform="translate(216.121875 63.12)scale(0.15 -0.15)">
     <defs>
      <path d="M 8.5 21.578125 
L 8.5 54.6875 
L 17.484375 54.6875 
L 17.484375 21.921875 
Q 17.484375 14.15625 20.5 10.265625 
Q 23.53125 6.390625 29.59375 6.390625 
Q 36.859375 6.390625 41.078125 11.03125 
Q 45.3125 15.671875 45.3125 23.6875 
L 45.3125 54.6875 
L 54.296875 54.6875 
L 54.296875 0 
L 45.3125 0 
L 45.3125 8.40625 
Q 42.046875 3.421875 37.71875 1 
Q 33.40625 -1.421875 27.6875 -1.421875 
Q 18.265625 -1.421875 13.375 4.4375 
Q 8.5 10.296875 8.5 21.578125 
z
M 31.109375 56 
z
" id="DejaVuSans-117"/>
      <path id="DejaVuSans-32"/>
      <path d="M 44.28125 53.078125 
L 44.28125 44.578125 
Q 40.484375 46.53125 36.375 47.5 
Q 32.28125 48.484375 27.875 48.484375 
Q 21.1875 48.484375 17.84375 46.4375 
Q 14.5 44.390625 14.5 40.28125 
Q 14.5 37.15625 16.890625 35.375 
Q 19.28125 33.59375 26.515625 31.984375 
L 29.59375 31.296875 
Q 39.15625 29.25 43.1875 25.515625 
Q 47.21875 21.78125 47.21875 15.09375 
Q 47.21875 7.46875 41.1875 3.015625 
Q 35.15625 -1.421875 24.609375 -1.421875 
Q 20.21875 -1.421875 15.453125 -0.5625 
Q 10.6875 0.296875 5.421875 2 
L 5.421875 11.28125 
Q 10.40625 8.6875 15.234375 7.390625 
Q 20.0625 6.109375 24.8125 6.109375 
Q 31.15625 6.109375 34.5625 8.28125 
Q 37.984375 10.453125 37.984375 14.40625 
Q 37.984375 18.0625 35.515625 20.015625 
Q 33.0625 21.96875 24.703125 23.78125 
L 21.578125 24.515625 
Q 13.234375 26.265625 9.515625 29.90625 
Q 5.8125 33.546875 5.8125 39.890625 
Q 5.8125 47.609375 11.28125 51.796875 
Q 16.75 56 26.8125 56 
Q 31.78125 56 36.171875 55.265625 
Q 40.578125 54.546875 44.28125 53.078125 
z
" id="DejaVuSans-115"/>
      <path d="M 45.40625 46.390625 
L 45.40625 75.984375 
L 54.390625 75.984375 
L 54.390625 0 
L 45.40625 0 
L 45.40625 8.203125 
Q 42.578125 3.328125 38.25 0.953125 
Q 33.9375 -1.421875 27.875 -1.421875 
Q 17.96875 -1.421875 11.734375 6.484375 
Q 5.515625 14.40625 5.515625 27.296875 
Q 5.515625 40.1875 11.734375 48.09375 
Q 17.96875 56 27.875 56 
Q 33.9375 56 38.25 53.625 
Q 42.578125 51.265625 45.40625 46.390625 
z
M 14.796875 27.296875 
Q 14.796875 17.390625 18.875 11.75 
Q 22.953125 6.109375 30.078125 6.109375 
Q 37.203125 6.109375 41.296875 11.75 
Q 45.40625 17.390625 45.40625 27.296875 
Q 45.40625 37.203125 41.296875 42.84375 
Q 37.203125 48.484375 30.078125 48.484375 
Q 22.953125 48.484375 18.875 42.84375 
Q 14.796875 37.203125 14.796875 27.296875 
z
" id="DejaVuSans-100"/>
      <path d="M 54.890625 33.015625 
L 54.890625 0 
L 45.90625 0 
L 45.90625 32.71875 
Q 45.90625 40.484375 42.875 44.328125 
Q 39.84375 48.1875 33.796875 48.1875 
Q 26.515625 48.1875 22.3125 43.546875 
Q 18.109375 38.921875 18.109375 30.90625 
L 18.109375 0 
L 9.078125 0 
L 9.078125 54.6875 
L 18.109375 54.6875 
L 18.109375 46.1875 
Q 21.34375 51.125 25.703125 53.5625 
Q 30.078125 56 35.796875 56 
Q 45.21875 56 50.046875 50.171875 
Q 54.890625 44.34375 54.890625 33.015625 
z
" id="DejaVuSans-110"/>
      <path d="M 9.421875 75.984375 
L 18.40625 75.984375 
L 18.40625 0 
L 9.421875 0 
z
" id="DejaVuSans-108"/>
      <path d="M 21 76.421875 
L 21 -23.578125 
L 12.703125 -23.578125 
L 12.703125 76.421875 
z
" id="DejaVuSans-124"/>
      <path d="M 9.8125 72.90625 
L 51.703125 72.90625 
L 51.703125 64.59375 
L 19.671875 64.59375 
L 19.671875 43.109375 
L 48.578125 43.109375 
L 48.578125 34.8125 
L 19.671875 34.8125 
L 19.671875 0 
L 9.8125 0 
z
" id="DejaVuSans-70"/>
      <path d="M 2.984375 54.6875 
L 12.5 54.6875 
L 29.59375 8.796875 
L 46.6875 54.6875 
L 56.203125 54.6875 
L 35.6875 0 
L 23.484375 0 
z
" id="DejaVuSans-118"/>
      <path d="M 9.8125 72.90625 
L 19.671875 72.90625 
L 19.671875 8.296875 
L 55.171875 8.296875 
L 55.171875 0 
L 9.8125 0 
z
" id="DejaVuSans-76"/>
      <path d="M 53.515625 70.515625 
L 53.515625 60.890625 
Q 47.90625 63.578125 42.921875 64.890625 
Q 37.9375 66.21875 33.296875 66.21875 
Q 25.25 66.21875 20.875 63.09375 
Q 16.5 59.96875 16.5 54.203125 
Q 16.5 49.359375 19.40625 46.890625 
Q 22.3125 44.4375 30.421875 42.921875 
L 36.375 41.703125 
Q 47.40625 39.59375 52.65625 34.296875 
Q 57.90625 29 57.90625 20.125 
Q 57.90625 9.515625 50.796875 4.046875 
Q 43.703125 -1.421875 29.984375 -1.421875 
Q 24.8125 -1.421875 18.96875 -0.25 
Q 13.140625 0.921875 6.890625 3.21875 
L 6.890625 13.375 
Q 12.890625 10.015625 18.65625 8.296875 
Q 24.421875 6.59375 29.984375 6.59375 
Q 38.421875 6.59375 43.015625 9.90625 
Q 47.609375 13.234375 47.609375 19.390625 
Q 47.609375 24.75 44.3125 27.78125 
Q 41.015625 30.8125 33.5 32.328125 
L 27.484375 33.5 
Q 16.453125 35.6875 11.515625 40.375 
Q 6.59375 45.0625 6.59375 53.421875 
Q 6.59375 63.09375 13.40625 68.65625 
Q 20.21875 74.21875 32.171875 74.21875 
Q 37.3125 74.21875 42.625 73.28125 
Q 47.953125 72.359375 53.515625 70.515625 
z
" id="DejaVuSans-83"/>
      <path d="M -0.296875 72.90625 
L 61.375 72.90625 
L 61.375 64.59375 
L 35.5 64.59375 
L 35.5 0 
L 25.59375 0 
L 25.59375 64.59375 
L -0.296875 64.59375 
z
" id="DejaVuSans-84"/>
     </defs>
     <use xlink:href="#DejaVuSans-77"/>
     <use x="86.279297" xlink:href="#DejaVuSans-97"/>
     <use x="147.558594" xlink:href="#DejaVuSans-99"/>
     <use x="202.539062" xlink:href="#DejaVuSans-97"/>
     <use x="263.818359" xlink:href="#DejaVuSans-117"/>
     <use x="327.197266" xlink:href="#DejaVuSans-32"/>
     <use x="358.984375" xlink:href="#DejaVuSans-114"/>
     <use x="397.847656" xlink:href="#DejaVuSans-101"/>
     <use x="459.371094" xlink:href="#DejaVuSans-115"/>
     <use x="511.470703" xlink:href="#DejaVuSans-105"/>
     <use x="539.253906" xlink:href="#DejaVuSans-100"/>
     <use x="602.730469" xlink:href="#DejaVuSans-101"/>
     <use x="664.253906" xlink:href="#DejaVuSans-110"/>
     <use x="727.632812" xlink:href="#DejaVuSans-116"/>
     <use x="766.841797" xlink:href="#DejaVuSans-105"/>
     <use x="794.625" xlink:href="#DejaVuSans-97"/>
     <use x="855.904297" xlink:href="#DejaVuSans-108"/>
     <use x="883.6875" xlink:href="#DejaVuSans-32"/>
     <use x="915.474609" xlink:href="#DejaVuSans-50"/>
     <use x="979.097656" xlink:href="#DejaVuSans-48"/>
     <use x="1042.720703" xlink:href="#DejaVuSans-50"/>
     <use x="1106.34375" xlink:href="#DejaVuSans-48"/>
     <use x="1169.966797" xlink:href="#DejaVuSans-45"/>
     <use x="1206.050781" xlink:href="#DejaVuSans-50"/>
     <use x="1269.673828" xlink:href="#DejaVuSans-48"/>
     <use x="1333.296875" xlink:href="#DejaVuSans-50"/>
     <use x="1396.919922" xlink:href="#DejaVuSans-49"/>
     <use x="1460.542969" xlink:href="#DejaVuSans-32"/>
     <use x="1492.330078" xlink:href="#DejaVuSans-124"/>
     <use x="1526.021484" xlink:href="#DejaVuSans-32"/>
     <use x="1557.808594" xlink:href="#DejaVuSans-70"/>
     <use x="1611.703125" xlink:href="#DejaVuSans-111"/>
     <use x="1672.884766" xlink:href="#DejaVuSans-114"/>
     <use x="1711.748047" xlink:href="#DejaVuSans-101"/>
     <use x="1773.271484" xlink:href="#DejaVuSans-99"/>
     <use x="1828.251953" xlink:href="#DejaVuSans-97"/>
     <use x="1889.53125" xlink:href="#DejaVuSans-115"/>
     <use x="1941.630859" xlink:href="#DejaVuSans-116"/>
     <use x="1980.839844" xlink:href="#DejaVuSans-32"/>
     <use x="2012.626953" xlink:href="#DejaVuSans-118"/>
     <use x="2071.806641" xlink:href="#DejaVuSans-115"/>
     <use x="2123.90625" xlink:href="#DejaVuSans-32"/>
     <use x="2155.693359" xlink:href="#DejaVuSans-77"/>
     <use x="2241.972656" xlink:href="#DejaVuSans-111"/>
     <use x="2303.154297" xlink:href="#DejaVuSans-110"/>
     <use x="2366.533203" xlink:href="#DejaVuSans-105"/>
     <use x="2394.316406" xlink:href="#DejaVuSans-116"/>
     <use x="2433.525391" xlink:href="#DejaVuSans-111"/>
     <use x="2494.707031" xlink:href="#DejaVuSans-114"/>
     <use x="2533.570312" xlink:href="#DejaVuSans-101"/>
     <use x="2595.09375" xlink:href="#DejaVuSans-100"/>
     <use x="2658.570312" xlink:href="#DejaVuSans-32"/>
     <use x="2690.357422" xlink:href="#DejaVuSans-124"/>
     <use x="2724.048828" xlink:href="#DejaVuSans-32"/>
     <use x="2755.835938" xlink:href="#DejaVuSans-76"/>
     <use x="2811.548828" xlink:href="#DejaVuSans-83"/>
     <use x="2875.025391" xlink:href="#DejaVuSans-84"/>
     <use x="2936.109375" xlink:href="#DejaVuSans-77"/>
    </g>
   </g>
   <g id="legend_1">
    <g id="patch_7">
     <path d="M 116.4 114.615 
L 290.450625 114.615 
Q 292.850625 114.615 292.850625 112.215 
L 292.850625 77.52 
Q 292.850625 75.12 290.450625 75.12 
L 116.4 75.12 
Q 114 75.12 114 77.52 
L 114 112.215 
Q 114 114.615 116.4 114.615 
z
" style="fill:#ffffff;opacity:0.8;stroke:#cccccc;stroke-linejoin:miter;"/>
    </g>
    <g id="line2d_19">
     <path d="M 118.8 84.838125 
L 142.8 84.838125 
" style="fill:none;stroke:#1f77b4;stroke-linecap:square;stroke-width:1.5;"/>
    </g>
    <g id="line2d_20"/>
    <g id="text_20">
     <!-- measured_data_PM2.5 -->
     <g transform="translate(152.4 89.038125)scale(0.12 -0.12)">
      <defs>
       <path d="M 50.984375 -16.609375 
L 50.984375 -23.578125 
L -0.984375 -23.578125 
L -0.984375 -16.609375 
z
" id="DejaVuSans-95"/>
      </defs>
      <use xlink:href="#DejaVuSans-109"/>
      <use x="97.412109" xlink:href="#DejaVuSans-101"/>
      <use x="158.935547" xlink:href="#DejaVuSans-97"/>
      <use x="220.214844" xlink:href="#DejaVuSans-115"/>
      <use x="272.314453" xlink:href="#DejaVuSans-117"/>
      <use x="335.693359" xlink:href="#DejaVuSans-114"/>
      <use x="374.556641" xlink:href="#DejaVuSans-101"/>
      <use x="436.080078" xlink:href="#DejaVuSans-100"/>
      <use x="499.556641" xlink:href="#DejaVuSans-95"/>
      <use x="549.556641" xlink:href="#DejaVuSans-100"/>
      <use x="613.033203" xlink:href="#DejaVuSans-97"/>
      <use x="674.3125" xlink:href="#DejaVuSans-116"/>
      <use x="713.521484" xlink:href="#DejaVuSans-97"/>
      <use x="774.800781" xlink:href="#DejaVuSans-95"/>
      <use x="824.800781" xlink:href="#DejaVuSans-80"/>
      <use x="885.103516" xlink:href="#DejaVuSans-77"/>
      <use x="971.382812" xlink:href="#DejaVuSans-50"/>
      <use x="1035.005859" xlink:href="#DejaVuSans-46"/>
      <use x="1066.792969" xlink:href="#DejaVuSans-53"/>
     </g>
    </g>
    <g id="line2d_21">
     <path d="M 118.8 102.785625 
L 142.8 102.785625 
" style="fill:none;stroke:#ff0000;stroke-dasharray:5.55,2.4;stroke-dashoffset:0;stroke-width:1.5;"/>
    </g>
    <g id="line2d_22"/>
    <g id="text_21">
     <!-- predicted_data_PM2.5 -->
     <g transform="translate(152.4 106.985625)scale(0.12 -0.12)">
      <defs>
       <path d="M 18.109375 8.203125 
L 18.109375 -20.796875 
L 9.078125 -20.796875 
L 9.078125 54.6875 
L 18.109375 54.6875 
L 18.109375 46.390625 
Q 20.953125 51.265625 25.265625 53.625 
Q 29.59375 56 35.59375 56 
Q 45.5625 56 51.78125 48.09375 
Q 58.015625 40.1875 58.015625 27.296875 
Q 58.015625 14.40625 51.78125 6.484375 
Q 45.5625 -1.421875 35.59375 -1.421875 
Q 29.59375 -1.421875 25.265625 0.953125 
Q 20.953125 3.328125 18.109375 8.203125 
z
M 48.6875 27.296875 
Q 48.6875 37.203125 44.609375 42.84375 
Q 40.53125 48.484375 33.40625 48.484375 
Q 26.265625 48.484375 22.1875 42.84375 
Q 18.109375 37.203125 18.109375 27.296875 
Q 18.109375 17.390625 22.1875 11.75 
Q 26.265625 6.109375 33.40625 6.109375 
Q 40.53125 6.109375 44.609375 11.75 
Q 48.6875 17.390625 48.6875 27.296875 
z
" id="DejaVuSans-112"/>
      </defs>
      <use xlink:href="#DejaVuSans-112"/>
      <use x="63.476562" xlink:href="#DejaVuSans-114"/>
      <use x="102.339844" xlink:href="#DejaVuSans-101"/>
      <use x="163.863281" xlink:href="#DejaVuSans-100"/>
      <use x="227.339844" xlink:href="#DejaVuSans-105"/>
      <use x="255.123047" xlink:href="#DejaVuSans-99"/>
      <use x="310.103516" xlink:href="#DejaVuSans-116"/>
      <use x="349.3125" xlink:href="#DejaVuSans-101"/>
      <use x="410.835938" xlink:href="#DejaVuSans-100"/>
      <use x="474.3125" xlink:href="#DejaVuSans-95"/>
      <use x="524.3125" xlink:href="#DejaVuSans-100"/>
      <use x="587.789062" xlink:href="#DejaVuSans-97"/>
      <use x="649.068359" xlink:href="#DejaVuSans-116"/>
      <use x="688.277344" xlink:href="#DejaVuSans-97"/>
      <use x="749.556641" xlink:href="#DejaVuSans-95"/>
      <use x="799.556641" xlink:href="#DejaVuSans-80"/>
      <use x="859.859375" xlink:href="#DejaVuSans-77"/>
      <use x="946.138672" xlink:href="#DejaVuSans-50"/>
      <use x="1009.761719" xlink:href="#DejaVuSans-46"/>
      <use x="1041.548828" xlink:href="#DejaVuSans-53"/>
     </g>
    </g>
   </g>
  </g>
 </g>
 <defs>
  <clipPath id="pcc74673aca">
   <rect height="391.68" width="669.6" x="108" y="69.12"/>
  </clipPath>
 </defs>
</svg>
